<?xml version="1.0" encoding="UTF-8" standalone="no"?>
<!DOCTYPE svg PUBLIC "-//W3C//DTD SVG 1.1//EN"
 "http://www.w3.org/Graphics/SVG/1.1/DTD/svg11.dtd">
<!-- Generated by graphviz version 2.43.0 (0)
 -->
<!-- Title: l4/sys/__typeinfo.h Pages: 1 -->
<svg width="604pt" height="476pt"
 viewBox="0.00 0.00 603.50 476.00" xmlns="http://www.w3.org/2000/svg" xmlns:xlink="http://www.w3.org/1999/xlink">
<g id="graph0" class="graph" transform="scale(1 1) rotate(0) translate(4 472)">
<title>l4/sys/__typeinfo.h</title>
<polygon fill="white" stroke="transparent" points="-4,4 -4,-472 599.5,-472 599.5,4 -4,4"/>
<!-- Node1 -->
<g id="node1" class="node">
<title>Node1</title>
<g id="a_node1"><a xlink:title="Type information handling.">
<polygon fill="#bfbfbf" stroke="black" points="50,-448.5 50,-467.5 158,-467.5 158,-448.5 50,-448.5"/>
<text text-anchor="middle" x="104" y="-455.5" font-family="Helvetica,sans-Serif" font-size="10.00">l4/sys/__typeinfo.h</text>
</a>
</g>
</g>
<!-- Node2 -->
<g id="node2" class="node">
<title>Node2</title>
<g id="a_node2"><a xlink:href="types.html" target="_top" xlink:title=" ">
<polygon fill="white" stroke="black" points="0,-336.5 0,-355.5 64,-355.5 64,-336.5 0,-336.5"/>
<text text-anchor="middle" x="32" y="-343.5" font-family="Helvetica,sans-Serif" font-size="10.00">cxx/types</text>
</a>
</g>
</g>
<!-- Node1&#45;&gt;Node2 -->
<g id="edge1" class="edge">
<title>Node1&#45;&gt;Node2</title>
<path fill="none" stroke="midnightblue" d="M89.81,-448.37C77.8,-440.37 60.99,-427.39 51,-412 41.9,-397.98 37.05,-379.48 34.53,-365.8"/>
<polygon fill="midnightblue" stroke="midnightblue" points="37.95,-364.98 32.93,-355.65 31.03,-366.08 37.95,-364.98"/>
</g>
<!-- Node3 -->
<g id="node3" class="node">
<title>Node3</title>
<g id="a_node3"><a xlink:href="ipc__basics_source.html" target="_top" xlink:title=" ">
<polygon fill="white" stroke="black" points="60.5,-392.5 60.5,-411.5 147.5,-411.5 147.5,-392.5 60.5,-392.5"/>
<text text-anchor="middle" x="104" y="-399.5" font-family="Helvetica,sans-Serif" font-size="10.00">cxx/ipc_basics</text>
</a>
</g>
</g>
<!-- Node1&#45;&gt;Node3 -->
<g id="edge2" class="edge">
<title>Node1&#45;&gt;Node3</title>
<path fill="none" stroke="midnightblue" d="M104,-448.08C104,-441.01 104,-430.86 104,-421.99"/>
<polygon fill="midnightblue" stroke="midnightblue" points="107.5,-421.75 104,-411.75 100.5,-421.75 107.5,-421.75"/>
</g>
<!-- Node13 -->
<g id="node13" class="node">
<title>Node13</title>
<g id="a_node13"><a xlink:href="capability_8h_source.html" target="_top" xlink:title=" ">
<polygon fill="white" stroke="black" points="254,-392.5 254,-411.5 346,-411.5 346,-392.5 254,-392.5"/>
<text text-anchor="middle" x="300" y="-399.5" font-family="Helvetica,sans-Serif" font-size="10.00">cxx/capability.h</text>
</a>
</g>
</g>
<!-- Node1&#45;&gt;Node13 -->
<g id="edge20" class="edge">
<title>Node1&#45;&gt;Node13</title>
<path fill="none" stroke="midnightblue" d="M135.06,-448.44C168.6,-439.2 222.2,-424.44 259.14,-414.26"/>
<polygon fill="midnightblue" stroke="midnightblue" points="260.38,-417.55 269.09,-411.52 258.52,-410.8 260.38,-417.55"/>
</g>
<!-- Node3&#45;&gt;Node2 -->
<g id="edge3" class="edge">
<title>Node3&#45;&gt;Node2</title>
<path fill="none" stroke="midnightblue" d="M92.43,-392.32C81.58,-384.18 65.12,-371.84 52.12,-362.09"/>
<polygon fill="midnightblue" stroke="midnightblue" points="53.88,-359.03 43.78,-355.83 49.68,-364.63 53.88,-359.03"/>
</g>
<!-- Node4 -->
<g id="node4" class="node">
<title>Node4</title>
<g id="a_node4"><a xlink:href="l4_2sys_2utcb_8h.html" target="_top" xlink:title="UTCB definitions.">
<polygon fill="white" stroke="black" points="147,-224.5 147,-243.5 225,-243.5 225,-224.5 147,-224.5"/>
<text text-anchor="middle" x="186" y="-231.5" font-family="Helvetica,sans-Serif" font-size="10.00">l4/sys/utcb.h</text>
</a>
</g>
</g>
<!-- Node3&#45;&gt;Node4 -->
<g id="edge4" class="edge">
<title>Node3&#45;&gt;Node4</title>
<path fill="none" stroke="midnightblue" d="M106.15,-392.36C111.46,-371.89 126.42,-319.24 149,-280 154.98,-269.61 163.35,-259.2 170.62,-251.01"/>
<polygon fill="midnightblue" stroke="midnightblue" points="173.2,-253.38 177.39,-243.65 168.04,-248.64 173.2,-253.38"/>
</g>
<!-- Node12 -->
<g id="node12" class="node">
<title>Node12</title>
<g id="a_node12"><a xlink:href="err_8h.html" target="_top" xlink:title="Error codes.">
<polygon fill="white" stroke="black" points="57,-224.5 57,-243.5 127,-243.5 127,-224.5 57,-224.5"/>
<text text-anchor="middle" x="92" y="-231.5" font-family="Helvetica,sans-Serif" font-size="10.00">l4/sys/err.h</text>
</a>
</g>
</g>
<!-- Node3&#45;&gt;Node12 -->
<g id="edge18" class="edge">
<title>Node3&#45;&gt;Node12</title>
<path fill="none" stroke="midnightblue" d="M103.35,-392.08C101.47,-365.95 95.92,-289.21 93.34,-253.58"/>
<polygon fill="midnightblue" stroke="midnightblue" points="96.83,-253.29 92.62,-243.57 89.85,-253.79 96.83,-253.29"/>
</g>
<!-- Node5 -->
<g id="node5" class="node">
<title>Node5</title>
<g id="a_node5"><a xlink:href="l4_2sys_2types_8h.html" target="_top" xlink:title="Common L4 ABI Data Types.">
<polygon fill="white" stroke="black" points="274,-168.5 274,-187.5 358,-187.5 358,-168.5 274,-168.5"/>
<text text-anchor="middle" x="316" y="-175.5" font-family="Helvetica,sans-Serif" font-size="10.00">l4/sys/types.h</text>
</a>
</g>
</g>
<!-- Node4&#45;&gt;Node5 -->
<g id="edge5" class="edge">
<title>Node4&#45;&gt;Node5</title>
<path fill="none" stroke="midnightblue" d="M206.6,-224.44C227.99,-215.56 261.68,-201.56 286.02,-191.45"/>
<polygon fill="midnightblue" stroke="midnightblue" points="287.61,-194.58 295.5,-187.52 284.92,-188.12 287.61,-194.58"/>
</g>
<!-- Node6 -->
<g id="node6" class="node">
<title>Node6</title>
<g id="a_node6"><a xlink:href="l4_2sys_2l4int_8h.html" target="_top" xlink:title="Fixed sized integer types, generic version.">
<polygon fill="white" stroke="black" points="397.5,-56.5 397.5,-75.5 476.5,-75.5 476.5,-56.5 397.5,-56.5"/>
<text text-anchor="middle" x="437" y="-63.5" font-family="Helvetica,sans-Serif" font-size="10.00">l4/sys/l4int.h</text>
</a>
</g>
</g>
<!-- Node4&#45;&gt;Node6 -->
<g id="edge17" class="edge">
<title>Node4&#45;&gt;Node6</title>
<path fill="none" stroke="midnightblue" d="M180.9,-224.46C168.71,-202.82 140.91,-145.2 169,-112 182.93,-95.53 313.75,-79.63 387.33,-71.88"/>
<polygon fill="midnightblue" stroke="midnightblue" points="387.73,-75.36 397.31,-70.85 387,-68.4 387.73,-75.36"/>
</g>
<!-- Node7 -->
<g id="node7" class="node">
<title>Node7</title>
<g id="a_node7"><a xlink:href="compiler_8h.html" target="_top" xlink:title="L4 compiler related defines.">
<polygon fill="white" stroke="black" points="183.5,-56.5 183.5,-75.5 282.5,-75.5 282.5,-56.5 183.5,-56.5"/>
<text text-anchor="middle" x="233" y="-63.5" font-family="Helvetica,sans-Serif" font-size="10.00">l4/sys/compiler.h</text>
</a>
</g>
</g>
<!-- Node4&#45;&gt;Node7 -->
<g id="edge16" class="edge">
<title>Node4&#45;&gt;Node7</title>
<path fill="none" stroke="midnightblue" d="M171.05,-224.47C159.07,-216.7 143.13,-204 136,-188 122.26,-157.14 117.82,-140.47 136,-112 146.2,-96.03 163.69,-85.64 181.04,-78.92"/>
<polygon fill="midnightblue" stroke="midnightblue" points="182.34,-82.17 190.61,-75.55 180.02,-75.56 182.34,-82.17"/>
</g>
<!-- Node5&#45;&gt;Node6 -->
<g id="edge6" class="edge">
<title>Node5&#45;&gt;Node6</title>
<path fill="none" stroke="midnightblue" d="M358.19,-169.41C395.87,-161.67 446.91,-148.47 459,-132 469.52,-117.66 460.29,-97.94 450.76,-83.99"/>
<polygon fill="midnightblue" stroke="midnightblue" points="453.44,-81.72 444.67,-75.77 447.81,-85.89 453.44,-81.72"/>
</g>
<!-- Node5&#45;&gt;Node7 -->
<g id="edge7" class="edge">
<title>Node5&#45;&gt;Node7</title>
<path fill="none" stroke="midnightblue" d="M315.28,-168.21C313.8,-154.91 309.45,-129.4 297,-112 287.59,-98.85 273.08,-88.19 260.26,-80.56"/>
<polygon fill="midnightblue" stroke="midnightblue" points="261.75,-77.38 251.31,-75.54 258.32,-83.49 261.75,-77.38"/>
</g>
<!-- Node9 -->
<g id="node9" class="node">
<title>Node9</title>
<g id="a_node9"><a xlink:href="l4_2sys_2consts_8h.html" target="_top" xlink:title="Common constants.">
<polygon fill="white" stroke="black" points="506.5,-112.5 506.5,-131.5 595.5,-131.5 595.5,-112.5 506.5,-112.5"/>
<text text-anchor="middle" x="551" y="-119.5" font-family="Helvetica,sans-Serif" font-size="10.00">l4/sys/consts.h</text>
</a>
</g>
</g>
<!-- Node5&#45;&gt;Node9 -->
<g id="edge9" class="edge">
<title>Node5&#45;&gt;Node9</title>
<path fill="none" stroke="midnightblue" d="M353.24,-168.44C394.06,-159.06 459.64,-143.99 503.98,-133.8"/>
<polygon fill="midnightblue" stroke="midnightblue" points="504.98,-137.17 513.94,-131.52 503.41,-130.34 504.98,-137.17"/>
</g>
<!-- Node10 -->
<g id="node10" class="node">
<title>Node10</title>
<g id="a_node10"><a xlink:href="____l4__fpage_8h_source.html" target="_top" xlink:title=" ">
<polygon fill="white" stroke="black" points="178,-112.5 178,-131.5 288,-131.5 288,-112.5 178,-112.5"/>
<text text-anchor="middle" x="233" y="-119.5" font-family="Helvetica,sans-Serif" font-size="10.00">l4/sys/__l4_fpage.h</text>
</a>
</g>
</g>
<!-- Node5&#45;&gt;Node10 -->
<g id="edge12" class="edge">
<title>Node5&#45;&gt;Node10</title>
<path fill="none" stroke="midnightblue" d="M302.66,-168.32C289.84,-159.98 270.22,-147.21 255.06,-137.35"/>
<polygon fill="midnightblue" stroke="midnightblue" points="256.59,-134.17 246.3,-131.65 252.78,-140.04 256.59,-134.17"/>
</g>
<!-- Node11 -->
<g id="node11" class="node">
<title>Node11</title>
<g id="a_node11"><a xlink:href="____timeout_8h_source.html" target="_top" xlink:title=" ">
<polygon fill="white" stroke="black" points="344,-112.5 344,-131.5 450,-131.5 450,-112.5 344,-112.5"/>
<text text-anchor="middle" x="397" y="-119.5" font-family="Helvetica,sans-Serif" font-size="10.00">l4/sys/__timeout.h</text>
</a>
</g>
</g>
<!-- Node5&#45;&gt;Node11 -->
<g id="edge14" class="edge">
<title>Node5&#45;&gt;Node11</title>
<path fill="none" stroke="midnightblue" d="M329.01,-168.32C341.53,-159.98 360.68,-147.21 375.47,-137.35"/>
<polygon fill="midnightblue" stroke="midnightblue" points="377.64,-140.11 384.02,-131.65 373.76,-134.29 377.64,-140.11"/>
</g>
<!-- Node8 -->
<g id="node8" class="node">
<title>Node8</title>
<g id="a_node8"><a xlink:title=" ">
<polygon fill="white" stroke="#bfbfbf" points="187,-0.5 187,-19.5 279,-19.5 279,-0.5 187,-0.5"/>
<text text-anchor="middle" x="233" y="-7.5" font-family="Helvetica,sans-Serif" font-size="10.00">l4/sys/linkage.h</text>
</a>
</g>
</g>
<!-- Node7&#45;&gt;Node8 -->
<g id="edge8" class="edge">
<title>Node7&#45;&gt;Node8</title>
<path fill="none" stroke="midnightblue" d="M233,-56.08C233,-49.01 233,-38.86 233,-29.99"/>
<polygon fill="midnightblue" stroke="midnightblue" points="236.5,-29.75 233,-19.75 229.5,-29.75 236.5,-29.75"/>
</g>
<!-- Node9&#45;&gt;Node6 -->
<g id="edge11" class="edge">
<title>Node9&#45;&gt;Node6</title>
<path fill="none" stroke="midnightblue" d="M532.94,-112.44C514.43,-103.68 485.42,-89.94 464.14,-79.86"/>
<polygon fill="midnightblue" stroke="midnightblue" points="465.51,-76.63 454.98,-75.52 462.52,-82.96 465.51,-76.63"/>
</g>
<!-- Node9&#45;&gt;Node7 -->
<g id="edge10" class="edge">
<title>Node9&#45;&gt;Node7</title>
<path fill="none" stroke="midnightblue" d="M506.45,-113.43C450.67,-103.96 354.91,-87.7 292.79,-77.15"/>
<polygon fill="midnightblue" stroke="midnightblue" points="293.19,-73.67 282.74,-75.45 292.02,-80.57 293.19,-73.67"/>
</g>
<!-- Node10&#45;&gt;Node7 -->
<g id="edge13" class="edge">
<title>Node10&#45;&gt;Node7</title>
<path fill="none" stroke="midnightblue" d="M233,-112.08C233,-105.01 233,-94.86 233,-85.99"/>
<polygon fill="midnightblue" stroke="midnightblue" points="236.5,-85.75 233,-75.75 229.5,-85.75 236.5,-85.75"/>
</g>
<!-- Node11&#45;&gt;Node6 -->
<g id="edge15" class="edge">
<title>Node11&#45;&gt;Node6</title>
<path fill="none" stroke="midnightblue" d="M403.61,-112.08C409.26,-104.46 417.54,-93.26 424.45,-83.94"/>
<polygon fill="midnightblue" stroke="midnightblue" points="427.38,-85.87 430.52,-75.75 421.75,-81.7 427.38,-85.87"/>
</g>
<!-- Node12&#45;&gt;Node7 -->
<g id="edge19" class="edge">
<title>Node12&#45;&gt;Node7</title>
<path fill="none" stroke="midnightblue" d="M91.72,-224.5C91.49,-202.95 93.8,-145.52 123,-112 137.15,-95.76 158.06,-85.28 177.86,-78.56"/>
<polygon fill="midnightblue" stroke="midnightblue" points="178.95,-81.89 187.45,-75.56 176.86,-75.21 178.95,-81.89"/>
</g>
<!-- Node13&#45;&gt;Node5 -->
<g id="edge22" class="edge">
<title>Node13&#45;&gt;Node5</title>
<path fill="none" stroke="midnightblue" d="M302.39,-392.46C304.8,-383.47 308.37,-368.86 310,-356 317.28,-298.68 317.1,-230.14 316.5,-197.73"/>
<polygon fill="midnightblue" stroke="midnightblue" points="319.99,-197.44 316.27,-187.52 312.99,-197.6 319.99,-197.44"/>
</g>
<!-- Node13&#45;&gt;Node9 -->
<g id="edge21" class="edge">
<title>Node13&#45;&gt;Node9</title>
<path fill="none" stroke="midnightblue" d="M314.3,-392.4C339.46,-376.06 389,-337.92 389,-291 389,-291 389,-291 389,-233 389,-177.93 453.86,-148.51 501.5,-134.33"/>
<polygon fill="midnightblue" stroke="midnightblue" points="502.7,-137.63 511.37,-131.53 500.79,-130.89 502.7,-137.63"/>
</g>
<!-- Node14 -->
<g id="node14" class="node">
<title>Node14</title>
<g id="a_node14"><a xlink:href="l4_2sys_2task_8h.html" target="_top" xlink:title="Common task related definitions.">
<polygon fill="white" stroke="black" points="223,-336.5 223,-355.5 301,-355.5 301,-336.5 223,-336.5"/>
<text text-anchor="middle" x="262" y="-343.5" font-family="Helvetica,sans-Serif" font-size="10.00">l4/sys/task.h</text>
</a>
</g>
</g>
<!-- Node13&#45;&gt;Node14 -->
<g id="edge23" class="edge">
<title>Node13&#45;&gt;Node14</title>
<path fill="none" stroke="midnightblue" d="M293.73,-392.08C288.36,-384.46 280.48,-373.26 273.92,-363.94"/>
<polygon fill="midnightblue" stroke="midnightblue" points="276.78,-361.91 268.16,-355.75 271.05,-365.94 276.78,-361.91"/>
</g>
<!-- Node14&#45;&gt;Node4 -->
<g id="edge25" class="edge">
<title>Node14&#45;&gt;Node4</title>
<path fill="none" stroke="midnightblue" d="M260.27,-336.36C257.34,-323.26 250.46,-298 238,-280 229.82,-268.19 217.85,-257.54 207.45,-249.57"/>
<polygon fill="midnightblue" stroke="midnightblue" points="209.34,-246.62 199.2,-243.54 205.21,-252.27 209.34,-246.62"/>
</g>
<!-- Node14&#45;&gt;Node5 -->
<g id="edge24" class="edge">
<title>Node14&#45;&gt;Node5</title>
<path fill="none" stroke="midnightblue" d="M264.9,-336.08C273.44,-309.83 298.58,-232.55 310.11,-197.12"/>
<polygon fill="midnightblue" stroke="midnightblue" points="313.45,-198.16 313.21,-187.57 306.79,-195.99 313.45,-198.16"/>
</g>
<!-- Node15 -->
<g id="node15" class="node">
<title>Node15</title>
<g id="a_node15"><a xlink:href="l4_2sys_2ipc_8h.html" target="_top" xlink:title="Common IPC interface.">
<polygon fill="white" stroke="black" points="158.5,-280.5 158.5,-299.5 229.5,-299.5 229.5,-280.5 158.5,-280.5"/>
<text text-anchor="middle" x="194" y="-287.5" font-family="Helvetica,sans-Serif" font-size="10.00">l4/sys/ipc.h</text>
</a>
</g>
</g>
<!-- Node14&#45;&gt;Node15 -->
<g id="edge26" class="edge">
<title>Node14&#45;&gt;Node15</title>
<path fill="none" stroke="midnightblue" d="M251.07,-336.32C240.83,-328.18 225.28,-315.84 213,-306.09"/>
<polygon fill="midnightblue" stroke="midnightblue" points="215.13,-303.31 205.12,-299.83 210.78,-308.79 215.13,-303.31"/>
</g>
<!-- Node15&#45;&gt;Node4 -->
<g id="edge28" class="edge">
<title>Node15&#45;&gt;Node4</title>
<path fill="none" stroke="midnightblue" d="M192.68,-280.08C191.62,-272.93 190.09,-262.64 188.77,-253.69"/>
<polygon fill="midnightblue" stroke="midnightblue" points="192.22,-253.13 187.3,-243.75 185.3,-254.16 192.22,-253.13"/>
</g>
<!-- Node15&#45;&gt;Node5 -->
<g id="edge27" class="edge">
<title>Node15&#45;&gt;Node5</title>
<path fill="none" stroke="midnightblue" d="M203.57,-280.37C224.15,-261.81 272.84,-217.91 298.88,-194.44"/>
<polygon fill="midnightblue" stroke="midnightblue" points="301.39,-196.89 306.47,-187.59 296.7,-191.69 301.39,-196.89"/>
</g>
<!-- Node15&#45;&gt;Node12 -->
<g id="edge29" class="edge">
<title>Node15&#45;&gt;Node12</title>
<path fill="none" stroke="midnightblue" d="M177.61,-280.32C161.33,-271.7 136.13,-258.36 117.28,-248.39"/>
<polygon fill="midnightblue" stroke="midnightblue" points="118.82,-245.24 108.35,-243.65 115.55,-251.43 118.82,-245.24"/>
</g>
</g>
</svg>
