<?xml version="1.0" encoding="UTF-8" standalone="no"?>
<!DOCTYPE svg PUBLIC "-//W3C//DTD SVG 1.1//EN"
 "http://www.w3.org/Graphics/SVG/1.1/DTD/svg11.dtd">
<!-- Generated by graphviz version 2.43.0 (0)
 -->
<!-- Title: amd64/l4f/l4/util/port_io.h Pages: 1 -->
<svg width="702pt" height="420pt"
 viewBox="0.00 0.00 702.49 420.00" xmlns="http://www.w3.org/2000/svg" xmlns:xlink="http://www.w3.org/1999/xlink">
<g id="graph0" class="graph" transform="scale(1 1) rotate(0) translate(4 416)">
<title>amd64/l4f/l4/util/port_io.h</title>
<polygon fill="white" stroke="transparent" points="-4,4 -4,-416 698.49,-416 698.49,4 -4,4"/>
<!-- Node1 -->
<g id="node1" class="node">
<title>Node1</title>
<g id="a_node1"><a xlink:title="Port I/O functions.">
<polygon fill="#bfbfbf" stroke="black" points="352.99,-392.5 352.99,-411.5 495.99,-411.5 495.99,-392.5 352.99,-392.5"/>
<text text-anchor="middle" x="424.49" y="-399.5" font-family="Helvetica,sans-Serif" font-size="10.00">amd64/l4f/l4/util/port_io.h</text>
</a>
</g>
</g>
<!-- Node2 -->
<g id="node2" class="node">
<title>Node2</title>
<g id="a_node2"><a xlink:href="x86_2l4f_2l4_2util_2port__io_8h.html" target="_top" xlink:title="port I/O functions">
<polygon fill="white" stroke="black" points="360.99,-336.5 360.99,-355.5 487.99,-355.5 487.99,-336.5 360.99,-336.5"/>
<text text-anchor="middle" x="424.49" y="-343.5" font-family="Helvetica,sans-Serif" font-size="10.00">x86/l4f/l4/util/port_io.h</text>
</a>
</g>
</g>
<!-- Node1&#45;&gt;Node2 -->
<g id="edge1" class="edge">
<title>Node1&#45;&gt;Node2</title>
<path fill="none" stroke="midnightblue" d="M424.49,-392.08C424.49,-385.01 424.49,-374.86 424.49,-365.99"/>
<polygon fill="midnightblue" stroke="midnightblue" points="427.99,-365.75 424.49,-355.75 420.99,-365.75 427.99,-365.75"/>
</g>
<!-- Node3 -->
<g id="node3" class="node">
<title>Node3</title>
<g id="a_node3"><a xlink:href="compiler_8h.html" target="_top" xlink:title="L4 compiler related defines.">
<polygon fill="white" stroke="black" points="460.99,-56.5 460.99,-75.5 559.99,-75.5 559.99,-56.5 460.99,-56.5"/>
<text text-anchor="middle" x="510.49" y="-63.5" font-family="Helvetica,sans-Serif" font-size="10.00">l4/sys/compiler.h</text>
</a>
</g>
</g>
<!-- Node2&#45;&gt;Node3 -->
<g id="edge2" class="edge">
<title>Node2&#45;&gt;Node3</title>
<path fill="none" stroke="midnightblue" d="M468.78,-336.49C545.37,-320.48 694.49,-283.15 694.49,-235 694.49,-235 694.49,-235 694.49,-177 694.49,-117.96 623.85,-89.85 570.1,-77.01"/>
<polygon fill="midnightblue" stroke="midnightblue" points="570.81,-73.58 560.29,-74.79 569.27,-80.41 570.81,-73.58"/>
</g>
<!-- Node5 -->
<g id="node5" class="node">
<title>Node5</title>
<g id="a_node5"><a xlink:href="l4_2sys_2types_8h.html" target="_top" xlink:title="Common L4 ABI Data Types.">
<polygon fill="white" stroke="black" points="349.49,-168.5 349.49,-187.5 433.49,-187.5 433.49,-168.5 349.49,-168.5"/>
<text text-anchor="middle" x="391.49" y="-175.5" font-family="Helvetica,sans-Serif" font-size="10.00">l4/sys/types.h</text>
</a>
</g>
</g>
<!-- Node2&#45;&gt;Node5 -->
<g id="edge4" class="edge">
<title>Node2&#45;&gt;Node5</title>
<path fill="none" stroke="midnightblue" d="M418.7,-336.3C407.83,-319.4 384.74,-280.55 376.49,-244 372.91,-228.13 377.78,-210.11 382.9,-197.07"/>
<polygon fill="midnightblue" stroke="midnightblue" points="386.14,-198.39 386.9,-187.83 379.72,-195.61 386.14,-198.39"/>
</g>
<!-- Node10 -->
<g id="node10" class="node">
<title>Node10</title>
<g id="a_node10"><a xlink:href="x86_2l4_2util_2port__io_8h.html" target="_top" xlink:title="x86 port I/O">
<polygon fill="white" stroke="black" points="141.99,-112.5 141.99,-131.5 252.99,-131.5 252.99,-112.5 141.99,-112.5"/>
<text text-anchor="middle" x="197.49" y="-119.5" font-family="Helvetica,sans-Serif" font-size="10.00">x86/l4/util/port_io.h</text>
</a>
</g>
</g>
<!-- Node2&#45;&gt;Node10 -->
<g id="edge14" class="edge">
<title>Node2&#45;&gt;Node10</title>
<path fill="none" stroke="midnightblue" d="M415.6,-336.3C381.49,-302.94 258.77,-182.92 213.99,-139.13"/>
<polygon fill="midnightblue" stroke="midnightblue" points="216.17,-136.37 206.58,-131.88 211.28,-141.38 216.17,-136.37"/>
</g>
<!-- Node11 -->
<g id="node11" class="node">
<title>Node11</title>
<g id="a_node11"><a xlink:href="l4_2sys_2utcb_8h.html" target="_top" xlink:title="UTCB definitions.">
<polygon fill="white" stroke="black" points="385.49,-224.5 385.49,-243.5 463.49,-243.5 463.49,-224.5 385.49,-224.5"/>
<text text-anchor="middle" x="424.49" y="-231.5" font-family="Helvetica,sans-Serif" font-size="10.00">l4/sys/utcb.h</text>
</a>
</g>
</g>
<!-- Node2&#45;&gt;Node11 -->
<g id="edge17" class="edge">
<title>Node2&#45;&gt;Node11</title>
<path fill="none" stroke="midnightblue" d="M424.49,-336.37C424.49,-318.62 424.49,-277.67 424.49,-253.6"/>
<polygon fill="midnightblue" stroke="midnightblue" points="427.99,-253.59 424.49,-243.59 420.99,-253.59 427.99,-253.59"/>
</g>
<!-- Node12 -->
<g id="node12" class="node">
<title>Node12</title>
<g id="a_node12"><a xlink:href="l4_2sys_2ipc_8h.html" target="_top" xlink:title="Common IPC interface.">
<polygon fill="white" stroke="black" points="454.99,-280.5 454.99,-299.5 525.99,-299.5 525.99,-280.5 454.99,-280.5"/>
<text text-anchor="middle" x="490.49" y="-287.5" font-family="Helvetica,sans-Serif" font-size="10.00">l4/sys/ipc.h</text>
</a>
</g>
</g>
<!-- Node2&#45;&gt;Node12 -->
<g id="edge21" class="edge">
<title>Node2&#45;&gt;Node12</title>
<path fill="none" stroke="midnightblue" d="M435.1,-336.32C444.95,-328.26 459.84,-316.08 471.71,-306.37"/>
<polygon fill="midnightblue" stroke="midnightblue" points="474.17,-308.88 479.7,-299.83 469.74,-303.46 474.17,-308.88"/>
</g>
<!-- Node4 -->
<g id="node4" class="node">
<title>Node4</title>
<g id="a_node4"><a xlink:title=" ">
<polygon fill="white" stroke="#bfbfbf" points="464.49,-0.5 464.49,-19.5 556.49,-19.5 556.49,-0.5 464.49,-0.5"/>
<text text-anchor="middle" x="510.49" y="-7.5" font-family="Helvetica,sans-Serif" font-size="10.00">l4/sys/linkage.h</text>
</a>
</g>
</g>
<!-- Node3&#45;&gt;Node4 -->
<g id="edge3" class="edge">
<title>Node3&#45;&gt;Node4</title>
<path fill="none" stroke="midnightblue" d="M510.49,-56.08C510.49,-49.01 510.49,-38.86 510.49,-29.99"/>
<polygon fill="midnightblue" stroke="midnightblue" points="513.99,-29.75 510.49,-19.75 506.99,-29.75 513.99,-29.75"/>
</g>
<!-- Node5&#45;&gt;Node3 -->
<g id="edge6" class="edge">
<title>Node5&#45;&gt;Node3</title>
<path fill="none" stroke="midnightblue" d="M397.65,-168.4C407.22,-155.35 426.64,-130.15 446.49,-112 459.16,-100.42 474.91,-89.31 487.62,-81.03"/>
<polygon fill="midnightblue" stroke="midnightblue" points="489.69,-83.85 496.24,-75.53 485.93,-77.95 489.69,-83.85"/>
</g>
<!-- Node6 -->
<g id="node6" class="node">
<title>Node6</title>
<g id="a_node6"><a xlink:href="l4_2sys_2l4int_8h.html" target="_top" xlink:title="Fixed sized integer types, generic version.">
<polygon fill="white" stroke="black" points="157.99,-56.5 157.99,-75.5 236.99,-75.5 236.99,-56.5 157.99,-56.5"/>
<text text-anchor="middle" x="197.49" y="-63.5" font-family="Helvetica,sans-Serif" font-size="10.00">l4/sys/l4int.h</text>
</a>
</g>
</g>
<!-- Node5&#45;&gt;Node6 -->
<g id="edge5" class="edge">
<title>Node5&#45;&gt;Node6</title>
<path fill="none" stroke="midnightblue" d="M372.96,-168.37C354.57,-159.66 325.72,-145.59 301.49,-132 272.21,-115.58 239.55,-94.73 218.78,-81.13"/>
<polygon fill="midnightblue" stroke="midnightblue" points="220.67,-78.19 210.39,-75.61 216.82,-84.03 220.67,-78.19"/>
</g>
<!-- Node7 -->
<g id="node7" class="node">
<title>Node7</title>
<g id="a_node7"><a xlink:href="l4_2sys_2consts_8h.html" target="_top" xlink:title="Common constants.">
<polygon fill="white" stroke="black" points="309.99,-112.5 309.99,-131.5 398.99,-131.5 398.99,-112.5 309.99,-112.5"/>
<text text-anchor="middle" x="354.49" y="-119.5" font-family="Helvetica,sans-Serif" font-size="10.00">l4/sys/consts.h</text>
</a>
</g>
</g>
<!-- Node5&#45;&gt;Node7 -->
<g id="edge7" class="edge">
<title>Node5&#45;&gt;Node7</title>
<path fill="none" stroke="midnightblue" d="M385.38,-168.08C380.21,-160.53 372.65,-149.49 366.3,-140.23"/>
<polygon fill="midnightblue" stroke="midnightblue" points="369.03,-138.02 360.49,-131.75 363.25,-141.98 369.03,-138.02"/>
</g>
<!-- Node8 -->
<g id="node8" class="node">
<title>Node8</title>
<g id="a_node8"><a xlink:href="____l4__fpage_8h_source.html" target="_top" xlink:title=" ">
<polygon fill="white" stroke="black" points="455.49,-112.5 455.49,-131.5 565.49,-131.5 565.49,-112.5 455.49,-112.5"/>
<text text-anchor="middle" x="510.49" y="-119.5" font-family="Helvetica,sans-Serif" font-size="10.00">l4/sys/__l4_fpage.h</text>
</a>
</g>
</g>
<!-- Node5&#45;&gt;Node8 -->
<g id="edge10" class="edge">
<title>Node5&#45;&gt;Node8</title>
<path fill="none" stroke="midnightblue" d="M410.35,-168.44C429.76,-159.64 460.22,-145.81 482.46,-135.72"/>
<polygon fill="midnightblue" stroke="midnightblue" points="484.07,-138.84 491.73,-131.52 481.17,-132.46 484.07,-138.84"/>
</g>
<!-- Node9 -->
<g id="node9" class="node">
<title>Node9</title>
<g id="a_node9"><a xlink:href="____timeout_8h_source.html" target="_top" xlink:title=" ">
<polygon fill="white" stroke="black" points="17.49,-112.5 17.49,-131.5 123.49,-131.5 123.49,-112.5 17.49,-112.5"/>
<text text-anchor="middle" x="70.49" y="-119.5" font-family="Helvetica,sans-Serif" font-size="10.00">l4/sys/__timeout.h</text>
</a>
</g>
</g>
<!-- Node5&#45;&gt;Node9 -->
<g id="edge12" class="edge">
<title>Node5&#45;&gt;Node9</title>
<path fill="none" stroke="midnightblue" d="M349.2,-169.88C293.37,-160.49 194.71,-143.9 131,-133.18"/>
<polygon fill="midnightblue" stroke="midnightblue" points="131.53,-129.72 121.08,-131.51 130.37,-136.62 131.53,-129.72"/>
</g>
<!-- Node7&#45;&gt;Node3 -->
<g id="edge8" class="edge">
<title>Node7&#45;&gt;Node3</title>
<path fill="none" stroke="midnightblue" d="M379.21,-112.44C405.34,-103.4 446.75,-89.06 476.07,-78.92"/>
<polygon fill="midnightblue" stroke="midnightblue" points="477.59,-82.1 485.89,-75.52 475.3,-75.48 477.59,-82.1"/>
</g>
<!-- Node7&#45;&gt;Node6 -->
<g id="edge9" class="edge">
<title>Node7&#45;&gt;Node6</title>
<path fill="none" stroke="midnightblue" d="M329.62,-112.44C303.2,-103.36 261.28,-88.94 231.75,-78.78"/>
<polygon fill="midnightblue" stroke="midnightblue" points="232.85,-75.46 222.25,-75.52 230.57,-82.08 232.85,-75.46"/>
</g>
<!-- Node8&#45;&gt;Node3 -->
<g id="edge11" class="edge">
<title>Node8&#45;&gt;Node3</title>
<path fill="none" stroke="midnightblue" d="M510.49,-112.08C510.49,-105.01 510.49,-94.86 510.49,-85.99"/>
<polygon fill="midnightblue" stroke="midnightblue" points="513.99,-85.75 510.49,-75.75 506.99,-85.75 513.99,-85.75"/>
</g>
<!-- Node9&#45;&gt;Node6 -->
<g id="edge13" class="edge">
<title>Node9&#45;&gt;Node6</title>
<path fill="none" stroke="midnightblue" d="M90.62,-112.44C111.52,-103.56 144.43,-89.56 168.21,-79.45"/>
<polygon fill="midnightblue" stroke="midnightblue" points="169.63,-82.65 177.46,-75.52 166.89,-76.21 169.63,-82.65"/>
</g>
<!-- Node10&#45;&gt;Node3 -->
<g id="edge16" class="edge">
<title>Node10&#45;&gt;Node3</title>
<path fill="none" stroke="midnightblue" d="M247.09,-112.44C302.49,-102.89 392.14,-87.42 451.2,-77.23"/>
<polygon fill="midnightblue" stroke="midnightblue" points="451.87,-80.67 461.13,-75.52 450.68,-73.77 451.87,-80.67"/>
</g>
<!-- Node10&#45;&gt;Node6 -->
<g id="edge15" class="edge">
<title>Node10&#45;&gt;Node6</title>
<path fill="none" stroke="midnightblue" d="M197.49,-112.08C197.49,-105.01 197.49,-94.86 197.49,-85.99"/>
<polygon fill="midnightblue" stroke="midnightblue" points="200.99,-85.75 197.49,-75.75 193.99,-85.75 200.99,-85.75"/>
</g>
<!-- Node11&#45;&gt;Node3 -->
<g id="edge19" class="edge">
<title>Node11&#45;&gt;Node3</title>
<path fill="none" stroke="midnightblue" d="M450.17,-224.44C485.63,-211.06 548.16,-181.47 574.49,-132 585.69,-110.96 561.6,-92.19 539.85,-80.3"/>
<polygon fill="midnightblue" stroke="midnightblue" points="541.27,-77.09 530.78,-75.64 538.07,-83.32 541.27,-77.09"/>
</g>
<!-- Node11&#45;&gt;Node5 -->
<g id="edge18" class="edge">
<title>Node11&#45;&gt;Node5</title>
<path fill="none" stroke="midnightblue" d="M419.04,-224.08C414.48,-216.61 407.83,-205.72 402.2,-196.52"/>
<polygon fill="midnightblue" stroke="midnightblue" points="405.04,-194.46 396.84,-187.75 399.07,-198.11 405.04,-194.46"/>
</g>
<!-- Node11&#45;&gt;Node6 -->
<g id="edge20" class="edge">
<title>Node11&#45;&gt;Node6</title>
<path fill="none" stroke="midnightblue" d="M385.43,-229.53C291.11,-220.27 55.29,-191.52 8.49,-132 -30.21,-82.77 79.6,-70.65 147.75,-67.78"/>
<polygon fill="midnightblue" stroke="midnightblue" points="148.03,-71.27 157.9,-67.41 147.77,-64.28 148.03,-71.27"/>
</g>
<!-- Node12&#45;&gt;Node5 -->
<g id="edge22" class="edge">
<title>Node12&#45;&gt;Node5</title>
<path fill="none" stroke="midnightblue" d="M490.19,-280.48C489.29,-267.1 485.82,-240.93 472.49,-224 461.04,-209.45 443.51,-198.89 427.68,-191.67"/>
<polygon fill="midnightblue" stroke="midnightblue" points="428.69,-188.29 418.12,-187.6 425.95,-194.73 428.69,-188.29"/>
</g>
<!-- Node12&#45;&gt;Node11 -->
<g id="edge23" class="edge">
<title>Node12&#45;&gt;Node11</title>
<path fill="none" stroke="midnightblue" d="M479.89,-280.32C470.04,-272.26 455.14,-260.08 443.28,-250.37"/>
<polygon fill="midnightblue" stroke="midnightblue" points="445.25,-247.46 435.29,-243.83 440.81,-252.88 445.25,-247.46"/>
</g>
<!-- Node13 -->
<g id="node13" class="node">
<title>Node13</title>
<g id="a_node13"><a xlink:href="err_8h.html" target="_top" xlink:title="Error codes.">
<polygon fill="white" stroke="black" points="596.49,-168.5 596.49,-187.5 666.49,-187.5 666.49,-168.5 596.49,-168.5"/>
<text text-anchor="middle" x="631.49" y="-175.5" font-family="Helvetica,sans-Serif" font-size="10.00">l4/sys/err.h</text>
</a>
</g>
</g>
<!-- Node12&#45;&gt;Node13 -->
<g id="edge24" class="edge">
<title>Node12&#45;&gt;Node13</title>
<path fill="none" stroke="midnightblue" d="M501.56,-280.37C525.55,-261.65 582.59,-217.15 612.48,-193.83"/>
<polygon fill="midnightblue" stroke="midnightblue" points="614.75,-196.5 620.48,-187.59 610.44,-190.98 614.75,-196.5"/>
</g>
<!-- Node13&#45;&gt;Node3 -->
<g id="edge25" class="edge">
<title>Node13&#45;&gt;Node3</title>
<path fill="none" stroke="midnightblue" d="M630.43,-168.33C628.33,-154.73 622.5,-128.27 607.49,-112 593.24,-96.55 572.61,-85.96 554.04,-78.96"/>
<polygon fill="midnightblue" stroke="midnightblue" points="555.15,-75.64 544.56,-75.61 552.83,-82.24 555.15,-75.64"/>
</g>
</g>
</svg>
