<?xml version="1.0" encoding="UTF-8" standalone="no"?>
<!DOCTYPE svg PUBLIC "-//W3C//DTD SVG 1.1//EN"
 "http://www.w3.org/Graphics/SVG/1.1/DTD/svg11.dtd">
<!-- Generated by graphviz version 2.43.0 (0)
 -->
<!-- Title: amd64/l4/sys/utcb.h Pages: 1 -->
<svg width="402pt" height="252pt"
 viewBox="0.00 0.00 401.54 252.00" xmlns="http://www.w3.org/2000/svg" xmlns:xlink="http://www.w3.org/1999/xlink">
<g id="graph0" class="graph" transform="scale(1 1) rotate(0) translate(4 248)">
<title>amd64/l4/sys/utcb.h</title>
<polygon fill="white" stroke="transparent" points="-4,4 -4,-248 397.54,-248 397.54,4 -4,4"/>
<!-- Node1 -->
<g id="node1" class="node">
<title>Node1</title>
<g id="a_node1"><a xlink:title="UTCB definitions for amd64.">
<polygon fill="#bfbfbf" stroke="black" points="125.04,-224.5 125.04,-243.5 240.04,-243.5 240.04,-224.5 125.04,-224.5"/>
<text text-anchor="middle" x="182.54" y="-231.5" font-family="Helvetica,sans-Serif" font-size="10.00">amd64/l4/sys/utcb.h</text>
</a>
</g>
</g>
<!-- Node2 -->
<g id="node2" class="node">
<title>Node2</title>
<g id="a_node2"><a xlink:href="l4_2sys_2types_8h.html" target="_top" xlink:title="Common L4 ABI Data Types.">
<polygon fill="white" stroke="black" points="140.54,-168.5 140.54,-187.5 224.54,-187.5 224.54,-168.5 140.54,-168.5"/>
<text text-anchor="middle" x="182.54" y="-175.5" font-family="Helvetica,sans-Serif" font-size="10.00">l4/sys/types.h</text>
</a>
</g>
</g>
<!-- Node1&#45;&gt;Node2 -->
<g id="edge1" class="edge">
<title>Node1&#45;&gt;Node2</title>
<path fill="none" stroke="midnightblue" d="M182.54,-224.08C182.54,-217.01 182.54,-206.86 182.54,-197.99"/>
<polygon fill="midnightblue" stroke="midnightblue" points="186.04,-197.75 182.54,-187.75 179.04,-197.75 186.04,-197.75"/>
</g>
<!-- Node3 -->
<g id="node3" class="node">
<title>Node3</title>
<g id="a_node3"><a xlink:href="l4_2sys_2l4int_8h.html" target="_top" xlink:title="Fixed sized integer types, generic version.">
<polygon fill="white" stroke="black" points="27.04,-56.5 27.04,-75.5 106.04,-75.5 106.04,-56.5 27.04,-56.5"/>
<text text-anchor="middle" x="66.54" y="-63.5" font-family="Helvetica,sans-Serif" font-size="10.00">l4/sys/l4int.h</text>
</a>
</g>
</g>
<!-- Node2&#45;&gt;Node3 -->
<g id="edge2" class="edge">
<title>Node2&#45;&gt;Node3</title>
<path fill="none" stroke="midnightblue" d="M140.15,-172.25C92.93,-165.98 21.03,-153.19 4.54,-132 -10.37,-112.86 15.74,-92.98 38.51,-80.32"/>
<polygon fill="midnightblue" stroke="midnightblue" points="40.41,-83.28 47.62,-75.53 37.14,-77.09 40.41,-83.28"/>
</g>
<!-- Node4 -->
<g id="node4" class="node">
<title>Node4</title>
<g id="a_node4"><a xlink:href="compiler_8h.html" target="_top" xlink:title="L4 compiler related defines.">
<polygon fill="white" stroke="black" points="206.04,-56.5 206.04,-75.5 305.04,-75.5 305.04,-56.5 206.04,-56.5"/>
<text text-anchor="middle" x="255.54" y="-63.5" font-family="Helvetica,sans-Serif" font-size="10.00">l4/sys/compiler.h</text>
</a>
</g>
</g>
<!-- Node2&#45;&gt;Node4 -->
<g id="edge3" class="edge">
<title>Node2&#45;&gt;Node4</title>
<path fill="none" stroke="midnightblue" d="M196.67,-168.34C208.65,-160.31 225.44,-147.32 235.54,-132 244.77,-117.98 249.92,-99.48 252.67,-85.81"/>
<polygon fill="midnightblue" stroke="midnightblue" points="256.17,-86.11 254.45,-75.66 249.27,-84.9 256.17,-86.11"/>
</g>
<!-- Node6 -->
<g id="node6" class="node">
<title>Node6</title>
<g id="a_node6"><a xlink:href="l4_2sys_2consts_8h.html" target="_top" xlink:title="Common constants.">
<polygon fill="white" stroke="black" points="138.04,-112.5 138.04,-131.5 227.04,-131.5 227.04,-112.5 138.04,-112.5"/>
<text text-anchor="middle" x="182.54" y="-119.5" font-family="Helvetica,sans-Serif" font-size="10.00">l4/sys/consts.h</text>
</a>
</g>
</g>
<!-- Node2&#45;&gt;Node6 -->
<g id="edge5" class="edge">
<title>Node2&#45;&gt;Node6</title>
<path fill="none" stroke="midnightblue" d="M182.54,-168.08C182.54,-161.01 182.54,-150.86 182.54,-141.99"/>
<polygon fill="midnightblue" stroke="midnightblue" points="186.04,-141.75 182.54,-131.75 179.04,-141.75 186.04,-141.75"/>
</g>
<!-- Node7 -->
<g id="node7" class="node">
<title>Node7</title>
<g id="a_node7"><a xlink:href="____l4__fpage_8h_source.html" target="_top" xlink:title=" ">
<polygon fill="white" stroke="black" points="283.54,-112.5 283.54,-131.5 393.54,-131.5 393.54,-112.5 283.54,-112.5"/>
<text text-anchor="middle" x="338.54" y="-119.5" font-family="Helvetica,sans-Serif" font-size="10.00">l4/sys/__l4_fpage.h</text>
</a>
</g>
</g>
<!-- Node2&#45;&gt;Node7 -->
<g id="edge8" class="edge">
<title>Node2&#45;&gt;Node7</title>
<path fill="none" stroke="midnightblue" d="M207.25,-168.44C233.38,-159.4 274.8,-145.06 304.11,-134.92"/>
<polygon fill="midnightblue" stroke="midnightblue" points="305.63,-138.1 313.93,-131.52 303.34,-131.48 305.63,-138.1"/>
</g>
<!-- Node8 -->
<g id="node8" class="node">
<title>Node8</title>
<g id="a_node8"><a xlink:href="____timeout_8h_source.html" target="_top" xlink:title=" ">
<polygon fill="white" stroke="black" points="13.54,-112.5 13.54,-131.5 119.54,-131.5 119.54,-112.5 13.54,-112.5"/>
<text text-anchor="middle" x="66.54" y="-119.5" font-family="Helvetica,sans-Serif" font-size="10.00">l4/sys/__timeout.h</text>
</a>
</g>
</g>
<!-- Node2&#45;&gt;Node8 -->
<g id="edge10" class="edge">
<title>Node2&#45;&gt;Node8</title>
<path fill="none" stroke="midnightblue" d="M164.16,-168.44C145.32,-159.68 115.8,-145.94 94.16,-135.86"/>
<polygon fill="midnightblue" stroke="midnightblue" points="95.37,-132.56 84.83,-131.52 92.42,-138.91 95.37,-132.56"/>
</g>
<!-- Node5 -->
<g id="node5" class="node">
<title>Node5</title>
<g id="a_node5"><a xlink:title=" ">
<polygon fill="white" stroke="#bfbfbf" points="209.54,-0.5 209.54,-19.5 301.54,-19.5 301.54,-0.5 209.54,-0.5"/>
<text text-anchor="middle" x="255.54" y="-7.5" font-family="Helvetica,sans-Serif" font-size="10.00">l4/sys/linkage.h</text>
</a>
</g>
</g>
<!-- Node4&#45;&gt;Node5 -->
<g id="edge4" class="edge">
<title>Node4&#45;&gt;Node5</title>
<path fill="none" stroke="midnightblue" d="M255.54,-56.08C255.54,-49.01 255.54,-38.86 255.54,-29.99"/>
<polygon fill="midnightblue" stroke="midnightblue" points="259.04,-29.75 255.54,-19.75 252.04,-29.75 259.04,-29.75"/>
</g>
<!-- Node6&#45;&gt;Node3 -->
<g id="edge7" class="edge">
<title>Node6&#45;&gt;Node3</title>
<path fill="none" stroke="midnightblue" d="M164.16,-112.44C145.32,-103.68 115.8,-89.94 94.16,-79.86"/>
<polygon fill="midnightblue" stroke="midnightblue" points="95.37,-76.56 84.83,-75.52 92.42,-82.91 95.37,-76.56"/>
</g>
<!-- Node6&#45;&gt;Node4 -->
<g id="edge6" class="edge">
<title>Node6&#45;&gt;Node4</title>
<path fill="none" stroke="midnightblue" d="M194.26,-112.32C205.37,-104.11 222.28,-91.6 235.52,-81.81"/>
<polygon fill="midnightblue" stroke="midnightblue" points="237.64,-84.59 243.59,-75.83 233.47,-78.97 237.64,-84.59"/>
</g>
<!-- Node7&#45;&gt;Node4 -->
<g id="edge9" class="edge">
<title>Node7&#45;&gt;Node4</title>
<path fill="none" stroke="midnightblue" d="M325.2,-112.32C312.37,-103.98 292.75,-91.21 277.6,-81.35"/>
<polygon fill="midnightblue" stroke="midnightblue" points="279.13,-78.17 268.84,-75.65 275.31,-84.04 279.13,-78.17"/>
</g>
<!-- Node8&#45;&gt;Node3 -->
<g id="edge11" class="edge">
<title>Node8&#45;&gt;Node3</title>
<path fill="none" stroke="midnightblue" d="M66.54,-112.08C66.54,-105.01 66.54,-94.86 66.54,-85.99"/>
<polygon fill="midnightblue" stroke="midnightblue" points="70.04,-85.75 66.54,-75.75 63.04,-85.75 70.04,-85.75"/>
</g>
</g>
</svg>
