<?xml version="1.0" encoding="UTF-8" standalone="no"?>
<!DOCTYPE svg PUBLIC "-//W3C//DTD SVG 1.1//EN"
 "http://www.w3.org/Graphics/SVG/1.1/DTD/svg11.dtd">
<!-- Generated by graphviz version 2.43.0 (0)
 -->
<!-- Title: l4_busy_wait_us Pages: 1 -->
<svg width="218pt" height="66pt"
 viewBox="0.00 0.00 218.00 66.00" xmlns="http://www.w3.org/2000/svg" xmlns:xlink="http://www.w3.org/1999/xlink">
<g id="graph0" class="graph" transform="scale(1 1) rotate(0) translate(4 62)">
<title>l4_busy_wait_us</title>
<polygon fill="white" stroke="transparent" points="-4,4 -4,-62 214,-62 214,4 -4,4"/>
<!-- Node1 -->
<g id="node1" class="node">
<title>Node1</title>
<g id="a_node1"><a xlink:title="Wait busy for a small amount of time.">
<polygon fill="#bfbfbf" stroke="black" points="0,-19.5 0,-38.5 97,-38.5 97,-19.5 0,-19.5"/>
<text text-anchor="middle" x="48.5" y="-26.5" font-family="Helvetica,sans-Serif" font-size="10.00">l4_busy_wait_us</text>
</a>
</g>
</g>
<!-- Node2 -->
<g id="node2" class="node">
<title>Node2</title>
<g id="a_node2"><a xlink:href="amd64_2l4_2util_2rdtsc_8h.html#a8aee7e04f45212bea302d72e1496262b" target="_top" xlink:title="Convert nano seconds into CPU ticks.">
<polygon fill="white" stroke="black" points="133,-38.5 133,-57.5 210,-57.5 210,-38.5 133,-38.5"/>
<text text-anchor="middle" x="171.5" y="-45.5" font-family="Helvetica,sans-Serif" font-size="10.00">l4_ns_to_tsc</text>
</a>
</g>
</g>
<!-- Node1&#45;&gt;Node2 -->
<g id="edge1" class="edge">
<title>Node1&#45;&gt;Node2</title>
<path fill="none" stroke="midnightblue" d="M97.32,-36.51C105.68,-37.82 114.38,-39.19 122.74,-40.5"/>
<polygon fill="midnightblue" stroke="midnightblue" points="122.3,-43.97 132.72,-42.07 123.38,-37.06 122.3,-43.97"/>
</g>
<!-- Node3 -->
<g id="node3" class="node">
<title>Node3</title>
<g id="a_node3"><a xlink:href="amd64_2l4_2util_2rdtsc_8h.html#a560ae83d3afe878e0aaf8a95b987f923" target="_top" xlink:title="Read current value of CPU&#45;internal time stamp counter.">
<polygon fill="white" stroke="black" points="144,-0.5 144,-19.5 199,-19.5 199,-0.5 144,-0.5"/>
<text text-anchor="middle" x="171.5" y="-7.5" font-family="Helvetica,sans-Serif" font-size="10.00">l4_rdtsc</text>
</a>
</g>
</g>
<!-- Node1&#45;&gt;Node3 -->
<g id="edge2" class="edge">
<title>Node1&#45;&gt;Node3</title>
<path fill="none" stroke="midnightblue" d="M97.32,-21.49C109.46,-19.58 122.31,-17.57 133.8,-15.76"/>
<polygon fill="midnightblue" stroke="midnightblue" points="134.57,-19.18 143.91,-14.18 133.49,-12.27 134.57,-19.18"/>
</g>
</g>
</svg>
