<?xml version="1.0" encoding="UTF-8" standalone="no"?>
<!DOCTYPE svg PUBLIC "-//W3C//DTD SVG 1.1//EN"
 "http://www.w3.org/Graphics/SVG/1.1/DTD/svg11.dtd">
<!-- Generated by graphviz version 2.43.0 (0)
 -->
<!-- Title: l4_rdtsc Pages: 1 -->
<svg width="196pt" height="66pt"
 viewBox="0.00 0.00 196.00 66.00" xmlns="http://www.w3.org/2000/svg" xmlns:xlink="http://www.w3.org/1999/xlink">
<g id="graph0" class="graph" transform="scale(1 1) rotate(0) translate(4 62)">
<title>l4_rdtsc</title>
<polygon fill="white" stroke="transparent" points="-4,4 -4,-62 192,-62 192,4 -4,4"/>
<!-- Node1 -->
<g id="node1" class="node">
<title>Node1</title>
<g id="a_node1"><a xlink:title="Read current value of CPU&#45;internal time stamp counter.">
<polygon fill="#bfbfbf" stroke="black" points="133,-19.5 133,-38.5 188,-38.5 188,-19.5 133,-19.5"/>
<text text-anchor="middle" x="160.5" y="-26.5" font-family="Helvetica,sans-Serif" font-size="10.00">l4_rdtsc</text>
</a>
</g>
</g>
<!-- Node2 -->
<g id="node2" class="node">
<title>Node2</title>
<g id="a_node2"><a xlink:href="amd64_2l4_2util_2rdtsc_8h.html#ad36e512741c07634ab67562ff7052543" target="_top" xlink:title="Wait busy for a small amount of time.">
<polygon fill="white" stroke="black" points="0,-38.5 0,-57.5 97,-57.5 97,-38.5 0,-38.5"/>
<text text-anchor="middle" x="48.5" y="-45.5" font-family="Helvetica,sans-Serif" font-size="10.00">l4_busy_wait_ns</text>
</a>
</g>
</g>
<!-- Node1&#45;&gt;Node2 -->
<g id="edge1" class="edge">
<title>Node1&#45;&gt;Node2</title>
<path fill="none" stroke="midnightblue" d="M122.9,-35.32C114.72,-36.73 105.93,-38.25 97.37,-39.73"/>
<polygon fill="midnightblue" stroke="midnightblue" points="123.61,-38.75 132.87,-33.6 122.42,-31.85 123.61,-38.75"/>
</g>
<!-- Node3 -->
<g id="node3" class="node">
<title>Node3</title>
<g id="a_node3"><a xlink:href="amd64_2l4_2util_2rdtsc_8h.html#ab6a2848f2fb0249ac87b87053e34ebbe" target="_top" xlink:title="Wait busy for a small amount of time.">
<polygon fill="white" stroke="black" points="0,-0.5 0,-19.5 97,-19.5 97,-0.5 0,-0.5"/>
<text text-anchor="middle" x="48.5" y="-7.5" font-family="Helvetica,sans-Serif" font-size="10.00">l4_busy_wait_us</text>
</a>
</g>
</g>
<!-- Node1&#45;&gt;Node3 -->
<g id="edge2" class="edge">
<title>Node1&#45;&gt;Node3</title>
<path fill="none" stroke="midnightblue" d="M122.9,-22.68C114.72,-21.27 105.93,-19.75 97.37,-18.27"/>
<polygon fill="midnightblue" stroke="midnightblue" points="122.42,-26.15 132.87,-24.4 123.61,-19.25 122.42,-26.15"/>
</g>
</g>
</svg>
