<?xml version="1.0" encoding="UTF-8" standalone="no"?>
<!DOCTYPE svg PUBLIC "-//W3C//DTD SVG 1.1//EN"
 "http://www.w3.org/Graphics/SVG/1.1/DTD/svg11.dtd">
<!-- Generated by graphviz version 2.43.0 (0)
 -->
<!-- Title: amd64/l4/util/apic.h Pages: 1 -->
<svg width="451pt" height="252pt"
 viewBox="0.00 0.00 450.50 252.00" xmlns="http://www.w3.org/2000/svg" xmlns:xlink="http://www.w3.org/1999/xlink">
<g id="graph0" class="graph" transform="scale(1 1) rotate(0) translate(4 248)">
<title>amd64/l4/util/apic.h</title>
<polygon fill="white" stroke="transparent" points="-4,4 -4,-248 446.5,-248 446.5,4 -4,4"/>
<!-- Node1 -->
<g id="node1" class="node">
<title>Node1</title>
<g id="a_node1"><a xlink:title="APIC for AMD64.">
<polygon fill="#bfbfbf" stroke="black" points="0,-224.5 0,-243.5 113,-243.5 113,-224.5 0,-224.5"/>
<text text-anchor="middle" x="56.5" y="-231.5" font-family="Helvetica,sans-Serif" font-size="10.00">amd64/l4/util/apic.h</text>
</a>
</g>
</g>
<!-- Node2 -->
<g id="node2" class="node">
<title>Node2</title>
<g id="a_node2"><a xlink:href="compiler_8h.html" target="_top" xlink:title="L4 compiler related defines.">
<polygon fill="white" stroke="black" points="27,-56.5 27,-75.5 126,-75.5 126,-56.5 27,-56.5"/>
<text text-anchor="middle" x="76.5" y="-63.5" font-family="Helvetica,sans-Serif" font-size="10.00">l4/sys/compiler.h</text>
</a>
</g>
</g>
<!-- Node1&#45;&gt;Node2 -->
<g id="edge1" class="edge">
<title>Node1&#45;&gt;Node2</title>
<path fill="none" stroke="midnightblue" d="M53.45,-224.25C46.87,-203.99 32.91,-152.48 45.5,-112 48.73,-101.62 55.28,-91.52 61.52,-83.53"/>
<polygon fill="midnightblue" stroke="midnightblue" points="64.29,-85.68 68.02,-75.77 58.92,-81.19 64.29,-85.68"/>
</g>
<!-- Node4 -->
<g id="node4" class="node">
<title>Node4</title>
<g id="a_node4"><a xlink:href="l4_2sys_2types_8h.html" target="_top" xlink:title="Common L4 ABI Data Types.">
<polygon fill="white" stroke="black" points="134.5,-168.5 134.5,-187.5 218.5,-187.5 218.5,-168.5 134.5,-168.5"/>
<text text-anchor="middle" x="176.5" y="-175.5" font-family="Helvetica,sans-Serif" font-size="10.00">l4/sys/types.h</text>
</a>
</g>
</g>
<!-- Node1&#45;&gt;Node4 -->
<g id="edge3" class="edge">
<title>Node1&#45;&gt;Node4</title>
<path fill="none" stroke="midnightblue" d="M75.51,-224.44C95.09,-215.64 125.81,-201.81 148.23,-191.72"/>
<polygon fill="midnightblue" stroke="midnightblue" points="149.89,-194.81 157.57,-187.52 147.02,-188.43 149.89,-194.81"/>
</g>
<!-- Node3 -->
<g id="node3" class="node">
<title>Node3</title>
<g id="a_node3"><a xlink:title=" ">
<polygon fill="white" stroke="#bfbfbf" points="30.5,-0.5 30.5,-19.5 122.5,-19.5 122.5,-0.5 30.5,-0.5"/>
<text text-anchor="middle" x="76.5" y="-7.5" font-family="Helvetica,sans-Serif" font-size="10.00">l4/sys/linkage.h</text>
</a>
</g>
</g>
<!-- Node2&#45;&gt;Node3 -->
<g id="edge2" class="edge">
<title>Node2&#45;&gt;Node3</title>
<path fill="none" stroke="midnightblue" d="M76.5,-56.08C76.5,-49.01 76.5,-38.86 76.5,-29.99"/>
<polygon fill="midnightblue" stroke="midnightblue" points="80,-29.75 76.5,-19.75 73,-29.75 80,-29.75"/>
</g>
<!-- Node4&#45;&gt;Node2 -->
<g id="edge5" class="edge">
<title>Node4&#45;&gt;Node2</title>
<path fill="none" stroke="midnightblue" d="M134.25,-173.63C106.31,-168.95 71.61,-157.91 53.5,-132 43.26,-117.35 52.79,-97.68 62.51,-83.83"/>
<polygon fill="midnightblue" stroke="midnightblue" points="65.44,-85.75 68.72,-75.68 59.87,-81.51 65.44,-85.75"/>
</g>
<!-- Node5 -->
<g id="node5" class="node">
<title>Node5</title>
<g id="a_node5"><a xlink:href="l4_2sys_2l4int_8h.html" target="_top" xlink:title="Fixed sized integer types, generic version.">
<polygon fill="white" stroke="black" points="269,-56.5 269,-75.5 348,-75.5 348,-56.5 269,-56.5"/>
<text text-anchor="middle" x="308.5" y="-63.5" font-family="Helvetica,sans-Serif" font-size="10.00">l4/sys/l4int.h</text>
</a>
</g>
</g>
<!-- Node4&#45;&gt;Node5 -->
<g id="edge4" class="edge">
<title>Node4&#45;&gt;Node5</title>
<path fill="none" stroke="midnightblue" d="M218.53,-169.71C242.4,-163.51 271.1,-152.23 289.5,-132 300.99,-119.37 305.55,-100.16 307.36,-85.9"/>
<polygon fill="midnightblue" stroke="midnightblue" points="310.86,-86.01 308.29,-75.74 303.89,-85.37 310.86,-86.01"/>
</g>
<!-- Node6 -->
<g id="node6" class="node">
<title>Node6</title>
<g id="a_node6"><a xlink:href="l4_2sys_2consts_8h.html" target="_top" xlink:title="Common constants.">
<polygon fill="white" stroke="black" points="191,-112.5 191,-131.5 280,-131.5 280,-112.5 191,-112.5"/>
<text text-anchor="middle" x="235.5" y="-119.5" font-family="Helvetica,sans-Serif" font-size="10.00">l4/sys/consts.h</text>
</a>
</g>
</g>
<!-- Node4&#45;&gt;Node6 -->
<g id="edge6" class="edge">
<title>Node4&#45;&gt;Node6</title>
<path fill="none" stroke="midnightblue" d="M185.98,-168.32C194.7,-160.34 207.84,-148.31 218.4,-138.65"/>
<polygon fill="midnightblue" stroke="midnightblue" points="220.83,-141.17 225.85,-131.83 216.11,-136 220.83,-141.17"/>
</g>
<!-- Node7 -->
<g id="node7" class="node">
<title>Node7</title>
<g id="a_node7"><a xlink:href="____l4__fpage_8h_source.html" target="_top" xlink:title=" ">
<polygon fill="white" stroke="black" points="62.5,-112.5 62.5,-131.5 172.5,-131.5 172.5,-112.5 62.5,-112.5"/>
<text text-anchor="middle" x="117.5" y="-119.5" font-family="Helvetica,sans-Serif" font-size="10.00">l4/sys/__l4_fpage.h</text>
</a>
</g>
</g>
<!-- Node4&#45;&gt;Node7 -->
<g id="edge9" class="edge">
<title>Node4&#45;&gt;Node7</title>
<path fill="none" stroke="midnightblue" d="M167.02,-168.32C158.3,-160.34 145.16,-148.31 134.6,-138.65"/>
<polygon fill="midnightblue" stroke="midnightblue" points="136.89,-136 127.15,-131.83 132.17,-141.17 136.89,-136"/>
</g>
<!-- Node8 -->
<g id="node8" class="node">
<title>Node8</title>
<g id="a_node8"><a xlink:href="____timeout_8h_source.html" target="_top" xlink:title=" ">
<polygon fill="white" stroke="black" points="336.5,-112.5 336.5,-131.5 442.5,-131.5 442.5,-112.5 336.5,-112.5"/>
<text text-anchor="middle" x="389.5" y="-119.5" font-family="Helvetica,sans-Serif" font-size="10.00">l4/sys/__timeout.h</text>
</a>
</g>
</g>
<!-- Node4&#45;&gt;Node8 -->
<g id="edge11" class="edge">
<title>Node4&#45;&gt;Node8</title>
<path fill="none" stroke="midnightblue" d="M210.25,-168.44C247.02,-159.12 305.95,-144.18 346.12,-134"/>
<polygon fill="midnightblue" stroke="midnightblue" points="347.07,-137.37 355.91,-131.52 345.35,-130.58 347.07,-137.37"/>
</g>
<!-- Node6&#45;&gt;Node2 -->
<g id="edge7" class="edge">
<title>Node6&#45;&gt;Node2</title>
<path fill="none" stroke="midnightblue" d="M210.31,-112.44C183.56,-103.36 141.1,-88.94 111.19,-78.78"/>
<polygon fill="midnightblue" stroke="midnightblue" points="112.17,-75.42 101.58,-75.52 109.92,-82.05 112.17,-75.42"/>
</g>
<!-- Node6&#45;&gt;Node5 -->
<g id="edge8" class="edge">
<title>Node6&#45;&gt;Node5</title>
<path fill="none" stroke="midnightblue" d="M247.23,-112.32C258.34,-104.11 275.24,-91.6 288.48,-81.81"/>
<polygon fill="midnightblue" stroke="midnightblue" points="290.6,-84.59 296.56,-75.83 286.44,-78.97 290.6,-84.59"/>
</g>
<!-- Node7&#45;&gt;Node2 -->
<g id="edge10" class="edge">
<title>Node7&#45;&gt;Node2</title>
<path fill="none" stroke="midnightblue" d="M110.73,-112.08C104.94,-104.46 96.44,-93.26 89.36,-83.94"/>
<polygon fill="midnightblue" stroke="midnightblue" points="91.98,-81.6 83.14,-75.75 86.4,-85.83 91.98,-81.6"/>
</g>
<!-- Node8&#45;&gt;Node5 -->
<g id="edge12" class="edge">
<title>Node8&#45;&gt;Node5</title>
<path fill="none" stroke="midnightblue" d="M376.49,-112.32C363.97,-103.98 344.82,-91.21 330.03,-81.35"/>
<polygon fill="midnightblue" stroke="midnightblue" points="331.74,-78.29 321.48,-75.65 327.86,-84.11 331.74,-78.29"/>
</g>
</g>
</svg>
