<?xml version="1.0" encoding="UTF-8" standalone="no"?>
<!DOCTYPE svg PUBLIC "-//W3C//DTD SVG 1.1//EN"
 "http://www.w3.org/Graphics/SVG/1.1/DTD/svg11.dtd">
<!-- Generated by graphviz version 2.43.0 (0)
 -->
<!-- Title: l4util_irq_acknowledge Pages: 1 -->
<svg width="241pt" height="66pt"
 viewBox="0.00 0.00 241.00 66.00" xmlns="http://www.w3.org/2000/svg" xmlns:xlink="http://www.w3.org/1999/xlink">
<g id="graph0" class="graph" transform="scale(1 1) rotate(0) translate(4 62)">
<title>l4util_irq_acknowledge</title>
<polygon fill="white" stroke="transparent" points="-4,4 -4,-62 237,-62 237,4 -4,4"/>
<!-- Node1 -->
<g id="node1" class="node">
<title>Node1</title>
<g id="a_node1"><a xlink:title="Acknowledge IRQ at PIC in fully special nested mode.">
<polygon fill="#bfbfbf" stroke="black" points="0,-19.5 0,-38.5 129,-38.5 129,-19.5 0,-19.5"/>
<text text-anchor="middle" x="64.5" y="-26.5" font-family="Helvetica,sans-Serif" font-size="10.00">l4util_irq_acknowledge</text>
</a>
</g>
</g>
<!-- Node2 -->
<g id="node2" class="node">
<title>Node2</title>
<g id="a_node2"><a xlink:href="x86_2l4_2util_2port__io_8h.html#a6fd63a09b8ead7241fd90d4e6c7fa85b" target="_top" xlink:title="Read byte from I/O port.">
<polygon fill="white" stroke="black" points="168,-38.5 168,-57.5 230,-57.5 230,-38.5 168,-38.5"/>
<text text-anchor="middle" x="199" y="-45.5" font-family="Helvetica,sans-Serif" font-size="10.00">l4util_in8</text>
</a>
</g>
</g>
<!-- Node1&#45;&gt;Node2 -->
<g id="edge1" class="edge">
<title>Node1&#45;&gt;Node2</title>
<path fill="none" stroke="midnightblue" d="M129.03,-38.11C138.88,-39.52 148.8,-40.95 157.93,-42.25"/>
<polygon fill="midnightblue" stroke="midnightblue" points="157.47,-45.72 167.86,-43.68 158.46,-38.79 157.47,-45.72"/>
</g>
<!-- Node3 -->
<g id="node3" class="node">
<title>Node3</title>
<g id="a_node3"><a xlink:href="x86_2l4_2util_2port__io_8h.html#a4b19e212f042fea17016186862da1ed2" target="_top" xlink:title="Write byte to I/O port.">
<polygon fill="white" stroke="black" points="165,-0.5 165,-19.5 233,-19.5 233,-0.5 165,-0.5"/>
<text text-anchor="middle" x="199" y="-7.5" font-family="Helvetica,sans-Serif" font-size="10.00">l4util_out8</text>
</a>
</g>
</g>
<!-- Node1&#45;&gt;Node3 -->
<g id="edge2" class="edge">
<title>Node1&#45;&gt;Node3</title>
<path fill="none" stroke="midnightblue" d="M129.03,-19.89C137.72,-18.64 146.47,-17.39 154.68,-16.21"/>
<polygon fill="midnightblue" stroke="midnightblue" points="155.35,-19.65 164.75,-14.77 154.35,-12.72 155.35,-19.65"/>
</g>
</g>
</svg>
