<?xml version="1.0" encoding="UTF-8" standalone="no"?>
<!DOCTYPE svg PUBLIC "-//W3C//DTD SVG 1.1//EN"
 "http://www.w3.org/Graphics/SVG/1.1/DTD/svg11.dtd">
<!-- Generated by graphviz version 2.43.0 (0)
 -->
<!-- Title: amd64/l4/util/rdtsc.h Pages: 1 -->
<svg width="558pt" height="364pt"
 viewBox="0.00 0.00 558.00 364.00" xmlns="http://www.w3.org/2000/svg" xmlns:xlink="http://www.w3.org/1999/xlink">
<g id="graph0" class="graph" transform="scale(1 1) rotate(0) translate(4 360)">
<title>amd64/l4/util/rdtsc.h</title>
<polygon fill="white" stroke="transparent" points="-4,4 -4,-360 554,-360 554,4 -4,4"/>
<!-- Node1 -->
<g id="node1" class="node">
<title>Node1</title>
<g id="a_node1"><a xlink:title="time stamp counter related functions">
<polygon fill="#bfbfbf" stroke="black" points="150.5,-336.5 150.5,-355.5 267.5,-355.5 267.5,-336.5 150.5,-336.5"/>
<text text-anchor="middle" x="209" y="-343.5" font-family="Helvetica,sans-Serif" font-size="10.00">amd64/l4/util/rdtsc.h</text>
</a>
</g>
</g>
<!-- Node2 -->
<g id="node2" class="node">
<title>Node2</title>
<g id="a_node2"><a xlink:href="compiler_8h.html" target="_top" xlink:title="L4 compiler related defines.">
<polygon fill="white" stroke="black" points="379.5,-56.5 379.5,-75.5 478.5,-75.5 478.5,-56.5 379.5,-56.5"/>
<text text-anchor="middle" x="429" y="-63.5" font-family="Helvetica,sans-Serif" font-size="10.00">l4/sys/compiler.h</text>
</a>
</g>
</g>
<!-- Node1&#45;&gt;Node2 -->
<g id="edge1" class="edge">
<title>Node1&#45;&gt;Node2</title>
<path fill="none" stroke="midnightblue" d="M267.62,-338.32C365.12,-325.56 550,-293.63 550,-235 550,-235 550,-235 550,-177 550,-128.99 497.2,-96.41 461.36,-79.82"/>
<polygon fill="midnightblue" stroke="midnightblue" points="462.32,-76.42 451.76,-75.57 459.48,-82.82 462.32,-76.42"/>
</g>
<!-- Node4 -->
<g id="node4" class="node">
<title>Node4</title>
<g id="a_node4"><a xlink:href="l4_2sys_2l4int_8h.html" target="_top" xlink:title="Fixed sized integer types, generic version.">
<polygon fill="white" stroke="black" points="36.5,-56.5 36.5,-75.5 115.5,-75.5 115.5,-56.5 36.5,-56.5"/>
<text text-anchor="middle" x="76" y="-63.5" font-family="Helvetica,sans-Serif" font-size="10.00">l4/sys/l4int.h</text>
</a>
</g>
</g>
<!-- Node1&#45;&gt;Node4 -->
<g id="edge3" class="edge">
<title>Node1&#45;&gt;Node4</title>
<path fill="none" stroke="midnightblue" d="M150.23,-339.1C88.41,-329.27 0,-303.27 0,-235 0,-235 0,-235 0,-177 0,-137.28 33.96,-101.5 56.48,-82.15"/>
<polygon fill="midnightblue" stroke="midnightblue" points="58.98,-84.63 64.46,-75.57 54.52,-79.24 58.98,-84.63"/>
</g>
<!-- Node5 -->
<g id="node5" class="node">
<title>Node5</title>
<g id="a_node5"><a xlink:href="sys_2kip_8h.html" target="_top" xlink:title="Kernel Info Page access functions.">
<polygon fill="white" stroke="black" points="173,-280.5 173,-299.5 245,-299.5 245,-280.5 173,-280.5"/>
<text text-anchor="middle" x="209" y="-287.5" font-family="Helvetica,sans-Serif" font-size="10.00">l4/sys/kip.h</text>
</a>
</g>
</g>
<!-- Node1&#45;&gt;Node5 -->
<g id="edge4" class="edge">
<title>Node1&#45;&gt;Node5</title>
<path fill="none" stroke="midnightblue" d="M209,-336.08C209,-329.01 209,-318.86 209,-309.99"/>
<polygon fill="midnightblue" stroke="midnightblue" points="212.5,-309.75 209,-299.75 205.5,-309.75 212.5,-309.75"/>
</g>
<!-- Node3 -->
<g id="node3" class="node">
<title>Node3</title>
<g id="a_node3"><a xlink:title=" ">
<polygon fill="white" stroke="#bfbfbf" points="383,-0.5 383,-19.5 475,-19.5 475,-0.5 383,-0.5"/>
<text text-anchor="middle" x="429" y="-7.5" font-family="Helvetica,sans-Serif" font-size="10.00">l4/sys/linkage.h</text>
</a>
</g>
</g>
<!-- Node2&#45;&gt;Node3 -->
<g id="edge2" class="edge">
<title>Node2&#45;&gt;Node3</title>
<path fill="none" stroke="midnightblue" d="M429,-56.08C429,-49.01 429,-38.86 429,-29.99"/>
<polygon fill="midnightblue" stroke="midnightblue" points="432.5,-29.75 429,-19.75 425.5,-29.75 432.5,-29.75"/>
</g>
<!-- Node5&#45;&gt;Node2 -->
<g id="edge5" class="edge">
<title>Node5&#45;&gt;Node2</title>
<path fill="none" stroke="midnightblue" d="M245.16,-282.31C310.04,-268.05 444.02,-227.81 493,-132 503.85,-110.78 479.82,-92.04 458.18,-80.21"/>
<polygon fill="midnightblue" stroke="midnightblue" points="459.65,-77.03 449.15,-75.57 456.45,-83.25 459.65,-77.03"/>
</g>
<!-- Node5&#45;&gt;Node4 -->
<g id="edge6" class="edge">
<title>Node5&#45;&gt;Node4</title>
<path fill="none" stroke="midnightblue" d="M172.99,-286.73C143.61,-282.77 103.7,-272.17 83,-244 48,-196.37 61.61,-120.49 70.57,-85.63"/>
<polygon fill="midnightblue" stroke="midnightblue" points="73.98,-86.4 73.24,-75.84 67.23,-84.56 73.98,-86.4"/>
</g>
<!-- Node6 -->
<g id="node6" class="node">
<title>Node6</title>
<g id="a_node6"><a xlink:title=" ">
<polygon fill="white" stroke="#bfbfbf" points="92.5,-224.5 92.5,-243.5 199.5,-243.5 199.5,-224.5 92.5,-224.5"/>
<text text-anchor="middle" x="146" y="-231.5" font-family="Helvetica,sans-Serif" font-size="10.00">l4/sys/__kip&#45;arch.h</text>
</a>
</g>
</g>
<!-- Node5&#45;&gt;Node6 -->
<g id="edge7" class="edge">
<title>Node5&#45;&gt;Node6</title>
<path fill="none" stroke="midnightblue" d="M198.88,-280.32C189.47,-272.26 175.26,-260.08 163.93,-250.37"/>
<polygon fill="midnightblue" stroke="midnightblue" points="166.18,-247.68 156.31,-243.83 161.62,-253 166.18,-247.68"/>
</g>
<!-- Node7 -->
<g id="node7" class="node">
<title>Node7</title>
<g id="a_node7"><a xlink:href="____kip-64bit_8h_source.html" target="_top" xlink:title=" ">
<polygon fill="white" stroke="black" points="217.5,-224.5 217.5,-243.5 328.5,-243.5 328.5,-224.5 217.5,-224.5"/>
<text text-anchor="middle" x="273" y="-231.5" font-family="Helvetica,sans-Serif" font-size="10.00">l4/sys/__kip&#45;64bit.h</text>
</a>
</g>
</g>
<!-- Node5&#45;&gt;Node7 -->
<g id="edge8" class="edge">
<title>Node5&#45;&gt;Node7</title>
<path fill="none" stroke="midnightblue" d="M219.28,-280.32C228.84,-272.26 243.28,-260.08 254.78,-250.37"/>
<polygon fill="midnightblue" stroke="midnightblue" points="257.14,-252.96 262.53,-243.83 252.63,-247.61 257.14,-252.96"/>
</g>
<!-- Node8 -->
<g id="node8" class="node">
<title>Node8</title>
<g id="a_node8"><a xlink:href="l4_2sys_2types_8h.html" target="_top" xlink:title="Common L4 ABI Data Types.">
<polygon fill="white" stroke="black" points="231,-168.5 231,-187.5 315,-187.5 315,-168.5 231,-168.5"/>
<text text-anchor="middle" x="273" y="-175.5" font-family="Helvetica,sans-Serif" font-size="10.00">l4/sys/types.h</text>
</a>
</g>
</g>
<!-- Node7&#45;&gt;Node8 -->
<g id="edge9" class="edge">
<title>Node7&#45;&gt;Node8</title>
<path fill="none" stroke="midnightblue" d="M273,-224.08C273,-217.01 273,-206.86 273,-197.99"/>
<polygon fill="midnightblue" stroke="midnightblue" points="276.5,-197.75 273,-187.75 269.5,-197.75 276.5,-197.75"/>
</g>
<!-- Node8&#45;&gt;Node2 -->
<g id="edge11" class="edge">
<title>Node8&#45;&gt;Node2</title>
<path fill="none" stroke="midnightblue" d="M285.2,-168.37C302.81,-155.91 336.39,-132.17 365,-112 379.47,-101.8 395.8,-90.32 408.34,-81.51"/>
<polygon fill="midnightblue" stroke="midnightblue" points="410.55,-84.23 416.72,-75.62 406.53,-78.5 410.55,-84.23"/>
</g>
<!-- Node8&#45;&gt;Node4 -->
<g id="edge10" class="edge">
<title>Node8&#45;&gt;Node4</title>
<path fill="none" stroke="midnightblue" d="M230.66,-177.63C190.57,-175.9 131.26,-166.95 95,-132 82.58,-120.03 78.15,-100.42 76.64,-85.86"/>
<polygon fill="midnightblue" stroke="midnightblue" points="80.11,-85.26 75.95,-75.52 73.12,-85.73 80.11,-85.26"/>
</g>
<!-- Node9 -->
<g id="node9" class="node">
<title>Node9</title>
<g id="a_node9"><a xlink:href="l4_2sys_2consts_8h.html" target="_top" xlink:title="Common constants.">
<polygon fill="white" stroke="black" points="228.5,-112.5 228.5,-131.5 317.5,-131.5 317.5,-112.5 228.5,-112.5"/>
<text text-anchor="middle" x="273" y="-119.5" font-family="Helvetica,sans-Serif" font-size="10.00">l4/sys/consts.h</text>
</a>
</g>
</g>
<!-- Node8&#45;&gt;Node9 -->
<g id="edge12" class="edge">
<title>Node8&#45;&gt;Node9</title>
<path fill="none" stroke="midnightblue" d="M273,-168.08C273,-161.01 273,-150.86 273,-141.99"/>
<polygon fill="midnightblue" stroke="midnightblue" points="276.5,-141.75 273,-131.75 269.5,-141.75 276.5,-141.75"/>
</g>
<!-- Node10 -->
<g id="node10" class="node">
<title>Node10</title>
<g id="a_node10"><a xlink:href="____l4__fpage_8h_source.html" target="_top" xlink:title=" ">
<polygon fill="white" stroke="black" points="374,-112.5 374,-131.5 484,-131.5 484,-112.5 374,-112.5"/>
<text text-anchor="middle" x="429" y="-119.5" font-family="Helvetica,sans-Serif" font-size="10.00">l4/sys/__l4_fpage.h</text>
</a>
</g>
</g>
<!-- Node8&#45;&gt;Node10 -->
<g id="edge15" class="edge">
<title>Node8&#45;&gt;Node10</title>
<path fill="none" stroke="midnightblue" d="M297.72,-168.44C323.85,-159.4 365.26,-145.06 394.58,-134.92"/>
<polygon fill="midnightblue" stroke="midnightblue" points="396.09,-138.1 404.4,-131.52 393.8,-131.48 396.09,-138.1"/>
</g>
<!-- Node11 -->
<g id="node11" class="node">
<title>Node11</title>
<g id="a_node11"><a xlink:href="____timeout_8h_source.html" target="_top" xlink:title=" ">
<polygon fill="white" stroke="black" points="104,-112.5 104,-131.5 210,-131.5 210,-112.5 104,-112.5"/>
<text text-anchor="middle" x="157" y="-119.5" font-family="Helvetica,sans-Serif" font-size="10.00">l4/sys/__timeout.h</text>
</a>
</g>
</g>
<!-- Node8&#45;&gt;Node11 -->
<g id="edge17" class="edge">
<title>Node8&#45;&gt;Node11</title>
<path fill="none" stroke="midnightblue" d="M254.62,-168.44C235.78,-159.68 206.27,-145.94 184.62,-135.86"/>
<polygon fill="midnightblue" stroke="midnightblue" points="185.84,-132.56 175.29,-131.52 182.88,-138.91 185.84,-132.56"/>
</g>
<!-- Node9&#45;&gt;Node2 -->
<g id="edge13" class="edge">
<title>Node9&#45;&gt;Node2</title>
<path fill="none" stroke="midnightblue" d="M297.72,-112.44C323.85,-103.4 365.26,-89.06 394.58,-78.92"/>
<polygon fill="midnightblue" stroke="midnightblue" points="396.09,-82.1 404.4,-75.52 393.8,-75.48 396.09,-82.1"/>
</g>
<!-- Node9&#45;&gt;Node4 -->
<g id="edge14" class="edge">
<title>Node9&#45;&gt;Node4</title>
<path fill="none" stroke="midnightblue" d="M241.78,-112.44C208.07,-103.2 154.2,-88.44 117.07,-78.26"/>
<polygon fill="midnightblue" stroke="midnightblue" points="117.64,-74.78 107.07,-75.52 115.79,-81.54 117.64,-74.78"/>
</g>
<!-- Node10&#45;&gt;Node2 -->
<g id="edge16" class="edge">
<title>Node10&#45;&gt;Node2</title>
<path fill="none" stroke="midnightblue" d="M429,-112.08C429,-105.01 429,-94.86 429,-85.99"/>
<polygon fill="midnightblue" stroke="midnightblue" points="432.5,-85.75 429,-75.75 425.5,-85.75 432.5,-85.75"/>
</g>
<!-- Node11&#45;&gt;Node4 -->
<g id="edge18" class="edge">
<title>Node11&#45;&gt;Node4</title>
<path fill="none" stroke="midnightblue" d="M143.99,-112.32C131.47,-103.98 112.32,-91.21 97.53,-81.35"/>
<polygon fill="midnightblue" stroke="midnightblue" points="99.24,-78.29 88.98,-75.65 95.36,-84.11 99.24,-78.29"/>
</g>
</g>
</svg>
