<?xml version="1.0" encoding="UTF-8" standalone="no"?>
<!DOCTYPE svg PUBLIC "-//W3C//DTD SVG 1.1//EN"
 "http://www.w3.org/Graphics/SVG/1.1/DTD/svg11.dtd">
<!-- Generated by graphviz version 2.43.0 (0)
 -->
<!-- Title: l4/cxx/avl_set Pages: 1 -->
<svg width="435pt" height="252pt"
 viewBox="0.00 0.00 435.00 252.00" xmlns="http://www.w3.org/2000/svg" xmlns:xlink="http://www.w3.org/1999/xlink">
<g id="graph0" class="graph" transform="scale(1 1) rotate(0) translate(4 248)">
<title>l4/cxx/avl_set</title>
<polygon fill="white" stroke="transparent" points="-4,4 -4,-248 431,-248 431,4 -4,4"/>
<!-- Node1 -->
<g id="node1" class="node">
<title>Node1</title>
<g id="a_node1"><a xlink:title="AVL set.">
<polygon fill="#bfbfbf" stroke="black" points="113,-224.5 113,-243.5 197,-243.5 197,-224.5 113,-224.5"/>
<text text-anchor="middle" x="155" y="-231.5" font-family="Helvetica,sans-Serif" font-size="10.00">l4/cxx/avl_set</text>
</a>
</g>
</g>
<!-- Node2 -->
<g id="node2" class="node">
<title>Node2</title>
<g id="a_node2"><a xlink:href="std__alloc_source.html" target="_top" xlink:title=" ">
<polygon fill="white" stroke="black" points="0,-168.5 0,-187.5 92,-187.5 92,-168.5 0,-168.5"/>
<text text-anchor="middle" x="46" y="-175.5" font-family="Helvetica,sans-Serif" font-size="10.00">l4/cxx/std_alloc</text>
</a>
</g>
</g>
<!-- Node1&#45;&gt;Node2 -->
<g id="edge1" class="edge">
<title>Node1&#45;&gt;Node2</title>
<path fill="none" stroke="midnightblue" d="M137.49,-224.32C119.93,-215.62 92.67,-202.12 72.47,-192.11"/>
<polygon fill="midnightblue" stroke="midnightblue" points="73.98,-188.96 63.47,-187.65 70.88,-195.23 73.98,-188.96"/>
</g>
<!-- Node4 -->
<g id="node4" class="node">
<title>Node4</title>
<g id="a_node4"><a xlink:href="std__ops_source.html" target="_top" xlink:title=" ">
<polygon fill="white" stroke="black" points="148,-112.5 148,-131.5 234,-131.5 234,-112.5 148,-112.5"/>
<text text-anchor="middle" x="191" y="-119.5" font-family="Helvetica,sans-Serif" font-size="10.00">l4/cxx/std_ops</text>
</a>
</g>
</g>
<!-- Node1&#45;&gt;Node4 -->
<g id="edge3" class="edge">
<title>Node1&#45;&gt;Node4</title>
<path fill="none" stroke="midnightblue" d="M157.82,-224.37C163.66,-206.54 177.16,-165.3 185.02,-141.27"/>
<polygon fill="midnightblue" stroke="midnightblue" points="188.4,-142.18 188.19,-131.59 181.75,-140.01 188.4,-142.18"/>
</g>
<!-- Node5 -->
<g id="node5" class="node">
<title>Node5</title>
<g id="a_node5"><a xlink:href="type__traits_source.html" target="_top" xlink:title=" ">
<polygon fill="white" stroke="black" points="187.5,-56.5 187.5,-75.5 288.5,-75.5 288.5,-56.5 187.5,-56.5"/>
<text text-anchor="middle" x="238" y="-63.5" font-family="Helvetica,sans-Serif" font-size="10.00">l4/cxx/type_traits</text>
</a>
</g>
</g>
<!-- Node1&#45;&gt;Node5 -->
<g id="edge4" class="edge">
<title>Node1&#45;&gt;Node5</title>
<path fill="none" stroke="midnightblue" d="M150.23,-224.24C139.42,-203.06 115.71,-148.17 139,-112 149.31,-95.99 166.85,-85.62 184.33,-78.92"/>
<polygon fill="midnightblue" stroke="midnightblue" points="185.7,-82.15 193.99,-75.56 183.4,-75.54 185.7,-82.15"/>
</g>
<!-- Node7 -->
<g id="node7" class="node">
<title>Node7</title>
<g id="a_node7"><a xlink:href="avl__tree.html" target="_top" xlink:title="AVL tree.">
<polygon fill="white" stroke="black" points="225.5,-168.5 225.5,-187.5 314.5,-187.5 314.5,-168.5 225.5,-168.5"/>
<text text-anchor="middle" x="270" y="-175.5" font-family="Helvetica,sans-Serif" font-size="10.00">l4/cxx/avl_tree</text>
</a>
</g>
</g>
<!-- Node1&#45;&gt;Node7 -->
<g id="edge6" class="edge">
<title>Node1&#45;&gt;Node7</title>
<path fill="none" stroke="midnightblue" d="M173.22,-224.44C191.9,-215.68 221.16,-201.94 242.62,-191.86"/>
<polygon fill="midnightblue" stroke="midnightblue" points="244.3,-194.93 251.86,-187.52 241.32,-188.6 244.3,-194.93"/>
</g>
<!-- Node3 -->
<g id="node3" class="node">
<title>Node3</title>
<g id="a_node3"><a xlink:title=" ">
<polygon fill="white" stroke="#bfbfbf" points="18,-112.5 18,-131.5 74,-131.5 74,-112.5 18,-112.5"/>
<text text-anchor="middle" x="46" y="-119.5" font-family="Helvetica,sans-Serif" font-size="10.00">stddef.h</text>
</a>
</g>
</g>
<!-- Node2&#45;&gt;Node3 -->
<g id="edge2" class="edge">
<title>Node2&#45;&gt;Node3</title>
<path fill="none" stroke="midnightblue" d="M46,-168.08C46,-161.01 46,-150.86 46,-141.99"/>
<polygon fill="midnightblue" stroke="midnightblue" points="49.5,-141.75 46,-131.75 42.5,-141.75 49.5,-141.75"/>
</g>
<!-- Node6 -->
<g id="node6" class="node">
<title>Node6</title>
<g id="a_node6"><a xlink:href="type__traits_8h_source.html" target="_top" xlink:title=" ">
<polygon fill="white" stroke="black" points="188.5,-0.5 188.5,-19.5 287.5,-19.5 287.5,-0.5 188.5,-0.5"/>
<text text-anchor="middle" x="238" y="-7.5" font-family="Helvetica,sans-Serif" font-size="10.00">bits/type_traits.h</text>
</a>
</g>
</g>
<!-- Node5&#45;&gt;Node6 -->
<g id="edge5" class="edge">
<title>Node5&#45;&gt;Node6</title>
<path fill="none" stroke="midnightblue" d="M238,-56.08C238,-49.01 238,-38.86 238,-29.99"/>
<polygon fill="midnightblue" stroke="midnightblue" points="241.5,-29.75 238,-19.75 234.5,-29.75 241.5,-29.75"/>
</g>
<!-- Node7&#45;&gt;Node4 -->
<g id="edge7" class="edge">
<title>Node7&#45;&gt;Node4</title>
<path fill="none" stroke="midnightblue" d="M257.31,-168.32C245.1,-159.98 226.42,-147.21 212,-137.35"/>
<polygon fill="midnightblue" stroke="midnightblue" points="213.89,-134.41 203.66,-131.65 209.94,-140.19 213.89,-134.41"/>
</g>
<!-- Node8 -->
<g id="node8" class="node">
<title>Node8</title>
<g id="a_node8"><a xlink:href="pair.html" target="_top" xlink:title="Pair implementation.">
<polygon fill="white" stroke="black" points="252.5,-112.5 252.5,-131.5 287.5,-131.5 287.5,-112.5 252.5,-112.5"/>
<text text-anchor="middle" x="270" y="-119.5" font-family="Helvetica,sans-Serif" font-size="10.00">pair</text>
</a>
</g>
</g>
<!-- Node7&#45;&gt;Node8 -->
<g id="edge8" class="edge">
<title>Node7&#45;&gt;Node8</title>
<path fill="none" stroke="midnightblue" d="M270,-168.08C270,-161.01 270,-150.86 270,-141.99"/>
<polygon fill="midnightblue" stroke="midnightblue" points="273.5,-141.75 270,-131.75 266.5,-141.75 273.5,-141.75"/>
</g>
<!-- Node9 -->
<g id="node9" class="node">
<title>Node9</title>
<g id="a_node9"><a xlink:href="bst_8h.html" target="_top" xlink:title="AVL tree.">
<polygon fill="white" stroke="black" points="306,-112.5 306,-131.5 368,-131.5 368,-112.5 306,-112.5"/>
<text text-anchor="middle" x="337" y="-119.5" font-family="Helvetica,sans-Serif" font-size="10.00">bits/bst.h</text>
</a>
</g>
</g>
<!-- Node7&#45;&gt;Node9 -->
<g id="edge9" class="edge">
<title>Node7&#45;&gt;Node9</title>
<path fill="none" stroke="midnightblue" d="M280.76,-168.32C290.77,-160.26 305.89,-148.08 317.93,-138.37"/>
<polygon fill="midnightblue" stroke="midnightblue" points="320.45,-140.83 326.04,-131.83 316.06,-135.38 320.45,-140.83"/>
</g>
<!-- Node11 -->
<g id="node11" class="node">
<title>Node11</title>
<g id="a_node11"><a xlink:href="bst__iter_8h.html" target="_top" xlink:title="AVL tree.">
<polygon fill="white" stroke="black" points="365,-56.5 365,-75.5 427,-75.5 427,-56.5 365,-56.5"/>
<text text-anchor="middle" x="396" y="-63.5" font-family="Helvetica,sans-Serif" font-size="10.00">bst_iter.h</text>
</a>
</g>
</g>
<!-- Node7&#45;&gt;Node11 -->
<g id="edge14" class="edge">
<title>Node7&#45;&gt;Node11</title>
<path fill="none" stroke="midnightblue" d="M312.21,-168.47C334.32,-161.97 360.23,-150.8 377,-132 388.36,-119.26 392.95,-100.07 394.79,-85.83"/>
<polygon fill="midnightblue" stroke="midnightblue" points="398.29,-85.99 395.75,-75.7 391.32,-85.33 398.29,-85.99"/>
</g>
<!-- Node9&#45;&gt;Node5 -->
<g id="edge10" class="edge">
<title>Node9&#45;&gt;Node5</title>
<path fill="none" stroke="midnightblue" d="M321.09,-112.32C305.36,-103.74 281.06,-90.49 262.79,-80.52"/>
<polygon fill="midnightblue" stroke="midnightblue" points="264.32,-77.37 253.87,-75.65 260.97,-83.52 264.32,-77.37"/>
</g>
<!-- Node10 -->
<g id="node10" class="node">
<title>Node10</title>
<g id="a_node10"><a xlink:href="bst__base_8h.html" target="_top" xlink:title="AVL tree.">
<polygon fill="white" stroke="black" points="323.5,-0.5 323.5,-19.5 392.5,-19.5 392.5,-0.5 323.5,-0.5"/>
<text text-anchor="middle" x="358" y="-7.5" font-family="Helvetica,sans-Serif" font-size="10.00">bst_base.h</text>
</a>
</g>
</g>
<!-- Node9&#45;&gt;Node10 -->
<g id="edge11" class="edge">
<title>Node9&#45;&gt;Node10</title>
<path fill="none" stroke="midnightblue" d="M338.65,-112.37C342.04,-94.62 349.85,-53.67 354.45,-29.6"/>
<polygon fill="midnightblue" stroke="midnightblue" points="357.92,-30.07 356.36,-19.59 351.05,-28.76 357.92,-30.07"/>
</g>
<!-- Node9&#45;&gt;Node11 -->
<g id="edge12" class="edge">
<title>Node9&#45;&gt;Node11</title>
<path fill="none" stroke="midnightblue" d="M346.48,-112.32C355.2,-104.34 368.34,-92.31 378.9,-82.65"/>
<polygon fill="midnightblue" stroke="midnightblue" points="381.33,-85.17 386.35,-75.83 376.61,-80 381.33,-85.17"/>
</g>
<!-- Node11&#45;&gt;Node10 -->
<g id="edge13" class="edge">
<title>Node11&#45;&gt;Node10</title>
<path fill="none" stroke="midnightblue" d="M389.73,-56.08C384.36,-48.46 376.48,-37.26 369.92,-27.94"/>
<polygon fill="midnightblue" stroke="midnightblue" points="372.78,-25.91 364.16,-19.75 367.05,-29.94 372.78,-25.91"/>
</g>
</g>
</svg>
