<?xml version="1.0" encoding="UTF-8" standalone="no"?>
<!DOCTYPE svg PUBLIC "-//W3C//DTD SVG 1.1//EN"
 "http://www.w3.org/Graphics/SVG/1.1/DTD/svg11.dtd">
<!-- Generated by graphviz version 2.43.0 (0)
 -->
<!-- Title: l4/cxx/avl_map Pages: 1 -->
<svg width="446pt" height="308pt"
 viewBox="0.00 0.00 446.00 308.00" xmlns="http://www.w3.org/2000/svg" xmlns:xlink="http://www.w3.org/1999/xlink">
<g id="graph0" class="graph" transform="scale(1 1) rotate(0) translate(4 304)">
<title>l4/cxx/avl_map</title>
<polygon fill="white" stroke="transparent" points="-4,4 -4,-304 442,-304 442,4 -4,4"/>
<!-- Node1 -->
<g id="node1" class="node">
<title>Node1</title>
<g id="a_node1"><a xlink:title="AVL map.">
<polygon fill="#bfbfbf" stroke="black" points="115.5,-280.5 115.5,-299.5 206.5,-299.5 206.5,-280.5 115.5,-280.5"/>
<text text-anchor="middle" x="161" y="-287.5" font-family="Helvetica,sans-Serif" font-size="10.00">l4/cxx/avl_map</text>
</a>
</g>
</g>
<!-- Node2 -->
<g id="node2" class="node">
<title>Node2</title>
<g id="a_node2"><a xlink:href="std__alloc_source.html" target="_top" xlink:title=" ">
<polygon fill="white" stroke="black" points="0,-168.5 0,-187.5 92,-187.5 92,-168.5 0,-168.5"/>
<text text-anchor="middle" x="46" y="-175.5" font-family="Helvetica,sans-Serif" font-size="10.00">l4/cxx/std_alloc</text>
</a>
</g>
</g>
<!-- Node1&#45;&gt;Node2 -->
<g id="edge1" class="edge">
<title>Node1&#45;&gt;Node2</title>
<path fill="none" stroke="midnightblue" d="M134.38,-280.4C115.7,-273.21 91.27,-261.32 75,-244 62.72,-230.92 55.04,-211.77 50.69,-197.64"/>
<polygon fill="midnightblue" stroke="midnightblue" points="53.95,-196.3 47.9,-187.6 47.21,-198.17 53.95,-196.3"/>
</g>
<!-- Node4 -->
<g id="node4" class="node">
<title>Node4</title>
<g id="a_node4"><a xlink:href="std__ops_source.html" target="_top" xlink:title=" ">
<polygon fill="white" stroke="black" points="148,-112.5 148,-131.5 234,-131.5 234,-112.5 148,-112.5"/>
<text text-anchor="middle" x="191" y="-119.5" font-family="Helvetica,sans-Serif" font-size="10.00">l4/cxx/std_ops</text>
</a>
</g>
</g>
<!-- Node1&#45;&gt;Node4 -->
<g id="edge3" class="edge">
<title>Node1&#45;&gt;Node4</title>
<path fill="none" stroke="midnightblue" d="M164.8,-280.21C168.5,-271.27 174,-256.92 177,-244 185.27,-208.42 188.75,-165.77 190.15,-141.78"/>
<polygon fill="midnightblue" stroke="midnightblue" points="193.65,-141.79 190.67,-131.62 186.66,-141.43 193.65,-141.79"/>
</g>
<!-- Node5 -->
<g id="node5" class="node">
<title>Node5</title>
<g id="a_node5"><a xlink:href="pair.html" target="_top" xlink:title="Pair implementation.">
<polygon fill="white" stroke="black" points="370,-112.5 370,-131.5 438,-131.5 438,-112.5 370,-112.5"/>
<text text-anchor="middle" x="404" y="-119.5" font-family="Helvetica,sans-Serif" font-size="10.00">l4/cxx/pair</text>
</a>
</g>
</g>
<!-- Node1&#45;&gt;Node5 -->
<g id="edge4" class="edge">
<title>Node1&#45;&gt;Node5</title>
<path fill="none" stroke="midnightblue" d="M179,-280.42C211.73,-264.44 282.53,-228.08 336,-188 355.88,-173.1 376.15,-152.95 389.32,-139.06"/>
<polygon fill="midnightblue" stroke="midnightblue" points="391.94,-141.38 396.2,-131.69 386.82,-136.61 391.94,-141.38"/>
</g>
<!-- Node6 -->
<g id="node6" class="node">
<title>Node6</title>
<g id="a_node6"><a xlink:href="avl__set.html" target="_top" xlink:title="AVL set.">
<polygon fill="white" stroke="black" points="84,-224.5 84,-243.5 168,-243.5 168,-224.5 84,-224.5"/>
<text text-anchor="middle" x="126" y="-231.5" font-family="Helvetica,sans-Serif" font-size="10.00">l4/cxx/avl_set</text>
</a>
</g>
</g>
<!-- Node1&#45;&gt;Node6 -->
<g id="edge5" class="edge">
<title>Node1&#45;&gt;Node6</title>
<path fill="none" stroke="midnightblue" d="M155.22,-280.08C150.33,-272.53 143.17,-261.49 137.17,-252.23"/>
<polygon fill="midnightblue" stroke="midnightblue" points="140.05,-250.24 131.67,-243.75 134.17,-254.05 140.05,-250.24"/>
</g>
<!-- Node3 -->
<g id="node3" class="node">
<title>Node3</title>
<g id="a_node3"><a xlink:title=" ">
<polygon fill="white" stroke="#bfbfbf" points="18,-112.5 18,-131.5 74,-131.5 74,-112.5 18,-112.5"/>
<text text-anchor="middle" x="46" y="-119.5" font-family="Helvetica,sans-Serif" font-size="10.00">stddef.h</text>
</a>
</g>
</g>
<!-- Node2&#45;&gt;Node3 -->
<g id="edge2" class="edge">
<title>Node2&#45;&gt;Node3</title>
<path fill="none" stroke="midnightblue" d="M46,-168.08C46,-161.01 46,-150.86 46,-141.99"/>
<polygon fill="midnightblue" stroke="midnightblue" points="49.5,-141.75 46,-131.75 42.5,-141.75 49.5,-141.75"/>
</g>
<!-- Node6&#45;&gt;Node2 -->
<g id="edge6" class="edge">
<title>Node6&#45;&gt;Node2</title>
<path fill="none" stroke="midnightblue" d="M113.15,-224.32C100.78,-215.98 81.87,-203.21 67.26,-193.35"/>
<polygon fill="midnightblue" stroke="midnightblue" points="69.07,-190.35 58.82,-187.65 65.15,-196.15 69.07,-190.35"/>
</g>
<!-- Node6&#45;&gt;Node4 -->
<g id="edge7" class="edge">
<title>Node6&#45;&gt;Node4</title>
<path fill="none" stroke="midnightblue" d="M131.1,-224.37C141.78,-206.3 166.67,-164.18 180.77,-140.31"/>
<polygon fill="midnightblue" stroke="midnightblue" points="183.85,-141.98 185.92,-131.59 177.82,-138.42 183.85,-141.98"/>
</g>
<!-- Node7 -->
<g id="node7" class="node">
<title>Node7</title>
<g id="a_node7"><a xlink:href="type__traits_source.html" target="_top" xlink:title=" ">
<polygon fill="white" stroke="black" points="133.5,-56.5 133.5,-75.5 234.5,-75.5 234.5,-56.5 133.5,-56.5"/>
<text text-anchor="middle" x="184" y="-63.5" font-family="Helvetica,sans-Serif" font-size="10.00">l4/cxx/type_traits</text>
</a>
</g>
</g>
<!-- Node6&#45;&gt;Node7 -->
<g id="edge8" class="edge">
<title>Node6&#45;&gt;Node7</title>
<path fill="none" stroke="midnightblue" d="M125.03,-224.26C123.14,-203.58 120.58,-150.5 139,-112 144.55,-100.4 154.35,-90.05 163.4,-82.21"/>
<polygon fill="midnightblue" stroke="midnightblue" points="165.79,-84.77 171.34,-75.75 161.37,-79.34 165.79,-84.77"/>
</g>
<!-- Node9 -->
<g id="node9" class="node">
<title>Node9</title>
<g id="a_node9"><a xlink:href="avl__tree.html" target="_top" xlink:title="AVL tree.">
<polygon fill="white" stroke="black" points="238.5,-168.5 238.5,-187.5 327.5,-187.5 327.5,-168.5 238.5,-168.5"/>
<text text-anchor="middle" x="283" y="-175.5" font-family="Helvetica,sans-Serif" font-size="10.00">l4/cxx/avl_tree</text>
</a>
</g>
</g>
<!-- Node6&#45;&gt;Node9 -->
<g id="edge10" class="edge">
<title>Node6&#45;&gt;Node9</title>
<path fill="none" stroke="midnightblue" d="M150.88,-224.44C177.29,-215.36 219.22,-200.94 248.74,-190.78"/>
<polygon fill="midnightblue" stroke="midnightblue" points="249.92,-194.08 258.24,-187.52 247.64,-187.46 249.92,-194.08"/>
</g>
<!-- Node8 -->
<g id="node8" class="node">
<title>Node8</title>
<g id="a_node8"><a xlink:href="type__traits_8h_source.html" target="_top" xlink:title=" ">
<polygon fill="white" stroke="black" points="134.5,-0.5 134.5,-19.5 233.5,-19.5 233.5,-0.5 134.5,-0.5"/>
<text text-anchor="middle" x="184" y="-7.5" font-family="Helvetica,sans-Serif" font-size="10.00">bits/type_traits.h</text>
</a>
</g>
</g>
<!-- Node7&#45;&gt;Node8 -->
<g id="edge9" class="edge">
<title>Node7&#45;&gt;Node8</title>
<path fill="none" stroke="midnightblue" d="M184,-56.08C184,-49.01 184,-38.86 184,-29.99"/>
<polygon fill="midnightblue" stroke="midnightblue" points="187.5,-29.75 184,-19.75 180.5,-29.75 187.5,-29.75"/>
</g>
<!-- Node9&#45;&gt;Node4 -->
<g id="edge11" class="edge">
<title>Node9&#45;&gt;Node4</title>
<path fill="none" stroke="midnightblue" d="M268.22,-168.32C253.73,-159.82 231.43,-146.73 214.51,-136.8"/>
<polygon fill="midnightblue" stroke="midnightblue" points="216.14,-133.7 205.74,-131.65 212.6,-139.74 216.14,-133.7"/>
</g>
<!-- Node9&#45;&gt;Node5 -->
<g id="edge12" class="edge">
<title>Node9&#45;&gt;Node5</title>
<path fill="none" stroke="midnightblue" d="M302.17,-168.44C321.91,-159.64 352.89,-145.81 375.49,-135.72"/>
<polygon fill="midnightblue" stroke="midnightblue" points="377.21,-138.79 384.92,-131.52 374.36,-132.4 377.21,-138.79"/>
</g>
<!-- Node10 -->
<g id="node10" class="node">
<title>Node10</title>
<g id="a_node10"><a xlink:href="bst_8h.html" target="_top" xlink:title="AVL tree.">
<polygon fill="white" stroke="black" points="252,-112.5 252,-131.5 314,-131.5 314,-112.5 252,-112.5"/>
<text text-anchor="middle" x="283" y="-119.5" font-family="Helvetica,sans-Serif" font-size="10.00">bits/bst.h</text>
</a>
</g>
</g>
<!-- Node9&#45;&gt;Node10 -->
<g id="edge13" class="edge">
<title>Node9&#45;&gt;Node10</title>
<path fill="none" stroke="midnightblue" d="M283,-168.08C283,-161.01 283,-150.86 283,-141.99"/>
<polygon fill="midnightblue" stroke="midnightblue" points="286.5,-141.75 283,-131.75 279.5,-141.75 286.5,-141.75"/>
</g>
<!-- Node12 -->
<g id="node12" class="node">
<title>Node12</title>
<g id="a_node12"><a xlink:href="bst__iter_8h.html" target="_top" xlink:title="AVL tree.">
<polygon fill="white" stroke="black" points="311,-56.5 311,-75.5 373,-75.5 373,-56.5 311,-56.5"/>
<text text-anchor="middle" x="342" y="-63.5" font-family="Helvetica,sans-Serif" font-size="10.00">bst_iter.h</text>
</a>
</g>
</g>
<!-- Node9&#45;&gt;Node12 -->
<g id="edge18" class="edge">
<title>Node9&#45;&gt;Node12</title>
<path fill="none" stroke="midnightblue" d="M292.93,-168.3C301.98,-159.86 315.1,-146.27 323,-132 331.01,-117.53 335.95,-99.35 338.78,-85.89"/>
<polygon fill="midnightblue" stroke="midnightblue" points="342.25,-86.37 340.68,-75.89 335.38,-85.06 342.25,-86.37"/>
</g>
<!-- Node10&#45;&gt;Node7 -->
<g id="edge14" class="edge">
<title>Node10&#45;&gt;Node7</title>
<path fill="none" stroke="midnightblue" d="M267.09,-112.32C251.36,-103.74 227.06,-90.49 208.79,-80.52"/>
<polygon fill="midnightblue" stroke="midnightblue" points="210.32,-77.37 199.87,-75.65 206.97,-83.52 210.32,-77.37"/>
</g>
<!-- Node11 -->
<g id="node11" class="node">
<title>Node11</title>
<g id="a_node11"><a xlink:href="bst__base_8h.html" target="_top" xlink:title="AVL tree.">
<polygon fill="white" stroke="black" points="269.5,-0.5 269.5,-19.5 338.5,-19.5 338.5,-0.5 269.5,-0.5"/>
<text text-anchor="middle" x="304" y="-7.5" font-family="Helvetica,sans-Serif" font-size="10.00">bst_base.h</text>
</a>
</g>
</g>
<!-- Node10&#45;&gt;Node11 -->
<g id="edge15" class="edge">
<title>Node10&#45;&gt;Node11</title>
<path fill="none" stroke="midnightblue" d="M284.65,-112.37C288.04,-94.62 295.85,-53.67 300.45,-29.6"/>
<polygon fill="midnightblue" stroke="midnightblue" points="303.92,-30.07 302.36,-19.59 297.05,-28.76 303.92,-30.07"/>
</g>
<!-- Node10&#45;&gt;Node12 -->
<g id="edge16" class="edge">
<title>Node10&#45;&gt;Node12</title>
<path fill="none" stroke="midnightblue" d="M292.48,-112.32C301.2,-104.34 314.34,-92.31 324.9,-82.65"/>
<polygon fill="midnightblue" stroke="midnightblue" points="327.33,-85.17 332.35,-75.83 322.61,-80 327.33,-85.17"/>
</g>
<!-- Node12&#45;&gt;Node11 -->
<g id="edge17" class="edge">
<title>Node12&#45;&gt;Node11</title>
<path fill="none" stroke="midnightblue" d="M335.73,-56.08C330.36,-48.46 322.48,-37.26 315.92,-27.94"/>
<polygon fill="midnightblue" stroke="midnightblue" points="318.78,-25.91 310.16,-19.75 313.05,-29.94 318.78,-25.91"/>
</g>
</g>
</svg>
