<?xml version="1.0" encoding="UTF-8" standalone="no"?>
<!DOCTYPE svg PUBLIC "-//W3C//DTD SVG 1.1//EN"
 "http://www.w3.org/Graphics/SVG/1.1/DTD/svg11.dtd">
<!-- Generated by graphviz version 2.43.0 (0)
 -->
<!-- Title: l4/cxx/avl_tree Pages: 1 -->
<svg width="255pt" height="196pt"
 viewBox="0.00 0.00 255.00 196.00" xmlns="http://www.w3.org/2000/svg" xmlns:xlink="http://www.w3.org/1999/xlink">
<g id="graph0" class="graph" transform="scale(1 1) rotate(0) translate(4 192)">
<title>l4/cxx/avl_tree</title>
<polygon fill="white" stroke="transparent" points="-4,4 -4,-192 251,-192 251,4 -4,4"/>
<!-- Node1 -->
<g id="node1" class="node">
<title>Node1</title>
<g id="a_node1"><a xlink:title="AVL tree.">
<polygon fill="#bfbfbf" stroke="black" points="78.5,-168.5 78.5,-187.5 167.5,-187.5 167.5,-168.5 78.5,-168.5"/>
<text text-anchor="middle" x="123" y="-175.5" font-family="Helvetica,sans-Serif" font-size="10.00">l4/cxx/avl_tree</text>
</a>
</g>
</g>
<!-- Node2 -->
<g id="node2" class="node">
<title>Node2</title>
<g id="a_node2"><a xlink:href="std__ops_source.html" target="_top" xlink:title=" ">
<polygon fill="white" stroke="black" points="0,-112.5 0,-131.5 54,-131.5 54,-112.5 0,-112.5"/>
<text text-anchor="middle" x="27" y="-119.5" font-family="Helvetica,sans-Serif" font-size="10.00">std_ops</text>
</a>
</g>
</g>
<!-- Node1&#45;&gt;Node2 -->
<g id="edge1" class="edge">
<title>Node1&#45;&gt;Node2</title>
<path fill="none" stroke="midnightblue" d="M107.58,-168.32C92.46,-159.82 69.18,-146.73 51.53,-136.8"/>
<polygon fill="midnightblue" stroke="midnightblue" points="52.82,-133.51 42.39,-131.65 49.39,-139.61 52.82,-133.51"/>
</g>
<!-- Node3 -->
<g id="node3" class="node">
<title>Node3</title>
<g id="a_node3"><a xlink:href="pair.html" target="_top" xlink:title="Pair implementation.">
<polygon fill="white" stroke="black" points="72.5,-112.5 72.5,-131.5 107.5,-131.5 107.5,-112.5 72.5,-112.5"/>
<text text-anchor="middle" x="90" y="-119.5" font-family="Helvetica,sans-Serif" font-size="10.00">pair</text>
</a>
</g>
</g>
<!-- Node1&#45;&gt;Node3 -->
<g id="edge2" class="edge">
<title>Node1&#45;&gt;Node3</title>
<path fill="none" stroke="midnightblue" d="M117.55,-168.08C112.99,-160.61 106.33,-149.72 100.71,-140.52"/>
<polygon fill="midnightblue" stroke="midnightblue" points="103.55,-138.46 95.35,-131.75 97.58,-142.11 103.55,-138.46"/>
</g>
<!-- Node4 -->
<g id="node4" class="node">
<title>Node4</title>
<g id="a_node4"><a xlink:href="bst_8h.html" target="_top" xlink:title="AVL tree.">
<polygon fill="white" stroke="black" points="126,-112.5 126,-131.5 188,-131.5 188,-112.5 126,-112.5"/>
<text text-anchor="middle" x="157" y="-119.5" font-family="Helvetica,sans-Serif" font-size="10.00">bits/bst.h</text>
</a>
</g>
</g>
<!-- Node1&#45;&gt;Node4 -->
<g id="edge3" class="edge">
<title>Node1&#45;&gt;Node4</title>
<path fill="none" stroke="midnightblue" d="M128.61,-168.08C133.37,-160.53 140.32,-149.49 146.15,-140.23"/>
<polygon fill="midnightblue" stroke="midnightblue" points="149.12,-142.08 151.49,-131.75 143.2,-138.35 149.12,-142.08"/>
</g>
<!-- Node8 -->
<g id="node8" class="node">
<title>Node8</title>
<g id="a_node8"><a xlink:href="bst__iter_8h.html" target="_top" xlink:title="AVL tree.">
<polygon fill="white" stroke="black" points="185,-56.5 185,-75.5 247,-75.5 247,-56.5 185,-56.5"/>
<text text-anchor="middle" x="216" y="-63.5" font-family="Helvetica,sans-Serif" font-size="10.00">bst_iter.h</text>
</a>
</g>
</g>
<!-- Node1&#45;&gt;Node8 -->
<g id="edge9" class="edge">
<title>Node1&#45;&gt;Node8</title>
<path fill="none" stroke="midnightblue" d="M145.88,-168.41C162.36,-161.1 183.91,-149.06 197,-132 207.28,-118.6 212,-99.78 214.17,-85.84"/>
<polygon fill="midnightblue" stroke="midnightblue" points="217.65,-86.26 215.42,-75.9 210.7,-85.38 217.65,-86.26"/>
</g>
<!-- Node5 -->
<g id="node5" class="node">
<title>Node5</title>
<g id="a_node5"><a xlink:href="type__traits_source.html" target="_top" xlink:title=" ">
<polygon fill="white" stroke="black" points="51,-56.5 51,-75.5 129,-75.5 129,-56.5 51,-56.5"/>
<text text-anchor="middle" x="90" y="-63.5" font-family="Helvetica,sans-Serif" font-size="10.00">../type_traits</text>
</a>
</g>
</g>
<!-- Node4&#45;&gt;Node5 -->
<g id="edge4" class="edge">
<title>Node4&#45;&gt;Node5</title>
<path fill="none" stroke="midnightblue" d="M146.24,-112.32C136.23,-104.26 121.11,-92.08 109.07,-82.37"/>
<polygon fill="midnightblue" stroke="midnightblue" points="110.94,-79.38 100.96,-75.83 106.55,-84.83 110.94,-79.38"/>
</g>
<!-- Node7 -->
<g id="node7" class="node">
<title>Node7</title>
<g id="a_node7"><a xlink:href="bst__base_8h.html" target="_top" xlink:title="AVL tree.">
<polygon fill="white" stroke="black" points="169.5,-0.5 169.5,-19.5 238.5,-19.5 238.5,-0.5 169.5,-0.5"/>
<text text-anchor="middle" x="204" y="-7.5" font-family="Helvetica,sans-Serif" font-size="10.00">bst_base.h</text>
</a>
</g>
</g>
<!-- Node4&#45;&gt;Node7 -->
<g id="edge6" class="edge">
<title>Node4&#45;&gt;Node7</title>
<path fill="none" stroke="midnightblue" d="M158.75,-112.32C161.48,-99.61 167.36,-75.32 176,-56 180.37,-46.24 186.54,-36.06 191.98,-27.86"/>
<polygon fill="midnightblue" stroke="midnightblue" points="194.9,-29.79 197.68,-19.57 189.13,-25.83 194.9,-29.79"/>
</g>
<!-- Node4&#45;&gt;Node8 -->
<g id="edge7" class="edge">
<title>Node4&#45;&gt;Node8</title>
<path fill="none" stroke="midnightblue" d="M166.48,-112.32C175.2,-104.34 188.34,-92.31 198.9,-82.65"/>
<polygon fill="midnightblue" stroke="midnightblue" points="201.33,-85.17 206.35,-75.83 196.61,-80 201.33,-85.17"/>
</g>
<!-- Node6 -->
<g id="node6" class="node">
<title>Node6</title>
<g id="a_node6"><a xlink:href="type__traits_8h_source.html" target="_top" xlink:title=" ">
<polygon fill="white" stroke="black" points="40.5,-0.5 40.5,-19.5 139.5,-19.5 139.5,-0.5 40.5,-0.5"/>
<text text-anchor="middle" x="90" y="-7.5" font-family="Helvetica,sans-Serif" font-size="10.00">bits/type_traits.h</text>
</a>
</g>
</g>
<!-- Node5&#45;&gt;Node6 -->
<g id="edge5" class="edge">
<title>Node5&#45;&gt;Node6</title>
<path fill="none" stroke="midnightblue" d="M90,-56.08C90,-49.01 90,-38.86 90,-29.99"/>
<polygon fill="midnightblue" stroke="midnightblue" points="93.5,-29.75 90,-19.75 86.5,-29.75 93.5,-29.75"/>
</g>
<!-- Node8&#45;&gt;Node7 -->
<g id="edge8" class="edge">
<title>Node8&#45;&gt;Node7</title>
<path fill="none" stroke="midnightblue" d="M214.02,-56.08C212.43,-48.93 210.14,-38.64 208.15,-29.69"/>
<polygon fill="midnightblue" stroke="midnightblue" points="211.53,-28.75 205.94,-19.75 204.7,-30.27 211.53,-28.75"/>
</g>
</g>
</svg>
