<?xml version="1.0" encoding="UTF-8" standalone="no"?>
<!DOCTYPE svg PUBLIC "-//W3C//DTD SVG 1.1//EN"
 "http://www.w3.org/Graphics/SVG/1.1/DTD/svg11.dtd">
<!-- Generated by graphviz version 2.43.0 (0)
 -->
<!-- Title: l4/cxx/basic_ostream Pages: 1 -->
<svg width="784pt" height="397pt"
 viewBox="0.00 0.00 783.50 397.00" xmlns="http://www.w3.org/2000/svg" xmlns:xlink="http://www.w3.org/1999/xlink">
<g id="graph0" class="graph" transform="scale(1 1) rotate(0) translate(4 393)">
<title>l4/cxx/basic_ostream</title>
<polygon fill="white" stroke="transparent" points="-4,4 -4,-393 779.5,-393 779.5,4 -4,4"/>
<!-- Node1 -->
<g id="node1" class="node">
<title>Node1</title>
<g id="a_node1"><a xlink:title="Basic IO stream.">
<polygon fill="#bfbfbf" stroke="black" points="315.5,-369.5 315.5,-388.5 435.5,-388.5 435.5,-369.5 315.5,-369.5"/>
<text text-anchor="middle" x="375.5" y="-376.5" font-family="Helvetica,sans-Serif" font-size="10.00">l4/cxx/basic_ostream</text>
</a>
</g>
</g>
<!-- Node2 -->
<g id="node2" class="node">
<title>Node2</title>
<g id="a_node2"><a xlink:href="exceptions.html" target="_top" xlink:title="Base exceptions.">
<polygon fill="white" stroke="black" points="267.5,-257.5 267.5,-276.5 369.5,-276.5 369.5,-257.5 267.5,-257.5"/>
<text text-anchor="middle" x="318.5" y="-264.5" font-family="Helvetica,sans-Serif" font-size="10.00">l4/cxx/exceptions</text>
</a>
</g>
</g>
<!-- Node1&#45;&gt;Node2 -->
<g id="edge1" class="edge">
<title>Node1&#45;&gt;Node2</title>
<path fill="none" stroke="midnightblue" d="M305.55,-366.43C286.88,-359.8 268.78,-349.37 257.5,-333 242.05,-310.57 276.67,-288.26 299.83,-276.5"/>
<polygon fill="midnightblue" stroke="midnightblue" points="304.74,-369.84 315.33,-369.56 306.87,-363.17 304.74,-369.84"/>
</g>
<!-- Node14 -->
<g id="node14" class="node">
<title>Node14</title>
<g id="a_node14"><a xlink:href="iostream.html" target="_top" xlink:title="IO Stream.">
<polygon fill="white" stroke="black" points="14.5,-257.5 14.5,-276.5 106.5,-276.5 106.5,-257.5 14.5,-257.5"/>
<text text-anchor="middle" x="60.5" y="-264.5" font-family="Helvetica,sans-Serif" font-size="10.00">l4/cxx/iostream</text>
</a>
</g>
</g>
<!-- Node1&#45;&gt;Node14 -->
<g id="edge16" class="edge">
<title>Node1&#45;&gt;Node14</title>
<path fill="none" stroke="midnightblue" d="M341.43,-366.1C277.52,-343.79 141.06,-296.13 85.16,-276.61"/>
<polygon fill="midnightblue" stroke="midnightblue" points="340.45,-369.47 351.04,-369.46 342.76,-362.86 340.45,-369.47"/>
</g>
<!-- Node15 -->
<g id="node15" class="node">
<title>Node15</title>
<g id="a_node15"><a xlink:href="l4iostream.html" target="_top" xlink:title="L4 IO stream.">
<polygon fill="white" stroke="black" points="267,-313.5 267,-332.5 368,-332.5 368,-313.5 267,-313.5"/>
<text text-anchor="middle" x="317.5" y="-320.5" font-family="Helvetica,sans-Serif" font-size="10.00">l4/cxx/l4iostream</text>
</a>
</g>
</g>
<!-- Node1&#45;&gt;Node15 -->
<g id="edge18" class="edge">
<title>Node1&#45;&gt;Node15</title>
<path fill="none" stroke="midnightblue" d="M358.59,-362.25C348.3,-352.67 335.53,-340.79 326.99,-332.83"/>
<polygon fill="midnightblue" stroke="midnightblue" points="356.48,-365.07 366.18,-369.32 361.25,-359.95 356.48,-365.07"/>
</g>
<!-- Node16 -->
<g id="node16" class="node">
<title>Node16</title>
<g id="a_node16"><a xlink:href="l4types_8h.html" target="_top" xlink:title="L4 Types.">
<polygon fill="white" stroke="black" points="386.5,-313.5 386.5,-332.5 480.5,-332.5 480.5,-313.5 386.5,-313.5"/>
<text text-anchor="middle" x="433.5" y="-320.5" font-family="Helvetica,sans-Serif" font-size="10.00">l4/cxx/l4types.h</text>
</a>
</g>
</g>
<!-- Node1&#45;&gt;Node16 -->
<g id="edge19" class="edge">
<title>Node1&#45;&gt;Node16</title>
<path fill="none" stroke="midnightblue" d="M392.41,-362.25C402.7,-352.67 415.47,-340.79 424.01,-332.83"/>
<polygon fill="midnightblue" stroke="midnightblue" points="389.75,-359.95 384.82,-369.32 394.52,-365.07 389.75,-359.95"/>
</g>
<!-- Node17 -->
<g id="node17" class="node">
<title>Node17</title>
<g id="a_node17"><a xlink:href="string_source.html" target="_top" xlink:title=" ">
<polygon fill="white" stroke="black" points="499,-313.5 499,-332.5 576,-332.5 576,-313.5 499,-313.5"/>
<text text-anchor="middle" x="537.5" y="-320.5" font-family="Helvetica,sans-Serif" font-size="10.00">l4/cxx/string</text>
</a>
</g>
</g>
<!-- Node1&#45;&gt;Node17 -->
<g id="edge21" class="edge">
<title>Node1&#45;&gt;Node17</title>
<path fill="none" stroke="midnightblue" d="M410.98,-366.17C441.49,-356 484.74,-341.59 511.95,-332.52"/>
<polygon fill="midnightblue" stroke="midnightblue" points="409.55,-362.96 401.17,-369.44 411.76,-369.6 409.55,-362.96"/>
</g>
<!-- Node19 -->
<g id="node19" class="node">
<title>Node19</title>
<g id="a_node19"><a xlink:href="string_8h.html" target="_top" xlink:title="String.">
<polygon fill="white" stroke="black" points="689.5,-257.5 689.5,-276.5 775.5,-276.5 775.5,-257.5 689.5,-257.5"/>
<text text-anchor="middle" x="732.5" y="-264.5" font-family="Helvetica,sans-Serif" font-size="10.00">l4/cxx/string.h</text>
</a>
</g>
</g>
<!-- Node1&#45;&gt;Node19 -->
<g id="edge23" class="edge">
<title>Node1&#45;&gt;Node19</title>
<path fill="none" stroke="midnightblue" d="M440.35,-367.66C482.32,-360.1 537.83,-348.47 585.5,-333 634.6,-317.07 689.51,-290.22 716.18,-276.55"/>
<polygon fill="midnightblue" stroke="midnightblue" points="439.49,-364.25 430.26,-369.44 440.71,-371.15 439.49,-364.25"/>
</g>
<!-- Node3 -->
<g id="node3" class="node">
<title>Node3</title>
<g id="a_node3"><a xlink:href="virtqueue_source.html" target="_top" xlink:title=" ">
<polygon fill="white" stroke="black" points="623,-201.5 623,-220.5 736,-220.5 736,-201.5 623,-201.5"/>
<text text-anchor="middle" x="679.5" y="-208.5" font-family="Helvetica,sans-Serif" font-size="10.00">l4/l4virtio/virtqueue</text>
</a>
</g>
</g>
<!-- Node2&#45;&gt;Node3 -->
<g id="edge2" class="edge">
<title>Node2&#45;&gt;Node3</title>
<path fill="none" stroke="midnightblue" d="M379.99,-256.8C448.09,-246.62 556.96,-230.33 622.99,-220.45"/>
<polygon fill="midnightblue" stroke="midnightblue" points="379.21,-253.38 369.84,-258.32 380.25,-260.3 379.21,-253.38"/>
</g>
<!-- Node8 -->
<g id="node8" class="node">
<title>Node8</title>
<g id="a_node8"><a xlink:href="error__helper.html" target="_top" xlink:title="Error helper.">
<polygon fill="white" stroke="black" points="119,-201.5 119,-220.5 220,-220.5 220,-201.5 119,-201.5"/>
<text text-anchor="middle" x="169.5" y="-208.5" font-family="Helvetica,sans-Serif" font-size="10.00">l4/re/error_helper</text>
</a>
</g>
</g>
<!-- Node2&#45;&gt;Node8 -->
<g id="edge7" class="edge">
<title>Node2&#45;&gt;Node8</title>
<path fill="none" stroke="midnightblue" d="M285.13,-253.91C257.12,-243.75 217.8,-229.51 193,-220.52"/>
<polygon fill="midnightblue" stroke="midnightblue" points="284.3,-257.33 294.89,-257.44 286.68,-250.75 284.3,-257.33"/>
</g>
<!-- Node10 -->
<g id="node10" class="node">
<title>Node10</title>
<g id="a_node10"><a xlink:href="object__registry_source.html" target="_top" xlink:title=" ">
<polygon fill="white" stroke="black" points="472,-201.5 472,-220.5 605,-220.5 605,-201.5 472,-201.5"/>
<text text-anchor="middle" x="538.5" y="-208.5" font-family="Helvetica,sans-Serif" font-size="10.00">l4/re/util/object_registry</text>
</a>
</g>
</g>
<!-- Node2&#45;&gt;Node10 -->
<g id="edge11" class="edge">
<title>Node2&#45;&gt;Node10</title>
<path fill="none" stroke="midnightblue" d="M363.22,-255.02C404.78,-244.82 465.81,-229.84 503.8,-220.52"/>
<polygon fill="midnightblue" stroke="midnightblue" points="362.24,-251.66 353.36,-257.44 363.91,-258.46 362.24,-251.66"/>
</g>
<!-- Node11 -->
<g id="node11" class="node">
<title>Node11</title>
<g id="a_node11"><a xlink:href="ipc__helper.html" target="_top" xlink:title="IPC helper.">
<polygon fill="white" stroke="black" points="238,-201.5 238,-220.5 337,-220.5 337,-201.5 238,-201.5"/>
<text text-anchor="middle" x="287.5" y="-208.5" font-family="Helvetica,sans-Serif" font-size="10.00">l4/cxx/ipc_helper</text>
</a>
</g>
</g>
<!-- Node2&#45;&gt;Node11 -->
<g id="edge13" class="edge">
<title>Node2&#45;&gt;Node11</title>
<path fill="none" stroke="midnightblue" d="M308.32,-248.27C303.03,-239.05 296.78,-228.17 292.52,-220.75"/>
<polygon fill="midnightblue" stroke="midnightblue" points="305.37,-250.15 313.38,-257.08 311.44,-246.67 305.37,-250.15"/>
</g>
<!-- Node12 -->
<g id="node12" class="node">
<title>Node12</title>
<g id="a_node12"><a xlink:href="cxx_2ipc__server.html" target="_top" xlink:title="IPC server loop.">
<polygon fill="white" stroke="black" points="355,-201.5 355,-220.5 454,-220.5 454,-201.5 355,-201.5"/>
<text text-anchor="middle" x="404.5" y="-208.5" font-family="Helvetica,sans-Serif" font-size="10.00">l4/cxx/ipc_server</text>
</a>
</g>
</g>
<!-- Node2&#45;&gt;Node12 -->
<g id="edge14" class="edge">
<title>Node2&#45;&gt;Node12</title>
<path fill="none" stroke="midnightblue" d="M340.95,-251.9C356.72,-242 377.31,-229.07 390.72,-220.65"/>
<polygon fill="midnightblue" stroke="midnightblue" points="338.93,-249.04 332.32,-257.32 342.65,-254.97 338.93,-249.04"/>
</g>
<!-- Node13 -->
<g id="node13" class="node">
<title>Node13</title>
<g id="a_node13"><a xlink:href="std__exc__io.html" target="_top" xlink:title="Base exceptions std stream operator.">
<polygon fill="white" stroke="black" points="0,-201.5 0,-220.5 101,-220.5 101,-201.5 0,-201.5"/>
<text text-anchor="middle" x="50.5" y="-208.5" font-family="Helvetica,sans-Serif" font-size="10.00">l4/cxx/std_exc_io</text>
</a>
</g>
</g>
<!-- Node2&#45;&gt;Node13 -->
<g id="edge15" class="edge">
<title>Node2&#45;&gt;Node13</title>
<path fill="none" stroke="midnightblue" d="M265.94,-255.41C215.29,-245.2 139.63,-229.96 92.77,-220.52"/>
<polygon fill="midnightblue" stroke="midnightblue" points="265.54,-258.9 276.03,-257.44 266.92,-252.04 265.54,-258.9"/>
</g>
<!-- Node4 -->
<g id="node4" class="node">
<title>Node4</title>
<g id="a_node4"><a xlink:href="client_2virtio-block_source.html" target="_top" xlink:title=" ">
<polygon fill="white" stroke="black" points="492,-134.5 492,-164.5 585,-164.5 585,-134.5 492,-134.5"/>
<text text-anchor="start" x="500" y="-152.5" font-family="Helvetica,sans-Serif" font-size="10.00">l4/l4virtio/client</text>
<text text-anchor="middle" x="538.5" y="-141.5" font-family="Helvetica,sans-Serif" font-size="10.00">/virtio&#45;block</text>
</a>
</g>
</g>
<!-- Node3&#45;&gt;Node4 -->
<g id="edge3" class="edge">
<title>Node3&#45;&gt;Node4</title>
<path fill="none" stroke="midnightblue" d="M649.78,-197.46C626.95,-187.82 595.4,-174.51 571.73,-164.52"/>
<polygon fill="midnightblue" stroke="midnightblue" points="648.72,-200.81 659.3,-201.48 651.45,-194.36 648.72,-200.81"/>
</g>
<!-- Node5 -->
<g id="node5" class="node">
<title>Node5</title>
<g id="a_node5"><a xlink:href="virtio_source.html" target="_top" xlink:title=" ">
<polygon fill="white" stroke="black" points="631,-134.5 631,-164.5 728,-164.5 728,-134.5 631,-134.5"/>
<text text-anchor="start" x="639" y="-152.5" font-family="Helvetica,sans-Serif" font-size="10.00">l4/l4virtio/server</text>
<text text-anchor="middle" x="679.5" y="-141.5" font-family="Helvetica,sans-Serif" font-size="10.00">/virtio</text>
</a>
</g>
</g>
<!-- Node3&#45;&gt;Node5 -->
<g id="edge4" class="edge">
<title>Node3&#45;&gt;Node5</title>
<path fill="none" stroke="midnightblue" d="M679.5,-191.23C679.5,-182.59 679.5,-172.5 679.5,-164.52"/>
<polygon fill="midnightblue" stroke="midnightblue" points="676,-191.48 679.5,-201.48 683,-191.48 676,-191.48"/>
</g>
<!-- Node6 -->
<g id="node6" class="node">
<title>Node6</title>
<g id="a_node6"><a xlink:href="server_2l4virtio_source.html" target="_top" xlink:title=" ">
<polygon fill="white" stroke="black" points="376,-67.5 376,-97.5 473,-97.5 473,-67.5 376,-67.5"/>
<text text-anchor="start" x="384" y="-85.5" font-family="Helvetica,sans-Serif" font-size="10.00">l4/l4virtio/server</text>
<text text-anchor="middle" x="424.5" y="-74.5" font-family="Helvetica,sans-Serif" font-size="10.00">/l4virtio</text>
</a>
</g>
</g>
<!-- Node5&#45;&gt;Node6 -->
<g id="edge5" class="edge">
<title>Node5&#45;&gt;Node6</title>
<path fill="none" stroke="midnightblue" d="M621.09,-133.61C576.38,-122.21 515.44,-106.68 473.32,-95.94"/>
<polygon fill="midnightblue" stroke="midnightblue" points="620.38,-137.04 630.94,-136.12 622.11,-130.26 620.38,-137.04"/>
</g>
<!-- Node7 -->
<g id="node7" class="node">
<title>Node7</title>
<g id="a_node7"><a xlink:href="server_2virtio-block_source.html" target="_top" xlink:title=" ">
<polygon fill="white" stroke="black" points="376,-0.5 376,-30.5 473,-30.5 473,-0.5 376,-0.5"/>
<text text-anchor="start" x="384" y="-18.5" font-family="Helvetica,sans-Serif" font-size="10.00">l4/l4virtio/server</text>
<text text-anchor="middle" x="424.5" y="-7.5" font-family="Helvetica,sans-Serif" font-size="10.00">/virtio&#45;block</text>
</a>
</g>
</g>
<!-- Node6&#45;&gt;Node7 -->
<g id="edge6" class="edge">
<title>Node6&#45;&gt;Node7</title>
<path fill="none" stroke="midnightblue" d="M424.5,-57.11C424.5,-48.15 424.5,-38.32 424.5,-30.58"/>
<polygon fill="midnightblue" stroke="midnightblue" points="421,-57.4 424.5,-67.4 428,-57.4 421,-57.4"/>
</g>
<!-- Node8&#45;&gt;Node4 -->
<g id="edge8" class="edge">
<title>Node8&#45;&gt;Node4</title>
<path fill="none" stroke="midnightblue" d="M230.05,-200.24C303.37,-188.41 425.3,-168.75 491.78,-158.03"/>
<polygon fill="midnightblue" stroke="midnightblue" points="229.35,-196.8 220.03,-201.85 230.46,-203.71 229.35,-196.8"/>
</g>
<!-- Node8&#45;&gt;Node6 -->
<g id="edge9" class="edge">
<title>Node8&#45;&gt;Node6</title>
<path fill="none" stroke="midnightblue" d="M168.94,-191.24C169.49,-173.96 173.18,-148.81 188.5,-134 214.79,-108.6 314.89,-94.36 375.97,-87.87"/>
<polygon fill="midnightblue" stroke="midnightblue" points="165.44,-191.28 168.94,-201.28 172.44,-191.28 165.44,-191.28"/>
</g>
<!-- Node9 -->
<g id="node9" class="node">
<title>Node9</title>
<g id="a_node9"><a xlink:href="mem__alloc__impl_8h.html" target="_top" xlink:title="Memory allocator client stub implementation.">
<polygon fill="white" stroke="black" points="197.5,-134.5 197.5,-164.5 317.5,-164.5 317.5,-134.5 197.5,-134.5"/>
<text text-anchor="start" x="205.5" y="-152.5" font-family="Helvetica,sans-Serif" font-size="10.00">l4/re/impl/mem_alloc</text>
<text text-anchor="middle" x="257.5" y="-141.5" font-family="Helvetica,sans-Serif" font-size="10.00">_impl.h</text>
</a>
</g>
</g>
<!-- Node8&#45;&gt;Node9 -->
<g id="edge10" class="edge">
<title>Node8&#45;&gt;Node9</title>
<path fill="none" stroke="midnightblue" d="M190.59,-195.74C204.58,-186.28 222.85,-173.93 236.76,-164.52"/>
<polygon fill="midnightblue" stroke="midnightblue" points="188.43,-192.97 182.11,-201.48 192.35,-198.77 188.43,-192.97"/>
</g>
<!-- Node10&#45;&gt;Node4 -->
<g id="edge12" class="edge">
<title>Node10&#45;&gt;Node4</title>
<path fill="none" stroke="midnightblue" d="M538.5,-191.23C538.5,-182.59 538.5,-172.5 538.5,-164.52"/>
<polygon fill="midnightblue" stroke="midnightblue" points="535,-191.48 538.5,-201.48 542,-191.48 535,-191.48"/>
</g>
<!-- Node14&#45;&gt;Node13 -->
<g id="edge17" class="edge">
<title>Node14&#45;&gt;Node13</title>
<path fill="none" stroke="midnightblue" d="M57,-247.1C55.34,-238.14 53.44,-227.86 52.12,-220.75"/>
<polygon fill="midnightblue" stroke="midnightblue" points="53.59,-247.89 58.85,-257.08 60.47,-246.61 53.59,-247.89"/>
</g>
<!-- Node16&#45;&gt;Node2 -->
<g id="edge20" class="edge">
<title>Node16&#45;&gt;Node2</title>
<path fill="none" stroke="midnightblue" d="M406.02,-309.1C384.53,-299.01 355.28,-285.27 336.64,-276.52"/>
<polygon fill="midnightblue" stroke="midnightblue" points="404.74,-312.36 415.28,-313.44 407.71,-306.02 404.74,-312.36"/>
</g>
<!-- Node18 -->
<g id="node18" class="node">
<title>Node18</title>
<g id="a_node18"><a xlink:href="name__space__svr_source.html" target="_top" xlink:title=" ">
<polygon fill="white" stroke="black" points="466.5,-257.5 466.5,-276.5 608.5,-276.5 608.5,-257.5 466.5,-257.5"/>
<text text-anchor="middle" x="537.5" y="-264.5" font-family="Helvetica,sans-Serif" font-size="10.00">l4/re/util/name_space_svr</text>
</a>
</g>
</g>
<!-- Node17&#45;&gt;Node18 -->
<g id="edge22" class="edge">
<title>Node17&#45;&gt;Node18</title>
<path fill="none" stroke="midnightblue" d="M537.5,-302.8C537.5,-293.91 537.5,-283.78 537.5,-276.75"/>
<polygon fill="midnightblue" stroke="midnightblue" points="534,-303.08 537.5,-313.08 541,-303.08 534,-303.08"/>
</g>
<!-- Node19&#45;&gt;Node5 -->
<g id="edge24" class="edge">
<title>Node19&#45;&gt;Node5</title>
<path fill="none" stroke="midnightblue" d="M742.07,-247.93C747.85,-234.42 752.81,-215.8 745.5,-201 737.7,-185.22 722.35,-173.01 708.41,-164.55"/>
<polygon fill="midnightblue" stroke="midnightblue" points="738.83,-246.59 737.68,-257.13 745.15,-249.61 738.83,-246.59"/>
</g>
</g>
</svg>
