<?xml version="1.0" encoding="UTF-8" standalone="no"?>
<!DOCTYPE svg PUBLIC "-//W3C//DTD SVG 1.1//EN"
 "http://www.w3.org/Graphics/SVG/1.1/DTD/svg11.dtd">
<!-- Generated by graphviz version 2.43.0 (0)
 -->
<!-- Title: l4/re/util/bitmap_cap_alloc Pages: 1 -->
<svg width="881pt" height="778pt"
 viewBox="0.00 0.00 880.50 778.00" xmlns="http://www.w3.org/2000/svg" xmlns:xlink="http://www.w3.org/1999/xlink">
<g id="graph0" class="graph" transform="scale(1 1) rotate(0) translate(4 774)">
<title>l4/re/util/bitmap_cap_alloc</title>
<polygon fill="white" stroke="transparent" points="-4,4 -4,-774 876.5,-774 876.5,4 -4,4"/>
<!-- Node1 -->
<g id="node1" class="node">
<title>Node1</title>
<g id="a_node1"><a xlink:title="Bitmap capability allocator.">
<polygon fill="#bfbfbf" stroke="black" points="81,-739.5 81,-769.5 198,-769.5 198,-739.5 81,-739.5"/>
<text text-anchor="start" x="89" y="-757.5" font-family="Helvetica,sans-Serif" font-size="10.00">l4/re/util/bitmap_cap</text>
<text text-anchor="middle" x="139.5" y="-746.5" font-family="Helvetica,sans-Serif" font-size="10.00">_alloc</text>
</a>
</g>
</g>
<!-- Node2 -->
<g id="node2" class="node">
<title>Node2</title>
<g id="a_node2"><a xlink:href="item__alloc.html" target="_top" xlink:title="Item allocator.">
<polygon fill="white" stroke="black" points="0,-683.5 0,-702.5 111,-702.5 111,-683.5 0,-683.5"/>
<text text-anchor="middle" x="55.5" y="-690.5" font-family="Helvetica,sans-Serif" font-size="10.00">l4/re/util/item_alloc</text>
</a>
</g>
</g>
<!-- Node1&#45;&gt;Node2 -->
<g id="edge1" class="edge">
<title>Node1&#45;&gt;Node2</title>
<path fill="none" stroke="midnightblue" d="M119.59,-739.4C106.51,-730.13 89.42,-718.03 76.18,-708.65"/>
<polygon fill="midnightblue" stroke="midnightblue" points="77.91,-705.58 67.72,-702.66 73.86,-711.29 77.91,-705.58"/>
</g>
<!-- Node4 -->
<g id="node4" class="node">
<title>Node4</title>
<g id="a_node4"><a xlink:href="capability.html" target="_top" xlink:title="L4::Cap related definitions.">
<polygon fill="white" stroke="black" points="195.5,-683.5 195.5,-702.5 291.5,-702.5 291.5,-683.5 195.5,-683.5"/>
<text text-anchor="middle" x="243.5" y="-690.5" font-family="Helvetica,sans-Serif" font-size="10.00">l4/sys/capability</text>
</a>
</g>
</g>
<!-- Node1&#45;&gt;Node4 -->
<g id="edge3" class="edge">
<title>Node1&#45;&gt;Node4</title>
<path fill="none" stroke="midnightblue" d="M164.15,-739.4C180.82,-729.86 202.73,-717.32 219.31,-707.84"/>
<polygon fill="midnightblue" stroke="midnightblue" points="221.43,-710.66 228.37,-702.66 217.95,-704.59 221.43,-710.66"/>
</g>
<!-- Node22 -->
<g id="node22" class="node">
<title>Node22</title>
<g id="a_node22"><a xlink:href="l4_2sys_2task_8h.html" target="_top" xlink:title="Common task related definitions.">
<polygon fill="white" stroke="black" points="266.5,-342 266.5,-361 344.5,-361 344.5,-342 266.5,-342"/>
<text text-anchor="middle" x="305.5" y="-349" font-family="Helvetica,sans-Serif" font-size="10.00">l4/sys/task.h</text>
</a>
</g>
</g>
<!-- Node1&#45;&gt;Node22 -->
<g id="edge62" class="edge">
<title>Node1&#45;&gt;Node22</title>
<path fill="none" stroke="midnightblue" d="M139.5,-739.28C139.5,-717.48 139.5,-674.49 139.5,-638 139.5,-638 139.5,-638 139.5,-580 139.5,-482.82 239.56,-399.41 284.31,-366.96"/>
<polygon fill="midnightblue" stroke="midnightblue" points="286.35,-369.81 292.47,-361.17 282.29,-364.1 286.35,-369.81"/>
</g>
<!-- Node3 -->
<g id="node3" class="node">
<title>Node3</title>
<g id="a_node3"><a xlink:href="bitmap_source.html" target="_top" xlink:title=" ">
<polygon fill="white" stroke="black" points="14,-627.5 14,-646.5 97,-646.5 97,-627.5 14,-627.5"/>
<text text-anchor="middle" x="55.5" y="-634.5" font-family="Helvetica,sans-Serif" font-size="10.00">l4/cxx/bitmap</text>
</a>
</g>
</g>
<!-- Node2&#45;&gt;Node3 -->
<g id="edge2" class="edge">
<title>Node2&#45;&gt;Node3</title>
<path fill="none" stroke="midnightblue" d="M55.5,-683.08C55.5,-676.01 55.5,-665.86 55.5,-656.99"/>
<polygon fill="midnightblue" stroke="midnightblue" points="59,-656.75 55.5,-646.75 52,-656.75 59,-656.75"/>
</g>
<!-- Node5 -->
<g id="node5" class="node">
<title>Node5</title>
<g id="a_node5"><a xlink:href="l4_2sys_2consts_8h.html" target="_top" xlink:title="Common constants.">
<polygon fill="white" stroke="black" points="345,-112.5 345,-131.5 434,-131.5 434,-112.5 345,-112.5"/>
<text text-anchor="middle" x="389.5" y="-119.5" font-family="Helvetica,sans-Serif" font-size="10.00">l4/sys/consts.h</text>
</a>
</g>
</g>
<!-- Node4&#45;&gt;Node5 -->
<g id="edge4" class="edge">
<title>Node4&#45;&gt;Node5</title>
<path fill="none" stroke="midnightblue" d="M237.61,-683.33C215.61,-650.07 139.5,-526.85 139.5,-414 139.5,-414 139.5,-414 139.5,-233 139.5,-189.41 268.44,-151.7 341.12,-133.9"/>
<polygon fill="midnightblue" stroke="midnightblue" points="342.08,-137.27 350.99,-131.52 340.44,-130.46 342.08,-137.27"/>
</g>
<!-- Node9 -->
<g id="node9" class="node">
<title>Node9</title>
<g id="a_node9"><a xlink:href="l4_2sys_2types_8h.html" target="_top" xlink:title="Common L4 ABI Data Types.">
<polygon fill="white" stroke="black" points="347.5,-168.5 347.5,-187.5 431.5,-187.5 431.5,-168.5 347.5,-168.5"/>
<text text-anchor="middle" x="389.5" y="-175.5" font-family="Helvetica,sans-Serif" font-size="10.00">l4/sys/types.h</text>
</a>
</g>
</g>
<!-- Node4&#45;&gt;Node9 -->
<g id="edge8" class="edge">
<title>Node4&#45;&gt;Node9</title>
<path fill="none" stroke="midnightblue" d="M239.72,-683.35C232.08,-665.03 215.5,-620.82 215.5,-582 215.5,-582 215.5,-582 215.5,-468 215.5,-353.6 208.53,-295.93 297.5,-224 314.73,-210.07 336.98,-199.04 355.29,-191.39"/>
<polygon fill="midnightblue" stroke="midnightblue" points="356.75,-194.57 364.72,-187.59 354.14,-188.08 356.75,-194.57"/>
</g>
<!-- Node12 -->
<g id="node12" class="node">
<title>Node12</title>
<g id="a_node12"><a xlink:href="kobject_source.html" target="_top" xlink:title=" ">
<polygon fill="white" stroke="black" points="452,-515.5 452,-534.5 535,-534.5 535,-515.5 452,-515.5"/>
<text text-anchor="middle" x="493.5" y="-522.5" font-family="Helvetica,sans-Serif" font-size="10.00">l4/sys/kobject</text>
</a>
</g>
</g>
<!-- Node4&#45;&gt;Node12 -->
<g id="edge16" class="edge">
<title>Node4&#45;&gt;Node12</title>
<path fill="none" stroke="midnightblue" d="M256.59,-683.31C297.26,-656.3 421.71,-573.67 472.04,-540.25"/>
<polygon fill="midnightblue" stroke="midnightblue" points="474.15,-543.05 480.54,-534.61 470.27,-537.22 474.15,-543.05"/>
</g>
<!-- Node4&#45;&gt;Node22 -->
<g id="edge45" class="edge">
<title>Node4&#45;&gt;Node22</title>
<path fill="none" stroke="midnightblue" d="M247.41,-683.36C255.33,-665.07 272.5,-620.91 272.5,-582 272.5,-582 272.5,-582 272.5,-524 272.5,-467.56 289.95,-402.53 299.47,-371.23"/>
<polygon fill="midnightblue" stroke="midnightblue" points="302.93,-371.9 302.57,-361.31 296.25,-369.81 302.93,-371.9"/>
</g>
<!-- Node23 -->
<g id="node23" class="node">
<title>Node23</title>
<g id="a_node23"><a xlink:href="sys_2meta.html" target="_top" xlink:title="Meta interface for getting dynamic type information about objects behind capabilities.">
<polygon fill="white" stroke="black" points="480.5,-627.5 480.5,-646.5 554.5,-646.5 554.5,-627.5 480.5,-627.5"/>
<text text-anchor="middle" x="517.5" y="-634.5" font-family="Helvetica,sans-Serif" font-size="10.00">l4/sys/meta</text>
</a>
</g>
</g>
<!-- Node4&#45;&gt;Node23 -->
<g id="edge46" class="edge">
<title>Node4&#45;&gt;Node23</title>
<path fill="none" stroke="midnightblue" d="M286.92,-683.44C337,-673.57 419.03,-657.41 470.56,-647.25"/>
<polygon fill="midnightblue" stroke="midnightblue" points="471.3,-650.67 480.44,-645.3 469.95,-643.8 471.3,-650.67"/>
</g>
<!-- Node6 -->
<g id="node6" class="node">
<title>Node6</title>
<g id="a_node6"><a xlink:href="compiler_8h.html" target="_top" xlink:title="L4 compiler related defines.">
<polygon fill="white" stroke="black" points="560,-56.5 560,-75.5 659,-75.5 659,-56.5 560,-56.5"/>
<text text-anchor="middle" x="609.5" y="-63.5" font-family="Helvetica,sans-Serif" font-size="10.00">l4/sys/compiler.h</text>
</a>
</g>
</g>
<!-- Node5&#45;&gt;Node6 -->
<g id="edge5" class="edge">
<title>Node5&#45;&gt;Node6</title>
<path fill="none" stroke="midnightblue" d="M424.36,-112.44C462.42,-103.1 523.46,-88.12 564.96,-77.93"/>
<polygon fill="midnightblue" stroke="midnightblue" points="565.93,-81.3 574.8,-75.52 564.26,-74.5 565.93,-81.3"/>
</g>
<!-- Node8 -->
<g id="node8" class="node">
<title>Node8</title>
<g id="a_node8"><a xlink:href="l4_2sys_2l4int_8h.html" target="_top" xlink:title="Fixed sized integer types, generic version.">
<polygon fill="white" stroke="black" points="194,-56.5 194,-75.5 273,-75.5 273,-56.5 194,-56.5"/>
<text text-anchor="middle" x="233.5" y="-63.5" font-family="Helvetica,sans-Serif" font-size="10.00">l4/sys/l4int.h</text>
</a>
</g>
</g>
<!-- Node5&#45;&gt;Node8 -->
<g id="edge7" class="edge">
<title>Node5&#45;&gt;Node8</title>
<path fill="none" stroke="midnightblue" d="M364.78,-112.44C338.65,-103.4 297.24,-89.06 267.92,-78.92"/>
<polygon fill="midnightblue" stroke="midnightblue" points="268.7,-75.48 258.1,-75.52 266.41,-82.1 268.7,-75.48"/>
</g>
<!-- Node7 -->
<g id="node7" class="node">
<title>Node7</title>
<g id="a_node7"><a xlink:title=" ">
<polygon fill="white" stroke="#bfbfbf" points="563.5,-0.5 563.5,-19.5 655.5,-19.5 655.5,-0.5 563.5,-0.5"/>
<text text-anchor="middle" x="609.5" y="-7.5" font-family="Helvetica,sans-Serif" font-size="10.00">l4/sys/linkage.h</text>
</a>
</g>
</g>
<!-- Node6&#45;&gt;Node7 -->
<g id="edge6" class="edge">
<title>Node6&#45;&gt;Node7</title>
<path fill="none" stroke="midnightblue" d="M609.5,-56.08C609.5,-49.01 609.5,-38.86 609.5,-29.99"/>
<polygon fill="midnightblue" stroke="midnightblue" points="613,-29.75 609.5,-19.75 606,-29.75 613,-29.75"/>
</g>
<!-- Node9&#45;&gt;Node5 -->
<g id="edge11" class="edge">
<title>Node9&#45;&gt;Node5</title>
<path fill="none" stroke="midnightblue" d="M389.5,-168.08C389.5,-161.01 389.5,-150.86 389.5,-141.99"/>
<polygon fill="midnightblue" stroke="midnightblue" points="393,-141.75 389.5,-131.75 386,-141.75 393,-141.75"/>
</g>
<!-- Node9&#45;&gt;Node6 -->
<g id="edge10" class="edge">
<title>Node9&#45;&gt;Node6</title>
<path fill="none" stroke="midnightblue" d="M431.74,-175.75C471.39,-172.59 530.58,-162.6 571.5,-132 587.17,-120.28 597.5,-100.05 603.39,-85.26"/>
<polygon fill="midnightblue" stroke="midnightblue" points="606.75,-86.25 606.9,-75.66 600.18,-83.85 606.75,-86.25"/>
</g>
<!-- Node9&#45;&gt;Node8 -->
<g id="edge9" class="edge">
<title>Node9&#45;&gt;Node8</title>
<path fill="none" stroke="midnightblue" d="M347.11,-172.25C299.89,-165.98 228,-153.19 211.5,-132 200.57,-117.97 209.87,-98.19 219.52,-84.15"/>
<polygon fill="midnightblue" stroke="midnightblue" points="222.53,-85.97 225.71,-75.87 216.92,-81.78 222.53,-85.97"/>
</g>
<!-- Node10 -->
<g id="node10" class="node">
<title>Node10</title>
<g id="a_node10"><a xlink:href="____l4__fpage_8h_source.html" target="_top" xlink:title=" ">
<polygon fill="white" stroke="black" points="452.5,-112.5 452.5,-131.5 562.5,-131.5 562.5,-112.5 452.5,-112.5"/>
<text text-anchor="middle" x="507.5" y="-119.5" font-family="Helvetica,sans-Serif" font-size="10.00">l4/sys/__l4_fpage.h</text>
</a>
</g>
</g>
<!-- Node9&#45;&gt;Node10 -->
<g id="edge12" class="edge">
<title>Node9&#45;&gt;Node10</title>
<path fill="none" stroke="midnightblue" d="M408.2,-168.44C427.44,-159.64 457.65,-145.81 479.7,-135.72"/>
<polygon fill="midnightblue" stroke="midnightblue" points="481.25,-138.86 488.89,-131.52 478.34,-132.5 481.25,-138.86"/>
</g>
<!-- Node11 -->
<g id="node11" class="node">
<title>Node11</title>
<g id="a_node11"><a xlink:href="____timeout_8h_source.html" target="_top" xlink:title=" ">
<polygon fill="white" stroke="black" points="220.5,-112.5 220.5,-131.5 326.5,-131.5 326.5,-112.5 220.5,-112.5"/>
<text text-anchor="middle" x="273.5" y="-119.5" font-family="Helvetica,sans-Serif" font-size="10.00">l4/sys/__timeout.h</text>
</a>
</g>
</g>
<!-- Node9&#45;&gt;Node11 -->
<g id="edge14" class="edge">
<title>Node9&#45;&gt;Node11</title>
<path fill="none" stroke="midnightblue" d="M371.12,-168.44C352.28,-159.68 322.77,-145.94 301.12,-135.86"/>
<polygon fill="midnightblue" stroke="midnightblue" points="302.34,-132.56 291.79,-131.52 299.38,-138.91 302.34,-132.56"/>
</g>
<!-- Node10&#45;&gt;Node6 -->
<g id="edge13" class="edge">
<title>Node10&#45;&gt;Node6</title>
<path fill="none" stroke="midnightblue" d="M523.89,-112.32C540.17,-103.7 565.37,-90.36 584.22,-80.39"/>
<polygon fill="midnightblue" stroke="midnightblue" points="585.95,-83.43 593.15,-75.65 582.68,-77.24 585.95,-83.43"/>
</g>
<!-- Node11&#45;&gt;Node8 -->
<g id="edge15" class="edge">
<title>Node11&#45;&gt;Node8</title>
<path fill="none" stroke="midnightblue" d="M266.89,-112.08C261.24,-104.46 252.96,-93.26 246.05,-83.94"/>
<polygon fill="midnightblue" stroke="midnightblue" points="248.75,-81.7 239.98,-75.75 243.12,-85.87 248.75,-81.7"/>
</g>
<!-- Node12&#45;&gt;Node9 -->
<g id="edge31" class="edge">
<title>Node12&#45;&gt;Node9</title>
<path fill="none" stroke="midnightblue" d="M465.81,-515.37C413.71,-497.44 302.36,-450.72 257.5,-367 220.24,-297.46 319.38,-223.14 366.37,-192.95"/>
<polygon fill="midnightblue" stroke="midnightblue" points="368.41,-195.79 375.01,-187.51 364.69,-189.87 368.41,-195.79"/>
</g>
<!-- Node13 -->
<g id="node13" class="node">
<title>Node13</title>
<g id="a_node13"><a xlink:href="kernel__object_8h.html" target="_top" xlink:title="Kernel object system calls.">
<polygon fill="white" stroke="black" points="449,-403.5 449,-422.5 540,-422.5 540,-403.5 449,-403.5"/>
<text text-anchor="middle" x="494.5" y="-410.5" font-family="Helvetica,sans-Serif" font-size="10.00">kernel_object.h</text>
</a>
</g>
</g>
<!-- Node12&#45;&gt;Node13 -->
<g id="edge17" class="edge">
<title>Node12&#45;&gt;Node13</title>
<path fill="none" stroke="midnightblue" d="M493.58,-515.37C493.74,-497.62 494.11,-456.67 494.33,-432.6"/>
<polygon fill="midnightblue" stroke="midnightblue" points="497.83,-432.62 494.42,-422.59 490.83,-432.56 497.83,-432.62"/>
</g>
<!-- Node18 -->
<g id="node18" class="node">
<title>Node18</title>
<g id="a_node18"><a xlink:href="____typeinfo_8h.html" target="_top" xlink:title="Type information handling.">
<polygon fill="white" stroke="black" points="522,-459.5 522,-478.5 599,-478.5 599,-459.5 522,-459.5"/>
<text text-anchor="middle" x="560.5" y="-466.5" font-family="Helvetica,sans-Serif" font-size="10.00">__typeinfo.h</text>
</a>
</g>
</g>
<!-- Node12&#45;&gt;Node18 -->
<g id="edge32" class="edge">
<title>Node12&#45;&gt;Node18</title>
<path fill="none" stroke="midnightblue" d="M504.26,-515.32C514.27,-507.26 529.39,-495.08 541.43,-485.37"/>
<polygon fill="midnightblue" stroke="midnightblue" points="543.95,-487.83 549.54,-478.83 539.56,-482.38 543.95,-487.83"/>
</g>
<!-- Node13&#45;&gt;Node6 -->
<g id="edge19" class="edge">
<title>Node13&#45;&gt;Node6</title>
<path fill="none" stroke="midnightblue" d="M531.82,-403.48C582.41,-389.47 666.5,-356.35 666.5,-291 666.5,-291 666.5,-291 666.5,-177 666.5,-140.3 641.18,-103.66 624.29,-83.3"/>
<polygon fill="midnightblue" stroke="midnightblue" points="626.85,-80.9 617.67,-75.62 621.55,-85.48 626.85,-80.9"/>
</g>
<!-- Node13&#45;&gt;Node9 -->
<g id="edge18" class="edge">
<title>Node13&#45;&gt;Node9</title>
<path fill="none" stroke="midnightblue" d="M511.7,-403.39C524.75,-395.79 541.73,-383.39 549.5,-367 555.4,-354.55 554.07,-349 549.5,-336 525.62,-268.15 452.81,-216.43 414.18,-192.92"/>
<polygon fill="midnightblue" stroke="midnightblue" points="415.53,-189.65 405.15,-187.56 411.96,-195.67 415.53,-189.65"/>
</g>
<!-- Node14 -->
<g id="node14" class="node">
<title>Node14</title>
<g id="a_node14"><a xlink:href="l4_2sys_2utcb_8h.html" target="_top" xlink:title="UTCB definitions.">
<polygon fill="white" stroke="black" points="350.5,-224.5 350.5,-243.5 428.5,-243.5 428.5,-224.5 350.5,-224.5"/>
<text text-anchor="middle" x="389.5" y="-231.5" font-family="Helvetica,sans-Serif" font-size="10.00">l4/sys/utcb.h</text>
</a>
</g>
</g>
<!-- Node13&#45;&gt;Node14 -->
<g id="edge20" class="edge">
<title>Node13&#45;&gt;Node14</title>
<path fill="none" stroke="midnightblue" d="M448.89,-403.82C427.72,-397.51 404.42,-386.42 391.5,-367 368.52,-332.45 377.04,-280.75 384,-253.43"/>
<polygon fill="midnightblue" stroke="midnightblue" points="387.42,-254.21 386.71,-243.64 380.67,-252.35 387.42,-254.21"/>
</g>
<!-- Node15 -->
<g id="node15" class="node">
<title>Node15</title>
<g id="a_node15"><a xlink:href="____kernel__object__impl_8h.html" target="_top" xlink:title="Low&#45;level kernel debugger functions.">
<polygon fill="white" stroke="black" points="400.5,-336.5 400.5,-366.5 524.5,-366.5 524.5,-336.5 400.5,-336.5"/>
<text text-anchor="start" x="408.5" y="-354.5" font-family="Helvetica,sans-Serif" font-size="10.00">l4/sys/__kernel_object</text>
<text text-anchor="middle" x="462.5" y="-343.5" font-family="Helvetica,sans-Serif" font-size="10.00">_impl.h</text>
</a>
</g>
</g>
<!-- Node13&#45;&gt;Node15 -->
<g id="edge24" class="edge">
<title>Node13&#45;&gt;Node15</title>
<path fill="none" stroke="midnightblue" d="M489.92,-403.48C485.99,-396.17 480.14,-385.3 474.86,-375.47"/>
<polygon fill="midnightblue" stroke="midnightblue" points="477.86,-373.67 470.04,-366.52 471.7,-376.99 477.86,-373.67"/>
</g>
<!-- Node16 -->
<g id="node16" class="node">
<title>Node16</title>
<g id="a_node16"><a xlink:href="l4_2sys_2ipc_8h.html" target="_top" xlink:title="Common IPC interface.">
<polygon fill="white" stroke="black" points="424,-280.5 424,-299.5 495,-299.5 495,-280.5 424,-280.5"/>
<text text-anchor="middle" x="459.5" y="-287.5" font-family="Helvetica,sans-Serif" font-size="10.00">l4/sys/ipc.h</text>
</a>
</g>
</g>
<!-- Node13&#45;&gt;Node16 -->
<g id="edge30" class="edge">
<title>Node13&#45;&gt;Node16</title>
<path fill="none" stroke="midnightblue" d="M505.49,-403.37C514.95,-395.17 527.94,-381.92 533.5,-367 538.32,-354.09 540.25,-348.01 533.5,-336 525.28,-321.38 510.17,-310.95 495.74,-303.85"/>
<polygon fill="midnightblue" stroke="midnightblue" points="496.98,-300.57 486.43,-299.64 494.1,-306.95 496.98,-300.57"/>
</g>
<!-- Node14&#45;&gt;Node6 -->
<g id="edge22" class="edge">
<title>Node14&#45;&gt;Node6</title>
<path fill="none" stroke="midnightblue" d="M428.05,-224.42C474.39,-212.07 551.21,-184.71 593.5,-132 604.06,-118.84 607.79,-99.7 609.04,-85.6"/>
<polygon fill="midnightblue" stroke="midnightblue" points="612.53,-85.75 609.59,-75.57 605.54,-85.37 612.53,-85.75"/>
</g>
<!-- Node14&#45;&gt;Node8 -->
<g id="edge23" class="edge">
<title>Node14&#45;&gt;Node8</title>
<path fill="none" stroke="midnightblue" d="M350.66,-224.43C306.14,-212.29 235.25,-185.37 203.5,-132 194.03,-116.08 205.76,-96.66 217.21,-83.22"/>
<polygon fill="midnightblue" stroke="midnightblue" points="219.93,-85.43 224.11,-75.7 214.77,-80.7 219.93,-85.43"/>
</g>
<!-- Node14&#45;&gt;Node9 -->
<g id="edge21" class="edge">
<title>Node14&#45;&gt;Node9</title>
<path fill="none" stroke="midnightblue" d="M389.5,-224.08C389.5,-217.01 389.5,-206.86 389.5,-197.99"/>
<polygon fill="midnightblue" stroke="midnightblue" points="393,-197.75 389.5,-187.75 386,-197.75 393,-197.75"/>
</g>
<!-- Node15&#45;&gt;Node16 -->
<g id="edge25" class="edge">
<title>Node15&#45;&gt;Node16</title>
<path fill="none" stroke="midnightblue" d="M461.79,-336.4C461.39,-328.47 460.88,-318.46 460.45,-309.86"/>
<polygon fill="midnightblue" stroke="midnightblue" points="463.94,-309.47 459.94,-299.66 456.94,-309.82 463.94,-309.47"/>
</g>
<!-- Node16&#45;&gt;Node9 -->
<g id="edge26" class="edge">
<title>Node16&#45;&gt;Node9</title>
<path fill="none" stroke="midnightblue" d="M457.99,-280.42C455.41,-267.39 449.24,-242.23 437.5,-224 430.14,-212.56 419.23,-202.02 409.68,-194.03"/>
<polygon fill="midnightblue" stroke="midnightblue" points="411.75,-191.2 401.75,-187.69 407.38,-196.67 411.75,-191.2"/>
</g>
<!-- Node16&#45;&gt;Node14 -->
<g id="edge27" class="edge">
<title>Node16&#45;&gt;Node14</title>
<path fill="none" stroke="midnightblue" d="M448.25,-280.32C437.7,-272.18 421.7,-259.84 409.06,-250.09"/>
<polygon fill="midnightblue" stroke="midnightblue" points="411.01,-247.17 400.95,-243.83 406.73,-252.71 411.01,-247.17"/>
</g>
<!-- Node17 -->
<g id="node17" class="node">
<title>Node17</title>
<g id="a_node17"><a xlink:href="err_8h.html" target="_top" xlink:title="Error codes.">
<polygon fill="white" stroke="black" points="732.5,-224.5 732.5,-243.5 802.5,-243.5 802.5,-224.5 732.5,-224.5"/>
<text text-anchor="middle" x="767.5" y="-231.5" font-family="Helvetica,sans-Serif" font-size="10.00">l4/sys/err.h</text>
</a>
</g>
</g>
<!-- Node16&#45;&gt;Node17 -->
<g id="edge28" class="edge">
<title>Node16&#45;&gt;Node17</title>
<path fill="none" stroke="midnightblue" d="M495.13,-282.75C551.27,-272.91 660.24,-253.81 721.97,-242.98"/>
<polygon fill="midnightblue" stroke="midnightblue" points="722.94,-246.37 732.19,-241.19 721.73,-239.47 722.94,-246.37"/>
</g>
<!-- Node17&#45;&gt;Node6 -->
<g id="edge29" class="edge">
<title>Node17&#45;&gt;Node6</title>
<path fill="none" stroke="midnightblue" d="M762.77,-224.22C751.03,-203.01 718.71,-148.04 680.5,-112 667.18,-99.43 649.85,-88.37 635.65,-80.36"/>
<polygon fill="midnightblue" stroke="midnightblue" points="637.3,-77.27 626.84,-75.55 633.94,-83.42 637.3,-77.27"/>
</g>
<!-- Node19 -->
<g id="node19" class="node">
<title>Node19</title>
<g id="a_node19"><a xlink:href="types.html" target="_top" xlink:title=" ">
<polygon fill="white" stroke="black" points="808.5,-342 808.5,-361 872.5,-361 872.5,-342 808.5,-342"/>
<text text-anchor="middle" x="840.5" y="-349" font-family="Helvetica,sans-Serif" font-size="10.00">cxx/types</text>
</a>
</g>
</g>
<!-- Node18&#45;&gt;Node19 -->
<g id="edge33" class="edge">
<title>Node18&#45;&gt;Node19</title>
<path fill="none" stroke="midnightblue" d="M580.18,-459.5C600.45,-450.66 632.88,-436.29 660.5,-423 678.05,-414.56 681.63,-410.74 699.5,-403 734.18,-387.97 774.94,-373.73 803.69,-364.22"/>
<polygon fill="midnightblue" stroke="midnightblue" points="804.91,-367.51 813.33,-361.07 802.74,-360.85 804.91,-367.51"/>
</g>
<!-- Node20 -->
<g id="node20" class="node">
<title>Node20</title>
<g id="a_node20"><a xlink:href="ipc__basics_source.html" target="_top" xlink:title=" ">
<polygon fill="white" stroke="black" points="708,-403.5 708,-422.5 795,-422.5 795,-403.5 708,-403.5"/>
<text text-anchor="middle" x="751.5" y="-410.5" font-family="Helvetica,sans-Serif" font-size="10.00">cxx/ipc_basics</text>
</a>
</g>
</g>
<!-- Node18&#45;&gt;Node20 -->
<g id="edge34" class="edge">
<title>Node18&#45;&gt;Node20</title>
<path fill="none" stroke="midnightblue" d="M590.76,-459.44C623.46,-450.2 675.68,-435.44 711.68,-425.26"/>
<polygon fill="midnightblue" stroke="midnightblue" points="712.71,-428.61 721.38,-422.52 710.8,-421.87 712.71,-428.61"/>
</g>
<!-- Node21 -->
<g id="node21" class="node">
<title>Node21</title>
<g id="a_node21"><a xlink:href="capability_8h_source.html" target="_top" xlink:title=" ">
<polygon fill="white" stroke="black" points="559.5,-403.5 559.5,-422.5 651.5,-422.5 651.5,-403.5 559.5,-403.5"/>
<text text-anchor="middle" x="605.5" y="-410.5" font-family="Helvetica,sans-Serif" font-size="10.00">cxx/capability.h</text>
</a>
</g>
</g>
<!-- Node18&#45;&gt;Node21 -->
<g id="edge38" class="edge">
<title>Node18&#45;&gt;Node21</title>
<path fill="none" stroke="midnightblue" d="M567.93,-459.08C574.35,-451.38 583.81,-440.03 591.62,-430.65"/>
<polygon fill="midnightblue" stroke="midnightblue" points="594.49,-432.67 598.21,-422.75 589.12,-428.19 594.49,-432.67"/>
</g>
<!-- Node20&#45;&gt;Node14 -->
<g id="edge36" class="edge">
<title>Node20&#45;&gt;Node14</title>
<path fill="none" stroke="midnightblue" d="M737.05,-403.5C699.46,-381.56 595.24,-321.82 504.5,-280 477.7,-267.65 446.48,-255.57 423.33,-247.04"/>
<polygon fill="midnightblue" stroke="midnightblue" points="424.22,-243.64 413.63,-243.5 421.82,-250.22 424.22,-243.64"/>
</g>
<!-- Node20&#45;&gt;Node17 -->
<g id="edge37" class="edge">
<title>Node20&#45;&gt;Node17</title>
<path fill="none" stroke="midnightblue" d="M752.53,-403.38C753.59,-394.33 755.27,-379.67 756.5,-367 760.42,-326.71 764.15,-279.41 766.1,-253.8"/>
<polygon fill="midnightblue" stroke="midnightblue" points="769.6,-253.89 766.86,-243.66 762.62,-253.36 769.6,-253.89"/>
</g>
<!-- Node20&#45;&gt;Node19 -->
<g id="edge35" class="edge">
<title>Node20&#45;&gt;Node19</title>
<path fill="none" stroke="midnightblue" d="M764.25,-403.48C778.53,-393.93 801.9,-378.31 819.01,-366.87"/>
<polygon fill="midnightblue" stroke="midnightblue" points="821.4,-369.48 827.77,-361.01 817.51,-363.66 821.4,-369.48"/>
</g>
<!-- Node21&#45;&gt;Node5 -->
<g id="edge39" class="edge">
<title>Node21&#45;&gt;Node5</title>
<path fill="none" stroke="midnightblue" d="M632.78,-403.45C649.79,-396.55 670.33,-384.97 680.5,-367 687.29,-355.01 686.73,-348.29 680.5,-336 625.52,-227.62 486.6,-161.13 422.65,-135.32"/>
<polygon fill="midnightblue" stroke="midnightblue" points="423.65,-131.95 413.06,-131.53 421.07,-138.46 423.65,-131.95"/>
</g>
<!-- Node21&#45;&gt;Node9 -->
<g id="edge40" class="edge">
<title>Node21&#45;&gt;Node9</title>
<path fill="none" stroke="midnightblue" d="M602.49,-403.27C591.65,-373.21 551.65,-273.18 483.5,-224 464.76,-210.48 441.32,-199.25 422.53,-191.39"/>
<polygon fill="midnightblue" stroke="midnightblue" points="423.76,-188.11 413.18,-187.59 421.13,-194.59 423.76,-188.11"/>
</g>
<!-- Node21&#45;&gt;Node22 -->
<g id="edge41" class="edge">
<title>Node21&#45;&gt;Node22</title>
<path fill="none" stroke="midnightblue" d="M562.52,-403.48C507.49,-392.56 412.39,-373.7 354.58,-362.23"/>
<polygon fill="midnightblue" stroke="midnightblue" points="355.07,-358.76 344.59,-360.25 353.71,-365.63 355.07,-358.76"/>
</g>
<!-- Node22&#45;&gt;Node9 -->
<g id="edge42" class="edge">
<title>Node22&#45;&gt;Node9</title>
<path fill="none" stroke="midnightblue" d="M306.35,-341.89C308.79,-320.49 317.25,-263.77 341.5,-224 348.58,-212.38 359.46,-201.83 369.08,-193.88"/>
<polygon fill="midnightblue" stroke="midnightblue" points="371.38,-196.52 377.07,-187.59 367.05,-191.02 371.38,-196.52"/>
</g>
<!-- Node22&#45;&gt;Node14 -->
<g id="edge43" class="edge">
<title>Node22&#45;&gt;Node14</title>
<path fill="none" stroke="midnightblue" d="M311.81,-341.82C325.68,-322.76 358.99,-276.95 377.17,-251.96"/>
<polygon fill="midnightblue" stroke="midnightblue" points="380.06,-253.93 383.11,-243.78 374.4,-249.81 380.06,-253.93"/>
</g>
<!-- Node22&#45;&gt;Node16 -->
<g id="edge44" class="edge">
<title>Node22&#45;&gt;Node16</title>
<path fill="none" stroke="midnightblue" d="M327.56,-341.98C353.87,-331.81 398.01,-314.76 427.92,-303.2"/>
<polygon fill="midnightblue" stroke="midnightblue" points="429.41,-306.38 437.48,-299.51 426.89,-299.85 429.41,-306.38"/>
</g>
<!-- Node23&#45;&gt;Node12 -->
<g id="edge47" class="edge">
<title>Node23&#45;&gt;Node12</title>
<path fill="none" stroke="midnightblue" d="M515.62,-627.37C511.74,-609.62 502.81,-568.67 497.56,-544.6"/>
<polygon fill="midnightblue" stroke="midnightblue" points="500.93,-543.62 495.37,-534.59 494.09,-545.11 500.93,-543.62"/>
</g>
<!-- Node24 -->
<g id="node24" class="node">
<title>Node24</title>
<g id="a_node24"><a xlink:href="ipc__iface.html" target="_top" xlink:title="Interface Definition Language.">
<polygon fill="white" stroke="black" points="556.5,-515.5 556.5,-534.5 636.5,-534.5 636.5,-515.5 556.5,-515.5"/>
<text text-anchor="middle" x="596.5" y="-522.5" font-family="Helvetica,sans-Serif" font-size="10.00">cxx/ipc_iface</text>
</a>
</g>
</g>
<!-- Node23&#45;&gt;Node24 -->
<g id="edge48" class="edge">
<title>Node23&#45;&gt;Node24</title>
<path fill="none" stroke="midnightblue" d="M523.7,-627.37C536.74,-609.22 567.2,-566.8 584.3,-542.99"/>
<polygon fill="midnightblue" stroke="midnightblue" points="587.34,-544.76 590.33,-534.59 581.65,-540.67 587.34,-544.76"/>
</g>
<!-- Node26 -->
<g id="node26" class="node">
<title>Node26</title>
<g id="a_node26"><a xlink:href="ipc__string_source.html" target="_top" xlink:title=" ">
<polygon fill="white" stroke="black" points="631.5,-571.5 631.5,-590.5 715.5,-590.5 715.5,-571.5 631.5,-571.5"/>
<text text-anchor="middle" x="673.5" y="-578.5" font-family="Helvetica,sans-Serif" font-size="10.00">cxx/ipc_string</text>
</a>
</g>
</g>
<!-- Node23&#45;&gt;Node26 -->
<g id="edge55" class="edge">
<title>Node23&#45;&gt;Node26</title>
<path fill="none" stroke="midnightblue" d="M542.22,-627.44C568.35,-618.4 609.76,-604.06 639.08,-593.92"/>
<polygon fill="midnightblue" stroke="midnightblue" points="640.59,-597.1 648.9,-590.52 638.3,-590.48 640.59,-597.1"/>
</g>
<!-- Node24&#45;&gt;Node18 -->
<g id="edge54" class="edge">
<title>Node24&#45;&gt;Node18</title>
<path fill="none" stroke="midnightblue" d="M590.56,-515.08C585.52,-507.53 578.16,-496.49 571.99,-487.23"/>
<polygon fill="midnightblue" stroke="midnightblue" points="574.79,-485.13 566.33,-478.75 568.97,-489.01 574.79,-485.13"/>
</g>
<!-- Node24&#45;&gt;Node20 -->
<g id="edge49" class="edge">
<title>Node24&#45;&gt;Node20</title>
<path fill="none" stroke="midnightblue" d="M601.95,-515.35C610.87,-501.79 629.78,-475.37 651.5,-459 670.49,-444.69 694.75,-433.63 714.62,-426.06"/>
<polygon fill="midnightblue" stroke="midnightblue" points="716.09,-429.25 724.27,-422.52 713.68,-422.68 716.09,-429.25"/>
</g>
<!-- Node25 -->
<g id="node25" class="node">
<title>Node25</title>
<g id="a_node25"><a xlink:href="ipc__types.html" target="_top" xlink:title=" ">
<polygon fill="white" stroke="black" points="694,-459.5 694,-478.5 809,-478.5 809,-459.5 694,-459.5"/>
<text text-anchor="middle" x="751.5" y="-466.5" font-family="Helvetica,sans-Serif" font-size="10.00">l4/sys/cxx/ipc_types</text>
</a>
</g>
</g>
<!-- Node24&#45;&gt;Node25 -->
<g id="edge50" class="edge">
<title>Node24&#45;&gt;Node25</title>
<path fill="none" stroke="midnightblue" d="M621.06,-515.44C647.02,-506.4 688.17,-492.06 717.3,-481.92"/>
<polygon fill="midnightblue" stroke="midnightblue" points="718.76,-485.11 727.05,-478.52 716.46,-478.5 718.76,-485.11"/>
</g>
<!-- Node25&#45;&gt;Node19 -->
<g id="edge52" class="edge">
<title>Node25&#45;&gt;Node19</title>
<path fill="none" stroke="midnightblue" d="M764.54,-459.2C776.13,-450.9 792.96,-437.58 804.5,-423 817.13,-407.04 827.19,-385.96 833.43,-371.02"/>
<polygon fill="midnightblue" stroke="midnightblue" points="836.82,-371.97 837.28,-361.39 830.32,-369.37 836.82,-371.97"/>
</g>
<!-- Node25&#45;&gt;Node20 -->
<g id="edge53" class="edge">
<title>Node25&#45;&gt;Node20</title>
<path fill="none" stroke="midnightblue" d="M751.5,-459.08C751.5,-452.01 751.5,-441.86 751.5,-432.99"/>
<polygon fill="midnightblue" stroke="midnightblue" points="755,-432.75 751.5,-422.75 748,-432.75 755,-432.75"/>
</g>
<!-- Node25&#45;&gt;Node21 -->
<g id="edge51" class="edge">
<title>Node25&#45;&gt;Node21</title>
<path fill="none" stroke="midnightblue" d="M728.37,-459.44C704.02,-450.44 665.49,-436.19 638.08,-426.05"/>
<polygon fill="midnightblue" stroke="midnightblue" points="639.12,-422.7 628.53,-422.52 636.69,-429.27 639.12,-422.7"/>
</g>
<!-- Node26&#45;&gt;Node19 -->
<g id="edge56" class="edge">
<title>Node26&#45;&gt;Node19</title>
<path fill="none" stroke="midnightblue" d="M715.55,-579.34C751.86,-576.48 803.27,-566.57 834.5,-535 876.43,-492.61 868.66,-461.76 858.5,-403 856.59,-391.94 852.48,-380.09 848.67,-370.65"/>
<polygon fill="midnightblue" stroke="midnightblue" points="851.78,-369.01 844.63,-361.19 845.34,-371.76 851.78,-369.01"/>
</g>
<!-- Node26&#45;&gt;Node20 -->
<g id="edge57" class="edge">
<title>Node26&#45;&gt;Node20</title>
<path fill="none" stroke="midnightblue" d="M672.02,-571.33C668.9,-550.34 663.63,-495.85 685.5,-459 693.72,-445.14 708.08,-434.6 721.3,-427.21"/>
<polygon fill="midnightblue" stroke="midnightblue" points="722.93,-430.31 730.19,-422.59 719.7,-424.09 722.93,-430.31"/>
</g>
<!-- Node27 -->
<g id="node27" class="node">
<title>Node27</title>
<g id="a_node27"><a xlink:href="ipc__array_source.html" target="_top" xlink:title=" ">
<polygon fill="white" stroke="black" points="763.5,-515.5 763.5,-534.5 825.5,-534.5 825.5,-515.5 763.5,-515.5"/>
<text text-anchor="middle" x="794.5" y="-522.5" font-family="Helvetica,sans-Serif" font-size="10.00">ipc_array</text>
</a>
</g>
</g>
<!-- Node26&#45;&gt;Node27 -->
<g id="edge58" class="edge">
<title>Node26&#45;&gt;Node27</title>
<path fill="none" stroke="midnightblue" d="M692.67,-571.44C712.41,-562.64 743.39,-548.81 765.99,-538.72"/>
<polygon fill="midnightblue" stroke="midnightblue" points="767.71,-541.79 775.42,-534.52 764.86,-535.4 767.71,-541.79"/>
</g>
<!-- Node27&#45;&gt;Node19 -->
<g id="edge59" class="edge">
<title>Node27&#45;&gt;Node19</title>
<path fill="none" stroke="midnightblue" d="M805.29,-515.29C814.63,-507.04 827.53,-493.76 833.5,-479 848.03,-443.11 845.89,-396.76 843.13,-371.31"/>
<polygon fill="midnightblue" stroke="midnightblue" points="846.58,-370.69 841.88,-361.2 839.63,-371.55 846.58,-370.69"/>
</g>
<!-- Node27&#45;&gt;Node20 -->
<g id="edge60" class="edge">
<title>Node27&#45;&gt;Node20</title>
<path fill="none" stroke="midnightblue" d="M802.28,-515.27C812.68,-502.48 828.68,-478.11 818.5,-459 810.95,-444.83 796.74,-434.33 783.34,-427.06"/>
<polygon fill="midnightblue" stroke="midnightblue" points="784.8,-423.87 774.29,-422.53 781.67,-430.13 784.8,-423.87"/>
</g>
<!-- Node27&#45;&gt;Node25 -->
<g id="edge61" class="edge">
<title>Node27&#45;&gt;Node25</title>
<path fill="none" stroke="midnightblue" d="M787.4,-515.08C781.26,-507.38 772.23,-496.03 764.76,-486.65"/>
<polygon fill="midnightblue" stroke="midnightblue" points="767.44,-484.39 758.47,-478.75 761.96,-488.75 767.44,-484.39"/>
</g>
</g>
</svg>
