<?xml version="1.0" encoding="UTF-8" standalone="no"?>
<!DOCTYPE svg PUBLIC "-//W3C//DTD SVG 1.1//EN"
 "http://www.w3.org/Graphics/SVG/1.1/DTD/svg11.dtd">
<!-- Generated by graphviz version 2.43.0 (0)
 -->
<!-- Title: l4/libgfxbitmap/bitmap.h Pages: 1 -->
<svg width="482pt" height="364pt"
 viewBox="0.00 0.00 481.61 364.00" xmlns="http://www.w3.org/2000/svg" xmlns:xlink="http://www.w3.org/1999/xlink">
<g id="graph0" class="graph" transform="scale(1 1) rotate(0) translate(4 360)">
<title>l4/libgfxbitmap/bitmap.h</title>
<polygon fill="white" stroke="transparent" points="-4,4 -4,-360 477.61,-360 477.61,4 -4,4"/>
<!-- Node1 -->
<g id="node1" class="node">
<title>Node1</title>
<g id="a_node1"><a xlink:title="Bitmap renderer header file.">
<polygon fill="#bfbfbf" stroke="black" points="150.11,-336.5 150.11,-355.5 287.11,-355.5 287.11,-336.5 150.11,-336.5"/>
<text text-anchor="middle" x="218.61" y="-343.5" font-family="Helvetica,sans-Serif" font-size="10.00">l4/libgfxbitmap/bitmap.h</text>
</a>
</g>
</g>
<!-- Node2 -->
<g id="node2" class="node">
<title>Node2</title>
<g id="a_node2"><a xlink:href="l4_2sys_2types_8h.html" target="_top" xlink:title="Common L4 ABI Data Types.">
<polygon fill="white" stroke="black" points="153.61,-168.5 153.61,-187.5 237.61,-187.5 237.61,-168.5 153.61,-168.5"/>
<text text-anchor="middle" x="195.61" y="-175.5" font-family="Helvetica,sans-Serif" font-size="10.00">l4/sys/types.h</text>
</a>
</g>
</g>
<!-- Node1&#45;&gt;Node2 -->
<g id="edge1" class="edge">
<title>Node1&#45;&gt;Node2</title>
<path fill="none" stroke="midnightblue" d="M217.37,-336.08C213.75,-309.95 203.12,-233.21 198.18,-197.58"/>
<polygon fill="midnightblue" stroke="midnightblue" points="201.64,-196.99 196.8,-187.57 194.7,-197.95 201.64,-196.99"/>
</g>
<!-- Node9 -->
<g id="node9" class="node">
<title>Node9</title>
<g id="a_node9"><a xlink:href="view_8h.html" target="_top" xlink:title=" ">
<polygon fill="white" stroke="black" points="223.11,-280.5 223.11,-299.5 334.11,-299.5 334.11,-280.5 223.11,-280.5"/>
<text text-anchor="middle" x="278.61" y="-287.5" font-family="Helvetica,sans-Serif" font-size="10.00">l4/re/c/video/view.h</text>
</a>
</g>
</g>
<!-- Node1&#45;&gt;Node9 -->
<g id="edge12" class="edge">
<title>Node1&#45;&gt;Node9</title>
<path fill="none" stroke="midnightblue" d="M228.25,-336.32C237.12,-328.34 250.49,-316.31 261.22,-306.65"/>
<polygon fill="midnightblue" stroke="midnightblue" points="263.7,-309.13 268.79,-299.83 259.02,-303.92 263.7,-309.13"/>
</g>
<!-- Node3 -->
<g id="node3" class="node">
<title>Node3</title>
<g id="a_node3"><a xlink:href="l4_2sys_2l4int_8h.html" target="_top" xlink:title="Fixed sized integer types, generic version.">
<polygon fill="white" stroke="black" points="27.11,-56.5 27.11,-75.5 106.11,-75.5 106.11,-56.5 27.11,-56.5"/>
<text text-anchor="middle" x="66.61" y="-63.5" font-family="Helvetica,sans-Serif" font-size="10.00">l4/sys/l4int.h</text>
</a>
</g>
</g>
<!-- Node2&#45;&gt;Node3 -->
<g id="edge2" class="edge">
<title>Node2&#45;&gt;Node3</title>
<path fill="none" stroke="midnightblue" d="M153.29,-173.06C102.77,-167.39 22.8,-154.97 4.61,-132 -10.45,-112.98 15.69,-93.07 38.52,-80.38"/>
<polygon fill="midnightblue" stroke="midnightblue" points="40.43,-83.33 47.65,-75.57 37.17,-77.13 40.43,-83.33"/>
</g>
<!-- Node4 -->
<g id="node4" class="node">
<title>Node4</title>
<g id="a_node4"><a xlink:href="compiler_8h.html" target="_top" xlink:title="L4 compiler related defines.">
<polygon fill="white" stroke="black" points="247.11,-56.5 247.11,-75.5 346.11,-75.5 346.11,-56.5 247.11,-56.5"/>
<text text-anchor="middle" x="296.61" y="-63.5" font-family="Helvetica,sans-Serif" font-size="10.00">l4/sys/compiler.h</text>
</a>
</g>
</g>
<!-- Node2&#45;&gt;Node4 -->
<g id="edge3" class="edge">
<title>Node2&#45;&gt;Node4</title>
<path fill="none" stroke="midnightblue" d="M203.54,-168.37C220.42,-149.97 260.19,-106.67 281.87,-83.05"/>
<polygon fill="midnightblue" stroke="midnightblue" points="284.54,-85.32 288.72,-75.59 279.38,-80.59 284.54,-85.32"/>
</g>
<!-- Node6 -->
<g id="node6" class="node">
<title>Node6</title>
<g id="a_node6"><a xlink:href="l4_2sys_2consts_8h.html" target="_top" xlink:title="Common constants.">
<polygon fill="white" stroke="black" points="138.11,-112.5 138.11,-131.5 227.11,-131.5 227.11,-112.5 138.11,-112.5"/>
<text text-anchor="middle" x="182.61" y="-119.5" font-family="Helvetica,sans-Serif" font-size="10.00">l4/sys/consts.h</text>
</a>
</g>
</g>
<!-- Node2&#45;&gt;Node6 -->
<g id="edge5" class="edge">
<title>Node2&#45;&gt;Node6</title>
<path fill="none" stroke="midnightblue" d="M193.46,-168.08C191.74,-160.93 189.26,-150.64 187.11,-141.69"/>
<polygon fill="midnightblue" stroke="midnightblue" points="190.46,-140.65 184.72,-131.75 183.65,-142.29 190.46,-140.65"/>
</g>
<!-- Node7 -->
<g id="node7" class="node">
<title>Node7</title>
<g id="a_node7"><a xlink:href="____l4__fpage_8h_source.html" target="_top" xlink:title=" ">
<polygon fill="white" stroke="black" points="283.61,-112.5 283.61,-131.5 393.61,-131.5 393.61,-112.5 283.61,-112.5"/>
<text text-anchor="middle" x="338.61" y="-119.5" font-family="Helvetica,sans-Serif" font-size="10.00">l4/sys/__l4_fpage.h</text>
</a>
</g>
</g>
<!-- Node2&#45;&gt;Node7 -->
<g id="edge8" class="edge">
<title>Node2&#45;&gt;Node7</title>
<path fill="none" stroke="midnightblue" d="M218.27,-168.44C242.01,-159.48 279.52,-145.31 306.35,-135.18"/>
<polygon fill="midnightblue" stroke="midnightblue" points="307.94,-138.32 316.06,-131.52 305.47,-131.77 307.94,-138.32"/>
</g>
<!-- Node8 -->
<g id="node8" class="node">
<title>Node8</title>
<g id="a_node8"><a xlink:href="____timeout_8h_source.html" target="_top" xlink:title=" ">
<polygon fill="white" stroke="black" points="13.61,-112.5 13.61,-131.5 119.61,-131.5 119.61,-112.5 13.61,-112.5"/>
<text text-anchor="middle" x="66.61" y="-119.5" font-family="Helvetica,sans-Serif" font-size="10.00">l4/sys/__timeout.h</text>
</a>
</g>
</g>
<!-- Node2&#45;&gt;Node8 -->
<g id="edge10" class="edge">
<title>Node2&#45;&gt;Node8</title>
<path fill="none" stroke="midnightblue" d="M175.17,-168.44C153.94,-159.56 120.51,-145.56 96.36,-135.45"/>
<polygon fill="midnightblue" stroke="midnightblue" points="97.53,-132.15 86.96,-131.52 94.83,-138.61 97.53,-132.15"/>
</g>
<!-- Node5 -->
<g id="node5" class="node">
<title>Node5</title>
<g id="a_node5"><a xlink:title=" ">
<polygon fill="white" stroke="#bfbfbf" points="250.61,-0.5 250.61,-19.5 342.61,-19.5 342.61,-0.5 250.61,-0.5"/>
<text text-anchor="middle" x="296.61" y="-7.5" font-family="Helvetica,sans-Serif" font-size="10.00">l4/sys/linkage.h</text>
</a>
</g>
</g>
<!-- Node4&#45;&gt;Node5 -->
<g id="edge4" class="edge">
<title>Node4&#45;&gt;Node5</title>
<path fill="none" stroke="midnightblue" d="M296.61,-56.08C296.61,-49.01 296.61,-38.86 296.61,-29.99"/>
<polygon fill="midnightblue" stroke="midnightblue" points="300.11,-29.75 296.61,-19.75 293.11,-29.75 300.11,-29.75"/>
</g>
<!-- Node6&#45;&gt;Node3 -->
<g id="edge7" class="edge">
<title>Node6&#45;&gt;Node3</title>
<path fill="none" stroke="midnightblue" d="M164.23,-112.44C145.39,-103.68 115.88,-89.94 94.23,-79.86"/>
<polygon fill="midnightblue" stroke="midnightblue" points="95.45,-76.56 84.9,-75.52 92.49,-82.91 95.45,-76.56"/>
</g>
<!-- Node6&#45;&gt;Node4 -->
<g id="edge6" class="edge">
<title>Node6&#45;&gt;Node4</title>
<path fill="none" stroke="midnightblue" d="M200.67,-112.44C219.19,-103.68 248.19,-89.94 269.47,-79.86"/>
<polygon fill="midnightblue" stroke="midnightblue" points="271.09,-82.96 278.63,-75.52 268.1,-76.63 271.09,-82.96"/>
</g>
<!-- Node7&#45;&gt;Node4 -->
<g id="edge9" class="edge">
<title>Node7&#45;&gt;Node4</title>
<path fill="none" stroke="midnightblue" d="M331.67,-112.08C325.68,-104.38 316.86,-93.03 309.56,-83.65"/>
<polygon fill="midnightblue" stroke="midnightblue" points="312.32,-81.5 303.42,-75.75 306.79,-85.79 312.32,-81.5"/>
</g>
<!-- Node8&#45;&gt;Node3 -->
<g id="edge11" class="edge">
<title>Node8&#45;&gt;Node3</title>
<path fill="none" stroke="midnightblue" d="M66.61,-112.08C66.61,-105.01 66.61,-94.86 66.61,-85.99"/>
<polygon fill="midnightblue" stroke="midnightblue" points="70.11,-85.75 66.61,-75.75 63.11,-85.75 70.11,-85.75"/>
</g>
<!-- Node9&#45;&gt;Node2 -->
<g id="edge13" class="edge">
<title>Node9&#45;&gt;Node2</title>
<path fill="none" stroke="midnightblue" d="M268.84,-280.27C259.45,-271.61 245.16,-257.67 234.61,-244 223.08,-229.06 212.22,-210.45 204.91,-196.98"/>
<polygon fill="midnightblue" stroke="midnightblue" points="207.83,-195.02 200.05,-187.83 201.65,-198.3 207.83,-195.02"/>
</g>
<!-- Node10 -->
<g id="node10" class="node">
<title>Node10</title>
<g id="a_node10"><a xlink:href="dataspace_8h.html" target="_top" xlink:title="Data space C interface.">
<polygon fill="white" stroke="black" points="243.11,-224.5 243.11,-243.5 352.11,-243.5 352.11,-224.5 243.11,-224.5"/>
<text text-anchor="middle" x="297.61" y="-231.5" font-family="Helvetica,sans-Serif" font-size="10.00">l4/re/c/dataspace.h</text>
</a>
</g>
</g>
<!-- Node9&#45;&gt;Node10 -->
<g id="edge14" class="edge">
<title>Node9&#45;&gt;Node10</title>
<path fill="none" stroke="midnightblue" d="M281.75,-280.08C284.29,-272.85 287.97,-262.41 291.14,-253.4"/>
<polygon fill="midnightblue" stroke="midnightblue" points="294.51,-254.35 294.53,-243.75 287.91,-252.02 294.51,-254.35"/>
</g>
<!-- Node11 -->
<g id="node11" class="node">
<title>Node11</title>
<g id="a_node11"><a xlink:href="colors_8h.html" target="_top" xlink:title=" ">
<polygon fill="white" stroke="black" points="355.61,-168.5 355.61,-187.5 473.61,-187.5 473.61,-168.5 355.61,-168.5"/>
<text text-anchor="middle" x="414.61" y="-175.5" font-family="Helvetica,sans-Serif" font-size="10.00">l4/re/c/video/colors.h</text>
</a>
</g>
</g>
<!-- Node9&#45;&gt;Node11 -->
<g id="edge16" class="edge">
<title>Node9&#45;&gt;Node11</title>
<path fill="none" stroke="midnightblue" d="M299.43,-280.47C317.1,-272.61 342.55,-259.79 361.61,-244 378.35,-230.13 393.59,-210.33 403.39,-196.24"/>
<polygon fill="midnightblue" stroke="midnightblue" points="406.31,-198.16 409,-187.92 400.51,-194.25 406.31,-198.16"/>
</g>
<!-- Node10&#45;&gt;Node2 -->
<g id="edge15" class="edge">
<title>Node10&#45;&gt;Node2</title>
<path fill="none" stroke="midnightblue" d="M281.22,-224.32C264.94,-215.7 239.74,-202.36 220.89,-192.39"/>
<polygon fill="midnightblue" stroke="midnightblue" points="222.43,-189.24 211.96,-187.65 219.16,-195.43 222.43,-189.24"/>
</g>
<!-- Node11&#45;&gt;Node4 -->
<g id="edge17" class="edge">
<title>Node11&#45;&gt;Node4</title>
<path fill="none" stroke="midnightblue" d="M415.43,-168.38C416.24,-154.84 415.82,-128.47 402.61,-112 389.61,-95.79 369.69,-85.32 350.62,-78.61"/>
<polygon fill="midnightblue" stroke="midnightblue" points="351.65,-75.27 341.06,-75.52 349.5,-81.93 351.65,-75.27"/>
</g>
</g>
</svg>
