<?xml version="1.0" encoding="UTF-8" standalone="no"?>
<!DOCTYPE svg PUBLIC "-//W3C//DTD SVG 1.1//EN"
 "http://www.w3.org/Graphics/SVG/1.1/DTD/svg11.dtd">
<!-- Generated by graphviz version 2.43.0 (0)
 -->
<!-- Title: l4/util/bitops.h Pages: 1 -->
<svg width="218pt" height="95pt"
 viewBox="0.00 0.00 217.50 95.00" xmlns="http://www.w3.org/2000/svg" xmlns:xlink="http://www.w3.org/1999/xlink">
<g id="graph0" class="graph" transform="scale(1 1) rotate(0) translate(4 91)">
<title>l4/util/bitops.h</title>
<polygon fill="white" stroke="transparent" points="-4,4 -4,-91 213.5,-91 213.5,4 -4,4"/>
<!-- Node1 -->
<g id="node1" class="node">
<title>Node1</title>
<g id="a_node1"><a xlink:title="bit manipulation functions">
<polygon fill="#bfbfbf" stroke="black" points="60.5,-67.5 60.5,-86.5 146.5,-86.5 146.5,-67.5 60.5,-67.5"/>
<text text-anchor="middle" x="103.5" y="-74.5" font-family="Helvetica,sans-Serif" font-size="10.00">l4/util/bitops.h</text>
</a>
</g>
</g>
<!-- Node2 -->
<g id="node2" class="node">
<title>Node2</title>
<g id="a_node2"><a xlink:href="client_2virtio-block_source.html" target="_top" xlink:title=" ">
<polygon fill="white" stroke="black" points="0,-0.5 0,-30.5 93,-30.5 93,-0.5 0,-0.5"/>
<text text-anchor="start" x="8" y="-18.5" font-family="Helvetica,sans-Serif" font-size="10.00">l4/l4virtio/client</text>
<text text-anchor="middle" x="46.5" y="-7.5" font-family="Helvetica,sans-Serif" font-size="10.00">/virtio&#45;block</text>
</a>
</g>
</g>
<!-- Node1&#45;&gt;Node2 -->
<g id="edge1" class="edge">
<title>Node1&#45;&gt;Node2</title>
<path fill="none" stroke="midnightblue" d="M88.26,-60.09C79.44,-50.88 68.43,-39.39 59.93,-30.52"/>
<polygon fill="midnightblue" stroke="midnightblue" points="85.89,-62.68 95.33,-67.48 90.94,-57.83 85.89,-62.68"/>
</g>
<!-- Node3 -->
<g id="node3" class="node">
<title>Node3</title>
<g id="a_node3"><a xlink:href="splitlog2_8h.html" target="_top" xlink:title="Split a range in log2 aligned and size&#45;aligned chunks.">
<polygon fill="white" stroke="black" points="111.5,-6 111.5,-25 209.5,-25 209.5,-6 111.5,-6"/>
<text text-anchor="middle" x="160.5" y="-13" font-family="Helvetica,sans-Serif" font-size="10.00">l4/util/splitlog2.h</text>
</a>
</g>
</g>
<!-- Node1&#45;&gt;Node3 -->
<g id="edge2" class="edge">
<title>Node1&#45;&gt;Node3</title>
<path fill="none" stroke="midnightblue" d="M118.83,-60C129.62,-48.74 143.64,-34.1 152.35,-25.01"/>
<polygon fill="midnightblue" stroke="midnightblue" points="116.06,-57.83 111.67,-67.48 121.11,-62.68 116.06,-57.83"/>
</g>
</g>
</svg>
