<?xml version="1.0" encoding="UTF-8" standalone="no"?>
<!DOCTYPE svg PUBLIC "-//W3C//DTD SVG 1.1//EN"
 "http://www.w3.org/Graphics/SVG/1.1/DTD/svg11.dtd">
<!-- Generated by graphviz version 2.43.0 (0)
 -->
<!-- Title: l4/util/bitops.h Pages: 1 -->
<svg width="275pt" height="196pt"
 viewBox="0.00 0.00 274.70 196.00" xmlns="http://www.w3.org/2000/svg" xmlns:xlink="http://www.w3.org/1999/xlink">
<g id="graph0" class="graph" transform="scale(1 1) rotate(0) translate(4 192)">
<title>l4/util/bitops.h</title>
<polygon fill="white" stroke="transparent" points="-4,4 -4,-192 270.7,-192 270.7,4 -4,4"/>
<!-- Node1 -->
<g id="node1" class="node">
<title>Node1</title>
<g id="a_node1"><a xlink:title="bit manipulation functions">
<polygon fill="#bfbfbf" stroke="black" points="93.5,-168.5 93.5,-187.5 179.5,-187.5 179.5,-168.5 93.5,-168.5"/>
<text text-anchor="middle" x="136.5" y="-175.5" font-family="Helvetica,sans-Serif" font-size="10.00">l4/util/bitops.h</text>
</a>
</g>
</g>
<!-- Node2 -->
<g id="node2" class="node">
<title>Node2</title>
<g id="a_node2"><a xlink:href="l4_2sys_2l4int_8h.html" target="_top" xlink:title="Fixed sized integer types, generic version.">
<polygon fill="white" stroke="black" points="0,-56.5 0,-75.5 79,-75.5 79,-56.5 0,-56.5"/>
<text text-anchor="middle" x="39.5" y="-63.5" font-family="Helvetica,sans-Serif" font-size="10.00">l4/sys/l4int.h</text>
</a>
</g>
</g>
<!-- Node1&#45;&gt;Node2 -->
<g id="edge1" class="edge">
<title>Node1&#45;&gt;Node2</title>
<path fill="none" stroke="midnightblue" d="M93.29,-171.9C68.11,-166.46 38.3,-155.22 22.5,-132 12.8,-117.74 19.98,-98.27 27.77,-84.36"/>
<polygon fill="midnightblue" stroke="midnightblue" points="30.81,-86.1 33.07,-75.75 24.84,-82.44 30.81,-86.1"/>
</g>
<!-- Node3 -->
<g id="node3" class="node">
<title>Node3</title>
<g id="a_node3"><a xlink:href="compiler_8h.html" target="_top" xlink:title="L4 compiler related defines.">
<polygon fill="white" stroke="black" points="164,-56.5 164,-75.5 263,-75.5 263,-56.5 164,-56.5"/>
<text text-anchor="middle" x="213.5" y="-63.5" font-family="Helvetica,sans-Serif" font-size="10.00">l4/sys/compiler.h</text>
</a>
</g>
</g>
<!-- Node1&#45;&gt;Node3 -->
<g id="edge2" class="edge">
<title>Node1&#45;&gt;Node3</title>
<path fill="none" stroke="midnightblue" d="M179.74,-173.93C208.35,-169.39 243.9,-158.39 262.5,-132 274.95,-114.33 255.03,-94.57 236.97,-81.52"/>
<polygon fill="midnightblue" stroke="midnightblue" points="238.65,-78.43 228.41,-75.7 234.71,-84.22 238.65,-78.43"/>
</g>
<!-- Node5 -->
<g id="node5" class="node">
<title>Node5</title>
<g id="a_node5"><a xlink:title=" ">
<polygon fill="white" stroke="#bfbfbf" points="140,-112.5 140,-131.5 253,-131.5 253,-112.5 140,-112.5"/>
<text text-anchor="middle" x="196.5" y="-119.5" font-family="Helvetica,sans-Serif" font-size="10.00">l4/util/bitops_arch.h</text>
</a>
</g>
</g>
<!-- Node1&#45;&gt;Node5 -->
<g id="edge4" class="edge">
<title>Node1&#45;&gt;Node5</title>
<path fill="none" stroke="midnightblue" d="M146.14,-168.32C155.01,-160.34 168.37,-148.31 179.11,-138.65"/>
<polygon fill="midnightblue" stroke="midnightblue" points="181.59,-141.13 186.68,-131.83 176.91,-135.92 181.59,-141.13"/>
</g>
<!-- Node6 -->
<g id="node6" class="node">
<title>Node6</title>
<g id="a_node6"><a xlink:href="l4_2util_2atomic_8h.html" target="_top" xlink:title="atomic operations header and generic implementations">
<polygon fill="white" stroke="black" points="31.5,-112.5 31.5,-131.5 121.5,-131.5 121.5,-112.5 31.5,-112.5"/>
<text text-anchor="middle" x="76.5" y="-119.5" font-family="Helvetica,sans-Serif" font-size="10.00">l4/util/atomic.h</text>
</a>
</g>
</g>
<!-- Node1&#45;&gt;Node6 -->
<g id="edge5" class="edge">
<title>Node1&#45;&gt;Node6</title>
<path fill="none" stroke="midnightblue" d="M126.86,-168.32C117.99,-160.34 104.63,-148.31 93.89,-138.65"/>
<polygon fill="midnightblue" stroke="midnightblue" points="96.09,-135.92 86.32,-131.83 91.41,-141.13 96.09,-135.92"/>
</g>
<!-- Node4 -->
<g id="node4" class="node">
<title>Node4</title>
<g id="a_node4"><a xlink:title=" ">
<polygon fill="white" stroke="#bfbfbf" points="167.5,-0.5 167.5,-19.5 259.5,-19.5 259.5,-0.5 167.5,-0.5"/>
<text text-anchor="middle" x="213.5" y="-7.5" font-family="Helvetica,sans-Serif" font-size="10.00">l4/sys/linkage.h</text>
</a>
</g>
</g>
<!-- Node3&#45;&gt;Node4 -->
<g id="edge3" class="edge">
<title>Node3&#45;&gt;Node4</title>
<path fill="none" stroke="midnightblue" d="M213.5,-56.08C213.5,-49.01 213.5,-38.86 213.5,-29.99"/>
<polygon fill="midnightblue" stroke="midnightblue" points="217,-29.75 213.5,-19.75 210,-29.75 217,-29.75"/>
</g>
<!-- Node6&#45;&gt;Node2 -->
<g id="edge6" class="edge">
<title>Node6&#45;&gt;Node2</title>
<path fill="none" stroke="midnightblue" d="M70.39,-112.08C65.22,-104.53 57.65,-93.49 51.31,-84.23"/>
<polygon fill="midnightblue" stroke="midnightblue" points="54.04,-82.02 45.5,-75.75 48.26,-85.98 54.04,-82.02"/>
</g>
<!-- Node6&#45;&gt;Node3 -->
<g id="edge7" class="edge">
<title>Node6&#45;&gt;Node3</title>
<path fill="none" stroke="midnightblue" d="M98.21,-112.44C120.85,-103.52 156.57,-89.44 182.25,-79.32"/>
<polygon fill="midnightblue" stroke="midnightblue" points="183.87,-82.44 191.89,-75.52 181.31,-75.93 183.87,-82.44"/>
</g>
</g>
</svg>
