<?xml version="1.0" encoding="UTF-8" standalone="no"?>
<!DOCTYPE svg PUBLIC "-//W3C//DTD SVG 1.1//EN"
 "http://www.w3.org/Graphics/SVG/1.1/DTD/svg11.dtd">
<!-- Generated by graphviz version 2.43.0 (0)
 -->
<!-- Title: l4/cxx/bits/bst_base.h Pages: 1 -->
<svg width="280pt" height="431pt"
 viewBox="0.00 0.00 279.50 431.00" xmlns="http://www.w3.org/2000/svg" xmlns:xlink="http://www.w3.org/1999/xlink">
<g id="graph0" class="graph" transform="scale(1 1) rotate(0) translate(4 427)">
<title>l4/cxx/bits/bst_base.h</title>
<polygon fill="white" stroke="transparent" points="-4,4 -4,-427 275.5,-427 275.5,4 -4,4"/>
<!-- Node1 -->
<g id="node1" class="node">
<title>Node1</title>
<g id="a_node1"><a xlink:title="AVL tree.">
<polygon fill="#bfbfbf" stroke="black" points="70,-403.5 70,-422.5 192,-422.5 192,-403.5 70,-403.5"/>
<text text-anchor="middle" x="131" y="-410.5" font-family="Helvetica,sans-Serif" font-size="10.00">l4/cxx/bits/bst_base.h</text>
</a>
</g>
</g>
<!-- Node2 -->
<g id="node2" class="node">
<title>Node2</title>
<g id="a_node2"><a xlink:href="bst_8h.html" target="_top" xlink:title="AVL tree.">
<polygon fill="white" stroke="black" points="52,-291.5 52,-310.5 146,-310.5 146,-291.5 52,-291.5"/>
<text text-anchor="middle" x="99" y="-298.5" font-family="Helvetica,sans-Serif" font-size="10.00">l4/cxx/bits/bst.h</text>
</a>
</g>
</g>
<!-- Node1&#45;&gt;Node2 -->
<g id="edge1" class="edge">
<title>Node1&#45;&gt;Node2</title>
<path fill="none" stroke="midnightblue" d="M120.36,-394.58C115.87,-386.46 111,-376.52 108,-367 101.84,-347.44 99.89,-323.25 99.28,-310.61"/>
<polygon fill="midnightblue" stroke="midnightblue" points="117.45,-396.53 125.5,-403.41 123.5,-393.01 117.45,-396.53"/>
</g>
<!-- Node9 -->
<g id="node9" class="node">
<title>Node9</title>
<g id="a_node9"><a xlink:href="bst__iter_8h.html" target="_top" xlink:title="AVL tree.">
<polygon fill="white" stroke="black" points="116.5,-347.5 116.5,-366.5 231.5,-366.5 231.5,-347.5 116.5,-347.5"/>
<text text-anchor="middle" x="174" y="-354.5" font-family="Helvetica,sans-Serif" font-size="10.00">l4/cxx/bits/bst_iter.h</text>
</a>
</g>
</g>
<!-- Node1&#45;&gt;Node9 -->
<g id="edge8" class="edge">
<title>Node1&#45;&gt;Node9</title>
<path fill="none" stroke="midnightblue" d="M144.42,-395.14C151.91,-385.74 160.94,-374.4 167.03,-366.75"/>
<polygon fill="midnightblue" stroke="midnightblue" points="141.59,-393.08 138.1,-403.08 147.07,-397.44 141.59,-393.08"/>
</g>
<!-- Node3 -->
<g id="node3" class="node">
<title>Node3</title>
<g id="a_node3"><a xlink:href="avl__tree.html" target="_top" xlink:title="AVL tree.">
<polygon fill="white" stroke="black" points="91.5,-235.5 91.5,-254.5 180.5,-254.5 180.5,-235.5 91.5,-235.5"/>
<text text-anchor="middle" x="136" y="-242.5" font-family="Helvetica,sans-Serif" font-size="10.00">l4/cxx/avl_tree</text>
</a>
</g>
</g>
<!-- Node2&#45;&gt;Node3 -->
<g id="edge2" class="edge">
<title>Node2&#45;&gt;Node3</title>
<path fill="none" stroke="midnightblue" d="M110.95,-282.57C117.31,-273.27 124.87,-262.25 130,-254.75"/>
<polygon fill="midnightblue" stroke="midnightblue" points="107.87,-280.86 105.11,-291.08 113.65,-284.81 107.87,-280.86"/>
</g>
<!-- Node4 -->
<g id="node4" class="node">
<title>Node4</title>
<g id="a_node4"><a xlink:href="name__space__svr_source.html" target="_top" xlink:title=" ">
<polygon fill="white" stroke="black" points="0,-179.5 0,-198.5 142,-198.5 142,-179.5 0,-179.5"/>
<text text-anchor="middle" x="71" y="-186.5" font-family="Helvetica,sans-Serif" font-size="10.00">l4/re/util/name_space_svr</text>
</a>
</g>
</g>
<!-- Node3&#45;&gt;Node4 -->
<g id="edge3" class="edge">
<title>Node3&#45;&gt;Node4</title>
<path fill="none" stroke="midnightblue" d="M117.73,-228.82C106.08,-219.15 91.4,-206.95 81.63,-198.83"/>
<polygon fill="midnightblue" stroke="midnightblue" points="115.63,-231.63 125.56,-235.32 120.1,-226.24 115.63,-231.63"/>
</g>
<!-- Node5 -->
<g id="node5" class="node">
<title>Node5</title>
<g id="a_node5"><a xlink:href="avl__set.html" target="_top" xlink:title="AVL set.">
<polygon fill="white" stroke="black" points="160,-179.5 160,-198.5 244,-198.5 244,-179.5 160,-179.5"/>
<text text-anchor="middle" x="202" y="-186.5" font-family="Helvetica,sans-Serif" font-size="10.00">l4/cxx/avl_set</text>
</a>
</g>
</g>
<!-- Node3&#45;&gt;Node5 -->
<g id="edge4" class="edge">
<title>Node3&#45;&gt;Node5</title>
<path fill="none" stroke="midnightblue" d="M154.55,-228.82C166.38,-219.15 181.29,-206.95 191.2,-198.83"/>
<polygon fill="midnightblue" stroke="midnightblue" points="152.13,-226.28 146.6,-235.32 156.56,-231.7 152.13,-226.28"/>
</g>
<!-- Node6 -->
<g id="node6" class="node">
<title>Node6</title>
<g id="a_node6"><a xlink:href="avl__map.html" target="_top" xlink:title="AVL map.">
<polygon fill="white" stroke="black" points="156.5,-123.5 156.5,-142.5 247.5,-142.5 247.5,-123.5 156.5,-123.5"/>
<text text-anchor="middle" x="202" y="-130.5" font-family="Helvetica,sans-Serif" font-size="10.00">l4/cxx/avl_map</text>
</a>
</g>
</g>
<!-- Node5&#45;&gt;Node6 -->
<g id="edge5" class="edge">
<title>Node5&#45;&gt;Node6</title>
<path fill="none" stroke="midnightblue" d="M202,-168.8C202,-159.91 202,-149.78 202,-142.75"/>
<polygon fill="midnightblue" stroke="midnightblue" points="198.5,-169.08 202,-179.08 205.5,-169.08 198.5,-169.08"/>
</g>
<!-- Node7 -->
<g id="node7" class="node">
<title>Node7</title>
<g id="a_node7"><a xlink:href="region__mapping.html" target="_top" xlink:title="Region handling.">
<polygon fill="white" stroke="black" points="132.5,-67.5 132.5,-86.5 271.5,-86.5 271.5,-67.5 132.5,-67.5"/>
<text text-anchor="middle" x="202" y="-74.5" font-family="Helvetica,sans-Serif" font-size="10.00">l4/re/util/region_mapping</text>
</a>
</g>
</g>
<!-- Node6&#45;&gt;Node7 -->
<g id="edge6" class="edge">
<title>Node6&#45;&gt;Node7</title>
<path fill="none" stroke="midnightblue" d="M202,-112.8C202,-103.91 202,-93.78 202,-86.75"/>
<polygon fill="midnightblue" stroke="midnightblue" points="198.5,-113.08 202,-123.08 205.5,-113.08 198.5,-113.08"/>
</g>
<!-- Node8 -->
<g id="node8" class="node">
<title>Node8</title>
<g id="a_node8"><a xlink:href="region__mapping__svr__2_source.html" target="_top" xlink:title=" ">
<polygon fill="white" stroke="black" points="132.5,-0.5 132.5,-30.5 271.5,-30.5 271.5,-0.5 132.5,-0.5"/>
<text text-anchor="start" x="140.5" y="-18.5" font-family="Helvetica,sans-Serif" font-size="10.00">l4/re/util/region_mapping</text>
<text text-anchor="middle" x="202" y="-7.5" font-family="Helvetica,sans-Serif" font-size="10.00">_svr_2</text>
</a>
</g>
</g>
<!-- Node7&#45;&gt;Node8 -->
<g id="edge7" class="edge">
<title>Node7&#45;&gt;Node8</title>
<path fill="none" stroke="midnightblue" d="M202,-57.23C202,-48.59 202,-38.5 202,-30.52"/>
<polygon fill="midnightblue" stroke="midnightblue" points="198.5,-57.48 202,-67.48 205.5,-57.48 198.5,-57.48"/>
</g>
<!-- Node9&#45;&gt;Node2 -->
<g id="edge10" class="edge">
<title>Node9&#45;&gt;Node2</title>
<path fill="none" stroke="midnightblue" d="M153.69,-341.38C140.14,-331.62 122.76,-319.11 111.27,-310.83"/>
<polygon fill="midnightblue" stroke="midnightblue" points="151.79,-344.32 161.95,-347.32 155.88,-338.64 151.79,-344.32"/>
</g>
<!-- Node9&#45;&gt;Node3 -->
<g id="edge9" class="edge">
<title>Node9&#45;&gt;Node3</title>
<path fill="none" stroke="midnightblue" d="M169.28,-337.78C165.73,-324.65 160.54,-306.58 155,-291 150.39,-278.06 144.01,-263.47 139.94,-254.51"/>
<polygon fill="midnightblue" stroke="midnightblue" points="165.9,-338.71 171.85,-347.49 172.67,-336.92 165.9,-338.71"/>
</g>
</g>
</svg>
