<?xml version="1.0" encoding="UTF-8" standalone="no"?>
<!DOCTYPE svg PUBLIC "-//W3C//DTD SVG 1.1//EN"
 "http://www.w3.org/Graphics/SVG/1.1/DTD/svg11.dtd">
<!-- Generated by graphviz version 2.43.0 (0)
 -->
<!-- Title: l4/cxx/bits/bst_iter.h Pages: 1 -->
<svg width="280pt" height="375pt"
 viewBox="0.00 0.00 279.50 375.00" xmlns="http://www.w3.org/2000/svg" xmlns:xlink="http://www.w3.org/1999/xlink">
<g id="graph0" class="graph" transform="scale(1 1) rotate(0) translate(4 371)">
<title>l4/cxx/bits/bst_iter.h</title>
<polygon fill="white" stroke="transparent" points="-4,4 -4,-371 275.5,-371 275.5,4 -4,4"/>
<!-- Node1 -->
<g id="node1" class="node">
<title>Node1</title>
<g id="a_node1"><a xlink:title="AVL tree.">
<polygon fill="#bfbfbf" stroke="black" points="78.5,-347.5 78.5,-366.5 193.5,-366.5 193.5,-347.5 78.5,-347.5"/>
<text text-anchor="middle" x="136" y="-354.5" font-family="Helvetica,sans-Serif" font-size="10.00">l4/cxx/bits/bst_iter.h</text>
</a>
</g>
</g>
<!-- Node2 -->
<g id="node2" class="node">
<title>Node2</title>
<g id="a_node2"><a xlink:href="avl__tree.html" target="_top" xlink:title="AVL tree.">
<polygon fill="white" stroke="black" points="91.5,-235.5 91.5,-254.5 180.5,-254.5 180.5,-235.5 91.5,-235.5"/>
<text text-anchor="middle" x="136" y="-242.5" font-family="Helvetica,sans-Serif" font-size="10.00">l4/cxx/avl_tree</text>
</a>
</g>
</g>
<!-- Node1&#45;&gt;Node2 -->
<g id="edge1" class="edge">
<title>Node1&#45;&gt;Node2</title>
<path fill="none" stroke="midnightblue" d="M126.41,-338.1C120.61,-325.14 114.89,-307.15 118,-291 120.55,-277.78 126.94,-263.51 131.38,-254.66"/>
<polygon fill="midnightblue" stroke="midnightblue" points="123.36,-339.84 130.91,-347.27 129.65,-336.75 123.36,-339.84"/>
</g>
<!-- Node8 -->
<g id="node8" class="node">
<title>Node8</title>
<g id="a_node8"><a xlink:href="bst_8h.html" target="_top" xlink:title="AVL tree.">
<polygon fill="white" stroke="black" points="127,-291.5 127,-310.5 221,-310.5 221,-291.5 127,-291.5"/>
<text text-anchor="middle" x="174" y="-298.5" font-family="Helvetica,sans-Serif" font-size="10.00">l4/cxx/bits/bst.h</text>
</a>
</g>
</g>
<!-- Node1&#45;&gt;Node8 -->
<g id="edge7" class="edge">
<title>Node1&#45;&gt;Node8</title>
<path fill="none" stroke="midnightblue" d="M148.06,-338.86C154.64,-329.5 162.51,-318.33 167.84,-310.75"/>
<polygon fill="midnightblue" stroke="midnightblue" points="145.17,-336.89 142.27,-347.08 150.89,-340.92 145.17,-336.89"/>
</g>
<!-- Node3 -->
<g id="node3" class="node">
<title>Node3</title>
<g id="a_node3"><a xlink:href="name__space__svr_source.html" target="_top" xlink:title=" ">
<polygon fill="white" stroke="black" points="0,-179.5 0,-198.5 142,-198.5 142,-179.5 0,-179.5"/>
<text text-anchor="middle" x="71" y="-186.5" font-family="Helvetica,sans-Serif" font-size="10.00">l4/re/util/name_space_svr</text>
</a>
</g>
</g>
<!-- Node2&#45;&gt;Node3 -->
<g id="edge2" class="edge">
<title>Node2&#45;&gt;Node3</title>
<path fill="none" stroke="midnightblue" d="M117.73,-228.82C106.08,-219.15 91.4,-206.95 81.63,-198.83"/>
<polygon fill="midnightblue" stroke="midnightblue" points="115.63,-231.63 125.56,-235.32 120.1,-226.24 115.63,-231.63"/>
</g>
<!-- Node4 -->
<g id="node4" class="node">
<title>Node4</title>
<g id="a_node4"><a xlink:href="avl__set.html" target="_top" xlink:title="AVL set.">
<polygon fill="white" stroke="black" points="160,-179.5 160,-198.5 244,-198.5 244,-179.5 160,-179.5"/>
<text text-anchor="middle" x="202" y="-186.5" font-family="Helvetica,sans-Serif" font-size="10.00">l4/cxx/avl_set</text>
</a>
</g>
</g>
<!-- Node2&#45;&gt;Node4 -->
<g id="edge3" class="edge">
<title>Node2&#45;&gt;Node4</title>
<path fill="none" stroke="midnightblue" d="M154.55,-228.82C166.38,-219.15 181.29,-206.95 191.2,-198.83"/>
<polygon fill="midnightblue" stroke="midnightblue" points="152.13,-226.28 146.6,-235.32 156.56,-231.7 152.13,-226.28"/>
</g>
<!-- Node5 -->
<g id="node5" class="node">
<title>Node5</title>
<g id="a_node5"><a xlink:href="avl__map.html" target="_top" xlink:title="AVL map.">
<polygon fill="white" stroke="black" points="156.5,-123.5 156.5,-142.5 247.5,-142.5 247.5,-123.5 156.5,-123.5"/>
<text text-anchor="middle" x="202" y="-130.5" font-family="Helvetica,sans-Serif" font-size="10.00">l4/cxx/avl_map</text>
</a>
</g>
</g>
<!-- Node4&#45;&gt;Node5 -->
<g id="edge4" class="edge">
<title>Node4&#45;&gt;Node5</title>
<path fill="none" stroke="midnightblue" d="M202,-168.8C202,-159.91 202,-149.78 202,-142.75"/>
<polygon fill="midnightblue" stroke="midnightblue" points="198.5,-169.08 202,-179.08 205.5,-169.08 198.5,-169.08"/>
</g>
<!-- Node6 -->
<g id="node6" class="node">
<title>Node6</title>
<g id="a_node6"><a xlink:href="region__mapping.html" target="_top" xlink:title="Region handling.">
<polygon fill="white" stroke="black" points="132.5,-67.5 132.5,-86.5 271.5,-86.5 271.5,-67.5 132.5,-67.5"/>
<text text-anchor="middle" x="202" y="-74.5" font-family="Helvetica,sans-Serif" font-size="10.00">l4/re/util/region_mapping</text>
</a>
</g>
</g>
<!-- Node5&#45;&gt;Node6 -->
<g id="edge5" class="edge">
<title>Node5&#45;&gt;Node6</title>
<path fill="none" stroke="midnightblue" d="M202,-112.8C202,-103.91 202,-93.78 202,-86.75"/>
<polygon fill="midnightblue" stroke="midnightblue" points="198.5,-113.08 202,-123.08 205.5,-113.08 198.5,-113.08"/>
</g>
<!-- Node7 -->
<g id="node7" class="node">
<title>Node7</title>
<g id="a_node7"><a xlink:href="region__mapping__svr__2_source.html" target="_top" xlink:title=" ">
<polygon fill="white" stroke="black" points="132.5,-0.5 132.5,-30.5 271.5,-30.5 271.5,-0.5 132.5,-0.5"/>
<text text-anchor="start" x="140.5" y="-18.5" font-family="Helvetica,sans-Serif" font-size="10.00">l4/re/util/region_mapping</text>
<text text-anchor="middle" x="202" y="-7.5" font-family="Helvetica,sans-Serif" font-size="10.00">_svr_2</text>
</a>
</g>
</g>
<!-- Node6&#45;&gt;Node7 -->
<g id="edge6" class="edge">
<title>Node6&#45;&gt;Node7</title>
<path fill="none" stroke="midnightblue" d="M202,-57.23C202,-48.59 202,-38.5 202,-30.52"/>
<polygon fill="midnightblue" stroke="midnightblue" points="198.5,-57.48 202,-67.48 205.5,-57.48 198.5,-57.48"/>
</g>
<!-- Node8&#45;&gt;Node2 -->
<g id="edge8" class="edge">
<title>Node8&#45;&gt;Node2</title>
<path fill="none" stroke="midnightblue" d="M161.94,-282.86C155.36,-273.5 147.49,-262.33 142.16,-254.75"/>
<polygon fill="midnightblue" stroke="midnightblue" points="159.11,-284.92 167.73,-291.08 164.83,-280.89 159.11,-284.92"/>
</g>
</g>
</svg>
