<?xml version="1.0" encoding="UTF-8" standalone="no"?>
<!DOCTYPE svg PUBLIC "-//W3C//DTD SVG 1.1//EN"
 "http://www.w3.org/Graphics/SVG/1.1/DTD/svg11.dtd">
<!-- Generated by graphviz version 2.43.0 (0)
 -->
<!-- Title: l4/cxx/bits/bst.h Pages: 1 -->
<svg width="215pt" height="140pt"
 viewBox="0.00 0.00 214.50 140.00" xmlns="http://www.w3.org/2000/svg" xmlns:xlink="http://www.w3.org/1999/xlink">
<g id="graph0" class="graph" transform="scale(1 1) rotate(0) translate(4 136)">
<title>l4/cxx/bits/bst.h</title>
<polygon fill="white" stroke="transparent" points="-4,4 -4,-136 210.5,-136 210.5,4 -4,4"/>
<!-- Node1 -->
<g id="node1" class="node">
<title>Node1</title>
<g id="a_node1"><a xlink:title="AVL tree.">
<polygon fill="#bfbfbf" stroke="black" points="69.5,-112.5 69.5,-131.5 163.5,-131.5 163.5,-112.5 69.5,-112.5"/>
<text text-anchor="middle" x="116.5" y="-119.5" font-family="Helvetica,sans-Serif" font-size="10.00">l4/cxx/bits/bst.h</text>
</a>
</g>
</g>
<!-- Node2 -->
<g id="node2" class="node">
<title>Node2</title>
<g id="a_node2"><a xlink:href="type__traits_source.html" target="_top" xlink:title=" ">
<polygon fill="white" stroke="black" points="10.5,-56.5 10.5,-75.5 88.5,-75.5 88.5,-56.5 10.5,-56.5"/>
<text text-anchor="middle" x="49.5" y="-63.5" font-family="Helvetica,sans-Serif" font-size="10.00">../type_traits</text>
</a>
</g>
</g>
<!-- Node1&#45;&gt;Node2 -->
<g id="edge1" class="edge">
<title>Node1&#45;&gt;Node2</title>
<path fill="none" stroke="midnightblue" d="M105.74,-112.32C95.73,-104.26 80.61,-92.08 68.57,-82.37"/>
<polygon fill="midnightblue" stroke="midnightblue" points="70.44,-79.38 60.46,-75.83 66.05,-84.83 70.44,-79.38"/>
</g>
<!-- Node4 -->
<g id="node4" class="node">
<title>Node4</title>
<g id="a_node4"><a xlink:href="bst__base_8h.html" target="_top" xlink:title="AVL tree.">
<polygon fill="white" stroke="black" points="129,-0.5 129,-19.5 198,-19.5 198,-0.5 129,-0.5"/>
<text text-anchor="middle" x="163.5" y="-7.5" font-family="Helvetica,sans-Serif" font-size="10.00">bst_base.h</text>
</a>
</g>
</g>
<!-- Node1&#45;&gt;Node4 -->
<g id="edge3" class="edge">
<title>Node1&#45;&gt;Node4</title>
<path fill="none" stroke="midnightblue" d="M118.25,-112.32C120.98,-99.61 126.86,-75.32 135.5,-56 139.87,-46.24 146.04,-36.06 151.48,-27.86"/>
<polygon fill="midnightblue" stroke="midnightblue" points="154.4,-29.79 157.18,-19.57 148.63,-25.83 154.4,-29.79"/>
</g>
<!-- Node5 -->
<g id="node5" class="node">
<title>Node5</title>
<g id="a_node5"><a xlink:href="bst__iter_8h.html" target="_top" xlink:title="AVL tree.">
<polygon fill="white" stroke="black" points="144.5,-56.5 144.5,-75.5 206.5,-75.5 206.5,-56.5 144.5,-56.5"/>
<text text-anchor="middle" x="175.5" y="-63.5" font-family="Helvetica,sans-Serif" font-size="10.00">bst_iter.h</text>
</a>
</g>
</g>
<!-- Node1&#45;&gt;Node5 -->
<g id="edge4" class="edge">
<title>Node1&#45;&gt;Node5</title>
<path fill="none" stroke="midnightblue" d="M125.98,-112.32C134.7,-104.34 147.84,-92.31 158.4,-82.65"/>
<polygon fill="midnightblue" stroke="midnightblue" points="160.83,-85.17 165.85,-75.83 156.11,-80 160.83,-85.17"/>
</g>
<!-- Node3 -->
<g id="node3" class="node">
<title>Node3</title>
<g id="a_node3"><a xlink:href="type__traits_8h_source.html" target="_top" xlink:title=" ">
<polygon fill="white" stroke="black" points="0,-0.5 0,-19.5 99,-19.5 99,-0.5 0,-0.5"/>
<text text-anchor="middle" x="49.5" y="-7.5" font-family="Helvetica,sans-Serif" font-size="10.00">bits/type_traits.h</text>
</a>
</g>
</g>
<!-- Node2&#45;&gt;Node3 -->
<g id="edge2" class="edge">
<title>Node2&#45;&gt;Node3</title>
<path fill="none" stroke="midnightblue" d="M49.5,-56.08C49.5,-49.01 49.5,-38.86 49.5,-29.99"/>
<polygon fill="midnightblue" stroke="midnightblue" points="53,-29.75 49.5,-19.75 46,-29.75 53,-29.75"/>
</g>
<!-- Node5&#45;&gt;Node4 -->
<g id="edge5" class="edge">
<title>Node5&#45;&gt;Node4</title>
<path fill="none" stroke="midnightblue" d="M173.52,-56.08C171.93,-48.93 169.64,-38.64 167.65,-29.69"/>
<polygon fill="midnightblue" stroke="midnightblue" points="171.03,-28.75 165.44,-19.75 164.2,-30.27 171.03,-28.75"/>
</g>
</g>
</svg>
