<?xml version="1.0" encoding="UTF-8" standalone="no"?>
<!DOCTYPE svg PUBLIC "-//W3C//DTD SVG 1.1//EN"
 "http://www.w3.org/Graphics/SVG/1.1/DTD/svg11.dtd">
<!-- Generated by graphviz version 2.43.0 (0)
 -->
<!-- Title: l4/re/c/event.h Pages: 1 -->
<svg width="499pt" height="308pt"
 viewBox="0.00 0.00 499.28 308.00" xmlns="http://www.w3.org/2000/svg" xmlns:xlink="http://www.w3.org/1999/xlink">
<g id="graph0" class="graph" transform="scale(1 1) rotate(0) translate(4 304)">
<title>l4/re/c/event.h</title>
<polygon fill="white" stroke="transparent" points="-4,4 -4,-304 495.28,-304 495.28,4 -4,4"/>
<!-- Node1 -->
<g id="node1" class="node">
<title>Node1</title>
<g id="a_node1"><a xlink:title="Event C interface.">
<polygon fill="#bfbfbf" stroke="black" points="261.28,-280.5 261.28,-299.5 347.28,-299.5 347.28,-280.5 261.28,-280.5"/>
<text text-anchor="middle" x="304.28" y="-287.5" font-family="Helvetica,sans-Serif" font-size="10.00">l4/re/c/event.h</text>
</a>
</g>
</g>
<!-- Node2 -->
<g id="node2" class="node">
<title>Node2</title>
<g id="a_node2"><a xlink:href="l4_2sys_2types_8h.html" target="_top" xlink:title="Common L4 ABI Data Types.">
<polygon fill="white" stroke="black" points="179.28,-168.5 179.28,-187.5 263.28,-187.5 263.28,-168.5 179.28,-168.5"/>
<text text-anchor="middle" x="221.28" y="-175.5" font-family="Helvetica,sans-Serif" font-size="10.00">l4/sys/types.h</text>
</a>
</g>
</g>
<!-- Node1&#45;&gt;Node2 -->
<g id="edge1" class="edge">
<title>Node1&#45;&gt;Node2</title>
<path fill="none" stroke="midnightblue" d="M303.38,-280.22C301.65,-266.93 296.85,-241.43 284.28,-224 274.92,-211.01 260.64,-200.37 248.03,-192.7"/>
<polygon fill="midnightblue" stroke="midnightblue" points="249.66,-189.6 239.25,-187.65 246.17,-195.67 249.66,-189.6"/>
</g>
<!-- Node9 -->
<g id="node9" class="node">
<title>Node9</title>
<g id="a_node9"><a xlink:href="dataspace_8h.html" target="_top" xlink:title="Data space C interface.">
<polygon fill="white" stroke="black" points="166.78,-224.5 166.78,-243.5 275.78,-243.5 275.78,-224.5 166.78,-224.5"/>
<text text-anchor="middle" x="221.28" y="-231.5" font-family="Helvetica,sans-Serif" font-size="10.00">l4/re/c/dataspace.h</text>
</a>
</g>
</g>
<!-- Node1&#45;&gt;Node9 -->
<g id="edge12" class="edge">
<title>Node1&#45;&gt;Node9</title>
<path fill="none" stroke="midnightblue" d="M290.95,-280.32C278.12,-271.98 258.5,-259.21 243.34,-249.35"/>
<polygon fill="midnightblue" stroke="midnightblue" points="244.87,-246.17 234.58,-243.65 241.06,-252.04 244.87,-246.17"/>
</g>
<!-- Node10 -->
<g id="node10" class="node">
<title>Node10</title>
<g id="a_node10"><a xlink:href="event_8h.html" target="_top" xlink:title="Events.">
<polygon fill="white" stroke="black" points="413.28,-112.5 413.28,-131.5 491.28,-131.5 491.28,-112.5 413.28,-112.5"/>
<text text-anchor="middle" x="452.28" y="-119.5" font-family="Helvetica,sans-Serif" font-size="10.00">l4/re/event.h</text>
</a>
</g>
</g>
<!-- Node1&#45;&gt;Node10 -->
<g id="edge14" class="edge">
<title>Node1&#45;&gt;Node10</title>
<path fill="none" stroke="midnightblue" d="M312.24,-280.08C336.04,-253.38 406.93,-173.87 437.73,-139.32"/>
<polygon fill="midnightblue" stroke="midnightblue" points="440.6,-141.36 444.64,-131.57 435.38,-136.7 440.6,-141.36"/>
</g>
<!-- Node3 -->
<g id="node3" class="node">
<title>Node3</title>
<g id="a_node3"><a xlink:href="l4_2sys_2l4int_8h.html" target="_top" xlink:title="Fixed sized integer types, generic version.">
<polygon fill="white" stroke="black" points="86.78,-56.5 86.78,-75.5 165.78,-75.5 165.78,-56.5 86.78,-56.5"/>
<text text-anchor="middle" x="126.28" y="-63.5" font-family="Helvetica,sans-Serif" font-size="10.00">l4/sys/l4int.h</text>
</a>
</g>
</g>
<!-- Node2&#45;&gt;Node3 -->
<g id="edge2" class="edge">
<title>Node2&#45;&gt;Node3</title>
<path fill="none" stroke="midnightblue" d="M179.05,-174.31C122.73,-169.74 27.62,-158.27 6.28,-132 -17.35,-102.91 34.04,-84.95 76.76,-75.48"/>
<polygon fill="midnightblue" stroke="midnightblue" points="77.48,-78.9 86.54,-73.42 76.04,-72.05 77.48,-78.9"/>
</g>
<!-- Node4 -->
<g id="node4" class="node">
<title>Node4</title>
<g id="a_node4"><a xlink:href="compiler_8h.html" target="_top" xlink:title="L4 compiler related defines.">
<polygon fill="white" stroke="black" points="293.78,-56.5 293.78,-75.5 392.78,-75.5 392.78,-56.5 293.78,-56.5"/>
<text text-anchor="middle" x="343.28" y="-63.5" font-family="Helvetica,sans-Serif" font-size="10.00">l4/sys/compiler.h</text>
</a>
</g>
</g>
<!-- Node2&#45;&gt;Node4 -->
<g id="edge3" class="edge">
<title>Node2&#45;&gt;Node4</title>
<path fill="none" stroke="midnightblue" d="M263.55,-176.59C297.38,-173.74 342.91,-163.73 366.28,-132 376.88,-117.61 367.3,-97.9 357.46,-83.96"/>
<polygon fill="midnightblue" stroke="midnightblue" points="360.03,-81.57 351.18,-75.76 354.48,-85.82 360.03,-81.57"/>
</g>
<!-- Node6 -->
<g id="node6" class="node">
<title>Node6</title>
<g id="a_node6"><a xlink:href="l4_2sys_2consts_8h.html" target="_top" xlink:title="Common constants.">
<polygon fill="white" stroke="black" points="139.78,-112.5 139.78,-131.5 228.78,-131.5 228.78,-112.5 139.78,-112.5"/>
<text text-anchor="middle" x="184.28" y="-119.5" font-family="Helvetica,sans-Serif" font-size="10.00">l4/sys/consts.h</text>
</a>
</g>
</g>
<!-- Node2&#45;&gt;Node6 -->
<g id="edge5" class="edge">
<title>Node2&#45;&gt;Node6</title>
<path fill="none" stroke="midnightblue" d="M215.17,-168.08C210,-160.53 202.44,-149.49 196.09,-140.23"/>
<polygon fill="midnightblue" stroke="midnightblue" points="198.82,-138.02 190.28,-131.75 193.04,-141.98 198.82,-138.02"/>
</g>
<!-- Node7 -->
<g id="node7" class="node">
<title>Node7</title>
<g id="a_node7"><a xlink:href="____l4__fpage_8h_source.html" target="_top" xlink:title=" ">
<polygon fill="white" stroke="black" points="247.28,-112.5 247.28,-131.5 357.28,-131.5 357.28,-112.5 247.28,-112.5"/>
<text text-anchor="middle" x="302.28" y="-119.5" font-family="Helvetica,sans-Serif" font-size="10.00">l4/sys/__l4_fpage.h</text>
</a>
</g>
</g>
<!-- Node2&#45;&gt;Node7 -->
<g id="edge8" class="edge">
<title>Node2&#45;&gt;Node7</title>
<path fill="none" stroke="midnightblue" d="M234.3,-168.32C246.81,-159.98 265.96,-147.21 280.75,-137.35"/>
<polygon fill="midnightblue" stroke="midnightblue" points="282.92,-140.11 289.3,-131.65 279.04,-134.29 282.92,-140.11"/>
</g>
<!-- Node8 -->
<g id="node8" class="node">
<title>Node8</title>
<g id="a_node8"><a xlink:href="____timeout_8h_source.html" target="_top" xlink:title=" ">
<polygon fill="white" stroke="black" points="15.28,-112.5 15.28,-131.5 121.28,-131.5 121.28,-112.5 15.28,-112.5"/>
<text text-anchor="middle" x="68.28" y="-119.5" font-family="Helvetica,sans-Serif" font-size="10.00">l4/sys/__timeout.h</text>
</a>
</g>
</g>
<!-- Node2&#45;&gt;Node8 -->
<g id="edge10" class="edge">
<title>Node2&#45;&gt;Node8</title>
<path fill="none" stroke="midnightblue" d="M197.04,-168.44C171.41,-159.4 130.8,-145.06 102.04,-134.92"/>
<polygon fill="midnightblue" stroke="midnightblue" points="103.01,-131.54 92.41,-131.52 100.68,-138.15 103.01,-131.54"/>
</g>
<!-- Node5 -->
<g id="node5" class="node">
<title>Node5</title>
<g id="a_node5"><a xlink:title=" ">
<polygon fill="white" stroke="#bfbfbf" points="297.28,-0.5 297.28,-19.5 389.28,-19.5 389.28,-0.5 297.28,-0.5"/>
<text text-anchor="middle" x="343.28" y="-7.5" font-family="Helvetica,sans-Serif" font-size="10.00">l4/sys/linkage.h</text>
</a>
</g>
</g>
<!-- Node4&#45;&gt;Node5 -->
<g id="edge4" class="edge">
<title>Node4&#45;&gt;Node5</title>
<path fill="none" stroke="midnightblue" d="M343.28,-56.08C343.28,-49.01 343.28,-38.86 343.28,-29.99"/>
<polygon fill="midnightblue" stroke="midnightblue" points="346.78,-29.75 343.28,-19.75 339.78,-29.75 346.78,-29.75"/>
</g>
<!-- Node6&#45;&gt;Node3 -->
<g id="edge7" class="edge">
<title>Node6&#45;&gt;Node3</title>
<path fill="none" stroke="midnightblue" d="M174.96,-112.32C166.39,-104.34 153.47,-92.31 143.09,-82.65"/>
<polygon fill="midnightblue" stroke="midnightblue" points="145.47,-80.09 135.77,-75.83 140.7,-85.21 145.47,-80.09"/>
</g>
<!-- Node6&#45;&gt;Node4 -->
<g id="edge6" class="edge">
<title>Node6&#45;&gt;Node4</title>
<path fill="none" stroke="midnightblue" d="M209.48,-112.44C236.22,-103.36 278.68,-88.94 308.59,-78.78"/>
<polygon fill="midnightblue" stroke="midnightblue" points="309.86,-82.05 318.21,-75.52 307.61,-75.42 309.86,-82.05"/>
</g>
<!-- Node7&#45;&gt;Node4 -->
<g id="edge9" class="edge">
<title>Node7&#45;&gt;Node4</title>
<path fill="none" stroke="midnightblue" d="M309.05,-112.08C314.84,-104.46 323.34,-93.26 330.42,-83.94"/>
<polygon fill="midnightblue" stroke="midnightblue" points="333.38,-85.83 336.64,-75.75 327.8,-81.6 333.38,-85.83"/>
</g>
<!-- Node8&#45;&gt;Node3 -->
<g id="edge11" class="edge">
<title>Node8&#45;&gt;Node3</title>
<path fill="none" stroke="midnightblue" d="M77.6,-112.32C86.17,-104.34 99.09,-92.31 109.47,-82.65"/>
<polygon fill="midnightblue" stroke="midnightblue" points="111.86,-85.21 116.79,-75.83 107.09,-80.09 111.86,-85.21"/>
</g>
<!-- Node9&#45;&gt;Node2 -->
<g id="edge13" class="edge">
<title>Node9&#45;&gt;Node2</title>
<path fill="none" stroke="midnightblue" d="M221.28,-224.08C221.28,-217.01 221.28,-206.86 221.28,-197.99"/>
<polygon fill="midnightblue" stroke="midnightblue" points="224.78,-197.75 221.28,-187.75 217.78,-197.75 224.78,-197.75"/>
</g>
<!-- Node10&#45;&gt;Node3 -->
<g id="edge16" class="edge">
<title>Node10&#45;&gt;Node3</title>
<path fill="none" stroke="midnightblue" d="M412.96,-114.49C353.56,-104.65 241.01,-86 176.01,-75.24"/>
<polygon fill="midnightblue" stroke="midnightblue" points="176.44,-71.76 166,-73.58 175.29,-78.67 176.44,-71.76"/>
</g>
<!-- Node10&#45;&gt;Node4 -->
<g id="edge15" class="edge">
<title>Node10&#45;&gt;Node4</title>
<path fill="none" stroke="midnightblue" d="M434.77,-112.32C417.21,-103.62 389.95,-90.12 369.75,-80.11"/>
<polygon fill="midnightblue" stroke="midnightblue" points="371.27,-76.96 360.75,-75.65 368.16,-83.23 371.27,-76.96"/>
</g>
</g>
</svg>
