<?xml version="1.0" encoding="UTF-8" standalone="no"?>
<!DOCTYPE svg PUBLIC "-//W3C//DTD SVG 1.1//EN"
 "http://www.w3.org/Graphics/SVG/1.1/DTD/svg11.dtd">
<!-- Generated by graphviz version 2.43.0 (0)
 -->
<!-- Title: l4/re/util/cap_alloc_impl.h Pages: 1 -->
<svg width="1500pt" height="901pt"
 viewBox="0.00 0.00 1499.76 901.00" xmlns="http://www.w3.org/2000/svg" xmlns:xlink="http://www.w3.org/1999/xlink">
<g id="graph0" class="graph" transform="scale(1 1) rotate(0) translate(4 897)">
<title>l4/re/util/cap_alloc_impl.h</title>
<polygon fill="white" stroke="transparent" points="-4,4 -4,-897 1495.76,-897 1495.76,4 -4,4"/>
<!-- Node1 -->
<g id="node1" class="node">
<title>Node1</title>
<g id="a_node1"><a xlink:title="Capability allocator implementation.">
<polygon fill="#bfbfbf" stroke="black" points="193.74,-862.5 193.74,-892.5 299.74,-892.5 299.74,-862.5 193.74,-862.5"/>
<text text-anchor="start" x="201.74" y="-880.5" font-family="Helvetica,sans-Serif" font-size="10.00">l4/re/util/cap_alloc</text>
<text text-anchor="middle" x="246.74" y="-869.5" font-family="Helvetica,sans-Serif" font-size="10.00">_impl.h</text>
</a>
</g>
</g>
<!-- Node2 -->
<g id="node2" class="node">
<title>Node2</title>
<g id="a_node2"><a xlink:href="counting__cap__alloc.html" target="_top" xlink:title="Reference&#45;counting capability allocator.">
<polygon fill="white" stroke="black" points="195.74,-795.5 195.74,-825.5 297.74,-825.5 297.74,-795.5 195.74,-795.5"/>
<text text-anchor="start" x="203.74" y="-813.5" font-family="Helvetica,sans-Serif" font-size="10.00">l4/re/util/counting</text>
<text text-anchor="middle" x="246.74" y="-802.5" font-family="Helvetica,sans-Serif" font-size="10.00">_cap_alloc</text>
</a>
</g>
</g>
<!-- Node1&#45;&gt;Node2 -->
<g id="edge1" class="edge">
<title>Node1&#45;&gt;Node2</title>
<path fill="none" stroke="midnightblue" d="M246.74,-862.4C246.74,-854.64 246.74,-844.81 246.74,-835.86"/>
<polygon fill="midnightblue" stroke="midnightblue" points="250.24,-835.58 246.74,-825.58 243.24,-835.58 250.24,-835.58"/>
</g>
<!-- Node3 -->
<g id="node3" class="node">
<title>Node3</title>
<g id="a_node3"><a xlink:href="task.html" target="_top" xlink:title="Common task related definitions.">
<polygon fill="white" stroke="black" points="212.24,-739.5 212.24,-758.5 281.24,-758.5 281.24,-739.5 212.24,-739.5"/>
<text text-anchor="middle" x="246.74" y="-746.5" font-family="Helvetica,sans-Serif" font-size="10.00">l4/sys/task</text>
</a>
</g>
</g>
<!-- Node2&#45;&gt;Node3 -->
<g id="edge2" class="edge">
<title>Node2&#45;&gt;Node3</title>
<path fill="none" stroke="midnightblue" d="M246.74,-795.4C246.74,-787.47 246.74,-777.46 246.74,-768.86"/>
<polygon fill="midnightblue" stroke="midnightblue" points="250.24,-768.66 246.74,-758.66 243.24,-768.66 250.24,-768.66"/>
</g>
<!-- Node28 -->
<g id="node28" class="node">
<title>Node28</title>
<g id="a_node28"><a xlink:href="sys_2assert_8h.html" target="_top" xlink:title="Low&#45;level assert implementation.">
<polygon fill="white" stroke="black" points="69.24,-403.5 69.24,-422.5 156.24,-422.5 156.24,-403.5 69.24,-403.5"/>
<text text-anchor="middle" x="112.74" y="-410.5" font-family="Helvetica,sans-Serif" font-size="10.00">l4/sys/assert.h</text>
</a>
</g>
</g>
<!-- Node2&#45;&gt;Node28 -->
<g id="edge63" class="edge">
<title>Node2&#45;&gt;Node28</title>
<path fill="none" stroke="midnightblue" d="M226.36,-795.27C200.93,-775.66 160.74,-737.75 160.74,-694 160.74,-694 160.74,-694 160.74,-524 160.74,-488.58 139.58,-451.71 125.36,-430.92"/>
<polygon fill="midnightblue" stroke="midnightblue" points="128.06,-428.68 119.41,-422.56 122.36,-432.74 128.06,-428.68"/>
</g>
<!-- Node31 -->
<g id="node31" class="node">
<title>Node31</title>
<g id="a_node31"><a xlink:href="re_2consts.html" target="_top" xlink:title="Constants.">
<polygon fill="white" stroke="black" points="857.24,-739.5 857.24,-758.5 930.24,-758.5 930.24,-739.5 857.24,-739.5"/>
<text text-anchor="middle" x="893.74" y="-746.5" font-family="Helvetica,sans-Serif" font-size="10.00">l4/re/consts</text>
</a>
</g>
</g>
<!-- Node2&#45;&gt;Node31 -->
<g id="edge71" class="edge">
<title>Node2&#45;&gt;Node31</title>
<path fill="none" stroke="midnightblue" d="M297.78,-804.81C420.16,-793.55 728.87,-765.16 846.88,-754.31"/>
<polygon fill="midnightblue" stroke="midnightblue" points="847.39,-757.78 857.03,-753.38 846.75,-750.81 847.39,-757.78"/>
</g>
<!-- Node4 -->
<g id="node4" class="node">
<title>Node4</title>
<g id="a_node4"><a xlink:href="l4_2sys_2task_8h.html" target="_top" xlink:title="Common task related definitions.">
<polygon fill="white" stroke="black" points="234.74,-342 234.74,-361 312.74,-361 312.74,-342 234.74,-342"/>
<text text-anchor="middle" x="273.74" y="-349" font-family="Helvetica,sans-Serif" font-size="10.00">l4/sys/task.h</text>
</a>
</g>
</g>
<!-- Node3&#45;&gt;Node4 -->
<g id="edge3" class="edge">
<title>Node3&#45;&gt;Node4</title>
<path fill="none" stroke="midnightblue" d="M243.5,-739.3C236.95,-720.89 222.74,-676.51 222.74,-638 222.74,-638 222.74,-638 222.74,-468 222.74,-430.22 245.86,-390.95 260.97,-369.33"/>
<polygon fill="midnightblue" stroke="midnightblue" points="263.83,-371.35 266.86,-361.2 258.16,-367.24 263.83,-371.35"/>
</g>
<!-- Node15 -->
<g id="node15" class="node">
<title>Node15</title>
<g id="a_node15"><a xlink:href="capability.html" target="_top" xlink:title="L4::Cap related definitions.">
<polygon fill="white" stroke="black" points="662.74,-683.5 662.74,-702.5 758.74,-702.5 758.74,-683.5 662.74,-683.5"/>
<text text-anchor="middle" x="710.74" y="-690.5" font-family="Helvetica,sans-Serif" font-size="10.00">l4/sys/capability</text>
</a>
</g>
</g>
<!-- Node3&#45;&gt;Node15 -->
<g id="edge24" class="edge">
<title>Node3&#45;&gt;Node15</title>
<path fill="none" stroke="midnightblue" d="M281.62,-743.94C360.8,-734.73 554.84,-712.14 652.54,-700.77"/>
<polygon fill="midnightblue" stroke="midnightblue" points="653.01,-704.24 662.54,-699.61 652.2,-697.29 653.01,-704.24"/>
</g>
<!-- Node5 -->
<g id="node5" class="node">
<title>Node5</title>
<g id="a_node5"><a xlink:href="l4_2sys_2types_8h.html" target="_top" xlink:title="Common L4 ABI Data Types.">
<polygon fill="white" stroke="black" points="713.74,-168.5 713.74,-187.5 797.74,-187.5 797.74,-168.5 713.74,-168.5"/>
<text text-anchor="middle" x="755.74" y="-175.5" font-family="Helvetica,sans-Serif" font-size="10.00">l4/sys/types.h</text>
</a>
</g>
</g>
<!-- Node4&#45;&gt;Node5 -->
<g id="edge4" class="edge">
<title>Node4&#45;&gt;Node5</title>
<path fill="none" stroke="midnightblue" d="M275.34,-341.89C280.21,-318.4 297.18,-253.04 339.74,-224 397.71,-184.44 605.13,-178.96 703.4,-178.65"/>
<polygon fill="midnightblue" stroke="midnightblue" points="703.7,-182.15 713.69,-178.64 703.69,-175.15 703.7,-182.15"/>
</g>
<!-- Node12 -->
<g id="node12" class="node">
<title>Node12</title>
<g id="a_node12"><a xlink:href="l4_2sys_2utcb_8h.html" target="_top" xlink:title="UTCB definitions.">
<polygon fill="white" stroke="black" points="436.74,-224.5 436.74,-243.5 514.74,-243.5 514.74,-224.5 436.74,-224.5"/>
<text text-anchor="middle" x="475.74" y="-231.5" font-family="Helvetica,sans-Serif" font-size="10.00">l4/sys/utcb.h</text>
</a>
</g>
</g>
<!-- Node4&#45;&gt;Node12 -->
<g id="edge15" class="edge">
<title>Node4&#45;&gt;Node12</title>
<path fill="none" stroke="midnightblue" d="M301.9,-341.94C308.41,-339.97 315.31,-337.9 321.74,-336 376.76,-319.7 402.24,-337.43 445.74,-300 459.71,-287.99 467.56,-268.09 471.69,-253.47"/>
<polygon fill="midnightblue" stroke="midnightblue" points="475.14,-254.09 474.17,-243.54 468.35,-252.4 475.14,-254.09"/>
</g>
<!-- Node13 -->
<g id="node13" class="node">
<title>Node13</title>
<g id="a_node13"><a xlink:href="l4_2sys_2ipc_8h.html" target="_top" xlink:title="Common IPC interface.">
<polygon fill="white" stroke="black" points="366.24,-280.5 366.24,-299.5 437.24,-299.5 437.24,-280.5 366.24,-280.5"/>
<text text-anchor="middle" x="401.74" y="-287.5" font-family="Helvetica,sans-Serif" font-size="10.00">l4/sys/ipc.h</text>
</a>
</g>
</g>
<!-- Node4&#45;&gt;Node13 -->
<g id="edge19" class="edge">
<title>Node4&#45;&gt;Node13</title>
<path fill="none" stroke="midnightblue" d="M292.08,-341.98C313.56,-331.99 349.36,-315.35 374.19,-303.81"/>
<polygon fill="midnightblue" stroke="midnightblue" points="375.84,-306.9 383.44,-299.51 372.89,-300.55 375.84,-306.9"/>
</g>
<!-- Node6 -->
<g id="node6" class="node">
<title>Node6</title>
<g id="a_node6"><a xlink:href="l4_2sys_2l4int_8h.html" target="_top" xlink:title="Fixed sized integer types, generic version.">
<polygon fill="white" stroke="black" points="905.24,-56.5 905.24,-75.5 984.24,-75.5 984.24,-56.5 905.24,-56.5"/>
<text text-anchor="middle" x="944.74" y="-63.5" font-family="Helvetica,sans-Serif" font-size="10.00">l4/sys/l4int.h</text>
</a>
</g>
</g>
<!-- Node5&#45;&gt;Node6 -->
<g id="edge5" class="edge">
<title>Node5&#45;&gt;Node6</title>
<path fill="none" stroke="midnightblue" d="M797.82,-168.6C825.09,-161.78 860.47,-150.24 887.74,-132 906.57,-119.4 923.01,-99.06 933.33,-84.49"/>
<polygon fill="midnightblue" stroke="midnightblue" points="936.46,-86.12 939.2,-75.89 930.67,-82.18 936.46,-86.12"/>
</g>
<!-- Node7 -->
<g id="node7" class="node">
<title>Node7</title>
<g id="a_node7"><a xlink:href="compiler_8h.html" target="_top" xlink:title="L4 compiler related defines.">
<polygon fill="white" stroke="black" points="619.24,-56.5 619.24,-75.5 718.24,-75.5 718.24,-56.5 619.24,-56.5"/>
<text text-anchor="middle" x="668.74" y="-63.5" font-family="Helvetica,sans-Serif" font-size="10.00">l4/sys/compiler.h</text>
</a>
</g>
</g>
<!-- Node5&#45;&gt;Node7 -->
<g id="edge6" class="edge">
<title>Node5&#45;&gt;Node7</title>
<path fill="none" stroke="midnightblue" d="M738.57,-168.49C724.5,-160.72 704.98,-148.02 692.74,-132 682.26,-118.27 675.98,-99.49 672.49,-85.65"/>
<polygon fill="midnightblue" stroke="midnightblue" points="675.89,-84.77 670.27,-75.79 669.06,-86.32 675.89,-84.77"/>
</g>
<!-- Node9 -->
<g id="node9" class="node">
<title>Node9</title>
<g id="a_node9"><a xlink:href="l4_2sys_2consts_8h.html" target="_top" xlink:title="Common constants.">
<polygon fill="white" stroke="black" points="1011.24,-112.5 1011.24,-131.5 1100.24,-131.5 1100.24,-112.5 1011.24,-112.5"/>
<text text-anchor="middle" x="1055.74" y="-119.5" font-family="Helvetica,sans-Serif" font-size="10.00">l4/sys/consts.h</text>
</a>
</g>
</g>
<!-- Node5&#45;&gt;Node9 -->
<g id="edge8" class="edge">
<title>Node5&#45;&gt;Node9</title>
<path fill="none" stroke="midnightblue" d="M797.77,-169.43C850.86,-159.88 942.34,-143.41 1000.89,-132.87"/>
<polygon fill="midnightblue" stroke="midnightblue" points="1001.84,-136.26 1011.06,-131.04 1000.6,-129.37 1001.84,-136.26"/>
</g>
<!-- Node10 -->
<g id="node10" class="node">
<title>Node10</title>
<g id="a_node10"><a xlink:href="____l4__fpage_8h_source.html" target="_top" xlink:title=" ">
<polygon fill="white" stroke="black" points="530.74,-112.5 530.74,-131.5 640.74,-131.5 640.74,-112.5 530.74,-112.5"/>
<text text-anchor="middle" x="585.74" y="-119.5" font-family="Helvetica,sans-Serif" font-size="10.00">l4/sys/__l4_fpage.h</text>
</a>
</g>
</g>
<!-- Node5&#45;&gt;Node10 -->
<g id="edge11" class="edge">
<title>Node5&#45;&gt;Node10</title>
<path fill="none" stroke="midnightblue" d="M728.8,-168.44C700.08,-159.32 654.41,-144.81 622.42,-134.65"/>
<polygon fill="midnightblue" stroke="midnightblue" points="623.14,-131.21 612.55,-131.52 621.02,-137.88 623.14,-131.21"/>
</g>
<!-- Node11 -->
<g id="node11" class="node">
<title>Node11</title>
<g id="a_node11"><a xlink:href="____timeout_8h_source.html" target="_top" xlink:title=" ">
<polygon fill="white" stroke="black" points="772.74,-112.5 772.74,-131.5 878.74,-131.5 878.74,-112.5 772.74,-112.5"/>
<text text-anchor="middle" x="825.74" y="-119.5" font-family="Helvetica,sans-Serif" font-size="10.00">l4/sys/__timeout.h</text>
</a>
</g>
</g>
<!-- Node5&#45;&gt;Node11 -->
<g id="edge13" class="edge">
<title>Node5&#45;&gt;Node11</title>
<path fill="none" stroke="midnightblue" d="M766.99,-168.32C777.54,-160.18 793.54,-147.84 806.18,-138.09"/>
<polygon fill="midnightblue" stroke="midnightblue" points="808.51,-140.71 814.29,-131.83 804.23,-135.17 808.51,-140.71"/>
</g>
<!-- Node8 -->
<g id="node8" class="node">
<title>Node8</title>
<g id="a_node8"><a xlink:title=" ">
<polygon fill="white" stroke="#bfbfbf" points="622.74,-0.5 622.74,-19.5 714.74,-19.5 714.74,-0.5 622.74,-0.5"/>
<text text-anchor="middle" x="668.74" y="-7.5" font-family="Helvetica,sans-Serif" font-size="10.00">l4/sys/linkage.h</text>
</a>
</g>
</g>
<!-- Node7&#45;&gt;Node8 -->
<g id="edge7" class="edge">
<title>Node7&#45;&gt;Node8</title>
<path fill="none" stroke="midnightblue" d="M668.74,-56.08C668.74,-49.01 668.74,-38.86 668.74,-29.99"/>
<polygon fill="midnightblue" stroke="midnightblue" points="672.24,-29.75 668.74,-19.75 665.24,-29.75 672.24,-29.75"/>
</g>
<!-- Node9&#45;&gt;Node6 -->
<g id="edge10" class="edge">
<title>Node9&#45;&gt;Node6</title>
<path fill="none" stroke="midnightblue" d="M1037.91,-112.32C1020.02,-103.62 992.27,-90.12 971.69,-80.11"/>
<polygon fill="midnightblue" stroke="midnightblue" points="973.05,-76.88 962.53,-75.65 969.99,-83.18 973.05,-76.88"/>
</g>
<!-- Node9&#45;&gt;Node7 -->
<g id="edge9" class="edge">
<title>Node9&#45;&gt;Node7</title>
<path fill="none" stroke="midnightblue" d="M1010.97,-114.1C1006.17,-113.38 1001.36,-112.67 996.74,-112 903.19,-98.45 794.48,-83.74 728.69,-74.95"/>
<polygon fill="midnightblue" stroke="midnightblue" points="728.88,-71.44 718.51,-73.59 727.96,-78.38 728.88,-71.44"/>
</g>
<!-- Node10&#45;&gt;Node7 -->
<g id="edge12" class="edge">
<title>Node10&#45;&gt;Node7</title>
<path fill="none" stroke="midnightblue" d="M599.08,-112.32C611.9,-103.98 631.53,-91.21 646.68,-81.35"/>
<polygon fill="midnightblue" stroke="midnightblue" points="648.96,-84.04 655.44,-75.65 645.15,-78.17 648.96,-84.04"/>
</g>
<!-- Node11&#45;&gt;Node6 -->
<g id="edge14" class="edge">
<title>Node11&#45;&gt;Node6</title>
<path fill="none" stroke="midnightblue" d="M844.6,-112.44C864.01,-103.64 894.47,-89.81 916.71,-79.72"/>
<polygon fill="midnightblue" stroke="midnightblue" points="918.31,-82.84 925.97,-75.52 915.42,-76.46 918.31,-82.84"/>
</g>
<!-- Node12&#45;&gt;Node5 -->
<g id="edge16" class="edge">
<title>Node12&#45;&gt;Node5</title>
<path fill="none" stroke="midnightblue" d="M514.97,-225.43C564.28,-215.93 649.06,-199.57 703.73,-189.03"/>
<polygon fill="midnightblue" stroke="midnightblue" points="704.42,-192.46 713.58,-187.13 703.1,-185.59 704.42,-192.46"/>
</g>
<!-- Node12&#45;&gt;Node6 -->
<g id="edge18" class="edge">
<title>Node12&#45;&gt;Node6</title>
<path fill="none" stroke="midnightblue" d="M493.57,-224.37C538.2,-203.01 658.75,-146.88 763.74,-112 807.42,-97.49 858.39,-85.22 895.09,-77.18"/>
<polygon fill="midnightblue" stroke="midnightblue" points="896.02,-80.56 905.05,-75.02 894.54,-73.72 896.02,-80.56"/>
</g>
<!-- Node12&#45;&gt;Node7 -->
<g id="edge17" class="edge">
<title>Node12&#45;&gt;Node7</title>
<path fill="none" stroke="midnightblue" d="M476.48,-224.25C478.84,-202.13 488.1,-143.48 521.74,-112 545.27,-89.98 579.32,-78.72 608.71,-72.97"/>
<polygon fill="midnightblue" stroke="midnightblue" points="609.66,-76.35 618.9,-71.16 608.44,-69.46 609.66,-76.35"/>
</g>
<!-- Node13&#45;&gt;Node5 -->
<g id="edge20" class="edge">
<title>Node13&#45;&gt;Node5</title>
<path fill="none" stroke="midnightblue" d="M426.74,-280.45C451.56,-271.81 490.6,-257.79 523.74,-244 543.2,-235.9 546.83,-230.92 566.74,-224 611.93,-208.29 665.05,-196.18 703.46,-188.5"/>
<polygon fill="midnightblue" stroke="midnightblue" points="704.25,-191.91 713.38,-186.54 702.89,-185.04 704.25,-191.91"/>
</g>
<!-- Node13&#45;&gt;Node12 -->
<g id="edge21" class="edge">
<title>Node13&#45;&gt;Node12</title>
<path fill="none" stroke="midnightblue" d="M413.63,-280.32C424.89,-272.11 442.03,-259.6 455.45,-249.81"/>
<polygon fill="midnightblue" stroke="midnightblue" points="457.62,-252.56 463.63,-243.83 453.49,-246.9 457.62,-252.56"/>
</g>
<!-- Node14 -->
<g id="node14" class="node">
<title>Node14</title>
<g id="a_node14"><a xlink:href="err_8h.html" target="_top" xlink:title="Error codes.">
<polygon fill="white" stroke="black" points="348.74,-224.5 348.74,-243.5 418.74,-243.5 418.74,-224.5 348.74,-224.5"/>
<text text-anchor="middle" x="383.74" y="-231.5" font-family="Helvetica,sans-Serif" font-size="10.00">l4/sys/err.h</text>
</a>
</g>
</g>
<!-- Node13&#45;&gt;Node14 -->
<g id="edge22" class="edge">
<title>Node13&#45;&gt;Node14</title>
<path fill="none" stroke="midnightblue" d="M398.77,-280.08C396.36,-272.85 392.88,-262.41 389.87,-253.4"/>
<polygon fill="midnightblue" stroke="midnightblue" points="393.14,-252.13 386.66,-243.75 386.5,-254.34 393.14,-252.13"/>
</g>
<!-- Node14&#45;&gt;Node7 -->
<g id="edge23" class="edge">
<title>Node14&#45;&gt;Node7</title>
<path fill="none" stroke="midnightblue" d="M389.59,-224.46C405.22,-202.32 450.35,-142.64 502.74,-112 535.33,-92.94 576.21,-81.73 609.25,-75.27"/>
<polygon fill="midnightblue" stroke="midnightblue" points="610.04,-78.68 619.23,-73.41 608.76,-71.8 610.04,-78.68"/>
</g>
<!-- Node15&#45;&gt;Node4 -->
<g id="edge46" class="edge">
<title>Node15&#45;&gt;Node4</title>
<path fill="none" stroke="midnightblue" d="M662.58,-690.38C546.49,-685.18 260.74,-664.03 260.74,-582 260.74,-582 260.74,-582 260.74,-468 260.74,-433.65 266.49,-393.91 270.34,-371.14"/>
<polygon fill="midnightblue" stroke="midnightblue" points="273.81,-371.61 272.09,-361.16 266.92,-370.4 273.81,-371.61"/>
</g>
<!-- Node15&#45;&gt;Node5 -->
<g id="edge26" class="edge">
<title>Node15&#45;&gt;Node5</title>
<path fill="none" stroke="midnightblue" d="M758.94,-686.14C816.97,-676.08 906.74,-649.6 906.74,-582 906.74,-582 906.74,-582 906.74,-412 906.74,-316.15 815.63,-228.62 774.95,-194.32"/>
<polygon fill="midnightblue" stroke="midnightblue" points="777.03,-191.49 767.09,-187.82 772.57,-196.89 777.03,-191.49"/>
</g>
<!-- Node15&#45;&gt;Node9 -->
<g id="edge25" class="edge">
<title>Node15&#45;&gt;Node9</title>
<path fill="none" stroke="midnightblue" d="M758.79,-685.28C796.49,-678.81 849.62,-666.98 892.74,-647 937.51,-626.25 982.74,-631.34 982.74,-582 982.74,-582 982.74,-582 982.74,-289 982.74,-230.19 1021.6,-168.83 1042.62,-139.95"/>
<polygon fill="midnightblue" stroke="midnightblue" points="1045.56,-141.86 1048.74,-131.75 1039.95,-137.67 1045.56,-141.86"/>
</g>
<!-- Node16 -->
<g id="node16" class="node">
<title>Node16</title>
<g id="a_node16"><a xlink:href="kobject_source.html" target="_top" xlink:title=" ">
<polygon fill="white" stroke="black" points="669.24,-515.5 669.24,-534.5 752.24,-534.5 752.24,-515.5 669.24,-515.5"/>
<text text-anchor="middle" x="710.74" y="-522.5" font-family="Helvetica,sans-Serif" font-size="10.00">l4/sys/kobject</text>
</a>
</g>
</g>
<!-- Node15&#45;&gt;Node16 -->
<g id="edge27" class="edge">
<title>Node15&#45;&gt;Node16</title>
<path fill="none" stroke="midnightblue" d="M710.74,-683.08C710.74,-656.95 710.74,-580.21 710.74,-544.58"/>
<polygon fill="midnightblue" stroke="midnightblue" points="714.24,-544.57 710.74,-534.57 707.24,-544.57 714.24,-544.57"/>
</g>
<!-- Node23 -->
<g id="node23" class="node">
<title>Node23</title>
<g id="a_node23"><a xlink:href="sys_2meta.html" target="_top" xlink:title="Meta interface for getting dynamic type information about objects behind capabilities.">
<polygon fill="white" stroke="black" points="582.74,-627.5 582.74,-646.5 656.74,-646.5 656.74,-627.5 582.74,-627.5"/>
<text text-anchor="middle" x="619.74" y="-634.5" font-family="Helvetica,sans-Serif" font-size="10.00">l4/sys/meta</text>
</a>
</g>
</g>
<!-- Node15&#45;&gt;Node23 -->
<g id="edge47" class="edge">
<title>Node15&#45;&gt;Node23</title>
<path fill="none" stroke="midnightblue" d="M696.12,-683.32C681.79,-674.82 659.73,-661.73 642.99,-651.8"/>
<polygon fill="midnightblue" stroke="midnightblue" points="644.71,-648.75 634.32,-646.65 641.14,-654.77 644.71,-648.75"/>
</g>
<!-- Node16&#45;&gt;Node5 -->
<g id="edge35" class="edge">
<title>Node16&#45;&gt;Node5</title>
<path fill="none" stroke="midnightblue" d="M723.55,-515.39C746.62,-498.74 792.74,-459.73 792.74,-414 792.74,-414 792.74,-414 792.74,-350.5 792.74,-293.55 773.01,-228.32 762.36,-197.27"/>
<polygon fill="midnightblue" stroke="midnightblue" points="765.65,-196.05 759.02,-187.78 759.04,-198.38 765.65,-196.05"/>
</g>
<!-- Node17 -->
<g id="node17" class="node">
<title>Node17</title>
<g id="a_node17"><a xlink:href="kernel__object_8h.html" target="_top" xlink:title="Kernel object system calls.">
<polygon fill="white" stroke="black" points="673.24,-403.5 673.24,-422.5 764.24,-422.5 764.24,-403.5 673.24,-403.5"/>
<text text-anchor="middle" x="718.74" y="-410.5" font-family="Helvetica,sans-Serif" font-size="10.00">kernel_object.h</text>
</a>
</g>
</g>
<!-- Node16&#45;&gt;Node17 -->
<g id="edge28" class="edge">
<title>Node16&#45;&gt;Node17</title>
<path fill="none" stroke="midnightblue" d="M711.37,-515.37C712.66,-497.62 715.64,-456.67 717.39,-432.6"/>
<polygon fill="midnightblue" stroke="midnightblue" points="720.88,-432.82 718.12,-422.59 713.9,-432.31 720.88,-432.82"/>
</g>
<!-- Node19 -->
<g id="node19" class="node">
<title>Node19</title>
<g id="a_node19"><a xlink:href="____typeinfo_8h.html" target="_top" xlink:title="Type information handling.">
<polygon fill="white" stroke="black" points="613.24,-459.5 613.24,-478.5 690.24,-478.5 690.24,-459.5 613.24,-459.5"/>
<text text-anchor="middle" x="651.74" y="-466.5" font-family="Helvetica,sans-Serif" font-size="10.00">__typeinfo.h</text>
</a>
</g>
</g>
<!-- Node16&#45;&gt;Node19 -->
<g id="edge36" class="edge">
<title>Node16&#45;&gt;Node19</title>
<path fill="none" stroke="midnightblue" d="M701.26,-515.32C692.54,-507.34 679.4,-495.31 668.84,-485.65"/>
<polygon fill="midnightblue" stroke="midnightblue" points="671.13,-483 661.39,-478.83 666.41,-488.17 671.13,-483"/>
</g>
<!-- Node17&#45;&gt;Node5 -->
<g id="edge29" class="edge">
<title>Node17&#45;&gt;Node5</title>
<path fill="none" stroke="midnightblue" d="M719.12,-403.27C720.45,-376.3 725.6,-292 740.74,-224 742.73,-215.06 745.83,-205.39 748.69,-197.31"/>
<polygon fill="midnightblue" stroke="midnightblue" points="752.01,-198.41 752.2,-187.81 745.45,-195.98 752.01,-198.41"/>
</g>
<!-- Node17&#45;&gt;Node7 -->
<g id="edge30" class="edge">
<title>Node17&#45;&gt;Node7</title>
<path fill="none" stroke="midnightblue" d="M726.92,-403.25C756.11,-370.93 851.16,-255.55 806.74,-168 803.51,-161.63 727.06,-107.7 689.37,-81.36"/>
<polygon fill="midnightblue" stroke="midnightblue" points="691.31,-78.45 681.11,-75.59 687.31,-84.19 691.31,-78.45"/>
</g>
<!-- Node17&#45;&gt;Node12 -->
<g id="edge31" class="edge">
<title>Node17&#45;&gt;Node12</title>
<path fill="none" stroke="midnightblue" d="M718.64,-403.39C718.02,-388.06 714.63,-355.78 697.74,-336 652.98,-283.58 575.38,-256.99 524.8,-244.57"/>
<polygon fill="midnightblue" stroke="midnightblue" points="525.29,-241.09 514.76,-242.2 523.69,-247.9 525.29,-241.09"/>
</g>
<!-- Node17&#45;&gt;Node13 -->
<g id="edge34" class="edge">
<title>Node17&#45;&gt;Node13</title>
<path fill="none" stroke="midnightblue" d="M679.88,-403.46C646.43,-395.6 597.17,-382.78 555.74,-367 507.97,-348.81 455.12,-320.9 425.41,-304.44"/>
<polygon fill="midnightblue" stroke="midnightblue" points="427.05,-301.35 416.61,-299.53 423.64,-307.46 427.05,-301.35"/>
</g>
<!-- Node18 -->
<g id="node18" class="node">
<title>Node18</title>
<g id="a_node18"><a xlink:href="____kernel__object__impl_8h.html" target="_top" xlink:title="Low&#45;level kernel debugger functions.">
<polygon fill="white" stroke="black" points="564.74,-336.5 564.74,-366.5 688.74,-366.5 688.74,-336.5 564.74,-336.5"/>
<text text-anchor="start" x="572.74" y="-354.5" font-family="Helvetica,sans-Serif" font-size="10.00">l4/sys/__kernel_object</text>
<text text-anchor="middle" x="626.74" y="-343.5" font-family="Helvetica,sans-Serif" font-size="10.00">_impl.h</text>
</a>
</g>
</g>
<!-- Node17&#45;&gt;Node18 -->
<g id="edge32" class="edge">
<title>Node17&#45;&gt;Node18</title>
<path fill="none" stroke="midnightblue" d="M705.56,-403.48C692.98,-395.34 673.58,-382.79 657.17,-372.18"/>
<polygon fill="midnightblue" stroke="midnightblue" points="658.72,-369.01 648.42,-366.52 654.92,-374.89 658.72,-369.01"/>
</g>
<!-- Node18&#45;&gt;Node13 -->
<g id="edge33" class="edge">
<title>Node18&#45;&gt;Node13</title>
<path fill="none" stroke="midnightblue" d="M573.7,-336.47C534.04,-325.99 480.53,-311.84 443.8,-302.12"/>
<polygon fill="midnightblue" stroke="midnightblue" points="444.47,-298.68 433.91,-299.51 442.68,-305.45 444.47,-298.68"/>
</g>
<!-- Node20 -->
<g id="node20" class="node">
<title>Node20</title>
<g id="a_node20"><a xlink:href="types.html" target="_top" xlink:title=" ">
<polygon fill="white" stroke="black" points="330.74,-342 330.74,-361 394.74,-361 394.74,-342 330.74,-342"/>
<text text-anchor="middle" x="362.74" y="-349" font-family="Helvetica,sans-Serif" font-size="10.00">cxx/types</text>
</a>
</g>
</g>
<!-- Node19&#45;&gt;Node20 -->
<g id="edge37" class="edge">
<title>Node19&#45;&gt;Node20</title>
<path fill="none" stroke="midnightblue" d="M632.47,-459.45C612.62,-450.57 580.85,-436.17 553.74,-423 536.22,-414.49 532.7,-410.54 514.74,-403 477.49,-387.37 433.57,-373.22 402.54,-363.9"/>
<polygon fill="midnightblue" stroke="midnightblue" points="403.53,-360.54 392.95,-361.05 401.53,-367.25 403.53,-360.54"/>
</g>
<!-- Node21 -->
<g id="node21" class="node">
<title>Node21</title>
<g id="a_node21"><a xlink:href="ipc__basics_source.html" target="_top" xlink:title=" ">
<polygon fill="white" stroke="black" points="419.24,-403.5 419.24,-422.5 506.24,-422.5 506.24,-403.5 419.24,-403.5"/>
<text text-anchor="middle" x="462.74" y="-410.5" font-family="Helvetica,sans-Serif" font-size="10.00">cxx/ipc_basics</text>
</a>
</g>
</g>
<!-- Node19&#45;&gt;Node21 -->
<g id="edge38" class="edge">
<title>Node19&#45;&gt;Node21</title>
<path fill="none" stroke="midnightblue" d="M621.79,-459.44C589.58,-450.24 538.21,-435.56 502.6,-425.39"/>
<polygon fill="midnightblue" stroke="midnightblue" points="503.12,-421.9 492.55,-422.52 501.2,-428.63 503.12,-421.9"/>
</g>
<!-- Node22 -->
<g id="node22" class="node">
<title>Node22</title>
<g id="a_node22"><a xlink:href="capability_8h_source.html" target="_top" xlink:title=" ">
<polygon fill="white" stroke="black" points="562.74,-403.5 562.74,-422.5 654.74,-422.5 654.74,-403.5 562.74,-403.5"/>
<text text-anchor="middle" x="608.74" y="-410.5" font-family="Helvetica,sans-Serif" font-size="10.00">cxx/capability.h</text>
</a>
</g>
</g>
<!-- Node19&#45;&gt;Node22 -->
<g id="edge42" class="edge">
<title>Node19&#45;&gt;Node22</title>
<path fill="none" stroke="midnightblue" d="M644.64,-459.08C638.5,-451.38 629.47,-440.03 622,-430.65"/>
<polygon fill="midnightblue" stroke="midnightblue" points="624.68,-428.39 615.71,-422.75 619.2,-432.75 624.68,-428.39"/>
</g>
<!-- Node21&#45;&gt;Node12 -->
<g id="edge40" class="edge">
<title>Node21&#45;&gt;Node12</title>
<path fill="none" stroke="midnightblue" d="M463.37,-403.46C465.35,-376.43 471.54,-292.24 474.34,-254.11"/>
<polygon fill="midnightblue" stroke="midnightblue" points="477.85,-254.1 475.09,-243.87 470.87,-253.59 477.85,-254.1"/>
</g>
<!-- Node21&#45;&gt;Node14 -->
<g id="edge41" class="edge">
<title>Node21&#45;&gt;Node14</title>
<path fill="none" stroke="midnightblue" d="M457.18,-403.45C447.39,-388.75 426.02,-358.13 403.74,-336 385.07,-317.45 368.39,-323.59 356.74,-300 348.75,-283.82 358.96,-264.68 369.03,-251.38"/>
<polygon fill="midnightblue" stroke="midnightblue" points="371.8,-253.52 375.44,-243.57 366.39,-249.08 371.8,-253.52"/>
</g>
<!-- Node21&#45;&gt;Node20 -->
<g id="edge39" class="edge">
<title>Node21&#45;&gt;Node20</title>
<path fill="none" stroke="midnightblue" d="M448.41,-403.48C432.08,-393.75 405.14,-377.73 385.83,-366.24"/>
<polygon fill="midnightblue" stroke="midnightblue" points="387.43,-363.11 377.04,-361.01 383.85,-369.13 387.43,-363.11"/>
</g>
<!-- Node22&#45;&gt;Node4 -->
<g id="edge45" class="edge">
<title>Node22&#45;&gt;Node4</title>
<path fill="none" stroke="midnightblue" d="M562.64,-406.76C505.63,-399.82 405.82,-386.2 321.74,-367 317.8,-366.1 313.7,-365.05 309.64,-363.93"/>
<polygon fill="midnightblue" stroke="midnightblue" points="310.3,-360.48 299.72,-361.06 308.36,-367.2 310.3,-360.48"/>
</g>
<!-- Node22&#45;&gt;Node5 -->
<g id="edge44" class="edge">
<title>Node22&#45;&gt;Node5</title>
<path fill="none" stroke="midnightblue" d="M592.41,-403.39C579.79,-395.72 563.24,-383.21 555.74,-367 549.95,-354.5 549.71,-348.39 555.74,-336 591.34,-262.8 679.41,-213.6 725.9,-191.8"/>
<polygon fill="midnightblue" stroke="midnightblue" points="727.52,-194.91 735.16,-187.57 724.61,-188.54 727.52,-194.91"/>
</g>
<!-- Node22&#45;&gt;Node9 -->
<g id="edge43" class="edge">
<title>Node22&#45;&gt;Node9</title>
<path fill="none" stroke="midnightblue" d="M627.53,-403.38C645.8,-394.79 674.18,-380.9 697.74,-367 831.84,-287.85 983.17,-177.15 1036.17,-137.68"/>
<polygon fill="midnightblue" stroke="midnightblue" points="1038.44,-140.36 1044.36,-131.57 1034.25,-134.75 1038.44,-140.36"/>
</g>
<!-- Node23&#45;&gt;Node16 -->
<g id="edge48" class="edge">
<title>Node23&#45;&gt;Node16</title>
<path fill="none" stroke="midnightblue" d="M626.88,-627.37C642.03,-609.05 677.61,-566.05 697.2,-542.36"/>
<polygon fill="midnightblue" stroke="midnightblue" points="699.96,-544.53 703.63,-534.59 694.56,-540.07 699.96,-544.53"/>
</g>
<!-- Node24 -->
<g id="node24" class="node">
<title>Node24</title>
<g id="a_node24"><a xlink:href="ipc__iface.html" target="_top" xlink:title="Interface Definition Language.">
<polygon fill="white" stroke="black" points="553.74,-515.5 553.74,-534.5 633.74,-534.5 633.74,-515.5 553.74,-515.5"/>
<text text-anchor="middle" x="593.74" y="-522.5" font-family="Helvetica,sans-Serif" font-size="10.00">cxx/ipc_iface</text>
</a>
</g>
</g>
<!-- Node23&#45;&gt;Node24 -->
<g id="edge49" class="edge">
<title>Node23&#45;&gt;Node24</title>
<path fill="none" stroke="midnightblue" d="M617.7,-627.37C613.5,-609.62 603.83,-568.67 598.14,-544.6"/>
<polygon fill="midnightblue" stroke="midnightblue" points="601.48,-543.52 595.77,-534.59 594.67,-545.13 601.48,-543.52"/>
</g>
<!-- Node26 -->
<g id="node26" class="node">
<title>Node26</title>
<g id="a_node26"><a xlink:href="ipc__string_source.html" target="_top" xlink:title=" ">
<polygon fill="white" stroke="black" points="328.74,-571.5 328.74,-590.5 412.74,-590.5 412.74,-571.5 328.74,-571.5"/>
<text text-anchor="middle" x="370.74" y="-578.5" font-family="Helvetica,sans-Serif" font-size="10.00">cxx/ipc_string</text>
</a>
</g>
</g>
<!-- Node23&#45;&gt;Node26 -->
<g id="edge56" class="edge">
<title>Node23&#45;&gt;Node26</title>
<path fill="none" stroke="midnightblue" d="M582.73,-627.97C539.48,-618.59 467.73,-603.03 419.85,-592.65"/>
<polygon fill="midnightblue" stroke="midnightblue" points="420.52,-589.22 410.01,-590.52 419.04,-596.06 420.52,-589.22"/>
</g>
<!-- Node24&#45;&gt;Node19 -->
<g id="edge55" class="edge">
<title>Node24&#45;&gt;Node19</title>
<path fill="none" stroke="midnightblue" d="M603.06,-515.32C611.63,-507.34 624.55,-495.31 634.93,-485.65"/>
<polygon fill="midnightblue" stroke="midnightblue" points="637.32,-488.21 642.25,-478.83 632.55,-483.09 637.32,-488.21"/>
</g>
<!-- Node24&#45;&gt;Node21 -->
<g id="edge50" class="edge">
<title>Node24&#45;&gt;Node21</title>
<path fill="none" stroke="midnightblue" d="M591.97,-515.27C588.78,-501.6 580.85,-475.04 564.74,-459 549.14,-443.46 527.25,-432.85 507.76,-425.85"/>
<polygon fill="midnightblue" stroke="midnightblue" points="508.72,-422.48 498.12,-422.6 506.48,-429.11 508.72,-422.48"/>
</g>
<!-- Node25 -->
<g id="node25" class="node">
<title>Node25</title>
<g id="a_node25"><a xlink:href="ipc__types.html" target="_top" xlink:title=" ">
<polygon fill="white" stroke="black" points="441.24,-459.5 441.24,-478.5 556.24,-478.5 556.24,-459.5 441.24,-459.5"/>
<text text-anchor="middle" x="498.74" y="-466.5" font-family="Helvetica,sans-Serif" font-size="10.00">l4/sys/cxx/ipc_types</text>
</a>
</g>
</g>
<!-- Node24&#45;&gt;Node25 -->
<g id="edge51" class="edge">
<title>Node24&#45;&gt;Node25</title>
<path fill="none" stroke="midnightblue" d="M578.48,-515.32C563.52,-506.82 540.49,-493.73 523.01,-483.8"/>
<polygon fill="midnightblue" stroke="midnightblue" points="524.39,-480.55 513.97,-478.65 520.93,-486.64 524.39,-480.55"/>
</g>
<!-- Node25&#45;&gt;Node20 -->
<g id="edge53" class="edge">
<title>Node25&#45;&gt;Node20</title>
<path fill="none" stroke="midnightblue" d="M473.65,-459.35C454.58,-451.88 428.52,-439.66 409.74,-423 392.95,-408.11 379.48,-385.92 371.33,-370.43"/>
<polygon fill="midnightblue" stroke="midnightblue" points="374.39,-368.72 366.77,-361.36 368.14,-371.87 374.39,-368.72"/>
</g>
<!-- Node25&#45;&gt;Node21 -->
<g id="edge54" class="edge">
<title>Node25&#45;&gt;Node21</title>
<path fill="none" stroke="midnightblue" d="M492.8,-459.08C487.76,-451.53 480.4,-440.49 474.23,-431.23"/>
<polygon fill="midnightblue" stroke="midnightblue" points="477.03,-429.13 468.57,-422.75 471.21,-433.01 477.03,-429.13"/>
</g>
<!-- Node25&#45;&gt;Node22 -->
<g id="edge52" class="edge">
<title>Node25&#45;&gt;Node22</title>
<path fill="none" stroke="midnightblue" d="M516.41,-459.32C534.13,-450.62 561.64,-437.12 582.03,-427.11"/>
<polygon fill="midnightblue" stroke="midnightblue" points="583.68,-430.2 591.11,-422.65 580.59,-423.92 583.68,-430.2"/>
</g>
<!-- Node26&#45;&gt;Node20 -->
<g id="edge57" class="edge">
<title>Node26&#45;&gt;Node20</title>
<path fill="none" stroke="midnightblue" d="M367.4,-571.2C364.19,-562.24 359.56,-547.88 357.74,-535 349.36,-475.77 356.05,-404.67 360.15,-371.4"/>
<polygon fill="midnightblue" stroke="midnightblue" points="363.65,-371.66 361.46,-361.3 356.7,-370.76 363.65,-371.66"/>
</g>
<!-- Node26&#45;&gt;Node21 -->
<g id="edge58" class="edge">
<title>Node26&#45;&gt;Node21</title>
<path fill="none" stroke="midnightblue" d="M367.45,-571.22C363.17,-558.37 357.11,-533.92 364.74,-515 379.98,-477.23 416.93,-445.82 440.85,-428.51"/>
<polygon fill="midnightblue" stroke="midnightblue" points="443.13,-431.18 449.31,-422.58 439.11,-425.45 443.13,-431.18"/>
</g>
<!-- Node27 -->
<g id="node27" class="node">
<title>Node27</title>
<g id="a_node27"><a xlink:href="ipc__array_source.html" target="_top" xlink:title=" ">
<polygon fill="white" stroke="black" points="373.74,-515.5 373.74,-534.5 435.74,-534.5 435.74,-515.5 373.74,-515.5"/>
<text text-anchor="middle" x="404.74" y="-522.5" font-family="Helvetica,sans-Serif" font-size="10.00">ipc_array</text>
</a>
</g>
</g>
<!-- Node26&#45;&gt;Node27 -->
<g id="edge59" class="edge">
<title>Node26&#45;&gt;Node27</title>
<path fill="none" stroke="midnightblue" d="M376.35,-571.08C381.11,-563.53 388.06,-552.49 393.89,-543.23"/>
<polygon fill="midnightblue" stroke="midnightblue" points="396.86,-545.08 399.23,-534.75 390.94,-541.35 396.86,-545.08"/>
</g>
<!-- Node27&#45;&gt;Node20 -->
<g id="edge60" class="edge">
<title>Node27&#45;&gt;Node20</title>
<path fill="none" stroke="midnightblue" d="M402.6,-515.26C396.06,-488.54 376.21,-407.52 367.24,-370.86"/>
<polygon fill="midnightblue" stroke="midnightblue" points="370.61,-369.9 364.83,-361.02 363.81,-371.56 370.61,-369.9"/>
</g>
<!-- Node27&#45;&gt;Node21 -->
<g id="edge61" class="edge">
<title>Node27&#45;&gt;Node21</title>
<path fill="none" stroke="midnightblue" d="M407.69,-515.32C412.15,-502.61 421.23,-478.32 431.74,-459 437.07,-449.21 444.04,-438.93 450.02,-430.67"/>
<polygon fill="midnightblue" stroke="midnightblue" points="452.84,-432.73 455.99,-422.61 447.22,-428.56 452.84,-432.73"/>
</g>
<!-- Node27&#45;&gt;Node25 -->
<g id="edge62" class="edge">
<title>Node27&#45;&gt;Node25</title>
<path fill="none" stroke="midnightblue" d="M419.84,-515.32C434.64,-506.82 457.43,-493.73 474.72,-483.8"/>
<polygon fill="midnightblue" stroke="midnightblue" points="476.75,-486.67 483.68,-478.65 473.26,-480.6 476.75,-486.67"/>
</g>
<!-- Node28&#45;&gt;Node7 -->
<g id="edge64" class="edge">
<title>Node28&#45;&gt;Node7</title>
<path fill="none" stroke="midnightblue" d="M78.93,-403.49C58.93,-396.76 34.68,-385.37 19.74,-367 -2.22,-339.98 0.74,-325.82 0.74,-291 0.74,-291 0.74,-291 0.74,-177 0.74,-115.69 444.56,-81.24 608.68,-70.6"/>
<polygon fill="midnightblue" stroke="midnightblue" points="609.32,-74.07 619.08,-69.94 608.87,-67.08 609.32,-74.07"/>
</g>
<!-- Node29 -->
<g id="node29" class="node">
<title>Node29</title>
<g id="a_node29"><a xlink:href="l4_2sys_2thread_8h.html" target="_top" xlink:title="Common thread related definitions.">
<polygon fill="white" stroke="black" points="29.24,-342 29.24,-361 118.24,-361 118.24,-342 29.24,-342"/>
<text text-anchor="middle" x="73.74" y="-349" font-family="Helvetica,sans-Serif" font-size="10.00">l4/sys/thread.h</text>
</a>
</g>
</g>
<!-- Node28&#45;&gt;Node29 -->
<g id="edge65" class="edge">
<title>Node28&#45;&gt;Node29</title>
<path fill="none" stroke="midnightblue" d="M107.15,-403.48C101.36,-394.64 92.15,-380.59 84.87,-369.48"/>
<polygon fill="midnightblue" stroke="midnightblue" points="87.73,-367.45 79.32,-361.01 81.87,-371.29 87.73,-367.45"/>
</g>
<!-- Node30 -->
<g id="node30" class="node">
<title>Node30</title>
<g id="a_node30"><a xlink:href="vcon_8h.html" target="_top" xlink:title="Virtual console interface.">
<polygon fill="white" stroke="black" points="136.74,-342 136.74,-361 216.74,-361 216.74,-342 136.74,-342"/>
<text text-anchor="middle" x="176.74" y="-349" font-family="Helvetica,sans-Serif" font-size="10.00">l4/sys/vcon.h</text>
</a>
</g>
</g>
<!-- Node28&#45;&gt;Node30 -->
<g id="edge69" class="edge">
<title>Node28&#45;&gt;Node30</title>
<path fill="none" stroke="midnightblue" d="M121.91,-403.48C131.89,-394.2 148.05,-379.17 160.25,-367.83"/>
<polygon fill="midnightblue" stroke="midnightblue" points="162.65,-370.38 167.59,-361.01 157.88,-365.25 162.65,-370.38"/>
</g>
<!-- Node29&#45;&gt;Node5 -->
<g id="edge66" class="edge">
<title>Node29&#45;&gt;Node5</title>
<path fill="none" stroke="midnightblue" d="M86.11,-341.82C120.57,-318.15 221.3,-252.37 315.74,-224 451.29,-183.29 619.73,-177.87 703.44,-178.03"/>
<polygon fill="midnightblue" stroke="midnightblue" points="703.45,-181.53 713.47,-178.08 703.48,-174.53 703.45,-181.53"/>
</g>
<!-- Node29&#45;&gt;Node12 -->
<g id="edge67" class="edge">
<title>Node29&#45;&gt;Node12</title>
<path fill="none" stroke="midnightblue" d="M103.63,-341.91C175.08,-321.38 355.84,-269.45 436.19,-246.36"/>
<polygon fill="midnightblue" stroke="midnightblue" points="437.29,-249.69 445.93,-243.56 435.35,-242.96 437.29,-249.69"/>
</g>
<!-- Node29&#45;&gt;Node13 -->
<g id="edge68" class="edge">
<title>Node29&#45;&gt;Node13</title>
<path fill="none" stroke="midnightblue" d="M103.32,-341.99C111.22,-339.87 119.77,-337.72 127.74,-336 207.42,-318.8 301.39,-304.69 356,-297.09"/>
<polygon fill="midnightblue" stroke="midnightblue" points="356.63,-300.54 366.06,-295.7 355.67,-293.6 356.63,-300.54"/>
</g>
<!-- Node30&#45;&gt;Node13 -->
<g id="edge70" class="edge">
<title>Node30&#45;&gt;Node13</title>
<path fill="none" stroke="midnightblue" d="M204.93,-341.96C211.73,-339.96 218.98,-337.86 225.74,-336 270.02,-323.79 320.87,-310.91 356.49,-302.07"/>
<polygon fill="midnightblue" stroke="midnightblue" points="357.71,-305.38 366.58,-299.58 356.03,-298.58 357.71,-305.38"/>
</g>
<!-- Node31&#45;&gt;Node9 -->
<g id="edge73" class="edge">
<title>Node31&#45;&gt;Node9</title>
<path fill="none" stroke="midnightblue" d="M930.64,-745.14C1060.79,-734.55 1490.74,-695.24 1490.74,-638 1490.74,-638 1490.74,-638 1490.74,-233 1490.74,-202.9 1494.82,-187.32 1471.74,-168 1444.59,-145.26 1217.42,-131.05 1110.71,-125.57"/>
<polygon fill="midnightblue" stroke="midnightblue" points="1110.62,-122.07 1100.46,-125.06 1110.27,-129.06 1110.62,-122.07"/>
</g>
<!-- Node31&#45;&gt;Node15 -->
<g id="edge72" class="edge">
<title>Node31&#45;&gt;Node15</title>
<path fill="none" stroke="midnightblue" d="M864.74,-739.44C833.56,-730.24 783.81,-715.56 749.33,-705.39"/>
<polygon fill="midnightblue" stroke="midnightblue" points="750.18,-701.99 739.6,-702.52 748.2,-708.7 750.18,-701.99"/>
</g>
<!-- Node32 -->
<g id="node32" class="node">
<title>Node32</title>
<g id="a_node32"><a xlink:href="env_8h.html" target="_top" xlink:title="Environment interface.">
<polygon fill="white" stroke="black" points="1084.74,-342 1084.74,-361 1152.74,-361 1152.74,-342 1084.74,-342"/>
<text text-anchor="middle" x="1118.74" y="-349" font-family="Helvetica,sans-Serif" font-size="10.00">l4/re/env.h</text>
</a>
</g>
</g>
<!-- Node31&#45;&gt;Node32 -->
<g id="edge74" class="edge">
<title>Node31&#45;&gt;Node32</title>
<path fill="none" stroke="midnightblue" d="M930.45,-739.98C977.69,-727.24 1053.74,-697.5 1053.74,-638 1053.74,-638 1053.74,-638 1053.74,-468 1053.74,-428.19 1083.44,-389.43 1102.68,-368.49"/>
<polygon fill="midnightblue" stroke="midnightblue" points="1105.33,-370.78 1109.7,-361.13 1100.27,-365.95 1105.33,-370.78"/>
</g>
<!-- Node32&#45;&gt;Node5 -->
<g id="edge76" class="edge">
<title>Node32&#45;&gt;Node5</title>
<path fill="none" stroke="midnightblue" d="M1099.25,-341.89C1076.85,-331.96 1039.02,-315.06 1006.74,-300 924.44,-261.62 827.87,-214.46 782.21,-192.04"/>
<polygon fill="midnightblue" stroke="midnightblue" points="783.53,-188.79 773.01,-187.52 780.44,-195.07 783.53,-188.79"/>
</g>
<!-- Node32&#45;&gt;Node7 -->
<g id="edge83" class="edge">
<title>Node32&#45;&gt;Node7</title>
<path fill="none" stroke="midnightblue" d="M1108.46,-341.75C1087.78,-323.99 1039.94,-282.18 1002.74,-244 948.44,-188.27 954.94,-151.23 887.74,-112 838.97,-83.53 774.89,-72.88 728.67,-69"/>
<polygon fill="midnightblue" stroke="midnightblue" points="728.73,-65.5 718.5,-68.23 728.21,-72.48 728.73,-65.5"/>
</g>
<!-- Node32&#45;&gt;Node9 -->
<g id="edge75" class="edge">
<title>Node32&#45;&gt;Node9</title>
<path fill="none" stroke="midnightblue" d="M1152.95,-342.32C1214.99,-325.79 1336.07,-284.73 1295.74,-224 1254.69,-162.19 1167.61,-138.12 1110.41,-128.8"/>
<polygon fill="midnightblue" stroke="midnightblue" points="1110.86,-125.33 1100.44,-127.28 1109.8,-132.25 1110.86,-125.33"/>
</g>
<!-- Node33 -->
<g id="node33" class="node">
<title>Node33</title>
<g id="a_node33"><a xlink:href="sys_2kip_8h.html" target="_top" xlink:title="Kernel Info Page access functions.">
<polygon fill="white" stroke="black" points="1114.74,-280.5 1114.74,-299.5 1186.74,-299.5 1186.74,-280.5 1114.74,-280.5"/>
<text text-anchor="middle" x="1150.74" y="-287.5" font-family="Helvetica,sans-Serif" font-size="10.00">l4/sys/kip.h</text>
</a>
</g>
</g>
<!-- Node32&#45;&gt;Node33 -->
<g id="edge77" class="edge">
<title>Node32&#45;&gt;Node33</title>
<path fill="none" stroke="midnightblue" d="M1123.33,-341.98C1127.98,-333.32 1135.33,-319.65 1141.25,-308.65"/>
<polygon fill="midnightblue" stroke="midnightblue" points="1144.51,-309.97 1146.16,-299.51 1138.35,-306.66 1144.51,-309.97"/>
</g>
<!-- Node36 -->
<g id="node36" class="node">
<title>Node36</title>
<g id="a_node36"><a xlink:href="l4_2re_2consts_8h.html" target="_top" xlink:title="Constants.">
<polygon fill="white" stroke="black" points="1380.74,-168.5 1380.74,-187.5 1462.74,-187.5 1462.74,-168.5 1380.74,-168.5"/>
<text text-anchor="middle" x="1421.74" y="-175.5" font-family="Helvetica,sans-Serif" font-size="10.00">l4/re/consts.h</text>
</a>
</g>
</g>
<!-- Node32&#45;&gt;Node36 -->
<g id="edge84" class="edge">
<title>Node32&#45;&gt;Node36</title>
<path fill="none" stroke="midnightblue" d="M1153.18,-347.35C1213.29,-341.23 1334.09,-326 1366.74,-300 1399.28,-274.09 1413.26,-224.68 1418.69,-197.71"/>
<polygon fill="midnightblue" stroke="midnightblue" points="1422.17,-198.12 1420.52,-187.66 1415.29,-196.87 1422.17,-198.12"/>
</g>
<!-- Node33&#45;&gt;Node6 -->
<g id="edge79" class="edge">
<title>Node33&#45;&gt;Node6</title>
<path fill="none" stroke="midnightblue" d="M1187.11,-286.73C1237.65,-281.96 1320.31,-267.47 1295.74,-224 1234.4,-115.46 1075.75,-81.73 994.42,-71.42"/>
<polygon fill="midnightblue" stroke="midnightblue" points="994.76,-67.94 984.42,-70.22 993.93,-74.89 994.76,-67.94"/>
</g>
<!-- Node33&#45;&gt;Node7 -->
<g id="edge78" class="edge">
<title>Node33&#45;&gt;Node7</title>
<path fill="none" stroke="midnightblue" d="M1150.32,-280.45C1149.24,-267.01 1145.4,-240.77 1131.74,-224 1064.68,-141.69 1021.1,-146.64 920.74,-112 857.13,-90.05 780.62,-78.32 728.71,-72.4"/>
<polygon fill="midnightblue" stroke="midnightblue" points="728.99,-68.91 718.67,-71.3 728.23,-75.87 728.99,-68.91"/>
</g>
<!-- Node34 -->
<g id="node34" class="node">
<title>Node34</title>
<g id="a_node34"><a xlink:title=" ">
<polygon fill="white" stroke="#bfbfbf" points="1179.24,-224.5 1179.24,-243.5 1286.24,-243.5 1286.24,-224.5 1179.24,-224.5"/>
<text text-anchor="middle" x="1232.74" y="-231.5" font-family="Helvetica,sans-Serif" font-size="10.00">l4/sys/__kip&#45;arch.h</text>
</a>
</g>
</g>
<!-- Node33&#45;&gt;Node34 -->
<g id="edge80" class="edge">
<title>Node33&#45;&gt;Node34</title>
<path fill="none" stroke="midnightblue" d="M1163.92,-280.32C1176.59,-271.98 1195.97,-259.21 1210.95,-249.35"/>
<polygon fill="midnightblue" stroke="midnightblue" points="1213.17,-252.08 1219.6,-243.65 1209.32,-246.23 1213.17,-252.08"/>
</g>
<!-- Node35 -->
<g id="node35" class="node">
<title>Node35</title>
<g id="a_node35"><a xlink:href="____kip-64bit_8h_source.html" target="_top" xlink:title=" ">
<polygon fill="white" stroke="black" points="1011.24,-224.5 1011.24,-243.5 1122.24,-243.5 1122.24,-224.5 1011.24,-224.5"/>
<text text-anchor="middle" x="1066.74" y="-231.5" font-family="Helvetica,sans-Serif" font-size="10.00">l4/sys/__kip&#45;64bit.h</text>
</a>
</g>
</g>
<!-- Node33&#45;&gt;Node35 -->
<g id="edge81" class="edge">
<title>Node33&#45;&gt;Node35</title>
<path fill="none" stroke="midnightblue" d="M1137.24,-280.32C1124.14,-271.9 1104.03,-258.97 1088.63,-249.07"/>
<polygon fill="midnightblue" stroke="midnightblue" points="1090.51,-246.12 1080.2,-243.65 1086.72,-252.01 1090.51,-246.12"/>
</g>
<!-- Node35&#45;&gt;Node5 -->
<g id="edge82" class="edge">
<title>Node35&#45;&gt;Node5</title>
<path fill="none" stroke="midnightblue" d="M1017.46,-224.44C960.26,-214.51 866.34,-198.2 807.93,-188.06"/>
<polygon fill="midnightblue" stroke="midnightblue" points="808.26,-184.57 797.81,-186.3 807.06,-191.46 808.26,-184.57"/>
</g>
<!-- Node36&#45;&gt;Node9 -->
<g id="edge85" class="edge">
<title>Node36&#45;&gt;Node9</title>
<path fill="none" stroke="midnightblue" d="M1380.61,-170.18C1375.93,-169.43 1371.23,-168.69 1366.74,-168 1276.98,-154.16 1172.44,-139.29 1110.3,-130.58"/>
<polygon fill="midnightblue" stroke="midnightblue" points="1110.72,-127.11 1100.33,-129.19 1109.75,-134.04 1110.72,-127.11"/>
</g>
</g>
</svg>
