<?xml version="1.0" encoding="UTF-8" standalone="no"?>
<!DOCTYPE svg PUBLIC "-//W3C//DTD SVG 1.1//EN"
 "http://www.w3.org/Graphics/SVG/1.1/DTD/svg11.dtd">
<!-- Generated by graphviz version 2.43.0 (0)
 -->
<!-- Title: l4/re/cap_alloc Pages: 1 -->
<svg width="1297pt" height="823pt"
 viewBox="0.00 0.00 1296.50 823.00" xmlns="http://www.w3.org/2000/svg" xmlns:xlink="http://www.w3.org/1999/xlink">
<g id="graph0" class="graph" transform="scale(1 1) rotate(0) translate(4 819)">
<title>l4/re/cap_alloc</title>
<polygon fill="white" stroke="transparent" points="-4,4 -4,-819 1292.5,-819 1292.5,4 -4,4"/>
<!-- Node1 -->
<g id="node1" class="node">
<title>Node1</title>
<g id="a_node1"><a xlink:title="Abstract capability&#45;allocator interface.">
<polygon fill="#bfbfbf" stroke="black" points="816.5,-795.5 816.5,-814.5 903.5,-814.5 903.5,-795.5 816.5,-795.5"/>
<text text-anchor="middle" x="860" y="-802.5" font-family="Helvetica,sans-Serif" font-size="10.00">l4/re/cap_alloc</text>
</a>
</g>
</g>
<!-- Node2 -->
<g id="node2" class="node">
<title>Node2</title>
<g id="a_node2"><a xlink:href="task.html" target="_top" xlink:title="Common task related definitions.">
<polygon fill="white" stroke="black" points="446.5,-739.5 446.5,-758.5 515.5,-758.5 515.5,-739.5 446.5,-739.5"/>
<text text-anchor="middle" x="481" y="-746.5" font-family="Helvetica,sans-Serif" font-size="10.00">l4/sys/task</text>
</a>
</g>
</g>
<!-- Node1&#45;&gt;Node2 -->
<g id="edge1" class="edge">
<title>Node1&#45;&gt;Node2</title>
<path fill="none" stroke="midnightblue" d="M816.15,-797.75C743.54,-787.41 599.07,-766.82 525.82,-756.39"/>
<polygon fill="midnightblue" stroke="midnightblue" points="525.94,-752.87 515.54,-754.92 524.95,-759.8 525.94,-752.87"/>
</g>
<!-- Node27 -->
<g id="node27" class="node">
<title>Node27</title>
<g id="a_node27"><a xlink:href="smart__capability.html" target="_top" xlink:title="L4::Capability class.">
<polygon fill="white" stroke="black" points="621,-739.5 621,-758.5 751,-758.5 751,-739.5 621,-739.5"/>
<text text-anchor="middle" x="686" y="-746.5" font-family="Helvetica,sans-Serif" font-size="10.00">l4/sys/smart_capability</text>
</a>
</g>
</g>
<!-- Node1&#45;&gt;Node27 -->
<g id="edge62" class="edge">
<title>Node1&#45;&gt;Node27</title>
<path fill="none" stroke="midnightblue" d="M832.43,-795.44C802.9,-786.28 755.88,-771.69 723.12,-761.52"/>
<polygon fill="midnightblue" stroke="midnightblue" points="724.03,-758.14 713.44,-758.52 721.96,-764.82 724.03,-758.14"/>
</g>
<!-- Node28 -->
<g id="node28" class="node">
<title>Node28</title>
<g id="a_node28"><a xlink:href="re_2consts.html" target="_top" xlink:title="Constants.">
<polygon fill="white" stroke="black" points="837.5,-739.5 837.5,-758.5 910.5,-758.5 910.5,-739.5 837.5,-739.5"/>
<text text-anchor="middle" x="874" y="-746.5" font-family="Helvetica,sans-Serif" font-size="10.00">l4/re/consts</text>
</a>
</g>
</g>
<!-- Node1&#45;&gt;Node28 -->
<g id="edge64" class="edge">
<title>Node1&#45;&gt;Node28</title>
<path fill="none" stroke="midnightblue" d="M862.31,-795.08C864.17,-787.93 866.84,-777.64 869.15,-768.69"/>
<polygon fill="midnightblue" stroke="midnightblue" points="872.61,-769.31 871.73,-758.75 865.83,-767.55 872.61,-769.31"/>
</g>
<!-- Node34 -->
<g id="node34" class="node">
<title>Node34</title>
<g id="a_node34"><a xlink:href="type__traits_source.html" target="_top" xlink:title=" ">
<polygon fill="white" stroke="black" points="1021.5,-739.5 1021.5,-758.5 1122.5,-758.5 1122.5,-739.5 1021.5,-739.5"/>
<text text-anchor="middle" x="1072" y="-746.5" font-family="Helvetica,sans-Serif" font-size="10.00">l4/cxx/type_traits</text>
</a>
</g>
</g>
<!-- Node1&#45;&gt;Node34 -->
<g id="edge79" class="edge">
<title>Node1&#45;&gt;Node34</title>
<path fill="none" stroke="midnightblue" d="M893.59,-795.44C930.19,-786.12 988.84,-771.18 1028.83,-761"/>
<polygon fill="midnightblue" stroke="midnightblue" points="1029.74,-764.38 1038.57,-758.52 1028.01,-757.59 1029.74,-764.38"/>
</g>
<!-- Node3 -->
<g id="node3" class="node">
<title>Node3</title>
<g id="a_node3"><a xlink:href="l4_2sys_2task_8h.html" target="_top" xlink:title="Common task related definitions.">
<polygon fill="white" stroke="black" points="37,-342 37,-361 115,-361 115,-342 37,-342"/>
<text text-anchor="middle" x="76" y="-349" font-family="Helvetica,sans-Serif" font-size="10.00">l4/sys/task.h</text>
</a>
</g>
</g>
<!-- Node2&#45;&gt;Node3 -->
<g id="edge2" class="edge">
<title>Node2&#45;&gt;Node3</title>
<path fill="none" stroke="midnightblue" d="M446.41,-747.49C336.12,-744.94 0,-729.66 0,-638 0,-638 0,-638 0,-468 0,-426.31 34.98,-388.03 57.48,-367.72"/>
<polygon fill="midnightblue" stroke="midnightblue" points="59.86,-370.28 65.11,-361.08 55.27,-365 59.86,-370.28"/>
</g>
<!-- Node14 -->
<g id="node14" class="node">
<title>Node14</title>
<g id="a_node14"><a xlink:href="capability.html" target="_top" xlink:title="L4::Cap related definitions.">
<polygon fill="white" stroke="black" points="433,-683.5 433,-702.5 529,-702.5 529,-683.5 433,-683.5"/>
<text text-anchor="middle" x="481" y="-690.5" font-family="Helvetica,sans-Serif" font-size="10.00">l4/sys/capability</text>
</a>
</g>
</g>
<!-- Node2&#45;&gt;Node14 -->
<g id="edge23" class="edge">
<title>Node2&#45;&gt;Node14</title>
<path fill="none" stroke="midnightblue" d="M481,-739.08C481,-732.01 481,-721.86 481,-712.99"/>
<polygon fill="midnightblue" stroke="midnightblue" points="484.5,-712.75 481,-702.75 477.5,-712.75 484.5,-712.75"/>
</g>
<!-- Node4 -->
<g id="node4" class="node">
<title>Node4</title>
<g id="a_node4"><a xlink:href="l4_2sys_2types_8h.html" target="_top" xlink:title="Common L4 ABI Data Types.">
<polygon fill="white" stroke="black" points="338,-168.5 338,-187.5 422,-187.5 422,-168.5 338,-168.5"/>
<text text-anchor="middle" x="380" y="-175.5" font-family="Helvetica,sans-Serif" font-size="10.00">l4/sys/types.h</text>
</a>
</g>
</g>
<!-- Node3&#45;&gt;Node4 -->
<g id="edge3" class="edge">
<title>Node3&#45;&gt;Node4</title>
<path fill="none" stroke="midnightblue" d="M78.15,-341.88C82.01,-327.73 91.22,-299.23 107,-280 134.53,-246.45 147.37,-241.69 187,-224 232.37,-203.74 287.98,-192.02 327.83,-185.65"/>
<polygon fill="midnightblue" stroke="midnightblue" points="328.51,-189.09 337.86,-184.1 327.45,-182.17 328.51,-189.09"/>
</g>
<!-- Node11 -->
<g id="node11" class="node">
<title>Node11</title>
<g id="a_node11"><a xlink:href="l4_2sys_2utcb_8h.html" target="_top" xlink:title="UTCB definitions.">
<polygon fill="white" stroke="black" points="196,-224.5 196,-243.5 274,-243.5 274,-224.5 196,-224.5"/>
<text text-anchor="middle" x="235" y="-231.5" font-family="Helvetica,sans-Serif" font-size="10.00">l4/sys/utcb.h</text>
</a>
</g>
</g>
<!-- Node3&#45;&gt;Node11 -->
<g id="edge14" class="edge">
<title>Node3&#45;&gt;Node11</title>
<path fill="none" stroke="midnightblue" d="M80.43,-341.97C88.37,-327.44 106.33,-297.74 129,-280 148.17,-265.01 173.07,-254.1 193.92,-246.78"/>
<polygon fill="midnightblue" stroke="midnightblue" points="195.12,-250.07 203.49,-243.57 192.89,-243.43 195.12,-250.07"/>
</g>
<!-- Node12 -->
<g id="node12" class="node">
<title>Node12</title>
<g id="a_node12"><a xlink:href="l4_2sys_2ipc_8h.html" target="_top" xlink:title="Common IPC interface.">
<polygon fill="white" stroke="black" points="217.5,-280.5 217.5,-299.5 288.5,-299.5 288.5,-280.5 217.5,-280.5"/>
<text text-anchor="middle" x="253" y="-287.5" font-family="Helvetica,sans-Serif" font-size="10.00">l4/sys/ipc.h</text>
</a>
</g>
</g>
<!-- Node3&#45;&gt;Node12 -->
<g id="edge18" class="edge">
<title>Node3&#45;&gt;Node12</title>
<path fill="none" stroke="midnightblue" d="M101.36,-341.98C131.98,-331.68 183.66,-314.31 218.05,-302.75"/>
<polygon fill="midnightblue" stroke="midnightblue" points="219.32,-306.01 227.69,-299.51 217.09,-299.38 219.32,-306.01"/>
</g>
<!-- Node5 -->
<g id="node5" class="node">
<title>Node5</title>
<g id="a_node5"><a xlink:href="l4_2sys_2l4int_8h.html" target="_top" xlink:title="Fixed sized integer types, generic version.">
<polygon fill="white" stroke="black" points="314.5,-56.5 314.5,-75.5 393.5,-75.5 393.5,-56.5 314.5,-56.5"/>
<text text-anchor="middle" x="354" y="-63.5" font-family="Helvetica,sans-Serif" font-size="10.00">l4/sys/l4int.h</text>
</a>
</g>
</g>
<!-- Node4&#45;&gt;Node5 -->
<g id="edge4" class="edge">
<title>Node4&#45;&gt;Node5</title>
<path fill="none" stroke="midnightblue" d="M344.15,-168.4C325.12,-161.81 303.37,-150.59 292,-132 279.61,-111.75 303.89,-92.59 325.6,-80.39"/>
<polygon fill="midnightblue" stroke="midnightblue" points="327.43,-83.38 334.63,-75.61 324.16,-77.2 327.43,-83.38"/>
</g>
<!-- Node6 -->
<g id="node6" class="node">
<title>Node6</title>
<g id="a_node6"><a xlink:href="compiler_8h.html" target="_top" xlink:title="L4 compiler related defines.">
<polygon fill="white" stroke="black" points="570.5,-56.5 570.5,-75.5 669.5,-75.5 669.5,-56.5 570.5,-56.5"/>
<text text-anchor="middle" x="620" y="-63.5" font-family="Helvetica,sans-Serif" font-size="10.00">l4/sys/compiler.h</text>
</a>
</g>
</g>
<!-- Node4&#45;&gt;Node6 -->
<g id="edge5" class="edge">
<title>Node4&#45;&gt;Node6</title>
<path fill="none" stroke="midnightblue" d="M387.29,-168.45C399.61,-154.54 425.98,-127.04 454,-112 487.02,-94.27 527.57,-83.11 560.32,-76.34"/>
<polygon fill="midnightblue" stroke="midnightblue" points="561.09,-79.75 570.22,-74.37 559.73,-72.89 561.09,-79.75"/>
</g>
<!-- Node8 -->
<g id="node8" class="node">
<title>Node8</title>
<g id="a_node8"><a xlink:href="l4_2sys_2consts_8h.html" target="_top" xlink:title="Common constants.">
<polygon fill="white" stroke="black" points="703.5,-112.5 703.5,-131.5 792.5,-131.5 792.5,-112.5 703.5,-112.5"/>
<text text-anchor="middle" x="748" y="-119.5" font-family="Helvetica,sans-Serif" font-size="10.00">l4/sys/consts.h</text>
</a>
</g>
</g>
<!-- Node4&#45;&gt;Node8 -->
<g id="edge7" class="edge">
<title>Node4&#45;&gt;Node8</title>
<path fill="none" stroke="midnightblue" d="M422.21,-170.81C489.11,-160.99 619.45,-141.86 693.38,-131.02"/>
<polygon fill="midnightblue" stroke="midnightblue" points="694.04,-134.46 703.42,-129.54 693.02,-127.53 694.04,-134.46"/>
</g>
<!-- Node9 -->
<g id="node9" class="node">
<title>Node9</title>
<g id="a_node9"><a xlink:href="____l4__fpage_8h_source.html" target="_top" xlink:title=" ">
<polygon fill="white" stroke="black" points="463,-112.5 463,-131.5 573,-131.5 573,-112.5 463,-112.5"/>
<text text-anchor="middle" x="518" y="-119.5" font-family="Helvetica,sans-Serif" font-size="10.00">l4/sys/__l4_fpage.h</text>
</a>
</g>
</g>
<!-- Node4&#45;&gt;Node9 -->
<g id="edge10" class="edge">
<title>Node4&#45;&gt;Node9</title>
<path fill="none" stroke="midnightblue" d="M401.87,-168.44C424.78,-159.48 460.98,-145.31 486.87,-135.18"/>
<polygon fill="midnightblue" stroke="midnightblue" points="488.2,-138.42 496.24,-131.52 485.65,-131.9 488.2,-138.42"/>
</g>
<!-- Node10 -->
<g id="node10" class="node">
<title>Node10</title>
<g id="a_node10"><a xlink:href="____timeout_8h_source.html" target="_top" xlink:title=" ">
<polygon fill="white" stroke="black" points="301,-112.5 301,-131.5 407,-131.5 407,-112.5 301,-112.5"/>
<text text-anchor="middle" x="354" y="-119.5" font-family="Helvetica,sans-Serif" font-size="10.00">l4/sys/__timeout.h</text>
</a>
</g>
</g>
<!-- Node4&#45;&gt;Node10 -->
<g id="edge12" class="edge">
<title>Node4&#45;&gt;Node10</title>
<path fill="none" stroke="midnightblue" d="M375.71,-168.08C372.15,-160.69 366.98,-149.95 362.58,-140.81"/>
<polygon fill="midnightblue" stroke="midnightblue" points="365.71,-139.24 358.21,-131.75 359.4,-142.28 365.71,-139.24"/>
</g>
<!-- Node7 -->
<g id="node7" class="node">
<title>Node7</title>
<g id="a_node7"><a xlink:title=" ">
<polygon fill="white" stroke="#bfbfbf" points="574,-0.5 574,-19.5 666,-19.5 666,-0.5 574,-0.5"/>
<text text-anchor="middle" x="620" y="-7.5" font-family="Helvetica,sans-Serif" font-size="10.00">l4/sys/linkage.h</text>
</a>
</g>
</g>
<!-- Node6&#45;&gt;Node7 -->
<g id="edge6" class="edge">
<title>Node6&#45;&gt;Node7</title>
<path fill="none" stroke="midnightblue" d="M620,-56.08C620,-49.01 620,-38.86 620,-29.99"/>
<polygon fill="midnightblue" stroke="midnightblue" points="623.5,-29.75 620,-19.75 616.5,-29.75 623.5,-29.75"/>
</g>
<!-- Node8&#45;&gt;Node5 -->
<g id="edge9" class="edge">
<title>Node8&#45;&gt;Node5</title>
<path fill="none" stroke="midnightblue" d="M703.19,-114.86C628.97,-104.69 481.06,-84.41 403.73,-73.82"/>
<polygon fill="midnightblue" stroke="midnightblue" points="404.13,-70.34 393.75,-72.45 403.18,-77.27 404.13,-70.34"/>
</g>
<!-- Node8&#45;&gt;Node6 -->
<g id="edge8" class="edge">
<title>Node8&#45;&gt;Node6</title>
<path fill="none" stroke="midnightblue" d="M727.72,-112.44C706.65,-103.56 673.48,-89.56 649.51,-79.45"/>
<polygon fill="midnightblue" stroke="midnightblue" points="650.76,-76.18 640.19,-75.52 648.04,-82.63 650.76,-76.18"/>
</g>
<!-- Node9&#45;&gt;Node6 -->
<g id="edge11" class="edge">
<title>Node9&#45;&gt;Node6</title>
<path fill="none" stroke="midnightblue" d="M534.39,-112.32C550.67,-103.7 575.87,-90.36 594.72,-80.39"/>
<polygon fill="midnightblue" stroke="midnightblue" points="596.45,-83.43 603.65,-75.65 593.18,-77.24 596.45,-83.43"/>
</g>
<!-- Node10&#45;&gt;Node5 -->
<g id="edge13" class="edge">
<title>Node10&#45;&gt;Node5</title>
<path fill="none" stroke="midnightblue" d="M354,-112.08C354,-105.01 354,-94.86 354,-85.99"/>
<polygon fill="midnightblue" stroke="midnightblue" points="357.5,-85.75 354,-75.75 350.5,-85.75 357.5,-85.75"/>
</g>
<!-- Node11&#45;&gt;Node4 -->
<g id="edge15" class="edge">
<title>Node11&#45;&gt;Node4</title>
<path fill="none" stroke="midnightblue" d="M257.98,-224.44C282.16,-215.44 320.42,-201.19 347.65,-191.05"/>
<polygon fill="midnightblue" stroke="midnightblue" points="348.98,-194.29 357.13,-187.52 346.54,-187.73 348.98,-194.29"/>
</g>
<!-- Node11&#45;&gt;Node5 -->
<g id="edge17" class="edge">
<title>Node11&#45;&gt;Node5</title>
<path fill="none" stroke="midnightblue" d="M230.39,-224.39C219.67,-203.08 195.85,-147.05 221,-112 239.81,-85.78 274.74,-74.64 304.08,-70"/>
<polygon fill="midnightblue" stroke="midnightblue" points="304.75,-73.44 314.19,-68.62 303.8,-66.51 304.75,-73.44"/>
</g>
<!-- Node11&#45;&gt;Node6 -->
<g id="edge16" class="edge">
<title>Node11&#45;&gt;Node6</title>
<path fill="none" stroke="midnightblue" d="M236.26,-224.2C240.03,-201.41 253.45,-140.32 292,-112 333.53,-81.5 477.74,-71.65 560.46,-68.49"/>
<polygon fill="midnightblue" stroke="midnightblue" points="560.61,-71.98 570.48,-68.12 560.36,-64.99 560.61,-71.98"/>
</g>
<!-- Node12&#45;&gt;Node4 -->
<g id="edge19" class="edge">
<title>Node12&#45;&gt;Node4</title>
<path fill="none" stroke="midnightblue" d="M262.97,-280.37C284.39,-261.81 335.07,-217.91 362.18,-194.44"/>
<polygon fill="midnightblue" stroke="midnightblue" points="364.81,-196.78 370.08,-187.59 360.23,-191.49 364.81,-196.78"/>
</g>
<!-- Node12&#45;&gt;Node11 -->
<g id="edge20" class="edge">
<title>Node12&#45;&gt;Node11</title>
<path fill="none" stroke="midnightblue" d="M250.03,-280.08C247.62,-272.85 244.14,-262.41 241.13,-253.4"/>
<polygon fill="midnightblue" stroke="midnightblue" points="244.4,-252.13 237.92,-243.75 237.76,-254.34 244.4,-252.13"/>
</g>
<!-- Node13 -->
<g id="node13" class="node">
<title>Node13</title>
<g id="a_node13"><a xlink:href="err_8h.html" target="_top" xlink:title="Error codes.">
<polygon fill="white" stroke="black" points="541,-224.5 541,-243.5 611,-243.5 611,-224.5 541,-224.5"/>
<text text-anchor="middle" x="576" y="-231.5" font-family="Helvetica,sans-Serif" font-size="10.00">l4/sys/err.h</text>
</a>
</g>
</g>
<!-- Node12&#45;&gt;Node13 -->
<g id="edge21" class="edge">
<title>Node12&#45;&gt;Node13</title>
<path fill="none" stroke="midnightblue" d="M288.8,-283.01C347.89,-273.14 465.74,-253.43 530.59,-242.59"/>
<polygon fill="midnightblue" stroke="midnightblue" points="531.25,-246.03 540.53,-240.93 530.09,-239.13 531.25,-246.03"/>
</g>
<!-- Node13&#45;&gt;Node6 -->
<g id="edge22" class="edge">
<title>Node13&#45;&gt;Node6</title>
<path fill="none" stroke="midnightblue" d="M580.34,-224.36C588.7,-207.23 606.95,-167.57 615,-132 618.48,-116.63 619.65,-98.76 620,-85.64"/>
<polygon fill="midnightblue" stroke="midnightblue" points="623.5,-85.58 620.13,-75.53 616.5,-85.49 623.5,-85.58"/>
</g>
<!-- Node14&#45;&gt;Node3 -->
<g id="edge45" class="edge">
<title>Node14&#45;&gt;Node3</title>
<path fill="none" stroke="midnightblue" d="M432.66,-692.39C341.89,-692.17 150.55,-686.83 100,-647 75.81,-627.94 76,-612.8 76,-582 76,-582 76,-582 76,-468 76,-433.86 76,-394.05 76,-371.21"/>
<polygon fill="midnightblue" stroke="midnightblue" points="79.5,-371.19 76,-361.19 72.5,-371.19 79.5,-371.19"/>
</g>
<!-- Node14&#45;&gt;Node4 -->
<g id="edge25" class="edge">
<title>Node14&#45;&gt;Node4</title>
<path fill="none" stroke="midnightblue" d="M432.64,-687.72C332.99,-677.57 114,-647.77 114,-582 114,-582 114,-582 114,-524 114,-432.12 -7.72,-420.65 28,-336 55.74,-270.27 79.71,-256.94 143,-224 201.44,-193.58 277.55,-183.55 327.55,-180.34"/>
<polygon fill="midnightblue" stroke="midnightblue" points="328.02,-183.82 337.8,-179.76 327.62,-176.84 328.02,-183.82"/>
</g>
<!-- Node14&#45;&gt;Node8 -->
<g id="edge24" class="edge">
<title>Node14&#45;&gt;Node8</title>
<path fill="none" stroke="midnightblue" d="M529.34,-687.61C628.35,-677.27 845,-647.19 845,-582 845,-582 845,-582 845,-289 845,-258.77 838.82,-250.88 825,-224 815.89,-206.27 781.24,-163.21 761.67,-139.44"/>
<polygon fill="midnightblue" stroke="midnightblue" points="764.29,-137.11 755.22,-131.64 758.89,-141.57 764.29,-137.11"/>
</g>
<!-- Node15 -->
<g id="node15" class="node">
<title>Node15</title>
<g id="a_node15"><a xlink:href="kobject_source.html" target="_top" xlink:title=" ">
<polygon fill="white" stroke="black" points="339.5,-515.5 339.5,-534.5 422.5,-534.5 422.5,-515.5 339.5,-515.5"/>
<text text-anchor="middle" x="381" y="-522.5" font-family="Helvetica,sans-Serif" font-size="10.00">l4/sys/kobject</text>
</a>
</g>
</g>
<!-- Node14&#45;&gt;Node15 -->
<g id="edge26" class="edge">
<title>Node14&#45;&gt;Node15</title>
<path fill="none" stroke="midnightblue" d="M469.98,-683.31C459.86,-674.89 444.96,-661.3 435,-647 411.88,-613.78 395.03,-569.06 386.75,-544.35"/>
<polygon fill="midnightblue" stroke="midnightblue" points="390.07,-543.22 383.65,-534.79 383.41,-545.38 390.07,-543.22"/>
</g>
<!-- Node22 -->
<g id="node22" class="node">
<title>Node22</title>
<g id="a_node22"><a xlink:href="sys_2meta.html" target="_top" xlink:title="Meta interface for getting dynamic type information about objects behind capabilities.">
<polygon fill="white" stroke="black" points="444,-627.5 444,-646.5 518,-646.5 518,-627.5 444,-627.5"/>
<text text-anchor="middle" x="481" y="-634.5" font-family="Helvetica,sans-Serif" font-size="10.00">l4/sys/meta</text>
</a>
</g>
</g>
<!-- Node14&#45;&gt;Node22 -->
<g id="edge46" class="edge">
<title>Node14&#45;&gt;Node22</title>
<path fill="none" stroke="midnightblue" d="M481,-683.08C481,-676.01 481,-665.86 481,-656.99"/>
<polygon fill="midnightblue" stroke="midnightblue" points="484.5,-656.75 481,-646.75 477.5,-656.75 484.5,-656.75"/>
</g>
<!-- Node15&#45;&gt;Node4 -->
<g id="edge34" class="edge">
<title>Node15&#45;&gt;Node4</title>
<path fill="none" stroke="midnightblue" d="M381.56,-515.16C383.76,-479 391.37,-338.94 385,-224 384.52,-215.36 383.53,-205.83 382.55,-197.77"/>
<polygon fill="midnightblue" stroke="midnightblue" points="385.99,-197.07 381.24,-187.6 379.05,-197.97 385.99,-197.07"/>
</g>
<!-- Node16 -->
<g id="node16" class="node">
<title>Node16</title>
<g id="a_node16"><a xlink:href="kernel__object_8h.html" target="_top" xlink:title="Kernel object system calls.">
<polygon fill="white" stroke="black" points="243.5,-403.5 243.5,-422.5 334.5,-422.5 334.5,-403.5 243.5,-403.5"/>
<text text-anchor="middle" x="289" y="-410.5" font-family="Helvetica,sans-Serif" font-size="10.00">kernel_object.h</text>
</a>
</g>
</g>
<!-- Node15&#45;&gt;Node16 -->
<g id="edge27" class="edge">
<title>Node15&#45;&gt;Node16</title>
<path fill="none" stroke="midnightblue" d="M373.78,-515.37C358.46,-497.05 322.5,-454.05 302.68,-430.36"/>
<polygon fill="midnightblue" stroke="midnightblue" points="305.29,-428.02 296.19,-422.59 299.92,-432.51 305.29,-428.02"/>
</g>
<!-- Node18 -->
<g id="node18" class="node">
<title>Node18</title>
<g id="a_node18"><a xlink:href="____typeinfo_8h.html" target="_top" xlink:title="Type information handling.">
<polygon fill="white" stroke="black" points="415.5,-459.5 415.5,-478.5 492.5,-478.5 492.5,-459.5 415.5,-459.5"/>
<text text-anchor="middle" x="454" y="-466.5" font-family="Helvetica,sans-Serif" font-size="10.00">__typeinfo.h</text>
</a>
</g>
</g>
<!-- Node15&#45;&gt;Node18 -->
<g id="edge35" class="edge">
<title>Node15&#45;&gt;Node18</title>
<path fill="none" stroke="midnightblue" d="M392.73,-515.32C403.84,-507.11 420.74,-494.6 433.98,-484.81"/>
<polygon fill="midnightblue" stroke="midnightblue" points="436.1,-487.59 442.06,-478.83 431.94,-481.97 436.1,-487.59"/>
</g>
<!-- Node16&#45;&gt;Node4 -->
<g id="edge28" class="edge">
<title>Node16&#45;&gt;Node4</title>
<path fill="none" stroke="midnightblue" d="M304,-403.26C316.18,-395.36 332.8,-382.59 342,-367 374.54,-311.86 379.64,-233.5 380.16,-197.9"/>
<polygon fill="midnightblue" stroke="midnightblue" points="383.66,-197.58 380.19,-187.56 376.66,-197.55 383.66,-197.58"/>
</g>
<!-- Node16&#45;&gt;Node6 -->
<g id="edge29" class="edge">
<title>Node16&#45;&gt;Node6</title>
<path fill="none" stroke="midnightblue" d="M306.03,-403.39C321.61,-395.11 344.93,-381.72 363,-367 473.7,-276.84 496.79,-246.55 582,-132 593.19,-116.96 603.77,-98.36 610.91,-84.92"/>
<polygon fill="midnightblue" stroke="midnightblue" points="614.15,-86.28 615.65,-75.79 607.94,-83.05 614.15,-86.28"/>
</g>
<!-- Node16&#45;&gt;Node11 -->
<g id="edge30" class="edge">
<title>Node16&#45;&gt;Node11</title>
<path fill="none" stroke="midnightblue" d="M246.61,-403.45C226.42,-397.02 204.09,-385.93 192,-367 168.11,-329.58 200.85,-277.68 221.11,-251.5"/>
<polygon fill="midnightblue" stroke="midnightblue" points="223.86,-253.66 227.39,-243.67 218.4,-249.28 223.86,-253.66"/>
</g>
<!-- Node16&#45;&gt;Node12 -->
<g id="edge33" class="edge">
<title>Node16&#45;&gt;Node12</title>
<path fill="none" stroke="midnightblue" d="M252.3,-403.35C233.17,-396.77 211.43,-385.58 200,-367 192.78,-355.26 194.21,-348.5 200,-336 205.92,-323.21 217.47,-312.72 228.28,-305.1"/>
<polygon fill="midnightblue" stroke="midnightblue" points="230.21,-308.02 236.67,-299.61 226.38,-302.16 230.21,-308.02"/>
</g>
<!-- Node17 -->
<g id="node17" class="node">
<title>Node17</title>
<g id="a_node17"><a xlink:href="____kernel__object__impl_8h.html" target="_top" xlink:title="Low&#45;level kernel debugger functions.">
<polygon fill="white" stroke="black" points="209,-336.5 209,-366.5 333,-366.5 333,-336.5 209,-336.5"/>
<text text-anchor="start" x="217" y="-354.5" font-family="Helvetica,sans-Serif" font-size="10.00">l4/sys/__kernel_object</text>
<text text-anchor="middle" x="271" y="-343.5" font-family="Helvetica,sans-Serif" font-size="10.00">_impl.h</text>
</a>
</g>
</g>
<!-- Node16&#45;&gt;Node17 -->
<g id="edge31" class="edge">
<title>Node16&#45;&gt;Node17</title>
<path fill="none" stroke="midnightblue" d="M286.42,-403.48C284.28,-396.4 281.13,-385.97 278.23,-376.39"/>
<polygon fill="midnightblue" stroke="midnightblue" points="281.49,-375.08 275.24,-366.52 274.79,-377.11 281.49,-375.08"/>
</g>
<!-- Node17&#45;&gt;Node12 -->
<g id="edge32" class="edge">
<title>Node17&#45;&gt;Node12</title>
<path fill="none" stroke="midnightblue" d="M266.73,-336.4C264.28,-328.29 261.17,-318.01 258.53,-309.28"/>
<polygon fill="midnightblue" stroke="midnightblue" points="261.86,-308.22 255.62,-299.66 255.16,-310.24 261.86,-308.22"/>
</g>
<!-- Node19 -->
<g id="node19" class="node">
<title>Node19</title>
<g id="a_node19"><a xlink:href="types.html" target="_top" xlink:title=" ">
<polygon fill="white" stroke="black" points="541,-342 541,-361 605,-361 605,-342 541,-342"/>
<text text-anchor="middle" x="573" y="-349" font-family="Helvetica,sans-Serif" font-size="10.00">cxx/types</text>
</a>
</g>
</g>
<!-- Node18&#45;&gt;Node19 -->
<g id="edge36" class="edge">
<title>Node18&#45;&gt;Node19</title>
<path fill="none" stroke="midnightblue" d="M466.05,-459.23C477.72,-450.53 495.71,-436.56 510,-423 528.31,-405.62 547.36,-383.68 559.65,-368.92"/>
<polygon fill="midnightblue" stroke="midnightblue" points="562.39,-371.1 566.05,-361.16 556.99,-366.65 562.39,-371.1"/>
</g>
<!-- Node20 -->
<g id="node20" class="node">
<title>Node20</title>
<g id="a_node20"><a xlink:href="ipc__basics_source.html" target="_top" xlink:title=" ">
<polygon fill="white" stroke="black" points="633.5,-403.5 633.5,-422.5 720.5,-422.5 720.5,-403.5 633.5,-403.5"/>
<text text-anchor="middle" x="677" y="-410.5" font-family="Helvetica,sans-Serif" font-size="10.00">cxx/ipc_basics</text>
</a>
</g>
</g>
<!-- Node18&#45;&gt;Node20 -->
<g id="edge37" class="edge">
<title>Node18&#45;&gt;Node20</title>
<path fill="none" stroke="midnightblue" d="M489.34,-459.44C527.91,-450.1 589.78,-435.12 631.85,-424.93"/>
<polygon fill="midnightblue" stroke="midnightblue" points="632.93,-428.27 641.83,-422.52 631.29,-421.47 632.93,-428.27"/>
</g>
<!-- Node21 -->
<g id="node21" class="node">
<title>Node21</title>
<g id="a_node21"><a xlink:href="capability_8h_source.html" target="_top" xlink:title=" ">
<polygon fill="white" stroke="black" points="409,-403.5 409,-422.5 501,-422.5 501,-403.5 409,-403.5"/>
<text text-anchor="middle" x="455" y="-410.5" font-family="Helvetica,sans-Serif" font-size="10.00">cxx/capability.h</text>
</a>
</g>
</g>
<!-- Node18&#45;&gt;Node21 -->
<g id="edge41" class="edge">
<title>Node18&#45;&gt;Node21</title>
<path fill="none" stroke="midnightblue" d="M454.17,-459.08C454.3,-452.01 454.48,-441.86 454.65,-432.99"/>
<polygon fill="midnightblue" stroke="midnightblue" points="458.15,-432.81 454.84,-422.75 451.15,-432.68 458.15,-432.81"/>
</g>
<!-- Node20&#45;&gt;Node11 -->
<g id="edge39" class="edge">
<title>Node20&#45;&gt;Node11</title>
<path fill="none" stroke="midnightblue" d="M670.96,-403.47C658.16,-385.61 628.29,-345.15 614,-336 509.12,-268.84 360.65,-246.09 284.41,-238.57"/>
<polygon fill="midnightblue" stroke="midnightblue" points="284.42,-235.06 274.14,-237.61 283.77,-242.03 284.42,-235.06"/>
</g>
<!-- Node20&#45;&gt;Node13 -->
<g id="edge40" class="edge">
<title>Node20&#45;&gt;Node13</title>
<path fill="none" stroke="midnightblue" d="M674.31,-403.27C669.68,-388.82 659.52,-359.23 647,-336 629.98,-304.42 604.87,-270.96 589.52,-251.58"/>
<polygon fill="midnightblue" stroke="midnightblue" points="592.2,-249.34 583.22,-243.72 586.74,-253.71 592.2,-249.34"/>
</g>
<!-- Node20&#45;&gt;Node19 -->
<g id="edge38" class="edge">
<title>Node20&#45;&gt;Node19</title>
<path fill="none" stroke="midnightblue" d="M662.1,-403.48C645.03,-393.71 616.84,-377.58 596.74,-366.08"/>
<polygon fill="midnightblue" stroke="midnightblue" points="598.29,-362.94 587.87,-361.01 594.81,-369.01 598.29,-362.94"/>
</g>
<!-- Node21&#45;&gt;Node3 -->
<g id="edge44" class="edge">
<title>Node21&#45;&gt;Node3</title>
<path fill="none" stroke="midnightblue" d="M408.91,-404.76C337.03,-393.48 198.86,-371.79 125.15,-360.22"/>
<polygon fill="midnightblue" stroke="midnightblue" points="125.61,-356.75 115.19,-358.65 124.53,-363.66 125.61,-356.75"/>
</g>
<!-- Node21&#45;&gt;Node4 -->
<g id="edge43" class="edge">
<title>Node21&#45;&gt;Node4</title>
<path fill="none" stroke="midnightblue" d="M454.34,-403.36C451.97,-375.94 442.45,-288.86 413,-224 408.35,-213.76 401.14,-203.56 394.64,-195.47"/>
<polygon fill="midnightblue" stroke="midnightblue" points="397.14,-193 388.02,-187.61 391.78,-197.51 397.14,-193"/>
</g>
<!-- Node21&#45;&gt;Node8 -->
<g id="edge42" class="edge">
<title>Node21&#45;&gt;Node8</title>
<path fill="none" stroke="midnightblue" d="M464.01,-403.11C478.38,-388.91 507.4,-360.27 532,-336 606.94,-262.07 696.54,-173.73 732.22,-138.56"/>
<polygon fill="midnightblue" stroke="midnightblue" points="734.69,-141.03 739.36,-131.52 729.78,-136.05 734.69,-141.03"/>
</g>
<!-- Node22&#45;&gt;Node15 -->
<g id="edge47" class="edge">
<title>Node22&#45;&gt;Node15</title>
<path fill="none" stroke="midnightblue" d="M473.15,-627.37C456.43,-608.97 417.06,-565.67 395.59,-542.05"/>
<polygon fill="midnightblue" stroke="midnightblue" points="398.13,-539.64 388.81,-534.59 392.95,-544.35 398.13,-539.64"/>
</g>
<!-- Node23 -->
<g id="node23" class="node">
<title>Node23</title>
<g id="a_node23"><a xlink:href="ipc__iface.html" target="_top" xlink:title="Interface Definition Language.">
<polygon fill="white" stroke="black" points="441,-515.5 441,-534.5 521,-534.5 521,-515.5 441,-515.5"/>
<text text-anchor="middle" x="481" y="-522.5" font-family="Helvetica,sans-Serif" font-size="10.00">cxx/ipc_iface</text>
</a>
</g>
</g>
<!-- Node22&#45;&gt;Node23 -->
<g id="edge48" class="edge">
<title>Node22&#45;&gt;Node23</title>
<path fill="none" stroke="midnightblue" d="M481,-627.37C481,-609.62 481,-568.67 481,-544.6"/>
<polygon fill="midnightblue" stroke="midnightblue" points="484.5,-544.59 481,-534.59 477.5,-544.59 484.5,-544.59"/>
</g>
<!-- Node25 -->
<g id="node25" class="node">
<title>Node25</title>
<g id="a_node25"><a xlink:href="ipc__string_source.html" target="_top" xlink:title=" ">
<polygon fill="white" stroke="black" points="597,-571.5 597,-590.5 681,-590.5 681,-571.5 597,-571.5"/>
<text text-anchor="middle" x="639" y="-578.5" font-family="Helvetica,sans-Serif" font-size="10.00">cxx/ipc_string</text>
</a>
</g>
</g>
<!-- Node22&#45;&gt;Node25 -->
<g id="edge55" class="edge">
<title>Node22&#45;&gt;Node25</title>
<path fill="none" stroke="midnightblue" d="M506.04,-627.44C532.62,-618.36 574.81,-603.94 604.52,-593.78"/>
<polygon fill="midnightblue" stroke="midnightblue" points="605.75,-597.06 614.08,-590.52 603.49,-590.44 605.75,-597.06"/>
</g>
<!-- Node23&#45;&gt;Node18 -->
<g id="edge54" class="edge">
<title>Node23&#45;&gt;Node18</title>
<path fill="none" stroke="midnightblue" d="M476.54,-515.08C472.85,-507.69 467.48,-496.95 462.91,-487.81"/>
<polygon fill="midnightblue" stroke="midnightblue" points="465.98,-486.13 458.38,-478.75 459.72,-489.26 465.98,-486.13"/>
</g>
<!-- Node23&#45;&gt;Node20 -->
<g id="edge49" class="edge">
<title>Node23&#45;&gt;Node20</title>
<path fill="none" stroke="midnightblue" d="M521.13,-520.16C571.52,-514.44 653.73,-501.83 673,-479 683.59,-466.46 683.45,-447.23 681.35,-432.94"/>
<polygon fill="midnightblue" stroke="midnightblue" points="684.72,-431.93 679.41,-422.76 677.85,-433.24 684.72,-431.93"/>
</g>
<!-- Node24 -->
<g id="node24" class="node">
<title>Node24</title>
<g id="a_node24"><a xlink:href="ipc__types.html" target="_top" xlink:title=" ">
<polygon fill="white" stroke="black" points="549.5,-459.5 549.5,-478.5 664.5,-478.5 664.5,-459.5 549.5,-459.5"/>
<text text-anchor="middle" x="607" y="-466.5" font-family="Helvetica,sans-Serif" font-size="10.00">l4/sys/cxx/ipc_types</text>
</a>
</g>
</g>
<!-- Node23&#45;&gt;Node24 -->
<g id="edge50" class="edge">
<title>Node23&#45;&gt;Node24</title>
<path fill="none" stroke="midnightblue" d="M500.97,-515.44C521.61,-506.6 554.06,-492.69 577.63,-482.59"/>
<polygon fill="midnightblue" stroke="midnightblue" points="579.32,-485.67 587.13,-478.52 576.56,-479.24 579.32,-485.67"/>
</g>
<!-- Node24&#45;&gt;Node19 -->
<g id="edge52" class="edge">
<title>Node24&#45;&gt;Node19</title>
<path fill="none" stroke="midnightblue" d="M604.44,-459.32C598.96,-440.67 585.94,-396.44 578.48,-371.13"/>
<polygon fill="midnightblue" stroke="midnightblue" points="581.77,-369.89 575.59,-361.28 575.05,-371.86 581.77,-369.89"/>
</g>
<!-- Node24&#45;&gt;Node20 -->
<g id="edge53" class="edge">
<title>Node24&#45;&gt;Node20</title>
<path fill="none" stroke="midnightblue" d="M618.25,-459.32C628.8,-451.18 644.8,-438.84 657.44,-429.09"/>
<polygon fill="midnightblue" stroke="midnightblue" points="659.77,-431.71 665.55,-422.83 655.49,-426.17 659.77,-431.71"/>
</g>
<!-- Node24&#45;&gt;Node21 -->
<g id="edge51" class="edge">
<title>Node24&#45;&gt;Node21</title>
<path fill="none" stroke="midnightblue" d="M582.92,-459.44C557.46,-450.4 517.11,-436.06 488.54,-425.92"/>
<polygon fill="midnightblue" stroke="midnightblue" points="489.57,-422.57 478.97,-422.52 487.22,-429.16 489.57,-422.57"/>
</g>
<!-- Node25&#45;&gt;Node19 -->
<g id="edge56" class="edge">
<title>Node25&#45;&gt;Node19</title>
<path fill="none" stroke="midnightblue" d="M625.45,-571.45C602.66,-556.17 557.45,-521.73 540,-479 524.62,-441.34 546.95,-394.42 561.72,-369.65"/>
<polygon fill="midnightblue" stroke="midnightblue" points="564.78,-371.37 567.1,-361.04 558.84,-367.67 564.78,-371.37"/>
</g>
<!-- Node25&#45;&gt;Node20 -->
<g id="edge57" class="edge">
<title>Node25&#45;&gt;Node20</title>
<path fill="none" stroke="midnightblue" d="M645.39,-571.4C657.38,-554.67 682.85,-516.11 692,-479 695.89,-463.21 691,-445.18 685.79,-432.12"/>
<polygon fill="midnightblue" stroke="midnightblue" points="688.94,-430.59 681.7,-422.85 682.53,-433.41 688.94,-430.59"/>
</g>
<!-- Node26 -->
<g id="node26" class="node">
<title>Node26</title>
<g id="a_node26"><a xlink:href="ipc__array_source.html" target="_top" xlink:title=" ">
<polygon fill="white" stroke="black" points="755,-515.5 755,-534.5 817,-534.5 817,-515.5 755,-515.5"/>
<text text-anchor="middle" x="786" y="-522.5" font-family="Helvetica,sans-Serif" font-size="10.00">ipc_array</text>
</a>
</g>
</g>
<!-- Node25&#45;&gt;Node26 -->
<g id="edge58" class="edge">
<title>Node25&#45;&gt;Node26</title>
<path fill="none" stroke="midnightblue" d="M662.29,-571.44C686.81,-562.44 725.6,-548.19 753.2,-538.05"/>
<polygon fill="midnightblue" stroke="midnightblue" points="754.64,-541.25 762.82,-534.52 752.22,-534.68 754.64,-541.25"/>
</g>
<!-- Node26&#45;&gt;Node19 -->
<g id="edge59" class="edge">
<title>Node26&#45;&gt;Node19</title>
<path fill="none" stroke="midnightblue" d="M784.7,-515.24C780.85,-492.57 767.26,-431.71 729,-403 695.37,-377.76 648.61,-364.83 615.07,-358.41"/>
<polygon fill="midnightblue" stroke="midnightblue" points="615.57,-354.95 605.11,-356.62 614.33,-361.84 615.57,-354.95"/>
</g>
<!-- Node26&#45;&gt;Node20 -->
<g id="edge60" class="edge">
<title>Node26&#45;&gt;Node20</title>
<path fill="none" stroke="midnightblue" d="M781.96,-515.2C775.54,-501.89 761.98,-476.36 745,-459 732.77,-446.5 716.52,-435.59 702.97,-427.64"/>
<polygon fill="midnightblue" stroke="midnightblue" points="704.53,-424.5 694.1,-422.63 701.08,-430.6 704.53,-424.5"/>
</g>
<!-- Node26&#45;&gt;Node24 -->
<g id="edge61" class="edge">
<title>Node26&#45;&gt;Node24</title>
<path fill="none" stroke="midnightblue" d="M757.64,-515.44C727.26,-506.28 678.89,-491.69 645.18,-481.52"/>
<polygon fill="midnightblue" stroke="midnightblue" points="645.82,-478.05 635.23,-478.52 643.79,-484.76 645.82,-478.05"/>
</g>
<!-- Node27&#45;&gt;Node14 -->
<g id="edge63" class="edge">
<title>Node27&#45;&gt;Node14</title>
<path fill="none" stroke="midnightblue" d="M653.52,-739.44C618.28,-730.16 561.9,-715.31 523.24,-705.13"/>
<polygon fill="midnightblue" stroke="midnightblue" points="523.89,-701.68 513.33,-702.52 522.11,-708.45 523.89,-701.68"/>
</g>
<!-- Node28&#45;&gt;Node8 -->
<g id="edge66" class="edge">
<title>Node28&#45;&gt;Node8</title>
<path fill="none" stroke="midnightblue" d="M910.64,-741.91C988.01,-728.02 1161,-691.03 1161,-638 1161,-638 1161,-638 1161,-233 1161,-159.7 914.98,-134.02 802.7,-126.12"/>
<polygon fill="midnightblue" stroke="midnightblue" points="802.81,-122.62 792.59,-125.43 802.33,-129.6 802.81,-122.62"/>
</g>
<!-- Node28&#45;&gt;Node14 -->
<g id="edge65" class="edge">
<title>Node28&#45;&gt;Node14</title>
<path fill="none" stroke="midnightblue" d="M837.38,-742.97C768.97,-733.57 621.26,-713.27 539.11,-701.98"/>
<polygon fill="midnightblue" stroke="midnightblue" points="539.57,-698.51 529.18,-700.62 538.61,-705.45 539.57,-698.51"/>
</g>
<!-- Node29 -->
<g id="node29" class="node">
<title>Node29</title>
<g id="a_node29"><a xlink:href="env_8h.html" target="_top" xlink:title="Environment interface.">
<polygon fill="white" stroke="black" points="899,-342 899,-361 967,-361 967,-342 899,-342"/>
<text text-anchor="middle" x="933" y="-349" font-family="Helvetica,sans-Serif" font-size="10.00">l4/re/env.h</text>
</a>
</g>
</g>
<!-- Node28&#45;&gt;Node29 -->
<g id="edge67" class="edge">
<title>Node28&#45;&gt;Node29</title>
<path fill="none" stroke="midnightblue" d="M877.64,-739.34C885.01,-721 901,-676.74 901,-638 901,-638 901,-638 901,-468 901,-432.43 915.27,-392.87 924.75,-370.5"/>
<polygon fill="midnightblue" stroke="midnightblue" points="927.99,-371.82 928.82,-361.26 921.59,-369 927.99,-371.82"/>
</g>
<!-- Node29&#45;&gt;Node4 -->
<g id="edge69" class="edge">
<title>Node29&#45;&gt;Node4</title>
<path fill="none" stroke="midnightblue" d="M915.45,-341.95C868.58,-319.46 736.16,-258 620,-224 556.57,-205.44 481.38,-192.79 432.28,-185.74"/>
<polygon fill="midnightblue" stroke="midnightblue" points="432.61,-182.26 422.22,-184.32 431.63,-189.19 432.61,-182.26"/>
</g>
<!-- Node29&#45;&gt;Node6 -->
<g id="edge76" class="edge">
<title>Node29&#45;&gt;Node6</title>
<path fill="none" stroke="midnightblue" d="M967.23,-350.76C1039.07,-349.34 1199,-334.94 1199,-235 1199,-235 1199,-235 1199,-177 1199,-124.57 827.88,-85.59 679.88,-72.12"/>
<polygon fill="midnightblue" stroke="midnightblue" points="679.89,-68.61 669.62,-71.2 679.26,-75.58 679.89,-68.61"/>
</g>
<!-- Node29&#45;&gt;Node8 -->
<g id="edge68" class="edge">
<title>Node29&#45;&gt;Node8</title>
<path fill="none" stroke="midnightblue" d="M956.04,-341.87C1003.07,-322.93 1102.71,-275.32 1066,-224 1035.07,-180.75 884.95,-147.59 802.5,-132.29"/>
<polygon fill="midnightblue" stroke="midnightblue" points="803.02,-128.83 792.56,-130.47 801.76,-135.71 803.02,-128.83"/>
</g>
<!-- Node30 -->
<g id="node30" class="node">
<title>Node30</title>
<g id="a_node30"><a xlink:href="sys_2kip_8h.html" target="_top" xlink:title="Kernel Info Page access functions.">
<polygon fill="white" stroke="black" points="911,-280.5 911,-299.5 983,-299.5 983,-280.5 911,-280.5"/>
<text text-anchor="middle" x="947" y="-287.5" font-family="Helvetica,sans-Serif" font-size="10.00">l4/sys/kip.h</text>
</a>
</g>
</g>
<!-- Node29&#45;&gt;Node30 -->
<g id="edge70" class="edge">
<title>Node29&#45;&gt;Node30</title>
<path fill="none" stroke="midnightblue" d="M935.01,-341.98C937,-333.49 940.13,-320.2 942.69,-309.32"/>
<polygon fill="midnightblue" stroke="midnightblue" points="946.11,-310.04 945,-299.51 939.3,-308.44 946.11,-310.04"/>
</g>
<!-- Node33 -->
<g id="node33" class="node">
<title>Node33</title>
<g id="a_node33"><a xlink:href="l4_2re_2consts_8h.html" target="_top" xlink:title="Constants.">
<polygon fill="white" stroke="black" points="811,-168.5 811,-187.5 893,-187.5 893,-168.5 811,-168.5"/>
<text text-anchor="middle" x="852" y="-175.5" font-family="Helvetica,sans-Serif" font-size="10.00">l4/re/consts.h</text>
</a>
</g>
</g>
<!-- Node29&#45;&gt;Node33 -->
<g id="edge77" class="edge">
<title>Node29&#45;&gt;Node33</title>
<path fill="none" stroke="midnightblue" d="M927.07,-341.81C920.49,-331.93 909.75,-315.22 902,-300 884.01,-264.7 867.34,-221.37 858.53,-197.32"/>
<polygon fill="midnightblue" stroke="midnightblue" points="861.75,-195.93 855.06,-187.72 855.17,-198.31 861.75,-195.93"/>
</g>
<!-- Node30&#45;&gt;Node5 -->
<g id="edge72" class="edge">
<title>Node30&#45;&gt;Node5</title>
<path fill="none" stroke="midnightblue" d="M945.87,-280.34C942.69,-258.92 931.81,-202.66 902,-168 868.53,-129.09 849.98,-127.33 801,-112 728.03,-89.16 504.64,-74.91 404.04,-69.49"/>
<polygon fill="midnightblue" stroke="midnightblue" points="404,-65.98 393.83,-68.95 403.63,-72.97 404,-65.98"/>
</g>
<!-- Node30&#45;&gt;Node6 -->
<g id="edge71" class="edge">
<title>Node30&#45;&gt;Node6</title>
<path fill="none" stroke="midnightblue" d="M983.22,-284.35C1024.09,-277.28 1082.84,-260.56 1066,-224 1033.95,-154.43 1004.8,-143.56 935,-112 890.68,-91.96 758.29,-78.2 679.96,-71.56"/>
<polygon fill="midnightblue" stroke="midnightblue" points="680,-68.05 669.75,-70.71 679.42,-75.03 680,-68.05"/>
</g>
<!-- Node31 -->
<g id="node31" class="node">
<title>Node31</title>
<g id="a_node31"><a xlink:title=" ">
<polygon fill="white" stroke="#bfbfbf" points="949.5,-224.5 949.5,-243.5 1056.5,-243.5 1056.5,-224.5 949.5,-224.5"/>
<text text-anchor="middle" x="1003" y="-231.5" font-family="Helvetica,sans-Serif" font-size="10.00">l4/sys/__kip&#45;arch.h</text>
</a>
</g>
</g>
<!-- Node30&#45;&gt;Node31 -->
<g id="edge73" class="edge">
<title>Node30&#45;&gt;Node31</title>
<path fill="none" stroke="midnightblue" d="M956,-280.32C964.19,-272.42 976.51,-260.55 986.47,-250.94"/>
<polygon fill="midnightblue" stroke="midnightblue" points="989.07,-253.29 993.84,-243.83 984.21,-248.26 989.07,-253.29"/>
</g>
<!-- Node32 -->
<g id="node32" class="node">
<title>Node32</title>
<g id="a_node32"><a xlink:href="____kip-64bit_8h_source.html" target="_top" xlink:title=" ">
<polygon fill="white" stroke="black" points="705.5,-224.5 705.5,-243.5 816.5,-243.5 816.5,-224.5 705.5,-224.5"/>
<text text-anchor="middle" x="761" y="-231.5" font-family="Helvetica,sans-Serif" font-size="10.00">l4/sys/__kip&#45;64bit.h</text>
</a>
</g>
</g>
<!-- Node30&#45;&gt;Node32 -->
<g id="edge74" class="edge">
<title>Node30&#45;&gt;Node32</title>
<path fill="none" stroke="midnightblue" d="M917.53,-280.44C885.83,-271.24 835.27,-256.56 800.23,-246.39"/>
<polygon fill="midnightblue" stroke="midnightblue" points="800.91,-242.94 790.33,-243.52 798.96,-249.67 800.91,-242.94"/>
</g>
<!-- Node32&#45;&gt;Node4 -->
<g id="edge75" class="edge">
<title>Node32&#45;&gt;Node4</title>
<path fill="none" stroke="midnightblue" d="M705.19,-225.09C631.81,-214.69 503.83,-196.55 432.26,-186.41"/>
<polygon fill="midnightblue" stroke="midnightblue" points="432.51,-182.91 422.12,-184.97 431.53,-189.84 432.51,-182.91"/>
</g>
<!-- Node33&#45;&gt;Node8 -->
<g id="edge78" class="edge">
<title>Node33&#45;&gt;Node8</title>
<path fill="none" stroke="midnightblue" d="M835.29,-168.32C818.69,-159.7 793,-146.36 773.78,-136.39"/>
<polygon fill="midnightblue" stroke="midnightblue" points="775.16,-133.16 764.67,-131.65 771.93,-139.37 775.16,-133.16"/>
</g>
<!-- Node35 -->
<g id="node35" class="node">
<title>Node35</title>
<g id="a_node35"><a xlink:href="type__traits_8h_source.html" target="_top" xlink:title=" ">
<polygon fill="white" stroke="black" points="1189.5,-683.5 1189.5,-702.5 1288.5,-702.5 1288.5,-683.5 1189.5,-683.5"/>
<text text-anchor="middle" x="1239" y="-690.5" font-family="Helvetica,sans-Serif" font-size="10.00">bits/type_traits.h</text>
</a>
</g>
</g>
<!-- Node34&#45;&gt;Node35 -->
<g id="edge80" class="edge">
<title>Node34&#45;&gt;Node35</title>
<path fill="none" stroke="midnightblue" d="M1098.46,-739.44C1126.68,-730.32 1171.54,-715.81 1202.97,-705.65"/>
<polygon fill="midnightblue" stroke="midnightblue" points="1204.22,-708.92 1212.66,-702.52 1202.07,-702.26 1204.22,-708.92"/>
</g>
</g>
</svg>
