<?xml version="1.0" encoding="UTF-8" standalone="no"?>
<!DOCTYPE svg PUBLIC "-//W3C//DTD SVG 1.1//EN"
 "http://www.w3.org/Graphics/SVG/1.1/DTD/svg11.dtd">
<!-- Generated by graphviz version 2.43.0 (0)
 -->
<!-- Title: l4/re/util/cap Pages: 1 -->
<svg width="788pt" height="823pt"
 viewBox="0.00 0.00 788.25 823.00" xmlns="http://www.w3.org/2000/svg" xmlns:xlink="http://www.w3.org/1999/xlink">
<g id="graph0" class="graph" transform="scale(1 1) rotate(0) translate(4 819)">
<title>l4/re/util/cap</title>
<polygon fill="white" stroke="transparent" points="-4,4 -4,-819 784.25,-819 784.25,4 -4,4"/>
<!-- Node1 -->
<g id="node1" class="node">
<title>Node1</title>
<g id="a_node1"><a xlink:title="Capability utility functions.">
<polygon fill="#bfbfbf" stroke="black" points="50.5,-795.5 50.5,-814.5 127.5,-814.5 127.5,-795.5 50.5,-795.5"/>
<text text-anchor="middle" x="89" y="-802.5" font-family="Helvetica,sans-Serif" font-size="10.00">l4/re/util/cap</text>
</a>
</g>
</g>
<!-- Node2 -->
<g id="node2" class="node">
<title>Node2</title>
<g id="a_node2"><a xlink:href="task.html" target="_top" xlink:title="Common task related definitions.">
<polygon fill="white" stroke="black" points="54.5,-739.5 54.5,-758.5 123.5,-758.5 123.5,-739.5 54.5,-739.5"/>
<text text-anchor="middle" x="89" y="-746.5" font-family="Helvetica,sans-Serif" font-size="10.00">l4/sys/task</text>
</a>
</g>
</g>
<!-- Node1&#45;&gt;Node2 -->
<g id="edge1" class="edge">
<title>Node1&#45;&gt;Node2</title>
<path fill="none" stroke="midnightblue" d="M89,-795.08C89,-788.01 89,-777.86 89,-768.99"/>
<polygon fill="midnightblue" stroke="midnightblue" points="92.5,-768.75 89,-758.75 85.5,-768.75 92.5,-768.75"/>
</g>
<!-- Node3 -->
<g id="node3" class="node">
<title>Node3</title>
<g id="a_node3"><a xlink:href="l4_2sys_2task_8h.html" target="_top" xlink:title="Common task related definitions.">
<polygon fill="white" stroke="black" points="193,-342 193,-361 271,-361 271,-342 193,-342"/>
<text text-anchor="middle" x="232" y="-349" font-family="Helvetica,sans-Serif" font-size="10.00">l4/sys/task.h</text>
</a>
</g>
</g>
<!-- Node2&#45;&gt;Node3 -->
<g id="edge2" class="edge">
<title>Node2&#45;&gt;Node3</title>
<path fill="none" stroke="midnightblue" d="M89.07,-739.28C89.53,-713.1 92.62,-633.18 113,-571 139.43,-490.37 195.37,-404.82 219.97,-369.38"/>
<polygon fill="midnightblue" stroke="midnightblue" points="222.89,-371.32 225.77,-361.12 217.16,-367.29 222.89,-371.32"/>
</g>
<!-- Node14 -->
<g id="node14" class="node">
<title>Node14</title>
<g id="a_node14"><a xlink:href="capability.html" target="_top" xlink:title="L4::Cap related definitions.">
<polygon fill="white" stroke="black" points="124,-683.5 124,-702.5 220,-702.5 220,-683.5 124,-683.5"/>
<text text-anchor="middle" x="172" y="-690.5" font-family="Helvetica,sans-Serif" font-size="10.00">l4/sys/capability</text>
</a>
</g>
</g>
<!-- Node2&#45;&gt;Node14 -->
<g id="edge23" class="edge">
<title>Node2&#45;&gt;Node14</title>
<path fill="none" stroke="midnightblue" d="M102.34,-739.32C115.16,-730.98 134.78,-718.21 149.94,-708.35"/>
<polygon fill="midnightblue" stroke="midnightblue" points="152.22,-711.04 158.7,-702.65 148.41,-705.17 152.22,-711.04"/>
</g>
<!-- Node4 -->
<g id="node4" class="node">
<title>Node4</title>
<g id="a_node4"><a xlink:href="l4_2sys_2types_8h.html" target="_top" xlink:title="Common L4 ABI Data Types.">
<polygon fill="white" stroke="black" points="165,-168.5 165,-187.5 249,-187.5 249,-168.5 165,-168.5"/>
<text text-anchor="middle" x="207" y="-175.5" font-family="Helvetica,sans-Serif" font-size="10.00">l4/sys/types.h</text>
</a>
</g>
</g>
<!-- Node3&#45;&gt;Node4 -->
<g id="edge3" class="edge">
<title>Node3&#45;&gt;Node4</title>
<path fill="none" stroke="midnightblue" d="M230.73,-341.76C226.85,-315.15 215.12,-234.71 209.75,-197.84"/>
<polygon fill="midnightblue" stroke="midnightblue" points="213.15,-196.91 208.24,-187.52 206.22,-197.92 213.15,-196.91"/>
</g>
<!-- Node11 -->
<g id="node11" class="node">
<title>Node11</title>
<g id="a_node11"><a xlink:href="l4_2sys_2utcb_8h.html" target="_top" xlink:title="UTCB definitions.">
<polygon fill="white" stroke="black" points="276,-224.5 276,-243.5 354,-243.5 354,-224.5 276,-224.5"/>
<text text-anchor="middle" x="315" y="-231.5" font-family="Helvetica,sans-Serif" font-size="10.00">l4/sys/utcb.h</text>
</a>
</g>
</g>
<!-- Node3&#45;&gt;Node11 -->
<g id="edge14" class="edge">
<title>Node3&#45;&gt;Node11</title>
<path fill="none" stroke="midnightblue" d="M238.24,-341.82C251.94,-322.76 284.86,-276.95 302.81,-251.96"/>
<polygon fill="midnightblue" stroke="midnightblue" points="305.7,-253.95 308.69,-243.78 300.01,-249.86 305.7,-253.95"/>
</g>
<!-- Node12 -->
<g id="node12" class="node">
<title>Node12</title>
<g id="a_node12"><a xlink:href="l4_2sys_2ipc_8h.html" target="_top" xlink:title="Common IPC interface.">
<polygon fill="white" stroke="black" points="340.5,-280.5 340.5,-299.5 411.5,-299.5 411.5,-280.5 340.5,-280.5"/>
<text text-anchor="middle" x="376" y="-287.5" font-family="Helvetica,sans-Serif" font-size="10.00">l4/sys/ipc.h</text>
</a>
</g>
</g>
<!-- Node3&#45;&gt;Node12 -->
<g id="edge18" class="edge">
<title>Node3&#45;&gt;Node12</title>
<path fill="none" stroke="midnightblue" d="M252.63,-341.98C277.12,-331.86 318.15,-314.9 346.11,-303.35"/>
<polygon fill="midnightblue" stroke="midnightblue" points="347.5,-306.56 355.41,-299.51 344.83,-300.09 347.5,-306.56"/>
</g>
<!-- Node5 -->
<g id="node5" class="node">
<title>Node5</title>
<g id="a_node5"><a xlink:href="l4_2sys_2l4int_8h.html" target="_top" xlink:title="Fixed sized integer types, generic version.">
<polygon fill="white" stroke="black" points="131.5,-56.5 131.5,-75.5 210.5,-75.5 210.5,-56.5 131.5,-56.5"/>
<text text-anchor="middle" x="171" y="-63.5" font-family="Helvetica,sans-Serif" font-size="10.00">l4/sys/l4int.h</text>
</a>
</g>
</g>
<!-- Node4&#45;&gt;Node5 -->
<g id="edge4" class="edge">
<title>Node4&#45;&gt;Node5</title>
<path fill="none" stroke="midnightblue" d="M190.37,-168.46C177.51,-160.84 160.66,-148.36 153,-132 145.81,-116.64 152.52,-97.85 159.7,-84.43"/>
<polygon fill="midnightblue" stroke="midnightblue" points="162.76,-86.13 164.82,-75.74 156.73,-82.58 162.76,-86.13"/>
</g>
<!-- Node6 -->
<g id="node6" class="node">
<title>Node6</title>
<g id="a_node6"><a xlink:href="compiler_8h.html" target="_top" xlink:title="L4 compiler related defines.">
<polygon fill="white" stroke="black" points="415.5,-56.5 415.5,-75.5 514.5,-75.5 514.5,-56.5 415.5,-56.5"/>
<text text-anchor="middle" x="465" y="-63.5" font-family="Helvetica,sans-Serif" font-size="10.00">l4/sys/compiler.h</text>
</a>
</g>
</g>
<!-- Node4&#45;&gt;Node6 -->
<g id="edge5" class="edge">
<title>Node4&#45;&gt;Node6</title>
<path fill="none" stroke="midnightblue" d="M249.38,-172.47C305.05,-165.84 399.03,-152.04 427,-132 442.9,-120.6 453.2,-100.32 459.01,-85.43"/>
<polygon fill="midnightblue" stroke="midnightblue" points="462.4,-86.34 462.46,-75.75 455.81,-83.99 462.4,-86.34"/>
</g>
<!-- Node8 -->
<g id="node8" class="node">
<title>Node8</title>
<g id="a_node8"><a xlink:href="l4_2sys_2consts_8h.html" target="_top" xlink:title="Common constants.">
<polygon fill="white" stroke="black" points="162.5,-112.5 162.5,-131.5 251.5,-131.5 251.5,-112.5 162.5,-112.5"/>
<text text-anchor="middle" x="207" y="-119.5" font-family="Helvetica,sans-Serif" font-size="10.00">l4/sys/consts.h</text>
</a>
</g>
</g>
<!-- Node4&#45;&gt;Node8 -->
<g id="edge7" class="edge">
<title>Node4&#45;&gt;Node8</title>
<path fill="none" stroke="midnightblue" d="M207,-168.08C207,-161.01 207,-150.86 207,-141.99"/>
<polygon fill="midnightblue" stroke="midnightblue" points="210.5,-141.75 207,-131.75 203.5,-141.75 210.5,-141.75"/>
</g>
<!-- Node9 -->
<g id="node9" class="node">
<title>Node9</title>
<g id="a_node9"><a xlink:href="____l4__fpage_8h_source.html" target="_top" xlink:title=" ">
<polygon fill="white" stroke="black" points="308,-112.5 308,-131.5 418,-131.5 418,-112.5 308,-112.5"/>
<text text-anchor="middle" x="363" y="-119.5" font-family="Helvetica,sans-Serif" font-size="10.00">l4/sys/__l4_fpage.h</text>
</a>
</g>
</g>
<!-- Node4&#45;&gt;Node9 -->
<g id="edge10" class="edge">
<title>Node4&#45;&gt;Node9</title>
<path fill="none" stroke="midnightblue" d="M231.72,-168.44C257.85,-159.4 299.26,-145.06 328.58,-134.92"/>
<polygon fill="midnightblue" stroke="midnightblue" points="330.09,-138.1 338.4,-131.52 327.8,-131.48 330.09,-138.1"/>
</g>
<!-- Node10 -->
<g id="node10" class="node">
<title>Node10</title>
<g id="a_node10"><a xlink:href="____timeout_8h_source.html" target="_top" xlink:title=" ">
<polygon fill="white" stroke="black" points="0,-112.5 0,-131.5 106,-131.5 106,-112.5 0,-112.5"/>
<text text-anchor="middle" x="53" y="-119.5" font-family="Helvetica,sans-Serif" font-size="10.00">l4/sys/__timeout.h</text>
</a>
</g>
</g>
<!-- Node4&#45;&gt;Node10 -->
<g id="edge12" class="edge">
<title>Node4&#45;&gt;Node10</title>
<path fill="none" stroke="midnightblue" d="M182.6,-168.44C156.8,-159.4 115.92,-145.06 86.98,-134.92"/>
<polygon fill="midnightblue" stroke="midnightblue" points="87.88,-131.52 77.29,-131.52 85.57,-138.13 87.88,-131.52"/>
</g>
<!-- Node7 -->
<g id="node7" class="node">
<title>Node7</title>
<g id="a_node7"><a xlink:title=" ">
<polygon fill="white" stroke="#bfbfbf" points="419,-0.5 419,-19.5 511,-19.5 511,-0.5 419,-0.5"/>
<text text-anchor="middle" x="465" y="-7.5" font-family="Helvetica,sans-Serif" font-size="10.00">l4/sys/linkage.h</text>
</a>
</g>
</g>
<!-- Node6&#45;&gt;Node7 -->
<g id="edge6" class="edge">
<title>Node6&#45;&gt;Node7</title>
<path fill="none" stroke="midnightblue" d="M465,-56.08C465,-49.01 465,-38.86 465,-29.99"/>
<polygon fill="midnightblue" stroke="midnightblue" points="468.5,-29.75 465,-19.75 461.5,-29.75 468.5,-29.75"/>
</g>
<!-- Node8&#45;&gt;Node5 -->
<g id="edge9" class="edge">
<title>Node8&#45;&gt;Node5</title>
<path fill="none" stroke="midnightblue" d="M201.06,-112.08C196.02,-104.53 188.66,-93.49 182.49,-84.23"/>
<polygon fill="midnightblue" stroke="midnightblue" points="185.29,-82.13 176.83,-75.75 179.47,-86.01 185.29,-82.13"/>
</g>
<!-- Node8&#45;&gt;Node6 -->
<g id="edge8" class="edge">
<title>Node8&#45;&gt;Node6</title>
<path fill="none" stroke="midnightblue" d="M247.88,-112.44C292.98,-103 365.61,-87.8 414.3,-77.61"/>
<polygon fill="midnightblue" stroke="midnightblue" points="415.24,-80.99 424.31,-75.52 413.81,-74.14 415.24,-80.99"/>
</g>
<!-- Node9&#45;&gt;Node6 -->
<g id="edge11" class="edge">
<title>Node9&#45;&gt;Node6</title>
<path fill="none" stroke="midnightblue" d="M379.39,-112.32C395.67,-103.7 420.87,-90.36 439.72,-80.39"/>
<polygon fill="midnightblue" stroke="midnightblue" points="441.45,-83.43 448.65,-75.65 438.18,-77.24 441.45,-83.43"/>
</g>
<!-- Node10&#45;&gt;Node5 -->
<g id="edge13" class="edge">
<title>Node10&#45;&gt;Node5</title>
<path fill="none" stroke="midnightblue" d="M71.7,-112.44C90.94,-103.64 121.15,-89.81 143.2,-79.72"/>
<polygon fill="midnightblue" stroke="midnightblue" points="144.75,-82.86 152.39,-75.52 141.84,-76.5 144.75,-82.86"/>
</g>
<!-- Node11&#45;&gt;Node4 -->
<g id="edge15" class="edge">
<title>Node11&#45;&gt;Node4</title>
<path fill="none" stroke="midnightblue" d="M297.65,-224.32C280.33,-215.66 253.48,-202.24 233.5,-192.25"/>
<polygon fill="midnightblue" stroke="midnightblue" points="234.82,-189 224.31,-187.65 231.69,-195.26 234.82,-189"/>
</g>
<!-- Node11&#45;&gt;Node5 -->
<g id="edge17" class="edge">
<title>Node11&#45;&gt;Node5</title>
<path fill="none" stroke="midnightblue" d="M313.15,-224.26C308.16,-202.64 292.59,-145.97 260,-112 245.84,-97.24 225.8,-86.52 208.32,-79.26"/>
<polygon fill="midnightblue" stroke="midnightblue" points="209.51,-75.96 198.92,-75.57 206.96,-82.48 209.51,-75.96"/>
</g>
<!-- Node11&#45;&gt;Node6 -->
<g id="edge16" class="edge">
<title>Node11&#45;&gt;Node6</title>
<path fill="none" stroke="midnightblue" d="M333.57,-224.47C363.1,-209.91 420.43,-177.37 450,-132 458.99,-118.2 462.62,-99.68 464.07,-85.94"/>
<polygon fill="midnightblue" stroke="midnightblue" points="467.58,-85.96 464.85,-75.73 460.6,-85.43 467.58,-85.96"/>
</g>
<!-- Node12&#45;&gt;Node4 -->
<g id="edge19" class="edge">
<title>Node12&#45;&gt;Node4</title>
<path fill="none" stroke="midnightblue" d="M345.56,-280.37C322.65,-272.98 291.19,-260.85 267,-244 247.8,-230.62 230.2,-210.14 219.1,-195.75"/>
<polygon fill="midnightblue" stroke="midnightblue" points="221.86,-193.61 213.07,-187.7 216.26,-197.8 221.86,-193.61"/>
</g>
<!-- Node12&#45;&gt;Node11 -->
<g id="edge20" class="edge">
<title>Node12&#45;&gt;Node11</title>
<path fill="none" stroke="midnightblue" d="M366.2,-280.32C357.18,-272.34 343.59,-260.31 332.68,-250.65"/>
<polygon fill="midnightblue" stroke="midnightblue" points="334.79,-247.84 324.98,-243.83 330.15,-253.08 334.79,-247.84"/>
</g>
<!-- Node13 -->
<g id="node13" class="node">
<title>Node13</title>
<g id="a_node13"><a xlink:href="err_8h.html" target="_top" xlink:title="Error codes.">
<polygon fill="white" stroke="black" points="621,-224.5 621,-243.5 691,-243.5 691,-224.5 621,-224.5"/>
<text text-anchor="middle" x="656" y="-231.5" font-family="Helvetica,sans-Serif" font-size="10.00">l4/sys/err.h</text>
</a>
</g>
</g>
<!-- Node12&#45;&gt;Node13 -->
<g id="edge21" class="edge">
<title>Node12&#45;&gt;Node13</title>
<path fill="none" stroke="midnightblue" d="M411.75,-282.11C462.54,-272.31 555.59,-254.37 611.01,-243.68"/>
<polygon fill="midnightblue" stroke="midnightblue" points="611.75,-247.1 620.91,-241.77 610.42,-240.23 611.75,-247.1"/>
</g>
<!-- Node13&#45;&gt;Node6 -->
<g id="edge22" class="edge">
<title>Node13&#45;&gt;Node6</title>
<path fill="none" stroke="midnightblue" d="M648.72,-224.43C630.84,-203.67 582.8,-149.64 536,-112 521.35,-100.22 503.47,-88.91 489.32,-80.57"/>
<polygon fill="midnightblue" stroke="midnightblue" points="491.04,-77.52 480.63,-75.54 487.54,-83.58 491.04,-77.52"/>
</g>
<!-- Node14&#45;&gt;Node3 -->
<g id="edge45" class="edge">
<title>Node14&#45;&gt;Node3</title>
<path fill="none" stroke="midnightblue" d="M178.4,-683.39C191.04,-665.5 218,-622.57 218,-582 218,-582 218,-582 218,-468 218,-433.61 224.19,-393.88 228.34,-371.13"/>
<polygon fill="midnightblue" stroke="midnightblue" points="231.81,-371.63 230.23,-361.15 224.93,-370.32 231.81,-371.63"/>
</g>
<!-- Node14&#45;&gt;Node4 -->
<g id="edge25" class="edge">
<title>Node14&#45;&gt;Node4</title>
<path fill="none" stroke="midnightblue" d="M165.74,-683.37C153.38,-665.44 127,-622.44 127,-582 127,-582 127,-582 127,-524 127,-445.93 89,-430.57 89,-352.5 89,-352.5 89,-352.5 89,-289 89,-241.51 140.77,-208.67 175.72,-191.91"/>
<polygon fill="midnightblue" stroke="midnightblue" points="177.46,-194.97 185.08,-187.61 174.53,-188.61 177.46,-194.97"/>
</g>
<!-- Node14&#45;&gt;Node8 -->
<g id="edge24" class="edge">
<title>Node14&#45;&gt;Node8</title>
<path fill="none" stroke="midnightblue" d="M162.91,-683.23C134.77,-655.09 51,-563.5 51,-470 51,-470 51,-470 51,-233 51,-178.82 114.63,-148.97 160.62,-134.48"/>
<polygon fill="midnightblue" stroke="midnightblue" points="161.85,-137.77 170.42,-131.54 159.84,-131.06 161.85,-137.77"/>
</g>
<!-- Node15 -->
<g id="node15" class="node">
<title>Node15</title>
<g id="a_node15"><a xlink:href="kobject_source.html" target="_top" xlink:title=" ">
<polygon fill="white" stroke="black" points="322.5,-515.5 322.5,-534.5 405.5,-534.5 405.5,-515.5 322.5,-515.5"/>
<text text-anchor="middle" x="364" y="-522.5" font-family="Helvetica,sans-Serif" font-size="10.00">l4/sys/kobject</text>
</a>
</g>
</g>
<!-- Node14&#45;&gt;Node15 -->
<g id="edge26" class="edge">
<title>Node14&#45;&gt;Node15</title>
<path fill="none" stroke="midnightblue" d="M184.22,-683.37C196.54,-674.56 215.97,-660.3 232,-647 275.42,-610.97 323.61,-565.21 347.99,-541.63"/>
<polygon fill="midnightblue" stroke="midnightblue" points="350.57,-544 355.31,-534.53 345.7,-538.98 350.57,-544"/>
</g>
<!-- Node22 -->
<g id="node22" class="node">
<title>Node22</title>
<g id="a_node22"><a xlink:href="sys_2meta.html" target="_top" xlink:title="Meta interface for getting dynamic type information about objects behind capabilities.">
<polygon fill="white" stroke="black" points="396,-627.5 396,-646.5 470,-646.5 470,-627.5 396,-627.5"/>
<text text-anchor="middle" x="433" y="-634.5" font-family="Helvetica,sans-Serif" font-size="10.00">l4/sys/meta</text>
</a>
</g>
</g>
<!-- Node14&#45;&gt;Node22 -->
<g id="edge46" class="edge">
<title>Node14&#45;&gt;Node22</title>
<path fill="none" stroke="midnightblue" d="M213.36,-683.44C260.19,-673.75 336.37,-657.99 385.57,-647.81"/>
<polygon fill="midnightblue" stroke="midnightblue" points="386.56,-651.18 395.64,-645.73 385.14,-644.33 386.56,-651.18"/>
</g>
<!-- Node15&#45;&gt;Node4 -->
<g id="edge34" class="edge">
<title>Node15&#45;&gt;Node4</title>
<path fill="none" stroke="midnightblue" d="M326.97,-515.49C260.31,-497.73 127,-450.01 127,-352.5 127,-352.5 127,-352.5 127,-289 127,-248.62 162.69,-213.11 186.4,-193.97"/>
<polygon fill="midnightblue" stroke="midnightblue" points="188.74,-196.58 194.5,-187.69 184.45,-191.05 188.74,-196.58"/>
</g>
<!-- Node16 -->
<g id="node16" class="node">
<title>Node16</title>
<g id="a_node16"><a xlink:href="kernel__object_8h.html" target="_top" xlink:title="Kernel object system calls.">
<polygon fill="white" stroke="black" points="326.5,-403.5 326.5,-422.5 417.5,-422.5 417.5,-403.5 326.5,-403.5"/>
<text text-anchor="middle" x="372" y="-410.5" font-family="Helvetica,sans-Serif" font-size="10.00">kernel_object.h</text>
</a>
</g>
</g>
<!-- Node15&#45;&gt;Node16 -->
<g id="edge27" class="edge">
<title>Node15&#45;&gt;Node16</title>
<path fill="none" stroke="midnightblue" d="M364.63,-515.37C365.92,-497.62 368.9,-456.67 370.65,-432.6"/>
<polygon fill="midnightblue" stroke="midnightblue" points="374.14,-432.82 371.38,-422.59 367.16,-432.31 374.14,-432.82"/>
</g>
<!-- Node18 -->
<g id="node18" class="node">
<title>Node18</title>
<g id="a_node18"><a xlink:href="____typeinfo_8h.html" target="_top" xlink:title="Type information handling.">
<polygon fill="white" stroke="black" points="392.5,-459.5 392.5,-478.5 469.5,-478.5 469.5,-459.5 392.5,-459.5"/>
<text text-anchor="middle" x="431" y="-466.5" font-family="Helvetica,sans-Serif" font-size="10.00">__typeinfo.h</text>
</a>
</g>
</g>
<!-- Node15&#45;&gt;Node18 -->
<g id="edge35" class="edge">
<title>Node15&#45;&gt;Node18</title>
<path fill="none" stroke="midnightblue" d="M374.76,-515.32C384.77,-507.26 399.89,-495.08 411.93,-485.37"/>
<polygon fill="midnightblue" stroke="midnightblue" points="414.45,-487.83 420.04,-478.83 410.06,-482.38 414.45,-487.83"/>
</g>
<!-- Node16&#45;&gt;Node4 -->
<g id="edge28" class="edge">
<title>Node16&#45;&gt;Node4</title>
<path fill="none" stroke="midnightblue" d="M326.37,-407.5C276.52,-401.52 201.41,-389.07 184,-367 143.98,-316.27 178.96,-232.63 197.37,-196.51"/>
<polygon fill="midnightblue" stroke="midnightblue" points="200.48,-198.13 202.05,-187.65 194.29,-194.86 200.48,-198.13"/>
</g>
<!-- Node16&#45;&gt;Node6 -->
<g id="edge29" class="edge">
<title>Node16&#45;&gt;Node6</title>
<path fill="none" stroke="midnightblue" d="M417.51,-404.45C439.41,-398.27 463.73,-387.12 477,-367 536.75,-276.39 491.36,-134.71 472.34,-84.98"/>
<polygon fill="midnightblue" stroke="midnightblue" points="475.56,-83.59 468.63,-75.58 469.05,-86.16 475.56,-83.59"/>
</g>
<!-- Node16&#45;&gt;Node11 -->
<g id="edge30" class="edge">
<title>Node16&#45;&gt;Node11</title>
<path fill="none" stroke="midnightblue" d="M355.47,-403.42C342.67,-395.77 325.85,-383.27 318,-367 300.14,-329.97 305.83,-280.02 310.84,-253.44"/>
<polygon fill="midnightblue" stroke="midnightblue" points="314.28,-254.09 312.88,-243.59 307.43,-252.68 314.28,-254.09"/>
</g>
<!-- Node16&#45;&gt;Node12 -->
<g id="edge33" class="edge">
<title>Node16&#45;&gt;Node12</title>
<path fill="none" stroke="midnightblue" d="M407.85,-403.4C426.88,-396.81 448.63,-385.59 460,-367 467.19,-355.25 467.08,-347.82 460,-336 450.85,-320.72 434.54,-310.33 418.71,-303.43"/>
<polygon fill="midnightblue" stroke="midnightblue" points="419.57,-300 408.99,-299.56 416.99,-306.51 419.57,-300"/>
</g>
<!-- Node17 -->
<g id="node17" class="node">
<title>Node17</title>
<g id="a_node17"><a xlink:href="____kernel__object__impl_8h.html" target="_top" xlink:title="Low&#45;level kernel debugger functions.">
<polygon fill="white" stroke="black" points="327,-336.5 327,-366.5 451,-366.5 451,-336.5 327,-336.5"/>
<text text-anchor="start" x="335" y="-354.5" font-family="Helvetica,sans-Serif" font-size="10.00">l4/sys/__kernel_object</text>
<text text-anchor="middle" x="389" y="-343.5" font-family="Helvetica,sans-Serif" font-size="10.00">_impl.h</text>
</a>
</g>
</g>
<!-- Node16&#45;&gt;Node17 -->
<g id="edge31" class="edge">
<title>Node16&#45;&gt;Node17</title>
<path fill="none" stroke="midnightblue" d="M374.44,-403.48C376.46,-396.4 379.44,-385.97 382.17,-376.39"/>
<polygon fill="midnightblue" stroke="midnightblue" points="385.61,-377.1 384.99,-366.52 378.88,-375.18 385.61,-377.1"/>
</g>
<!-- Node17&#45;&gt;Node12 -->
<g id="edge32" class="edge">
<title>Node17&#45;&gt;Node12</title>
<path fill="none" stroke="midnightblue" d="M385.92,-336.4C384.17,-328.38 381.95,-318.23 380.06,-309.57"/>
<polygon fill="midnightblue" stroke="midnightblue" points="383.45,-308.68 377.89,-299.66 376.61,-310.17 383.45,-308.68"/>
</g>
<!-- Node19 -->
<g id="node19" class="node">
<title>Node19</title>
<g id="a_node19"><a xlink:href="types.html" target="_top" xlink:title=" ">
<polygon fill="white" stroke="black" points="697,-342 697,-361 761,-361 761,-342 697,-342"/>
<text text-anchor="middle" x="729" y="-349" font-family="Helvetica,sans-Serif" font-size="10.00">cxx/types</text>
</a>
</g>
</g>
<!-- Node18&#45;&gt;Node19 -->
<g id="edge36" class="edge">
<title>Node18&#45;&gt;Node19</title>
<path fill="none" stroke="midnightblue" d="M454.86,-459.36C478.12,-450.75 514.37,-436.86 545,-423 562.75,-414.97 566.09,-410.67 584,-403 619.51,-387.8 661.28,-373.62 690.85,-364.19"/>
<polygon fill="midnightblue" stroke="midnightblue" points="692.28,-367.4 700.76,-361.05 690.17,-360.73 692.28,-367.4"/>
</g>
<!-- Node20 -->
<g id="node20" class="node">
<title>Node20</title>
<g id="a_node20"><a xlink:href="ipc__basics_source.html" target="_top" xlink:title=" ">
<polygon fill="white" stroke="black" points="592.5,-403.5 592.5,-422.5 679.5,-422.5 679.5,-403.5 592.5,-403.5"/>
<text text-anchor="middle" x="636" y="-410.5" font-family="Helvetica,sans-Serif" font-size="10.00">cxx/ipc_basics</text>
</a>
</g>
</g>
<!-- Node18&#45;&gt;Node20 -->
<g id="edge37" class="edge">
<title>Node18&#45;&gt;Node20</title>
<path fill="none" stroke="midnightblue" d="M463.48,-459.44C498.72,-450.16 555.1,-435.31 593.76,-425.13"/>
<polygon fill="midnightblue" stroke="midnightblue" points="594.89,-428.45 603.67,-422.52 593.11,-421.68 594.89,-428.45"/>
</g>
<!-- Node21 -->
<g id="node21" class="node">
<title>Node21</title>
<g id="a_node21"><a xlink:href="capability_8h_source.html" target="_top" xlink:title=" ">
<polygon fill="white" stroke="black" points="444,-403.5 444,-422.5 536,-422.5 536,-403.5 444,-403.5"/>
<text text-anchor="middle" x="490" y="-410.5" font-family="Helvetica,sans-Serif" font-size="10.00">cxx/capability.h</text>
</a>
</g>
</g>
<!-- Node18&#45;&gt;Node21 -->
<g id="edge41" class="edge">
<title>Node18&#45;&gt;Node21</title>
<path fill="none" stroke="midnightblue" d="M440.48,-459.32C449.2,-451.34 462.34,-439.31 472.9,-429.65"/>
<polygon fill="midnightblue" stroke="midnightblue" points="475.33,-432.17 480.35,-422.83 470.61,-427 475.33,-432.17"/>
</g>
<!-- Node20&#45;&gt;Node11 -->
<g id="edge39" class="edge">
<title>Node20&#45;&gt;Node11</title>
<path fill="none" stroke="midnightblue" d="M623.23,-403.29C590.4,-381.12 500.05,-321.34 420,-280 396.12,-267.67 368.09,-255.78 347,-247.32"/>
<polygon fill="midnightblue" stroke="midnightblue" points="348.14,-244.01 337.55,-243.57 345.56,-250.51 348.14,-244.01"/>
</g>
<!-- Node20&#45;&gt;Node13 -->
<g id="edge40" class="edge">
<title>Node20&#45;&gt;Node13</title>
<path fill="none" stroke="midnightblue" d="M638.02,-403.42C640.07,-394.41 643.2,-379.78 645,-367 650.66,-326.92 653.74,-279.54 655.11,-253.86"/>
<polygon fill="midnightblue" stroke="midnightblue" points="658.61,-253.85 655.62,-243.69 651.62,-253.5 658.61,-253.85"/>
</g>
<!-- Node20&#45;&gt;Node19 -->
<g id="edge38" class="edge">
<title>Node20&#45;&gt;Node19</title>
<path fill="none" stroke="midnightblue" d="M649.32,-403.48C664.38,-393.84 689.12,-378.02 707.04,-366.55"/>
<polygon fill="midnightblue" stroke="midnightblue" points="709.16,-369.35 715.7,-361.01 705.39,-363.45 709.16,-369.35"/>
</g>
<!-- Node21&#45;&gt;Node3 -->
<g id="edge44" class="edge">
<title>Node21&#45;&gt;Node3</title>
<path fill="none" stroke="midnightblue" d="M453.03,-403.48C407.15,-392.89 328.85,-374.84 278.82,-363.3"/>
<polygon fill="midnightblue" stroke="midnightblue" points="279.43,-359.85 268.9,-361.01 277.85,-366.67 279.43,-359.85"/>
</g>
<!-- Node21&#45;&gt;Node4 -->
<g id="edge43" class="edge">
<title>Node21&#45;&gt;Node4</title>
<path fill="none" stroke="midnightblue" d="M501.54,-403.49C511.48,-395.38 525.12,-382.18 531,-367 535.98,-354.15 537.5,-348.15 531,-336 488.66,-256.88 444.4,-261.77 363,-224 329.78,-208.58 290.09,-197.22 259.06,-189.77"/>
<polygon fill="midnightblue" stroke="midnightblue" points="259.84,-186.36 249.31,-187.49 258.25,-193.18 259.84,-186.36"/>
</g>
<!-- Node21&#45;&gt;Node8 -->
<g id="edge42" class="edge">
<title>Node21&#45;&gt;Node8</title>
<path fill="none" stroke="midnightblue" d="M508.08,-403.39C521.56,-395.87 538.97,-383.57 547,-367 565.32,-329.19 541.24,-308.1 510,-280 427.59,-205.88 303.81,-156.24 243.13,-134.89"/>
<polygon fill="midnightblue" stroke="midnightblue" points="244.2,-131.56 233.61,-131.59 241.91,-138.17 244.2,-131.56"/>
</g>
<!-- Node22&#45;&gt;Node15 -->
<g id="edge47" class="edge">
<title>Node22&#45;&gt;Node15</title>
<path fill="none" stroke="midnightblue" d="M427.59,-627.37C416.25,-609.3 389.83,-567.18 374.86,-543.31"/>
<polygon fill="midnightblue" stroke="midnightblue" points="377.67,-541.2 369.39,-534.59 371.74,-544.92 377.67,-541.2"/>
</g>
<!-- Node23 -->
<g id="node23" class="node">
<title>Node23</title>
<g id="a_node23"><a xlink:href="ipc__iface.html" target="_top" xlink:title="Interface Definition Language.">
<polygon fill="white" stroke="black" points="441,-515.5 441,-534.5 521,-534.5 521,-515.5 441,-515.5"/>
<text text-anchor="middle" x="481" y="-522.5" font-family="Helvetica,sans-Serif" font-size="10.00">cxx/ipc_iface</text>
</a>
</g>
</g>
<!-- Node22&#45;&gt;Node23 -->
<g id="edge48" class="edge">
<title>Node22&#45;&gt;Node23</title>
<path fill="none" stroke="midnightblue" d="M436.77,-627.37C444.58,-609.46 462.71,-567.92 473.17,-543.95"/>
<polygon fill="midnightblue" stroke="midnightblue" points="476.46,-545.16 477.25,-534.59 470.04,-542.36 476.46,-545.16"/>
</g>
<!-- Node25 -->
<g id="node25" class="node">
<title>Node25</title>
<g id="a_node25"><a xlink:href="ipc__string_source.html" target="_top" xlink:title=" ">
<polygon fill="white" stroke="black" points="657,-571.5 657,-590.5 741,-590.5 741,-571.5 657,-571.5"/>
<text text-anchor="middle" x="699" y="-578.5" font-family="Helvetica,sans-Serif" font-size="10.00">cxx/ipc_string</text>
</a>
</g>
</g>
<!-- Node22&#45;&gt;Node25 -->
<g id="edge55" class="edge">
<title>Node22&#45;&gt;Node25</title>
<path fill="none" stroke="midnightblue" d="M470.27,-628.43C516.24,-619.1 594.69,-603.18 646.69,-592.62"/>
<polygon fill="midnightblue" stroke="midnightblue" points="647.62,-596 656.72,-590.58 646.22,-589.14 647.62,-596"/>
</g>
<!-- Node23&#45;&gt;Node18 -->
<g id="edge54" class="edge">
<title>Node23&#45;&gt;Node18</title>
<path fill="none" stroke="midnightblue" d="M472.74,-515.08C465.54,-507.3 454.89,-495.8 446.15,-486.37"/>
<polygon fill="midnightblue" stroke="midnightblue" points="448.47,-483.71 439.1,-478.75 443.33,-488.47 448.47,-483.71"/>
</g>
<!-- Node23&#45;&gt;Node20 -->
<g id="edge49" class="edge">
<title>Node23&#45;&gt;Node20</title>
<path fill="none" stroke="midnightblue" d="M483.83,-515.16C488.68,-501.33 499.86,-474.55 518,-459 536.78,-442.9 561.92,-432.25 584.17,-425.38"/>
<polygon fill="midnightblue" stroke="midnightblue" points="585.2,-428.72 593.83,-422.57 583.25,-422 585.2,-428.72"/>
</g>
<!-- Node24 -->
<g id="node24" class="node">
<title>Node24</title>
<g id="a_node24"><a xlink:href="ipc__types.html" target="_top" xlink:title=" ">
<polygon fill="white" stroke="black" points="526.5,-459.5 526.5,-478.5 641.5,-478.5 641.5,-459.5 526.5,-459.5"/>
<text text-anchor="middle" x="584" y="-466.5" font-family="Helvetica,sans-Serif" font-size="10.00">l4/sys/cxx/ipc_types</text>
</a>
</g>
</g>
<!-- Node23&#45;&gt;Node24 -->
<g id="edge50" class="edge">
<title>Node23&#45;&gt;Node24</title>
<path fill="none" stroke="midnightblue" d="M497.55,-515.32C513.99,-506.7 539.43,-493.36 558.47,-483.39"/>
<polygon fill="midnightblue" stroke="midnightblue" points="560.26,-486.4 567.49,-478.65 557.01,-480.2 560.26,-486.4"/>
</g>
<!-- Node24&#45;&gt;Node19 -->
<g id="edge52" class="edge">
<title>Node24&#45;&gt;Node19</title>
<path fill="none" stroke="midnightblue" d="M618.33,-459.46C640.52,-452.56 668.9,-440.98 689,-423 705.02,-408.67 716.16,-386.34 722.55,-370.66"/>
<polygon fill="midnightblue" stroke="midnightblue" points="725.92,-371.64 726.21,-361.05 719.38,-369.15 725.92,-371.64"/>
</g>
<!-- Node24&#45;&gt;Node20 -->
<g id="edge53" class="edge">
<title>Node24&#45;&gt;Node20</title>
<path fill="none" stroke="midnightblue" d="M592.59,-459.08C600.16,-451.22 611.38,-439.57 620.51,-430.08"/>
<polygon fill="midnightblue" stroke="midnightblue" points="623.16,-432.38 627.57,-422.75 618.12,-427.53 623.16,-432.38"/>
</g>
<!-- Node24&#45;&gt;Node21 -->
<g id="edge51" class="edge">
<title>Node24&#45;&gt;Node21</title>
<path fill="none" stroke="midnightblue" d="M568.9,-459.32C554.1,-450.82 531.31,-437.73 514.02,-427.8"/>
<polygon fill="midnightblue" stroke="midnightblue" points="515.48,-424.6 505.07,-422.65 511.99,-430.67 515.48,-424.6"/>
</g>
<!-- Node25&#45;&gt;Node19 -->
<g id="edge56" class="edge">
<title>Node25&#45;&gt;Node19</title>
<path fill="none" stroke="midnightblue" d="M723.47,-571.44C739.57,-564.38 759.38,-552.63 769,-535 799.13,-479.81 760.69,-403.55 740.25,-369.78"/>
<polygon fill="midnightblue" stroke="midnightblue" points="743.08,-367.7 734.81,-361.08 737.15,-371.42 743.08,-367.7"/>
</g>
<!-- Node25&#45;&gt;Node20 -->
<g id="edge57" class="edge">
<title>Node25&#45;&gt;Node20</title>
<path fill="none" stroke="midnightblue" d="M695.61,-571.08C685.65,-544.83 656.32,-467.55 642.88,-432.12"/>
<polygon fill="midnightblue" stroke="midnightblue" points="646.07,-430.68 639.25,-422.57 639.53,-433.16 646.07,-430.68"/>
</g>
<!-- Node26 -->
<g id="node26" class="node">
<title>Node26</title>
<g id="a_node26"><a xlink:href="ipc__array_source.html" target="_top" xlink:title=" ">
<polygon fill="white" stroke="black" points="698,-515.5 698,-534.5 760,-534.5 760,-515.5 698,-515.5"/>
<text text-anchor="middle" x="729" y="-522.5" font-family="Helvetica,sans-Serif" font-size="10.00">ipc_array</text>
</a>
</g>
</g>
<!-- Node25&#45;&gt;Node26 -->
<g id="edge58" class="edge">
<title>Node25&#45;&gt;Node26</title>
<path fill="none" stroke="midnightblue" d="M703.95,-571.08C708.1,-563.61 714.15,-552.72 719.27,-543.52"/>
<polygon fill="midnightblue" stroke="midnightblue" points="722.34,-545.19 724.14,-534.75 716.22,-541.79 722.34,-545.19"/>
</g>
<!-- Node26&#45;&gt;Node19 -->
<g id="edge59" class="edge">
<title>Node26&#45;&gt;Node19</title>
<path fill="none" stroke="midnightblue" d="M729,-515.26C729,-488.65 729,-408.21 729,-371.34"/>
<polygon fill="midnightblue" stroke="midnightblue" points="732.5,-371.02 729,-361.02 725.5,-371.02 732.5,-371.02"/>
</g>
<!-- Node26&#45;&gt;Node20 -->
<g id="edge60" class="edge">
<title>Node26&#45;&gt;Node20</title>
<path fill="none" stroke="midnightblue" d="M723.72,-515.16C715.83,-502.24 700.13,-477.71 684,-459 674.88,-448.43 663.53,-437.7 654.16,-429.36"/>
<polygon fill="midnightblue" stroke="midnightblue" points="656.38,-426.65 646.54,-422.73 651.78,-431.93 656.38,-426.65"/>
</g>
<!-- Node26&#45;&gt;Node24 -->
<g id="edge61" class="edge">
<title>Node26&#45;&gt;Node24</title>
<path fill="none" stroke="midnightblue" d="M706.02,-515.44C681.84,-506.44 643.58,-492.19 616.35,-482.05"/>
<polygon fill="midnightblue" stroke="midnightblue" points="617.46,-478.73 606.87,-478.52 615.02,-485.29 617.46,-478.73"/>
</g>
</g>
</svg>
