<?xml version="1.0" encoding="UTF-8" standalone="no"?>
<!DOCTYPE svg PUBLIC "-//W3C//DTD SVG 1.1//EN"
 "http://www.w3.org/Graphics/SVG/1.1/DTD/svg11.dtd">
<!-- Generated by graphviz version 2.43.0 (0)
 -->
<!-- Title: l4/sys/capability Pages: 1 -->
<svg width="800pt" height="711pt"
 viewBox="0.00 0.00 800.00 711.00" xmlns="http://www.w3.org/2000/svg" xmlns:xlink="http://www.w3.org/1999/xlink">
<g id="graph0" class="graph" transform="scale(1 1) rotate(0) translate(4 707)">
<title>l4/sys/capability</title>
<polygon fill="white" stroke="transparent" points="-4,4 -4,-707 796,-707 796,4 -4,4"/>
<!-- Node1 -->
<g id="node1" class="node">
<title>Node1</title>
<g id="a_node1"><a xlink:title="L4::Cap related definitions.">
<polygon fill="#bfbfbf" stroke="black" points="391,-683.5 391,-702.5 487,-702.5 487,-683.5 391,-683.5"/>
<text text-anchor="middle" x="439" y="-690.5" font-family="Helvetica,sans-Serif" font-size="10.00">l4/sys/capability</text>
</a>
</g>
</g>
<!-- Node2 -->
<g id="node2" class="node">
<title>Node2</title>
<g id="a_node2"><a xlink:href="l4_2sys_2consts_8h.html" target="_top" xlink:title="Common constants.">
<polygon fill="white" stroke="black" points="573.5,-112.5 573.5,-131.5 662.5,-131.5 662.5,-112.5 573.5,-112.5"/>
<text text-anchor="middle" x="618" y="-119.5" font-family="Helvetica,sans-Serif" font-size="10.00">l4/sys/consts.h</text>
</a>
</g>
</g>
<!-- Node1&#45;&gt;Node2 -->
<g id="edge1" class="edge">
<title>Node1&#45;&gt;Node2</title>
<path fill="none" stroke="midnightblue" d="M487.09,-690.39C541.47,-687.1 631.69,-677.13 703,-647 748.12,-627.93 792,-630.98 792,-582 792,-582 792,-582 792,-233 792,-175.71 723.77,-147.03 672.76,-133.6"/>
<polygon fill="midnightblue" stroke="midnightblue" points="673.36,-130.15 662.81,-131.12 671.66,-136.94 673.36,-130.15"/>
</g>
<!-- Node6 -->
<g id="node6" class="node">
<title>Node6</title>
<g id="a_node6"><a xlink:href="l4_2sys_2types_8h.html" target="_top" xlink:title="Common L4 ABI Data Types.">
<polygon fill="white" stroke="black" points="376,-168.5 376,-187.5 460,-187.5 460,-168.5 376,-168.5"/>
<text text-anchor="middle" x="418" y="-175.5" font-family="Helvetica,sans-Serif" font-size="10.00">l4/sys/types.h</text>
</a>
</g>
</g>
<!-- Node1&#45;&gt;Node6 -->
<g id="edge5" class="edge">
<title>Node1&#45;&gt;Node6</title>
<path fill="none" stroke="midnightblue" d="M487.18,-685.4C575.43,-671.95 754,-637.83 754,-582 754,-582 754,-582 754,-468 754,-407.31 756.91,-383.4 719,-336 652.56,-252.93 530.19,-208.95 463.78,-190.24"/>
<polygon fill="midnightblue" stroke="midnightblue" points="464.58,-186.83 454.01,-187.55 462.72,-193.58 464.58,-186.83"/>
</g>
<!-- Node9 -->
<g id="node9" class="node">
<title>Node9</title>
<g id="a_node9"><a xlink:href="kobject_source.html" target="_top" xlink:title=" ">
<polygon fill="white" stroke="black" points="251.5,-515.5 251.5,-534.5 334.5,-534.5 334.5,-515.5 251.5,-515.5"/>
<text text-anchor="middle" x="293" y="-522.5" font-family="Helvetica,sans-Serif" font-size="10.00">l4/sys/kobject</text>
</a>
</g>
</g>
<!-- Node1&#45;&gt;Node9 -->
<g id="edge13" class="edge">
<title>Node1&#45;&gt;Node9</title>
<path fill="none" stroke="midnightblue" d="M429.55,-683.31C420.04,-674.45 405.1,-660.16 393,-647 360.12,-611.25 324.55,-566.63 305.98,-542.82"/>
<polygon fill="midnightblue" stroke="midnightblue" points="308.63,-540.52 299.73,-534.77 303.1,-544.82 308.63,-540.52"/>
</g>
<!-- Node19 -->
<g id="node19" class="node">
<title>Node19</title>
<g id="a_node19"><a xlink:href="l4_2sys_2task_8h.html" target="_top" xlink:title="Common task related definitions.">
<polygon fill="white" stroke="black" points="322,-342 322,-361 400,-361 400,-342 322,-342"/>
<text text-anchor="middle" x="361" y="-349" font-family="Helvetica,sans-Serif" font-size="10.00">l4/sys/task.h</text>
</a>
</g>
</g>
<!-- Node1&#45;&gt;Node19 -->
<g id="edge42" class="edge">
<title>Node1&#45;&gt;Node19</title>
<path fill="none" stroke="midnightblue" d="M390.94,-688.74C326.47,-681.46 220,-657.95 220,-582 220,-582 220,-582 220,-468 220,-414.24 282.09,-380.97 323.87,-364.67"/>
<polygon fill="midnightblue" stroke="midnightblue" points="325.34,-367.85 333.48,-361.07 322.89,-361.3 325.34,-367.85"/>
</g>
<!-- Node20 -->
<g id="node20" class="node">
<title>Node20</title>
<g id="a_node20"><a xlink:href="sys_2meta.html" target="_top" xlink:title="Meta interface for getting dynamic type information about objects behind capabilities.">
<polygon fill="white" stroke="black" points="402,-627.5 402,-646.5 476,-646.5 476,-627.5 402,-627.5"/>
<text text-anchor="middle" x="439" y="-634.5" font-family="Helvetica,sans-Serif" font-size="10.00">l4/sys/meta</text>
</a>
</g>
</g>
<!-- Node1&#45;&gt;Node20 -->
<g id="edge43" class="edge">
<title>Node1&#45;&gt;Node20</title>
<path fill="none" stroke="midnightblue" d="M439,-683.08C439,-676.01 439,-665.86 439,-656.99"/>
<polygon fill="midnightblue" stroke="midnightblue" points="442.5,-656.75 439,-646.75 435.5,-656.75 442.5,-656.75"/>
</g>
<!-- Node3 -->
<g id="node3" class="node">
<title>Node3</title>
<g id="a_node3"><a xlink:href="compiler_8h.html" target="_top" xlink:title="L4 compiler related defines.">
<polygon fill="white" stroke="black" points="171.5,-56.5 171.5,-75.5 270.5,-75.5 270.5,-56.5 171.5,-56.5"/>
<text text-anchor="middle" x="221" y="-63.5" font-family="Helvetica,sans-Serif" font-size="10.00">l4/sys/compiler.h</text>
</a>
</g>
</g>
<!-- Node2&#45;&gt;Node3 -->
<g id="edge2" class="edge">
<title>Node2&#45;&gt;Node3</title>
<path fill="none" stroke="midnightblue" d="M573.23,-113.42C570.11,-112.92 567.01,-112.45 564,-112 464.98,-97.26 349.48,-82.63 280.95,-74.23"/>
<polygon fill="midnightblue" stroke="midnightblue" points="281.13,-70.72 270.78,-72.98 280.28,-77.67 281.13,-70.72"/>
</g>
<!-- Node5 -->
<g id="node5" class="node">
<title>Node5</title>
<g id="a_node5"><a xlink:href="l4_2sys_2l4int_8h.html" target="_top" xlink:title="Fixed sized integer types, generic version.">
<polygon fill="white" stroke="black" points="421.5,-56.5 421.5,-75.5 500.5,-75.5 500.5,-56.5 421.5,-56.5"/>
<text text-anchor="middle" x="461" y="-63.5" font-family="Helvetica,sans-Serif" font-size="10.00">l4/sys/l4int.h</text>
</a>
</g>
</g>
<!-- Node2&#45;&gt;Node5 -->
<g id="edge4" class="edge">
<title>Node2&#45;&gt;Node5</title>
<path fill="none" stroke="midnightblue" d="M593.12,-112.44C566.71,-103.36 524.78,-88.94 495.26,-78.78"/>
<polygon fill="midnightblue" stroke="midnightblue" points="496.36,-75.46 485.76,-75.52 494.08,-82.08 496.36,-75.46"/>
</g>
<!-- Node4 -->
<g id="node4" class="node">
<title>Node4</title>
<g id="a_node4"><a xlink:title=" ">
<polygon fill="white" stroke="#bfbfbf" points="175,-0.5 175,-19.5 267,-19.5 267,-0.5 175,-0.5"/>
<text text-anchor="middle" x="221" y="-7.5" font-family="Helvetica,sans-Serif" font-size="10.00">l4/sys/linkage.h</text>
</a>
</g>
</g>
<!-- Node3&#45;&gt;Node4 -->
<g id="edge3" class="edge">
<title>Node3&#45;&gt;Node4</title>
<path fill="none" stroke="midnightblue" d="M221,-56.08C221,-49.01 221,-38.86 221,-29.99"/>
<polygon fill="midnightblue" stroke="midnightblue" points="224.5,-29.75 221,-19.75 217.5,-29.75 224.5,-29.75"/>
</g>
<!-- Node6&#45;&gt;Node2 -->
<g id="edge8" class="edge">
<title>Node6&#45;&gt;Node2</title>
<path fill="none" stroke="midnightblue" d="M449.69,-168.44C484.07,-159.16 539.08,-144.31 576.79,-134.13"/>
<polygon fill="midnightblue" stroke="midnightblue" points="577.72,-137.5 586.46,-131.52 575.89,-130.74 577.72,-137.5"/>
</g>
<!-- Node6&#45;&gt;Node3 -->
<g id="edge7" class="edge">
<title>Node6&#45;&gt;Node3</title>
<path fill="none" stroke="midnightblue" d="M407.44,-168.42C390.83,-155.18 357.23,-129.47 326,-112 302.99,-99.13 275.56,-87.49 254.51,-79.27"/>
<polygon fill="midnightblue" stroke="midnightblue" points="255.62,-75.95 245.03,-75.64 253.11,-82.49 255.62,-75.95"/>
</g>
<!-- Node6&#45;&gt;Node5 -->
<g id="edge6" class="edge">
<title>Node6&#45;&gt;Node5</title>
<path fill="none" stroke="midnightblue" d="M420.55,-168.48C424.38,-155.95 432.02,-131.9 440,-112 443.7,-102.78 448.32,-92.75 452.28,-84.5"/>
<polygon fill="midnightblue" stroke="midnightblue" points="455.44,-86.02 456.69,-75.5 449.15,-82.95 455.44,-86.02"/>
</g>
<!-- Node7 -->
<g id="node7" class="node">
<title>Node7</title>
<g id="a_node7"><a xlink:href="____l4__fpage_8h_source.html" target="_top" xlink:title=" ">
<polygon fill="white" stroke="black" points="207,-112.5 207,-131.5 317,-131.5 317,-112.5 207,-112.5"/>
<text text-anchor="middle" x="262" y="-119.5" font-family="Helvetica,sans-Serif" font-size="10.00">l4/sys/__l4_fpage.h</text>
</a>
</g>
</g>
<!-- Node6&#45;&gt;Node7 -->
<g id="edge9" class="edge">
<title>Node6&#45;&gt;Node7</title>
<path fill="none" stroke="midnightblue" d="M393.28,-168.44C367.15,-159.4 325.74,-145.06 296.42,-134.92"/>
<polygon fill="midnightblue" stroke="midnightblue" points="297.2,-131.48 286.6,-131.52 294.91,-138.1 297.2,-131.48"/>
</g>
<!-- Node8 -->
<g id="node8" class="node">
<title>Node8</title>
<g id="a_node8"><a xlink:href="____timeout_8h_source.html" target="_top" xlink:title=" ">
<polygon fill="white" stroke="black" points="449,-112.5 449,-131.5 555,-131.5 555,-112.5 449,-112.5"/>
<text text-anchor="middle" x="502" y="-119.5" font-family="Helvetica,sans-Serif" font-size="10.00">l4/sys/__timeout.h</text>
</a>
</g>
</g>
<!-- Node6&#45;&gt;Node8 -->
<g id="edge11" class="edge">
<title>Node6&#45;&gt;Node8</title>
<path fill="none" stroke="midnightblue" d="M431.5,-168.32C444.6,-159.9 464.71,-146.97 480.11,-137.07"/>
<polygon fill="midnightblue" stroke="midnightblue" points="482.02,-140.01 488.54,-131.65 478.23,-134.12 482.02,-140.01"/>
</g>
<!-- Node7&#45;&gt;Node3 -->
<g id="edge10" class="edge">
<title>Node7&#45;&gt;Node3</title>
<path fill="none" stroke="midnightblue" d="M255.23,-112.08C249.44,-104.46 240.94,-93.26 233.86,-83.94"/>
<polygon fill="midnightblue" stroke="midnightblue" points="236.48,-81.6 227.64,-75.75 230.9,-85.83 236.48,-81.6"/>
</g>
<!-- Node8&#45;&gt;Node5 -->
<g id="edge12" class="edge">
<title>Node8&#45;&gt;Node5</title>
<path fill="none" stroke="midnightblue" d="M495.23,-112.08C489.44,-104.46 480.94,-93.26 473.86,-83.94"/>
<polygon fill="midnightblue" stroke="midnightblue" points="476.48,-81.6 467.64,-75.75 470.9,-85.83 476.48,-81.6"/>
</g>
<!-- Node9&#45;&gt;Node6 -->
<g id="edge28" class="edge">
<title>Node9&#45;&gt;Node6</title>
<path fill="none" stroke="midnightblue" d="M297.03,-515.48C307.05,-494.84 334.59,-441.05 367,-403 382.94,-384.28 398.2,-389.08 409,-367 436.6,-310.59 427.83,-232.91 421.74,-197.7"/>
<polygon fill="midnightblue" stroke="midnightblue" points="425.18,-197.03 419.91,-187.84 418.3,-198.31 425.18,-197.03"/>
</g>
<!-- Node10 -->
<g id="node10" class="node">
<title>Node10</title>
<g id="a_node10"><a xlink:href="kernel__object_8h.html" target="_top" xlink:title="Kernel object system calls.">
<polygon fill="white" stroke="black" points="77.5,-403.5 77.5,-422.5 168.5,-422.5 168.5,-403.5 77.5,-403.5"/>
<text text-anchor="middle" x="123" y="-410.5" font-family="Helvetica,sans-Serif" font-size="10.00">kernel_object.h</text>
</a>
</g>
</g>
<!-- Node9&#45;&gt;Node10 -->
<g id="edge14" class="edge">
<title>Node9&#45;&gt;Node10</title>
<path fill="none" stroke="midnightblue" d="M279.66,-515.37C250.49,-496.49 180.78,-451.38 145,-428.24"/>
<polygon fill="midnightblue" stroke="midnightblue" points="146.57,-425.09 136.28,-422.59 142.77,-430.96 146.57,-425.09"/>
</g>
<!-- Node15 -->
<g id="node15" class="node">
<title>Node15</title>
<g id="a_node15"><a xlink:href="____typeinfo_8h.html" target="_top" xlink:title="Type information handling.">
<polygon fill="white" stroke="black" points="400.5,-459.5 400.5,-478.5 477.5,-478.5 477.5,-459.5 400.5,-459.5"/>
<text text-anchor="middle" x="439" y="-466.5" font-family="Helvetica,sans-Serif" font-size="10.00">__typeinfo.h</text>
</a>
</g>
</g>
<!-- Node9&#45;&gt;Node15 -->
<g id="edge29" class="edge">
<title>Node9&#45;&gt;Node15</title>
<path fill="none" stroke="midnightblue" d="M316.13,-515.44C340.48,-506.44 379.01,-492.19 406.42,-482.05"/>
<polygon fill="midnightblue" stroke="midnightblue" points="407.81,-485.27 415.97,-478.52 405.38,-478.7 407.81,-485.27"/>
</g>
<!-- Node10&#45;&gt;Node3 -->
<g id="edge16" class="edge">
<title>Node10&#45;&gt;Node3</title>
<path fill="none" stroke="midnightblue" d="M102.96,-403.5C68.11,-387.2 0,-348.06 0,-291 0,-291 0,-291 0,-177 0,-104.79 95.73,-79.98 161.18,-71.46"/>
<polygon fill="midnightblue" stroke="midnightblue" points="161.89,-74.9 171.4,-70.23 161.06,-67.95 161.89,-74.9"/>
</g>
<!-- Node10&#45;&gt;Node6 -->
<g id="edge15" class="edge">
<title>Node10&#45;&gt;Node6</title>
<path fill="none" stroke="midnightblue" d="M154.75,-403.49C178.65,-396.16 211.54,-384.05 237,-367 311.29,-317.24 378.61,-232.46 405.56,-196.24"/>
<polygon fill="midnightblue" stroke="midnightblue" points="408.69,-197.88 411.79,-187.75 403.05,-193.74 408.69,-197.88"/>
</g>
<!-- Node11 -->
<g id="node11" class="node">
<title>Node11</title>
<g id="a_node11"><a xlink:href="l4_2sys_2utcb_8h.html" target="_top" xlink:title="UTCB definitions.">
<polygon fill="white" stroke="black" points="208,-224.5 208,-243.5 286,-243.5 286,-224.5 208,-224.5"/>
<text text-anchor="middle" x="247" y="-231.5" font-family="Helvetica,sans-Serif" font-size="10.00">l4/sys/utcb.h</text>
</a>
</g>
</g>
<!-- Node10&#45;&gt;Node11 -->
<g id="edge17" class="edge">
<title>Node10&#45;&gt;Node11</title>
<path fill="none" stroke="midnightblue" d="M113.25,-403.42C98.31,-389.18 72.79,-359.88 86,-336 111.8,-289.35 169.16,-261.36 207.97,-247.05"/>
<polygon fill="midnightblue" stroke="midnightblue" points="209.63,-250.17 217.89,-243.54 207.3,-243.57 209.63,-250.17"/>
</g>
<!-- Node12 -->
<g id="node12" class="node">
<title>Node12</title>
<g id="a_node12"><a xlink:href="____kernel__object__impl_8h.html" target="_top" xlink:title="Low&#45;level kernel debugger functions.">
<polygon fill="white" stroke="black" points="104,-336.5 104,-366.5 228,-366.5 228,-336.5 104,-336.5"/>
<text text-anchor="start" x="112" y="-354.5" font-family="Helvetica,sans-Serif" font-size="10.00">l4/sys/__kernel_object</text>
<text text-anchor="middle" x="166" y="-343.5" font-family="Helvetica,sans-Serif" font-size="10.00">_impl.h</text>
</a>
</g>
</g>
<!-- Node10&#45;&gt;Node12 -->
<g id="edge21" class="edge">
<title>Node10&#45;&gt;Node12</title>
<path fill="none" stroke="midnightblue" d="M129.16,-403.48C134.55,-396.02 142.62,-384.85 149.83,-374.87"/>
<polygon fill="midnightblue" stroke="midnightblue" points="152.85,-376.68 155.87,-366.52 147.17,-372.58 152.85,-376.68"/>
</g>
<!-- Node13 -->
<g id="node13" class="node">
<title>Node13</title>
<g id="a_node13"><a xlink:href="l4_2sys_2ipc_8h.html" target="_top" xlink:title="Common IPC interface.">
<polygon fill="white" stroke="black" points="214.5,-280.5 214.5,-299.5 285.5,-299.5 285.5,-280.5 214.5,-280.5"/>
<text text-anchor="middle" x="250" y="-287.5" font-family="Helvetica,sans-Serif" font-size="10.00">l4/sys/ipc.h</text>
</a>
</g>
</g>
<!-- Node10&#45;&gt;Node13 -->
<g id="edge27" class="edge">
<title>Node10&#45;&gt;Node13</title>
<path fill="none" stroke="midnightblue" d="M114.76,-403.24C101.67,-388.22 79.13,-357.14 95,-336 108.22,-318.39 163.64,-305.44 204.45,-298.07"/>
<polygon fill="midnightblue" stroke="midnightblue" points="205.23,-301.48 214.48,-296.31 204.03,-294.59 205.23,-301.48"/>
</g>
<!-- Node11&#45;&gt;Node3 -->
<g id="edge19" class="edge">
<title>Node11&#45;&gt;Node3</title>
<path fill="none" stroke="midnightblue" d="M241.09,-224.32C230,-207.45 206.42,-168.66 198,-132 196.01,-123.34 195.92,-120.64 198,-112 200.31,-102.42 205.02,-92.58 209.58,-84.56"/>
<polygon fill="midnightblue" stroke="midnightblue" points="212.69,-86.17 214.9,-75.81 206.71,-82.54 212.69,-86.17"/>
</g>
<!-- Node11&#45;&gt;Node5 -->
<g id="edge20" class="edge">
<title>Node11&#45;&gt;Node5</title>
<path fill="none" stroke="midnightblue" d="M258.2,-224.31C292.8,-197.47 398.23,-115.69 441.82,-81.88"/>
<polygon fill="midnightblue" stroke="midnightblue" points="444.15,-84.5 449.91,-75.61 439.86,-78.97 444.15,-84.5"/>
</g>
<!-- Node11&#45;&gt;Node6 -->
<g id="edge18" class="edge">
<title>Node11&#45;&gt;Node6</title>
<path fill="none" stroke="midnightblue" d="M274.1,-224.44C302.99,-215.32 348.92,-200.81 381.11,-190.65"/>
<polygon fill="midnightblue" stroke="midnightblue" points="382.55,-193.87 391.03,-187.52 380.44,-187.19 382.55,-193.87"/>
</g>
<!-- Node12&#45;&gt;Node13 -->
<g id="edge22" class="edge">
<title>Node12&#45;&gt;Node13</title>
<path fill="none" stroke="midnightblue" d="M185.91,-336.4C198.99,-327.13 216.08,-315.03 229.32,-305.65"/>
<polygon fill="midnightblue" stroke="midnightblue" points="231.64,-308.29 237.78,-299.66 227.59,-302.58 231.64,-308.29"/>
</g>
<!-- Node13&#45;&gt;Node6 -->
<g id="edge23" class="edge">
<title>Node13&#45;&gt;Node6</title>
<path fill="none" stroke="midnightblue" d="M260.8,-280.34C277.1,-267.44 309.14,-242.68 338,-224 355.62,-212.6 376.27,-201.02 392.19,-192.47"/>
<polygon fill="midnightblue" stroke="midnightblue" points="394.23,-195.35 401.41,-187.56 390.94,-189.17 394.23,-195.35"/>
</g>
<!-- Node13&#45;&gt;Node11 -->
<g id="edge24" class="edge">
<title>Node13&#45;&gt;Node11</title>
<path fill="none" stroke="midnightblue" d="M249.5,-280.08C249.11,-273.01 248.55,-262.86 248.05,-253.99"/>
<polygon fill="midnightblue" stroke="midnightblue" points="251.54,-253.54 247.49,-243.75 244.55,-253.93 251.54,-253.54"/>
</g>
<!-- Node14 -->
<g id="node14" class="node">
<title>Node14</title>
<g id="a_node14"><a xlink:href="err_8h.html" target="_top" xlink:title="Error codes.">
<polygon fill="white" stroke="black" points="120,-224.5 120,-243.5 190,-243.5 190,-224.5 120,-224.5"/>
<text text-anchor="middle" x="155" y="-231.5" font-family="Helvetica,sans-Serif" font-size="10.00">l4/sys/err.h</text>
</a>
</g>
</g>
<!-- Node13&#45;&gt;Node14 -->
<g id="edge25" class="edge">
<title>Node13&#45;&gt;Node14</title>
<path fill="none" stroke="midnightblue" d="M234.74,-280.32C219.78,-271.82 196.75,-258.73 179.27,-248.8"/>
<polygon fill="midnightblue" stroke="midnightblue" points="180.65,-245.55 170.23,-243.65 177.19,-251.64 180.65,-245.55"/>
</g>
<!-- Node14&#45;&gt;Node3 -->
<g id="edge26" class="edge">
<title>Node14&#45;&gt;Node3</title>
<path fill="none" stroke="midnightblue" d="M156.95,-224.21C161.64,-203.87 174.53,-152.22 193,-112 197.46,-102.28 203.65,-92.11 209.07,-83.9"/>
<polygon fill="midnightblue" stroke="midnightblue" points="211.99,-85.83 214.73,-75.59 206.21,-81.88 211.99,-85.83"/>
</g>
<!-- Node16 -->
<g id="node16" class="node">
<title>Node16</title>
<g id="a_node16"><a xlink:href="types.html" target="_top" xlink:title=" ">
<polygon fill="white" stroke="black" points="646,-342 646,-361 710,-361 710,-342 646,-342"/>
<text text-anchor="middle" x="678" y="-349" font-family="Helvetica,sans-Serif" font-size="10.00">cxx/types</text>
</a>
</g>
</g>
<!-- Node15&#45;&gt;Node16 -->
<g id="edge30" class="edge">
<title>Node15&#45;&gt;Node16</title>
<path fill="none" stroke="midnightblue" d="M477.65,-459.67C507.45,-452.37 549.15,-440.22 583,-423 612.57,-407.95 642.66,-383.82 660.83,-368.06"/>
<polygon fill="midnightblue" stroke="midnightblue" points="663.56,-370.32 668.74,-361.07 658.92,-365.07 663.56,-370.32"/>
</g>
<!-- Node17 -->
<g id="node17" class="node">
<title>Node17</title>
<g id="a_node17"><a xlink:href="ipc__basics_source.html" target="_top" xlink:title=" ">
<polygon fill="white" stroke="black" points="376.5,-403.5 376.5,-422.5 463.5,-422.5 463.5,-403.5 376.5,-403.5"/>
<text text-anchor="middle" x="420" y="-410.5" font-family="Helvetica,sans-Serif" font-size="10.00">cxx/ipc_basics</text>
</a>
</g>
</g>
<!-- Node15&#45;&gt;Node17 -->
<g id="edge31" class="edge">
<title>Node15&#45;&gt;Node17</title>
<path fill="none" stroke="midnightblue" d="M435.86,-459.08C433.32,-451.85 429.64,-441.41 426.47,-432.4"/>
<polygon fill="midnightblue" stroke="midnightblue" points="429.7,-431.02 423.08,-422.75 423.1,-433.35 429.7,-431.02"/>
</g>
<!-- Node18 -->
<g id="node18" class="node">
<title>Node18</title>
<g id="a_node18"><a xlink:href="capability_8h_source.html" target="_top" xlink:title=" ">
<polygon fill="white" stroke="black" points="482,-403.5 482,-422.5 574,-422.5 574,-403.5 482,-403.5"/>
<text text-anchor="middle" x="528" y="-410.5" font-family="Helvetica,sans-Serif" font-size="10.00">cxx/capability.h</text>
</a>
</g>
</g>
<!-- Node15&#45;&gt;Node18 -->
<g id="edge35" class="edge">
<title>Node15&#45;&gt;Node18</title>
<path fill="none" stroke="midnightblue" d="M453.3,-459.32C467.18,-450.9 488.49,-437.97 504.8,-428.07"/>
<polygon fill="midnightblue" stroke="midnightblue" points="507,-430.83 513.74,-422.65 503.37,-424.85 507,-430.83"/>
</g>
<!-- Node17&#45;&gt;Node11 -->
<g id="edge33" class="edge">
<title>Node17&#45;&gt;Node11</title>
<path fill="none" stroke="midnightblue" d="M420.98,-403.2C422.21,-388.14 422.7,-356.99 409,-336 379.31,-290.53 321.25,-261.89 283.31,-247.16"/>
<polygon fill="midnightblue" stroke="midnightblue" points="284.25,-243.78 273.66,-243.55 281.79,-250.33 284.25,-243.78"/>
</g>
<!-- Node17&#45;&gt;Node14 -->
<g id="edge34" class="edge">
<title>Node17&#45;&gt;Node14</title>
<path fill="none" stroke="midnightblue" d="M394.28,-403.48C351.19,-388.22 263.37,-352.79 205,-300 189.38,-285.88 175.13,-266.38 165.87,-252.43"/>
<polygon fill="midnightblue" stroke="midnightblue" points="168.66,-250.31 160.3,-243.8 162.78,-254.1 168.66,-250.31"/>
</g>
<!-- Node17&#45;&gt;Node16 -->
<g id="edge32" class="edge">
<title>Node17&#45;&gt;Node16</title>
<path fill="none" stroke="midnightblue" d="M456.97,-403.48C504.41,-392.53 586.53,-373.6 636.2,-362.14"/>
<polygon fill="midnightblue" stroke="midnightblue" points="637.03,-365.54 645.98,-359.88 635.45,-358.72 637.03,-365.54"/>
</g>
<!-- Node18&#45;&gt;Node2 -->
<g id="edge36" class="edge">
<title>Node18&#45;&gt;Node2</title>
<path fill="none" stroke="midnightblue" d="M540.89,-403.36C565.78,-385.54 618,-342.05 618,-291 618,-291 618,-291 618,-233 618,-200.95 618,-163.64 618,-141.75"/>
<polygon fill="midnightblue" stroke="midnightblue" points="621.5,-141.56 618,-131.56 614.5,-141.56 621.5,-141.56"/>
</g>
<!-- Node18&#45;&gt;Node6 -->
<g id="edge37" class="edge">
<title>Node18&#45;&gt;Node6</title>
<path fill="none" stroke="midnightblue" d="M527.82,-403.3C526.83,-374.94 520.49,-283.64 480,-224 471.1,-210.9 457.07,-200.24 444.6,-192.6"/>
<polygon fill="midnightblue" stroke="midnightblue" points="446.3,-189.54 435.89,-187.57 442.8,-195.61 446.3,-189.54"/>
</g>
<!-- Node18&#45;&gt;Node19 -->
<g id="edge38" class="edge">
<title>Node18&#45;&gt;Node19</title>
<path fill="none" stroke="midnightblue" d="M504.07,-403.48C475.3,-393.22 426.84,-375.96 394.4,-364.4"/>
<polygon fill="midnightblue" stroke="midnightblue" points="395.48,-361.07 384.88,-361.01 393.13,-367.66 395.48,-361.07"/>
</g>
<!-- Node19&#45;&gt;Node6 -->
<g id="edge39" class="edge">
<title>Node19&#45;&gt;Node6</title>
<path fill="none" stroke="midnightblue" d="M363.91,-341.76C372.79,-315.04 399.71,-234.02 411.9,-197.36"/>
<polygon fill="midnightblue" stroke="midnightblue" points="415.34,-198.11 415.17,-187.52 408.69,-195.91 415.34,-198.11"/>
</g>
<!-- Node19&#45;&gt;Node11 -->
<g id="edge40" class="edge">
<title>Node19&#45;&gt;Node11</title>
<path fill="none" stroke="midnightblue" d="M352.88,-341.69C340.4,-328.22 315.69,-301.77 294,-280 284.01,-269.97 272.54,-258.98 263.43,-250.37"/>
<polygon fill="midnightblue" stroke="midnightblue" points="265.81,-247.81 256.13,-243.5 261.02,-252.9 265.81,-247.81"/>
</g>
<!-- Node19&#45;&gt;Node13 -->
<g id="edge41" class="edge">
<title>Node19&#45;&gt;Node13</title>
<path fill="none" stroke="midnightblue" d="M345.1,-341.98C326.72,-332.12 296.24,-315.79 274.76,-304.27"/>
<polygon fill="midnightblue" stroke="midnightblue" points="276.34,-301.15 265.87,-299.51 273.03,-307.32 276.34,-301.15"/>
</g>
<!-- Node20&#45;&gt;Node9 -->
<g id="edge44" class="edge">
<title>Node20&#45;&gt;Node9</title>
<path fill="none" stroke="midnightblue" d="M427.54,-627.37C402.7,-608.65 343.64,-564.15 312.69,-540.83"/>
<polygon fill="midnightblue" stroke="midnightblue" points="314.5,-537.81 304.4,-534.59 310.28,-543.4 314.5,-537.81"/>
</g>
<!-- Node21 -->
<g id="node21" class="node">
<title>Node21</title>
<g id="a_node21"><a xlink:href="ipc__iface.html" target="_top" xlink:title="Interface Definition Language.">
<polygon fill="white" stroke="black" points="399,-515.5 399,-534.5 479,-534.5 479,-515.5 399,-515.5"/>
<text text-anchor="middle" x="439" y="-522.5" font-family="Helvetica,sans-Serif" font-size="10.00">cxx/ipc_iface</text>
</a>
</g>
</g>
<!-- Node20&#45;&gt;Node21 -->
<g id="edge45" class="edge">
<title>Node20&#45;&gt;Node21</title>
<path fill="none" stroke="midnightblue" d="M439,-627.37C439,-609.62 439,-568.67 439,-544.6"/>
<polygon fill="midnightblue" stroke="midnightblue" points="442.5,-544.59 439,-534.59 435.5,-544.59 442.5,-544.59"/>
</g>
<!-- Node23 -->
<g id="node23" class="node">
<title>Node23</title>
<g id="a_node23"><a xlink:href="ipc__string_source.html" target="_top" xlink:title=" ">
<polygon fill="white" stroke="black" points="488,-571.5 488,-590.5 572,-590.5 572,-571.5 488,-571.5"/>
<text text-anchor="middle" x="530" y="-578.5" font-family="Helvetica,sans-Serif" font-size="10.00">cxx/ipc_string</text>
</a>
</g>
</g>
<!-- Node20&#45;&gt;Node23 -->
<g id="edge52" class="edge">
<title>Node20&#45;&gt;Node23</title>
<path fill="none" stroke="midnightblue" d="M453.62,-627.32C467.95,-618.82 490.01,-605.73 506.75,-595.8"/>
<polygon fill="midnightblue" stroke="midnightblue" points="508.6,-598.77 515.42,-590.65 505.03,-592.75 508.6,-598.77"/>
</g>
<!-- Node21&#45;&gt;Node15 -->
<g id="edge51" class="edge">
<title>Node21&#45;&gt;Node15</title>
<path fill="none" stroke="midnightblue" d="M439,-515.08C439,-508.01 439,-497.86 439,-488.99"/>
<polygon fill="midnightblue" stroke="midnightblue" points="442.5,-488.75 439,-478.75 435.5,-488.75 442.5,-488.75"/>
</g>
<!-- Node21&#45;&gt;Node17 -->
<g id="edge46" class="edge">
<title>Node21&#45;&gt;Node17</title>
<path fill="none" stroke="midnightblue" d="M424.63,-515.33C413.12,-507.47 397.81,-494.72 391,-479 383.83,-462.44 394.27,-443.63 404.57,-430.52"/>
<polygon fill="midnightblue" stroke="midnightblue" points="407.32,-432.69 411.13,-422.8 401.98,-428.15 407.32,-432.69"/>
</g>
<!-- Node22 -->
<g id="node22" class="node">
<title>Node22</title>
<g id="a_node22"><a xlink:href="ipc__types.html" target="_top" xlink:title=" ">
<polygon fill="white" stroke="black" points="534.5,-459.5 534.5,-478.5 649.5,-478.5 649.5,-459.5 534.5,-459.5"/>
<text text-anchor="middle" x="592" y="-466.5" font-family="Helvetica,sans-Serif" font-size="10.00">l4/sys/cxx/ipc_types</text>
</a>
</g>
</g>
<!-- Node21&#45;&gt;Node22 -->
<g id="edge47" class="edge">
<title>Node21&#45;&gt;Node22</title>
<path fill="none" stroke="midnightblue" d="M463.24,-515.44C488.87,-506.4 529.49,-492.06 558.24,-481.92"/>
<polygon fill="midnightblue" stroke="midnightblue" points="559.61,-485.15 567.87,-478.52 557.28,-478.54 559.61,-485.15"/>
</g>
<!-- Node22&#45;&gt;Node16 -->
<g id="edge49" class="edge">
<title>Node22&#45;&gt;Node16</title>
<path fill="none" stroke="midnightblue" d="M598.46,-459.32C612.66,-440.26 646.77,-394.45 665.37,-369.46"/>
<polygon fill="midnightblue" stroke="midnightblue" points="668.3,-371.39 671.46,-361.28 662.68,-367.21 668.3,-371.39"/>
</g>
<!-- Node22&#45;&gt;Node17 -->
<g id="edge50" class="edge">
<title>Node22&#45;&gt;Node17</title>
<path fill="none" stroke="midnightblue" d="M564.75,-459.44C535.56,-450.28 489.08,-435.69 456.69,-425.52"/>
<polygon fill="midnightblue" stroke="midnightblue" points="457.72,-422.17 447.13,-422.52 455.62,-428.85 457.72,-422.17"/>
</g>
<!-- Node22&#45;&gt;Node18 -->
<g id="edge48" class="edge">
<title>Node22&#45;&gt;Node18</title>
<path fill="none" stroke="midnightblue" d="M581.72,-459.32C572.16,-451.26 557.72,-439.08 546.22,-429.37"/>
<polygon fill="midnightblue" stroke="midnightblue" points="548.37,-426.61 538.47,-422.83 543.86,-431.96 548.37,-426.61"/>
</g>
<!-- Node23&#45;&gt;Node16 -->
<g id="edge53" class="edge">
<title>Node23&#45;&gt;Node16</title>
<path fill="none" stroke="midnightblue" d="M552.21,-571.46C585.36,-557.49 647.14,-526.47 678,-479 696.81,-450.06 699.27,-437.11 694,-403 692.3,-392.04 688.66,-380.2 685.27,-370.74"/>
<polygon fill="midnightblue" stroke="midnightblue" points="688.49,-369.36 681.68,-361.24 681.94,-371.83 688.49,-369.36"/>
</g>
<!-- Node23&#45;&gt;Node17 -->
<g id="edge54" class="edge">
<title>Node23&#45;&gt;Node17</title>
<path fill="none" stroke="midnightblue" d="M487.89,-578.38C455.83,-574.73 413.36,-564.21 390,-535 368.86,-508.56 374.01,-491.02 385,-459 388.72,-448.16 396.23,-437.92 403.35,-429.96"/>
<polygon fill="midnightblue" stroke="midnightblue" points="406.05,-432.19 410.44,-422.55 401,-427.35 406.05,-432.19"/>
</g>
<!-- Node24 -->
<g id="node24" class="node">
<title>Node24</title>
<g id="a_node24"><a xlink:href="ipc__array_source.html" target="_top" xlink:title=" ">
<polygon fill="white" stroke="black" points="540,-515.5 540,-534.5 602,-534.5 602,-515.5 540,-515.5"/>
<text text-anchor="middle" x="571" y="-522.5" font-family="Helvetica,sans-Serif" font-size="10.00">ipc_array</text>
</a>
</g>
</g>
<!-- Node23&#45;&gt;Node24 -->
<g id="edge55" class="edge">
<title>Node23&#45;&gt;Node24</title>
<path fill="none" stroke="midnightblue" d="M536.77,-571.08C542.56,-563.46 551.06,-552.26 558.14,-542.94"/>
<polygon fill="midnightblue" stroke="midnightblue" points="561.1,-544.83 564.36,-534.75 555.52,-540.6 561.1,-544.83"/>
</g>
<!-- Node24&#45;&gt;Node16 -->
<g id="edge56" class="edge">
<title>Node24&#45;&gt;Node16</title>
<path fill="none" stroke="midnightblue" d="M602.36,-515.67C621.45,-508.94 644.67,-497.48 658,-479 681.24,-446.8 681.79,-397.97 679.99,-371.38"/>
<polygon fill="midnightblue" stroke="midnightblue" points="683.46,-370.82 679.11,-361.16 676.49,-371.42 683.46,-370.82"/>
</g>
<!-- Node24&#45;&gt;Node17 -->
<g id="edge57" class="edge">
<title>Node24&#45;&gt;Node17</title>
<path fill="none" stroke="midnightblue" d="M560.14,-515.39C544.12,-502.76 513.11,-478.58 486,-459 471.53,-448.54 454.92,-437.22 441.98,-428.55"/>
<polygon fill="midnightblue" stroke="midnightblue" points="443.56,-425.39 433.29,-422.76 439.67,-431.22 443.56,-425.39"/>
</g>
<!-- Node24&#45;&gt;Node22 -->
<g id="edge58" class="edge">
<title>Node24&#45;&gt;Node22</title>
<path fill="none" stroke="midnightblue" d="M574.47,-515.08C577.31,-507.77 581.43,-497.18 584.96,-488.1"/>
<polygon fill="midnightblue" stroke="midnightblue" points="588.23,-489.34 588.6,-478.75 581.71,-486.8 588.23,-489.34"/>
</g>
</g>
</svg>
