<?xml version="1.0" encoding="UTF-8" standalone="no"?>
<!DOCTYPE svg PUBLIC "-//W3C//DTD SVG 1.1//EN"
 "http://www.w3.org/Graphics/SVG/1.1/DTD/svg11.dtd">
<!-- Generated by graphviz version 2.43.0 (0)
 -->
<!-- Title: cxx::Slab::alloc Pages: 1 -->
<svg width="693pt" height="75pt"
 viewBox="0.00 0.00 693.00 75.00" xmlns="http://www.w3.org/2000/svg" xmlns:xlink="http://www.w3.org/1999/xlink">
<g id="graph0" class="graph" transform="scale(1 1) rotate(0) translate(4 71)">
<title>cxx::Slab::alloc</title>
<polygon fill="white" stroke="transparent" points="-4,4 -4,-71 689,-71 689,4 -4,4"/>
<!-- Node1 -->
<g id="node1" class="node">
<title>Node1</title>
<g id="a_node1"><a xlink:title="Allocate an object of type Type.">
<polygon fill="#bfbfbf" stroke="black" points="0,-28.5 0,-47.5 90,-47.5 90,-28.5 0,-28.5"/>
<text text-anchor="middle" x="45" y="-35.5" font-family="Helvetica,sans-Serif" font-size="10.00">cxx::Slab::alloc</text>
</a>
</g>
</g>
<!-- Node2 -->
<g id="node2" class="node">
<title>Node2</title>
<g id="a_node2"><a xlink:href="classcxx_1_1Base__slab.html#a48ac5e888c4292fc5b1662b3a5e01997" target="_top" xlink:title="Allocate a new object.">
<polygon fill="white" stroke="black" points="126,-28.5 126,-47.5 245,-47.5 245,-28.5 126,-28.5"/>
<text text-anchor="middle" x="185.5" y="-35.5" font-family="Helvetica,sans-Serif" font-size="10.00">cxx::Base_slab::alloc</text>
</a>
</g>
</g>
<!-- Node1&#45;&gt;Node2 -->
<g id="edge1" class="edge">
<title>Node1&#45;&gt;Node2</title>
<path fill="none" stroke="midnightblue" d="M90.2,-38C98.34,-38 107.01,-38 115.67,-38"/>
<polygon fill="midnightblue" stroke="midnightblue" points="115.8,-41.5 125.8,-38 115.8,-34.5 115.8,-41.5"/>
</g>
<!-- Node3 -->
<g id="node3" class="node">
<title>Node3</title>
<g id="a_node3"><a xlink:href="classcxx_1_1Base__slab.html#af7f8144a14030567ab8f83e88b9cf20b" target="_top" xlink:title="Free the given object (_o).">
<polygon fill="white" stroke="black" points="281,-28.5 281,-47.5 396,-47.5 396,-28.5 281,-28.5"/>
<text text-anchor="middle" x="338.5" y="-35.5" font-family="Helvetica,sans-Serif" font-size="10.00">cxx::Base_slab::free</text>
</a>
</g>
</g>
<!-- Node2&#45;&gt;Node3 -->
<g id="edge2" class="edge">
<title>Node2&#45;&gt;Node3</title>
<path fill="none" stroke="midnightblue" d="M245.31,-38C253.56,-38 262.08,-38 270.46,-38"/>
<polygon fill="midnightblue" stroke="midnightblue" points="270.58,-41.5 280.58,-38 270.58,-34.5 270.58,-41.5"/>
</g>
<!-- Node4 -->
<g id="node4" class="node">
<title>Node4</title>
<g id="a_node4"><a xlink:href="classcxx_1_1H__list.html#afa48e56b417c420b88b7494ce3e791d6" target="_top" xlink:title="Add element to the front of the list.">
<polygon fill="white" stroke="black" points="432,-47.5 432,-66.5 557,-66.5 557,-47.5 432,-47.5"/>
<text text-anchor="middle" x="494.5" y="-54.5" font-family="Helvetica,sans-Serif" font-size="10.00">cxx::H_list::push_front</text>
</a>
</g>
</g>
<!-- Node2&#45;&gt;Node4 -->
<g id="edge6" class="edge">
<title>Node2&#45;&gt;Node4</title>
<path fill="none" stroke="midnightblue" d="M224.86,-47.51C241.93,-51.27 262.35,-55.14 281,-57 327.7,-61.65 380.47,-61.68 421.73,-60.53"/>
<polygon fill="midnightblue" stroke="midnightblue" points="422.08,-64.02 431.97,-60.21 421.86,-57.02 422.08,-64.02"/>
</g>
<!-- Node6 -->
<g id="node6" class="node">
<title>Node6</title>
<g id="a_node6"><a xlink:href="classcxx_1_1H__list.html#abc13d604f76c1da4ea72c30c1302835d" target="_top" xlink:title="Remove the given element from its list.">
<polygon fill="white" stroke="black" points="439,-0.5 439,-19.5 550,-19.5 550,-0.5 439,-0.5"/>
<text text-anchor="middle" x="494.5" y="-7.5" font-family="Helvetica,sans-Serif" font-size="10.00">cxx::H_list::remove</text>
</a>
</g>
</g>
<!-- Node2&#45;&gt;Node6 -->
<g id="edge7" class="edge">
<title>Node2&#45;&gt;Node6</title>
<path fill="none" stroke="midnightblue" d="M226.74,-28.47C243.43,-24.89 263.06,-21.17 281,-19 330.27,-13.04 386.39,-10.86 428.58,-10.13"/>
<polygon fill="midnightblue" stroke="midnightblue" points="428.77,-13.63 438.72,-9.98 428.67,-6.63 428.77,-13.63"/>
</g>
<!-- Node3&#45;&gt;Node4 -->
<g id="edge3" class="edge">
<title>Node3&#45;&gt;Node4</title>
<path fill="none" stroke="midnightblue" d="M396.41,-45.02C404.72,-46.05 413.37,-47.11 421.93,-48.17"/>
<polygon fill="midnightblue" stroke="midnightblue" points="421.56,-51.65 431.91,-49.4 422.42,-44.7 421.56,-51.65"/>
</g>
<!-- Node3&#45;&gt;Node6 -->
<g id="edge5" class="edge">
<title>Node3&#45;&gt;Node6</title>
<path fill="none" stroke="midnightblue" d="M392.07,-28.44C404.58,-26.17 418.05,-23.72 430.97,-21.37"/>
<polygon fill="midnightblue" stroke="midnightblue" points="431.96,-24.75 441.17,-19.51 430.7,-17.86 431.96,-24.75"/>
</g>
<!-- Node5 -->
<g id="node5" class="node">
<title>Node5</title>
<g id="a_node5"><a xlink:href="classcxx_1_1H__list.html#a95a4b614aadeeb364d01693d2f594ace" target="_top" xlink:title="Add element to the front of the list.">
<polygon fill="white" stroke="black" points="593,-47.5 593,-66.5 685,-66.5 685,-47.5 593,-47.5"/>
<text text-anchor="middle" x="639" y="-54.5" font-family="Helvetica,sans-Serif" font-size="10.00">cxx::H_list::add</text>
</a>
</g>
</g>
<!-- Node4&#45;&gt;Node5 -->
<g id="edge4" class="edge">
<title>Node4&#45;&gt;Node5</title>
<path fill="none" stroke="midnightblue" d="M557.17,-57C565.73,-57 574.47,-57 582.9,-57"/>
<polygon fill="midnightblue" stroke="midnightblue" points="582.99,-60.5 592.99,-57 582.99,-53.5 582.99,-60.5"/>
</g>
</g>
</svg>
