<?xml version="1.0" encoding="UTF-8" standalone="no"?>
<!DOCTYPE svg PUBLIC "-//W3C//DTD SVG 1.1//EN"
 "http://www.w3.org/Graphics/SVG/1.1/DTD/svg11.dtd">
<!-- Generated by graphviz version 2.43.0 (0)
 -->
<!-- Title: L4::Kip::Mem_desc::all Pages: 1 -->
<svg width="284pt" height="88pt"
 viewBox="0.00 0.00 284.00 88.00" xmlns="http://www.w3.org/2000/svg" xmlns:xlink="http://www.w3.org/1999/xlink">
<g id="graph0" class="graph" transform="scale(1 1) rotate(0) translate(4 84)">
<title>L4::Kip::Mem_desc::all</title>
<polygon fill="white" stroke="transparent" points="-4,4 -4,-84 280,-84 280,4 -4,4"/>
<!-- Node1 -->
<g id="node1" class="node">
<title>Node1</title>
<g id="a_node1"><a xlink:title="Return enumerable list of memory descriptors.">
<polygon fill="#bfbfbf" stroke="black" points="0,-30 0,-49 126,-49 126,-30 0,-30"/>
<text text-anchor="middle" x="63" y="-37" font-family="Helvetica,sans-Serif" font-size="10.00">L4::Kip::Mem_desc::all</text>
</a>
</g>
</g>
<!-- Node2 -->
<g id="node2" class="node">
<title>Node2</title>
<g id="a_node2"><a xlink:href="classL4_1_1Kip_1_1Mem__desc.html#af1dd05e45df7c0e16476f394ce9fb3dd" target="_top" xlink:title="Return number of memory descriptors stored in the kernel info page.">
<polygon fill="white" stroke="black" points="162,-49.5 162,-79.5 276,-79.5 276,-49.5 162,-49.5"/>
<text text-anchor="start" x="170" y="-67.5" font-family="Helvetica,sans-Serif" font-size="10.00">L4::Kip::Mem_desc::</text>
<text text-anchor="middle" x="219" y="-56.5" font-family="Helvetica,sans-Serif" font-size="10.00">count</text>
</a>
</g>
</g>
<!-- Node1&#45;&gt;Node2 -->
<g id="edge1" class="edge">
<title>Node1&#45;&gt;Node2</title>
<path fill="none" stroke="midnightblue" d="M122.66,-49.02C132.19,-50.57 142.11,-52.18 151.8,-53.75"/>
<polygon fill="midnightblue" stroke="midnightblue" points="151.36,-57.23 161.79,-55.37 152.48,-50.32 151.36,-57.23"/>
</g>
<!-- Node3 -->
<g id="node3" class="node">
<title>Node3</title>
<g id="a_node3"><a xlink:href="classL4_1_1Kip_1_1Mem__desc.html#ad52dc6bb675e3c30b0f235021bbc1777" target="_top" xlink:title="Get first memory descriptor.">
<polygon fill="white" stroke="black" points="162,-0.5 162,-30.5 276,-30.5 276,-0.5 162,-0.5"/>
<text text-anchor="start" x="170" y="-18.5" font-family="Helvetica,sans-Serif" font-size="10.00">L4::Kip::Mem_desc::</text>
<text text-anchor="middle" x="219" y="-7.5" font-family="Helvetica,sans-Serif" font-size="10.00">first</text>
</a>
</g>
</g>
<!-- Node1&#45;&gt;Node3 -->
<g id="edge2" class="edge">
<title>Node1&#45;&gt;Node3</title>
<path fill="none" stroke="midnightblue" d="M125.31,-29.95C134.08,-28.58 143.14,-27.17 152,-25.79"/>
<polygon fill="midnightblue" stroke="midnightblue" points="152.56,-29.24 161.9,-24.24 151.48,-22.32 152.56,-29.24"/>
</g>
</g>
</svg>
