<?xml version="1.0" encoding="UTF-8" standalone="no"?>
<!DOCTYPE svg PUBLIC "-//W3C//DTD SVG 1.1//EN"
 "http://www.w3.org/Graphics/SVG/1.1/DTD/svg11.dtd">
<!-- Generated by graphviz version 2.43.0 (0)
 -->
<!-- Title: L4virtio::Driver::Block_device::add_block Pages: 1 -->
<svg width="309pt" height="186pt"
 viewBox="0.00 0.00 309.00 186.00" xmlns="http://www.w3.org/2000/svg" xmlns:xlink="http://www.w3.org/1999/xlink">
<g id="graph0" class="graph" transform="scale(1 1) rotate(0) translate(4 182)">
<title>L4virtio::Driver::Block_device::add_block</title>
<polygon fill="white" stroke="transparent" points="-4,4 -4,-182 305,-182 305,4 -4,4"/>
<!-- Node1 -->
<g id="node1" class="node">
<title>Node1</title>
<g id="a_node1"><a xlink:title="Add a data block to a request that has already been set up.">
<polygon fill="#bfbfbf" stroke="black" points="0,-73.5 0,-103.5 122,-103.5 122,-73.5 0,-73.5"/>
<text text-anchor="start" x="8" y="-91.5" font-family="Helvetica,sans-Serif" font-size="10.00">L4virtio::Driver::Block</text>
<text text-anchor="middle" x="61" y="-80.5" font-family="Helvetica,sans-Serif" font-size="10.00">_device::add_block</text>
</a>
</g>
</g>
<!-- Node2 -->
<g id="node2" class="node">
<title>Node2</title>
<g id="a_node2"><a xlink:href="classL4virtio_1_1Driver_1_1Virtqueue.html#a60e0cff278a11e1aeb749c17e809e093" target="_top" xlink:title="Allocate and return an unused descriptor from the descriptor table.">
<polygon fill="white" stroke="black" points="158,-147.5 158,-177.5 301,-177.5 301,-147.5 158,-147.5"/>
<text text-anchor="start" x="166" y="-165.5" font-family="Helvetica,sans-Serif" font-size="10.00">L4virtio::Driver::Virtqueue</text>
<text text-anchor="middle" x="229.5" y="-154.5" font-family="Helvetica,sans-Serif" font-size="10.00">::alloc_descriptor</text>
</a>
</g>
</g>
<!-- Node1&#45;&gt;Node2 -->
<g id="edge1" class="edge">
<title>Node1&#45;&gt;Node2</title>
<path fill="none" stroke="midnightblue" d="M88.37,-103.62C107.37,-114.17 133.81,-128.15 158,-138.5 162.38,-140.37 166.95,-142.2 171.58,-143.96"/>
<polygon fill="midnightblue" stroke="midnightblue" points="170.51,-147.3 181.1,-147.47 172.93,-140.73 170.51,-147.3"/>
</g>
<!-- Node3 -->
<g id="node3" class="node">
<title>Node3</title>
<g id="a_node3"><a xlink:href="classL4virtio_1_1Driver_1_1Virtqueue.html#a2b806bcf98022b49453a80bdd2944b04" target="_top" xlink:title="Return a reference to a descriptor in the descriptor table.">
<polygon fill="white" stroke="black" points="158,-98.5 158,-128.5 301,-128.5 301,-98.5 158,-98.5"/>
<text text-anchor="start" x="166" y="-116.5" font-family="Helvetica,sans-Serif" font-size="10.00">L4virtio::Driver::Virtqueue</text>
<text text-anchor="middle" x="229.5" y="-105.5" font-family="Helvetica,sans-Serif" font-size="10.00">::desc</text>
</a>
</g>
</g>
<!-- Node1&#45;&gt;Node3 -->
<g id="edge2" class="edge">
<title>Node1&#45;&gt;Node3</title>
<path fill="none" stroke="midnightblue" d="M122.11,-97.53C130.48,-98.78 139.19,-100.09 147.86,-101.39"/>
<polygon fill="midnightblue" stroke="midnightblue" points="147.59,-104.89 157.99,-102.91 148.63,-97.97 147.59,-104.89"/>
</g>
<!-- Node4 -->
<g id="node4" class="node">
<title>Node4</title>
<g id="a_node4"><a xlink:href="structL4virtio_1_1Virtqueue_1_1Desc_1_1Flags.html#a4c91d7f9a29c6b9f80d7db69ea066863" target="_top" xlink:title="Get the next bits ( 0 to 0 ) of raw.">
<polygon fill="white" stroke="black" points="176,-49.5 176,-79.5 283,-79.5 283,-49.5 176,-49.5"/>
<text text-anchor="start" x="184" y="-67.5" font-family="Helvetica,sans-Serif" font-size="10.00">L4virtio::Virtqueue</text>
<text text-anchor="middle" x="229.5" y="-56.5" font-family="Helvetica,sans-Serif" font-size="10.00">::Desc::Flags::next</text>
</a>
</g>
</g>
<!-- Node1&#45;&gt;Node4 -->
<g id="edge3" class="edge">
<title>Node1&#45;&gt;Node4</title>
<path fill="none" stroke="midnightblue" d="M122.11,-79.84C136.28,-77.79 151.41,-75.61 165.7,-73.55"/>
<polygon fill="midnightblue" stroke="midnightblue" points="166.52,-76.97 175.92,-72.08 165.52,-70.04 166.52,-76.97"/>
</g>
<!-- Node5 -->
<g id="node5" class="node">
<title>Node5</title>
<g id="a_node5"><a xlink:href="structL4virtio_1_1Virtqueue_1_1Desc_1_1Flags.html#a30ec0bb337904ddd9b321e41f6e5a2b0" target="_top" xlink:title="Get the write bits ( 1 to 1 ) of raw.">
<polygon fill="white" stroke="black" points="174.5,-0.5 174.5,-30.5 284.5,-30.5 284.5,-0.5 174.5,-0.5"/>
<text text-anchor="start" x="182.5" y="-18.5" font-family="Helvetica,sans-Serif" font-size="10.00">L4virtio::Virtqueue</text>
<text text-anchor="middle" x="229.5" y="-7.5" font-family="Helvetica,sans-Serif" font-size="10.00">::Desc::Flags::write</text>
</a>
</g>
</g>
<!-- Node1&#45;&gt;Node5 -->
<g id="edge4" class="edge">
<title>Node1&#45;&gt;Node5</title>
<path fill="none" stroke="midnightblue" d="M90.13,-73.29C109.04,-63.35 134.68,-50.42 158,-40.5 163.08,-38.34 168.41,-36.21 173.78,-34.15"/>
<polygon fill="midnightblue" stroke="midnightblue" points="175.28,-37.33 183.43,-30.55 172.83,-30.77 175.28,-37.33"/>
</g>
</g>
</svg>
