<?xml version="1.0" encoding="UTF-8" standalone="no"?>
<!DOCTYPE svg PUBLIC "-//W3C//DTD SVG 1.1//EN"
 "http://www.w3.org/Graphics/SVG/1.1/DTD/svg11.dtd">
<!-- Generated by graphviz version 2.43.0 (0)
 -->
<!-- Title: L4Re::Video::Color_component::size Pages: 1 -->
<svg width="264pt" height="88pt"
 viewBox="0.00 0.00 264.00 88.00" xmlns="http://www.w3.org/2000/svg" xmlns:xlink="http://www.w3.org/1999/xlink">
<g id="graph0" class="graph" transform="scale(1 1) rotate(0) translate(4 84)">
<title>L4Re::Video::Color_component::size</title>
<polygon fill="white" stroke="transparent" points="-4,4 -4,-84 260,-84 260,4 -4,4"/>
<!-- Node1 -->
<g id="node1" class="node">
<title>Node1</title>
<g id="a_node1"><a xlink:title="Return the number of bits used by the component.">
<polygon fill="#bfbfbf" stroke="black" points="150,-24.5 150,-54.5 256,-54.5 256,-24.5 150,-24.5"/>
<text text-anchor="start" x="158" y="-42.5" font-family="Helvetica,sans-Serif" font-size="10.00">L4Re::Video::Color</text>
<text text-anchor="middle" x="203" y="-31.5" font-family="Helvetica,sans-Serif" font-size="10.00">_component::size</text>
</a>
</g>
</g>
<!-- Node2 -->
<g id="node2" class="node">
<title>Node2</title>
<g id="a_node2"><a xlink:href="classL4Re_1_1Video_1_1Pixel__info.html#ad22a6f5891085219d36e844abb69ba11" target="_top" xlink:title="Number of bits of the pixel.">
<polygon fill="white" stroke="black" points="0,-49.5 0,-79.5 114,-79.5 114,-49.5 0,-49.5"/>
<text text-anchor="start" x="8" y="-67.5" font-family="Helvetica,sans-Serif" font-size="10.00">L4Re::Video::Pixel</text>
<text text-anchor="middle" x="57" y="-56.5" font-family="Helvetica,sans-Serif" font-size="10.00">_info::bits_per_pixel</text>
</a>
</g>
</g>
<!-- Node1&#45;&gt;Node2 -->
<g id="edge1" class="edge">
<title>Node1&#45;&gt;Node2</title>
<path fill="none" stroke="midnightblue" d="M139.56,-50.34C131.22,-51.79 122.71,-53.27 114.48,-54.69"/>
<polygon fill="midnightblue" stroke="midnightblue" points="140.35,-53.76 149.61,-48.6 139.15,-46.86 140.35,-53.76"/>
</g>
<!-- Node3 -->
<g id="node3" class="node">
<title>Node3</title>
<g id="a_node3"><a xlink:href="classL4Re_1_1Video_1_1Pixel__info.html#a6733df4bfc30ad4535a609ef90e63258" target="_top" xlink:title="Return whether the pixel has an alpha channel.">
<polygon fill="white" stroke="black" points="5,-0.5 5,-30.5 109,-30.5 109,-0.5 5,-0.5"/>
<text text-anchor="start" x="13" y="-18.5" font-family="Helvetica,sans-Serif" font-size="10.00">L4Re::Video::Pixel</text>
<text text-anchor="middle" x="57" y="-7.5" font-family="Helvetica,sans-Serif" font-size="10.00">_info::has_alpha</text>
</a>
</g>
</g>
<!-- Node1&#45;&gt;Node3 -->
<g id="edge2" class="edge">
<title>Node1&#45;&gt;Node3</title>
<path fill="none" stroke="midnightblue" d="M139.57,-29.09C129.41,-27.4 119,-25.67 109.15,-24.03"/>
<polygon fill="midnightblue" stroke="midnightblue" points="139.17,-32.58 149.61,-30.77 140.32,-25.67 139.17,-32.58"/>
</g>
</g>
</svg>
