<?xml version="1.0" encoding="UTF-8" standalone="no"?>
<!DOCTYPE svg PUBLIC "-//W3C//DTD SVG 1.1//EN"
 "http://www.w3.org/Graphics/SVG/1.1/DTD/svg11.dtd">
<!-- Generated by graphviz version 2.43.0 (0)
 -->
<!-- Title: L4vcpu::Vcpu::irq_disable_save Pages: 1 -->
<svg width="591pt" height="28pt"
 viewBox="0.00 0.00 591.00 28.00" xmlns="http://www.w3.org/2000/svg" xmlns:xlink="http://www.w3.org/1999/xlink">
<g id="graph0" class="graph" transform="scale(1 1) rotate(0) translate(4 24)">
<title>L4vcpu::Vcpu::irq_disable_save</title>
<polygon fill="white" stroke="transparent" points="-4,4 -4,-24 587,-24 587,4 -4,4"/>
<!-- Node1 -->
<g id="node1" class="node">
<title>Node1</title>
<g id="a_node1"><a xlink:title="Disable the vCPU for event delivery and return previous state.">
<polygon fill="#bfbfbf" stroke="black" points="0,-0.5 0,-19.5 169,-19.5 169,-0.5 0,-0.5"/>
<text text-anchor="middle" x="84.5" y="-7.5" font-family="Helvetica,sans-Serif" font-size="10.00">L4vcpu::Vcpu::irq_disable_save</text>
</a>
</g>
</g>
<!-- Node2 -->
<g id="node2" class="node">
<title>Node2</title>
<g id="a_node2"><a xlink:href="group__api__libvcpu.html#gaa1e7797e4ed8b7dabd40c9849f5c362c" target="_top" xlink:title="Disable a vCPU for event delivery and return previous state.">
<polygon fill="white" stroke="black" points="205,-0.5 205,-19.5 341,-19.5 341,-0.5 205,-0.5"/>
<text text-anchor="middle" x="273" y="-7.5" font-family="Helvetica,sans-Serif" font-size="10.00">l4vcpu_irq_disable_save</text>
</a>
</g>
</g>
<!-- Node1&#45;&gt;Node2 -->
<g id="edge1" class="edge">
<title>Node1&#45;&gt;Node2</title>
<path fill="none" stroke="midnightblue" d="M169.2,-10C177.67,-10 186.24,-10 194.64,-10"/>
<polygon fill="midnightblue" stroke="midnightblue" points="194.78,-13.5 204.78,-10 194.78,-6.5 194.78,-13.5"/>
</g>
<!-- Node3 -->
<g id="node3" class="node">
<title>Node3</title>
<g id="a_node3"><a xlink:href="group__api__libvcpu.html#gac8dd177f5382328e3922754cc9d36b28" target="_top" xlink:title="Disable a vCPU for event delivery.">
<polygon fill="white" stroke="black" points="377,-0.5 377,-19.5 484,-19.5 484,-0.5 377,-0.5"/>
<text text-anchor="middle" x="430.5" y="-7.5" font-family="Helvetica,sans-Serif" font-size="10.00">l4vcpu_irq_disable</text>
</a>
</g>
</g>
<!-- Node2&#45;&gt;Node3 -->
<g id="edge2" class="edge">
<title>Node2&#45;&gt;Node3</title>
<path fill="none" stroke="midnightblue" d="M341.3,-10C349.7,-10 358.27,-10 366.6,-10"/>
<polygon fill="midnightblue" stroke="midnightblue" points="366.62,-13.5 376.62,-10 366.62,-6.5 366.62,-13.5"/>
</g>
<!-- Node4 -->
<g id="node4" class="node">
<title>Node4</title>
<g id="a_node4"><a xlink:href="compiler_8h.html#a4accdcabe8bddb4964f8986855e7c728" target="_top" xlink:title="Memory barrier.">
<polygon fill="white" stroke="black" points="520,-0.5 520,-19.5 583,-19.5 583,-0.5 520,-0.5"/>
<text text-anchor="middle" x="551.5" y="-7.5" font-family="Helvetica,sans-Serif" font-size="10.00">l4_barrier</text>
</a>
</g>
</g>
<!-- Node3&#45;&gt;Node4 -->
<g id="edge3" class="edge">
<title>Node3&#45;&gt;Node4</title>
<path fill="none" stroke="midnightblue" d="M484.04,-10C492.62,-10 501.4,-10 509.64,-10"/>
<polygon fill="midnightblue" stroke="midnightblue" points="509.75,-13.5 519.75,-10 509.75,-6.5 509.75,-13.5"/>
</g>
</g>
</svg>
