<?xml version="1.0" encoding="UTF-8" standalone="no"?>
<!DOCTYPE svg PUBLIC "-//W3C//DTD SVG 1.1//EN"
 "http://www.w3.org/Graphics/SVG/1.1/DTD/svg11.dtd">
<!-- Generated by graphviz version 2.43.0 (0)
 -->
<!-- Title: L4::Cap_base::fpage Pages: 1 -->
<svg width="396pt" height="66pt"
 viewBox="0.00 0.00 396.00 66.00" xmlns="http://www.w3.org/2000/svg" xmlns:xlink="http://www.w3.org/1999/xlink">
<g id="graph0" class="graph" transform="scale(1 1) rotate(0) translate(4 62)">
<title>L4::Cap_base::fpage</title>
<polygon fill="white" stroke="transparent" points="-4,4 -4,-62 392,-62 392,4 -4,4"/>
<!-- Node1 -->
<g id="node1" class="node">
<title>Node1</title>
<g id="a_node1"><a xlink:title="Return flex&#45;page for the capability.">
<polygon fill="#bfbfbf" stroke="black" points="273,-19.5 273,-38.5 388,-38.5 388,-19.5 273,-19.5"/>
<text text-anchor="middle" x="330.5" y="-26.5" font-family="Helvetica,sans-Serif" font-size="10.00">L4::Cap_base::fpage</text>
</a>
</g>
</g>
<!-- Node2 -->
<g id="node2" class="node">
<title>Node2</title>
<g id="a_node2"><a xlink:href="classL4_1_1Cap__base.html#a1501f9852fda4c01a1591a7c53585d5f" target="_top" xlink:title="Copy a capability.">
<polygon fill="white" stroke="black" points="124.5,-38.5 124.5,-57.5 234.5,-57.5 234.5,-38.5 124.5,-38.5"/>
<text text-anchor="middle" x="179.5" y="-45.5" font-family="Helvetica,sans-Serif" font-size="10.00">L4::Cap_base::copy</text>
</a>
</g>
</g>
<!-- Node1&#45;&gt;Node2 -->
<g id="edge1" class="edge">
<title>Node1&#45;&gt;Node2</title>
<path fill="none" stroke="midnightblue" d="M262.66,-37.52C253.28,-38.72 243.74,-39.94 234.64,-41.1"/>
<polygon fill="midnightblue" stroke="midnightblue" points="263.27,-40.97 272.74,-36.24 262.38,-34.03 263.27,-40.97"/>
</g>
<!-- Node4 -->
<g id="node4" class="node">
<title>Node4</title>
<g id="a_node4"><a xlink:href="classL4_1_1Cap__base.html#ab6cd8e73ebbdb5dfa45355b7c1fde1c2" target="_top" xlink:title="Replace this capability with the contents of src.">
<polygon fill="white" stroke="black" points="122,-0.5 122,-19.5 237,-19.5 237,-0.5 122,-0.5"/>
<text text-anchor="middle" x="179.5" y="-7.5" font-family="Helvetica,sans-Serif" font-size="10.00">L4::Cap_base::move</text>
</a>
</g>
</g>
<!-- Node1&#45;&gt;Node4 -->
<g id="edge3" class="edge">
<title>Node1&#45;&gt;Node4</title>
<path fill="none" stroke="midnightblue" d="M262.77,-20.49C254.2,-19.4 245.49,-18.29 237.1,-17.22"/>
<polygon fill="midnightblue" stroke="midnightblue" points="262.38,-23.97 272.74,-21.76 263.27,-17.03 262.38,-23.97"/>
</g>
<!-- Node3 -->
<g id="node3" class="node">
<title>Node3</title>
<g id="a_node3"><a xlink:href="classL4_1_1Cap.html#a03750491e2cb888d26e2fbdfcc0b7dbc" target="_top" xlink:title="Copy a capability to this cap slot.">
<polygon fill="white" stroke="black" points="2,-38.5 2,-57.5 84,-57.5 84,-38.5 2,-38.5"/>
<text text-anchor="middle" x="43" y="-45.5" font-family="Helvetica,sans-Serif" font-size="10.00">L4::Cap::copy</text>
</a>
</g>
</g>
<!-- Node2&#45;&gt;Node3 -->
<g id="edge2" class="edge">
<title>Node2&#45;&gt;Node3</title>
<path fill="none" stroke="midnightblue" d="M114.02,-48C103.8,-48 93.49,-48 84.04,-48"/>
<polygon fill="midnightblue" stroke="midnightblue" points="114.18,-51.5 124.18,-48 114.18,-44.5 114.18,-51.5"/>
</g>
<!-- Node5 -->
<g id="node5" class="node">
<title>Node5</title>
<g id="a_node5"><a xlink:href="classL4_1_1Cap.html#ae097fe17d218b76dc368a5383372168f" target="_top" xlink:title="Move a capability to this cap slot.">
<polygon fill="white" stroke="black" points="0,-0.5 0,-19.5 86,-19.5 86,-0.5 0,-0.5"/>
<text text-anchor="middle" x="43" y="-7.5" font-family="Helvetica,sans-Serif" font-size="10.00">L4::Cap::move</text>
</a>
</g>
</g>
<!-- Node4&#45;&gt;Node5 -->
<g id="edge4" class="edge">
<title>Node4&#45;&gt;Node5</title>
<path fill="none" stroke="midnightblue" d="M111.72,-10C103.06,-10 94.39,-10 86.28,-10"/>
<polygon fill="midnightblue" stroke="midnightblue" points="111.85,-13.5 121.85,-10 111.85,-6.5 111.85,-13.5"/>
</g>
</g>
</svg>
