<?xml version="1.0" encoding="UTF-8" standalone="no"?>
<!DOCTYPE svg PUBLIC "-//W3C//DTD SVG 1.1//EN"
 "http://www.w3.org/Graphics/SVG/1.1/DTD/svg11.dtd">
<!-- Generated by graphviz version 2.43.0 (0)
 -->
<!-- Title: L4virtio::Virtqueue::used_size Pages: 1 -->
<svg width="266pt" height="88pt"
 viewBox="0.00 0.00 266.00 88.00" xmlns="http://www.w3.org/2000/svg" xmlns:xlink="http://www.w3.org/1999/xlink">
<g id="graph0" class="graph" transform="scale(1 1) rotate(0) translate(4 84)">
<title>L4virtio::Virtqueue::used_size</title>
<polygon fill="white" stroke="transparent" points="-4,4 -4,-84 262,-84 262,4 -4,4"/>
<!-- Node1 -->
<g id="node1" class="node">
<title>Node1</title>
<g id="a_node1"><a xlink:title="Calculate the size of the used ring for num entries.">
<polygon fill="#bfbfbf" stroke="black" points="151,-24.5 151,-54.5 258,-54.5 258,-24.5 151,-24.5"/>
<text text-anchor="start" x="159" y="-42.5" font-family="Helvetica,sans-Serif" font-size="10.00">L4virtio::Virtqueue</text>
<text text-anchor="middle" x="204.5" y="-31.5" font-family="Helvetica,sans-Serif" font-size="10.00">::used_size</text>
</a>
</g>
</g>
<!-- Node2 -->
<g id="node2" class="node">
<title>Node2</title>
<g id="a_node2"><a xlink:href="classL4virtio_1_1Svr_1_1Device__t.html#ab906b4cc61026fd815a8056f07bef10e" target="_top" xlink:title="Enable/disable the specified queue.">
<polygon fill="white" stroke="black" points="0,-49.5 0,-79.5 115,-79.5 115,-49.5 0,-49.5"/>
<text text-anchor="start" x="8" y="-67.5" font-family="Helvetica,sans-Serif" font-size="10.00">L4virtio::Svr::Device</text>
<text text-anchor="middle" x="57.5" y="-56.5" font-family="Helvetica,sans-Serif" font-size="10.00">_t::setup_queue</text>
</a>
</g>
</g>
<!-- Node1&#45;&gt;Node2 -->
<g id="edge1" class="edge">
<title>Node1&#45;&gt;Node2</title>
<path fill="none" stroke="midnightblue" d="M140.62,-50.34C132.23,-51.79 123.66,-53.27 115.38,-54.69"/>
<polygon fill="midnightblue" stroke="midnightblue" points="141.48,-53.74 150.74,-48.6 140.29,-46.85 141.48,-53.74"/>
</g>
<!-- Node3 -->
<g id="node3" class="node">
<title>Node3</title>
<g id="a_node3"><a xlink:href="classL4virtio_1_1Virtqueue.html#a96dfd139f3a022e9e2328e28716acdc9" target="_top" xlink:title="Calculate the total size of this virtqueue.">
<polygon fill="white" stroke="black" points="4,-0.5 4,-30.5 111,-30.5 111,-0.5 4,-0.5"/>
<text text-anchor="start" x="12" y="-18.5" font-family="Helvetica,sans-Serif" font-size="10.00">L4virtio::Virtqueue</text>
<text text-anchor="middle" x="57.5" y="-7.5" font-family="Helvetica,sans-Serif" font-size="10.00">::total_size</text>
</a>
</g>
</g>
<!-- Node1&#45;&gt;Node3 -->
<g id="edge2" class="edge">
<title>Node1&#45;&gt;Node3</title>
<path fill="none" stroke="midnightblue" d="M140.7,-29.11C130.95,-27.49 120.96,-25.84 111.46,-24.27"/>
<polygon fill="midnightblue" stroke="midnightblue" points="140.3,-32.59 150.74,-30.77 141.45,-25.68 140.3,-32.59"/>
</g>
</g>
</svg>
