<?xml version="1.0" encoding="UTF-8" standalone="no"?>
<!DOCTYPE svg PUBLIC "-//W3C//DTD SVG 1.1//EN"
 "http://www.w3.org/Graphics/SVG/1.1/DTD/svg11.dtd">
<!-- Generated by graphviz version 2.43.0 (0)
 -->
<!-- Title: L4::Rcv_endpoint Pages: 1 -->
<svg width="293pt" height="354pt"
 viewBox="0.00 0.00 293.00 354.00" xmlns="http://www.w3.org/2000/svg" xmlns:xlink="http://www.w3.org/1999/xlink">
<g id="graph0" class="graph" transform="scale(1 1) rotate(0) translate(4 350)">
<title>L4::Rcv_endpoint</title>
<polygon fill="white" stroke="transparent" points="-4,4 -4,-350 289,-350 289,4 -4,4"/>
<!-- Node1 -->
<g id="node1" class="node">
<title>Node1</title>
<g id="a_node1"><a xlink:title="Interface for kernel objects that allow to receive IPC from them.">
<polygon fill="#bfbfbf" stroke="black" points="62,-0.5 62,-57.5 162,-57.5 162,-0.5 62,-0.5"/>
<text text-anchor="middle" x="112" y="-45.5" font-family="Helvetica,sans-Serif" font-size="10.00">L4::Rcv_endpoint</text>
<polyline fill="none" stroke="black" points="62,-38.5 162,-38.5 "/>
<text text-anchor="middle" x="112" y="-26.5" font-family="Helvetica,sans-Serif" font-size="10.00"> </text>
<polyline fill="none" stroke="black" points="62,-19.5 162,-19.5 "/>
<text text-anchor="start" x="70" y="-7.5" font-family="Helvetica,sans-Serif" font-size="10.00">+ bind_thread()</text>
</a>
</g>
</g>
<!-- Node2 -->
<g id="node2" class="node">
<title>Node2</title>
<g id="a_node2"><a xlink:href="classL4_1_1Kobject__t.html" target="_top" xlink:title=" ">
<polygon fill="white" stroke="black" points="39,-95.5 39,-196.5 185,-196.5 185,-95.5 39,-95.5"/>
<text text-anchor="start" x="47" y="-184.5" font-family="Helvetica,sans-Serif" font-size="10.00">L4::Kobject_t&lt; Rcv</text>
<text text-anchor="start" x="47" y="-173.5" font-family="Helvetica,sans-Serif" font-size="10.00">_endpoint, Kobject,</text>
<text text-anchor="start" x="47" y="-162.5" font-family="Helvetica,sans-Serif" font-size="10.00"> L4_PROTO_KOBJECT, Type</text>
<text text-anchor="middle" x="112" y="-151.5" font-family="Helvetica,sans-Serif" font-size="10.00">_info::Demand_t&lt; 1 &gt; &gt;</text>
<polyline fill="none" stroke="black" points="39,-144.5 185,-144.5 "/>
<text text-anchor="middle" x="112" y="-132.5" font-family="Helvetica,sans-Serif" font-size="10.00"> </text>
<polyline fill="none" stroke="black" points="39,-125.5 185,-125.5 "/>
<text text-anchor="start" x="47" y="-113.5" font-family="Helvetica,sans-Serif" font-size="10.00"># c()</text>
<text text-anchor="start" x="47" y="-102.5" font-family="Helvetica,sans-Serif" font-size="10.00"># __check_protocols__()</text>
</a>
</g>
</g>
<!-- Node2&#45;&gt;Node1 -->
<g id="edge1" class="edge">
<title>Node2&#45;&gt;Node1</title>
<path fill="none" stroke="midnightblue" d="M112,-85.22C112,-75.59 112,-66.06 112,-57.68"/>
<polygon fill="none" stroke="midnightblue" points="108.5,-85.23 112,-95.23 115.5,-85.23 108.5,-85.23"/>
</g>
<!-- Node3 -->
<g id="node3" class="node">
<title>Node3</title>
<g id="a_node3"><a xlink:href="classL4_1_1Kobject.html" target="_top" xlink:title="Base class for all kinds of kernel objects and remote objects, referenced by capabilities.">
<polygon fill="white" stroke="black" points="0,-272 0,-340 86,-340 86,-272 0,-272"/>
<text text-anchor="middle" x="43" y="-328" font-family="Helvetica,sans-Serif" font-size="10.00">L4::Kobject</text>
<polyline fill="none" stroke="black" points="0,-321 86,-321 "/>
<text text-anchor="middle" x="43" y="-309" font-family="Helvetica,sans-Serif" font-size="10.00"> </text>
<polyline fill="none" stroke="black" points="0,-302 86,-302 "/>
<text text-anchor="start" x="8" y="-290" font-family="Helvetica,sans-Serif" font-size="10.00">+ dec_refcnt()</text>
<text text-anchor="start" x="8" y="-279" font-family="Helvetica,sans-Serif" font-size="10.00"># cap()</text>
</a>
</g>
</g>
<!-- Node3&#45;&gt;Node2 -->
<g id="edge2" class="edge">
<title>Node3&#45;&gt;Node2</title>
<path fill="none" stroke="midnightblue" d="M61.53,-262.56C70.41,-242.24 81.09,-217.77 90.34,-196.59"/>
<polygon fill="none" stroke="midnightblue" points="58.26,-261.31 57.46,-271.88 64.67,-264.11 58.26,-261.31"/>
</g>
<!-- Node4 -->
<g id="node4" class="node">
<title>Node4</title>
<g id="a_node4"><a xlink:href="classL4_1_1Kobject__t.html" target="_top" xlink:title="Helper class to create an L4Re interface class that is derived from a single base class.">
<polygon fill="white" stroke="black" points="104,-266.5 104,-345.5 260,-345.5 260,-266.5 104,-266.5"/>
<text text-anchor="start" x="112" y="-333.5" font-family="Helvetica,sans-Serif" font-size="10.00">L4::Kobject_t&lt; Derived,</text>
<text text-anchor="middle" x="182" y="-322.5" font-family="Helvetica,sans-Serif" font-size="10.00"> Base, PROTO, S_DEMAND &gt;</text>
<polyline fill="none" stroke="black" points="104,-315.5 260,-315.5 "/>
<text text-anchor="middle" x="182" y="-303.5" font-family="Helvetica,sans-Serif" font-size="10.00"> </text>
<polyline fill="none" stroke="black" points="104,-296.5 260,-296.5 "/>
<text text-anchor="start" x="112" y="-284.5" font-family="Helvetica,sans-Serif" font-size="10.00"># c()</text>
<text text-anchor="start" x="112" y="-273.5" font-family="Helvetica,sans-Serif" font-size="10.00"># __check_protocols__()</text>
</a>
</g>
</g>
<!-- Node4&#45;&gt;Node2 -->
<g id="edge3" class="edge">
<title>Node4&#45;&gt;Node2</title>
<path fill="none" stroke="orange" d="M160.82,-257.2C152.33,-238.04 142.55,-215.95 133.98,-196.61"/>
<polygon fill="orange" stroke="orange" points="157.63,-258.62 164.88,-266.35 164.03,-255.79 157.63,-258.62"/>
<text text-anchor="start" x="155" y="-240" font-family="Helvetica,sans-Serif" font-size="10.00"> &lt; Rcv_endpoint, Kobject,</text>
<text text-anchor="start" x="155" y="-229" font-family="Helvetica,sans-Serif" font-size="10.00"> L4_PROTO_KOBJECT, Type</text>
<text text-anchor="middle" x="220" y="-218" font-family="Helvetica,sans-Serif" font-size="10.00">_info::Demand_t&lt; 1 &gt; &gt;</text>
</g>
</g>
</svg>
