<?xml version="1.0" encoding="UTF-8" standalone="no"?>
<!DOCTYPE svg PUBLIC "-//W3C//DTD SVG 1.1//EN"
 "http://www.w3.org/Graphics/SVG/1.1/DTD/svg11.dtd">
<!-- Generated by graphviz version 2.43.0 (0)
 -->
<!-- Title: cxx::Bitfield::val_dirty Pages: 1 -->
<svg width="497pt" height="303pt"
 viewBox="0.00 0.00 497.00 302.50" xmlns="http://www.w3.org/2000/svg" xmlns:xlink="http://www.w3.org/1999/xlink">
<g id="graph0" class="graph" transform="scale(1 1) rotate(0) translate(4 298.5)">
<title>cxx::Bitfield::val_dirty</title>
<polygon fill="white" stroke="transparent" points="-4,4 -4,-298.5 493,-298.5 493,4 -4,4"/>
<!-- Node1 -->
<g id="node1" class="node">
<title>Node1</title>
<g id="a_node1"><a xlink:title="Get the shifted bits for val.">
<polygon fill="#bfbfbf" stroke="black" points="394,-137.5 394,-167.5 489,-167.5 489,-137.5 394,-137.5"/>
<text text-anchor="start" x="402" y="-155.5" font-family="Helvetica,sans-Serif" font-size="10.00">cxx::Bitfield::val</text>
<text text-anchor="middle" x="441.5" y="-144.5" font-family="Helvetica,sans-Serif" font-size="10.00">_dirty</text>
</a>
</g>
</g>
<!-- Node2 -->
<g id="node2" class="node">
<title>Node2</title>
<g id="a_node2"><a xlink:href="classcxx_1_1Bitfield.html#a3384706160a84e15a283e2c639071a26" target="_top" xlink:title="Get the shifted bits for val.">
<polygon fill="white" stroke="black" points="263,-143 263,-162 358,-162 358,-143 263,-143"/>
<text text-anchor="middle" x="310.5" y="-150" font-family="Helvetica,sans-Serif" font-size="10.00">cxx::Bitfield::val</text>
</a>
</g>
</g>
<!-- Node1&#45;&gt;Node2 -->
<g id="edge1" class="edge">
<title>Node1&#45;&gt;Node2</title>
<path fill="none" stroke="midnightblue" d="M383.9,-145.8C375.25,-145.7 366.4,-145.76 358,-145.99"/>
<polygon fill="midnightblue" stroke="midnightblue" points="383.86,-149.3 393.93,-145.99 384,-142.3 383.86,-149.3"/>
</g>
<!-- Node2&#45;&gt;Node1 -->
<g id="edge10" class="edge">
<title>Node2&#45;&gt;Node1</title>
<path fill="none" stroke="midnightblue" d="M368.03,-159.2C376.68,-159.3 385.52,-159.24 393.93,-159.01"/>
<polygon fill="midnightblue" stroke="midnightblue" points="368.07,-155.7 358,-159.01 367.93,-162.7 368.07,-155.7"/>
</g>
<!-- Node3 -->
<g id="node3" class="node">
<title>Node3</title>
<g id="a_node3"><a xlink:href="classcxx_1_1Bitfield.html#a50d93d103f4b31798399bc349cb4d210" target="_top" xlink:title="Get the bits out of val.">
<polygon fill="white" stroke="black" points="131,-275 131,-294 227,-294 227,-275 131,-275"/>
<text text-anchor="middle" x="179" y="-282" font-family="Helvetica,sans-Serif" font-size="10.00">cxx::Bitfield::get</text>
</a>
</g>
</g>
<!-- Node2&#45;&gt;Node3 -->
<g id="edge2" class="edge">
<title>Node2&#45;&gt;Node3</title>
<path fill="none" stroke="midnightblue" d="M300.19,-171.1C287,-195.77 260.67,-239.25 227,-265.5 222.14,-269.29 216.43,-272.42 210.68,-274.98"/>
<polygon fill="midnightblue" stroke="midnightblue" points="303.38,-172.56 304.88,-162.07 297.17,-169.33 303.38,-172.56"/>
</g>
<!-- Node4 -->
<g id="node4" class="node">
<title>Node4</title>
<g id="a_node4"><a xlink:href="classcxx_1_1Bitfield.html#af5f6db1f81c5ac0eb7093d8fd61310d9" target="_top" xlink:title="Get the bits in place out of val.">
<polygon fill="white" stroke="black" points="131,-225.5 131,-255.5 227,-255.5 227,-225.5 131,-225.5"/>
<text text-anchor="start" x="139" y="-243.5" font-family="Helvetica,sans-Serif" font-size="10.00">cxx::Bitfield::get</text>
<text text-anchor="middle" x="179" y="-232.5" font-family="Helvetica,sans-Serif" font-size="10.00">_unshifted</text>
</a>
</g>
</g>
<!-- Node2&#45;&gt;Node4 -->
<g id="edge3" class="edge">
<title>Node2&#45;&gt;Node4</title>
<path fill="none" stroke="midnightblue" d="M287.78,-168.17C271.25,-180 247.86,-196.52 227,-210.5 219.6,-215.46 211.45,-220.73 204.04,-225.44"/>
<polygon fill="midnightblue" stroke="midnightblue" points="290.11,-170.8 296.2,-162.13 286.03,-165.12 290.11,-170.8"/>
</g>
<!-- Node5 -->
<g id="node5" class="node">
<title>Node5</title>
<g id="a_node5"><a xlink:href="classcxx_1_1Bitfield.html#a0ecb232dbd24976e50f5a6674b504517" target="_top" xlink:title="Set the bits corresponding to val.">
<polygon fill="white" stroke="black" points="0,-154 0,-173 95,-173 95,-154 0,-154"/>
<text text-anchor="middle" x="47.5" y="-161" font-family="Helvetica,sans-Serif" font-size="10.00">cxx::Bitfield::set</text>
</a>
</g>
</g>
<!-- Node2&#45;&gt;Node5 -->
<g id="edge4" class="edge">
<title>Node2&#45;&gt;Node5</title>
<path fill="none" stroke="midnightblue" d="M275.04,-165.41C260.45,-170.23 243.12,-175.11 227,-177.5 182.57,-184.08 131.42,-178.78 95.3,-172.9"/>
<polygon fill="midnightblue" stroke="midnightblue" points="276.34,-168.67 284.66,-162.12 274.07,-162.05 276.34,-168.67"/>
</g>
<!-- Node6 -->
<g id="node6" class="node">
<title>Node6</title>
<g id="a_node6"><a xlink:href="classcxx_1_1Bitfield.html#a68f3092e1839bc709beb3611c2f5cb31" target="_top" xlink:title="Set the bits corresponding to val.">
<polygon fill="white" stroke="black" points="131.5,-137.5 131.5,-167.5 226.5,-167.5 226.5,-137.5 131.5,-137.5"/>
<text text-anchor="start" x="139.5" y="-155.5" font-family="Helvetica,sans-Serif" font-size="10.00">cxx::Bitfield::set</text>
<text text-anchor="middle" x="179" y="-144.5" font-family="Helvetica,sans-Serif" font-size="10.00">_dirty</text>
</a>
</g>
</g>
<!-- Node2&#45;&gt;Node6 -->
<g id="edge5" class="edge">
<title>Node2&#45;&gt;Node6</title>
<path fill="none" stroke="midnightblue" d="M252.68,-152.5C243.99,-152.5 235.12,-152.5 226.68,-152.5"/>
<polygon fill="midnightblue" stroke="midnightblue" points="252.75,-156 262.75,-152.5 252.75,-149 252.75,-156"/>
</g>
<!-- Node7 -->
<g id="node7" class="node">
<title>Node7</title>
<g id="a_node7"><a xlink:href="classcxx_1_1Bitfield.html#ae9c4c45aeb034031a6d5cd5484e571bb" target="_top" xlink:title="Set the bits corresponding to val.">
<polygon fill="white" stroke="black" points="0,-82.5 0,-112.5 95,-112.5 95,-82.5 0,-82.5"/>
<text text-anchor="start" x="8" y="-100.5" font-family="Helvetica,sans-Serif" font-size="10.00">cxx::Bitfield::set</text>
<text text-anchor="middle" x="47.5" y="-89.5" font-family="Helvetica,sans-Serif" font-size="10.00">_unshifted</text>
</a>
</g>
</g>
<!-- Node2&#45;&gt;Node7 -->
<g id="edge7" class="edge">
<title>Node2&#45;&gt;Node7</title>
<path fill="none" stroke="midnightblue" d="M269.63,-139.93C256.17,-135.95 241.01,-131.74 227,-128.5 182.57,-118.21 131.2,-109.63 95.01,-104.13"/>
<polygon fill="midnightblue" stroke="midnightblue" points="268.96,-143.38 279.54,-142.91 270.97,-136.68 268.96,-143.38"/>
</g>
<!-- Node8 -->
<g id="node8" class="node">
<title>Node8</title>
<g id="a_node8"><a xlink:href="classcxx_1_1Bitfield.html#ae6e85dede315b549dfec835d92525948" target="_top" xlink:title="Set the bits corresponding to val.">
<polygon fill="white" stroke="black" points="131.5,-49.5 131.5,-79.5 226.5,-79.5 226.5,-49.5 131.5,-49.5"/>
<text text-anchor="start" x="139.5" y="-67.5" font-family="Helvetica,sans-Serif" font-size="10.00">cxx::Bitfield::set</text>
<text text-anchor="middle" x="179" y="-56.5" font-family="Helvetica,sans-Serif" font-size="10.00">_unshifted_dirty</text>
</a>
</g>
</g>
<!-- Node2&#45;&gt;Node8 -->
<g id="edge8" class="edge">
<title>Node2&#45;&gt;Node8</title>
<path fill="none" stroke="midnightblue" d="M287.78,-136.83C271.25,-125 247.86,-108.48 227,-94.5 219.6,-89.54 211.45,-84.27 204.04,-79.56"/>
<polygon fill="midnightblue" stroke="midnightblue" points="286.03,-139.88 296.2,-142.87 290.11,-134.2 286.03,-139.88"/>
</g>
<!-- Node9 -->
<g id="node9" class="node">
<title>Node9</title>
<g id="a_node9"><a xlink:href="classcxx_1_1Bitfield.html#aabe77366dc22247455497f4a925ea3ef" target="_top" xlink:title="Get the shifted bits for val.">
<polygon fill="white" stroke="black" points="131.5,-0.5 131.5,-30.5 226.5,-30.5 226.5,-0.5 131.5,-0.5"/>
<text text-anchor="start" x="139.5" y="-18.5" font-family="Helvetica,sans-Serif" font-size="10.00">cxx::Bitfield::val</text>
<text text-anchor="middle" x="179" y="-7.5" font-family="Helvetica,sans-Serif" font-size="10.00">_unshifted</text>
</a>
</g>
</g>
<!-- Node2&#45;&gt;Node9 -->
<g id="edge11" class="edge">
<title>Node2&#45;&gt;Node9</title>
<path fill="none" stroke="midnightblue" d="M299.64,-133.96C285.99,-109.71 259.32,-67.07 227,-39.5 223.24,-36.29 218.97,-33.37 214.58,-30.75"/>
<polygon fill="midnightblue" stroke="midnightblue" points="296.64,-135.77 304.52,-142.85 302.78,-132.4 296.64,-135.77"/>
</g>
<!-- Node6&#45;&gt;Node5 -->
<g id="edge6" class="edge">
<title>Node6&#45;&gt;Node5</title>
<path fill="none" stroke="midnightblue" d="M121.18,-157.33C112.49,-158.06 103.62,-158.82 95.18,-159.53"/>
<polygon fill="midnightblue" stroke="midnightblue" points="121.58,-160.81 131.25,-156.47 120.99,-153.83 121.58,-160.81"/>
</g>
<!-- Node8&#45;&gt;Node7 -->
<g id="edge9" class="edge">
<title>Node8&#45;&gt;Node7</title>
<path fill="none" stroke="midnightblue" d="M121.46,-78.91C112.69,-81.14 103.71,-83.43 95.18,-85.6"/>
<polygon fill="midnightblue" stroke="midnightblue" points="122.42,-82.27 131.25,-76.41 120.69,-75.49 122.42,-82.27"/>
</g>
</g>
</svg>
