<?xml version="1.0" encoding="UTF-8" standalone="no"?>
<!DOCTYPE svg PUBLIC "-//W3C//DTD SVG 1.1//EN"
 "http://www.w3.org/Graphics/SVG/1.1/DTD/svg11.dtd">
<!-- Generated by graphviz version 2.43.0 (0)
 -->
<!-- Title: cxx::Bits::Base_avl_set::begin Pages: 1 -->
<svg width="412pt" height="39pt"
 viewBox="0.00 0.00 412.00 39.00" xmlns="http://www.w3.org/2000/svg" xmlns:xlink="http://www.w3.org/1999/xlink">
<g id="graph0" class="graph" transform="scale(1 1) rotate(0) translate(4 35)">
<title>cxx::Bits::Base_avl_set::begin</title>
<polygon fill="white" stroke="transparent" points="-4,4 -4,-35 408,-35 408,4 -4,4"/>
<!-- Node1 -->
<g id="node1" class="node">
<title>Node1</title>
<g id="a_node1"><a xlink:title="Get the mutable forward iterator for the first element of the set.">
<polygon fill="#bfbfbf" stroke="black" points="0,-0.5 0,-30.5 109,-30.5 109,-0.5 0,-0.5"/>
<text text-anchor="start" x="8" y="-18.5" font-family="Helvetica,sans-Serif" font-size="10.00">cxx::Bits::Base_avl</text>
<text text-anchor="middle" x="54.5" y="-7.5" font-family="Helvetica,sans-Serif" font-size="10.00">_set::begin</text>
</a>
</g>
</g>
<!-- Node2 -->
<g id="node2" class="node">
<title>Node2</title>
<g id="a_node2"><a xlink:href="classcxx_1_1Bits_1_1Bst.html#af24506a1efd4a2d22f89a0211da3d5e0" target="_top" xlink:title="Get the constant forward iterator for the first element in the set.">
<polygon fill="white" stroke="black" points="145,-6 145,-25 258,-25 258,-6 145,-6"/>
<text text-anchor="middle" x="201.5" y="-13" font-family="Helvetica,sans-Serif" font-size="10.00">cxx::Bits::Bst::begin</text>
</a>
</g>
</g>
<!-- Node1&#45;&gt;Node2 -->
<g id="edge1" class="edge">
<title>Node1&#45;&gt;Node2</title>
<path fill="none" stroke="midnightblue" d="M109.08,-15.5C117.34,-15.5 125.95,-15.5 134.44,-15.5"/>
<polygon fill="midnightblue" stroke="midnightblue" points="134.71,-19 144.71,-15.5 134.71,-12 134.71,-19"/>
</g>
<!-- Node3 -->
<g id="node3" class="node">
<title>Node3</title>
<g id="a_node3"><a xlink:href="classcxx_1_1Bits_1_1Bst.html#ad0507c7685968acce75bafa667add503" target="_top" xlink:title="Access the head node as object of type Node.">
<polygon fill="white" stroke="black" points="294,-6 294,-25 404,-25 404,-6 294,-6"/>
<text text-anchor="middle" x="349" y="-13" font-family="Helvetica,sans-Serif" font-size="10.00">cxx::Bits::Bst::head</text>
</a>
</g>
</g>
<!-- Node2&#45;&gt;Node3 -->
<g id="edge2" class="edge">
<title>Node2&#45;&gt;Node3</title>
<path fill="none" stroke="midnightblue" d="M258.34,-15.5C266.66,-15.5 275.29,-15.5 283.76,-15.5"/>
<polygon fill="midnightblue" stroke="midnightblue" points="283.99,-19 293.99,-15.5 283.99,-12 283.99,-19"/>
</g>
</g>
</svg>
