<?xml version="1.0" encoding="UTF-8" standalone="no"?>
<!DOCTYPE svg PUBLIC "-//W3C//DTD SVG 1.1//EN"
 "http://www.w3.org/Graphics/SVG/1.1/DTD/svg11.dtd">
<!-- Generated by graphviz version 2.43.0 (0)
 -->
<!-- Title: L4Re::Log Pages: 1 -->
<svg width="369pt" height="952pt"
 viewBox="0.00 0.00 368.50 952.00" xmlns="http://www.w3.org/2000/svg" xmlns:xlink="http://www.w3.org/1999/xlink">
<g id="graph0" class="graph" transform="scale(1 1) rotate(0) translate(4 948)">
<title>L4Re::Log</title>
<polygon fill="white" stroke="transparent" points="-4,4 -4,-948 364.5,-948 364.5,4 -4,4"/>
<!-- Node1 -->
<g id="node1" class="node">
<title>Node1</title>
<g id="a_node1"><a xlink:title="Log interface class.">
<polygon fill="#bfbfbf" stroke="black" points="35.5,-0.5 35.5,-68.5 99.5,-68.5 99.5,-0.5 35.5,-0.5"/>
<text text-anchor="middle" x="67.5" y="-56.5" font-family="Helvetica,sans-Serif" font-size="10.00">L4Re::Log</text>
<polyline fill="none" stroke="black" points="35.5,-49.5 99.5,-49.5 "/>
<text text-anchor="middle" x="67.5" y="-37.5" font-family="Helvetica,sans-Serif" font-size="10.00"> </text>
<polyline fill="none" stroke="black" points="35.5,-30.5 99.5,-30.5 "/>
<text text-anchor="start" x="43.5" y="-18.5" font-family="Helvetica,sans-Serif" font-size="10.00">+ printn()</text>
<text text-anchor="start" x="43.5" y="-7.5" font-family="Helvetica,sans-Serif" font-size="10.00">+ print()</text>
</a>
</g>
</g>
<!-- Node2 -->
<g id="node2" class="node">
<title>Node2</title>
<g id="a_node2"><a xlink:href="classL4_1_1Kobject__t.html" target="_top" xlink:title=" ">
<polygon fill="white" stroke="black" points="0,-106.5 0,-196.5 135,-196.5 135,-106.5 0,-106.5"/>
<text text-anchor="start" x="8" y="-184.5" font-family="Helvetica,sans-Serif" font-size="10.00">L4::Kobject_t&lt; Log,</text>
<text text-anchor="start" x="8" y="-173.5" font-family="Helvetica,sans-Serif" font-size="10.00"> L4::Vcon, L4::PROTO</text>
<text text-anchor="middle" x="67.5" y="-162.5" font-family="Helvetica,sans-Serif" font-size="10.00">_EMPTY &gt;</text>
<polyline fill="none" stroke="black" points="0,-155.5 135,-155.5 "/>
<text text-anchor="middle" x="67.5" y="-143.5" font-family="Helvetica,sans-Serif" font-size="10.00"> </text>
<polyline fill="none" stroke="black" points="0,-136.5 135,-136.5 "/>
<text text-anchor="start" x="8" y="-124.5" font-family="Helvetica,sans-Serif" font-size="10.00"># c()</text>
<text text-anchor="start" x="8" y="-113.5" font-family="Helvetica,sans-Serif" font-size="10.00"># __check_protocols__()</text>
</a>
</g>
</g>
<!-- Node2&#45;&gt;Node1 -->
<g id="edge1" class="edge">
<title>Node2&#45;&gt;Node1</title>
<path fill="none" stroke="midnightblue" d="M67.5,-96.23C67.5,-86.8 67.5,-77.26 67.5,-68.62"/>
<polygon fill="none" stroke="midnightblue" points="64,-96.37 67.5,-106.37 71,-96.37 64,-96.37"/>
</g>
<!-- Node3 -->
<g id="node3" class="node">
<title>Node3</title>
<g id="a_node3"><a xlink:href="classL4_1_1Vcon.html" target="_top" xlink:title="C++ L4 Vcon interface.">
<polygon fill="white" stroke="black" points="79.5,-234.5 79.5,-346.5 191.5,-346.5 191.5,-234.5 79.5,-234.5"/>
<text text-anchor="middle" x="135.5" y="-334.5" font-family="Helvetica,sans-Serif" font-size="10.00">L4::Vcon</text>
<polyline fill="none" stroke="black" points="79.5,-327.5 191.5,-327.5 "/>
<text text-anchor="middle" x="135.5" y="-315.5" font-family="Helvetica,sans-Serif" font-size="10.00"> </text>
<polyline fill="none" stroke="black" points="79.5,-308.5 191.5,-308.5 "/>
<text text-anchor="start" x="87.5" y="-296.5" font-family="Helvetica,sans-Serif" font-size="10.00">+ send()</text>
<text text-anchor="start" x="87.5" y="-285.5" font-family="Helvetica,sans-Serif" font-size="10.00">+ write()</text>
<text text-anchor="start" x="87.5" y="-274.5" font-family="Helvetica,sans-Serif" font-size="10.00">+ read()</text>
<text text-anchor="start" x="87.5" y="-263.5" font-family="Helvetica,sans-Serif" font-size="10.00">+ read_with_flags()</text>
<text text-anchor="start" x="87.5" y="-252.5" font-family="Helvetica,sans-Serif" font-size="10.00">+ set_attr()</text>
<text text-anchor="start" x="87.5" y="-241.5" font-family="Helvetica,sans-Serif" font-size="10.00">+ get_attr()</text>
</a>
</g>
</g>
<!-- Node3&#45;&gt;Node2 -->
<g id="edge2" class="edge">
<title>Node3&#45;&gt;Node2</title>
<path fill="none" stroke="midnightblue" d="M103.5,-225.03C98.73,-215.43 93.92,-205.72 89.42,-196.67"/>
<polygon fill="none" stroke="midnightblue" points="100.46,-226.77 108.04,-234.17 106.73,-223.66 100.46,-226.77"/>
</g>
<!-- Node4 -->
<g id="node4" class="node">
<title>Node4</title>
<g id="a_node4"><a xlink:href="classL4_1_1Kobject__t.html" target="_top" xlink:title=" ">
<polygon fill="white" stroke="black" points="82,-384.5 82,-463.5 217,-463.5 217,-384.5 82,-384.5"/>
<text text-anchor="start" x="90" y="-451.5" font-family="Helvetica,sans-Serif" font-size="10.00">L4::Kobject_t&lt; Vcon,</text>
<text text-anchor="middle" x="149.5" y="-440.5" font-family="Helvetica,sans-Serif" font-size="10.00"> Icu, L4_PROTO_LOG &gt;</text>
<polyline fill="none" stroke="black" points="82,-433.5 217,-433.5 "/>
<text text-anchor="middle" x="149.5" y="-421.5" font-family="Helvetica,sans-Serif" font-size="10.00"> </text>
<polyline fill="none" stroke="black" points="82,-414.5 217,-414.5 "/>
<text text-anchor="start" x="90" y="-402.5" font-family="Helvetica,sans-Serif" font-size="10.00"># c()</text>
<text text-anchor="start" x="90" y="-391.5" font-family="Helvetica,sans-Serif" font-size="10.00"># __check_protocols__()</text>
</a>
</g>
</g>
<!-- Node4&#45;&gt;Node3 -->
<g id="edge3" class="edge">
<title>Node4&#45;&gt;Node3</title>
<path fill="none" stroke="midnightblue" d="M144.31,-374.29C143.35,-365.25 142.34,-355.74 141.36,-346.53"/>
<polygon fill="none" stroke="midnightblue" points="140.84,-374.68 145.38,-384.26 147.8,-373.94 140.84,-374.68"/>
</g>
<!-- Node5 -->
<g id="node5" class="node">
<title>Node5</title>
<g id="a_node5"><a xlink:href="classL4_1_1Icu.html" target="_top" xlink:title="C++ Icu interface.">
<polygon fill="white" stroke="black" points="208,-522.5 208,-645.5 291,-645.5 291,-522.5 208,-522.5"/>
<text text-anchor="middle" x="249.5" y="-633.5" font-family="Helvetica,sans-Serif" font-size="10.00">L4::Icu</text>
<polyline fill="none" stroke="black" points="208,-626.5 291,-626.5 "/>
<text text-anchor="middle" x="249.5" y="-614.5" font-family="Helvetica,sans-Serif" font-size="10.00"> </text>
<polyline fill="none" stroke="black" points="208,-607.5 291,-607.5 "/>
<text text-anchor="start" x="216" y="-595.5" font-family="Helvetica,sans-Serif" font-size="10.00">+ bind()</text>
<text text-anchor="start" x="216" y="-584.5" font-family="Helvetica,sans-Serif" font-size="10.00">+ unbind()</text>
<text text-anchor="start" x="216" y="-573.5" font-family="Helvetica,sans-Serif" font-size="10.00">+ info()</text>
<text text-anchor="start" x="216" y="-562.5" font-family="Helvetica,sans-Serif" font-size="10.00">+ msi_info()</text>
<text text-anchor="start" x="216" y="-551.5" font-family="Helvetica,sans-Serif" font-size="10.00">+ control()</text>
<text text-anchor="start" x="216" y="-540.5" font-family="Helvetica,sans-Serif" font-size="10.00">+ mask()</text>
<text text-anchor="start" x="216" y="-529.5" font-family="Helvetica,sans-Serif" font-size="10.00">+ set_mode()</text>
</a>
</g>
</g>
<!-- Node5&#45;&gt;Node4 -->
<g id="edge4" class="edge">
<title>Node5&#45;&gt;Node4</title>
<path fill="none" stroke="midnightblue" d="M205.52,-513.52C194.73,-496.46 183.55,-478.8 174.05,-463.79"/>
<polygon fill="none" stroke="midnightblue" points="202.82,-515.79 211.12,-522.36 208.73,-512.04 202.82,-515.79"/>
</g>
<!-- Node6 -->
<g id="node6" class="node">
<title>Node6</title>
<g id="a_node6"><a xlink:href="classL4_1_1Kobject__t.html" target="_top" xlink:title=" ">
<polygon fill="white" stroke="black" points="198.5,-704.5 198.5,-794.5 360.5,-794.5 360.5,-704.5 198.5,-704.5"/>
<text text-anchor="start" x="206.5" y="-782.5" font-family="Helvetica,sans-Serif" font-size="10.00">L4::Kobject_t&lt; Icu,</text>
<text text-anchor="start" x="206.5" y="-771.5" font-family="Helvetica,sans-Serif" font-size="10.00"> Irq_eoi, L4_PROTO_IRQ,</text>
<text text-anchor="middle" x="279.5" y="-760.5" font-family="Helvetica,sans-Serif" font-size="10.00"> Type_info::Demand_t&lt; 1 &gt; &gt;</text>
<polyline fill="none" stroke="black" points="198.5,-753.5 360.5,-753.5 "/>
<text text-anchor="middle" x="279.5" y="-741.5" font-family="Helvetica,sans-Serif" font-size="10.00"> </text>
<polyline fill="none" stroke="black" points="198.5,-734.5 360.5,-734.5 "/>
<text text-anchor="start" x="206.5" y="-722.5" font-family="Helvetica,sans-Serif" font-size="10.00"># c()</text>
<text text-anchor="start" x="206.5" y="-711.5" font-family="Helvetica,sans-Serif" font-size="10.00"># __check_protocols__()</text>
</a>
</g>
</g>
<!-- Node6&#45;&gt;Node5 -->
<g id="edge5" class="edge">
<title>Node6&#45;&gt;Node5</title>
<path fill="none" stroke="midnightblue" d="M270.8,-694.24C269.11,-684.18 267.3,-673.76 265.5,-664 264.41,-658.08 263.24,-651.92 262.04,-645.77"/>
<polygon fill="none" stroke="midnightblue" points="267.36,-694.87 272.46,-704.15 274.26,-693.72 267.36,-694.87"/>
</g>
<!-- Node7 -->
<g id="node7" class="node">
<title>Node7</title>
<g id="a_node7"><a xlink:href="classL4_1_1Irq__eoi.html" target="_top" xlink:title="Interface for sending an acknowledge message to an object.">
<polygon fill="white" stroke="black" points="275.5,-875.5 275.5,-932.5 349.5,-932.5 349.5,-875.5 275.5,-875.5"/>
<text text-anchor="middle" x="312.5" y="-920.5" font-family="Helvetica,sans-Serif" font-size="10.00">L4::Irq_eoi</text>
<polyline fill="none" stroke="black" points="275.5,-913.5 349.5,-913.5 "/>
<text text-anchor="middle" x="312.5" y="-901.5" font-family="Helvetica,sans-Serif" font-size="10.00"> </text>
<polyline fill="none" stroke="black" points="275.5,-894.5 349.5,-894.5 "/>
<text text-anchor="start" x="283.5" y="-882.5" font-family="Helvetica,sans-Serif" font-size="10.00">+ unmask()</text>
</a>
</g>
</g>
<!-- Node7&#45;&gt;Node6 -->
<g id="edge6" class="edge">
<title>Node7&#45;&gt;Node6</title>
<path fill="none" stroke="midnightblue" d="M307.81,-865.08C305.5,-848.93 302.37,-829.94 298.5,-813 297.14,-807.03 295.5,-800.8 293.77,-794.68"/>
<polygon fill="none" stroke="midnightblue" points="304.38,-865.81 309.21,-875.24 311.31,-864.85 304.38,-865.81"/>
</g>
<!-- Node8 -->
<g id="node8" class="node">
<title>Node8</title>
<g id="a_node8"><a xlink:href="classL4_1_1Kobject__t.html" target="_top" xlink:title="Helper class to create an L4Re interface class that is derived from a single base class.">
<polygon fill="white" stroke="black" points="71.5,-864.5 71.5,-943.5 227.5,-943.5 227.5,-864.5 71.5,-864.5"/>
<text text-anchor="start" x="79.5" y="-931.5" font-family="Helvetica,sans-Serif" font-size="10.00">L4::Kobject_t&lt; Derived,</text>
<text text-anchor="middle" x="149.5" y="-920.5" font-family="Helvetica,sans-Serif" font-size="10.00"> Base, PROTO, S_DEMAND &gt;</text>
<polyline fill="none" stroke="black" points="71.5,-913.5 227.5,-913.5 "/>
<text text-anchor="middle" x="149.5" y="-901.5" font-family="Helvetica,sans-Serif" font-size="10.00"> </text>
<polyline fill="none" stroke="black" points="71.5,-894.5 227.5,-894.5 "/>
<text text-anchor="start" x="79.5" y="-882.5" font-family="Helvetica,sans-Serif" font-size="10.00"># c()</text>
<text text-anchor="start" x="79.5" y="-871.5" font-family="Helvetica,sans-Serif" font-size="10.00"># __check_protocols__()</text>
</a>
</g>
</g>
<!-- Node8&#45;&gt;Node2 -->
<g id="edge9" class="edge">
<title>Node8&#45;&gt;Node2</title>
<path fill="none" stroke="orange" d="M92.33,-857.13C64.73,-829.61 37.5,-791.96 37.5,-750.5 37.5,-750.5 37.5,-750.5 37.5,-289.5 37.5,-257.97 45.18,-223.28 52.76,-196.7"/>
<polygon fill="orange" stroke="orange" points="90.1,-859.83 99.72,-864.26 94.96,-854.79 90.1,-859.83"/>
<text text-anchor="start" x="37.5" y="-496" font-family="Helvetica,sans-Serif" font-size="10.00"> &lt; Log, L4::Vcon, L4</text>
<text text-anchor="middle" x="86" y="-485" font-family="Helvetica,sans-Serif" font-size="10.00">::PROTO_EMPTY &gt;</text>
</g>
<!-- Node8&#45;&gt;Node4 -->
<g id="edge8" class="edge">
<title>Node8&#45;&gt;Node4</title>
<path fill="none" stroke="orange" d="M148.63,-854.06C147.9,-810.08 146.9,-743.73 146.5,-686 145.96,-607.15 147.54,-514.91 148.61,-463.91"/>
<polygon fill="orange" stroke="orange" points="145.13,-854.26 148.8,-864.19 152.13,-854.14 145.13,-854.26"/>
<text text-anchor="start" x="146.5" y="-678" font-family="Helvetica,sans-Serif" font-size="10.00"> &lt; Vcon, Icu, L4_PROTO</text>
<text text-anchor="middle" x="204" y="-667" font-family="Helvetica,sans-Serif" font-size="10.00">_LOG &gt;</text>
</g>
<!-- Node8&#45;&gt;Node6 -->
<g id="edge7" class="edge">
<title>Node8&#45;&gt;Node6</title>
<path fill="none" stroke="orange" d="M159.03,-854.47C163.53,-840.08 170.06,-824.99 179.5,-813 184.95,-806.08 191.38,-799.73 198.33,-793.94"/>
<polygon fill="orange" stroke="orange" points="155.61,-853.69 156.23,-864.26 162.34,-855.61 155.61,-853.69"/>
<text text-anchor="start" x="179.5" y="-838" font-family="Helvetica,sans-Serif" font-size="10.00"> &lt; Icu, Irq_eoi, L4</text>
<text text-anchor="start" x="179.5" y="-827" font-family="Helvetica,sans-Serif" font-size="10.00">_PROTO_IRQ, Type_info</text>
<text text-anchor="middle" x="237" y="-816" font-family="Helvetica,sans-Serif" font-size="10.00">::Demand_t&lt; 1 &gt; &gt;</text>
</g>
</g>
</svg>
