<?xml version="1.0" encoding="UTF-8" standalone="no"?>
<!DOCTYPE svg PUBLIC "-//W3C//DTD SVG 1.1//EN"
 "http://www.w3.org/Graphics/SVG/1.1/DTD/svg11.dtd">
<!-- Generated by graphviz version 2.43.0 (0)
 -->
<!-- Title: L4virtio::Driver::Virtqueue::desc Pages: 1 -->
<svg width="491pt" height="235pt"
 viewBox="0.00 0.00 491.00 235.00" xmlns="http://www.w3.org/2000/svg" xmlns:xlink="http://www.w3.org/1999/xlink">
<g id="graph0" class="graph" transform="scale(1 1) rotate(0) translate(4 231)">
<title>L4virtio::Driver::Virtqueue::desc</title>
<polygon fill="white" stroke="transparent" points="-4,4 -4,-231 487,-231 487,4 -4,4"/>
<!-- Node1 -->
<g id="node1" class="node">
<title>Node1</title>
<g id="a_node1"><a xlink:title="Return a reference to a descriptor in the descriptor table.">
<polygon fill="#bfbfbf" stroke="black" points="340,-98.5 340,-128.5 483,-128.5 483,-98.5 340,-98.5"/>
<text text-anchor="start" x="348" y="-116.5" font-family="Helvetica,sans-Serif" font-size="10.00">L4virtio::Driver::Virtqueue</text>
<text text-anchor="middle" x="411.5" y="-105.5" font-family="Helvetica,sans-Serif" font-size="10.00">::desc</text>
</a>
</g>
</g>
<!-- Node2 -->
<g id="node2" class="node">
<title>Node2</title>
<g id="a_node2"><a xlink:href="classL4virtio_1_1Driver_1_1Block__device.html#a53ec612b1d207804102e34d51f6016cc" target="_top" xlink:title="Add a data block to a request that has already been set up.">
<polygon fill="white" stroke="black" points="171.5,-196.5 171.5,-226.5 293.5,-226.5 293.5,-196.5 171.5,-196.5"/>
<text text-anchor="start" x="179.5" y="-214.5" font-family="Helvetica,sans-Serif" font-size="10.00">L4virtio::Driver::Block</text>
<text text-anchor="middle" x="232.5" y="-203.5" font-family="Helvetica,sans-Serif" font-size="10.00">_device::add_block</text>
</a>
</g>
</g>
<!-- Node1&#45;&gt;Node2 -->
<g id="edge1" class="edge">
<title>Node1&#45;&gt;Node2</title>
<path fill="none" stroke="midnightblue" d="M384.24,-134.86C363.45,-150.99 333.14,-172.78 304,-187.5 297.54,-190.76 290.53,-193.75 283.52,-196.42"/>
<polygon fill="midnightblue" stroke="midnightblue" points="386.57,-137.49 392.27,-128.56 382.24,-131.98 386.57,-137.49"/>
</g>
<!-- Node3 -->
<g id="node3" class="node">
<title>Node3</title>
<g id="a_node3"><a xlink:href="classL4virtio_1_1Driver_1_1Virtqueue.html#a8b7ef703e8e55d889419f43dc28dd40e" target="_top" xlink:title="Initialize this virtqueue.">
<polygon fill="white" stroke="black" points="161,-147.5 161,-177.5 304,-177.5 304,-147.5 161,-147.5"/>
<text text-anchor="start" x="169" y="-165.5" font-family="Helvetica,sans-Serif" font-size="10.00">L4virtio::Driver::Virtqueue</text>
<text text-anchor="middle" x="232.5" y="-154.5" font-family="Helvetica,sans-Serif" font-size="10.00">::init_queue</text>
</a>
</g>
</g>
<!-- Node1&#45;&gt;Node3 -->
<g id="edge2" class="edge">
<title>Node1&#45;&gt;Node3</title>
<path fill="none" stroke="midnightblue" d="M346.13,-131.32C327.01,-136.61 306.28,-142.35 287.87,-147.45"/>
<polygon fill="midnightblue" stroke="midnightblue" points="347.25,-134.64 355.95,-128.6 345.38,-127.9 347.25,-134.64"/>
</g>
<!-- Node5 -->
<g id="node5" class="node">
<title>Node5</title>
<g id="a_node5"><a xlink:href="classL4virtio_1_1Driver_1_1Block__device.html#a63f21e71556accc8c669ef80161ecd8e" target="_top" xlink:title="Process request synchronously.">
<polygon fill="white" stroke="black" points="162.5,-98.5 162.5,-128.5 302.5,-128.5 302.5,-98.5 162.5,-98.5"/>
<text text-anchor="start" x="170.5" y="-116.5" font-family="Helvetica,sans-Serif" font-size="10.00">L4virtio::Driver::Block</text>
<text text-anchor="middle" x="232.5" y="-105.5" font-family="Helvetica,sans-Serif" font-size="10.00">_device::process_request</text>
</a>
</g>
</g>
<!-- Node1&#45;&gt;Node5 -->
<g id="edge4" class="edge">
<title>Node1&#45;&gt;Node5</title>
<path fill="none" stroke="midnightblue" d="M329.66,-113.5C320.65,-113.5 311.52,-113.5 302.66,-113.5"/>
<polygon fill="midnightblue" stroke="midnightblue" points="329.78,-117 339.78,-113.5 329.78,-110 329.78,-117"/>
</g>
<!-- Node6 -->
<g id="node6" class="node">
<title>Node6</title>
<g id="a_node6"><a xlink:href="classL4virtio_1_1Driver_1_1Block__device.html#a2c2e9924abafe2eff34821b166c6c36f" target="_top" xlink:title="Process request asynchronously.">
<polygon fill="white" stroke="black" points="170,-49.5 170,-79.5 295,-79.5 295,-49.5 170,-49.5"/>
<text text-anchor="start" x="178" y="-67.5" font-family="Helvetica,sans-Serif" font-size="10.00">L4virtio::Driver::Block</text>
<text text-anchor="middle" x="232.5" y="-56.5" font-family="Helvetica,sans-Serif" font-size="10.00">_device::send_request</text>
</a>
</g>
</g>
<!-- Node1&#45;&gt;Node6 -->
<g id="edge5" class="edge">
<title>Node1&#45;&gt;Node6</title>
<path fill="none" stroke="midnightblue" d="M346.13,-95.68C327.01,-90.39 306.28,-84.65 287.87,-79.55"/>
<polygon fill="midnightblue" stroke="midnightblue" points="345.38,-99.1 355.95,-98.4 347.25,-92.36 345.38,-99.1"/>
</g>
<!-- Node7 -->
<g id="node7" class="node">
<title>Node7</title>
<g id="a_node7"><a xlink:href="classL4virtio_1_1Driver_1_1Block__device.html#afdd043c2adbca7fea5eb057f9aa4b483" target="_top" xlink:title="Start the setup of a new request.">
<polygon fill="white" stroke="black" points="170,-0.5 170,-30.5 295,-30.5 295,-0.5 170,-0.5"/>
<text text-anchor="start" x="178" y="-18.5" font-family="Helvetica,sans-Serif" font-size="10.00">L4virtio::Driver::Block</text>
<text text-anchor="middle" x="232.5" y="-7.5" font-family="Helvetica,sans-Serif" font-size="10.00">_device::start_request</text>
</a>
</g>
</g>
<!-- Node1&#45;&gt;Node7 -->
<g id="edge6" class="edge">
<title>Node1&#45;&gt;Node7</title>
<path fill="none" stroke="midnightblue" d="M383.76,-92.26C362.93,-76.45 332.8,-55.16 304,-40.5 296.82,-36.85 288.99,-33.5 281.24,-30.52"/>
<polygon fill="midnightblue" stroke="midnightblue" points="381.75,-95.13 391.82,-98.45 386.02,-89.58 381.75,-95.13"/>
</g>
<!-- Node4 -->
<g id="node4" class="node">
<title>Node4</title>
<g id="a_node4"><a xlink:href="classL4virtio_1_1Driver_1_1Block__device.html#a688df51bdec4ba327a6c0b48a83a115a" target="_top" xlink:title="Setup a connection to a device and set up shared memory.">
<polygon fill="white" stroke="black" points="0,-147.5 0,-177.5 125,-177.5 125,-147.5 0,-147.5"/>
<text text-anchor="start" x="8" y="-165.5" font-family="Helvetica,sans-Serif" font-size="10.00">L4virtio::Driver::Block</text>
<text text-anchor="middle" x="62.5" y="-154.5" font-family="Helvetica,sans-Serif" font-size="10.00">_device::setup_device</text>
</a>
</g>
</g>
<!-- Node3&#45;&gt;Node4 -->
<g id="edge3" class="edge">
<title>Node3&#45;&gt;Node4</title>
<path fill="none" stroke="midnightblue" d="M150.69,-162.5C142.09,-162.5 133.45,-162.5 125.12,-162.5"/>
<polygon fill="midnightblue" stroke="midnightblue" points="150.74,-166 160.74,-162.5 150.74,-159 150.74,-166"/>
</g>
</g>
</svg>
