<?xml version="1.0" encoding="UTF-8" standalone="no"?>
<!DOCTYPE svg PUBLIC "-//W3C//DTD SVG 1.1//EN"
 "http://www.w3.org/Graphics/SVG/1.1/DTD/svg11.dtd">
<!-- Generated by graphviz version 2.43.0 (0)
 -->
<!-- Title: cxx::Slab_static&lt; Type, Slab_size, Max_free, Alloc &gt; Pages: 1 -->
<svg width="240pt" height="409pt"
 viewBox="0.00 0.00 240.00 409.00" xmlns="http://www.w3.org/2000/svg" xmlns:xlink="http://www.w3.org/1999/xlink">
<g id="graph0" class="graph" transform="scale(1 1) rotate(0) translate(4 405)">
<title>cxx::Slab_static&lt; Type, Slab_size, Max_free, Alloc &gt;</title>
<polygon fill="white" stroke="transparent" points="-4,4 -4,-405 236,-405 236,4 -4,4"/>
<!-- Node1 -->
<g id="node1" class="node">
<title>Node1</title>
<g id="a_node1"><a xlink:title="Merged slab allocator (allocators for objects of the same size are merged together).">
<polygon fill="#bfbfbf" stroke="black" points="15,-0.5 15,-79.5 145,-79.5 145,-0.5 15,-0.5"/>
<text text-anchor="start" x="23" y="-67.5" font-family="Helvetica,sans-Serif" font-size="10.00">cxx::Slab_static&lt; Type,</text>
<text text-anchor="start" x="23" y="-56.5" font-family="Helvetica,sans-Serif" font-size="10.00"> Slab_size, Max_free,</text>
<text text-anchor="middle" x="80" y="-45.5" font-family="Helvetica,sans-Serif" font-size="10.00"> Alloc &gt;</text>
<polyline fill="none" stroke="black" points="15,-38.5 145,-38.5 "/>
<text text-anchor="middle" x="80" y="-26.5" font-family="Helvetica,sans-Serif" font-size="10.00"> </text>
<polyline fill="none" stroke="black" points="15,-19.5 145,-19.5 "/>
<text text-anchor="start" x="23" y="-7.5" font-family="Helvetica,sans-Serif" font-size="10.00">+ alloc()</text>
</a>
</g>
</g>
<!-- Node2 -->
<g id="node2" class="node">
<title>Node2</title>
<g id="a_node2"><a xlink:href="classcxx_1_1Base__slab__static.html" target="_top" xlink:title=" ">
<polygon fill="white" stroke="black" points="0,-117.5 0,-229.5 160,-229.5 160,-117.5 0,-117.5"/>
<text text-anchor="start" x="8" y="-217.5" font-family="Helvetica,sans-Serif" font-size="10.00">cxx::Base_slab_static</text>
<text text-anchor="start" x="8" y="-206.5" font-family="Helvetica,sans-Serif" font-size="10.00">&lt; sizeof(Type), L4_PAGESIZE,</text>
<text text-anchor="middle" x="80" y="-195.5" font-family="Helvetica,sans-Serif" font-size="10.00"> 2, New_allocator &gt;</text>
<polyline fill="none" stroke="black" points="0,-188.5 160,-188.5 "/>
<text text-anchor="middle" x="80" y="-176.5" font-family="Helvetica,sans-Serif" font-size="10.00"> </text>
<polyline fill="none" stroke="black" points="0,-169.5 160,-169.5 "/>
<text text-anchor="start" x="8" y="-157.5" font-family="Helvetica,sans-Serif" font-size="10.00">+ alloc()</text>
<text text-anchor="start" x="8" y="-146.5" font-family="Helvetica,sans-Serif" font-size="10.00">+ free()</text>
<text text-anchor="start" x="8" y="-135.5" font-family="Helvetica,sans-Serif" font-size="10.00">+ total_objects()</text>
<text text-anchor="start" x="8" y="-124.5" font-family="Helvetica,sans-Serif" font-size="10.00">+ free_objects()</text>
</a>
</g>
</g>
<!-- Node2&#45;&gt;Node1 -->
<g id="edge1" class="edge">
<title>Node2&#45;&gt;Node1</title>
<path fill="none" stroke="midnightblue" d="M80,-107.32C80,-97.9 80,-88.47 80,-79.8"/>
<polygon fill="none" stroke="midnightblue" points="76.5,-107.49 80,-117.49 83.5,-107.49 76.5,-107.49"/>
</g>
<!-- Node3 -->
<g id="node3" class="node">
<title>Node3</title>
<g id="a_node3"><a xlink:href="classcxx_1_1Base__slab__static.html" target="_top" xlink:title="Merged slab allocator (allocators for objects of the same size are merged together).">
<polygon fill="white" stroke="black" points="18,-288.5 18,-400.5 142,-400.5 142,-288.5 18,-288.5"/>
<text text-anchor="start" x="26" y="-388.5" font-family="Helvetica,sans-Serif" font-size="10.00">cxx::Base_slab_static</text>
<text text-anchor="start" x="26" y="-377.5" font-family="Helvetica,sans-Serif" font-size="10.00">&lt; Obj_size, Slab_size,</text>
<text text-anchor="middle" x="80" y="-366.5" font-family="Helvetica,sans-Serif" font-size="10.00"> Max_free, Alloc &gt;</text>
<polyline fill="none" stroke="black" points="18,-359.5 142,-359.5 "/>
<text text-anchor="middle" x="80" y="-347.5" font-family="Helvetica,sans-Serif" font-size="10.00"> </text>
<polyline fill="none" stroke="black" points="18,-340.5 142,-340.5 "/>
<text text-anchor="start" x="26" y="-328.5" font-family="Helvetica,sans-Serif" font-size="10.00">+ alloc()</text>
<text text-anchor="start" x="26" y="-317.5" font-family="Helvetica,sans-Serif" font-size="10.00">+ free()</text>
<text text-anchor="start" x="26" y="-306.5" font-family="Helvetica,sans-Serif" font-size="10.00">+ total_objects()</text>
<text text-anchor="start" x="26" y="-295.5" font-family="Helvetica,sans-Serif" font-size="10.00">+ free_objects()</text>
</a>
</g>
</g>
<!-- Node3&#45;&gt;Node2 -->
<g id="edge2" class="edge">
<title>Node3&#45;&gt;Node2</title>
<path fill="none" stroke="orange" d="M80,-277.86C80,-261.93 80,-245.06 80,-229.67"/>
<polygon fill="orange" stroke="orange" points="76.5,-278.16 80,-288.16 83.5,-278.16 76.5,-278.16"/>
<text text-anchor="start" x="80" y="-262" font-family="Helvetica,sans-Serif" font-size="10.00"> &lt; sizeof(Type), L4</text>
<text text-anchor="middle" x="156" y="-251" font-family="Helvetica,sans-Serif" font-size="10.00">_PAGESIZE, 2, New_allocator &gt;</text>
</g>
</g>
</svg>
