<?xml version="1.0" encoding="UTF-8" standalone="no"?>
<!DOCTYPE svg PUBLIC "-//W3C//DTD SVG 1.1//EN"
 "http://www.w3.org/Graphics/SVG/1.1/DTD/svg11.dtd">
<!-- Generated by graphviz version 2.43.0 (0)
 -->
<!-- Title: cxx::Avl_map::operator[] Pages: 1 -->
<svg width="347pt" height="83pt"
 viewBox="0.00 0.00 347.00 83.00" xmlns="http://www.w3.org/2000/svg" xmlns:xlink="http://www.w3.org/1999/xlink">
<g id="graph0" class="graph" transform="scale(1 1) rotate(0) translate(4 79)">
<title>cxx::Avl_map::operator[]</title>
<polygon fill="white" stroke="transparent" points="-4,4 -4,-79 343,-79 343,4 -4,4"/>
<!-- Node1 -->
<g id="node1" class="node">
<title>Node1</title>
<g id="a_node1"><a xlink:title="Get the data for the given key.">
<polygon fill="#bfbfbf" stroke="black" points="0,-28 0,-47 137,-47 137,-28 0,-28"/>
<text text-anchor="middle" x="68.5" y="-35" font-family="Helvetica,sans-Serif" font-size="10.00">cxx::Avl_map::operator[]</text>
</a>
</g>
</g>
<!-- Node2 -->
<g id="node2" class="node">
<title>Node2</title>
<g id="a_node2"><a xlink:href="classcxx_1_1Bits_1_1Base__avl__set.html#a1825ad4f133473e296c3842cb7bbcc92" target="_top" xlink:title="Lookup a node equal to item.">
<polygon fill="white" stroke="black" points="173,-0.5 173,-74.5 339,-74.5 339,-0.5 173,-0.5"/>
<text text-anchor="start" x="181" y="-62.5" font-family="Helvetica,sans-Serif" font-size="10.00">cxx::Bits::Base_avl</text>
<text text-anchor="start" x="181" y="-51.5" font-family="Helvetica,sans-Serif" font-size="10.00">_set&lt; Pair&lt; KEY_TYPE,</text>
<text text-anchor="start" x="181" y="-40.5" font-family="Helvetica,sans-Serif" font-size="10.00"> DATA_TYPE &gt;, Lt_functor</text>
<text text-anchor="start" x="181" y="-29.5" font-family="Helvetica,sans-Serif" font-size="10.00">&lt; KEY_TYPE &gt;, New_allocator,</text>
<text text-anchor="start" x="181" y="-18.5" font-family="Helvetica,sans-Serif" font-size="10.00"> Bits::Avl_map_get_key&lt; KEY</text>
<text text-anchor="middle" x="256" y="-7.5" font-family="Helvetica,sans-Serif" font-size="10.00">_TYPE &gt; &gt;::find_node</text>
</a>
</g>
</g>
<!-- Node1&#45;&gt;Node2 -->
<g id="edge1" class="edge">
<title>Node1&#45;&gt;Node2</title>
<path fill="none" stroke="midnightblue" d="M137.26,-37.5C145.59,-37.5 154.21,-37.5 162.83,-37.5"/>
<polygon fill="midnightblue" stroke="midnightblue" points="162.92,-41 172.92,-37.5 162.92,-34 162.92,-41"/>
</g>
</g>
</svg>
