<?xml version="1.0" encoding="UTF-8" standalone="no"?>
<!DOCTYPE svg PUBLIC "-//W3C//DTD SVG 1.1//EN"
 "http://www.w3.org/Graphics/SVG/1.1/DTD/svg11.dtd">
<!-- Generated by graphviz version 2.43.0 (0)
 -->
<!-- Title: L4virtio::Virtqueue::setup_simple Pages: 1 -->
<svg width="428pt" height="215pt"
 viewBox="0.00 0.00 428.00 215.00" xmlns="http://www.w3.org/2000/svg" xmlns:xlink="http://www.w3.org/1999/xlink">
<g id="graph0" class="graph" transform="scale(1 1) rotate(0) translate(4 211)">
<title>L4virtio::Virtqueue::setup_simple</title>
<polygon fill="white" stroke="transparent" points="-4,4 -4,-211 424,-211 424,4 -4,4"/>
<!-- Node1 -->
<g id="node1" class="node">
<title>Node1</title>
<g id="a_node1"><a xlink:title="Enable this queue.">
<polygon fill="#bfbfbf" stroke="black" points="0,-88.5 0,-118.5 107,-118.5 107,-88.5 0,-88.5"/>
<text text-anchor="start" x="8" y="-106.5" font-family="Helvetica,sans-Serif" font-size="10.00">L4virtio::Virtqueue</text>
<text text-anchor="middle" x="53.5" y="-95.5" font-family="Helvetica,sans-Serif" font-size="10.00">::setup_simple</text>
</a>
</g>
</g>
<!-- Node2 -->
<g id="node2" class="node">
<title>Node2</title>
<g id="a_node2"><a xlink:href="classL4virtio_1_1Virtqueue.html#a962767a117dad07184f59191d399f9ce" target="_top" xlink:title="Calculate the size of the available ring for num entries.">
<polygon fill="white" stroke="black" points="143,-176.5 143,-206.5 250,-206.5 250,-176.5 143,-176.5"/>
<text text-anchor="start" x="151" y="-194.5" font-family="Helvetica,sans-Serif" font-size="10.00">L4virtio::Virtqueue</text>
<text text-anchor="middle" x="196.5" y="-183.5" font-family="Helvetica,sans-Serif" font-size="10.00">::avail_size</text>
</a>
</g>
</g>
<!-- Node1&#45;&gt;Node2 -->
<g id="edge1" class="edge">
<title>Node1&#45;&gt;Node2</title>
<path fill="none" stroke="midnightblue" d="M76.81,-118.66C94.56,-130.59 120.13,-147.49 143,-161.5 148.35,-164.77 154.05,-168.15 159.67,-171.41"/>
<polygon fill="midnightblue" stroke="midnightblue" points="157.92,-174.45 168.34,-176.4 161.41,-168.38 157.92,-174.45"/>
</g>
<!-- Node3 -->
<g id="node3" class="node">
<title>Node3</title>
<g id="a_node3"><a xlink:href="classL4virtio_1_1Virtqueue.html#af61e3e4e436b93f37f22243a1c0ffe0e" target="_top" xlink:title=" ">
<polygon fill="white" stroke="black" points="286,-116 286,-135 420,-135 420,-116 286,-116"/>
<text text-anchor="middle" x="353" y="-123" font-family="Helvetica,sans-Serif" font-size="10.00">L4virtio::Virtqueue::num</text>
</a>
</g>
</g>
<!-- Node1&#45;&gt;Node3 -->
<g id="edge6" class="edge">
<title>Node1&#45;&gt;Node3</title>
<path fill="none" stroke="midnightblue" d="M98.56,-118.52C112.59,-122.61 128.29,-126.46 143,-128.5 186.65,-134.55 235.91,-134.18 275.64,-132.13"/>
<polygon fill="midnightblue" stroke="midnightblue" points="276.01,-135.61 285.79,-131.56 275.61,-128.62 276.01,-135.61"/>
</g>
<!-- Node4 -->
<g id="node4" class="node">
<title>Node4</title>
<g id="a_node4"><a xlink:href="classL4virtio_1_1Virtqueue.html#a19410c09db5499023cb4b9f11742cd26" target="_top" xlink:title="Calculate the size of the descriptor table for num entries.">
<polygon fill="white" stroke="black" points="143,-88.5 143,-118.5 250,-118.5 250,-88.5 143,-88.5"/>
<text text-anchor="start" x="151" y="-106.5" font-family="Helvetica,sans-Serif" font-size="10.00">L4virtio::Virtqueue</text>
<text text-anchor="middle" x="196.5" y="-95.5" font-family="Helvetica,sans-Serif" font-size="10.00">::desc_size</text>
</a>
</g>
</g>
<!-- Node1&#45;&gt;Node4 -->
<g id="edge3" class="edge">
<title>Node1&#45;&gt;Node4</title>
<path fill="none" stroke="midnightblue" d="M107,-103.5C115.44,-103.5 124.26,-103.5 132.9,-103.5"/>
<polygon fill="midnightblue" stroke="midnightblue" points="132.95,-107 142.95,-103.5 132.95,-100 132.95,-107"/>
</g>
<!-- Node5 -->
<g id="node5" class="node">
<title>Node5</title>
<g id="a_node5"><a xlink:href="group__l4__memory__api.html#gae876a4c6e0f21b2ecbf17863dc7d11e4" target="_top" xlink:title="Round value up to the next alignment with bits size.">
<polygon fill="white" stroke="black" points="155,-50 155,-69 238,-69 238,-50 155,-50"/>
<text text-anchor="middle" x="196.5" y="-57" font-family="Helvetica,sans-Serif" font-size="10.00">l4_round_size</text>
</a>
</g>
</g>
<!-- Node1&#45;&gt;Node5 -->
<g id="edge5" class="edge">
<title>Node1&#45;&gt;Node5</title>
<path fill="none" stroke="midnightblue" d="M102.63,-88.48C119.68,-83.16 138.67,-77.24 155.01,-72.13"/>
<polygon fill="midnightblue" stroke="midnightblue" points="156.3,-75.4 164.81,-69.08 154.22,-68.72 156.3,-75.4"/>
</g>
<!-- Node6 -->
<g id="node6" class="node">
<title>Node6</title>
<g id="a_node6"><a xlink:href="classL4virtio_1_1Virtqueue.html#a109ea5677dd074df1d2c6a06056c7d82" target="_top" xlink:title="Enable this queue.">
<polygon fill="white" stroke="black" points="143,-0.5 143,-30.5 250,-30.5 250,-0.5 143,-0.5"/>
<text text-anchor="start" x="151" y="-18.5" font-family="Helvetica,sans-Serif" font-size="10.00">L4virtio::Virtqueue</text>
<text text-anchor="middle" x="196.5" y="-7.5" font-family="Helvetica,sans-Serif" font-size="10.00">::setup</text>
</a>
</g>
</g>
<!-- Node1&#45;&gt;Node6 -->
<g id="edge7" class="edge">
<title>Node1&#45;&gt;Node6</title>
<path fill="none" stroke="midnightblue" d="M73.53,-88.48C91.02,-75.03 117.96,-55.22 143,-40.5 146.14,-38.65 149.45,-36.83 152.8,-35.06"/>
<polygon fill="midnightblue" stroke="midnightblue" points="154.39,-38.17 161.72,-30.52 151.22,-31.93 154.39,-38.17"/>
</g>
<!-- Node2&#45;&gt;Node3 -->
<g id="edge2" class="edge">
<title>Node2&#45;&gt;Node3</title>
<path fill="none" stroke="midnightblue" d="M232.95,-176.36C259.21,-165.14 294.71,-149.97 320.1,-139.13"/>
<polygon fill="midnightblue" stroke="midnightblue" points="321.8,-142.2 329.63,-135.06 319.05,-135.77 321.8,-142.2"/>
</g>
<!-- Node4&#45;&gt;Node3 -->
<g id="edge4" class="edge">
<title>Node4&#45;&gt;Node3</title>
<path fill="none" stroke="midnightblue" d="M250.24,-111.01C258.47,-112.18 267.11,-113.41 275.74,-114.64"/>
<polygon fill="midnightblue" stroke="midnightblue" points="275.44,-118.13 285.84,-116.08 276.43,-111.2 275.44,-118.13"/>
</g>
<!-- Node6&#45;&gt;Node3 -->
<g id="edge8" class="edge">
<title>Node6&#45;&gt;Node3</title>
<path fill="none" stroke="midnightblue" d="M232.34,-30.57C238.37,-33.61 244.47,-36.96 250,-40.5 282.1,-61.06 315.29,-90.53 334.77,-108.81"/>
<polygon fill="midnightblue" stroke="midnightblue" points="332.58,-111.56 342.24,-115.91 337.4,-106.48 332.58,-111.56"/>
</g>
</g>
</svg>
