<?xml version="1.0" encoding="UTF-8" standalone="no"?>
<!DOCTYPE svg PUBLIC "-//W3C//DTD SVG 1.1//EN"
 "http://www.w3.org/Graphics/SVG/1.1/DTD/svg11.dtd">
<!-- Generated by graphviz version 2.43.0 (0)
 -->
<!-- Title: L4::Ipc_svr::Timeout_queue::handle_expired_timeouts Pages: 1 -->
<svg width="292pt" height="176pt"
 viewBox="0.00 0.00 292.00 176.00" xmlns="http://www.w3.org/2000/svg" xmlns:xlink="http://www.w3.org/1999/xlink">
<g id="graph0" class="graph" transform="scale(1 1) rotate(0) translate(4 172)">
<title>L4::Ipc_svr::Timeout_queue::handle_expired_timeouts</title>
<polygon fill="white" stroke="transparent" points="-4,4 -4,-172 288,-172 288,4 -4,4"/>
<!-- Node1 -->
<g id="node1" class="node">
<title>Node1</title>
<g id="a_node1"><a xlink:title="run the callbacks of expired timeouts">
<polygon fill="#bfbfbf" stroke="black" points="0,-61 0,-102 133,-102 133,-61 0,-61"/>
<text text-anchor="start" x="8" y="-90" font-family="Helvetica,sans-Serif" font-size="10.00">L4::Ipc_svr::Timeout</text>
<text text-anchor="start" x="8" y="-79" font-family="Helvetica,sans-Serif" font-size="10.00">_queue::handle_expired</text>
<text text-anchor="middle" x="66.5" y="-68" font-family="Helvetica,sans-Serif" font-size="10.00">_timeouts</text>
</a>
</g>
</g>
<!-- Node2 -->
<g id="node2" class="node">
<title>Node2</title>
<g id="a_node2"><a xlink:href="classcxx_1_1Bits_1_1Basic__list.html#af857846edcaf6cbc84827c585b45fd49" target="_top" xlink:title="Return an iterator to the beginning of the list.">
<polygon fill="white" stroke="black" points="171,-137.5 171,-167.5 282,-167.5 282,-137.5 171,-137.5"/>
<text text-anchor="start" x="179" y="-155.5" font-family="Helvetica,sans-Serif" font-size="10.00">cxx::Bits::Basic_list</text>
<text text-anchor="middle" x="226.5" y="-144.5" font-family="Helvetica,sans-Serif" font-size="10.00">::begin</text>
</a>
</g>
</g>
<!-- Node1&#45;&gt;Node2 -->
<g id="edge1" class="edge">
<title>Node1&#45;&gt;Node2</title>
<path fill="none" stroke="midnightblue" d="M111.08,-102.05C128.97,-110.39 149.92,-120.03 169,-128.5 172.62,-130.11 176.38,-131.75 180.17,-133.4"/>
<polygon fill="midnightblue" stroke="midnightblue" points="178.99,-136.7 189.56,-137.44 181.76,-130.27 178.99,-136.7"/>
</g>
<!-- Node3 -->
<g id="node3" class="node">
<title>Node3</title>
<g id="a_node3"><a xlink:href="classcxx_1_1Bits_1_1Basic__list.html#a18b55807a5a50a2dc3e3eacb18d9b436" target="_top" xlink:title="Check if the list is empty.">
<polygon fill="white" stroke="black" points="171,-88.5 171,-118.5 282,-118.5 282,-88.5 171,-88.5"/>
<text text-anchor="start" x="179" y="-106.5" font-family="Helvetica,sans-Serif" font-size="10.00">cxx::Bits::Basic_list</text>
<text text-anchor="middle" x="226.5" y="-95.5" font-family="Helvetica,sans-Serif" font-size="10.00">::empty</text>
</a>
</g>
</g>
<!-- Node1&#45;&gt;Node3 -->
<g id="edge2" class="edge">
<title>Node1&#45;&gt;Node3</title>
<path fill="none" stroke="midnightblue" d="M133.13,-90.64C142.25,-91.91 151.61,-93.21 160.71,-94.48"/>
<polygon fill="midnightblue" stroke="midnightblue" points="160.47,-97.98 170.85,-95.89 161.43,-91.05 160.47,-97.98"/>
</g>
<!-- Node4 -->
<g id="node4" class="node">
<title>Node4</title>
<g id="a_node4"><a xlink:href="classcxx_1_1H__list.html#a691a6cd317a699e2cc636ea7f0917c1d" target="_top" xlink:title="Remove the element at the given iterator position.">
<polygon fill="white" stroke="black" points="176,-50 176,-69 277,-69 277,-50 176,-50"/>
<text text-anchor="middle" x="226.5" y="-57" font-family="Helvetica,sans-Serif" font-size="10.00">cxx::H_list::erase</text>
</a>
</g>
</g>
<!-- Node1&#45;&gt;Node4 -->
<g id="edge3" class="edge">
<title>Node1&#45;&gt;Node4</title>
<path fill="none" stroke="midnightblue" d="M133.13,-72.36C143.93,-70.86 155.07,-69.31 165.71,-67.83"/>
<polygon fill="midnightblue" stroke="midnightblue" points="166.31,-71.28 175.73,-66.43 165.34,-64.34 166.31,-71.28"/>
</g>
<!-- Node5 -->
<g id="node5" class="node">
<title>Node5</title>
<g id="a_node5"><a xlink:href="classL4_1_1Ipc__svr_1_1Timeout.html#a0309d30e94f93df7a08ab855d59c61fe" target="_top" xlink:title="callback function to be called when timeout happened">
<polygon fill="white" stroke="black" points="169,-0.5 169,-30.5 284,-30.5 284,-0.5 169,-0.5"/>
<text text-anchor="start" x="177" y="-18.5" font-family="Helvetica,sans-Serif" font-size="10.00">L4::Ipc_svr::Timeout</text>
<text text-anchor="middle" x="226.5" y="-7.5" font-family="Helvetica,sans-Serif" font-size="10.00">::expired</text>
</a>
</g>
</g>
<!-- Node1&#45;&gt;Node5 -->
<g id="edge4" class="edge">
<title>Node1&#45;&gt;Node5</title>
<path fill="none" stroke="midnightblue" d="M116.63,-60.98C136.87,-52.52 160.18,-42.79 180.02,-34.5"/>
<polygon fill="midnightblue" stroke="midnightblue" points="181.58,-37.64 189.46,-30.56 178.88,-31.18 181.58,-37.64"/>
</g>
</g>
</svg>
