<?xml version="1.0" encoding="UTF-8" standalone="no"?>
<!DOCTYPE svg PUBLIC "-//W3C//DTD SVG 1.1//EN"
 "http://www.w3.org/Graphics/SVG/1.1/DTD/svg11.dtd">
<!-- Generated by graphviz version 2.43.0 (0)
 -->
<!-- Title: L4::Cap_base::move Pages: 1 -->
<svg width="399pt" height="104pt"
 viewBox="0.00 0.00 399.00 104.00" xmlns="http://www.w3.org/2000/svg" xmlns:xlink="http://www.w3.org/1999/xlink">
<g id="graph0" class="graph" transform="scale(1 1) rotate(0) translate(4 100)">
<title>L4::Cap_base::move</title>
<polygon fill="white" stroke="transparent" points="-4,4 -4,-100 395,-100 395,4 -4,4"/>
<!-- Node1 -->
<g id="node1" class="node">
<title>Node1</title>
<g id="a_node1"><a xlink:title="Replace this capability with the contents of src.">
<polygon fill="#bfbfbf" stroke="black" points="0,-38.5 0,-57.5 115,-57.5 115,-38.5 0,-38.5"/>
<text text-anchor="middle" x="57.5" y="-45.5" font-family="Helvetica,sans-Serif" font-size="10.00">L4::Cap_base::move</text>
</a>
</g>
</g>
<!-- Node2 -->
<g id="node2" class="node">
<title>Node2</title>
<g id="a_node2"><a xlink:href="classL4_1_1Cap__base.html#a60a4c249059576429246b5b74bd3174e" target="_top" xlink:title="Return flex&#45;page for the capability.">
<polygon fill="white" stroke="black" points="156,-76.5 156,-95.5 271,-95.5 271,-76.5 156,-76.5"/>
<text text-anchor="middle" x="213.5" y="-83.5" font-family="Helvetica,sans-Serif" font-size="10.00">L4::Cap_base::fpage</text>
</a>
</g>
</g>
<!-- Node1&#45;&gt;Node2 -->
<g id="edge1" class="edge">
<title>Node1&#45;&gt;Node2</title>
<path fill="none" stroke="midnightblue" d="M97.36,-57.59C117.59,-62.58 142.52,-68.73 164,-74.03"/>
<polygon fill="midnightblue" stroke="midnightblue" points="163.37,-77.48 173.92,-76.48 165.05,-70.69 163.37,-77.48"/>
</g>
<!-- Node4 -->
<g id="node4" class="node">
<title>Node4</title>
<g id="a_node4"><a xlink:href="classL4_1_1Cap__base.html#ab4937bb12579c752564f7250760d0bda" target="_top" xlink:title="Test whether the capability is a valid capability index (i.e., not L4_INVALID_CAP).">
<polygon fill="white" stroke="black" points="151,-38.5 151,-57.5 276,-57.5 276,-38.5 151,-38.5"/>
<text text-anchor="middle" x="213.5" y="-45.5" font-family="Helvetica,sans-Serif" font-size="10.00">L4::Cap_base::is_valid</text>
</a>
</g>
</g>
<!-- Node1&#45;&gt;Node4 -->
<g id="edge3" class="edge">
<title>Node1&#45;&gt;Node4</title>
<path fill="none" stroke="midnightblue" d="M115.41,-48C123.63,-48 132.18,-48 140.65,-48"/>
<polygon fill="midnightblue" stroke="midnightblue" points="140.91,-51.5 150.91,-48 140.91,-44.5 140.91,-51.5"/>
</g>
<!-- Node5 -->
<g id="node5" class="node">
<title>Node5</title>
<g id="a_node5"><a xlink:href="group__l4__task__api.html#ga8ed2ff7ba204de7c01311c22412a2063" target="_top" xlink:title="Map resources available in the source task to a destination task.">
<polygon fill="white" stroke="black" points="174,-0.5 174,-19.5 253,-19.5 253,-0.5 174,-0.5"/>
<text text-anchor="middle" x="213.5" y="-7.5" font-family="Helvetica,sans-Serif" font-size="10.00">l4_task_map</text>
</a>
</g>
</g>
<!-- Node1&#45;&gt;Node5 -->
<g id="edge4" class="edge">
<title>Node1&#45;&gt;Node5</title>
<path fill="none" stroke="midnightblue" d="M97.36,-38.41C117.59,-33.42 142.52,-27.27 164,-21.97"/>
<polygon fill="midnightblue" stroke="midnightblue" points="165.05,-25.31 173.92,-19.52 163.37,-18.52 165.05,-25.31"/>
</g>
<!-- Node3 -->
<g id="node3" class="node">
<title>Node3</title>
<g id="a_node3"><a xlink:href="group__l4__fpage__api.html#ga3eaf59757a63812044e2b3a1cdf09d54" target="_top" xlink:title="Create a kernel&#45;object flex page.">
<polygon fill="white" stroke="black" points="312,-76.5 312,-95.5 391,-95.5 391,-76.5 312,-76.5"/>
<text text-anchor="middle" x="351.5" y="-83.5" font-family="Helvetica,sans-Serif" font-size="10.00">l4_obj_fpage</text>
</a>
</g>
</g>
<!-- Node2&#45;&gt;Node3 -->
<g id="edge2" class="edge">
<title>Node2&#45;&gt;Node3</title>
<path fill="none" stroke="midnightblue" d="M271.39,-86C281.54,-86 292.04,-86 301.94,-86"/>
<polygon fill="midnightblue" stroke="midnightblue" points="301.99,-89.5 311.99,-86 301.99,-82.5 301.99,-89.5"/>
</g>
</g>
</svg>
