<?xml version="1.0" encoding="UTF-8" standalone="no"?>
<!DOCTYPE svg PUBLIC "-//W3C//DTD SVG 1.1//EN"
 "http://www.w3.org/Graphics/SVG/1.1/DTD/svg11.dtd">
<!-- Generated by graphviz version 2.43.0 (0)
 -->
<!-- Title: L4virtio::Svr::Block_request::data_size Pages: 1 -->
<svg width="448pt" height="225pt"
 viewBox="0.00 0.00 448.00 224.50" xmlns="http://www.w3.org/2000/svg" xmlns:xlink="http://www.w3.org/1999/xlink">
<g id="graph0" class="graph" transform="scale(1 1) rotate(0) translate(4 220.5)">
<title>L4virtio::Svr::Block_request::data_size</title>
<polygon fill="white" stroke="transparent" points="-4,4 -4,-220.5 444,-220.5 444,4 -4,4"/>
<!-- Node1 -->
<g id="node1" class="node">
<title>Node1</title>
<g id="a_node1"><a xlink:title="Compute the total size of the data in the request.">
<polygon fill="#bfbfbf" stroke="black" points="0,-137 0,-167 111,-167 111,-137 0,-137"/>
<text text-anchor="start" x="8" y="-155" font-family="Helvetica,sans-Serif" font-size="10.00">L4virtio::Svr::Block</text>
<text text-anchor="middle" x="55.5" y="-144" font-family="Helvetica,sans-Serif" font-size="10.00">_request::data_size</text>
</a>
</g>
</g>
<!-- Node2 -->
<g id="node2" class="node">
<title>Node2</title>
<g id="a_node2"><a xlink:href="classL4virtio_1_1Svr_1_1Request__processor.html#a9038c26764d07c867d6e70cd6e04157d" target="_top" xlink:title="Are there more chained descriptors?">
<polygon fill="white" stroke="black" points="147,-186 147,-216 270,-216 270,-186 147,-186"/>
<text text-anchor="start" x="155" y="-204" font-family="Helvetica,sans-Serif" font-size="10.00">L4virtio::Svr::Request</text>
<text text-anchor="middle" x="208.5" y="-193" font-family="Helvetica,sans-Serif" font-size="10.00">_processor::has_more</text>
</a>
</g>
</g>
<!-- Node1&#45;&gt;Node2 -->
<g id="edge1" class="edge">
<title>Node1&#45;&gt;Node2</title>
<path fill="none" stroke="midnightblue" d="M103.04,-167.1C118.32,-172.06 135.47,-177.63 151.39,-182.79"/>
<polygon fill="midnightblue" stroke="midnightblue" points="150.52,-186.19 161.12,-185.95 152.69,-179.53 150.52,-186.19"/>
</g>
<!-- Node4 -->
<g id="node4" class="node">
<title>Node4</title>
<g id="a_node4"><a xlink:href="classL4virtio_1_1Svr_1_1Request__processor.html#a0bb9280caa7b899486ccd83bcf0588cd" target="_top" xlink:title="Switch to the next descriptor in a descriptor chain.">
<polygon fill="white" stroke="black" points="148,-137 148,-167 269,-167 269,-137 148,-137"/>
<text text-anchor="start" x="156" y="-155" font-family="Helvetica,sans-Serif" font-size="10.00">L4virtio::Svr::Request</text>
<text text-anchor="middle" x="208.5" y="-144" font-family="Helvetica,sans-Serif" font-size="10.00">_processor::next</text>
</a>
</g>
</g>
<!-- Node1&#45;&gt;Node4 -->
<g id="edge3" class="edge">
<title>Node1&#45;&gt;Node4</title>
<path fill="none" stroke="midnightblue" d="M111.01,-152C119.73,-152 128.85,-152 137.86,-152"/>
<polygon fill="midnightblue" stroke="midnightblue" points="137.96,-155.5 147.96,-152 137.96,-148.5 137.96,-155.5"/>
</g>
<!-- Node6 -->
<g id="node6" class="node">
<title>Node6</title>
<g id="a_node6"><a xlink:href="classL4virtio_1_1Svr_1_1Request__processor.html#abcf6a6b8bf80e0d73d45b5eb9e817abd" target="_top" xlink:title="Start processing a new request.">
<polygon fill="white" stroke="black" points="148,-88 148,-118 269,-118 269,-88 148,-88"/>
<text text-anchor="start" x="156" y="-106" font-family="Helvetica,sans-Serif" font-size="10.00">L4virtio::Svr::Request</text>
<text text-anchor="middle" x="208.5" y="-95" font-family="Helvetica,sans-Serif" font-size="10.00">_processor::start</text>
</a>
</g>
</g>
<!-- Node1&#45;&gt;Node6 -->
<g id="edge6" class="edge">
<title>Node1&#45;&gt;Node6</title>
<path fill="none" stroke="midnightblue" d="M103.04,-136.9C118.32,-131.94 135.47,-126.37 151.39,-121.21"/>
<polygon fill="midnightblue" stroke="midnightblue" points="152.69,-124.47 161.12,-118.05 150.52,-117.81 152.69,-124.47"/>
</g>
<!-- Node3 -->
<g id="node3" class="node">
<title>Node3</title>
<g id="a_node3"><a xlink:href="structL4virtio_1_1Virtqueue_1_1Desc_1_1Flags.html#a4c91d7f9a29c6b9f80d7db69ea066863" target="_top" xlink:title="Get the next bits ( 0 to 0 ) of raw.">
<polygon fill="white" stroke="black" points="319.5,-186 319.5,-216 426.5,-216 426.5,-186 319.5,-186"/>
<text text-anchor="start" x="327.5" y="-204" font-family="Helvetica,sans-Serif" font-size="10.00">L4virtio::Virtqueue</text>
<text text-anchor="middle" x="373" y="-193" font-family="Helvetica,sans-Serif" font-size="10.00">::Desc::Flags::next</text>
</a>
</g>
</g>
<!-- Node2&#45;&gt;Node3 -->
<g id="edge2" class="edge">
<title>Node2&#45;&gt;Node3</title>
<path fill="none" stroke="midnightblue" d="M270.01,-201C282.83,-201 296.38,-201 309.28,-201"/>
<polygon fill="midnightblue" stroke="midnightblue" points="309.45,-204.5 319.45,-201 309.45,-197.5 309.45,-204.5"/>
</g>
<!-- Node4&#45;&gt;Node3 -->
<g id="edge5" class="edge">
<title>Node4&#45;&gt;Node3</title>
<path fill="none" stroke="midnightblue" d="M259.58,-167.1C276.19,-172.11 294.84,-177.73 312.1,-182.94"/>
<polygon fill="midnightblue" stroke="midnightblue" points="311.5,-186.41 322.08,-185.95 313.52,-179.71 311.5,-186.41"/>
</g>
<!-- Node5 -->
<g id="node5" class="node">
<title>Node5</title>
<g id="a_node5"><a xlink:href="structL4virtio_1_1Virtqueue_1_1Desc_1_1Flags.html#a978fd95c3be397943f14b0e5c2c9937b" target="_top" xlink:title="Get the indirect bits ( 2 to 2 ) of raw.">
<polygon fill="white" stroke="black" points="312,-137 312,-167 434,-167 434,-137 312,-137"/>
<text text-anchor="start" x="320" y="-155" font-family="Helvetica,sans-Serif" font-size="10.00">L4virtio::Virtqueue</text>
<text text-anchor="middle" x="373" y="-144" font-family="Helvetica,sans-Serif" font-size="10.00">::Desc::Flags::indirect</text>
</a>
</g>
</g>
<!-- Node4&#45;&gt;Node5 -->
<g id="edge4" class="edge">
<title>Node4&#45;&gt;Node5</title>
<path fill="none" stroke="midnightblue" d="M269.09,-152C279.66,-152 290.76,-152 301.59,-152"/>
<polygon fill="midnightblue" stroke="midnightblue" points="301.88,-155.5 311.88,-152 301.88,-148.5 301.88,-155.5"/>
</g>
<!-- Node6&#45;&gt;Node5 -->
<g id="edge9" class="edge">
<title>Node6&#45;&gt;Node5</title>
<path fill="none" stroke="midnightblue" d="M259.58,-118.1C276.19,-123.11 294.84,-128.73 312.1,-133.94"/>
<polygon fill="midnightblue" stroke="midnightblue" points="311.5,-137.41 322.08,-136.95 313.52,-130.71 311.5,-137.41"/>
</g>
<!-- Node7 -->
<g id="node7" class="node">
<title>Node7</title>
<g id="a_node7"><a xlink:href="classL4virtio_1_1Svr_1_1Virtqueue_1_1Head__desc.html#a4aeb9df1c011b08c152e3790668207c3" target="_top" xlink:title=" ">
<polygon fill="white" stroke="black" points="309,-88 309,-118 437,-118 437,-88 309,-88"/>
<text text-anchor="start" x="317" y="-106" font-family="Helvetica,sans-Serif" font-size="10.00">L4virtio::Svr::Virtqueue</text>
<text text-anchor="middle" x="373" y="-95" font-family="Helvetica,sans-Serif" font-size="10.00">::Head_desc::desc</text>
</a>
</g>
</g>
<!-- Node6&#45;&gt;Node7 -->
<g id="edge7" class="edge">
<title>Node6&#45;&gt;Node7</title>
<path fill="none" stroke="midnightblue" d="M269.09,-103C278.7,-103 288.75,-103 298.64,-103"/>
<polygon fill="midnightblue" stroke="midnightblue" points="298.87,-106.5 308.87,-103 298.87,-99.5 298.87,-106.5"/>
</g>
<!-- Node8 -->
<g id="node8" class="node">
<title>Node8</title>
<g id="a_node8"><a xlink:href="classL4virtio_1_1Svr_1_1Virtqueue.html#ac9a9a8c91967767446bd75fb98a506db" target="_top" xlink:title="Get a descriptor from the descriptor list.">
<polygon fill="white" stroke="black" points="309,-39 309,-69 437,-69 437,-39 309,-39"/>
<text text-anchor="start" x="317" y="-57" font-family="Helvetica,sans-Serif" font-size="10.00">L4virtio::Svr::Virtqueue</text>
<text text-anchor="middle" x="373" y="-46" font-family="Helvetica,sans-Serif" font-size="10.00">::desc</text>
</a>
</g>
</g>
<!-- Node6&#45;&gt;Node8 -->
<g id="edge8" class="edge">
<title>Node6&#45;&gt;Node8</title>
<path fill="none" stroke="midnightblue" d="M259.58,-87.9C276.19,-82.89 294.84,-77.27 312.1,-72.06"/>
<polygon fill="midnightblue" stroke="midnightblue" points="313.52,-75.29 322.08,-69.05 311.5,-68.59 313.52,-75.29"/>
</g>
<!-- Node9 -->
<g id="node9" class="node">
<title>Node9</title>
<g id="a_node9"><a xlink:href="classL4virtio_1_1Virtqueue.html#af61e3e4e436b93f37f22243a1c0ffe0e" target="_top" xlink:title=" ">
<polygon fill="white" stroke="black" points="306,-0.5 306,-19.5 440,-19.5 440,-0.5 306,-0.5"/>
<text text-anchor="middle" x="373" y="-7.5" font-family="Helvetica,sans-Serif" font-size="10.00">L4virtio::Virtqueue::num</text>
</a>
</g>
</g>
<!-- Node6&#45;&gt;Node9 -->
<g id="edge10" class="edge">
<title>Node6&#45;&gt;Node9</title>
<path fill="none" stroke="midnightblue" d="M225.29,-87.85C243.42,-71.21 274.71,-44.79 306,-29 310.54,-26.71 315.4,-24.65 320.35,-22.82"/>
<polygon fill="midnightblue" stroke="midnightblue" points="321.57,-26.1 329.91,-19.56 319.31,-19.48 321.57,-26.1"/>
</g>
</g>
</svg>
