<?xml version="1.0" encoding="UTF-8" standalone="no"?>
<!DOCTYPE svg PUBLIC "-//W3C//DTD SVG 1.1//EN"
 "http://www.w3.org/Graphics/SVG/1.1/DTD/svg11.dtd">
<!-- Generated by graphviz version 2.43.0 (0)
 -->
<!-- Title: cxx::Bits::Base_avl_set::erase Pages: 1 -->
<svg width="421pt" height="39pt"
 viewBox="0.00 0.00 421.00 39.00" xmlns="http://www.w3.org/2000/svg" xmlns:xlink="http://www.w3.org/1999/xlink">
<g id="graph0" class="graph" transform="scale(1 1) rotate(0) translate(4 35)">
<title>cxx::Bits::Base_avl_set::erase</title>
<polygon fill="white" stroke="transparent" points="-4,4 -4,-35 417,-35 417,4 -4,4"/>
<!-- Node1 -->
<g id="node1" class="node">
<title>Node1</title>
<g id="a_node1"><a xlink:title="Erase the item with the given key.">
<polygon fill="#bfbfbf" stroke="black" points="0,-0.5 0,-30.5 109,-30.5 109,-0.5 0,-0.5"/>
<text text-anchor="start" x="8" y="-18.5" font-family="Helvetica,sans-Serif" font-size="10.00">cxx::Bits::Base_avl</text>
<text text-anchor="middle" x="54.5" y="-7.5" font-family="Helvetica,sans-Serif" font-size="10.00">_set::erase</text>
</a>
</g>
</g>
<!-- Node2 -->
<g id="node2" class="node">
<title>Node2</title>
<g id="a_node2"><a xlink:href="classcxx_1_1Bits_1_1Base__avl__set.html#a74890468049590443959526dbd52030d" target="_top" xlink:title="Remove an item from the set.">
<polygon fill="white" stroke="black" points="145,-0.5 145,-30.5 254,-30.5 254,-0.5 145,-0.5"/>
<text text-anchor="start" x="153" y="-18.5" font-family="Helvetica,sans-Serif" font-size="10.00">cxx::Bits::Base_avl</text>
<text text-anchor="middle" x="199.5" y="-7.5" font-family="Helvetica,sans-Serif" font-size="10.00">_set::remove</text>
</a>
</g>
</g>
<!-- Node1&#45;&gt;Node2 -->
<g id="edge1" class="edge">
<title>Node1&#45;&gt;Node2</title>
<path fill="none" stroke="midnightblue" d="M109.15,-15.5C117.38,-15.5 125.94,-15.5 134.37,-15.5"/>
<polygon fill="midnightblue" stroke="midnightblue" points="134.54,-19 144.54,-15.5 134.54,-12 134.54,-19"/>
</g>
<!-- Node3 -->
<g id="node3" class="node">
<title>Node3</title>
<g id="a_node3"><a xlink:href="classcxx_1_1Avl__tree.html#a53bfe5700fa6fd227b0d46c0c4da4ade" target="_top" xlink:title="Remove the node with key from the tree.">
<polygon fill="white" stroke="black" points="290,-6 290,-25 413,-25 413,-6 290,-6"/>
<text text-anchor="middle" x="351.5" y="-13" font-family="Helvetica,sans-Serif" font-size="10.00">cxx::Avl_tree::remove</text>
</a>
</g>
</g>
<!-- Node2&#45;&gt;Node3 -->
<g id="edge2" class="edge">
<title>Node2&#45;&gt;Node3</title>
<path fill="none" stroke="midnightblue" d="M254.23,-15.5C262.51,-15.5 271.16,-15.5 279.74,-15.5"/>
<polygon fill="midnightblue" stroke="midnightblue" points="279.75,-19 289.75,-15.5 279.75,-12 279.75,-19"/>
</g>
</g>
</svg>
