<?xml version="1.0" encoding="UTF-8" standalone="no"?>
<!DOCTYPE svg PUBLIC "-//W3C//DTD SVG 1.1//EN"
 "http://www.w3.org/Graphics/SVG/1.1/DTD/svg11.dtd">
<!-- Generated by graphviz version 2.43.0 (0)
 -->
<!-- Title: cxx::String::from_dec Pages: 1 -->
<svg width="261pt" height="66pt"
 viewBox="0.00 0.00 261.00 66.00" xmlns="http://www.w3.org/2000/svg" xmlns:xlink="http://www.w3.org/1999/xlink">
<g id="graph0" class="graph" transform="scale(1 1) rotate(0) translate(4 62)">
<title>cxx::String::from_dec</title>
<polygon fill="white" stroke="transparent" points="-4,4 -4,-62 257,-62 257,4 -4,4"/>
<!-- Node1 -->
<g id="node1" class="node">
<title>Node1</title>
<g id="a_node1"><a xlink:title="Convert decimal string to integer.">
<polygon fill="#bfbfbf" stroke="black" points="0,-19.5 0,-38.5 120,-38.5 120,-19.5 0,-19.5"/>
<text text-anchor="middle" x="60" y="-26.5" font-family="Helvetica,sans-Serif" font-size="10.00">cxx::String::from_dec</text>
</a>
</g>
</g>
<!-- Node2 -->
<g id="node2" class="node">
<title>Node2</title>
<g id="a_node2"><a xlink:href="classcxx_1_1String.html#a5368753551d0792f7a6688831f11c8ea" target="_top" xlink:title="Check if pointer s points behind string.">
<polygon fill="white" stroke="black" points="159.5,-38.5 159.5,-57.5 249.5,-57.5 249.5,-38.5 159.5,-38.5"/>
<text text-anchor="middle" x="204.5" y="-45.5" font-family="Helvetica,sans-Serif" font-size="10.00">cxx::String::eof</text>
</a>
</g>
</g>
<!-- Node1&#45;&gt;Node2 -->
<g id="edge1" class="edge">
<title>Node1&#45;&gt;Node2</title>
<path fill="none" stroke="midnightblue" d="M120.19,-36.89C129.85,-38.18 139.82,-39.51 149.35,-40.78"/>
<polygon fill="midnightblue" stroke="midnightblue" points="149.11,-44.28 159.48,-42.13 150.03,-37.34 149.11,-44.28"/>
</g>
<!-- Node3 -->
<g id="node3" class="node">
<title>Node3</title>
<g id="a_node3"><a xlink:href="classcxx_1_1String.html#a101fd26cc3e799be32f027cd52a5da90" target="_top" xlink:title="Pointer to first character.">
<polygon fill="white" stroke="black" points="156,-0.5 156,-19.5 253,-19.5 253,-0.5 156,-0.5"/>
<text text-anchor="middle" x="204.5" y="-7.5" font-family="Helvetica,sans-Serif" font-size="10.00">cxx::String::start</text>
</a>
</g>
</g>
<!-- Node1&#45;&gt;Node3 -->
<g id="edge2" class="edge">
<title>Node1&#45;&gt;Node3</title>
<path fill="none" stroke="midnightblue" d="M120.19,-21.11C128.68,-19.98 137.39,-18.81 145.84,-17.69"/>
<polygon fill="midnightblue" stroke="midnightblue" points="146.53,-21.13 155.98,-16.34 145.61,-14.19 146.53,-21.13"/>
</g>
</g>
</svg>
