<?xml version="1.0" encoding="UTF-8" standalone="no"?>
<!DOCTYPE svg PUBLIC "-//W3C//DTD SVG 1.1//EN"
 "http://www.w3.org/Graphics/SVG/1.1/DTD/svg11.dtd">
<!-- Generated by graphviz version 2.43.0 (0)
 -->
<!-- Title: L4::Factory Pages: 1 -->
<svg width="273pt" height="632pt"
 viewBox="0.00 0.00 273.00 632.00" xmlns="http://www.w3.org/2000/svg" xmlns:xlink="http://www.w3.org/1999/xlink">
<g id="graph0" class="graph" transform="scale(1 1) rotate(0) translate(4 628)">
<title>L4::Factory</title>
<polygon fill="white" stroke="transparent" points="-4,4 -4,-628 269,-628 269,4 -4,4"/>
<!-- Node1 -->
<g id="node1" class="node">
<title>Node1</title>
<g id="a_node1"><a xlink:title="C++ Factory interface.">
<polygon fill="#bfbfbf" stroke="black" points="59,-234.5 59,-368.5 165,-368.5 165,-234.5 59,-234.5"/>
<text text-anchor="middle" x="112" y="-356.5" font-family="Helvetica,sans-Serif" font-size="10.00">L4::Factory</text>
<polyline fill="none" stroke="black" points="59,-349.5 165,-349.5 "/>
<text text-anchor="middle" x="112" y="-337.5" font-family="Helvetica,sans-Serif" font-size="10.00"> </text>
<polyline fill="none" stroke="black" points="59,-330.5 165,-330.5 "/>
<text text-anchor="start" x="67" y="-318.5" font-family="Helvetica,sans-Serif" font-size="10.00">+ create()</text>
<text text-anchor="start" x="67" y="-307.5" font-family="Helvetica,sans-Serif" font-size="10.00">+ create()</text>
<text text-anchor="start" x="67" y="-296.5" font-family="Helvetica,sans-Serif" font-size="10.00">+ create_task()</text>
<text text-anchor="start" x="67" y="-285.5" font-family="Helvetica,sans-Serif" font-size="10.00">+ create_thread()</text>
<text text-anchor="start" x="67" y="-274.5" font-family="Helvetica,sans-Serif" font-size="10.00">+ create_factory()</text>
<text text-anchor="start" x="67" y="-263.5" font-family="Helvetica,sans-Serif" font-size="10.00">+ create_gate()</text>
<text text-anchor="start" x="67" y="-252.5" font-family="Helvetica,sans-Serif" font-size="10.00">+ create_irq()</text>
<text text-anchor="start" x="67" y="-241.5" font-family="Helvetica,sans-Serif" font-size="10.00">+ create_vm()</text>
</a>
</g>
</g>
<!-- Node5 -->
<g id="node5" class="node">
<title>Node5</title>
<g id="a_node5"><a xlink:href="classL4_1_1Kobject__t.html" target="_top" xlink:title=" ">
<polygon fill="white" stroke="black" points="44.5,-106.5 44.5,-196.5 179.5,-196.5 179.5,-106.5 44.5,-106.5"/>
<text text-anchor="start" x="52.5" y="-184.5" font-family="Helvetica,sans-Serif" font-size="10.00">L4::Kobject_t&lt; Mem</text>
<text text-anchor="start" x="52.5" y="-173.5" font-family="Helvetica,sans-Serif" font-size="10.00">_alloc, L4::Factory,</text>
<text text-anchor="middle" x="112" y="-162.5" font-family="Helvetica,sans-Serif" font-size="10.00"> L4::PROTO_EMPTY &gt;</text>
<polyline fill="none" stroke="black" points="44.5,-155.5 179.5,-155.5 "/>
<text text-anchor="middle" x="112" y="-143.5" font-family="Helvetica,sans-Serif" font-size="10.00"> </text>
<polyline fill="none" stroke="black" points="44.5,-136.5 179.5,-136.5 "/>
<text text-anchor="start" x="52.5" y="-124.5" font-family="Helvetica,sans-Serif" font-size="10.00"># c()</text>
<text text-anchor="start" x="52.5" y="-113.5" font-family="Helvetica,sans-Serif" font-size="10.00"># __check_protocols__()</text>
</a>
</g>
</g>
<!-- Node1&#45;&gt;Node5 -->
<g id="edge4" class="edge">
<title>Node1&#45;&gt;Node5</title>
<path fill="none" stroke="midnightblue" d="M112,-224.07C112,-214.65 112,-205.28 112,-196.57"/>
<polygon fill="none" stroke="midnightblue" points="108.5,-224.29 112,-234.29 115.5,-224.29 108.5,-224.29"/>
</g>
<!-- Node2 -->
<g id="node2" class="node">
<title>Node2</title>
<g id="a_node2"><a xlink:href="classL4_1_1Kobject__t.html" target="_top" xlink:title=" ">
<polygon fill="white" stroke="black" points="26,-406.5 26,-485.5 198,-485.5 198,-406.5 26,-406.5"/>
<text text-anchor="start" x="34" y="-473.5" font-family="Helvetica,sans-Serif" font-size="10.00">L4::Kobject_t&lt; Factory,</text>
<text text-anchor="middle" x="112" y="-462.5" font-family="Helvetica,sans-Serif" font-size="10.00"> Kobject, L4_PROTO_FACTORY &gt;</text>
<polyline fill="none" stroke="black" points="26,-455.5 198,-455.5 "/>
<text text-anchor="middle" x="112" y="-443.5" font-family="Helvetica,sans-Serif" font-size="10.00"> </text>
<polyline fill="none" stroke="black" points="26,-436.5 198,-436.5 "/>
<text text-anchor="start" x="34" y="-424.5" font-family="Helvetica,sans-Serif" font-size="10.00"># c()</text>
<text text-anchor="start" x="34" y="-413.5" font-family="Helvetica,sans-Serif" font-size="10.00"># __check_protocols__()</text>
</a>
</g>
</g>
<!-- Node2&#45;&gt;Node1 -->
<g id="edge1" class="edge">
<title>Node2&#45;&gt;Node1</title>
<path fill="none" stroke="midnightblue" d="M112,-396.24C112,-387.32 112,-377.88 112,-368.55"/>
<polygon fill="none" stroke="midnightblue" points="108.5,-396.44 112,-406.44 115.5,-396.44 108.5,-396.44"/>
</g>
<!-- Node3 -->
<g id="node3" class="node">
<title>Node3</title>
<g id="a_node3"><a xlink:href="classL4_1_1Kobject.html" target="_top" xlink:title="Base class for all kinds of kernel objects and remote objects, referenced by capabilities.">
<polygon fill="white" stroke="black" points="0,-550 0,-618 86,-618 86,-550 0,-550"/>
<text text-anchor="middle" x="43" y="-606" font-family="Helvetica,sans-Serif" font-size="10.00">L4::Kobject</text>
<polyline fill="none" stroke="black" points="0,-599 86,-599 "/>
<text text-anchor="middle" x="43" y="-587" font-family="Helvetica,sans-Serif" font-size="10.00"> </text>
<polyline fill="none" stroke="black" points="0,-580 86,-580 "/>
<text text-anchor="start" x="8" y="-568" font-family="Helvetica,sans-Serif" font-size="10.00">+ dec_refcnt()</text>
<text text-anchor="start" x="8" y="-557" font-family="Helvetica,sans-Serif" font-size="10.00"># cap()</text>
</a>
</g>
</g>
<!-- Node3&#45;&gt;Node2 -->
<g id="edge2" class="edge">
<title>Node3&#45;&gt;Node2</title>
<path fill="none" stroke="midnightblue" d="M64.41,-540.81C73.33,-523.21 83.63,-502.92 92.36,-485.71"/>
<polygon fill="none" stroke="midnightblue" points="61.28,-539.23 59.88,-549.73 67.53,-542.4 61.28,-539.23"/>
</g>
<!-- Node4 -->
<g id="node4" class="node">
<title>Node4</title>
<g id="a_node4"><a xlink:href="classL4_1_1Kobject__t.html" target="_top" xlink:title="Helper class to create an L4Re interface class that is derived from a single base class.">
<polygon fill="white" stroke="black" points="104,-544.5 104,-623.5 260,-623.5 260,-544.5 104,-544.5"/>
<text text-anchor="start" x="112" y="-611.5" font-family="Helvetica,sans-Serif" font-size="10.00">L4::Kobject_t&lt; Derived,</text>
<text text-anchor="middle" x="182" y="-600.5" font-family="Helvetica,sans-Serif" font-size="10.00"> Base, PROTO, S_DEMAND &gt;</text>
<polyline fill="none" stroke="black" points="104,-593.5 260,-593.5 "/>
<text text-anchor="middle" x="182" y="-581.5" font-family="Helvetica,sans-Serif" font-size="10.00"> </text>
<polyline fill="none" stroke="black" points="104,-574.5 260,-574.5 "/>
<text text-anchor="start" x="112" y="-562.5" font-family="Helvetica,sans-Serif" font-size="10.00"># c()</text>
<text text-anchor="start" x="112" y="-551.5" font-family="Helvetica,sans-Serif" font-size="10.00"># __check_protocols__()</text>
</a>
</g>
</g>
<!-- Node4&#45;&gt;Node2 -->
<g id="edge3" class="edge">
<title>Node4&#45;&gt;Node2</title>
<path fill="none" stroke="orange" d="M157.34,-535.09C149.02,-518.92 139.83,-501.08 131.92,-485.7"/>
<polygon fill="orange" stroke="orange" points="154.44,-537.1 162.13,-544.39 160.66,-533.9 154.44,-537.1"/>
<text text-anchor="start" x="151" y="-518" font-family="Helvetica,sans-Serif" font-size="10.00"> &lt; Factory, Kobject,</text>
<text text-anchor="middle" x="208" y="-507" font-family="Helvetica,sans-Serif" font-size="10.00"> L4_PROTO_FACTORY &gt;</text>
</g>
<!-- Node6 -->
<g id="node6" class="node">
<title>Node6</title>
<g id="a_node6"><a xlink:href="classL4Re_1_1Mem__alloc.html" target="_top" xlink:title="Memory allocation interface.">
<polygon fill="white" stroke="black" points="62,-0.5 62,-68.5 162,-68.5 162,-0.5 62,-0.5"/>
<text text-anchor="middle" x="112" y="-56.5" font-family="Helvetica,sans-Serif" font-size="10.00">L4Re::Mem_alloc</text>
<polyline fill="none" stroke="black" points="62,-49.5 162,-49.5 "/>
<text text-anchor="middle" x="112" y="-37.5" font-family="Helvetica,sans-Serif" font-size="10.00"> </text>
<polyline fill="none" stroke="black" points="62,-30.5 162,-30.5 "/>
<text text-anchor="start" x="70" y="-18.5" font-family="Helvetica,sans-Serif" font-size="10.00">+ alloc()</text>
<text text-anchor="start" x="70" y="-7.5" font-family="Helvetica,sans-Serif" font-size="10.00">+ free()</text>
</a>
</g>
</g>
<!-- Node5&#45;&gt;Node6 -->
<g id="edge5" class="edge">
<title>Node5&#45;&gt;Node6</title>
<path fill="none" stroke="midnightblue" d="M112,-96.23C112,-86.8 112,-77.26 112,-68.62"/>
<polygon fill="none" stroke="midnightblue" points="108.5,-96.37 112,-106.37 115.5,-96.37 108.5,-96.37"/>
</g>
</g>
</svg>
