<?xml version="1.0" encoding="UTF-8" standalone="no"?>
<!DOCTYPE svg PUBLIC "-//W3C//DTD SVG 1.1//EN"
 "http://www.w3.org/Graphics/SVG/1.1/DTD/svg11.dtd">
<!-- Generated by graphviz version 2.43.0 (0)
 -->
<!-- Title: L4Re::Vfs::File Pages: 1 -->
<svg width="552pt" height="584pt"
 viewBox="0.00 0.00 552.00 584.00" xmlns="http://www.w3.org/2000/svg" xmlns:xlink="http://www.w3.org/1999/xlink">
<g id="graph0" class="graph" transform="scale(1 1) rotate(0) translate(4 580)">
<title>L4Re::Vfs::File</title>
<polygon fill="white" stroke="transparent" points="-4,4 -4,-580 548,-580 548,4 -4,4"/>
<!-- Node1 -->
<g id="node1" class="node">
<title>Node1</title>
<g id="a_node1"><a xlink:title="The basic interface for an open POSIX file.">
<polygon fill="#bfbfbf" stroke="black" points="230,-215.5 230,-349.5 322,-349.5 322,-215.5 230,-215.5"/>
<text text-anchor="middle" x="276" y="-337.5" font-family="Helvetica,sans-Serif" font-size="10.00">L4Re::Vfs::File</text>
<polyline fill="none" stroke="black" points="230,-330.5 322,-330.5 "/>
<text text-anchor="middle" x="276" y="-318.5" font-family="Helvetica,sans-Serif" font-size="10.00"> </text>
<polyline fill="none" stroke="black" points="230,-311.5 322,-311.5 "/>
<text text-anchor="start" x="238" y="-299.5" font-family="Helvetica,sans-Serif" font-size="10.00">+ get_mount()</text>
<text text-anchor="start" x="238" y="-288.5" font-family="Helvetica,sans-Serif" font-size="10.00">+ openat()</text>
<text text-anchor="start" x="238" y="-277.5" font-family="Helvetica,sans-Serif" font-size="10.00">+ add_ref()</text>
<text text-anchor="start" x="238" y="-266.5" font-family="Helvetica,sans-Serif" font-size="10.00">+ remove_ref()</text>
<text text-anchor="start" x="238" y="-255.5" font-family="Helvetica,sans-Serif" font-size="10.00">+ ~File()</text>
<text text-anchor="start" x="238" y="-244.5" font-family="Helvetica,sans-Serif" font-size="10.00">+ mount_tree()</text>
<text text-anchor="start" x="238" y="-233.5" font-family="Helvetica,sans-Serif" font-size="10.00"># File()</text>
<text text-anchor="start" x="238" y="-222.5" font-family="Helvetica,sans-Serif" font-size="10.00"># File()</text>
</a>
</g>
</g>
<!-- Node6 -->
<g id="node6" class="node">
<title>Node6</title>
<g id="a_node6"><a xlink:href="classL4Re_1_1Vfs_1_1Be__file.html" target="_top" xlink:title="Boiler plate class for implementing an open file for L4Re::Vfs.">
<polygon fill="white" stroke="black" points="218,-0.5 218,-178.5 334,-178.5 334,-0.5 218,-0.5"/>
<text text-anchor="middle" x="276" y="-166.5" font-family="Helvetica,sans-Serif" font-size="10.00">L4Re::Vfs::Be_file</text>
<polyline fill="none" stroke="black" points="218,-159.5 334,-159.5 "/>
<text text-anchor="middle" x="276" y="-147.5" font-family="Helvetica,sans-Serif" font-size="10.00"> </text>
<polyline fill="none" stroke="black" points="218,-140.5 334,-140.5 "/>
<text text-anchor="start" x="226" y="-128.5" font-family="Helvetica,sans-Serif" font-size="10.00">+ operator new()</text>
<text text-anchor="start" x="226" y="-117.5" font-family="Helvetica,sans-Serif" font-size="10.00">+ operator new()</text>
<text text-anchor="start" x="226" y="-106.5" font-family="Helvetica,sans-Serif" font-size="10.00">+ operator delete()</text>
<text text-anchor="start" x="226" y="-95.5" font-family="Helvetica,sans-Serif" font-size="10.00">+ unlock_all_locks()</text>
<text text-anchor="start" x="226" y="-84.5" font-family="Helvetica,sans-Serif" font-size="10.00">+ data_space()</text>
<text text-anchor="start" x="226" y="-73.5" font-family="Helvetica,sans-Serif" font-size="10.00">+ readv()</text>
<text text-anchor="start" x="226" y="-62.5" font-family="Helvetica,sans-Serif" font-size="10.00">+ writev()</text>
<text text-anchor="start" x="226" y="-51.5" font-family="Helvetica,sans-Serif" font-size="10.00">+ pwritev()</text>
<text text-anchor="start" x="226" y="-40.5" font-family="Helvetica,sans-Serif" font-size="10.00">+ preadv()</text>
<text text-anchor="start" x="226" y="-29.5" font-family="Helvetica,sans-Serif" font-size="10.00">+ lseek64()</text>
<text text-anchor="start" x="226" y="-18.5" font-family="Helvetica,sans-Serif" font-size="10.00">and 39 more...</text>
<text text-anchor="start" x="226" y="-7.5" font-family="Helvetica,sans-Serif" font-size="10.00"># get_mount()</text>
</a>
</g>
</g>
<!-- Node1&#45;&gt;Node6 -->
<g id="edge5" class="edge">
<title>Node1&#45;&gt;Node6</title>
<path fill="none" stroke="midnightblue" d="M276,-205.09C276,-196.35 276,-187.39 276,-178.52"/>
<polygon fill="none" stroke="midnightblue" points="272.5,-205.23 276,-215.23 279.5,-205.23 272.5,-205.23"/>
</g>
<!-- Node2 -->
<g id="node2" class="node">
<title>Node2</title>
<g id="a_node2"><a xlink:href="classL4Re_1_1Vfs_1_1Generic__file.html" target="_top" xlink:title="The common interface for an open POSIX file.">
<polygon fill="white" stroke="black" points="0,-408.5 0,-553.5 126,-553.5 126,-408.5 0,-408.5"/>
<text text-anchor="middle" x="63" y="-541.5" font-family="Helvetica,sans-Serif" font-size="10.00">L4Re::Vfs::Generic_file</text>
<polyline fill="none" stroke="black" points="0,-534.5 126,-534.5 "/>
<text text-anchor="middle" x="63" y="-522.5" font-family="Helvetica,sans-Serif" font-size="10.00"> </text>
<polyline fill="none" stroke="black" points="0,-515.5 126,-515.5 "/>
<text text-anchor="start" x="8" y="-503.5" font-family="Helvetica,sans-Serif" font-size="10.00">+ ~Generic_file()</text>
<text text-anchor="start" x="8" y="-492.5" font-family="Helvetica,sans-Serif" font-size="10.00">+ unlock_all_locks()</text>
<text text-anchor="start" x="8" y="-481.5" font-family="Helvetica,sans-Serif" font-size="10.00">+ fstat64()</text>
<text text-anchor="start" x="8" y="-470.5" font-family="Helvetica,sans-Serif" font-size="10.00">+ fchmod()</text>
<text text-anchor="start" x="8" y="-459.5" font-family="Helvetica,sans-Serif" font-size="10.00">+ get_status_flags()</text>
<text text-anchor="start" x="8" y="-448.5" font-family="Helvetica,sans-Serif" font-size="10.00">+ set_status_flags()</text>
<text text-anchor="start" x="8" y="-437.5" font-family="Helvetica,sans-Serif" font-size="10.00">+ utime()</text>
<text text-anchor="start" x="8" y="-426.5" font-family="Helvetica,sans-Serif" font-size="10.00">+ utimes()</text>
<text text-anchor="start" x="8" y="-415.5" font-family="Helvetica,sans-Serif" font-size="10.00">+ readlink()</text>
</a>
</g>
</g>
<!-- Node2&#45;&gt;Node1 -->
<g id="edge1" class="edge">
<title>Node2&#45;&gt;Node1</title>
<path fill="none" stroke="midnightblue" d="M120.98,-400.71C125.56,-395.58 130.25,-390.63 135,-386 163.92,-357.79 201.03,-331.13 229.91,-312.07"/>
<polygon fill="none" stroke="midnightblue" points="118.29,-398.48 114.37,-408.32 123.57,-403.07 118.29,-398.48"/>
</g>
<!-- Node3 -->
<g id="node3" class="node">
<title>Node3</title>
<g id="a_node3"><a xlink:href="classL4Re_1_1Vfs_1_1Regular__file.html" target="_top" xlink:title="Interface for a POSIX file that provides regular file semantics.">
<polygon fill="white" stroke="black" points="144,-392 144,-570 270,-570 270,-392 144,-392"/>
<text text-anchor="middle" x="207" y="-558" font-family="Helvetica,sans-Serif" font-size="10.00">L4Re::Vfs::Regular_file</text>
<polyline fill="none" stroke="black" points="144,-551 270,-551 "/>
<text text-anchor="middle" x="207" y="-539" font-family="Helvetica,sans-Serif" font-size="10.00"> </text>
<polyline fill="none" stroke="black" points="144,-532 270,-532 "/>
<text text-anchor="start" x="152" y="-520" font-family="Helvetica,sans-Serif" font-size="10.00">+ ~Regular_file()</text>
<text text-anchor="start" x="152" y="-509" font-family="Helvetica,sans-Serif" font-size="10.00">+ data_space()</text>
<text text-anchor="start" x="152" y="-498" font-family="Helvetica,sans-Serif" font-size="10.00">+ readv()</text>
<text text-anchor="start" x="152" y="-487" font-family="Helvetica,sans-Serif" font-size="10.00">+ writev()</text>
<text text-anchor="start" x="152" y="-476" font-family="Helvetica,sans-Serif" font-size="10.00">+ preadv()</text>
<text text-anchor="start" x="152" y="-465" font-family="Helvetica,sans-Serif" font-size="10.00">+ pwritev()</text>
<text text-anchor="start" x="152" y="-454" font-family="Helvetica,sans-Serif" font-size="10.00">+ lseek64()</text>
<text text-anchor="start" x="152" y="-443" font-family="Helvetica,sans-Serif" font-size="10.00">+ ftruncate64()</text>
<text text-anchor="start" x="152" y="-432" font-family="Helvetica,sans-Serif" font-size="10.00">+ fsync()</text>
<text text-anchor="start" x="152" y="-421" font-family="Helvetica,sans-Serif" font-size="10.00">+ fdatasync()</text>
<text text-anchor="start" x="152" y="-410" font-family="Helvetica,sans-Serif" font-size="10.00">+ get_lock()</text>
<text text-anchor="start" x="152" y="-399" font-family="Helvetica,sans-Serif" font-size="10.00">+ set_lock()</text>
</a>
</g>
</g>
<!-- Node3&#45;&gt;Node1 -->
<g id="edge2" class="edge">
<title>Node3&#45;&gt;Node1</title>
<path fill="none" stroke="midnightblue" d="M241.36,-382.14C245.23,-371.12 249.1,-360.09 252.78,-349.61"/>
<polygon fill="none" stroke="midnightblue" points="237.98,-381.21 237.97,-391.81 244.58,-383.53 237.98,-381.21"/>
</g>
<!-- Node4 -->
<g id="node4" class="node">
<title>Node4</title>
<g id="a_node4"><a xlink:href="classL4Re_1_1Vfs_1_1Directory.html" target="_top" xlink:title="Interface for a POSIX file that is a directory.">
<polygon fill="white" stroke="black" points="288.5,-386.5 288.5,-575.5 401.5,-575.5 401.5,-386.5 288.5,-386.5"/>
<text text-anchor="middle" x="345" y="-563.5" font-family="Helvetica,sans-Serif" font-size="10.00">L4Re::Vfs::Directory</text>
<polyline fill="none" stroke="black" points="288.5,-556.5 401.5,-556.5 "/>
<text text-anchor="middle" x="345" y="-544.5" font-family="Helvetica,sans-Serif" font-size="10.00"> </text>
<polyline fill="none" stroke="black" points="288.5,-537.5 401.5,-537.5 "/>
<text text-anchor="start" x="296.5" y="-525.5" font-family="Helvetica,sans-Serif" font-size="10.00">+ ~Directory()</text>
<text text-anchor="start" x="296.5" y="-514.5" font-family="Helvetica,sans-Serif" font-size="10.00">+ faccessat()</text>
<text text-anchor="start" x="296.5" y="-503.5" font-family="Helvetica,sans-Serif" font-size="10.00">+ mkdir()</text>
<text text-anchor="start" x="296.5" y="-492.5" font-family="Helvetica,sans-Serif" font-size="10.00">+ unlink()</text>
<text text-anchor="start" x="296.5" y="-481.5" font-family="Helvetica,sans-Serif" font-size="10.00">+ rename()</text>
<text text-anchor="start" x="296.5" y="-470.5" font-family="Helvetica,sans-Serif" font-size="10.00">+ link()</text>
<text text-anchor="start" x="296.5" y="-459.5" font-family="Helvetica,sans-Serif" font-size="10.00">+ symlink()</text>
<text text-anchor="start" x="296.5" y="-448.5" font-family="Helvetica,sans-Serif" font-size="10.00">+ rmdir()</text>
<text text-anchor="start" x="296.5" y="-437.5" font-family="Helvetica,sans-Serif" font-size="10.00">+ openat()</text>
<text text-anchor="start" x="296.5" y="-426.5" font-family="Helvetica,sans-Serif" font-size="10.00">+ getdents()</text>
<text text-anchor="start" x="296.5" y="-415.5" font-family="Helvetica,sans-Serif" font-size="10.00">+ fchmodat()</text>
<text text-anchor="start" x="296.5" y="-404.5" font-family="Helvetica,sans-Serif" font-size="10.00">+ utimensat()</text>
<text text-anchor="start" x="296.5" y="-393.5" font-family="Helvetica,sans-Serif" font-size="10.00">+ get_entry()</text>
</a>
</g>
</g>
<!-- Node4&#45;&gt;Node1 -->
<g id="edge3" class="edge">
<title>Node4&#45;&gt;Node1</title>
<path fill="none" stroke="midnightblue" d="M308.76,-376.79C305.54,-367.62 302.34,-358.51 299.27,-349.78"/>
<polygon fill="none" stroke="midnightblue" points="305.5,-378.08 312.12,-386.35 312.11,-375.76 305.5,-378.08"/>
</g>
<!-- Node5 -->
<g id="node5" class="node">
<title>Node5</title>
<g id="a_node5"><a xlink:href="classL4Re_1_1Vfs_1_1Special__file.html" target="_top" xlink:title="Interface for a POSIX file that provides special file semantics.">
<polygon fill="white" stroke="black" points="420,-447 420,-515 544,-515 544,-447 420,-447"/>
<text text-anchor="middle" x="482" y="-503" font-family="Helvetica,sans-Serif" font-size="10.00">L4Re::Vfs::Special_file</text>
<polyline fill="none" stroke="black" points="420,-496 544,-496 "/>
<text text-anchor="middle" x="482" y="-484" font-family="Helvetica,sans-Serif" font-size="10.00"> </text>
<polyline fill="none" stroke="black" points="420,-477 544,-477 "/>
<text text-anchor="start" x="428" y="-465" font-family="Helvetica,sans-Serif" font-size="10.00">+ ~Special_file()</text>
<text text-anchor="start" x="428" y="-454" font-family="Helvetica,sans-Serif" font-size="10.00">+ ioctl()</text>
</a>
</g>
</g>
<!-- Node5&#45;&gt;Node1 -->
<g id="edge4" class="edge">
<title>Node5&#45;&gt;Node1</title>
<path fill="none" stroke="midnightblue" d="M454.56,-438.69C442.23,-421.52 426.89,-401.93 411,-386 383.98,-358.92 349.59,-332.91 322.28,-313.87"/>
<polygon fill="none" stroke="midnightblue" points="451.74,-440.75 460.37,-446.9 457.45,-436.71 451.74,-440.75"/>
</g>
</g>
</svg>
