<?xml version="1.0" encoding="UTF-8" standalone="no"?>
<!DOCTYPE svg PUBLIC "-//W3C//DTD SVG 1.1//EN"
 "http://www.w3.org/Graphics/SVG/1.1/DTD/svg11.dtd">
<!-- Generated by graphviz version 2.43.0 (0)
 -->
<!-- Title: cxx::Base_slab::free_objects Pages: 1 -->
<svg width="294pt" height="78pt"
 viewBox="0.00 0.00 294.00 77.50" xmlns="http://www.w3.org/2000/svg" xmlns:xlink="http://www.w3.org/1999/xlink">
<g id="graph0" class="graph" transform="scale(1 1) rotate(0) translate(4 73.5)">
<title>cxx::Base_slab::free_objects</title>
<polygon fill="white" stroke="transparent" points="-4,4 -4,-73.5 290,-73.5 290,4 -4,4"/>
<!-- Node1 -->
<g id="node1" class="node">
<title>Node1</title>
<g id="a_node1"><a xlink:title="Get the number of objects which can be allocated before a new empty slab needs to be added to the sla...">
<polygon fill="#bfbfbf" stroke="black" points="0,-17 0,-47 115,-47 115,-17 0,-17"/>
<text text-anchor="start" x="8" y="-35" font-family="Helvetica,sans-Serif" font-size="10.00">cxx::Base_slab::free</text>
<text text-anchor="middle" x="57.5" y="-24" font-family="Helvetica,sans-Serif" font-size="10.00">_objects</text>
</a>
</g>
</g>
<!-- Node2 -->
<g id="node2" class="node">
<title>Node2</title>
<g id="a_node2"><a xlink:href="classcxx_1_1Bits_1_1Basic__list.html#af857846edcaf6cbc84827c585b45fd49" target="_top" xlink:title="Return an iterator to the beginning of the list.">
<polygon fill="white" stroke="black" points="163,-39 163,-69 274,-69 274,-39 163,-39"/>
<text text-anchor="start" x="171" y="-57" font-family="Helvetica,sans-Serif" font-size="10.00">cxx::Bits::Basic_list</text>
<text text-anchor="middle" x="218.5" y="-46" font-family="Helvetica,sans-Serif" font-size="10.00">::begin</text>
</a>
</g>
</g>
<!-- Node1&#45;&gt;Node2 -->
<g id="edge1" class="edge">
<title>Node1&#45;&gt;Node2</title>
<path fill="none" stroke="midnightblue" d="M115.01,-39.82C127.26,-41.51 140.31,-43.32 152.85,-45.06"/>
<polygon fill="midnightblue" stroke="midnightblue" points="152.39,-48.52 162.78,-46.43 153.35,-41.59 152.39,-48.52"/>
</g>
<!-- Node3 -->
<g id="node3" class="node">
<title>Node3</title>
<g id="a_node3"><a xlink:href="classcxx_1_1Bits_1_1Basic__list.html#a08f2ae0b9f0379ce1778ba1f2d163330" target="_top" xlink:title="Return a const iterator to the end of the list.">
<polygon fill="white" stroke="black" points="151,-0.5 151,-19.5 286,-19.5 286,-0.5 151,-0.5"/>
<text text-anchor="middle" x="218.5" y="-7.5" font-family="Helvetica,sans-Serif" font-size="10.00">cxx::Bits::Basic_list::end</text>
</a>
</g>
</g>
<!-- Node1&#45;&gt;Node3 -->
<g id="edge2" class="edge">
<title>Node1&#45;&gt;Node3</title>
<path fill="none" stroke="midnightblue" d="M115.01,-24.18C123.35,-23.03 132.06,-21.82 140.72,-20.62"/>
<polygon fill="midnightblue" stroke="midnightblue" points="141.42,-24.06 150.85,-19.22 140.47,-17.13 141.42,-24.06"/>
</g>
</g>
</svg>
