<?xml version="1.0" encoding="UTF-8" standalone="no"?>
<!DOCTYPE svg PUBLIC "-//W3C//DTD SVG 1.1//EN"
 "http://www.w3.org/Graphics/SVG/1.1/DTD/svg11.dtd">
<!-- Generated by graphviz version 2.43.0 (0)
 -->
<!-- Title: L4::Thread::vcpu_control Pages: 1 -->
<svg width="321pt" height="66pt"
 viewBox="0.00 0.00 321.00 66.00" xmlns="http://www.w3.org/2000/svg" xmlns:xlink="http://www.w3.org/1999/xlink">
<g id="graph0" class="graph" transform="scale(1 1) rotate(0) translate(4 62)">
<title>L4::Thread::vcpu_control</title>
<polygon fill="white" stroke="transparent" points="-4,4 -4,-62 317,-62 317,4 -4,4"/>
<!-- Node1 -->
<g id="node1" class="node">
<title>Node1</title>
<g id="a_node1"><a xlink:title="Enable or disable the vCPU feature for the thread.">
<polygon fill="#bfbfbf" stroke="black" points="0,-19.5 0,-38.5 136,-38.5 136,-19.5 0,-19.5"/>
<text text-anchor="middle" x="68" y="-26.5" font-family="Helvetica,sans-Serif" font-size="10.00">L4::Thread::vcpu_control</text>
</a>
</g>
</g>
<!-- Node2 -->
<g id="node2" class="node">
<title>Node2</title>
<g id="a_node2"><a xlink:href="classL4_1_1Kobject.html#a4f2117ae76762f4084e6a1adb915863c" target="_top" xlink:title="Return capability selector.">
<polygon fill="white" stroke="black" points="196,-38.5 196,-57.5 289,-57.5 289,-38.5 196,-38.5"/>
<text text-anchor="middle" x="242.5" y="-45.5" font-family="Helvetica,sans-Serif" font-size="10.00">L4::Kobject::cap</text>
</a>
</g>
</g>
<!-- Node1&#45;&gt;Node2 -->
<g id="edge1" class="edge">
<title>Node1&#45;&gt;Node2</title>
<path fill="none" stroke="midnightblue" d="M136.19,-36.4C152.56,-38.2 169.9,-40.11 185.68,-41.85"/>
<polygon fill="midnightblue" stroke="midnightblue" points="185.48,-45.35 195.8,-42.97 186.24,-38.39 185.48,-45.35"/>
</g>
<!-- Node3 -->
<g id="node3" class="node">
<title>Node3</title>
<g id="a_node3"><a xlink:href="group__l4__thread__api.html#ga8ebc0dd643266610d76860cf0fb77f53" target="_top" xlink:title="Enable or disable the vCPU feature for the thread.">
<polygon fill="white" stroke="black" points="172,-0.5 172,-19.5 313,-19.5 313,-0.5 172,-0.5"/>
<text text-anchor="middle" x="242.5" y="-7.5" font-family="Helvetica,sans-Serif" font-size="10.00">l4_thread_vcpu_control_u</text>
</a>
</g>
</g>
<!-- Node1&#45;&gt;Node3 -->
<g id="edge2" class="edge">
<title>Node1&#45;&gt;Node3</title>
<path fill="none" stroke="midnightblue" d="M136.19,-21.6C144.62,-20.67 153.31,-19.71 161.9,-18.77"/>
<polygon fill="midnightblue" stroke="midnightblue" points="162.38,-22.24 171.94,-17.66 161.61,-15.28 162.38,-22.24"/>
</g>
</g>
</svg>
