<?xml version="1.0" encoding="UTF-8" standalone="no"?>
<!DOCTYPE svg PUBLIC "-//W3C//DTD SVG 1.1//EN"
 "http://www.w3.org/Graphics/SVG/1.1/DTD/svg11.dtd">
<!-- Generated by graphviz version 2.43.0 (0)
 -->
<!-- Title: L4::Kobject_2t&lt; Derived, Base1, Base2, PROTO, S_DEMAND &gt; Pages: 1 -->
<svg width="536pt" height="464pt"
 viewBox="0.00 0.00 535.50 464.00" xmlns="http://www.w3.org/2000/svg" xmlns:xlink="http://www.w3.org/1999/xlink">
<g id="graph0" class="graph" transform="scale(1 1) rotate(0) translate(4 460)">
<title>L4::Kobject_2t&lt; Derived, Base1, Base2, PROTO, S_DEMAND &gt;</title>
<polygon fill="white" stroke="transparent" points="-4,4 -4,-460 531.5,-460 531.5,4 -4,4"/>
<!-- Node1 -->
<g id="node1" class="node">
<title>Node1</title>
<g id="a_node1"><a xlink:title="Helper class to create an L4Re interface class that is derived from two base classes (see L4::Kobject...">
<polygon fill="#bfbfbf" stroke="black" points="173,-332.5 173,-455.5 328,-455.5 328,-332.5 173,-332.5"/>
<text text-anchor="start" x="181" y="-443.5" font-family="Helvetica,sans-Serif" font-size="10.00">L4::Kobject_2t&lt; Derived,</text>
<text text-anchor="start" x="181" y="-432.5" font-family="Helvetica,sans-Serif" font-size="10.00"> Base1, Base2, PROTO,</text>
<text text-anchor="middle" x="250.5" y="-421.5" font-family="Helvetica,sans-Serif" font-size="10.00"> S_DEMAND &gt;</text>
<polyline fill="none" stroke="black" points="173,-414.5 328,-414.5 "/>
<text text-anchor="middle" x="250.5" y="-402.5" font-family="Helvetica,sans-Serif" font-size="10.00"> </text>
<polyline fill="none" stroke="black" points="173,-395.5 328,-395.5 "/>
<text text-anchor="start" x="181" y="-383.5" font-family="Helvetica,sans-Serif" font-size="10.00">+ operator Kobject const &amp;()</text>
<text text-anchor="start" x="181" y="-372.5" font-family="Helvetica,sans-Serif" font-size="10.00">+ dec_refcnt()</text>
<text text-anchor="start" x="181" y="-361.5" font-family="Helvetica,sans-Serif" font-size="10.00"># cap()</text>
<text text-anchor="start" x="181" y="-350.5" font-family="Helvetica,sans-Serif" font-size="10.00"># c()</text>
<text text-anchor="start" x="181" y="-339.5" font-family="Helvetica,sans-Serif" font-size="10.00"># __check_protocols__()</text>
</a>
</g>
</g>
<!-- Node2 -->
<g id="node2" class="node">
<title>Node2</title>
<g id="a_node2"><a xlink:href="classL4_1_1Kobject__2t.html" target="_top" xlink:title=" ">
<polygon fill="white" stroke="black" points="0,-134 0,-257 155,-257 155,-134 0,-134"/>
<text text-anchor="start" x="8" y="-245" font-family="Helvetica,sans-Serif" font-size="10.00">L4::Kobject_2t&lt; Irq,</text>
<text text-anchor="start" x="8" y="-234" font-family="Helvetica,sans-Serif" font-size="10.00"> Triggerable, Rcv_endpoint,</text>
<text text-anchor="middle" x="77.5" y="-223" font-family="Helvetica,sans-Serif" font-size="10.00"> L4_PROTO_IRQ_SENDER &gt;</text>
<polyline fill="none" stroke="black" points="0,-216 155,-216 "/>
<text text-anchor="middle" x="77.5" y="-204" font-family="Helvetica,sans-Serif" font-size="10.00"> </text>
<polyline fill="none" stroke="black" points="0,-197 155,-197 "/>
<text text-anchor="start" x="8" y="-185" font-family="Helvetica,sans-Serif" font-size="10.00">+ operator Kobject const &amp;()</text>
<text text-anchor="start" x="8" y="-174" font-family="Helvetica,sans-Serif" font-size="10.00">+ dec_refcnt()</text>
<text text-anchor="start" x="8" y="-163" font-family="Helvetica,sans-Serif" font-size="10.00"># cap()</text>
<text text-anchor="start" x="8" y="-152" font-family="Helvetica,sans-Serif" font-size="10.00"># c()</text>
<text text-anchor="start" x="8" y="-141" font-family="Helvetica,sans-Serif" font-size="10.00"># __check_protocols__()</text>
</a>
</g>
</g>
<!-- Node1&#45;&gt;Node2 -->
<g id="edge1" class="edge">
<title>Node1&#45;&gt;Node2</title>
<path fill="none" stroke="orange" d="M164.24,-351.98C148.12,-341.35 132.56,-328.68 120.5,-314 107.05,-297.64 97.61,-276.69 91.08,-257.03"/>
<polygon fill="orange" stroke="orange" points="162.4,-354.96 172.72,-357.36 166.14,-349.04 162.4,-354.96"/>
<text text-anchor="start" x="120.5" y="-306" font-family="Helvetica,sans-Serif" font-size="10.00"> &lt; Irq, Triggerable,</text>
<text text-anchor="start" x="120.5" y="-295" font-family="Helvetica,sans-Serif" font-size="10.00"> Rcv_endpoint, L4_PROTO</text>
<text text-anchor="middle" x="183.5" y="-284" font-family="Helvetica,sans-Serif" font-size="10.00">_IRQ_SENDER &gt;</text>
</g>
<!-- Node4 -->
<g id="node4" class="node">
<title>Node4</title>
<g id="a_node4"><a xlink:href="classL4_1_1Kobject__2t.html" target="_top" xlink:title=" ">
<polygon fill="white" stroke="black" points="173,-128.5 173,-262.5 328,-262.5 328,-128.5 173,-128.5"/>
<text text-anchor="start" x="181" y="-250.5" font-family="Helvetica,sans-Serif" font-size="10.00">L4::Kobject_2t&lt; Debug</text>
<text text-anchor="start" x="181" y="-239.5" font-family="Helvetica,sans-Serif" font-size="10.00">_obj_t&lt; BASE &gt;, BASE,</text>
<text text-anchor="start" x="181" y="-228.5" font-family="Helvetica,sans-Serif" font-size="10.00"> Debug_obj, L4::PROTO</text>
<text text-anchor="middle" x="250.5" y="-217.5" font-family="Helvetica,sans-Serif" font-size="10.00">_EMPTY &gt;</text>
<polyline fill="none" stroke="black" points="173,-210.5 328,-210.5 "/>
<text text-anchor="middle" x="250.5" y="-198.5" font-family="Helvetica,sans-Serif" font-size="10.00"> </text>
<polyline fill="none" stroke="black" points="173,-191.5 328,-191.5 "/>
<text text-anchor="start" x="181" y="-179.5" font-family="Helvetica,sans-Serif" font-size="10.00">+ operator Kobject const &amp;()</text>
<text text-anchor="start" x="181" y="-168.5" font-family="Helvetica,sans-Serif" font-size="10.00">+ dec_refcnt()</text>
<text text-anchor="start" x="181" y="-157.5" font-family="Helvetica,sans-Serif" font-size="10.00"># cap()</text>
<text text-anchor="start" x="181" y="-146.5" font-family="Helvetica,sans-Serif" font-size="10.00"># c()</text>
<text text-anchor="start" x="181" y="-135.5" font-family="Helvetica,sans-Serif" font-size="10.00"># __check_protocols__()</text>
</a>
</g>
</g>
<!-- Node1&#45;&gt;Node4 -->
<g id="edge3" class="edge">
<title>Node1&#45;&gt;Node4</title>
<path fill="none" stroke="orange" d="M250.5,-322.42C250.5,-302.94 250.5,-281.89 250.5,-262.67"/>
<polygon fill="orange" stroke="orange" points="247,-322.44 250.5,-332.44 254,-322.44 247,-322.44"/>
<text text-anchor="start" x="250.5" y="-306" font-family="Helvetica,sans-Serif" font-size="10.00"> &lt; Debug_obj_t&lt; BASE</text>
<text text-anchor="start" x="250.5" y="-295" font-family="Helvetica,sans-Serif" font-size="10.00"> &gt;, BASE, Debug_obj,</text>
<text text-anchor="middle" x="306.5" y="-284" font-family="Helvetica,sans-Serif" font-size="10.00"> L4::PROTO_EMPTY &gt;</text>
</g>
<!-- Node5 -->
<g id="node5" class="node">
<title>Node5</title>
<g id="a_node5"><a xlink:href="classL4_1_1Kobject__2t.html" target="_top" xlink:title=" ">
<polygon fill="white" stroke="black" points="346,-134 346,-257 501,-257 501,-134 346,-134"/>
<text text-anchor="start" x="354" y="-245" font-family="Helvetica,sans-Serif" font-size="10.00">L4::Kobject_2t&lt; Console,</text>
<text text-anchor="start" x="354" y="-234" font-family="Helvetica,sans-Serif" font-size="10.00"> Video::Goos, Event, L4</text>
<text text-anchor="middle" x="423.5" y="-223" font-family="Helvetica,sans-Serif" font-size="10.00">::PROTO_EMPTY &gt;</text>
<polyline fill="none" stroke="black" points="346,-216 501,-216 "/>
<text text-anchor="middle" x="423.5" y="-204" font-family="Helvetica,sans-Serif" font-size="10.00"> </text>
<polyline fill="none" stroke="black" points="346,-197 501,-197 "/>
<text text-anchor="start" x="354" y="-185" font-family="Helvetica,sans-Serif" font-size="10.00">+ operator Kobject const &amp;()</text>
<text text-anchor="start" x="354" y="-174" font-family="Helvetica,sans-Serif" font-size="10.00">+ dec_refcnt()</text>
<text text-anchor="start" x="354" y="-163" font-family="Helvetica,sans-Serif" font-size="10.00"># cap()</text>
<text text-anchor="start" x="354" y="-152" font-family="Helvetica,sans-Serif" font-size="10.00"># c()</text>
<text text-anchor="start" x="354" y="-141" font-family="Helvetica,sans-Serif" font-size="10.00"># __check_protocols__()</text>
</a>
</g>
</g>
<!-- Node1&#45;&gt;Node5 -->
<g id="edge4" class="edge">
<title>Node1&#45;&gt;Node5</title>
<path fill="none" stroke="orange" d="M336.23,-342.37C347.19,-333.75 357.66,-324.24 366.5,-314 380.8,-297.44 392.42,-276.67 401.34,-257.21"/>
<polygon fill="orange" stroke="orange" points="334.02,-339.66 328.17,-348.49 338.25,-345.23 334.02,-339.66"/>
<text text-anchor="start" x="389.5" y="-300.5" font-family="Helvetica,sans-Serif" font-size="10.00"> &lt; Console, Video::Goos,</text>
<text text-anchor="middle" x="458.5" y="-289.5" font-family="Helvetica,sans-Serif" font-size="10.00"> Event, L4::PROTO_EMPTY &gt;</text>
</g>
<!-- Node3 -->
<g id="node3" class="node">
<title>Node3</title>
<g id="a_node3"><a xlink:href="classL4_1_1Irq.html" target="_top" xlink:title="C++ Irq interface.">
<polygon fill="white" stroke="black" points="40.5,-0.5 40.5,-90.5 114.5,-90.5 114.5,-0.5 40.5,-0.5"/>
<text text-anchor="middle" x="77.5" y="-78.5" font-family="Helvetica,sans-Serif" font-size="10.00">L4::Irq</text>
<polyline fill="none" stroke="black" points="40.5,-71.5 114.5,-71.5 "/>
<text text-anchor="middle" x="77.5" y="-59.5" font-family="Helvetica,sans-Serif" font-size="10.00"> </text>
<polyline fill="none" stroke="black" points="40.5,-52.5 114.5,-52.5 "/>
<text text-anchor="start" x="48.5" y="-40.5" font-family="Helvetica,sans-Serif" font-size="10.00">+ detach()</text>
<text text-anchor="start" x="48.5" y="-29.5" font-family="Helvetica,sans-Serif" font-size="10.00">+ receive()</text>
<text text-anchor="start" x="48.5" y="-18.5" font-family="Helvetica,sans-Serif" font-size="10.00">+ wait()</text>
<text text-anchor="start" x="48.5" y="-7.5" font-family="Helvetica,sans-Serif" font-size="10.00">+ unmask()</text>
</a>
</g>
</g>
<!-- Node2&#45;&gt;Node3 -->
<g id="edge2" class="edge">
<title>Node2&#45;&gt;Node3</title>
<path fill="none" stroke="midnightblue" d="M77.5,-123.69C77.5,-112.53 77.5,-101.28 77.5,-90.95"/>
<polygon fill="none" stroke="midnightblue" points="74,-123.88 77.5,-133.88 81,-123.88 74,-123.88"/>
</g>
<!-- Node6 -->
<g id="node6" class="node">
<title>Node6</title>
<g id="a_node6"><a xlink:href="classL4Re_1_1Console.html" target="_top" xlink:title="Console class.">
<polygon fill="white" stroke="black" points="380.5,-17 380.5,-74 466.5,-74 466.5,-17 380.5,-17"/>
<text text-anchor="middle" x="423.5" y="-62" font-family="Helvetica,sans-Serif" font-size="10.00">L4Re::Console</text>
<polyline fill="none" stroke="black" points="380.5,-55 466.5,-55 "/>
<text text-anchor="middle" x="423.5" y="-43" font-family="Helvetica,sans-Serif" font-size="10.00"> </text>
<polyline fill="none" stroke="black" points="380.5,-36 466.5,-36 "/>
<text text-anchor="middle" x="423.5" y="-24" font-family="Helvetica,sans-Serif" font-size="10.00"> </text>
</a>
</g>
</g>
<!-- Node5&#45;&gt;Node6 -->
<g id="edge5" class="edge">
<title>Node5&#45;&gt;Node6</title>
<path fill="none" stroke="midnightblue" d="M423.5,-123.57C423.5,-105.98 423.5,-88.15 423.5,-74.08"/>
<polygon fill="none" stroke="midnightblue" points="420,-123.88 423.5,-133.88 427,-123.88 420,-123.88"/>
</g>
</g>
</svg>
