<?xml version="1.0" encoding="UTF-8" standalone="no"?>
<!DOCTYPE svg PUBLIC "-//W3C//DTD SVG 1.1//EN"
 "http://www.w3.org/Graphics/SVG/1.1/DTD/svg11.dtd">
<!-- Generated by graphviz version 2.43.0 (0)
 -->
<!-- Title: cxx::Bitmap_base::Word&lt; BITS &gt; Pages: 1 -->
<svg width="294pt" height="193pt"
 viewBox="0.00 0.00 294.00 193.00" xmlns="http://www.w3.org/2000/svg" xmlns:xlink="http://www.w3.org/1999/xlink">
<g id="graph0" class="graph" transform="scale(1 1) rotate(0) translate(4 189)">
<title>cxx::Bitmap_base::Word&lt; BITS &gt;</title>
<polygon fill="white" stroke="transparent" points="-4,4 -4,-189 290,-189 290,4 -4,4"/>
<!-- Node1 -->
<g id="node1" class="node">
<title>Node1</title>
<g id="a_node1"><a xlink:title="Helper abstraction for a word contained in the bitmap.">
<polygon fill="#bfbfbf" stroke="black" points="76,-116.5 76,-184.5 210,-184.5 210,-116.5 76,-116.5"/>
<text text-anchor="start" x="84" y="-172.5" font-family="Helvetica,sans-Serif" font-size="10.00">cxx::Bitmap_base::Word</text>
<text text-anchor="middle" x="143" y="-161.5" font-family="Helvetica,sans-Serif" font-size="10.00">&lt; BITS &gt;</text>
<polyline fill="none" stroke="black" points="76,-154.5 210,-154.5 "/>
<text text-anchor="middle" x="143" y="-142.5" font-family="Helvetica,sans-Serif" font-size="10.00"> </text>
<polyline fill="none" stroke="black" points="76,-135.5 210,-135.5 "/>
<text text-anchor="middle" x="143" y="-123.5" font-family="Helvetica,sans-Serif" font-size="10.00"> </text>
</a>
</g>
</g>
<!-- Node2 -->
<g id="node2" class="node">
<title>Node2</title>
<g id="a_node2"><a xlink:href="classcxx_1_1Bitmap__base_1_1Word.html" target="_top" xlink:title=" ">
<polygon fill="white" stroke="black" points="0,-0.5 0,-68.5 134,-68.5 134,-0.5 0,-0.5"/>
<text text-anchor="start" x="8" y="-56.5" font-family="Helvetica,sans-Serif" font-size="10.00">cxx::Bitmap_base::Word</text>
<text text-anchor="middle" x="67" y="-45.5" font-family="Helvetica,sans-Serif" font-size="10.00">&lt; Size &gt;</text>
<polyline fill="none" stroke="black" points="0,-38.5 134,-38.5 "/>
<text text-anchor="middle" x="67" y="-26.5" font-family="Helvetica,sans-Serif" font-size="10.00"> </text>
<polyline fill="none" stroke="black" points="0,-19.5 134,-19.5 "/>
<text text-anchor="middle" x="67" y="-7.5" font-family="Helvetica,sans-Serif" font-size="10.00"> </text>
</a>
</g>
</g>
<!-- Node1&#45;&gt;Node2 -->
<g id="edge1" class="edge">
<title>Node1&#45;&gt;Node2</title>
<path fill="none" stroke="orange" d="M115.03,-107.55C106.48,-94.71 97.19,-80.78 89.08,-68.62"/>
<polygon fill="orange" stroke="orange" points="112.35,-109.84 120.81,-116.22 118.18,-105.96 112.35,-109.84"/>
<text text-anchor="middle" x="131" y="-90" font-family="Helvetica,sans-Serif" font-size="10.00"> &lt; Size &gt;</text>
</g>
<!-- Node3 -->
<g id="node3" class="node">
<title>Node3</title>
<g id="a_node3"><a xlink:href="classcxx_1_1Bitmap__base_1_1Word.html" target="_top" xlink:title=" ">
<polygon fill="white" stroke="black" points="152,-0.5 152,-68.5 286,-68.5 286,-0.5 152,-0.5"/>
<text text-anchor="start" x="160" y="-56.5" font-family="Helvetica,sans-Serif" font-size="10.00">cxx::Bitmap_base::Word</text>
<text text-anchor="middle" x="219" y="-45.5" font-family="Helvetica,sans-Serif" font-size="10.00">&lt; Bits &gt;</text>
<polyline fill="none" stroke="black" points="152,-38.5 286,-38.5 "/>
<text text-anchor="middle" x="219" y="-26.5" font-family="Helvetica,sans-Serif" font-size="10.00"> </text>
<polyline fill="none" stroke="black" points="152,-19.5 286,-19.5 "/>
<text text-anchor="middle" x="219" y="-7.5" font-family="Helvetica,sans-Serif" font-size="10.00"> </text>
</a>
</g>
</g>
<!-- Node1&#45;&gt;Node3 -->
<g id="edge2" class="edge">
<title>Node1&#45;&gt;Node3</title>
<path fill="none" stroke="orange" d="M170.97,-107.55C179.52,-94.71 188.81,-80.78 196.92,-68.62"/>
<polygon fill="orange" stroke="orange" points="167.82,-105.96 165.19,-116.22 173.65,-109.84 167.82,-105.96"/>
<text text-anchor="middle" x="205.5" y="-90" font-family="Helvetica,sans-Serif" font-size="10.00"> &lt; Bits &gt;</text>
</g>
</g>
</svg>
