<?xml version="1.0" encoding="UTF-8" standalone="no"?>
<!DOCTYPE svg PUBLIC "-//W3C//DTD SVG 1.1//EN"
 "http://www.w3.org/Graphics/SVG/1.1/DTD/svg11.dtd">
<!-- Generated by graphviz version 2.43.0 (0)
 -->
<!-- Title: L4::Element_not_found Pages: 1 -->
<svg width="138pt" height="436pt"
 viewBox="0.00 0.00 138.00 436.00" xmlns="http://www.w3.org/2000/svg" xmlns:xlink="http://www.w3.org/1999/xlink">
<g id="graph0" class="graph" transform="scale(1 1) rotate(0) translate(4 432)">
<title>L4::Element_not_found</title>
<polygon fill="white" stroke="transparent" points="-4,4 -4,-432 134,-432 134,4 -4,4"/>
<!-- Node1 -->
<g id="node1" class="node">
<title>Node1</title>
<g id="a_node1"><a xlink:title="Exception for a failed lookup (element not found).">
<polygon fill="#bfbfbf" stroke="black" points="0,-0.5 0,-57.5 130,-57.5 130,-0.5 0,-0.5"/>
<text text-anchor="middle" x="65" y="-45.5" font-family="Helvetica,sans-Serif" font-size="10.00">L4::Element_not_found</text>
<polyline fill="none" stroke="black" points="0,-38.5 130,-38.5 "/>
<text text-anchor="middle" x="65" y="-26.5" font-family="Helvetica,sans-Serif" font-size="10.00"> </text>
<polyline fill="none" stroke="black" points="0,-19.5 130,-19.5 "/>
<text text-anchor="start" x="8" y="-7.5" font-family="Helvetica,sans-Serif" font-size="10.00">+ Element_not_found()</text>
</a>
</g>
</g>
<!-- Node2 -->
<g id="node2" class="node">
<title>Node2</title>
<g id="a_node2"><a xlink:href="classL4_1_1Runtime__error.html" target="_top" xlink:title="Exception for an abstract runtime error.">
<polygon fill="white" stroke="black" points="8.5,-94.5 8.5,-195.5 121.5,-195.5 121.5,-94.5 8.5,-94.5"/>
<text text-anchor="middle" x="65" y="-183.5" font-family="Helvetica,sans-Serif" font-size="10.00">L4::Runtime_error</text>
<polyline fill="none" stroke="black" points="8.5,-176.5 121.5,-176.5 "/>
<text text-anchor="middle" x="65" y="-164.5" font-family="Helvetica,sans-Serif" font-size="10.00"> </text>
<polyline fill="none" stroke="black" points="8.5,-157.5 121.5,-157.5 "/>
<text text-anchor="start" x="16.5" y="-145.5" font-family="Helvetica,sans-Serif" font-size="10.00">+ Runtime_error()</text>
<text text-anchor="start" x="16.5" y="-134.5" font-family="Helvetica,sans-Serif" font-size="10.00">+ str()</text>
<text text-anchor="start" x="16.5" y="-123.5" font-family="Helvetica,sans-Serif" font-size="10.00">+ extra_str()</text>
<text text-anchor="start" x="16.5" y="-112.5" font-family="Helvetica,sans-Serif" font-size="10.00">+ ~Runtime_error()</text>
<text text-anchor="start" x="16.5" y="-101.5" font-family="Helvetica,sans-Serif" font-size="10.00">+ err_no()</text>
</a>
</g>
</g>
<!-- Node2&#45;&gt;Node1 -->
<g id="edge1" class="edge">
<title>Node2&#45;&gt;Node1</title>
<path fill="none" stroke="midnightblue" d="M65,-84.23C65,-74.92 65,-65.71 65,-57.59"/>
<polygon fill="none" stroke="midnightblue" points="61.5,-84.33 65,-94.33 68.5,-84.33 61.5,-84.33"/>
</g>
<!-- Node3 -->
<g id="node3" class="node">
<title>Node3</title>
<g id="a_node3"><a xlink:href="classL4_1_1Base__exception.html" target="_top" xlink:title="Base class for all exceptions, thrown by the L4Re framework.">
<polygon fill="white" stroke="black" points="4.5,-232.5 4.5,-311.5 125.5,-311.5 125.5,-232.5 4.5,-232.5"/>
<text text-anchor="middle" x="65" y="-299.5" font-family="Helvetica,sans-Serif" font-size="10.00">L4::Base_exception</text>
<polyline fill="none" stroke="black" points="4.5,-292.5 125.5,-292.5 "/>
<text text-anchor="middle" x="65" y="-280.5" font-family="Helvetica,sans-Serif" font-size="10.00"> </text>
<polyline fill="none" stroke="black" points="4.5,-273.5 125.5,-273.5 "/>
<text text-anchor="start" x="12.5" y="-261.5" font-family="Helvetica,sans-Serif" font-size="10.00">+ str()</text>
<text text-anchor="start" x="12.5" y="-250.5" font-family="Helvetica,sans-Serif" font-size="10.00">+ ~Base_exception()</text>
<text text-anchor="start" x="12.5" y="-239.5" font-family="Helvetica,sans-Serif" font-size="10.00"># Base_exception()</text>
</a>
</g>
</g>
<!-- Node3&#45;&gt;Node2 -->
<g id="edge2" class="edge">
<title>Node3&#45;&gt;Node2</title>
<path fill="none" stroke="midnightblue" d="M65,-222.41C65,-213.64 65,-204.49 65,-195.69"/>
<polygon fill="none" stroke="midnightblue" points="61.5,-222.48 65,-232.48 68.5,-222.48 61.5,-222.48"/>
</g>
<!-- Node4 -->
<g id="node4" class="node">
<title>Node4</title>
<g id="a_node4"><a xlink:href="classL4_1_1Exception__tracer.html" target="_top" xlink:title="Back&#45;trace support for exceptions.">
<polygon fill="white" stroke="black" points="6.5,-348.5 6.5,-427.5 123.5,-427.5 123.5,-348.5 6.5,-348.5"/>
<text text-anchor="middle" x="65" y="-415.5" font-family="Helvetica,sans-Serif" font-size="10.00">L4::Exception_tracer</text>
<polyline fill="none" stroke="black" points="6.5,-408.5 123.5,-408.5 "/>
<text text-anchor="middle" x="65" y="-396.5" font-family="Helvetica,sans-Serif" font-size="10.00"> </text>
<polyline fill="none" stroke="black" points="6.5,-389.5 123.5,-389.5 "/>
<text text-anchor="start" x="14.5" y="-377.5" font-family="Helvetica,sans-Serif" font-size="10.00">+ pc_array()</text>
<text text-anchor="start" x="14.5" y="-366.5" font-family="Helvetica,sans-Serif" font-size="10.00">+ frame_count()</text>
<text text-anchor="start" x="14.5" y="-355.5" font-family="Helvetica,sans-Serif" font-size="10.00"># Exception_tracer()</text>
</a>
</g>
</g>
<!-- Node4&#45;&gt;Node3 -->
<g id="edge3" class="edge">
<title>Node4&#45;&gt;Node3</title>
<path fill="none" stroke="midnightblue" d="M65,-338.15C65,-329.26 65,-320.1 65,-311.56"/>
<polygon fill="none" stroke="midnightblue" points="61.5,-338.4 65,-348.4 68.5,-338.4 61.5,-338.4"/>
</g>
</g>
</svg>
