<?xml version="1.0" encoding="UTF-8" standalone="no"?>
<!DOCTYPE svg PUBLIC "-//W3C//DTD SVG 1.1//EN"
 "http://www.w3.org/Graphics/SVG/1.1/DTD/svg11.dtd">
<!-- Generated by graphviz version 2.43.0 (0)
 -->
<!-- Title: cxx::Base_slab::alloc Pages: 1 -->
<svg width="285pt" height="78pt"
 viewBox="0.00 0.00 285.00 77.50" xmlns="http://www.w3.org/2000/svg" xmlns:xlink="http://www.w3.org/1999/xlink">
<g id="graph0" class="graph" transform="scale(1 1) rotate(0) translate(4 73.5)">
<title>cxx::Base_slab::alloc</title>
<polygon fill="white" stroke="transparent" points="-4,4 -4,-73.5 281,-73.5 281,4 -4,4"/>
<!-- Node1 -->
<g id="node1" class="node">
<title>Node1</title>
<g id="a_node1"><a xlink:title="Allocate a new object.">
<polygon fill="#bfbfbf" stroke="black" points="158,-28 158,-47 277,-47 277,-28 158,-28"/>
<text text-anchor="middle" x="217.5" y="-35" font-family="Helvetica,sans-Serif" font-size="10.00">cxx::Base_slab::alloc</text>
</a>
</g>
</g>
<!-- Node2 -->
<g id="node2" class="node">
<title>Node2</title>
<g id="a_node2"><a xlink:href="classcxx_1_1Slab.html#a18f3fa63befc64e1f89b4c566069ed60" target="_top" xlink:title="Allocate an object of type Type.">
<polygon fill="white" stroke="black" points="16,-50 16,-69 106,-69 106,-50 16,-50"/>
<text text-anchor="middle" x="61" y="-57" font-family="Helvetica,sans-Serif" font-size="10.00">cxx::Slab::alloc</text>
</a>
</g>
</g>
<!-- Node1&#45;&gt;Node2 -->
<g id="edge1" class="edge">
<title>Node1&#45;&gt;Node2</title>
<path fill="none" stroke="midnightblue" d="M147.54,-47.32C133.52,-49.32 119.14,-51.36 106.27,-53.2"/>
<polygon fill="midnightblue" stroke="midnightblue" points="148.24,-50.75 157.65,-45.88 147.26,-43.82 148.24,-50.75"/>
</g>
<!-- Node3 -->
<g id="node3" class="node">
<title>Node3</title>
<g id="a_node3"><a xlink:href="classcxx_1_1Base__slab__static.html#ac14d1b49aa4cae0545c3965f63bb9892" target="_top" xlink:title="Allocate an object.">
<polygon fill="white" stroke="black" points="0,-0.5 0,-30.5 122,-30.5 122,-0.5 0,-0.5"/>
<text text-anchor="start" x="8" y="-18.5" font-family="Helvetica,sans-Serif" font-size="10.00">cxx::Base_slab_static</text>
<text text-anchor="middle" x="61" y="-7.5" font-family="Helvetica,sans-Serif" font-size="10.00">::alloc</text>
</a>
</g>
</g>
<!-- Node1&#45;&gt;Node3 -->
<g id="edge2" class="edge">
<title>Node1&#45;&gt;Node3</title>
<path fill="none" stroke="midnightblue" d="M147.47,-27.67C139.05,-26.47 130.5,-25.25 122.22,-24.08"/>
<polygon fill="midnightblue" stroke="midnightblue" points="147.26,-31.18 157.65,-29.12 148.24,-24.25 147.26,-31.18"/>
</g>
</g>
</svg>
