<?xml version="1.0" encoding="UTF-8" standalone="no"?>
<!DOCTYPE svg PUBLIC "-//W3C//DTD SVG 1.1//EN"
 "http://www.w3.org/Graphics/SVG/1.1/DTD/svg11.dtd">
<!-- Generated by graphviz version 2.43.0 (0)
 -->
<!-- Title: L4::Ipc_svr::Timeout_queue_hooks&lt; HOOKS, BR_MAN &gt; Pages: 1 -->
<svg width="407pt" height="508pt"
 viewBox="0.00 0.00 407.00 508.00" xmlns="http://www.w3.org/2000/svg" xmlns:xlink="http://www.w3.org/1999/xlink">
<g id="graph0" class="graph" transform="scale(1 1) rotate(0) translate(4 504)">
<title>L4::Ipc_svr::Timeout_queue_hooks&lt; HOOKS, BR_MAN &gt;</title>
<polygon fill="white" stroke="transparent" points="-4,4 -4,-504 403,-504 403,4 -4,4"/>
<!-- Node1 -->
<g id="node1" class="node">
<title>Node1</title>
<g id="a_node1"><a xlink:title="Loop hooks mixin for integrating a timeout queue into the server loop.">
<polygon fill="#bfbfbf" stroke="black" points="85.5,-0.5 85.5,-123.5 221.5,-123.5 221.5,-0.5 85.5,-0.5"/>
<text text-anchor="start" x="93.5" y="-111.5" font-family="Helvetica,sans-Serif" font-size="10.00">L4::Ipc_svr::Timeout</text>
<text text-anchor="start" x="93.5" y="-100.5" font-family="Helvetica,sans-Serif" font-size="10.00">_queue_hooks&lt; HOOKS,</text>
<text text-anchor="middle" x="153.5" y="-89.5" font-family="Helvetica,sans-Serif" font-size="10.00"> BR_MAN &gt;</text>
<polyline fill="none" stroke="black" points="85.5,-82.5 221.5,-82.5 "/>
<text text-anchor="middle" x="153.5" y="-70.5" font-family="Helvetica,sans-Serif" font-size="10.00"> </text>
<polyline fill="none" stroke="black" points="85.5,-63.5 221.5,-63.5 "/>
<text text-anchor="start" x="93.5" y="-51.5" font-family="Helvetica,sans-Serif" font-size="10.00">+ timeout()</text>
<text text-anchor="start" x="93.5" y="-40.5" font-family="Helvetica,sans-Serif" font-size="10.00">+ setup_wait()</text>
<text text-anchor="start" x="93.5" y="-29.5" font-family="Helvetica,sans-Serif" font-size="10.00">+ before_reply()</text>
<text text-anchor="start" x="93.5" y="-18.5" font-family="Helvetica,sans-Serif" font-size="10.00">+ add_timeout()</text>
<text text-anchor="start" x="93.5" y="-7.5" font-family="Helvetica,sans-Serif" font-size="10.00">+ remove_timeout()</text>
</a>
</g>
</g>
<!-- Node2 -->
<g id="node2" class="node">
<title>Node2</title>
<g id="a_node2"><a xlink:href="classL4_1_1Ipc__svr_1_1Server__iface.html" target="_top" xlink:title="Interface for server&#45;loop related functions.">
<polygon fill="white" stroke="black" points="0,-343.5 0,-499.5 137,-499.5 137,-343.5 0,-343.5"/>
<text text-anchor="start" x="8" y="-487.5" font-family="Helvetica,sans-Serif" font-size="10.00">L4::Ipc_svr::Server</text>
<text text-anchor="middle" x="68.5" y="-476.5" font-family="Helvetica,sans-Serif" font-size="10.00">_iface</text>
<polyline fill="none" stroke="black" points="0,-469.5 137,-469.5 "/>
<text text-anchor="middle" x="68.5" y="-457.5" font-family="Helvetica,sans-Serif" font-size="10.00"> </text>
<polyline fill="none" stroke="black" points="0,-450.5 137,-450.5 "/>
<text text-anchor="start" x="8" y="-438.5" font-family="Helvetica,sans-Serif" font-size="10.00">+ Server_iface()</text>
<text text-anchor="start" x="8" y="-427.5" font-family="Helvetica,sans-Serif" font-size="10.00">+ ~Server_iface()</text>
<text text-anchor="start" x="8" y="-416.5" font-family="Helvetica,sans-Serif" font-size="10.00">+ alloc_buffer_demand()</text>
<text text-anchor="start" x="8" y="-405.5" font-family="Helvetica,sans-Serif" font-size="10.00">+ get_rcv_cap()</text>
<text text-anchor="start" x="8" y="-394.5" font-family="Helvetica,sans-Serif" font-size="10.00">+ realloc_rcv_cap()</text>
<text text-anchor="start" x="8" y="-383.5" font-family="Helvetica,sans-Serif" font-size="10.00">+ add_timeout()</text>
<text text-anchor="start" x="8" y="-372.5" font-family="Helvetica,sans-Serif" font-size="10.00">+ remove_timeout()</text>
<text text-anchor="start" x="8" y="-361.5" font-family="Helvetica,sans-Serif" font-size="10.00">+ rcv_cap()</text>
<text text-anchor="start" x="8" y="-350.5" font-family="Helvetica,sans-Serif" font-size="10.00">+ rcv_cap()</text>
</a>
</g>
</g>
<!-- Node2&#45;&gt;Node1 -->
<g id="edge1" class="edge">
<title>Node2&#45;&gt;Node1</title>
<path fill="none" stroke="midnightblue" d="M58.54,-333.14C56,-284.22 57.94,-222.82 75.5,-171 81.11,-154.46 90.19,-138.28 100.21,-123.69"/>
<polygon fill="none" stroke="midnightblue" points="55.06,-333.61 59.15,-343.39 62.05,-333.2 55.06,-333.61"/>
</g>
<!-- Node3 -->
<g id="node3" class="node">
<title>Node3</title>
<g id="a_node3"><a xlink:href="classL4_1_1Ipc__svr_1_1Br__manager__no__buffers.html" target="_top" xlink:title="Empty implementation of Server_iface.">
<polygon fill="white" stroke="black" points="85,-171.5 85,-305.5 222,-305.5 222,-171.5 85,-171.5"/>
<text text-anchor="start" x="93" y="-293.5" font-family="Helvetica,sans-Serif" font-size="10.00">L4::Ipc_svr::Br_manager</text>
<text text-anchor="middle" x="153.5" y="-282.5" font-family="Helvetica,sans-Serif" font-size="10.00">_no_buffers</text>
<polyline fill="none" stroke="black" points="85,-275.5 222,-275.5 "/>
<text text-anchor="middle" x="153.5" y="-263.5" font-family="Helvetica,sans-Serif" font-size="10.00"> </text>
<polyline fill="none" stroke="black" points="85,-256.5 222,-256.5 "/>
<text text-anchor="start" x="93" y="-244.5" font-family="Helvetica,sans-Serif" font-size="10.00">+ alloc_buffer_demand()</text>
<text text-anchor="start" x="93" y="-233.5" font-family="Helvetica,sans-Serif" font-size="10.00">+ get_rcv_cap()</text>
<text text-anchor="start" x="93" y="-222.5" font-family="Helvetica,sans-Serif" font-size="10.00">+ realloc_rcv_cap()</text>
<text text-anchor="start" x="93" y="-211.5" font-family="Helvetica,sans-Serif" font-size="10.00">+ add_timeout()</text>
<text text-anchor="start" x="93" y="-200.5" font-family="Helvetica,sans-Serif" font-size="10.00">+ remove_timeout()</text>
<text text-anchor="start" x="93" y="-189.5" font-family="Helvetica,sans-Serif" font-size="10.00"># first_free_br()</text>
<text text-anchor="start" x="93" y="-178.5" font-family="Helvetica,sans-Serif" font-size="10.00"># setup_wait()</text>
</a>
</g>
</g>
<!-- Node2&#45;&gt;Node3 -->
<g id="edge3" class="edge">
<title>Node2&#45;&gt;Node3</title>
<path fill="none" stroke="midnightblue" d="M108.99,-334.27C113.52,-324.63 118.08,-314.93 122.46,-305.6"/>
<polygon fill="none" stroke="midnightblue" points="105.75,-332.94 104.67,-343.48 112.09,-335.91 105.75,-332.94"/>
</g>
<!-- Node3&#45;&gt;Node1 -->
<g id="edge2" class="edge">
<title>Node3&#45;&gt;Node1</title>
<path fill="none" stroke="midnightblue" d="M153.5,-160.68C153.5,-148.25 153.5,-135.53 153.5,-123.56"/>
<polygon fill="none" stroke="midnightblue" points="150,-161.03 153.5,-171.03 157,-161.03 150,-161.03"/>
</g>
<!-- Node4 -->
<g id="node4" class="node">
<title>Node4</title>
<g id="a_node4"><a xlink:href="classL4_1_1Ipc__svr_1_1Timeout__queue.html" target="_top" xlink:title="Timeout queue to be used in l4re server loop.">
<polygon fill="white" stroke="black" points="240,-182.5 240,-294.5 399,-294.5 399,-182.5 240,-182.5"/>
<text text-anchor="start" x="248" y="-282.5" font-family="Helvetica,sans-Serif" font-size="10.00">L4::Ipc_svr::Timeout</text>
<text text-anchor="middle" x="319.5" y="-271.5" font-family="Helvetica,sans-Serif" font-size="10.00">_queue</text>
<polyline fill="none" stroke="black" points="240,-264.5 399,-264.5 "/>
<text text-anchor="middle" x="319.5" y="-252.5" font-family="Helvetica,sans-Serif" font-size="10.00"> </text>
<polyline fill="none" stroke="black" points="240,-245.5 399,-245.5 "/>
<text text-anchor="start" x="248" y="-233.5" font-family="Helvetica,sans-Serif" font-size="10.00">+ next_timeout()</text>
<text text-anchor="start" x="248" y="-222.5" font-family="Helvetica,sans-Serif" font-size="10.00">+ timeout_expired()</text>
<text text-anchor="start" x="248" y="-211.5" font-family="Helvetica,sans-Serif" font-size="10.00">+ handle_expired_timeouts()</text>
<text text-anchor="start" x="248" y="-200.5" font-family="Helvetica,sans-Serif" font-size="10.00">+ add()</text>
<text text-anchor="start" x="248" y="-189.5" font-family="Helvetica,sans-Serif" font-size="10.00">+ remove()</text>
</a>
</g>
</g>
<!-- Node4&#45;&gt;Node1 -->
<g id="edge4" class="edge">
<title>Node4&#45;&gt;Node1</title>
<path fill="none" stroke="#404040" d="M266.98,-182.29C251.99,-166.53 235.46,-149.16 219.77,-132.66"/>
<polygon fill="none" stroke="#404040" points="219.42,-132.3 212.39,-130.71 211.15,-123.6 218.18,-125.19 219.42,-132.3"/>
<text text-anchor="middle" x="257.5" y="-145" font-family="Helvetica,sans-Serif" font-size="10.00"> +queue</text>
</g>
</g>
</svg>
