<?xml version="1.0" encoding="UTF-8" standalone="no"?>
<!DOCTYPE svg PUBLIC "-//W3C//DTD SVG 1.1//EN"
 "http://www.w3.org/Graphics/SVG/1.1/DTD/svg11.dtd">
<!-- Generated by graphviz version 2.43.0 (0)
 -->
<!-- Title: L4virtio::Driver::Device::wait Pages: 1 -->
<svg width="643pt" height="39pt"
 viewBox="0.00 0.00 643.00 39.00" xmlns="http://www.w3.org/2000/svg" xmlns:xlink="http://www.w3.org/1999/xlink">
<g id="graph0" class="graph" transform="scale(1 1) rotate(0) translate(4 35)">
<title>L4virtio::Driver::Device::wait</title>
<polygon fill="white" stroke="transparent" points="-4,4 -4,-35 639,-35 639,4 -4,4"/>
<!-- Node1 -->
<g id="node1" class="node">
<title>Node1</title>
<g id="a_node1"><a xlink:title="Wait for a notification from the device.">
<polygon fill="#bfbfbf" stroke="black" points="506,-0.5 506,-30.5 635,-30.5 635,-0.5 506,-0.5"/>
<text text-anchor="start" x="514" y="-18.5" font-family="Helvetica,sans-Serif" font-size="10.00">L4virtio::Driver::Device</text>
<text text-anchor="middle" x="570.5" y="-7.5" font-family="Helvetica,sans-Serif" font-size="10.00">::wait</text>
</a>
</g>
</g>
<!-- Node2 -->
<g id="node2" class="node">
<title>Node2</title>
<g id="a_node2"><a xlink:href="classL4virtio_1_1Driver_1_1Device.html#a156576a5d43ef2fe11b39f4d8ffc4c9e" target="_top" xlink:title="Wait for the next item to arrive in the used queue and return it.">
<polygon fill="white" stroke="black" points="341,-0.5 341,-30.5 470,-30.5 470,-0.5 341,-0.5"/>
<text text-anchor="start" x="349" y="-18.5" font-family="Helvetica,sans-Serif" font-size="10.00">L4virtio::Driver::Device</text>
<text text-anchor="middle" x="405.5" y="-7.5" font-family="Helvetica,sans-Serif" font-size="10.00">::wait_for_next_used</text>
</a>
</g>
</g>
<!-- Node1&#45;&gt;Node2 -->
<g id="edge1" class="edge">
<title>Node1&#45;&gt;Node2</title>
<path fill="none" stroke="midnightblue" d="M495.31,-15.5C486.86,-15.5 478.3,-15.5 470,-15.5"/>
<polygon fill="midnightblue" stroke="midnightblue" points="495.55,-19 505.55,-15.5 495.55,-12 495.55,-19"/>
</g>
<!-- Node3 -->
<g id="node3" class="node">
<title>Node3</title>
<g id="a_node3"><a xlink:href="classL4virtio_1_1Driver_1_1Device.html#af4aa9ac34ce928b9d437f1bb6a2ec216" target="_top" xlink:title="Send a request to the device and wait for it to be processed.">
<polygon fill="white" stroke="black" points="176,-0.5 176,-30.5 305,-30.5 305,-0.5 176,-0.5"/>
<text text-anchor="start" x="184" y="-18.5" font-family="Helvetica,sans-Serif" font-size="10.00">L4virtio::Driver::Device</text>
<text text-anchor="middle" x="240.5" y="-7.5" font-family="Helvetica,sans-Serif" font-size="10.00">::send_and_wait</text>
</a>
</g>
</g>
<!-- Node2&#45;&gt;Node3 -->
<g id="edge2" class="edge">
<title>Node2&#45;&gt;Node3</title>
<path fill="none" stroke="midnightblue" d="M330.31,-15.5C321.86,-15.5 313.3,-15.5 305,-15.5"/>
<polygon fill="midnightblue" stroke="midnightblue" points="330.55,-19 340.55,-15.5 330.55,-12 330.55,-19"/>
</g>
<!-- Node4 -->
<g id="node4" class="node">
<title>Node4</title>
<g id="a_node4"><a xlink:href="classL4virtio_1_1Driver_1_1Block__device.html#a63f21e71556accc8c669ef80161ecd8e" target="_top" xlink:title="Process request synchronously.">
<polygon fill="white" stroke="black" points="0,-0.5 0,-30.5 140,-30.5 140,-0.5 0,-0.5"/>
<text text-anchor="start" x="8" y="-18.5" font-family="Helvetica,sans-Serif" font-size="10.00">L4virtio::Driver::Block</text>
<text text-anchor="middle" x="70" y="-7.5" font-family="Helvetica,sans-Serif" font-size="10.00">_device::process_request</text>
</a>
</g>
</g>
<!-- Node3&#45;&gt;Node4 -->
<g id="edge3" class="edge">
<title>Node3&#45;&gt;Node4</title>
<path fill="none" stroke="midnightblue" d="M165.58,-15.5C157.12,-15.5 148.53,-15.5 140.14,-15.5"/>
<polygon fill="midnightblue" stroke="midnightblue" points="165.8,-19 175.8,-15.5 165.8,-12 165.8,-19"/>
</g>
</g>
</svg>
