<?xml version="1.0" encoding="UTF-8" standalone="no"?>
<!DOCTYPE svg PUBLIC "-//W3C//DTD SVG 1.1//EN"
 "http://www.w3.org/Graphics/SVG/1.1/DTD/svg11.dtd">
<!-- Generated by graphviz version 2.43.0 (0)
 -->
<!-- Title: cxx::Bitfield::val Pages: 1 -->
<svg width="366pt" height="352pt"
 viewBox="0.00 0.00 366.00 351.50" xmlns="http://www.w3.org/2000/svg" xmlns:xlink="http://www.w3.org/1999/xlink">
<g id="graph0" class="graph" transform="scale(1 1) rotate(0) translate(4 347.5)">
<title>cxx::Bitfield::val</title>
<polygon fill="white" stroke="transparent" points="-4,4 -4,-347.5 362,-347.5 362,4 -4,4"/>
<!-- Node1 -->
<g id="node1" class="node">
<title>Node1</title>
<g id="a_node1"><a xlink:title="Get the shifted bits for val.">
<polygon fill="#bfbfbf" stroke="black" points="263,-148 263,-167 358,-167 358,-148 263,-148"/>
<text text-anchor="middle" x="310.5" y="-155" font-family="Helvetica,sans-Serif" font-size="10.00">cxx::Bitfield::val</text>
</a>
</g>
</g>
<!-- Node2 -->
<g id="node2" class="node">
<title>Node2</title>
<g id="a_node2"><a xlink:href="classcxx_1_1Bitfield.html#a50d93d103f4b31798399bc349cb4d210" target="_top" xlink:title="Get the bits out of val.">
<polygon fill="white" stroke="black" points="131,-324 131,-343 227,-343 227,-324 131,-324"/>
<text text-anchor="middle" x="179" y="-331" font-family="Helvetica,sans-Serif" font-size="10.00">cxx::Bitfield::get</text>
</a>
</g>
</g>
<!-- Node1&#45;&gt;Node2 -->
<g id="edge1" class="edge">
<title>Node1&#45;&gt;Node2</title>
<path fill="none" stroke="midnightblue" d="M304.18,-176.74C294.24,-209.35 269.87,-275.7 227,-314.5 222.82,-318.28 217.8,-321.36 212.61,-323.85"/>
<polygon fill="midnightblue" stroke="midnightblue" points="307.56,-177.65 307,-167.07 300.84,-175.68 307.56,-177.65"/>
</g>
<!-- Node3 -->
<g id="node3" class="node">
<title>Node3</title>
<g id="a_node3"><a xlink:href="classcxx_1_1Bitfield.html#af5f6db1f81c5ac0eb7093d8fd61310d9" target="_top" xlink:title="Get the bits in place out of val.">
<polygon fill="white" stroke="black" points="131,-274.5 131,-304.5 227,-304.5 227,-274.5 131,-274.5"/>
<text text-anchor="start" x="139" y="-292.5" font-family="Helvetica,sans-Serif" font-size="10.00">cxx::Bitfield::get</text>
<text text-anchor="middle" x="179" y="-281.5" font-family="Helvetica,sans-Serif" font-size="10.00">_unshifted</text>
</a>
</g>
</g>
<!-- Node1&#45;&gt;Node3 -->
<g id="edge2" class="edge">
<title>Node1&#45;&gt;Node3</title>
<path fill="none" stroke="midnightblue" d="M297.56,-175.62C282.73,-197.24 255.84,-233.72 227,-259.5 220.94,-264.92 213.79,-270.01 206.93,-274.41"/>
<polygon fill="midnightblue" stroke="midnightblue" points="300.63,-177.32 303.32,-167.07 294.83,-173.41 300.63,-177.32"/>
</g>
<!-- Node4 -->
<g id="node4" class="node">
<title>Node4</title>
<g id="a_node4"><a xlink:href="classcxx_1_1Bitfield.html#a0ecb232dbd24976e50f5a6674b504517" target="_top" xlink:title="Set the bits corresponding to val.">
<polygon fill="white" stroke="black" points="0,-203 0,-222 95,-222 95,-203 0,-203"/>
<text text-anchor="middle" x="47.5" y="-210" font-family="Helvetica,sans-Serif" font-size="10.00">cxx::Bitfield::set</text>
</a>
</g>
</g>
<!-- Node1&#45;&gt;Node4 -->
<g id="edge3" class="edge">
<title>Node1&#45;&gt;Node4</title>
<path fill="none" stroke="midnightblue" d="M295.03,-175.27C280.05,-192.13 254.95,-216.35 227,-226.5 176.89,-244.69 113.81,-232.23 77.63,-222.02"/>
<polygon fill="midnightblue" stroke="midnightblue" points="298.06,-177.11 301.9,-167.24 292.74,-172.56 298.06,-177.11"/>
</g>
<!-- Node5 -->
<g id="node5" class="node">
<title>Node5</title>
<g id="a_node5"><a xlink:href="classcxx_1_1Bitfield.html#a68f3092e1839bc709beb3611c2f5cb31" target="_top" xlink:title="Set the bits corresponding to val.">
<polygon fill="white" stroke="black" points="131.5,-186.5 131.5,-216.5 226.5,-216.5 226.5,-186.5 131.5,-186.5"/>
<text text-anchor="start" x="139.5" y="-204.5" font-family="Helvetica,sans-Serif" font-size="10.00">cxx::Bitfield::set</text>
<text text-anchor="middle" x="179" y="-193.5" font-family="Helvetica,sans-Serif" font-size="10.00">_dirty</text>
</a>
</g>
</g>
<!-- Node1&#45;&gt;Node5 -->
<g id="edge4" class="edge">
<title>Node1&#45;&gt;Node5</title>
<path fill="none" stroke="midnightblue" d="M271.57,-170.39C256.77,-175.42 239.7,-181.22 224.34,-186.43"/>
<polygon fill="midnightblue" stroke="midnightblue" points="273.06,-173.58 281.4,-167.05 270.81,-166.95 273.06,-173.58"/>
</g>
<!-- Node6 -->
<g id="node6" class="node">
<title>Node6</title>
<g id="a_node6"><a xlink:href="classcxx_1_1Bitfield.html#ae9c4c45aeb034031a6d5cd5484e571bb" target="_top" xlink:title="Set the bits corresponding to val.">
<polygon fill="white" stroke="black" points="0,-131.5 0,-161.5 95,-161.5 95,-131.5 0,-131.5"/>
<text text-anchor="start" x="8" y="-149.5" font-family="Helvetica,sans-Serif" font-size="10.00">cxx::Bitfield::set</text>
<text text-anchor="middle" x="47.5" y="-138.5" font-family="Helvetica,sans-Serif" font-size="10.00">_unshifted</text>
</a>
</g>
</g>
<!-- Node1&#45;&gt;Node6 -->
<g id="edge6" class="edge">
<title>Node1&#45;&gt;Node6</title>
<path fill="none" stroke="midnightblue" d="M252.78,-155.11C205.63,-153.12 139.33,-150.33 95.2,-148.47"/>
<polygon fill="midnightblue" stroke="midnightblue" points="252.7,-158.61 262.84,-155.53 252.99,-151.62 252.7,-158.61"/>
</g>
<!-- Node7 -->
<g id="node7" class="node">
<title>Node7</title>
<g id="a_node7"><a xlink:href="classcxx_1_1Bitfield.html#ae6e85dede315b549dfec835d92525948" target="_top" xlink:title="Set the bits corresponding to val.">
<polygon fill="white" stroke="black" points="131.5,-98.5 131.5,-128.5 226.5,-128.5 226.5,-98.5 131.5,-98.5"/>
<text text-anchor="start" x="139.5" y="-116.5" font-family="Helvetica,sans-Serif" font-size="10.00">cxx::Bitfield::set</text>
<text text-anchor="middle" x="179" y="-105.5" font-family="Helvetica,sans-Serif" font-size="10.00">_unshifted_dirty</text>
</a>
</g>
</g>
<!-- Node1&#45;&gt;Node7 -->
<g id="edge7" class="edge">
<title>Node1&#45;&gt;Node7</title>
<path fill="none" stroke="midnightblue" d="M271.57,-144.61C256.77,-139.58 239.7,-133.78 224.34,-128.57"/>
<polygon fill="midnightblue" stroke="midnightblue" points="270.81,-148.05 281.4,-147.95 273.06,-141.42 270.81,-148.05"/>
</g>
<!-- Node8 -->
<g id="node8" class="node">
<title>Node8</title>
<g id="a_node8"><a xlink:href="classcxx_1_1Bitfield.html#a8180660e03ca6acf85047dba64bb77a3" target="_top" xlink:title="Get the shifted bits for val.">
<polygon fill="white" stroke="black" points="131.5,-49.5 131.5,-79.5 226.5,-79.5 226.5,-49.5 131.5,-49.5"/>
<text text-anchor="start" x="139.5" y="-67.5" font-family="Helvetica,sans-Serif" font-size="10.00">cxx::Bitfield::val</text>
<text text-anchor="middle" x="179" y="-56.5" font-family="Helvetica,sans-Serif" font-size="10.00">_dirty</text>
</a>
</g>
</g>
<!-- Node1&#45;&gt;Node8 -->
<g id="edge9" class="edge">
<title>Node1&#45;&gt;Node8</title>
<path fill="none" stroke="midnightblue" d="M297.76,-140.02C282.34,-122.74 254.04,-97.38 227,-79.5 226.85,-79.4 226.69,-79.3 226.54,-79.2"/>
<polygon fill="midnightblue" stroke="midnightblue" points="295.14,-142.34 304.24,-147.78 300.52,-137.86 295.14,-142.34"/>
</g>
<!-- Node9 -->
<g id="node9" class="node">
<title>Node9</title>
<g id="a_node9"><a xlink:href="classcxx_1_1Bitfield.html#aabe77366dc22247455497f4a925ea3ef" target="_top" xlink:title="Get the shifted bits for val.">
<polygon fill="white" stroke="black" points="131.5,-0.5 131.5,-30.5 226.5,-30.5 226.5,-0.5 131.5,-0.5"/>
<text text-anchor="start" x="139.5" y="-18.5" font-family="Helvetica,sans-Serif" font-size="10.00">cxx::Bitfield::val</text>
<text text-anchor="middle" x="179" y="-7.5" font-family="Helvetica,sans-Serif" font-size="10.00">_unshifted</text>
</a>
</g>
</g>
<!-- Node1&#45;&gt;Node9 -->
<g id="edge11" class="edge">
<title>Node1&#45;&gt;Node9</title>
<path fill="none" stroke="midnightblue" d="M300.21,-138.84C286.9,-113.62 260.29,-68.48 227,-39.5 223.27,-36.25 219.02,-33.31 214.64,-30.68"/>
<polygon fill="midnightblue" stroke="midnightblue" points="297.11,-140.45 304.8,-147.74 303.33,-137.25 297.11,-140.45"/>
</g>
<!-- Node5&#45;&gt;Node4 -->
<g id="edge5" class="edge">
<title>Node5&#45;&gt;Node4</title>
<path fill="none" stroke="midnightblue" d="M121.18,-206.33C112.49,-207.06 103.62,-207.82 95.18,-208.53"/>
<polygon fill="midnightblue" stroke="midnightblue" points="121.58,-209.81 131.25,-205.47 120.99,-202.83 121.58,-209.81"/>
</g>
<!-- Node7&#45;&gt;Node6 -->
<g id="edge8" class="edge">
<title>Node7&#45;&gt;Node6</title>
<path fill="none" stroke="midnightblue" d="M121.46,-127.91C112.69,-130.14 103.71,-132.43 95.18,-134.6"/>
<polygon fill="midnightblue" stroke="midnightblue" points="122.42,-131.27 131.25,-125.41 120.69,-124.49 122.42,-131.27"/>
</g>
<!-- Node8&#45;&gt;Node1 -->
<g id="edge10" class="edge">
<title>Node8&#45;&gt;Node1</title>
<path fill="none" stroke="midnightblue" d="M204.98,-84.56C212.27,-88.63 220.12,-92.95 227,-97.5 250.98,-113.36 275.97,-135.11 292.07,-147.96"/>
<polygon fill="midnightblue" stroke="midnightblue" points="206.58,-81.44 196.16,-79.52 203.11,-87.52 206.58,-81.44"/>
</g>
</g>
</svg>
