<?xml version="1.0" encoding="UTF-8" standalone="no"?>
<!DOCTYPE svg PUBLIC "-//W3C//DTD SVG 1.1//EN"
 "http://www.w3.org/Graphics/SVG/1.1/DTD/svg11.dtd">
<!-- Generated by graphviz version 2.43.0 (0)
 -->
<!-- Title: L4Re::Vfs::File Pages: 1 -->
<svg width="552pt" height="369pt"
 viewBox="0.00 0.00 552.00 369.00" xmlns="http://www.w3.org/2000/svg" xmlns:xlink="http://www.w3.org/1999/xlink">
<g id="graph0" class="graph" transform="scale(1 1) rotate(0) translate(4 365)">
<title>L4Re::Vfs::File</title>
<polygon fill="white" stroke="transparent" points="-4,4 -4,-365 548,-365 548,4 -4,4"/>
<!-- Node1 -->
<g id="node1" class="node">
<title>Node1</title>
<g id="a_node1"><a xlink:title="The basic interface for an open POSIX file.">
<polygon fill="#bfbfbf" stroke="black" points="230,-0.5 230,-134.5 322,-134.5 322,-0.5 230,-0.5"/>
<text text-anchor="middle" x="276" y="-122.5" font-family="Helvetica,sans-Serif" font-size="10.00">L4Re::Vfs::File</text>
<polyline fill="none" stroke="black" points="230,-115.5 322,-115.5 "/>
<text text-anchor="middle" x="276" y="-103.5" font-family="Helvetica,sans-Serif" font-size="10.00"> </text>
<polyline fill="none" stroke="black" points="230,-96.5 322,-96.5 "/>
<text text-anchor="start" x="238" y="-84.5" font-family="Helvetica,sans-Serif" font-size="10.00">+ get_mount()</text>
<text text-anchor="start" x="238" y="-73.5" font-family="Helvetica,sans-Serif" font-size="10.00">+ openat()</text>
<text text-anchor="start" x="238" y="-62.5" font-family="Helvetica,sans-Serif" font-size="10.00">+ add_ref()</text>
<text text-anchor="start" x="238" y="-51.5" font-family="Helvetica,sans-Serif" font-size="10.00">+ remove_ref()</text>
<text text-anchor="start" x="238" y="-40.5" font-family="Helvetica,sans-Serif" font-size="10.00">+ ~File()</text>
<text text-anchor="start" x="238" y="-29.5" font-family="Helvetica,sans-Serif" font-size="10.00">+ mount_tree()</text>
<text text-anchor="start" x="238" y="-18.5" font-family="Helvetica,sans-Serif" font-size="10.00"># File()</text>
<text text-anchor="start" x="238" y="-7.5" font-family="Helvetica,sans-Serif" font-size="10.00"># File()</text>
</a>
</g>
</g>
<!-- Node2 -->
<g id="node2" class="node">
<title>Node2</title>
<g id="a_node2"><a xlink:href="classL4Re_1_1Vfs_1_1Generic__file.html" target="_top" xlink:title="The common interface for an open POSIX file.">
<polygon fill="white" stroke="black" points="0,-193.5 0,-338.5 126,-338.5 126,-193.5 0,-193.5"/>
<text text-anchor="middle" x="63" y="-326.5" font-family="Helvetica,sans-Serif" font-size="10.00">L4Re::Vfs::Generic_file</text>
<polyline fill="none" stroke="black" points="0,-319.5 126,-319.5 "/>
<text text-anchor="middle" x="63" y="-307.5" font-family="Helvetica,sans-Serif" font-size="10.00"> </text>
<polyline fill="none" stroke="black" points="0,-300.5 126,-300.5 "/>
<text text-anchor="start" x="8" y="-288.5" font-family="Helvetica,sans-Serif" font-size="10.00">+ ~Generic_file()</text>
<text text-anchor="start" x="8" y="-277.5" font-family="Helvetica,sans-Serif" font-size="10.00">+ unlock_all_locks()</text>
<text text-anchor="start" x="8" y="-266.5" font-family="Helvetica,sans-Serif" font-size="10.00">+ fstat64()</text>
<text text-anchor="start" x="8" y="-255.5" font-family="Helvetica,sans-Serif" font-size="10.00">+ fchmod()</text>
<text text-anchor="start" x="8" y="-244.5" font-family="Helvetica,sans-Serif" font-size="10.00">+ get_status_flags()</text>
<text text-anchor="start" x="8" y="-233.5" font-family="Helvetica,sans-Serif" font-size="10.00">+ set_status_flags()</text>
<text text-anchor="start" x="8" y="-222.5" font-family="Helvetica,sans-Serif" font-size="10.00">+ utime()</text>
<text text-anchor="start" x="8" y="-211.5" font-family="Helvetica,sans-Serif" font-size="10.00">+ utimes()</text>
<text text-anchor="start" x="8" y="-200.5" font-family="Helvetica,sans-Serif" font-size="10.00">+ readlink()</text>
</a>
</g>
</g>
<!-- Node2&#45;&gt;Node1 -->
<g id="edge1" class="edge">
<title>Node2&#45;&gt;Node1</title>
<path fill="none" stroke="midnightblue" d="M120.98,-185.71C125.56,-180.58 130.25,-175.63 135,-171 163.92,-142.79 201.03,-116.13 229.91,-97.07"/>
<polygon fill="none" stroke="midnightblue" points="118.29,-183.48 114.37,-193.32 123.57,-188.07 118.29,-183.48"/>
</g>
<!-- Node3 -->
<g id="node3" class="node">
<title>Node3</title>
<g id="a_node3"><a xlink:href="classL4Re_1_1Vfs_1_1Regular__file.html" target="_top" xlink:title="Interface for a POSIX file that provides regular file semantics.">
<polygon fill="white" stroke="black" points="144,-177 144,-355 270,-355 270,-177 144,-177"/>
<text text-anchor="middle" x="207" y="-343" font-family="Helvetica,sans-Serif" font-size="10.00">L4Re::Vfs::Regular_file</text>
<polyline fill="none" stroke="black" points="144,-336 270,-336 "/>
<text text-anchor="middle" x="207" y="-324" font-family="Helvetica,sans-Serif" font-size="10.00"> </text>
<polyline fill="none" stroke="black" points="144,-317 270,-317 "/>
<text text-anchor="start" x="152" y="-305" font-family="Helvetica,sans-Serif" font-size="10.00">+ ~Regular_file()</text>
<text text-anchor="start" x="152" y="-294" font-family="Helvetica,sans-Serif" font-size="10.00">+ data_space()</text>
<text text-anchor="start" x="152" y="-283" font-family="Helvetica,sans-Serif" font-size="10.00">+ readv()</text>
<text text-anchor="start" x="152" y="-272" font-family="Helvetica,sans-Serif" font-size="10.00">+ writev()</text>
<text text-anchor="start" x="152" y="-261" font-family="Helvetica,sans-Serif" font-size="10.00">+ preadv()</text>
<text text-anchor="start" x="152" y="-250" font-family="Helvetica,sans-Serif" font-size="10.00">+ pwritev()</text>
<text text-anchor="start" x="152" y="-239" font-family="Helvetica,sans-Serif" font-size="10.00">+ lseek64()</text>
<text text-anchor="start" x="152" y="-228" font-family="Helvetica,sans-Serif" font-size="10.00">+ ftruncate64()</text>
<text text-anchor="start" x="152" y="-217" font-family="Helvetica,sans-Serif" font-size="10.00">+ fsync()</text>
<text text-anchor="start" x="152" y="-206" font-family="Helvetica,sans-Serif" font-size="10.00">+ fdatasync()</text>
<text text-anchor="start" x="152" y="-195" font-family="Helvetica,sans-Serif" font-size="10.00">+ get_lock()</text>
<text text-anchor="start" x="152" y="-184" font-family="Helvetica,sans-Serif" font-size="10.00">+ set_lock()</text>
</a>
</g>
</g>
<!-- Node3&#45;&gt;Node1 -->
<g id="edge2" class="edge">
<title>Node3&#45;&gt;Node1</title>
<path fill="none" stroke="midnightblue" d="M241.36,-167.14C245.23,-156.12 249.1,-145.09 252.78,-134.61"/>
<polygon fill="none" stroke="midnightblue" points="237.98,-166.21 237.97,-176.81 244.58,-168.53 237.98,-166.21"/>
</g>
<!-- Node4 -->
<g id="node4" class="node">
<title>Node4</title>
<g id="a_node4"><a xlink:href="classL4Re_1_1Vfs_1_1Directory.html" target="_top" xlink:title="Interface for a POSIX file that is a directory.">
<polygon fill="white" stroke="black" points="288.5,-171.5 288.5,-360.5 401.5,-360.5 401.5,-171.5 288.5,-171.5"/>
<text text-anchor="middle" x="345" y="-348.5" font-family="Helvetica,sans-Serif" font-size="10.00">L4Re::Vfs::Directory</text>
<polyline fill="none" stroke="black" points="288.5,-341.5 401.5,-341.5 "/>
<text text-anchor="middle" x="345" y="-329.5" font-family="Helvetica,sans-Serif" font-size="10.00"> </text>
<polyline fill="none" stroke="black" points="288.5,-322.5 401.5,-322.5 "/>
<text text-anchor="start" x="296.5" y="-310.5" font-family="Helvetica,sans-Serif" font-size="10.00">+ ~Directory()</text>
<text text-anchor="start" x="296.5" y="-299.5" font-family="Helvetica,sans-Serif" font-size="10.00">+ faccessat()</text>
<text text-anchor="start" x="296.5" y="-288.5" font-family="Helvetica,sans-Serif" font-size="10.00">+ mkdir()</text>
<text text-anchor="start" x="296.5" y="-277.5" font-family="Helvetica,sans-Serif" font-size="10.00">+ unlink()</text>
<text text-anchor="start" x="296.5" y="-266.5" font-family="Helvetica,sans-Serif" font-size="10.00">+ rename()</text>
<text text-anchor="start" x="296.5" y="-255.5" font-family="Helvetica,sans-Serif" font-size="10.00">+ link()</text>
<text text-anchor="start" x="296.5" y="-244.5" font-family="Helvetica,sans-Serif" font-size="10.00">+ symlink()</text>
<text text-anchor="start" x="296.5" y="-233.5" font-family="Helvetica,sans-Serif" font-size="10.00">+ rmdir()</text>
<text text-anchor="start" x="296.5" y="-222.5" font-family="Helvetica,sans-Serif" font-size="10.00">+ openat()</text>
<text text-anchor="start" x="296.5" y="-211.5" font-family="Helvetica,sans-Serif" font-size="10.00">+ getdents()</text>
<text text-anchor="start" x="296.5" y="-200.5" font-family="Helvetica,sans-Serif" font-size="10.00">+ fchmodat()</text>
<text text-anchor="start" x="296.5" y="-189.5" font-family="Helvetica,sans-Serif" font-size="10.00">+ utimensat()</text>
<text text-anchor="start" x="296.5" y="-178.5" font-family="Helvetica,sans-Serif" font-size="10.00">+ get_entry()</text>
</a>
</g>
</g>
<!-- Node4&#45;&gt;Node1 -->
<g id="edge3" class="edge">
<title>Node4&#45;&gt;Node1</title>
<path fill="none" stroke="midnightblue" d="M308.76,-161.79C305.54,-152.62 302.34,-143.51 299.27,-134.78"/>
<polygon fill="none" stroke="midnightblue" points="305.5,-163.08 312.12,-171.35 312.11,-160.76 305.5,-163.08"/>
</g>
<!-- Node5 -->
<g id="node5" class="node">
<title>Node5</title>
<g id="a_node5"><a xlink:href="classL4Re_1_1Vfs_1_1Special__file.html" target="_top" xlink:title="Interface for a POSIX file that provides special file semantics.">
<polygon fill="white" stroke="black" points="420,-232 420,-300 544,-300 544,-232 420,-232"/>
<text text-anchor="middle" x="482" y="-288" font-family="Helvetica,sans-Serif" font-size="10.00">L4Re::Vfs::Special_file</text>
<polyline fill="none" stroke="black" points="420,-281 544,-281 "/>
<text text-anchor="middle" x="482" y="-269" font-family="Helvetica,sans-Serif" font-size="10.00"> </text>
<polyline fill="none" stroke="black" points="420,-262 544,-262 "/>
<text text-anchor="start" x="428" y="-250" font-family="Helvetica,sans-Serif" font-size="10.00">+ ~Special_file()</text>
<text text-anchor="start" x="428" y="-239" font-family="Helvetica,sans-Serif" font-size="10.00">+ ioctl()</text>
</a>
</g>
</g>
<!-- Node5&#45;&gt;Node1 -->
<g id="edge4" class="edge">
<title>Node5&#45;&gt;Node1</title>
<path fill="none" stroke="midnightblue" d="M454.56,-223.69C442.23,-206.52 426.89,-186.93 411,-171 383.98,-143.92 349.59,-117.91 322.28,-98.87"/>
<polygon fill="none" stroke="midnightblue" points="451.74,-225.75 460.37,-231.9 457.45,-221.71 451.74,-225.75"/>
</g>
</g>
</svg>
