<?xml version="1.0" encoding="UTF-8" standalone="no"?>
<!DOCTYPE svg PUBLIC "-//W3C//DTD SVG 1.1//EN"
 "http://www.w3.org/Graphics/SVG/1.1/DTD/svg11.dtd">
<!-- Generated by graphviz version 2.43.0 (0)
 -->
<!-- Title: L4::Ipc::Istream::tag Pages: 1 -->
<svg width="278pt" height="154pt"
 viewBox="0.00 0.00 278.00 154.00" xmlns="http://www.w3.org/2000/svg" xmlns:xlink="http://www.w3.org/1999/xlink">
<g id="graph0" class="graph" transform="scale(1 1) rotate(0) translate(4 150)">
<title>L4::Ipc::Istream::tag</title>
<polygon fill="white" stroke="transparent" points="-4,4 -4,-150 274,-150 274,4 -4,4"/>
<!-- Node1 -->
<g id="node1" class="node">
<title>Node1</title>
<g id="a_node1"><a xlink:title="Get the message tag of a received IPC.">
<polygon fill="#bfbfbf" stroke="black" points="157,-66.5 157,-85.5 270,-85.5 270,-66.5 157,-66.5"/>
<text text-anchor="middle" x="213.5" y="-73.5" font-family="Helvetica,sans-Serif" font-size="10.00">L4::Ipc::Istream::tag</text>
</a>
</g>
</g>
<!-- Node2 -->
<g id="node2" class="node">
<title>Node2</title>
<g id="a_node2"><a xlink:href="classL4_1_1Ipc_1_1Iostream.html#a18ac55dddefc29f84d47935dbc86b7ca" target="_top" xlink:title="Do an IPC call using the message in the output stream and receive the reply in the input stream.">
<polygon fill="white" stroke="black" points="0,-126.5 0,-145.5 121,-145.5 121,-126.5 0,-126.5"/>
<text text-anchor="middle" x="60.5" y="-133.5" font-family="Helvetica,sans-Serif" font-size="10.00">L4::Ipc::Iostream::call</text>
</a>
</g>
</g>
<!-- Node1&#45;&gt;Node2 -->
<g id="edge1" class="edge">
<title>Node1&#45;&gt;Node2</title>
<path fill="none" stroke="midnightblue" d="M183.5,-90C165.68,-98.35 142.26,-108.87 121,-117 112.19,-120.37 102.49,-123.64 93.53,-126.5"/>
<polygon fill="midnightblue" stroke="midnightblue" points="185.24,-93.05 192.78,-85.61 182.24,-86.72 185.24,-93.05"/>
</g>
<!-- Node3 -->
<g id="node3" class="node">
<title>Node3</title>
<g id="a_node3"><a xlink:href="ipc__stream.html#ae54a3946ca6e1b6e9b1c3b327fb2d7a3" target="_top" xlink:title="Extract the L4 message tag from the stream s.">
<polygon fill="white" stroke="black" points="23.5,-88.5 23.5,-107.5 97.5,-107.5 97.5,-88.5 23.5,-88.5"/>
<text text-anchor="middle" x="60.5" y="-95.5" font-family="Helvetica,sans-Serif" font-size="10.00">operator&gt;&gt;</text>
</a>
</g>
</g>
<!-- Node1&#45;&gt;Node3 -->
<g id="edge2" class="edge">
<title>Node1&#45;&gt;Node3</title>
<path fill="none" stroke="midnightblue" d="M146.43,-85.63C129.74,-88.06 112.44,-90.58 97.83,-92.71"/>
<polygon fill="midnightblue" stroke="midnightblue" points="147.31,-89.03 156.7,-84.13 146.3,-82.11 147.31,-89.03"/>
</g>
<!-- Node4 -->
<g id="node4" class="node">
<title>Node4</title>
<g id="a_node4"><a xlink:href="classL4_1_1Ipc_1_1Iostream.html#a38428e61e86208016e9653937da01f6d" target="_top" xlink:title="Do an IPC reply and wait.">
<polygon fill="white" stroke="black" points="8.5,-39 8.5,-69 112.5,-69 112.5,-39 8.5,-39"/>
<text text-anchor="start" x="16.5" y="-57" font-family="Helvetica,sans-Serif" font-size="10.00">L4::Ipc::Iostream::</text>
<text text-anchor="middle" x="60.5" y="-46" font-family="Helvetica,sans-Serif" font-size="10.00">reply_and_wait</text>
</a>
</g>
</g>
<!-- Node1&#45;&gt;Node4 -->
<g id="edge3" class="edge">
<title>Node1&#45;&gt;Node4</title>
<path fill="none" stroke="midnightblue" d="M146.75,-66.42C135.3,-64.75 123.55,-63.04 112.57,-61.44"/>
<polygon fill="midnightblue" stroke="midnightblue" points="146.3,-69.89 156.7,-67.87 147.31,-62.97 146.3,-69.89"/>
</g>
<!-- Node5 -->
<g id="node5" class="node">
<title>Node5</title>
<g id="a_node5"><a xlink:href="classL4_1_1Ipc_1_1Istream.html#aeefe739d106daa026a1d94ade34f1d97" target="_top" xlink:title="Wait for an incoming message from any sender.">
<polygon fill="white" stroke="black" points="1,-0.5 1,-19.5 120,-19.5 120,-0.5 1,-0.5"/>
<text text-anchor="middle" x="60.5" y="-7.5" font-family="Helvetica,sans-Serif" font-size="10.00">L4::Ipc::Istream::wait</text>
</a>
</g>
</g>
<!-- Node1&#45;&gt;Node5 -->
<g id="edge4" class="edge">
<title>Node1&#45;&gt;Node5</title>
<path fill="none" stroke="midnightblue" d="M186.02,-61.43C167.99,-51.83 143.43,-39.35 121,-30 111.95,-26.23 101.91,-22.63 92.69,-19.56"/>
<polygon fill="midnightblue" stroke="midnightblue" points="184.84,-64.77 195.3,-66.43 188.16,-58.61 184.84,-64.77"/>
</g>
</g>
</svg>
