<?xml version="1.0" encoding="UTF-8" standalone="no"?>
<!DOCTYPE svg PUBLIC "-//W3C//DTD SVG 1.1//EN"
 "http://www.w3.org/Graphics/SVG/1.1/DTD/svg11.dtd">
<!-- Generated by graphviz version 2.43.0 (0)
 -->
<!-- Title: cxx::Bits::Base_avl_set&lt; ITEM_TYPE, COMPARE, ALLOC, GET_KEY &gt; Pages: 1 -->
<svg width="497pt" height="822pt"
 viewBox="0.00 0.00 497.00 822.00" xmlns="http://www.w3.org/2000/svg" xmlns:xlink="http://www.w3.org/1999/xlink">
<g id="graph0" class="graph" transform="scale(1 1) rotate(0) translate(4 818)">
<title>cxx::Bits::Base_avl_set&lt; ITEM_TYPE, COMPARE, ALLOC, GET_KEY &gt;</title>
<polygon fill="white" stroke="transparent" points="-4,4 -4,-818 493,-818 493,4 -4,4"/>
<!-- Node1 -->
<g id="node1" class="node">
<title>Node1</title>
<g id="a_node1"><a xlink:title="Internal: AVL set with internally managed nodes.">
<polygon fill="#bfbfbf" stroke="black" points="86,-624.5 86,-813.5 244,-813.5 244,-624.5 86,-624.5"/>
<text text-anchor="start" x="94" y="-801.5" font-family="Helvetica,sans-Serif" font-size="10.00">cxx::Bits::Base_avl</text>
<text text-anchor="start" x="94" y="-790.5" font-family="Helvetica,sans-Serif" font-size="10.00">_set&lt; ITEM_TYPE, COMPARE,</text>
<text text-anchor="middle" x="165" y="-779.5" font-family="Helvetica,sans-Serif" font-size="10.00"> ALLOC, GET_KEY &gt;</text>
<polyline fill="none" stroke="black" points="86,-772.5 244,-772.5 "/>
<text text-anchor="middle" x="165" y="-760.5" font-family="Helvetica,sans-Serif" font-size="10.00"> </text>
<polyline fill="none" stroke="black" points="86,-753.5 244,-753.5 "/>
<text text-anchor="start" x="94" y="-741.5" font-family="Helvetica,sans-Serif" font-size="10.00">+ Base_avl_set()</text>
<text text-anchor="start" x="94" y="-730.5" font-family="Helvetica,sans-Serif" font-size="10.00">+ ~Base_avl_set()</text>
<text text-anchor="start" x="94" y="-719.5" font-family="Helvetica,sans-Serif" font-size="10.00">+ Base_avl_set()</text>
<text text-anchor="start" x="94" y="-708.5" font-family="Helvetica,sans-Serif" font-size="10.00">+ insert()</text>
<text text-anchor="start" x="94" y="-697.5" font-family="Helvetica,sans-Serif" font-size="10.00">+ remove()</text>
<text text-anchor="start" x="94" y="-686.5" font-family="Helvetica,sans-Serif" font-size="10.00">+ erase()</text>
<text text-anchor="start" x="94" y="-675.5" font-family="Helvetica,sans-Serif" font-size="10.00">+ find_node()</text>
<text text-anchor="start" x="94" y="-664.5" font-family="Helvetica,sans-Serif" font-size="10.00">+ lower_bound_node()</text>
<text text-anchor="start" x="94" y="-653.5" font-family="Helvetica,sans-Serif" font-size="10.00">+ lower_bound_node()</text>
<text text-anchor="start" x="94" y="-642.5" font-family="Helvetica,sans-Serif" font-size="10.00">+ begin()</text>
<text text-anchor="start" x="94" y="-631.5" font-family="Helvetica,sans-Serif" font-size="10.00">and 8 more...</text>
</a>
</g>
</g>
<!-- Node2 -->
<g id="node2" class="node">
<title>Node2</title>
<g id="a_node2"><a xlink:href="classcxx_1_1Avl__map.html" target="_top" xlink:title=" ">
<polygon fill="white" stroke="black" points="0,-0.5 0,-112.5 130,-112.5 130,-0.5 0,-0.5"/>
<text text-anchor="start" x="8" y="-100.5" font-family="Helvetica,sans-Serif" font-size="10.00">cxx::Avl_map&lt; Region,</text>
<text text-anchor="start" x="8" y="-89.5" font-family="Helvetica,sans-Serif" font-size="10.00"> Hdlr, cxx::Lt_functor,</text>
<text text-anchor="middle" x="65" y="-78.5" font-family="Helvetica,sans-Serif" font-size="10.00"> Alloc &gt;</text>
<polyline fill="none" stroke="black" points="0,-71.5 130,-71.5 "/>
<text text-anchor="middle" x="65" y="-59.5" font-family="Helvetica,sans-Serif" font-size="10.00"> </text>
<polyline fill="none" stroke="black" points="0,-52.5 130,-52.5 "/>
<text text-anchor="start" x="8" y="-40.5" font-family="Helvetica,sans-Serif" font-size="10.00">+ Avl_map()</text>
<text text-anchor="start" x="8" y="-29.5" font-family="Helvetica,sans-Serif" font-size="10.00">+ insert()</text>
<text text-anchor="start" x="8" y="-18.5" font-family="Helvetica,sans-Serif" font-size="10.00">+ operator[]()</text>
<text text-anchor="start" x="8" y="-7.5" font-family="Helvetica,sans-Serif" font-size="10.00">+ operator[]()</text>
</a>
</g>
</g>
<!-- Node1&#45;&gt;Node2 -->
<g id="edge1" class="edge">
<title>Node1&#45;&gt;Node2</title>
<path fill="none" stroke="midnightblue" d="M103.92,-615.03C91.34,-589.1 79.85,-560.72 73,-533 36.35,-384.72 48.5,-202.43 58.05,-112.72"/>
<polygon fill="none" stroke="midnightblue" points="100.83,-616.69 108.41,-624.1 107.11,-613.58 100.83,-616.69"/>
</g>
<!-- Node3 -->
<g id="node3" class="node">
<title>Node3</title>
<g id="a_node3"><a xlink:href="classcxx_1_1Bits_1_1Base__avl__set.html" target="_top" xlink:title=" ">
<polygon fill="white" stroke="black" points="82,-310.5 82,-532.5 248,-532.5 248,-310.5 82,-310.5"/>
<text text-anchor="start" x="90" y="-520.5" font-family="Helvetica,sans-Serif" font-size="10.00">cxx::Bits::Base_avl</text>
<text text-anchor="start" x="90" y="-509.5" font-family="Helvetica,sans-Serif" font-size="10.00">_set&lt; Pair&lt; KEY_TYPE,</text>
<text text-anchor="start" x="90" y="-498.5" font-family="Helvetica,sans-Serif" font-size="10.00"> DATA_TYPE &gt;, Lt_functor</text>
<text text-anchor="start" x="90" y="-487.5" font-family="Helvetica,sans-Serif" font-size="10.00">&lt; KEY_TYPE &gt;, New_allocator,</text>
<text text-anchor="start" x="90" y="-476.5" font-family="Helvetica,sans-Serif" font-size="10.00"> Bits::Avl_map_get_key&lt; KEY</text>
<text text-anchor="middle" x="165" y="-465.5" font-family="Helvetica,sans-Serif" font-size="10.00">_TYPE &gt; &gt;</text>
<polyline fill="none" stroke="black" points="82,-458.5 248,-458.5 "/>
<text text-anchor="middle" x="165" y="-446.5" font-family="Helvetica,sans-Serif" font-size="10.00"> </text>
<polyline fill="none" stroke="black" points="82,-439.5 248,-439.5 "/>
<text text-anchor="start" x="90" y="-427.5" font-family="Helvetica,sans-Serif" font-size="10.00">+ Base_avl_set()</text>
<text text-anchor="start" x="90" y="-416.5" font-family="Helvetica,sans-Serif" font-size="10.00">+ Base_avl_set()</text>
<text text-anchor="start" x="90" y="-405.5" font-family="Helvetica,sans-Serif" font-size="10.00">+ ~Base_avl_set()</text>
<text text-anchor="start" x="90" y="-394.5" font-family="Helvetica,sans-Serif" font-size="10.00">+ insert()</text>
<text text-anchor="start" x="90" y="-383.5" font-family="Helvetica,sans-Serif" font-size="10.00">+ remove()</text>
<text text-anchor="start" x="90" y="-372.5" font-family="Helvetica,sans-Serif" font-size="10.00">+ erase()</text>
<text text-anchor="start" x="90" y="-361.5" font-family="Helvetica,sans-Serif" font-size="10.00">+ find_node()</text>
<text text-anchor="start" x="90" y="-350.5" font-family="Helvetica,sans-Serif" font-size="10.00">+ lower_bound_node()</text>
<text text-anchor="start" x="90" y="-339.5" font-family="Helvetica,sans-Serif" font-size="10.00">+ lower_bound_node()</text>
<text text-anchor="start" x="90" y="-328.5" font-family="Helvetica,sans-Serif" font-size="10.00">+ begin()</text>
<text text-anchor="start" x="90" y="-317.5" font-family="Helvetica,sans-Serif" font-size="10.00">and 8 more...</text>
</a>
</g>
</g>
<!-- Node1&#45;&gt;Node3 -->
<g id="edge2" class="edge">
<title>Node1&#45;&gt;Node3</title>
<path fill="none" stroke="orange" d="M165,-613.75C165,-587.49 165,-559.22 165,-532.67"/>
<polygon fill="orange" stroke="orange" points="161.5,-614.1 165,-624.1 168.5,-614.1 161.5,-614.1"/>
<text text-anchor="start" x="165" y="-598" font-family="Helvetica,sans-Serif" font-size="10.00"> &lt; Pair&lt; KEY_TYPE, DATA</text>
<text text-anchor="start" x="165" y="-587" font-family="Helvetica,sans-Serif" font-size="10.00">_TYPE &gt;, Lt_functor&lt; KEY</text>
<text text-anchor="start" x="165" y="-576" font-family="Helvetica,sans-Serif" font-size="10.00">_TYPE &gt;, New_allocator,</text>
<text text-anchor="start" x="165" y="-565" font-family="Helvetica,sans-Serif" font-size="10.00"> Bits::Avl_map_get_key&lt; KEY</text>
<text text-anchor="middle" x="237" y="-554" font-family="Helvetica,sans-Serif" font-size="10.00">_TYPE &gt; &gt;</text>
</g>
<!-- Node5 -->
<g id="node5" class="node">
<title>Node5</title>
<g id="a_node5"><a xlink:href="classcxx_1_1Bits_1_1Base__avl__set.html" target="_top" xlink:title=" ">
<polygon fill="white" stroke="black" points="274.5,-310.5 274.5,-532.5 411.5,-532.5 411.5,-310.5 274.5,-310.5"/>
<text text-anchor="start" x="282.5" y="-520.5" font-family="Helvetica,sans-Serif" font-size="10.00">cxx::Bits::Base_avl</text>
<text text-anchor="start" x="282.5" y="-509.5" font-family="Helvetica,sans-Serif" font-size="10.00">_set&lt; ITEM_TYPE, Lt</text>
<text text-anchor="start" x="282.5" y="-498.5" font-family="Helvetica,sans-Serif" font-size="10.00">_functor&lt; ITEM_TYPE &gt;</text>
<text text-anchor="start" x="282.5" y="-487.5" font-family="Helvetica,sans-Serif" font-size="10.00">, New_allocator, Bits</text>
<text text-anchor="start" x="282.5" y="-476.5" font-family="Helvetica,sans-Serif" font-size="10.00">::Avl_set_get_key&lt; ITEM</text>
<text text-anchor="middle" x="343" y="-465.5" font-family="Helvetica,sans-Serif" font-size="10.00">_TYPE &gt; &gt;</text>
<polyline fill="none" stroke="black" points="274.5,-458.5 411.5,-458.5 "/>
<text text-anchor="middle" x="343" y="-446.5" font-family="Helvetica,sans-Serif" font-size="10.00"> </text>
<polyline fill="none" stroke="black" points="274.5,-439.5 411.5,-439.5 "/>
<text text-anchor="start" x="282.5" y="-427.5" font-family="Helvetica,sans-Serif" font-size="10.00">+ Base_avl_set()</text>
<text text-anchor="start" x="282.5" y="-416.5" font-family="Helvetica,sans-Serif" font-size="10.00">+ Base_avl_set()</text>
<text text-anchor="start" x="282.5" y="-405.5" font-family="Helvetica,sans-Serif" font-size="10.00">+ ~Base_avl_set()</text>
<text text-anchor="start" x="282.5" y="-394.5" font-family="Helvetica,sans-Serif" font-size="10.00">+ insert()</text>
<text text-anchor="start" x="282.5" y="-383.5" font-family="Helvetica,sans-Serif" font-size="10.00">+ remove()</text>
<text text-anchor="start" x="282.5" y="-372.5" font-family="Helvetica,sans-Serif" font-size="10.00">+ erase()</text>
<text text-anchor="start" x="282.5" y="-361.5" font-family="Helvetica,sans-Serif" font-size="10.00">+ find_node()</text>
<text text-anchor="start" x="282.5" y="-350.5" font-family="Helvetica,sans-Serif" font-size="10.00">+ lower_bound_node()</text>
<text text-anchor="start" x="282.5" y="-339.5" font-family="Helvetica,sans-Serif" font-size="10.00">+ lower_bound_node()</text>
<text text-anchor="start" x="282.5" y="-328.5" font-family="Helvetica,sans-Serif" font-size="10.00">+ begin()</text>
<text text-anchor="start" x="282.5" y="-317.5" font-family="Helvetica,sans-Serif" font-size="10.00">and 8 more...</text>
</a>
</g>
</g>
<!-- Node1&#45;&gt;Node5 -->
<g id="edge5" class="edge">
<title>Node1&#45;&gt;Node5</title>
<path fill="none" stroke="orange" d="M252.52,-668.81C275.57,-651.79 298.12,-630.69 313,-606 326.25,-584.02 334.16,-558 338.78,-532.56"/>
<polygon fill="orange" stroke="orange" points="250.45,-665.99 244.36,-674.66 254.53,-671.68 250.45,-665.99"/>
<text text-anchor="start" x="334" y="-592.5" font-family="Helvetica,sans-Serif" font-size="10.00"> &lt; ITEM_TYPE, Lt_functor</text>
<text text-anchor="start" x="334" y="-581.5" font-family="Helvetica,sans-Serif" font-size="10.00">&lt; ITEM_TYPE &gt;, New_allocator,</text>
<text text-anchor="start" x="334" y="-570.5" font-family="Helvetica,sans-Serif" font-size="10.00"> Bits::Avl_set_get_key&lt; ITEM</text>
<text text-anchor="middle" x="411.5" y="-559.5" font-family="Helvetica,sans-Serif" font-size="10.00">_TYPE &gt; &gt;</text>
</g>
<!-- Node4 -->
<g id="node4" class="node">
<title>Node4</title>
<g id="a_node4"><a xlink:href="classcxx_1_1Avl__map.html" target="_top" xlink:title="AVL tree based associative container.">
<polygon fill="white" stroke="black" points="76.5,-171.5 76.5,-272.5 253.5,-272.5 253.5,-171.5 76.5,-171.5"/>
<text text-anchor="start" x="84.5" y="-260.5" font-family="Helvetica,sans-Serif" font-size="10.00">cxx::Avl_map&lt; KEY_TYPE,</text>
<text text-anchor="middle" x="165" y="-249.5" font-family="Helvetica,sans-Serif" font-size="10.00"> DATA_TYPE, COMPARE, ALLOC &gt;</text>
<polyline fill="none" stroke="black" points="76.5,-242.5 253.5,-242.5 "/>
<text text-anchor="middle" x="165" y="-230.5" font-family="Helvetica,sans-Serif" font-size="10.00"> </text>
<polyline fill="none" stroke="black" points="76.5,-223.5 253.5,-223.5 "/>
<text text-anchor="start" x="84.5" y="-211.5" font-family="Helvetica,sans-Serif" font-size="10.00">+ Avl_map()</text>
<text text-anchor="start" x="84.5" y="-200.5" font-family="Helvetica,sans-Serif" font-size="10.00">+ insert()</text>
<text text-anchor="start" x="84.5" y="-189.5" font-family="Helvetica,sans-Serif" font-size="10.00">+ operator[]()</text>
<text text-anchor="start" x="84.5" y="-178.5" font-family="Helvetica,sans-Serif" font-size="10.00">+ operator[]()</text>
</a>
</g>
</g>
<!-- Node3&#45;&gt;Node4 -->
<g id="edge3" class="edge">
<title>Node3&#45;&gt;Node4</title>
<path fill="none" stroke="midnightblue" d="M165,-300.42C165,-290.84 165,-281.54 165,-272.91"/>
<polygon fill="none" stroke="midnightblue" points="161.5,-300.49 165,-310.49 168.5,-300.49 161.5,-300.49"/>
</g>
<!-- Node4&#45;&gt;Node2 -->
<g id="edge4" class="edge">
<title>Node4&#45;&gt;Node2</title>
<path fill="none" stroke="orange" d="M129.04,-162.21C119.14,-146.02 108.44,-128.52 98.67,-112.55"/>
<polygon fill="orange" stroke="orange" points="126.25,-164.35 134.45,-171.06 132.22,-160.7 126.25,-164.35"/>
<text text-anchor="start" x="121" y="-145" font-family="Helvetica,sans-Serif" font-size="10.00"> &lt; Region, Hdlr, cxx</text>
<text text-anchor="middle" x="170" y="-134" font-family="Helvetica,sans-Serif" font-size="10.00">::Lt_functor, Alloc &gt;</text>
</g>
<!-- Node6 -->
<g id="node6" class="node">
<title>Node6</title>
<g id="a_node6"><a xlink:href="classcxx_1_1Avl__set.html" target="_top" xlink:title="AVL set for simple compareable items.">
<polygon fill="white" stroke="black" points="271.5,-182.5 271.5,-261.5 420.5,-261.5 420.5,-182.5 271.5,-182.5"/>
<text text-anchor="start" x="279.5" y="-249.5" font-family="Helvetica,sans-Serif" font-size="10.00">cxx::Avl_set&lt; ITEM</text>
<text text-anchor="middle" x="346" y="-238.5" font-family="Helvetica,sans-Serif" font-size="10.00">_TYPE, COMPARE, ALLOC &gt;</text>
<polyline fill="none" stroke="black" points="271.5,-231.5 420.5,-231.5 "/>
<text text-anchor="middle" x="346" y="-219.5" font-family="Helvetica,sans-Serif" font-size="10.00"> </text>
<polyline fill="none" stroke="black" points="271.5,-212.5 420.5,-212.5 "/>
<text text-anchor="start" x="279.5" y="-200.5" font-family="Helvetica,sans-Serif" font-size="10.00">+ Avl_set()</text>
<text text-anchor="start" x="279.5" y="-189.5" font-family="Helvetica,sans-Serif" font-size="10.00">+ Avl_set()</text>
</a>
</g>
</g>
<!-- Node5&#45;&gt;Node6 -->
<g id="edge6" class="edge">
<title>Node5&#45;&gt;Node6</title>
<path fill="none" stroke="midnightblue" d="M344.83,-300.28C345.04,-286.39 345.24,-273.1 345.41,-261.57"/>
<polygon fill="none" stroke="midnightblue" points="341.32,-300.44 344.67,-310.49 348.32,-300.54 341.32,-300.44"/>
</g>
</g>
</svg>
