<?xml version="1.0" encoding="UTF-8" standalone="no"?>
<!DOCTYPE svg PUBLIC "-//W3C//DTD SVG 1.1//EN"
 "http://www.w3.org/Graphics/SVG/1.1/DTD/svg11.dtd">
<!-- Generated by graphviz version 2.43.0 (0)
 -->
<!-- Title: cxx::Bits::Bst::end Pages: 1 -->
<svg width="402pt" height="39pt"
 viewBox="0.00 0.00 402.00 39.00" xmlns="http://www.w3.org/2000/svg" xmlns:xlink="http://www.w3.org/1999/xlink">
<g id="graph0" class="graph" transform="scale(1 1) rotate(0) translate(4 35)">
<title>cxx::Bits::Bst::end</title>
<polygon fill="white" stroke="transparent" points="-4,4 -4,-35 398,-35 398,4 -4,4"/>
<!-- Node1 -->
<g id="node1" class="node">
<title>Node1</title>
<g id="a_node1"><a xlink:title="Get the end marker for the constant forward iterator.">
<polygon fill="#bfbfbf" stroke="black" points="290,-6 290,-25 394,-25 394,-6 290,-6"/>
<text text-anchor="middle" x="342" y="-13" font-family="Helvetica,sans-Serif" font-size="10.00">cxx::Bits::Bst::end</text>
</a>
</g>
</g>
<!-- Node2 -->
<g id="node2" class="node">
<title>Node2</title>
<g id="a_node2"><a xlink:href="classcxx_1_1Bits_1_1Base__avl__set.html#a8020e80cf3586ab9f036cfed74af67f6" target="_top" xlink:title="Get the end marker for the constant forward iterator.">
<polygon fill="white" stroke="black" points="145,-0.5 145,-30.5 254,-30.5 254,-0.5 145,-0.5"/>
<text text-anchor="start" x="153" y="-18.5" font-family="Helvetica,sans-Serif" font-size="10.00">cxx::Bits::Base_avl</text>
<text text-anchor="middle" x="199.5" y="-7.5" font-family="Helvetica,sans-Serif" font-size="10.00">_set::end</text>
</a>
</g>
</g>
<!-- Node1&#45;&gt;Node2 -->
<g id="edge1" class="edge">
<title>Node1&#45;&gt;Node2</title>
<path fill="none" stroke="midnightblue" d="M279.65,-15.5C271.17,-15.5 262.51,-15.5 254.18,-15.5"/>
<polygon fill="midnightblue" stroke="midnightblue" points="279.88,-19 289.88,-15.5 279.88,-12 279.88,-19"/>
</g>
<!-- Node3 -->
<g id="node3" class="node">
<title>Node3</title>
<g id="a_node3"><a xlink:href="classcxx_1_1Bits_1_1Base__avl__set.html#acd26d51c56a9a8d27edcbad7313f1194" target="_top" xlink:title="Create a copy of an AVL&#45;tree based set.">
<polygon fill="white" stroke="black" points="0,-0.5 0,-30.5 109,-30.5 109,-0.5 0,-0.5"/>
<text text-anchor="start" x="8" y="-18.5" font-family="Helvetica,sans-Serif" font-size="10.00">cxx::Bits::Base_avl</text>
<text text-anchor="middle" x="54.5" y="-7.5" font-family="Helvetica,sans-Serif" font-size="10.00">_set::Base_avl_set</text>
</a>
</g>
</g>
<!-- Node2&#45;&gt;Node3 -->
<g id="edge2" class="edge">
<title>Node2&#45;&gt;Node3</title>
<path fill="none" stroke="midnightblue" d="M134.68,-15.5C126.25,-15.5 117.69,-15.5 109.46,-15.5"/>
<polygon fill="midnightblue" stroke="midnightblue" points="134.85,-19 144.85,-15.5 134.85,-12 134.85,-19"/>
</g>
</g>
</svg>
