<?xml version="1.0" encoding="UTF-8" standalone="no"?>
<!DOCTYPE svg PUBLIC "-//W3C//DTD SVG 1.1//EN"
 "http://www.w3.org/Graphics/SVG/1.1/DTD/svg11.dtd">
<!-- Generated by graphviz version 2.43.0 (0)
 -->
<!-- Title: L4::Kip::Mem_desc::set Pages: 1 -->
<svg width="305pt" height="78pt"
 viewBox="0.00 0.00 305.00 77.50" xmlns="http://www.w3.org/2000/svg" xmlns:xlink="http://www.w3.org/1999/xlink">
<g id="graph0" class="graph" transform="scale(1 1) rotate(0) translate(4 73.5)">
<title>L4::Kip::Mem_desc::set</title>
<polygon fill="white" stroke="transparent" points="-4,4 -4,-73.5 301,-73.5 301,4 -4,4"/>
<!-- Node1 -->
<g id="node1" class="node">
<title>Node1</title>
<g id="a_node1"><a xlink:title="Set values of a memory descriptor.">
<polygon fill="#bfbfbf" stroke="black" points="0,-28 0,-47 129,-47 129,-28 0,-28"/>
<text text-anchor="middle" x="64.5" y="-35" font-family="Helvetica,sans-Serif" font-size="10.00">L4::Kip::Mem_desc::set</text>
</a>
</g>
</g>
<!-- Node2 -->
<g id="node2" class="node">
<title>Node2</title>
<g id="a_node2"><a xlink:href="classL4_1_1Kip_1_1Mem__desc.html#a5fdbd66440b54a05ad1678fcb04ed9e4" target="_top" xlink:title="Return end address of memory descriptor.">
<polygon fill="white" stroke="black" points="165,-50 165,-69 297,-69 297,-50 165,-50"/>
<text text-anchor="middle" x="231" y="-57" font-family="Helvetica,sans-Serif" font-size="10.00">L4::Kip::Mem_desc::end</text>
</a>
</g>
</g>
<!-- Node1&#45;&gt;Node2 -->
<g id="edge1" class="edge">
<title>Node1&#45;&gt;Node2</title>
<path fill="none" stroke="midnightblue" d="M129.1,-46.01C137.55,-47.14 146.27,-48.3 154.89,-49.46"/>
<polygon fill="midnightblue" stroke="midnightblue" points="154.56,-52.94 164.94,-50.8 155.49,-46 154.56,-52.94"/>
</g>
<!-- Node3 -->
<g id="node3" class="node">
<title>Node3</title>
<g id="a_node3"><a xlink:href="classL4_1_1Kip_1_1Mem__desc.html#a78a483ff068305e31dc15bcbf69c1b64" target="_top" xlink:title="Return start address of memory descriptor.">
<polygon fill="white" stroke="black" points="174,-0.5 174,-30.5 288,-30.5 288,-0.5 174,-0.5"/>
<text text-anchor="start" x="182" y="-18.5" font-family="Helvetica,sans-Serif" font-size="10.00">L4::Kip::Mem_desc::</text>
<text text-anchor="middle" x="231" y="-7.5" font-family="Helvetica,sans-Serif" font-size="10.00">start</text>
</a>
</g>
</g>
<!-- Node1&#45;&gt;Node3 -->
<g id="edge2" class="edge">
<title>Node1&#45;&gt;Node3</title>
<path fill="none" stroke="midnightblue" d="M129.1,-28.99C140.5,-27.47 152.4,-25.88 163.87,-24.34"/>
<polygon fill="midnightblue" stroke="midnightblue" points="164.36,-27.81 173.81,-23.01 163.43,-20.87 164.36,-27.81"/>
</g>
</g>
</svg>
