<?xml version="1.0" encoding="UTF-8" standalone="no"?>
<!DOCTYPE svg PUBLIC "-//W3C//DTD SVG 1.1//EN"
 "http://www.w3.org/Graphics/SVG/1.1/DTD/svg11.dtd">
<!-- Generated by graphviz version 2.43.0 (0)
 -->
<!-- Title: cxx::Base_slab::alloc Pages: 1 -->
<svg width="567pt" height="75pt"
 viewBox="0.00 0.00 567.00 75.00" xmlns="http://www.w3.org/2000/svg" xmlns:xlink="http://www.w3.org/1999/xlink">
<g id="graph0" class="graph" transform="scale(1 1) rotate(0) translate(4 71)">
<title>cxx::Base_slab::alloc</title>
<polygon fill="white" stroke="transparent" points="-4,4 -4,-71 563,-71 563,4 -4,4"/>
<!-- Node1 -->
<g id="node1" class="node">
<title>Node1</title>
<g id="a_node1"><a xlink:title="Allocate a new object.">
<polygon fill="#bfbfbf" stroke="black" points="0,-28.5 0,-47.5 119,-47.5 119,-28.5 0,-28.5"/>
<text text-anchor="middle" x="59.5" y="-35.5" font-family="Helvetica,sans-Serif" font-size="10.00">cxx::Base_slab::alloc</text>
</a>
</g>
</g>
<!-- Node2 -->
<g id="node2" class="node">
<title>Node2</title>
<g id="a_node2"><a xlink:href="classcxx_1_1Base__slab.html#af7f8144a14030567ab8f83e88b9cf20b" target="_top" xlink:title="Free the given object (_o).">
<polygon fill="white" stroke="black" points="155,-28.5 155,-47.5 270,-47.5 270,-28.5 155,-28.5"/>
<text text-anchor="middle" x="212.5" y="-35.5" font-family="Helvetica,sans-Serif" font-size="10.00">cxx::Base_slab::free</text>
</a>
</g>
</g>
<!-- Node1&#45;&gt;Node2 -->
<g id="edge1" class="edge">
<title>Node1&#45;&gt;Node2</title>
<path fill="none" stroke="midnightblue" d="M119.31,-38C127.56,-38 136.08,-38 144.46,-38"/>
<polygon fill="midnightblue" stroke="midnightblue" points="144.58,-41.5 154.58,-38 144.58,-34.5 144.58,-41.5"/>
</g>
<!-- Node3 -->
<g id="node3" class="node">
<title>Node3</title>
<g id="a_node3"><a xlink:href="classcxx_1_1H__list.html#afa48e56b417c420b88b7494ce3e791d6" target="_top" xlink:title="Add element to the front of the list.">
<polygon fill="white" stroke="black" points="306,-47.5 306,-66.5 431,-66.5 431,-47.5 306,-47.5"/>
<text text-anchor="middle" x="368.5" y="-54.5" font-family="Helvetica,sans-Serif" font-size="10.00">cxx::H_list::push_front</text>
</a>
</g>
</g>
<!-- Node1&#45;&gt;Node3 -->
<g id="edge5" class="edge">
<title>Node1&#45;&gt;Node3</title>
<path fill="none" stroke="midnightblue" d="M98.86,-47.51C115.93,-51.27 136.35,-55.14 155,-57 201.7,-61.65 254.47,-61.68 295.73,-60.53"/>
<polygon fill="midnightblue" stroke="midnightblue" points="296.08,-64.02 305.97,-60.21 295.86,-57.02 296.08,-64.02"/>
</g>
<!-- Node5 -->
<g id="node5" class="node">
<title>Node5</title>
<g id="a_node5"><a xlink:href="classcxx_1_1H__list.html#abc13d604f76c1da4ea72c30c1302835d" target="_top" xlink:title="Remove the given element from its list.">
<polygon fill="white" stroke="black" points="313,-0.5 313,-19.5 424,-19.5 424,-0.5 313,-0.5"/>
<text text-anchor="middle" x="368.5" y="-7.5" font-family="Helvetica,sans-Serif" font-size="10.00">cxx::H_list::remove</text>
</a>
</g>
</g>
<!-- Node1&#45;&gt;Node5 -->
<g id="edge6" class="edge">
<title>Node1&#45;&gt;Node5</title>
<path fill="none" stroke="midnightblue" d="M100.74,-28.47C117.43,-24.89 137.06,-21.17 155,-19 204.27,-13.04 260.39,-10.86 302.58,-10.13"/>
<polygon fill="midnightblue" stroke="midnightblue" points="302.77,-13.63 312.72,-9.98 302.67,-6.63 302.77,-13.63"/>
</g>
<!-- Node2&#45;&gt;Node3 -->
<g id="edge2" class="edge">
<title>Node2&#45;&gt;Node3</title>
<path fill="none" stroke="midnightblue" d="M270.41,-45.02C278.72,-46.05 287.37,-47.11 295.93,-48.17"/>
<polygon fill="midnightblue" stroke="midnightblue" points="295.56,-51.65 305.91,-49.4 296.42,-44.7 295.56,-51.65"/>
</g>
<!-- Node2&#45;&gt;Node5 -->
<g id="edge4" class="edge">
<title>Node2&#45;&gt;Node5</title>
<path fill="none" stroke="midnightblue" d="M266.07,-28.44C278.58,-26.17 292.05,-23.72 304.97,-21.37"/>
<polygon fill="midnightblue" stroke="midnightblue" points="305.96,-24.75 315.17,-19.51 304.7,-17.86 305.96,-24.75"/>
</g>
<!-- Node4 -->
<g id="node4" class="node">
<title>Node4</title>
<g id="a_node4"><a xlink:href="classcxx_1_1H__list.html#a95a4b614aadeeb364d01693d2f594ace" target="_top" xlink:title="Add element to the front of the list.">
<polygon fill="white" stroke="black" points="467,-47.5 467,-66.5 559,-66.5 559,-47.5 467,-47.5"/>
<text text-anchor="middle" x="513" y="-54.5" font-family="Helvetica,sans-Serif" font-size="10.00">cxx::H_list::add</text>
</a>
</g>
</g>
<!-- Node3&#45;&gt;Node4 -->
<g id="edge3" class="edge">
<title>Node3&#45;&gt;Node4</title>
<path fill="none" stroke="midnightblue" d="M431.17,-57C439.73,-57 448.47,-57 456.9,-57"/>
<polygon fill="midnightblue" stroke="midnightblue" points="456.99,-60.5 466.99,-57 456.99,-53.5 456.99,-60.5"/>
</g>
</g>
</svg>
