<?xml version="1.0" encoding="UTF-8" standalone="no"?>
<!DOCTYPE svg PUBLIC "-//W3C//DTD SVG 1.1//EN"
 "http://www.w3.org/Graphics/SVG/1.1/DTD/svg11.dtd">
<!-- Generated by graphviz version 2.43.0 (0)
 -->
<!-- Title: cxx::Bitfield::set_unshifted_dirty Pages: 1 -->
<svg width="234pt" height="39pt"
 viewBox="0.00 0.00 234.00 39.00" xmlns="http://www.w3.org/2000/svg" xmlns:xlink="http://www.w3.org/1999/xlink">
<g id="graph0" class="graph" transform="scale(1 1) rotate(0) translate(4 35)">
<title>cxx::Bitfield::set_unshifted_dirty</title>
<polygon fill="white" stroke="transparent" points="-4,4 -4,-35 230,-35 230,4 -4,4"/>
<!-- Node1 -->
<g id="node1" class="node">
<title>Node1</title>
<g id="a_node1"><a xlink:title="Set the bits corresponding to val.">
<polygon fill="#bfbfbf" stroke="black" points="131,-0.5 131,-30.5 226,-30.5 226,-0.5 131,-0.5"/>
<text text-anchor="start" x="139" y="-18.5" font-family="Helvetica,sans-Serif" font-size="10.00">cxx::Bitfield::set</text>
<text text-anchor="middle" x="178.5" y="-7.5" font-family="Helvetica,sans-Serif" font-size="10.00">_unshifted_dirty</text>
</a>
</g>
</g>
<!-- Node2 -->
<g id="node2" class="node">
<title>Node2</title>
<g id="a_node2"><a xlink:href="classcxx_1_1Bitfield.html#ae9c4c45aeb034031a6d5cd5484e571bb" target="_top" xlink:title="Set the bits corresponding to val.">
<polygon fill="white" stroke="black" points="0,-0.5 0,-30.5 95,-30.5 95,-0.5 0,-0.5"/>
<text text-anchor="start" x="8" y="-18.5" font-family="Helvetica,sans-Serif" font-size="10.00">cxx::Bitfield::set</text>
<text text-anchor="middle" x="47.5" y="-7.5" font-family="Helvetica,sans-Serif" font-size="10.00">_unshifted</text>
</a>
</g>
</g>
<!-- Node1&#45;&gt;Node2 -->
<g id="edge1" class="edge">
<title>Node1&#45;&gt;Node2</title>
<path fill="none" stroke="midnightblue" d="M120.9,-15.5C112.25,-15.5 103.4,-15.5 95,-15.5"/>
<polygon fill="midnightblue" stroke="midnightblue" points="120.93,-19 130.93,-15.5 120.93,-12 120.93,-19"/>
</g>
</g>
</svg>
