<?xml version="1.0" encoding="UTF-8" standalone="no"?>
<!DOCTYPE svg PUBLIC "-//W3C//DTD SVG 1.1//EN"
 "http://www.w3.org/Graphics/SVG/1.1/DTD/svg11.dtd">
<!-- Generated by graphviz version 2.43.0 (0)
 -->
<!-- Title: L4Re::Rm Pages: 1 -->
<svg width="344pt" height="730pt"
 viewBox="0.00 0.00 343.50 730.00" xmlns="http://www.w3.org/2000/svg" xmlns:xlink="http://www.w3.org/1999/xlink">
<g id="graph0" class="graph" transform="scale(1 1) rotate(0) translate(4 726)">
<title>L4Re::Rm</title>
<polygon fill="white" stroke="transparent" points="-4,4 -4,-726 339.5,-726 339.5,4 -4,4"/>
<!-- Node1 -->
<g id="node1" class="node">
<title>Node1</title>
<g id="a_node1"><a xlink:title="Region map.">
<polygon fill="#bfbfbf" stroke="black" points="134,-0.5 134,-189.5 233,-189.5 233,-0.5 134,-0.5"/>
<text text-anchor="middle" x="183.5" y="-177.5" font-family="Helvetica,sans-Serif" font-size="10.00">L4Re::Rm</text>
<polyline fill="none" stroke="black" points="134,-170.5 233,-170.5 "/>
<text text-anchor="middle" x="183.5" y="-158.5" font-family="Helvetica,sans-Serif" font-size="10.00"> </text>
<polyline fill="none" stroke="black" points="134,-151.5 233,-151.5 "/>
<text text-anchor="start" x="142" y="-139.5" font-family="Helvetica,sans-Serif" font-size="10.00">+ reserve_area()</text>
<text text-anchor="start" x="142" y="-128.5" font-family="Helvetica,sans-Serif" font-size="10.00">+ reserve_area()</text>
<text text-anchor="start" x="142" y="-117.5" font-family="Helvetica,sans-Serif" font-size="10.00">+ free_area()</text>
<text text-anchor="start" x="142" y="-106.5" font-family="Helvetica,sans-Serif" font-size="10.00">+ attach()</text>
<text text-anchor="start" x="142" y="-95.5" font-family="Helvetica,sans-Serif" font-size="10.00">+ attach()</text>
<text text-anchor="start" x="142" y="-84.5" font-family="Helvetica,sans-Serif" font-size="10.00">+ attach()</text>
<text text-anchor="start" x="142" y="-73.5" font-family="Helvetica,sans-Serif" font-size="10.00">+ detach()</text>
<text text-anchor="start" x="142" y="-62.5" font-family="Helvetica,sans-Serif" font-size="10.00">+ detach()</text>
<text text-anchor="start" x="142" y="-51.5" font-family="Helvetica,sans-Serif" font-size="10.00">+ detach()</text>
<text text-anchor="start" x="142" y="-40.5" font-family="Helvetica,sans-Serif" font-size="10.00">+ find()</text>
<text text-anchor="start" x="142" y="-29.5" font-family="Helvetica,sans-Serif" font-size="10.00">+ get_regions()</text>
<text text-anchor="start" x="142" y="-18.5" font-family="Helvetica,sans-Serif" font-size="10.00">+ get_areas()</text>
<text text-anchor="start" x="142" y="-7.5" font-family="Helvetica,sans-Serif" font-size="10.00">+ detach()</text>
</a>
</g>
</g>
<!-- Node2 -->
<g id="node2" class="node">
<title>Node2</title>
<g id="a_node2"><a xlink:href="classL4_1_1Kobject__t.html" target="_top" xlink:title=" ">
<polygon fill="white" stroke="black" points="106,-227.5 106,-328.5 261,-328.5 261,-227.5 106,-227.5"/>
<text text-anchor="start" x="114" y="-316.5" font-family="Helvetica,sans-Serif" font-size="10.00">L4::Kobject_t&lt; Rm,</text>
<text text-anchor="start" x="114" y="-305.5" font-family="Helvetica,sans-Serif" font-size="10.00"> L4::Pager, L4RE_PROTO</text>
<text text-anchor="start" x="114" y="-294.5" font-family="Helvetica,sans-Serif" font-size="10.00">_RM, L4::Type_info::Demand</text>
<text text-anchor="middle" x="183.5" y="-283.5" font-family="Helvetica,sans-Serif" font-size="10.00">_t&lt; 1 &gt; &gt;</text>
<polyline fill="none" stroke="black" points="106,-276.5 261,-276.5 "/>
<text text-anchor="middle" x="183.5" y="-264.5" font-family="Helvetica,sans-Serif" font-size="10.00"> </text>
<polyline fill="none" stroke="black" points="106,-257.5 261,-257.5 "/>
<text text-anchor="start" x="114" y="-245.5" font-family="Helvetica,sans-Serif" font-size="10.00"># c()</text>
<text text-anchor="start" x="114" y="-234.5" font-family="Helvetica,sans-Serif" font-size="10.00"># __check_protocols__()</text>
</a>
</g>
</g>
<!-- Node2&#45;&gt;Node1 -->
<g id="edge1" class="edge">
<title>Node2&#45;&gt;Node1</title>
<path fill="none" stroke="midnightblue" d="M183.5,-216.93C183.5,-208.1 183.5,-198.84 183.5,-189.53"/>
<polygon fill="none" stroke="midnightblue" points="180,-217.06 183.5,-227.06 187,-217.06 180,-217.06"/>
</g>
<!-- Node3 -->
<g id="node3" class="node">
<title>Node3</title>
<g id="a_node3"><a xlink:href="classL4_1_1Pager.html" target="_top" xlink:title="Pager interface including the Io_pager interface.">
<polygon fill="white" stroke="black" points="95,-366.5 95,-423.5 182,-423.5 182,-366.5 95,-366.5"/>
<text text-anchor="middle" x="138.5" y="-411.5" font-family="Helvetica,sans-Serif" font-size="10.00">L4::Pager</text>
<polyline fill="none" stroke="black" points="95,-404.5 182,-404.5 "/>
<text text-anchor="middle" x="138.5" y="-392.5" font-family="Helvetica,sans-Serif" font-size="10.00"> </text>
<polyline fill="none" stroke="black" points="95,-385.5 182,-385.5 "/>
<text text-anchor="start" x="103" y="-373.5" font-family="Helvetica,sans-Serif" font-size="10.00">+ page_fault()</text>
</a>
</g>
</g>
<!-- Node3&#45;&gt;Node2 -->
<g id="edge2" class="edge">
<title>Node3&#45;&gt;Node2</title>
<path fill="none" stroke="midnightblue" d="M152.96,-357.05C156.48,-348.06 160.3,-338.29 164.01,-328.81"/>
<polygon fill="none" stroke="midnightblue" points="149.66,-355.87 149.28,-366.45 156.18,-358.42 149.66,-355.87"/>
</g>
<!-- Node4 -->
<g id="node4" class="node">
<title>Node4</title>
<g id="a_node4"><a xlink:href="classL4_1_1Kobject__t.html" target="_top" xlink:title=" ">
<polygon fill="white" stroke="black" points="9,-493.5 9,-583.5 158,-583.5 158,-493.5 9,-493.5"/>
<text text-anchor="start" x="17" y="-571.5" font-family="Helvetica,sans-Serif" font-size="10.00">L4::Kobject_t&lt; Pager,</text>
<text text-anchor="start" x="17" y="-560.5" font-family="Helvetica,sans-Serif" font-size="10.00"> Io_pager, L4_PROTO_PAGE</text>
<text text-anchor="middle" x="83.5" y="-549.5" font-family="Helvetica,sans-Serif" font-size="10.00">_FAULT &gt;</text>
<polyline fill="none" stroke="black" points="9,-542.5 158,-542.5 "/>
<text text-anchor="middle" x="83.5" y="-530.5" font-family="Helvetica,sans-Serif" font-size="10.00"> </text>
<polyline fill="none" stroke="black" points="9,-523.5 158,-523.5 "/>
<text text-anchor="start" x="17" y="-511.5" font-family="Helvetica,sans-Serif" font-size="10.00"># c()</text>
<text text-anchor="start" x="17" y="-500.5" font-family="Helvetica,sans-Serif" font-size="10.00"># __check_protocols__()</text>
</a>
</g>
</g>
<!-- Node4&#45;&gt;Node3 -->
<g id="edge3" class="edge">
<title>Node4&#45;&gt;Node3</title>
<path fill="none" stroke="midnightblue" d="M104.45,-483.6C112.38,-463.2 121.08,-440.81 127.71,-423.77"/>
<polygon fill="none" stroke="midnightblue" points="101.11,-482.53 100.75,-493.12 107.64,-485.06 101.11,-482.53"/>
</g>
<!-- Node5 -->
<g id="node5" class="node">
<title>Node5</title>
<g id="a_node5"><a xlink:href="classL4_1_1Io__pager.html" target="_top" xlink:title="Io_pager interface.">
<polygon fill="white" stroke="black" points="0,-653.5 0,-710.5 101,-710.5 101,-653.5 0,-653.5"/>
<text text-anchor="middle" x="50.5" y="-698.5" font-family="Helvetica,sans-Serif" font-size="10.00">L4::Io_pager</text>
<polyline fill="none" stroke="black" points="0,-691.5 101,-691.5 "/>
<text text-anchor="middle" x="50.5" y="-679.5" font-family="Helvetica,sans-Serif" font-size="10.00"> </text>
<polyline fill="none" stroke="black" points="0,-672.5 101,-672.5 "/>
<text text-anchor="start" x="8" y="-660.5" font-family="Helvetica,sans-Serif" font-size="10.00">+ io_page_fault()</text>
</a>
</g>
</g>
<!-- Node5&#45;&gt;Node4 -->
<g id="edge4" class="edge">
<title>Node5&#45;&gt;Node4</title>
<path fill="none" stroke="midnightblue" d="M56.24,-643.29C58.48,-630.15 61.3,-615.36 64.5,-602 65.93,-596.04 67.6,-589.82 69.35,-583.71"/>
<polygon fill="none" stroke="midnightblue" points="52.74,-642.97 54.56,-653.41 59.65,-644.12 52.74,-642.97"/>
</g>
<!-- Node6 -->
<g id="node6" class="node">
<title>Node6</title>
<g id="a_node6"><a xlink:href="classL4_1_1Kobject__t.html" target="_top" xlink:title="Helper class to create an L4Re interface class that is derived from a single base class.">
<polygon fill="white" stroke="black" points="134.5,-642.5 134.5,-721.5 290.5,-721.5 290.5,-642.5 134.5,-642.5"/>
<text text-anchor="start" x="142.5" y="-709.5" font-family="Helvetica,sans-Serif" font-size="10.00">L4::Kobject_t&lt; Derived,</text>
<text text-anchor="middle" x="212.5" y="-698.5" font-family="Helvetica,sans-Serif" font-size="10.00"> Base, PROTO, S_DEMAND &gt;</text>
<polyline fill="none" stroke="black" points="134.5,-691.5 290.5,-691.5 "/>
<text text-anchor="middle" x="212.5" y="-679.5" font-family="Helvetica,sans-Serif" font-size="10.00"> </text>
<polyline fill="none" stroke="black" points="134.5,-672.5 290.5,-672.5 "/>
<text text-anchor="start" x="142.5" y="-660.5" font-family="Helvetica,sans-Serif" font-size="10.00"># c()</text>
<text text-anchor="start" x="142.5" y="-649.5" font-family="Helvetica,sans-Serif" font-size="10.00"># __check_protocols__()</text>
</a>
</g>
</g>
<!-- Node6&#45;&gt;Node2 -->
<g id="edge6" class="edge">
<title>Node6&#45;&gt;Node2</title>
<path fill="none" stroke="orange" d="M214.85,-632.21C215.02,-622.21 214.97,-611.76 214.5,-602 209.85,-504.93 197.39,-392.02 189.76,-328.69"/>
<polygon fill="orange" stroke="orange" points="211.35,-632.33 214.61,-642.41 218.35,-632.5 211.35,-632.33"/>
<text text-anchor="start" x="205.5" y="-467" font-family="Helvetica,sans-Serif" font-size="10.00"> &lt; Rm, L4::Pager, L4RE</text>
<text text-anchor="start" x="205.5" y="-456" font-family="Helvetica,sans-Serif" font-size="10.00">_PROTO_RM, L4::Type_info</text>
<text text-anchor="middle" x="270.5" y="-445" font-family="Helvetica,sans-Serif" font-size="10.00">::Demand_t&lt; 1 &gt; &gt;</text>
</g>
<!-- Node6&#45;&gt;Node4 -->
<g id="edge5" class="edge">
<title>Node6&#45;&gt;Node4</title>
<path fill="none" stroke="orange" d="M125.04,-646.13C104.44,-637.09 87.53,-628.6 84.5,-624 76.84,-612.36 74.73,-597.72 75.1,-583.91"/>
<polygon fill="orange" stroke="orange" points="123.82,-649.41 134.39,-650.17 126.6,-642.99 123.82,-649.41"/>
<text text-anchor="start" x="84.5" y="-616" font-family="Helvetica,sans-Serif" font-size="10.00"> &lt; Pager, Io_pager,</text>
<text text-anchor="middle" x="149.5" y="-605" font-family="Helvetica,sans-Serif" font-size="10.00"> L4_PROTO_PAGE_FAULT &gt;</text>
</g>
</g>
</svg>
