<?xml version="1.0" encoding="UTF-8" standalone="no"?>
<!DOCTYPE svg PUBLIC "-//W3C//DTD SVG 1.1//EN"
 "http://www.w3.org/Graphics/SVG/1.1/DTD/svg11.dtd">
<!-- Generated by graphviz version 2.43.0 (0)
 -->
<!-- Title: cxx::New_allocator&lt; _Type &gt; Pages: 1 -->
<svg width="383pt" height="281pt"
 viewBox="0.00 0.00 383.00 281.00" xmlns="http://www.w3.org/2000/svg" xmlns:xlink="http://www.w3.org/1999/xlink">
<g id="graph0" class="graph" transform="scale(1 1) rotate(0) translate(4 277)">
<title>cxx::New_allocator&lt; _Type &gt;</title>
<polygon fill="white" stroke="transparent" points="-4,4 -4,-277 379,-277 379,4 -4,4"/>
<!-- Node1 -->
<g id="node1" class="node">
<title>Node1</title>
<g id="a_node1"><a xlink:title="Standard allocator based on operator new () .">
<polygon fill="#bfbfbf" stroke="black" points="131,-160.5 131,-272.5 244,-272.5 244,-160.5 131,-160.5"/>
<text text-anchor="start" x="139" y="-260.5" font-family="Helvetica,sans-Serif" font-size="10.00">cxx::New_allocator</text>
<text text-anchor="middle" x="187.5" y="-249.5" font-family="Helvetica,sans-Serif" font-size="10.00">&lt; _Type &gt;</text>
<polyline fill="none" stroke="black" points="131,-242.5 244,-242.5 "/>
<text text-anchor="middle" x="187.5" y="-230.5" font-family="Helvetica,sans-Serif" font-size="10.00"> </text>
<polyline fill="none" stroke="black" points="131,-223.5 244,-223.5 "/>
<text text-anchor="start" x="139" y="-211.5" font-family="Helvetica,sans-Serif" font-size="10.00">+ New_allocator()</text>
<text text-anchor="start" x="139" y="-200.5" font-family="Helvetica,sans-Serif" font-size="10.00">+ New_allocator()</text>
<text text-anchor="start" x="139" y="-189.5" font-family="Helvetica,sans-Serif" font-size="10.00">+ ~New_allocator()</text>
<text text-anchor="start" x="139" y="-178.5" font-family="Helvetica,sans-Serif" font-size="10.00">+ alloc()</text>
<text text-anchor="start" x="139" y="-167.5" font-family="Helvetica,sans-Serif" font-size="10.00">+ free()</text>
</a>
</g>
</g>
<!-- Node2 -->
<g id="node2" class="node">
<title>Node2</title>
<g id="a_node2"><a xlink:href="classcxx_1_1New__allocator.html" target="_top" xlink:title=" ">
<polygon fill="white" stroke="black" points="0,-0.5 0,-112.5 113,-112.5 113,-0.5 0,-0.5"/>
<text text-anchor="start" x="8" y="-100.5" font-family="Helvetica,sans-Serif" font-size="10.00">cxx::New_allocator</text>
<text text-anchor="middle" x="56.5" y="-89.5" font-family="Helvetica,sans-Serif" font-size="10.00">&lt; Node &gt;</text>
<polyline fill="none" stroke="black" points="0,-82.5 113,-82.5 "/>
<text text-anchor="middle" x="56.5" y="-70.5" font-family="Helvetica,sans-Serif" font-size="10.00"> </text>
<polyline fill="none" stroke="black" points="0,-63.5 113,-63.5 "/>
<text text-anchor="start" x="8" y="-51.5" font-family="Helvetica,sans-Serif" font-size="10.00">+ New_allocator()</text>
<text text-anchor="start" x="8" y="-40.5" font-family="Helvetica,sans-Serif" font-size="10.00">+ New_allocator()</text>
<text text-anchor="start" x="8" y="-29.5" font-family="Helvetica,sans-Serif" font-size="10.00">+ ~New_allocator()</text>
<text text-anchor="start" x="8" y="-18.5" font-family="Helvetica,sans-Serif" font-size="10.00">+ alloc()</text>
<text text-anchor="start" x="8" y="-7.5" font-family="Helvetica,sans-Serif" font-size="10.00">+ free()</text>
</a>
</g>
</g>
<!-- Node1&#45;&gt;Node2 -->
<g id="edge1" class="edge">
<title>Node1&#45;&gt;Node2</title>
<path fill="none" stroke="orange" d="M135.01,-152.2C124.19,-139.14 112.86,-125.48 102.29,-112.73"/>
<polygon fill="orange" stroke="orange" points="132.61,-154.78 141.68,-160.24 137.99,-150.31 132.61,-154.78"/>
<text text-anchor="middle" x="152.5" y="-134" font-family="Helvetica,sans-Serif" font-size="10.00"> &lt; Node &gt;</text>
</g>
<!-- Node3 -->
<g id="node3" class="node">
<title>Node3</title>
<g id="a_node3"><a xlink:href="classcxx_1_1New__allocator.html" target="_top" xlink:title=" ">
<polygon fill="white" stroke="black" points="131,-0.5 131,-112.5 244,-112.5 244,-0.5 131,-0.5"/>
<text text-anchor="start" x="139" y="-100.5" font-family="Helvetica,sans-Serif" font-size="10.00">cxx::New_allocator</text>
<text text-anchor="middle" x="187.5" y="-89.5" font-family="Helvetica,sans-Serif" font-size="10.00">&lt; Slab_i &gt;</text>
<polyline fill="none" stroke="black" points="131,-82.5 244,-82.5 "/>
<text text-anchor="middle" x="187.5" y="-70.5" font-family="Helvetica,sans-Serif" font-size="10.00"> </text>
<polyline fill="none" stroke="black" points="131,-63.5 244,-63.5 "/>
<text text-anchor="start" x="139" y="-51.5" font-family="Helvetica,sans-Serif" font-size="10.00">+ New_allocator()</text>
<text text-anchor="start" x="139" y="-40.5" font-family="Helvetica,sans-Serif" font-size="10.00">+ New_allocator()</text>
<text text-anchor="start" x="139" y="-29.5" font-family="Helvetica,sans-Serif" font-size="10.00">+ ~New_allocator()</text>
<text text-anchor="start" x="139" y="-18.5" font-family="Helvetica,sans-Serif" font-size="10.00">+ alloc()</text>
<text text-anchor="start" x="139" y="-7.5" font-family="Helvetica,sans-Serif" font-size="10.00">+ free()</text>
</a>
</g>
</g>
<!-- Node1&#45;&gt;Node3 -->
<g id="edge2" class="edge">
<title>Node1&#45;&gt;Node3</title>
<path fill="none" stroke="orange" d="M187.5,-149.97C187.5,-137.59 187.5,-124.76 187.5,-112.73"/>
<polygon fill="orange" stroke="orange" points="184,-150.24 187.5,-160.24 191,-150.24 184,-150.24"/>
<text text-anchor="middle" x="215" y="-134" font-family="Helvetica,sans-Serif" font-size="10.00"> &lt; Slab_i &gt;</text>
</g>
<!-- Node4 -->
<g id="node4" class="node">
<title>Node4</title>
<g id="a_node4"><a xlink:href="classcxx_1_1New__allocator.html" target="_top" xlink:title=" ">
<polygon fill="white" stroke="black" points="262,-0.5 262,-112.5 375,-112.5 375,-0.5 262,-0.5"/>
<text text-anchor="start" x="270" y="-100.5" font-family="Helvetica,sans-Serif" font-size="10.00">cxx::New_allocator</text>
<text text-anchor="middle" x="318.5" y="-89.5" font-family="Helvetica,sans-Serif" font-size="10.00">&lt; _Node &gt;</text>
<polyline fill="none" stroke="black" points="262,-82.5 375,-82.5 "/>
<text text-anchor="middle" x="318.5" y="-70.5" font-family="Helvetica,sans-Serif" font-size="10.00"> </text>
<polyline fill="none" stroke="black" points="262,-63.5 375,-63.5 "/>
<text text-anchor="start" x="270" y="-51.5" font-family="Helvetica,sans-Serif" font-size="10.00">+ New_allocator()</text>
<text text-anchor="start" x="270" y="-40.5" font-family="Helvetica,sans-Serif" font-size="10.00">+ New_allocator()</text>
<text text-anchor="start" x="270" y="-29.5" font-family="Helvetica,sans-Serif" font-size="10.00">+ ~New_allocator()</text>
<text text-anchor="start" x="270" y="-18.5" font-family="Helvetica,sans-Serif" font-size="10.00">+ alloc()</text>
<text text-anchor="start" x="270" y="-7.5" font-family="Helvetica,sans-Serif" font-size="10.00">+ free()</text>
</a>
</g>
</g>
<!-- Node1&#45;&gt;Node4 -->
<g id="edge3" class="edge">
<title>Node1&#45;&gt;Node4</title>
<path fill="none" stroke="orange" d="M239.99,-152.2C250.81,-139.14 262.14,-125.48 272.71,-112.73"/>
<polygon fill="orange" stroke="orange" points="237.01,-150.31 233.32,-160.24 242.39,-154.78 237.01,-150.31"/>
<text text-anchor="middle" x="285" y="-134" font-family="Helvetica,sans-Serif" font-size="10.00"> &lt; _Node &gt;</text>
</g>
</g>
</svg>
