<?xml version="1.0" encoding="UTF-8" standalone="no"?>
<!DOCTYPE svg PUBLIC "-//W3C//DTD SVG 1.1//EN"
 "http://www.w3.org/Graphics/SVG/1.1/DTD/svg11.dtd">
<!-- Generated by graphviz version 2.43.0 (0)
 -->
<!-- Title: L4Re::Event Pages: 1 -->
<svg width="308pt" height="708pt"
 viewBox="0.00 0.00 308.00 708.00" xmlns="http://www.w3.org/2000/svg" xmlns:xlink="http://www.w3.org/1999/xlink">
<g id="graph0" class="graph" transform="scale(1 1) rotate(0) translate(4 704)">
<title>L4Re::Event</title>
<polygon fill="white" stroke="transparent" points="-4,4 -4,-704 304,-704 304,4 -4,4"/>
<!-- Node1 -->
<g id="node1" class="node">
<title>Node1</title>
<g id="a_node1"><a xlink:title="Event class.">
<polygon fill="#bfbfbf" stroke="black" points="91,-0.5 91,-112.5 245,-112.5 245,-0.5 91,-0.5"/>
<text text-anchor="middle" x="168" y="-100.5" font-family="Helvetica,sans-Serif" font-size="10.00">L4Re::Event</text>
<polyline fill="none" stroke="black" points="91,-93.5 245,-93.5 "/>
<text text-anchor="middle" x="168" y="-81.5" font-family="Helvetica,sans-Serif" font-size="10.00"> </text>
<polyline fill="none" stroke="black" points="91,-74.5 245,-74.5 "/>
<text text-anchor="start" x="99" y="-62.5" font-family="Helvetica,sans-Serif" font-size="10.00">+ get_buffer()</text>
<text text-anchor="start" x="99" y="-51.5" font-family="Helvetica,sans-Serif" font-size="10.00">+ get_num_streams()</text>
<text text-anchor="start" x="99" y="-40.5" font-family="Helvetica,sans-Serif" font-size="10.00">+ get_stream_info()</text>
<text text-anchor="start" x="99" y="-29.5" font-family="Helvetica,sans-Serif" font-size="10.00">+ get_stream_info_for_id()</text>
<text text-anchor="start" x="99" y="-18.5" font-family="Helvetica,sans-Serif" font-size="10.00">+ get_axis_info()</text>
<text text-anchor="start" x="99" y="-7.5" font-family="Helvetica,sans-Serif" font-size="10.00">+ get_stream_state_for_id()</text>
</a>
</g>
</g>
<!-- Node2 -->
<g id="node2" class="node">
<title>Node2</title>
<g id="a_node2"><a xlink:href="classL4_1_1Kobject__t.html" target="_top" xlink:title=" ">
<polygon fill="white" stroke="black" points="100.5,-150.5 100.5,-240.5 235.5,-240.5 235.5,-150.5 100.5,-150.5"/>
<text text-anchor="start" x="108.5" y="-228.5" font-family="Helvetica,sans-Serif" font-size="10.00">L4::Kobject_t&lt; Event,</text>
<text text-anchor="start" x="108.5" y="-217.5" font-family="Helvetica,sans-Serif" font-size="10.00"> L4::Icu, L4RE_PROTO</text>
<text text-anchor="middle" x="168" y="-206.5" font-family="Helvetica,sans-Serif" font-size="10.00">_EVENT &gt;</text>
<polyline fill="none" stroke="black" points="100.5,-199.5 235.5,-199.5 "/>
<text text-anchor="middle" x="168" y="-187.5" font-family="Helvetica,sans-Serif" font-size="10.00"> </text>
<polyline fill="none" stroke="black" points="100.5,-180.5 235.5,-180.5 "/>
<text text-anchor="start" x="108.5" y="-168.5" font-family="Helvetica,sans-Serif" font-size="10.00"># c()</text>
<text text-anchor="start" x="108.5" y="-157.5" font-family="Helvetica,sans-Serif" font-size="10.00"># __check_protocols__()</text>
</a>
</g>
</g>
<!-- Node2&#45;&gt;Node1 -->
<g id="edge1" class="edge">
<title>Node2&#45;&gt;Node1</title>
<path fill="none" stroke="midnightblue" d="M168,-140.29C168,-131.18 168,-121.71 168,-112.57"/>
<polygon fill="none" stroke="midnightblue" points="164.5,-140.4 168,-150.4 171.5,-140.4 164.5,-140.4"/>
</g>
<!-- Node3 -->
<g id="node3" class="node">
<title>Node3</title>
<g id="a_node3"><a xlink:href="classL4_1_1Icu.html" target="_top" xlink:title="C++ Icu interface.">
<polygon fill="white" stroke="black" points="84.5,-278.5 84.5,-401.5 167.5,-401.5 167.5,-278.5 84.5,-278.5"/>
<text text-anchor="middle" x="126" y="-389.5" font-family="Helvetica,sans-Serif" font-size="10.00">L4::Icu</text>
<polyline fill="none" stroke="black" points="84.5,-382.5 167.5,-382.5 "/>
<text text-anchor="middle" x="126" y="-370.5" font-family="Helvetica,sans-Serif" font-size="10.00"> </text>
<polyline fill="none" stroke="black" points="84.5,-363.5 167.5,-363.5 "/>
<text text-anchor="start" x="92.5" y="-351.5" font-family="Helvetica,sans-Serif" font-size="10.00">+ bind()</text>
<text text-anchor="start" x="92.5" y="-340.5" font-family="Helvetica,sans-Serif" font-size="10.00">+ unbind()</text>
<text text-anchor="start" x="92.5" y="-329.5" font-family="Helvetica,sans-Serif" font-size="10.00">+ info()</text>
<text text-anchor="start" x="92.5" y="-318.5" font-family="Helvetica,sans-Serif" font-size="10.00">+ msi_info()</text>
<text text-anchor="start" x="92.5" y="-307.5" font-family="Helvetica,sans-Serif" font-size="10.00">+ control()</text>
<text text-anchor="start" x="92.5" y="-296.5" font-family="Helvetica,sans-Serif" font-size="10.00">+ mask()</text>
<text text-anchor="start" x="92.5" y="-285.5" font-family="Helvetica,sans-Serif" font-size="10.00">+ set_mode()</text>
</a>
</g>
</g>
<!-- Node3&#45;&gt;Node2 -->
<g id="edge2" class="edge">
<title>Node3&#45;&gt;Node2</title>
<path fill="none" stroke="midnightblue" d="M146.81,-268.38C149.59,-258.97 152.36,-249.55 154.95,-240.77"/>
<polygon fill="none" stroke="midnightblue" points="143.4,-267.57 143.93,-278.15 150.12,-269.55 143.4,-267.57"/>
</g>
<!-- Node4 -->
<g id="node4" class="node">
<title>Node4</title>
<g id="a_node4"><a xlink:href="classL4_1_1Kobject__t.html" target="_top" xlink:title=" ">
<polygon fill="white" stroke="black" points="0,-460.5 0,-550.5 162,-550.5 162,-460.5 0,-460.5"/>
<text text-anchor="start" x="8" y="-538.5" font-family="Helvetica,sans-Serif" font-size="10.00">L4::Kobject_t&lt; Icu,</text>
<text text-anchor="start" x="8" y="-527.5" font-family="Helvetica,sans-Serif" font-size="10.00"> Irq_eoi, L4_PROTO_IRQ,</text>
<text text-anchor="middle" x="81" y="-516.5" font-family="Helvetica,sans-Serif" font-size="10.00"> Type_info::Demand_t&lt; 1 &gt; &gt;</text>
<polyline fill="none" stroke="black" points="0,-509.5 162,-509.5 "/>
<text text-anchor="middle" x="81" y="-497.5" font-family="Helvetica,sans-Serif" font-size="10.00"> </text>
<polyline fill="none" stroke="black" points="0,-490.5 162,-490.5 "/>
<text text-anchor="start" x="8" y="-478.5" font-family="Helvetica,sans-Serif" font-size="10.00"># c()</text>
<text text-anchor="start" x="8" y="-467.5" font-family="Helvetica,sans-Serif" font-size="10.00"># __check_protocols__()</text>
</a>
</g>
</g>
<!-- Node4&#45;&gt;Node3 -->
<g id="edge3" class="edge">
<title>Node4&#45;&gt;Node3</title>
<path fill="none" stroke="midnightblue" d="M95.93,-450.24C100.23,-434.63 104.94,-417.51 109.34,-401.55"/>
<polygon fill="none" stroke="midnightblue" points="92.46,-449.68 93.18,-460.25 99.21,-451.54 92.46,-449.68"/>
</g>
<!-- Node5 -->
<g id="node5" class="node">
<title>Node5</title>
<g id="a_node5"><a xlink:href="classL4_1_1Irq__eoi.html" target="_top" xlink:title="Interface for sending an acknowledge message to an object.">
<polygon fill="white" stroke="black" points="11,-631.5 11,-688.5 85,-688.5 85,-631.5 11,-631.5"/>
<text text-anchor="middle" x="48" y="-676.5" font-family="Helvetica,sans-Serif" font-size="10.00">L4::Irq_eoi</text>
<polyline fill="none" stroke="black" points="11,-669.5 85,-669.5 "/>
<text text-anchor="middle" x="48" y="-657.5" font-family="Helvetica,sans-Serif" font-size="10.00"> </text>
<polyline fill="none" stroke="black" points="11,-650.5 85,-650.5 "/>
<text text-anchor="start" x="19" y="-638.5" font-family="Helvetica,sans-Serif" font-size="10.00">+ unmask()</text>
</a>
</g>
</g>
<!-- Node5&#45;&gt;Node4 -->
<g id="edge4" class="edge">
<title>Node5&#45;&gt;Node4</title>
<path fill="none" stroke="midnightblue" d="M52.69,-621.08C55,-604.93 58.13,-585.94 62,-569 63.36,-563.03 65,-556.8 66.73,-550.68"/>
<polygon fill="none" stroke="midnightblue" points="49.19,-620.85 51.29,-631.24 56.12,-621.81 49.19,-620.85"/>
</g>
<!-- Node6 -->
<g id="node6" class="node">
<title>Node6</title>
<g id="a_node6"><a xlink:href="classL4_1_1Kobject__t.html" target="_top" xlink:title="Helper class to create an L4Re interface class that is derived from a single base class.">
<polygon fill="white" stroke="black" points="118,-620.5 118,-699.5 274,-699.5 274,-620.5 118,-620.5"/>
<text text-anchor="start" x="126" y="-687.5" font-family="Helvetica,sans-Serif" font-size="10.00">L4::Kobject_t&lt; Derived,</text>
<text text-anchor="middle" x="196" y="-676.5" font-family="Helvetica,sans-Serif" font-size="10.00"> Base, PROTO, S_DEMAND &gt;</text>
<polyline fill="none" stroke="black" points="118,-669.5 274,-669.5 "/>
<text text-anchor="middle" x="196" y="-657.5" font-family="Helvetica,sans-Serif" font-size="10.00"> </text>
<polyline fill="none" stroke="black" points="118,-650.5 274,-650.5 "/>
<text text-anchor="start" x="126" y="-638.5" font-family="Helvetica,sans-Serif" font-size="10.00"># c()</text>
<text text-anchor="start" x="126" y="-627.5" font-family="Helvetica,sans-Serif" font-size="10.00"># __check_protocols__()</text>
</a>
</g>
</g>
<!-- Node6&#45;&gt;Node2 -->
<g id="edge6" class="edge">
<title>Node6&#45;&gt;Node2</title>
<path fill="none" stroke="orange" d="M197.38,-610.44C197.53,-597.01 197.48,-582.44 197,-569 192.71,-450.05 179.67,-310.24 172.63,-240.58"/>
<polygon fill="orange" stroke="orange" points="193.88,-610.4 197.23,-620.45 200.88,-610.5 193.88,-610.4"/>
<text text-anchor="start" x="190" y="-434" font-family="Helvetica,sans-Serif" font-size="10.00"> &lt; Event, L4::Icu, L4RE</text>
<text text-anchor="middle" x="245" y="-423" font-family="Helvetica,sans-Serif" font-size="10.00">_PROTO_EVENT &gt;</text>
</g>
<!-- Node6&#45;&gt;Node4 -->
<g id="edge5" class="edge">
<title>Node6&#45;&gt;Node4</title>
<path fill="none" stroke="orange" d="M109.11,-628.98C98.38,-621.76 88.8,-612.88 82,-602 72.59,-586.96 70.88,-567.81 72.06,-550.61"/>
<polygon fill="orange" stroke="orange" points="107.59,-632.15 117.94,-634.42 111.27,-626.2 107.59,-632.15"/>
<text text-anchor="start" x="82" y="-594" font-family="Helvetica,sans-Serif" font-size="10.00"> &lt; Icu, Irq_eoi, L4</text>
<text text-anchor="start" x="82" y="-583" font-family="Helvetica,sans-Serif" font-size="10.00">_PROTO_IRQ, Type_info</text>
<text text-anchor="middle" x="139.5" y="-572" font-family="Helvetica,sans-Serif" font-size="10.00">::Demand_t&lt; 1 &gt; &gt;</text>
</g>
</g>
</svg>
