<?xml version="1.0" encoding="UTF-8" standalone="no"?>
<!DOCTYPE svg PUBLIC "-//W3C//DTD SVG 1.1//EN"
 "http://www.w3.org/Graphics/SVG/1.1/DTD/svg11.dtd">
<!-- Generated by graphviz version 2.43.0 (0)
 -->
<!-- Title: L4Re::Video::Goos Pages: 1 -->
<svg width="273pt" height="453pt"
 viewBox="0.00 0.00 273.00 453.00" xmlns="http://www.w3.org/2000/svg" xmlns:xlink="http://www.w3.org/1999/xlink">
<g id="graph0" class="graph" transform="scale(1 1) rotate(0) translate(4 449)">
<title>L4Re::Video::Goos</title>
<polygon fill="white" stroke="transparent" points="-4,4 -4,-449 269,-449 269,4 -4,4"/>
<!-- Node1 -->
<g id="node1" class="node">
<title>Node1</title>
<g id="a_node1"><a xlink:title="A goos.">
<polygon fill="#bfbfbf" stroke="black" points="53.5,-0.5 53.5,-178.5 170.5,-178.5 170.5,-0.5 53.5,-0.5"/>
<text text-anchor="middle" x="112" y="-166.5" font-family="Helvetica,sans-Serif" font-size="10.00">L4Re::Video::Goos</text>
<polyline fill="none" stroke="black" points="53.5,-159.5 170.5,-159.5 "/>
<text text-anchor="middle" x="112" y="-147.5" font-family="Helvetica,sans-Serif" font-size="10.00"> </text>
<polyline fill="none" stroke="black" points="53.5,-140.5 170.5,-140.5 "/>
<text text-anchor="start" x="61.5" y="-128.5" font-family="Helvetica,sans-Serif" font-size="10.00">+ info()</text>
<text text-anchor="start" x="61.5" y="-117.5" font-family="Helvetica,sans-Serif" font-size="10.00">+ get_static_buffer()</text>
<text text-anchor="start" x="61.5" y="-106.5" font-family="Helvetica,sans-Serif" font-size="10.00">+ create_buffer()</text>
<text text-anchor="start" x="61.5" y="-95.5" font-family="Helvetica,sans-Serif" font-size="10.00">+ delete_buffer()</text>
<text text-anchor="start" x="61.5" y="-84.5" font-family="Helvetica,sans-Serif" font-size="10.00">+ create_view()</text>
<text text-anchor="start" x="61.5" y="-73.5" font-family="Helvetica,sans-Serif" font-size="10.00">+ delete_view()</text>
<text text-anchor="start" x="61.5" y="-62.5" font-family="Helvetica,sans-Serif" font-size="10.00">+ view()</text>
<text text-anchor="start" x="61.5" y="-51.5" font-family="Helvetica,sans-Serif" font-size="10.00">+ refresh()</text>
<text text-anchor="start" x="61.5" y="-40.5" font-family="Helvetica,sans-Serif" font-size="10.00">+ view_info()</text>
<text text-anchor="start" x="61.5" y="-29.5" font-family="Helvetica,sans-Serif" font-size="10.00">+ set_view_info()</text>
<text text-anchor="start" x="61.5" y="-18.5" font-family="Helvetica,sans-Serif" font-size="10.00">+ view_stack()</text>
<text text-anchor="start" x="61.5" y="-7.5" font-family="Helvetica,sans-Serif" font-size="10.00">+ view_refresh()</text>
</a>
</g>
</g>
<!-- Node2 -->
<g id="node2" class="node">
<title>Node2</title>
<g id="a_node2"><a xlink:href="classL4_1_1Kobject__t.html" target="_top" xlink:title=" ">
<polygon fill="white" stroke="black" points="41,-216.5 41,-306.5 183,-306.5 183,-216.5 41,-216.5"/>
<text text-anchor="start" x="49" y="-294.5" font-family="Helvetica,sans-Serif" font-size="10.00">L4::Kobject_t&lt; Goos,</text>
<text text-anchor="start" x="49" y="-283.5" font-family="Helvetica,sans-Serif" font-size="10.00"> L4::Kobject, L4RE_PROTO</text>
<text text-anchor="middle" x="112" y="-272.5" font-family="Helvetica,sans-Serif" font-size="10.00">_GOOS &gt;</text>
<polyline fill="none" stroke="black" points="41,-265.5 183,-265.5 "/>
<text text-anchor="middle" x="112" y="-253.5" font-family="Helvetica,sans-Serif" font-size="10.00"> </text>
<polyline fill="none" stroke="black" points="41,-246.5 183,-246.5 "/>
<text text-anchor="start" x="49" y="-234.5" font-family="Helvetica,sans-Serif" font-size="10.00"># c()</text>
<text text-anchor="start" x="49" y="-223.5" font-family="Helvetica,sans-Serif" font-size="10.00"># __check_protocols__()</text>
</a>
</g>
</g>
<!-- Node2&#45;&gt;Node1 -->
<g id="edge1" class="edge">
<title>Node2&#45;&gt;Node1</title>
<path fill="none" stroke="midnightblue" d="M112,-206.2C112,-197.38 112,-188.06 112,-178.69"/>
<polygon fill="none" stroke="midnightblue" points="108.5,-206.28 112,-216.28 115.5,-206.28 108.5,-206.28"/>
</g>
<!-- Node3 -->
<g id="node3" class="node">
<title>Node3</title>
<g id="a_node3"><a xlink:href="classL4_1_1Kobject.html" target="_top" xlink:title="Base class for all kinds of kernel objects and remote objects, referenced by capabilities.">
<polygon fill="white" stroke="black" points="0,-371 0,-439 86,-439 86,-371 0,-371"/>
<text text-anchor="middle" x="43" y="-427" font-family="Helvetica,sans-Serif" font-size="10.00">L4::Kobject</text>
<polyline fill="none" stroke="black" points="0,-420 86,-420 "/>
<text text-anchor="middle" x="43" y="-408" font-family="Helvetica,sans-Serif" font-size="10.00"> </text>
<polyline fill="none" stroke="black" points="0,-401 86,-401 "/>
<text text-anchor="start" x="8" y="-389" font-family="Helvetica,sans-Serif" font-size="10.00">+ dec_refcnt()</text>
<text text-anchor="start" x="8" y="-378" font-family="Helvetica,sans-Serif" font-size="10.00"># cap()</text>
</a>
</g>
</g>
<!-- Node3&#45;&gt;Node2 -->
<g id="edge2" class="edge">
<title>Node3&#45;&gt;Node2</title>
<path fill="none" stroke="midnightblue" d="M63.71,-361.52C72.15,-344.21 81.91,-324.2 90.44,-306.72"/>
<polygon fill="none" stroke="midnightblue" points="60.41,-360.3 59.18,-370.82 66.71,-363.37 60.41,-360.3"/>
</g>
<!-- Node4 -->
<g id="node4" class="node">
<title>Node4</title>
<g id="a_node4"><a xlink:href="classL4_1_1Kobject__t.html" target="_top" xlink:title="Helper class to create an L4Re interface class that is derived from a single base class.">
<polygon fill="white" stroke="black" points="104,-365.5 104,-444.5 260,-444.5 260,-365.5 104,-365.5"/>
<text text-anchor="start" x="112" y="-432.5" font-family="Helvetica,sans-Serif" font-size="10.00">L4::Kobject_t&lt; Derived,</text>
<text text-anchor="middle" x="182" y="-421.5" font-family="Helvetica,sans-Serif" font-size="10.00"> Base, PROTO, S_DEMAND &gt;</text>
<polyline fill="none" stroke="black" points="104,-414.5 260,-414.5 "/>
<text text-anchor="middle" x="182" y="-402.5" font-family="Helvetica,sans-Serif" font-size="10.00"> </text>
<polyline fill="none" stroke="black" points="104,-395.5 260,-395.5 "/>
<text text-anchor="start" x="112" y="-383.5" font-family="Helvetica,sans-Serif" font-size="10.00"># c()</text>
<text text-anchor="start" x="112" y="-372.5" font-family="Helvetica,sans-Serif" font-size="10.00"># __check_protocols__()</text>
</a>
</g>
</g>
<!-- Node4&#45;&gt;Node2 -->
<g id="edge3" class="edge">
<title>Node4&#45;&gt;Node2</title>
<path fill="none" stroke="orange" d="M158.32,-356.13C150.39,-340.11 141.6,-322.34 133.82,-306.62"/>
<polygon fill="orange" stroke="orange" points="155.3,-357.92 162.87,-365.33 161.58,-354.82 155.3,-357.92"/>
<text text-anchor="start" x="153" y="-339" font-family="Helvetica,sans-Serif" font-size="10.00"> &lt; Goos, L4::Kobject,</text>
<text text-anchor="middle" x="209" y="-328" font-family="Helvetica,sans-Serif" font-size="10.00"> L4RE_PROTO_GOOS &gt;</text>
</g>
</g>
</svg>
