<?xml version="1.0" encoding="UTF-8" standalone="no"?>
<!DOCTYPE svg PUBLIC "-//W3C//DTD SVG 1.1//EN"
 "http://www.w3.org/Graphics/SVG/1.1/DTD/svg11.dtd">
<!-- Generated by graphviz version 2.43.0 (0)
 -->
<!-- Title: L4Re::Vfs::Be_file_system Pages: 1 -->
<svg width="192pt" height="260pt"
 viewBox="0.00 0.00 192.00 260.00" xmlns="http://www.w3.org/2000/svg" xmlns:xlink="http://www.w3.org/1999/xlink">
<g id="graph0" class="graph" transform="scale(1 1) rotate(0) translate(4 256)">
<title>L4Re::Vfs::Be_file_system</title>
<polygon fill="white" stroke="transparent" points="-4,4 -4,-256 188,-256 188,4 -4,4"/>
<!-- Node1 -->
<g id="node1" class="node">
<title>Node1</title>
<g id="a_node1"><a xlink:title="Boilerplate class for implementing a L4Re::Vfs::File_system.">
<polygon fill="#bfbfbf" stroke="black" points="4.5,-0.5 4.5,-90.5 122.5,-90.5 122.5,-0.5 4.5,-0.5"/>
<text text-anchor="start" x="12.5" y="-78.5" font-family="Helvetica,sans-Serif" font-size="10.00">L4Re::Vfs::Be_file</text>
<text text-anchor="middle" x="63.5" y="-67.5" font-family="Helvetica,sans-Serif" font-size="10.00">_system</text>
<polyline fill="none" stroke="black" points="4.5,-60.5 122.5,-60.5 "/>
<text text-anchor="middle" x="63.5" y="-48.5" font-family="Helvetica,sans-Serif" font-size="10.00"> </text>
<polyline fill="none" stroke="black" points="4.5,-41.5 122.5,-41.5 "/>
<text text-anchor="start" x="12.5" y="-29.5" font-family="Helvetica,sans-Serif" font-size="10.00">+ Be_file_system()</text>
<text text-anchor="start" x="12.5" y="-18.5" font-family="Helvetica,sans-Serif" font-size="10.00">+ ~Be_file_system()</text>
<text text-anchor="start" x="12.5" y="-7.5" font-family="Helvetica,sans-Serif" font-size="10.00">+ type()</text>
</a>
</g>
</g>
<!-- Node2 -->
<g id="node2" class="node">
<title>Node2</title>
<g id="a_node2"><a xlink:href="classL4Re_1_1Vfs_1_1File__system.html" target="_top" xlink:title="Basic interface for an L4Re::Vfs file system.">
<polygon fill="white" stroke="black" points="0,-128.5 0,-251.5 127,-251.5 127,-128.5 0,-128.5"/>
<text text-anchor="middle" x="63.5" y="-239.5" font-family="Helvetica,sans-Serif" font-size="10.00">L4Re::Vfs::File_system</text>
<polyline fill="none" stroke="black" points="0,-232.5 127,-232.5 "/>
<text text-anchor="middle" x="63.5" y="-220.5" font-family="Helvetica,sans-Serif" font-size="10.00"> </text>
<polyline fill="none" stroke="black" points="0,-213.5 127,-213.5 "/>
<text text-anchor="start" x="8" y="-201.5" font-family="Helvetica,sans-Serif" font-size="10.00">+ File_system()</text>
<text text-anchor="start" x="8" y="-190.5" font-family="Helvetica,sans-Serif" font-size="10.00">+ type()</text>
<text text-anchor="start" x="8" y="-179.5" font-family="Helvetica,sans-Serif" font-size="10.00">+ mount()</text>
<text text-anchor="start" x="8" y="-168.5" font-family="Helvetica,sans-Serif" font-size="10.00">+ ~File_system()</text>
<text text-anchor="start" x="8" y="-157.5" font-family="Helvetica,sans-Serif" font-size="10.00">+ next()</text>
<text text-anchor="start" x="8" y="-146.5" font-family="Helvetica,sans-Serif" font-size="10.00">+ next()</text>
<text text-anchor="start" x="8" y="-135.5" font-family="Helvetica,sans-Serif" font-size="10.00">+ next()</text>
</a>
</g>
</g>
<!-- Node2&#45;&gt;Node1 -->
<g id="edge1" class="edge">
<title>Node2&#45;&gt;Node1</title>
<path fill="none" stroke="midnightblue" d="M63.5,-118.08C63.5,-108.77 63.5,-99.46 63.5,-90.77"/>
<polygon fill="none" stroke="midnightblue" points="60,-118.15 63.5,-128.15 67,-118.15 60,-118.15"/>
</g>
<!-- Node2&#45;&gt;Node2 -->
<g id="edge2" class="edge">
<title>Node2&#45;&gt;Node2</title>
<path fill="none" stroke="#404040" d="M127.06,-203.94C137.67,-201.99 145,-197.34 145,-190 145,-185.75 142.55,-182.41 138.43,-179.97"/>
<polygon fill="none" stroke="#404040" points="138.41,-179.96 131.43,-181.79 127.06,-176.06 134.03,-174.23 138.41,-179.96"/>
<text text-anchor="middle" x="164.5" y="-187.5" font-family="Helvetica,sans-Serif" font-size="10.00"> #_next</text>
</g>
</g>
</svg>
