<?xml version="1.0" encoding="UTF-8" standalone="no"?>
<!DOCTYPE svg PUBLIC "-//W3C//DTD SVG 1.1//EN"
 "http://www.w3.org/Graphics/SVG/1.1/DTD/svg11.dtd">
<!-- Generated by graphviz version 2.43.0 (0)
 -->
<!-- Title: cxx::Bitfield::set_unshifted Pages: 1 -->
<svg width="496pt" height="61pt"
 viewBox="0.00 0.00 496.00 61.00" xmlns="http://www.w3.org/2000/svg" xmlns:xlink="http://www.w3.org/1999/xlink">
<g id="graph0" class="graph" transform="scale(1 1) rotate(0) translate(4 57)">
<title>cxx::Bitfield::set_unshifted</title>
<polygon fill="white" stroke="transparent" points="-4,4 -4,-57 492,-57 492,4 -4,4"/>
<!-- Node1 -->
<g id="node1" class="node">
<title>Node1</title>
<g id="a_node1"><a xlink:title="Set the bits corresponding to val.">
<polygon fill="#bfbfbf" stroke="black" points="0,-0.5 0,-30.5 95,-30.5 95,-0.5 0,-0.5"/>
<text text-anchor="start" x="8" y="-18.5" font-family="Helvetica,sans-Serif" font-size="10.00">cxx::Bitfield::set</text>
<text text-anchor="middle" x="47.5" y="-7.5" font-family="Helvetica,sans-Serif" font-size="10.00">_unshifted</text>
</a>
</g>
</g>
<!-- Node2 -->
<g id="node2" class="node">
<title>Node2</title>
<g id="a_node2"><a xlink:href="classcxx_1_1Bitfield.html#ae6e85dede315b549dfec835d92525948" target="_top" xlink:title="Set the bits corresponding to val.">
<polygon fill="white" stroke="black" points="131,-22.5 131,-52.5 226,-52.5 226,-22.5 131,-22.5"/>
<text text-anchor="start" x="139" y="-40.5" font-family="Helvetica,sans-Serif" font-size="10.00">cxx::Bitfield::set</text>
<text text-anchor="middle" x="178.5" y="-29.5" font-family="Helvetica,sans-Serif" font-size="10.00">_unshifted_dirty</text>
</a>
</g>
</g>
<!-- Node1&#45;&gt;Node2 -->
<g id="edge1" class="edge">
<title>Node1&#45;&gt;Node2</title>
<path fill="none" stroke="midnightblue" d="M95.07,-23.44C103.48,-24.88 112.32,-26.38 120.97,-27.86"/>
<polygon fill="midnightblue" stroke="midnightblue" points="120.55,-31.34 131,-29.57 121.73,-24.44 120.55,-31.34"/>
</g>
<!-- Node3 -->
<g id="node3" class="node">
<title>Node3</title>
<g id="a_node3"><a xlink:href="classcxx_1_1Bitfield.html#a3384706160a84e15a283e2c639071a26" target="_top" xlink:title="Get the shifted bits for val.">
<polygon fill="white" stroke="black" points="262,-6 262,-25 357,-25 357,-6 262,-6"/>
<text text-anchor="middle" x="309.5" y="-13" font-family="Helvetica,sans-Serif" font-size="10.00">cxx::Bitfield::val</text>
</a>
</g>
</g>
<!-- Node1&#45;&gt;Node3 -->
<g id="edge5" class="edge">
<title>Node1&#45;&gt;Node3</title>
<path fill="none" stroke="midnightblue" d="M95.18,-14.17C106.88,-13.89 119.4,-13.64 131,-13.5 173.22,-12.99 183.78,-12.99 226,-13.5 234.34,-13.6 243.15,-13.76 251.79,-13.94"/>
<polygon fill="midnightblue" stroke="midnightblue" points="251.74,-17.44 261.82,-14.17 251.9,-10.45 251.74,-17.44"/>
</g>
<!-- Node2&#45;&gt;Node3 -->
<g id="edge2" class="edge">
<title>Node2&#45;&gt;Node3</title>
<path fill="none" stroke="midnightblue" d="M226.07,-29.56C234.48,-28.12 243.32,-26.62 251.97,-25.14"/>
<polygon fill="midnightblue" stroke="midnightblue" points="252.73,-28.56 262,-23.43 251.55,-21.66 252.73,-28.56"/>
</g>
<!-- Node4 -->
<g id="node4" class="node">
<title>Node4</title>
<g id="a_node4"><a xlink:href="classcxx_1_1Bitfield.html#a8180660e03ca6acf85047dba64bb77a3" target="_top" xlink:title="Get the shifted bits for val.">
<polygon fill="white" stroke="black" points="393,-0.5 393,-30.5 488,-30.5 488,-0.5 393,-0.5"/>
<text text-anchor="start" x="401" y="-18.5" font-family="Helvetica,sans-Serif" font-size="10.00">cxx::Bitfield::val</text>
<text text-anchor="middle" x="440.5" y="-7.5" font-family="Helvetica,sans-Serif" font-size="10.00">_dirty</text>
</a>
</g>
</g>
<!-- Node3&#45;&gt;Node4 -->
<g id="edge3" class="edge">
<title>Node3&#45;&gt;Node4</title>
<path fill="none" stroke="midnightblue" d="M357.07,-8.99C365.48,-8.76 374.32,-8.7 382.97,-8.8"/>
<polygon fill="midnightblue" stroke="midnightblue" points="382.93,-12.3 393,-8.99 383.07,-5.3 382.93,-12.3"/>
</g>
<!-- Node4&#45;&gt;Node3 -->
<g id="edge4" class="edge">
<title>Node4&#45;&gt;Node3</title>
<path fill="none" stroke="midnightblue" d="M393,-22.01C384.6,-22.24 375.75,-22.3 367.1,-22.2"/>
<polygon fill="midnightblue" stroke="midnightblue" points="367.14,-18.7 357.07,-22.01 367,-25.7 367.14,-18.7"/>
</g>
</g>
</svg>
