<?xml version="1.0" encoding="UTF-8" standalone="no"?>
<!DOCTYPE svg PUBLIC "-//W3C//DTD SVG 1.1//EN"
 "http://www.w3.org/Graphics/SVG/1.1/DTD/svg11.dtd">
<!-- Generated by graphviz version 2.43.0 (0)
 -->
<!-- Title: cxx::List_alloc::alloc_max Pages: 1 -->
<svg width="269pt" height="142pt"
 viewBox="0.00 0.00 269.00 142.00" xmlns="http://www.w3.org/2000/svg" xmlns:xlink="http://www.w3.org/1999/xlink">
<g id="graph0" class="graph" transform="scale(1 1) rotate(0) translate(4 138)">
<title>cxx::List_alloc::alloc_max</title>
<polygon fill="white" stroke="transparent" points="-4,4 -4,-138 265,-138 265,4 -4,4"/>
<!-- Node1 -->
<g id="node1" class="node">
<title>Node1</title>
<g id="a_node1"><a xlink:title="Allocate a memory block of min &lt;= size &lt;= max.">
<polygon fill="#bfbfbf" stroke="black" points="0,-57.5 0,-76.5 142,-76.5 142,-57.5 0,-57.5"/>
<text text-anchor="middle" x="71" y="-64.5" font-family="Helvetica,sans-Serif" font-size="10.00">cxx::List_alloc::alloc_max</text>
</a>
</g>
</g>
<!-- Node2 -->
<g id="node2" class="node">
<title>Node2</title>
<g id="a_node2"><a xlink:href="group__l4__memory__api.html#gae876a4c6e0f21b2ecbf17863dc7d11e4" target="_top" xlink:title="Round value up to the next alignment with bits size.">
<polygon fill="white" stroke="black" points="178,-114.5 178,-133.5 261,-133.5 261,-114.5 178,-114.5"/>
<text text-anchor="middle" x="219.5" y="-121.5" font-family="Helvetica,sans-Serif" font-size="10.00">l4_round_size</text>
</a>
</g>
</g>
<!-- Node1&#45;&gt;Node2 -->
<g id="edge1" class="edge">
<title>Node1&#45;&gt;Node2</title>
<path fill="none" stroke="midnightblue" d="M96.52,-76.54C120.61,-85.91 157.56,-100.29 184.48,-110.76"/>
<polygon fill="midnightblue" stroke="midnightblue" points="183.31,-114.06 193.9,-114.43 185.85,-107.54 183.31,-114.06"/>
</g>
<!-- Node3 -->
<g id="node3" class="node">
<title>Node3</title>
<g id="a_node3"><a xlink:href="group__l4__memory__api.html#ga792959ba1e87fecf90018876f32d7bc9" target="_top" xlink:title="Round an address down to the next lower flex page with size bits.">
<polygon fill="white" stroke="black" points="179.5,-76.5 179.5,-95.5 259.5,-95.5 259.5,-76.5 179.5,-76.5"/>
<text text-anchor="middle" x="219.5" y="-83.5" font-family="Helvetica,sans-Serif" font-size="10.00">l4_trunc_size</text>
</a>
</g>
</g>
<!-- Node1&#45;&gt;Node3 -->
<g id="edge2" class="edge">
<title>Node1&#45;&gt;Node3</title>
<path fill="none" stroke="midnightblue" d="M142.25,-76.11C151.43,-77.3 160.68,-78.5 169.41,-79.63"/>
<polygon fill="midnightblue" stroke="midnightblue" points="169.02,-83.11 179.39,-80.93 169.92,-76.17 169.02,-83.11"/>
</g>
<!-- Node4 -->
<g id="node4" class="node">
<title>Node4</title>
<g id="a_node4"><a xlink:href="group__cxx__api.html#ga1d7a566ab5b06016155d693f91a7ee2d" target="_top" xlink:title="Get the maximum of a and b.">
<polygon fill="white" stroke="black" points="188.5,-38.5 188.5,-57.5 250.5,-57.5 250.5,-38.5 188.5,-38.5"/>
<text text-anchor="middle" x="219.5" y="-45.5" font-family="Helvetica,sans-Serif" font-size="10.00">cxx::max</text>
</a>
</g>
</g>
<!-- Node1&#45;&gt;Node4 -->
<g id="edge3" class="edge">
<title>Node1&#45;&gt;Node4</title>
<path fill="none" stroke="midnightblue" d="M142.25,-57.89C154.49,-56.3 166.84,-54.7 177.94,-53.26"/>
<polygon fill="midnightblue" stroke="midnightblue" points="178.68,-56.69 188.15,-51.94 177.78,-49.75 178.68,-56.69"/>
</g>
<!-- Node5 -->
<g id="node5" class="node">
<title>Node5</title>
<g id="a_node5"><a xlink:href="group__cxx__api.html#ga0bd9662898a7499fcd3feefe594a699b" target="_top" xlink:title="Get the minimum of a and b.">
<polygon fill="white" stroke="black" points="190,-0.5 190,-19.5 249,-19.5 249,-0.5 190,-0.5"/>
<text text-anchor="middle" x="219.5" y="-7.5" font-family="Helvetica,sans-Serif" font-size="10.00">cxx::min</text>
</a>
</g>
</g>
<!-- Node1&#45;&gt;Node5 -->
<g id="edge4" class="edge">
<title>Node1&#45;&gt;Node5</title>
<path fill="none" stroke="midnightblue" d="M96.52,-57.46C120.61,-48.09 157.56,-33.71 184.48,-23.24"/>
<polygon fill="midnightblue" stroke="midnightblue" points="185.85,-26.46 193.9,-19.57 183.31,-19.94 185.85,-26.46"/>
</g>
</g>
</svg>
