<?xml version="1.0" encoding="UTF-8" standalone="no"?>
<!DOCTYPE svg PUBLIC "-//W3C//DTD SVG 1.1//EN"
 "http://www.w3.org/Graphics/SVG/1.1/DTD/svg11.dtd">
<!-- Generated by graphviz version 2.43.0 (0)
 -->
<!-- Title: L4::Server&lt; LOOP_HOOKS &gt; Pages: 1 -->
<svg width="542pt" height="579pt"
 viewBox="0.00 0.00 542.00 579.00" xmlns="http://www.w3.org/2000/svg" xmlns:xlink="http://www.w3.org/1999/xlink">
<g id="graph0" class="graph" transform="scale(1 1) rotate(0) translate(4 575)">
<title>L4::Server&lt; LOOP_HOOKS &gt;</title>
<polygon fill="white" stroke="transparent" points="-4,4 -4,-575 538,-575 538,4 -4,4"/>
<!-- Node1 -->
<g id="node1" class="node">
<title>Node1</title>
<g id="a_node1"><a xlink:title="Basic server loop for handling client requests.">
<polygon fill="#bfbfbf" stroke="black" points="169,-0.5 169,-101.5 324,-101.5 324,-0.5 169,-0.5"/>
<text text-anchor="middle" x="246.5" y="-89.5" font-family="Helvetica,sans-Serif" font-size="10.00">L4::Server&lt; LOOP_HOOKS &gt;</text>
<polyline fill="none" stroke="black" points="169,-82.5 324,-82.5 "/>
<text text-anchor="start" x="177" y="-70.5" font-family="Helvetica,sans-Serif" font-size="10.00">+ _utcb</text>
<polyline fill="none" stroke="black" points="169,-63.5 324,-63.5 "/>
<text text-anchor="start" x="177" y="-51.5" font-family="Helvetica,sans-Serif" font-size="10.00">+ Server()</text>
<text text-anchor="start" x="177" y="-40.5" font-family="Helvetica,sans-Serif" font-size="10.00">+ internal_loop()</text>
<text text-anchor="start" x="177" y="-29.5" font-family="Helvetica,sans-Serif" font-size="10.00">+ loop_noexc()</text>
<text text-anchor="start" x="177" y="-18.5" font-family="Helvetica,sans-Serif" font-size="10.00">+ loop()</text>
<text text-anchor="start" x="177" y="-7.5" font-family="Helvetica,sans-Serif" font-size="10.00"># reply_n_wait()</text>
</a>
</g>
</g>
<!-- Node2 -->
<g id="node2" class="node">
<title>Node2</title>
<g id="a_node2"><a xlink:href="structL4_1_1Ipc__svr_1_1Default__loop__hooks.html" target="_top" xlink:title="Default LOOP_HOOKS.">
<polygon fill="white" stroke="black" points="191.5,-138.5 191.5,-206.5 301.5,-206.5 301.5,-138.5 191.5,-138.5"/>
<text text-anchor="start" x="199.5" y="-194.5" font-family="Helvetica,sans-Serif" font-size="10.00">L4::Ipc_svr::Default</text>
<text text-anchor="middle" x="246.5" y="-183.5" font-family="Helvetica,sans-Serif" font-size="10.00">_loop_hooks</text>
<polyline fill="none" stroke="black" points="191.5,-176.5 301.5,-176.5 "/>
<text text-anchor="middle" x="246.5" y="-164.5" font-family="Helvetica,sans-Serif" font-size="10.00"> </text>
<polyline fill="none" stroke="black" points="191.5,-157.5 301.5,-157.5 "/>
<text text-anchor="middle" x="246.5" y="-145.5" font-family="Helvetica,sans-Serif" font-size="10.00"> </text>
</a>
</g>
</g>
<!-- Node2&#45;&gt;Node1 -->
<g id="edge1" class="edge">
<title>Node2&#45;&gt;Node1</title>
<path fill="none" stroke="midnightblue" d="M246.5,-128.05C246.5,-119.47 246.5,-110.41 246.5,-101.65"/>
<polygon fill="none" stroke="midnightblue" points="243,-128.21 246.5,-138.21 250,-128.21 243,-128.21"/>
</g>
<!-- Node3 -->
<g id="node3" class="node">
<title>Node3</title>
<g id="a_node3"><a xlink:href="structL4_1_1Ipc__svr_1_1Ignore__errors.html" target="_top" xlink:title="Mix in for LOOP_HOOKS to ignore IPC errors.">
<polygon fill="white" stroke="black" points="0,-276.5 0,-344.5 105,-344.5 105,-276.5 0,-276.5"/>
<text text-anchor="start" x="8" y="-332.5" font-family="Helvetica,sans-Serif" font-size="10.00">L4::Ipc_svr::Ignore</text>
<text text-anchor="middle" x="52.5" y="-321.5" font-family="Helvetica,sans-Serif" font-size="10.00">_errors</text>
<polyline fill="none" stroke="black" points="0,-314.5 105,-314.5 "/>
<text text-anchor="middle" x="52.5" y="-302.5" font-family="Helvetica,sans-Serif" font-size="10.00"> </text>
<polyline fill="none" stroke="black" points="0,-295.5 105,-295.5 "/>
<text text-anchor="start" x="8" y="-283.5" font-family="Helvetica,sans-Serif" font-size="10.00">+ error()</text>
</a>
</g>
</g>
<!-- Node3&#45;&gt;Node2 -->
<g id="edge2" class="edge">
<title>Node3&#45;&gt;Node2</title>
<path fill="none" stroke="midnightblue" d="M86.51,-268.64C95.11,-259.6 104.7,-250.49 114.5,-243 137.96,-225.07 166.7,-209.33 191.37,-197.38"/>
<polygon fill="none" stroke="midnightblue" points="83.75,-266.47 79.54,-276.19 88.9,-271.22 83.75,-266.47"/>
</g>
<!-- Node4 -->
<g id="node4" class="node">
<title>Node4</title>
<g id="a_node4"><a xlink:href="structL4_1_1Ipc__svr_1_1Default__timeout.html" target="_top" xlink:title="Mix in for LOOP_HOOKS to use a 0 send and a infinite receive timeout.">
<polygon fill="white" stroke="black" points="123.5,-276.5 123.5,-344.5 233.5,-344.5 233.5,-276.5 123.5,-276.5"/>
<text text-anchor="start" x="131.5" y="-332.5" font-family="Helvetica,sans-Serif" font-size="10.00">L4::Ipc_svr::Default</text>
<text text-anchor="middle" x="178.5" y="-321.5" font-family="Helvetica,sans-Serif" font-size="10.00">_timeout</text>
<polyline fill="none" stroke="black" points="123.5,-314.5 233.5,-314.5 "/>
<text text-anchor="middle" x="178.5" y="-302.5" font-family="Helvetica,sans-Serif" font-size="10.00"> </text>
<polyline fill="none" stroke="black" points="123.5,-295.5 233.5,-295.5 "/>
<text text-anchor="start" x="131.5" y="-283.5" font-family="Helvetica,sans-Serif" font-size="10.00">+ timeout()</text>
</a>
</g>
</g>
<!-- Node4&#45;&gt;Node2 -->
<g id="edge3" class="edge">
<title>Node4&#45;&gt;Node2</title>
<path fill="none" stroke="midnightblue" d="M199.61,-267.28C209.33,-247.84 220.69,-225.11 229.8,-206.9"/>
<polygon fill="none" stroke="midnightblue" points="196.48,-265.72 195.13,-276.23 202.74,-268.85 196.48,-265.72"/>
</g>
<!-- Node5 -->
<g id="node5" class="node">
<title>Node5</title>
<g id="a_node5"><a xlink:href="structL4_1_1Ipc__svr_1_1Compound__reply.html" target="_top" xlink:title="Mix in for LOOP_HOOKS to always use compound reply and wait.">
<polygon fill="white" stroke="black" points="252,-276.5 252,-344.5 379,-344.5 379,-276.5 252,-276.5"/>
<text text-anchor="start" x="260" y="-332.5" font-family="Helvetica,sans-Serif" font-size="10.00">L4::Ipc_svr::Compound</text>
<text text-anchor="middle" x="315.5" y="-321.5" font-family="Helvetica,sans-Serif" font-size="10.00">_reply</text>
<polyline fill="none" stroke="black" points="252,-314.5 379,-314.5 "/>
<text text-anchor="middle" x="315.5" y="-302.5" font-family="Helvetica,sans-Serif" font-size="10.00"> </text>
<polyline fill="none" stroke="black" points="252,-295.5 379,-295.5 "/>
<text text-anchor="start" x="260" y="-283.5" font-family="Helvetica,sans-Serif" font-size="10.00">+ before_reply()</text>
</a>
</g>
</g>
<!-- Node5&#45;&gt;Node2 -->
<g id="edge4" class="edge">
<title>Node5&#45;&gt;Node2</title>
<path fill="none" stroke="midnightblue" d="M294.08,-267.28C284.22,-247.84 272.69,-225.11 263.44,-206.9"/>
<polygon fill="none" stroke="midnightblue" points="290.97,-268.9 298.62,-276.23 297.22,-265.73 290.97,-268.9"/>
</g>
<!-- Node6 -->
<g id="node6" class="node">
<title>Node6</title>
<g id="a_node6"><a xlink:href="classL4_1_1Ipc__svr_1_1Br__manager__no__buffers.html" target="_top" xlink:title="Empty implementation of Server_iface.">
<polygon fill="white" stroke="black" points="397,-243.5 397,-377.5 534,-377.5 534,-243.5 397,-243.5"/>
<text text-anchor="start" x="405" y="-365.5" font-family="Helvetica,sans-Serif" font-size="10.00">L4::Ipc_svr::Br_manager</text>
<text text-anchor="middle" x="465.5" y="-354.5" font-family="Helvetica,sans-Serif" font-size="10.00">_no_buffers</text>
<polyline fill="none" stroke="black" points="397,-347.5 534,-347.5 "/>
<text text-anchor="middle" x="465.5" y="-335.5" font-family="Helvetica,sans-Serif" font-size="10.00"> </text>
<polyline fill="none" stroke="black" points="397,-328.5 534,-328.5 "/>
<text text-anchor="start" x="405" y="-316.5" font-family="Helvetica,sans-Serif" font-size="10.00">+ alloc_buffer_demand()</text>
<text text-anchor="start" x="405" y="-305.5" font-family="Helvetica,sans-Serif" font-size="10.00">+ get_rcv_cap()</text>
<text text-anchor="start" x="405" y="-294.5" font-family="Helvetica,sans-Serif" font-size="10.00">+ realloc_rcv_cap()</text>
<text text-anchor="start" x="405" y="-283.5" font-family="Helvetica,sans-Serif" font-size="10.00">+ add_timeout()</text>
<text text-anchor="start" x="405" y="-272.5" font-family="Helvetica,sans-Serif" font-size="10.00">+ remove_timeout()</text>
<text text-anchor="start" x="405" y="-261.5" font-family="Helvetica,sans-Serif" font-size="10.00"># first_free_br()</text>
<text text-anchor="start" x="405" y="-250.5" font-family="Helvetica,sans-Serif" font-size="10.00"># setup_wait()</text>
</a>
</g>
</g>
<!-- Node6&#45;&gt;Node2 -->
<g id="edge5" class="edge">
<title>Node6&#45;&gt;Node2</title>
<path fill="none" stroke="midnightblue" d="M388.76,-243.17C388.68,-243.12 388.59,-243.06 388.5,-243 361.25,-225 328.65,-208.71 301.56,-196.44"/>
<polygon fill="none" stroke="midnightblue" points="386.69,-246 396.91,-248.8 390.67,-240.24 386.69,-246"/>
</g>
<!-- Node7 -->
<g id="node7" class="node">
<title>Node7</title>
<g id="a_node7"><a xlink:href="classL4_1_1Ipc__svr_1_1Server__iface.html" target="_top" xlink:title="Interface for server&#45;loop related functions.">
<polygon fill="white" stroke="black" points="397,-414.5 397,-570.5 534,-570.5 534,-414.5 397,-414.5"/>
<text text-anchor="start" x="405" y="-558.5" font-family="Helvetica,sans-Serif" font-size="10.00">L4::Ipc_svr::Server</text>
<text text-anchor="middle" x="465.5" y="-547.5" font-family="Helvetica,sans-Serif" font-size="10.00">_iface</text>
<polyline fill="none" stroke="black" points="397,-540.5 534,-540.5 "/>
<text text-anchor="middle" x="465.5" y="-528.5" font-family="Helvetica,sans-Serif" font-size="10.00"> </text>
<polyline fill="none" stroke="black" points="397,-521.5 534,-521.5 "/>
<text text-anchor="start" x="405" y="-509.5" font-family="Helvetica,sans-Serif" font-size="10.00">+ Server_iface()</text>
<text text-anchor="start" x="405" y="-498.5" font-family="Helvetica,sans-Serif" font-size="10.00">+ ~Server_iface()</text>
<text text-anchor="start" x="405" y="-487.5" font-family="Helvetica,sans-Serif" font-size="10.00">+ alloc_buffer_demand()</text>
<text text-anchor="start" x="405" y="-476.5" font-family="Helvetica,sans-Serif" font-size="10.00">+ get_rcv_cap()</text>
<text text-anchor="start" x="405" y="-465.5" font-family="Helvetica,sans-Serif" font-size="10.00">+ realloc_rcv_cap()</text>
<text text-anchor="start" x="405" y="-454.5" font-family="Helvetica,sans-Serif" font-size="10.00">+ add_timeout()</text>
<text text-anchor="start" x="405" y="-443.5" font-family="Helvetica,sans-Serif" font-size="10.00">+ remove_timeout()</text>
<text text-anchor="start" x="405" y="-432.5" font-family="Helvetica,sans-Serif" font-size="10.00">+ rcv_cap()</text>
<text text-anchor="start" x="405" y="-421.5" font-family="Helvetica,sans-Serif" font-size="10.00">+ rcv_cap()</text>
</a>
</g>
</g>
<!-- Node7&#45;&gt;Node6 -->
<g id="edge6" class="edge">
<title>Node7&#45;&gt;Node6</title>
<path fill="none" stroke="midnightblue" d="M465.5,-404.31C465.5,-395.36 465.5,-386.37 465.5,-377.69"/>
<polygon fill="none" stroke="midnightblue" points="462,-404.38 465.5,-414.38 469,-404.38 462,-404.38"/>
</g>
</g>
</svg>
