<?xml version="1.0" encoding="UTF-8" standalone="no"?>
<!DOCTYPE svg PUBLIC "-//W3C//DTD SVG 1.1//EN"
 "http://www.w3.org/Graphics/SVG/1.1/DTD/svg11.dtd">
<!-- Generated by graphviz version 2.43.0 (0)
 -->
<!-- Title: L4Re::Cap_alloc::get_cap_alloc Pages: 1 -->
<svg width="283pt" height="66pt"
 viewBox="0.00 0.00 283.00 66.00" xmlns="http://www.w3.org/2000/svg" xmlns:xlink="http://www.w3.org/1999/xlink">
<g id="graph0" class="graph" transform="scale(1 1) rotate(0) translate(4 62)">
<title>L4Re::Cap_alloc::get_cap_alloc</title>
<polygon fill="white" stroke="transparent" points="-4,4 -4,-62 279,-62 279,4 -4,4"/>
<!-- Node1 -->
<g id="node1" class="node">
<title>Node1</title>
<g id="a_node1"><a xlink:title="Construct an instance of a capability allocator.">
<polygon fill="#bfbfbf" stroke="black" points="0,-14 0,-44 116,-44 116,-14 0,-14"/>
<text text-anchor="start" x="8" y="-32" font-family="Helvetica,sans-Serif" font-size="10.00">L4Re::Cap_alloc::get</text>
<text text-anchor="middle" x="58" y="-21" font-family="Helvetica,sans-Serif" font-size="10.00">_cap_alloc</text>
</a>
</g>
</g>
<!-- Node2 -->
<g id="node2" class="node">
<title>Node2</title>
<g id="a_node2"><a xlink:href="classL4Re_1_1Cap__alloc.html#a23f35ffafa315ea6745e7fb781524c28" target="_top" xlink:title="Allocate a capability.">
<polygon fill="white" stroke="black" points="152,-38.5 152,-57.5 275,-57.5 275,-38.5 152,-38.5"/>
<text text-anchor="middle" x="213.5" y="-45.5" font-family="Helvetica,sans-Serif" font-size="10.00">L4Re::Cap_alloc::alloc</text>
</a>
</g>
</g>
<!-- Node1&#45;&gt;Node2 -->
<g id="edge1" class="edge">
<title>Node1&#45;&gt;Node2</title>
<path fill="none" stroke="midnightblue" d="M116.16,-36.07C124.55,-37.11 133.28,-38.19 141.9,-39.26"/>
<polygon fill="midnightblue" stroke="midnightblue" points="141.6,-42.75 151.95,-40.51 142.46,-35.8 141.6,-42.75"/>
</g>
<!-- Node3 -->
<g id="node3" class="node">
<title>Node3</title>
<g id="a_node3"><a xlink:href="classL4Re_1_1Cap__alloc.html#ad8e36ca35881e1bc7ec3ff12e3956f10" target="_top" xlink:title="Free a capability.">
<polygon fill="white" stroke="black" points="154,-0.5 154,-19.5 273,-19.5 273,-0.5 154,-0.5"/>
<text text-anchor="middle" x="213.5" y="-7.5" font-family="Helvetica,sans-Serif" font-size="10.00">L4Re::Cap_alloc::free</text>
</a>
</g>
</g>
<!-- Node1&#45;&gt;Node3 -->
<g id="edge2" class="edge">
<title>Node1&#45;&gt;Node3</title>
<path fill="none" stroke="midnightblue" d="M116.16,-21.93C125.17,-20.81 134.57,-19.65 143.81,-18.5"/>
<polygon fill="midnightblue" stroke="midnightblue" points="144.26,-21.97 153.76,-17.27 143.4,-15.03 144.26,-21.97"/>
</g>
</g>
</svg>
