<?xml version="1.0" encoding="UTF-8" standalone="no"?>
<!DOCTYPE svg PUBLIC "-//W3C//DTD SVG 1.1//EN"
 "http://www.w3.org/Graphics/SVG/1.1/DTD/svg11.dtd">
<!-- Generated by graphviz version 2.43.0 (0)
 -->
<!-- Title: L4::Server::internal_loop Pages: 1 -->
<svg width="307pt" height="66pt"
 viewBox="0.00 0.00 307.00 66.00" xmlns="http://www.w3.org/2000/svg" xmlns:xlink="http://www.w3.org/1999/xlink">
<g id="graph0" class="graph" transform="scale(1 1) rotate(0) translate(4 62)">
<title>L4::Server::internal_loop</title>
<polygon fill="white" stroke="transparent" points="-4,4 -4,-62 303,-62 303,4 -4,4"/>
<!-- Node1 -->
<g id="node1" class="node">
<title>Node1</title>
<g id="a_node1"><a xlink:title="The server loop.">
<polygon fill="#bfbfbf" stroke="black" points="0,-19.5 0,-38.5 135,-38.5 135,-19.5 0,-19.5"/>
<text text-anchor="middle" x="67.5" y="-26.5" font-family="Helvetica,sans-Serif" font-size="10.00">L4::Server::internal_loop</text>
</a>
</g>
</g>
<!-- Node2 -->
<g id="node2" class="node">
<title>Node2</title>
<g id="a_node2"><a xlink:href="structl4__msgtag__t.html#a09c8212b870e6c144fd072dbde5b5262" target="_top" xlink:title="Test if flags indicate an error.">
<polygon fill="white" stroke="black" points="171,-38.5 171,-57.5 299,-57.5 299,-38.5 171,-38.5"/>
<text text-anchor="middle" x="235" y="-45.5" font-family="Helvetica,sans-Serif" font-size="10.00">l4_msgtag_t::has_error</text>
</a>
</g>
</g>
<!-- Node1&#45;&gt;Node2 -->
<g id="edge1" class="edge">
<title>Node1&#45;&gt;Node2</title>
<path fill="none" stroke="midnightblue" d="M135.34,-36.67C143.69,-37.63 152.27,-38.62 160.72,-39.59"/>
<polygon fill="midnightblue" stroke="midnightblue" points="160.6,-43.1 170.93,-40.76 161.4,-36.14 160.6,-43.1"/>
</g>
<!-- Node3 -->
<g id="node3" class="node">
<title>Node3</title>
<g id="a_node3"><a xlink:href="group__l4__msgtag__api.html#ga661d71acad9d096fa990f7c94943bc78" target="_top" xlink:title="Create a message tag from the specified values.">
<polygon fill="white" stroke="black" points="201,-0.5 201,-19.5 269,-19.5 269,-0.5 201,-0.5"/>
<text text-anchor="middle" x="235" y="-7.5" font-family="Helvetica,sans-Serif" font-size="10.00">l4_msgtag</text>
</a>
</g>
</g>
<!-- Node1&#45;&gt;Node3 -->
<g id="edge2" class="edge">
<title>Node1&#45;&gt;Node3</title>
<path fill="none" stroke="midnightblue" d="M135.34,-21.33C153.91,-19.19 173.6,-16.93 190.46,-15"/>
<polygon fill="midnightblue" stroke="midnightblue" points="191.02,-18.46 200.55,-13.84 190.22,-11.5 191.02,-18.46"/>
</g>
</g>
</svg>
