<?xml version="1.0" encoding="UTF-8" standalone="no"?>
<!DOCTYPE svg PUBLIC "-//W3C//DTD SVG 1.1//EN"
 "http://www.w3.org/Graphics/SVG/1.1/DTD/svg11.dtd">
<!-- Generated by graphviz version 2.43.0 (0)
 -->
<!-- Title: L4virtio::Driver::Device::wait_for_next_used Pages: 1 -->
<svg width="581pt" height="102pt"
 viewBox="0.00 0.00 581.00 101.50" xmlns="http://www.w3.org/2000/svg" xmlns:xlink="http://www.w3.org/1999/xlink">
<g id="graph0" class="graph" transform="scale(1 1) rotate(0) translate(4 97.5)">
<title>L4virtio::Driver::Device::wait_for_next_used</title>
<polygon fill="white" stroke="transparent" points="-4,4 -4,-97.5 577,-97.5 577,4 -4,4"/>
<!-- Node1 -->
<g id="node1" class="node">
<title>Node1</title>
<g id="a_node1"><a xlink:title="Wait for the next item to arrive in the used queue and return it.">
<polygon fill="#bfbfbf" stroke="black" points="0,-38 0,-68 129,-68 129,-38 0,-38"/>
<text text-anchor="start" x="8" y="-56" font-family="Helvetica,sans-Serif" font-size="10.00">L4virtio::Driver::Device</text>
<text text-anchor="middle" x="64.5" y="-45" font-family="Helvetica,sans-Serif" font-size="10.00">::wait_for_next_used</text>
</a>
</g>
</g>
<!-- Node2 -->
<g id="node2" class="node">
<title>Node2</title>
<g id="a_node2"><a xlink:href="classL4virtio_1_1Driver_1_1Virtqueue.html#a6d320be956d592d0a064fb89c5a69ba5" target="_top" xlink:title="Return the next finished block.">
<polygon fill="white" stroke="black" points="165,-63 165,-93 308,-93 308,-63 165,-63"/>
<text text-anchor="start" x="173" y="-81" font-family="Helvetica,sans-Serif" font-size="10.00">L4virtio::Driver::Virtqueue</text>
<text text-anchor="middle" x="236.5" y="-70" font-family="Helvetica,sans-Serif" font-size="10.00">::find_next_used</text>
</a>
</g>
</g>
<!-- Node1&#45;&gt;Node2 -->
<g id="edge1" class="edge">
<title>Node1&#45;&gt;Node2</title>
<path fill="none" stroke="midnightblue" d="M129.29,-62.38C137.61,-63.61 146.23,-64.87 154.8,-66.13"/>
<polygon fill="midnightblue" stroke="midnightblue" points="154.4,-69.61 164.8,-67.6 155.41,-62.68 154.4,-69.61"/>
</g>
<!-- Node3 -->
<g id="node3" class="node">
<title>Node3</title>
<g id="a_node3"><a xlink:href="classL4virtio_1_1Driver_1_1Device.html#a05a02d57ddf646f029311ca8a63f4081" target="_top" xlink:title="Wait for a notification from the device.">
<polygon fill="white" stroke="black" points="172,-14 172,-44 301,-44 301,-14 172,-14"/>
<text text-anchor="start" x="180" y="-32" font-family="Helvetica,sans-Serif" font-size="10.00">L4virtio::Driver::Device</text>
<text text-anchor="middle" x="236.5" y="-21" font-family="Helvetica,sans-Serif" font-size="10.00">::wait</text>
</a>
</g>
</g>
<!-- Node1&#45;&gt;Node3 -->
<g id="edge2" class="edge">
<title>Node1&#45;&gt;Node3</title>
<path fill="none" stroke="midnightblue" d="M129.29,-44C139.96,-42.49 151.11,-40.91 162.01,-39.38"/>
<polygon fill="midnightblue" stroke="midnightblue" points="162.51,-42.84 171.92,-37.98 161.53,-35.91 162.51,-42.84"/>
</g>
<!-- Node4 -->
<g id="node4" class="node">
<title>Node4</title>
<g id="a_node4"><a xlink:href="group__l4__ipc__err__api.html#gad40f404217497793e95a10d77a47db39" target="_top" xlink:title="Get the error code for an object invocation.">
<polygon fill="white" stroke="black" points="344,-38.5 344,-57.5 418,-57.5 418,-38.5 344,-38.5"/>
<text text-anchor="middle" x="381" y="-45.5" font-family="Helvetica,sans-Serif" font-size="10.00">l4_ipc_error</text>
</a>
</g>
</g>
<!-- Node3&#45;&gt;Node4 -->
<g id="edge3" class="edge">
<title>Node3&#45;&gt;Node4</title>
<path fill="none" stroke="midnightblue" d="M301.25,-37.5C312.14,-38.95 323.27,-40.44 333.6,-41.81"/>
<polygon fill="midnightblue" stroke="midnightblue" points="333.26,-45.3 343.63,-43.15 334.18,-38.36 333.26,-45.3"/>
</g>
<!-- Node6 -->
<g id="node6" class="node">
<title>Node6</title>
<g id="a_node6"><a xlink:href="group__l4__utcb__api.html#gadc099b4a59e1d99638c72c11a8c8b644" target="_top" xlink:title="Get the UTCB address.">
<polygon fill="white" stroke="black" points="355,-0.5 355,-19.5 407,-19.5 407,-0.5 355,-0.5"/>
<text text-anchor="middle" x="381" y="-7.5" font-family="Helvetica,sans-Serif" font-size="10.00">l4_utcb</text>
</a>
</g>
</g>
<!-- Node3&#45;&gt;Node6 -->
<g id="edge5" class="edge">
<title>Node3&#45;&gt;Node6</title>
<path fill="none" stroke="midnightblue" d="M301.25,-20.5C316.22,-18.5 331.63,-16.45 344.81,-14.69"/>
<polygon fill="midnightblue" stroke="midnightblue" points="345.4,-18.14 354.85,-13.35 344.48,-11.21 345.4,-18.14"/>
</g>
<!-- Node5 -->
<g id="node5" class="node">
<title>Node5</title>
<g id="a_node5"><a xlink:href="group__l4__msgtag__api.html#ga52e71bb66855f4d78fa5c82b5f0c5a87" target="_top" xlink:title="Test for error indicator flag.">
<polygon fill="white" stroke="black" points="454,-38.5 454,-57.5 573,-57.5 573,-38.5 454,-38.5"/>
<text text-anchor="middle" x="513.5" y="-45.5" font-family="Helvetica,sans-Serif" font-size="10.00">l4_msgtag_has_error</text>
</a>
</g>
</g>
<!-- Node4&#45;&gt;Node5 -->
<g id="edge4" class="edge">
<title>Node4&#45;&gt;Node5</title>
<path fill="none" stroke="midnightblue" d="M418.01,-48C425.92,-48 434.56,-48 443.3,-48"/>
<polygon fill="midnightblue" stroke="midnightblue" points="443.56,-51.5 453.56,-48 443.56,-44.5 443.56,-51.5"/>
</g>
</g>
</svg>
