<?xml version="1.0" encoding="UTF-8" standalone="no"?>
<!DOCTYPE svg PUBLIC "-//W3C//DTD SVG 1.1//EN"
 "http://www.w3.org/Graphics/SVG/1.1/DTD/svg11.dtd">
<!-- Generated by graphviz version 2.43.0 (0)
 -->
<!-- Title: cxx::Slab&lt; Type, Slab_size, Max_free, Alloc &gt; Pages: 1 -->
<svg width="227pt" height="464pt"
 viewBox="0.00 0.00 227.00 464.00" xmlns="http://www.w3.org/2000/svg" xmlns:xlink="http://www.w3.org/1999/xlink">
<g id="graph0" class="graph" transform="scale(1 1) rotate(0) translate(4 460)">
<title>cxx::Slab&lt; Type, Slab_size, Max_free, Alloc &gt;</title>
<polygon fill="white" stroke="transparent" points="-4,4 -4,-460 223,-460 223,4 -4,4"/>
<!-- Node1 -->
<g id="node1" class="node">
<title>Node1</title>
<g id="a_node1"><a xlink:title="Slab allocator for object of type Type.">
<polygon fill="#bfbfbf" stroke="black" points="0,-0.5 0,-90.5 134,-90.5 134,-0.5 0,-0.5"/>
<text text-anchor="start" x="8" y="-78.5" font-family="Helvetica,sans-Serif" font-size="10.00">cxx::Slab&lt; Type, Slab</text>
<text text-anchor="middle" x="67" y="-67.5" font-family="Helvetica,sans-Serif" font-size="10.00">_size, Max_free, Alloc &gt;</text>
<polyline fill="none" stroke="black" points="0,-60.5 134,-60.5 "/>
<text text-anchor="middle" x="67" y="-48.5" font-family="Helvetica,sans-Serif" font-size="10.00"> </text>
<polyline fill="none" stroke="black" points="0,-41.5 134,-41.5 "/>
<text text-anchor="start" x="8" y="-29.5" font-family="Helvetica,sans-Serif" font-size="10.00">+ Slab()</text>
<text text-anchor="start" x="8" y="-18.5" font-family="Helvetica,sans-Serif" font-size="10.00">+ alloc()</text>
<text text-anchor="start" x="8" y="-7.5" font-family="Helvetica,sans-Serif" font-size="10.00">+ free()</text>
</a>
</g>
</g>
<!-- Node2 -->
<g id="node2" class="node">
<title>Node2</title>
<g id="a_node2"><a xlink:href="classcxx_1_1Base__slab.html" target="_top" xlink:title=" ">
<polygon fill="white" stroke="black" points="1.5,-128.5 1.5,-262.5 132.5,-262.5 132.5,-128.5 1.5,-128.5"/>
<text text-anchor="start" x="9.5" y="-250.5" font-family="Helvetica,sans-Serif" font-size="10.00">cxx::Base_slab&lt; sizeof</text>
<text text-anchor="start" x="9.5" y="-239.5" font-family="Helvetica,sans-Serif" font-size="10.00">(Type), L4_PAGESIZE, 2,</text>
<text text-anchor="middle" x="67" y="-228.5" font-family="Helvetica,sans-Serif" font-size="10.00"> New_allocator &gt;</text>
<polyline fill="none" stroke="black" points="1.5,-221.5 132.5,-221.5 "/>
<text text-anchor="middle" x="67" y="-209.5" font-family="Helvetica,sans-Serif" font-size="10.00"> </text>
<polyline fill="none" stroke="black" points="1.5,-202.5 132.5,-202.5 "/>
<text text-anchor="start" x="9.5" y="-190.5" font-family="Helvetica,sans-Serif" font-size="10.00">+ Base_slab()</text>
<text text-anchor="start" x="9.5" y="-179.5" font-family="Helvetica,sans-Serif" font-size="10.00">+ ~Base_slab()</text>
<text text-anchor="start" x="9.5" y="-168.5" font-family="Helvetica,sans-Serif" font-size="10.00">+ alloc()</text>
<text text-anchor="start" x="9.5" y="-157.5" font-family="Helvetica,sans-Serif" font-size="10.00">+ free()</text>
<text text-anchor="start" x="9.5" y="-146.5" font-family="Helvetica,sans-Serif" font-size="10.00">+ total_objects()</text>
<text text-anchor="start" x="9.5" y="-135.5" font-family="Helvetica,sans-Serif" font-size="10.00">+ free_objects()</text>
</a>
</g>
</g>
<!-- Node2&#45;&gt;Node1 -->
<g id="edge1" class="edge">
<title>Node2&#45;&gt;Node1</title>
<path fill="none" stroke="midnightblue" d="M67,-118.07C67,-108.65 67,-99.28 67,-90.57"/>
<polygon fill="none" stroke="midnightblue" points="63.5,-118.29 67,-128.29 70.5,-118.29 63.5,-118.29"/>
</g>
<!-- Node3 -->
<g id="node3" class="node">
<title>Node3</title>
<g id="a_node3"><a xlink:href="classcxx_1_1Base__slab.html" target="_top" xlink:title="Basic slab allocator.">
<polygon fill="white" stroke="black" points="7,-321.5 7,-455.5 127,-455.5 127,-321.5 7,-321.5"/>
<text text-anchor="start" x="15" y="-443.5" font-family="Helvetica,sans-Serif" font-size="10.00">cxx::Base_slab&lt; Obj</text>
<text text-anchor="start" x="15" y="-432.5" font-family="Helvetica,sans-Serif" font-size="10.00">_size, Slab_size, Max</text>
<text text-anchor="middle" x="67" y="-421.5" font-family="Helvetica,sans-Serif" font-size="10.00">_free, Alloc &gt;</text>
<polyline fill="none" stroke="black" points="7,-414.5 127,-414.5 "/>
<text text-anchor="middle" x="67" y="-402.5" font-family="Helvetica,sans-Serif" font-size="10.00"> </text>
<polyline fill="none" stroke="black" points="7,-395.5 127,-395.5 "/>
<text text-anchor="start" x="15" y="-383.5" font-family="Helvetica,sans-Serif" font-size="10.00">+ Base_slab()</text>
<text text-anchor="start" x="15" y="-372.5" font-family="Helvetica,sans-Serif" font-size="10.00">+ ~Base_slab()</text>
<text text-anchor="start" x="15" y="-361.5" font-family="Helvetica,sans-Serif" font-size="10.00">+ alloc()</text>
<text text-anchor="start" x="15" y="-350.5" font-family="Helvetica,sans-Serif" font-size="10.00">+ free()</text>
<text text-anchor="start" x="15" y="-339.5" font-family="Helvetica,sans-Serif" font-size="10.00">+ total_objects()</text>
<text text-anchor="start" x="15" y="-328.5" font-family="Helvetica,sans-Serif" font-size="10.00">+ free_objects()</text>
</a>
</g>
</g>
<!-- Node3&#45;&gt;Node2 -->
<g id="edge2" class="edge">
<title>Node3&#45;&gt;Node2</title>
<path fill="none" stroke="orange" d="M67,-310.87C67,-294.9 67,-278.2 67,-262.65"/>
<polygon fill="orange" stroke="orange" points="63.5,-311.23 67,-321.23 70.5,-311.23 63.5,-311.23"/>
<text text-anchor="start" x="67" y="-295" font-family="Helvetica,sans-Serif" font-size="10.00"> &lt; sizeof(Type), L4</text>
<text text-anchor="middle" x="143" y="-284" font-family="Helvetica,sans-Serif" font-size="10.00">_PAGESIZE, 2, New_allocator &gt;</text>
</g>
</g>
</svg>
