<?xml version="1.0" encoding="UTF-8" standalone="no"?>
<!DOCTYPE svg PUBLIC "-//W3C//DTD SVG 1.1//EN"
 "http://www.w3.org/Graphics/SVG/1.1/DTD/svg11.dtd">
<!-- Generated by graphviz version 2.43.0 (0)
 -->
<!-- Title: cxx::List_item::Iter Pages: 1 -->
<svg width="213pt" height="563pt"
 viewBox="0.00 0.00 213.00 563.00" xmlns="http://www.w3.org/2000/svg" xmlns:xlink="http://www.w3.org/1999/xlink">
<g id="graph0" class="graph" transform="scale(1 1) rotate(0) translate(4 559)">
<title>cxx::List_item::Iter</title>
<polygon fill="white" stroke="transparent" points="-4,4 -4,-559 209,-559 209,4 -4,4"/>
<!-- Node1 -->
<g id="node1" class="node">
<title>Node1</title>
<g id="a_node1"><a xlink:title="Iterator for a list of ListItem&#45;s.">
<polygon fill="#bfbfbf" stroke="black" points="16,-409.5 16,-554.5 123,-554.5 123,-409.5 16,-409.5"/>
<text text-anchor="middle" x="69.5" y="-542.5" font-family="Helvetica,sans-Serif" font-size="10.00">cxx::List_item::Iter</text>
<polyline fill="none" stroke="black" points="16,-535.5 123,-535.5 "/>
<text text-anchor="middle" x="69.5" y="-523.5" font-family="Helvetica,sans-Serif" font-size="10.00"> </text>
<polyline fill="none" stroke="black" points="16,-516.5 123,-516.5 "/>
<text text-anchor="start" x="24" y="-504.5" font-family="Helvetica,sans-Serif" font-size="10.00">+ Iter()</text>
<text text-anchor="start" x="24" y="-493.5" font-family="Helvetica,sans-Serif" font-size="10.00">+ Iter()</text>
<text text-anchor="start" x="24" y="-482.5" font-family="Helvetica,sans-Serif" font-size="10.00">+ operator*()</text>
<text text-anchor="start" x="24" y="-471.5" font-family="Helvetica,sans-Serif" font-size="10.00">+ operator&#45;&gt;()</text>
<text text-anchor="start" x="24" y="-460.5" font-family="Helvetica,sans-Serif" font-size="10.00">+ operator++()</text>
<text text-anchor="start" x="24" y="-449.5" font-family="Helvetica,sans-Serif" font-size="10.00">+ operator++()</text>
<text text-anchor="start" x="24" y="-438.5" font-family="Helvetica,sans-Serif" font-size="10.00">+ operator&#45;&#45;()</text>
<text text-anchor="start" x="24" y="-427.5" font-family="Helvetica,sans-Serif" font-size="10.00">+ operator&#45;&#45;()</text>
<text text-anchor="start" x="24" y="-416.5" font-family="Helvetica,sans-Serif" font-size="10.00">+ remove_me()</text>
</a>
</g>
</g>
<!-- Node2 -->
<g id="node2" class="node">
<title>Node2</title>
<g id="a_node2"><a xlink:href="classcxx_1_1List__item_1_1T__iter.html" target="_top" xlink:title=" ">
<polygon fill="white" stroke="black" points="0,-0.5 0,-156.5 147,-156.5 147,-0.5 0,-0.5"/>
<text text-anchor="middle" x="73.5" y="-144.5" font-family="Helvetica,sans-Serif" font-size="10.00">cxx::List_item::T_iter&lt; E &gt;</text>
<polyline fill="none" stroke="black" points="0,-137.5 147,-137.5 "/>
<text text-anchor="middle" x="73.5" y="-125.5" font-family="Helvetica,sans-Serif" font-size="10.00"> </text>
<polyline fill="none" stroke="black" points="0,-118.5 147,-118.5 "/>
<text text-anchor="start" x="8" y="-106.5" font-family="Helvetica,sans-Serif" font-size="10.00">+ T_iter()</text>
<text text-anchor="start" x="8" y="-95.5" font-family="Helvetica,sans-Serif" font-size="10.00">+ T_iter()</text>
<text text-anchor="start" x="8" y="-84.5" font-family="Helvetica,sans-Serif" font-size="10.00">+ T_iter()</text>
<text text-anchor="start" x="8" y="-73.5" font-family="Helvetica,sans-Serif" font-size="10.00">+ operator*()</text>
<text text-anchor="start" x="8" y="-62.5" font-family="Helvetica,sans-Serif" font-size="10.00">+ operator&#45;&gt;()</text>
<text text-anchor="start" x="8" y="-51.5" font-family="Helvetica,sans-Serif" font-size="10.00">+ operator++()</text>
<text text-anchor="start" x="8" y="-40.5" font-family="Helvetica,sans-Serif" font-size="10.00">+ operator++()</text>
<text text-anchor="start" x="8" y="-29.5" font-family="Helvetica,sans-Serif" font-size="10.00">+ operator&#45;&#45;()</text>
<text text-anchor="start" x="8" y="-18.5" font-family="Helvetica,sans-Serif" font-size="10.00">+ operator&#45;&#45;()</text>
<text text-anchor="start" x="8" y="-7.5" font-family="Helvetica,sans-Serif" font-size="10.00">+ remove_me()</text>
</a>
</g>
</g>
<!-- Node1&#45;&gt;Node2 -->
<g id="edge1" class="edge">
<title>Node1&#45;&gt;Node2</title>
<path fill="none" stroke="midnightblue" d="M70.32,-398.99C71.02,-328.08 72.04,-226.32 72.73,-156.82"/>
<polygon fill="none" stroke="midnightblue" points="66.82,-399.19 70.22,-409.22 73.81,-399.26 66.82,-399.19"/>
</g>
<!-- Node3 -->
<g id="node3" class="node">
<title>Node3</title>
<g id="a_node3"><a xlink:href="classcxx_1_1List__item_1_1T__iter.html" target="_top" xlink:title="Iterator for derived classes from ListItem.">
<polygon fill="white" stroke="black" points="86,-204.5 86,-371.5 205,-371.5 205,-204.5 86,-204.5"/>
<text text-anchor="start" x="94" y="-359.5" font-family="Helvetica,sans-Serif" font-size="10.00">cxx::List_item::T_iter</text>
<text text-anchor="middle" x="145.5" y="-348.5" font-family="Helvetica,sans-Serif" font-size="10.00">&lt; T, Poly &gt;</text>
<polyline fill="none" stroke="black" points="86,-341.5 205,-341.5 "/>
<text text-anchor="middle" x="145.5" y="-329.5" font-family="Helvetica,sans-Serif" font-size="10.00"> </text>
<polyline fill="none" stroke="black" points="86,-322.5 205,-322.5 "/>
<text text-anchor="start" x="94" y="-310.5" font-family="Helvetica,sans-Serif" font-size="10.00">+ T_iter()</text>
<text text-anchor="start" x="94" y="-299.5" font-family="Helvetica,sans-Serif" font-size="10.00">+ T_iter()</text>
<text text-anchor="start" x="94" y="-288.5" font-family="Helvetica,sans-Serif" font-size="10.00">+ T_iter()</text>
<text text-anchor="start" x="94" y="-277.5" font-family="Helvetica,sans-Serif" font-size="10.00">+ operator*()</text>
<text text-anchor="start" x="94" y="-266.5" font-family="Helvetica,sans-Serif" font-size="10.00">+ operator&#45;&gt;()</text>
<text text-anchor="start" x="94" y="-255.5" font-family="Helvetica,sans-Serif" font-size="10.00">+ operator++()</text>
<text text-anchor="start" x="94" y="-244.5" font-family="Helvetica,sans-Serif" font-size="10.00">+ operator&#45;&#45;()</text>
<text text-anchor="start" x="94" y="-233.5" font-family="Helvetica,sans-Serif" font-size="10.00">+ operator++()</text>
<text text-anchor="start" x="94" y="-222.5" font-family="Helvetica,sans-Serif" font-size="10.00">+ operator&#45;&#45;()</text>
<text text-anchor="start" x="94" y="-211.5" font-family="Helvetica,sans-Serif" font-size="10.00">+ remove_me()</text>
</a>
</g>
</g>
<!-- Node1&#45;&gt;Node3 -->
<g id="edge2" class="edge">
<title>Node1&#45;&gt;Node3</title>
<path fill="none" stroke="midnightblue" d="M101.7,-399.66C105.36,-390.4 109.1,-380.95 112.78,-371.67"/>
<polygon fill="none" stroke="midnightblue" points="98.33,-398.65 97.91,-409.23 104.84,-401.22 98.33,-398.65"/>
</g>
<!-- Node3&#45;&gt;Node2 -->
<g id="edge3" class="edge">
<title>Node3&#45;&gt;Node2</title>
<path fill="none" stroke="orange" d="M113.49,-194.75C109.09,-182.06 104.61,-169.14 100.31,-156.76"/>
<polygon fill="orange" stroke="orange" points="110.25,-196.09 116.84,-204.39 116.87,-193.8 110.25,-196.09"/>
<text text-anchor="middle" x="125.5" y="-178" font-family="Helvetica,sans-Serif" font-size="10.00"> &lt; E &gt;</text>
</g>
</g>
</svg>
