<?xml version="1.0" encoding="UTF-8" standalone="no"?>
<!DOCTYPE svg PUBLIC "-//W3C//DTD SVG 1.1//EN"
 "http://www.w3.org/Graphics/SVG/1.1/DTD/svg11.dtd">
<!-- Generated by graphviz version 2.43.0 (0)
 -->
<!-- Title: L4virtio::Svr::Request_processor::start Pages: 1 -->
<svg width="456pt" height="176pt"
 viewBox="0.00 0.00 456.00 175.50" xmlns="http://www.w3.org/2000/svg" xmlns:xlink="http://www.w3.org/1999/xlink">
<g id="graph0" class="graph" transform="scale(1 1) rotate(0) translate(4 171.5)">
<title>L4virtio::Svr::Request_processor::start</title>
<polygon fill="white" stroke="transparent" points="-4,4 -4,-171.5 452,-171.5 452,4 -4,4"/>
<!-- Node1 -->
<g id="node1" class="node">
<title>Node1</title>
<g id="a_node1"><a xlink:title="Start processing a new request.">
<polygon fill="#bfbfbf" stroke="black" points="0,-63 0,-93 121,-93 121,-63 0,-63"/>
<text text-anchor="start" x="8" y="-81" font-family="Helvetica,sans-Serif" font-size="10.00">L4virtio::Svr::Request</text>
<text text-anchor="middle" x="60.5" y="-70" font-family="Helvetica,sans-Serif" font-size="10.00">_processor::start</text>
</a>
</g>
</g>
<!-- Node2 -->
<g id="node2" class="node">
<title>Node2</title>
<g id="a_node2"><a xlink:href="classL4virtio_1_1Svr_1_1Request__processor.html#abcf6a6b8bf80e0d73d45b5eb9e817abd" target="_top" xlink:title="Start processing a new request.">
<polygon fill="white" stroke="black" points="157,-63 157,-93 278,-93 278,-63 157,-63"/>
<text text-anchor="start" x="165" y="-81" font-family="Helvetica,sans-Serif" font-size="10.00">L4virtio::Svr::Request</text>
<text text-anchor="middle" x="217.5" y="-70" font-family="Helvetica,sans-Serif" font-size="10.00">_processor::start</text>
</a>
</g>
</g>
<!-- Node1&#45;&gt;Node2 -->
<g id="edge1" class="edge">
<title>Node1&#45;&gt;Node2</title>
<path fill="none" stroke="midnightblue" d="M121.43,-78C129.72,-78 138.31,-78 146.76,-78"/>
<polygon fill="midnightblue" stroke="midnightblue" points="146.99,-81.5 156.99,-78 146.99,-74.5 146.99,-81.5"/>
</g>
<!-- Node3 -->
<g id="node3" class="node">
<title>Node3</title>
<g id="a_node3"><a xlink:href="classL4virtio_1_1Svr_1_1Virtqueue_1_1Head__desc.html#a4aeb9df1c011b08c152e3790668207c3" target="_top" xlink:title=" ">
<polygon fill="white" stroke="black" points="317,-137 317,-167 445,-167 445,-137 317,-137"/>
<text text-anchor="start" x="325" y="-155" font-family="Helvetica,sans-Serif" font-size="10.00">L4virtio::Svr::Virtqueue</text>
<text text-anchor="middle" x="381" y="-144" font-family="Helvetica,sans-Serif" font-size="10.00">::Head_desc::desc</text>
</a>
</g>
</g>
<!-- Node2&#45;&gt;Node3 -->
<g id="edge2" class="edge">
<title>Node2&#45;&gt;Node3</title>
<path fill="none" stroke="midnightblue" d="M245.2,-93.2C264.09,-103.66 290.2,-117.5 314,-128 318.06,-129.79 322.31,-131.56 326.59,-133.28"/>
<polygon fill="midnightblue" stroke="midnightblue" points="325.42,-136.57 336.01,-136.93 327.95,-130.05 325.42,-136.57"/>
</g>
<!-- Node4 -->
<g id="node4" class="node">
<title>Node4</title>
<g id="a_node4"><a xlink:href="classL4virtio_1_1Svr_1_1Virtqueue.html#ac9a9a8c91967767446bd75fb98a506db" target="_top" xlink:title="Get a descriptor from the descriptor list.">
<polygon fill="white" stroke="black" points="317,-88 317,-118 445,-118 445,-88 317,-88"/>
<text text-anchor="start" x="325" y="-106" font-family="Helvetica,sans-Serif" font-size="10.00">L4virtio::Svr::Virtqueue</text>
<text text-anchor="middle" x="381" y="-95" font-family="Helvetica,sans-Serif" font-size="10.00">::desc</text>
</a>
</g>
</g>
<!-- Node2&#45;&gt;Node4 -->
<g id="edge3" class="edge">
<title>Node2&#45;&gt;Node4</title>
<path fill="none" stroke="midnightblue" d="M278.18,-87.24C287.51,-88.68 297.25,-90.19 306.85,-91.68"/>
<polygon fill="midnightblue" stroke="midnightblue" points="306.36,-95.14 316.78,-93.21 307.43,-88.22 306.36,-95.14"/>
</g>
<!-- Node5 -->
<g id="node5" class="node">
<title>Node5</title>
<g id="a_node5"><a xlink:href="structL4virtio_1_1Virtqueue_1_1Desc_1_1Flags.html#a978fd95c3be397943f14b0e5c2c9937b" target="_top" xlink:title="Get the indirect bits ( 2 to 2 ) of raw.">
<polygon fill="white" stroke="black" points="320,-39 320,-69 442,-69 442,-39 320,-39"/>
<text text-anchor="start" x="328" y="-57" font-family="Helvetica,sans-Serif" font-size="10.00">L4virtio::Virtqueue</text>
<text text-anchor="middle" x="381" y="-46" font-family="Helvetica,sans-Serif" font-size="10.00">::Desc::Flags::indirect</text>
</a>
</g>
</g>
<!-- Node2&#45;&gt;Node5 -->
<g id="edge4" class="edge">
<title>Node2&#45;&gt;Node5</title>
<path fill="none" stroke="midnightblue" d="M278.18,-69.13C288.46,-67.6 299.23,-66 309.76,-64.44"/>
<polygon fill="midnightblue" stroke="midnightblue" points="310.38,-67.88 319.76,-62.95 309.35,-60.96 310.38,-67.88"/>
</g>
<!-- Node6 -->
<g id="node6" class="node">
<title>Node6</title>
<g id="a_node6"><a xlink:href="classL4virtio_1_1Virtqueue.html#af61e3e4e436b93f37f22243a1c0ffe0e" target="_top" xlink:title=" ">
<polygon fill="white" stroke="black" points="314,-0.5 314,-19.5 448,-19.5 448,-0.5 314,-0.5"/>
<text text-anchor="middle" x="381" y="-7.5" font-family="Helvetica,sans-Serif" font-size="10.00">L4virtio::Virtqueue::num</text>
</a>
</g>
</g>
<!-- Node2&#45;&gt;Node6 -->
<g id="edge5" class="edge">
<title>Node2&#45;&gt;Node6</title>
<path fill="none" stroke="midnightblue" d="M245.51,-62.86C264.33,-52.7 290.22,-39.5 314,-30 320.5,-27.4 327.47,-24.95 334.36,-22.71"/>
<polygon fill="midnightblue" stroke="midnightblue" points="335.84,-25.92 344.33,-19.59 333.74,-19.24 335.84,-25.92"/>
</g>
</g>
</svg>
