<?xml version="1.0" encoding="UTF-8" standalone="no"?>
<!DOCTYPE svg PUBLIC "-//W3C//DTD SVG 1.1//EN"
 "http://www.w3.org/Graphics/SVG/1.1/DTD/svg11.dtd">
<!-- Generated by graphviz version 2.43.0 (0)
 -->
<!-- Title: L4Re::Parent Pages: 1 -->
<svg width="282pt" height="332pt"
 viewBox="0.00 0.00 282.00 332.00" xmlns="http://www.w3.org/2000/svg" xmlns:xlink="http://www.w3.org/1999/xlink">
<g id="graph0" class="graph" transform="scale(1 1) rotate(0) translate(4 328)">
<title>L4Re::Parent</title>
<polygon fill="white" stroke="transparent" points="-4,4 -4,-328 278,-328 278,4 -4,4"/>
<!-- Node1 -->
<g id="node1" class="node">
<title>Node1</title>
<g id="a_node1"><a xlink:title="Parent interface.">
<polygon fill="#bfbfbf" stroke="black" points="73.5,-0.5 73.5,-57.5 150.5,-57.5 150.5,-0.5 73.5,-0.5"/>
<text text-anchor="middle" x="112" y="-45.5" font-family="Helvetica,sans-Serif" font-size="10.00">L4Re::Parent</text>
<polyline fill="none" stroke="black" points="73.5,-38.5 150.5,-38.5 "/>
<text text-anchor="middle" x="112" y="-26.5" font-family="Helvetica,sans-Serif" font-size="10.00"> </text>
<polyline fill="none" stroke="black" points="73.5,-19.5 150.5,-19.5 "/>
<text text-anchor="start" x="81.5" y="-7.5" font-family="Helvetica,sans-Serif" font-size="10.00">+ signal()</text>
</a>
</g>
</g>
<!-- Node2 -->
<g id="node2" class="node">
<title>Node2</title>
<g id="a_node2"><a xlink:href="classL4_1_1Kobject__t.html" target="_top" xlink:title=" ">
<polygon fill="white" stroke="black" points="41,-95.5 41,-185.5 183,-185.5 183,-95.5 41,-95.5"/>
<text text-anchor="start" x="49" y="-173.5" font-family="Helvetica,sans-Serif" font-size="10.00">L4::Kobject_t&lt; Parent,</text>
<text text-anchor="start" x="49" y="-162.5" font-family="Helvetica,sans-Serif" font-size="10.00"> L4::Kobject, L4RE_PROTO</text>
<text text-anchor="middle" x="112" y="-151.5" font-family="Helvetica,sans-Serif" font-size="10.00">_PARENT &gt;</text>
<polyline fill="none" stroke="black" points="41,-144.5 183,-144.5 "/>
<text text-anchor="middle" x="112" y="-132.5" font-family="Helvetica,sans-Serif" font-size="10.00"> </text>
<polyline fill="none" stroke="black" points="41,-125.5 183,-125.5 "/>
<text text-anchor="start" x="49" y="-113.5" font-family="Helvetica,sans-Serif" font-size="10.00"># c()</text>
<text text-anchor="start" x="49" y="-102.5" font-family="Helvetica,sans-Serif" font-size="10.00"># __check_protocols__()</text>
</a>
</g>
</g>
<!-- Node2&#45;&gt;Node1 -->
<g id="edge1" class="edge">
<title>Node2&#45;&gt;Node1</title>
<path fill="none" stroke="midnightblue" d="M112,-85.04C112,-75.56 112,-66.06 112,-57.69"/>
<polygon fill="none" stroke="midnightblue" points="108.5,-85.28 112,-95.28 115.5,-85.28 108.5,-85.28"/>
</g>
<!-- Node3 -->
<g id="node3" class="node">
<title>Node3</title>
<g id="a_node3"><a xlink:href="classL4_1_1Kobject.html" target="_top" xlink:title="Base class for all kinds of kernel objects and remote objects, referenced by capabilities.">
<polygon fill="white" stroke="black" points="0,-250 0,-318 86,-318 86,-250 0,-250"/>
<text text-anchor="middle" x="43" y="-306" font-family="Helvetica,sans-Serif" font-size="10.00">L4::Kobject</text>
<polyline fill="none" stroke="black" points="0,-299 86,-299 "/>
<text text-anchor="middle" x="43" y="-287" font-family="Helvetica,sans-Serif" font-size="10.00"> </text>
<polyline fill="none" stroke="black" points="0,-280 86,-280 "/>
<text text-anchor="start" x="8" y="-268" font-family="Helvetica,sans-Serif" font-size="10.00">+ dec_refcnt()</text>
<text text-anchor="start" x="8" y="-257" font-family="Helvetica,sans-Serif" font-size="10.00"># cap()</text>
</a>
</g>
</g>
<!-- Node3&#45;&gt;Node2 -->
<g id="edge2" class="edge">
<title>Node3&#45;&gt;Node2</title>
<path fill="none" stroke="midnightblue" d="M63.71,-240.52C72.15,-223.21 81.91,-203.2 90.44,-185.72"/>
<polygon fill="none" stroke="midnightblue" points="60.41,-239.3 59.18,-249.82 66.71,-242.37 60.41,-239.3"/>
</g>
<!-- Node4 -->
<g id="node4" class="node">
<title>Node4</title>
<g id="a_node4"><a xlink:href="classL4_1_1Kobject__t.html" target="_top" xlink:title="Helper class to create an L4Re interface class that is derived from a single base class.">
<polygon fill="white" stroke="black" points="104,-244.5 104,-323.5 260,-323.5 260,-244.5 104,-244.5"/>
<text text-anchor="start" x="112" y="-311.5" font-family="Helvetica,sans-Serif" font-size="10.00">L4::Kobject_t&lt; Derived,</text>
<text text-anchor="middle" x="182" y="-300.5" font-family="Helvetica,sans-Serif" font-size="10.00"> Base, PROTO, S_DEMAND &gt;</text>
<polyline fill="none" stroke="black" points="104,-293.5 260,-293.5 "/>
<text text-anchor="middle" x="182" y="-281.5" font-family="Helvetica,sans-Serif" font-size="10.00"> </text>
<polyline fill="none" stroke="black" points="104,-274.5 260,-274.5 "/>
<text text-anchor="start" x="112" y="-262.5" font-family="Helvetica,sans-Serif" font-size="10.00"># c()</text>
<text text-anchor="start" x="112" y="-251.5" font-family="Helvetica,sans-Serif" font-size="10.00"># __check_protocols__()</text>
</a>
</g>
</g>
<!-- Node4&#45;&gt;Node2 -->
<g id="edge3" class="edge">
<title>Node4&#45;&gt;Node2</title>
<path fill="none" stroke="orange" d="M158.32,-235.13C150.39,-219.11 141.6,-201.34 133.82,-185.62"/>
<polygon fill="orange" stroke="orange" points="155.3,-236.92 162.87,-244.33 161.58,-233.82 155.3,-236.92"/>
<text text-anchor="start" x="153" y="-218" font-family="Helvetica,sans-Serif" font-size="10.00"> &lt; Parent, L4::Kobject,</text>
<text text-anchor="middle" x="213.5" y="-207" font-family="Helvetica,sans-Serif" font-size="10.00"> L4RE_PROTO_PARENT &gt;</text>
</g>
</g>
</svg>
