<?xml version="1.0" encoding="UTF-8" standalone="no"?>
<!DOCTYPE svg PUBLIC "-//W3C//DTD SVG 1.1//EN"
 "http://www.w3.org/Graphics/SVG/1.1/DTD/svg11.dtd">
<!-- Generated by graphviz version 2.43.0 (0)
 -->
<!-- Title: L4virtio::Virtqueue::Desc Pages: 1 -->
<svg width="250pt" height="463pt"
 viewBox="0.00 0.00 249.50 463.00" xmlns="http://www.w3.org/2000/svg" xmlns:xlink="http://www.w3.org/1999/xlink">
<g id="graph0" class="graph" transform="scale(1 1) rotate(0) translate(4 459)">
<title>L4virtio::Virtqueue::Desc</title>
<polygon fill="white" stroke="transparent" points="-4,4 -4,-459 245.5,-459 245.5,4 -4,4"/>
<!-- Node1 -->
<g id="node1" class="node">
<title>Node1</title>
<g id="a_node1"><a xlink:title="Descriptor in the descriptor table.">
<polygon fill="#bfbfbf" stroke="black" points="29,-0.5 29,-79.5 136,-79.5 136,-0.5 29,-0.5"/>
<text text-anchor="start" x="37" y="-67.5" font-family="Helvetica,sans-Serif" font-size="10.00">L4virtio::Virtqueue</text>
<text text-anchor="middle" x="82.5" y="-56.5" font-family="Helvetica,sans-Serif" font-size="10.00">::Desc</text>
<polyline fill="none" stroke="black" points="29,-49.5 136,-49.5 "/>
<text text-anchor="start" x="37" y="-37.5" font-family="Helvetica,sans-Serif" font-size="10.00">+ len</text>
<text text-anchor="start" x="37" y="-26.5" font-family="Helvetica,sans-Serif" font-size="10.00">+ next</text>
<polyline fill="none" stroke="black" points="29,-19.5 136,-19.5 "/>
<text text-anchor="start" x="37" y="-7.5" font-family="Helvetica,sans-Serif" font-size="10.00">+ dump()</text>
</a>
</g>
</g>
<!-- Node2 -->
<g id="node2" class="node">
<title>Node2</title>
<g id="a_node2"><a xlink:href="structL4virtio_1_1Virtqueue_1_1Desc_1_1Flags.html" target="_top" xlink:title="Type for descriptor flags.">
<polygon fill="white" stroke="black" points="0,-127.5 0,-305.5 107,-305.5 107,-127.5 0,-127.5"/>
<text text-anchor="start" x="8" y="-293.5" font-family="Helvetica,sans-Serif" font-size="10.00">L4virtio::Virtqueue</text>
<text text-anchor="middle" x="53.5" y="-282.5" font-family="Helvetica,sans-Serif" font-size="10.00">::Desc::Flags</text>
<polyline fill="none" stroke="black" points="0,-275.5 107,-275.5 "/>
<text text-anchor="start" x="8" y="-263.5" font-family="Helvetica,sans-Serif" font-size="10.00">+ raw</text>
<polyline fill="none" stroke="black" points="0,-256.5 107,-256.5 "/>
<text text-anchor="start" x="8" y="-244.5" font-family="Helvetica,sans-Serif" font-size="10.00">+ Flags()</text>
<text text-anchor="start" x="8" y="-233.5" font-family="Helvetica,sans-Serif" font-size="10.00">+ Flags()</text>
<text text-anchor="start" x="8" y="-222.5" font-family="Helvetica,sans-Serif" font-size="10.00">* next_bfm_t</text>
<text text-anchor="start" x="8" y="-211.5" font-family="Helvetica,sans-Serif" font-size="10.00">* next()</text>
<text text-anchor="start" x="8" y="-200.5" font-family="Helvetica,sans-Serif" font-size="10.00">* next()</text>
<text text-anchor="start" x="8" y="-189.5" font-family="Helvetica,sans-Serif" font-size="10.00">* write_bfm_t</text>
<text text-anchor="start" x="8" y="-178.5" font-family="Helvetica,sans-Serif" font-size="10.00">* write()</text>
<text text-anchor="start" x="8" y="-167.5" font-family="Helvetica,sans-Serif" font-size="10.00">* write()</text>
<text text-anchor="start" x="8" y="-156.5" font-family="Helvetica,sans-Serif" font-size="10.00">* indirect_bfm_t</text>
<text text-anchor="start" x="8" y="-145.5" font-family="Helvetica,sans-Serif" font-size="10.00">* indirect()</text>
<text text-anchor="start" x="8" y="-134.5" font-family="Helvetica,sans-Serif" font-size="10.00">* indirect()</text>
</a>
</g>
</g>
<!-- Node2&#45;&gt;Node1 -->
<g id="edge1" class="edge">
<title>Node2&#45;&gt;Node1</title>
<path fill="none" stroke="#404040" d="M68.13,-127.48C70.15,-115.3 72.17,-103.13 74.03,-91.94"/>
<polygon fill="none" stroke="#404040" points="74.09,-91.6 71.13,-85.02 76.06,-79.76 79.02,-86.34 74.09,-91.6"/>
<text text-anchor="middle" x="90" y="-101" font-family="Helvetica,sans-Serif" font-size="10.00"> +flags</text>
</g>
<!-- Node3 -->
<g id="node3" class="node">
<title>Node3</title>
<g id="a_node3"><a xlink:href="classL4virtio_1_1Ptr.html" target="_top" xlink:title=" ">
<polygon fill="white" stroke="black" points="125.5,-166 125.5,-267 241.5,-267 241.5,-166 125.5,-166"/>
<text text-anchor="middle" x="183.5" y="-255" font-family="Helvetica,sans-Serif" font-size="10.00">L4virtio::Ptr&lt; void &gt;</text>
<polyline fill="none" stroke="black" points="125.5,-248 241.5,-248 "/>
<text text-anchor="middle" x="183.5" y="-236" font-family="Helvetica,sans-Serif" font-size="10.00"> </text>
<polyline fill="none" stroke="black" points="125.5,-229 241.5,-229 "/>
<text text-anchor="start" x="133.5" y="-217" font-family="Helvetica,sans-Serif" font-size="10.00">+ Ptr()</text>
<text text-anchor="start" x="133.5" y="-206" font-family="Helvetica,sans-Serif" font-size="10.00">+ Ptr()</text>
<text text-anchor="start" x="133.5" y="-195" font-family="Helvetica,sans-Serif" font-size="10.00">+ Ptr()</text>
<text text-anchor="start" x="133.5" y="-184" font-family="Helvetica,sans-Serif" font-size="10.00">+ get()</text>
<text text-anchor="start" x="133.5" y="-173" font-family="Helvetica,sans-Serif" font-size="10.00">+ is_valid()</text>
</a>
</g>
</g>
<!-- Node3&#45;&gt;Node1 -->
<g id="edge2" class="edge">
<title>Node3&#45;&gt;Node1</title>
<path fill="none" stroke="#404040" d="M154.83,-165.96C141.07,-142.19 124.64,-113.8 110.92,-90.1"/>
<polygon fill="none" stroke="#404040" points="110.83,-89.95 104.36,-86.76 104.82,-79.56 111.29,-82.75 110.83,-89.95"/>
<text text-anchor="middle" x="137.5" y="-101" font-family="Helvetica,sans-Serif" font-size="10.00"> +addr</text>
</g>
<!-- Node4 -->
<g id="node4" class="node">
<title>Node4</title>
<g id="a_node4"><a xlink:href="classL4virtio_1_1Ptr.html" target="_top" xlink:title="Pointer used in virtio descriptors.">
<polygon fill="white" stroke="black" points="133,-353.5 133,-454.5 234,-454.5 234,-353.5 133,-353.5"/>
<text text-anchor="middle" x="183.5" y="-442.5" font-family="Helvetica,sans-Serif" font-size="10.00">L4virtio::Ptr&lt; T &gt;</text>
<polyline fill="none" stroke="black" points="133,-435.5 234,-435.5 "/>
<text text-anchor="middle" x="183.5" y="-423.5" font-family="Helvetica,sans-Serif" font-size="10.00"> </text>
<polyline fill="none" stroke="black" points="133,-416.5 234,-416.5 "/>
<text text-anchor="start" x="141" y="-404.5" font-family="Helvetica,sans-Serif" font-size="10.00">+ Ptr()</text>
<text text-anchor="start" x="141" y="-393.5" font-family="Helvetica,sans-Serif" font-size="10.00">+ Ptr()</text>
<text text-anchor="start" x="141" y="-382.5" font-family="Helvetica,sans-Serif" font-size="10.00">+ Ptr()</text>
<text text-anchor="start" x="141" y="-371.5" font-family="Helvetica,sans-Serif" font-size="10.00">+ get()</text>
<text text-anchor="start" x="141" y="-360.5" font-family="Helvetica,sans-Serif" font-size="10.00">+ is_valid()</text>
</a>
</g>
</g>
<!-- Node4&#45;&gt;Node3 -->
<g id="edge3" class="edge">
<title>Node4&#45;&gt;Node3</title>
<path fill="none" stroke="orange" d="M183.5,-343.01C183.5,-318.45 183.5,-290.38 183.5,-267.03"/>
<polygon fill="orange" stroke="orange" points="180,-343.29 183.5,-353.29 187,-343.29 180,-343.29"/>
<text text-anchor="middle" x="207" y="-327" font-family="Helvetica,sans-Serif" font-size="10.00"> &lt; void &gt;</text>
</g>
</g>
</svg>
