<?xml version="1.0" encoding="UTF-8" standalone="no"?>
<!DOCTYPE svg PUBLIC "-//W3C//DTD SVG 1.1//EN"
 "http://www.w3.org/Graphics/SVG/1.1/DTD/svg11.dtd">
<!-- Generated by graphviz version 2.43.0 (0)
 -->
<!-- Title: L4virtio::Virtqueue::Avail Pages: 1 -->
<svg width="115pt" height="248pt"
 viewBox="0.00 0.00 115.00 248.00" xmlns="http://www.w3.org/2000/svg" xmlns:xlink="http://www.w3.org/1999/xlink">
<g id="graph0" class="graph" transform="scale(1 1) rotate(0) translate(4 244)">
<title>L4virtio::Virtqueue::Avail</title>
<polygon fill="white" stroke="transparent" points="-4,4 -4,-244 111,-244 111,4 -4,4"/>
<!-- Node1 -->
<g id="node1" class="node">
<title>Node1</title>
<g id="a_node1"><a xlink:title="Type of available ring, this is read&#45;only for the host.">
<polygon fill="#bfbfbf" stroke="black" points="0,-0.5 0,-79.5 107,-79.5 107,-0.5 0,-0.5"/>
<text text-anchor="start" x="8" y="-67.5" font-family="Helvetica,sans-Serif" font-size="10.00">L4virtio::Virtqueue</text>
<text text-anchor="middle" x="53.5" y="-56.5" font-family="Helvetica,sans-Serif" font-size="10.00">::Avail</text>
<polyline fill="none" stroke="black" points="0,-49.5 107,-49.5 "/>
<text text-anchor="start" x="8" y="-37.5" font-family="Helvetica,sans-Serif" font-size="10.00">+ idx</text>
<text text-anchor="start" x="8" y="-26.5" font-family="Helvetica,sans-Serif" font-size="10.00">+ ring</text>
<polyline fill="none" stroke="black" points="0,-19.5 107,-19.5 "/>
<text text-anchor="middle" x="53.5" y="-7.5" font-family="Helvetica,sans-Serif" font-size="10.00"> </text>
</a>
</g>
</g>
<!-- Node2 -->
<g id="node2" class="node">
<title>Node2</title>
<g id="a_node2"><a xlink:href="structL4virtio_1_1Virtqueue_1_1Avail_1_1Flags.html" target="_top" xlink:title="Flags of the available ring.">
<polygon fill="white" stroke="black" points="0,-127.5 0,-239.5 107,-239.5 107,-127.5 0,-127.5"/>
<text text-anchor="start" x="8" y="-227.5" font-family="Helvetica,sans-Serif" font-size="10.00">L4virtio::Virtqueue</text>
<text text-anchor="middle" x="53.5" y="-216.5" font-family="Helvetica,sans-Serif" font-size="10.00">::Avail::Flags</text>
<polyline fill="none" stroke="black" points="0,-209.5 107,-209.5 "/>
<text text-anchor="start" x="8" y="-197.5" font-family="Helvetica,sans-Serif" font-size="10.00">+ raw</text>
<polyline fill="none" stroke="black" points="0,-190.5 107,-190.5 "/>
<text text-anchor="start" x="8" y="-178.5" font-family="Helvetica,sans-Serif" font-size="10.00">+ Flags()</text>
<text text-anchor="start" x="8" y="-167.5" font-family="Helvetica,sans-Serif" font-size="10.00">+ Flags()</text>
<text text-anchor="start" x="8" y="-156.5" font-family="Helvetica,sans-Serif" font-size="10.00">* no_irq_bfm_t</text>
<text text-anchor="start" x="8" y="-145.5" font-family="Helvetica,sans-Serif" font-size="10.00">* no_irq()</text>
<text text-anchor="start" x="8" y="-134.5" font-family="Helvetica,sans-Serif" font-size="10.00">* no_irq()</text>
</a>
</g>
</g>
<!-- Node2&#45;&gt;Node1 -->
<g id="edge1" class="edge">
<title>Node2&#45;&gt;Node1</title>
<path fill="none" stroke="#404040" d="M53.5,-127.39C53.5,-115.65 53.5,-103.3 53.5,-91.74"/>
<polygon fill="none" stroke="#404040" points="53.5,-91.56 49.5,-85.56 53.5,-79.56 57.5,-85.56 53.5,-91.56"/>
<text text-anchor="middle" x="71" y="-101" font-family="Helvetica,sans-Serif" font-size="10.00"> +flags</text>
</g>
</g>
</svg>
