<?xml version="1.0" encoding="UTF-8" standalone="no"?>
<!DOCTYPE svg PUBLIC "-//W3C//DTD SVG 1.1//EN"
 "http://www.w3.org/Graphics/SVG/1.1/DTD/svg11.dtd">
<!-- Generated by graphviz version 2.43.0 (0)
 -->
<!-- Title: L4::Ipc_svr::Timeout_queue::add Pages: 1 -->
<svg width="294pt" height="127pt"
 viewBox="0.00 0.00 294.00 127.00" xmlns="http://www.w3.org/2000/svg" xmlns:xlink="http://www.w3.org/1999/xlink">
<g id="graph0" class="graph" transform="scale(1 1) rotate(0) translate(4 123)">
<title>L4::Ipc_svr::Timeout_queue::add</title>
<polygon fill="white" stroke="transparent" points="-4,4 -4,-123 290,-123 290,4 -4,4"/>
<!-- Node1 -->
<g id="node1" class="node">
<title>Node1</title>
<g id="a_node1"><a xlink:title="Add a timeout to the queue.">
<polygon fill="#bfbfbf" stroke="black" points="0,-44.5 0,-74.5 115,-74.5 115,-44.5 0,-44.5"/>
<text text-anchor="start" x="8" y="-62.5" font-family="Helvetica,sans-Serif" font-size="10.00">L4::Ipc_svr::Timeout</text>
<text text-anchor="middle" x="57.5" y="-51.5" font-family="Helvetica,sans-Serif" font-size="10.00">_queue::add</text>
</a>
</g>
</g>
<!-- Node2 -->
<g id="node2" class="node">
<title>Node2</title>
<g id="a_node2"><a xlink:href="classcxx_1_1Bits_1_1Basic__list.html#af857846edcaf6cbc84827c585b45fd49" target="_top" xlink:title="Return an iterator to the beginning of the list.">
<polygon fill="white" stroke="black" points="163,-88.5 163,-118.5 274,-118.5 274,-88.5 163,-88.5"/>
<text text-anchor="start" x="171" y="-106.5" font-family="Helvetica,sans-Serif" font-size="10.00">cxx::Bits::Basic_list</text>
<text text-anchor="middle" x="218.5" y="-95.5" font-family="Helvetica,sans-Serif" font-size="10.00">::begin</text>
</a>
</g>
</g>
<!-- Node1&#45;&gt;Node2 -->
<g id="edge1" class="edge">
<title>Node1&#45;&gt;Node2</title>
<path fill="none" stroke="midnightblue" d="M112.77,-74.52C125.88,-78.15 140,-82.05 153.5,-85.79"/>
<polygon fill="midnightblue" stroke="midnightblue" points="152.63,-89.18 163.2,-88.47 154.5,-82.43 152.63,-89.18"/>
</g>
<!-- Node3 -->
<g id="node3" class="node">
<title>Node3</title>
<g id="a_node3"><a xlink:href="classcxx_1_1Bits_1_1Basic__list.html#a08f2ae0b9f0379ce1778ba1f2d163330" target="_top" xlink:title="Return a const iterator to the end of the list.">
<polygon fill="white" stroke="black" points="151,-50 151,-69 286,-69 286,-50 151,-50"/>
<text text-anchor="middle" x="218.5" y="-57" font-family="Helvetica,sans-Serif" font-size="10.00">cxx::Bits::Basic_list::end</text>
</a>
</g>
</g>
<!-- Node1&#45;&gt;Node3 -->
<g id="edge2" class="edge">
<title>Node1&#45;&gt;Node3</title>
<path fill="none" stroke="midnightblue" d="M115.01,-59.5C123.35,-59.5 132.06,-59.5 140.72,-59.5"/>
<polygon fill="midnightblue" stroke="midnightblue" points="140.85,-63 150.85,-59.5 140.85,-56 140.85,-63"/>
</g>
<!-- Node4 -->
<g id="node4" class="node">
<title>Node4</title>
<g id="a_node4"><a xlink:href="classcxx_1_1H__list.html#a6d51f7db1f61e1e2175e03ca8d034cfc" target="_top" xlink:title="Insert an element before the iterator position.">
<polygon fill="white" stroke="black" points="168,-0.5 168,-30.5 269,-30.5 269,-0.5 168,-0.5"/>
<text text-anchor="start" x="176" y="-18.5" font-family="Helvetica,sans-Serif" font-size="10.00">cxx::H_list::insert</text>
<text text-anchor="middle" x="218.5" y="-7.5" font-family="Helvetica,sans-Serif" font-size="10.00">_before</text>
</a>
</g>
</g>
<!-- Node1&#45;&gt;Node4 -->
<g id="edge3" class="edge">
<title>Node1&#45;&gt;Node4</title>
<path fill="none" stroke="midnightblue" d="M112.77,-44.48C127.25,-40.48 142.96,-36.13 157.71,-32.04"/>
<polygon fill="midnightblue" stroke="midnightblue" points="159.04,-35.31 167.75,-29.27 157.17,-28.56 159.04,-35.31"/>
</g>
</g>
</svg>
