<?xml version="1.0" encoding="UTF-8" standalone="no"?>
<!DOCTYPE svg PUBLIC "-//W3C//DTD SVG 1.1//EN"
 "http://www.w3.org/Graphics/SVG/1.1/DTD/svg11.dtd">
<!-- Generated by graphviz version 2.43.0 (0)
 -->
<!-- Title: L4::Ipc::Varg::is_nil Pages: 1 -->
<svg width="299pt" height="137pt"
 viewBox="0.00 0.00 299.00 137.00" xmlns="http://www.w3.org/2000/svg" xmlns:xlink="http://www.w3.org/1999/xlink">
<g id="graph0" class="graph" transform="scale(1 1) rotate(0) translate(4 133)">
<title>L4::Ipc::Varg::is_nil</title>
<polygon fill="white" stroke="transparent" points="-4,4 -4,-133 295,-133 295,4 -4,4"/>
<!-- Node1 -->
<g id="node1" class="node">
<title>Node1</title>
<g id="a_node1"><a xlink:title=" ">
<polygon fill="#bfbfbf" stroke="black" points="184,-55 184,-74 291,-74 291,-55 184,-55"/>
<text text-anchor="middle" x="237.5" y="-62" font-family="Helvetica,sans-Serif" font-size="10.00">L4::Ipc::Varg::is_nil</text>
</a>
</g>
</g>
<!-- Node2 -->
<g id="node2" class="node">
<title>Node2</title>
<g id="a_node2"><a xlink:href="classL4_1_1Ipc_1_1Varg__list__ref_1_1Iterator.html#a3cb6dc1dcbb065b89962fd9dce378320" target="_top" xlink:title="check for equality">
<polygon fill="white" stroke="black" points="16.5,-98.5 16.5,-128.5 131.5,-128.5 131.5,-98.5 16.5,-98.5"/>
<text text-anchor="start" x="24.5" y="-116.5" font-family="Helvetica,sans-Serif" font-size="10.00">L4::Ipc::Varg_list</text>
<text text-anchor="middle" x="74" y="-105.5" font-family="Helvetica,sans-Serif" font-size="10.00">_ref::Iterator::equals</text>
</a>
</g>
</g>
<!-- Node1&#45;&gt;Node2 -->
<g id="edge1" class="edge">
<title>Node1&#45;&gt;Node2</title>
<path fill="none" stroke="midnightblue" d="M195.16,-77.04C173.64,-83.57 147.17,-91.6 124.56,-98.46"/>
<polygon fill="midnightblue" stroke="midnightblue" points="196.42,-80.32 204.98,-74.06 194.39,-73.62 196.42,-80.32"/>
</g>
<!-- Node3 -->
<g id="node3" class="node">
<title>Node3</title>
<g id="a_node3"><a xlink:href="classL4_1_1Ipc_1_1Varg__list__ref_1_1Iterator.html#a35b403543cfb66545a5f3465bb2b1251" target="_top" xlink:title="validity check for the iterator">
<polygon fill="white" stroke="black" points="0,-49.5 0,-79.5 148,-79.5 148,-49.5 0,-49.5"/>
<text text-anchor="start" x="8" y="-67.5" font-family="Helvetica,sans-Serif" font-size="10.00">L4::Ipc::Varg_list</text>
<text text-anchor="middle" x="74" y="-56.5" font-family="Helvetica,sans-Serif" font-size="10.00">_ref::Iterator::operator bool</text>
</a>
</g>
</g>
<!-- Node1&#45;&gt;Node3 -->
<g id="edge2" class="edge">
<title>Node1&#45;&gt;Node3</title>
<path fill="none" stroke="midnightblue" d="M173.35,-64.5C165.11,-64.5 156.62,-64.5 148.23,-64.5"/>
<polygon fill="midnightblue" stroke="midnightblue" points="173.62,-68 183.62,-64.5 173.62,-61 173.62,-68"/>
</g>
<!-- Node4 -->
<g id="node4" class="node">
<title>Node4</title>
<g id="a_node4"><a xlink:href="classL4_1_1Ipc_1_1Varg__list__ref_1_1Iterator.html#a6b30cf3efafe603b779dc0a82331d430" target="_top" xlink:title="increment iterator to the next arg">
<polygon fill="white" stroke="black" points="4,-0.5 4,-30.5 144,-30.5 144,-0.5 4,-0.5"/>
<text text-anchor="start" x="12" y="-18.5" font-family="Helvetica,sans-Serif" font-size="10.00">L4::Ipc::Varg_list</text>
<text text-anchor="middle" x="74" y="-7.5" font-family="Helvetica,sans-Serif" font-size="10.00">_ref::Iterator::operator++</text>
</a>
</g>
</g>
<!-- Node1&#45;&gt;Node4 -->
<g id="edge3" class="edge">
<title>Node1&#45;&gt;Node4</title>
<path fill="none" stroke="midnightblue" d="M195.16,-51.96C173.64,-45.43 147.17,-37.4 124.56,-30.54"/>
<polygon fill="midnightblue" stroke="midnightblue" points="194.39,-55.38 204.98,-54.94 196.42,-48.68 194.39,-55.38"/>
</g>
</g>
</svg>
