<?xml version="1.0" encoding="UTF-8" standalone="no"?>
<!DOCTYPE svg PUBLIC "-//W3C//DTD SVG 1.1//EN"
 "http://www.w3.org/Graphics/SVG/1.1/DTD/svg11.dtd">
<!-- Generated by graphviz version 2.43.0 (0)
 -->
<!-- Title: L4virtio::Device Pages: 1 -->
<svg width="315pt" height="741pt"
 viewBox="0.00 0.00 315.00 741.00" xmlns="http://www.w3.org/2000/svg" xmlns:xlink="http://www.w3.org/1999/xlink">
<g id="graph0" class="graph" transform="scale(1 1) rotate(0) translate(4 737)">
<title>L4virtio::Device</title>
<polygon fill="white" stroke="transparent" points="-4,4 -4,-737 311,-737 311,4 -4,4"/>
<!-- Node1 -->
<g id="node1" class="node">
<title>Node1</title>
<g id="a_node1"><a xlink:title="IPC interface for virtio over L4 IPC.">
<polygon fill="#bfbfbf" stroke="black" points="108,-0.5 108,-123.5 228,-123.5 228,-0.5 108,-0.5"/>
<text text-anchor="middle" x="168" y="-111.5" font-family="Helvetica,sans-Serif" font-size="10.00">L4virtio::Device</text>
<polyline fill="none" stroke="black" points="108,-104.5 228,-104.5 "/>
<text text-anchor="middle" x="168" y="-92.5" font-family="Helvetica,sans-Serif" font-size="10.00"> </text>
<polyline fill="none" stroke="black" points="108,-85.5 228,-85.5 "/>
<text text-anchor="start" x="116" y="-73.5" font-family="Helvetica,sans-Serif" font-size="10.00">+ set_status()</text>
<text text-anchor="start" x="116" y="-62.5" font-family="Helvetica,sans-Serif" font-size="10.00">+ config_queue()</text>
<text text-anchor="start" x="116" y="-51.5" font-family="Helvetica,sans-Serif" font-size="10.00">+ register_ds()</text>
<text text-anchor="start" x="116" y="-40.5" font-family="Helvetica,sans-Serif" font-size="10.00">+ register_iface()</text>
<text text-anchor="start" x="116" y="-29.5" font-family="Helvetica,sans-Serif" font-size="10.00">+ device_config()</text>
<text text-anchor="start" x="116" y="-18.5" font-family="Helvetica,sans-Serif" font-size="10.00">+ device_notification</text>
<text text-anchor="start" x="116" y="-7.5" font-family="Helvetica,sans-Serif" font-size="10.00">_irq()</text>
</a>
</g>
</g>
<!-- Node2 -->
<g id="node2" class="node">
<title>Node2</title>
<g id="a_node2"><a xlink:href="classL4_1_1Kobject__t.html" target="_top" xlink:title=" ">
<polygon fill="white" stroke="black" points="78.5,-161.5 78.5,-251.5 257.5,-251.5 257.5,-161.5 78.5,-161.5"/>
<text text-anchor="start" x="86.5" y="-239.5" font-family="Helvetica,sans-Serif" font-size="10.00">L4::Kobject_t&lt; Device,</text>
<text text-anchor="start" x="86.5" y="-228.5" font-family="Helvetica,sans-Serif" font-size="10.00"> L4::Icu, L4VIRTIO_PROTOCOL,</text>
<text text-anchor="middle" x="168" y="-217.5" font-family="Helvetica,sans-Serif" font-size="10.00"> L4::Type_info::Demand_t&lt; 1 &gt; &gt;</text>
<polyline fill="none" stroke="black" points="78.5,-210.5 257.5,-210.5 "/>
<text text-anchor="middle" x="168" y="-198.5" font-family="Helvetica,sans-Serif" font-size="10.00"> </text>
<polyline fill="none" stroke="black" points="78.5,-191.5 257.5,-191.5 "/>
<text text-anchor="start" x="86.5" y="-179.5" font-family="Helvetica,sans-Serif" font-size="10.00"># c()</text>
<text text-anchor="start" x="86.5" y="-168.5" font-family="Helvetica,sans-Serif" font-size="10.00"># __check_protocols__()</text>
</a>
</g>
</g>
<!-- Node2&#45;&gt;Node1 -->
<g id="edge1" class="edge">
<title>Node2&#45;&gt;Node1</title>
<path fill="none" stroke="midnightblue" d="M168,-151.18C168,-142.13 168,-132.7 168,-123.51"/>
<polygon fill="none" stroke="midnightblue" points="164.5,-151.19 168,-161.19 171.5,-151.19 164.5,-151.19"/>
</g>
<!-- Node3 -->
<g id="node3" class="node">
<title>Node3</title>
<g id="a_node3"><a xlink:href="classL4_1_1Icu.html" target="_top" xlink:title="C++ Icu interface.">
<polygon fill="white" stroke="black" points="84.5,-289.5 84.5,-412.5 167.5,-412.5 167.5,-289.5 84.5,-289.5"/>
<text text-anchor="middle" x="126" y="-400.5" font-family="Helvetica,sans-Serif" font-size="10.00">L4::Icu</text>
<polyline fill="none" stroke="black" points="84.5,-393.5 167.5,-393.5 "/>
<text text-anchor="middle" x="126" y="-381.5" font-family="Helvetica,sans-Serif" font-size="10.00"> </text>
<polyline fill="none" stroke="black" points="84.5,-374.5 167.5,-374.5 "/>
<text text-anchor="start" x="92.5" y="-362.5" font-family="Helvetica,sans-Serif" font-size="10.00">+ bind()</text>
<text text-anchor="start" x="92.5" y="-351.5" font-family="Helvetica,sans-Serif" font-size="10.00">+ unbind()</text>
<text text-anchor="start" x="92.5" y="-340.5" font-family="Helvetica,sans-Serif" font-size="10.00">+ info()</text>
<text text-anchor="start" x="92.5" y="-329.5" font-family="Helvetica,sans-Serif" font-size="10.00">+ msi_info()</text>
<text text-anchor="start" x="92.5" y="-318.5" font-family="Helvetica,sans-Serif" font-size="10.00">+ control()</text>
<text text-anchor="start" x="92.5" y="-307.5" font-family="Helvetica,sans-Serif" font-size="10.00">+ mask()</text>
<text text-anchor="start" x="92.5" y="-296.5" font-family="Helvetica,sans-Serif" font-size="10.00">+ set_mode()</text>
</a>
</g>
</g>
<!-- Node3&#45;&gt;Node2 -->
<g id="edge2" class="edge">
<title>Node3&#45;&gt;Node2</title>
<path fill="none" stroke="midnightblue" d="M146.81,-279.38C149.59,-269.97 152.36,-260.55 154.95,-251.77"/>
<polygon fill="none" stroke="midnightblue" points="143.4,-278.57 143.93,-289.15 150.12,-280.55 143.4,-278.57"/>
</g>
<!-- Node4 -->
<g id="node4" class="node">
<title>Node4</title>
<g id="a_node4"><a xlink:href="classL4_1_1Kobject__t.html" target="_top" xlink:title=" ">
<polygon fill="white" stroke="black" points="0,-493.5 0,-583.5 162,-583.5 162,-493.5 0,-493.5"/>
<text text-anchor="start" x="8" y="-571.5" font-family="Helvetica,sans-Serif" font-size="10.00">L4::Kobject_t&lt; Icu,</text>
<text text-anchor="start" x="8" y="-560.5" font-family="Helvetica,sans-Serif" font-size="10.00"> Irq_eoi, L4_PROTO_IRQ,</text>
<text text-anchor="middle" x="81" y="-549.5" font-family="Helvetica,sans-Serif" font-size="10.00"> Type_info::Demand_t&lt; 1 &gt; &gt;</text>
<polyline fill="none" stroke="black" points="0,-542.5 162,-542.5 "/>
<text text-anchor="middle" x="81" y="-530.5" font-family="Helvetica,sans-Serif" font-size="10.00"> </text>
<polyline fill="none" stroke="black" points="0,-523.5 162,-523.5 "/>
<text text-anchor="start" x="8" y="-511.5" font-family="Helvetica,sans-Serif" font-size="10.00"># c()</text>
<text text-anchor="start" x="8" y="-500.5" font-family="Helvetica,sans-Serif" font-size="10.00"># __check_protocols__()</text>
</a>
</g>
</g>
<!-- Node4&#45;&gt;Node3 -->
<g id="edge3" class="edge">
<title>Node4&#45;&gt;Node3</title>
<path fill="none" stroke="midnightblue" d="M94.18,-483.16C99.56,-461.01 105.79,-435.3 111.31,-412.55"/>
<polygon fill="none" stroke="midnightblue" points="90.73,-482.52 91.78,-493.07 97.54,-484.18 90.73,-482.52"/>
</g>
<!-- Node5 -->
<g id="node5" class="node">
<title>Node5</title>
<g id="a_node5"><a xlink:href="classL4_1_1Irq__eoi.html" target="_top" xlink:title="Interface for sending an acknowledge message to an object.">
<polygon fill="white" stroke="black" points="11,-664.5 11,-721.5 85,-721.5 85,-664.5 11,-664.5"/>
<text text-anchor="middle" x="48" y="-709.5" font-family="Helvetica,sans-Serif" font-size="10.00">L4::Irq_eoi</text>
<polyline fill="none" stroke="black" points="11,-702.5 85,-702.5 "/>
<text text-anchor="middle" x="48" y="-690.5" font-family="Helvetica,sans-Serif" font-size="10.00"> </text>
<polyline fill="none" stroke="black" points="11,-683.5 85,-683.5 "/>
<text text-anchor="start" x="19" y="-671.5" font-family="Helvetica,sans-Serif" font-size="10.00">+ unmask()</text>
</a>
</g>
</g>
<!-- Node5&#45;&gt;Node4 -->
<g id="edge4" class="edge">
<title>Node5&#45;&gt;Node4</title>
<path fill="none" stroke="midnightblue" d="M52.69,-654.08C55,-637.93 58.13,-618.94 62,-602 63.36,-596.03 65,-589.8 66.73,-583.68"/>
<polygon fill="none" stroke="midnightblue" points="49.19,-653.85 51.29,-664.24 56.12,-654.81 49.19,-653.85"/>
</g>
<!-- Node6 -->
<g id="node6" class="node">
<title>Node6</title>
<g id="a_node6"><a xlink:href="classL4_1_1Kobject__t.html" target="_top" xlink:title="Helper class to create an L4Re interface class that is derived from a single base class.">
<polygon fill="white" stroke="black" points="118,-653.5 118,-732.5 274,-732.5 274,-653.5 118,-653.5"/>
<text text-anchor="start" x="126" y="-720.5" font-family="Helvetica,sans-Serif" font-size="10.00">L4::Kobject_t&lt; Derived,</text>
<text text-anchor="middle" x="196" y="-709.5" font-family="Helvetica,sans-Serif" font-size="10.00"> Base, PROTO, S_DEMAND &gt;</text>
<polyline fill="none" stroke="black" points="118,-702.5 274,-702.5 "/>
<text text-anchor="middle" x="196" y="-690.5" font-family="Helvetica,sans-Serif" font-size="10.00"> </text>
<polyline fill="none" stroke="black" points="118,-683.5 274,-683.5 "/>
<text text-anchor="start" x="126" y="-671.5" font-family="Helvetica,sans-Serif" font-size="10.00"># c()</text>
<text text-anchor="start" x="126" y="-660.5" font-family="Helvetica,sans-Serif" font-size="10.00"># __check_protocols__()</text>
</a>
</g>
</g>
<!-- Node6&#45;&gt;Node2 -->
<g id="edge6" class="edge">
<title>Node6&#45;&gt;Node2</title>
<path fill="none" stroke="orange" d="M197.33,-643.44C197.48,-630.02 197.45,-615.44 197,-602 192.33,-462.65 187.48,-427.95 176,-289 175.01,-276.96 173.79,-263.93 172.61,-251.89"/>
<polygon fill="orange" stroke="orange" points="193.83,-643.4 197.18,-653.45 200.83,-643.5 193.83,-643.4"/>
<text text-anchor="start" x="192" y="-467" font-family="Helvetica,sans-Serif" font-size="10.00"> &lt; Device, L4::Icu,</text>
<text text-anchor="start" x="192" y="-456" font-family="Helvetica,sans-Serif" font-size="10.00"> L4VIRTIO_PROTOCOL,</text>
<text text-anchor="start" x="192" y="-445" font-family="Helvetica,sans-Serif" font-size="10.00"> L4::Type_info::Demand</text>
<text text-anchor="middle" x="249.5" y="-434" font-family="Helvetica,sans-Serif" font-size="10.00">_t&lt; 1 &gt; &gt;</text>
</g>
<!-- Node6&#45;&gt;Node4 -->
<g id="edge5" class="edge">
<title>Node6&#45;&gt;Node4</title>
<path fill="none" stroke="orange" d="M109.11,-661.98C98.38,-654.76 88.8,-645.88 82,-635 72.59,-619.96 70.88,-600.81 72.06,-583.61"/>
<polygon fill="orange" stroke="orange" points="107.59,-665.15 117.94,-667.42 111.27,-659.2 107.59,-665.15"/>
<text text-anchor="start" x="82" y="-627" font-family="Helvetica,sans-Serif" font-size="10.00"> &lt; Icu, Irq_eoi, L4</text>
<text text-anchor="start" x="82" y="-616" font-family="Helvetica,sans-Serif" font-size="10.00">_PROTO_IRQ, Type_info</text>
<text text-anchor="middle" x="139.5" y="-605" font-family="Helvetica,sans-Serif" font-size="10.00">::Demand_t&lt; 1 &gt; &gt;</text>
</g>
</g>
</svg>
