<?xml version="1.0" encoding="UTF-8" standalone="no"?>
<!DOCTYPE svg PUBLIC "-//W3C//DTD SVG 1.1//EN"
 "http://www.w3.org/Graphics/SVG/1.1/DTD/svg11.dtd">
<!-- Generated by graphviz version 2.43.0 (0)
 -->
<!-- Title: L4vbus::Device::bus_cap Pages: 1 -->
<svg width="323pt" height="274pt"
 viewBox="0.00 0.00 323.00 274.00" xmlns="http://www.w3.org/2000/svg" xmlns:xlink="http://www.w3.org/1999/xlink">
<g id="graph0" class="graph" transform="scale(1 1) rotate(0) translate(4 270)">
<title>L4vbus::Device::bus_cap</title>
<polygon fill="white" stroke="transparent" points="-4,4 -4,-270 319,-270 319,4 -4,4"/>
<!-- Node1 -->
<g id="node1" class="node">
<title>Node1</title>
<g id="a_node1"><a xlink:title="Access the Vbus capability of the underlying virtual bus.">
<polygon fill="#bfbfbf" stroke="black" points="178,-128 178,-147 315,-147 315,-128 178,-128"/>
<text text-anchor="middle" x="246.5" y="-135" font-family="Helvetica,sans-Serif" font-size="10.00">L4vbus::Device::bus_cap</text>
</a>
</g>
</g>
<!-- Node2 -->
<g id="node2" class="node">
<title>Node2</title>
<g id="a_node2"><a xlink:href="classL4vbus_1_1Pci__host__bridge.html#a4441432f00e007ee3a738866238938f0" target="_top" xlink:title="Read from the vPCI configuration space using the PCI root bridge.">
<polygon fill="white" stroke="black" points="4,-235.5 4,-265.5 138,-265.5 138,-235.5 4,-235.5"/>
<text text-anchor="start" x="12" y="-253.5" font-family="Helvetica,sans-Serif" font-size="10.00">L4vbus::Pci_host_bridge</text>
<text text-anchor="middle" x="71" y="-242.5" font-family="Helvetica,sans-Serif" font-size="10.00">::cfg_read</text>
</a>
</g>
</g>
<!-- Node1&#45;&gt;Node2 -->
<g id="edge1" class="edge">
<title>Node1&#45;&gt;Node2</title>
<path fill="none" stroke="midnightblue" d="M229.64,-154.26C210.46,-173.69 176.46,-205.59 142,-225.5 135.52,-229.24 128.38,-232.57 121.22,-235.49"/>
<polygon fill="midnightblue" stroke="midnightblue" points="232.23,-156.62 236.68,-147 227.2,-151.74 232.23,-156.62"/>
</g>
<!-- Node3 -->
<g id="node3" class="node">
<title>Node3</title>
<g id="a_node3"><a xlink:href="classL4vbus_1_1Pci__dev.html#a20658b5eb70c4773b369a0a3c8c88582" target="_top" xlink:title="Read from the device&#39;s vPCI configuration space.">
<polygon fill="white" stroke="black" points="0,-197 0,-216 142,-216 142,-197 0,-197"/>
<text text-anchor="middle" x="71" y="-204" font-family="Helvetica,sans-Serif" font-size="10.00">L4vbus::Pci_dev::cfg_read</text>
</a>
</g>
</g>
<!-- Node1&#45;&gt;Node3 -->
<g id="edge2" class="edge">
<title>Node1&#45;&gt;Node3</title>
<path fill="none" stroke="midnightblue" d="M219.3,-151.83C198.72,-162.67 169.11,-177.37 142,-187.5 132.56,-191.03 122.19,-194.2 112.38,-196.91"/>
<polygon fill="midnightblue" stroke="midnightblue" points="221.17,-154.8 228.35,-147 217.88,-148.62 221.17,-154.8"/>
</g>
<!-- Node4 -->
<g id="node4" class="node">
<title>Node4</title>
<g id="a_node4"><a xlink:href="classL4vbus_1_1Pci__host__bridge.html#ad316f6aeb09ecd36bc7aafa988dd272e" target="_top" xlink:title="Write to the vPCI configuration space using the PCI root bridge.">
<polygon fill="white" stroke="black" points="4,-147.5 4,-177.5 138,-177.5 138,-147.5 4,-147.5"/>
<text text-anchor="start" x="12" y="-165.5" font-family="Helvetica,sans-Serif" font-size="10.00">L4vbus::Pci_host_bridge</text>
<text text-anchor="middle" x="71" y="-154.5" font-family="Helvetica,sans-Serif" font-size="10.00">::cfg_write</text>
</a>
</g>
</g>
<!-- Node1&#45;&gt;Node4 -->
<g id="edge3" class="edge">
<title>Node1&#45;&gt;Node4</title>
<path fill="none" stroke="midnightblue" d="M169.5,-148.45C159.07,-149.95 148.43,-151.49 138.19,-152.96"/>
<polygon fill="midnightblue" stroke="midnightblue" points="170.01,-151.91 179.41,-147.02 169.02,-144.98 170.01,-151.91"/>
</g>
<!-- Node5 -->
<g id="node5" class="node">
<title>Node5</title>
<g id="a_node5"><a xlink:href="classL4vbus_1_1Pci__dev.html#a1cc8e109638d49502d08484d05c7b244" target="_top" xlink:title="Write to the device&#39;s vPCI configuration space.">
<polygon fill="white" stroke="black" points="13.5,-98.5 13.5,-128.5 128.5,-128.5 128.5,-98.5 13.5,-98.5"/>
<text text-anchor="start" x="21.5" y="-116.5" font-family="Helvetica,sans-Serif" font-size="10.00">L4vbus::Pci_dev::cfg</text>
<text text-anchor="middle" x="71" y="-105.5" font-family="Helvetica,sans-Serif" font-size="10.00">_write</text>
</a>
</g>
</g>
<!-- Node1&#45;&gt;Node5 -->
<g id="edge4" class="edge">
<title>Node1&#45;&gt;Node5</title>
<path fill="none" stroke="midnightblue" d="M167.91,-126.77C154.72,-124.94 141.24,-123.08 128.72,-121.35"/>
<polygon fill="midnightblue" stroke="midnightblue" points="167.54,-130.25 177.92,-128.15 168.5,-123.31 167.54,-130.25"/>
</g>
<!-- Node6 -->
<g id="node6" class="node">
<title>Node6</title>
<g id="a_node6"><a xlink:href="classL4vbus_1_1Pci__host__bridge.html#a4f405f52b078609d885e5331922447f1" target="_top" xlink:title="Enable PCI interrupt for a specific device using the PCI root bridge.">
<polygon fill="white" stroke="black" points="4,-49.5 4,-79.5 138,-79.5 138,-49.5 4,-49.5"/>
<text text-anchor="start" x="12" y="-67.5" font-family="Helvetica,sans-Serif" font-size="10.00">L4vbus::Pci_host_bridge</text>
<text text-anchor="middle" x="71" y="-56.5" font-family="Helvetica,sans-Serif" font-size="10.00">::irq_enable</text>
</a>
</g>
</g>
<!-- Node1&#45;&gt;Node6 -->
<g id="edge5" class="edge">
<title>Node1&#45;&gt;Node6</title>
<path fill="none" stroke="midnightblue" d="M217.13,-123.49C196.5,-113.51 167.79,-100.06 142,-89.5 133.76,-86.13 124.88,-82.75 116.29,-79.63"/>
<polygon fill="midnightblue" stroke="midnightblue" points="215.75,-126.71 226.28,-127.94 218.82,-120.42 215.75,-126.71"/>
</g>
<!-- Node7 -->
<g id="node7" class="node">
<title>Node7</title>
<g id="a_node7"><a xlink:href="classL4vbus_1_1Pci__dev.html#ace3784b8e44e44dc14c1cee121500b89" target="_top" xlink:title="Enable the device&#39;s PCI interrupt.">
<polygon fill="white" stroke="black" points="14.5,-0.5 14.5,-30.5 127.5,-30.5 127.5,-0.5 14.5,-0.5"/>
<text text-anchor="start" x="22.5" y="-18.5" font-family="Helvetica,sans-Serif" font-size="10.00">L4vbus::Pci_dev::irq</text>
<text text-anchor="middle" x="71" y="-7.5" font-family="Helvetica,sans-Serif" font-size="10.00">_enable</text>
</a>
</g>
</g>
<!-- Node1&#45;&gt;Node7 -->
<g id="edge6" class="edge">
<title>Node1&#45;&gt;Node7</title>
<path fill="none" stroke="midnightblue" d="M231.11,-120.21C212.51,-98.83 178.19,-62.59 142,-40.5 135.83,-36.74 129.01,-33.42 122.12,-30.54"/>
<polygon fill="midnightblue" stroke="midnightblue" points="228.5,-122.54 237.65,-127.86 233.82,-117.99 228.5,-122.54"/>
</g>
</g>
</svg>
