<?xml version="1.0" encoding="UTF-8" standalone="no"?>
<!DOCTYPE svg PUBLIC "-//W3C//DTD SVG 1.1//EN"
 "http://www.w3.org/Graphics/SVG/1.1/DTD/svg11.dtd">
<!-- Generated by graphviz version 2.43.0 (0)
 -->
<!-- Title: cxx::Bits::Basic_list&lt; POLICY &gt; Pages: 1 -->
<svg width="928pt" height="1198pt"
 viewBox="0.00 0.00 927.50 1198.00" xmlns="http://www.w3.org/2000/svg" xmlns:xlink="http://www.w3.org/1999/xlink">
<g id="graph0" class="graph" transform="scale(1 1) rotate(0) translate(4 1194)">
<title>cxx::Bits::Basic_list&lt; POLICY &gt;</title>
<polygon fill="white" stroke="transparent" points="-4,4 -4,-1194 923.5,-1194 923.5,4 -4,4"/>
<!-- Node1 -->
<g id="node1" class="node">
<title>Node1</title>
<g id="a_node1"><a xlink:title="Internal: Common functions for all head&#45;based list implementations.">
<polygon fill="#bfbfbf" stroke="black" points="551,-1000.5 551,-1189.5 662,-1189.5 662,-1000.5 551,-1000.5"/>
<text text-anchor="start" x="559" y="-1177.5" font-family="Helvetica,sans-Serif" font-size="10.00">cxx::Bits::Basic_list</text>
<text text-anchor="middle" x="606.5" y="-1166.5" font-family="Helvetica,sans-Serif" font-size="10.00">&lt; POLICY &gt;</text>
<polyline fill="none" stroke="black" points="551,-1159.5 662,-1159.5 "/>
<text text-anchor="start" x="559" y="-1147.5" font-family="Helvetica,sans-Serif" font-size="10.00"># _f</text>
<polyline fill="none" stroke="black" points="551,-1140.5 662,-1140.5 "/>
<text text-anchor="start" x="559" y="-1128.5" font-family="Helvetica,sans-Serif" font-size="10.00">+ Basic_list()</text>
<text text-anchor="start" x="559" y="-1117.5" font-family="Helvetica,sans-Serif" font-size="10.00">+ Basic_list()</text>
<text text-anchor="start" x="559" y="-1106.5" font-family="Helvetica,sans-Serif" font-size="10.00">+ empty()</text>
<text text-anchor="start" x="559" y="-1095.5" font-family="Helvetica,sans-Serif" font-size="10.00">+ front()</text>
<text text-anchor="start" x="559" y="-1084.5" font-family="Helvetica,sans-Serif" font-size="10.00">+ clear()</text>
<text text-anchor="start" x="559" y="-1073.5" font-family="Helvetica,sans-Serif" font-size="10.00">+ begin()</text>
<text text-anchor="start" x="559" y="-1062.5" font-family="Helvetica,sans-Serif" font-size="10.00">+ begin()</text>
<text text-anchor="start" x="559" y="-1051.5" font-family="Helvetica,sans-Serif" font-size="10.00">+ end()</text>
<text text-anchor="start" x="559" y="-1040.5" font-family="Helvetica,sans-Serif" font-size="10.00">+ end()</text>
<text text-anchor="start" x="559" y="-1029.5" font-family="Helvetica,sans-Serif" font-size="10.00">+ iter()</text>
<text text-anchor="start" x="559" y="-1018.5" font-family="Helvetica,sans-Serif" font-size="10.00"># __get_internal()</text>
<text text-anchor="start" x="559" y="-1007.5" font-family="Helvetica,sans-Serif" font-size="10.00"># __iter()</text>
</a>
</g>
</g>
<!-- Node2 -->
<g id="node2" class="node">
<title>Node2</title>
<g id="a_node2"><a xlink:href="classcxx_1_1H__list.html" target="_top" xlink:title=" ">
<polygon fill="white" stroke="black" points="0,-244.5 0,-433.5 131,-433.5 131,-244.5 0,-244.5"/>
<text text-anchor="middle" x="65.5" y="-421.5" font-family="Helvetica,sans-Serif" font-size="10.00">cxx::H_list&lt; Timeout &gt;</text>
<polyline fill="none" stroke="black" points="0,-414.5 131,-414.5 "/>
<text text-anchor="middle" x="65.5" y="-402.5" font-family="Helvetica,sans-Serif" font-size="10.00"> </text>
<polyline fill="none" stroke="black" points="0,-395.5 131,-395.5 "/>
<text text-anchor="start" x="8" y="-383.5" font-family="Helvetica,sans-Serif" font-size="10.00">+ H_list()</text>
<text text-anchor="start" x="8" y="-372.5" font-family="Helvetica,sans-Serif" font-size="10.00">+ H_list()</text>
<text text-anchor="start" x="8" y="-361.5" font-family="Helvetica,sans-Serif" font-size="10.00">+ add()</text>
<text text-anchor="start" x="8" y="-350.5" font-family="Helvetica,sans-Serif" font-size="10.00">+ push_front()</text>
<text text-anchor="start" x="8" y="-339.5" font-family="Helvetica,sans-Serif" font-size="10.00">+ pop_front()</text>
<text text-anchor="start" x="8" y="-328.5" font-family="Helvetica,sans-Serif" font-size="10.00">+ insert()</text>
<text text-anchor="start" x="8" y="-317.5" font-family="Helvetica,sans-Serif" font-size="10.00">+ iter()</text>
<text text-anchor="start" x="8" y="-306.5" font-family="Helvetica,sans-Serif" font-size="10.00">+ in_list()</text>
<text text-anchor="start" x="8" y="-295.5" font-family="Helvetica,sans-Serif" font-size="10.00">+ insert_after()</text>
<text text-anchor="start" x="8" y="-284.5" font-family="Helvetica,sans-Serif" font-size="10.00">+ insert_before()</text>
<text text-anchor="start" x="8" y="-273.5" font-family="Helvetica,sans-Serif" font-size="10.00">+ replace()</text>
<text text-anchor="start" x="8" y="-262.5" font-family="Helvetica,sans-Serif" font-size="10.00">+ remove()</text>
<text text-anchor="start" x="8" y="-251.5" font-family="Helvetica,sans-Serif" font-size="10.00">+ erase()</text>
</a>
</g>
</g>
<!-- Node1&#45;&gt;Node2 -->
<g id="edge1" class="edge">
<title>Node1&#45;&gt;Node2</title>
<path fill="none" stroke="midnightblue" d="M540.67,-1086.91C451.49,-1073.86 292.87,-1037.92 200.5,-942 67.7,-804.09 54.53,-565.27 58.68,-433.69"/>
<polygon fill="none" stroke="midnightblue" points="540.27,-1090.39 550.66,-1088.32 541.25,-1083.46 540.27,-1090.39"/>
</g>
<!-- Node3 -->
<g id="node3" class="node">
<title>Node3</title>
<g id="a_node3"><a xlink:href="classcxx_1_1H__list.html" target="_top" xlink:title=" ">
<polygon fill="white" stroke="black" points="149.5,-244.5 149.5,-433.5 283.5,-433.5 283.5,-244.5 149.5,-244.5"/>
<text text-anchor="middle" x="216.5" y="-421.5" font-family="Helvetica,sans-Serif" font-size="10.00">cxx::H_list&lt; Observer &gt;</text>
<polyline fill="none" stroke="black" points="149.5,-414.5 283.5,-414.5 "/>
<text text-anchor="middle" x="216.5" y="-402.5" font-family="Helvetica,sans-Serif" font-size="10.00"> </text>
<polyline fill="none" stroke="black" points="149.5,-395.5 283.5,-395.5 "/>
<text text-anchor="start" x="157.5" y="-383.5" font-family="Helvetica,sans-Serif" font-size="10.00">+ H_list()</text>
<text text-anchor="start" x="157.5" y="-372.5" font-family="Helvetica,sans-Serif" font-size="10.00">+ H_list()</text>
<text text-anchor="start" x="157.5" y="-361.5" font-family="Helvetica,sans-Serif" font-size="10.00">+ add()</text>
<text text-anchor="start" x="157.5" y="-350.5" font-family="Helvetica,sans-Serif" font-size="10.00">+ push_front()</text>
<text text-anchor="start" x="157.5" y="-339.5" font-family="Helvetica,sans-Serif" font-size="10.00">+ pop_front()</text>
<text text-anchor="start" x="157.5" y="-328.5" font-family="Helvetica,sans-Serif" font-size="10.00">+ insert()</text>
<text text-anchor="start" x="157.5" y="-317.5" font-family="Helvetica,sans-Serif" font-size="10.00">+ iter()</text>
<text text-anchor="start" x="157.5" y="-306.5" font-family="Helvetica,sans-Serif" font-size="10.00">+ in_list()</text>
<text text-anchor="start" x="157.5" y="-295.5" font-family="Helvetica,sans-Serif" font-size="10.00">+ insert_after()</text>
<text text-anchor="start" x="157.5" y="-284.5" font-family="Helvetica,sans-Serif" font-size="10.00">+ insert_before()</text>
<text text-anchor="start" x="157.5" y="-273.5" font-family="Helvetica,sans-Serif" font-size="10.00">+ replace()</text>
<text text-anchor="start" x="157.5" y="-262.5" font-family="Helvetica,sans-Serif" font-size="10.00">+ remove()</text>
<text text-anchor="start" x="157.5" y="-251.5" font-family="Helvetica,sans-Serif" font-size="10.00">+ erase()</text>
</a>
</g>
</g>
<!-- Node1&#45;&gt;Node3 -->
<g id="edge2" class="edge">
<title>Node1&#45;&gt;Node3</title>
<path fill="none" stroke="midnightblue" d="M541.78,-1065.75C488.02,-1039.75 412.24,-996.93 360.5,-942 206.16,-778.14 175.5,-714.28 120.5,-496 116.92,-481.78 114.7,-476.47 120.5,-463 125.1,-452.31 131.81,-453.73 139.5,-445 142.79,-441.27 146.08,-437.4 149.35,-433.46"/>
<polygon fill="none" stroke="midnightblue" points="540.35,-1068.95 550.88,-1070.1 543.37,-1062.63 540.35,-1068.95"/>
</g>
<!-- Node4 -->
<g id="node4" class="node">
<title>Node4</title>
<g id="a_node4"><a xlink:href="classcxx_1_1H__list.html" target="_top" xlink:title=" ">
<polygon fill="white" stroke="black" points="484,-233.5 484,-444.5 631,-444.5 631,-233.5 484,-233.5"/>
<text text-anchor="start" x="492" y="-432.5" font-family="Helvetica,sans-Serif" font-size="10.00">cxx::H_list&lt; T, Bits</text>
<text text-anchor="start" x="492" y="-421.5" font-family="Helvetica,sans-Serif" font-size="10.00">::Basic_list_policy&lt;</text>
<text text-anchor="middle" x="557.5" y="-410.5" font-family="Helvetica,sans-Serif" font-size="10.00"> T, H_list_item_t&lt; T &gt; &gt; &gt;</text>
<polyline fill="none" stroke="black" points="484,-403.5 631,-403.5 "/>
<text text-anchor="middle" x="557.5" y="-391.5" font-family="Helvetica,sans-Serif" font-size="10.00"> </text>
<polyline fill="none" stroke="black" points="484,-384.5 631,-384.5 "/>
<text text-anchor="start" x="492" y="-372.5" font-family="Helvetica,sans-Serif" font-size="10.00">+ H_list()</text>
<text text-anchor="start" x="492" y="-361.5" font-family="Helvetica,sans-Serif" font-size="10.00">+ H_list()</text>
<text text-anchor="start" x="492" y="-350.5" font-family="Helvetica,sans-Serif" font-size="10.00">+ add()</text>
<text text-anchor="start" x="492" y="-339.5" font-family="Helvetica,sans-Serif" font-size="10.00">+ push_front()</text>
<text text-anchor="start" x="492" y="-328.5" font-family="Helvetica,sans-Serif" font-size="10.00">+ pop_front()</text>
<text text-anchor="start" x="492" y="-317.5" font-family="Helvetica,sans-Serif" font-size="10.00">+ insert()</text>
<text text-anchor="start" x="492" y="-306.5" font-family="Helvetica,sans-Serif" font-size="10.00">+ iter()</text>
<text text-anchor="start" x="492" y="-295.5" font-family="Helvetica,sans-Serif" font-size="10.00">+ in_list()</text>
<text text-anchor="start" x="492" y="-284.5" font-family="Helvetica,sans-Serif" font-size="10.00">+ insert_after()</text>
<text text-anchor="start" x="492" y="-273.5" font-family="Helvetica,sans-Serif" font-size="10.00">+ insert_before()</text>
<text text-anchor="start" x="492" y="-262.5" font-family="Helvetica,sans-Serif" font-size="10.00">+ replace()</text>
<text text-anchor="start" x="492" y="-251.5" font-family="Helvetica,sans-Serif" font-size="10.00">+ remove()</text>
<text text-anchor="start" x="492" y="-240.5" font-family="Helvetica,sans-Serif" font-size="10.00">+ erase()</text>
</a>
</g>
</g>
<!-- Node1&#45;&gt;Node4 -->
<g id="edge3" class="edge">
<title>Node1&#45;&gt;Node4</title>
<path fill="none" stroke="midnightblue" d="M636.2,-990.22C636.68,-987.46 637.11,-984.71 637.5,-982 670.2,-753.64 714.39,-682.85 644.5,-463 641.13,-452.41 636.48,-441.94 631.08,-431.85"/>
<polygon fill="none" stroke="midnightblue" points="632.72,-989.79 634.32,-1000.26 639.6,-991.08 632.72,-989.79"/>
</g>
<!-- Node7 -->
<g id="node7" class="node">
<title>Node7</title>
<g id="a_node7"><a xlink:href="classcxx_1_1H__list.html" target="_top" xlink:title=" ">
<polygon fill="white" stroke="black" points="339.5,-239 339.5,-439 465.5,-439 465.5,-239 339.5,-239"/>
<text text-anchor="start" x="347.5" y="-427" font-family="Helvetica,sans-Serif" font-size="10.00">cxx::H_list&lt; cxx::Base</text>
<text text-anchor="middle" x="402.5" y="-416" font-family="Helvetica,sans-Serif" font-size="10.00">_slab::Slab_i &gt;</text>
<polyline fill="none" stroke="black" points="339.5,-409 465.5,-409 "/>
<text text-anchor="middle" x="402.5" y="-397" font-family="Helvetica,sans-Serif" font-size="10.00"> </text>
<polyline fill="none" stroke="black" points="339.5,-390 465.5,-390 "/>
<text text-anchor="start" x="347.5" y="-378" font-family="Helvetica,sans-Serif" font-size="10.00">+ H_list()</text>
<text text-anchor="start" x="347.5" y="-367" font-family="Helvetica,sans-Serif" font-size="10.00">+ H_list()</text>
<text text-anchor="start" x="347.5" y="-356" font-family="Helvetica,sans-Serif" font-size="10.00">+ add()</text>
<text text-anchor="start" x="347.5" y="-345" font-family="Helvetica,sans-Serif" font-size="10.00">+ push_front()</text>
<text text-anchor="start" x="347.5" y="-334" font-family="Helvetica,sans-Serif" font-size="10.00">+ pop_front()</text>
<text text-anchor="start" x="347.5" y="-323" font-family="Helvetica,sans-Serif" font-size="10.00">+ insert()</text>
<text text-anchor="start" x="347.5" y="-312" font-family="Helvetica,sans-Serif" font-size="10.00">+ iter()</text>
<text text-anchor="start" x="347.5" y="-301" font-family="Helvetica,sans-Serif" font-size="10.00">+ in_list()</text>
<text text-anchor="start" x="347.5" y="-290" font-family="Helvetica,sans-Serif" font-size="10.00">+ insert_after()</text>
<text text-anchor="start" x="347.5" y="-279" font-family="Helvetica,sans-Serif" font-size="10.00">+ insert_before()</text>
<text text-anchor="start" x="347.5" y="-268" font-family="Helvetica,sans-Serif" font-size="10.00">+ replace()</text>
<text text-anchor="start" x="347.5" y="-257" font-family="Helvetica,sans-Serif" font-size="10.00">+ remove()</text>
<text text-anchor="start" x="347.5" y="-246" font-family="Helvetica,sans-Serif" font-size="10.00">+ erase()</text>
</a>
</g>
</g>
<!-- Node1&#45;&gt;Node7 -->
<g id="edge6" class="edge">
<title>Node1&#45;&gt;Node7</title>
<path fill="none" stroke="midnightblue" d="M615.63,-990.04C629.38,-821.01 650.4,-501.46 616.5,-463 595.47,-439.14 501.65,-461.57 474.5,-445 471.48,-443.16 468.56,-441.14 465.73,-438.96"/>
<polygon fill="none" stroke="midnightblue" points="612.12,-989.96 614.8,-1000.21 619.1,-990.53 612.12,-989.96"/>
</g>
<!-- Node8 -->
<g id="node8" class="node">
<title>Node8</title>
<g id="a_node8"><a xlink:href="classcxx_1_1Bits_1_1Basic__list.html" target="_top" xlink:title=" ">
<polygon fill="white" stroke="black" points="689.5,-741.5 689.5,-941.5 823.5,-941.5 823.5,-741.5 689.5,-741.5"/>
<text text-anchor="start" x="697.5" y="-929.5" font-family="Helvetica,sans-Serif" font-size="10.00">cxx::Bits::Basic_list</text>
<text text-anchor="start" x="697.5" y="-918.5" font-family="Helvetica,sans-Serif" font-size="10.00">&lt; Bits::Basic_list_policy</text>
<text text-anchor="middle" x="756.5" y="-907.5" font-family="Helvetica,sans-Serif" font-size="10.00">&lt; T, S_list_item &gt; &gt;</text>
<polyline fill="none" stroke="black" points="689.5,-900.5 823.5,-900.5 "/>
<text text-anchor="start" x="697.5" y="-888.5" font-family="Helvetica,sans-Serif" font-size="10.00"># _f</text>
<polyline fill="none" stroke="black" points="689.5,-881.5 823.5,-881.5 "/>
<text text-anchor="start" x="697.5" y="-869.5" font-family="Helvetica,sans-Serif" font-size="10.00">+ Basic_list()</text>
<text text-anchor="start" x="697.5" y="-858.5" font-family="Helvetica,sans-Serif" font-size="10.00">+ Basic_list()</text>
<text text-anchor="start" x="697.5" y="-847.5" font-family="Helvetica,sans-Serif" font-size="10.00">+ empty()</text>
<text text-anchor="start" x="697.5" y="-836.5" font-family="Helvetica,sans-Serif" font-size="10.00">+ front()</text>
<text text-anchor="start" x="697.5" y="-825.5" font-family="Helvetica,sans-Serif" font-size="10.00">+ clear()</text>
<text text-anchor="start" x="697.5" y="-814.5" font-family="Helvetica,sans-Serif" font-size="10.00">+ begin()</text>
<text text-anchor="start" x="697.5" y="-803.5" font-family="Helvetica,sans-Serif" font-size="10.00">+ begin()</text>
<text text-anchor="start" x="697.5" y="-792.5" font-family="Helvetica,sans-Serif" font-size="10.00">+ end()</text>
<text text-anchor="start" x="697.5" y="-781.5" font-family="Helvetica,sans-Serif" font-size="10.00">+ end()</text>
<text text-anchor="start" x="697.5" y="-770.5" font-family="Helvetica,sans-Serif" font-size="10.00">+ iter()</text>
<text text-anchor="start" x="697.5" y="-759.5" font-family="Helvetica,sans-Serif" font-size="10.00"># __get_internal()</text>
<text text-anchor="start" x="697.5" y="-748.5" font-family="Helvetica,sans-Serif" font-size="10.00"># __iter()</text>
</a>
</g>
</g>
<!-- Node1&#45;&gt;Node8 -->
<g id="edge7" class="edge">
<title>Node1&#45;&gt;Node8</title>
<path fill="none" stroke="orange" d="M667.39,-995.48C670.14,-990.93 672.86,-986.42 675.5,-982 683.26,-969.02 691.36,-955.31 699.29,-941.76"/>
<polygon fill="orange" stroke="orange" points="664.26,-993.9 662.07,-1004.26 670.24,-997.53 664.26,-993.9"/>
<text text-anchor="start" x="687.5" y="-974" font-family="Helvetica,sans-Serif" font-size="10.00"> &lt; Bits::Basic_list</text>
<text text-anchor="middle" x="755" y="-963" font-family="Helvetica,sans-Serif" font-size="10.00">_policy&lt; T, S_list_item &gt; &gt;</text>
</g>
<!-- Node11 -->
<g id="node11" class="node">
<title>Node11</title>
<g id="a_node11"><a xlink:href="classcxx_1_1Bits_1_1Basic__list.html" target="_top" xlink:title=" ">
<polygon fill="white" stroke="black" points="369.5,-741.5 369.5,-941.5 503.5,-941.5 503.5,-741.5 369.5,-741.5"/>
<text text-anchor="start" x="377.5" y="-929.5" font-family="Helvetica,sans-Serif" font-size="10.00">cxx::Bits::Basic_list</text>
<text text-anchor="start" x="377.5" y="-918.5" font-family="Helvetica,sans-Serif" font-size="10.00">&lt; Bits::Basic_list_policy</text>
<text text-anchor="middle" x="436.5" y="-907.5" font-family="Helvetica,sans-Serif" font-size="10.00">&lt; T, H_list_item &gt; &gt;</text>
<polyline fill="none" stroke="black" points="369.5,-900.5 503.5,-900.5 "/>
<text text-anchor="start" x="377.5" y="-888.5" font-family="Helvetica,sans-Serif" font-size="10.00"># _f</text>
<polyline fill="none" stroke="black" points="369.5,-881.5 503.5,-881.5 "/>
<text text-anchor="start" x="377.5" y="-869.5" font-family="Helvetica,sans-Serif" font-size="10.00">+ Basic_list()</text>
<text text-anchor="start" x="377.5" y="-858.5" font-family="Helvetica,sans-Serif" font-size="10.00">+ Basic_list()</text>
<text text-anchor="start" x="377.5" y="-847.5" font-family="Helvetica,sans-Serif" font-size="10.00">+ empty()</text>
<text text-anchor="start" x="377.5" y="-836.5" font-family="Helvetica,sans-Serif" font-size="10.00">+ front()</text>
<text text-anchor="start" x="377.5" y="-825.5" font-family="Helvetica,sans-Serif" font-size="10.00">+ clear()</text>
<text text-anchor="start" x="377.5" y="-814.5" font-family="Helvetica,sans-Serif" font-size="10.00">+ begin()</text>
<text text-anchor="start" x="377.5" y="-803.5" font-family="Helvetica,sans-Serif" font-size="10.00">+ begin()</text>
<text text-anchor="start" x="377.5" y="-792.5" font-family="Helvetica,sans-Serif" font-size="10.00">+ end()</text>
<text text-anchor="start" x="377.5" y="-781.5" font-family="Helvetica,sans-Serif" font-size="10.00">+ end()</text>
<text text-anchor="start" x="377.5" y="-770.5" font-family="Helvetica,sans-Serif" font-size="10.00">+ iter()</text>
<text text-anchor="start" x="377.5" y="-759.5" font-family="Helvetica,sans-Serif" font-size="10.00"># __get_internal()</text>
<text text-anchor="start" x="377.5" y="-748.5" font-family="Helvetica,sans-Serif" font-size="10.00"># __iter()</text>
</a>
</g>
</g>
<!-- Node1&#45;&gt;Node11 -->
<g id="edge11" class="edge">
<title>Node1&#45;&gt;Node11</title>
<path fill="none" stroke="orange" d="M542.53,-1052.96C517.7,-1034.09 491.07,-1009.71 473.5,-982 465.72,-969.73 459.56,-955.85 454.7,-941.74"/>
<polygon fill="orange" stroke="orange" points="540.75,-1056 550.87,-1059.15 544.92,-1050.38 540.75,-1056"/>
<text text-anchor="start" x="473.5" y="-974" font-family="Helvetica,sans-Serif" font-size="10.00"> &lt; Bits::Basic_list</text>
<text text-anchor="middle" x="541.5" y="-963" font-family="Helvetica,sans-Serif" font-size="10.00">_policy&lt; T, H_list_item &gt; &gt;</text>
</g>
<!-- Node5 -->
<g id="node5" class="node">
<title>Node5</title>
<g id="a_node5"><a xlink:href="structcxx_1_1H__list__t.html" target="_top" xlink:title="Double&#45;linked list of typed H_list_item_t elements.">
<polygon fill="white" stroke="black" points="422,-127.5 422,-195.5 527,-195.5 527,-127.5 422,-127.5"/>
<text text-anchor="middle" x="474.5" y="-183.5" font-family="Helvetica,sans-Serif" font-size="10.00">cxx::H_list_t&lt; T &gt;</text>
<polyline fill="none" stroke="black" points="422,-176.5 527,-176.5 "/>
<text text-anchor="middle" x="474.5" y="-164.5" font-family="Helvetica,sans-Serif" font-size="10.00"> </text>
<polyline fill="none" stroke="black" points="422,-157.5 527,-157.5 "/>
<text text-anchor="start" x="430" y="-145.5" font-family="Helvetica,sans-Serif" font-size="10.00">+ H_list_t()</text>
<text text-anchor="start" x="430" y="-134.5" font-family="Helvetica,sans-Serif" font-size="10.00">+ H_list_t()</text>
</a>
</g>
</g>
<!-- Node4&#45;&gt;Node5 -->
<g id="edge4" class="edge">
<title>Node4&#45;&gt;Node5</title>
<path fill="none" stroke="midnightblue" d="M503.68,-224.2C498.81,-213.89 494.18,-204.11 490.11,-195.51"/>
<polygon fill="none" stroke="midnightblue" points="500.58,-225.83 508.02,-233.38 506.91,-222.84 500.58,-225.83"/>
</g>
<!-- Node6 -->
<g id="node6" class="node">
<title>Node6</title>
<g id="a_node6"><a xlink:href="structcxx_1_1H__list__t.html" target="_top" xlink:title=" ">
<polygon fill="white" stroke="black" points="270,-0.5 270,-79.5 385,-79.5 385,-0.5 270,-0.5"/>
<text text-anchor="start" x="278" y="-67.5" font-family="Helvetica,sans-Serif" font-size="10.00">cxx::H_list_t&lt; Weak</text>
<text text-anchor="middle" x="327.5" y="-56.5" font-family="Helvetica,sans-Serif" font-size="10.00">_ref_base &gt;</text>
<polyline fill="none" stroke="black" points="270,-49.5 385,-49.5 "/>
<text text-anchor="middle" x="327.5" y="-37.5" font-family="Helvetica,sans-Serif" font-size="10.00"> </text>
<polyline fill="none" stroke="black" points="270,-30.5 385,-30.5 "/>
<text text-anchor="start" x="278" y="-18.5" font-family="Helvetica,sans-Serif" font-size="10.00">+ H_list_t()</text>
<text text-anchor="start" x="278" y="-7.5" font-family="Helvetica,sans-Serif" font-size="10.00">+ H_list_t()</text>
</a>
</g>
</g>
<!-- Node5&#45;&gt;Node6 -->
<g id="edge5" class="edge">
<title>Node5&#45;&gt;Node6</title>
<path fill="none" stroke="orange" d="M425.7,-120.83C409.37,-107.56 391.21,-92.79 374.98,-79.6"/>
<polygon fill="orange" stroke="orange" points="423.58,-123.62 433.55,-127.21 428,-118.19 423.58,-123.62"/>
<text text-anchor="middle" x="460.5" y="-101" font-family="Helvetica,sans-Serif" font-size="10.00"> &lt; Weak_ref_base &gt;</text>
</g>
<!-- Node9 -->
<g id="node9" class="node">
<title>Node9</title>
<g id="a_node9"><a xlink:href="classcxx_1_1S__list.html" target="_top" xlink:title=" ">
<polygon fill="white" stroke="black" points="692.5,-250 692.5,-428 804.5,-428 804.5,-250 692.5,-250"/>
<text text-anchor="start" x="700.5" y="-416" font-family="Helvetica,sans-Serif" font-size="10.00">cxx::S_list&lt; T, Bits</text>
<text text-anchor="start" x="700.5" y="-405" font-family="Helvetica,sans-Serif" font-size="10.00">::Basic_list_policy&lt;</text>
<text text-anchor="middle" x="748.5" y="-394" font-family="Helvetica,sans-Serif" font-size="10.00"> T, S_list_item &gt; &gt;</text>
<polyline fill="none" stroke="black" points="692.5,-387 804.5,-387 "/>
<text text-anchor="middle" x="748.5" y="-375" font-family="Helvetica,sans-Serif" font-size="10.00"> </text>
<polyline fill="none" stroke="black" points="692.5,-368 804.5,-368 "/>
<text text-anchor="start" x="700.5" y="-356" font-family="Helvetica,sans-Serif" font-size="10.00">+ S_list()</text>
<text text-anchor="start" x="700.5" y="-345" font-family="Helvetica,sans-Serif" font-size="10.00">+ S_list()</text>
<text text-anchor="start" x="700.5" y="-334" font-family="Helvetica,sans-Serif" font-size="10.00">+ add()</text>
<text text-anchor="start" x="700.5" y="-323" font-family="Helvetica,sans-Serif" font-size="10.00">+ add()</text>
<text text-anchor="start" x="700.5" y="-312" font-family="Helvetica,sans-Serif" font-size="10.00">+ push_front()</text>
<text text-anchor="start" x="700.5" y="-301" font-family="Helvetica,sans-Serif" font-size="10.00">+ pop_front()</text>
<text text-anchor="start" x="700.5" y="-290" font-family="Helvetica,sans-Serif" font-size="10.00">+ insert()</text>
<text text-anchor="start" x="700.5" y="-279" font-family="Helvetica,sans-Serif" font-size="10.00">+ insert_before()</text>
<text text-anchor="start" x="700.5" y="-268" font-family="Helvetica,sans-Serif" font-size="10.00">+ replace()</text>
<text text-anchor="start" x="700.5" y="-257" font-family="Helvetica,sans-Serif" font-size="10.00">+ erase()</text>
</a>
</g>
</g>
<!-- Node8&#45;&gt;Node9 -->
<g id="edge8" class="edge">
<title>Node8&#45;&gt;Node9</title>
<path fill="none" stroke="midnightblue" d="M737.31,-731.23C736.18,-722.04 735.21,-712.87 734.5,-704 726.97,-609.91 732.98,-501.81 739.3,-428.01"/>
<polygon fill="none" stroke="midnightblue" points="733.85,-731.73 738.6,-741.2 740.79,-730.83 733.85,-731.73"/>
</g>
<!-- Node10 -->
<g id="node10" class="node">
<title>Node10</title>
<g id="a_node10"><a xlink:href="classcxx_1_1S__list.html" target="_top" xlink:title="Simple single&#45;linked list.">
<polygon fill="white" stroke="black" points="744,-531 744,-687 879,-687 879,-531 744,-531"/>
<text text-anchor="middle" x="811.5" y="-675" font-family="Helvetica,sans-Serif" font-size="10.00">cxx::S_list&lt; T, POLICY &gt;</text>
<polyline fill="none" stroke="black" points="744,-668 879,-668 "/>
<text text-anchor="middle" x="811.5" y="-656" font-family="Helvetica,sans-Serif" font-size="10.00"> </text>
<polyline fill="none" stroke="black" points="744,-649 879,-649 "/>
<text text-anchor="start" x="752" y="-637" font-family="Helvetica,sans-Serif" font-size="10.00">+ S_list()</text>
<text text-anchor="start" x="752" y="-626" font-family="Helvetica,sans-Serif" font-size="10.00">+ S_list()</text>
<text text-anchor="start" x="752" y="-615" font-family="Helvetica,sans-Serif" font-size="10.00">+ add()</text>
<text text-anchor="start" x="752" y="-604" font-family="Helvetica,sans-Serif" font-size="10.00">+ add()</text>
<text text-anchor="start" x="752" y="-593" font-family="Helvetica,sans-Serif" font-size="10.00">+ push_front()</text>
<text text-anchor="start" x="752" y="-582" font-family="Helvetica,sans-Serif" font-size="10.00">+ pop_front()</text>
<text text-anchor="start" x="752" y="-571" font-family="Helvetica,sans-Serif" font-size="10.00">+ insert()</text>
<text text-anchor="start" x="752" y="-560" font-family="Helvetica,sans-Serif" font-size="10.00">+ insert_before()</text>
<text text-anchor="start" x="752" y="-549" font-family="Helvetica,sans-Serif" font-size="10.00">+ replace()</text>
<text text-anchor="start" x="752" y="-538" font-family="Helvetica,sans-Serif" font-size="10.00">+ erase()</text>
</a>
</g>
</g>
<!-- Node8&#45;&gt;Node10 -->
<g id="edge9" class="edge">
<title>Node8&#45;&gt;Node10</title>
<path fill="none" stroke="midnightblue" d="M782.49,-731.57C786.08,-716.54 789.7,-701.37 793.11,-687.08"/>
<polygon fill="none" stroke="midnightblue" points="779.06,-730.87 780.14,-741.41 785.87,-732.49 779.06,-730.87"/>
</g>
<!-- Node10&#45;&gt;Node9 -->
<g id="edge10" class="edge">
<title>Node10&#45;&gt;Node9</title>
<path fill="none" stroke="orange" d="M791.03,-520.94C784.07,-491.3 776.27,-458.15 769.28,-428.41"/>
<polygon fill="orange" stroke="orange" points="787.67,-521.91 793.36,-530.84 794.48,-520.31 787.67,-521.91"/>
<text text-anchor="start" x="784.5" y="-482.5" font-family="Helvetica,sans-Serif" font-size="10.00"> &lt; T, Bits::Basic_list</text>
<text text-anchor="middle" x="852" y="-471.5" font-family="Helvetica,sans-Serif" font-size="10.00">_policy&lt; T, S_list_item &gt; &gt;</text>
</g>
<!-- Node12 -->
<g id="node12" class="node">
<title>Node12</title>
<g id="a_node12"><a xlink:href="classcxx_1_1H__list.html" target="_top" xlink:title="General double&#45;linked list of unspecified cxx::H_list_item elements.">
<polygon fill="white" stroke="black" points="259,-514.5 259,-703.5 396,-703.5 396,-514.5 259,-514.5"/>
<text text-anchor="middle" x="327.5" y="-691.5" font-family="Helvetica,sans-Serif" font-size="10.00">cxx::H_list&lt; T, POLICY &gt;</text>
<polyline fill="none" stroke="black" points="259,-684.5 396,-684.5 "/>
<text text-anchor="middle" x="327.5" y="-672.5" font-family="Helvetica,sans-Serif" font-size="10.00"> </text>
<polyline fill="none" stroke="black" points="259,-665.5 396,-665.5 "/>
<text text-anchor="start" x="267" y="-653.5" font-family="Helvetica,sans-Serif" font-size="10.00">+ H_list()</text>
<text text-anchor="start" x="267" y="-642.5" font-family="Helvetica,sans-Serif" font-size="10.00">+ H_list()</text>
<text text-anchor="start" x="267" y="-631.5" font-family="Helvetica,sans-Serif" font-size="10.00">+ add()</text>
<text text-anchor="start" x="267" y="-620.5" font-family="Helvetica,sans-Serif" font-size="10.00">+ push_front()</text>
<text text-anchor="start" x="267" y="-609.5" font-family="Helvetica,sans-Serif" font-size="10.00">+ pop_front()</text>
<text text-anchor="start" x="267" y="-598.5" font-family="Helvetica,sans-Serif" font-size="10.00">+ insert()</text>
<text text-anchor="start" x="267" y="-587.5" font-family="Helvetica,sans-Serif" font-size="10.00">+ iter()</text>
<text text-anchor="start" x="267" y="-576.5" font-family="Helvetica,sans-Serif" font-size="10.00">+ in_list()</text>
<text text-anchor="start" x="267" y="-565.5" font-family="Helvetica,sans-Serif" font-size="10.00">+ insert_after()</text>
<text text-anchor="start" x="267" y="-554.5" font-family="Helvetica,sans-Serif" font-size="10.00">+ insert_before()</text>
<text text-anchor="start" x="267" y="-543.5" font-family="Helvetica,sans-Serif" font-size="10.00">+ replace()</text>
<text text-anchor="start" x="267" y="-532.5" font-family="Helvetica,sans-Serif" font-size="10.00">+ remove()</text>
<text text-anchor="start" x="267" y="-521.5" font-family="Helvetica,sans-Serif" font-size="10.00">+ erase()</text>
</a>
</g>
</g>
<!-- Node11&#45;&gt;Node12 -->
<g id="edge12" class="edge">
<title>Node11&#45;&gt;Node12</title>
<path fill="none" stroke="midnightblue" d="M385.31,-732.24C380.77,-722.65 376.2,-712.99 371.73,-703.54"/>
<polygon fill="none" stroke="midnightblue" points="382.2,-733.87 389.64,-741.41 388.53,-730.87 382.2,-733.87"/>
</g>
<!-- Node12&#45;&gt;Node2 -->
<g id="edge14" class="edge">
<title>Node12&#45;&gt;Node2</title>
<path fill="none" stroke="orange" d="M249.84,-571.58C215.4,-552.63 176.26,-526.93 147.5,-496 130.62,-477.85 116.22,-455.57 104.41,-433.59"/>
<polygon fill="orange" stroke="orange" points="248.49,-574.83 258.95,-576.5 251.81,-568.67 248.49,-574.83"/>
<text text-anchor="middle" x="181" y="-477" font-family="Helvetica,sans-Serif" font-size="10.00"> &lt; Timeout &gt;</text>
</g>
<!-- Node12&#45;&gt;Node3 -->
<g id="edge15" class="edge">
<title>Node12&#45;&gt;Node3</title>
<path fill="none" stroke="orange" d="M252.53,-537.46C242.56,-524.61 233.67,-510.62 227.5,-496 219.37,-476.74 215.13,-454.95 213.18,-433.9"/>
<polygon fill="orange" stroke="orange" points="249.86,-539.72 258.86,-545.31 255.31,-535.32 249.86,-539.72"/>
<text text-anchor="middle" x="262.5" y="-477" font-family="Helvetica,sans-Serif" font-size="10.00"> &lt; Observer &gt;</text>
</g>
<!-- Node12&#45;&gt;Node4 -->
<g id="edge16" class="edge">
<title>Node12&#45;&gt;Node4</title>
<path fill="none" stroke="orange" d="M404.75,-561.7C430.74,-543.52 458.45,-521 479.5,-496 492.47,-480.6 503.96,-462.67 513.87,-444.57"/>
<polygon fill="orange" stroke="orange" points="402.65,-558.89 396.38,-567.44 406.61,-564.67 402.65,-558.89"/>
<text text-anchor="start" x="502.5" y="-488" font-family="Helvetica,sans-Serif" font-size="10.00"> &lt; T, Bits::Basic_list</text>
<text text-anchor="start" x="502.5" y="-477" font-family="Helvetica,sans-Serif" font-size="10.00">_policy&lt; T, H_list_item</text>
<text text-anchor="middle" x="559.5" y="-466" font-family="Helvetica,sans-Serif" font-size="10.00">_t&lt; T &gt; &gt; &gt;</text>
</g>
<!-- Node12&#45;&gt;Node6 -->
<g id="edge13" class="edge">
<title>Node12&#45;&gt;Node6</title>
<path fill="none" stroke="midnightblue" d="M327.5,-504.18C327.5,-376.43 327.5,-165.89 327.5,-79.65"/>
<polygon fill="none" stroke="midnightblue" points="324,-504.37 327.5,-514.37 331,-504.37 324,-504.37"/>
</g>
<!-- Node12&#45;&gt;Node7 -->
<g id="edge17" class="edge">
<title>Node12&#45;&gt;Node7</title>
<path fill="none" stroke="orange" d="M336.41,-504.17C338.76,-490.19 341.74,-476.15 345.5,-463 347.77,-455.08 350.48,-447.03 353.47,-439.03"/>
<polygon fill="orange" stroke="orange" points="332.91,-503.89 334.8,-514.32 339.82,-504.99 332.91,-503.89"/>
<text text-anchor="middle" x="412.5" y="-477" font-family="Helvetica,sans-Serif" font-size="10.00"> &lt; cxx::Base_slab::Slab_i &gt;</text>
</g>
</g>
</svg>
