<?xml version="1.0" encoding="UTF-8" standalone="no"?>
<!DOCTYPE svg PUBLIC "-//W3C//DTD SVG 1.1//EN"
 "http://www.w3.org/Graphics/SVG/1.1/DTD/svg11.dtd">
<!-- Generated by graphviz version 2.43.0 (0)
 -->
<!-- Title: cxx::Bits::Base_avl_set::rbegin Pages: 1 -->
<svg width="416pt" height="39pt"
 viewBox="0.00 0.00 416.00 39.00" xmlns="http://www.w3.org/2000/svg" xmlns:xlink="http://www.w3.org/1999/xlink">
<g id="graph0" class="graph" transform="scale(1 1) rotate(0) translate(4 35)">
<title>cxx::Bits::Base_avl_set::rbegin</title>
<polygon fill="white" stroke="transparent" points="-4,4 -4,-35 412,-35 412,4 -4,4"/>
<!-- Node1 -->
<g id="node1" class="node">
<title>Node1</title>
<g id="a_node1"><a xlink:title="Get the constant backward iterator for the last element in the set.">
<polygon fill="#bfbfbf" stroke="black" points="0,-0.5 0,-30.5 109,-30.5 109,-0.5 0,-0.5"/>
<text text-anchor="start" x="8" y="-18.5" font-family="Helvetica,sans-Serif" font-size="10.00">cxx::Bits::Base_avl</text>
<text text-anchor="middle" x="54.5" y="-7.5" font-family="Helvetica,sans-Serif" font-size="10.00">_set::rbegin</text>
</a>
</g>
</g>
<!-- Node2 -->
<g id="node2" class="node">
<title>Node2</title>
<g id="a_node2"><a xlink:href="classcxx_1_1Bits_1_1Bst.html#a5e80aac8fe16a2b7058fb6f872c8faba" target="_top" xlink:title="Get the constant backward iterator for the last element in the set.">
<polygon fill="white" stroke="black" points="145,-6 145,-25 262,-25 262,-6 145,-6"/>
<text text-anchor="middle" x="203.5" y="-13" font-family="Helvetica,sans-Serif" font-size="10.00">cxx::Bits::Bst::rbegin</text>
</a>
</g>
</g>
<!-- Node1&#45;&gt;Node2 -->
<g id="edge1" class="edge">
<title>Node1&#45;&gt;Node2</title>
<path fill="none" stroke="midnightblue" d="M109.4,-15.5C117.56,-15.5 126.06,-15.5 134.47,-15.5"/>
<polygon fill="midnightblue" stroke="midnightblue" points="134.65,-19 144.65,-15.5 134.65,-12 134.65,-19"/>
</g>
<!-- Node3 -->
<g id="node3" class="node">
<title>Node3</title>
<g id="a_node3"><a xlink:href="classcxx_1_1Bits_1_1Bst.html#ad0507c7685968acce75bafa667add503" target="_top" xlink:title="Access the head node as object of type Node.">
<polygon fill="white" stroke="black" points="298,-6 298,-25 408,-25 408,-6 298,-6"/>
<text text-anchor="middle" x="353" y="-13" font-family="Helvetica,sans-Serif" font-size="10.00">cxx::Bits::Bst::head</text>
</a>
</g>
</g>
<!-- Node2&#45;&gt;Node3 -->
<g id="edge2" class="edge">
<title>Node2&#45;&gt;Node3</title>
<path fill="none" stroke="midnightblue" d="M262.37,-15.5C270.64,-15.5 279.18,-15.5 287.56,-15.5"/>
<polygon fill="midnightblue" stroke="midnightblue" points="287.67,-19 297.67,-15.5 287.67,-12 287.67,-19"/>
</g>
</g>
</svg>
