<?xml version="1.0" encoding="UTF-8" standalone="no"?>
<!DOCTYPE svg PUBLIC "-//W3C//DTD SVG 1.1//EN"
 "http://www.w3.org/Graphics/SVG/1.1/DTD/svg11.dtd">
<!-- Generated by graphviz version 2.43.0 (0)
 -->
<!-- Title: L4Re::Vfs::Special_file Pages: 1 -->
<svg width="132pt" height="463pt"
 viewBox="0.00 0.00 132.00 463.00" xmlns="http://www.w3.org/2000/svg" xmlns:xlink="http://www.w3.org/1999/xlink">
<g id="graph0" class="graph" transform="scale(1 1) rotate(0) translate(4 459)">
<title>L4Re::Vfs::Special_file</title>
<polygon fill="white" stroke="transparent" points="-4,4 -4,-459 128,-459 128,4 -4,4"/>
<!-- Node1 -->
<g id="node1" class="node">
<title>Node1</title>
<g id="a_node1"><a xlink:title="Interface for a POSIX file that provides special file semantics.">
<polygon fill="#bfbfbf" stroke="black" points="0,-386.5 0,-454.5 124,-454.5 124,-386.5 0,-386.5"/>
<text text-anchor="middle" x="62" y="-442.5" font-family="Helvetica,sans-Serif" font-size="10.00">L4Re::Vfs::Special_file</text>
<polyline fill="none" stroke="black" points="0,-435.5 124,-435.5 "/>
<text text-anchor="middle" x="62" y="-423.5" font-family="Helvetica,sans-Serif" font-size="10.00"> </text>
<polyline fill="none" stroke="black" points="0,-416.5 124,-416.5 "/>
<text text-anchor="start" x="8" y="-404.5" font-family="Helvetica,sans-Serif" font-size="10.00">+ ~Special_file()</text>
<text text-anchor="start" x="8" y="-393.5" font-family="Helvetica,sans-Serif" font-size="10.00">+ ioctl()</text>
</a>
</g>
</g>
<!-- Node2 -->
<g id="node2" class="node">
<title>Node2</title>
<g id="a_node2"><a xlink:href="classL4Re_1_1Vfs_1_1File.html" target="_top" xlink:title="The basic interface for an open POSIX file.">
<polygon fill="white" stroke="black" points="16,-215.5 16,-349.5 108,-349.5 108,-215.5 16,-215.5"/>
<text text-anchor="middle" x="62" y="-337.5" font-family="Helvetica,sans-Serif" font-size="10.00">L4Re::Vfs::File</text>
<polyline fill="none" stroke="black" points="16,-330.5 108,-330.5 "/>
<text text-anchor="middle" x="62" y="-318.5" font-family="Helvetica,sans-Serif" font-size="10.00"> </text>
<polyline fill="none" stroke="black" points="16,-311.5 108,-311.5 "/>
<text text-anchor="start" x="24" y="-299.5" font-family="Helvetica,sans-Serif" font-size="10.00">+ get_mount()</text>
<text text-anchor="start" x="24" y="-288.5" font-family="Helvetica,sans-Serif" font-size="10.00">+ openat()</text>
<text text-anchor="start" x="24" y="-277.5" font-family="Helvetica,sans-Serif" font-size="10.00">+ add_ref()</text>
<text text-anchor="start" x="24" y="-266.5" font-family="Helvetica,sans-Serif" font-size="10.00">+ remove_ref()</text>
<text text-anchor="start" x="24" y="-255.5" font-family="Helvetica,sans-Serif" font-size="10.00">+ ~File()</text>
<text text-anchor="start" x="24" y="-244.5" font-family="Helvetica,sans-Serif" font-size="10.00">+ mount_tree()</text>
<text text-anchor="start" x="24" y="-233.5" font-family="Helvetica,sans-Serif" font-size="10.00"># File()</text>
<text text-anchor="start" x="24" y="-222.5" font-family="Helvetica,sans-Serif" font-size="10.00"># File()</text>
</a>
</g>
</g>
<!-- Node1&#45;&gt;Node2 -->
<g id="edge1" class="edge">
<title>Node1&#45;&gt;Node2</title>
<path fill="none" stroke="midnightblue" d="M62,-375.96C62,-367.57 62,-358.6 62,-349.68"/>
<polygon fill="none" stroke="midnightblue" points="58.5,-376.23 62,-386.23 65.5,-376.23 58.5,-376.23"/>
</g>
<!-- Node3 -->
<g id="node3" class="node">
<title>Node3</title>
<g id="a_node3"><a xlink:href="classL4Re_1_1Vfs_1_1Be__file.html" target="_top" xlink:title="Boiler plate class for implementing an open file for L4Re::Vfs.">
<polygon fill="white" stroke="black" points="4,-0.5 4,-178.5 120,-178.5 120,-0.5 4,-0.5"/>
<text text-anchor="middle" x="62" y="-166.5" font-family="Helvetica,sans-Serif" font-size="10.00">L4Re::Vfs::Be_file</text>
<polyline fill="none" stroke="black" points="4,-159.5 120,-159.5 "/>
<text text-anchor="middle" x="62" y="-147.5" font-family="Helvetica,sans-Serif" font-size="10.00"> </text>
<polyline fill="none" stroke="black" points="4,-140.5 120,-140.5 "/>
<text text-anchor="start" x="12" y="-128.5" font-family="Helvetica,sans-Serif" font-size="10.00">+ operator new()</text>
<text text-anchor="start" x="12" y="-117.5" font-family="Helvetica,sans-Serif" font-size="10.00">+ operator new()</text>
<text text-anchor="start" x="12" y="-106.5" font-family="Helvetica,sans-Serif" font-size="10.00">+ operator delete()</text>
<text text-anchor="start" x="12" y="-95.5" font-family="Helvetica,sans-Serif" font-size="10.00">+ unlock_all_locks()</text>
<text text-anchor="start" x="12" y="-84.5" font-family="Helvetica,sans-Serif" font-size="10.00">+ data_space()</text>
<text text-anchor="start" x="12" y="-73.5" font-family="Helvetica,sans-Serif" font-size="10.00">+ readv()</text>
<text text-anchor="start" x="12" y="-62.5" font-family="Helvetica,sans-Serif" font-size="10.00">+ writev()</text>
<text text-anchor="start" x="12" y="-51.5" font-family="Helvetica,sans-Serif" font-size="10.00">+ pwritev()</text>
<text text-anchor="start" x="12" y="-40.5" font-family="Helvetica,sans-Serif" font-size="10.00">+ preadv()</text>
<text text-anchor="start" x="12" y="-29.5" font-family="Helvetica,sans-Serif" font-size="10.00">+ lseek64()</text>
<text text-anchor="start" x="12" y="-18.5" font-family="Helvetica,sans-Serif" font-size="10.00">and 39 more...</text>
<text text-anchor="start" x="12" y="-7.5" font-family="Helvetica,sans-Serif" font-size="10.00"># get_mount()</text>
</a>
</g>
</g>
<!-- Node2&#45;&gt;Node3 -->
<g id="edge2" class="edge">
<title>Node2&#45;&gt;Node3</title>
<path fill="none" stroke="midnightblue" d="M62,-205.09C62,-196.35 62,-187.39 62,-178.52"/>
<polygon fill="none" stroke="midnightblue" points="58.5,-205.23 62,-215.23 65.5,-205.23 58.5,-205.23"/>
</g>
</g>
</svg>
