<?xml version="1.0" encoding="UTF-8" standalone="no"?>
<!DOCTYPE svg PUBLIC "-//W3C//DTD SVG 1.1//EN"
 "http://www.w3.org/Graphics/SVG/1.1/DTD/svg11.dtd">
<!-- Generated by graphviz version 2.43.0 (0)
 -->
<!-- Title: cxx::Base_slab_static::free Pages: 1 -->
<svg width="570pt" height="66pt"
 viewBox="0.00 0.00 570.00 66.00" xmlns="http://www.w3.org/2000/svg" xmlns:xlink="http://www.w3.org/1999/xlink">
<g id="graph0" class="graph" transform="scale(1 1) rotate(0) translate(4 62)">
<title>cxx::Base_slab_static::free</title>
<polygon fill="white" stroke="transparent" points="-4,4 -4,-62 566,-62 566,4 -4,4"/>
<!-- Node1 -->
<g id="node1" class="node">
<title>Node1</title>
<g id="a_node1"><a xlink:title="Free the given object (p).">
<polygon fill="#bfbfbf" stroke="black" points="0,-14 0,-44 122,-44 122,-14 0,-14"/>
<text text-anchor="start" x="8" y="-32" font-family="Helvetica,sans-Serif" font-size="10.00">cxx::Base_slab_static</text>
<text text-anchor="middle" x="61" y="-21" font-family="Helvetica,sans-Serif" font-size="10.00">::free</text>
</a>
</g>
</g>
<!-- Node2 -->
<g id="node2" class="node">
<title>Node2</title>
<g id="a_node2"><a xlink:href="classcxx_1_1Base__slab.html#af7f8144a14030567ab8f83e88b9cf20b" target="_top" xlink:title="Free the given object (_o).">
<polygon fill="white" stroke="black" points="158,-19.5 158,-38.5 273,-38.5 273,-19.5 158,-19.5"/>
<text text-anchor="middle" x="215.5" y="-26.5" font-family="Helvetica,sans-Serif" font-size="10.00">cxx::Base_slab::free</text>
</a>
</g>
</g>
<!-- Node1&#45;&gt;Node2 -->
<g id="edge1" class="edge">
<title>Node1&#45;&gt;Node2</title>
<path fill="none" stroke="midnightblue" d="M122.27,-29C130.56,-29 139.11,-29 147.51,-29"/>
<polygon fill="midnightblue" stroke="midnightblue" points="147.65,-32.5 157.65,-29 147.65,-25.5 147.65,-32.5"/>
</g>
<!-- Node3 -->
<g id="node3" class="node">
<title>Node3</title>
<g id="a_node3"><a xlink:href="classcxx_1_1H__list.html#afa48e56b417c420b88b7494ce3e791d6" target="_top" xlink:title="Add element to the front of the list.">
<polygon fill="white" stroke="black" points="309,-38.5 309,-57.5 434,-57.5 434,-38.5 309,-38.5"/>
<text text-anchor="middle" x="371.5" y="-45.5" font-family="Helvetica,sans-Serif" font-size="10.00">cxx::H_list::push_front</text>
</a>
</g>
</g>
<!-- Node2&#45;&gt;Node3 -->
<g id="edge2" class="edge">
<title>Node2&#45;&gt;Node3</title>
<path fill="none" stroke="midnightblue" d="M273.41,-36.02C281.72,-37.05 290.37,-38.11 298.93,-39.17"/>
<polygon fill="midnightblue" stroke="midnightblue" points="298.56,-42.65 308.91,-40.4 299.42,-35.7 298.56,-42.65"/>
</g>
<!-- Node5 -->
<g id="node5" class="node">
<title>Node5</title>
<g id="a_node5"><a xlink:href="classcxx_1_1H__list.html#abc13d604f76c1da4ea72c30c1302835d" target="_top" xlink:title="Remove the given element from its list.">
<polygon fill="white" stroke="black" points="316,-0.5 316,-19.5 427,-19.5 427,-0.5 316,-0.5"/>
<text text-anchor="middle" x="371.5" y="-7.5" font-family="Helvetica,sans-Serif" font-size="10.00">cxx::H_list::remove</text>
</a>
</g>
</g>
<!-- Node2&#45;&gt;Node5 -->
<g id="edge4" class="edge">
<title>Node2&#45;&gt;Node5</title>
<path fill="none" stroke="midnightblue" d="M273.41,-21.98C283.93,-20.68 294.98,-19.32 305.71,-17.99"/>
<polygon fill="midnightblue" stroke="midnightblue" points="306.38,-21.44 315.88,-16.74 305.52,-14.49 306.38,-21.44"/>
</g>
<!-- Node4 -->
<g id="node4" class="node">
<title>Node4</title>
<g id="a_node4"><a xlink:href="classcxx_1_1H__list.html#a95a4b614aadeeb364d01693d2f594ace" target="_top" xlink:title="Add element to the front of the list.">
<polygon fill="white" stroke="black" points="470,-38.5 470,-57.5 562,-57.5 562,-38.5 470,-38.5"/>
<text text-anchor="middle" x="516" y="-45.5" font-family="Helvetica,sans-Serif" font-size="10.00">cxx::H_list::add</text>
</a>
</g>
</g>
<!-- Node3&#45;&gt;Node4 -->
<g id="edge3" class="edge">
<title>Node3&#45;&gt;Node4</title>
<path fill="none" stroke="midnightblue" d="M434.17,-48C442.73,-48 451.47,-48 459.9,-48"/>
<polygon fill="midnightblue" stroke="midnightblue" points="459.99,-51.5 469.99,-48 459.99,-44.5 459.99,-51.5"/>
</g>
</g>
</svg>
