<?xml version="1.0" encoding="UTF-8" standalone="no"?>
<!DOCTYPE svg PUBLIC "-//W3C//DTD SVG 1.1//EN"
 "http://www.w3.org/Graphics/SVG/1.1/DTD/svg11.dtd">
<!-- Generated by graphviz version 2.43.0 (0)
 -->
<!-- Title: cxx::H_list::iter Pages: 1 -->
<svg width="235pt" height="78pt"
 viewBox="0.00 0.00 235.00 77.50" xmlns="http://www.w3.org/2000/svg" xmlns:xlink="http://www.w3.org/1999/xlink">
<g id="graph0" class="graph" transform="scale(1 1) rotate(0) translate(4 73.5)">
<title>cxx::H_list::iter</title>
<polygon fill="white" stroke="transparent" points="-4,4 -4,-73.5 231,-73.5 231,4 -4,4"/>
<!-- Node1 -->
<g id="node1" class="node">
<title>Node1</title>
<g id="a_node1"><a xlink:title="Return an iterator for an arbitrary list element.">
<polygon fill="#bfbfbf" stroke="black" points="137,-28 137,-47 227,-47 227,-28 137,-28"/>
<text text-anchor="middle" x="182" y="-35" font-family="Helvetica,sans-Serif" font-size="10.00">cxx::H_list::iter</text>
</a>
</g>
</g>
<!-- Node2 -->
<g id="node2" class="node">
<title>Node2</title>
<g id="a_node2"><a xlink:href="classcxx_1_1H__list.html#ab31760274f774a8e10cd3679f4ff75e9" target="_top" xlink:title="Insert an element at the iterator position.">
<polygon fill="white" stroke="black" points="0,-50 0,-69 101,-69 101,-50 0,-50"/>
<text text-anchor="middle" x="50.5" y="-57" font-family="Helvetica,sans-Serif" font-size="10.00">cxx::H_list::insert</text>
</a>
</g>
</g>
<!-- Node1&#45;&gt;Node2 -->
<g id="edge1" class="edge">
<title>Node1&#45;&gt;Node2</title>
<path fill="none" stroke="midnightblue" d="M126.68,-46.73C118.26,-48.16 109.6,-49.63 101.29,-51.04"/>
<polygon fill="midnightblue" stroke="midnightblue" points="127.52,-50.14 136.8,-45.01 126.35,-43.23 127.52,-50.14"/>
</g>
<!-- Node3 -->
<g id="node3" class="node">
<title>Node3</title>
<g id="a_node3"><a xlink:href="classcxx_1_1H__list.html#a21bf93fc3f0e230e61307e838627bdb8" target="_top" xlink:title="Insert an element after the iterator position.">
<polygon fill="white" stroke="black" points="0,-0.5 0,-30.5 101,-30.5 101,-0.5 0,-0.5"/>
<text text-anchor="start" x="8" y="-18.5" font-family="Helvetica,sans-Serif" font-size="10.00">cxx::H_list::insert</text>
<text text-anchor="middle" x="50.5" y="-7.5" font-family="Helvetica,sans-Serif" font-size="10.00">_after</text>
</a>
</g>
</g>
<!-- Node1&#45;&gt;Node3 -->
<g id="edge2" class="edge">
<title>Node1&#45;&gt;Node3</title>
<path fill="none" stroke="midnightblue" d="M126.68,-28.27C118.26,-26.84 109.6,-25.37 101.29,-23.96"/>
<polygon fill="midnightblue" stroke="midnightblue" points="126.35,-31.77 136.8,-29.99 127.52,-24.86 126.35,-31.77"/>
</g>
</g>
</svg>
