<?xml version="1.0" encoding="UTF-8" standalone="no"?>
<!DOCTYPE svg PUBLIC "-//W3C//DTD SVG 1.1//EN"
 "http://www.w3.org/Graphics/SVG/1.1/DTD/svg11.dtd">
<!-- Generated by graphviz version 2.43.0 (0)
 -->
<!-- Title: L4Re::Util::Event_buffer_consumer_t::process Pages: 1 -->
<svg width="535pt" height="281pt"
 viewBox="0.00 0.00 535.00 280.75" xmlns="http://www.w3.org/2000/svg" xmlns:xlink="http://www.w3.org/1999/xlink">
<g id="graph0" class="graph" transform="scale(1 1) rotate(0) translate(4 276.75)">
<title>L4Re::Util::Event_buffer_consumer_t::process</title>
<polygon fill="white" stroke="transparent" points="-4,4 -4,-276.75 531,-276.75 531,4 -4,4"/>
<!-- Node1 -->
<g id="node1" class="node">
<title>Node1</title>
<g id="a_node1"><a xlink:title="Continuously wait for events and process them.">
<polygon fill="#bfbfbf" stroke="black" points="0,-110.25 0,-140.25 131,-140.25 131,-110.25 0,-110.25"/>
<text text-anchor="start" x="8" y="-128.25" font-family="Helvetica,sans-Serif" font-size="10.00">L4Re::Util::Event_buffer</text>
<text text-anchor="middle" x="65.5" y="-117.25" font-family="Helvetica,sans-Serif" font-size="10.00">_consumer_t::process</text>
</a>
</g>
</g>
<!-- Node2 -->
<g id="node2" class="node">
<title>Node2</title>
<g id="a_node2"><a xlink:href="classL4_1_1Rcv__endpoint.html#aa7c0ce106003a272299888c2573331dd" target="_top" xlink:title="Bind a thread to an IPC receive endpoint.">
<polygon fill="white" stroke="black" points="206,-242.25 206,-272.25 333,-272.25 333,-242.25 206,-242.25"/>
<text text-anchor="start" x="214" y="-260.25" font-family="Helvetica,sans-Serif" font-size="10.00">L4::Rcv_endpoint::bind</text>
<text text-anchor="middle" x="269.5" y="-249.25" font-family="Helvetica,sans-Serif" font-size="10.00">_thread</text>
</a>
</g>
</g>
<!-- Node1&#45;&gt;Node2 -->
<g id="edge1" class="edge">
<title>Node1&#45;&gt;Node2</title>
<path fill="none" stroke="midnightblue" d="M76.27,-140.26C92.31,-163.66 126.52,-208.58 167,-232.25 175.96,-237.49 185.99,-241.64 196.16,-244.92"/>
<polygon fill="midnightblue" stroke="midnightblue" points="195.34,-248.32 205.92,-247.8 197.32,-241.61 195.34,-248.32"/>
</g>
<!-- Node3 -->
<g id="node3" class="node">
<title>Node3</title>
<g id="a_node3"><a xlink:href="classL4_1_1Cap__base.html#a90ff089ca2442b128c2b2b0e1c22c6d7" target="_top" xlink:title="Return capability selector.">
<polygon fill="white" stroke="black" points="217.5,-203.75 217.5,-222.75 321.5,-222.75 321.5,-203.75 217.5,-203.75"/>
<text text-anchor="middle" x="269.5" y="-210.75" font-family="Helvetica,sans-Serif" font-size="10.00">L4::Cap_base::cap</text>
</a>
</g>
</g>
<!-- Node1&#45;&gt;Node3 -->
<g id="edge2" class="edge">
<title>Node1&#45;&gt;Node3</title>
<path fill="none" stroke="midnightblue" d="M83.69,-140.42C102.71,-156.37 134.94,-180.94 167,-194.25 179.72,-199.53 193.96,-203.35 207.64,-206.11"/>
<polygon fill="midnightblue" stroke="midnightblue" points="207.01,-209.56 217.48,-207.94 208.29,-202.67 207.01,-209.56"/>
</g>
<!-- Node4 -->
<g id="node4" class="node">
<title>Node4</title>
<g id="a_node4"><a xlink:href="classL4Re_1_1Util_1_1Event__buffer__consumer__t.html#af28d452e8c1b3720b4bc26117d4f7e1c" target="_top" xlink:title="Call function on every available event.">
<polygon fill="white" stroke="black" points="167,-154.25 167,-184.25 372,-184.25 372,-154.25 167,-154.25"/>
<text text-anchor="start" x="175" y="-172.25" font-family="Helvetica,sans-Serif" font-size="10.00">L4Re::Util::Event_buffer</text>
<text text-anchor="middle" x="269.5" y="-161.25" font-family="Helvetica,sans-Serif" font-size="10.00">_consumer_t::foreach_available_event</text>
</a>
</g>
</g>
<!-- Node1&#45;&gt;Node4 -->
<g id="edge3" class="edge">
<title>Node1&#45;&gt;Node4</title>
<path fill="none" stroke="midnightblue" d="M131.25,-139.35C149.82,-143.4 170.28,-147.85 189.6,-152.06"/>
<polygon fill="midnightblue" stroke="midnightblue" points="189.07,-155.53 199.59,-154.24 190.56,-148.69 189.07,-155.53"/>
</g>
<!-- Node5 -->
<g id="node5" class="node">
<title>Node5</title>
<g id="a_node5"><a xlink:href="group__l4__ipc__err__api.html#ga05c11e3e10b6c2aa941396ac2018899f" target="_top" xlink:title="Return error code of a system call return message tag or the tag label.">
<polygon fill="white" stroke="black" points="242.5,-115.75 242.5,-134.75 296.5,-134.75 296.5,-115.75 242.5,-115.75"/>
<text text-anchor="middle" x="269.5" y="-122.75" font-family="Helvetica,sans-Serif" font-size="10.00">l4_error</text>
</a>
</g>
</g>
<!-- Node1&#45;&gt;Node5 -->
<g id="edge4" class="edge">
<title>Node1&#45;&gt;Node5</title>
<path fill="none" stroke="midnightblue" d="M131.25,-125.25C164.71,-125.25 204.29,-125.25 232.33,-125.25"/>
<polygon fill="midnightblue" stroke="midnightblue" points="232.47,-128.75 242.47,-125.25 232.47,-121.75 232.47,-128.75"/>
</g>
<!-- Node6 -->
<g id="node6" class="node">
<title>Node6</title>
<g id="a_node6"><a xlink:href="group__l4__ipc__err__api.html#gad40f404217497793e95a10d77a47db39" target="_top" xlink:title="Get the error code for an object invocation.">
<polygon fill="white" stroke="black" points="232.5,-77.75 232.5,-96.75 306.5,-96.75 306.5,-77.75 232.5,-77.75"/>
<text text-anchor="middle" x="269.5" y="-84.75" font-family="Helvetica,sans-Serif" font-size="10.00">l4_ipc_error</text>
</a>
</g>
</g>
<!-- Node1&#45;&gt;Node6 -->
<g id="edge5" class="edge">
<title>Node1&#45;&gt;Node6</title>
<path fill="none" stroke="midnightblue" d="M131.1,-113.02C143.04,-110.76 155.4,-108.43 167,-106.25 185.12,-102.84 205.05,-99.1 222.43,-95.85"/>
<polygon fill="midnightblue" stroke="midnightblue" points="223.14,-99.28 232.33,-94 221.85,-92.4 223.14,-99.28"/>
</g>
<!-- Node8 -->
<g id="node8" class="node">
<title>Node8</title>
<g id="a_node8"><a xlink:href="group__l4__irq__api.html#ga997f18b89d6235214d2f9c381ed6c6a5" target="_top" xlink:title="Unmask and wait for specified IRQ.">
<polygon fill="white" stroke="black" points="227,-39.75 227,-58.75 312,-58.75 312,-39.75 227,-39.75"/>
<text text-anchor="middle" x="269.5" y="-46.75" font-family="Helvetica,sans-Serif" font-size="10.00">l4_irq_receive</text>
</a>
</g>
</g>
<!-- Node1&#45;&gt;Node8 -->
<g id="edge7" class="edge">
<title>Node1&#45;&gt;Node8</title>
<path fill="none" stroke="midnightblue" d="M88.22,-110.11C107.91,-97.09 138.18,-78.78 167,-68.25 182.76,-62.49 200.56,-58.4 216.8,-55.53"/>
<polygon fill="midnightblue" stroke="midnightblue" points="217.38,-58.98 226.68,-53.9 216.24,-52.08 217.38,-58.98"/>
</g>
<!-- Node10 -->
<g id="node10" class="node">
<title>Node10</title>
<g id="a_node10"><a xlink:href="group__l4__utcb__api.html#gadc099b4a59e1d99638c72c11a8c8b644" target="_top" xlink:title="Get the UTCB address.">
<polygon fill="white" stroke="black" points="441.5,-1.75 441.5,-20.75 493.5,-20.75 493.5,-1.75 441.5,-1.75"/>
<text text-anchor="middle" x="467.5" y="-8.75" font-family="Helvetica,sans-Serif" font-size="10.00">l4_utcb</text>
</a>
</g>
</g>
<!-- Node1&#45;&gt;Node10 -->
<g id="edge10" class="edge">
<title>Node1&#45;&gt;Node10</title>
<path fill="none" stroke="midnightblue" d="M77.06,-110.03C93.41,-87.89 127.15,-47.58 167,-30.25 255.6,8.3 373.01,0.97 430.99,-6"/>
<polygon fill="midnightblue" stroke="midnightblue" points="430.74,-9.5 441.11,-7.29 431.63,-2.55 430.74,-9.5"/>
</g>
<!-- Node7 -->
<g id="node7" class="node">
<title>Node7</title>
<g id="a_node7"><a xlink:href="group__l4__msgtag__api.html#ga52e71bb66855f4d78fa5c82b5f0c5a87" target="_top" xlink:title="Test for error indicator flag.">
<polygon fill="white" stroke="black" points="408,-77.75 408,-96.75 527,-96.75 527,-77.75 408,-77.75"/>
<text text-anchor="middle" x="467.5" y="-84.75" font-family="Helvetica,sans-Serif" font-size="10.00">l4_msgtag_has_error</text>
</a>
</g>
</g>
<!-- Node6&#45;&gt;Node7 -->
<g id="edge6" class="edge">
<title>Node6&#45;&gt;Node7</title>
<path fill="none" stroke="midnightblue" d="M306.91,-87.25C332.37,-87.25 367.16,-87.25 397.76,-87.25"/>
<polygon fill="midnightblue" stroke="midnightblue" points="397.96,-90.75 407.96,-87.25 397.96,-83.75 397.96,-90.75"/>
</g>
<!-- Node9 -->
<g id="node9" class="node">
<title>Node9</title>
<g id="a_node9"><a xlink:href="group__l4__irq__api.html#ga430999e1f8f6eb5f7e3f957b854b7446" target="_top" xlink:title="Unmask and wait for this IRQ.">
<polygon fill="white" stroke="black" points="419.5,-39.75 419.5,-58.75 515.5,-58.75 515.5,-39.75 419.5,-39.75"/>
<text text-anchor="middle" x="467.5" y="-46.75" font-family="Helvetica,sans-Serif" font-size="10.00">l4_irq_receive_u</text>
</a>
</g>
</g>
<!-- Node8&#45;&gt;Node9 -->
<g id="edge8" class="edge">
<title>Node8&#45;&gt;Node9</title>
<path fill="none" stroke="midnightblue" d="M312.07,-49.25C340.33,-49.25 378.11,-49.25 409.22,-49.25"/>
<polygon fill="midnightblue" stroke="midnightblue" points="409.49,-52.75 419.49,-49.25 409.49,-45.75 409.49,-52.75"/>
</g>
<!-- Node8&#45;&gt;Node10 -->
<g id="edge9" class="edge">
<title>Node8&#45;&gt;Node10</title>
<path fill="none" stroke="midnightblue" d="M312.07,-41.19C347.45,-34.33 397.73,-24.58 431.2,-18.09"/>
<polygon fill="midnightblue" stroke="midnightblue" points="432.28,-21.45 441.43,-16.11 430.95,-14.57 432.28,-21.45"/>
</g>
</g>
</svg>
