<?xml version="1.0" encoding="UTF-8" standalone="no"?>
<!DOCTYPE svg PUBLIC "-//W3C//DTD SVG 1.1//EN"
 "http://www.w3.org/Graphics/SVG/1.1/DTD/svg11.dtd">
<!-- Generated by graphviz version 2.43.0 (0)
 -->
<!-- Title: cxx::Base_slab::free Pages: 1 -->
<svg width="412pt" height="66pt"
 viewBox="0.00 0.00 412.00 66.00" xmlns="http://www.w3.org/2000/svg" xmlns:xlink="http://www.w3.org/1999/xlink">
<g id="graph0" class="graph" transform="scale(1 1) rotate(0) translate(4 62)">
<title>cxx::Base_slab::free</title>
<polygon fill="white" stroke="transparent" points="-4,4 -4,-62 408,-62 408,4 -4,4"/>
<!-- Node1 -->
<g id="node1" class="node">
<title>Node1</title>
<g id="a_node1"><a xlink:title="Free the given object (_o).">
<polygon fill="#bfbfbf" stroke="black" points="0,-19.5 0,-38.5 115,-38.5 115,-19.5 0,-19.5"/>
<text text-anchor="middle" x="57.5" y="-26.5" font-family="Helvetica,sans-Serif" font-size="10.00">cxx::Base_slab::free</text>
</a>
</g>
</g>
<!-- Node2 -->
<g id="node2" class="node">
<title>Node2</title>
<g id="a_node2"><a xlink:href="classcxx_1_1H__list.html#afa48e56b417c420b88b7494ce3e791d6" target="_top" xlink:title="Add element to the front of the list.">
<polygon fill="white" stroke="black" points="151,-38.5 151,-57.5 276,-57.5 276,-38.5 151,-38.5"/>
<text text-anchor="middle" x="213.5" y="-45.5" font-family="Helvetica,sans-Serif" font-size="10.00">cxx::H_list::push_front</text>
</a>
</g>
</g>
<!-- Node1&#45;&gt;Node2 -->
<g id="edge1" class="edge">
<title>Node1&#45;&gt;Node2</title>
<path fill="none" stroke="midnightblue" d="M115.41,-36.02C123.72,-37.05 132.37,-38.11 140.93,-39.17"/>
<polygon fill="midnightblue" stroke="midnightblue" points="140.56,-42.65 150.91,-40.4 141.42,-35.7 140.56,-42.65"/>
</g>
<!-- Node4 -->
<g id="node4" class="node">
<title>Node4</title>
<g id="a_node4"><a xlink:href="classcxx_1_1H__list.html#abc13d604f76c1da4ea72c30c1302835d" target="_top" xlink:title="Remove the given element from its list.">
<polygon fill="white" stroke="black" points="158,-0.5 158,-19.5 269,-19.5 269,-0.5 158,-0.5"/>
<text text-anchor="middle" x="213.5" y="-7.5" font-family="Helvetica,sans-Serif" font-size="10.00">cxx::H_list::remove</text>
</a>
</g>
</g>
<!-- Node1&#45;&gt;Node4 -->
<g id="edge3" class="edge">
<title>Node1&#45;&gt;Node4</title>
<path fill="none" stroke="midnightblue" d="M115.41,-21.98C125.93,-20.68 136.98,-19.32 147.71,-17.99"/>
<polygon fill="midnightblue" stroke="midnightblue" points="148.38,-21.44 157.88,-16.74 147.52,-14.49 148.38,-21.44"/>
</g>
<!-- Node3 -->
<g id="node3" class="node">
<title>Node3</title>
<g id="a_node3"><a xlink:href="classcxx_1_1H__list.html#a95a4b614aadeeb364d01693d2f594ace" target="_top" xlink:title="Add element to the front of the list.">
<polygon fill="white" stroke="black" points="312,-38.5 312,-57.5 404,-57.5 404,-38.5 312,-38.5"/>
<text text-anchor="middle" x="358" y="-45.5" font-family="Helvetica,sans-Serif" font-size="10.00">cxx::H_list::add</text>
</a>
</g>
</g>
<!-- Node2&#45;&gt;Node3 -->
<g id="edge2" class="edge">
<title>Node2&#45;&gt;Node3</title>
<path fill="none" stroke="midnightblue" d="M276.17,-48C284.73,-48 293.47,-48 301.9,-48"/>
<polygon fill="midnightblue" stroke="midnightblue" points="301.99,-51.5 311.99,-48 301.99,-44.5 301.99,-51.5"/>
</g>
</g>
</svg>
