<?xml version="1.0" encoding="UTF-8" standalone="no"?>
<!DOCTYPE svg PUBLIC "-//W3C//DTD SVG 1.1//EN"
 "http://www.w3.org/Graphics/SVG/1.1/DTD/svg11.dtd">
<!-- Generated by graphviz version 2.43.0 (0)
 -->
<!-- Title: L4virtio::Driver::Device::register_ds Pages: 1 -->
<svg width="326pt" height="66pt"
 viewBox="0.00 0.00 326.00 66.00" xmlns="http://www.w3.org/2000/svg" xmlns:xlink="http://www.w3.org/1999/xlink">
<g id="graph0" class="graph" transform="scale(1 1) rotate(0) translate(4 62)">
<title>L4virtio::Driver::Device::register_ds</title>
<polygon fill="white" stroke="transparent" points="-4,4 -4,-62 322,-62 322,4 -4,4"/>
<!-- Node1 -->
<g id="node1" class="node">
<title>Node1</title>
<g id="a_node1"><a xlink:title="Share a dataspace with the device.">
<polygon fill="#bfbfbf" stroke="black" points="0,-14 0,-44 129,-44 129,-14 0,-14"/>
<text text-anchor="start" x="8" y="-32" font-family="Helvetica,sans-Serif" font-size="10.00">L4virtio::Driver::Device</text>
<text text-anchor="middle" x="64.5" y="-21" font-family="Helvetica,sans-Serif" font-size="10.00">::register_ds</text>
</a>
</g>
</g>
<!-- Node2 -->
<g id="node2" class="node">
<title>Node2</title>
<g id="a_node2"><a xlink:href="namespaceL4_1_1Ipc.html#a71861fba8b1db3d4fb5768ba65c89d94" target="_top" xlink:title="Make an L4::Ipc::Cap&lt;T&gt; for the given capability with L4_CAP_FPAGE_RW rights.">
<polygon fill="white" stroke="black" points="181,-38.5 181,-57.5 302,-57.5 302,-38.5 181,-38.5"/>
<text text-anchor="middle" x="241.5" y="-45.5" font-family="Helvetica,sans-Serif" font-size="10.00">L4::Ipc::make_cap_rw</text>
</a>
</g>
</g>
<!-- Node1&#45;&gt;Node2 -->
<g id="edge1" class="edge">
<title>Node1&#45;&gt;Node2</title>
<path fill="none" stroke="midnightblue" d="M129.17,-35.91C142.65,-37.38 156.94,-38.93 170.62,-40.41"/>
<polygon fill="midnightblue" stroke="midnightblue" points="170.63,-43.93 180.95,-41.53 171.39,-36.98 170.63,-43.93"/>
</g>
<!-- Node3 -->
<g id="node3" class="node">
<title>Node3</title>
<g id="a_node3"><a xlink:href="classL4virtio_1_1Device.html#a033005cb79e876d02b8ca405ffadca2b" target="_top" xlink:title="Register a shared data space with VIRTIO host.">
<polygon fill="white" stroke="black" points="165,-0.5 165,-19.5 318,-19.5 318,-0.5 165,-0.5"/>
<text text-anchor="middle" x="241.5" y="-7.5" font-family="Helvetica,sans-Serif" font-size="10.00">L4virtio::Device::register_ds</text>
</a>
</g>
</g>
<!-- Node1&#45;&gt;Node3 -->
<g id="edge2" class="edge">
<title>Node1&#45;&gt;Node3</title>
<path fill="none" stroke="midnightblue" d="M129.17,-22.09C137.53,-21.18 146.21,-20.24 154.85,-19.3"/>
<polygon fill="midnightblue" stroke="midnightblue" points="155.41,-22.76 164.98,-18.2 154.66,-15.8 155.41,-22.76"/>
</g>
</g>
</svg>
