<?xml version="1.0" encoding="UTF-8" standalone="no"?>
<!DOCTYPE svg PUBLIC "-//W3C//DTD SVG 1.1//EN"
 "http://www.w3.org/Graphics/SVG/1.1/DTD/svg11.dtd">
<!-- Generated by graphviz version 2.43.0 (0)
 -->
<!-- Title: L4virtio::Driver::Virtqueue::enqueue_descriptor Pages: 1 -->
<svg width="657pt" height="88pt"
 viewBox="0.00 0.00 657.00 88.00" xmlns="http://www.w3.org/2000/svg" xmlns:xlink="http://www.w3.org/1999/xlink">
<g id="graph0" class="graph" transform="scale(1 1) rotate(0) translate(4 84)">
<title>L4virtio::Driver::Virtqueue::enqueue_descriptor</title>
<polygon fill="white" stroke="transparent" points="-4,4 -4,-84 653,-84 653,4 -4,4"/>
<!-- Node1 -->
<g id="node1" class="node">
<title>Node1</title>
<g id="a_node1"><a xlink:title="Enqueue a descriptor in the available ring.">
<polygon fill="#bfbfbf" stroke="black" points="506,-24.5 506,-54.5 649,-54.5 649,-24.5 506,-24.5"/>
<text text-anchor="start" x="514" y="-42.5" font-family="Helvetica,sans-Serif" font-size="10.00">L4virtio::Driver::Virtqueue</text>
<text text-anchor="middle" x="577.5" y="-31.5" font-family="Helvetica,sans-Serif" font-size="10.00">::enqueue_descriptor</text>
</a>
</g>
</g>
<!-- Node2 -->
<g id="node2" class="node">
<title>Node2</title>
<g id="a_node2"><a xlink:href="classL4virtio_1_1Driver_1_1Device.html#a72090d324268b51f3937197748c26853" target="_top" xlink:title="Send a request to the device.">
<polygon fill="white" stroke="black" points="341,-24.5 341,-54.5 470,-54.5 470,-24.5 341,-24.5"/>
<text text-anchor="start" x="349" y="-42.5" font-family="Helvetica,sans-Serif" font-size="10.00">L4virtio::Driver::Device</text>
<text text-anchor="middle" x="405.5" y="-31.5" font-family="Helvetica,sans-Serif" font-size="10.00">::send</text>
</a>
</g>
</g>
<!-- Node1&#45;&gt;Node2 -->
<g id="edge1" class="edge">
<title>Node1&#45;&gt;Node2</title>
<path fill="none" stroke="midnightblue" d="M495.81,-39.5C487.18,-39.5 478.5,-39.5 470.11,-39.5"/>
<polygon fill="midnightblue" stroke="midnightblue" points="495.88,-43 505.88,-39.5 495.88,-36 495.88,-43"/>
</g>
<!-- Node3 -->
<g id="node3" class="node">
<title>Node3</title>
<g id="a_node3"><a xlink:href="classL4virtio_1_1Driver_1_1Device.html#af4aa9ac34ce928b9d437f1bb6a2ec216" target="_top" xlink:title="Send a request to the device and wait for it to be processed.">
<polygon fill="white" stroke="black" points="176,-49.5 176,-79.5 305,-79.5 305,-49.5 176,-49.5"/>
<text text-anchor="start" x="184" y="-67.5" font-family="Helvetica,sans-Serif" font-size="10.00">L4virtio::Driver::Device</text>
<text text-anchor="middle" x="240.5" y="-56.5" font-family="Helvetica,sans-Serif" font-size="10.00">::send_and_wait</text>
</a>
</g>
</g>
<!-- Node2&#45;&gt;Node3 -->
<g id="edge2" class="edge">
<title>Node2&#45;&gt;Node3</title>
<path fill="none" stroke="midnightblue" d="M330.59,-50.84C322.05,-52.15 313.39,-53.47 305,-54.76"/>
<polygon fill="midnightblue" stroke="midnightblue" points="331.19,-54.28 340.55,-49.31 330.13,-47.37 331.19,-54.28"/>
</g>
<!-- Node5 -->
<g id="node5" class="node">
<title>Node5</title>
<g id="a_node5"><a xlink:href="classL4virtio_1_1Driver_1_1Block__device.html#a2c2e9924abafe2eff34821b166c6c36f" target="_top" xlink:title="Process request asynchronously.">
<polygon fill="white" stroke="black" points="178,-0.5 178,-30.5 303,-30.5 303,-0.5 178,-0.5"/>
<text text-anchor="start" x="186" y="-18.5" font-family="Helvetica,sans-Serif" font-size="10.00">L4virtio::Driver::Block</text>
<text text-anchor="middle" x="240.5" y="-7.5" font-family="Helvetica,sans-Serif" font-size="10.00">_device::send_request</text>
</a>
</g>
</g>
<!-- Node2&#45;&gt;Node5 -->
<g id="edge4" class="edge">
<title>Node2&#45;&gt;Node5</title>
<path fill="none" stroke="midnightblue" d="M330.64,-28.63C321.45,-27.27 312.12,-25.9 303.14,-24.58"/>
<polygon fill="midnightblue" stroke="midnightblue" points="330.14,-32.09 340.55,-30.08 331.16,-25.16 330.14,-32.09"/>
</g>
<!-- Node4 -->
<g id="node4" class="node">
<title>Node4</title>
<g id="a_node4"><a xlink:href="classL4virtio_1_1Driver_1_1Block__device.html#a63f21e71556accc8c669ef80161ecd8e" target="_top" xlink:title="Process request synchronously.">
<polygon fill="white" stroke="black" points="0,-49.5 0,-79.5 140,-79.5 140,-49.5 0,-49.5"/>
<text text-anchor="start" x="8" y="-67.5" font-family="Helvetica,sans-Serif" font-size="10.00">L4virtio::Driver::Block</text>
<text text-anchor="middle" x="70" y="-56.5" font-family="Helvetica,sans-Serif" font-size="10.00">_device::process_request</text>
</a>
</g>
</g>
<!-- Node3&#45;&gt;Node4 -->
<g id="edge3" class="edge">
<title>Node3&#45;&gt;Node4</title>
<path fill="none" stroke="midnightblue" d="M165.58,-64.5C157.12,-64.5 148.53,-64.5 140.14,-64.5"/>
<polygon fill="midnightblue" stroke="midnightblue" points="165.8,-68 175.8,-64.5 165.8,-61 165.8,-68"/>
</g>
</g>
</svg>
