<?xml version="1.0" encoding="UTF-8" standalone="no"?>
<!DOCTYPE svg PUBLIC "-//W3C//DTD SVG 1.1//EN"
 "http://www.w3.org/Graphics/SVG/1.1/DTD/svg11.dtd">
<!-- Generated by graphviz version 2.43.0 (0)
 -->
<!-- Title: L4virtio::Svr::Device_t::setup_queue Pages: 1 -->
<svg width="440pt" height="333pt"
 viewBox="0.00 0.00 440.00 333.00" xmlns="http://www.w3.org/2000/svg" xmlns:xlink="http://www.w3.org/1999/xlink">
<g id="graph0" class="graph" transform="scale(1 1) rotate(0) translate(4 329)">
<title>L4virtio::Svr::Device_t::setup_queue</title>
<polygon fill="white" stroke="transparent" points="-4,4 -4,-329 436,-329 436,4 -4,4"/>
<!-- Node1 -->
<g id="node1" class="node">
<title>Node1</title>
<g id="a_node1"><a xlink:title="Enable/disable the specified queue.">
<polygon fill="#bfbfbf" stroke="black" points="0,-147.5 0,-177.5 115,-177.5 115,-147.5 0,-147.5"/>
<text text-anchor="start" x="8" y="-165.5" font-family="Helvetica,sans-Serif" font-size="10.00">L4virtio::Svr::Device</text>
<text text-anchor="middle" x="57.5" y="-154.5" font-family="Helvetica,sans-Serif" font-size="10.00">_t::setup_queue</text>
</a>
</g>
</g>
<!-- Node2 -->
<g id="node2" class="node">
<title>Node2</title>
<g id="a_node2"><a xlink:href="classL4virtio_1_1Virtqueue.html#a962767a117dad07184f59191d399f9ce" target="_top" xlink:title="Calculate the size of the available ring for num entries.">
<polygon fill="white" stroke="black" points="153,-294.5 153,-324.5 260,-324.5 260,-294.5 153,-294.5"/>
<text text-anchor="start" x="161" y="-312.5" font-family="Helvetica,sans-Serif" font-size="10.00">L4virtio::Virtqueue</text>
<text text-anchor="middle" x="206.5" y="-301.5" font-family="Helvetica,sans-Serif" font-size="10.00">::avail_size</text>
</a>
</g>
</g>
<!-- Node1&#45;&gt;Node2 -->
<g id="edge1" class="edge">
<title>Node1&#45;&gt;Node2</title>
<path fill="none" stroke="midnightblue" d="M66.5,-177.72C80.54,-203.14 111.85,-254.46 151,-285.5 152.58,-286.75 154.23,-287.95 155.95,-289.1"/>
<polygon fill="midnightblue" stroke="midnightblue" points="154.48,-292.3 164.86,-294.43 158.07,-286.3 154.48,-292.3"/>
</g>
<!-- Node4 -->
<g id="node4" class="node">
<title>Node4</title>
<g id="a_node4"><a xlink:href="classL4virtio_1_1Virtqueue.html#a19410c09db5499023cb4b9f11742cd26" target="_top" xlink:title="Calculate the size of the descriptor table for num entries.">
<polygon fill="white" stroke="black" points="153,-245.5 153,-275.5 260,-275.5 260,-245.5 153,-245.5"/>
<text text-anchor="start" x="161" y="-263.5" font-family="Helvetica,sans-Serif" font-size="10.00">L4virtio::Virtqueue</text>
<text text-anchor="middle" x="206.5" y="-252.5" font-family="Helvetica,sans-Serif" font-size="10.00">::desc_size</text>
</a>
</g>
</g>
<!-- Node1&#45;&gt;Node4 -->
<g id="edge3" class="edge">
<title>Node1&#45;&gt;Node4</title>
<path fill="none" stroke="midnightblue" d="M74.58,-177.53C92.31,-193.57 122.15,-219.02 151,-236.5 153.49,-238.01 156.09,-239.47 158.74,-240.89"/>
<polygon fill="midnightblue" stroke="midnightblue" points="157.4,-244.13 167.91,-245.49 160.54,-237.88 157.4,-244.13"/>
</g>
<!-- Node5 -->
<g id="node5" class="node">
<title>Node5</title>
<g id="a_node5"><a xlink:href="classL4virtio_1_1Virtqueue.html#a031d371276beec1cb5cf550be6fac491" target="_top" xlink:title="Completely disable the queue.">
<polygon fill="white" stroke="black" points="153,-196.5 153,-226.5 260,-226.5 260,-196.5 153,-196.5"/>
<text text-anchor="start" x="161" y="-214.5" font-family="Helvetica,sans-Serif" font-size="10.00">L4virtio::Virtqueue</text>
<text text-anchor="middle" x="206.5" y="-203.5" font-family="Helvetica,sans-Serif" font-size="10.00">::disable</text>
</a>
</g>
</g>
<!-- Node1&#45;&gt;Node5 -->
<g id="edge5" class="edge">
<title>Node1&#45;&gt;Node5</title>
<path fill="none" stroke="midnightblue" d="M103.8,-177.6C118.54,-182.51 135.07,-188.02 150.44,-193.15"/>
<polygon fill="midnightblue" stroke="midnightblue" points="149.75,-196.61 160.35,-196.45 151.97,-189.97 149.75,-196.61"/>
</g>
<!-- Node6 -->
<g id="node6" class="node">
<title>Node6</title>
<g id="a_node6"><a xlink:href="classL4virtio_1_1Svr_1_1Driver__mem__list__t.html#ac29f13949d9db73775966afb81049a8e" target="_top" xlink:title="Find memory region containing the given driver address region.">
<polygon fill="white" stroke="black" points="151,-147.5 151,-177.5 262,-177.5 262,-147.5 151,-147.5"/>
<text text-anchor="start" x="159" y="-165.5" font-family="Helvetica,sans-Serif" font-size="10.00">L4virtio::Svr::Driver</text>
<text text-anchor="middle" x="206.5" y="-154.5" font-family="Helvetica,sans-Serif" font-size="10.00">_mem_list_t::find</text>
</a>
</g>
</g>
<!-- Node1&#45;&gt;Node6 -->
<g id="edge6" class="edge">
<title>Node1&#45;&gt;Node6</title>
<path fill="none" stroke="midnightblue" d="M115.33,-162.5C123.61,-162.5 132.17,-162.5 140.59,-162.5"/>
<polygon fill="midnightblue" stroke="midnightblue" points="140.75,-166 150.75,-162.5 140.75,-159 140.75,-166"/>
</g>
<!-- Node7 -->
<g id="node7" class="node">
<title>Node7</title>
<g id="a_node7"><a xlink:href="classL4virtio_1_1Svr_1_1Dev__config.html#a74a26ad283492e76764b9f079416579c" target="_top" xlink:title="Get queue read&#45;only config data for queue with the given index.">
<polygon fill="white" stroke="black" points="156,-98.5 156,-128.5 257,-128.5 257,-98.5 156,-98.5"/>
<text text-anchor="start" x="164" y="-116.5" font-family="Helvetica,sans-Serif" font-size="10.00">L4virtio::Svr::Dev</text>
<text text-anchor="middle" x="206.5" y="-105.5" font-family="Helvetica,sans-Serif" font-size="10.00">_config::qconfig</text>
</a>
</g>
</g>
<!-- Node1&#45;&gt;Node7 -->
<g id="edge7" class="edge">
<title>Node1&#45;&gt;Node7</title>
<path fill="none" stroke="midnightblue" d="M103.8,-147.4C118.54,-142.49 135.07,-136.98 150.44,-131.85"/>
<polygon fill="midnightblue" stroke="midnightblue" points="151.97,-135.03 160.35,-128.55 149.75,-128.39 151.97,-135.03"/>
</g>
<!-- Node8 -->
<g id="node8" class="node">
<title>Node8</title>
<g id="a_node8"><a xlink:href="classL4virtio_1_1Virtqueue.html#a109ea5677dd074df1d2c6a06056c7d82" target="_top" xlink:title="Enable this queue.">
<polygon fill="white" stroke="black" points="153,-49.5 153,-79.5 260,-79.5 260,-49.5 153,-49.5"/>
<text text-anchor="start" x="161" y="-67.5" font-family="Helvetica,sans-Serif" font-size="10.00">L4virtio::Virtqueue</text>
<text text-anchor="middle" x="206.5" y="-56.5" font-family="Helvetica,sans-Serif" font-size="10.00">::setup</text>
</a>
</g>
</g>
<!-- Node1&#45;&gt;Node8 -->
<g id="edge8" class="edge">
<title>Node1&#45;&gt;Node8</title>
<path fill="none" stroke="midnightblue" d="M74.99,-147.49C92.83,-131.74 122.56,-106.9 151,-89.5 153.98,-87.68 157.11,-85.91 160.3,-84.2"/>
<polygon fill="midnightblue" stroke="midnightblue" points="162.06,-87.23 169.39,-79.59 158.89,-80.99 162.06,-87.23"/>
</g>
<!-- Node9 -->
<g id="node9" class="node">
<title>Node9</title>
<g id="a_node9"><a xlink:href="classL4virtio_1_1Virtqueue.html#a7747ac81d7fd21e1e55e43c2e7ead2ea" target="_top" xlink:title="Calculate the size of the used ring for num entries.">
<polygon fill="white" stroke="black" points="153,-0.5 153,-30.5 260,-30.5 260,-0.5 153,-0.5"/>
<text text-anchor="start" x="161" y="-18.5" font-family="Helvetica,sans-Serif" font-size="10.00">L4virtio::Virtqueue</text>
<text text-anchor="middle" x="206.5" y="-7.5" font-family="Helvetica,sans-Serif" font-size="10.00">::used_size</text>
</a>
</g>
</g>
<!-- Node1&#45;&gt;Node9 -->
<g id="edge10" class="edge">
<title>Node1&#45;&gt;Node9</title>
<path fill="none" stroke="midnightblue" d="M66.59,-147.47C80.74,-122.36 112.23,-71.6 151,-40.5 153.02,-38.88 155.17,-37.33 157.4,-35.86"/>
<polygon fill="midnightblue" stroke="midnightblue" points="159.47,-38.71 166.29,-30.6 155.9,-32.68 159.47,-38.71"/>
</g>
<!-- Node3 -->
<g id="node3" class="node">
<title>Node3</title>
<g id="a_node3"><a xlink:href="classL4virtio_1_1Virtqueue.html#af61e3e4e436b93f37f22243a1c0ffe0e" target="_top" xlink:title=" ">
<polygon fill="white" stroke="black" points="298,-153 298,-172 432,-172 432,-153 298,-153"/>
<text text-anchor="middle" x="365" y="-160" font-family="Helvetica,sans-Serif" font-size="10.00">L4virtio::Virtqueue::num</text>
</a>
</g>
</g>
<!-- Node2&#45;&gt;Node3 -->
<g id="edge2" class="edge">
<title>Node2&#45;&gt;Node3</title>
<path fill="none" stroke="midnightblue" d="M247.71,-294.39C252.73,-291.76 257.63,-288.8 262,-285.5 301.83,-255.43 336.05,-206.88 352.88,-180.67"/>
<polygon fill="midnightblue" stroke="midnightblue" points="355.91,-182.43 358.27,-172.1 349.98,-178.7 355.91,-182.43"/>
</g>
<!-- Node4&#45;&gt;Node3 -->
<g id="edge4" class="edge">
<title>Node4&#45;&gt;Node3</title>
<path fill="none" stroke="midnightblue" d="M244.67,-245.4C250.57,-242.65 256.53,-239.64 262,-236.5 292.41,-219.04 324.72,-194.43 344.64,-178.48"/>
<polygon fill="midnightblue" stroke="midnightblue" points="347.05,-181.03 352.62,-172.01 342.64,-175.59 347.05,-181.03"/>
</g>
<!-- Node8&#45;&gt;Node3 -->
<g id="edge9" class="edge">
<title>Node8&#45;&gt;Node3</title>
<path fill="none" stroke="midnightblue" d="M242.89,-79.54C249.36,-82.62 255.97,-86 262,-89.5 292.03,-106.92 324.21,-130.95 344.22,-146.6"/>
<polygon fill="midnightblue" stroke="midnightblue" points="342.24,-149.5 352.26,-152.96 346.58,-144.01 342.24,-149.5"/>
</g>
<!-- Node9&#45;&gt;Node3 -->
<g id="edge11" class="edge">
<title>Node9&#45;&gt;Node3</title>
<path fill="none" stroke="midnightblue" d="M245.98,-30.51C251.59,-33.43 257.12,-36.77 262,-40.5 301.28,-70.5 335.5,-118.2 352.53,-144.18"/>
<polygon fill="midnightblue" stroke="midnightblue" points="349.65,-146.17 358.01,-152.69 355.54,-142.39 349.65,-146.17"/>
</g>
</g>
</svg>
