<?xml version="1.0" encoding="UTF-8" standalone="no"?>
<!DOCTYPE svg PUBLIC "-//W3C//DTD SVG 1.1//EN"
 "http://www.w3.org/Graphics/SVG/1.1/DTD/svg11.dtd">
<!-- Generated by graphviz version 2.43.0 (0)
 -->
<!-- Title: L4Re::Namespace Pages: 1 -->
<svg width="326pt" height="387pt"
 viewBox="0.00 0.00 326.00 387.00" xmlns="http://www.w3.org/2000/svg" xmlns:xlink="http://www.w3.org/1999/xlink">
<g id="graph0" class="graph" transform="scale(1 1) rotate(0) translate(4 383)">
<title>L4Re::Namespace</title>
<polygon fill="white" stroke="transparent" points="-4,4 -4,-383 322,-383 322,4 -4,4"/>
<!-- Node1 -->
<g id="node1" class="node">
<title>Node1</title>
<g id="a_node1"><a xlink:title="Name&#45;space interface.">
<polygon fill="#bfbfbf" stroke="black" points="60,-0.5 60,-90.5 164,-90.5 164,-0.5 60,-0.5"/>
<text text-anchor="middle" x="112" y="-78.5" font-family="Helvetica,sans-Serif" font-size="10.00">L4Re::Namespace</text>
<polyline fill="none" stroke="black" points="60,-71.5 164,-71.5 "/>
<text text-anchor="middle" x="112" y="-59.5" font-family="Helvetica,sans-Serif" font-size="10.00"> </text>
<polyline fill="none" stroke="black" points="60,-52.5 164,-52.5 "/>
<text text-anchor="start" x="68" y="-40.5" font-family="Helvetica,sans-Serif" font-size="10.00">+ query()</text>
<text text-anchor="start" x="68" y="-29.5" font-family="Helvetica,sans-Serif" font-size="10.00">+ query()</text>
<text text-anchor="start" x="68" y="-18.5" font-family="Helvetica,sans-Serif" font-size="10.00">+ register_obj()</text>
<text text-anchor="start" x="68" y="-7.5" font-family="Helvetica,sans-Serif" font-size="10.00">+ unlink()</text>
</a>
</g>
</g>
<!-- Node2 -->
<g id="node2" class="node">
<title>Node2</title>
<g id="a_node2"><a xlink:href="classL4_1_1Kobject__t.html" target="_top" xlink:title=" ">
<polygon fill="white" stroke="black" points="36,-128.5 36,-229.5 188,-229.5 188,-128.5 36,-128.5"/>
<text text-anchor="start" x="44" y="-217.5" font-family="Helvetica,sans-Serif" font-size="10.00">L4::Kobject_t&lt; Namespace,</text>
<text text-anchor="start" x="44" y="-206.5" font-family="Helvetica,sans-Serif" font-size="10.00"> L4::Kobject, L4RE_PROTO</text>
<text text-anchor="start" x="44" y="-195.5" font-family="Helvetica,sans-Serif" font-size="10.00">_NAMESPACE, L4::Type_info</text>
<text text-anchor="middle" x="112" y="-184.5" font-family="Helvetica,sans-Serif" font-size="10.00">::Demand_t&lt; 1 &gt; &gt;</text>
<polyline fill="none" stroke="black" points="36,-177.5 188,-177.5 "/>
<text text-anchor="middle" x="112" y="-165.5" font-family="Helvetica,sans-Serif" font-size="10.00"> </text>
<polyline fill="none" stroke="black" points="36,-158.5 188,-158.5 "/>
<text text-anchor="start" x="44" y="-146.5" font-family="Helvetica,sans-Serif" font-size="10.00"># c()</text>
<text text-anchor="start" x="44" y="-135.5" font-family="Helvetica,sans-Serif" font-size="10.00"># __check_protocols__()</text>
</a>
</g>
</g>
<!-- Node2&#45;&gt;Node1 -->
<g id="edge1" class="edge">
<title>Node2&#45;&gt;Node1</title>
<path fill="none" stroke="midnightblue" d="M112,-118C112,-108.8 112,-99.45 112,-90.67"/>
<polygon fill="none" stroke="midnightblue" points="108.5,-118.29 112,-128.29 115.5,-118.29 108.5,-118.29"/>
</g>
<!-- Node3 -->
<g id="node3" class="node">
<title>Node3</title>
<g id="a_node3"><a xlink:href="classL4_1_1Kobject.html" target="_top" xlink:title="Base class for all kinds of kernel objects and remote objects, referenced by capabilities.">
<polygon fill="white" stroke="black" points="0,-305 0,-373 86,-373 86,-305 0,-305"/>
<text text-anchor="middle" x="43" y="-361" font-family="Helvetica,sans-Serif" font-size="10.00">L4::Kobject</text>
<polyline fill="none" stroke="black" points="0,-354 86,-354 "/>
<text text-anchor="middle" x="43" y="-342" font-family="Helvetica,sans-Serif" font-size="10.00"> </text>
<polyline fill="none" stroke="black" points="0,-335 86,-335 "/>
<text text-anchor="start" x="8" y="-323" font-family="Helvetica,sans-Serif" font-size="10.00">+ dec_refcnt()</text>
<text text-anchor="start" x="8" y="-312" font-family="Helvetica,sans-Serif" font-size="10.00"># cap()</text>
</a>
</g>
</g>
<!-- Node3&#45;&gt;Node2 -->
<g id="edge2" class="edge">
<title>Node3&#45;&gt;Node2</title>
<path fill="none" stroke="midnightblue" d="M61.53,-295.56C70.41,-275.24 81.09,-250.77 90.34,-229.59"/>
<polygon fill="none" stroke="midnightblue" points="58.26,-294.31 57.46,-304.88 64.67,-297.11 58.26,-294.31"/>
</g>
<!-- Node4 -->
<g id="node4" class="node">
<title>Node4</title>
<g id="a_node4"><a xlink:href="classL4_1_1Kobject__t.html" target="_top" xlink:title="Helper class to create an L4Re interface class that is derived from a single base class.">
<polygon fill="white" stroke="black" points="104,-299.5 104,-378.5 260,-378.5 260,-299.5 104,-299.5"/>
<text text-anchor="start" x="112" y="-366.5" font-family="Helvetica,sans-Serif" font-size="10.00">L4::Kobject_t&lt; Derived,</text>
<text text-anchor="middle" x="182" y="-355.5" font-family="Helvetica,sans-Serif" font-size="10.00"> Base, PROTO, S_DEMAND &gt;</text>
<polyline fill="none" stroke="black" points="104,-348.5 260,-348.5 "/>
<text text-anchor="middle" x="182" y="-336.5" font-family="Helvetica,sans-Serif" font-size="10.00"> </text>
<polyline fill="none" stroke="black" points="104,-329.5 260,-329.5 "/>
<text text-anchor="start" x="112" y="-317.5" font-family="Helvetica,sans-Serif" font-size="10.00"># c()</text>
<text text-anchor="start" x="112" y="-306.5" font-family="Helvetica,sans-Serif" font-size="10.00"># __check_protocols__()</text>
</a>
</g>
</g>
<!-- Node4&#45;&gt;Node2 -->
<g id="edge3" class="edge">
<title>Node4&#45;&gt;Node2</title>
<path fill="none" stroke="orange" d="M160.82,-290.2C152.33,-271.04 142.55,-248.95 133.98,-229.61"/>
<polygon fill="orange" stroke="orange" points="157.63,-291.62 164.88,-299.35 164.03,-288.79 157.63,-291.62"/>
<text text-anchor="start" x="155" y="-273" font-family="Helvetica,sans-Serif" font-size="10.00"> &lt; Namespace, L4::Kobject,</text>
<text text-anchor="start" x="155" y="-262" font-family="Helvetica,sans-Serif" font-size="10.00"> L4RE_PROTO_NAMESPACE,</text>
<text text-anchor="middle" x="236.5" y="-251" font-family="Helvetica,sans-Serif" font-size="10.00"> L4::Type_info::Demand_t&lt; 1 &gt; &gt;</text>
</g>
</g>
</svg>
