<?xml version="1.0" encoding="UTF-8" standalone="no"?>
<!DOCTYPE svg PUBLIC "-//W3C//DTD SVG 1.1//EN"
 "http://www.w3.org/Graphics/SVG/1.1/DTD/svg11.dtd">
<!-- Generated by graphviz version 2.43.0 (0)
 -->
<!-- Title: L4::Ipc_svr::Timeout_queue_hooks&lt; HOOKS, BR_MAN &gt; Pages: 1 -->
<svg width="247pt" height="786pt"
 viewBox="0.00 0.00 247.00 786.00" xmlns="http://www.w3.org/2000/svg" xmlns:xlink="http://www.w3.org/1999/xlink">
<g id="graph0" class="graph" transform="scale(1 1) rotate(0) translate(4 782)">
<title>L4::Ipc_svr::Timeout_queue_hooks&lt; HOOKS, BR_MAN &gt;</title>
<polygon fill="white" stroke="transparent" points="-4,4 -4,-782 243,-782 243,4 -4,4"/>
<!-- Node1 -->
<g id="node1" class="node">
<title>Node1</title>
<g id="a_node1"><a xlink:title="Loop hooks mixin for integrating a timeout queue into the server loop.">
<polygon fill="#bfbfbf" stroke="black" points="17.5,-288.5 17.5,-411.5 153.5,-411.5 153.5,-288.5 17.5,-288.5"/>
<text text-anchor="start" x="25.5" y="-399.5" font-family="Helvetica,sans-Serif" font-size="10.00">L4::Ipc_svr::Timeout</text>
<text text-anchor="start" x="25.5" y="-388.5" font-family="Helvetica,sans-Serif" font-size="10.00">_queue_hooks&lt; HOOKS,</text>
<text text-anchor="middle" x="85.5" y="-377.5" font-family="Helvetica,sans-Serif" font-size="10.00"> BR_MAN &gt;</text>
<polyline fill="none" stroke="black" points="17.5,-370.5 153.5,-370.5 "/>
<text text-anchor="start" x="25.5" y="-358.5" font-family="Helvetica,sans-Serif" font-size="10.00">+ queue</text>
<polyline fill="none" stroke="black" points="17.5,-351.5 153.5,-351.5 "/>
<text text-anchor="start" x="25.5" y="-339.5" font-family="Helvetica,sans-Serif" font-size="10.00">+ timeout()</text>
<text text-anchor="start" x="25.5" y="-328.5" font-family="Helvetica,sans-Serif" font-size="10.00">+ setup_wait()</text>
<text text-anchor="start" x="25.5" y="-317.5" font-family="Helvetica,sans-Serif" font-size="10.00">+ before_reply()</text>
<text text-anchor="start" x="25.5" y="-306.5" font-family="Helvetica,sans-Serif" font-size="10.00">+ add_timeout()</text>
<text text-anchor="start" x="25.5" y="-295.5" font-family="Helvetica,sans-Serif" font-size="10.00">+ remove_timeout()</text>
</a>
</g>
</g>
<!-- Node4 -->
<g id="node4" class="node">
<title>Node4</title>
<g id="a_node4"><a xlink:href="classL4_1_1Ipc__svr_1_1Timeout__queue__hooks.html" target="_top" xlink:title=" ">
<polygon fill="white" stroke="black" points="0,-106.5 0,-229.5 171,-229.5 171,-106.5 0,-106.5"/>
<text text-anchor="start" x="8" y="-217.5" font-family="Helvetica,sans-Serif" font-size="10.00">L4::Ipc_svr::Timeout</text>
<text text-anchor="start" x="8" y="-206.5" font-family="Helvetica,sans-Serif" font-size="10.00">_queue_hooks&lt; Br_manager</text>
<text text-anchor="middle" x="85.5" y="-195.5" font-family="Helvetica,sans-Serif" font-size="10.00">_timeout_hooks, Br_manager &gt;</text>
<polyline fill="none" stroke="black" points="0,-188.5 171,-188.5 "/>
<text text-anchor="start" x="8" y="-176.5" font-family="Helvetica,sans-Serif" font-size="10.00">+ queue</text>
<polyline fill="none" stroke="black" points="0,-169.5 171,-169.5 "/>
<text text-anchor="start" x="8" y="-157.5" font-family="Helvetica,sans-Serif" font-size="10.00">+ timeout()</text>
<text text-anchor="start" x="8" y="-146.5" font-family="Helvetica,sans-Serif" font-size="10.00">+ setup_wait()</text>
<text text-anchor="start" x="8" y="-135.5" font-family="Helvetica,sans-Serif" font-size="10.00">+ before_reply()</text>
<text text-anchor="start" x="8" y="-124.5" font-family="Helvetica,sans-Serif" font-size="10.00">+ add_timeout()</text>
<text text-anchor="start" x="8" y="-113.5" font-family="Helvetica,sans-Serif" font-size="10.00">+ remove_timeout()</text>
</a>
</g>
</g>
<!-- Node1&#45;&gt;Node4 -->
<g id="edge4" class="edge">
<title>Node1&#45;&gt;Node4</title>
<path fill="none" stroke="orange" d="M85.5,-277.97C85.5,-262.01 85.5,-245.22 85.5,-229.73"/>
<polygon fill="orange" stroke="orange" points="82,-278.31 85.5,-288.31 89,-278.31 82,-278.31"/>
<text text-anchor="start" x="85.5" y="-262" font-family="Helvetica,sans-Serif" font-size="10.00"> &lt; Br_manager_timeout</text>
<text text-anchor="middle" x="144.5" y="-251" font-family="Helvetica,sans-Serif" font-size="10.00">_hooks, Br_manager &gt;</text>
</g>
<!-- Node2 -->
<g id="node2" class="node">
<title>Node2</title>
<g id="a_node2"><a xlink:href="classL4_1_1Ipc__svr_1_1Server__iface.html" target="_top" xlink:title="Interface for server&#45;loop related functions.">
<polygon fill="white" stroke="black" points="17,-621.5 17,-777.5 154,-777.5 154,-621.5 17,-621.5"/>
<text text-anchor="start" x="25" y="-765.5" font-family="Helvetica,sans-Serif" font-size="10.00">L4::Ipc_svr::Server</text>
<text text-anchor="middle" x="85.5" y="-754.5" font-family="Helvetica,sans-Serif" font-size="10.00">_iface</text>
<polyline fill="none" stroke="black" points="17,-747.5 154,-747.5 "/>
<text text-anchor="middle" x="85.5" y="-735.5" font-family="Helvetica,sans-Serif" font-size="10.00"> </text>
<polyline fill="none" stroke="black" points="17,-728.5 154,-728.5 "/>
<text text-anchor="start" x="25" y="-716.5" font-family="Helvetica,sans-Serif" font-size="10.00">+ Server_iface()</text>
<text text-anchor="start" x="25" y="-705.5" font-family="Helvetica,sans-Serif" font-size="10.00">+ ~Server_iface()</text>
<text text-anchor="start" x="25" y="-694.5" font-family="Helvetica,sans-Serif" font-size="10.00">+ alloc_buffer_demand()</text>
<text text-anchor="start" x="25" y="-683.5" font-family="Helvetica,sans-Serif" font-size="10.00">+ get_rcv_cap()</text>
<text text-anchor="start" x="25" y="-672.5" font-family="Helvetica,sans-Serif" font-size="10.00">+ realloc_rcv_cap()</text>
<text text-anchor="start" x="25" y="-661.5" font-family="Helvetica,sans-Serif" font-size="10.00">+ add_timeout()</text>
<text text-anchor="start" x="25" y="-650.5" font-family="Helvetica,sans-Serif" font-size="10.00">+ remove_timeout()</text>
<text text-anchor="start" x="25" y="-639.5" font-family="Helvetica,sans-Serif" font-size="10.00">+ rcv_cap()</text>
<text text-anchor="start" x="25" y="-628.5" font-family="Helvetica,sans-Serif" font-size="10.00">+ rcv_cap()</text>
</a>
</g>
</g>
<!-- Node2&#45;&gt;Node1 -->
<g id="edge1" class="edge">
<title>Node2&#45;&gt;Node1</title>
<path fill="none" stroke="midnightblue" d="M85.5,-611.18C85.5,-548.98 85.5,-466.94 85.5,-411.75"/>
<polygon fill="none" stroke="midnightblue" points="82,-611.38 85.5,-621.38 89,-611.38 82,-611.38"/>
</g>
<!-- Node3 -->
<g id="node3" class="node">
<title>Node3</title>
<g id="a_node3"><a xlink:href="classL4_1_1Ipc__svr_1_1Br__manager__no__buffers.html" target="_top" xlink:title="Empty implementation of Server_iface.">
<polygon fill="white" stroke="black" points="102,-449.5 102,-583.5 239,-583.5 239,-449.5 102,-449.5"/>
<text text-anchor="start" x="110" y="-571.5" font-family="Helvetica,sans-Serif" font-size="10.00">L4::Ipc_svr::Br_manager</text>
<text text-anchor="middle" x="170.5" y="-560.5" font-family="Helvetica,sans-Serif" font-size="10.00">_no_buffers</text>
<polyline fill="none" stroke="black" points="102,-553.5 239,-553.5 "/>
<text text-anchor="middle" x="170.5" y="-541.5" font-family="Helvetica,sans-Serif" font-size="10.00"> </text>
<polyline fill="none" stroke="black" points="102,-534.5 239,-534.5 "/>
<text text-anchor="start" x="110" y="-522.5" font-family="Helvetica,sans-Serif" font-size="10.00">+ alloc_buffer_demand()</text>
<text text-anchor="start" x="110" y="-511.5" font-family="Helvetica,sans-Serif" font-size="10.00">+ get_rcv_cap()</text>
<text text-anchor="start" x="110" y="-500.5" font-family="Helvetica,sans-Serif" font-size="10.00">+ realloc_rcv_cap()</text>
<text text-anchor="start" x="110" y="-489.5" font-family="Helvetica,sans-Serif" font-size="10.00">+ add_timeout()</text>
<text text-anchor="start" x="110" y="-478.5" font-family="Helvetica,sans-Serif" font-size="10.00">+ remove_timeout()</text>
<text text-anchor="start" x="110" y="-467.5" font-family="Helvetica,sans-Serif" font-size="10.00"># first_free_br()</text>
<text text-anchor="start" x="110" y="-456.5" font-family="Helvetica,sans-Serif" font-size="10.00"># setup_wait()</text>
</a>
</g>
</g>
<!-- Node2&#45;&gt;Node3 -->
<g id="edge3" class="edge">
<title>Node2&#45;&gt;Node3</title>
<path fill="none" stroke="midnightblue" d="M125.99,-612.27C130.52,-602.63 135.08,-592.93 139.46,-583.6"/>
<polygon fill="none" stroke="midnightblue" points="122.75,-610.94 121.67,-621.48 129.09,-613.91 122.75,-610.94"/>
</g>
<!-- Node3&#45;&gt;Node1 -->
<g id="edge2" class="edge">
<title>Node3&#45;&gt;Node1</title>
<path fill="none" stroke="midnightblue" d="M131.48,-439.99C126.56,-430.47 121.58,-420.82 116.8,-411.57"/>
<polygon fill="none" stroke="midnightblue" points="128.47,-441.79 136.17,-449.07 134.69,-438.57 128.47,-441.79"/>
</g>
<!-- Node5 -->
<g id="node5" class="node">
<title>Node5</title>
<g id="a_node5"><a xlink:href="structL4Re_1_1Util_1_1Br__manager__timeout__hooks.html" target="_top" xlink:title="Predefined server&#45;loop hooks for a server with using the Br_manager and a timeout queue.">
<polygon fill="white" stroke="black" points="21,-0.5 21,-68.5 150,-68.5 150,-0.5 21,-0.5"/>
<text text-anchor="start" x="29" y="-56.5" font-family="Helvetica,sans-Serif" font-size="10.00">L4Re::Util::Br_manager</text>
<text text-anchor="middle" x="85.5" y="-45.5" font-family="Helvetica,sans-Serif" font-size="10.00">_timeout_hooks</text>
<polyline fill="none" stroke="black" points="21,-38.5 150,-38.5 "/>
<text text-anchor="middle" x="85.5" y="-26.5" font-family="Helvetica,sans-Serif" font-size="10.00"> </text>
<polyline fill="none" stroke="black" points="21,-19.5 150,-19.5 "/>
<text text-anchor="start" x="29" y="-7.5" font-family="Helvetica,sans-Serif" font-size="10.00">+ now()</text>
</a>
</g>
</g>
<!-- Node4&#45;&gt;Node5 -->
<g id="edge5" class="edge">
<title>Node4&#45;&gt;Node5</title>
<path fill="none" stroke="midnightblue" d="M85.5,-96.24C85.5,-86.65 85.5,-77.21 85.5,-68.73"/>
<polygon fill="none" stroke="midnightblue" points="82,-96.25 85.5,-106.25 89,-96.25 82,-96.25"/>
</g>
</g>
</svg>
