<?xml version="1.0" encoding="UTF-8" standalone="no"?>
<!DOCTYPE svg PUBLIC "-//W3C//DTD SVG 1.1//EN"
 "http://www.w3.org/Graphics/SVG/1.1/DTD/svg11.dtd">
<!-- Generated by graphviz version 2.43.0 (0)
 -->
<!-- Title: cxx::Avl_map::insert Pages: 1 -->
<svg width="418pt" height="39pt"
 viewBox="0.00 0.00 418.00 39.00" xmlns="http://www.w3.org/2000/svg" xmlns:xlink="http://www.w3.org/1999/xlink">
<g id="graph0" class="graph" transform="scale(1 1) rotate(0) translate(4 35)">
<title>cxx::Avl_map::insert</title>
<polygon fill="white" stroke="transparent" points="-4,4 -4,-35 414,-35 414,4 -4,4"/>
<!-- Node1 -->
<g id="node1" class="node">
<title>Node1</title>
<g id="a_node1"><a xlink:title="Insert a &lt;key, data&gt; pair into the map.">
<polygon fill="#bfbfbf" stroke="black" points="0,-6 0,-25 116,-25 116,-6 0,-6"/>
<text text-anchor="middle" x="58" y="-13" font-family="Helvetica,sans-Serif" font-size="10.00">cxx::Avl_map::insert</text>
</a>
</g>
</g>
<!-- Node2 -->
<g id="node2" class="node">
<title>Node2</title>
<g id="a_node2"><a xlink:href="classcxx_1_1Bits_1_1Base__avl__set.html#ac1f7218e9e51bfef71ecb746719a389a" target="_top" xlink:title="Insert an item into the set.">
<polygon fill="white" stroke="black" points="152,-0.5 152,-30.5 261,-30.5 261,-0.5 152,-0.5"/>
<text text-anchor="start" x="160" y="-18.5" font-family="Helvetica,sans-Serif" font-size="10.00">cxx::Bits::Base_avl</text>
<text text-anchor="middle" x="206.5" y="-7.5" font-family="Helvetica,sans-Serif" font-size="10.00">_set::insert</text>
</a>
</g>
</g>
<!-- Node1&#45;&gt;Node2 -->
<g id="edge1" class="edge">
<title>Node1&#45;&gt;Node2</title>
<path fill="none" stroke="midnightblue" d="M116.06,-15.5C124.4,-15.5 133.03,-15.5 141.5,-15.5"/>
<polygon fill="midnightblue" stroke="midnightblue" points="141.71,-19 151.71,-15.5 141.71,-12 141.71,-19"/>
</g>
<!-- Node3 -->
<g id="node3" class="node">
<title>Node3</title>
<g id="a_node3"><a xlink:href="classcxx_1_1Avl__tree.html#a202d84f24c534368f98b0986be0eee1b" target="_top" xlink:title="Insert a new node into this AVL tree.">
<polygon fill="white" stroke="black" points="297,-6 297,-25 410,-25 410,-6 297,-6"/>
<text text-anchor="middle" x="353.5" y="-13" font-family="Helvetica,sans-Serif" font-size="10.00">cxx::Avl_tree::insert</text>
</a>
</g>
</g>
<!-- Node2&#45;&gt;Node3 -->
<g id="edge2" class="edge">
<title>Node2&#45;&gt;Node3</title>
<path fill="none" stroke="midnightblue" d="M261.08,-15.5C269.34,-15.5 277.95,-15.5 286.44,-15.5"/>
<polygon fill="midnightblue" stroke="midnightblue" points="286.71,-19 296.71,-15.5 286.71,-12 286.71,-19"/>
</g>
</g>
</svg>
