<?xml version="1.0" encoding="UTF-8" standalone="no"?>
<!DOCTYPE svg PUBLIC "-//W3C//DTD SVG 1.1//EN"
 "http://www.w3.org/Graphics/SVG/1.1/DTD/svg11.dtd">
<!-- Generated by graphviz version 2.43.0 (0)
 -->
<!-- Title: L4::Ipc::Istream::wait Pages: 1 -->
<svg width="357pt" height="66pt"
 viewBox="0.00 0.00 357.00 66.00" xmlns="http://www.w3.org/2000/svg" xmlns:xlink="http://www.w3.org/1999/xlink">
<g id="graph0" class="graph" transform="scale(1 1) rotate(0) translate(4 62)">
<title>L4::Ipc::Istream::wait</title>
<polygon fill="white" stroke="transparent" points="-4,4 -4,-62 353,-62 353,4 -4,4"/>
<!-- Node1 -->
<g id="node1" class="node">
<title>Node1</title>
<g id="a_node1"><a xlink:title="Wait for an incoming message from any sender.">
<polygon fill="#bfbfbf" stroke="black" points="0,-19.5 0,-38.5 119,-38.5 119,-19.5 0,-19.5"/>
<text text-anchor="middle" x="59.5" y="-26.5" font-family="Helvetica,sans-Serif" font-size="10.00">L4::Ipc::Istream::wait</text>
</a>
</g>
</g>
<!-- Node2 -->
<g id="node2" class="node">
<title>Node2</title>
<g id="a_node2"><a xlink:href="group__l4__ipc__api.html#gade81ef7ed9cb9e08bec716e640eabe04" target="_top" xlink:title="Wait for an incoming message from any possible sender.">
<polygon fill="white" stroke="black" points="176,-38.5 176,-57.5 247,-57.5 247,-38.5 176,-38.5"/>
<text text-anchor="middle" x="211.5" y="-45.5" font-family="Helvetica,sans-Serif" font-size="10.00">l4_ipc_wait</text>
</a>
</g>
</g>
<!-- Node1&#45;&gt;Node2 -->
<g id="edge1" class="edge">
<title>Node1&#45;&gt;Node2</title>
<path fill="none" stroke="midnightblue" d="M119.35,-36.45C134.68,-38.4 150.94,-40.46 165.43,-42.29"/>
<polygon fill="midnightblue" stroke="midnightblue" points="165.26,-45.8 175.62,-43.58 166.14,-38.85 165.26,-45.8"/>
</g>
<!-- Node4 -->
<g id="node4" class="node">
<title>Node4</title>
<g id="a_node4"><a xlink:href="classL4_1_1Ipc_1_1Istream.html#a685d93c237cbf66ff368e17639109411" target="_top" xlink:title="Get the message tag of a received IPC.">
<polygon fill="white" stroke="black" points="155,-0.5 155,-19.5 268,-19.5 268,-0.5 155,-0.5"/>
<text text-anchor="middle" x="211.5" y="-7.5" font-family="Helvetica,sans-Serif" font-size="10.00">L4::Ipc::Istream::tag</text>
</a>
</g>
</g>
<!-- Node1&#45;&gt;Node4 -->
<g id="edge3" class="edge">
<title>Node1&#45;&gt;Node4</title>
<path fill="none" stroke="midnightblue" d="M119.35,-21.55C127.64,-20.5 136.2,-19.41 144.61,-18.35"/>
<polygon fill="midnightblue" stroke="midnightblue" points="145.28,-21.79 154.76,-17.06 144.4,-14.85 145.28,-21.79"/>
</g>
<!-- Node3 -->
<g id="node3" class="node">
<title>Node3</title>
<g id="a_node3"><a xlink:href="group__l4__ipc__api.html#ga0e7e5b18d784b1d3439ea6e5b4bea4e2" target="_top" xlink:title="Generic L4 object invocation.">
<polygon fill="white" stroke="black" points="304,-38.5 304,-57.5 349,-57.5 349,-38.5 304,-38.5"/>
<text text-anchor="middle" x="326.5" y="-45.5" font-family="Helvetica,sans-Serif" font-size="10.00">l4_ipc</text>
</a>
</g>
</g>
<!-- Node2&#45;&gt;Node3 -->
<g id="edge2" class="edge">
<title>Node2&#45;&gt;Node3</title>
<path fill="none" stroke="midnightblue" d="M247.02,-48C261.95,-48 279.32,-48 293.91,-48"/>
<polygon fill="midnightblue" stroke="midnightblue" points="293.98,-51.5 303.98,-48 293.98,-44.5 293.98,-51.5"/>
</g>
</g>
</svg>
