<?xml version="1.0" encoding="UTF-8" standalone="no"?>
<!DOCTYPE svg PUBLIC "-//W3C//DTD SVG 1.1//EN"
 "http://www.w3.org/Graphics/SVG/1.1/DTD/svg11.dtd">
<!-- Generated by graphviz version 2.43.0 (0)
 -->
<!-- Title: cxx::Bitfield::set_unshifted_dirty Pages: 1 -->
<svg width="365pt" height="39pt"
 viewBox="0.00 0.00 365.00 39.00" xmlns="http://www.w3.org/2000/svg" xmlns:xlink="http://www.w3.org/1999/xlink">
<g id="graph0" class="graph" transform="scale(1 1) rotate(0) translate(4 35)">
<title>cxx::Bitfield::set_unshifted_dirty</title>
<polygon fill="white" stroke="transparent" points="-4,4 -4,-35 361,-35 361,4 -4,4"/>
<!-- Node1 -->
<g id="node1" class="node">
<title>Node1</title>
<g id="a_node1"><a xlink:title="Set the bits corresponding to val.">
<polygon fill="#bfbfbf" stroke="black" points="0,-0.5 0,-30.5 95,-30.5 95,-0.5 0,-0.5"/>
<text text-anchor="start" x="8" y="-18.5" font-family="Helvetica,sans-Serif" font-size="10.00">cxx::Bitfield::set</text>
<text text-anchor="middle" x="47.5" y="-7.5" font-family="Helvetica,sans-Serif" font-size="10.00">_unshifted_dirty</text>
</a>
</g>
</g>
<!-- Node2 -->
<g id="node2" class="node">
<title>Node2</title>
<g id="a_node2"><a xlink:href="classcxx_1_1Bitfield.html#a3384706160a84e15a283e2c639071a26" target="_top" xlink:title="Get the shifted bits for val.">
<polygon fill="white" stroke="black" points="131,-6 131,-25 226,-25 226,-6 131,-6"/>
<text text-anchor="middle" x="178.5" y="-13" font-family="Helvetica,sans-Serif" font-size="10.00">cxx::Bitfield::val</text>
</a>
</g>
</g>
<!-- Node1&#45;&gt;Node2 -->
<g id="edge1" class="edge">
<title>Node1&#45;&gt;Node2</title>
<path fill="none" stroke="midnightblue" d="M95.07,-15.5C103.48,-15.5 112.32,-15.5 120.97,-15.5"/>
<polygon fill="midnightblue" stroke="midnightblue" points="121,-19 131,-15.5 121,-12 121,-19"/>
</g>
<!-- Node3 -->
<g id="node3" class="node">
<title>Node3</title>
<g id="a_node3"><a xlink:href="classcxx_1_1Bitfield.html#a8180660e03ca6acf85047dba64bb77a3" target="_top" xlink:title="Get the shifted bits for val.">
<polygon fill="white" stroke="black" points="262,-0.5 262,-30.5 357,-30.5 357,-0.5 262,-0.5"/>
<text text-anchor="start" x="270" y="-18.5" font-family="Helvetica,sans-Serif" font-size="10.00">cxx::Bitfield::val</text>
<text text-anchor="middle" x="309.5" y="-7.5" font-family="Helvetica,sans-Serif" font-size="10.00">_dirty</text>
</a>
</g>
</g>
<!-- Node2&#45;&gt;Node3 -->
<g id="edge2" class="edge">
<title>Node2&#45;&gt;Node3</title>
<path fill="none" stroke="midnightblue" d="M226.07,-8.99C234.48,-8.76 243.32,-8.7 251.97,-8.8"/>
<polygon fill="midnightblue" stroke="midnightblue" points="251.93,-12.3 262,-8.99 252.07,-5.3 251.93,-12.3"/>
</g>
<!-- Node3&#45;&gt;Node2 -->
<g id="edge3" class="edge">
<title>Node3&#45;&gt;Node2</title>
<path fill="none" stroke="midnightblue" d="M262,-22.01C253.6,-22.24 244.75,-22.3 236.1,-22.2"/>
<polygon fill="midnightblue" stroke="midnightblue" points="236.14,-18.7 226.07,-22.01 236,-25.7 236.14,-18.7"/>
</g>
</g>
</svg>
