<?xml version="1.0" encoding="UTF-8" standalone="no"?>
<!DOCTYPE svg PUBLIC "-//W3C//DTD SVG 1.1//EN"
 "http://www.w3.org/Graphics/SVG/1.1/DTD/svg11.dtd">
<!-- Generated by graphviz version 2.43.0 (0)
 -->
<!-- Title: L4::Ipc_svr::Timeout_queue::timeout_expired Pages: 1 -->
<svg width="336pt" height="88pt"
 viewBox="0.00 0.00 336.00 88.00" xmlns="http://www.w3.org/2000/svg" xmlns:xlink="http://www.w3.org/1999/xlink">
<g id="graph0" class="graph" transform="scale(1 1) rotate(0) translate(4 84)">
<title>L4::Ipc_svr::Timeout_queue::timeout_expired</title>
<polygon fill="white" stroke="transparent" points="-4,4 -4,-84 332,-84 332,4 -4,4"/>
<!-- Node1 -->
<g id="node1" class="node">
<title>Node1</title>
<g id="a_node1"><a xlink:title="Determine if a timeout has happened.">
<polygon fill="#bfbfbf" stroke="black" points="190,-24.5 190,-54.5 328,-54.5 328,-24.5 190,-24.5"/>
<text text-anchor="start" x="198" y="-42.5" font-family="Helvetica,sans-Serif" font-size="10.00">L4::Ipc_svr::Timeout</text>
<text text-anchor="middle" x="259" y="-31.5" font-family="Helvetica,sans-Serif" font-size="10.00">_queue::timeout_expired</text>
</a>
</g>
</g>
<!-- Node2 -->
<g id="node2" class="node">
<title>Node2</title>
<g id="a_node2"><a xlink:href="classL4_1_1Ipc__svr_1_1Timeout__queue__hooks.html#a27b6731396dc52f3fd5bf35f6788e27b" target="_top" xlink:title="server loop hook">
<polygon fill="white" stroke="black" points="0,-49.5 0,-79.5 154,-79.5 154,-49.5 0,-49.5"/>
<text text-anchor="start" x="8" y="-67.5" font-family="Helvetica,sans-Serif" font-size="10.00">L4::Ipc_svr::Timeout</text>
<text text-anchor="middle" x="77" y="-56.5" font-family="Helvetica,sans-Serif" font-size="10.00">_queue_hooks::before_reply</text>
</a>
</g>
</g>
<!-- Node1&#45;&gt;Node2 -->
<g id="edge1" class="edge">
<title>Node1&#45;&gt;Node2</title>
<path fill="none" stroke="midnightblue" d="M180.02,-50.33C171.48,-51.52 162.8,-52.72 154.29,-53.9"/>
<polygon fill="midnightblue" stroke="midnightblue" points="180.53,-53.79 189.95,-48.95 179.56,-46.86 180.53,-53.79"/>
</g>
<!-- Node3 -->
<g id="node3" class="node">
<title>Node3</title>
<g id="a_node3"><a xlink:href="classL4_1_1Ipc__svr_1_1Timeout__queue__hooks.html#aa2441ebaedd9d9a3c3e7066d2696ba2f" target="_top" xlink:title="setup_wait() for the server loop">
<polygon fill="white" stroke="black" points="4,-0.5 4,-30.5 150,-30.5 150,-0.5 4,-0.5"/>
<text text-anchor="start" x="12" y="-18.5" font-family="Helvetica,sans-Serif" font-size="10.00">L4::Ipc_svr::Timeout</text>
<text text-anchor="middle" x="77" y="-7.5" font-family="Helvetica,sans-Serif" font-size="10.00">_queue_hooks::setup_wait</text>
</a>
</g>
</g>
<!-- Node1&#45;&gt;Node3 -->
<g id="edge2" class="edge">
<title>Node1&#45;&gt;Node3</title>
<path fill="none" stroke="midnightblue" d="M179.75,-29.07C169.88,-27.75 159.82,-26.41 150.05,-25.11"/>
<polygon fill="midnightblue" stroke="midnightblue" points="179.57,-32.57 189.95,-30.43 180.5,-25.64 179.57,-32.57"/>
</g>
</g>
</svg>
