<?xml version="1.0" encoding="UTF-8" standalone="no"?>
<!DOCTYPE svg PUBLIC "-//W3C//DTD SVG 1.1//EN"
 "http://www.w3.org/Graphics/SVG/1.1/DTD/svg11.dtd">
<!-- Generated by graphviz version 2.43.0 (0)
 -->
<!-- Title: L4::Ipc_svr::Timeout_queue_hooks::add_timeout Pages: 1 -->
<svg width="647pt" height="253pt"
 viewBox="0.00 0.00 647.00 253.00" xmlns="http://www.w3.org/2000/svg" xmlns:xlink="http://www.w3.org/1999/xlink">
<g id="graph0" class="graph" transform="scale(1 1) rotate(0) translate(4 249)">
<title>L4::Ipc_svr::Timeout_queue_hooks::add_timeout</title>
<polygon fill="white" stroke="transparent" points="-4,4 -4,-249 643,-249 643,4 -4,4"/>
<!-- Node1 -->
<g id="node1" class="node">
<title>Node1</title>
<g id="a_node1"><a xlink:title="Add a timout to the queue for time time.">
<polygon fill="#bfbfbf" stroke="black" points="0,-95.5 0,-125.5 154,-125.5 154,-95.5 0,-95.5"/>
<text text-anchor="start" x="8" y="-113.5" font-family="Helvetica,sans-Serif" font-size="10.00">L4::Ipc_svr::Timeout</text>
<text text-anchor="middle" x="77" y="-102.5" font-family="Helvetica,sans-Serif" font-size="10.00">_queue_hooks::add_timeout</text>
</a>
</g>
</g>
<!-- Node2 -->
<g id="node2" class="node">
<title>Node2</title>
<g id="a_node2"><a xlink:href="classL4_1_1Ipc__svr_1_1Timeout__queue.html#ae31fed715901774759e1786b5e633a07" target="_top" xlink:title="Add a timeout to the queue.">
<polygon fill="white" stroke="black" points="198,-136.5 198,-166.5 313,-166.5 313,-136.5 198,-136.5"/>
<text text-anchor="start" x="206" y="-154.5" font-family="Helvetica,sans-Serif" font-size="10.00">L4::Ipc_svr::Timeout</text>
<text text-anchor="middle" x="255.5" y="-143.5" font-family="Helvetica,sans-Serif" font-size="10.00">_queue::add</text>
</a>
</g>
</g>
<!-- Node1&#45;&gt;Node2 -->
<g id="edge1" class="edge">
<title>Node1&#45;&gt;Node2</title>
<path fill="none" stroke="midnightblue" d="M142.72,-125.53C157.43,-128.95 173.08,-132.59 187.86,-136.02"/>
<polygon fill="midnightblue" stroke="midnightblue" points="187.41,-139.51 197.94,-138.36 188.99,-132.69 187.41,-139.51"/>
</g>
<!-- Node6 -->
<g id="node6" class="node">
<title>Node6</title>
<g id="a_node6"><a xlink:href="classL4_1_1Ipc__svr_1_1Timeout__queue__hooks.html#ae4a6bd9781bf97a37dbff039db58d47d" target="_top" xlink:title="get the time for the next timeout">
<polygon fill="white" stroke="black" points="190,-71.5 190,-101.5 321,-101.5 321,-71.5 190,-71.5"/>
<text text-anchor="start" x="198" y="-89.5" font-family="Helvetica,sans-Serif" font-size="10.00">L4::Ipc_svr::Timeout</text>
<text text-anchor="middle" x="255.5" y="-78.5" font-family="Helvetica,sans-Serif" font-size="10.00">_queue_hooks::timeout</text>
</a>
</g>
</g>
<!-- Node1&#45;&gt;Node6 -->
<g id="edge5" class="edge">
<title>Node1&#45;&gt;Node6</title>
<path fill="none" stroke="midnightblue" d="M154.13,-100.15C162.72,-98.98 171.46,-97.79 180.02,-96.63"/>
<polygon fill="midnightblue" stroke="midnightblue" points="180.53,-100.09 189.97,-95.27 179.59,-93.15 180.53,-100.09"/>
</g>
<!-- Node3 -->
<g id="node3" class="node">
<title>Node3</title>
<g id="a_node3"><a xlink:href="classcxx_1_1Bits_1_1Basic__list.html#af857846edcaf6cbc84827c585b45fd49" target="_top" xlink:title="Return an iterator to the beginning of the list.">
<polygon fill="white" stroke="black" points="369,-214.5 369,-244.5 480,-244.5 480,-214.5 369,-214.5"/>
<text text-anchor="start" x="377" y="-232.5" font-family="Helvetica,sans-Serif" font-size="10.00">cxx::Bits::Basic_list</text>
<text text-anchor="middle" x="424.5" y="-221.5" font-family="Helvetica,sans-Serif" font-size="10.00">::begin</text>
</a>
</g>
</g>
<!-- Node2&#45;&gt;Node3 -->
<g id="edge2" class="edge">
<title>Node2&#45;&gt;Node3</title>
<path fill="none" stroke="midnightblue" d="M282.92,-166.6C302.93,-177.75 331.27,-192.94 357,-204.5 361.66,-206.6 366.56,-208.67 371.49,-210.67"/>
<polygon fill="midnightblue" stroke="midnightblue" points="370.37,-213.99 380.96,-214.42 372.95,-207.48 370.37,-213.99"/>
</g>
<!-- Node4 -->
<g id="node4" class="node">
<title>Node4</title>
<g id="a_node4"><a xlink:href="classcxx_1_1Bits_1_1Basic__list.html#a08f2ae0b9f0379ce1778ba1f2d163330" target="_top" xlink:title="Return a const iterator to the end of the list.">
<polygon fill="white" stroke="black" points="357,-176 357,-195 492,-195 492,-176 357,-176"/>
<text text-anchor="middle" x="424.5" y="-183" font-family="Helvetica,sans-Serif" font-size="10.00">cxx::Bits::Basic_list::end</text>
</a>
</g>
</g>
<!-- Node2&#45;&gt;Node4 -->
<g id="edge3" class="edge">
<title>Node2&#45;&gt;Node4</title>
<path fill="none" stroke="midnightblue" d="M313.04,-163.01C330.36,-166.54 349.42,-170.42 366.76,-173.95"/>
<polygon fill="midnightblue" stroke="midnightblue" points="366.24,-177.41 376.74,-175.98 367.64,-170.55 366.24,-177.41"/>
</g>
<!-- Node5 -->
<g id="node5" class="node">
<title>Node5</title>
<g id="a_node5"><a xlink:href="classcxx_1_1H__list.html#a6d51f7db1f61e1e2175e03ca8d034cfc" target="_top" xlink:title="Insert an element before the iterator position.">
<polygon fill="white" stroke="black" points="374,-126.5 374,-156.5 475,-156.5 475,-126.5 374,-126.5"/>
<text text-anchor="start" x="382" y="-144.5" font-family="Helvetica,sans-Serif" font-size="10.00">cxx::H_list::insert</text>
<text text-anchor="middle" x="424.5" y="-133.5" font-family="Helvetica,sans-Serif" font-size="10.00">_before</text>
</a>
</g>
</g>
<!-- Node2&#45;&gt;Node5 -->
<g id="edge4" class="edge">
<title>Node2&#45;&gt;Node5</title>
<path fill="none" stroke="midnightblue" d="M313.04,-148.11C329.34,-147.14 347.17,-146.07 363.66,-145.08"/>
<polygon fill="midnightblue" stroke="midnightblue" points="363.96,-148.57 373.73,-144.48 363.54,-141.58 363.96,-148.57"/>
</g>
<!-- Node7 -->
<g id="node7" class="node">
<title>Node7</title>
<g id="a_node7"><a xlink:href="group__l4__timeout__api.html#ga3345aebfb9e55eccf20ff8b765197bae" target="_top" xlink:title="Combine send and receive timeout in a timeout.">
<polygon fill="white" stroke="black" points="390,-88 390,-107 459,-107 459,-88 390,-88"/>
<text text-anchor="middle" x="424.5" y="-95" font-family="Helvetica,sans-Serif" font-size="10.00">l4_timeout</text>
</a>
</g>
</g>
<!-- Node6&#45;&gt;Node7 -->
<g id="edge6" class="edge">
<title>Node6&#45;&gt;Node7</title>
<path fill="none" stroke="midnightblue" d="M321.07,-90.75C340.71,-92.05 361.83,-93.44 379.75,-94.62"/>
<polygon fill="midnightblue" stroke="midnightblue" points="379.7,-98.12 389.91,-95.29 380.16,-91.14 379.7,-98.12"/>
</g>
<!-- Node8 -->
<g id="node8" class="node">
<title>Node8</title>
<g id="a_node8"><a xlink:href="group__l4__timeout__api.html#gab3eeabba0542c7723fbd5628c6e4d6c3" target="_top" xlink:title="Set an absolute timeout.">
<polygon fill="white" stroke="black" points="378.5,-50 378.5,-69 470.5,-69 470.5,-50 378.5,-50"/>
<text text-anchor="middle" x="424.5" y="-57" font-family="Helvetica,sans-Serif" font-size="10.00">l4_timeout_abs</text>
</a>
</g>
</g>
<!-- Node6&#45;&gt;Node8 -->
<g id="edge7" class="edge">
<title>Node6&#45;&gt;Node8</title>
<path fill="none" stroke="midnightblue" d="M321.07,-76.06C336.65,-73.54 353.17,-70.87 368.28,-68.43"/>
<polygon fill="midnightblue" stroke="midnightblue" points="369.18,-71.83 378.49,-66.78 368.06,-64.92 369.18,-71.83"/>
</g>
<!-- Node9 -->
<g id="node9" class="node">
<title>Node9</title>
<g id="a_node9"><a xlink:href="classL4_1_1Ipc__svr_1_1Timeout__queue.html#a4d3404d1f551f06f9ef98121bd150569" target="_top" xlink:title="Get the time for the next timeout.">
<polygon fill="white" stroke="black" points="363,-0.5 363,-30.5 486,-30.5 486,-0.5 363,-0.5"/>
<text text-anchor="start" x="371" y="-18.5" font-family="Helvetica,sans-Serif" font-size="10.00">L4::Ipc_svr::Timeout</text>
<text text-anchor="middle" x="424.5" y="-7.5" font-family="Helvetica,sans-Serif" font-size="10.00">_queue::next_timeout</text>
</a>
</g>
</g>
<!-- Node6&#45;&gt;Node9 -->
<g id="edge8" class="edge">
<title>Node6&#45;&gt;Node9</title>
<path fill="none" stroke="midnightblue" d="M287.94,-71.43C307.63,-62.16 333.62,-50.23 357,-40.5 362.05,-38.4 367.35,-36.27 372.66,-34.2"/>
<polygon fill="midnightblue" stroke="midnightblue" points="374.1,-37.39 382.17,-30.53 371.58,-30.86 374.1,-37.39"/>
</g>
<!-- Node10 -->
<g id="node10" class="node">
<title>Node10</title>
<g id="a_node10"><a xlink:href="classcxx_1_1Bits_1_1Basic__list.html#afe4330106fdfcc338e7c01b1e32cdbac" target="_top" xlink:title="Return the first element in the list.">
<polygon fill="white" stroke="black" points="528,-0.5 528,-30.5 639,-30.5 639,-0.5 528,-0.5"/>
<text text-anchor="start" x="536" y="-18.5" font-family="Helvetica,sans-Serif" font-size="10.00">cxx::Bits::Basic_list</text>
<text text-anchor="middle" x="583.5" y="-7.5" font-family="Helvetica,sans-Serif" font-size="10.00">::front</text>
</a>
</g>
</g>
<!-- Node9&#45;&gt;Node10 -->
<g id="edge9" class="edge">
<title>Node9&#45;&gt;Node10</title>
<path fill="none" stroke="midnightblue" d="M486.2,-15.5C496.49,-15.5 507.21,-15.5 517.6,-15.5"/>
<polygon fill="midnightblue" stroke="midnightblue" points="517.86,-19 527.86,-15.5 517.86,-12 517.86,-19"/>
</g>
</g>
</svg>
