<?xml version="1.0" encoding="UTF-8" standalone="no"?>
<!DOCTYPE svg PUBLIC "-//W3C//DTD SVG 1.1//EN"
 "http://www.w3.org/Graphics/SVG/1.1/DTD/svg11.dtd">
<!-- Generated by graphviz version 2.43.0 (0)
 -->
<!-- Title: L4Re::Util::Object_registry Pages: 1 -->
<svg width="242pt" height="325pt"
 viewBox="0.00 0.00 242.00 325.00" xmlns="http://www.w3.org/2000/svg" xmlns:xlink="http://www.w3.org/1999/xlink">
<g id="graph0" class="graph" transform="scale(1 1) rotate(0) translate(4 321)">
<title>L4Re::Util::Object_registry</title>
<polygon fill="white" stroke="transparent" points="-4,4 -4,-321 238,-321 238,4 -4,4"/>
<!-- Node1 -->
<g id="node1" class="node">
<title>Node1</title>
<g id="a_node1"><a xlink:title="A registry that manages server objects and their attached IPC gates for a single server loop for a sp...">
<polygon fill="#bfbfbf" stroke="black" points="59,-0.5 59,-156.5 170,-156.5 170,-0.5 59,-0.5"/>
<text text-anchor="start" x="67" y="-144.5" font-family="Helvetica,sans-Serif" font-size="10.00">L4Re::Util::Object</text>
<text text-anchor="middle" x="114.5" y="-133.5" font-family="Helvetica,sans-Serif" font-size="10.00">_registry</text>
<polyline fill="none" stroke="black" points="59,-126.5 170,-126.5 "/>
<text text-anchor="start" x="67" y="-114.5" font-family="Helvetica,sans-Serif" font-size="10.00"># _server</text>
<text text-anchor="start" x="67" y="-103.5" font-family="Helvetica,sans-Serif" font-size="10.00"># _factory</text>
<text text-anchor="start" x="67" y="-92.5" font-family="Helvetica,sans-Serif" font-size="10.00"># _sif</text>
<polyline fill="none" stroke="black" points="59,-85.5 170,-85.5 "/>
<text text-anchor="start" x="67" y="-73.5" font-family="Helvetica,sans-Serif" font-size="10.00">+ Object_registry()</text>
<text text-anchor="start" x="67" y="-62.5" font-family="Helvetica,sans-Serif" font-size="10.00">+ Object_registry()</text>
<text text-anchor="start" x="67" y="-51.5" font-family="Helvetica,sans-Serif" font-size="10.00">+ register_obj()</text>
<text text-anchor="start" x="67" y="-40.5" font-family="Helvetica,sans-Serif" font-size="10.00">+ register_obj()</text>
<text text-anchor="start" x="67" y="-29.5" font-family="Helvetica,sans-Serif" font-size="10.00">+ register_irq_obj()</text>
<text text-anchor="start" x="67" y="-18.5" font-family="Helvetica,sans-Serif" font-size="10.00">+ register_obj()</text>
<text text-anchor="start" x="67" y="-7.5" font-family="Helvetica,sans-Serif" font-size="10.00">+ unregister_obj()</text>
</a>
</g>
</g>
<!-- Node2 -->
<g id="node2" class="node">
<title>Node2</title>
<g id="a_node2"><a xlink:href="classL4_1_1Basic__registry.html" target="_top" xlink:title="This registry returns the corresponding server object based on the label of an Ipc_gate.">
<polygon fill="white" stroke="black" points="0,-221 0,-289 103,-289 103,-221 0,-221"/>
<text text-anchor="middle" x="51.5" y="-277" font-family="Helvetica,sans-Serif" font-size="10.00">L4::Basic_registry</text>
<polyline fill="none" stroke="black" points="0,-270 103,-270 "/>
<text text-anchor="middle" x="51.5" y="-258" font-family="Helvetica,sans-Serif" font-size="10.00"> </text>
<polyline fill="none" stroke="black" points="0,-251 103,-251 "/>
<text text-anchor="start" x="8" y="-239" font-family="Helvetica,sans-Serif" font-size="10.00">+ find()</text>
<text text-anchor="start" x="8" y="-228" font-family="Helvetica,sans-Serif" font-size="10.00">+ dispatch()</text>
</a>
</g>
</g>
<!-- Node2&#45;&gt;Node1 -->
<g id="edge1" class="edge">
<title>Node2&#45;&gt;Node1</title>
<path fill="none" stroke="midnightblue" d="M67.04,-210.96C72.96,-194.57 79.9,-175.35 86.61,-156.74"/>
<polygon fill="none" stroke="midnightblue" points="63.6,-210.17 63.5,-220.77 70.19,-212.55 63.6,-210.17"/>
</g>
<!-- Node3 -->
<g id="node3" class="node">
<title>Node3</title>
<g id="a_node3"><a xlink:href="classL4_1_1Registry__iface.html" target="_top" xlink:title="Abstract interface for object registries.">
<polygon fill="white" stroke="black" points="121,-193.5 121,-316.5 234,-316.5 234,-193.5 121,-193.5"/>
<text text-anchor="middle" x="177.5" y="-304.5" font-family="Helvetica,sans-Serif" font-size="10.00">L4::Registry_iface</text>
<polyline fill="none" stroke="black" points="121,-297.5 234,-297.5 "/>
<text text-anchor="middle" x="177.5" y="-285.5" font-family="Helvetica,sans-Serif" font-size="10.00"> </text>
<polyline fill="none" stroke="black" points="121,-278.5 234,-278.5 "/>
<text text-anchor="start" x="129" y="-266.5" font-family="Helvetica,sans-Serif" font-size="10.00">+ ~Registry_iface()</text>
<text text-anchor="start" x="129" y="-255.5" font-family="Helvetica,sans-Serif" font-size="10.00">+ register_obj()</text>
<text text-anchor="start" x="129" y="-244.5" font-family="Helvetica,sans-Serif" font-size="10.00">+ register_obj()</text>
<text text-anchor="start" x="129" y="-233.5" font-family="Helvetica,sans-Serif" font-size="10.00">+ register_irq_obj()</text>
<text text-anchor="start" x="129" y="-222.5" font-family="Helvetica,sans-Serif" font-size="10.00">+ register_obj()</text>
<text text-anchor="start" x="129" y="-211.5" font-family="Helvetica,sans-Serif" font-size="10.00">+ register_irq_obj()</text>
<text text-anchor="start" x="129" y="-200.5" font-family="Helvetica,sans-Serif" font-size="10.00">+ unregister_obj()</text>
</a>
</g>
</g>
<!-- Node3&#45;&gt;Node1 -->
<g id="edge2" class="edge">
<title>Node3&#45;&gt;Node1</title>
<path fill="none" stroke="midnightblue" d="M152.17,-183.83C148.92,-174.85 145.59,-165.62 142.31,-156.53"/>
<polygon fill="none" stroke="midnightblue" points="148.95,-185.24 155.64,-193.46 155.54,-182.86 148.95,-185.24"/>
</g>
</g>
</svg>
