<?xml version="1.0" encoding="UTF-8" standalone="no"?>
<!DOCTYPE svg PUBLIC "-//W3C//DTD SVG 1.1//EN"
 "http://www.w3.org/Graphics/SVG/1.1/DTD/svg11.dtd">
<!-- Generated by graphviz version 2.43.0 (0)
 -->
<!-- Title: L4::Icu::bind Pages: 1 -->
<svg width="223pt" height="104pt"
 viewBox="0.00 0.00 223.00 104.00" xmlns="http://www.w3.org/2000/svg" xmlns:xlink="http://www.w3.org/1999/xlink">
<g id="graph0" class="graph" transform="scale(1 1) rotate(0) translate(4 100)">
<title>L4::Icu::bind</title>
<polygon fill="white" stroke="transparent" points="-4,4 -4,-100 219,-100 219,4 -4,4"/>
<!-- Node1 -->
<g id="node1" class="node">
<title>Node1</title>
<g id="a_node1"><a xlink:title="Bind an interrupt line of an interrupt controller to an interrupt object.">
<polygon fill="#bfbfbf" stroke="black" points="0,-38.5 0,-57.5 75,-57.5 75,-38.5 0,-38.5"/>
<text text-anchor="middle" x="37.5" y="-45.5" font-family="Helvetica,sans-Serif" font-size="10.00">L4::Icu::bind</text>
</a>
</g>
</g>
<!-- Node2 -->
<g id="node2" class="node">
<title>Node2</title>
<g id="a_node2"><a xlink:href="classL4_1_1Cap__base.html#a90ff089ca2442b128c2b2b0e1c22c6d7" target="_top" xlink:title="Return capability selector.">
<polygon fill="white" stroke="black" points="111,-76.5 111,-95.5 215,-95.5 215,-76.5 111,-76.5"/>
<text text-anchor="middle" x="163" y="-83.5" font-family="Helvetica,sans-Serif" font-size="10.00">L4::Cap_base::cap</text>
</a>
</g>
</g>
<!-- Node1&#45;&gt;Node2 -->
<g id="edge1" class="edge">
<title>Node1&#45;&gt;Node2</title>
<path fill="none" stroke="midnightblue" d="M69.66,-57.59C85.31,-62.4 104.47,-68.3 121.27,-73.47"/>
<polygon fill="midnightblue" stroke="midnightblue" points="120.26,-76.82 130.85,-76.41 122.32,-70.13 120.26,-76.82"/>
</g>
<!-- Node3 -->
<g id="node3" class="node">
<title>Node3</title>
<g id="a_node3"><a xlink:href="classL4_1_1Kobject.html#a4f2117ae76762f4084e6a1adb915863c" target="_top" xlink:title="Return capability selector.">
<polygon fill="white" stroke="black" points="116.5,-38.5 116.5,-57.5 209.5,-57.5 209.5,-38.5 116.5,-38.5"/>
<text text-anchor="middle" x="163" y="-45.5" font-family="Helvetica,sans-Serif" font-size="10.00">L4::Kobject::cap</text>
</a>
</g>
</g>
<!-- Node1&#45;&gt;Node3 -->
<g id="edge2" class="edge">
<title>Node1&#45;&gt;Node3</title>
<path fill="none" stroke="midnightblue" d="M75.22,-48C85.03,-48 95.85,-48 106.42,-48"/>
<polygon fill="midnightblue" stroke="midnightblue" points="106.45,-51.5 116.45,-48 106.45,-44.5 106.45,-51.5"/>
</g>
<!-- Node4 -->
<g id="node4" class="node">
<title>Node4</title>
<g id="a_node4"><a xlink:href="group__l4__icu__api.html#ga29217a67f405c5d860002dd902bf71e4" target="_top" xlink:title="Bind an interrupt line of an interrupt controller to an interrupt object.">
<polygon fill="white" stroke="black" points="121.5,-0.5 121.5,-19.5 204.5,-19.5 204.5,-0.5 121.5,-0.5"/>
<text text-anchor="middle" x="163" y="-7.5" font-family="Helvetica,sans-Serif" font-size="10.00">l4_icu_bind_u</text>
</a>
</g>
</g>
<!-- Node1&#45;&gt;Node4 -->
<g id="edge3" class="edge">
<title>Node1&#45;&gt;Node4</title>
<path fill="none" stroke="midnightblue" d="M69.66,-38.41C85.31,-33.6 104.47,-27.7 121.27,-22.53"/>
<polygon fill="midnightblue" stroke="midnightblue" points="122.32,-25.87 130.85,-19.59 120.26,-19.18 122.32,-25.87"/>
</g>
</g>
</svg>
