<?xml version="1.0" encoding="UTF-8" standalone="no"?>
<!DOCTYPE svg PUBLIC "-//W3C//DTD SVG 1.1//EN"
 "http://www.w3.org/Graphics/SVG/1.1/DTD/svg11.dtd">
<!-- Generated by graphviz version 2.43.0 (0)
 -->
<!-- Title: L4vbus::Gpio_module Pages: 1 -->
<svg width="342pt" height="961pt"
 viewBox="0.00 0.00 341.50 961.00" xmlns="http://www.w3.org/2000/svg" xmlns:xlink="http://www.w3.org/1999/xlink">
<g id="graph0" class="graph" transform="scale(1 1) rotate(0) translate(4 957)">
<title>L4vbus::Gpio_module</title>
<polygon fill="white" stroke="transparent" points="-4,4 -4,-957 337.5,-957 337.5,4 -4,4"/>
<!-- Node1 -->
<g id="node1" class="node">
<title>Node1</title>
<g id="a_node1"><a xlink:title="A Gpio_module groups multiple GPIO pins together.">
<polygon fill="#bfbfbf" stroke="black" points="79.5,-0.5 79.5,-123.5 201.5,-123.5 201.5,-0.5 79.5,-0.5"/>
<text text-anchor="middle" x="140.5" y="-111.5" font-family="Helvetica,sans-Serif" font-size="10.00">L4vbus::Gpio_module</text>
<polyline fill="none" stroke="black" points="79.5,-104.5 201.5,-104.5 "/>
<text text-anchor="middle" x="140.5" y="-92.5" font-family="Helvetica,sans-Serif" font-size="10.00"> </text>
<polyline fill="none" stroke="black" points="79.5,-85.5 201.5,-85.5 "/>
<text text-anchor="start" x="87.5" y="-73.5" font-family="Helvetica,sans-Serif" font-size="10.00">+ Gpio_module()</text>
<text text-anchor="start" x="87.5" y="-62.5" font-family="Helvetica,sans-Serif" font-size="10.00">+ setup()</text>
<text text-anchor="start" x="87.5" y="-51.5" font-family="Helvetica,sans-Serif" font-size="10.00">+ config_pad()</text>
<text text-anchor="start" x="87.5" y="-40.5" font-family="Helvetica,sans-Serif" font-size="10.00">+ get()</text>
<text text-anchor="start" x="87.5" y="-29.5" font-family="Helvetica,sans-Serif" font-size="10.00">+ set()</text>
<text text-anchor="start" x="87.5" y="-18.5" font-family="Helvetica,sans-Serif" font-size="10.00">+ pin()</text>
<text text-anchor="start" x="87.5" y="-7.5" font-family="Helvetica,sans-Serif" font-size="10.00"># Gpio_module()</text>
</a>
</g>
</g>
<!-- Node2 -->
<g id="node2" class="node">
<title>Node2</title>
<g id="a_node2"><a xlink:href="classL4vbus_1_1Device.html" target="_top" xlink:title="Device on a L4vbus::Vbus.">
<polygon fill="white" stroke="black" points="88,-161.5 88,-328.5 193,-328.5 193,-161.5 88,-161.5"/>
<text text-anchor="middle" x="140.5" y="-316.5" font-family="Helvetica,sans-Serif" font-size="10.00">L4vbus::Device</text>
<polyline fill="none" stroke="black" points="88,-309.5 193,-309.5 "/>
<text text-anchor="start" x="96" y="-297.5" font-family="Helvetica,sans-Serif" font-size="10.00"># _dev</text>
<polyline fill="none" stroke="black" points="88,-290.5 193,-290.5 "/>
<text text-anchor="start" x="96" y="-278.5" font-family="Helvetica,sans-Serif" font-size="10.00">+ Device()</text>
<text text-anchor="start" x="96" y="-267.5" font-family="Helvetica,sans-Serif" font-size="10.00">+ Device()</text>
<text text-anchor="start" x="96" y="-256.5" font-family="Helvetica,sans-Serif" font-size="10.00">+ bus_cap()</text>
<text text-anchor="start" x="96" y="-245.5" font-family="Helvetica,sans-Serif" font-size="10.00">+ dev_handle()</text>
<text text-anchor="start" x="96" y="-234.5" font-family="Helvetica,sans-Serif" font-size="10.00">+ device_by_hid()</text>
<text text-anchor="start" x="96" y="-223.5" font-family="Helvetica,sans-Serif" font-size="10.00">+ next_device()</text>
<text text-anchor="start" x="96" y="-212.5" font-family="Helvetica,sans-Serif" font-size="10.00">+ device()</text>
<text text-anchor="start" x="96" y="-201.5" font-family="Helvetica,sans-Serif" font-size="10.00">+ get_resource()</text>
<text text-anchor="start" x="96" y="-190.5" font-family="Helvetica,sans-Serif" font-size="10.00">+ is_compatible()</text>
<text text-anchor="start" x="96" y="-179.5" font-family="Helvetica,sans-Serif" font-size="10.00">+ operator==()</text>
<text text-anchor="start" x="96" y="-168.5" font-family="Helvetica,sans-Serif" font-size="10.00">+ operator!=()</text>
</a>
</g>
</g>
<!-- Node2&#45;&gt;Node1 -->
<g id="edge1" class="edge">
<title>Node2&#45;&gt;Node1</title>
<path fill="none" stroke="midnightblue" d="M140.5,-151.24C140.5,-141.83 140.5,-132.45 140.5,-123.52"/>
<polygon fill="none" stroke="midnightblue" points="137,-151.44 140.5,-161.44 144,-151.45 137,-151.44"/>
</g>
<!-- Node3 -->
<g id="node3" class="node">
<title>Node3</title>
<g id="a_node3"><a xlink:href="classL4vbus_1_1Pm.html" target="_top" xlink:title=" ">
<polygon fill="white" stroke="black" points="0,-409.5 0,-477.5 129,-477.5 129,-409.5 0,-409.5"/>
<text text-anchor="middle" x="64.5" y="-465.5" font-family="Helvetica,sans-Serif" font-size="10.00">L4vbus::Pm&lt; Device &gt;</text>
<polyline fill="none" stroke="black" points="0,-458.5 129,-458.5 "/>
<text text-anchor="middle" x="64.5" y="-446.5" font-family="Helvetica,sans-Serif" font-size="10.00"> </text>
<polyline fill="none" stroke="black" points="0,-439.5 129,-439.5 "/>
<text text-anchor="start" x="8" y="-427.5" font-family="Helvetica,sans-Serif" font-size="10.00">+ pm_suspend()</text>
<text text-anchor="start" x="8" y="-416.5" font-family="Helvetica,sans-Serif" font-size="10.00">+ pm_resume()</text>
</a>
</g>
</g>
<!-- Node3&#45;&gt;Node2 -->
<g id="edge2" class="edge">
<title>Node3&#45;&gt;Node2</title>
<path fill="none" stroke="midnightblue" d="M81.06,-399.67C89.11,-378.86 99.07,-353.12 108.52,-328.69"/>
<polygon fill="none" stroke="midnightblue" points="77.74,-398.58 77.39,-409.17 84.26,-401.1 77.74,-398.58"/>
</g>
<!-- Node4 -->
<g id="node4" class="node">
<title>Node4</title>
<g id="a_node4"><a xlink:href="classL4vbus_1_1Pm.html" target="_top" xlink:title="Power&#45;management API mixin.">
<polygon fill="white" stroke="black" points="6.5,-591.5 6.5,-659.5 122.5,-659.5 122.5,-591.5 6.5,-591.5"/>
<text text-anchor="middle" x="64.5" y="-647.5" font-family="Helvetica,sans-Serif" font-size="10.00">L4vbus::Pm&lt; DEC &gt;</text>
<polyline fill="none" stroke="black" points="6.5,-640.5 122.5,-640.5 "/>
<text text-anchor="middle" x="64.5" y="-628.5" font-family="Helvetica,sans-Serif" font-size="10.00"> </text>
<polyline fill="none" stroke="black" points="6.5,-621.5 122.5,-621.5 "/>
<text text-anchor="start" x="14.5" y="-609.5" font-family="Helvetica,sans-Serif" font-size="10.00">+ pm_suspend()</text>
<text text-anchor="start" x="14.5" y="-598.5" font-family="Helvetica,sans-Serif" font-size="10.00">+ pm_resume()</text>
</a>
</g>
</g>
<!-- Node4&#45;&gt;Node3 -->
<g id="edge3" class="edge">
<title>Node4&#45;&gt;Node3</title>
<path fill="none" stroke="orange" d="M64.5,-581.14C64.5,-549.31 64.5,-506.73 64.5,-477.61"/>
<polygon fill="orange" stroke="orange" points="61,-581.49 64.5,-591.49 68,-581.49 61,-581.49"/>
<text text-anchor="middle" x="94.5" y="-532" font-family="Helvetica,sans-Serif" font-size="10.00"> &lt; Device &gt;</text>
</g>
<!-- Node5 -->
<g id="node5" class="node">
<title>Node5</title>
<g id="a_node5"><a xlink:href="classL4_1_1Cap.html" target="_top" xlink:title=" ">
<polygon fill="white" stroke="black" points="147.5,-376.5 147.5,-510.5 287.5,-510.5 287.5,-376.5 147.5,-376.5"/>
<text text-anchor="middle" x="217.5" y="-498.5" font-family="Helvetica,sans-Serif" font-size="10.00">L4::Cap&lt; L4vbus::Vbus &gt;</text>
<polyline fill="none" stroke="black" points="147.5,-491.5 287.5,-491.5 "/>
<text text-anchor="middle" x="217.5" y="-479.5" font-family="Helvetica,sans-Serif" font-size="10.00"> </text>
<polyline fill="none" stroke="black" points="147.5,-472.5 287.5,-472.5 "/>
<text text-anchor="start" x="155.5" y="-460.5" font-family="Helvetica,sans-Serif" font-size="10.00">+ Cap()</text>
<text text-anchor="start" x="155.5" y="-449.5" font-family="Helvetica,sans-Serif" font-size="10.00">+ Cap()</text>
<text text-anchor="start" x="155.5" y="-438.5" font-family="Helvetica,sans-Serif" font-size="10.00">+ Cap()</text>
<text text-anchor="start" x="155.5" y="-427.5" font-family="Helvetica,sans-Serif" font-size="10.00">+ Cap()</text>
<text text-anchor="start" x="155.5" y="-416.5" font-family="Helvetica,sans-Serif" font-size="10.00">+ Cap()</text>
<text text-anchor="start" x="155.5" y="-405.5" font-family="Helvetica,sans-Serif" font-size="10.00">+ move()</text>
<text text-anchor="start" x="155.5" y="-394.5" font-family="Helvetica,sans-Serif" font-size="10.00">+ copy()</text>
<text text-anchor="start" x="155.5" y="-383.5" font-family="Helvetica,sans-Serif" font-size="10.00">+ operator&#45;&gt;()</text>
</a>
</g>
</g>
<!-- Node5&#45;&gt;Node2 -->
<g id="edge4" class="edge">
<title>Node5&#45;&gt;Node2</title>
<path fill="none" stroke="#404040" d="M191.54,-376.25C186.96,-364.56 182.11,-352.2 177.3,-339.92"/>
<polygon fill="none" stroke="#404040" points="177.28,-339.87 171.37,-335.74 172.91,-328.7 178.82,-332.82 177.28,-339.87"/>
<text text-anchor="middle" x="201.5" y="-350" font-family="Helvetica,sans-Serif" font-size="10.00"> #_bus</text>
</g>
<!-- Node6 -->
<g id="node6" class="node">
<title>Node6</title>
<g id="a_node6"><a xlink:href="classL4_1_1Cap__base.html" target="_top" xlink:title="Base class for all kinds of capabilities.">
<polygon fill="white" stroke="black" points="115,-730.5 115,-952.5 294,-952.5 294,-730.5 115,-730.5"/>
<text text-anchor="middle" x="204.5" y="-940.5" font-family="Helvetica,sans-Serif" font-size="10.00">L4::Cap_base</text>
<polyline fill="none" stroke="black" points="115,-933.5 294,-933.5 "/>
<text text-anchor="start" x="123" y="-921.5" font-family="Helvetica,sans-Serif" font-size="10.00"># _c</text>
<polyline fill="none" stroke="black" points="115,-914.5 294,-914.5 "/>
<text text-anchor="start" x="123" y="-902.5" font-family="Helvetica,sans-Serif" font-size="10.00">+ cap()</text>
<text text-anchor="start" x="123" y="-891.5" font-family="Helvetica,sans-Serif" font-size="10.00">+ is_valid()</text>
<text text-anchor="start" x="123" y="-880.5" font-family="Helvetica,sans-Serif" font-size="10.00">+ operator Invalid_conversion *()</text>
<text text-anchor="start" x="123" y="-869.5" font-family="Helvetica,sans-Serif" font-size="10.00">+ fpage()</text>
<text text-anchor="start" x="123" y="-858.5" font-family="Helvetica,sans-Serif" font-size="10.00">+ snd_base()</text>
<text text-anchor="start" x="123" y="-847.5" font-family="Helvetica,sans-Serif" font-size="10.00">+ operator==()</text>
<text text-anchor="start" x="123" y="-836.5" font-family="Helvetica,sans-Serif" font-size="10.00">+ operator!=()</text>
<text text-anchor="start" x="123" y="-825.5" font-family="Helvetica,sans-Serif" font-size="10.00">+ validate()</text>
<text text-anchor="start" x="123" y="-814.5" font-family="Helvetica,sans-Serif" font-size="10.00">+ validate()</text>
<text text-anchor="start" x="123" y="-803.5" font-family="Helvetica,sans-Serif" font-size="10.00">+ invalidate()</text>
<text text-anchor="start" x="123" y="-792.5" font-family="Helvetica,sans-Serif" font-size="10.00"># Cap_base()</text>
<text text-anchor="start" x="123" y="-781.5" font-family="Helvetica,sans-Serif" font-size="10.00"># Cap_base()</text>
<text text-anchor="start" x="123" y="-770.5" font-family="Helvetica,sans-Serif" font-size="10.00"># Cap_base()</text>
<text text-anchor="start" x="123" y="-759.5" font-family="Helvetica,sans-Serif" font-size="10.00"># Cap_base()</text>
<text text-anchor="start" x="123" y="-748.5" font-family="Helvetica,sans-Serif" font-size="10.00"># move()</text>
<text text-anchor="start" x="123" y="-737.5" font-family="Helvetica,sans-Serif" font-size="10.00"># copy()</text>
</a>
</g>
</g>
<!-- Node6&#45;&gt;Node5 -->
<g id="edge5" class="edge">
<title>Node6&#45;&gt;Node5</title>
<path fill="none" stroke="midnightblue" d="M207.49,-720.24C208.84,-670.08 210.57,-611.21 212.5,-558 213.06,-542.63 213.74,-526.08 214.42,-510.51"/>
<polygon fill="none" stroke="midnightblue" points="203.98,-720.39 207.21,-730.48 210.98,-720.57 203.98,-720.39"/>
</g>
<!-- Node7 -->
<g id="node7" class="node">
<title>Node7</title>
<g id="a_node7"><a xlink:href="classL4_1_1Cap.html" target="_top" xlink:title="C++ interface for capabilities.">
<polygon fill="white" stroke="black" points="221,-558.5 221,-692.5 310,-692.5 310,-558.5 221,-558.5"/>
<text text-anchor="middle" x="265.5" y="-680.5" font-family="Helvetica,sans-Serif" font-size="10.00">L4::Cap&lt; T &gt;</text>
<polyline fill="none" stroke="black" points="221,-673.5 310,-673.5 "/>
<text text-anchor="middle" x="265.5" y="-661.5" font-family="Helvetica,sans-Serif" font-size="10.00"> </text>
<polyline fill="none" stroke="black" points="221,-654.5 310,-654.5 "/>
<text text-anchor="start" x="229" y="-642.5" font-family="Helvetica,sans-Serif" font-size="10.00">+ Cap()</text>
<text text-anchor="start" x="229" y="-631.5" font-family="Helvetica,sans-Serif" font-size="10.00">+ Cap()</text>
<text text-anchor="start" x="229" y="-620.5" font-family="Helvetica,sans-Serif" font-size="10.00">+ Cap()</text>
<text text-anchor="start" x="229" y="-609.5" font-family="Helvetica,sans-Serif" font-size="10.00">+ Cap()</text>
<text text-anchor="start" x="229" y="-598.5" font-family="Helvetica,sans-Serif" font-size="10.00">+ Cap()</text>
<text text-anchor="start" x="229" y="-587.5" font-family="Helvetica,sans-Serif" font-size="10.00">+ move()</text>
<text text-anchor="start" x="229" y="-576.5" font-family="Helvetica,sans-Serif" font-size="10.00">+ copy()</text>
<text text-anchor="start" x="229" y="-565.5" font-family="Helvetica,sans-Serif" font-size="10.00">+ operator&#45;&gt;()</text>
</a>
</g>
</g>
<!-- Node6&#45;&gt;Node7 -->
<g id="edge7" class="edge">
<title>Node6&#45;&gt;Node7</title>
<path fill="none" stroke="midnightblue" d="M238.65,-720.71C241.39,-711.09 244.09,-701.61 246.66,-692.59"/>
<polygon fill="none" stroke="midnightblue" points="235.27,-719.79 235.89,-730.37 242,-721.71 235.27,-719.79"/>
</g>
<!-- Node7&#45;&gt;Node5 -->
<g id="edge6" class="edge">
<title>Node7&#45;&gt;Node5</title>
<path fill="none" stroke="orange" d="M245.24,-548.54C241.9,-535.99 238.45,-523.08 235.18,-510.8"/>
<polygon fill="orange" stroke="orange" points="241.94,-549.74 247.9,-558.5 248.7,-547.93 241.94,-549.74"/>
<text text-anchor="middle" x="288" y="-532" font-family="Helvetica,sans-Serif" font-size="10.00"> &lt; L4vbus::Vbus &gt;</text>
</g>
</g>
</svg>
