<?xml version="1.0" encoding="UTF-8" standalone="no"?>
<!DOCTYPE svg PUBLIC "-//W3C//DTD SVG 1.1//EN"
 "http://www.w3.org/Graphics/SVG/1.1/DTD/svg11.dtd">
<!-- Generated by graphviz version 2.43.0 (0)
 -->
<!-- Title: cxx::Bitmap_base Pages: 1 -->
<svg width="127pt" height="347pt"
 viewBox="0.00 0.00 127.00 347.00" xmlns="http://www.w3.org/2000/svg" xmlns:xlink="http://www.w3.org/1999/xlink">
<g id="graph0" class="graph" transform="scale(1 1) rotate(0) translate(4 343)">
<title>cxx::Bitmap_base</title>
<polygon fill="white" stroke="transparent" points="-4,4 -4,-343 123,-343 123,4 -4,4"/>
<!-- Node1 -->
<g id="node1" class="node">
<title>Node1</title>
<g id="a_node1"><a xlink:title="Basic bitmap abstraction.">
<polygon fill="#bfbfbf" stroke="black" points="2.5,-127.5 2.5,-338.5 116.5,-338.5 116.5,-127.5 2.5,-127.5"/>
<text text-anchor="middle" x="59.5" y="-326.5" font-family="Helvetica,sans-Serif" font-size="10.00">cxx::Bitmap_base</text>
<polyline fill="none" stroke="black" points="2.5,-319.5 116.5,-319.5 "/>
<text text-anchor="start" x="10.5" y="-307.5" font-family="Helvetica,sans-Serif" font-size="10.00"># _bits</text>
<polyline fill="none" stroke="black" points="2.5,-300.5 116.5,-300.5 "/>
<text text-anchor="start" x="10.5" y="-288.5" font-family="Helvetica,sans-Serif" font-size="10.00">+ Bitmap_base()</text>
<text text-anchor="start" x="10.5" y="-277.5" font-family="Helvetica,sans-Serif" font-size="10.00">+ bit()</text>
<text text-anchor="start" x="10.5" y="-266.5" font-family="Helvetica,sans-Serif" font-size="10.00">+ clear_bit()</text>
<text text-anchor="start" x="10.5" y="-255.5" font-family="Helvetica,sans-Serif" font-size="10.00">+ set_bit()</text>
<text text-anchor="start" x="10.5" y="-244.5" font-family="Helvetica,sans-Serif" font-size="10.00">+ bit()</text>
<text text-anchor="start" x="10.5" y="-233.5" font-family="Helvetica,sans-Serif" font-size="10.00">+ operator[]()</text>
<text text-anchor="start" x="10.5" y="-222.5" font-family="Helvetica,sans-Serif" font-size="10.00">+ operator[]()</text>
<text text-anchor="start" x="10.5" y="-211.5" font-family="Helvetica,sans-Serif" font-size="10.00">+ scan_zero()</text>
<text text-anchor="start" x="10.5" y="-200.5" font-family="Helvetica,sans-Serif" font-size="10.00">+ bit_buffer()</text>
<text text-anchor="start" x="10.5" y="-189.5" font-family="Helvetica,sans-Serif" font-size="10.00">+ words()</text>
<text text-anchor="start" x="10.5" y="-178.5" font-family="Helvetica,sans-Serif" font-size="10.00">+ bit_buffer_bytes()</text>
<text text-anchor="start" x="10.5" y="-167.5" font-family="Helvetica,sans-Serif" font-size="10.00">+ chars()</text>
<text text-anchor="start" x="10.5" y="-156.5" font-family="Helvetica,sans-Serif" font-size="10.00"># word_index()</text>
<text text-anchor="start" x="10.5" y="-145.5" font-family="Helvetica,sans-Serif" font-size="10.00"># bit_index()</text>
<text text-anchor="start" x="10.5" y="-134.5" font-family="Helvetica,sans-Serif" font-size="10.00"># _bzl()</text>
</a>
</g>
</g>
<!-- Node2 -->
<g id="node2" class="node">
<title>Node2</title>
<g id="a_node2"><a xlink:href="classcxx_1_1Bitmap.html" target="_top" xlink:title="A static bit map.">
<polygon fill="white" stroke="black" points="0,-0.5 0,-90.5 119,-90.5 119,-0.5 0,-0.5"/>
<text text-anchor="middle" x="59.5" y="-78.5" font-family="Helvetica,sans-Serif" font-size="10.00">cxx::Bitmap&lt; BITS &gt;</text>
<polyline fill="none" stroke="black" points="0,-71.5 119,-71.5 "/>
<text text-anchor="middle" x="59.5" y="-59.5" font-family="Helvetica,sans-Serif" font-size="10.00"> </text>
<polyline fill="none" stroke="black" points="0,-52.5 119,-52.5 "/>
<text text-anchor="start" x="8" y="-40.5" font-family="Helvetica,sans-Serif" font-size="10.00">+ Bitmap()</text>
<text text-anchor="start" x="8" y="-29.5" font-family="Helvetica,sans-Serif" font-size="10.00">+ Bitmap()</text>
<text text-anchor="start" x="8" y="-18.5" font-family="Helvetica,sans-Serif" font-size="10.00">+ scan_zero()</text>
<text text-anchor="start" x="8" y="-7.5" font-family="Helvetica,sans-Serif" font-size="10.00">+ clear_all()</text>
</a>
</g>
</g>
<!-- Node1&#45;&gt;Node2 -->
<g id="edge1" class="edge">
<title>Node1&#45;&gt;Node2</title>
<path fill="none" stroke="midnightblue" d="M59.5,-117.19C59.5,-107.95 59.5,-99.02 59.5,-90.79"/>
<polygon fill="none" stroke="midnightblue" points="56,-117.32 59.5,-127.32 63,-117.32 56,-117.32"/>
</g>
</g>
</svg>
