<?xml version="1.0" encoding="UTF-8" standalone="no"?>
<!DOCTYPE svg PUBLIC "-//W3C//DTD SVG 1.1//EN"
 "http://www.w3.org/Graphics/SVG/1.1/DTD/svg11.dtd">
<!-- Generated by graphviz version 2.43.0 (0)
 -->
<!-- Title: L4::Kip::Mem_desc::end Pages: 1 -->
<svg width="310pt" height="66pt"
 viewBox="0.00 0.00 310.00 66.00" xmlns="http://www.w3.org/2000/svg" xmlns:xlink="http://www.w3.org/1999/xlink">
<g id="graph0" class="graph" transform="scale(1 1) rotate(0) translate(4 62)">
<title>L4::Kip::Mem_desc::end</title>
<polygon fill="white" stroke="transparent" points="-4,4 -4,-62 306,-62 306,4 -4,4"/>
<!-- Node1 -->
<g id="node1" class="node">
<title>Node1</title>
<g id="a_node1"><a xlink:title="Return end address of memory descriptor.">
<polygon fill="#bfbfbf" stroke="black" points="170,-19.5 170,-38.5 302,-38.5 302,-19.5 170,-19.5"/>
<text text-anchor="middle" x="236" y="-26.5" font-family="Helvetica,sans-Serif" font-size="10.00">L4::Kip::Mem_desc::end</text>
</a>
</g>
</g>
<!-- Node2 -->
<g id="node2" class="node">
<title>Node2</title>
<g id="a_node2"><a xlink:href="classL4_1_1Kip_1_1Mem__desc.html#a48fd081bd276556acfbaae5f3f8f814b" target="_top" xlink:title="Set values of a memory descriptor.">
<polygon fill="white" stroke="black" points="2.5,-38.5 2.5,-57.5 131.5,-57.5 131.5,-38.5 2.5,-38.5"/>
<text text-anchor="middle" x="67" y="-45.5" font-family="Helvetica,sans-Serif" font-size="10.00">L4::Kip::Mem_desc::set</text>
</a>
</g>
</g>
<!-- Node1&#45;&gt;Node2 -->
<g id="edge1" class="edge">
<title>Node1&#45;&gt;Node2</title>
<path fill="none" stroke="midnightblue" d="M159.86,-37.55C150.48,-38.62 140.95,-39.7 131.77,-40.74"/>
<polygon fill="midnightblue" stroke="midnightblue" points="160.42,-41.01 169.96,-36.4 159.62,-34.05 160.42,-41.01"/>
</g>
<!-- Node3 -->
<g id="node3" class="node">
<title>Node3</title>
<g id="a_node3"><a xlink:href="classL4_1_1Kip_1_1Mem__desc.html#aed690d186404b5bc353e9e60a52d9d80" target="_top" xlink:title="Return size of region described by the memory descriptor.">
<polygon fill="white" stroke="black" points="0,-0.5 0,-19.5 134,-19.5 134,-0.5 0,-0.5"/>
<text text-anchor="middle" x="67" y="-7.5" font-family="Helvetica,sans-Serif" font-size="10.00">L4::Kip::Mem_desc::size</text>
</a>
</g>
</g>
<!-- Node1&#45;&gt;Node3 -->
<g id="edge2" class="edge">
<title>Node1&#45;&gt;Node3</title>
<path fill="none" stroke="midnightblue" d="M159.96,-20.46C151.39,-19.49 142.69,-18.5 134.24,-17.54"/>
<polygon fill="midnightblue" stroke="midnightblue" points="159.62,-23.95 169.96,-21.6 160.42,-16.99 159.62,-23.95"/>
</g>
</g>
</svg>
