<?xml version="1.0" encoding="UTF-8" standalone="no"?>
<!DOCTYPE svg PUBLIC "-//W3C//DTD SVG 1.1//EN"
 "http://www.w3.org/Graphics/SVG/1.1/DTD/svg11.dtd">
<!-- Generated by graphviz version 2.43.0 (0)
 -->
<!-- Title: L4::Com_error Pages: 1 -->
<svg width="129pt" height="447pt"
 viewBox="0.00 0.00 129.00 447.00" xmlns="http://www.w3.org/2000/svg" xmlns:xlink="http://www.w3.org/1999/xlink">
<g id="graph0" class="graph" transform="scale(1 1) rotate(0) translate(4 443)">
<title>L4::Com_error</title>
<polygon fill="white" stroke="transparent" points="-4,4 -4,-443 125,-443 125,4 -4,4"/>
<!-- Node1 -->
<g id="node1" class="node">
<title>Node1</title>
<g id="a_node1"><a xlink:title="Error conditions during IPC.">
<polygon fill="#bfbfbf" stroke="black" points="13,-0.5 13,-68.5 108,-68.5 108,-0.5 13,-0.5"/>
<text text-anchor="middle" x="60.5" y="-56.5" font-family="Helvetica,sans-Serif" font-size="10.00">L4::Com_error</text>
<polyline fill="none" stroke="black" points="13,-49.5 108,-49.5 "/>
<text text-anchor="middle" x="60.5" y="-37.5" font-family="Helvetica,sans-Serif" font-size="10.00"> </text>
<polyline fill="none" stroke="black" points="13,-30.5 108,-30.5 "/>
<text text-anchor="start" x="21" y="-18.5" font-family="Helvetica,sans-Serif" font-size="10.00">+ Com_error()</text>
<text text-anchor="start" x="21" y="-7.5" font-family="Helvetica,sans-Serif" font-size="10.00">+ ~Com_error()</text>
</a>
</g>
</g>
<!-- Node2 -->
<g id="node2" class="node">
<title>Node2</title>
<g id="a_node2"><a xlink:href="classL4_1_1Runtime__error.html" target="_top" xlink:title="Exception for an abstract runtime error.">
<polygon fill="white" stroke="black" points="4,-105.5 4,-206.5 117,-206.5 117,-105.5 4,-105.5"/>
<text text-anchor="middle" x="60.5" y="-194.5" font-family="Helvetica,sans-Serif" font-size="10.00">L4::Runtime_error</text>
<polyline fill="none" stroke="black" points="4,-187.5 117,-187.5 "/>
<text text-anchor="middle" x="60.5" y="-175.5" font-family="Helvetica,sans-Serif" font-size="10.00"> </text>
<polyline fill="none" stroke="black" points="4,-168.5 117,-168.5 "/>
<text text-anchor="start" x="12" y="-156.5" font-family="Helvetica,sans-Serif" font-size="10.00">+ Runtime_error()</text>
<text text-anchor="start" x="12" y="-145.5" font-family="Helvetica,sans-Serif" font-size="10.00">+ str()</text>
<text text-anchor="start" x="12" y="-134.5" font-family="Helvetica,sans-Serif" font-size="10.00">+ extra_str()</text>
<text text-anchor="start" x="12" y="-123.5" font-family="Helvetica,sans-Serif" font-size="10.00">+ ~Runtime_error()</text>
<text text-anchor="start" x="12" y="-112.5" font-family="Helvetica,sans-Serif" font-size="10.00">+ err_no()</text>
</a>
</g>
</g>
<!-- Node2&#45;&gt;Node1 -->
<g id="edge1" class="edge">
<title>Node2&#45;&gt;Node1</title>
<path fill="none" stroke="midnightblue" d="M60.5,-95.17C60.5,-86.11 60.5,-77.05 60.5,-68.83"/>
<polygon fill="none" stroke="midnightblue" points="57,-95.36 60.5,-105.36 64,-95.36 57,-95.36"/>
</g>
<!-- Node3 -->
<g id="node3" class="node">
<title>Node3</title>
<g id="a_node3"><a xlink:href="classL4_1_1Base__exception.html" target="_top" xlink:title="Base class for all exceptions, thrown by the L4Re framework.">
<polygon fill="white" stroke="black" points="0,-243.5 0,-322.5 121,-322.5 121,-243.5 0,-243.5"/>
<text text-anchor="middle" x="60.5" y="-310.5" font-family="Helvetica,sans-Serif" font-size="10.00">L4::Base_exception</text>
<polyline fill="none" stroke="black" points="0,-303.5 121,-303.5 "/>
<text text-anchor="middle" x="60.5" y="-291.5" font-family="Helvetica,sans-Serif" font-size="10.00"> </text>
<polyline fill="none" stroke="black" points="0,-284.5 121,-284.5 "/>
<text text-anchor="start" x="8" y="-272.5" font-family="Helvetica,sans-Serif" font-size="10.00">+ str()</text>
<text text-anchor="start" x="8" y="-261.5" font-family="Helvetica,sans-Serif" font-size="10.00">+ ~Base_exception()</text>
<text text-anchor="start" x="8" y="-250.5" font-family="Helvetica,sans-Serif" font-size="10.00"># Base_exception()</text>
</a>
</g>
</g>
<!-- Node3&#45;&gt;Node2 -->
<g id="edge2" class="edge">
<title>Node3&#45;&gt;Node2</title>
<path fill="none" stroke="midnightblue" d="M60.5,-233.41C60.5,-224.64 60.5,-215.49 60.5,-206.69"/>
<polygon fill="none" stroke="midnightblue" points="57,-233.48 60.5,-243.48 64,-233.48 57,-233.48"/>
</g>
<!-- Node4 -->
<g id="node4" class="node">
<title>Node4</title>
<g id="a_node4"><a xlink:href="classL4_1_1Exception__tracer.html" target="_top" xlink:title="Back&#45;trace support for exceptions.">
<polygon fill="white" stroke="black" points="2,-359.5 2,-438.5 119,-438.5 119,-359.5 2,-359.5"/>
<text text-anchor="middle" x="60.5" y="-426.5" font-family="Helvetica,sans-Serif" font-size="10.00">L4::Exception_tracer</text>
<polyline fill="none" stroke="black" points="2,-419.5 119,-419.5 "/>
<text text-anchor="middle" x="60.5" y="-407.5" font-family="Helvetica,sans-Serif" font-size="10.00"> </text>
<polyline fill="none" stroke="black" points="2,-400.5 119,-400.5 "/>
<text text-anchor="start" x="10" y="-388.5" font-family="Helvetica,sans-Serif" font-size="10.00">+ pc_array()</text>
<text text-anchor="start" x="10" y="-377.5" font-family="Helvetica,sans-Serif" font-size="10.00">+ frame_count()</text>
<text text-anchor="start" x="10" y="-366.5" font-family="Helvetica,sans-Serif" font-size="10.00"># Exception_tracer()</text>
</a>
</g>
</g>
<!-- Node4&#45;&gt;Node3 -->
<g id="edge3" class="edge">
<title>Node4&#45;&gt;Node3</title>
<path fill="none" stroke="midnightblue" d="M60.5,-349.15C60.5,-340.26 60.5,-331.1 60.5,-322.56"/>
<polygon fill="none" stroke="midnightblue" points="57,-349.4 60.5,-359.4 64,-349.4 57,-349.4"/>
</g>
</g>
</svg>
