<?xml version="1.0" encoding="UTF-8" standalone="no"?>
<!DOCTYPE svg PUBLIC "-//W3C//DTD SVG 1.1//EN"
 "http://www.w3.org/Graphics/SVG/1.1/DTD/svg11.dtd">
<!-- Generated by graphviz version 2.43.0 (0)
 -->
<!-- Title: L4virtio::Driver::Virtqueue::alloc_descriptor Pages: 1 -->
<svg width="327pt" height="186pt"
 viewBox="0.00 0.00 327.00 186.00" xmlns="http://www.w3.org/2000/svg" xmlns:xlink="http://www.w3.org/1999/xlink">
<g id="graph0" class="graph" transform="scale(1 1) rotate(0) translate(4 182)">
<title>L4virtio::Driver::Virtqueue::alloc_descriptor</title>
<polygon fill="white" stroke="transparent" points="-4,4 -4,-182 323,-182 323,4 -4,4"/>
<!-- Node1 -->
<g id="node1" class="node">
<title>Node1</title>
<g id="a_node1"><a xlink:title="Allocate and return an unused descriptor from the descriptor table.">
<polygon fill="#bfbfbf" stroke="black" points="176,-73.5 176,-103.5 319,-103.5 319,-73.5 176,-73.5"/>
<text text-anchor="start" x="184" y="-91.5" font-family="Helvetica,sans-Serif" font-size="10.00">L4virtio::Driver::Virtqueue</text>
<text text-anchor="middle" x="247.5" y="-80.5" font-family="Helvetica,sans-Serif" font-size="10.00">::alloc_descriptor</text>
</a>
</g>
</g>
<!-- Node2 -->
<g id="node2" class="node">
<title>Node2</title>
<g id="a_node2"><a xlink:href="classL4virtio_1_1Driver_1_1Block__device.html#a53ec612b1d207804102e34d51f6016cc" target="_top" xlink:title="Add a data block to a request that has already been set up.">
<polygon fill="white" stroke="black" points="9,-147.5 9,-177.5 131,-177.5 131,-147.5 9,-147.5"/>
<text text-anchor="start" x="17" y="-165.5" font-family="Helvetica,sans-Serif" font-size="10.00">L4virtio::Driver::Block</text>
<text text-anchor="middle" x="70" y="-154.5" font-family="Helvetica,sans-Serif" font-size="10.00">_device::add_block</text>
</a>
</g>
</g>
<!-- Node1&#45;&gt;Node2 -->
<g id="edge1" class="edge">
<title>Node1&#45;&gt;Node2</title>
<path fill="none" stroke="midnightblue" d="M207.48,-108.01C187.52,-117.69 162.7,-129.25 140,-138.5 132.48,-141.56 124.41,-144.59 116.53,-147.42"/>
<polygon fill="midnightblue" stroke="midnightblue" points="209.12,-111.11 216.57,-103.57 206.05,-104.82 209.12,-111.11"/>
</g>
<!-- Node3 -->
<g id="node3" class="node">
<title>Node3</title>
<g id="a_node3"><a xlink:href="classL4virtio_1_1Driver_1_1Block__device.html#a63f21e71556accc8c669ef80161ecd8e" target="_top" xlink:title="Process request synchronously.">
<polygon fill="white" stroke="black" points="0,-98.5 0,-128.5 140,-128.5 140,-98.5 0,-98.5"/>
<text text-anchor="start" x="8" y="-116.5" font-family="Helvetica,sans-Serif" font-size="10.00">L4virtio::Driver::Block</text>
<text text-anchor="middle" x="70" y="-105.5" font-family="Helvetica,sans-Serif" font-size="10.00">_device::process_request</text>
</a>
</g>
</g>
<!-- Node1&#45;&gt;Node3 -->
<g id="edge2" class="edge">
<title>Node1&#45;&gt;Node3</title>
<path fill="none" stroke="midnightblue" d="M165.83,-99.99C157.22,-101.22 148.51,-102.46 140.05,-103.66"/>
<polygon fill="midnightblue" stroke="midnightblue" points="166.47,-103.44 175.88,-98.56 165.48,-96.51 166.47,-103.44"/>
</g>
<!-- Node4 -->
<g id="node4" class="node">
<title>Node4</title>
<g id="a_node4"><a xlink:href="classL4virtio_1_1Driver_1_1Block__device.html#a2c2e9924abafe2eff34821b166c6c36f" target="_top" xlink:title="Process request asynchronously.">
<polygon fill="white" stroke="black" points="7.5,-49.5 7.5,-79.5 132.5,-79.5 132.5,-49.5 7.5,-49.5"/>
<text text-anchor="start" x="15.5" y="-67.5" font-family="Helvetica,sans-Serif" font-size="10.00">L4virtio::Driver::Block</text>
<text text-anchor="middle" x="70" y="-56.5" font-family="Helvetica,sans-Serif" font-size="10.00">_device::send_request</text>
</a>
</g>
</g>
<!-- Node1&#45;&gt;Node4 -->
<g id="edge3" class="edge">
<title>Node1&#45;&gt;Node4</title>
<path fill="none" stroke="midnightblue" d="M165.75,-77.46C154.65,-75.94 143.4,-74.4 132.72,-72.94"/>
<polygon fill="midnightblue" stroke="midnightblue" points="165.49,-80.95 175.88,-78.84 166.44,-74.02 165.49,-80.95"/>
</g>
<!-- Node5 -->
<g id="node5" class="node">
<title>Node5</title>
<g id="a_node5"><a xlink:href="classL4virtio_1_1Driver_1_1Block__device.html#afdd043c2adbca7fea5eb057f9aa4b483" target="_top" xlink:title="Start the setup of a new request.">
<polygon fill="white" stroke="black" points="7.5,-0.5 7.5,-30.5 132.5,-30.5 132.5,-0.5 7.5,-0.5"/>
<text text-anchor="start" x="15.5" y="-18.5" font-family="Helvetica,sans-Serif" font-size="10.00">L4virtio::Driver::Block</text>
<text text-anchor="middle" x="70" y="-7.5" font-family="Helvetica,sans-Serif" font-size="10.00">_device::start_request</text>
</a>
</g>
</g>
<!-- Node1&#45;&gt;Node5 -->
<g id="edge4" class="edge">
<title>Node1&#45;&gt;Node5</title>
<path fill="none" stroke="midnightblue" d="M205.35,-69.08C185.72,-60.03 161.8,-49.35 140,-40.5 131.74,-37.15 122.83,-33.76 114.26,-30.6"/>
<polygon fill="midnightblue" stroke="midnightblue" points="204.07,-72.34 214.62,-73.37 207.01,-65.99 204.07,-72.34"/>
</g>
</g>
</svg>
