<?xml version="1.0" encoding="UTF-8" standalone="no"?>
<!DOCTYPE svg PUBLIC "-//W3C//DTD SVG 1.1//EN"
 "http://www.w3.org/Graphics/SVG/1.1/DTD/svg11.dtd">
<!-- Generated by graphviz version 2.43.0 (0)
 -->
<!-- Title: L4Re::Vfs::File_system Pages: 1 -->
<svg width="192pt" height="132pt"
 viewBox="0.00 0.00 192.00 132.00" xmlns="http://www.w3.org/2000/svg" xmlns:xlink="http://www.w3.org/1999/xlink">
<g id="graph0" class="graph" transform="scale(1 1) rotate(0) translate(4 128)">
<title>L4Re::Vfs::File_system</title>
<polygon fill="white" stroke="transparent" points="-4,4 -4,-128 188,-128 188,4 -4,4"/>
<!-- Node1 -->
<g id="node1" class="node">
<title>Node1</title>
<g id="a_node1"><a xlink:title="Basic interface for an L4Re::Vfs file system.">
<polygon fill="#bfbfbf" stroke="black" points="0,-0.5 0,-123.5 127,-123.5 127,-0.5 0,-0.5"/>
<text text-anchor="middle" x="63.5" y="-111.5" font-family="Helvetica,sans-Serif" font-size="10.00">L4Re::Vfs::File_system</text>
<polyline fill="none" stroke="black" points="0,-104.5 127,-104.5 "/>
<text text-anchor="middle" x="63.5" y="-92.5" font-family="Helvetica,sans-Serif" font-size="10.00"> </text>
<polyline fill="none" stroke="black" points="0,-85.5 127,-85.5 "/>
<text text-anchor="start" x="8" y="-73.5" font-family="Helvetica,sans-Serif" font-size="10.00">+ File_system()</text>
<text text-anchor="start" x="8" y="-62.5" font-family="Helvetica,sans-Serif" font-size="10.00">+ type()</text>
<text text-anchor="start" x="8" y="-51.5" font-family="Helvetica,sans-Serif" font-size="10.00">+ mount()</text>
<text text-anchor="start" x="8" y="-40.5" font-family="Helvetica,sans-Serif" font-size="10.00">+ ~File_system()</text>
<text text-anchor="start" x="8" y="-29.5" font-family="Helvetica,sans-Serif" font-size="10.00">+ next()</text>
<text text-anchor="start" x="8" y="-18.5" font-family="Helvetica,sans-Serif" font-size="10.00">+ next()</text>
<text text-anchor="start" x="8" y="-7.5" font-family="Helvetica,sans-Serif" font-size="10.00">+ next()</text>
</a>
</g>
</g>
<!-- Node1&#45;&gt;Node1 -->
<g id="edge1" class="edge">
<title>Node1&#45;&gt;Node1</title>
<path fill="none" stroke="#404040" d="M127.06,-83.26C137.67,-80.29 145,-73.2 145,-62 145,-55.35 142.42,-50.15 138.1,-46.4"/>
<polygon fill="none" stroke="#404040" points="137.74,-46.22 130.57,-47.04 127.06,-40.74 134.22,-39.92 137.74,-46.22"/>
<text text-anchor="middle" x="164.5" y="-59.5" font-family="Helvetica,sans-Serif" font-size="10.00"> #_next</text>
</g>
</g>
</svg>
