<?xml version="1.0" encoding="UTF-8" standalone="no"?>
<!DOCTYPE svg PUBLIC "-//W3C//DTD SVG 1.1//EN"
 "http://www.w3.org/Graphics/SVG/1.1/DTD/svg11.dtd">
<!-- Generated by graphviz version 2.43.0 (0)
 -->
<!-- Title: L4virtio::Driver::Device::driver_connect Pages: 1 -->
<svg width="444pt" height="405pt"
 viewBox="0.00 0.00 444.00 404.50" xmlns="http://www.w3.org/2000/svg" xmlns:xlink="http://www.w3.org/1999/xlink">
<g id="graph0" class="graph" transform="scale(1 1) rotate(0) translate(4 400.5)">
<title>L4virtio::Driver::Device::driver_connect</title>
<polygon fill="white" stroke="transparent" points="-4,4 -4,-400.5 440,-400.5 440,4 -4,4"/>
<!-- Node1 -->
<g id="node1" class="node">
<title>Node1</title>
<g id="a_node1"><a xlink:title="Contacts the device and starts the initial handshake.">
<polygon fill="#bfbfbf" stroke="black" points="0,-164.5 0,-194.5 129,-194.5 129,-164.5 0,-164.5"/>
<text text-anchor="start" x="8" y="-182.5" font-family="Helvetica,sans-Serif" font-size="10.00">L4virtio::Driver::Device</text>
<text text-anchor="middle" x="64.5" y="-171.5" font-family="Helvetica,sans-Serif" font-size="10.00">::driver_connect</text>
</a>
</g>
</g>
<!-- Node2 -->
<g id="node2" class="node">
<title>Node2</title>
<g id="a_node2"><a xlink:href="classL4_1_1Icu.html#ada7541da586ea09b925b4d90d7dc357e" target="_top" xlink:title="Bind an interrupt line of an interrupt controller to an interrupt object.">
<polygon fill="white" stroke="black" points="193,-339 193,-358 268,-358 268,-339 193,-339"/>
<text text-anchor="middle" x="230.5" y="-346" font-family="Helvetica,sans-Serif" font-size="10.00">L4::Icu::bind</text>
</a>
</g>
</g>
<!-- Node1&#45;&gt;Node2 -->
<g id="edge1" class="edge">
<title>Node1&#45;&gt;Node2</title>
<path fill="none" stroke="midnightblue" d="M71.4,-194.83C83.9,-225.22 115.97,-293.31 165,-329.5 170.49,-333.55 176.84,-336.74 183.36,-339.26"/>
<polygon fill="midnightblue" stroke="midnightblue" points="182.37,-342.62 192.97,-342.48 184.6,-335.98 182.37,-342.62"/>
</g>
<!-- Node6 -->
<g id="node6" class="node">
<title>Node6</title>
<g id="a_node6"><a xlink:href="namespaceL4Re.html#a64b057254a760643ba67a9ed452fede8" target="_top" xlink:title="Check for valid capability or raise C++ exception.">
<polygon fill="white" stroke="black" points="190,-301 190,-320 271,-320 271,-301 190,-301"/>
<text text-anchor="middle" x="230.5" y="-308" font-family="Helvetica,sans-Serif" font-size="10.00">L4Re::chkcap</text>
</a>
</g>
</g>
<!-- Node1&#45;&gt;Node6 -->
<g id="edge5" class="edge">
<title>Node1&#45;&gt;Node6</title>
<path fill="none" stroke="midnightblue" d="M74.84,-194.62C90.5,-218.71 124.37,-265.72 165,-291.5 169.68,-294.47 174.85,-296.99 180.15,-299.13"/>
<polygon fill="midnightblue" stroke="midnightblue" points="179.19,-302.51 189.79,-302.58 181.55,-295.91 179.19,-302.51"/>
</g>
<!-- Node8 -->
<g id="node8" class="node">
<title>Node8</title>
<g id="a_node8"><a xlink:href="namespaceL4Re.html#a3f17984019f06676a7e3eecb41bbb0bb" target="_top" xlink:title="Generate C++ exception on error.">
<polygon fill="white" stroke="black" points="190.5,-263 190.5,-282 270.5,-282 270.5,-263 190.5,-263"/>
<text text-anchor="middle" x="230.5" y="-270" font-family="Helvetica,sans-Serif" font-size="10.00">L4Re::chksys</text>
</a>
</g>
</g>
<!-- Node1&#45;&gt;Node8 -->
<g id="edge7" class="edge">
<title>Node1&#45;&gt;Node8</title>
<path fill="none" stroke="midnightblue" d="M82.31,-194.58C101.22,-210.86 133.43,-236.59 165,-252.5 170.23,-255.14 175.88,-257.51 181.58,-259.61"/>
<polygon fill="midnightblue" stroke="midnightblue" points="180.56,-262.96 191.16,-262.91 182.84,-256.34 180.56,-262.96"/>
</g>
<!-- Node9 -->
<g id="node9" class="node">
<title>Node9</title>
<g id="a_node9"><a xlink:href="classL4virtio_1_1Device.html#a47e53efa92534451e46ecd4fef7060da" target="_top" xlink:title="Get the dataspace with the L4virtio configuration page.">
<polygon fill="white" stroke="black" points="165,-213.5 165,-243.5 296,-243.5 296,-213.5 165,-213.5"/>
<text text-anchor="start" x="173" y="-231.5" font-family="Helvetica,sans-Serif" font-size="10.00">L4virtio::Device::device</text>
<text text-anchor="middle" x="230.5" y="-220.5" font-family="Helvetica,sans-Serif" font-size="10.00">_config</text>
</a>
</g>
</g>
<!-- Node1&#45;&gt;Node9 -->
<g id="edge9" class="edge">
<title>Node1&#45;&gt;Node9</title>
<path fill="none" stroke="midnightblue" d="M116.04,-194.6C132.96,-199.66 151.98,-205.34 169.54,-210.58"/>
<polygon fill="midnightblue" stroke="midnightblue" points="168.54,-213.94 179.12,-213.45 170.54,-207.23 168.54,-213.94"/>
</g>
<!-- Node10 -->
<g id="node10" class="node">
<title>Node10</title>
<g id="a_node10"><a xlink:href="classL4virtio_1_1Device.html#a2c81a536513972d43f95394d88c39147" target="_top" xlink:title="Get the notification interrupt corresponding to the given index.">
<polygon fill="white" stroke="black" points="165,-164.5 165,-194.5 296,-194.5 296,-164.5 165,-164.5"/>
<text text-anchor="start" x="173" y="-182.5" font-family="Helvetica,sans-Serif" font-size="10.00">L4virtio::Device::device</text>
<text text-anchor="middle" x="230.5" y="-171.5" font-family="Helvetica,sans-Serif" font-size="10.00">_notification_irq</text>
</a>
</g>
</g>
<!-- Node1&#45;&gt;Node10 -->
<g id="edge10" class="edge">
<title>Node1&#45;&gt;Node10</title>
<path fill="none" stroke="midnightblue" d="M129.38,-179.5C137.69,-179.5 146.26,-179.5 154.73,-179.5"/>
<polygon fill="midnightblue" stroke="midnightblue" points="154.99,-183 164.99,-179.5 154.99,-176 154.99,-183"/>
</g>
<!-- Node11 -->
<g id="node11" class="node">
<title>Node11</title>
<g id="a_node11"><a xlink:href="classL4Re_1_1Env.html#a0e7a55ebbac0dedc9fa6859d32687d35" target="_top" xlink:title="Returns the initial environment for the current task.">
<polygon fill="white" stroke="black" points="186.5,-126 186.5,-145 274.5,-145 274.5,-126 186.5,-126"/>
<text text-anchor="middle" x="230.5" y="-133" font-family="Helvetica,sans-Serif" font-size="10.00">L4Re::Env::env</text>
</a>
</g>
</g>
<!-- Node1&#45;&gt;Node11 -->
<g id="edge11" class="edge">
<title>Node1&#45;&gt;Node11</title>
<path fill="none" stroke="midnightblue" d="M121.48,-164.48C141.87,-159.01 164.65,-152.9 184.01,-147.7"/>
<polygon fill="midnightblue" stroke="midnightblue" points="185.05,-151.05 193.8,-145.08 183.23,-144.29 185.05,-151.05"/>
</g>
<!-- Node12 -->
<g id="node12" class="node">
<title>Node12</title>
<g id="a_node12"><a xlink:href="group__l4__ipc__err__api.html#ga05c11e3e10b6c2aa941396ac2018899f" target="_top" xlink:title="Return error code of a system call return message tag or the tag label.">
<polygon fill="white" stroke="black" points="203.5,-88 203.5,-107 257.5,-107 257.5,-88 203.5,-88"/>
<text text-anchor="middle" x="230.5" y="-95" font-family="Helvetica,sans-Serif" font-size="10.00">l4_error</text>
</a>
</g>
</g>
<!-- Node1&#45;&gt;Node12 -->
<g id="edge12" class="edge">
<title>Node1&#45;&gt;Node12</title>
<path fill="none" stroke="midnightblue" d="M85.51,-164.47C104.96,-150.44 135.76,-129.75 165,-116.5 174.08,-112.39 184.27,-108.91 193.83,-106.09"/>
<polygon fill="midnightblue" stroke="midnightblue" points="194.79,-109.46 203.48,-103.4 192.91,-102.71 194.79,-109.46"/>
</g>
<!-- Node13 -->
<g id="node13" class="node">
<title>Node13</title>
<g id="a_node13"><a xlink:href="namespaceL4_1_1Ipc.html#a71861fba8b1db3d4fb5768ba65c89d94" target="_top" xlink:title="Make an L4::Ipc::Cap&lt;T&gt; for the given capability with L4_CAP_FPAGE_RW rights.">
<polygon fill="white" stroke="black" points="170,-50 170,-69 291,-69 291,-50 170,-50"/>
<text text-anchor="middle" x="230.5" y="-57" font-family="Helvetica,sans-Serif" font-size="10.00">L4::Ipc::make_cap_rw</text>
</a>
</g>
</g>
<!-- Node1&#45;&gt;Node13 -->
<g id="edge13" class="edge">
<title>Node1&#45;&gt;Node13</title>
<path fill="none" stroke="midnightblue" d="M76.28,-164.47C92.87,-142.4 126.78,-101.39 165,-78.5 168.61,-76.34 172.47,-74.41 176.46,-72.69"/>
<polygon fill="midnightblue" stroke="midnightblue" points="177.82,-75.92 185.89,-69.05 175.3,-69.39 177.82,-75.92"/>
</g>
<!-- Node14 -->
<g id="node14" class="node">
<title>Node14</title>
<g id="a_node14"><a xlink:href="classL4virtio_1_1Device.html#ab2e1044b9a29628c3ed7945b9dfe4cad" target="_top" xlink:title="Write the VIRTIO status register.">
<polygon fill="white" stroke="black" points="173.5,-0.5 173.5,-30.5 287.5,-30.5 287.5,-0.5 173.5,-0.5"/>
<text text-anchor="start" x="181.5" y="-18.5" font-family="Helvetica,sans-Serif" font-size="10.00">L4virtio::Device::set</text>
<text text-anchor="middle" x="230.5" y="-7.5" font-family="Helvetica,sans-Serif" font-size="10.00">_status</text>
</a>
</g>
</g>
<!-- Node1&#45;&gt;Node14 -->
<g id="edge14" class="edge">
<title>Node1&#45;&gt;Node14</title>
<path fill="none" stroke="midnightblue" d="M72.6,-164.33C86.52,-136.15 119.97,-75.42 165,-40.5 167.31,-38.71 169.77,-37.03 172.32,-35.46"/>
<polygon fill="midnightblue" stroke="midnightblue" points="174.22,-38.41 181.3,-30.53 170.85,-32.27 174.22,-38.41"/>
</g>
<!-- Node3 -->
<g id="node3" class="node">
<title>Node3</title>
<g id="a_node3"><a xlink:href="classL4_1_1Cap__base.html#a90ff089ca2442b128c2b2b0e1c22c6d7" target="_top" xlink:title="Return capability selector.">
<polygon fill="white" stroke="black" points="332,-377 332,-396 436,-396 436,-377 332,-377"/>
<text text-anchor="middle" x="384" y="-384" font-family="Helvetica,sans-Serif" font-size="10.00">L4::Cap_base::cap</text>
</a>
</g>
</g>
<!-- Node2&#45;&gt;Node3 -->
<g id="edge2" class="edge">
<title>Node2&#45;&gt;Node3</title>
<path fill="none" stroke="midnightblue" d="M268.17,-357.7C288.28,-362.74 313.45,-369.06 335.1,-374.48"/>
<polygon fill="midnightblue" stroke="midnightblue" points="334.53,-377.95 345.08,-376.99 336.23,-371.16 334.53,-377.95"/>
</g>
<!-- Node4 -->
<g id="node4" class="node">
<title>Node4</title>
<g id="a_node4"><a xlink:href="classL4_1_1Kobject.html#a4f2117ae76762f4084e6a1adb915863c" target="_top" xlink:title="Return capability selector.">
<polygon fill="white" stroke="black" points="337.5,-339 337.5,-358 430.5,-358 430.5,-339 337.5,-339"/>
<text text-anchor="middle" x="384" y="-346" font-family="Helvetica,sans-Serif" font-size="10.00">L4::Kobject::cap</text>
</a>
</g>
</g>
<!-- Node2&#45;&gt;Node4 -->
<g id="edge3" class="edge">
<title>Node2&#45;&gt;Node4</title>
<path fill="none" stroke="midnightblue" d="M268.17,-348.5C285.92,-348.5 307.61,-348.5 327.34,-348.5"/>
<polygon fill="midnightblue" stroke="midnightblue" points="327.45,-352 337.45,-348.5 327.45,-345 327.45,-352"/>
</g>
<!-- Node5 -->
<g id="node5" class="node">
<title>Node5</title>
<g id="a_node5"><a xlink:href="group__l4__icu__api.html#ga29217a67f405c5d860002dd902bf71e4" target="_top" xlink:title="Bind an interrupt line of an interrupt controller to an interrupt object.">
<polygon fill="white" stroke="black" points="342.5,-301 342.5,-320 425.5,-320 425.5,-301 342.5,-301"/>
<text text-anchor="middle" x="384" y="-308" font-family="Helvetica,sans-Serif" font-size="10.00">l4_icu_bind_u</text>
</a>
</g>
</g>
<!-- Node2&#45;&gt;Node5 -->
<g id="edge4" class="edge">
<title>Node2&#45;&gt;Node5</title>
<path fill="none" stroke="midnightblue" d="M268.17,-339.3C288.28,-334.26 313.45,-327.94 335.1,-322.52"/>
<polygon fill="midnightblue" stroke="midnightblue" points="336.23,-325.84 345.08,-320.01 334.53,-319.05 336.23,-325.84"/>
</g>
<!-- Node7 -->
<g id="node7" class="node">
<title>Node7</title>
<g id="a_node7"><a xlink:href="namespaceL4Re.html#ae27ac6f274f4ad1267d0d1c0c033c00b" target="_top" xlink:title="Generate C++ exception.">
<polygon fill="white" stroke="black" points="332.5,-263 332.5,-282 435.5,-282 435.5,-263 332.5,-263"/>
<text text-anchor="middle" x="384" y="-270" font-family="Helvetica,sans-Serif" font-size="10.00">L4Re::throw_error</text>
</a>
</g>
</g>
<!-- Node6&#45;&gt;Node7 -->
<g id="edge6" class="edge">
<title>Node6&#45;&gt;Node7</title>
<path fill="none" stroke="midnightblue" d="M269.73,-300.91C289.63,-295.92 314.16,-289.77 335.29,-284.47"/>
<polygon fill="midnightblue" stroke="midnightblue" points="336.2,-287.85 345.05,-282.02 334.49,-281.06 336.2,-287.85"/>
</g>
<!-- Node8&#45;&gt;Node7 -->
<g id="edge8" class="edge">
<title>Node8&#45;&gt;Node7</title>
<path fill="none" stroke="midnightblue" d="M270.52,-272.5C286.27,-272.5 304.83,-272.5 322.27,-272.5"/>
<polygon fill="midnightblue" stroke="midnightblue" points="322.39,-276 332.39,-272.5 322.39,-269 322.39,-276"/>
</g>
</g>
</svg>
