<?xml version="1.0" encoding="UTF-8" standalone="no"?>
<!DOCTYPE svg PUBLIC "-//W3C//DTD SVG 1.1//EN"
 "http://www.w3.org/Graphics/SVG/1.1/DTD/svg11.dtd">
<!-- Generated by graphviz version 2.43.0 (0)
 -->
<!-- Title: L4::Base_exception Pages: 1 -->
<svg width="129pt" height="204pt"
 viewBox="0.00 0.00 129.00 204.00" xmlns="http://www.w3.org/2000/svg" xmlns:xlink="http://www.w3.org/1999/xlink">
<g id="graph0" class="graph" transform="scale(1 1) rotate(0) translate(4 200)">
<title>L4::Base_exception</title>
<polygon fill="white" stroke="transparent" points="-4,4 -4,-200 125,-200 125,4 -4,4"/>
<!-- Node1 -->
<g id="node1" class="node">
<title>Node1</title>
<g id="a_node1"><a xlink:title="Base class for all exceptions, thrown by the L4Re framework.">
<polygon fill="#bfbfbf" stroke="black" points="0,-0.5 0,-79.5 121,-79.5 121,-0.5 0,-0.5"/>
<text text-anchor="middle" x="60.5" y="-67.5" font-family="Helvetica,sans-Serif" font-size="10.00">L4::Base_exception</text>
<polyline fill="none" stroke="black" points="0,-60.5 121,-60.5 "/>
<text text-anchor="middle" x="60.5" y="-48.5" font-family="Helvetica,sans-Serif" font-size="10.00"> </text>
<polyline fill="none" stroke="black" points="0,-41.5 121,-41.5 "/>
<text text-anchor="start" x="8" y="-29.5" font-family="Helvetica,sans-Serif" font-size="10.00">+ str()</text>
<text text-anchor="start" x="8" y="-18.5" font-family="Helvetica,sans-Serif" font-size="10.00">+ ~Base_exception()</text>
<text text-anchor="start" x="8" y="-7.5" font-family="Helvetica,sans-Serif" font-size="10.00"># Base_exception()</text>
</a>
</g>
</g>
<!-- Node2 -->
<g id="node2" class="node">
<title>Node2</title>
<g id="a_node2"><a xlink:href="classL4_1_1Exception__tracer.html" target="_top" xlink:title="Back&#45;trace support for exceptions.">
<polygon fill="white" stroke="black" points="2,-116.5 2,-195.5 119,-195.5 119,-116.5 2,-116.5"/>
<text text-anchor="middle" x="60.5" y="-183.5" font-family="Helvetica,sans-Serif" font-size="10.00">L4::Exception_tracer</text>
<polyline fill="none" stroke="black" points="2,-176.5 119,-176.5 "/>
<text text-anchor="middle" x="60.5" y="-164.5" font-family="Helvetica,sans-Serif" font-size="10.00"> </text>
<polyline fill="none" stroke="black" points="2,-157.5 119,-157.5 "/>
<text text-anchor="start" x="10" y="-145.5" font-family="Helvetica,sans-Serif" font-size="10.00">+ pc_array()</text>
<text text-anchor="start" x="10" y="-134.5" font-family="Helvetica,sans-Serif" font-size="10.00">+ frame_count()</text>
<text text-anchor="start" x="10" y="-123.5" font-family="Helvetica,sans-Serif" font-size="10.00"># Exception_tracer()</text>
</a>
</g>
</g>
<!-- Node2&#45;&gt;Node1 -->
<g id="edge1" class="edge">
<title>Node2&#45;&gt;Node1</title>
<path fill="none" stroke="midnightblue" d="M60.5,-106.15C60.5,-97.26 60.5,-88.1 60.5,-79.56"/>
<polygon fill="none" stroke="midnightblue" points="57,-106.4 60.5,-116.4 64,-106.4 57,-106.4"/>
</g>
</g>
</svg>
