<?xml version="1.0" encoding="UTF-8" standalone="no"?>
<!DOCTYPE svg PUBLIC "-//W3C//DTD SVG 1.1//EN"
 "http://www.w3.org/Graphics/SVG/1.1/DTD/svg11.dtd">
<!-- Generated by graphviz version 2.43.0 (0)
 -->
<!-- Title: L4virtio::Virtqueue::desc_size Pages: 1 -->
<svg width="445pt" height="88pt"
 viewBox="0.00 0.00 445.00 88.00" xmlns="http://www.w3.org/2000/svg" xmlns:xlink="http://www.w3.org/1999/xlink">
<g id="graph0" class="graph" transform="scale(1 1) rotate(0) translate(4 84)">
<title>L4virtio::Virtqueue::desc_size</title>
<polygon fill="white" stroke="transparent" points="-4,4 -4,-84 441,-84 441,4 -4,4"/>
<!-- Node1 -->
<g id="node1" class="node">
<title>Node1</title>
<g id="a_node1"><a xlink:title="Calculate the size of the descriptor table for num entries.">
<polygon fill="#bfbfbf" stroke="black" points="330,-24.5 330,-54.5 437,-54.5 437,-24.5 330,-24.5"/>
<text text-anchor="start" x="338" y="-42.5" font-family="Helvetica,sans-Serif" font-size="10.00">L4virtio::Virtqueue</text>
<text text-anchor="middle" x="383.5" y="-31.5" font-family="Helvetica,sans-Serif" font-size="10.00">::desc_size</text>
</a>
</g>
</g>
<!-- Node2 -->
<g id="node2" class="node">
<title>Node2</title>
<g id="a_node2"><a xlink:href="classL4virtio_1_1Svr_1_1Device__t.html#ab906b4cc61026fd815a8056f07bef10e" target="_top" xlink:title="Enable/disable the specified queue.">
<polygon fill="white" stroke="black" points="179,-49.5 179,-79.5 294,-79.5 294,-49.5 179,-49.5"/>
<text text-anchor="start" x="187" y="-67.5" font-family="Helvetica,sans-Serif" font-size="10.00">L4virtio::Svr::Device</text>
<text text-anchor="middle" x="236.5" y="-56.5" font-family="Helvetica,sans-Serif" font-size="10.00">_t::setup_queue</text>
</a>
</g>
</g>
<!-- Node1&#45;&gt;Node2 -->
<g id="edge1" class="edge">
<title>Node1&#45;&gt;Node2</title>
<path fill="none" stroke="midnightblue" d="M319.62,-50.34C311.23,-51.79 302.66,-53.27 294.38,-54.69"/>
<polygon fill="midnightblue" stroke="midnightblue" points="320.48,-53.74 329.74,-48.6 319.29,-46.85 320.48,-53.74"/>
</g>
<!-- Node3 -->
<g id="node3" class="node">
<title>Node3</title>
<g id="a_node3"><a xlink:href="classL4virtio_1_1Virtqueue.html#a437c0ed2eb83201cc69c41d011503036" target="_top" xlink:title="Enable this queue.">
<polygon fill="white" stroke="black" points="183,-0.5 183,-30.5 290,-30.5 290,-0.5 183,-0.5"/>
<text text-anchor="start" x="191" y="-18.5" font-family="Helvetica,sans-Serif" font-size="10.00">L4virtio::Virtqueue</text>
<text text-anchor="middle" x="236.5" y="-7.5" font-family="Helvetica,sans-Serif" font-size="10.00">::setup_simple</text>
</a>
</g>
</g>
<!-- Node1&#45;&gt;Node3 -->
<g id="edge2" class="edge">
<title>Node1&#45;&gt;Node3</title>
<path fill="none" stroke="midnightblue" d="M319.7,-29.11C309.95,-27.49 299.96,-25.84 290.46,-24.27"/>
<polygon fill="midnightblue" stroke="midnightblue" points="319.3,-32.59 329.74,-30.77 320.45,-25.68 319.3,-32.59"/>
</g>
<!-- Node4 -->
<g id="node4" class="node">
<title>Node4</title>
<g id="a_node4"><a xlink:href="classL4virtio_1_1Driver_1_1Virtqueue.html#a285bae271e6acfe9c5bfa3df388c6b17" target="_top" xlink:title="Initialize this virtqueue.">
<polygon fill="white" stroke="black" points="0,-0.5 0,-30.5 143,-30.5 143,-0.5 0,-0.5"/>
<text text-anchor="start" x="8" y="-18.5" font-family="Helvetica,sans-Serif" font-size="10.00">L4virtio::Driver::Virtqueue</text>
<text text-anchor="middle" x="71.5" y="-7.5" font-family="Helvetica,sans-Serif" font-size="10.00">::init_queue</text>
</a>
</g>
</g>
<!-- Node3&#45;&gt;Node4 -->
<g id="edge3" class="edge">
<title>Node3&#45;&gt;Node4</title>
<path fill="none" stroke="midnightblue" d="M172.39,-15.5C162.84,-15.5 152.94,-15.5 143.24,-15.5"/>
<polygon fill="midnightblue" stroke="midnightblue" points="172.58,-19 182.58,-15.5 172.58,-12 172.58,-19"/>
</g>
</g>
</svg>
