<?xml version="1.0" encoding="UTF-8" standalone="no"?>
<!DOCTYPE svg PUBLIC "-//W3C//DTD SVG 1.1//EN"
 "http://www.w3.org/Graphics/SVG/1.1/DTD/svg11.dtd">
<!-- Generated by graphviz version 2.43.0 (0)
 -->
<!-- Title: cxx::Bitfield&lt; T, LSB, MSB &gt;::Value_base&lt; TT &gt; Pages: 1 -->
<svg width="322pt" height="281pt"
 viewBox="0.00 0.00 321.50 281.00" xmlns="http://www.w3.org/2000/svg" xmlns:xlink="http://www.w3.org/1999/xlink">
<g id="graph0" class="graph" transform="scale(1 1) rotate(0) translate(4 277)">
<title>cxx::Bitfield&lt; T, LSB, MSB &gt;::Value_base&lt; TT &gt;</title>
<polygon fill="white" stroke="transparent" points="-4,4 -4,-277 317.5,-277 317.5,4 -4,4"/>
<!-- Node1 -->
<g id="node1" class="node">
<title>Node1</title>
<g id="a_node1"><a xlink:title="Internal helper type.">
<polygon fill="#bfbfbf" stroke="black" points="71,-138.5 71,-272.5 220,-272.5 220,-138.5 71,-138.5"/>
<text text-anchor="start" x="79" y="-260.5" font-family="Helvetica,sans-Serif" font-size="10.00">cxx::Bitfield&lt; T, LSB,</text>
<text text-anchor="middle" x="145.5" y="-249.5" font-family="Helvetica,sans-Serif" font-size="10.00"> MSB &gt;::Value_base&lt; TT &gt;</text>
<polyline fill="none" stroke="black" points="71,-242.5 220,-242.5 "/>
<text text-anchor="middle" x="145.5" y="-230.5" font-family="Helvetica,sans-Serif" font-size="10.00"> </text>
<polyline fill="none" stroke="black" points="71,-223.5 220,-223.5 "/>
<text text-anchor="start" x="79" y="-211.5" font-family="Helvetica,sans-Serif" font-size="10.00">+ Value_base()</text>
<text text-anchor="start" x="79" y="-200.5" font-family="Helvetica,sans-Serif" font-size="10.00">+ get()</text>
<text text-anchor="start" x="79" y="-189.5" font-family="Helvetica,sans-Serif" font-size="10.00">+ get_unshifted()</text>
<text text-anchor="start" x="79" y="-178.5" font-family="Helvetica,sans-Serif" font-size="10.00">+ set()</text>
<text text-anchor="start" x="79" y="-167.5" font-family="Helvetica,sans-Serif" font-size="10.00">+ set_dirty()</text>
<text text-anchor="start" x="79" y="-156.5" font-family="Helvetica,sans-Serif" font-size="10.00">+ set_unshifted()</text>
<text text-anchor="start" x="79" y="-145.5" font-family="Helvetica,sans-Serif" font-size="10.00">+ set_unshifted_dirty()</text>
</a>
</g>
</g>
<!-- Node2 -->
<g id="node2" class="node">
<title>Node2</title>
<g id="a_node2"><a xlink:href="classcxx_1_1Bitfield_1_1Value.html" target="_top" xlink:title="Internal helper type.">
<polygon fill="white" stroke="black" points="0,-0.5 0,-101.5 125,-101.5 125,-0.5 0,-0.5"/>
<text text-anchor="start" x="8" y="-89.5" font-family="Helvetica,sans-Serif" font-size="10.00">cxx::Bitfield&lt; T, LSB,</text>
<text text-anchor="middle" x="62.5" y="-78.5" font-family="Helvetica,sans-Serif" font-size="10.00"> MSB &gt;::Value&lt; TT &gt;</text>
<polyline fill="none" stroke="black" points="0,-71.5 125,-71.5 "/>
<text text-anchor="middle" x="62.5" y="-59.5" font-family="Helvetica,sans-Serif" font-size="10.00"> </text>
<polyline fill="none" stroke="black" points="0,-52.5 125,-52.5 "/>
<text text-anchor="start" x="8" y="-40.5" font-family="Helvetica,sans-Serif" font-size="10.00">+ Value()</text>
<text text-anchor="start" x="8" y="-29.5" font-family="Helvetica,sans-Serif" font-size="10.00">+ operator Bits_type()</text>
<text text-anchor="start" x="8" y="-18.5" font-family="Helvetica,sans-Serif" font-size="10.00">+ operator=()</text>
<text text-anchor="start" x="8" y="-7.5" font-family="Helvetica,sans-Serif" font-size="10.00">+ operator=()</text>
</a>
</g>
</g>
<!-- Node1&#45;&gt;Node2 -->
<g id="edge1" class="edge">
<title>Node1&#45;&gt;Node2</title>
<path fill="none" stroke="midnightblue" d="M104.65,-129.45C99.5,-119.98 94.33,-110.48 89.47,-101.55"/>
<polygon fill="none" stroke="midnightblue" points="101.72,-131.39 109.58,-138.5 107.87,-128.04 101.72,-131.39"/>
</g>
<!-- Node3 -->
<g id="node3" class="node">
<title>Node3</title>
<g id="a_node3"><a xlink:href="classcxx_1_1Bitfield_1_1Value__unshifted.html" target="_top" xlink:title="Internal helper type.">
<polygon fill="white" stroke="black" points="143.5,-0.5 143.5,-101.5 313.5,-101.5 313.5,-0.5 143.5,-0.5"/>
<text text-anchor="start" x="151.5" y="-89.5" font-family="Helvetica,sans-Serif" font-size="10.00">cxx::Bitfield&lt; T, LSB,</text>
<text text-anchor="middle" x="228.5" y="-78.5" font-family="Helvetica,sans-Serif" font-size="10.00"> MSB &gt;::Value_unshifted&lt; TT &gt;</text>
<polyline fill="none" stroke="black" points="143.5,-71.5 313.5,-71.5 "/>
<text text-anchor="middle" x="228.5" y="-59.5" font-family="Helvetica,sans-Serif" font-size="10.00"> </text>
<polyline fill="none" stroke="black" points="143.5,-52.5 313.5,-52.5 "/>
<text text-anchor="start" x="151.5" y="-40.5" font-family="Helvetica,sans-Serif" font-size="10.00">+ Value_unshifted()</text>
<text text-anchor="start" x="151.5" y="-29.5" font-family="Helvetica,sans-Serif" font-size="10.00">+ operator Shift_type()</text>
<text text-anchor="start" x="151.5" y="-18.5" font-family="Helvetica,sans-Serif" font-size="10.00">+ operator=()</text>
<text text-anchor="start" x="151.5" y="-7.5" font-family="Helvetica,sans-Serif" font-size="10.00">+ operator=()</text>
</a>
</g>
</g>
<!-- Node1&#45;&gt;Node3 -->
<g id="edge2" class="edge">
<title>Node1&#45;&gt;Node3</title>
<path fill="none" stroke="midnightblue" d="M186.35,-129.45C191.5,-119.98 196.67,-110.48 201.53,-101.55"/>
<polygon fill="none" stroke="midnightblue" points="183.13,-128.04 181.42,-138.5 189.28,-131.39 183.13,-128.04"/>
</g>
</g>
</svg>
