<?xml version="1.0" encoding="UTF-8" standalone="no"?>
<!DOCTYPE svg PUBLIC "-//W3C//DTD SVG 1.1//EN"
 "http://www.w3.org/Graphics/SVG/1.1/DTD/svg11.dtd">
<!-- Generated by graphviz version 2.43.0 (0)
 -->
<!-- Title: L4::Icu::Info Pages: 1 -->
<svg width="109pt" height="182pt"
 viewBox="0.00 0.00 109.00 182.00" xmlns="http://www.w3.org/2000/svg" xmlns:xlink="http://www.w3.org/1999/xlink">
<g id="graph0" class="graph" transform="scale(1 1) rotate(0) translate(4 178)">
<title>L4::Icu::Info</title>
<polygon fill="white" stroke="transparent" points="-4,4 -4,-178 105,-178 105,4 -4,4"/>
<!-- Node1 -->
<g id="node1" class="node">
<title>Node1</title>
<g id="a_node1"><a xlink:title="This class encapsulates information about an ICU.">
<polygon fill="#bfbfbf" stroke="black" points="0,-0.5 0,-57.5 101,-57.5 101,-0.5 0,-0.5"/>
<text text-anchor="middle" x="50.5" y="-45.5" font-family="Helvetica,sans-Serif" font-size="10.00">L4::Icu::Info</text>
<polyline fill="none" stroke="black" points="0,-38.5 101,-38.5 "/>
<text text-anchor="middle" x="50.5" y="-26.5" font-family="Helvetica,sans-Serif" font-size="10.00"> </text>
<polyline fill="none" stroke="black" points="0,-19.5 101,-19.5 "/>
<text text-anchor="start" x="8" y="-7.5" font-family="Helvetica,sans-Serif" font-size="10.00">+ supports_msi()</text>
</a>
</g>
</g>
<!-- Node2 -->
<g id="node2" class="node">
<title>Node2</title>
<g id="a_node2"><a xlink:href="structl4__icu__info__t.html" target="_top" xlink:title="Info structure for an ICU.">
<polygon fill="white" stroke="black" points="11.5,-94.5 11.5,-173.5 89.5,-173.5 89.5,-94.5 11.5,-94.5"/>
<text text-anchor="middle" x="50.5" y="-161.5" font-family="Helvetica,sans-Serif" font-size="10.00">l4_icu_info_t</text>
<polyline fill="none" stroke="black" points="11.5,-154.5 89.5,-154.5 "/>
<text text-anchor="start" x="19.5" y="-142.5" font-family="Helvetica,sans-Serif" font-size="10.00">+ features</text>
<text text-anchor="start" x="19.5" y="-131.5" font-family="Helvetica,sans-Serif" font-size="10.00">+ nr_irqs</text>
<text text-anchor="start" x="19.5" y="-120.5" font-family="Helvetica,sans-Serif" font-size="10.00">+ nr_msis</text>
<polyline fill="none" stroke="black" points="11.5,-113.5 89.5,-113.5 "/>
<text text-anchor="middle" x="50.5" y="-101.5" font-family="Helvetica,sans-Serif" font-size="10.00"> </text>
</a>
</g>
</g>
<!-- Node2&#45;&gt;Node1 -->
<g id="edge1" class="edge">
<title>Node2&#45;&gt;Node1</title>
<path fill="none" stroke="midnightblue" d="M50.5,-84.16C50.5,-75.04 50.5,-65.81 50.5,-57.61"/>
<polygon fill="none" stroke="midnightblue" points="47,-84.35 50.5,-94.35 54,-84.35 47,-84.35"/>
</g>
</g>
</svg>
