<?xml version="1.0" encoding="UTF-8" standalone="no"?>
<!DOCTYPE svg PUBLIC "-//W3C//DTD SVG 1.1//EN"
 "http://www.w3.org/Graphics/SVG/1.1/DTD/svg11.dtd">
<!-- Generated by graphviz version 2.43.0 (0)
 -->
<!-- Title: L4Re::Dataspace Pages: 1 -->
<svg width="326pt" height="753pt"
 viewBox="0.00 0.00 326.00 753.00" xmlns="http://www.w3.org/2000/svg" xmlns:xlink="http://www.w3.org/1999/xlink">
<g id="graph0" class="graph" transform="scale(1 1) rotate(0) translate(4 749)">
<title>L4Re::Dataspace</title>
<polygon fill="white" stroke="transparent" points="-4,4 -4,-749 322,-749 322,4 -4,4"/>
<!-- Node1 -->
<g id="node1" class="node">
<title>Node1</title>
<g id="a_node1"><a xlink:title="Interface for memory&#45;like objects.">
<polygon fill="#bfbfbf" stroke="black" points="63,-322.5 63,-456.5 161,-456.5 161,-322.5 63,-322.5"/>
<text text-anchor="middle" x="112" y="-444.5" font-family="Helvetica,sans-Serif" font-size="10.00">L4Re::Dataspace</text>
<polyline fill="none" stroke="black" points="63,-437.5 161,-437.5 "/>
<text text-anchor="middle" x="112" y="-425.5" font-family="Helvetica,sans-Serif" font-size="10.00"> </text>
<polyline fill="none" stroke="black" points="63,-418.5 161,-418.5 "/>
<text text-anchor="start" x="71" y="-406.5" font-family="Helvetica,sans-Serif" font-size="10.00">+ map()</text>
<text text-anchor="start" x="71" y="-395.5" font-family="Helvetica,sans-Serif" font-size="10.00">+ map_region()</text>
<text text-anchor="start" x="71" y="-384.5" font-family="Helvetica,sans-Serif" font-size="10.00">+ clear()</text>
<text text-anchor="start" x="71" y="-373.5" font-family="Helvetica,sans-Serif" font-size="10.00">+ allocate()</text>
<text text-anchor="start" x="71" y="-362.5" font-family="Helvetica,sans-Serif" font-size="10.00">+ copy_in()</text>
<text text-anchor="start" x="71" y="-351.5" font-family="Helvetica,sans-Serif" font-size="10.00">+ size()</text>
<text text-anchor="start" x="71" y="-340.5" font-family="Helvetica,sans-Serif" font-size="10.00">+ flags()</text>
<text text-anchor="start" x="71" y="-329.5" font-family="Helvetica,sans-Serif" font-size="10.00">+ info()</text>
</a>
</g>
</g>
<!-- Node5 -->
<g id="node5" class="node">
<title>Node5</title>
<g id="a_node5"><a xlink:href="structL4_1_1Kobject__3t.html" target="_top" xlink:title=" ">
<polygon fill="white" stroke="black" points="34.5,-161.5 34.5,-284.5 189.5,-284.5 189.5,-161.5 34.5,-161.5"/>
<text text-anchor="start" x="42.5" y="-272.5" font-family="Helvetica,sans-Serif" font-size="10.00">L4::Kobject_3t&lt; Vbus,</text>
<text text-anchor="start" x="42.5" y="-261.5" font-family="Helvetica,sans-Serif" font-size="10.00"> L4Re::Dataspace, L4Re</text>
<text text-anchor="middle" x="112" y="-250.5" font-family="Helvetica,sans-Serif" font-size="10.00">::Inhibitor, L4Re::Event &gt;</text>
<polyline fill="none" stroke="black" points="34.5,-243.5 189.5,-243.5 "/>
<text text-anchor="middle" x="112" y="-231.5" font-family="Helvetica,sans-Serif" font-size="10.00"> </text>
<polyline fill="none" stroke="black" points="34.5,-224.5 189.5,-224.5 "/>
<text text-anchor="start" x="42.5" y="-212.5" font-family="Helvetica,sans-Serif" font-size="10.00">+ operator Kobject const &amp;()</text>
<text text-anchor="start" x="42.5" y="-201.5" font-family="Helvetica,sans-Serif" font-size="10.00">+ dec_refcnt()</text>
<text text-anchor="start" x="42.5" y="-190.5" font-family="Helvetica,sans-Serif" font-size="10.00"># cap()</text>
<text text-anchor="start" x="42.5" y="-179.5" font-family="Helvetica,sans-Serif" font-size="10.00"># c()</text>
<text text-anchor="start" x="42.5" y="-168.5" font-family="Helvetica,sans-Serif" font-size="10.00"># __check_protocols__()</text>
</a>
</g>
</g>
<!-- Node1&#45;&gt;Node5 -->
<g id="edge4" class="edge">
<title>Node1&#45;&gt;Node5</title>
<path fill="none" stroke="midnightblue" d="M112,-311.81C112,-302.67 112,-293.44 112,-284.57"/>
<polygon fill="none" stroke="midnightblue" points="108.5,-312.07 112,-322.07 115.5,-312.07 108.5,-312.07"/>
</g>
<!-- Node2 -->
<g id="node2" class="node">
<title>Node2</title>
<g id="a_node2"><a xlink:href="classL4_1_1Kobject__t.html" target="_top" xlink:title=" ">
<polygon fill="white" stroke="black" points="38,-494.5 38,-595.5 186,-595.5 186,-494.5 38,-494.5"/>
<text text-anchor="start" x="46" y="-583.5" font-family="Helvetica,sans-Serif" font-size="10.00">L4::Kobject_t&lt; Dataspace,</text>
<text text-anchor="start" x="46" y="-572.5" font-family="Helvetica,sans-Serif" font-size="10.00"> L4::Kobject, L4RE_PROTO</text>
<text text-anchor="start" x="46" y="-561.5" font-family="Helvetica,sans-Serif" font-size="10.00">_DATASPACE, L4::Type_info</text>
<text text-anchor="middle" x="112" y="-550.5" font-family="Helvetica,sans-Serif" font-size="10.00">::Demand_t&lt; 1 &gt; &gt;</text>
<polyline fill="none" stroke="black" points="38,-543.5 186,-543.5 "/>
<text text-anchor="middle" x="112" y="-531.5" font-family="Helvetica,sans-Serif" font-size="10.00"> </text>
<polyline fill="none" stroke="black" points="38,-524.5 186,-524.5 "/>
<text text-anchor="start" x="46" y="-512.5" font-family="Helvetica,sans-Serif" font-size="10.00"># c()</text>
<text text-anchor="start" x="46" y="-501.5" font-family="Helvetica,sans-Serif" font-size="10.00"># __check_protocols__()</text>
</a>
</g>
</g>
<!-- Node2&#45;&gt;Node1 -->
<g id="edge1" class="edge">
<title>Node2&#45;&gt;Node1</title>
<path fill="none" stroke="midnightblue" d="M112,-484.13C112,-475.09 112,-465.73 112,-456.57"/>
<polygon fill="none" stroke="midnightblue" points="108.5,-484.16 112,-494.16 115.5,-484.16 108.5,-484.16"/>
</g>
<!-- Node3 -->
<g id="node3" class="node">
<title>Node3</title>
<g id="a_node3"><a xlink:href="classL4_1_1Kobject.html" target="_top" xlink:title="Base class for all kinds of kernel objects and remote objects, referenced by capabilities.">
<polygon fill="white" stroke="black" points="0,-671 0,-739 86,-739 86,-671 0,-671"/>
<text text-anchor="middle" x="43" y="-727" font-family="Helvetica,sans-Serif" font-size="10.00">L4::Kobject</text>
<polyline fill="none" stroke="black" points="0,-720 86,-720 "/>
<text text-anchor="middle" x="43" y="-708" font-family="Helvetica,sans-Serif" font-size="10.00"> </text>
<polyline fill="none" stroke="black" points="0,-701 86,-701 "/>
<text text-anchor="start" x="8" y="-689" font-family="Helvetica,sans-Serif" font-size="10.00">+ dec_refcnt()</text>
<text text-anchor="start" x="8" y="-678" font-family="Helvetica,sans-Serif" font-size="10.00"># cap()</text>
</a>
</g>
</g>
<!-- Node3&#45;&gt;Node2 -->
<g id="edge2" class="edge">
<title>Node3&#45;&gt;Node2</title>
<path fill="none" stroke="midnightblue" d="M61.53,-661.56C70.41,-641.24 81.09,-616.77 90.34,-595.59"/>
<polygon fill="none" stroke="midnightblue" points="58.26,-660.31 57.46,-670.88 64.67,-663.11 58.26,-660.31"/>
</g>
<!-- Node4 -->
<g id="node4" class="node">
<title>Node4</title>
<g id="a_node4"><a xlink:href="classL4_1_1Kobject__t.html" target="_top" xlink:title="Helper class to create an L4Re interface class that is derived from a single base class.">
<polygon fill="white" stroke="black" points="104,-665.5 104,-744.5 260,-744.5 260,-665.5 104,-665.5"/>
<text text-anchor="start" x="112" y="-732.5" font-family="Helvetica,sans-Serif" font-size="10.00">L4::Kobject_t&lt; Derived,</text>
<text text-anchor="middle" x="182" y="-721.5" font-family="Helvetica,sans-Serif" font-size="10.00"> Base, PROTO, S_DEMAND &gt;</text>
<polyline fill="none" stroke="black" points="104,-714.5 260,-714.5 "/>
<text text-anchor="middle" x="182" y="-702.5" font-family="Helvetica,sans-Serif" font-size="10.00"> </text>
<polyline fill="none" stroke="black" points="104,-695.5 260,-695.5 "/>
<text text-anchor="start" x="112" y="-683.5" font-family="Helvetica,sans-Serif" font-size="10.00"># c()</text>
<text text-anchor="start" x="112" y="-672.5" font-family="Helvetica,sans-Serif" font-size="10.00"># __check_protocols__()</text>
</a>
</g>
</g>
<!-- Node4&#45;&gt;Node2 -->
<g id="edge3" class="edge">
<title>Node4&#45;&gt;Node2</title>
<path fill="none" stroke="orange" d="M160.82,-656.2C152.33,-637.04 142.55,-614.95 133.98,-595.61"/>
<polygon fill="orange" stroke="orange" points="157.63,-657.62 164.88,-665.35 164.03,-654.79 157.63,-657.62"/>
<text text-anchor="start" x="155" y="-639" font-family="Helvetica,sans-Serif" font-size="10.00"> &lt; Dataspace, L4::Kobject,</text>
<text text-anchor="start" x="155" y="-628" font-family="Helvetica,sans-Serif" font-size="10.00"> L4RE_PROTO_DATASPACE,</text>
<text text-anchor="middle" x="236.5" y="-617" font-family="Helvetica,sans-Serif" font-size="10.00"> L4::Type_info::Demand_t&lt; 1 &gt; &gt;</text>
</g>
<!-- Node6 -->
<g id="node6" class="node">
<title>Node6</title>
<g id="a_node6"><a xlink:href="classL4vbus_1_1Vbus.html" target="_top" xlink:title="The virtual bus (Vbus) interface.">
<polygon fill="white" stroke="black" points="44,-0.5 44,-123.5 180,-123.5 180,-0.5 44,-0.5"/>
<text text-anchor="middle" x="112" y="-111.5" font-family="Helvetica,sans-Serif" font-size="10.00">L4vbus::Vbus</text>
<polyline fill="none" stroke="black" points="44,-104.5 180,-104.5 "/>
<text text-anchor="middle" x="112" y="-92.5" font-family="Helvetica,sans-Serif" font-size="10.00"> </text>
<polyline fill="none" stroke="black" points="44,-85.5 180,-85.5 "/>
<text text-anchor="start" x="52" y="-73.5" font-family="Helvetica,sans-Serif" font-size="10.00">+ request_ioport()</text>
<text text-anchor="start" x="52" y="-62.5" font-family="Helvetica,sans-Serif" font-size="10.00">+ request_resource()</text>
<text text-anchor="start" x="52" y="-51.5" font-family="Helvetica,sans-Serif" font-size="10.00">+ release_ioport()</text>
<text text-anchor="start" x="52" y="-40.5" font-family="Helvetica,sans-Serif" font-size="10.00">+ release_resource()</text>
<text text-anchor="start" x="52" y="-29.5" font-family="Helvetica,sans-Serif" font-size="10.00">+ root()</text>
<text text-anchor="start" x="52" y="-18.5" font-family="Helvetica,sans-Serif" font-size="10.00">+ assign_dma_domain()</text>
<text text-anchor="start" x="52" y="-7.5" font-family="Helvetica,sans-Serif" font-size="10.00">+ assign_dma_domain()</text>
</a>
</g>
</g>
<!-- Node5&#45;&gt;Node6 -->
<g id="edge5" class="edge">
<title>Node5&#45;&gt;Node6</title>
<path fill="none" stroke="midnightblue" d="M112,-151.17C112,-141.99 112,-132.65 112,-123.66"/>
<polygon fill="none" stroke="midnightblue" points="108.5,-151.44 112,-161.44 115.5,-151.44 108.5,-151.44"/>
</g>
</g>
</svg>
