<?xml version="1.0" encoding="UTF-8" standalone="no"?>
<!DOCTYPE svg PUBLIC "-//W3C//DTD SVG 1.1//EN"
 "http://www.w3.org/Graphics/SVG/1.1/DTD/svg11.dtd">
<!-- Generated by graphviz version 2.43.0 (0)
 -->
<!-- Title: L4virtio::Svr::Driver_mem_region_t::Driver_mem_region_t Pages: 1 -->
<svg width="391pt" height="50pt"
 viewBox="0.00 0.00 391.00 50.00" xmlns="http://www.w3.org/2000/svg" xmlns:xlink="http://www.w3.org/1999/xlink">
<g id="graph0" class="graph" transform="scale(1 1) rotate(0) translate(4 46)">
<title>L4virtio::Svr::Driver_mem_region_t::Driver_mem_region_t</title>
<polygon fill="white" stroke="transparent" points="-4,4 -4,-46 387,-46 387,4 -4,4"/>
<!-- Node1 -->
<g id="node1" class="node">
<title>Node1</title>
<g id="a_node1"><a xlink:title="Make a local memory region for the given driver values.">
<polygon fill="#bfbfbf" stroke="black" points="0,-0.5 0,-41.5 128,-41.5 128,-0.5 0,-0.5"/>
<text text-anchor="start" x="8" y="-29.5" font-family="Helvetica,sans-Serif" font-size="10.00">L4virtio::Svr::Driver</text>
<text text-anchor="start" x="8" y="-18.5" font-family="Helvetica,sans-Serif" font-size="10.00">_mem_region_t::Driver</text>
<text text-anchor="middle" x="64" y="-7.5" font-family="Helvetica,sans-Serif" font-size="10.00">_mem_region_t</text>
</a>
</g>
</g>
<!-- Node2 -->
<g id="node2" class="node">
<title>Node2</title>
<g id="a_node2"><a xlink:href="namespaceL4Re.html#a3f17984019f06676a7e3eecb41bbb0bb" target="_top" xlink:title="Generate C++ exception on error.">
<polygon fill="white" stroke="black" points="164,-11.5 164,-30.5 244,-30.5 244,-11.5 164,-11.5"/>
<text text-anchor="middle" x="204" y="-18.5" font-family="Helvetica,sans-Serif" font-size="10.00">L4Re::chksys</text>
</a>
</g>
</g>
<!-- Node1&#45;&gt;Node2 -->
<g id="edge1" class="edge">
<title>Node1&#45;&gt;Node2</title>
<path fill="none" stroke="midnightblue" d="M128.35,-21C136.81,-21 145.4,-21 153.58,-21"/>
<polygon fill="midnightblue" stroke="midnightblue" points="153.69,-24.5 163.69,-21 153.69,-17.5 153.69,-24.5"/>
</g>
<!-- Node3 -->
<g id="node3" class="node">
<title>Node3</title>
<g id="a_node3"><a xlink:href="namespaceL4Re.html#ae27ac6f274f4ad1267d0d1c0c033c00b" target="_top" xlink:title="Generate C++ exception.">
<polygon fill="white" stroke="black" points="280,-11.5 280,-30.5 383,-30.5 383,-11.5 280,-11.5"/>
<text text-anchor="middle" x="331.5" y="-18.5" font-family="Helvetica,sans-Serif" font-size="10.00">L4Re::throw_error</text>
</a>
</g>
</g>
<!-- Node2&#45;&gt;Node3 -->
<g id="edge2" class="edge">
<title>Node2&#45;&gt;Node3</title>
<path fill="none" stroke="midnightblue" d="M244.02,-21C252.19,-21 260.99,-21 269.74,-21"/>
<polygon fill="midnightblue" stroke="midnightblue" points="269.95,-24.5 279.95,-21 269.95,-17.5 269.95,-24.5"/>
</g>
</g>
</svg>
