<?xml version="1.0" encoding="UTF-8" standalone="no"?>
<!DOCTYPE svg PUBLIC "-//W3C//DTD SVG 1.1//EN"
 "http://www.w3.org/Graphics/SVG/1.1/DTD/svg11.dtd">
<!-- Generated by graphviz version 2.43.0 (0)
 -->
<!-- Title: L4::Server&lt; LOOP_HOOKS &gt; Pages: 1 -->
<svg width="542pt" height="903pt"
 viewBox="0.00 0.00 542.00 903.00" xmlns="http://www.w3.org/2000/svg" xmlns:xlink="http://www.w3.org/1999/xlink">
<g id="graph0" class="graph" transform="scale(1 1) rotate(0) translate(4 899)">
<title>L4::Server&lt; LOOP_HOOKS &gt;</title>
<polygon fill="white" stroke="transparent" points="-4,4 -4,-899 538,-899 538,4 -4,4"/>
<!-- Node1 -->
<g id="node1" class="node">
<title>Node1</title>
<g id="a_node1"><a xlink:title="Basic server loop for handling client requests.">
<polygon fill="#bfbfbf" stroke="black" points="169,-321.5 169,-422.5 324,-422.5 324,-321.5 169,-321.5"/>
<text text-anchor="middle" x="246.5" y="-410.5" font-family="Helvetica,sans-Serif" font-size="10.00">L4::Server&lt; LOOP_HOOKS &gt;</text>
<polyline fill="none" stroke="black" points="169,-403.5 324,-403.5 "/>
<text text-anchor="start" x="177" y="-391.5" font-family="Helvetica,sans-Serif" font-size="10.00">+ _utcb</text>
<polyline fill="none" stroke="black" points="169,-384.5 324,-384.5 "/>
<text text-anchor="start" x="177" y="-372.5" font-family="Helvetica,sans-Serif" font-size="10.00">+ Server()</text>
<text text-anchor="start" x="177" y="-361.5" font-family="Helvetica,sans-Serif" font-size="10.00">+ internal_loop()</text>
<text text-anchor="start" x="177" y="-350.5" font-family="Helvetica,sans-Serif" font-size="10.00">+ loop_noexc()</text>
<text text-anchor="start" x="177" y="-339.5" font-family="Helvetica,sans-Serif" font-size="10.00">+ loop()</text>
<text text-anchor="start" x="177" y="-328.5" font-family="Helvetica,sans-Serif" font-size="10.00"># reply_n_wait()</text>
</a>
</g>
</g>
<!-- Node8 -->
<g id="node8" class="node">
<title>Node8</title>
<g id="a_node8"><a xlink:href="classL4_1_1Server.html" target="_top" xlink:title=" ">
<polygon fill="white" stroke="black" points="171,-150.5 171,-262.5 322,-262.5 322,-150.5 171,-150.5"/>
<text text-anchor="start" x="179" y="-250.5" font-family="Helvetica,sans-Serif" font-size="10.00">L4::Server&lt; L4::Ipc</text>
<text text-anchor="middle" x="246.5" y="-239.5" font-family="Helvetica,sans-Serif" font-size="10.00">_svr::Default_loop_hooks &gt;</text>
<polyline fill="none" stroke="black" points="171,-232.5 322,-232.5 "/>
<text text-anchor="start" x="179" y="-220.5" font-family="Helvetica,sans-Serif" font-size="10.00">+ _utcb</text>
<polyline fill="none" stroke="black" points="171,-213.5 322,-213.5 "/>
<text text-anchor="start" x="179" y="-201.5" font-family="Helvetica,sans-Serif" font-size="10.00">+ Server()</text>
<text text-anchor="start" x="179" y="-190.5" font-family="Helvetica,sans-Serif" font-size="10.00">+ internal_loop()</text>
<text text-anchor="start" x="179" y="-179.5" font-family="Helvetica,sans-Serif" font-size="10.00">+ loop_noexc()</text>
<text text-anchor="start" x="179" y="-168.5" font-family="Helvetica,sans-Serif" font-size="10.00">+ loop()</text>
<text text-anchor="start" x="179" y="-157.5" font-family="Helvetica,sans-Serif" font-size="10.00"># reply_n_wait()</text>
</a>
</g>
</g>
<!-- Node1&#45;&gt;Node8 -->
<g id="edge7" class="edge">
<title>Node1&#45;&gt;Node8</title>
<path fill="none" stroke="orange" d="M246.5,-310.86C246.5,-295.05 246.5,-278.08 246.5,-262.55"/>
<polygon fill="orange" stroke="orange" points="243,-311.06 246.5,-321.06 250,-311.06 243,-311.06"/>
<text text-anchor="start" x="246.5" y="-295" font-family="Helvetica,sans-Serif" font-size="10.00"> &lt; L4::Ipc_svr::Default</text>
<text text-anchor="middle" x="301" y="-284" font-family="Helvetica,sans-Serif" font-size="10.00">_loop_hooks &gt;</text>
</g>
<!-- Node2 -->
<g id="node2" class="node">
<title>Node2</title>
<g id="a_node2"><a xlink:href="structL4_1_1Ipc__svr_1_1Default__loop__hooks.html" target="_top" xlink:title="Default LOOP_HOOKS.">
<polygon fill="white" stroke="black" points="191.5,-460.5 191.5,-528.5 301.5,-528.5 301.5,-460.5 191.5,-460.5"/>
<text text-anchor="start" x="199.5" y="-516.5" font-family="Helvetica,sans-Serif" font-size="10.00">L4::Ipc_svr::Default</text>
<text text-anchor="middle" x="246.5" y="-505.5" font-family="Helvetica,sans-Serif" font-size="10.00">_loop_hooks</text>
<polyline fill="none" stroke="black" points="191.5,-498.5 301.5,-498.5 "/>
<text text-anchor="middle" x="246.5" y="-486.5" font-family="Helvetica,sans-Serif" font-size="10.00"> </text>
<polyline fill="none" stroke="black" points="191.5,-479.5 301.5,-479.5 "/>
<text text-anchor="middle" x="246.5" y="-467.5" font-family="Helvetica,sans-Serif" font-size="10.00"> </text>
</a>
</g>
</g>
<!-- Node2&#45;&gt;Node1 -->
<g id="edge1" class="edge">
<title>Node2&#45;&gt;Node1</title>
<path fill="none" stroke="midnightblue" d="M246.5,-450.15C246.5,-441.29 246.5,-431.91 246.5,-422.84"/>
<polygon fill="none" stroke="midnightblue" points="243,-450.25 246.5,-460.25 250,-450.25 243,-450.25"/>
</g>
<!-- Node3 -->
<g id="node3" class="node">
<title>Node3</title>
<g id="a_node3"><a xlink:href="structL4_1_1Ipc__svr_1_1Ignore__errors.html" target="_top" xlink:title="Mix in for LOOP_HOOKS to ignore IPC errors.">
<polygon fill="white" stroke="black" points="0,-599.5 0,-667.5 105,-667.5 105,-599.5 0,-599.5"/>
<text text-anchor="start" x="8" y="-655.5" font-family="Helvetica,sans-Serif" font-size="10.00">L4::Ipc_svr::Ignore</text>
<text text-anchor="middle" x="52.5" y="-644.5" font-family="Helvetica,sans-Serif" font-size="10.00">_errors</text>
<polyline fill="none" stroke="black" points="0,-637.5 105,-637.5 "/>
<text text-anchor="middle" x="52.5" y="-625.5" font-family="Helvetica,sans-Serif" font-size="10.00"> </text>
<polyline fill="none" stroke="black" points="0,-618.5 105,-618.5 "/>
<text text-anchor="start" x="8" y="-606.5" font-family="Helvetica,sans-Serif" font-size="10.00">+ error()</text>
</a>
</g>
</g>
<!-- Node3&#45;&gt;Node2 -->
<g id="edge2" class="edge">
<title>Node3&#45;&gt;Node2</title>
<path fill="none" stroke="midnightblue" d="M86.54,-591.69C95.14,-582.64 104.72,-573.52 114.5,-566 137.98,-547.95 166.72,-531.99 191.39,-519.85"/>
<polygon fill="none" stroke="midnightblue" points="83.79,-589.51 79.57,-599.23 88.93,-594.26 83.79,-589.51"/>
</g>
<!-- Node4 -->
<g id="node4" class="node">
<title>Node4</title>
<g id="a_node4"><a xlink:href="structL4_1_1Ipc__svr_1_1Default__timeout.html" target="_top" xlink:title="Mix in for LOOP_HOOKS to use a 0 send and a infinite receive timeout.">
<polygon fill="white" stroke="black" points="123.5,-599.5 123.5,-667.5 233.5,-667.5 233.5,-599.5 123.5,-599.5"/>
<text text-anchor="start" x="131.5" y="-655.5" font-family="Helvetica,sans-Serif" font-size="10.00">L4::Ipc_svr::Default</text>
<text text-anchor="middle" x="178.5" y="-644.5" font-family="Helvetica,sans-Serif" font-size="10.00">_timeout</text>
<polyline fill="none" stroke="black" points="123.5,-637.5 233.5,-637.5 "/>
<text text-anchor="middle" x="178.5" y="-625.5" font-family="Helvetica,sans-Serif" font-size="10.00"> </text>
<polyline fill="none" stroke="black" points="123.5,-618.5 233.5,-618.5 "/>
<text text-anchor="start" x="131.5" y="-606.5" font-family="Helvetica,sans-Serif" font-size="10.00">+ timeout()</text>
</a>
</g>
</g>
<!-- Node4&#45;&gt;Node2 -->
<g id="edge3" class="edge">
<title>Node4&#45;&gt;Node2</title>
<path fill="none" stroke="midnightblue" d="M199.47,-590.24C209.28,-570.5 220.78,-547.32 229.95,-528.83"/>
<polygon fill="none" stroke="midnightblue" points="196.27,-588.82 194.96,-599.34 202.54,-591.93 196.27,-588.82"/>
</g>
<!-- Node5 -->
<g id="node5" class="node">
<title>Node5</title>
<g id="a_node5"><a xlink:href="structL4_1_1Ipc__svr_1_1Compound__reply.html" target="_top" xlink:title="Mix in for LOOP_HOOKS to always use compound reply and wait.">
<polygon fill="white" stroke="black" points="252,-599.5 252,-667.5 379,-667.5 379,-599.5 252,-599.5"/>
<text text-anchor="start" x="260" y="-655.5" font-family="Helvetica,sans-Serif" font-size="10.00">L4::Ipc_svr::Compound</text>
<text text-anchor="middle" x="315.5" y="-644.5" font-family="Helvetica,sans-Serif" font-size="10.00">_reply</text>
<polyline fill="none" stroke="black" points="252,-637.5 379,-637.5 "/>
<text text-anchor="middle" x="315.5" y="-625.5" font-family="Helvetica,sans-Serif" font-size="10.00"> </text>
<polyline fill="none" stroke="black" points="252,-618.5 379,-618.5 "/>
<text text-anchor="start" x="260" y="-606.5" font-family="Helvetica,sans-Serif" font-size="10.00">+ before_reply()</text>
</a>
</g>
</g>
<!-- Node5&#45;&gt;Node2 -->
<g id="edge4" class="edge">
<title>Node5&#45;&gt;Node2</title>
<path fill="none" stroke="midnightblue" d="M294.22,-590.24C284.27,-570.5 272.6,-547.32 263.29,-528.83"/>
<polygon fill="none" stroke="midnightblue" points="291.17,-591.98 298.8,-599.34 297.42,-588.83 291.17,-591.98"/>
</g>
<!-- Node6 -->
<g id="node6" class="node">
<title>Node6</title>
<g id="a_node6"><a xlink:href="classL4_1_1Ipc__svr_1_1Br__manager__no__buffers.html" target="_top" xlink:title="Empty implementation of Server_iface.">
<polygon fill="white" stroke="black" points="397,-566.5 397,-700.5 534,-700.5 534,-566.5 397,-566.5"/>
<text text-anchor="start" x="405" y="-688.5" font-family="Helvetica,sans-Serif" font-size="10.00">L4::Ipc_svr::Br_manager</text>
<text text-anchor="middle" x="465.5" y="-677.5" font-family="Helvetica,sans-Serif" font-size="10.00">_no_buffers</text>
<polyline fill="none" stroke="black" points="397,-670.5 534,-670.5 "/>
<text text-anchor="middle" x="465.5" y="-658.5" font-family="Helvetica,sans-Serif" font-size="10.00"> </text>
<polyline fill="none" stroke="black" points="397,-651.5 534,-651.5 "/>
<text text-anchor="start" x="405" y="-639.5" font-family="Helvetica,sans-Serif" font-size="10.00">+ alloc_buffer_demand()</text>
<text text-anchor="start" x="405" y="-628.5" font-family="Helvetica,sans-Serif" font-size="10.00">+ get_rcv_cap()</text>
<text text-anchor="start" x="405" y="-617.5" font-family="Helvetica,sans-Serif" font-size="10.00">+ realloc_rcv_cap()</text>
<text text-anchor="start" x="405" y="-606.5" font-family="Helvetica,sans-Serif" font-size="10.00">+ add_timeout()</text>
<text text-anchor="start" x="405" y="-595.5" font-family="Helvetica,sans-Serif" font-size="10.00">+ remove_timeout()</text>
<text text-anchor="start" x="405" y="-584.5" font-family="Helvetica,sans-Serif" font-size="10.00"># first_free_br()</text>
<text text-anchor="start" x="405" y="-573.5" font-family="Helvetica,sans-Serif" font-size="10.00"># setup_wait()</text>
</a>
</g>
</g>
<!-- Node6&#45;&gt;Node2 -->
<g id="edge5" class="edge">
<title>Node6&#45;&gt;Node2</title>
<path fill="none" stroke="midnightblue" d="M388.76,-566.17C388.67,-566.12 388.59,-566.06 388.5,-566 361.22,-547.87 328.62,-531.36 301.54,-518.88"/>
<polygon fill="none" stroke="midnightblue" points="386.69,-568.99 396.9,-571.82 390.68,-563.24 386.69,-568.99"/>
</g>
<!-- Node7 -->
<g id="node7" class="node">
<title>Node7</title>
<g id="a_node7"><a xlink:href="classL4_1_1Ipc__svr_1_1Server__iface.html" target="_top" xlink:title="Interface for server&#45;loop related functions.">
<polygon fill="white" stroke="black" points="397,-738.5 397,-894.5 534,-894.5 534,-738.5 397,-738.5"/>
<text text-anchor="start" x="405" y="-882.5" font-family="Helvetica,sans-Serif" font-size="10.00">L4::Ipc_svr::Server</text>
<text text-anchor="middle" x="465.5" y="-871.5" font-family="Helvetica,sans-Serif" font-size="10.00">_iface</text>
<polyline fill="none" stroke="black" points="397,-864.5 534,-864.5 "/>
<text text-anchor="middle" x="465.5" y="-852.5" font-family="Helvetica,sans-Serif" font-size="10.00"> </text>
<polyline fill="none" stroke="black" points="397,-845.5 534,-845.5 "/>
<text text-anchor="start" x="405" y="-833.5" font-family="Helvetica,sans-Serif" font-size="10.00">+ Server_iface()</text>
<text text-anchor="start" x="405" y="-822.5" font-family="Helvetica,sans-Serif" font-size="10.00">+ ~Server_iface()</text>
<text text-anchor="start" x="405" y="-811.5" font-family="Helvetica,sans-Serif" font-size="10.00">+ alloc_buffer_demand()</text>
<text text-anchor="start" x="405" y="-800.5" font-family="Helvetica,sans-Serif" font-size="10.00">+ get_rcv_cap()</text>
<text text-anchor="start" x="405" y="-789.5" font-family="Helvetica,sans-Serif" font-size="10.00">+ realloc_rcv_cap()</text>
<text text-anchor="start" x="405" y="-778.5" font-family="Helvetica,sans-Serif" font-size="10.00">+ add_timeout()</text>
<text text-anchor="start" x="405" y="-767.5" font-family="Helvetica,sans-Serif" font-size="10.00">+ remove_timeout()</text>
<text text-anchor="start" x="405" y="-756.5" font-family="Helvetica,sans-Serif" font-size="10.00">+ rcv_cap()</text>
<text text-anchor="start" x="405" y="-745.5" font-family="Helvetica,sans-Serif" font-size="10.00">+ rcv_cap()</text>
</a>
</g>
</g>
<!-- Node7&#45;&gt;Node6 -->
<g id="edge6" class="edge">
<title>Node7&#45;&gt;Node6</title>
<path fill="none" stroke="midnightblue" d="M465.5,-728.38C465.5,-719.03 465.5,-709.64 465.5,-700.6"/>
<polygon fill="none" stroke="midnightblue" points="462,-728.48 465.5,-738.48 469,-728.48 462,-728.48"/>
</g>
<!-- Node9 -->
<g id="node9" class="node">
<title>Node9</title>
<g id="a_node9"><a xlink:href="classL4Re_1_1Util_1_1Registry__server.html" target="_top" xlink:title="A server loop object which has a Object_registry included.">
<polygon fill="white" stroke="black" points="175.5,-0.5 175.5,-112.5 317.5,-112.5 317.5,-0.5 175.5,-0.5"/>
<text text-anchor="start" x="183.5" y="-100.5" font-family="Helvetica,sans-Serif" font-size="10.00">L4Re::Util::Registry</text>
<text text-anchor="middle" x="246.5" y="-89.5" font-family="Helvetica,sans-Serif" font-size="10.00">_server&lt; LOOP_HOOKS &gt;</text>
<polyline fill="none" stroke="black" points="175.5,-82.5 317.5,-82.5 "/>
<text text-anchor="middle" x="246.5" y="-70.5" font-family="Helvetica,sans-Serif" font-size="10.00"> </text>
<polyline fill="none" stroke="black" points="175.5,-63.5 317.5,-63.5 "/>
<text text-anchor="start" x="183.5" y="-51.5" font-family="Helvetica,sans-Serif" font-size="10.00">+ Registry_server()</text>
<text text-anchor="start" x="183.5" y="-40.5" font-family="Helvetica,sans-Serif" font-size="10.00">+ Registry_server()</text>
<text text-anchor="start" x="183.5" y="-29.5" font-family="Helvetica,sans-Serif" font-size="10.00">+ registry()</text>
<text text-anchor="start" x="183.5" y="-18.5" font-family="Helvetica,sans-Serif" font-size="10.00">+ registry()</text>
<text text-anchor="start" x="183.5" y="-7.5" font-family="Helvetica,sans-Serif" font-size="10.00">+ loop()</text>
</a>
</g>
</g>
<!-- Node8&#45;&gt;Node9 -->
<g id="edge8" class="edge">
<title>Node8&#45;&gt;Node9</title>
<path fill="none" stroke="midnightblue" d="M246.5,-140.14C246.5,-130.97 246.5,-121.61 246.5,-112.66"/>
<polygon fill="none" stroke="midnightblue" points="243,-140.39 246.5,-150.39 250,-140.39 243,-140.39"/>
</g>
</g>
</svg>
