<?xml version="1.0" encoding="UTF-8" standalone="no"?>
<!DOCTYPE svg PUBLIC "-//W3C//DTD SVG 1.1//EN"
 "http://www.w3.org/Graphics/SVG/1.1/DTD/svg11.dtd">
<!-- Generated by graphviz version 2.43.0 (0)
 -->
<!-- Title: L4::Platform_control Pages: 1 -->
<svg width="323pt" height="376pt"
 viewBox="0.00 0.00 323.00 376.00" xmlns="http://www.w3.org/2000/svg" xmlns:xlink="http://www.w3.org/1999/xlink">
<g id="graph0" class="graph" transform="scale(1 1) rotate(0) translate(4 372)">
<title>L4::Platform_control</title>
<polygon fill="white" stroke="transparent" points="-4,4 -4,-372 319,-372 319,4 -4,4"/>
<!-- Node1 -->
<g id="node1" class="node">
<title>Node1</title>
<g id="a_node1"><a xlink:title="L4 C++ interface for controlling platform&#45;wide properties.">
<polygon fill="#bfbfbf" stroke="black" points="50,-0.5 50,-90.5 174,-90.5 174,-0.5 50,-0.5"/>
<text text-anchor="middle" x="112" y="-78.5" font-family="Helvetica,sans-Serif" font-size="10.00">L4::Platform_control</text>
<polyline fill="none" stroke="black" points="50,-71.5 174,-71.5 "/>
<text text-anchor="middle" x="112" y="-59.5" font-family="Helvetica,sans-Serif" font-size="10.00"> </text>
<polyline fill="none" stroke="black" points="50,-52.5 174,-52.5 "/>
<text text-anchor="start" x="58" y="-40.5" font-family="Helvetica,sans-Serif" font-size="10.00">+ system_suspend()</text>
<text text-anchor="start" x="58" y="-29.5" font-family="Helvetica,sans-Serif" font-size="10.00">+ system_shutdown()</text>
<text text-anchor="start" x="58" y="-18.5" font-family="Helvetica,sans-Serif" font-size="10.00">+ cpu_enable()</text>
<text text-anchor="start" x="58" y="-7.5" font-family="Helvetica,sans-Serif" font-size="10.00">+ cpu_disable()</text>
</a>
</g>
</g>
<!-- Node2 -->
<g id="node2" class="node">
<title>Node2</title>
<g id="a_node2"><a xlink:href="classL4_1_1Kobject__t.html" target="_top" xlink:title=" ">
<polygon fill="white" stroke="black" points="37.5,-128.5 37.5,-218.5 186.5,-218.5 186.5,-128.5 37.5,-128.5"/>
<text text-anchor="start" x="45.5" y="-206.5" font-family="Helvetica,sans-Serif" font-size="10.00">L4::Kobject_t&lt; Platform</text>
<text text-anchor="start" x="45.5" y="-195.5" font-family="Helvetica,sans-Serif" font-size="10.00">_control, Kobject, L4</text>
<text text-anchor="middle" x="112" y="-184.5" font-family="Helvetica,sans-Serif" font-size="10.00">_PROTO_PLATFORM_CTL &gt;</text>
<polyline fill="none" stroke="black" points="37.5,-177.5 186.5,-177.5 "/>
<text text-anchor="middle" x="112" y="-165.5" font-family="Helvetica,sans-Serif" font-size="10.00"> </text>
<polyline fill="none" stroke="black" points="37.5,-158.5 186.5,-158.5 "/>
<text text-anchor="start" x="45.5" y="-146.5" font-family="Helvetica,sans-Serif" font-size="10.00"># c()</text>
<text text-anchor="start" x="45.5" y="-135.5" font-family="Helvetica,sans-Serif" font-size="10.00"># __check_protocols__()</text>
</a>
</g>
</g>
<!-- Node2&#45;&gt;Node1 -->
<g id="edge1" class="edge">
<title>Node2&#45;&gt;Node1</title>
<path fill="none" stroke="midnightblue" d="M112,-118.23C112,-109.06 112,-99.63 112,-90.76"/>
<polygon fill="none" stroke="midnightblue" points="108.5,-118.43 112,-128.43 115.5,-118.43 108.5,-118.43"/>
</g>
<!-- Node3 -->
<g id="node3" class="node">
<title>Node3</title>
<g id="a_node3"><a xlink:href="classL4_1_1Kobject.html" target="_top" xlink:title="Base class for all kinds of kernel objects and remote objects, referenced by capabilities.">
<polygon fill="white" stroke="black" points="0,-294 0,-362 86,-362 86,-294 0,-294"/>
<text text-anchor="middle" x="43" y="-350" font-family="Helvetica,sans-Serif" font-size="10.00">L4::Kobject</text>
<polyline fill="none" stroke="black" points="0,-343 86,-343 "/>
<text text-anchor="middle" x="43" y="-331" font-family="Helvetica,sans-Serif" font-size="10.00"> </text>
<polyline fill="none" stroke="black" points="0,-324 86,-324 "/>
<text text-anchor="start" x="8" y="-312" font-family="Helvetica,sans-Serif" font-size="10.00">+ dec_refcnt()</text>
<text text-anchor="start" x="8" y="-301" font-family="Helvetica,sans-Serif" font-size="10.00"># cap()</text>
</a>
</g>
</g>
<!-- Node3&#45;&gt;Node2 -->
<g id="edge2" class="edge">
<title>Node3&#45;&gt;Node2</title>
<path fill="none" stroke="midnightblue" d="M62.11,-284.76C71.44,-264.15 82.65,-239.37 92.08,-218.53"/>
<polygon fill="none" stroke="midnightblue" points="58.91,-283.36 57.97,-293.91 65.28,-286.24 58.91,-283.36"/>
</g>
<!-- Node4 -->
<g id="node4" class="node">
<title>Node4</title>
<g id="a_node4"><a xlink:href="classL4_1_1Kobject__t.html" target="_top" xlink:title="Helper class to create an L4Re interface class that is derived from a single base class.">
<polygon fill="white" stroke="black" points="104,-288.5 104,-367.5 260,-367.5 260,-288.5 104,-288.5"/>
<text text-anchor="start" x="112" y="-355.5" font-family="Helvetica,sans-Serif" font-size="10.00">L4::Kobject_t&lt; Derived,</text>
<text text-anchor="middle" x="182" y="-344.5" font-family="Helvetica,sans-Serif" font-size="10.00"> Base, PROTO, S_DEMAND &gt;</text>
<polyline fill="none" stroke="black" points="104,-337.5 260,-337.5 "/>
<text text-anchor="middle" x="182" y="-325.5" font-family="Helvetica,sans-Serif" font-size="10.00"> </text>
<polyline fill="none" stroke="black" points="104,-318.5 260,-318.5 "/>
<text text-anchor="start" x="112" y="-306.5" font-family="Helvetica,sans-Serif" font-size="10.00"># c()</text>
<text text-anchor="start" x="112" y="-295.5" font-family="Helvetica,sans-Serif" font-size="10.00"># __check_protocols__()</text>
</a>
</g>
</g>
<!-- Node4&#45;&gt;Node2 -->
<g id="edge3" class="edge">
<title>Node4&#45;&gt;Node2</title>
<path fill="none" stroke="orange" d="M159.93,-278.91C151.08,-259.64 140.95,-237.57 132.29,-218.7"/>
<polygon fill="orange" stroke="orange" points="156.8,-280.5 164.15,-288.12 163.16,-277.57 156.8,-280.5"/>
<text text-anchor="start" x="155" y="-262" font-family="Helvetica,sans-Serif" font-size="10.00"> &lt; Platform_control,</text>
<text text-anchor="start" x="155" y="-251" font-family="Helvetica,sans-Serif" font-size="10.00"> Kobject, L4_PROTO_PLATFORM_</text>
<text text-anchor="middle" x="235" y="-240" font-family="Helvetica,sans-Serif" font-size="10.00">CTL &gt;</text>
</g>
</g>
</svg>
