<?xml version="1.0" encoding="UTF-8" standalone="no"?>
<!DOCTYPE svg PUBLIC "-//W3C//DTD SVG 1.1//EN"
 "http://www.w3.org/Graphics/SVG/1.1/DTD/svg11.dtd">
<!-- Generated by graphviz version 2.43.0 (0)
 -->
<!-- Title: L4::Kip::Mem_desc::start Pages: 1 -->
<svg width="292pt" height="66pt"
 viewBox="0.00 0.00 292.00 66.00" xmlns="http://www.w3.org/2000/svg" xmlns:xlink="http://www.w3.org/1999/xlink">
<g id="graph0" class="graph" transform="scale(1 1) rotate(0) translate(4 62)">
<title>L4::Kip::Mem_desc::start</title>
<polygon fill="white" stroke="transparent" points="-4,4 -4,-62 288,-62 288,4 -4,4"/>
<!-- Node1 -->
<g id="node1" class="node">
<title>Node1</title>
<g id="a_node1"><a xlink:title="Return start address of memory descriptor.">
<polygon fill="#bfbfbf" stroke="black" points="170,-14 170,-44 284,-44 284,-14 170,-14"/>
<text text-anchor="start" x="178" y="-32" font-family="Helvetica,sans-Serif" font-size="10.00">L4::Kip::Mem_desc::</text>
<text text-anchor="middle" x="227" y="-21" font-family="Helvetica,sans-Serif" font-size="10.00">start</text>
</a>
</g>
</g>
<!-- Node2 -->
<g id="node2" class="node">
<title>Node2</title>
<g id="a_node2"><a xlink:href="classL4_1_1Kip_1_1Mem__desc.html#a48fd081bd276556acfbaae5f3f8f814b" target="_top" xlink:title="Set values of a memory descriptor.">
<polygon fill="white" stroke="black" points="2.5,-38.5 2.5,-57.5 131.5,-57.5 131.5,-38.5 2.5,-38.5"/>
<text text-anchor="middle" x="67" y="-45.5" font-family="Helvetica,sans-Serif" font-size="10.00">L4::Kip::Mem_desc::set</text>
</a>
</g>
</g>
<!-- Node1&#45;&gt;Node2 -->
<g id="edge1" class="edge">
<title>Node1&#45;&gt;Node2</title>
<path fill="none" stroke="midnightblue" d="M159.81,-36.96C150.44,-38.09 140.82,-39.24 131.5,-40.36"/>
<polygon fill="midnightblue" stroke="midnightblue" points="160.34,-40.42 169.85,-35.75 159.5,-33.47 160.34,-40.42"/>
</g>
<!-- Node3 -->
<g id="node3" class="node">
<title>Node3</title>
<g id="a_node3"><a xlink:href="classL4_1_1Kip_1_1Mem__desc.html#aed690d186404b5bc353e9e60a52d9d80" target="_top" xlink:title="Return size of region described by the memory descriptor.">
<polygon fill="white" stroke="black" points="0,-0.5 0,-19.5 134,-19.5 134,-0.5 0,-0.5"/>
<text text-anchor="middle" x="67" y="-7.5" font-family="Helvetica,sans-Serif" font-size="10.00">L4::Kip::Mem_desc::size</text>
</a>
</g>
</g>
<!-- Node1&#45;&gt;Node3 -->
<g id="edge2" class="edge">
<title>Node1&#45;&gt;Node3</title>
<path fill="none" stroke="midnightblue" d="M159.7,-21.03C151.28,-20.01 142.65,-18.98 134.23,-17.96"/>
<polygon fill="midnightblue" stroke="midnightblue" points="159.5,-24.53 169.85,-22.25 160.34,-17.58 159.5,-24.53"/>
</g>
</g>
</svg>
