<?xml version="1.0" encoding="UTF-8" standalone="no"?>
<!DOCTYPE svg PUBLIC "-//W3C//DTD SVG 1.1//EN"
 "http://www.w3.org/Graphics/SVG/1.1/DTD/svg11.dtd">
<!-- Generated by graphviz version 2.43.0 (0)
 -->
<!-- Title: L4Re::Vfs::Generic_file Pages: 1 -->
<svg width="134pt" height="540pt"
 viewBox="0.00 0.00 134.00 540.00" xmlns="http://www.w3.org/2000/svg" xmlns:xlink="http://www.w3.org/1999/xlink">
<g id="graph0" class="graph" transform="scale(1 1) rotate(0) translate(4 536)">
<title>L4Re::Vfs::Generic_file</title>
<polygon fill="white" stroke="transparent" points="-4,4 -4,-536 130,-536 130,4 -4,4"/>
<!-- Node1 -->
<g id="node1" class="node">
<title>Node1</title>
<g id="a_node1"><a xlink:title="The common interface for an open POSIX file.">
<polygon fill="#bfbfbf" stroke="black" points="0,-386.5 0,-531.5 126,-531.5 126,-386.5 0,-386.5"/>
<text text-anchor="middle" x="63" y="-519.5" font-family="Helvetica,sans-Serif" font-size="10.00">L4Re::Vfs::Generic_file</text>
<polyline fill="none" stroke="black" points="0,-512.5 126,-512.5 "/>
<text text-anchor="middle" x="63" y="-500.5" font-family="Helvetica,sans-Serif" font-size="10.00"> </text>
<polyline fill="none" stroke="black" points="0,-493.5 126,-493.5 "/>
<text text-anchor="start" x="8" y="-481.5" font-family="Helvetica,sans-Serif" font-size="10.00">+ ~Generic_file()</text>
<text text-anchor="start" x="8" y="-470.5" font-family="Helvetica,sans-Serif" font-size="10.00">+ unlock_all_locks()</text>
<text text-anchor="start" x="8" y="-459.5" font-family="Helvetica,sans-Serif" font-size="10.00">+ fstat64()</text>
<text text-anchor="start" x="8" y="-448.5" font-family="Helvetica,sans-Serif" font-size="10.00">+ fchmod()</text>
<text text-anchor="start" x="8" y="-437.5" font-family="Helvetica,sans-Serif" font-size="10.00">+ get_status_flags()</text>
<text text-anchor="start" x="8" y="-426.5" font-family="Helvetica,sans-Serif" font-size="10.00">+ set_status_flags()</text>
<text text-anchor="start" x="8" y="-415.5" font-family="Helvetica,sans-Serif" font-size="10.00">+ utime()</text>
<text text-anchor="start" x="8" y="-404.5" font-family="Helvetica,sans-Serif" font-size="10.00">+ utimes()</text>
<text text-anchor="start" x="8" y="-393.5" font-family="Helvetica,sans-Serif" font-size="10.00">+ readlink()</text>
</a>
</g>
</g>
<!-- Node2 -->
<g id="node2" class="node">
<title>Node2</title>
<g id="a_node2"><a xlink:href="classL4Re_1_1Vfs_1_1File.html" target="_top" xlink:title="The basic interface for an open POSIX file.">
<polygon fill="white" stroke="black" points="17,-215.5 17,-349.5 109,-349.5 109,-215.5 17,-215.5"/>
<text text-anchor="middle" x="63" y="-337.5" font-family="Helvetica,sans-Serif" font-size="10.00">L4Re::Vfs::File</text>
<polyline fill="none" stroke="black" points="17,-330.5 109,-330.5 "/>
<text text-anchor="middle" x="63" y="-318.5" font-family="Helvetica,sans-Serif" font-size="10.00"> </text>
<polyline fill="none" stroke="black" points="17,-311.5 109,-311.5 "/>
<text text-anchor="start" x="25" y="-299.5" font-family="Helvetica,sans-Serif" font-size="10.00">+ get_mount()</text>
<text text-anchor="start" x="25" y="-288.5" font-family="Helvetica,sans-Serif" font-size="10.00">+ openat()</text>
<text text-anchor="start" x="25" y="-277.5" font-family="Helvetica,sans-Serif" font-size="10.00">+ add_ref()</text>
<text text-anchor="start" x="25" y="-266.5" font-family="Helvetica,sans-Serif" font-size="10.00">+ remove_ref()</text>
<text text-anchor="start" x="25" y="-255.5" font-family="Helvetica,sans-Serif" font-size="10.00">+ ~File()</text>
<text text-anchor="start" x="25" y="-244.5" font-family="Helvetica,sans-Serif" font-size="10.00">+ mount_tree()</text>
<text text-anchor="start" x="25" y="-233.5" font-family="Helvetica,sans-Serif" font-size="10.00"># File()</text>
<text text-anchor="start" x="25" y="-222.5" font-family="Helvetica,sans-Serif" font-size="10.00"># File()</text>
</a>
</g>
</g>
<!-- Node1&#45;&gt;Node2 -->
<g id="edge1" class="edge">
<title>Node1&#45;&gt;Node2</title>
<path fill="none" stroke="midnightblue" d="M63,-376.25C63,-367.33 63,-358.33 63,-349.63"/>
<polygon fill="none" stroke="midnightblue" points="59.5,-376.27 63,-386.27 66.5,-376.27 59.5,-376.27"/>
</g>
<!-- Node3 -->
<g id="node3" class="node">
<title>Node3</title>
<g id="a_node3"><a xlink:href="classL4Re_1_1Vfs_1_1Be__file.html" target="_top" xlink:title="Boiler plate class for implementing an open file for L4Re::Vfs.">
<polygon fill="white" stroke="black" points="5,-0.5 5,-178.5 121,-178.5 121,-0.5 5,-0.5"/>
<text text-anchor="middle" x="63" y="-166.5" font-family="Helvetica,sans-Serif" font-size="10.00">L4Re::Vfs::Be_file</text>
<polyline fill="none" stroke="black" points="5,-159.5 121,-159.5 "/>
<text text-anchor="middle" x="63" y="-147.5" font-family="Helvetica,sans-Serif" font-size="10.00"> </text>
<polyline fill="none" stroke="black" points="5,-140.5 121,-140.5 "/>
<text text-anchor="start" x="13" y="-128.5" font-family="Helvetica,sans-Serif" font-size="10.00">+ operator new()</text>
<text text-anchor="start" x="13" y="-117.5" font-family="Helvetica,sans-Serif" font-size="10.00">+ operator new()</text>
<text text-anchor="start" x="13" y="-106.5" font-family="Helvetica,sans-Serif" font-size="10.00">+ operator delete()</text>
<text text-anchor="start" x="13" y="-95.5" font-family="Helvetica,sans-Serif" font-size="10.00">+ unlock_all_locks()</text>
<text text-anchor="start" x="13" y="-84.5" font-family="Helvetica,sans-Serif" font-size="10.00">+ data_space()</text>
<text text-anchor="start" x="13" y="-73.5" font-family="Helvetica,sans-Serif" font-size="10.00">+ readv()</text>
<text text-anchor="start" x="13" y="-62.5" font-family="Helvetica,sans-Serif" font-size="10.00">+ writev()</text>
<text text-anchor="start" x="13" y="-51.5" font-family="Helvetica,sans-Serif" font-size="10.00">+ pwritev()</text>
<text text-anchor="start" x="13" y="-40.5" font-family="Helvetica,sans-Serif" font-size="10.00">+ preadv()</text>
<text text-anchor="start" x="13" y="-29.5" font-family="Helvetica,sans-Serif" font-size="10.00">+ lseek64()</text>
<text text-anchor="start" x="13" y="-18.5" font-family="Helvetica,sans-Serif" font-size="10.00">and 39 more...</text>
<text text-anchor="start" x="13" y="-7.5" font-family="Helvetica,sans-Serif" font-size="10.00"># get_mount()</text>
</a>
</g>
</g>
<!-- Node2&#45;&gt;Node3 -->
<g id="edge2" class="edge">
<title>Node2&#45;&gt;Node3</title>
<path fill="none" stroke="midnightblue" d="M63,-205.09C63,-196.35 63,-187.39 63,-178.52"/>
<polygon fill="none" stroke="midnightblue" points="59.5,-205.23 63,-215.23 66.5,-205.23 59.5,-205.23"/>
</g>
</g>
</svg>
