<?xml version="1.0" encoding="UTF-8" standalone="no"?>
<!DOCTYPE svg PUBLIC "-//W3C//DTD SVG 1.1//EN"
 "http://www.w3.org/Graphics/SVG/1.1/DTD/svg11.dtd">
<!-- Generated by graphviz version 2.43.0 (0)
 -->
<!-- Title: cxx::Bits::Bst&lt; Node, Get_key, Compare &gt; Pages: 1 -->
<svg width="773pt" height="1405pt"
 viewBox="0.00 0.00 772.50 1405.00" xmlns="http://www.w3.org/2000/svg" xmlns:xlink="http://www.w3.org/1999/xlink">
<g id="graph0" class="graph" transform="scale(1 1) rotate(0) translate(4 1401)">
<title>cxx::Bits::Bst&lt; Node, Get_key, Compare &gt;</title>
<polygon fill="white" stroke="transparent" points="-4,4 -4,-1401 768.5,-1401 768.5,4 -4,4"/>
<!-- Node1 -->
<g id="node1" class="node">
<title>Node1</title>
<g id="a_node1"><a xlink:title="Basic binary search tree (BST).">
<polygon fill="#bfbfbf" stroke="black" points="284,-921.5 284,-1396.5 411,-1396.5 411,-921.5 284,-921.5"/>
<text text-anchor="start" x="292" y="-1384.5" font-family="Helvetica,sans-Serif" font-size="10.00">cxx::Bits::Bst&lt; Node,</text>
<text text-anchor="middle" x="347.5" y="-1373.5" font-family="Helvetica,sans-Serif" font-size="10.00"> Get_key, Compare &gt;</text>
<polyline fill="none" stroke="black" points="284,-1366.5 411,-1366.5 "/>
<text text-anchor="middle" x="347.5" y="-1354.5" font-family="Helvetica,sans-Serif" font-size="10.00"> </text>
<polyline fill="none" stroke="black" points="284,-1347.5 411,-1347.5 "/>
<text text-anchor="start" x="292" y="-1335.5" font-family="Helvetica,sans-Serif" font-size="10.00">+ begin()</text>
<text text-anchor="start" x="292" y="-1324.5" font-family="Helvetica,sans-Serif" font-size="10.00">+ end()</text>
<text text-anchor="start" x="292" y="-1313.5" font-family="Helvetica,sans-Serif" font-size="10.00">+ begin()</text>
<text text-anchor="start" x="292" y="-1302.5" font-family="Helvetica,sans-Serif" font-size="10.00">+ end()</text>
<text text-anchor="start" x="292" y="-1291.5" font-family="Helvetica,sans-Serif" font-size="10.00">+ rbegin()</text>
<text text-anchor="start" x="292" y="-1280.5" font-family="Helvetica,sans-Serif" font-size="10.00">+ rend()</text>
<text text-anchor="start" x="292" y="-1269.5" font-family="Helvetica,sans-Serif" font-size="10.00">+ rbegin()</text>
<text text-anchor="start" x="292" y="-1258.5" font-family="Helvetica,sans-Serif" font-size="10.00">+ rend()</text>
<text text-anchor="start" x="292" y="-1247.5" font-family="Helvetica,sans-Serif" font-size="10.00">+ find_node()</text>
<text text-anchor="start" x="292" y="-1236.5" font-family="Helvetica,sans-Serif" font-size="10.00">+ lower_bound_node()</text>
<text text-anchor="start" x="292" y="-1225.5" font-family="Helvetica,sans-Serif" font-size="10.00">+ find()</text>
<text text-anchor="start" x="292" y="-1214.5" font-family="Helvetica,sans-Serif" font-size="10.00">+ remove_all()</text>
<text text-anchor="start" x="292" y="-1203.5" font-family="Helvetica,sans-Serif" font-size="10.00">* Iterator</text>
<text text-anchor="start" x="292" y="-1192.5" font-family="Helvetica,sans-Serif" font-size="10.00">* Const_iterator</text>
<text text-anchor="start" x="292" y="-1181.5" font-family="Helvetica,sans-Serif" font-size="10.00">* Rev_iterator</text>
<text text-anchor="start" x="292" y="-1170.5" font-family="Helvetica,sans-Serif" font-size="10.00">* Const_rev_iterator</text>
<text text-anchor="start" x="292" y="-1159.5" font-family="Helvetica,sans-Serif" font-size="10.00">* _head</text>
<text text-anchor="start" x="292" y="-1148.5" font-family="Helvetica,sans-Serif" font-size="10.00">* Bst()</text>
<text text-anchor="start" x="292" y="-1137.5" font-family="Helvetica,sans-Serif" font-size="10.00">* head()</text>
<text text-anchor="start" x="292" y="-1126.5" font-family="Helvetica,sans-Serif" font-size="10.00">* k()</text>
<text text-anchor="start" x="292" y="-1115.5" font-family="Helvetica,sans-Serif" font-size="10.00">* dir()</text>
<text text-anchor="start" x="292" y="-1104.5" font-family="Helvetica,sans-Serif" font-size="10.00">* dir()</text>
<text text-anchor="start" x="292" y="-1093.5" font-family="Helvetica,sans-Serif" font-size="10.00">* greater()</text>
<text text-anchor="start" x="292" y="-1082.5" font-family="Helvetica,sans-Serif" font-size="10.00">* greater()</text>
<text text-anchor="start" x="292" y="-1071.5" font-family="Helvetica,sans-Serif" font-size="10.00">* greater()</text>
<text text-anchor="start" x="292" y="-1060.5" font-family="Helvetica,sans-Serif" font-size="10.00">* remove_tree()</text>
<text text-anchor="start" x="292" y="-1049.5" font-family="Helvetica,sans-Serif" font-size="10.00">* begin()</text>
<text text-anchor="start" x="292" y="-1038.5" font-family="Helvetica,sans-Serif" font-size="10.00">* end()</text>
<text text-anchor="start" x="292" y="-1027.5" font-family="Helvetica,sans-Serif" font-size="10.00">* begin()</text>
<text text-anchor="start" x="292" y="-1016.5" font-family="Helvetica,sans-Serif" font-size="10.00">* end()</text>
<text text-anchor="start" x="292" y="-1005.5" font-family="Helvetica,sans-Serif" font-size="10.00">* rbegin()</text>
<text text-anchor="start" x="292" y="-994.5" font-family="Helvetica,sans-Serif" font-size="10.00">* rend()</text>
<text text-anchor="start" x="292" y="-983.5" font-family="Helvetica,sans-Serif" font-size="10.00">* rbegin()</text>
<text text-anchor="start" x="292" y="-972.5" font-family="Helvetica,sans-Serif" font-size="10.00">* rend()</text>
<text text-anchor="start" x="292" y="-961.5" font-family="Helvetica,sans-Serif" font-size="10.00">* find_node()</text>
<text text-anchor="start" x="292" y="-950.5" font-family="Helvetica,sans-Serif" font-size="10.00">* lower_bound_node()</text>
<text text-anchor="start" x="292" y="-939.5" font-family="Helvetica,sans-Serif" font-size="10.00">* find()</text>
<text text-anchor="start" x="292" y="-928.5" font-family="Helvetica,sans-Serif" font-size="10.00">* remove_all()</text>
</a>
</g>
</g>
<!-- Node2 -->
<g id="node2" class="node">
<title>Node2</title>
<g id="a_node2"><a xlink:href="classcxx_1_1Avl__tree.html" target="_top" xlink:title=" ">
<polygon fill="white" stroke="black" points="0,-0.5 0,-134.5 147,-134.5 147,-0.5 0,-0.5"/>
<text text-anchor="start" x="8" y="-122.5" font-family="Helvetica,sans-Serif" font-size="10.00">cxx::Avl_tree&lt; _Node,</text>
<text text-anchor="start" x="8" y="-111.5" font-family="Helvetica,sans-Serif" font-size="10.00"> Bits::Avl_set_get_key</text>
<text text-anchor="start" x="8" y="-100.5" font-family="Helvetica,sans-Serif" font-size="10.00">&lt; ITEM_TYPE &gt;, Lt_functor</text>
<text text-anchor="middle" x="73.5" y="-89.5" font-family="Helvetica,sans-Serif" font-size="10.00">&lt; ITEM_TYPE &gt; &gt;</text>
<polyline fill="none" stroke="black" points="0,-82.5 147,-82.5 "/>
<text text-anchor="middle" x="73.5" y="-70.5" font-family="Helvetica,sans-Serif" font-size="10.00"> </text>
<polyline fill="none" stroke="black" points="0,-63.5 147,-63.5 "/>
<text text-anchor="start" x="8" y="-51.5" font-family="Helvetica,sans-Serif" font-size="10.00">+ Avl_tree()</text>
<text text-anchor="start" x="8" y="-40.5" font-family="Helvetica,sans-Serif" font-size="10.00">+ insert()</text>
<text text-anchor="start" x="8" y="-29.5" font-family="Helvetica,sans-Serif" font-size="10.00">+ remove()</text>
<text text-anchor="start" x="8" y="-18.5" font-family="Helvetica,sans-Serif" font-size="10.00">+ erase()</text>
<text text-anchor="start" x="8" y="-7.5" font-family="Helvetica,sans-Serif" font-size="10.00">+ ~Avl_tree()</text>
</a>
</g>
</g>
<!-- Node1&#45;&gt;Node2 -->
<g id="edge1" class="edge">
<title>Node1&#45;&gt;Node2</title>
<path fill="none" stroke="midnightblue" d="M276.91,-1091.2C221.37,-1033.72 147.82,-945.47 113.5,-852 21.13,-600.45 47.11,-272.76 64.09,-134.56"/>
<polygon fill="none" stroke="midnightblue" points="274.44,-1093.69 283.93,-1098.41 279.45,-1088.8 274.44,-1093.69"/>
</g>
<!-- Node3 -->
<g id="node3" class="node">
<title>Node3</title>
<g id="a_node3"><a xlink:href="classcxx_1_1Avl__tree.html" target="_top" xlink:title=" ">
<polygon fill="white" stroke="black" points="202,-11.5 202,-123.5 321,-123.5 321,-11.5 202,-11.5"/>
<text text-anchor="start" x="210" y="-111.5" font-family="Helvetica,sans-Serif" font-size="10.00">cxx::Avl_tree&lt; Entry,</text>
<text text-anchor="middle" x="261.5" y="-100.5" font-family="Helvetica,sans-Serif" font-size="10.00"> Names_get_key &gt;</text>
<polyline fill="none" stroke="black" points="202,-93.5 321,-93.5 "/>
<text text-anchor="middle" x="261.5" y="-81.5" font-family="Helvetica,sans-Serif" font-size="10.00"> </text>
<polyline fill="none" stroke="black" points="202,-74.5 321,-74.5 "/>
<text text-anchor="start" x="210" y="-62.5" font-family="Helvetica,sans-Serif" font-size="10.00">+ Avl_tree()</text>
<text text-anchor="start" x="210" y="-51.5" font-family="Helvetica,sans-Serif" font-size="10.00">+ insert()</text>
<text text-anchor="start" x="210" y="-40.5" font-family="Helvetica,sans-Serif" font-size="10.00">+ remove()</text>
<text text-anchor="start" x="210" y="-29.5" font-family="Helvetica,sans-Serif" font-size="10.00">+ erase()</text>
<text text-anchor="start" x="210" y="-18.5" font-family="Helvetica,sans-Serif" font-size="10.00">+ ~Avl_tree()</text>
</a>
</g>
</g>
<!-- Node1&#45;&gt;Node3 -->
<g id="edge2" class="edge">
<title>Node1&#45;&gt;Node3</title>
<path fill="none" stroke="midnightblue" d="M280.73,-966.15C217.02,-772.19 125.56,-462.45 89.5,-186 87.6,-171.46 80.6,-164.66 89.5,-153 107.96,-128.84 127.66,-147.21 155.5,-135 171.12,-128.15 187.12,-119.25 201.81,-110.2"/>
<polygon fill="none" stroke="midnightblue" points="277.48,-967.47 283.93,-975.87 284.13,-965.28 277.48,-967.47"/>
</g>
<!-- Node4 -->
<g id="node4" class="node">
<title>Node4</title>
<g id="a_node4"><a xlink:href="classcxx_1_1Avl__tree.html" target="_top" xlink:title=" ">
<polygon fill="white" stroke="black" points="361.5,-11.5 361.5,-123.5 489.5,-123.5 489.5,-11.5 361.5,-11.5"/>
<text text-anchor="start" x="369.5" y="-111.5" font-family="Helvetica,sans-Serif" font-size="10.00">cxx::Avl_tree&lt; _Node,</text>
<text text-anchor="middle" x="425.5" y="-100.5" font-family="Helvetica,sans-Serif" font-size="10.00"> GET_KEY, COMPARE &gt;</text>
<polyline fill="none" stroke="black" points="361.5,-93.5 489.5,-93.5 "/>
<text text-anchor="middle" x="425.5" y="-81.5" font-family="Helvetica,sans-Serif" font-size="10.00"> </text>
<polyline fill="none" stroke="black" points="361.5,-74.5 489.5,-74.5 "/>
<text text-anchor="start" x="369.5" y="-62.5" font-family="Helvetica,sans-Serif" font-size="10.00">+ Avl_tree()</text>
<text text-anchor="start" x="369.5" y="-51.5" font-family="Helvetica,sans-Serif" font-size="10.00">+ insert()</text>
<text text-anchor="start" x="369.5" y="-40.5" font-family="Helvetica,sans-Serif" font-size="10.00">+ remove()</text>
<text text-anchor="start" x="369.5" y="-29.5" font-family="Helvetica,sans-Serif" font-size="10.00">+ erase()</text>
<text text-anchor="start" x="369.5" y="-18.5" font-family="Helvetica,sans-Serif" font-size="10.00">+ ~Avl_tree()</text>
</a>
</g>
</g>
<!-- Node1&#45;&gt;Node4 -->
<g id="edge3" class="edge">
<title>Node1&#45;&gt;Node4</title>
<path fill="none" stroke="midnightblue" d="M416,-1036.67C512.66,-857.44 683.83,-508.28 742.5,-186 745.13,-171.57 752.13,-164.06 742.5,-153 723.5,-131.16 641.62,-141.86 613.5,-135 571.46,-124.74 525.65,-108.65 489.78,-94.86"/>
<polygon fill="none" stroke="midnightblue" points="412.85,-1035.14 411.17,-1045.6 419.01,-1038.47 412.85,-1035.14"/>
</g>
<!-- Node5 -->
<g id="node5" class="node">
<title>Node5</title>
<g id="a_node5"><a xlink:href="classcxx_1_1Avl__tree.html" target="_top" xlink:title=" ">
<polygon fill="white" stroke="black" points="622.5,-0.5 622.5,-134.5 764.5,-134.5 764.5,-0.5 622.5,-0.5"/>
<text text-anchor="start" x="630.5" y="-122.5" font-family="Helvetica,sans-Serif" font-size="10.00">cxx::Avl_tree&lt; _Node,</text>
<text text-anchor="start" x="630.5" y="-111.5" font-family="Helvetica,sans-Serif" font-size="10.00"> Bits::Avl_map_get_key</text>
<text text-anchor="start" x="630.5" y="-100.5" font-family="Helvetica,sans-Serif" font-size="10.00">&lt; KEY_TYPE &gt;, Lt_functor</text>
<text text-anchor="middle" x="693.5" y="-89.5" font-family="Helvetica,sans-Serif" font-size="10.00">&lt; KEY_TYPE &gt; &gt;</text>
<polyline fill="none" stroke="black" points="622.5,-82.5 764.5,-82.5 "/>
<text text-anchor="middle" x="693.5" y="-70.5" font-family="Helvetica,sans-Serif" font-size="10.00"> </text>
<polyline fill="none" stroke="black" points="622.5,-63.5 764.5,-63.5 "/>
<text text-anchor="start" x="630.5" y="-51.5" font-family="Helvetica,sans-Serif" font-size="10.00">+ Avl_tree()</text>
<text text-anchor="start" x="630.5" y="-40.5" font-family="Helvetica,sans-Serif" font-size="10.00">+ insert()</text>
<text text-anchor="start" x="630.5" y="-29.5" font-family="Helvetica,sans-Serif" font-size="10.00">+ remove()</text>
<text text-anchor="start" x="630.5" y="-18.5" font-family="Helvetica,sans-Serif" font-size="10.00">+ erase()</text>
<text text-anchor="start" x="630.5" y="-7.5" font-family="Helvetica,sans-Serif" font-size="10.00">+ ~Avl_tree()</text>
</a>
</g>
</g>
<!-- Node1&#45;&gt;Node5 -->
<g id="edge4" class="edge">
<title>Node1&#45;&gt;Node5</title>
<path fill="none" stroke="midnightblue" d="M418.6,-1098.3C481.6,-1041.45 571.17,-950.18 621.5,-852 759.35,-583.08 736.76,-487.41 758.5,-186 759.56,-171.37 763.22,-166.89 758.5,-153 756.38,-146.78 753.61,-140.66 750.39,-134.73"/>
<polygon fill="none" stroke="midnightblue" points="416.17,-1095.79 411.06,-1105.07 420.84,-1101 416.17,-1095.79"/>
</g>
<!-- Node6 -->
<g id="node6" class="node">
<title>Node6</title>
<g id="a_node6"><a xlink:href="classcxx_1_1Bits_1_1Bst.html" target="_top" xlink:title=" ">
<polygon fill="white" stroke="black" points="276,-354.5 276,-851.5 419,-851.5 419,-354.5 276,-354.5"/>
<text text-anchor="start" x="284" y="-839.5" font-family="Helvetica,sans-Serif" font-size="10.00">cxx::Bits::Bst&lt; Node,</text>
<text text-anchor="start" x="284" y="-828.5" font-family="Helvetica,sans-Serif" font-size="10.00"> Get_key, Lt_functor</text>
<text text-anchor="start" x="284" y="-817.5" font-family="Helvetica,sans-Serif" font-size="10.00">&lt; typename Get_key::Key</text>
<text text-anchor="middle" x="347.5" y="-806.5" font-family="Helvetica,sans-Serif" font-size="10.00">_type &gt; &gt;</text>
<polyline fill="none" stroke="black" points="276,-799.5 419,-799.5 "/>
<text text-anchor="middle" x="347.5" y="-787.5" font-family="Helvetica,sans-Serif" font-size="10.00"> </text>
<polyline fill="none" stroke="black" points="276,-780.5 419,-780.5 "/>
<text text-anchor="start" x="284" y="-768.5" font-family="Helvetica,sans-Serif" font-size="10.00">+ begin()</text>
<text text-anchor="start" x="284" y="-757.5" font-family="Helvetica,sans-Serif" font-size="10.00">+ begin()</text>
<text text-anchor="start" x="284" y="-746.5" font-family="Helvetica,sans-Serif" font-size="10.00">+ end()</text>
<text text-anchor="start" x="284" y="-735.5" font-family="Helvetica,sans-Serif" font-size="10.00">+ end()</text>
<text text-anchor="start" x="284" y="-724.5" font-family="Helvetica,sans-Serif" font-size="10.00">+ rbegin()</text>
<text text-anchor="start" x="284" y="-713.5" font-family="Helvetica,sans-Serif" font-size="10.00">+ rbegin()</text>
<text text-anchor="start" x="284" y="-702.5" font-family="Helvetica,sans-Serif" font-size="10.00">+ rend()</text>
<text text-anchor="start" x="284" y="-691.5" font-family="Helvetica,sans-Serif" font-size="10.00">+ rend()</text>
<text text-anchor="start" x="284" y="-680.5" font-family="Helvetica,sans-Serif" font-size="10.00">+ find_node()</text>
<text text-anchor="start" x="284" y="-669.5" font-family="Helvetica,sans-Serif" font-size="10.00">+ lower_bound_node()</text>
<text text-anchor="start" x="284" y="-658.5" font-family="Helvetica,sans-Serif" font-size="10.00">+ find()</text>
<text text-anchor="start" x="284" y="-647.5" font-family="Helvetica,sans-Serif" font-size="10.00">+ remove_all()</text>
<text text-anchor="start" x="284" y="-636.5" font-family="Helvetica,sans-Serif" font-size="10.00">* Iterator</text>
<text text-anchor="start" x="284" y="-625.5" font-family="Helvetica,sans-Serif" font-size="10.00">* Const_iterator</text>
<text text-anchor="start" x="284" y="-614.5" font-family="Helvetica,sans-Serif" font-size="10.00">* Rev_iterator</text>
<text text-anchor="start" x="284" y="-603.5" font-family="Helvetica,sans-Serif" font-size="10.00">* Const_rev_iterator</text>
<text text-anchor="start" x="284" y="-592.5" font-family="Helvetica,sans-Serif" font-size="10.00">* _head</text>
<text text-anchor="start" x="284" y="-581.5" font-family="Helvetica,sans-Serif" font-size="10.00">* Bst()</text>
<text text-anchor="start" x="284" y="-570.5" font-family="Helvetica,sans-Serif" font-size="10.00">* head()</text>
<text text-anchor="start" x="284" y="-559.5" font-family="Helvetica,sans-Serif" font-size="10.00">* k()</text>
<text text-anchor="start" x="284" y="-548.5" font-family="Helvetica,sans-Serif" font-size="10.00">* dir()</text>
<text text-anchor="start" x="284" y="-537.5" font-family="Helvetica,sans-Serif" font-size="10.00">* dir()</text>
<text text-anchor="start" x="284" y="-526.5" font-family="Helvetica,sans-Serif" font-size="10.00">* greater()</text>
<text text-anchor="start" x="284" y="-515.5" font-family="Helvetica,sans-Serif" font-size="10.00">* greater()</text>
<text text-anchor="start" x="284" y="-504.5" font-family="Helvetica,sans-Serif" font-size="10.00">* greater()</text>
<text text-anchor="start" x="284" y="-493.5" font-family="Helvetica,sans-Serif" font-size="10.00">* remove_tree()</text>
<text text-anchor="start" x="284" y="-482.5" font-family="Helvetica,sans-Serif" font-size="10.00">* begin()</text>
<text text-anchor="start" x="284" y="-471.5" font-family="Helvetica,sans-Serif" font-size="10.00">* begin()</text>
<text text-anchor="start" x="284" y="-460.5" font-family="Helvetica,sans-Serif" font-size="10.00">* end()</text>
<text text-anchor="start" x="284" y="-449.5" font-family="Helvetica,sans-Serif" font-size="10.00">* end()</text>
<text text-anchor="start" x="284" y="-438.5" font-family="Helvetica,sans-Serif" font-size="10.00">* rbegin()</text>
<text text-anchor="start" x="284" y="-427.5" font-family="Helvetica,sans-Serif" font-size="10.00">* rbegin()</text>
<text text-anchor="start" x="284" y="-416.5" font-family="Helvetica,sans-Serif" font-size="10.00">* rend()</text>
<text text-anchor="start" x="284" y="-405.5" font-family="Helvetica,sans-Serif" font-size="10.00">* rend()</text>
<text text-anchor="start" x="284" y="-394.5" font-family="Helvetica,sans-Serif" font-size="10.00">* find_node()</text>
<text text-anchor="start" x="284" y="-383.5" font-family="Helvetica,sans-Serif" font-size="10.00">* lower_bound_node()</text>
<text text-anchor="start" x="284" y="-372.5" font-family="Helvetica,sans-Serif" font-size="10.00">* find()</text>
<text text-anchor="start" x="284" y="-361.5" font-family="Helvetica,sans-Serif" font-size="10.00">* remove_all()</text>
</a>
</g>
</g>
<!-- Node1&#45;&gt;Node6 -->
<g id="edge5" class="edge">
<title>Node1&#45;&gt;Node6</title>
<path fill="none" stroke="orange" d="M347.5,-911.42C347.5,-891.58 347.5,-871.54 347.5,-851.7"/>
<polygon fill="orange" stroke="orange" points="344,-911.45 347.5,-921.45 351,-911.45 344,-911.45"/>
<text text-anchor="start" x="347.5" y="-895" font-family="Helvetica,sans-Serif" font-size="10.00"> &lt; Node, Get_key, Lt</text>
<text text-anchor="start" x="347.5" y="-884" font-family="Helvetica,sans-Serif" font-size="10.00">_functor&lt; typename Get</text>
<text text-anchor="middle" x="408" y="-873" font-family="Helvetica,sans-Serif" font-size="10.00">_key::Key_type &gt; &gt;</text>
</g>
<!-- Node7 -->
<g id="node7" class="node">
<title>Node7</title>
<g id="a_node7"><a xlink:href="classcxx_1_1Avl__tree.html" target="_top" xlink:title="A generic AVL tree.">
<polygon fill="white" stroke="black" points="287,-204.5 287,-316.5 408,-316.5 408,-204.5 287,-204.5"/>
<text text-anchor="start" x="295" y="-304.5" font-family="Helvetica,sans-Serif" font-size="10.00">cxx::Avl_tree&lt; Node,</text>
<text text-anchor="middle" x="347.5" y="-293.5" font-family="Helvetica,sans-Serif" font-size="10.00"> Get_key, Compare &gt;</text>
<polyline fill="none" stroke="black" points="287,-286.5 408,-286.5 "/>
<text text-anchor="middle" x="347.5" y="-274.5" font-family="Helvetica,sans-Serif" font-size="10.00"> </text>
<polyline fill="none" stroke="black" points="287,-267.5 408,-267.5 "/>
<text text-anchor="start" x="295" y="-255.5" font-family="Helvetica,sans-Serif" font-size="10.00">+ insert()</text>
<text text-anchor="start" x="295" y="-244.5" font-family="Helvetica,sans-Serif" font-size="10.00">+ remove()</text>
<text text-anchor="start" x="295" y="-233.5" font-family="Helvetica,sans-Serif" font-size="10.00">+ erase()</text>
<text text-anchor="start" x="295" y="-222.5" font-family="Helvetica,sans-Serif" font-size="10.00">+ Avl_tree()</text>
<text text-anchor="start" x="295" y="-211.5" font-family="Helvetica,sans-Serif" font-size="10.00">+ ~Avl_tree()</text>
</a>
</g>
</g>
<!-- Node6&#45;&gt;Node7 -->
<g id="edge6" class="edge">
<title>Node6&#45;&gt;Node7</title>
<path fill="none" stroke="midnightblue" d="M347.5,-343.86C347.5,-334.21 347.5,-325.08 347.5,-316.66"/>
<polygon fill="none" stroke="midnightblue" points="344,-344.09 347.5,-354.09 351,-344.09 344,-344.09"/>
</g>
<!-- Node7&#45;&gt;Node2 -->
<g id="edge7" class="edge">
<title>Node7&#45;&gt;Node2</title>
<path fill="none" stroke="orange" d="M276.91,-254.12C225.39,-246.6 157.2,-228.67 113.5,-186 99.39,-172.22 90.26,-153.29 84.35,-134.63"/>
<polygon fill="orange" stroke="orange" points="276.6,-257.61 286.98,-255.48 277.54,-250.67 276.6,-257.61"/>
<text text-anchor="start" x="113.5" y="-178" font-family="Helvetica,sans-Serif" font-size="10.00"> &lt; _Node, Bits::Avl</text>
<text text-anchor="start" x="113.5" y="-167" font-family="Helvetica,sans-Serif" font-size="10.00">_set_get_key&lt; ITEM_TYPE</text>
<text text-anchor="middle" x="190.5" y="-156" font-family="Helvetica,sans-Serif" font-size="10.00"> &gt;, Lt_functor&lt; ITEM_TYPE &gt; &gt;</text>
</g>
<!-- Node7&#45;&gt;Node3 -->
<g id="edge8" class="edge">
<title>Node7&#45;&gt;Node3</title>
<path fill="none" stroke="orange" d="M287.89,-195.89C285.93,-192.64 284.12,-189.34 282.5,-186 273.21,-166.79 267.99,-144.01 265.08,-123.65"/>
<polygon fill="orange" stroke="orange" points="285.01,-197.89 293.4,-204.36 290.88,-194.07 285.01,-197.89"/>
<text text-anchor="start" x="282.5" y="-172.5" font-family="Helvetica,sans-Serif" font-size="10.00"> &lt; Entry, Names_get</text>
<text text-anchor="middle" x="333.5" y="-161.5" font-family="Helvetica,sans-Serif" font-size="10.00">_key &gt;</text>
</g>
<!-- Node7&#45;&gt;Node4 -->
<g id="edge9" class="edge">
<title>Node7&#45;&gt;Node4</title>
<path fill="none" stroke="orange" d="M384.36,-195.14C385.81,-192.08 387.2,-189.02 388.5,-186 397.05,-166.16 404.61,-143.69 410.64,-123.75"/>
<polygon fill="orange" stroke="orange" points="381.11,-193.8 379.84,-204.32 387.4,-196.89 381.11,-193.8"/>
<text text-anchor="middle" x="480.5" y="-167" font-family="Helvetica,sans-Serif" font-size="10.00"> &lt; _Node, GET_KEY, COMPARE &gt;</text>
</g>
<!-- Node7&#45;&gt;Node5 -->
<g id="edge10" class="edge">
<title>Node7&#45;&gt;Node5</title>
<path fill="none" stroke="orange" d="M418.14,-243.49C462.18,-231.64 518.95,-212.85 564.5,-186 588.25,-172 611.41,-153.11 631.41,-134.57"/>
<polygon fill="orange" stroke="orange" points="417.15,-240.13 408.37,-246.06 418.94,-246.9 417.15,-240.13"/>
<text text-anchor="start" x="606.5" y="-178" font-family="Helvetica,sans-Serif" font-size="10.00"> &lt; _Node, Bits::Avl</text>
<text text-anchor="start" x="606.5" y="-167" font-family="Helvetica,sans-Serif" font-size="10.00">_map_get_key&lt; KEY_TYPE</text>
<text text-anchor="middle" x="680.5" y="-156" font-family="Helvetica,sans-Serif" font-size="10.00"> &gt;, Lt_functor&lt; KEY_TYPE &gt; &gt;</text>
</g>
</g>
</svg>
