<?xml version="1.0" encoding="UTF-8" standalone="no"?>
<!DOCTYPE svg PUBLIC "-//W3C//DTD SVG 1.1//EN"
 "http://www.w3.org/Graphics/SVG/1.1/DTD/svg11.dtd">
<!-- Generated by graphviz version 2.43.0 (0)
 -->
<!-- Title: cxx::H_list::remove Pages: 1 -->
<svg width="599pt" height="181pt"
 viewBox="0.00 0.00 599.00 181.00" xmlns="http://www.w3.org/2000/svg" xmlns:xlink="http://www.w3.org/1999/xlink">
<g id="graph0" class="graph" transform="scale(1 1) rotate(0) translate(4 177)">
<title>cxx::H_list::remove</title>
<polygon fill="white" stroke="transparent" points="-4,4 -4,-177 595,-177 595,4 -4,4"/>
<!-- Node1 -->
<g id="node1" class="node">
<title>Node1</title>
<g id="a_node1"><a xlink:title="Remove the given element from its list.">
<polygon fill="#bfbfbf" stroke="black" points="480,-74.5 480,-93.5 591,-93.5 591,-74.5 480,-74.5"/>
<text text-anchor="middle" x="535.5" y="-81.5" font-family="Helvetica,sans-Serif" font-size="10.00">cxx::H_list::remove</text>
</a>
</g>
</g>
<!-- Node2 -->
<g id="node2" class="node">
<title>Node2</title>
<g id="a_node2"><a xlink:href="classcxx_1_1Base__slab.html#a48ac5e888c4292fc5b1662b3a5e01997" target="_top" xlink:title="Allocate a new object.">
<polygon fill="white" stroke="black" points="163.5,-131.5 163.5,-150.5 282.5,-150.5 282.5,-131.5 163.5,-131.5"/>
<text text-anchor="middle" x="223" y="-138.5" font-family="Helvetica,sans-Serif" font-size="10.00">cxx::Base_slab::alloc</text>
</a>
</g>
</g>
<!-- Node1&#45;&gt;Node2 -->
<g id="edge1" class="edge">
<title>Node1&#45;&gt;Node2</title>
<path fill="none" stroke="midnightblue" d="M507.26,-98.07C489.68,-106.48 466.06,-116.56 444,-122 390.4,-135.22 327.49,-139.58 282.71,-140.86"/>
<polygon fill="midnightblue" stroke="midnightblue" points="508.92,-101.15 516.36,-93.61 505.84,-94.87 508.92,-101.15"/>
</g>
<!-- Node5 -->
<g id="node5" class="node">
<title>Node5</title>
<g id="a_node5"><a xlink:href="classcxx_1_1Base__slab.html#af7f8144a14030567ab8f83e88b9cf20b" target="_top" xlink:title="Free the given object (_o).">
<polygon fill="white" stroke="black" points="326.5,-93.5 326.5,-112.5 441.5,-112.5 441.5,-93.5 326.5,-93.5"/>
<text text-anchor="middle" x="384" y="-100.5" font-family="Helvetica,sans-Serif" font-size="10.00">cxx::Base_slab::free</text>
</a>
</g>
</g>
<!-- Node1&#45;&gt;Node5 -->
<g id="edge4" class="edge">
<title>Node1&#45;&gt;Node5</title>
<path fill="none" stroke="midnightblue" d="M469.65,-92.24C460.3,-93.43 450.74,-94.65 441.57,-95.81"/>
<polygon fill="midnightblue" stroke="midnightblue" points="470.2,-95.7 479.68,-90.97 469.32,-88.76 470.2,-95.7"/>
</g>
<!-- Node7 -->
<g id="node7" class="node">
<title>Node7</title>
<g id="a_node7"><a xlink:href="classcxx_1_1H__list.html#a4e7e01b097cbccbf8beffd2a6fbe17ac" target="_top" xlink:title="Remove and return the head element of the list.">
<polygon fill="white" stroke="black" points="324,-55.5 324,-74.5 444,-74.5 444,-55.5 324,-55.5"/>
<text text-anchor="middle" x="384" y="-62.5" font-family="Helvetica,sans-Serif" font-size="10.00">cxx::H_list::pop_front</text>
</a>
</g>
</g>
<!-- Node1&#45;&gt;Node7 -->
<g id="edge7" class="edge">
<title>Node1&#45;&gt;Node7</title>
<path fill="none" stroke="midnightblue" d="M469.49,-75.74C461.05,-74.66 452.43,-73.57 444.09,-72.51"/>
<polygon fill="midnightblue" stroke="midnightblue" points="469.32,-79.24 479.68,-77.03 470.2,-72.3 469.32,-79.24"/>
</g>
<!-- Node8 -->
<g id="node8" class="node">
<title>Node8</title>
<g id="a_node8"><a xlink:href="classL4_1_1Ipc__svr_1_1Timeout__queue.html#a172e0ca0f7fcb845b75939c4f30ceebb" target="_top" xlink:title="Remove timeout from the queue.">
<polygon fill="white" stroke="black" points="326.5,-6 326.5,-36 441.5,-36 441.5,-6 326.5,-6"/>
<text text-anchor="start" x="334.5" y="-24" font-family="Helvetica,sans-Serif" font-size="10.00">L4::Ipc_svr::Timeout</text>
<text text-anchor="middle" x="384" y="-13" font-family="Helvetica,sans-Serif" font-size="10.00">_queue::remove</text>
</a>
</g>
</g>
<!-- Node1&#45;&gt;Node8 -->
<g id="edge8" class="edge">
<title>Node1&#45;&gt;Node8</title>
<path fill="none" stroke="midnightblue" d="M502.42,-70.48C478.42,-60.37 445.59,-46.53 420.75,-36.07"/>
<polygon fill="midnightblue" stroke="midnightblue" points="501.22,-73.77 511.79,-74.43 503.94,-67.32 501.22,-73.77"/>
</g>
<!-- Node3 -->
<g id="node3" class="node">
<title>Node3</title>
<g id="a_node3"><a xlink:href="classcxx_1_1Slab.html#a18f3fa63befc64e1f89b4c566069ed60" target="_top" xlink:title="Allocate an object of type Type.">
<polygon fill="white" stroke="black" points="16,-153.5 16,-172.5 106,-172.5 106,-153.5 16,-153.5"/>
<text text-anchor="middle" x="61" y="-160.5" font-family="Helvetica,sans-Serif" font-size="10.00">cxx::Slab::alloc</text>
</a>
</g>
</g>
<!-- Node2&#45;&gt;Node3 -->
<g id="edge2" class="edge">
<title>Node2&#45;&gt;Node3</title>
<path fill="none" stroke="midnightblue" d="M153,-150.49C137.11,-152.67 120.62,-154.94 106.12,-156.93"/>
<polygon fill="midnightblue" stroke="midnightblue" points="153.9,-153.9 163.33,-149.07 152.95,-146.96 153.9,-153.9"/>
</g>
<!-- Node4 -->
<g id="node4" class="node">
<title>Node4</title>
<g id="a_node4"><a xlink:href="classcxx_1_1Base__slab__static.html#ac14d1b49aa4cae0545c3965f63bb9892" target="_top" xlink:title="Allocate an object.">
<polygon fill="white" stroke="black" points="0,-104 0,-134 122,-134 122,-104 0,-104"/>
<text text-anchor="start" x="8" y="-122" font-family="Helvetica,sans-Serif" font-size="10.00">cxx::Base_slab_static</text>
<text text-anchor="middle" x="61" y="-111" font-family="Helvetica,sans-Serif" font-size="10.00">::alloc</text>
</a>
</g>
</g>
<!-- Node2&#45;&gt;Node4 -->
<g id="edge3" class="edge">
<title>Node2&#45;&gt;Node4</title>
<path fill="none" stroke="midnightblue" d="M153.42,-131.57C142.97,-130.13 132.25,-128.66 122,-127.25"/>
<polygon fill="midnightblue" stroke="midnightblue" points="152.95,-135.04 163.33,-132.93 153.9,-128.1 152.95,-135.04"/>
</g>
<!-- Node5&#45;&gt;Node2 -->
<g id="edge5" class="edge">
<title>Node5&#45;&gt;Node2</title>
<path fill="none" stroke="midnightblue" d="M332.92,-114.97C310.64,-120.29 284.77,-126.48 263.83,-131.48"/>
<polygon fill="midnightblue" stroke="midnightblue" points="333.97,-118.32 342.88,-112.59 332.34,-111.51 333.97,-118.32"/>
</g>
<!-- Node6 -->
<g id="node6" class="node">
<title>Node6</title>
<g id="a_node6"><a xlink:href="classcxx_1_1Base__slab__static.html#ac373452de268f7dfb05cc73f51bfd8ce" target="_top" xlink:title="Free the given object (p).">
<polygon fill="white" stroke="black" points="162,-82 162,-112 284,-112 284,-82 162,-82"/>
<text text-anchor="start" x="170" y="-100" font-family="Helvetica,sans-Serif" font-size="10.00">cxx::Base_slab_static</text>
<text text-anchor="middle" x="223" y="-89" font-family="Helvetica,sans-Serif" font-size="10.00">::free</text>
</a>
</g>
</g>
<!-- Node5&#45;&gt;Node6 -->
<g id="edge6" class="edge">
<title>Node5&#45;&gt;Node6</title>
<path fill="none" stroke="midnightblue" d="M316.36,-100.49C305.65,-100.08 294.63,-99.67 284.09,-99.27"/>
<polygon fill="midnightblue" stroke="midnightblue" points="316.37,-103.99 326.49,-100.87 316.63,-96.99 316.37,-103.99"/>
</g>
<!-- Node9 -->
<g id="node9" class="node">
<title>Node9</title>
<g id="a_node9"><a xlink:href="classL4_1_1Ipc__svr_1_1Timeout__queue__hooks.html#ab1fba549749a3efc182d719e22d23a4e" target="_top" xlink:title="Remove timeout from the queue.">
<polygon fill="white" stroke="black" points="158,-0.5 158,-41.5 288,-41.5 288,-0.5 158,-0.5"/>
<text text-anchor="start" x="166" y="-29.5" font-family="Helvetica,sans-Serif" font-size="10.00">L4::Ipc_svr::Timeout</text>
<text text-anchor="start" x="166" y="-18.5" font-family="Helvetica,sans-Serif" font-size="10.00">_queue_hooks::remove</text>
<text text-anchor="middle" x="223" y="-7.5" font-family="Helvetica,sans-Serif" font-size="10.00">_timeout</text>
</a>
</g>
</g>
<!-- Node8&#45;&gt;Node9 -->
<g id="edge9" class="edge">
<title>Node8&#45;&gt;Node9</title>
<path fill="none" stroke="midnightblue" d="M316.46,-21C307.1,-21 297.49,-21 288.18,-21"/>
<polygon fill="midnightblue" stroke="midnightblue" points="316.49,-24.5 326.49,-21 316.49,-17.5 316.49,-24.5"/>
</g>
</g>
</svg>
