<?xml version="1.0" encoding="UTF-8" standalone="no"?>
<!DOCTYPE svg PUBLIC "-//W3C//DTD SVG 1.1//EN"
 "http://www.w3.org/Graphics/SVG/1.1/DTD/svg11.dtd">
<!-- Generated by graphviz version 2.43.0 (0)
 -->
<!-- Title: cxx::Avl_tree::remove Pages: 1 -->
<svg width="425pt" height="78pt"
 viewBox="0.00 0.00 425.00 77.50" xmlns="http://www.w3.org/2000/svg" xmlns:xlink="http://www.w3.org/1999/xlink">
<g id="graph0" class="graph" transform="scale(1 1) rotate(0) translate(4 73.5)">
<title>cxx::Avl_tree::remove</title>
<polygon fill="white" stroke="transparent" points="-4,4 -4,-73.5 421,-73.5 421,4 -4,4"/>
<!-- Node1 -->
<g id="node1" class="node">
<title>Node1</title>
<g id="a_node1"><a xlink:title="Remove the node with key from the tree.">
<polygon fill="#bfbfbf" stroke="black" points="294,-28 294,-47 417,-47 417,-28 294,-28"/>
<text text-anchor="middle" x="355.5" y="-35" font-family="Helvetica,sans-Serif" font-size="10.00">cxx::Avl_tree::remove</text>
</a>
</g>
</g>
<!-- Node2 -->
<g id="node2" class="node">
<title>Node2</title>
<g id="a_node2"><a xlink:href="classcxx_1_1Avl__tree.html#adad81caf6b924341f424d2dd1e64f873" target="_top" xlink:title="An alias for remove().">
<polygon fill="white" stroke="black" points="145,-50 145,-69 258,-69 258,-50 145,-50"/>
<text text-anchor="middle" x="201.5" y="-57" font-family="Helvetica,sans-Serif" font-size="10.00">cxx::Avl_tree::erase</text>
</a>
</g>
</g>
<!-- Node1&#45;&gt;Node2 -->
<g id="edge1" class="edge">
<title>Node1&#45;&gt;Node2</title>
<path fill="none" stroke="midnightblue" d="M283.97,-47.71C275.38,-48.95 266.7,-50.21 258.36,-51.41"/>
<polygon fill="midnightblue" stroke="midnightblue" points="284.59,-51.15 293.99,-46.26 283.59,-44.23 284.59,-51.15"/>
</g>
<!-- Node3 -->
<g id="node3" class="node">
<title>Node3</title>
<g id="a_node3"><a xlink:href="classcxx_1_1Bits_1_1Base__avl__set.html#a74890468049590443959526dbd52030d" target="_top" xlink:title="Remove an item from the set.">
<polygon fill="white" stroke="black" points="147,-0.5 147,-30.5 256,-30.5 256,-0.5 147,-0.5"/>
<text text-anchor="start" x="155" y="-18.5" font-family="Helvetica,sans-Serif" font-size="10.00">cxx::Bits::Base_avl</text>
<text text-anchor="middle" x="201.5" y="-7.5" font-family="Helvetica,sans-Serif" font-size="10.00">_set::remove</text>
</a>
</g>
</g>
<!-- Node1&#45;&gt;Node3 -->
<g id="edge2" class="edge">
<title>Node1&#45;&gt;Node3</title>
<path fill="none" stroke="midnightblue" d="M284,-27.3C274.73,-25.95 265.34,-24.6 256.41,-23.3"/>
<polygon fill="midnightblue" stroke="midnightblue" points="283.59,-30.77 293.99,-28.74 284.59,-23.85 283.59,-30.77"/>
</g>
<!-- Node4 -->
<g id="node4" class="node">
<title>Node4</title>
<g id="a_node4"><a xlink:href="classcxx_1_1Bits_1_1Base__avl__set.html#ac23e6ce546c6c8c0721f1e5937428387" target="_top" xlink:title="Erase the item with the given key.">
<polygon fill="white" stroke="black" points="0,-0.5 0,-30.5 109,-30.5 109,-0.5 0,-0.5"/>
<text text-anchor="start" x="8" y="-18.5" font-family="Helvetica,sans-Serif" font-size="10.00">cxx::Bits::Base_avl</text>
<text text-anchor="middle" x="54.5" y="-7.5" font-family="Helvetica,sans-Serif" font-size="10.00">_set::erase</text>
</a>
</g>
</g>
<!-- Node3&#45;&gt;Node4 -->
<g id="edge3" class="edge">
<title>Node3&#45;&gt;Node4</title>
<path fill="none" stroke="midnightblue" d="M136.72,-15.5C127.58,-15.5 118.26,-15.5 109.34,-15.5"/>
<polygon fill="midnightblue" stroke="midnightblue" points="136.92,-19 146.92,-15.5 136.92,-12 136.92,-19"/>
</g>
</g>
</svg>
