<?xml version="1.0" encoding="UTF-8" standalone="no"?>
<!DOCTYPE svg PUBLIC "-//W3C//DTD SVG 1.1//EN"
 "http://www.w3.org/Graphics/SVG/1.1/DTD/svg11.dtd">
<!-- Generated by graphviz version 2.43.0 (0)
 -->
<!-- Title: L4Re::Util::Counting_cap_alloc::alloc Pages: 1 -->
<svg width="315pt" height="303pt"
 viewBox="0.00 0.00 315.00 303.00" xmlns="http://www.w3.org/2000/svg" xmlns:xlink="http://www.w3.org/1999/xlink">
<g id="graph0" class="graph" transform="scale(1 1) rotate(0) translate(4 299)">
<title>L4Re::Util::Counting_cap_alloc::alloc</title>
<polygon fill="white" stroke="transparent" points="-4,4 -4,-299 311,-299 311,4 -4,4"/>
<!-- Node1 -->
<g id="node1" class="node">
<title>Node1</title>
<g id="a_node1"><a xlink:title="Allocate a new capability slot.">
<polygon fill="#bfbfbf" stroke="black" points="194,-132.5 194,-162.5 307,-162.5 307,-132.5 194,-132.5"/>
<text text-anchor="start" x="202" y="-150.5" font-family="Helvetica,sans-Serif" font-size="10.00">L4Re::Util::Counting</text>
<text text-anchor="middle" x="250.5" y="-139.5" font-family="Helvetica,sans-Serif" font-size="10.00">_cap_alloc::alloc</text>
</a>
</g>
</g>
<!-- Node2 -->
<g id="node2" class="node">
<title>Node2</title>
<g id="a_node2"><a xlink:href="classL4Re_1_1Util_1_1Counting__cap__alloc.html#a7620032a3a03d07e70b95f92776e82c2" target="_top" xlink:title="Allocate a new capability slot.">
<polygon fill="white" stroke="black" points="22.5,-264.5 22.5,-294.5 135.5,-294.5 135.5,-264.5 22.5,-264.5"/>
<text text-anchor="start" x="30.5" y="-282.5" font-family="Helvetica,sans-Serif" font-size="10.00">L4Re::Util::Counting</text>
<text text-anchor="middle" x="79" y="-271.5" font-family="Helvetica,sans-Serif" font-size="10.00">_cap_alloc::alloc</text>
</a>
</g>
</g>
<!-- Node1&#45;&gt;Node2 -->
<g id="edge1" class="edge">
<title>Node1&#45;&gt;Node2</title>
<path fill="none" stroke="midnightblue" d="M234.97,-171.2C218.95,-195.43 191.03,-232.54 158,-254.5 151.25,-258.99 143.64,-262.72 135.89,-265.8"/>
<polygon fill="midnightblue" stroke="midnightblue" points="238.03,-172.9 240.51,-162.6 232.15,-169.11 238.03,-172.9"/>
</g>
<!-- Node3 -->
<g id="node3" class="node">
<title>Node3</title>
<g id="a_node3"><a xlink:href="namespaceL4Re_1_1Util.html#aa47ac0998b99a90c541a2df23ed9f4fe" target="_top" xlink:title="Allocate a capability slot and wrap it in a Ref_cap.">
<polygon fill="white" stroke="black" points="10,-226 10,-245 148,-245 148,-226 10,-226"/>
<text text-anchor="middle" x="79" y="-233" font-family="Helvetica,sans-Serif" font-size="10.00">L4Re::Util::make_ref_cap</text>
</a>
</g>
</g>
<!-- Node1&#45;&gt;Node3 -->
<g id="edge2" class="edge">
<title>Node1&#45;&gt;Node3</title>
<path fill="none" stroke="midnightblue" d="M226.17,-169.38C208.66,-184.68 183.41,-204.46 158,-216.5 149.94,-220.32 141.03,-223.42 132.21,-225.91"/>
<polygon fill="midnightblue" stroke="midnightblue" points="228.52,-171.97 233.65,-162.7 223.86,-166.75 228.52,-171.97"/>
</g>
<!-- Node4 -->
<g id="node4" class="node">
<title>Node4</title>
<g id="a_node4"><a xlink:href="namespaceL4Re_1_1Util.html#aee6401b410f38f5cd94bb5406f742b65" target="_top" xlink:title="Allocate a capability slot and wrap it in a Ref_del_cap.">
<polygon fill="white" stroke="black" points="21,-176.5 21,-206.5 137,-206.5 137,-176.5 21,-176.5"/>
<text text-anchor="start" x="29" y="-194.5" font-family="Helvetica,sans-Serif" font-size="10.00">L4Re::Util::make_ref</text>
<text text-anchor="middle" x="79" y="-183.5" font-family="Helvetica,sans-Serif" font-size="10.00">_del_cap</text>
</a>
</g>
</g>
<!-- Node1&#45;&gt;Node4 -->
<g id="edge3" class="edge">
<title>Node1&#45;&gt;Node4</title>
<path fill="none" stroke="midnightblue" d="M183.99,-164.51C168.52,-168.52 152.14,-172.77 137.08,-176.68"/>
<polygon fill="midnightblue" stroke="midnightblue" points="185.2,-167.81 194,-161.91 183.44,-161.03 185.2,-167.81"/>
</g>
<!-- Node5 -->
<g id="node5" class="node">
<title>Node5</title>
<g id="a_node5"><a xlink:href="namespaceL4Re_1_1Util.html#a365e03bc16cebbdc705f6b977e9b584a" target="_top" xlink:title="Allocate a capability slot and wrap it in a Shared_cap.">
<polygon fill="white" stroke="black" points="0,-138 0,-157 158,-157 158,-138 0,-138"/>
<text text-anchor="middle" x="79" y="-145" font-family="Helvetica,sans-Serif" font-size="10.00">L4Re::Util::make_shared_cap</text>
</a>
</g>
</g>
<!-- Node1&#45;&gt;Node5 -->
<g id="edge4" class="edge">
<title>Node1&#45;&gt;Node5</title>
<path fill="none" stroke="midnightblue" d="M183.86,-147.5C175.41,-147.5 166.7,-147.5 158.08,-147.5"/>
<polygon fill="midnightblue" stroke="midnightblue" points="184,-151 194,-147.5 184,-144 184,-151"/>
</g>
<!-- Node6 -->
<g id="node6" class="node">
<title>Node6</title>
<g id="a_node6"><a xlink:href="namespaceL4Re_1_1Util.html#ab6ee1adc2284a9324243338e17aff922" target="_top" xlink:title="Allocate a capability slot and wrap it in a Shared_del_cap.">
<polygon fill="white" stroke="black" points="11.5,-88.5 11.5,-118.5 146.5,-118.5 146.5,-88.5 11.5,-88.5"/>
<text text-anchor="start" x="19.5" y="-106.5" font-family="Helvetica,sans-Serif" font-size="10.00">L4Re::Util::make_shared</text>
<text text-anchor="middle" x="79" y="-95.5" font-family="Helvetica,sans-Serif" font-size="10.00">_del_cap</text>
</a>
</g>
</g>
<!-- Node1&#45;&gt;Node6 -->
<g id="edge5" class="edge">
<title>Node1&#45;&gt;Node6</title>
<path fill="none" stroke="midnightblue" d="M184.15,-130.54C168.93,-126.58 152.83,-122.41 137.95,-118.54"/>
<polygon fill="midnightblue" stroke="midnightblue" points="183.44,-133.97 194,-133.09 185.2,-127.19 183.44,-133.97"/>
</g>
<!-- Node7 -->
<g id="node7" class="node">
<title>Node7</title>
<g id="a_node7"><a xlink:href="namespaceL4Re_1_1Util.html#ae08b4a4eb21c40fd6e104b6c1f79fc7f" target="_top" xlink:title="Allocate a capability slot and wrap it in an Unique_cap.">
<polygon fill="white" stroke="black" points="0,-50 0,-69 158,-69 158,-50 0,-50"/>
<text text-anchor="middle" x="79" y="-57" font-family="Helvetica,sans-Serif" font-size="10.00">L4Re::Util::make_unique_cap</text>
</a>
</g>
</g>
<!-- Node1&#45;&gt;Node7 -->
<g id="edge6" class="edge">
<title>Node1&#45;&gt;Node7</title>
<path fill="none" stroke="midnightblue" d="M225.28,-125.36C207.75,-110.43 182.87,-91.36 158,-79.5 149.04,-75.23 139.05,-71.79 129.29,-69.04"/>
<polygon fill="midnightblue" stroke="midnightblue" points="223.41,-128.38 233.26,-132.31 228.01,-123.11 223.41,-128.38"/>
</g>
<!-- Node8 -->
<g id="node8" class="node">
<title>Node8</title>
<g id="a_node8"><a xlink:href="namespaceL4Re_1_1Util.html#aedfe21f678c7bcd4a1897677f64473e9" target="_top" xlink:title="Allocate a capability slot and wrap it in an Unique_del_cap.">
<polygon fill="white" stroke="black" points="11.5,-0.5 11.5,-30.5 146.5,-30.5 146.5,-0.5 11.5,-0.5"/>
<text text-anchor="start" x="19.5" y="-18.5" font-family="Helvetica,sans-Serif" font-size="10.00">L4Re::Util::make_unique</text>
<text text-anchor="middle" x="79" y="-7.5" font-family="Helvetica,sans-Serif" font-size="10.00">_del_cap</text>
</a>
</g>
</g>
<!-- Node1&#45;&gt;Node8 -->
<g id="edge7" class="edge">
<title>Node1&#45;&gt;Node8</title>
<path fill="none" stroke="midnightblue" d="M234.97,-123.8C218.95,-99.57 191.03,-62.46 158,-40.5 152.2,-36.64 145.76,-33.35 139.14,-30.54"/>
<polygon fill="midnightblue" stroke="midnightblue" points="232.15,-125.89 240.51,-132.4 238.03,-122.1 232.15,-125.89"/>
</g>
</g>
</svg>
