<?xml version="1.0" encoding="UTF-8" standalone="no"?>
<!DOCTYPE svg PUBLIC "-//W3C//DTD SVG 1.1//EN"
 "http://www.w3.org/Graphics/SVG/1.1/DTD/svg11.dtd">
<!-- Generated by graphviz version 2.43.0 (0)
 -->
<!-- Title: L4Re::Util::Event_buffer_t&lt; PAYLOAD &gt; Pages: 1 -->
<svg width="216pt" height="249pt"
 viewBox="0.00 0.00 215.50 249.00" xmlns="http://www.w3.org/2000/svg" xmlns:xlink="http://www.w3.org/1999/xlink">
<g id="graph0" class="graph" transform="scale(1 1) rotate(0) translate(4 245)">
<title>L4Re::Util::Event_buffer_t&lt; PAYLOAD &gt;</title>
<polygon fill="white" stroke="transparent" points="-4,4 -4,-245 211.5,-245 211.5,4 -4,4"/>
<!-- Node1 -->
<g id="node1" class="node">
<title>Node1</title>
<g id="a_node1"><a xlink:title="Event_buffer utility class.">
<polygon fill="#bfbfbf" stroke="black" points="0,-0.5 0,-90.5 131,-90.5 131,-0.5 0,-0.5"/>
<text text-anchor="start" x="8" y="-78.5" font-family="Helvetica,sans-Serif" font-size="10.00">L4Re::Util::Event_buffer</text>
<text text-anchor="middle" x="65.5" y="-67.5" font-family="Helvetica,sans-Serif" font-size="10.00">_t&lt; PAYLOAD &gt;</text>
<polyline fill="none" stroke="black" points="0,-60.5 131,-60.5 "/>
<text text-anchor="middle" x="65.5" y="-48.5" font-family="Helvetica,sans-Serif" font-size="10.00"> </text>
<polyline fill="none" stroke="black" points="0,-41.5 131,-41.5 "/>
<text text-anchor="start" x="8" y="-29.5" font-family="Helvetica,sans-Serif" font-size="10.00">+ buf()</text>
<text text-anchor="start" x="8" y="-18.5" font-family="Helvetica,sans-Serif" font-size="10.00">+ attach()</text>
<text text-anchor="start" x="8" y="-7.5" font-family="Helvetica,sans-Serif" font-size="10.00">+ detach()</text>
</a>
</g>
</g>
<!-- Node2 -->
<g id="node2" class="node">
<title>Node2</title>
<g id="a_node2"><a xlink:href="classL4Re_1_1Event__buffer__t.html" target="_top" xlink:title=" ">
<polygon fill="white" stroke="black" points="11.5,-128.5 11.5,-240.5 119.5,-240.5 119.5,-128.5 11.5,-128.5"/>
<text text-anchor="start" x="19.5" y="-228.5" font-family="Helvetica,sans-Serif" font-size="10.00">L4Re::Event_buffer</text>
<text text-anchor="middle" x="65.5" y="-217.5" font-family="Helvetica,sans-Serif" font-size="10.00">_t&lt; PAYLOAD &gt;</text>
<polyline fill="none" stroke="black" points="11.5,-210.5 119.5,-210.5 "/>
<text text-anchor="middle" x="65.5" y="-198.5" font-family="Helvetica,sans-Serif" font-size="10.00"> </text>
<polyline fill="none" stroke="black" points="11.5,-191.5 119.5,-191.5 "/>
<text text-anchor="start" x="19.5" y="-179.5" font-family="Helvetica,sans-Serif" font-size="10.00">+ Event_buffer_t()</text>
<text text-anchor="start" x="19.5" y="-168.5" font-family="Helvetica,sans-Serif" font-size="10.00">+ Event_buffer_t()</text>
<text text-anchor="start" x="19.5" y="-157.5" font-family="Helvetica,sans-Serif" font-size="10.00">+ reset()</text>
<text text-anchor="start" x="19.5" y="-146.5" font-family="Helvetica,sans-Serif" font-size="10.00">+ next()</text>
<text text-anchor="start" x="19.5" y="-135.5" font-family="Helvetica,sans-Serif" font-size="10.00">+ put()</text>
</a>
</g>
</g>
<!-- Node2&#45;&gt;Node1 -->
<g id="edge1" class="edge">
<title>Node2&#45;&gt;Node1</title>
<path fill="none" stroke="midnightblue" d="M65.5,-118.13C65.5,-108.83 65.5,-99.44 65.5,-90.67"/>
<polygon fill="none" stroke="midnightblue" points="62,-118.17 65.5,-128.17 69,-118.17 62,-118.17"/>
</g>
<!-- Node2&#45;&gt;Node2 -->
<g id="edge2" class="edge">
<title>Node2&#45;&gt;Node2</title>
<path fill="none" stroke="orange" d="M129.46,-194.98C134.43,-192.67 137.5,-189.18 137.5,-184.5 137.5,-177.2 130.03,-172.78 119.51,-171.24"/>
<polygon fill="orange" stroke="orange" points="128.2,-191.7 119.51,-197.76 130.08,-198.44 128.2,-191.7"/>
<text text-anchor="middle" x="172.5" y="-182" font-family="Helvetica,sans-Serif" font-size="10.00"> &lt; PAYLOAD &gt;</text>
</g>
</g>
</svg>
