<?xml version="1.0" encoding="UTF-8" standalone="no"?>
<!DOCTYPE svg PUBLIC "-//W3C//DTD SVG 1.1//EN"
 "http://www.w3.org/Graphics/SVG/1.1/DTD/svg11.dtd">
<!-- Generated by graphviz version 2.43.0 (0)
 -->
<!-- Title: L4::Cap::move Pages: 1 -->
<svg width="521pt" height="104pt"
 viewBox="0.00 0.00 521.00 104.00" xmlns="http://www.w3.org/2000/svg" xmlns:xlink="http://www.w3.org/1999/xlink">
<g id="graph0" class="graph" transform="scale(1 1) rotate(0) translate(4 100)">
<title>L4::Cap::move</title>
<polygon fill="white" stroke="transparent" points="-4,4 -4,-100 517,-100 517,4 -4,4"/>
<!-- Node1 -->
<g id="node1" class="node">
<title>Node1</title>
<g id="a_node1"><a xlink:title="Move a capability to this cap slot.">
<polygon fill="#bfbfbf" stroke="black" points="0,-38.5 0,-57.5 86,-57.5 86,-38.5 0,-38.5"/>
<text text-anchor="middle" x="43" y="-45.5" font-family="Helvetica,sans-Serif" font-size="10.00">L4::Cap::move</text>
</a>
</g>
</g>
<!-- Node2 -->
<g id="node2" class="node">
<title>Node2</title>
<g id="a_node2"><a xlink:href="classL4_1_1Cap__base.html#ab6cd8e73ebbdb5dfa45355b7c1fde1c2" target="_top" xlink:title="Replace this capability with the contents of src.">
<polygon fill="white" stroke="black" points="122,-38.5 122,-57.5 237,-57.5 237,-38.5 122,-38.5"/>
<text text-anchor="middle" x="179.5" y="-45.5" font-family="Helvetica,sans-Serif" font-size="10.00">L4::Cap_base::move</text>
</a>
</g>
</g>
<!-- Node1&#45;&gt;Node2 -->
<g id="edge1" class="edge">
<title>Node1&#45;&gt;Node2</title>
<path fill="none" stroke="midnightblue" d="M86.19,-48C94.27,-48 102.92,-48 111.56,-48"/>
<polygon fill="midnightblue" stroke="midnightblue" points="111.67,-51.5 121.67,-48 111.67,-44.5 111.67,-51.5"/>
</g>
<!-- Node3 -->
<g id="node3" class="node">
<title>Node3</title>
<g id="a_node3"><a xlink:href="classL4_1_1Cap__base.html#a60a4c249059576429246b5b74bd3174e" target="_top" xlink:title="Return flex&#45;page for the capability.">
<polygon fill="white" stroke="black" points="278,-76.5 278,-95.5 393,-95.5 393,-76.5 278,-76.5"/>
<text text-anchor="middle" x="335.5" y="-83.5" font-family="Helvetica,sans-Serif" font-size="10.00">L4::Cap_base::fpage</text>
</a>
</g>
</g>
<!-- Node2&#45;&gt;Node3 -->
<g id="edge2" class="edge">
<title>Node2&#45;&gt;Node3</title>
<path fill="none" stroke="midnightblue" d="M219.36,-57.59C239.59,-62.58 264.52,-68.73 286,-74.03"/>
<polygon fill="midnightblue" stroke="midnightblue" points="285.37,-77.48 295.92,-76.48 287.05,-70.69 285.37,-77.48"/>
</g>
<!-- Node5 -->
<g id="node5" class="node">
<title>Node5</title>
<g id="a_node5"><a xlink:href="classL4_1_1Cap__base.html#ab4937bb12579c752564f7250760d0bda" target="_top" xlink:title="Test whether the capability is a valid capability index (i.e., not L4_INVALID_CAP).">
<polygon fill="white" stroke="black" points="273,-38.5 273,-57.5 398,-57.5 398,-38.5 273,-38.5"/>
<text text-anchor="middle" x="335.5" y="-45.5" font-family="Helvetica,sans-Serif" font-size="10.00">L4::Cap_base::is_valid</text>
</a>
</g>
</g>
<!-- Node2&#45;&gt;Node5 -->
<g id="edge4" class="edge">
<title>Node2&#45;&gt;Node5</title>
<path fill="none" stroke="midnightblue" d="M237.41,-48C245.63,-48 254.18,-48 262.65,-48"/>
<polygon fill="midnightblue" stroke="midnightblue" points="262.91,-51.5 272.91,-48 262.91,-44.5 262.91,-51.5"/>
</g>
<!-- Node6 -->
<g id="node6" class="node">
<title>Node6</title>
<g id="a_node6"><a xlink:href="group__l4__task__api.html#ga8ed2ff7ba204de7c01311c22412a2063" target="_top" xlink:title="Map resources available in the source task to a destination task.">
<polygon fill="white" stroke="black" points="296,-0.5 296,-19.5 375,-19.5 375,-0.5 296,-0.5"/>
<text text-anchor="middle" x="335.5" y="-7.5" font-family="Helvetica,sans-Serif" font-size="10.00">l4_task_map</text>
</a>
</g>
</g>
<!-- Node2&#45;&gt;Node6 -->
<g id="edge5" class="edge">
<title>Node2&#45;&gt;Node6</title>
<path fill="none" stroke="midnightblue" d="M219.36,-38.41C239.59,-33.42 264.52,-27.27 286,-21.97"/>
<polygon fill="midnightblue" stroke="midnightblue" points="287.05,-25.31 295.92,-19.52 285.37,-18.52 287.05,-25.31"/>
</g>
<!-- Node4 -->
<g id="node4" class="node">
<title>Node4</title>
<g id="a_node4"><a xlink:href="group__l4__fpage__api.html#ga3eaf59757a63812044e2b3a1cdf09d54" target="_top" xlink:title="Create a kernel&#45;object flex page.">
<polygon fill="white" stroke="black" points="434,-76.5 434,-95.5 513,-95.5 513,-76.5 434,-76.5"/>
<text text-anchor="middle" x="473.5" y="-83.5" font-family="Helvetica,sans-Serif" font-size="10.00">l4_obj_fpage</text>
</a>
</g>
</g>
<!-- Node3&#45;&gt;Node4 -->
<g id="edge3" class="edge">
<title>Node3&#45;&gt;Node4</title>
<path fill="none" stroke="midnightblue" d="M393.39,-86C403.54,-86 414.04,-86 423.94,-86"/>
<polygon fill="midnightblue" stroke="midnightblue" points="423.99,-89.5 433.99,-86 423.99,-82.5 423.99,-89.5"/>
</g>
</g>
</svg>
