<?xml version="1.0" encoding="UTF-8" standalone="no"?>
<!DOCTYPE svg PUBLIC "-//W3C//DTD SVG 1.1//EN"
 "http://www.w3.org/Graphics/SVG/1.1/DTD/svg11.dtd">
<!-- Generated by graphviz version 2.43.0 (0)
 -->
<!-- Title: L4Re::Util::Event_svr&lt; SVR &gt; Pages: 1 -->
<svg width="241pt" height="866pt"
 viewBox="0.00 0.00 240.50 866.00" xmlns="http://www.w3.org/2000/svg" xmlns:xlink="http://www.w3.org/1999/xlink">
<g id="graph0" class="graph" transform="scale(1 1) rotate(0) translate(4 862)">
<title>L4Re::Util::Event_svr&lt; SVR &gt;</title>
<polygon fill="white" stroke="transparent" points="-4,4 -4,-862 236.5,-862 236.5,4 -4,4"/>
<!-- Node1 -->
<g id="node1" class="node">
<title>Node1</title>
<g id="a_node1"><a xlink:title="Convenience wrapper for implementing an event server.">
<polygon fill="#bfbfbf" stroke="black" points="10,-0.5 10,-233.5 177,-233.5 177,-0.5 10,-0.5"/>
<text text-anchor="start" x="18" y="-221.5" font-family="Helvetica,sans-Serif" font-size="10.00">L4Re::Util::Event_svr</text>
<text text-anchor="middle" x="93.5" y="-210.5" font-family="Helvetica,sans-Serif" font-size="10.00">&lt; SVR &gt;</text>
<polyline fill="none" stroke="black" points="10,-203.5 177,-203.5 "/>
<text text-anchor="start" x="18" y="-191.5" font-family="Helvetica,sans-Serif" font-size="10.00"># _irq</text>
<polyline fill="none" stroke="black" points="10,-184.5 177,-184.5 "/>
<text text-anchor="start" x="18" y="-172.5" font-family="Helvetica,sans-Serif" font-size="10.00">+ Event_svr()</text>
<text text-anchor="start" x="18" y="-161.5" font-family="Helvetica,sans-Serif" font-size="10.00">+ L4_RPC_LEGACY_DISPATCH()</text>
<text text-anchor="start" x="18" y="-150.5" font-family="Helvetica,sans-Serif" font-size="10.00">+ L4_RPC_LEGACY_USING()</text>
<text text-anchor="start" x="18" y="-139.5" font-family="Helvetica,sans-Serif" font-size="10.00">+ op_get_buffer()</text>
<text text-anchor="start" x="18" y="-128.5" font-family="Helvetica,sans-Serif" font-size="10.00">+ op_get_num_streams()</text>
<text text-anchor="start" x="18" y="-117.5" font-family="Helvetica,sans-Serif" font-size="10.00">+ op_get_stream_info()</text>
<text text-anchor="start" x="18" y="-106.5" font-family="Helvetica,sans-Serif" font-size="10.00">+ op_get_stream_info</text>
<text text-anchor="start" x="18" y="-95.5" font-family="Helvetica,sans-Serif" font-size="10.00">_for_id()</text>
<text text-anchor="start" x="18" y="-84.5" font-family="Helvetica,sans-Serif" font-size="10.00">+ op_get_axis_info()</text>
<text text-anchor="start" x="18" y="-73.5" font-family="Helvetica,sans-Serif" font-size="10.00">+ op_get_stream_state</text>
<text text-anchor="start" x="18" y="-62.5" font-family="Helvetica,sans-Serif" font-size="10.00">_for_id()</text>
<text text-anchor="start" x="18" y="-51.5" font-family="Helvetica,sans-Serif" font-size="10.00">+ get_num_streams()</text>
<text text-anchor="start" x="18" y="-40.5" font-family="Helvetica,sans-Serif" font-size="10.00">+ get_stream_info()</text>
<text text-anchor="start" x="18" y="-29.5" font-family="Helvetica,sans-Serif" font-size="10.00">+ get_stream_info_for_id()</text>
<text text-anchor="start" x="18" y="-18.5" font-family="Helvetica,sans-Serif" font-size="10.00">+ get_axis_info()</text>
<text text-anchor="start" x="18" y="-7.5" font-family="Helvetica,sans-Serif" font-size="10.00">+ get_stream_state_for_id()</text>
</a>
</g>
</g>
<!-- Node2 -->
<g id="node2" class="node">
<title>Node2</title>
<g id="a_node2"><a xlink:href="classL4_1_1Cap.html" target="_top" xlink:title=" ">
<polygon fill="white" stroke="black" points="15,-281.5 15,-415.5 172,-415.5 172,-281.5 15,-281.5"/>
<text text-anchor="middle" x="93.5" y="-403.5" font-family="Helvetica,sans-Serif" font-size="10.00">L4::Cap&lt; L4Re::Dataspace &gt;</text>
<polyline fill="none" stroke="black" points="15,-396.5 172,-396.5 "/>
<text text-anchor="middle" x="93.5" y="-384.5" font-family="Helvetica,sans-Serif" font-size="10.00"> </text>
<polyline fill="none" stroke="black" points="15,-377.5 172,-377.5 "/>
<text text-anchor="start" x="23" y="-365.5" font-family="Helvetica,sans-Serif" font-size="10.00">+ Cap()</text>
<text text-anchor="start" x="23" y="-354.5" font-family="Helvetica,sans-Serif" font-size="10.00">+ Cap()</text>
<text text-anchor="start" x="23" y="-343.5" font-family="Helvetica,sans-Serif" font-size="10.00">+ Cap()</text>
<text text-anchor="start" x="23" y="-332.5" font-family="Helvetica,sans-Serif" font-size="10.00">+ Cap()</text>
<text text-anchor="start" x="23" y="-321.5" font-family="Helvetica,sans-Serif" font-size="10.00">+ Cap()</text>
<text text-anchor="start" x="23" y="-310.5" font-family="Helvetica,sans-Serif" font-size="10.00">+ move()</text>
<text text-anchor="start" x="23" y="-299.5" font-family="Helvetica,sans-Serif" font-size="10.00">+ copy()</text>
<text text-anchor="start" x="23" y="-288.5" font-family="Helvetica,sans-Serif" font-size="10.00">+ operator&#45;&gt;()</text>
</a>
</g>
</g>
<!-- Node2&#45;&gt;Node1 -->
<g id="edge1" class="edge">
<title>Node2&#45;&gt;Node1</title>
<path fill="none" stroke="#404040" d="M93.5,-281.43C93.5,-270.2 93.5,-258.22 93.5,-246.03"/>
<polygon fill="none" stroke="#404040" points="93.5,-245.8 89.5,-239.8 93.5,-233.8 97.5,-239.8 93.5,-245.8"/>
<text text-anchor="middle" x="107.5" y="-255" font-family="Helvetica,sans-Serif" font-size="10.00"> #_ds</text>
</g>
<!-- Node3 -->
<g id="node3" class="node">
<title>Node3</title>
<g id="a_node3"><a xlink:href="classL4_1_1Cap__base.html" target="_top" xlink:title="Base class for all kinds of capabilities.">
<polygon fill="white" stroke="black" points="0,-635.5 0,-857.5 179,-857.5 179,-635.5 0,-635.5"/>
<text text-anchor="middle" x="89.5" y="-845.5" font-family="Helvetica,sans-Serif" font-size="10.00">L4::Cap_base</text>
<polyline fill="none" stroke="black" points="0,-838.5 179,-838.5 "/>
<text text-anchor="start" x="8" y="-826.5" font-family="Helvetica,sans-Serif" font-size="10.00"># _c</text>
<polyline fill="none" stroke="black" points="0,-819.5 179,-819.5 "/>
<text text-anchor="start" x="8" y="-807.5" font-family="Helvetica,sans-Serif" font-size="10.00">+ cap()</text>
<text text-anchor="start" x="8" y="-796.5" font-family="Helvetica,sans-Serif" font-size="10.00">+ is_valid()</text>
<text text-anchor="start" x="8" y="-785.5" font-family="Helvetica,sans-Serif" font-size="10.00">+ operator Invalid_conversion *()</text>
<text text-anchor="start" x="8" y="-774.5" font-family="Helvetica,sans-Serif" font-size="10.00">+ fpage()</text>
<text text-anchor="start" x="8" y="-763.5" font-family="Helvetica,sans-Serif" font-size="10.00">+ snd_base()</text>
<text text-anchor="start" x="8" y="-752.5" font-family="Helvetica,sans-Serif" font-size="10.00">+ operator==()</text>
<text text-anchor="start" x="8" y="-741.5" font-family="Helvetica,sans-Serif" font-size="10.00">+ operator!=()</text>
<text text-anchor="start" x="8" y="-730.5" font-family="Helvetica,sans-Serif" font-size="10.00">+ validate()</text>
<text text-anchor="start" x="8" y="-719.5" font-family="Helvetica,sans-Serif" font-size="10.00">+ validate()</text>
<text text-anchor="start" x="8" y="-708.5" font-family="Helvetica,sans-Serif" font-size="10.00">+ invalidate()</text>
<text text-anchor="start" x="8" y="-697.5" font-family="Helvetica,sans-Serif" font-size="10.00"># Cap_base()</text>
<text text-anchor="start" x="8" y="-686.5" font-family="Helvetica,sans-Serif" font-size="10.00"># Cap_base()</text>
<text text-anchor="start" x="8" y="-675.5" font-family="Helvetica,sans-Serif" font-size="10.00"># Cap_base()</text>
<text text-anchor="start" x="8" y="-664.5" font-family="Helvetica,sans-Serif" font-size="10.00"># Cap_base()</text>
<text text-anchor="start" x="8" y="-653.5" font-family="Helvetica,sans-Serif" font-size="10.00"># move()</text>
<text text-anchor="start" x="8" y="-642.5" font-family="Helvetica,sans-Serif" font-size="10.00"># copy()</text>
</a>
</g>
</g>
<!-- Node3&#45;&gt;Node2 -->
<g id="edge2" class="edge">
<title>Node3&#45;&gt;Node2</title>
<path fill="none" stroke="midnightblue" d="M90.71,-625.41C91.41,-556.54 92.26,-472.7 92.83,-415.65"/>
<polygon fill="none" stroke="midnightblue" points="87.21,-625.42 90.61,-635.45 94.21,-625.49 87.21,-625.42"/>
</g>
<!-- Node4 -->
<g id="node4" class="node">
<title>Node4</title>
<g id="a_node4"><a xlink:href="classL4_1_1Cap.html" target="_top" xlink:title="C++ interface for capabilities.">
<polygon fill="white" stroke="black" points="106,-463.5 106,-597.5 195,-597.5 195,-463.5 106,-463.5"/>
<text text-anchor="middle" x="150.5" y="-585.5" font-family="Helvetica,sans-Serif" font-size="10.00">L4::Cap&lt; T &gt;</text>
<polyline fill="none" stroke="black" points="106,-578.5 195,-578.5 "/>
<text text-anchor="middle" x="150.5" y="-566.5" font-family="Helvetica,sans-Serif" font-size="10.00"> </text>
<polyline fill="none" stroke="black" points="106,-559.5 195,-559.5 "/>
<text text-anchor="start" x="114" y="-547.5" font-family="Helvetica,sans-Serif" font-size="10.00">+ Cap()</text>
<text text-anchor="start" x="114" y="-536.5" font-family="Helvetica,sans-Serif" font-size="10.00">+ Cap()</text>
<text text-anchor="start" x="114" y="-525.5" font-family="Helvetica,sans-Serif" font-size="10.00">+ Cap()</text>
<text text-anchor="start" x="114" y="-514.5" font-family="Helvetica,sans-Serif" font-size="10.00">+ Cap()</text>
<text text-anchor="start" x="114" y="-503.5" font-family="Helvetica,sans-Serif" font-size="10.00">+ Cap()</text>
<text text-anchor="start" x="114" y="-492.5" font-family="Helvetica,sans-Serif" font-size="10.00">+ move()</text>
<text text-anchor="start" x="114" y="-481.5" font-family="Helvetica,sans-Serif" font-size="10.00">+ copy()</text>
<text text-anchor="start" x="114" y="-470.5" font-family="Helvetica,sans-Serif" font-size="10.00">+ operator&#45;&gt;()</text>
</a>
</g>
</g>
<!-- Node3&#45;&gt;Node4 -->
<g id="edge4" class="edge">
<title>Node3&#45;&gt;Node4</title>
<path fill="none" stroke="midnightblue" d="M123.65,-625.71C126.39,-616.09 129.09,-606.61 131.66,-597.59"/>
<polygon fill="none" stroke="midnightblue" points="120.27,-624.79 120.89,-635.37 127,-626.71 120.27,-624.79"/>
</g>
<!-- Node4&#45;&gt;Node2 -->
<g id="edge3" class="edge">
<title>Node4&#45;&gt;Node2</title>
<path fill="none" stroke="orange" d="M126.56,-453.91C122.55,-441.25 118.42,-428.2 114.49,-415.8"/>
<polygon fill="orange" stroke="orange" points="123.24,-455.02 129.6,-463.5 129.92,-452.91 123.24,-455.02"/>
<text text-anchor="middle" x="178.5" y="-437" font-family="Helvetica,sans-Serif" font-size="10.00"> &lt; L4Re::Dataspace &gt;</text>
</g>
</g>
</svg>
