<?xml version="1.0" encoding="UTF-8" standalone="no"?>
<!DOCTYPE svg PUBLIC "-//W3C//DTD SVG 1.1//EN"
 "http://www.w3.org/Graphics/SVG/1.1/DTD/svg11.dtd">
<!-- Generated by graphviz version 2.43.0 (0)
 -->
<!-- Title: cxx::Weak_ref_base Pages: 1 -->
<svg width="165pt" height="515pt"
 viewBox="0.00 0.00 165.00 515.00" xmlns="http://www.w3.org/2000/svg" xmlns:xlink="http://www.w3.org/1999/xlink">
<g id="graph0" class="graph" transform="scale(1 1) rotate(0) translate(4 511)">
<title>cxx::Weak_ref_base</title>
<polygon fill="white" stroke="transparent" points="-4,4 -4,-511 161,-511 161,4 -4,4"/>
<!-- Node1 -->
<g id="node1" class="node">
<title>Node1</title>
<g id="a_node1"><a xlink:title="Generic (base) weak reference to some object.">
<polygon fill="#bfbfbf" stroke="black" points="0,-183.5 0,-262.5 114,-262.5 114,-183.5 0,-183.5"/>
<text text-anchor="middle" x="57" y="-250.5" font-family="Helvetica,sans-Serif" font-size="10.00">cxx::Weak_ref_base</text>
<polyline fill="none" stroke="black" points="0,-243.5 114,-243.5 "/>
<text text-anchor="start" x="8" y="-231.5" font-family="Helvetica,sans-Serif" font-size="10.00"># _obj</text>
<polyline fill="none" stroke="black" points="0,-224.5 114,-224.5 "/>
<text text-anchor="start" x="8" y="-212.5" font-family="Helvetica,sans-Serif" font-size="10.00">+ operator bool()</text>
<text text-anchor="start" x="8" y="-201.5" font-family="Helvetica,sans-Serif" font-size="10.00"># Weak_ref_base()</text>
<text text-anchor="start" x="8" y="-190.5" font-family="Helvetica,sans-Serif" font-size="10.00"># reset_hard()</text>
</a>
</g>
</g>
<!-- Node4 -->
<g id="node4" class="node">
<title>Node4</title>
<g id="a_node4"><a xlink:href="classcxx_1_1Weak__ref.html" target="_top" xlink:title="Typed weak reference to an object of type T.">
<polygon fill="white" stroke="black" points="0,-0.5 0,-145.5 114,-145.5 114,-0.5 0,-0.5"/>
<text text-anchor="middle" x="57" y="-133.5" font-family="Helvetica,sans-Serif" font-size="10.00">cxx::Weak_ref&lt; T &gt;</text>
<polyline fill="none" stroke="black" points="0,-126.5 114,-126.5 "/>
<text text-anchor="middle" x="57" y="-114.5" font-family="Helvetica,sans-Serif" font-size="10.00"> </text>
<polyline fill="none" stroke="black" points="0,-107.5 114,-107.5 "/>
<text text-anchor="start" x="8" y="-95.5" font-family="Helvetica,sans-Serif" font-size="10.00">+ get()</text>
<text text-anchor="start" x="8" y="-84.5" font-family="Helvetica,sans-Serif" font-size="10.00">+ reset()</text>
<text text-anchor="start" x="8" y="-73.5" font-family="Helvetica,sans-Serif" font-size="10.00">+ Weak_ref()</text>
<text text-anchor="start" x="8" y="-62.5" font-family="Helvetica,sans-Serif" font-size="10.00">+ ~Weak_ref()</text>
<text text-anchor="start" x="8" y="-51.5" font-family="Helvetica,sans-Serif" font-size="10.00">+ operator=()</text>
<text text-anchor="start" x="8" y="-40.5" font-family="Helvetica,sans-Serif" font-size="10.00">+ Weak_ref()</text>
<text text-anchor="start" x="8" y="-29.5" font-family="Helvetica,sans-Serif" font-size="10.00">+ operator=()</text>
<text text-anchor="start" x="8" y="-18.5" font-family="Helvetica,sans-Serif" font-size="10.00">+ operator*()</text>
<text text-anchor="start" x="8" y="-7.5" font-family="Helvetica,sans-Serif" font-size="10.00">+ operator&#45;&gt;()</text>
</a>
</g>
</g>
<!-- Node1&#45;&gt;Node4 -->
<g id="edge3" class="edge">
<title>Node1&#45;&gt;Node4</title>
<path fill="none" stroke="midnightblue" d="M57,-173.04C57,-164.22 57,-154.86 57,-145.55"/>
<polygon fill="none" stroke="midnightblue" points="53.5,-173.11 57,-183.11 60.5,-173.11 53.5,-173.11"/>
</g>
<!-- Node2 -->
<g id="node2" class="node">
<title>Node2</title>
<g id="a_node2"><a xlink:href="classcxx_1_1H__list__item__t.html" target="_top" xlink:title=" ">
<polygon fill="white" stroke="black" points="0.5,-300.5 0.5,-379.5 113.5,-379.5 113.5,-300.5 0.5,-300.5"/>
<text text-anchor="start" x="8.5" y="-367.5" font-family="Helvetica,sans-Serif" font-size="10.00">cxx::H_list_item_t</text>
<text text-anchor="middle" x="57" y="-356.5" font-family="Helvetica,sans-Serif" font-size="10.00">&lt; Weak_ref_base &gt;</text>
<polyline fill="none" stroke="black" points="0.5,-349.5 113.5,-349.5 "/>
<text text-anchor="middle" x="57" y="-337.5" font-family="Helvetica,sans-Serif" font-size="10.00"> </text>
<polyline fill="none" stroke="black" points="0.5,-330.5 113.5,-330.5 "/>
<text text-anchor="start" x="8.5" y="-318.5" font-family="Helvetica,sans-Serif" font-size="10.00">+ H_list_item_t()</text>
<text text-anchor="start" x="8.5" y="-307.5" font-family="Helvetica,sans-Serif" font-size="10.00">+ ~H_list_item_t()</text>
</a>
</g>
</g>
<!-- Node2&#45;&gt;Node1 -->
<g id="edge1" class="edge">
<title>Node2&#45;&gt;Node1</title>
<path fill="none" stroke="midnightblue" d="M57,-290.2C57,-281.02 57,-271.53 57,-262.71"/>
<polygon fill="none" stroke="midnightblue" points="53.5,-290.39 57,-300.39 60.5,-290.39 53.5,-290.39"/>
</g>
<!-- Node3 -->
<g id="node3" class="node">
<title>Node3</title>
<g id="a_node3"><a xlink:href="classcxx_1_1H__list__item__t.html" target="_top" xlink:title="Basic element type for a double&#45;linked H_list.">
<polygon fill="white" stroke="black" points="3,-427.5 3,-506.5 111,-506.5 111,-427.5 3,-427.5"/>
<text text-anchor="start" x="11" y="-494.5" font-family="Helvetica,sans-Serif" font-size="10.00">cxx::H_list_item_t</text>
<text text-anchor="middle" x="57" y="-483.5" font-family="Helvetica,sans-Serif" font-size="10.00">&lt; ELEM_TYPE &gt;</text>
<polyline fill="none" stroke="black" points="3,-476.5 111,-476.5 "/>
<text text-anchor="middle" x="57" y="-464.5" font-family="Helvetica,sans-Serif" font-size="10.00"> </text>
<polyline fill="none" stroke="black" points="3,-457.5 111,-457.5 "/>
<text text-anchor="start" x="11" y="-445.5" font-family="Helvetica,sans-Serif" font-size="10.00">+ H_list_item_t()</text>
<text text-anchor="start" x="11" y="-434.5" font-family="Helvetica,sans-Serif" font-size="10.00">+ ~H_list_item_t()</text>
</a>
</g>
</g>
<!-- Node3&#45;&gt;Node2 -->
<g id="edge2" class="edge">
<title>Node3&#45;&gt;Node2</title>
<path fill="none" stroke="orange" d="M57,-417.22C57,-404.74 57,-391.5 57,-379.61"/>
<polygon fill="orange" stroke="orange" points="53.5,-417.48 57,-427.48 60.5,-417.48 53.5,-417.48"/>
<text text-anchor="middle" x="107" y="-401" font-family="Helvetica,sans-Serif" font-size="10.00"> &lt; Weak_ref_base &gt;</text>
</g>
</g>
</svg>
