<?xml version="1.0" encoding="UTF-8" standalone="no"?>
<!DOCTYPE svg PUBLIC "-//W3C//DTD SVG 1.1//EN"
 "http://www.w3.org/Graphics/SVG/1.1/DTD/svg11.dtd">
<!-- Generated by graphviz version 2.43.0 (0)
 -->
<!-- Title: L4virtio::Svr::Device_t::handle_mem_cmd_write Pages: 1 -->
<svg width="448pt" height="137pt"
 viewBox="0.00 0.00 448.00 137.00" xmlns="http://www.w3.org/2000/svg" xmlns:xlink="http://www.w3.org/1999/xlink">
<g id="graph0" class="graph" transform="scale(1 1) rotate(0) translate(4 133)">
<title>L4virtio::Svr::Device_t::handle_mem_cmd_write</title>
<polygon fill="white" stroke="transparent" points="-4,4 -4,-133 444,-133 444,4 -4,4"/>
<!-- Node1 -->
<g id="node1" class="node">
<title>Node1</title>
<g id="a_node1"><a xlink:title="Check for a value in the cmd register and handle a write.">
<polygon fill="#bfbfbf" stroke="black" points="0,-49.5 0,-79.5 152,-79.5 152,-49.5 0,-49.5"/>
<text text-anchor="start" x="8" y="-67.5" font-family="Helvetica,sans-Serif" font-size="10.00">L4virtio::Svr::Device</text>
<text text-anchor="middle" x="76" y="-56.5" font-family="Helvetica,sans-Serif" font-size="10.00">_t::handle_mem_cmd_write</text>
</a>
</g>
</g>
<!-- Node2 -->
<g id="node2" class="node">
<title>Node2</title>
<g id="a_node2"><a xlink:href="classL4virtio_1_1Svr_1_1Dev__config.html#a64313e8e41c209f12bd104442751753d" target="_top" xlink:title="Get the value from the cmd register.">
<polygon fill="white" stroke="black" points="195,-98.5 195,-128.5 296,-128.5 296,-98.5 195,-98.5"/>
<text text-anchor="start" x="203" y="-116.5" font-family="Helvetica,sans-Serif" font-size="10.00">L4virtio::Svr::Dev</text>
<text text-anchor="middle" x="245.5" y="-105.5" font-family="Helvetica,sans-Serif" font-size="10.00">_config::get_cmd</text>
</a>
</g>
</g>
<!-- Node1&#45;&gt;Node2 -->
<g id="edge1" class="edge">
<title>Node1&#45;&gt;Node2</title>
<path fill="none" stroke="midnightblue" d="M128.62,-79.6C146.47,-84.82 166.6,-90.71 185.03,-96.1"/>
<polygon fill="midnightblue" stroke="midnightblue" points="184.19,-99.5 194.77,-98.95 186.15,-92.79 184.19,-99.5"/>
</g>
<!-- Node4 -->
<g id="node4" class="node">
<title>Node4</title>
<g id="a_node4"><a xlink:href="classL4virtio_1_1Svr_1_1Device__t.html#acd473f71ee4f34883a6da43b5eb27106" target="_top" xlink:title="callback for client queue&#45;config request">
<polygon fill="white" stroke="black" points="188,-49.5 188,-79.5 303,-79.5 303,-49.5 188,-49.5"/>
<text text-anchor="start" x="196" y="-67.5" font-family="Helvetica,sans-Serif" font-size="10.00">L4virtio::Svr::Device</text>
<text text-anchor="middle" x="245.5" y="-56.5" font-family="Helvetica,sans-Serif" font-size="10.00">_t::reconfig_queue</text>
</a>
</g>
</g>
<!-- Node1&#45;&gt;Node4 -->
<g id="edge3" class="edge">
<title>Node1&#45;&gt;Node4</title>
<path fill="none" stroke="midnightblue" d="M152.42,-64.5C160.72,-64.5 169.14,-64.5 177.33,-64.5"/>
<polygon fill="midnightblue" stroke="midnightblue" points="177.57,-68 187.57,-64.5 177.57,-61 177.57,-68"/>
</g>
<!-- Node5 -->
<g id="node5" class="node">
<title>Node5</title>
<g id="a_node5"><a xlink:href="classL4virtio_1_1Svr_1_1Dev__config.html#a988f5859320f66b6479d338c5b15660f" target="_top" xlink:title="Reset the cmd register after execution of a command.">
<polygon fill="white" stroke="black" points="191.5,-0.5 191.5,-30.5 299.5,-30.5 299.5,-0.5 191.5,-0.5"/>
<text text-anchor="start" x="199.5" y="-18.5" font-family="Helvetica,sans-Serif" font-size="10.00">L4virtio::Svr::Dev</text>
<text text-anchor="middle" x="245.5" y="-7.5" font-family="Helvetica,sans-Serif" font-size="10.00">_config::reset_cmd</text>
</a>
</g>
</g>
<!-- Node1&#45;&gt;Node5 -->
<g id="edge4" class="edge">
<title>Node1&#45;&gt;Node5</title>
<path fill="none" stroke="midnightblue" d="M128.62,-49.4C145.9,-44.34 165.32,-38.66 183.26,-33.42"/>
<polygon fill="midnightblue" stroke="midnightblue" points="184.43,-36.72 193.05,-30.55 182.47,-30 184.43,-36.72"/>
</g>
<!-- Node3 -->
<g id="node3" class="node">
<title>Node3</title>
<g id="a_node3"><a xlink:href="classL4virtio_1_1Svr_1_1Dev__config.html#a28c17f0bffa127dd6767dba771ee29f4" target="_top" xlink:title="Get a read&#45;only pointer to the config header.">
<polygon fill="white" stroke="black" points="339,-49.5 339,-79.5 440,-79.5 440,-49.5 339,-49.5"/>
<text text-anchor="start" x="347" y="-67.5" font-family="Helvetica,sans-Serif" font-size="10.00">L4virtio::Svr::Dev</text>
<text text-anchor="middle" x="389.5" y="-56.5" font-family="Helvetica,sans-Serif" font-size="10.00">_config::hdr</text>
</a>
</g>
</g>
<!-- Node2&#45;&gt;Node3 -->
<g id="edge2" class="edge">
<title>Node2&#45;&gt;Node3</title>
<path fill="none" stroke="midnightblue" d="M290.26,-98.4C304.44,-93.51 320.31,-88.03 335.1,-82.93"/>
<polygon fill="midnightblue" stroke="midnightblue" points="336.33,-86.21 344.64,-79.64 334.04,-79.59 336.33,-86.21"/>
</g>
<!-- Node5&#45;&gt;Node3 -->
<g id="edge5" class="edge">
<title>Node5&#45;&gt;Node3</title>
<path fill="none" stroke="midnightblue" d="M290.26,-30.6C304.44,-35.49 320.31,-40.97 335.1,-46.07"/>
<polygon fill="midnightblue" stroke="midnightblue" points="334.04,-49.41 344.64,-49.36 336.33,-42.79 334.04,-49.41"/>
</g>
</g>
</svg>
