<?xml version="1.0" encoding="UTF-8" standalone="no"?>
<!DOCTYPE svg PUBLIC "-//W3C//DTD SVG 1.1//EN"
 "http://www.w3.org/Graphics/SVG/1.1/DTD/svg11.dtd">
<!-- Generated by graphviz version 2.43.0 (0)
 -->
<!-- Title: L4::Ipc::Iostream::call Pages: 1 -->
<svg width="359pt" height="66pt"
 viewBox="0.00 0.00 359.00 66.00" xmlns="http://www.w3.org/2000/svg" xmlns:xlink="http://www.w3.org/1999/xlink">
<g id="graph0" class="graph" transform="scale(1 1) rotate(0) translate(4 62)">
<title>L4::Ipc::Iostream::call</title>
<polygon fill="white" stroke="transparent" points="-4,4 -4,-62 355,-62 355,4 -4,4"/>
<!-- Node1 -->
<g id="node1" class="node">
<title>Node1</title>
<g id="a_node1"><a xlink:title="Do an IPC call using the message in the output stream and receive the reply in the input stream.">
<polygon fill="#bfbfbf" stroke="black" points="0,-19.5 0,-38.5 121,-38.5 121,-19.5 0,-19.5"/>
<text text-anchor="middle" x="60.5" y="-26.5" font-family="Helvetica,sans-Serif" font-size="10.00">L4::Ipc::Iostream::call</text>
</a>
</g>
</g>
<!-- Node2 -->
<g id="node2" class="node">
<title>Node2</title>
<g id="a_node2"><a xlink:href="group__l4__ipc__api.html#gab96d1669dcd54657237ee27b7f6862c6" target="_top" xlink:title="Object call (usual invocation).">
<polygon fill="white" stroke="black" points="179.5,-38.5 179.5,-57.5 247.5,-57.5 247.5,-38.5 179.5,-38.5"/>
<text text-anchor="middle" x="213.5" y="-45.5" font-family="Helvetica,sans-Serif" font-size="10.00">l4_ipc_call</text>
</a>
</g>
</g>
<!-- Node1&#45;&gt;Node2 -->
<g id="edge1" class="edge">
<title>Node1&#45;&gt;Node2</title>
<path fill="none" stroke="midnightblue" d="M121.18,-36.51C137.25,-38.53 154.33,-40.68 169.31,-42.57"/>
<polygon fill="midnightblue" stroke="midnightblue" points="168.96,-46.05 179.32,-43.82 169.83,-39.1 168.96,-46.05"/>
</g>
<!-- Node4 -->
<g id="node4" class="node">
<title>Node4</title>
<g id="a_node4"><a xlink:href="classL4_1_1Ipc_1_1Istream.html#a685d93c237cbf66ff368e17639109411" target="_top" xlink:title="Get the message tag of a received IPC.">
<polygon fill="white" stroke="black" points="157,-0.5 157,-19.5 270,-19.5 270,-0.5 157,-0.5"/>
<text text-anchor="middle" x="213.5" y="-7.5" font-family="Helvetica,sans-Serif" font-size="10.00">L4::Ipc::Istream::tag</text>
</a>
</g>
</g>
<!-- Node1&#45;&gt;Node4 -->
<g id="edge3" class="edge">
<title>Node1&#45;&gt;Node4</title>
<path fill="none" stroke="midnightblue" d="M121.18,-21.49C129.5,-20.44 138.09,-19.36 146.52,-18.3"/>
<polygon fill="midnightblue" stroke="midnightblue" points="147.21,-21.74 156.7,-17.02 146.34,-14.8 147.21,-21.74"/>
</g>
<!-- Node3 -->
<g id="node3" class="node">
<title>Node3</title>
<g id="a_node3"><a xlink:href="group__l4__ipc__api.html#ga0e7e5b18d784b1d3439ea6e5b4bea4e2" target="_top" xlink:title="Generic L4 object invocation.">
<polygon fill="white" stroke="black" points="306,-38.5 306,-57.5 351,-57.5 351,-38.5 306,-38.5"/>
<text text-anchor="middle" x="328.5" y="-45.5" font-family="Helvetica,sans-Serif" font-size="10.00">l4_ipc</text>
</a>
</g>
</g>
<!-- Node2&#45;&gt;Node3 -->
<g id="edge2" class="edge">
<title>Node2&#45;&gt;Node3</title>
<path fill="none" stroke="midnightblue" d="M247.79,-48C262.88,-48 280.64,-48 295.56,-48"/>
<polygon fill="midnightblue" stroke="midnightblue" points="295.85,-51.5 305.85,-48 295.85,-44.5 295.85,-51.5"/>
</g>
</g>
</svg>
