<?xml version="1.0" encoding="UTF-8" standalone="no"?>
<!DOCTYPE svg PUBLIC "-//W3C//DTD SVG 1.1//EN"
 "http://www.w3.org/Graphics/SVG/1.1/DTD/svg11.dtd">
<!-- Generated by graphviz version 2.43.0 (0)
 -->
<!-- Title: L4::Server_object Pages: 1 -->
<svg width="472pt" height="676pt"
 viewBox="0.00 0.00 472.00 676.00" xmlns="http://www.w3.org/2000/svg" xmlns:xlink="http://www.w3.org/1999/xlink">
<g id="graph0" class="graph" transform="scale(1 1) rotate(0) translate(4 672)">
<title>L4::Server_object</title>
<polygon fill="white" stroke="transparent" points="-4,4 -4,-672 468,-672 468,4 -4,4"/>
<!-- Node1 -->
<g id="node1" class="node">
<title>Node1</title>
<g id="a_node1"><a xlink:title="Abstract server object to be used with L4::Server and L4::Basic_registry.">
<polygon fill="#bfbfbf" stroke="black" points="202,-394.5 202,-473.5 303,-473.5 303,-394.5 202,-394.5"/>
<text text-anchor="middle" x="252.5" y="-461.5" font-family="Helvetica,sans-Serif" font-size="10.00">L4::Server_object</text>
<polyline fill="none" stroke="black" points="202,-454.5 303,-454.5 "/>
<text text-anchor="middle" x="252.5" y="-442.5" font-family="Helvetica,sans-Serif" font-size="10.00"> </text>
<polyline fill="none" stroke="black" points="202,-435.5 303,-435.5 "/>
<text text-anchor="start" x="210" y="-423.5" font-family="Helvetica,sans-Serif" font-size="10.00">+ dispatch()</text>
<text text-anchor="start" x="210" y="-412.5" font-family="Helvetica,sans-Serif" font-size="10.00">+ dispatch()</text>
<text text-anchor="start" x="210" y="-401.5" font-family="Helvetica,sans-Serif" font-size="10.00">+ obj_cap()</text>
</a>
</g>
</g>
<!-- Node3 -->
<g id="node3" class="node">
<title>Node3</title>
<g id="a_node3"><a xlink:href="structL4_1_1Server__object__t.html" target="_top" xlink:title=" ">
<polygon fill="white" stroke="black" points="0,-112 0,-202 149,-202 149,-112 0,-112"/>
<text text-anchor="start" x="8" y="-190" font-family="Helvetica,sans-Serif" font-size="10.00">L4::Server_object_t</text>
<text text-anchor="middle" x="74.5" y="-179" font-family="Helvetica,sans-Serif" font-size="10.00">&lt; Kobject &gt;</text>
<polyline fill="none" stroke="black" points="0,-172 149,-172 "/>
<text text-anchor="middle" x="74.5" y="-160" font-family="Helvetica,sans-Serif" font-size="10.00"> </text>
<polyline fill="none" stroke="black" points="0,-153 149,-153 "/>
<text text-anchor="start" x="8" y="-141" font-family="Helvetica,sans-Serif" font-size="10.00">+ get_buffer_demand()</text>
<text text-anchor="start" x="8" y="-130" font-family="Helvetica,sans-Serif" font-size="10.00">+ dispatch_meta_request()</text>
<text text-anchor="start" x="8" y="-119" font-family="Helvetica,sans-Serif" font-size="10.00">+ proto_dispatch()</text>
</a>
</g>
</g>
<!-- Node1&#45;&gt;Node3 -->
<g id="edge2" class="edge">
<title>Node1&#45;&gt;Node3</title>
<path fill="none" stroke="midnightblue" d="M192.26,-419.99C157.17,-409.17 115.28,-390.01 91.5,-357 59.18,-312.12 60.53,-245.92 66.15,-202.38"/>
<polygon fill="none" stroke="midnightblue" points="191.37,-423.38 201.95,-422.83 193.34,-416.66 191.37,-423.38"/>
</g>
<!-- Node5 -->
<g id="node5" class="node">
<title>Node5</title>
<g id="a_node5"><a xlink:href="structL4_1_1Server__object__t.html" target="_top" xlink:title=" ">
<polygon fill="white" stroke="black" points="315,-106.5 315,-207.5 464,-207.5 464,-106.5 315,-106.5"/>
<text text-anchor="start" x="323" y="-195.5" font-family="Helvetica,sans-Serif" font-size="10.00">L4::Server_object_t</text>
<text text-anchor="start" x="323" y="-184.5" font-family="Helvetica,sans-Serif" font-size="10.00">&lt; IFACE, L4::Server</text>
<text text-anchor="middle" x="389.5" y="-173.5" font-family="Helvetica,sans-Serif" font-size="10.00">_object &gt;</text>
<polyline fill="none" stroke="black" points="315,-166.5 464,-166.5 "/>
<text text-anchor="middle" x="389.5" y="-154.5" font-family="Helvetica,sans-Serif" font-size="10.00"> </text>
<polyline fill="none" stroke="black" points="315,-147.5 464,-147.5 "/>
<text text-anchor="start" x="323" y="-135.5" font-family="Helvetica,sans-Serif" font-size="10.00">+ get_buffer_demand()</text>
<text text-anchor="start" x="323" y="-124.5" font-family="Helvetica,sans-Serif" font-size="10.00">+ dispatch_meta_request()</text>
<text text-anchor="start" x="323" y="-113.5" font-family="Helvetica,sans-Serif" font-size="10.00">+ proto_dispatch()</text>
</a>
</g>
</g>
<!-- Node1&#45;&gt;Node5 -->
<g id="edge4" class="edge">
<title>Node1&#45;&gt;Node5</title>
<path fill="none" stroke="midnightblue" d="M294.73,-386.19C297.14,-382.83 299.42,-379.41 301.5,-376 334.4,-321.96 359.72,-253.44 374.58,-207.79"/>
<polygon fill="none" stroke="midnightblue" points="291.75,-384.33 288.53,-394.42 297.35,-388.54 291.75,-384.33"/>
</g>
<!-- Node6 -->
<g id="node6" class="node">
<title>Node6</title>
<g id="a_node6"><a xlink:href="structL4_1_1Server__object__x.html" target="_top" xlink:title="Helper class to implement p_dispatch based server objects.">
<polygon fill="white" stroke="black" points="248.5,-0.5 248.5,-68.5 390.5,-68.5 390.5,-0.5 248.5,-0.5"/>
<text text-anchor="start" x="256.5" y="-56.5" font-family="Helvetica,sans-Serif" font-size="10.00">L4::Server_object_x</text>
<text text-anchor="middle" x="319.5" y="-45.5" font-family="Helvetica,sans-Serif" font-size="10.00">&lt; Derived, IFACE, BASE &gt;</text>
<polyline fill="none" stroke="black" points="248.5,-38.5 390.5,-38.5 "/>
<text text-anchor="middle" x="319.5" y="-26.5" font-family="Helvetica,sans-Serif" font-size="10.00"> </text>
<polyline fill="none" stroke="black" points="248.5,-19.5 390.5,-19.5 "/>
<text text-anchor="start" x="256.5" y="-7.5" font-family="Helvetica,sans-Serif" font-size="10.00">+ dispatch()</text>
</a>
</g>
</g>
<!-- Node1&#45;&gt;Node6 -->
<g id="edge9" class="edge">
<title>Node1&#45;&gt;Node6</title>
<path fill="none" stroke="midnightblue" d="M260.26,-384.27C270.5,-320.33 289.26,-204.66 306.5,-106 308.62,-93.86 311.05,-80.57 313.22,-68.83"/>
<polygon fill="none" stroke="midnightblue" points="256.75,-384.02 258.63,-394.45 263.66,-385.13 256.75,-384.02"/>
</g>
<!-- Node7 -->
<g id="node7" class="node">
<title>Node7</title>
<g id="a_node7"><a xlink:href="structL4_1_1Server__object__t.html" target="_top" xlink:title="Base class (template) for server implementing server objects.">
<polygon fill="white" stroke="black" points="101,-266.5 101,-356.5 250,-356.5 250,-266.5 101,-266.5"/>
<text text-anchor="start" x="109" y="-344.5" font-family="Helvetica,sans-Serif" font-size="10.00">L4::Server_object_t</text>
<text text-anchor="middle" x="175.5" y="-333.5" font-family="Helvetica,sans-Serif" font-size="10.00">&lt; IFACE, BASE &gt;</text>
<polyline fill="none" stroke="black" points="101,-326.5 250,-326.5 "/>
<text text-anchor="middle" x="175.5" y="-314.5" font-family="Helvetica,sans-Serif" font-size="10.00"> </text>
<polyline fill="none" stroke="black" points="101,-307.5 250,-307.5 "/>
<text text-anchor="start" x="109" y="-295.5" font-family="Helvetica,sans-Serif" font-size="10.00">+ get_buffer_demand()</text>
<text text-anchor="start" x="109" y="-284.5" font-family="Helvetica,sans-Serif" font-size="10.00">+ dispatch_meta_request()</text>
<text text-anchor="start" x="109" y="-273.5" font-family="Helvetica,sans-Serif" font-size="10.00">+ proto_dispatch()</text>
</a>
</g>
</g>
<!-- Node1&#45;&gt;Node7 -->
<g id="edge6" class="edge">
<title>Node1&#45;&gt;Node7</title>
<path fill="none" stroke="midnightblue" d="M222.22,-385.61C216.12,-376.07 209.74,-366.08 203.72,-356.66"/>
<polygon fill="none" stroke="midnightblue" points="219.38,-387.67 227.71,-394.21 225.28,-383.9 219.38,-387.67"/>
</g>
<!-- Node2 -->
<g id="node2" class="node">
<title>Node2</title>
<g id="a_node2"><a xlink:href="structL4_1_1Epiface.html" target="_top" xlink:title="Base class for interface implementations.">
<polygon fill="white" stroke="black" points="187.5,-511.5 187.5,-667.5 317.5,-667.5 317.5,-511.5 187.5,-511.5"/>
<text text-anchor="middle" x="252.5" y="-655.5" font-family="Helvetica,sans-Serif" font-size="10.00">L4::Epiface</text>
<polyline fill="none" stroke="black" points="187.5,-648.5 317.5,-648.5 "/>
<text text-anchor="middle" x="252.5" y="-636.5" font-family="Helvetica,sans-Serif" font-size="10.00"> </text>
<polyline fill="none" stroke="black" points="187.5,-629.5 317.5,-629.5 "/>
<text text-anchor="start" x="195.5" y="-617.5" font-family="Helvetica,sans-Serif" font-size="10.00">+ Epiface()</text>
<text text-anchor="start" x="195.5" y="-606.5" font-family="Helvetica,sans-Serif" font-size="10.00">+ operator=()</text>
<text text-anchor="start" x="195.5" y="-595.5" font-family="Helvetica,sans-Serif" font-size="10.00">+ Epiface()</text>
<text text-anchor="start" x="195.5" y="-584.5" font-family="Helvetica,sans-Serif" font-size="10.00">+ dispatch()</text>
<text text-anchor="start" x="195.5" y="-573.5" font-family="Helvetica,sans-Serif" font-size="10.00">+ get_buffer_demand()</text>
<text text-anchor="start" x="195.5" y="-562.5" font-family="Helvetica,sans-Serif" font-size="10.00">+ ~Epiface()</text>
<text text-anchor="start" x="195.5" y="-551.5" font-family="Helvetica,sans-Serif" font-size="10.00">+ obj_cap()</text>
<text text-anchor="start" x="195.5" y="-540.5" font-family="Helvetica,sans-Serif" font-size="10.00">+ server_iface()</text>
<text text-anchor="start" x="195.5" y="-529.5" font-family="Helvetica,sans-Serif" font-size="10.00">+ set_server()</text>
<text text-anchor="start" x="195.5" y="-518.5" font-family="Helvetica,sans-Serif" font-size="10.00">+ set_obj_cap()</text>
</a>
</g>
</g>
<!-- Node2&#45;&gt;Node1 -->
<g id="edge1" class="edge">
<title>Node2&#45;&gt;Node1</title>
<path fill="none" stroke="midnightblue" d="M252.5,-501.28C252.5,-491.72 252.5,-482.38 252.5,-473.87"/>
<polygon fill="none" stroke="midnightblue" points="249,-501.3 252.5,-511.3 256,-501.3 249,-501.3"/>
</g>
<!-- Node4 -->
<g id="node4" class="node">
<title>Node4</title>
<g id="a_node4"><a xlink:href="structL4_1_1Irq__handler__object.html" target="_top" xlink:title="Server object base class for handling IRQ messages.">
<polygon fill="white" stroke="black" points="12.5,-6 12.5,-63 136.5,-63 136.5,-6 12.5,-6"/>
<text text-anchor="middle" x="74.5" y="-51" font-family="Helvetica,sans-Serif" font-size="10.00">L4::Irq_handler_object</text>
<polyline fill="none" stroke="black" points="12.5,-44 136.5,-44 "/>
<text text-anchor="middle" x="74.5" y="-32" font-family="Helvetica,sans-Serif" font-size="10.00"> </text>
<polyline fill="none" stroke="black" points="12.5,-25 136.5,-25 "/>
<text text-anchor="middle" x="74.5" y="-13" font-family="Helvetica,sans-Serif" font-size="10.00"> </text>
</a>
</g>
</g>
<!-- Node3&#45;&gt;Node4 -->
<g id="edge3" class="edge">
<title>Node3&#45;&gt;Node4</title>
<path fill="none" stroke="midnightblue" d="M74.5,-101.74C74.5,-88.42 74.5,-74.7 74.5,-63.22"/>
<polygon fill="none" stroke="midnightblue" points="71,-101.81 74.5,-111.81 78,-101.81 71,-101.81"/>
</g>
<!-- Node5&#45;&gt;Node6 -->
<g id="edge5" class="edge">
<title>Node5&#45;&gt;Node6</title>
<path fill="none" stroke="midnightblue" d="M355.57,-97.58C349.78,-87.62 343.95,-77.6 338.72,-68.59"/>
<polygon fill="none" stroke="midnightblue" points="352.57,-99.4 360.62,-106.29 358.63,-95.89 352.57,-99.4"/>
</g>
<!-- Node7&#45;&gt;Node3 -->
<g id="edge7" class="edge">
<title>Node7&#45;&gt;Node3</title>
<path fill="none" stroke="orange" d="M99.58,-259.02C96.62,-255.51 93.9,-251.83 91.5,-248 82.98,-234.38 78.54,-217.5 76.28,-202.05"/>
<polygon fill="orange" stroke="orange" points="97.08,-261.47 106.42,-266.46 102.23,-256.73 97.08,-261.47"/>
<text text-anchor="middle" x="122.5" y="-234.5" font-family="Helvetica,sans-Serif" font-size="10.00"> &lt; Kobject &gt;</text>
</g>
<!-- Node7&#45;&gt;Node5 -->
<g id="edge8" class="edge">
<title>Node7&#45;&gt;Node5</title>
<path fill="none" stroke="orange" d="M213.28,-258.37C223.23,-246.79 234.55,-235.23 246.5,-226 266.95,-210.2 291.66,-196.83 314.75,-186.25"/>
<polygon fill="orange" stroke="orange" points="210.34,-256.43 206.62,-266.35 215.72,-260.91 210.34,-256.43"/>
<text text-anchor="start" x="246.5" y="-240" font-family="Helvetica,sans-Serif" font-size="10.00"> &lt; IFACE, L4::Server</text>
<text text-anchor="middle" x="295" y="-229" font-family="Helvetica,sans-Serif" font-size="10.00">_object &gt;</text>
</g>
</g>
</svg>
