<?xml version="1.0" encoding="UTF-8" standalone="no"?>
<!DOCTYPE svg PUBLIC "-//W3C//DTD SVG 1.1//EN"
 "http://www.w3.org/Graphics/SVG/1.1/DTD/svg11.dtd">
<!-- Generated by graphviz version 2.43.0 (0)
 -->
<!-- Title: cxx::Bits::Bst::dir Pages: 1 -->
<svg width="242pt" height="66pt"
 viewBox="0.00 0.00 242.00 66.00" xmlns="http://www.w3.org/2000/svg" xmlns:xlink="http://www.w3.org/1999/xlink">
<g id="graph0" class="graph" transform="scale(1 1) rotate(0) translate(4 62)">
<title>cxx::Bits::Bst::dir</title>
<polygon fill="white" stroke="transparent" points="-4,4 -4,-62 238,-62 238,4 -4,4"/>
<!-- Node1 -->
<g id="node1" class="node">
<title>Node1</title>
<g id="a_node1"><a xlink:title="Get the direction to go from l to search for r.">
<polygon fill="#bfbfbf" stroke="black" points="0,-19.5 0,-38.5 99,-38.5 99,-19.5 0,-19.5"/>
<text text-anchor="middle" x="49.5" y="-26.5" font-family="Helvetica,sans-Serif" font-size="10.00">cxx::Bits::Bst::dir</text>
</a>
</g>
</g>
<!-- Node2 -->
<g id="node2" class="node">
<title>Node2</title>
<g id="a_node2"><a xlink:href="classcxx_1_1Bits_1_1Bst.html#ad995602c0cbd4cae33052bf494afd31d" target="_top" xlink:title="Get the direction to go from l to search for r.">
<polygon fill="white" stroke="black" points="135,-38.5 135,-57.5 234,-57.5 234,-38.5 135,-38.5"/>
<text text-anchor="middle" x="184.5" y="-45.5" font-family="Helvetica,sans-Serif" font-size="10.00">cxx::Bits::Bst::dir</text>
</a>
</g>
</g>
<!-- Node1&#45;&gt;Node2 -->
<g id="edge1" class="edge">
<title>Node1&#45;&gt;Node2</title>
<path fill="none" stroke="midnightblue" d="M99.27,-35.97C107.58,-37.15 116.29,-38.4 124.83,-39.62"/>
<polygon fill="midnightblue" stroke="midnightblue" points="124.34,-43.08 134.74,-41.03 125.33,-36.15 124.34,-43.08"/>
</g>
<!-- Node3 -->
<g id="node3" class="node">
<title>Node3</title>
<g id="a_node3"><a xlink:href="classcxx_1_1Bits_1_1Bst.html#ac9bd268f34b9abfaae56008de571c1dc" target="_top" xlink:title="Get the key value of n.">
<polygon fill="white" stroke="black" points="138.5,-0.5 138.5,-19.5 230.5,-19.5 230.5,-0.5 138.5,-0.5"/>
<text text-anchor="middle" x="184.5" y="-7.5" font-family="Helvetica,sans-Serif" font-size="10.00">cxx::Bits::Bst::k</text>
</a>
</g>
</g>
<!-- Node1&#45;&gt;Node3 -->
<g id="edge2" class="edge">
<title>Node1&#45;&gt;Node3</title>
<path fill="none" stroke="midnightblue" d="M99.27,-22.03C108.73,-20.68 118.71,-19.26 128.37,-17.88"/>
<polygon fill="midnightblue" stroke="midnightblue" points="128.86,-21.34 138.27,-16.46 127.87,-14.41 128.86,-21.34"/>
</g>
</g>
</svg>
