<?xml version="1.0" encoding="UTF-8" standalone="no"?>
<!DOCTYPE svg PUBLIC "-//W3C//DTD SVG 1.1//EN"
 "http://www.w3.org/Graphics/SVG/1.1/DTD/svg11.dtd">
<!-- Generated by graphviz version 2.43.0 (0)
 -->
<!-- Title: L4::Vcon::write Pages: 1 -->
<svg width="383pt" height="104pt"
 viewBox="0.00 0.00 383.00 104.00" xmlns="http://www.w3.org/2000/svg" xmlns:xlink="http://www.w3.org/1999/xlink">
<g id="graph0" class="graph" transform="scale(1 1) rotate(0) translate(4 100)">
<title>L4::Vcon::write</title>
<polygon fill="white" stroke="transparent" points="-4,4 -4,-100 379,-100 379,4 -4,4"/>
<!-- Node1 -->
<g id="node1" class="node">
<title>Node1</title>
<g id="a_node1"><a xlink:title="Write data to this virtual console.">
<polygon fill="#bfbfbf" stroke="black" points="0,-57.5 0,-76.5 89,-76.5 89,-57.5 0,-57.5"/>
<text text-anchor="middle" x="44.5" y="-64.5" font-family="Helvetica,sans-Serif" font-size="10.00">L4::Vcon::write</text>
</a>
</g>
</g>
<!-- Node2 -->
<g id="node2" class="node">
<title>Node2</title>
<g id="a_node2"><a xlink:href="classL4_1_1Kobject.html#a4f2117ae76762f4084e6a1adb915863c" target="_top" xlink:title="Return capability selector.">
<polygon fill="white" stroke="black" points="126,-76.5 126,-95.5 219,-95.5 219,-76.5 126,-76.5"/>
<text text-anchor="middle" x="172.5" y="-83.5" font-family="Helvetica,sans-Serif" font-size="10.00">L4::Kobject::cap</text>
</a>
</g>
</g>
<!-- Node1&#45;&gt;Node2 -->
<g id="edge1" class="edge">
<title>Node1&#45;&gt;Node2</title>
<path fill="none" stroke="midnightblue" d="M89.22,-73.59C97.79,-74.88 106.89,-76.26 115.79,-77.6"/>
<polygon fill="midnightblue" stroke="midnightblue" points="115.31,-81.07 125.72,-79.1 116.35,-74.14 115.31,-81.07"/>
</g>
<!-- Node3 -->
<g id="node3" class="node">
<title>Node3</title>
<g id="a_node3"><a xlink:href="group__l4__vcon__api.html#ga899728ba23baf18f59f62142534e039c" target="_top" xlink:title="Write data to this virtual console.">
<polygon fill="white" stroke="black" points="125,-38.5 125,-57.5 220,-57.5 220,-38.5 125,-38.5"/>
<text text-anchor="middle" x="172.5" y="-45.5" font-family="Helvetica,sans-Serif" font-size="10.00">l4_vcon_write_u</text>
</a>
</g>
</g>
<!-- Node1&#45;&gt;Node3 -->
<g id="edge2" class="edge">
<title>Node1&#45;&gt;Node3</title>
<path fill="none" stroke="midnightblue" d="M89.22,-60.41C97.49,-59.16 106.26,-57.84 114.87,-56.54"/>
<polygon fill="midnightblue" stroke="midnightblue" points="115.49,-59.99 124.86,-55.03 114.45,-53.06 115.49,-59.99"/>
</g>
<!-- Node4 -->
<g id="node4" class="node">
<title>Node4</title>
<g id="a_node4"><a xlink:href="group__l4__ipc__err__api.html#ga05c11e3e10b6c2aa941396ac2018899f" target="_top" xlink:title="Return error code of a system call return message tag or the tag label.">
<polygon fill="white" stroke="black" points="288.5,-76.5 288.5,-95.5 342.5,-95.5 342.5,-76.5 288.5,-76.5"/>
<text text-anchor="middle" x="315.5" y="-83.5" font-family="Helvetica,sans-Serif" font-size="10.00">l4_error</text>
</a>
</g>
</g>
<!-- Node3&#45;&gt;Node4 -->
<g id="edge3" class="edge">
<title>Node3&#45;&gt;Node4</title>
<path fill="none" stroke="midnightblue" d="M209.08,-57.59C230.35,-63.32 257.29,-70.58 278.62,-76.33"/>
<polygon fill="midnightblue" stroke="midnightblue" points="277.71,-79.71 288.28,-78.93 279.53,-72.95 277.71,-79.71"/>
</g>
<!-- Node5 -->
<g id="node5" class="node">
<title>Node5</title>
<g id="a_node5"><a xlink:href="group__l4__msgtag__api.html#ga52e71bb66855f4d78fa5c82b5f0c5a87" target="_top" xlink:title="Test for error indicator flag.">
<polygon fill="white" stroke="black" points="256,-38.5 256,-57.5 375,-57.5 375,-38.5 256,-38.5"/>
<text text-anchor="middle" x="315.5" y="-45.5" font-family="Helvetica,sans-Serif" font-size="10.00">l4_msgtag_has_error</text>
</a>
</g>
</g>
<!-- Node3&#45;&gt;Node5 -->
<g id="edge4" class="edge">
<title>Node3&#45;&gt;Node5</title>
<path fill="none" stroke="midnightblue" d="M220.06,-48C228.3,-48 237.04,-48 245.75,-48"/>
<polygon fill="midnightblue" stroke="midnightblue" points="245.92,-51.5 255.92,-48 245.92,-44.5 245.92,-51.5"/>
</g>
<!-- Node6 -->
<g id="node6" class="node">
<title>Node6</title>
<g id="a_node6"><a xlink:href="group__l4__vcon__api.html#ga05df63a45bb7ade1e0e19caaa6e35f5f" target="_top" xlink:title="Send data to this virtual console.">
<polygon fill="white" stroke="black" points="268.5,-0.5 268.5,-19.5 362.5,-19.5 362.5,-0.5 268.5,-0.5"/>
<text text-anchor="middle" x="315.5" y="-7.5" font-family="Helvetica,sans-Serif" font-size="10.00">l4_vcon_send_u</text>
</a>
</g>
</g>
<!-- Node3&#45;&gt;Node6 -->
<g id="edge5" class="edge">
<title>Node3&#45;&gt;Node6</title>
<path fill="none" stroke="midnightblue" d="M209.08,-38.41C227.28,-33.51 249.64,-27.48 269.07,-22.24"/>
<polygon fill="midnightblue" stroke="midnightblue" points="270.19,-25.57 278.93,-19.59 268.36,-18.81 270.19,-25.57"/>
</g>
</g>
</svg>
