<?xml version="1.0" encoding="UTF-8" standalone="no"?>
<!DOCTYPE svg PUBLIC "-//W3C//DTD SVG 1.1//EN"
 "http://www.w3.org/Graphics/SVG/1.1/DTD/svg11.dtd">
<!-- Generated by graphviz version 2.43.0 (0)
 -->
<!-- Title: cxx::Ref_ptr&lt; T, CNT &gt; Pages: 1 -->
<svg width="257pt" height="402pt"
 viewBox="0.00 0.00 257.00 402.00" xmlns="http://www.w3.org/2000/svg" xmlns:xlink="http://www.w3.org/1999/xlink">
<g id="graph0" class="graph" transform="scale(1 1) rotate(0) translate(4 398)">
<title>cxx::Ref_ptr&lt; T, CNT &gt;</title>
<polygon fill="white" stroke="transparent" points="-4,4 -4,-398 253,-398 253,4 -4,4"/>
<!-- Node1 -->
<g id="node1" class="node">
<title>Node1</title>
<g id="a_node1"><a xlink:title="A reference&#45;counting pointer with automatic cleanup.">
<polygon fill="#bfbfbf" stroke="black" points="56,-226.5 56,-393.5 186,-393.5 186,-226.5 56,-226.5"/>
<text text-anchor="middle" x="121" y="-381.5" font-family="Helvetica,sans-Serif" font-size="10.00">cxx::Ref_ptr&lt; T, CNT &gt;</text>
<polyline fill="none" stroke="black" points="56,-374.5 186,-374.5 "/>
<text text-anchor="middle" x="121" y="-362.5" font-family="Helvetica,sans-Serif" font-size="10.00"> </text>
<polyline fill="none" stroke="black" points="56,-355.5 186,-355.5 "/>
<text text-anchor="start" x="64" y="-343.5" font-family="Helvetica,sans-Serif" font-size="10.00">+ Ref_ptr()</text>
<text text-anchor="start" x="64" y="-332.5" font-family="Helvetica,sans-Serif" font-size="10.00">+ Ref_ptr()</text>
<text text-anchor="start" x="64" y="-321.5" font-family="Helvetica,sans-Serif" font-size="10.00">+ Ref_ptr()</text>
<text text-anchor="start" x="64" y="-310.5" font-family="Helvetica,sans-Serif" font-size="10.00">+ Ref_ptr()</text>
<text text-anchor="start" x="64" y="-299.5" font-family="Helvetica,sans-Serif" font-size="10.00">+ Ref_ptr()</text>
<text text-anchor="start" x="64" y="-288.5" font-family="Helvetica,sans-Serif" font-size="10.00">+ Ref_ptr()</text>
<text text-anchor="start" x="64" y="-277.5" font-family="Helvetica,sans-Serif" font-size="10.00">+ get()</text>
<text text-anchor="start" x="64" y="-266.5" font-family="Helvetica,sans-Serif" font-size="10.00">+ ptr()</text>
<text text-anchor="start" x="64" y="-255.5" font-family="Helvetica,sans-Serif" font-size="10.00">+ release()</text>
<text text-anchor="start" x="64" y="-244.5" font-family="Helvetica,sans-Serif" font-size="10.00">+ ~Ref_ptr()</text>
<text text-anchor="start" x="64" y="-233.5" font-family="Helvetica,sans-Serif" font-size="10.00">and 22 more...</text>
</a>
</g>
</g>
<!-- Node2 -->
<g id="node2" class="node">
<title>Node2</title>
<g id="a_node2"><a xlink:href="classcxx_1_1Ref__ptr.html" target="_top" xlink:title=" ">
<polygon fill="white" stroke="black" points="0,-0.5 0,-178.5 110,-178.5 110,-0.5 0,-0.5"/>
<text text-anchor="start" x="8" y="-166.5" font-family="Helvetica,sans-Serif" font-size="10.00">cxx::Ref_ptr&lt; L4Re</text>
<text text-anchor="middle" x="55" y="-155.5" font-family="Helvetica,sans-Serif" font-size="10.00">::Vfs::File &gt;</text>
<polyline fill="none" stroke="black" points="0,-148.5 110,-148.5 "/>
<text text-anchor="middle" x="55" y="-136.5" font-family="Helvetica,sans-Serif" font-size="10.00"> </text>
<polyline fill="none" stroke="black" points="0,-129.5 110,-129.5 "/>
<text text-anchor="start" x="8" y="-117.5" font-family="Helvetica,sans-Serif" font-size="10.00">+ Ref_ptr()</text>
<text text-anchor="start" x="8" y="-106.5" font-family="Helvetica,sans-Serif" font-size="10.00">+ Ref_ptr()</text>
<text text-anchor="start" x="8" y="-95.5" font-family="Helvetica,sans-Serif" font-size="10.00">+ Ref_ptr()</text>
<text text-anchor="start" x="8" y="-84.5" font-family="Helvetica,sans-Serif" font-size="10.00">+ Ref_ptr()</text>
<text text-anchor="start" x="8" y="-73.5" font-family="Helvetica,sans-Serif" font-size="10.00">+ Ref_ptr()</text>
<text text-anchor="start" x="8" y="-62.5" font-family="Helvetica,sans-Serif" font-size="10.00">+ Ref_ptr()</text>
<text text-anchor="start" x="8" y="-51.5" font-family="Helvetica,sans-Serif" font-size="10.00">+ Ref_ptr()</text>
<text text-anchor="start" x="8" y="-40.5" font-family="Helvetica,sans-Serif" font-size="10.00">+ Ref_ptr()</text>
<text text-anchor="start" x="8" y="-29.5" font-family="Helvetica,sans-Serif" font-size="10.00">+ Ref_ptr()</text>
<text text-anchor="start" x="8" y="-18.5" font-family="Helvetica,sans-Serif" font-size="10.00">+ Ref_ptr()</text>
<text text-anchor="start" x="8" y="-7.5" font-family="Helvetica,sans-Serif" font-size="10.00">and 22 more...</text>
</a>
</g>
</g>
<!-- Node1&#45;&gt;Node2 -->
<g id="edge1" class="edge">
<title>Node1&#45;&gt;Node2</title>
<path fill="none" stroke="orange" d="M72.95,-216.91C71.89,-213.93 70.91,-210.96 70,-208 67.14,-198.66 64.82,-188.74 62.95,-178.78"/>
<polygon fill="orange" stroke="orange" points="69.73,-218.3 76.53,-226.43 76.28,-215.84 69.73,-218.3"/>
<text text-anchor="middle" x="117.5" y="-200" font-family="Helvetica,sans-Serif" font-size="10.00"> &lt; L4Re::Vfs::File &gt;</text>
</g>
<!-- Node3 -->
<g id="node3" class="node">
<title>Node3</title>
<g id="a_node3"><a xlink:href="classcxx_1_1Ref__ptr.html" target="_top" xlink:title=" ">
<polygon fill="white" stroke="black" points="128.5,-0.5 128.5,-178.5 245.5,-178.5 245.5,-0.5 128.5,-0.5"/>
<text text-anchor="start" x="136.5" y="-166.5" font-family="Helvetica,sans-Serif" font-size="10.00">cxx::Ref_ptr&lt; Mount</text>
<text text-anchor="middle" x="187" y="-155.5" font-family="Helvetica,sans-Serif" font-size="10.00">_tree &gt;</text>
<polyline fill="none" stroke="black" points="128.5,-148.5 245.5,-148.5 "/>
<text text-anchor="middle" x="187" y="-136.5" font-family="Helvetica,sans-Serif" font-size="10.00"> </text>
<polyline fill="none" stroke="black" points="128.5,-129.5 245.5,-129.5 "/>
<text text-anchor="start" x="136.5" y="-117.5" font-family="Helvetica,sans-Serif" font-size="10.00">+ Ref_ptr()</text>
<text text-anchor="start" x="136.5" y="-106.5" font-family="Helvetica,sans-Serif" font-size="10.00">+ Ref_ptr()</text>
<text text-anchor="start" x="136.5" y="-95.5" font-family="Helvetica,sans-Serif" font-size="10.00">+ Ref_ptr()</text>
<text text-anchor="start" x="136.5" y="-84.5" font-family="Helvetica,sans-Serif" font-size="10.00">+ Ref_ptr()</text>
<text text-anchor="start" x="136.5" y="-73.5" font-family="Helvetica,sans-Serif" font-size="10.00">+ Ref_ptr()</text>
<text text-anchor="start" x="136.5" y="-62.5" font-family="Helvetica,sans-Serif" font-size="10.00">+ Ref_ptr()</text>
<text text-anchor="start" x="136.5" y="-51.5" font-family="Helvetica,sans-Serif" font-size="10.00">+ Ref_ptr()</text>
<text text-anchor="start" x="136.5" y="-40.5" font-family="Helvetica,sans-Serif" font-size="10.00">+ Ref_ptr()</text>
<text text-anchor="start" x="136.5" y="-29.5" font-family="Helvetica,sans-Serif" font-size="10.00">+ Ref_ptr()</text>
<text text-anchor="start" x="136.5" y="-18.5" font-family="Helvetica,sans-Serif" font-size="10.00">+ Ref_ptr()</text>
<text text-anchor="start" x="136.5" y="-7.5" font-family="Helvetica,sans-Serif" font-size="10.00">and 22 more...</text>
</a>
</g>
</g>
<!-- Node1&#45;&gt;Node3 -->
<g id="edge2" class="edge">
<title>Node1&#45;&gt;Node3</title>
<path fill="none" stroke="orange" d="M162.14,-216.84C163.15,-213.87 164.1,-210.92 165,-208 167.89,-198.58 170.47,-188.6 172.75,-178.61"/>
<polygon fill="orange" stroke="orange" points="158.82,-215.74 158.78,-226.34 165.41,-218.08 158.82,-215.74"/>
<text text-anchor="middle" x="208" y="-200" font-family="Helvetica,sans-Serif" font-size="10.00"> &lt; Mount_tree &gt;</text>
</g>
</g>
</svg>
