<?xml version="1.0" encoding="UTF-8" standalone="no"?>
<!DOCTYPE svg PUBLIC "-//W3C//DTD SVG 1.1//EN"
 "http://www.w3.org/Graphics/SVG/1.1/DTD/svg11.dtd">
<!-- Generated by graphviz version 2.43.0 (0)
 -->
<!-- Title: L4virtio::Ptr&lt; T &gt; Pages: 1 -->
<svg width="124pt" height="259pt"
 viewBox="0.00 0.00 124.00 259.00" xmlns="http://www.w3.org/2000/svg" xmlns:xlink="http://www.w3.org/1999/xlink">
<g id="graph0" class="graph" transform="scale(1 1) rotate(0) translate(4 255)">
<title>L4virtio::Ptr&lt; T &gt;</title>
<polygon fill="white" stroke="transparent" points="-4,4 -4,-255 120,-255 120,4 -4,4"/>
<!-- Node1 -->
<g id="node1" class="node">
<title>Node1</title>
<g id="a_node1"><a xlink:title="Pointer used in virtio descriptors.">
<polygon fill="#bfbfbf" stroke="black" points="7.5,-149.5 7.5,-250.5 108.5,-250.5 108.5,-149.5 7.5,-149.5"/>
<text text-anchor="middle" x="58" y="-238.5" font-family="Helvetica,sans-Serif" font-size="10.00">L4virtio::Ptr&lt; T &gt;</text>
<polyline fill="none" stroke="black" points="7.5,-231.5 108.5,-231.5 "/>
<text text-anchor="middle" x="58" y="-219.5" font-family="Helvetica,sans-Serif" font-size="10.00"> </text>
<polyline fill="none" stroke="black" points="7.5,-212.5 108.5,-212.5 "/>
<text text-anchor="start" x="15.5" y="-200.5" font-family="Helvetica,sans-Serif" font-size="10.00">+ Ptr()</text>
<text text-anchor="start" x="15.5" y="-189.5" font-family="Helvetica,sans-Serif" font-size="10.00">+ Ptr()</text>
<text text-anchor="start" x="15.5" y="-178.5" font-family="Helvetica,sans-Serif" font-size="10.00">+ Ptr()</text>
<text text-anchor="start" x="15.5" y="-167.5" font-family="Helvetica,sans-Serif" font-size="10.00">+ get()</text>
<text text-anchor="start" x="15.5" y="-156.5" font-family="Helvetica,sans-Serif" font-size="10.00">+ is_valid()</text>
</a>
</g>
</g>
<!-- Node2 -->
<g id="node2" class="node">
<title>Node2</title>
<g id="a_node2"><a xlink:href="classL4virtio_1_1Ptr.html" target="_top" xlink:title=" ">
<polygon fill="white" stroke="black" points="0,-0.5 0,-101.5 116,-101.5 116,-0.5 0,-0.5"/>
<text text-anchor="middle" x="58" y="-89.5" font-family="Helvetica,sans-Serif" font-size="10.00">L4virtio::Ptr&lt; void &gt;</text>
<polyline fill="none" stroke="black" points="0,-82.5 116,-82.5 "/>
<text text-anchor="middle" x="58" y="-70.5" font-family="Helvetica,sans-Serif" font-size="10.00"> </text>
<polyline fill="none" stroke="black" points="0,-63.5 116,-63.5 "/>
<text text-anchor="start" x="8" y="-51.5" font-family="Helvetica,sans-Serif" font-size="10.00">+ Ptr()</text>
<text text-anchor="start" x="8" y="-40.5" font-family="Helvetica,sans-Serif" font-size="10.00">+ Ptr()</text>
<text text-anchor="start" x="8" y="-29.5" font-family="Helvetica,sans-Serif" font-size="10.00">+ Ptr()</text>
<text text-anchor="start" x="8" y="-18.5" font-family="Helvetica,sans-Serif" font-size="10.00">+ get()</text>
<text text-anchor="start" x="8" y="-7.5" font-family="Helvetica,sans-Serif" font-size="10.00">+ is_valid()</text>
</a>
</g>
</g>
<!-- Node1&#45;&gt;Node2 -->
<g id="edge1" class="edge">
<title>Node1&#45;&gt;Node2</title>
<path fill="none" stroke="orange" d="M58,-138.99C58,-126.6 58,-113.69 58,-101.72"/>
<polygon fill="orange" stroke="orange" points="54.5,-139.23 58,-149.23 61.5,-139.23 54.5,-139.23"/>
<text text-anchor="middle" x="81.5" y="-123" font-family="Helvetica,sans-Serif" font-size="10.00"> &lt; void &gt;</text>
</g>
</g>
</svg>
