<?xml version="1.0" encoding="UTF-8" standalone="no"?>
<!DOCTYPE svg PUBLIC "-//W3C//DTD SVG 1.1//EN"
 "http://www.w3.org/Graphics/SVG/1.1/DTD/svg11.dtd">
<!-- Generated by graphviz version 2.43.0 (0)
 -->
<!-- Title: L4virtio::Svr::Request_processor::start Pages: 1 -->
<svg width="299pt" height="176pt"
 viewBox="0.00 0.00 299.00 175.50" xmlns="http://www.w3.org/2000/svg" xmlns:xlink="http://www.w3.org/1999/xlink">
<g id="graph0" class="graph" transform="scale(1 1) rotate(0) translate(4 171.5)">
<title>L4virtio::Svr::Request_processor::start</title>
<polygon fill="white" stroke="transparent" points="-4,4 -4,-171.5 295,-171.5 295,4 -4,4"/>
<!-- Node1 -->
<g id="node1" class="node">
<title>Node1</title>
<g id="a_node1"><a xlink:title="Start processing a new request.">
<polygon fill="#bfbfbf" stroke="black" points="0,-63 0,-93 121,-93 121,-63 0,-63"/>
<text text-anchor="start" x="8" y="-81" font-family="Helvetica,sans-Serif" font-size="10.00">L4virtio::Svr::Request</text>
<text text-anchor="middle" x="60.5" y="-70" font-family="Helvetica,sans-Serif" font-size="10.00">_processor::start</text>
</a>
</g>
</g>
<!-- Node2 -->
<g id="node2" class="node">
<title>Node2</title>
<g id="a_node2"><a xlink:href="classL4virtio_1_1Svr_1_1Virtqueue_1_1Head__desc.html#a4aeb9df1c011b08c152e3790668207c3" target="_top" xlink:title=" ">
<polygon fill="white" stroke="black" points="160,-137 160,-167 288,-167 288,-137 160,-137"/>
<text text-anchor="start" x="168" y="-155" font-family="Helvetica,sans-Serif" font-size="10.00">L4virtio::Svr::Virtqueue</text>
<text text-anchor="middle" x="224" y="-144" font-family="Helvetica,sans-Serif" font-size="10.00">::Head_desc::desc</text>
</a>
</g>
</g>
<!-- Node1&#45;&gt;Node2 -->
<g id="edge1" class="edge">
<title>Node1&#45;&gt;Node2</title>
<path fill="none" stroke="midnightblue" d="M88.2,-93.2C107.09,-103.66 133.2,-117.5 157,-128 161.06,-129.79 165.31,-131.56 169.59,-133.28"/>
<polygon fill="midnightblue" stroke="midnightblue" points="168.42,-136.57 179.01,-136.93 170.95,-130.05 168.42,-136.57"/>
</g>
<!-- Node3 -->
<g id="node3" class="node">
<title>Node3</title>
<g id="a_node3"><a xlink:href="classL4virtio_1_1Svr_1_1Virtqueue.html#ac9a9a8c91967767446bd75fb98a506db" target="_top" xlink:title="Get a descriptor from the descriptor list.">
<polygon fill="white" stroke="black" points="160,-88 160,-118 288,-118 288,-88 160,-88"/>
<text text-anchor="start" x="168" y="-106" font-family="Helvetica,sans-Serif" font-size="10.00">L4virtio::Svr::Virtqueue</text>
<text text-anchor="middle" x="224" y="-95" font-family="Helvetica,sans-Serif" font-size="10.00">::desc</text>
</a>
</g>
</g>
<!-- Node1&#45;&gt;Node3 -->
<g id="edge2" class="edge">
<title>Node1&#45;&gt;Node3</title>
<path fill="none" stroke="midnightblue" d="M121.18,-87.24C130.51,-88.68 140.25,-90.19 149.85,-91.68"/>
<polygon fill="midnightblue" stroke="midnightblue" points="149.36,-95.14 159.78,-93.21 150.43,-88.22 149.36,-95.14"/>
</g>
<!-- Node4 -->
<g id="node4" class="node">
<title>Node4</title>
<g id="a_node4"><a xlink:href="structL4virtio_1_1Virtqueue_1_1Desc_1_1Flags.html#a978fd95c3be397943f14b0e5c2c9937b" target="_top" xlink:title="Get the indirect bits ( 2 to 2 ) of raw.">
<polygon fill="white" stroke="black" points="163,-39 163,-69 285,-69 285,-39 163,-39"/>
<text text-anchor="start" x="171" y="-57" font-family="Helvetica,sans-Serif" font-size="10.00">L4virtio::Virtqueue</text>
<text text-anchor="middle" x="224" y="-46" font-family="Helvetica,sans-Serif" font-size="10.00">::Desc::Flags::indirect</text>
</a>
</g>
</g>
<!-- Node1&#45;&gt;Node4 -->
<g id="edge3" class="edge">
<title>Node1&#45;&gt;Node4</title>
<path fill="none" stroke="midnightblue" d="M121.18,-69.13C131.46,-67.6 142.23,-66 152.76,-64.44"/>
<polygon fill="midnightblue" stroke="midnightblue" points="153.38,-67.88 162.76,-62.95 152.35,-60.96 153.38,-67.88"/>
</g>
<!-- Node5 -->
<g id="node5" class="node">
<title>Node5</title>
<g id="a_node5"><a xlink:href="classL4virtio_1_1Virtqueue.html#af61e3e4e436b93f37f22243a1c0ffe0e" target="_top" xlink:title=" ">
<polygon fill="white" stroke="black" points="157,-0.5 157,-19.5 291,-19.5 291,-0.5 157,-0.5"/>
<text text-anchor="middle" x="224" y="-7.5" font-family="Helvetica,sans-Serif" font-size="10.00">L4virtio::Virtqueue::num</text>
</a>
</g>
</g>
<!-- Node1&#45;&gt;Node5 -->
<g id="edge4" class="edge">
<title>Node1&#45;&gt;Node5</title>
<path fill="none" stroke="midnightblue" d="M88.51,-62.86C107.33,-52.7 133.22,-39.5 157,-30 163.5,-27.4 170.47,-24.95 177.36,-22.71"/>
<polygon fill="midnightblue" stroke="midnightblue" points="178.84,-25.92 187.33,-19.59 176.74,-19.24 178.84,-25.92"/>
</g>
</g>
</svg>
