<?xml version="1.0" encoding="UTF-8" standalone="no"?>
<!DOCTYPE svg PUBLIC "-//W3C//DTD SVG 1.1//EN"
 "http://www.w3.org/Graphics/SVG/1.1/DTD/svg11.dtd">
<!-- Generated by graphviz version 2.43.0 (0)
 -->
<!-- Title: L4::Exception_tracer Pages: 1 -->
<svg width="697pt" height="458pt"
 viewBox="0.00 0.00 697.00 458.00" xmlns="http://www.w3.org/2000/svg" xmlns:xlink="http://www.w3.org/1999/xlink">
<g id="graph0" class="graph" transform="scale(1 1) rotate(0) translate(4 454)">
<title>L4::Exception_tracer</title>
<polygon fill="white" stroke="transparent" points="-4,4 -4,-454 693,-454 693,4 -4,4"/>
<!-- Node1 -->
<g id="node1" class="node">
<title>Node1</title>
<g id="a_node1"><a xlink:title="Back&#45;trace support for exceptions.">
<polygon fill="#bfbfbf" stroke="black" points="261.5,-370.5 261.5,-449.5 378.5,-449.5 378.5,-370.5 261.5,-370.5"/>
<text text-anchor="middle" x="320" y="-437.5" font-family="Helvetica,sans-Serif" font-size="10.00">L4::Exception_tracer</text>
<polyline fill="none" stroke="black" points="261.5,-430.5 378.5,-430.5 "/>
<text text-anchor="middle" x="320" y="-418.5" font-family="Helvetica,sans-Serif" font-size="10.00"> </text>
<polyline fill="none" stroke="black" points="261.5,-411.5 378.5,-411.5 "/>
<text text-anchor="start" x="269.5" y="-399.5" font-family="Helvetica,sans-Serif" font-size="10.00">+ pc_array()</text>
<text text-anchor="start" x="269.5" y="-388.5" font-family="Helvetica,sans-Serif" font-size="10.00">+ frame_count()</text>
<text text-anchor="start" x="269.5" y="-377.5" font-family="Helvetica,sans-Serif" font-size="10.00"># Exception_tracer()</text>
</a>
</g>
</g>
<!-- Node2 -->
<g id="node2" class="node">
<title>Node2</title>
<g id="a_node2"><a xlink:href="classL4_1_1Base__exception.html" target="_top" xlink:title="Base class for all exceptions, thrown by the L4Re framework.">
<polygon fill="white" stroke="black" points="259.5,-254.5 259.5,-333.5 380.5,-333.5 380.5,-254.5 259.5,-254.5"/>
<text text-anchor="middle" x="320" y="-321.5" font-family="Helvetica,sans-Serif" font-size="10.00">L4::Base_exception</text>
<polyline fill="none" stroke="black" points="259.5,-314.5 380.5,-314.5 "/>
<text text-anchor="middle" x="320" y="-302.5" font-family="Helvetica,sans-Serif" font-size="10.00"> </text>
<polyline fill="none" stroke="black" points="259.5,-295.5 380.5,-295.5 "/>
<text text-anchor="start" x="267.5" y="-283.5" font-family="Helvetica,sans-Serif" font-size="10.00">+ str()</text>
<text text-anchor="start" x="267.5" y="-272.5" font-family="Helvetica,sans-Serif" font-size="10.00">+ ~Base_exception()</text>
<text text-anchor="start" x="267.5" y="-261.5" font-family="Helvetica,sans-Serif" font-size="10.00"># Base_exception()</text>
</a>
</g>
</g>
<!-- Node1&#45;&gt;Node2 -->
<g id="edge1" class="edge">
<title>Node1&#45;&gt;Node2</title>
<path fill="none" stroke="midnightblue" d="M320,-360.15C320,-351.26 320,-342.1 320,-333.56"/>
<polygon fill="none" stroke="midnightblue" points="316.5,-360.4 320,-370.4 323.5,-360.4 316.5,-360.4"/>
</g>
<!-- Node3 -->
<g id="node3" class="node">
<title>Node3</title>
<g id="a_node3"><a xlink:href="classL4_1_1Invalid__capability.html" target="_top" xlink:title="Indicates that an invalid object was invoked.">
<polygon fill="white" stroke="black" points="115,-116.5 115,-217.5 245,-217.5 245,-116.5 115,-116.5"/>
<text text-anchor="middle" x="180" y="-205.5" font-family="Helvetica,sans-Serif" font-size="10.00">L4::Invalid_capability</text>
<polyline fill="none" stroke="black" points="115,-198.5 245,-198.5 "/>
<text text-anchor="middle" x="180" y="-186.5" font-family="Helvetica,sans-Serif" font-size="10.00"> </text>
<polyline fill="none" stroke="black" points="115,-179.5 245,-179.5 "/>
<text text-anchor="start" x="123" y="-167.5" font-family="Helvetica,sans-Serif" font-size="10.00">+ Invalid_capability()</text>
<text text-anchor="start" x="123" y="-156.5" font-family="Helvetica,sans-Serif" font-size="10.00">+ Invalid_capability()</text>
<text text-anchor="start" x="123" y="-145.5" font-family="Helvetica,sans-Serif" font-size="10.00">+ str()</text>
<text text-anchor="start" x="123" y="-134.5" font-family="Helvetica,sans-Serif" font-size="10.00">+ cap()</text>
<text text-anchor="start" x="123" y="-123.5" font-family="Helvetica,sans-Serif" font-size="10.00">+ ~Invalid_capability()</text>
</a>
</g>
</g>
<!-- Node2&#45;&gt;Node3 -->
<g id="edge2" class="edge">
<title>Node2&#45;&gt;Node3</title>
<path fill="none" stroke="midnightblue" d="M269.39,-247.81C258.44,-238.03 246.79,-227.64 235.65,-217.69"/>
<polygon fill="none" stroke="midnightblue" points="267.06,-250.43 276.85,-254.48 271.72,-245.2 267.06,-250.43"/>
</g>
<!-- Node4 -->
<g id="node4" class="node">
<title>Node4</title>
<g id="a_node4"><a xlink:href="classL4_1_1Runtime__error.html" target="_top" xlink:title="Exception for an abstract runtime error.">
<polygon fill="white" stroke="black" points="263.5,-116.5 263.5,-217.5 376.5,-217.5 376.5,-116.5 263.5,-116.5"/>
<text text-anchor="middle" x="320" y="-205.5" font-family="Helvetica,sans-Serif" font-size="10.00">L4::Runtime_error</text>
<polyline fill="none" stroke="black" points="263.5,-198.5 376.5,-198.5 "/>
<text text-anchor="middle" x="320" y="-186.5" font-family="Helvetica,sans-Serif" font-size="10.00"> </text>
<polyline fill="none" stroke="black" points="263.5,-179.5 376.5,-179.5 "/>
<text text-anchor="start" x="271.5" y="-167.5" font-family="Helvetica,sans-Serif" font-size="10.00">+ Runtime_error()</text>
<text text-anchor="start" x="271.5" y="-156.5" font-family="Helvetica,sans-Serif" font-size="10.00">+ str()</text>
<text text-anchor="start" x="271.5" y="-145.5" font-family="Helvetica,sans-Serif" font-size="10.00">+ extra_str()</text>
<text text-anchor="start" x="271.5" y="-134.5" font-family="Helvetica,sans-Serif" font-size="10.00">+ ~Runtime_error()</text>
<text text-anchor="start" x="271.5" y="-123.5" font-family="Helvetica,sans-Serif" font-size="10.00">+ err_no()</text>
</a>
</g>
</g>
<!-- Node2&#45;&gt;Node4 -->
<g id="edge3" class="edge">
<title>Node2&#45;&gt;Node4</title>
<path fill="none" stroke="midnightblue" d="M320,-244.41C320,-235.64 320,-226.49 320,-217.69"/>
<polygon fill="none" stroke="midnightblue" points="316.5,-244.48 320,-254.48 323.5,-244.48 316.5,-244.48"/>
</g>
<!-- Node10 -->
<g id="node10" class="node">
<title>Node10</title>
<g id="a_node10"><a xlink:href="classL4_1_1Unknown__error.html" target="_top" xlink:title="Exception for an unknown condition.">
<polygon fill="white" stroke="black" points="395,-127.5 395,-206.5 513,-206.5 513,-127.5 395,-127.5"/>
<text text-anchor="middle" x="454" y="-194.5" font-family="Helvetica,sans-Serif" font-size="10.00">L4::Unknown_error</text>
<polyline fill="none" stroke="black" points="395,-187.5 513,-187.5 "/>
<text text-anchor="middle" x="454" y="-175.5" font-family="Helvetica,sans-Serif" font-size="10.00"> </text>
<polyline fill="none" stroke="black" points="395,-168.5 513,-168.5 "/>
<text text-anchor="start" x="403" y="-156.5" font-family="Helvetica,sans-Serif" font-size="10.00">+ Unknown_error()</text>
<text text-anchor="start" x="403" y="-145.5" font-family="Helvetica,sans-Serif" font-size="10.00">+ str()</text>
<text text-anchor="start" x="403" y="-134.5" font-family="Helvetica,sans-Serif" font-size="10.00">+ ~Unknown_error()</text>
</a>
</g>
</g>
<!-- Node2&#45;&gt;Node10 -->
<g id="edge9" class="edge">
<title>Node2&#45;&gt;Node10</title>
<path fill="none" stroke="midnightblue" d="M368.7,-247.57C383.1,-234.14 398.72,-219.57 412.61,-206.61"/>
<polygon fill="none" stroke="midnightblue" points="366.22,-245.1 361.3,-254.48 371,-250.21 366.22,-245.1"/>
</g>
<!-- Node5 -->
<g id="node5" class="node">
<title>Node5</title>
<g id="a_node5"><a xlink:href="classL4_1_1Bounds__error.html" target="_top" xlink:title="Access out of bounds.">
<polygon fill="white" stroke="black" points="0,-6 0,-74 108,-74 108,-6 0,-6"/>
<text text-anchor="middle" x="54" y="-62" font-family="Helvetica,sans-Serif" font-size="10.00">L4::Bounds_error</text>
<polyline fill="none" stroke="black" points="0,-55 108,-55 "/>
<text text-anchor="middle" x="54" y="-43" font-family="Helvetica,sans-Serif" font-size="10.00"> </text>
<polyline fill="none" stroke="black" points="0,-36 108,-36 "/>
<text text-anchor="start" x="8" y="-24" font-family="Helvetica,sans-Serif" font-size="10.00">+ Bounds_error()</text>
<text text-anchor="start" x="8" y="-13" font-family="Helvetica,sans-Serif" font-size="10.00">+ ~Bounds_error()</text>
</a>
</g>
</g>
<!-- Node4&#45;&gt;Node5 -->
<g id="edge4" class="edge">
<title>Node4&#45;&gt;Node5</title>
<path fill="none" stroke="midnightblue" d="M254.29,-116.14C254.19,-116.09 254.1,-116.05 254,-116 197.38,-88.47 174.85,-104.84 117,-80 112.86,-78.22 108.68,-76.2 104.54,-74.04"/>
<polygon fill="none" stroke="midnightblue" points="252.81,-119.32 263.28,-120.95 256.11,-113.15 252.81,-119.32"/>
</g>
<!-- Node6 -->
<g id="node6" class="node">
<title>Node6</title>
<g id="a_node6"><a xlink:href="classL4_1_1Com__error.html" target="_top" xlink:title="Error conditions during IPC.">
<polygon fill="white" stroke="black" points="126.5,-6 126.5,-74 221.5,-74 221.5,-6 126.5,-6"/>
<text text-anchor="middle" x="174" y="-62" font-family="Helvetica,sans-Serif" font-size="10.00">L4::Com_error</text>
<polyline fill="none" stroke="black" points="126.5,-55 221.5,-55 "/>
<text text-anchor="middle" x="174" y="-43" font-family="Helvetica,sans-Serif" font-size="10.00"> </text>
<polyline fill="none" stroke="black" points="126.5,-36 221.5,-36 "/>
<text text-anchor="start" x="134.5" y="-24" font-family="Helvetica,sans-Serif" font-size="10.00">+ Com_error()</text>
<text text-anchor="start" x="134.5" y="-13" font-family="Helvetica,sans-Serif" font-size="10.00">+ ~Com_error()</text>
</a>
</g>
</g>
<!-- Node4&#45;&gt;Node6 -->
<g id="edge5" class="edge">
<title>Node4&#45;&gt;Node6</title>
<path fill="none" stroke="midnightblue" d="M255.18,-110.5C240.75,-98.15 225.9,-85.43 212.9,-74.31"/>
<polygon fill="none" stroke="midnightblue" points="253.26,-113.47 263.13,-117.31 257.81,-108.15 253.26,-113.47"/>
</g>
<!-- Node7 -->
<g id="node7" class="node">
<title>Node7</title>
<g id="a_node7"><a xlink:href="classL4_1_1Element__already__exists.html" target="_top" xlink:title="Exception for duplicate element insertions.">
<polygon fill="white" stroke="black" points="239.5,-0.5 239.5,-79.5 400.5,-79.5 400.5,-0.5 239.5,-0.5"/>
<text text-anchor="start" x="247.5" y="-67.5" font-family="Helvetica,sans-Serif" font-size="10.00">L4::Element_already</text>
<text text-anchor="middle" x="320" y="-56.5" font-family="Helvetica,sans-Serif" font-size="10.00">_exists</text>
<polyline fill="none" stroke="black" points="239.5,-49.5 400.5,-49.5 "/>
<text text-anchor="middle" x="320" y="-37.5" font-family="Helvetica,sans-Serif" font-size="10.00"> </text>
<polyline fill="none" stroke="black" points="239.5,-30.5 400.5,-30.5 "/>
<text text-anchor="start" x="247.5" y="-18.5" font-family="Helvetica,sans-Serif" font-size="10.00">+ Element_already_exists()</text>
<text text-anchor="start" x="247.5" y="-7.5" font-family="Helvetica,sans-Serif" font-size="10.00">+ ~Element_already_exists()</text>
</a>
</g>
</g>
<!-- Node4&#45;&gt;Node7 -->
<g id="edge6" class="edge">
<title>Node4&#45;&gt;Node7</title>
<path fill="none" stroke="midnightblue" d="M320,-106.19C320,-97.22 320,-88.18 320,-79.81"/>
<polygon fill="none" stroke="midnightblue" points="316.5,-106.24 320,-116.24 323.5,-106.24 316.5,-106.24"/>
</g>
<!-- Node8 -->
<g id="node8" class="node">
<title>Node8</title>
<g id="a_node8"><a xlink:href="classL4_1_1Element__not__found.html" target="_top" xlink:title="Exception for a failed lookup (element not found).">
<polygon fill="white" stroke="black" points="419,-11.5 419,-68.5 549,-68.5 549,-11.5 419,-11.5"/>
<text text-anchor="middle" x="484" y="-56.5" font-family="Helvetica,sans-Serif" font-size="10.00">L4::Element_not_found</text>
<polyline fill="none" stroke="black" points="419,-49.5 549,-49.5 "/>
<text text-anchor="middle" x="484" y="-37.5" font-family="Helvetica,sans-Serif" font-size="10.00"> </text>
<polyline fill="none" stroke="black" points="419,-30.5 549,-30.5 "/>
<text text-anchor="start" x="427" y="-18.5" font-family="Helvetica,sans-Serif" font-size="10.00">+ Element_not_found()</text>
</a>
</g>
</g>
<!-- Node4&#45;&gt;Node8 -->
<g id="edge7" class="edge">
<title>Node4&#45;&gt;Node8</title>
<path fill="none" stroke="midnightblue" d="M384.99,-116.47C406.34,-100.19 429.29,-82.7 447.72,-68.65"/>
<polygon fill="none" stroke="midnightblue" points="382.73,-113.79 376.9,-122.63 386.97,-119.35 382.73,-113.79"/>
</g>
<!-- Node9 -->
<g id="node9" class="node">
<title>Node9</title>
<g id="a_node9"><a xlink:href="classL4_1_1Out__of__memory.html" target="_top" xlink:title="Exception signalling insufficient memory.">
<polygon fill="white" stroke="black" points="567,-6 567,-74 689,-74 689,-6 567,-6"/>
<text text-anchor="middle" x="628" y="-62" font-family="Helvetica,sans-Serif" font-size="10.00">L4::Out_of_memory</text>
<polyline fill="none" stroke="black" points="567,-55 689,-55 "/>
<text text-anchor="middle" x="628" y="-43" font-family="Helvetica,sans-Serif" font-size="10.00"> </text>
<polyline fill="none" stroke="black" points="567,-36 689,-36 "/>
<text text-anchor="start" x="575" y="-24" font-family="Helvetica,sans-Serif" font-size="10.00">+ Out_of_memory()</text>
<text text-anchor="start" x="575" y="-13" font-family="Helvetica,sans-Serif" font-size="10.00">+ ~Out_of_memory()</text>
</a>
</g>
</g>
<!-- Node4&#45;&gt;Node9 -->
<g id="edge8" class="edge">
<title>Node4&#45;&gt;Node9</title>
<path fill="none" stroke="midnightblue" d="M385.71,-116.13C385.8,-116.09 385.9,-116.04 386,-116 457.08,-83.63 484.83,-107.32 558,-80 562.69,-78.25 567.45,-76.22 572.16,-74.02"/>
<polygon fill="none" stroke="midnightblue" points="383.95,-113.1 376.63,-120.76 387.13,-119.34 383.95,-113.1"/>
</g>
</g>
</svg>
