<?xml version="1.0" encoding="UTF-8" standalone="no"?>
<!DOCTYPE svg PUBLIC "-//W3C//DTD SVG 1.1//EN"
 "http://www.w3.org/Graphics/SVG/1.1/DTD/svg11.dtd">
<!-- Generated by graphviz version 2.43.0 (0)
 -->
<!-- Title: L4::Ipc_gate Pages: 1 -->
<svg width="336pt" height="620pt"
 viewBox="0.00 0.00 336.00 620.00" xmlns="http://www.w3.org/2000/svg" xmlns:xlink="http://www.w3.org/1999/xlink">
<g id="graph0" class="graph" transform="scale(1 1) rotate(0) translate(4 616)">
<title>L4::Ipc_gate</title>
<polygon fill="white" stroke="transparent" points="-4,4 -4,-616 332,-616 332,4 -4,4"/>
<!-- Node1 -->
<g id="node1" class="node">
<title>Node1</title>
<g id="a_node1"><a xlink:title="The C++ IPC gate interface.">
<polygon fill="#bfbfbf" stroke="black" points="133,-0.5 133,-57.5 213,-57.5 213,-0.5 133,-0.5"/>
<text text-anchor="middle" x="173" y="-45.5" font-family="Helvetica,sans-Serif" font-size="10.00">L4::Ipc_gate</text>
<polyline fill="none" stroke="black" points="133,-38.5 213,-38.5 "/>
<text text-anchor="middle" x="173" y="-26.5" font-family="Helvetica,sans-Serif" font-size="10.00"> </text>
<polyline fill="none" stroke="black" points="133,-19.5 213,-19.5 "/>
<text text-anchor="start" x="141" y="-7.5" font-family="Helvetica,sans-Serif" font-size="10.00">+ get_infos()</text>
</a>
</g>
</g>
<!-- Node2 -->
<g id="node2" class="node">
<title>Node2</title>
<g id="a_node2"><a xlink:href="classL4_1_1Kobject__t.html" target="_top" xlink:title=" ">
<polygon fill="white" stroke="black" points="100,-95.5 100,-196.5 246,-196.5 246,-95.5 100,-95.5"/>
<text text-anchor="start" x="108" y="-184.5" font-family="Helvetica,sans-Serif" font-size="10.00">L4::Kobject_t&lt; Ipc</text>
<text text-anchor="start" x="108" y="-173.5" font-family="Helvetica,sans-Serif" font-size="10.00">_gate, Rcv_endpoint,</text>
<text text-anchor="start" x="108" y="-162.5" font-family="Helvetica,sans-Serif" font-size="10.00"> L4_PROTO_KOBJECT, Type</text>
<text text-anchor="middle" x="173" y="-151.5" font-family="Helvetica,sans-Serif" font-size="10.00">_info::Demand_t&lt; 1 &gt; &gt;</text>
<polyline fill="none" stroke="black" points="100,-144.5 246,-144.5 "/>
<text text-anchor="middle" x="173" y="-132.5" font-family="Helvetica,sans-Serif" font-size="10.00"> </text>
<polyline fill="none" stroke="black" points="100,-125.5 246,-125.5 "/>
<text text-anchor="start" x="108" y="-113.5" font-family="Helvetica,sans-Serif" font-size="10.00"># c()</text>
<text text-anchor="start" x="108" y="-102.5" font-family="Helvetica,sans-Serif" font-size="10.00"># __check_protocols__()</text>
</a>
</g>
</g>
<!-- Node2&#45;&gt;Node1 -->
<g id="edge1" class="edge">
<title>Node2&#45;&gt;Node1</title>
<path fill="none" stroke="midnightblue" d="M173,-85.22C173,-75.59 173,-66.06 173,-57.68"/>
<polygon fill="none" stroke="midnightblue" points="169.5,-85.23 173,-95.23 176.5,-85.23 169.5,-85.23"/>
</g>
<!-- Node3 -->
<g id="node3" class="node">
<title>Node3</title>
<g id="a_node3"><a xlink:href="classL4_1_1Rcv__endpoint.html" target="_top" xlink:title="Interface for kernel objects that allow to receive IPC from them.">
<polygon fill="white" stroke="black" points="76,-234.5 76,-291.5 176,-291.5 176,-234.5 76,-234.5"/>
<text text-anchor="middle" x="126" y="-279.5" font-family="Helvetica,sans-Serif" font-size="10.00">L4::Rcv_endpoint</text>
<polyline fill="none" stroke="black" points="76,-272.5 176,-272.5 "/>
<text text-anchor="middle" x="126" y="-260.5" font-family="Helvetica,sans-Serif" font-size="10.00"> </text>
<polyline fill="none" stroke="black" points="76,-253.5 176,-253.5 "/>
<text text-anchor="start" x="84" y="-241.5" font-family="Helvetica,sans-Serif" font-size="10.00">+ bind_thread()</text>
</a>
</g>
</g>
<!-- Node3&#45;&gt;Node2 -->
<g id="edge2" class="edge">
<title>Node3&#45;&gt;Node2</title>
<path fill="none" stroke="midnightblue" d="M141.1,-225.05C144.78,-216.06 148.77,-206.29 152.64,-196.81"/>
<polygon fill="none" stroke="midnightblue" points="137.8,-223.87 137.26,-234.45 144.28,-226.52 137.8,-223.87"/>
</g>
<!-- Node4 -->
<g id="node4" class="node">
<title>Node4</title>
<g id="a_node4"><a xlink:href="classL4_1_1Kobject__t.html" target="_top" xlink:title=" ">
<polygon fill="white" stroke="black" points="3,-361.5 3,-462.5 149,-462.5 149,-361.5 3,-361.5"/>
<text text-anchor="start" x="11" y="-450.5" font-family="Helvetica,sans-Serif" font-size="10.00">L4::Kobject_t&lt; Rcv</text>
<text text-anchor="start" x="11" y="-439.5" font-family="Helvetica,sans-Serif" font-size="10.00">_endpoint, Kobject,</text>
<text text-anchor="start" x="11" y="-428.5" font-family="Helvetica,sans-Serif" font-size="10.00"> L4_PROTO_KOBJECT, Type</text>
<text text-anchor="middle" x="76" y="-417.5" font-family="Helvetica,sans-Serif" font-size="10.00">_info::Demand_t&lt; 1 &gt; &gt;</text>
<polyline fill="none" stroke="black" points="3,-410.5 149,-410.5 "/>
<text text-anchor="middle" x="76" y="-398.5" font-family="Helvetica,sans-Serif" font-size="10.00"> </text>
<polyline fill="none" stroke="black" points="3,-391.5 149,-391.5 "/>
<text text-anchor="start" x="11" y="-379.5" font-family="Helvetica,sans-Serif" font-size="10.00"># c()</text>
<text text-anchor="start" x="11" y="-368.5" font-family="Helvetica,sans-Serif" font-size="10.00"># __check_protocols__()</text>
</a>
</g>
</g>
<!-- Node4&#45;&gt;Node3 -->
<g id="edge3" class="edge">
<title>Node4&#45;&gt;Node3</title>
<path fill="none" stroke="midnightblue" d="M96.22,-351.57C103.24,-330.92 110.79,-308.73 116.53,-291.85"/>
<polygon fill="none" stroke="midnightblue" points="92.83,-350.64 92.93,-361.23 99.46,-352.89 92.83,-350.64"/>
</g>
<!-- Node5 -->
<g id="node5" class="node">
<title>Node5</title>
<g id="a_node5"><a xlink:href="classL4_1_1Kobject.html" target="_top" xlink:title="Base class for all kinds of kernel objects and remote objects, referenced by capabilities.">
<polygon fill="white" stroke="black" points="0,-538 0,-606 86,-606 86,-538 0,-538"/>
<text text-anchor="middle" x="43" y="-594" font-family="Helvetica,sans-Serif" font-size="10.00">L4::Kobject</text>
<polyline fill="none" stroke="black" points="0,-587 86,-587 "/>
<text text-anchor="middle" x="43" y="-575" font-family="Helvetica,sans-Serif" font-size="10.00"> </text>
<polyline fill="none" stroke="black" points="0,-568 86,-568 "/>
<text text-anchor="start" x="8" y="-556" font-family="Helvetica,sans-Serif" font-size="10.00">+ dec_refcnt()</text>
<text text-anchor="start" x="8" y="-545" font-family="Helvetica,sans-Serif" font-size="10.00"># cap()</text>
</a>
</g>
</g>
<!-- Node5&#45;&gt;Node4 -->
<g id="edge4" class="edge">
<title>Node5&#45;&gt;Node4</title>
<path fill="none" stroke="midnightblue" d="M48.64,-527.92C50.88,-512.99 53.71,-496.19 57,-481 58.3,-475.01 59.81,-468.77 61.41,-462.6"/>
<polygon fill="none" stroke="midnightblue" points="45.17,-527.51 47.19,-537.91 52.09,-528.52 45.17,-527.51"/>
</g>
<!-- Node6 -->
<g id="node6" class="node">
<title>Node6</title>
<g id="a_node6"><a xlink:href="classL4_1_1Kobject__t.html" target="_top" xlink:title="Helper class to create an L4Re interface class that is derived from a single base class.">
<polygon fill="white" stroke="black" points="123,-532.5 123,-611.5 279,-611.5 279,-532.5 123,-532.5"/>
<text text-anchor="start" x="131" y="-599.5" font-family="Helvetica,sans-Serif" font-size="10.00">L4::Kobject_t&lt; Derived,</text>
<text text-anchor="middle" x="201" y="-588.5" font-family="Helvetica,sans-Serif" font-size="10.00"> Base, PROTO, S_DEMAND &gt;</text>
<polyline fill="none" stroke="black" points="123,-581.5 279,-581.5 "/>
<text text-anchor="middle" x="201" y="-569.5" font-family="Helvetica,sans-Serif" font-size="10.00"> </text>
<polyline fill="none" stroke="black" points="123,-562.5 279,-562.5 "/>
<text text-anchor="start" x="131" y="-550.5" font-family="Helvetica,sans-Serif" font-size="10.00"># c()</text>
<text text-anchor="start" x="131" y="-539.5" font-family="Helvetica,sans-Serif" font-size="10.00"># __check_protocols__()</text>
</a>
</g>
</g>
<!-- Node6&#45;&gt;Node2 -->
<g id="edge6" class="edge">
<title>Node6&#45;&gt;Node2</title>
<path fill="none" stroke="orange" d="M206.47,-522.27C206.68,-519.47 206.86,-516.7 207,-514 207.77,-499.35 207.65,-495.65 207,-481 202.11,-370.9 197.42,-343.51 185,-234 183.63,-221.88 181.94,-208.84 180.27,-196.64"/>
<polygon fill="orange" stroke="orange" points="202.97,-522.15 205.62,-532.41 209.94,-522.74 202.97,-522.15"/>
<text text-anchor="start" x="197" y="-335" font-family="Helvetica,sans-Serif" font-size="10.00"> &lt; Ipc_gate, Rcv_endpoint,</text>
<text text-anchor="start" x="197" y="-324" font-family="Helvetica,sans-Serif" font-size="10.00"> L4_PROTO_KOBJECT, Type</text>
<text text-anchor="middle" x="262.5" y="-313" font-family="Helvetica,sans-Serif" font-size="10.00">_info::Demand_t&lt; 1 &gt; &gt;</text>
</g>
<!-- Node6&#45;&gt;Node4 -->
<g id="edge5" class="edge">
<title>Node6&#45;&gt;Node4</title>
<path fill="none" stroke="orange" d="M113.64,-538.77C96.51,-530.69 82.21,-522.04 77,-514 67.32,-499.06 65.16,-480.09 66.08,-462.64"/>
<polygon fill="orange" stroke="orange" points="112.26,-541.99 122.82,-542.93 115.15,-535.61 112.26,-541.99"/>
<text text-anchor="start" x="77" y="-506" font-family="Helvetica,sans-Serif" font-size="10.00"> &lt; Rcv_endpoint, Kobject,</text>
<text text-anchor="start" x="77" y="-495" font-family="Helvetica,sans-Serif" font-size="10.00"> L4_PROTO_KOBJECT, Type</text>
<text text-anchor="middle" x="142" y="-484" font-family="Helvetica,sans-Serif" font-size="10.00">_info::Demand_t&lt; 1 &gt; &gt;</text>
</g>
</g>
</svg>
