<?xml version="1.0" encoding="UTF-8" standalone="no"?>
<!DOCTYPE svg PUBLIC "-//W3C//DTD SVG 1.1//EN"
 "http://www.w3.org/Graphics/SVG/1.1/DTD/svg11.dtd">
<!-- Generated by graphviz version 2.43.0 (0)
 -->
<!-- Title: L4Re::Util::Object_registry::unregister_obj Pages: 1 -->
<svg width="515pt" height="214pt"
 viewBox="0.00 0.00 515.00 213.50" xmlns="http://www.w3.org/2000/svg" xmlns:xlink="http://www.w3.org/1999/xlink">
<g id="graph0" class="graph" transform="scale(1 1) rotate(0) translate(4 209.5)">
<title>L4Re::Util::Object_registry::unregister_obj</title>
<polygon fill="white" stroke="transparent" points="-4,4 -4,-209.5 511,-209.5 511,4 -4,4"/>
<!-- Node1 -->
<g id="node1" class="node">
<title>Node1</title>
<g id="a_node1"><a xlink:title="Remove a server object from the handler list.">
<polygon fill="#bfbfbf" stroke="black" points="0,-77 0,-107 134,-107 134,-77 0,-77"/>
<text text-anchor="start" x="8" y="-95" font-family="Helvetica,sans-Serif" font-size="10.00">L4Re::Util::Object</text>
<text text-anchor="middle" x="67" y="-84" font-family="Helvetica,sans-Serif" font-size="10.00">_registry::unregister_obj</text>
</a>
</g>
</g>
<!-- Node2 -->
<g id="node2" class="node">
<title>Node2</title>
<g id="a_node2"><a xlink:href="classL4_1_1Thread_1_1Modify__senders.html#ae36dad061d7d4ef1469780b4c74ce7de" target="_top" xlink:title="Add a rule.">
<polygon fill="white" stroke="black" points="180,-175 180,-205 287,-205 287,-175 180,-175"/>
<text text-anchor="start" x="188" y="-193" font-family="Helvetica,sans-Serif" font-size="10.00">L4::Thread::Modify</text>
<text text-anchor="middle" x="233.5" y="-182" font-family="Helvetica,sans-Serif" font-size="10.00">_senders::add</text>
</a>
</g>
</g>
<!-- Node1&#45;&gt;Node2 -->
<g id="edge1" class="edge">
<title>Node1&#45;&gt;Node2</title>
<path fill="none" stroke="midnightblue" d="M85.83,-107.17C105.47,-123.33 138.46,-148.89 170,-166 173.06,-167.66 176.25,-169.26 179.51,-170.79"/>
<polygon fill="midnightblue" stroke="midnightblue" points="178.24,-174.05 188.8,-174.91 181.08,-167.65 178.24,-174.05"/>
</g>
<!-- Node3 -->
<g id="node3" class="node">
<title>Node3</title>
<g id="a_node3"><a xlink:href="classL4Re_1_1Util_1_1Counting__cap__alloc.html#a4f65c951a2cc3aae899c67e1ef325a8a" target="_top" xlink:title="Free the capability.">
<polygon fill="white" stroke="black" points="177,-126 177,-156 290,-156 290,-126 177,-126"/>
<text text-anchor="start" x="185" y="-144" font-family="Helvetica,sans-Serif" font-size="10.00">L4Re::Util::Counting</text>
<text text-anchor="middle" x="233.5" y="-133" font-family="Helvetica,sans-Serif" font-size="10.00">_cap_alloc::free</text>
</a>
</g>
</g>
<!-- Node1&#45;&gt;Node3 -->
<g id="edge2" class="edge">
<title>Node1&#45;&gt;Node3</title>
<path fill="none" stroke="midnightblue" d="M118.7,-107.1C135.66,-112.16 154.74,-117.84 172.36,-123.08"/>
<polygon fill="midnightblue" stroke="midnightblue" points="171.39,-126.45 181.97,-125.95 173.39,-119.74 171.39,-126.45"/>
</g>
<!-- Node6 -->
<g id="node6" class="node">
<title>Node6</title>
<g id="a_node6"><a xlink:href="classL4_1_1Thread.html#a9bcade7e8db8d775cc1f2a2a6225c845" target="_top" xlink:title="Apply sender modification rules.">
<polygon fill="white" stroke="black" points="180,-77 180,-107 287,-107 287,-77 180,-77"/>
<text text-anchor="start" x="188" y="-95" font-family="Helvetica,sans-Serif" font-size="10.00">L4::Thread::modify</text>
<text text-anchor="middle" x="233.5" y="-84" font-family="Helvetica,sans-Serif" font-size="10.00">_senders</text>
</a>
</g>
</g>
<!-- Node1&#45;&gt;Node6 -->
<g id="edge5" class="edge">
<title>Node1&#45;&gt;Node6</title>
<path fill="none" stroke="midnightblue" d="M134.43,-92C146.16,-92 158.33,-92 169.94,-92"/>
<polygon fill="midnightblue" stroke="midnightblue" points="169.98,-95.5 179.98,-92 169.98,-88.5 169.98,-95.5"/>
</g>
<!-- Node11 -->
<g id="node11" class="node">
<title>Node11</title>
<g id="a_node11"><a xlink:href="structL4_1_1Epiface.html#a0d454b9446bdf9e317b09574a5155fe0" target="_top" xlink:title="Get the capability to the kernel object belonging to this object.">
<polygon fill="white" stroke="black" points="177,-38.5 177,-57.5 290,-57.5 290,-38.5 177,-38.5"/>
<text text-anchor="middle" x="233.5" y="-45.5" font-family="Helvetica,sans-Serif" font-size="10.00">L4::Epiface::obj_cap</text>
</a>
</g>
</g>
<!-- Node1&#45;&gt;Node11 -->
<g id="edge10" class="edge">
<title>Node1&#45;&gt;Node11</title>
<path fill="none" stroke="midnightblue" d="M124.15,-76.98C144.6,-71.51 167.45,-65.4 186.88,-60.2"/>
<polygon fill="midnightblue" stroke="midnightblue" points="187.93,-63.54 196.69,-57.58 186.13,-56.78 187.93,-63.54"/>
</g>
<!-- Node12 -->
<g id="node12" class="node">
<title>Node12</title>
<g id="a_node12"><a xlink:href="structL4_1_1Epiface.html#af47d6b2877fa4a09e04140a6644631aa" target="_top" xlink:title="Set server registration info for the object.">
<polygon fill="white" stroke="black" points="170,-0.5 170,-19.5 297,-19.5 297,-0.5 170,-0.5"/>
<text text-anchor="middle" x="233.5" y="-7.5" font-family="Helvetica,sans-Serif" font-size="10.00">L4::Epiface::set_server</text>
</a>
</g>
</g>
<!-- Node1&#45;&gt;Node12 -->
<g id="edge11" class="edge">
<title>Node1&#45;&gt;Node12</title>
<path fill="none" stroke="midnightblue" d="M88.99,-76.79C109.01,-62.84 140.41,-42.36 170,-29 175.04,-26.72 180.42,-24.63 185.84,-22.72"/>
<polygon fill="midnightblue" stroke="midnightblue" points="187.17,-25.97 195.56,-19.5 184.97,-19.32 187.17,-25.97"/>
</g>
<!-- Node4 -->
<g id="node4" class="node">
<title>Node4</title>
<g id="a_node4"><a xlink:href="group__l4__cap__api.html#ga539da15c2a1be4803ed7a3f3a5742194" target="_top" xlink:title="Test if a capability selector is a valid selector.">
<polygon fill="white" stroke="black" points="334,-169.5 334,-188.5 425,-188.5 425,-169.5 334,-169.5"/>
<text text-anchor="middle" x="379.5" y="-176.5" font-family="Helvetica,sans-Serif" font-size="10.00">l4_is_valid_cap</text>
</a>
</g>
</g>
<!-- Node3&#45;&gt;Node4 -->
<g id="edge3" class="edge">
<title>Node3&#45;&gt;Node4</title>
<path fill="none" stroke="midnightblue" d="M290.17,-155.69C304.05,-159.35 318.78,-163.24 332.15,-166.77"/>
<polygon fill="midnightblue" stroke="midnightblue" points="331.51,-170.22 342.07,-169.39 333.3,-163.45 331.51,-170.22"/>
</g>
<!-- Node5 -->
<g id="node5" class="node">
<title>Node5</title>
<g id="a_node5"><a xlink:href="group__l4__task__api.html#gaa5558855716b35c1790b61249cf2974b" target="_top" xlink:title="Revoke rights from the task.">
<polygon fill="white" stroke="black" points="334,-131.5 334,-150.5 425,-150.5 425,-131.5 334,-131.5"/>
<text text-anchor="middle" x="379.5" y="-138.5" font-family="Helvetica,sans-Serif" font-size="10.00">l4_task_unmap</text>
</a>
</g>
</g>
<!-- Node3&#45;&gt;Node5 -->
<g id="edge4" class="edge">
<title>Node3&#45;&gt;Node5</title>
<path fill="none" stroke="midnightblue" d="M290.17,-141C301.09,-141 312.53,-141 323.43,-141"/>
<polygon fill="midnightblue" stroke="midnightblue" points="323.67,-144.5 333.67,-141 323.67,-137.5 323.67,-144.5"/>
</g>
<!-- Node7 -->
<g id="node7" class="node">
<title>Node7</title>
<g id="a_node7"><a xlink:href="classL4_1_1Kobject.html#a4f2117ae76762f4084e6a1adb915863c" target="_top" xlink:title="Return capability selector.">
<polygon fill="white" stroke="black" points="333,-93.5 333,-112.5 426,-112.5 426,-93.5 333,-93.5"/>
<text text-anchor="middle" x="379.5" y="-100.5" font-family="Helvetica,sans-Serif" font-size="10.00">L4::Kobject::cap</text>
</a>
</g>
</g>
<!-- Node6&#45;&gt;Node7 -->
<g id="edge6" class="edge">
<title>Node6&#45;&gt;Node7</title>
<path fill="none" stroke="midnightblue" d="M287.3,-96.03C298.85,-96.92 311.11,-97.85 322.77,-98.74"/>
<polygon fill="midnightblue" stroke="midnightblue" points="322.59,-102.24 332.82,-99.51 323.12,-95.26 322.59,-102.24"/>
</g>
<!-- Node8 -->
<g id="node8" class="node">
<title>Node8</title>
<g id="a_node8"><a xlink:href="group__l4__ipc__api.html#gab96d1669dcd54657237ee27b7f6862c6" target="_top" xlink:title="Object call (usual invocation).">
<polygon fill="white" stroke="black" points="345.5,-55.5 345.5,-74.5 413.5,-74.5 413.5,-55.5 345.5,-55.5"/>
<text text-anchor="middle" x="379.5" y="-62.5" font-family="Helvetica,sans-Serif" font-size="10.00">l4_ipc_call</text>
</a>
</g>
</g>
<!-- Node6&#45;&gt;Node8 -->
<g id="edge7" class="edge">
<title>Node6&#45;&gt;Node8</title>
<path fill="none" stroke="midnightblue" d="M287.3,-82.1C303.09,-79.14 320.2,-75.93 335.29,-73.1"/>
<polygon fill="midnightblue" stroke="midnightblue" points="336.19,-76.49 345.37,-71.21 334.9,-69.61 336.19,-76.49"/>
</g>
<!-- Node10 -->
<g id="node10" class="node">
<title>Node10</title>
<g id="a_node10"><a xlink:href="group__l4__msgtag__api.html#ga661d71acad9d096fa990f7c94943bc78" target="_top" xlink:title="Create a message tag from the specified values.">
<polygon fill="white" stroke="black" points="345.5,-17.5 345.5,-36.5 413.5,-36.5 413.5,-17.5 345.5,-17.5"/>
<text text-anchor="middle" x="379.5" y="-24.5" font-family="Helvetica,sans-Serif" font-size="10.00">l4_msgtag</text>
</a>
</g>
</g>
<!-- Node6&#45;&gt;Node10 -->
<g id="edge9" class="edge">
<title>Node6&#45;&gt;Node10</title>
<path fill="none" stroke="midnightblue" d="M274.56,-77C282.1,-73.89 289.86,-70.49 297,-67 313.64,-58.87 316.42,-54.25 333,-46 336.6,-44.21 340.42,-42.43 344.25,-40.73"/>
<polygon fill="midnightblue" stroke="midnightblue" points="345.87,-43.84 353.67,-36.67 343.1,-37.41 345.87,-43.84"/>
</g>
<!-- Node9 -->
<g id="node9" class="node">
<title>Node9</title>
<g id="a_node9"><a xlink:href="group__l4__ipc__api.html#ga0e7e5b18d784b1d3439ea6e5b4bea4e2" target="_top" xlink:title="Generic L4 object invocation.">
<polygon fill="white" stroke="black" points="462,-55.5 462,-74.5 507,-74.5 507,-55.5 462,-55.5"/>
<text text-anchor="middle" x="484.5" y="-62.5" font-family="Helvetica,sans-Serif" font-size="10.00">l4_ipc</text>
</a>
</g>
</g>
<!-- Node8&#45;&gt;Node9 -->
<g id="edge8" class="edge">
<title>Node8&#45;&gt;Node9</title>
<path fill="none" stroke="midnightblue" d="M413.66,-65C425.85,-65 439.61,-65 451.68,-65"/>
<polygon fill="midnightblue" stroke="midnightblue" points="451.77,-68.5 461.77,-65 451.77,-61.5 451.77,-68.5"/>
</g>
</g>
</svg>
