<?xml version="1.0" encoding="UTF-8" standalone="no"?>
<!DOCTYPE svg PUBLIC "-//W3C//DTD SVG 1.1//EN"
 "http://www.w3.org/Graphics/SVG/1.1/DTD/svg11.dtd">
<!-- Generated by graphviz version 2.43.0 (0)
 -->
<!-- Title: L4::Rcv_endpoint Pages: 1 -->
<svg width="343pt" height="643pt"
 viewBox="0.00 0.00 342.50 643.00" xmlns="http://www.w3.org/2000/svg" xmlns:xlink="http://www.w3.org/1999/xlink">
<g id="graph0" class="graph" transform="scale(1 1) rotate(0) translate(4 639)">
<title>L4::Rcv_endpoint</title>
<polygon fill="white" stroke="transparent" points="-4,4 -4,-639 338.5,-639 338.5,4 -4,4"/>
<!-- Node1 -->
<g id="node1" class="node">
<title>Node1</title>
<g id="a_node1"><a xlink:title="Interface for kernel objects that allow to receive IPC from them.">
<polygon fill="#bfbfbf" stroke="black" points="111.5,-289.5 111.5,-346.5 211.5,-346.5 211.5,-289.5 111.5,-289.5"/>
<text text-anchor="middle" x="161.5" y="-334.5" font-family="Helvetica,sans-Serif" font-size="10.00">L4::Rcv_endpoint</text>
<polyline fill="none" stroke="black" points="111.5,-327.5 211.5,-327.5 "/>
<text text-anchor="middle" x="161.5" y="-315.5" font-family="Helvetica,sans-Serif" font-size="10.00"> </text>
<polyline fill="none" stroke="black" points="111.5,-308.5 211.5,-308.5 "/>
<text text-anchor="start" x="119.5" y="-296.5" font-family="Helvetica,sans-Serif" font-size="10.00">+ bind_thread()</text>
</a>
</g>
</g>
<!-- Node5 -->
<g id="node5" class="node">
<title>Node5</title>
<g id="a_node5"><a xlink:href="classL4_1_1Kobject__2t.html" target="_top" xlink:title=" ">
<polygon fill="white" stroke="black" points="0,-128.5 0,-251.5 155,-251.5 155,-128.5 0,-128.5"/>
<text text-anchor="start" x="8" y="-239.5" font-family="Helvetica,sans-Serif" font-size="10.00">L4::Kobject_2t&lt; Irq,</text>
<text text-anchor="start" x="8" y="-228.5" font-family="Helvetica,sans-Serif" font-size="10.00"> Triggerable, Rcv_endpoint,</text>
<text text-anchor="middle" x="77.5" y="-217.5" font-family="Helvetica,sans-Serif" font-size="10.00"> L4_PROTO_IRQ_SENDER &gt;</text>
<polyline fill="none" stroke="black" points="0,-210.5 155,-210.5 "/>
<text text-anchor="middle" x="77.5" y="-198.5" font-family="Helvetica,sans-Serif" font-size="10.00"> </text>
<polyline fill="none" stroke="black" points="0,-191.5 155,-191.5 "/>
<text text-anchor="start" x="8" y="-179.5" font-family="Helvetica,sans-Serif" font-size="10.00">+ operator Kobject const &amp;()</text>
<text text-anchor="start" x="8" y="-168.5" font-family="Helvetica,sans-Serif" font-size="10.00">+ dec_refcnt()</text>
<text text-anchor="start" x="8" y="-157.5" font-family="Helvetica,sans-Serif" font-size="10.00"># cap()</text>
<text text-anchor="start" x="8" y="-146.5" font-family="Helvetica,sans-Serif" font-size="10.00"># c()</text>
<text text-anchor="start" x="8" y="-135.5" font-family="Helvetica,sans-Serif" font-size="10.00"># __check_protocols__()</text>
</a>
</g>
</g>
<!-- Node1&#45;&gt;Node5 -->
<g id="edge4" class="edge">
<title>Node1&#45;&gt;Node5</title>
<path fill="none" stroke="midnightblue" d="M137.43,-280.89C131.33,-271.74 124.6,-261.65 117.93,-251.65"/>
<polygon fill="none" stroke="midnightblue" points="134.61,-282.97 143.07,-289.35 140.43,-279.09 134.61,-282.97"/>
</g>
<!-- Node7 -->
<g id="node7" class="node">
<title>Node7</title>
<g id="a_node7"><a xlink:href="classL4_1_1Kobject__t.html" target="_top" xlink:title=" ">
<polygon fill="white" stroke="black" points="173.5,-139.5 173.5,-240.5 319.5,-240.5 319.5,-139.5 173.5,-139.5"/>
<text text-anchor="start" x="181.5" y="-228.5" font-family="Helvetica,sans-Serif" font-size="10.00">L4::Kobject_t&lt; Ipc</text>
<text text-anchor="start" x="181.5" y="-217.5" font-family="Helvetica,sans-Serif" font-size="10.00">_gate, Rcv_endpoint,</text>
<text text-anchor="start" x="181.5" y="-206.5" font-family="Helvetica,sans-Serif" font-size="10.00"> L4_PROTO_KOBJECT, Type</text>
<text text-anchor="middle" x="246.5" y="-195.5" font-family="Helvetica,sans-Serif" font-size="10.00">_info::Demand_t&lt; 1 &gt; &gt;</text>
<polyline fill="none" stroke="black" points="173.5,-188.5 319.5,-188.5 "/>
<text text-anchor="middle" x="246.5" y="-176.5" font-family="Helvetica,sans-Serif" font-size="10.00"> </text>
<polyline fill="none" stroke="black" points="173.5,-169.5 319.5,-169.5 "/>
<text text-anchor="start" x="181.5" y="-157.5" font-family="Helvetica,sans-Serif" font-size="10.00"># c()</text>
<text text-anchor="start" x="181.5" y="-146.5" font-family="Helvetica,sans-Serif" font-size="10.00"># __check_protocols__()</text>
</a>
</g>
</g>
<!-- Node1&#45;&gt;Node7 -->
<g id="edge6" class="edge">
<title>Node1&#45;&gt;Node7</title>
<path fill="none" stroke="midnightblue" d="M185.8,-280.98C194.27,-268.43 203.92,-254.12 212.99,-240.67"/>
<polygon fill="none" stroke="midnightblue" points="182.84,-279.1 180.15,-289.35 188.65,-283.02 182.84,-279.1"/>
</g>
<!-- Node2 -->
<g id="node2" class="node">
<title>Node2</title>
<g id="a_node2"><a xlink:href="classL4_1_1Kobject__t.html" target="_top" xlink:title=" ">
<polygon fill="white" stroke="black" points="88.5,-384.5 88.5,-485.5 234.5,-485.5 234.5,-384.5 88.5,-384.5"/>
<text text-anchor="start" x="96.5" y="-473.5" font-family="Helvetica,sans-Serif" font-size="10.00">L4::Kobject_t&lt; Rcv</text>
<text text-anchor="start" x="96.5" y="-462.5" font-family="Helvetica,sans-Serif" font-size="10.00">_endpoint, Kobject,</text>
<text text-anchor="start" x="96.5" y="-451.5" font-family="Helvetica,sans-Serif" font-size="10.00"> L4_PROTO_KOBJECT, Type</text>
<text text-anchor="middle" x="161.5" y="-440.5" font-family="Helvetica,sans-Serif" font-size="10.00">_info::Demand_t&lt; 1 &gt; &gt;</text>
<polyline fill="none" stroke="black" points="88.5,-433.5 234.5,-433.5 "/>
<text text-anchor="middle" x="161.5" y="-421.5" font-family="Helvetica,sans-Serif" font-size="10.00"> </text>
<polyline fill="none" stroke="black" points="88.5,-414.5 234.5,-414.5 "/>
<text text-anchor="start" x="96.5" y="-402.5" font-family="Helvetica,sans-Serif" font-size="10.00"># c()</text>
<text text-anchor="start" x="96.5" y="-391.5" font-family="Helvetica,sans-Serif" font-size="10.00"># __check_protocols__()</text>
</a>
</g>
</g>
<!-- Node2&#45;&gt;Node1 -->
<g id="edge1" class="edge">
<title>Node2&#45;&gt;Node1</title>
<path fill="none" stroke="midnightblue" d="M161.5,-374.22C161.5,-364.59 161.5,-355.06 161.5,-346.68"/>
<polygon fill="none" stroke="midnightblue" points="158,-374.23 161.5,-384.23 165,-374.23 158,-374.23"/>
</g>
<!-- Node3 -->
<g id="node3" class="node">
<title>Node3</title>
<g id="a_node3"><a xlink:href="classL4_1_1Kobject.html" target="_top" xlink:title="Base class for all kinds of kernel objects and remote objects, referenced by capabilities.">
<polygon fill="white" stroke="black" points="49.5,-561 49.5,-629 135.5,-629 135.5,-561 49.5,-561"/>
<text text-anchor="middle" x="92.5" y="-617" font-family="Helvetica,sans-Serif" font-size="10.00">L4::Kobject</text>
<polyline fill="none" stroke="black" points="49.5,-610 135.5,-610 "/>
<text text-anchor="middle" x="92.5" y="-598" font-family="Helvetica,sans-Serif" font-size="10.00"> </text>
<polyline fill="none" stroke="black" points="49.5,-591 135.5,-591 "/>
<text text-anchor="start" x="57.5" y="-579" font-family="Helvetica,sans-Serif" font-size="10.00">+ dec_refcnt()</text>
<text text-anchor="start" x="57.5" y="-568" font-family="Helvetica,sans-Serif" font-size="10.00"># cap()</text>
</a>
</g>
</g>
<!-- Node3&#45;&gt;Node2 -->
<g id="edge2" class="edge">
<title>Node3&#45;&gt;Node2</title>
<path fill="none" stroke="midnightblue" d="M111.03,-551.56C119.91,-531.24 130.59,-506.77 139.84,-485.59"/>
<polygon fill="none" stroke="midnightblue" points="107.76,-550.31 106.96,-560.88 114.17,-553.11 107.76,-550.31"/>
</g>
<!-- Node4 -->
<g id="node4" class="node">
<title>Node4</title>
<g id="a_node4"><a xlink:href="classL4_1_1Kobject__t.html" target="_top" xlink:title="Helper class to create an L4Re interface class that is derived from a single base class.">
<polygon fill="white" stroke="black" points="153.5,-555.5 153.5,-634.5 309.5,-634.5 309.5,-555.5 153.5,-555.5"/>
<text text-anchor="start" x="161.5" y="-622.5" font-family="Helvetica,sans-Serif" font-size="10.00">L4::Kobject_t&lt; Derived,</text>
<text text-anchor="middle" x="231.5" y="-611.5" font-family="Helvetica,sans-Serif" font-size="10.00"> Base, PROTO, S_DEMAND &gt;</text>
<polyline fill="none" stroke="black" points="153.5,-604.5 309.5,-604.5 "/>
<text text-anchor="middle" x="231.5" y="-592.5" font-family="Helvetica,sans-Serif" font-size="10.00"> </text>
<polyline fill="none" stroke="black" points="153.5,-585.5 309.5,-585.5 "/>
<text text-anchor="start" x="161.5" y="-573.5" font-family="Helvetica,sans-Serif" font-size="10.00"># c()</text>
<text text-anchor="start" x="161.5" y="-562.5" font-family="Helvetica,sans-Serif" font-size="10.00"># __check_protocols__()</text>
</a>
</g>
</g>
<!-- Node4&#45;&gt;Node2 -->
<g id="edge3" class="edge">
<title>Node4&#45;&gt;Node2</title>
<path fill="none" stroke="orange" d="M210.32,-546.2C201.83,-527.04 192.05,-504.95 183.48,-485.61"/>
<polygon fill="orange" stroke="orange" points="207.13,-547.62 214.38,-555.35 213.53,-544.79 207.13,-547.62"/>
<text text-anchor="start" x="204.5" y="-529" font-family="Helvetica,sans-Serif" font-size="10.00"> &lt; Rcv_endpoint, Kobject,</text>
<text text-anchor="start" x="204.5" y="-518" font-family="Helvetica,sans-Serif" font-size="10.00"> L4_PROTO_KOBJECT, Type</text>
<text text-anchor="middle" x="269.5" y="-507" font-family="Helvetica,sans-Serif" font-size="10.00">_info::Demand_t&lt; 1 &gt; &gt;</text>
</g>
<!-- Node6 -->
<g id="node6" class="node">
<title>Node6</title>
<g id="a_node6"><a xlink:href="classL4_1_1Irq.html" target="_top" xlink:title="C++ Irq interface.">
<polygon fill="white" stroke="black" points="40.5,-0.5 40.5,-90.5 114.5,-90.5 114.5,-0.5 40.5,-0.5"/>
<text text-anchor="middle" x="77.5" y="-78.5" font-family="Helvetica,sans-Serif" font-size="10.00">L4::Irq</text>
<polyline fill="none" stroke="black" points="40.5,-71.5 114.5,-71.5 "/>
<text text-anchor="middle" x="77.5" y="-59.5" font-family="Helvetica,sans-Serif" font-size="10.00"> </text>
<polyline fill="none" stroke="black" points="40.5,-52.5 114.5,-52.5 "/>
<text text-anchor="start" x="48.5" y="-40.5" font-family="Helvetica,sans-Serif" font-size="10.00">+ detach()</text>
<text text-anchor="start" x="48.5" y="-29.5" font-family="Helvetica,sans-Serif" font-size="10.00">+ receive()</text>
<text text-anchor="start" x="48.5" y="-18.5" font-family="Helvetica,sans-Serif" font-size="10.00">+ wait()</text>
<text text-anchor="start" x="48.5" y="-7.5" font-family="Helvetica,sans-Serif" font-size="10.00">+ unmask()</text>
</a>
</g>
</g>
<!-- Node5&#45;&gt;Node6 -->
<g id="edge5" class="edge">
<title>Node5&#45;&gt;Node6</title>
<path fill="none" stroke="midnightblue" d="M77.5,-118.08C77.5,-108.77 77.5,-99.46 77.5,-90.77"/>
<polygon fill="none" stroke="midnightblue" points="74,-118.15 77.5,-128.15 81,-118.15 74,-118.15"/>
</g>
<!-- Node8 -->
<g id="node8" class="node">
<title>Node8</title>
<g id="a_node8"><a xlink:href="classL4_1_1Ipc__gate.html" target="_top" xlink:title="The C++ IPC gate interface.">
<polygon fill="white" stroke="black" points="206.5,-17 206.5,-74 286.5,-74 286.5,-17 206.5,-17"/>
<text text-anchor="middle" x="246.5" y="-62" font-family="Helvetica,sans-Serif" font-size="10.00">L4::Ipc_gate</text>
<polyline fill="none" stroke="black" points="206.5,-55 286.5,-55 "/>
<text text-anchor="middle" x="246.5" y="-43" font-family="Helvetica,sans-Serif" font-size="10.00"> </text>
<polyline fill="none" stroke="black" points="206.5,-36 286.5,-36 "/>
<text text-anchor="start" x="214.5" y="-24" font-family="Helvetica,sans-Serif" font-size="10.00">+ get_infos()</text>
</a>
</g>
</g>
<!-- Node7&#45;&gt;Node8 -->
<g id="edge7" class="edge">
<title>Node7&#45;&gt;Node8</title>
<path fill="none" stroke="midnightblue" d="M246.5,-129.01C246.5,-109.92 246.5,-89.73 246.5,-74.1"/>
<polygon fill="none" stroke="midnightblue" points="243,-129.16 246.5,-139.16 250,-129.16 243,-129.16"/>
</g>
</g>
</svg>
