<?xml version="1.0" encoding="UTF-8" standalone="no"?>
<!DOCTYPE svg PUBLIC "-//W3C//DTD SVG 1.1//EN"
 "http://www.w3.org/Graphics/SVG/1.1/DTD/svg11.dtd">
<!-- Generated by graphviz version 2.43.0 (0)
 -->
<!-- Title: L4virtio::Virtqueue::total_size Pages: 1 -->
<svg width="428pt" height="61pt"
 viewBox="0.00 0.00 428.00 61.00" xmlns="http://www.w3.org/2000/svg" xmlns:xlink="http://www.w3.org/1999/xlink">
<g id="graph0" class="graph" transform="scale(1 1) rotate(0) translate(4 57)">
<title>L4virtio::Virtqueue::total_size</title>
<polygon fill="white" stroke="transparent" points="-4,4 -4,-57 424,-57 424,4 -4,4"/>
<!-- Node1 -->
<g id="node1" class="node">
<title>Node1</title>
<g id="a_node1"><a xlink:title="Calculate the total size of this virtqueue.">
<polygon fill="#bfbfbf" stroke="black" points="0,-22.5 0,-52.5 107,-52.5 107,-22.5 0,-22.5"/>
<text text-anchor="start" x="8" y="-40.5" font-family="Helvetica,sans-Serif" font-size="10.00">L4virtio::Virtqueue</text>
<text text-anchor="middle" x="53.5" y="-29.5" font-family="Helvetica,sans-Serif" font-size="10.00">::total_size</text>
</a>
</g>
</g>
<!-- Node2 -->
<g id="node2" class="node">
<title>Node2</title>
<g id="a_node2"><a xlink:href="classL4virtio_1_1Virtqueue.html#af61e3e4e436b93f37f22243a1c0ffe0e" target="_top" xlink:title=" ">
<polygon fill="white" stroke="black" points="286,-28 286,-47 420,-47 420,-28 286,-28"/>
<text text-anchor="middle" x="353" y="-35" font-family="Helvetica,sans-Serif" font-size="10.00">L4virtio::Virtqueue::num</text>
</a>
</g>
</g>
<!-- Node1&#45;&gt;Node2 -->
<g id="edge1" class="edge">
<title>Node1&#45;&gt;Node2</title>
<path fill="none" stroke="midnightblue" d="M107.37,-39.59C119.1,-39.97 131.47,-40.3 143,-40.5 190.55,-41.31 202.45,-41.2 250,-40.5 258.34,-40.38 267.06,-40.2 275.74,-39.99"/>
<polygon fill="midnightblue" stroke="midnightblue" points="275.98,-43.48 285.89,-39.73 275.8,-36.49 275.98,-43.48"/>
</g>
<!-- Node3 -->
<g id="node3" class="node">
<title>Node3</title>
<g id="a_node3"><a xlink:href="classL4virtio_1_1Virtqueue.html#a7747ac81d7fd21e1e55e43c2e7ead2ea" target="_top" xlink:title="Calculate the size of the used ring for num entries.">
<polygon fill="white" stroke="black" points="143,-0.5 143,-30.5 250,-30.5 250,-0.5 143,-0.5"/>
<text text-anchor="start" x="151" y="-18.5" font-family="Helvetica,sans-Serif" font-size="10.00">L4virtio::Virtqueue</text>
<text text-anchor="middle" x="196.5" y="-7.5" font-family="Helvetica,sans-Serif" font-size="10.00">::used_size</text>
</a>
</g>
</g>
<!-- Node1&#45;&gt;Node3 -->
<g id="edge2" class="edge">
<title>Node1&#45;&gt;Node3</title>
<path fill="none" stroke="midnightblue" d="M107,-29.31C115.44,-27.99 124.26,-26.62 132.9,-25.27"/>
<polygon fill="midnightblue" stroke="midnightblue" points="133.61,-28.7 142.95,-23.7 132.53,-21.78 133.61,-28.7"/>
</g>
<!-- Node3&#45;&gt;Node2 -->
<g id="edge3" class="edge">
<title>Node3&#45;&gt;Node2</title>
<path fill="none" stroke="midnightblue" d="M250.24,-23.01C258.47,-24.18 267.11,-25.41 275.74,-26.64"/>
<polygon fill="midnightblue" stroke="midnightblue" points="275.44,-30.13 285.84,-28.08 276.43,-23.2 275.44,-30.13"/>
</g>
</g>
</svg>
