<?xml version="1.0" encoding="UTF-8" standalone="no"?>
<!DOCTYPE svg PUBLIC "-//W3C//DTD SVG 1.1//EN"
 "http://www.w3.org/Graphics/SVG/1.1/DTD/svg11.dtd">
<!-- Generated by graphviz version 2.43.0 (0)
 -->
<!-- Title: L4virtio::Driver::Virtqueue::find_next_used Pages: 1 -->
<svg width="689pt" height="88pt"
 viewBox="0.00 0.00 689.00 88.00" xmlns="http://www.w3.org/2000/svg" xmlns:xlink="http://www.w3.org/1999/xlink">
<g id="graph0" class="graph" transform="scale(1 1) rotate(0) translate(4 84)">
<title>L4virtio::Driver::Virtqueue::find_next_used</title>
<polygon fill="white" stroke="transparent" points="-4,4 -4,-84 685,-84 685,4 -4,4"/>
<!-- Node1 -->
<g id="node1" class="node">
<title>Node1</title>
<g id="a_node1"><a xlink:title="Return the next finished block.">
<polygon fill="#bfbfbf" stroke="black" points="538,-24.5 538,-54.5 681,-54.5 681,-24.5 538,-24.5"/>
<text text-anchor="start" x="546" y="-42.5" font-family="Helvetica,sans-Serif" font-size="10.00">L4virtio::Driver::Virtqueue</text>
<text text-anchor="middle" x="609.5" y="-31.5" font-family="Helvetica,sans-Serif" font-size="10.00">::find_next_used</text>
</a>
</g>
</g>
<!-- Node2 -->
<g id="node2" class="node">
<title>Node2</title>
<g id="a_node2"><a xlink:href="classL4virtio_1_1Driver_1_1Block__device.html#a9f1a7a08e90ca6c1441bd48abc8b574a" target="_top" xlink:title="Process and free all items in the used queue.">
<polygon fill="white" stroke="black" points="341,-49.5 341,-79.5 502,-79.5 502,-49.5 341,-49.5"/>
<text text-anchor="start" x="349" y="-67.5" font-family="Helvetica,sans-Serif" font-size="10.00">L4virtio::Driver::Block</text>
<text text-anchor="middle" x="421.5" y="-56.5" font-family="Helvetica,sans-Serif" font-size="10.00">_device::process_used_queue</text>
</a>
</g>
</g>
<!-- Node1&#45;&gt;Node2 -->
<g id="edge1" class="edge">
<title>Node1&#45;&gt;Node2</title>
<path fill="none" stroke="midnightblue" d="M527.93,-50.33C519.35,-51.48 510.63,-52.65 502.06,-53.81"/>
<polygon fill="midnightblue" stroke="midnightblue" points="528.47,-53.79 537.92,-48.99 527.54,-46.85 528.47,-53.79"/>
</g>
<!-- Node3 -->
<g id="node3" class="node">
<title>Node3</title>
<g id="a_node3"><a xlink:href="classL4virtio_1_1Driver_1_1Device.html#a156576a5d43ef2fe11b39f4d8ffc4c9e" target="_top" xlink:title="Wait for the next item to arrive in the used queue and return it.">
<polygon fill="white" stroke="black" points="357,-0.5 357,-30.5 486,-30.5 486,-0.5 357,-0.5"/>
<text text-anchor="start" x="365" y="-18.5" font-family="Helvetica,sans-Serif" font-size="10.00">L4virtio::Driver::Device</text>
<text text-anchor="middle" x="421.5" y="-7.5" font-family="Helvetica,sans-Serif" font-size="10.00">::wait_for_next_used</text>
</a>
</g>
</g>
<!-- Node1&#45;&gt;Node3 -->
<g id="edge2" class="edge">
<title>Node1&#45;&gt;Node3</title>
<path fill="none" stroke="midnightblue" d="M527.82,-29.09C513.83,-27.28 499.46,-25.43 486.01,-23.7"/>
<polygon fill="midnightblue" stroke="midnightblue" points="527.55,-32.58 537.92,-30.39 528.45,-25.64 527.55,-32.58"/>
</g>
<!-- Node4 -->
<g id="node4" class="node">
<title>Node4</title>
<g id="a_node4"><a xlink:href="classL4virtio_1_1Driver_1_1Device.html#af4aa9ac34ce928b9d437f1bb6a2ec216" target="_top" xlink:title="Send a request to the device and wait for it to be processed.">
<polygon fill="white" stroke="black" points="176,-0.5 176,-30.5 305,-30.5 305,-0.5 176,-0.5"/>
<text text-anchor="start" x="184" y="-18.5" font-family="Helvetica,sans-Serif" font-size="10.00">L4virtio::Driver::Device</text>
<text text-anchor="middle" x="240.5" y="-7.5" font-family="Helvetica,sans-Serif" font-size="10.00">::send_and_wait</text>
</a>
</g>
</g>
<!-- Node3&#45;&gt;Node4 -->
<g id="edge3" class="edge">
<title>Node3&#45;&gt;Node4</title>
<path fill="none" stroke="midnightblue" d="M346.52,-15.5C332.8,-15.5 318.59,-15.5 305.21,-15.5"/>
<polygon fill="midnightblue" stroke="midnightblue" points="346.89,-19 356.89,-15.5 346.89,-12 346.89,-19"/>
</g>
<!-- Node5 -->
<g id="node5" class="node">
<title>Node5</title>
<g id="a_node5"><a xlink:href="classL4virtio_1_1Driver_1_1Block__device.html#a63f21e71556accc8c669ef80161ecd8e" target="_top" xlink:title="Process request synchronously.">
<polygon fill="white" stroke="black" points="0,-0.5 0,-30.5 140,-30.5 140,-0.5 0,-0.5"/>
<text text-anchor="start" x="8" y="-18.5" font-family="Helvetica,sans-Serif" font-size="10.00">L4virtio::Driver::Block</text>
<text text-anchor="middle" x="70" y="-7.5" font-family="Helvetica,sans-Serif" font-size="10.00">_device::process_request</text>
</a>
</g>
</g>
<!-- Node4&#45;&gt;Node5 -->
<g id="edge4" class="edge">
<title>Node4&#45;&gt;Node5</title>
<path fill="none" stroke="midnightblue" d="M165.58,-15.5C157.12,-15.5 148.53,-15.5 140.14,-15.5"/>
<polygon fill="midnightblue" stroke="midnightblue" points="165.8,-19 175.8,-15.5 165.8,-12 165.8,-19"/>
</g>
</g>
</svg>
