<?xml version="1.0" encoding="UTF-8" standalone="no"?>
<!DOCTYPE svg PUBLIC "-//W3C//DTD SVG 1.1//EN"
 "http://www.w3.org/Graphics/SVG/1.1/DTD/svg11.dtd">
<!-- Generated by graphviz version 2.43.0 (0)
 -->
<!-- Title: L4vbus::Pm&lt; DEC &gt; Pages: 1 -->
<svg width="603pt" height="603pt"
 viewBox="0.00 0.00 603.00 603.00" xmlns="http://www.w3.org/2000/svg" xmlns:xlink="http://www.w3.org/1999/xlink">
<g id="graph0" class="graph" transform="scale(1 1) rotate(0) translate(4 599)">
<title>L4vbus::Pm&lt; DEC &gt;</title>
<polygon fill="white" stroke="transparent" points="-4,4 -4,-599 599,-599 599,4 -4,4"/>
<!-- Node1 -->
<g id="node1" class="node">
<title>Node1</title>
<g id="a_node1"><a xlink:title="Power&#45;management API mixin.">
<polygon fill="#bfbfbf" stroke="black" points="236,-526.5 236,-594.5 352,-594.5 352,-526.5 236,-526.5"/>
<text text-anchor="middle" x="294" y="-582.5" font-family="Helvetica,sans-Serif" font-size="10.00">L4vbus::Pm&lt; DEC &gt;</text>
<polyline fill="none" stroke="black" points="236,-575.5 352,-575.5 "/>
<text text-anchor="middle" x="294" y="-563.5" font-family="Helvetica,sans-Serif" font-size="10.00"> </text>
<polyline fill="none" stroke="black" points="236,-556.5 352,-556.5 "/>
<text text-anchor="start" x="244" y="-544.5" font-family="Helvetica,sans-Serif" font-size="10.00">+ pm_suspend()</text>
<text text-anchor="start" x="244" y="-533.5" font-family="Helvetica,sans-Serif" font-size="10.00">+ pm_resume()</text>
</a>
</g>
</g>
<!-- Node2 -->
<g id="node2" class="node">
<title>Node2</title>
<g id="a_node2"><a xlink:href="classL4vbus_1_1Pm.html" target="_top" xlink:title=" ">
<polygon fill="white" stroke="black" points="229.5,-410.5 229.5,-478.5 358.5,-478.5 358.5,-410.5 229.5,-410.5"/>
<text text-anchor="middle" x="294" y="-466.5" font-family="Helvetica,sans-Serif" font-size="10.00">L4vbus::Pm&lt; Device &gt;</text>
<polyline fill="none" stroke="black" points="229.5,-459.5 358.5,-459.5 "/>
<text text-anchor="middle" x="294" y="-447.5" font-family="Helvetica,sans-Serif" font-size="10.00"> </text>
<polyline fill="none" stroke="black" points="229.5,-440.5 358.5,-440.5 "/>
<text text-anchor="start" x="237.5" y="-428.5" font-family="Helvetica,sans-Serif" font-size="10.00">+ pm_suspend()</text>
<text text-anchor="start" x="237.5" y="-417.5" font-family="Helvetica,sans-Serif" font-size="10.00">+ pm_resume()</text>
</a>
</g>
</g>
<!-- Node1&#45;&gt;Node2 -->
<g id="edge1" class="edge">
<title>Node1&#45;&gt;Node2</title>
<path fill="none" stroke="orange" d="M294,-516.06C294,-503.64 294,-490.32 294,-478.62"/>
<polygon fill="orange" stroke="orange" points="290.5,-516.22 294,-526.22 297.5,-516.22 290.5,-516.22"/>
<text text-anchor="middle" x="324" y="-500" font-family="Helvetica,sans-Serif" font-size="10.00"> &lt; Device &gt;</text>
</g>
<!-- Node3 -->
<g id="node3" class="node">
<title>Node3</title>
<g id="a_node3"><a xlink:href="classL4vbus_1_1Device.html" target="_top" xlink:title="Device on a L4vbus::Vbus.">
<polygon fill="white" stroke="black" points="241.5,-194.5 241.5,-372.5 346.5,-372.5 346.5,-194.5 241.5,-194.5"/>
<text text-anchor="middle" x="294" y="-360.5" font-family="Helvetica,sans-Serif" font-size="10.00">L4vbus::Device</text>
<polyline fill="none" stroke="black" points="241.5,-353.5 346.5,-353.5 "/>
<text text-anchor="start" x="249.5" y="-341.5" font-family="Helvetica,sans-Serif" font-size="10.00"># _bus</text>
<text text-anchor="start" x="249.5" y="-330.5" font-family="Helvetica,sans-Serif" font-size="10.00"># _dev</text>
<polyline fill="none" stroke="black" points="241.5,-323.5 346.5,-323.5 "/>
<text text-anchor="start" x="249.5" y="-311.5" font-family="Helvetica,sans-Serif" font-size="10.00">+ Device()</text>
<text text-anchor="start" x="249.5" y="-300.5" font-family="Helvetica,sans-Serif" font-size="10.00">+ Device()</text>
<text text-anchor="start" x="249.5" y="-289.5" font-family="Helvetica,sans-Serif" font-size="10.00">+ bus_cap()</text>
<text text-anchor="start" x="249.5" y="-278.5" font-family="Helvetica,sans-Serif" font-size="10.00">+ dev_handle()</text>
<text text-anchor="start" x="249.5" y="-267.5" font-family="Helvetica,sans-Serif" font-size="10.00">+ device_by_hid()</text>
<text text-anchor="start" x="249.5" y="-256.5" font-family="Helvetica,sans-Serif" font-size="10.00">+ next_device()</text>
<text text-anchor="start" x="249.5" y="-245.5" font-family="Helvetica,sans-Serif" font-size="10.00">+ device()</text>
<text text-anchor="start" x="249.5" y="-234.5" font-family="Helvetica,sans-Serif" font-size="10.00">+ get_resource()</text>
<text text-anchor="start" x="249.5" y="-223.5" font-family="Helvetica,sans-Serif" font-size="10.00">+ is_compatible()</text>
<text text-anchor="start" x="249.5" y="-212.5" font-family="Helvetica,sans-Serif" font-size="10.00">+ operator==()</text>
<text text-anchor="start" x="249.5" y="-201.5" font-family="Helvetica,sans-Serif" font-size="10.00">+ operator!=()</text>
</a>
</g>
</g>
<!-- Node2&#45;&gt;Node3 -->
<g id="edge2" class="edge">
<title>Node2&#45;&gt;Node3</title>
<path fill="none" stroke="midnightblue" d="M294,-400.11C294,-391.54 294,-382.27 294,-372.83"/>
<polygon fill="none" stroke="midnightblue" points="290.5,-400.17 294,-410.17 297.5,-400.17 290.5,-400.17"/>
</g>
<!-- Node4 -->
<g id="node4" class="node">
<title>Node4</title>
<g id="a_node4"><a xlink:href="classL4vbus_1_1Gpio__module.html" target="_top" xlink:title="A Gpio_module groups multiple GPIO pins together.">
<polygon fill="white" stroke="black" points="0,-17 0,-140 122,-140 122,-17 0,-17"/>
<text text-anchor="middle" x="61" y="-128" font-family="Helvetica,sans-Serif" font-size="10.00">L4vbus::Gpio_module</text>
<polyline fill="none" stroke="black" points="0,-121 122,-121 "/>
<text text-anchor="middle" x="61" y="-109" font-family="Helvetica,sans-Serif" font-size="10.00"> </text>
<polyline fill="none" stroke="black" points="0,-102 122,-102 "/>
<text text-anchor="start" x="8" y="-90" font-family="Helvetica,sans-Serif" font-size="10.00">+ Gpio_module()</text>
<text text-anchor="start" x="8" y="-79" font-family="Helvetica,sans-Serif" font-size="10.00">+ setup()</text>
<text text-anchor="start" x="8" y="-68" font-family="Helvetica,sans-Serif" font-size="10.00">+ config_pad()</text>
<text text-anchor="start" x="8" y="-57" font-family="Helvetica,sans-Serif" font-size="10.00">+ get()</text>
<text text-anchor="start" x="8" y="-46" font-family="Helvetica,sans-Serif" font-size="10.00">+ set()</text>
<text text-anchor="start" x="8" y="-35" font-family="Helvetica,sans-Serif" font-size="10.00">+ pin()</text>
<text text-anchor="start" x="8" y="-24" font-family="Helvetica,sans-Serif" font-size="10.00"># Gpio_module()</text>
</a>
</g>
</g>
<!-- Node3&#45;&gt;Node4 -->
<g id="edge3" class="edge">
<title>Node3&#45;&gt;Node4</title>
<path fill="none" stroke="midnightblue" d="M233.14,-239.7C201.57,-216.51 163.02,-186.6 131,-157 125.28,-151.71 119.5,-146.01 113.85,-140.18"/>
<polygon fill="none" stroke="midnightblue" points="231.29,-242.68 241.43,-245.76 235.42,-237.03 231.29,-242.68"/>
</g>
<!-- Node5 -->
<g id="node5" class="node">
<title>Node5</title>
<g id="a_node5"><a xlink:href="classL4vbus_1_1Gpio__pin.html" target="_top" xlink:title="A GPIO pin.">
<polygon fill="white" stroke="black" points="140,-0.5 140,-156.5 240,-156.5 240,-0.5 140,-0.5"/>
<text text-anchor="middle" x="190" y="-144.5" font-family="Helvetica,sans-Serif" font-size="10.00">L4vbus::Gpio_pin</text>
<polyline fill="none" stroke="black" points="140,-137.5 240,-137.5 "/>
<text text-anchor="start" x="148" y="-125.5" font-family="Helvetica,sans-Serif" font-size="10.00"># _pin</text>
<polyline fill="none" stroke="black" points="140,-118.5 240,-118.5 "/>
<text text-anchor="start" x="148" y="-106.5" font-family="Helvetica,sans-Serif" font-size="10.00">+ Gpio_pin()</text>
<text text-anchor="start" x="148" y="-95.5" font-family="Helvetica,sans-Serif" font-size="10.00">+ get()</text>
<text text-anchor="start" x="148" y="-84.5" font-family="Helvetica,sans-Serif" font-size="10.00">+ set()</text>
<text text-anchor="start" x="148" y="-73.5" font-family="Helvetica,sans-Serif" font-size="10.00">+ setup()</text>
<text text-anchor="start" x="148" y="-62.5" font-family="Helvetica,sans-Serif" font-size="10.00">+ config_pull()</text>
<text text-anchor="start" x="148" y="-51.5" font-family="Helvetica,sans-Serif" font-size="10.00">+ config_pad()</text>
<text text-anchor="start" x="148" y="-40.5" font-family="Helvetica,sans-Serif" font-size="10.00">+ config_get()</text>
<text text-anchor="start" x="148" y="-29.5" font-family="Helvetica,sans-Serif" font-size="10.00">+ to_irq()</text>
<text text-anchor="start" x="148" y="-18.5" font-family="Helvetica,sans-Serif" font-size="10.00">+ pin()</text>
<text text-anchor="start" x="148" y="-7.5" font-family="Helvetica,sans-Serif" font-size="10.00"># Gpio_pin()</text>
</a>
</g>
</g>
<!-- Node3&#45;&gt;Node5 -->
<g id="edge4" class="edge">
<title>Node3&#45;&gt;Node5</title>
<path fill="none" stroke="midnightblue" d="M244.16,-185.21C239.26,-175.66 234.34,-166.06 229.57,-156.74"/>
<polygon fill="none" stroke="midnightblue" points="241.16,-187.04 248.84,-194.35 247.39,-183.85 241.16,-187.04"/>
</g>
<!-- Node6 -->
<g id="node6" class="node">
<title>Node6</title>
<g id="a_node6"><a xlink:href="classL4vbus_1_1Icu.html" target="_top" xlink:title="Vbus Interrupt controller API.">
<polygon fill="white" stroke="black" points="258.5,-50 258.5,-107 329.5,-107 329.5,-50 258.5,-50"/>
<text text-anchor="middle" x="294" y="-95" font-family="Helvetica,sans-Serif" font-size="10.00">L4vbus::Icu</text>
<polyline fill="none" stroke="black" points="258.5,-88 329.5,-88 "/>
<text text-anchor="middle" x="294" y="-76" font-family="Helvetica,sans-Serif" font-size="10.00"> </text>
<polyline fill="none" stroke="black" points="258.5,-69 329.5,-69 "/>
<text text-anchor="start" x="266.5" y="-57" font-family="Helvetica,sans-Serif" font-size="10.00">+ vicu()</text>
</a>
</g>
</g>
<!-- Node3&#45;&gt;Node6 -->
<g id="edge5" class="edge">
<title>Node3&#45;&gt;Node6</title>
<path fill="none" stroke="midnightblue" d="M294,-183.98C294,-155.75 294,-127.22 294,-107.12"/>
<polygon fill="none" stroke="midnightblue" points="290.5,-184.35 294,-194.35 297.5,-184.35 290.5,-184.35"/>
</g>
<!-- Node7 -->
<g id="node7" class="node">
<title>Node7</title>
<g id="a_node7"><a xlink:href="classL4vbus_1_1Pci__dev.html" target="_top" xlink:title="A PCI device.">
<polygon fill="white" stroke="black" points="347.5,-39 347.5,-118 442.5,-118 442.5,-39 347.5,-39"/>
<text text-anchor="middle" x="395" y="-106" font-family="Helvetica,sans-Serif" font-size="10.00">L4vbus::Pci_dev</text>
<polyline fill="none" stroke="black" points="347.5,-99 442.5,-99 "/>
<text text-anchor="middle" x="395" y="-87" font-family="Helvetica,sans-Serif" font-size="10.00"> </text>
<polyline fill="none" stroke="black" points="347.5,-80 442.5,-80 "/>
<text text-anchor="start" x="355.5" y="-68" font-family="Helvetica,sans-Serif" font-size="10.00">+ cfg_read()</text>
<text text-anchor="start" x="355.5" y="-57" font-family="Helvetica,sans-Serif" font-size="10.00">+ cfg_write()</text>
<text text-anchor="start" x="355.5" y="-46" font-family="Helvetica,sans-Serif" font-size="10.00">+ irq_enable()</text>
</a>
</g>
</g>
<!-- Node3&#45;&gt;Node7 -->
<g id="edge6" class="edge">
<title>Node3&#45;&gt;Node7</title>
<path fill="none" stroke="midnightblue" d="M342.38,-185.26C354.22,-161.47 366.21,-137.36 375.75,-118.19"/>
<polygon fill="none" stroke="midnightblue" points="339.18,-183.83 337.86,-194.35 345.45,-186.95 339.18,-183.83"/>
</g>
<!-- Node8 -->
<g id="node8" class="node">
<title>Node8</title>
<g id="a_node8"><a xlink:href="classL4vbus_1_1Pci__host__bridge.html" target="_top" xlink:title="A Pci host bridge.">
<polygon fill="white" stroke="black" points="461,-39 461,-118 595,-118 595,-39 461,-39"/>
<text text-anchor="middle" x="528" y="-106" font-family="Helvetica,sans-Serif" font-size="10.00">L4vbus::Pci_host_bridge</text>
<polyline fill="none" stroke="black" points="461,-99 595,-99 "/>
<text text-anchor="middle" x="528" y="-87" font-family="Helvetica,sans-Serif" font-size="10.00"> </text>
<polyline fill="none" stroke="black" points="461,-80 595,-80 "/>
<text text-anchor="start" x="469" y="-68" font-family="Helvetica,sans-Serif" font-size="10.00">+ cfg_read()</text>
<text text-anchor="start" x="469" y="-57" font-family="Helvetica,sans-Serif" font-size="10.00">+ cfg_write()</text>
<text text-anchor="start" x="469" y="-46" font-family="Helvetica,sans-Serif" font-size="10.00">+ irq_enable()</text>
</a>
</g>
</g>
<!-- Node3&#45;&gt;Node8 -->
<g id="edge7" class="edge">
<title>Node3&#45;&gt;Node8</title>
<path fill="none" stroke="midnightblue" d="M355.03,-236.34C384.66,-213.28 420.38,-184.48 451,-157 464.55,-144.84 478.77,-130.9 491.24,-118.23"/>
<polygon fill="none" stroke="midnightblue" points="352.6,-233.79 346.85,-242.69 356.89,-239.32 352.6,-233.79"/>
</g>
</g>
</svg>
