<?xml version="1.0" encoding="UTF-8" standalone="no"?>
<!DOCTYPE svg PUBLIC "-//W3C//DTD SVG 1.1//EN"
 "http://www.w3.org/Graphics/SVG/1.1/DTD/svg11.dtd">
<!-- Generated by graphviz version 2.43.0 (0)
 -->
<!-- Title: L4::Ipc::Ostream::tag Pages: 1 -->
<svg width="287pt" height="66pt"
 viewBox="0.00 0.00 287.00 66.00" xmlns="http://www.w3.org/2000/svg" xmlns:xlink="http://www.w3.org/1999/xlink">
<g id="graph0" class="graph" transform="scale(1 1) rotate(0) translate(4 62)">
<title>L4::Ipc::Ostream::tag</title>
<polygon fill="white" stroke="transparent" points="-4,4 -4,-62 283,-62 283,4 -4,4"/>
<!-- Node1 -->
<g id="node1" class="node">
<title>Node1</title>
<g id="a_node1"><a xlink:title="Extract the L4 message tag from the stream.">
<polygon fill="#bfbfbf" stroke="black" points="161,-19.5 161,-38.5 279,-38.5 279,-19.5 161,-19.5"/>
<text text-anchor="middle" x="220" y="-26.5" font-family="Helvetica,sans-Serif" font-size="10.00">L4::Ipc::Ostream::tag</text>
</a>
</g>
</g>
<!-- Node2 -->
<g id="node2" class="node">
<title>Node2</title>
<g id="a_node2"><a xlink:href="ipc__stream.html#aa6400e3192138b73e14abf73337fff35" target="_top" xlink:title="Insert the L4 message tag into the stream s.">
<polygon fill="white" stroke="black" points="25.5,-38.5 25.5,-57.5 99.5,-57.5 99.5,-38.5 25.5,-38.5"/>
<text text-anchor="middle" x="62.5" y="-45.5" font-family="Helvetica,sans-Serif" font-size="10.00">operator&lt;&lt;</text>
</a>
</g>
</g>
<!-- Node1&#45;&gt;Node2 -->
<g id="edge1" class="edge">
<title>Node1&#45;&gt;Node2</title>
<path fill="none" stroke="midnightblue" d="M150.43,-37.38C132.9,-39.52 114.73,-41.74 99.57,-43.59"/>
<polygon fill="midnightblue" stroke="midnightblue" points="151.15,-40.82 160.66,-36.13 150.3,-33.87 151.15,-40.82"/>
</g>
<!-- Node3 -->
<g id="node3" class="node">
<title>Node3</title>
<g id="a_node3"><a xlink:href="classL4_1_1Ipc_1_1Ostream.html#a0ac15ba65285ed66a3b2ae7f9dc612d1" target="_top" xlink:title="Send the message via IPC to the given receiver.">
<polygon fill="white" stroke="black" points="0,-0.5 0,-19.5 125,-19.5 125,-0.5 0,-0.5"/>
<text text-anchor="middle" x="62.5" y="-7.5" font-family="Helvetica,sans-Serif" font-size="10.00">L4::Ipc::Ostream::send</text>
</a>
</g>
</g>
<!-- Node1&#45;&gt;Node3 -->
<g id="edge2" class="edge">
<title>Node1&#45;&gt;Node3</title>
<path fill="none" stroke="midnightblue" d="M150.72,-20.66C142.17,-19.61 133.47,-18.55 125.03,-17.52"/>
<polygon fill="midnightblue" stroke="midnightblue" points="150.3,-24.13 160.66,-21.87 151.15,-17.18 150.3,-24.13"/>
</g>
</g>
</svg>
