<?xml version="1.0" encoding="UTF-8" standalone="no"?>
<!DOCTYPE svg PUBLIC "-//W3C//DTD SVG 1.1//EN"
 "http://www.w3.org/Graphics/SVG/1.1/DTD/svg11.dtd">
<!-- Generated by graphviz version 2.43.0 (0)
 -->
<!-- Title: L4::Factory::create_thread Pages: 1 -->
<svg width="298pt" height="104pt"
 viewBox="0.00 0.00 298.00 104.00" xmlns="http://www.w3.org/2000/svg" xmlns:xlink="http://www.w3.org/1999/xlink">
<g id="graph0" class="graph" transform="scale(1 1) rotate(0) translate(4 100)">
<title>L4::Factory::create_thread</title>
<polygon fill="white" stroke="transparent" points="-4,4 -4,-100 294,-100 294,4 -4,4"/>
<!-- Node1 -->
<g id="node1" class="node">
<title>Node1</title>
<g id="a_node1"><a xlink:title="Create a new thread.">
<polygon fill="#bfbfbf" stroke="black" points="0,-33 0,-63 105,-63 105,-33 0,-33"/>
<text text-anchor="start" x="8" y="-51" font-family="Helvetica,sans-Serif" font-size="10.00">L4::Factory::create</text>
<text text-anchor="middle" x="52.5" y="-40" font-family="Helvetica,sans-Serif" font-size="10.00">_thread</text>
</a>
</g>
</g>
<!-- Node2 -->
<g id="node2" class="node">
<title>Node2</title>
<g id="a_node2"><a xlink:href="classL4_1_1Cap__base.html#a90ff089ca2442b128c2b2b0e1c22c6d7" target="_top" xlink:title="Return capability selector.">
<polygon fill="white" stroke="black" points="163.5,-76.5 163.5,-95.5 267.5,-95.5 267.5,-76.5 163.5,-76.5"/>
<text text-anchor="middle" x="215.5" y="-83.5" font-family="Helvetica,sans-Serif" font-size="10.00">L4::Cap_base::cap</text>
</a>
</g>
</g>
<!-- Node1&#45;&gt;Node2 -->
<g id="edge1" class="edge">
<title>Node1&#45;&gt;Node2</title>
<path fill="none" stroke="midnightblue" d="M105.33,-60.23C124.18,-64.68 145.46,-69.7 164.18,-74.12"/>
<polygon fill="midnightblue" stroke="midnightblue" points="163.46,-77.55 174,-76.44 165.07,-70.74 163.46,-77.55"/>
</g>
<!-- Node3 -->
<g id="node3" class="node">
<title>Node3</title>
<g id="a_node3"><a xlink:href="classL4_1_1Kobject.html#a4f2117ae76762f4084e6a1adb915863c" target="_top" xlink:title="Return capability selector.">
<polygon fill="white" stroke="black" points="169,-38.5 169,-57.5 262,-57.5 262,-38.5 169,-38.5"/>
<text text-anchor="middle" x="215.5" y="-45.5" font-family="Helvetica,sans-Serif" font-size="10.00">L4::Kobject::cap</text>
</a>
</g>
</g>
<!-- Node1&#45;&gt;Node3 -->
<g id="edge2" class="edge">
<title>Node1&#45;&gt;Node3</title>
<path fill="none" stroke="midnightblue" d="M105.33,-48C122.23,-48 141.07,-48 158.27,-48"/>
<polygon fill="midnightblue" stroke="midnightblue" points="158.74,-51.5 168.74,-48 158.74,-44.5 158.74,-51.5"/>
</g>
<!-- Node4 -->
<g id="node4" class="node">
<title>Node4</title>
<g id="a_node4"><a xlink:href="group__l4__factory__api.html#gae2d74a5b658a47fcd6bd74eee6409fdb" target="_top" xlink:title="Create a new thread.">
<polygon fill="white" stroke="black" points="141,-0.5 141,-19.5 290,-19.5 290,-0.5 141,-0.5"/>
<text text-anchor="middle" x="215.5" y="-7.5" font-family="Helvetica,sans-Serif" font-size="10.00">l4_factory_create_thread_u</text>
</a>
</g>
</g>
<!-- Node1&#45;&gt;Node4 -->
<g id="edge3" class="edge">
<title>Node1&#45;&gt;Node4</title>
<path fill="none" stroke="midnightblue" d="M105.33,-35.77C124.18,-31.32 145.46,-26.3 164.18,-21.88"/>
<polygon fill="midnightblue" stroke="midnightblue" points="165.07,-25.26 174,-19.56 163.46,-18.45 165.07,-25.26"/>
</g>
</g>
</svg>
