<?xml version="1.0" encoding="UTF-8" standalone="no"?>
<!DOCTYPE svg PUBLIC "-//W3C//DTD SVG 1.1//EN"
 "http://www.w3.org/Graphics/SVG/1.1/DTD/svg11.dtd">
<!-- Generated by graphviz version 2.43.0 (0)
 -->
<!-- Title: L4::Task Pages: 1 -->
<svg width="285pt" height="420pt"
 viewBox="0.00 0.00 285.00 420.00" xmlns="http://www.w3.org/2000/svg" xmlns:xlink="http://www.w3.org/1999/xlink">
<g id="graph0" class="graph" transform="scale(1 1) rotate(0) translate(4 416)">
<title>L4::Task</title>
<polygon fill="white" stroke="transparent" points="-4,4 -4,-416 281,-416 281,4 -4,4"/>
<!-- Node1 -->
<g id="node1" class="node">
<title>Node1</title>
<g id="a_node1"><a xlink:title="C++ interface of the Task kernel object.">
<polygon fill="#bfbfbf" stroke="black" points="61.5,-0.5 61.5,-134.5 162.5,-134.5 162.5,-0.5 61.5,-0.5"/>
<text text-anchor="middle" x="112" y="-122.5" font-family="Helvetica,sans-Serif" font-size="10.00">L4::Task</text>
<polyline fill="none" stroke="black" points="61.5,-115.5 162.5,-115.5 "/>
<text text-anchor="middle" x="112" y="-103.5" font-family="Helvetica,sans-Serif" font-size="10.00"> </text>
<polyline fill="none" stroke="black" points="61.5,-96.5 162.5,-96.5 "/>
<text text-anchor="start" x="69.5" y="-84.5" font-family="Helvetica,sans-Serif" font-size="10.00">+ map()</text>
<text text-anchor="start" x="69.5" y="-73.5" font-family="Helvetica,sans-Serif" font-size="10.00">+ unmap()</text>
<text text-anchor="start" x="69.5" y="-62.5" font-family="Helvetica,sans-Serif" font-size="10.00">+ unmap_batch()</text>
<text text-anchor="start" x="69.5" y="-51.5" font-family="Helvetica,sans-Serif" font-size="10.00">+ delete_obj()</text>
<text text-anchor="start" x="69.5" y="-40.5" font-family="Helvetica,sans-Serif" font-size="10.00">+ release_cap()</text>
<text text-anchor="start" x="69.5" y="-29.5" font-family="Helvetica,sans-Serif" font-size="10.00">+ cap_valid()</text>
<text text-anchor="start" x="69.5" y="-18.5" font-family="Helvetica,sans-Serif" font-size="10.00">+ cap_equal()</text>
<text text-anchor="start" x="69.5" y="-7.5" font-family="Helvetica,sans-Serif" font-size="10.00">+ add_ku_mem()</text>
</a>
</g>
</g>
<!-- Node2 -->
<g id="node2" class="node">
<title>Node2</title>
<g id="a_node2"><a xlink:href="classL4_1_1Kobject__t.html" target="_top" xlink:title=" ">
<polygon fill="white" stroke="black" points="31,-172.5 31,-262.5 193,-262.5 193,-172.5 31,-172.5"/>
<text text-anchor="start" x="39" y="-250.5" font-family="Helvetica,sans-Serif" font-size="10.00">L4::Kobject_t&lt; Task,</text>
<text text-anchor="start" x="39" y="-239.5" font-family="Helvetica,sans-Serif" font-size="10.00"> Kobject, L4_PROTO_TASK,</text>
<text text-anchor="middle" x="112" y="-228.5" font-family="Helvetica,sans-Serif" font-size="10.00"> Type_info::Demand_t&lt; 2 &gt; &gt;</text>
<polyline fill="none" stroke="black" points="31,-221.5 193,-221.5 "/>
<text text-anchor="middle" x="112" y="-209.5" font-family="Helvetica,sans-Serif" font-size="10.00"> </text>
<polyline fill="none" stroke="black" points="31,-202.5 193,-202.5 "/>
<text text-anchor="start" x="39" y="-190.5" font-family="Helvetica,sans-Serif" font-size="10.00"># c()</text>
<text text-anchor="start" x="39" y="-179.5" font-family="Helvetica,sans-Serif" font-size="10.00"># __check_protocols__()</text>
</a>
</g>
</g>
<!-- Node2&#45;&gt;Node1 -->
<g id="edge1" class="edge">
<title>Node2&#45;&gt;Node1</title>
<path fill="none" stroke="midnightblue" d="M112,-162.46C112,-153.38 112,-143.87 112,-134.53"/>
<polygon fill="none" stroke="midnightblue" points="108.5,-162.5 112,-172.5 115.5,-162.5 108.5,-162.5"/>
</g>
<!-- Node3 -->
<g id="node3" class="node">
<title>Node3</title>
<g id="a_node3"><a xlink:href="classL4_1_1Kobject.html" target="_top" xlink:title="Base class for all kinds of kernel objects and remote objects, referenced by capabilities.">
<polygon fill="white" stroke="black" points="0,-338 0,-406 86,-406 86,-338 0,-338"/>
<text text-anchor="middle" x="43" y="-394" font-family="Helvetica,sans-Serif" font-size="10.00">L4::Kobject</text>
<polyline fill="none" stroke="black" points="0,-387 86,-387 "/>
<text text-anchor="middle" x="43" y="-375" font-family="Helvetica,sans-Serif" font-size="10.00"> </text>
<polyline fill="none" stroke="black" points="0,-368 86,-368 "/>
<text text-anchor="start" x="8" y="-356" font-family="Helvetica,sans-Serif" font-size="10.00">+ dec_refcnt()</text>
<text text-anchor="start" x="8" y="-345" font-family="Helvetica,sans-Serif" font-size="10.00"># cap()</text>
</a>
</g>
</g>
<!-- Node3&#45;&gt;Node2 -->
<g id="edge2" class="edge">
<title>Node3&#45;&gt;Node2</title>
<path fill="none" stroke="midnightblue" d="M62.11,-328.76C71.44,-308.15 82.65,-283.37 92.08,-262.53"/>
<polygon fill="none" stroke="midnightblue" points="58.91,-327.36 57.97,-337.91 65.28,-330.24 58.91,-327.36"/>
</g>
<!-- Node4 -->
<g id="node4" class="node">
<title>Node4</title>
<g id="a_node4"><a xlink:href="classL4_1_1Kobject__t.html" target="_top" xlink:title="Helper class to create an L4Re interface class that is derived from a single base class.">
<polygon fill="white" stroke="black" points="104,-332.5 104,-411.5 260,-411.5 260,-332.5 104,-332.5"/>
<text text-anchor="start" x="112" y="-399.5" font-family="Helvetica,sans-Serif" font-size="10.00">L4::Kobject_t&lt; Derived,</text>
<text text-anchor="middle" x="182" y="-388.5" font-family="Helvetica,sans-Serif" font-size="10.00"> Base, PROTO, S_DEMAND &gt;</text>
<polyline fill="none" stroke="black" points="104,-381.5 260,-381.5 "/>
<text text-anchor="middle" x="182" y="-369.5" font-family="Helvetica,sans-Serif" font-size="10.00"> </text>
<polyline fill="none" stroke="black" points="104,-362.5 260,-362.5 "/>
<text text-anchor="start" x="112" y="-350.5" font-family="Helvetica,sans-Serif" font-size="10.00"># c()</text>
<text text-anchor="start" x="112" y="-339.5" font-family="Helvetica,sans-Serif" font-size="10.00"># __check_protocols__()</text>
</a>
</g>
</g>
<!-- Node4&#45;&gt;Node2 -->
<g id="edge3" class="edge">
<title>Node4&#45;&gt;Node2</title>
<path fill="none" stroke="orange" d="M159.93,-322.91C151.08,-303.64 140.95,-281.57 132.29,-262.7"/>
<polygon fill="orange" stroke="orange" points="156.8,-324.5 164.15,-332.12 163.16,-321.57 156.8,-324.5"/>
<text text-anchor="start" x="155" y="-306" font-family="Helvetica,sans-Serif" font-size="10.00"> &lt; Task, Kobject, L4</text>
<text text-anchor="start" x="155" y="-295" font-family="Helvetica,sans-Serif" font-size="10.00">_PROTO_TASK, Type_info</text>
<text text-anchor="middle" x="216" y="-284" font-family="Helvetica,sans-Serif" font-size="10.00">::Demand_t&lt; 2 &gt; &gt;</text>
</g>
</g>
</svg>
