<?xml version="1.0" encoding="UTF-8" standalone="no"?>
<!DOCTYPE svg PUBLIC "-//W3C//DTD SVG 1.1//EN"
 "http://www.w3.org/Graphics/SVG/1.1/DTD/svg11.dtd">
<!-- Generated by graphviz version 2.43.0 (0)
 -->
<!-- Title: L4::Vm Pages: 1 -->
<svg width="355pt" height="664pt"
 viewBox="0.00 0.00 355.00 664.00" xmlns="http://www.w3.org/2000/svg" xmlns:xlink="http://www.w3.org/1999/xlink">
<g id="graph0" class="graph" transform="scale(1 1) rotate(0) translate(4 660)">
<title>L4::Vm</title>
<polygon fill="white" stroke="transparent" points="-4,4 -4,-660 351,-660 351,4 -4,4"/>
<!-- Node1 -->
<g id="node1" class="node">
<title>Node1</title>
<g id="a_node1"><a xlink:title="Virtual machine host address space.">
<polygon fill="#bfbfbf" stroke="black" points="127,-0.5 127,-79.5 215,-79.5 215,-0.5 127,-0.5"/>
<text text-anchor="middle" x="171" y="-67.5" font-family="Helvetica,sans-Serif" font-size="10.00">L4::Vm</text>
<polyline fill="none" stroke="black" points="127,-60.5 215,-60.5 "/>
<text text-anchor="middle" x="171" y="-48.5" font-family="Helvetica,sans-Serif" font-size="10.00"> </text>
<polyline fill="none" stroke="black" points="127,-41.5 215,-41.5 "/>
<text text-anchor="start" x="135" y="-29.5" font-family="Helvetica,sans-Serif" font-size="10.00">+ vgicc_map()</text>
<text text-anchor="start" x="135" y="-18.5" font-family="Helvetica,sans-Serif" font-size="10.00"># Vm()</text>
<text text-anchor="start" x="135" y="-7.5" font-family="Helvetica,sans-Serif" font-size="10.00"># Vm()</text>
</a>
</g>
</g>
<!-- Node2 -->
<g id="node2" class="node">
<title>Node2</title>
<g id="a_node2"><a xlink:href="classL4_1_1Kobject__t.html" target="_top" xlink:title=" ">
<polygon fill="white" stroke="black" points="103.5,-117.5 103.5,-196.5 238.5,-196.5 238.5,-117.5 103.5,-117.5"/>
<text text-anchor="start" x="111.5" y="-184.5" font-family="Helvetica,sans-Serif" font-size="10.00">L4::Kobject_t&lt; Vm,</text>
<text text-anchor="middle" x="171" y="-173.5" font-family="Helvetica,sans-Serif" font-size="10.00"> Task, L4_PROTO_VM &gt;</text>
<polyline fill="none" stroke="black" points="103.5,-166.5 238.5,-166.5 "/>
<text text-anchor="middle" x="171" y="-154.5" font-family="Helvetica,sans-Serif" font-size="10.00"> </text>
<polyline fill="none" stroke="black" points="103.5,-147.5 238.5,-147.5 "/>
<text text-anchor="start" x="111.5" y="-135.5" font-family="Helvetica,sans-Serif" font-size="10.00"># c()</text>
<text text-anchor="start" x="111.5" y="-124.5" font-family="Helvetica,sans-Serif" font-size="10.00"># __check_protocols__()</text>
</a>
</g>
</g>
<!-- Node2&#45;&gt;Node1 -->
<g id="edge1" class="edge">
<title>Node2&#45;&gt;Node1</title>
<path fill="none" stroke="midnightblue" d="M164.32,-107.2C164.17,-98.02 164.26,-88.53 164.58,-79.71"/>
<polygon fill="none" stroke="midnightblue" points="160.83,-107.48 164.58,-117.39 167.82,-107.3 160.83,-107.48"/>
</g>
<!-- Node2&#45;&gt;Node1 -->
<g id="edge7" class="edge">
<title>Node2&#45;&gt;Node1</title>
<path fill="none" stroke="midnightblue" d="M177.68,-107.2C177.83,-98.02 177.74,-88.53 177.42,-79.71"/>
<polygon fill="none" stroke="midnightblue" points="174.18,-107.3 177.42,-117.39 181.17,-107.48 174.18,-107.3"/>
</g>
<!-- Node3 -->
<g id="node3" class="node">
<title>Node3</title>
<g id="a_node3"><a xlink:href="classL4_1_1Task.html" target="_top" xlink:title="C++ interface of the Task kernel object.">
<polygon fill="white" stroke="black" points="74.5,-234.5 74.5,-368.5 175.5,-368.5 175.5,-234.5 74.5,-234.5"/>
<text text-anchor="middle" x="125" y="-356.5" font-family="Helvetica,sans-Serif" font-size="10.00">L4::Task</text>
<polyline fill="none" stroke="black" points="74.5,-349.5 175.5,-349.5 "/>
<text text-anchor="middle" x="125" y="-337.5" font-family="Helvetica,sans-Serif" font-size="10.00"> </text>
<polyline fill="none" stroke="black" points="74.5,-330.5 175.5,-330.5 "/>
<text text-anchor="start" x="82.5" y="-318.5" font-family="Helvetica,sans-Serif" font-size="10.00">+ map()</text>
<text text-anchor="start" x="82.5" y="-307.5" font-family="Helvetica,sans-Serif" font-size="10.00">+ unmap()</text>
<text text-anchor="start" x="82.5" y="-296.5" font-family="Helvetica,sans-Serif" font-size="10.00">+ unmap_batch()</text>
<text text-anchor="start" x="82.5" y="-285.5" font-family="Helvetica,sans-Serif" font-size="10.00">+ delete_obj()</text>
<text text-anchor="start" x="82.5" y="-274.5" font-family="Helvetica,sans-Serif" font-size="10.00">+ release_cap()</text>
<text text-anchor="start" x="82.5" y="-263.5" font-family="Helvetica,sans-Serif" font-size="10.00">+ cap_valid()</text>
<text text-anchor="start" x="82.5" y="-252.5" font-family="Helvetica,sans-Serif" font-size="10.00">+ cap_equal()</text>
<text text-anchor="start" x="82.5" y="-241.5" font-family="Helvetica,sans-Serif" font-size="10.00">+ add_ku_mem()</text>
</a>
</g>
</g>
<!-- Node3&#45;&gt;Node2 -->
<g id="edge2" class="edge">
<title>Node3&#45;&gt;Node2</title>
<path fill="none" stroke="midnightblue" d="M149.49,-224.65C152.58,-215.05 155.65,-205.56 158.45,-196.89"/>
<polygon fill="none" stroke="midnightblue" points="146.13,-223.66 146.38,-234.26 152.79,-225.81 146.13,-223.66"/>
</g>
<!-- Node4 -->
<g id="node4" class="node">
<title>Node4</title>
<g id="a_node4"><a xlink:href="classL4_1_1Kobject__t.html" target="_top" xlink:title=" ">
<polygon fill="white" stroke="black" points="0,-416.5 0,-506.5 162,-506.5 162,-416.5 0,-416.5"/>
<text text-anchor="start" x="8" y="-494.5" font-family="Helvetica,sans-Serif" font-size="10.00">L4::Kobject_t&lt; Task,</text>
<text text-anchor="start" x="8" y="-483.5" font-family="Helvetica,sans-Serif" font-size="10.00"> Kobject, L4_PROTO_TASK,</text>
<text text-anchor="middle" x="81" y="-472.5" font-family="Helvetica,sans-Serif" font-size="10.00"> Type_info::Demand_t&lt; 2 &gt; &gt;</text>
<polyline fill="none" stroke="black" points="0,-465.5 162,-465.5 "/>
<text text-anchor="middle" x="81" y="-453.5" font-family="Helvetica,sans-Serif" font-size="10.00"> </text>
<polyline fill="none" stroke="black" points="0,-446.5 162,-446.5 "/>
<text text-anchor="start" x="8" y="-434.5" font-family="Helvetica,sans-Serif" font-size="10.00"># c()</text>
<text text-anchor="start" x="8" y="-423.5" font-family="Helvetica,sans-Serif" font-size="10.00"># __check_protocols__()</text>
</a>
</g>
</g>
<!-- Node4&#45;&gt;Node3 -->
<g id="edge3" class="edge">
<title>Node4&#45;&gt;Node3</title>
<path fill="none" stroke="midnightblue" d="M96.03,-406.52C99.42,-394.36 103.05,-381.33 106.55,-368.74"/>
<polygon fill="none" stroke="midnightblue" points="92.57,-405.92 93.26,-416.49 99.31,-407.79 92.57,-405.92"/>
</g>
<!-- Node5 -->
<g id="node5" class="node">
<title>Node5</title>
<g id="a_node5"><a xlink:href="classL4_1_1Kobject.html" target="_top" xlink:title="Base class for all kinds of kernel objects and remote objects, referenced by capabilities.">
<polygon fill="white" stroke="black" points="5,-582 5,-650 91,-650 91,-582 5,-582"/>
<text text-anchor="middle" x="48" y="-638" font-family="Helvetica,sans-Serif" font-size="10.00">L4::Kobject</text>
<polyline fill="none" stroke="black" points="5,-631 91,-631 "/>
<text text-anchor="middle" x="48" y="-619" font-family="Helvetica,sans-Serif" font-size="10.00"> </text>
<polyline fill="none" stroke="black" points="5,-612 91,-612 "/>
<text text-anchor="start" x="13" y="-600" font-family="Helvetica,sans-Serif" font-size="10.00">+ dec_refcnt()</text>
<text text-anchor="start" x="13" y="-589" font-family="Helvetica,sans-Serif" font-size="10.00"># cap()</text>
</a>
</g>
</g>
<!-- Node5&#45;&gt;Node4 -->
<g id="edge4" class="edge">
<title>Node5&#45;&gt;Node4</title>
<path fill="none" stroke="midnightblue" d="M53.45,-571.88C55.67,-556.94 58.54,-540.16 62,-525 63.36,-519.03 65,-512.8 66.73,-506.68"/>
<polygon fill="none" stroke="midnightblue" points="49.97,-571.48 52.02,-581.87 56.9,-572.47 49.97,-571.48"/>
</g>
<!-- Node6 -->
<g id="node6" class="node">
<title>Node6</title>
<g id="a_node6"><a xlink:href="classL4_1_1Kobject__t.html" target="_top" xlink:title="Helper class to create an L4Re interface class that is derived from a single base class.">
<polygon fill="white" stroke="black" points="124,-576.5 124,-655.5 280,-655.5 280,-576.5 124,-576.5"/>
<text text-anchor="start" x="132" y="-643.5" font-family="Helvetica,sans-Serif" font-size="10.00">L4::Kobject_t&lt; Derived,</text>
<text text-anchor="middle" x="202" y="-632.5" font-family="Helvetica,sans-Serif" font-size="10.00"> Base, PROTO, S_DEMAND &gt;</text>
<polyline fill="none" stroke="black" points="124,-625.5 280,-625.5 "/>
<text text-anchor="middle" x="202" y="-613.5" font-family="Helvetica,sans-Serif" font-size="10.00"> </text>
<polyline fill="none" stroke="black" points="124,-606.5 280,-606.5 "/>
<text text-anchor="start" x="132" y="-594.5" font-family="Helvetica,sans-Serif" font-size="10.00"># c()</text>
<text text-anchor="start" x="132" y="-583.5" font-family="Helvetica,sans-Serif" font-size="10.00"># __check_protocols__()</text>
</a>
</g>
</g>
<!-- Node6&#45;&gt;Node2 -->
<g id="edge6" class="edge">
<title>Node6&#45;&gt;Node2</title>
<path fill="none" stroke="orange" d="M204.08,-566.45C204.39,-553.02 204.46,-538.44 204,-525 199.55,-395.44 199.39,-362.72 184,-234 182.54,-221.77 180.45,-208.52 178.37,-196.55"/>
<polygon fill="orange" stroke="orange" points="200.58,-566.36 203.81,-576.45 207.58,-566.55 200.58,-566.36"/>
<text text-anchor="middle" x="273" y="-390" font-family="Helvetica,sans-Serif" font-size="10.00"> &lt; Vm, Task, L4_PROTO_VM &gt;</text>
</g>
<!-- Node6&#45;&gt;Node4 -->
<g id="edge5" class="edge">
<title>Node6&#45;&gt;Node4</title>
<path fill="none" stroke="orange" d="M114.49,-581.06C99.24,-573.42 86.73,-565.39 82,-558 72.44,-543.05 70.7,-523.92 71.91,-506.71"/>
<polygon fill="orange" stroke="orange" points="113.22,-584.33 123.75,-585.51 116.25,-578.02 113.22,-584.33"/>
<text text-anchor="start" x="82" y="-550" font-family="Helvetica,sans-Serif" font-size="10.00"> &lt; Task, Kobject, L4</text>
<text text-anchor="start" x="82" y="-539" font-family="Helvetica,sans-Serif" font-size="10.00">_PROTO_TASK, Type_info</text>
<text text-anchor="middle" x="143" y="-528" font-family="Helvetica,sans-Serif" font-size="10.00">::Demand_t&lt; 2 &gt; &gt;</text>
</g>
</g>
</svg>
