<?xml version="1.0" encoding="UTF-8" standalone="no"?>
<!DOCTYPE svg PUBLIC "-//W3C//DTD SVG 1.1//EN"
 "http://www.w3.org/Graphics/SVG/1.1/DTD/svg11.dtd">
<!-- Generated by graphviz version 2.43.0 (0)
 -->
<!-- Title: L4::Runtime_error Pages: 1 -->
<svg width="129pt" height="342pt"
 viewBox="0.00 0.00 129.00 342.00" xmlns="http://www.w3.org/2000/svg" xmlns:xlink="http://www.w3.org/1999/xlink">
<g id="graph0" class="graph" transform="scale(1 1) rotate(0) translate(4 338)">
<title>L4::Runtime_error</title>
<polygon fill="white" stroke="transparent" points="-4,4 -4,-338 125,-338 125,4 -4,4"/>
<!-- Node1 -->
<g id="node1" class="node">
<title>Node1</title>
<g id="a_node1"><a xlink:title="Exception for an abstract runtime error.">
<polygon fill="#bfbfbf" stroke="black" points="4,-0.5 4,-101.5 117,-101.5 117,-0.5 4,-0.5"/>
<text text-anchor="middle" x="60.5" y="-89.5" font-family="Helvetica,sans-Serif" font-size="10.00">L4::Runtime_error</text>
<polyline fill="none" stroke="black" points="4,-82.5 117,-82.5 "/>
<text text-anchor="middle" x="60.5" y="-70.5" font-family="Helvetica,sans-Serif" font-size="10.00"> </text>
<polyline fill="none" stroke="black" points="4,-63.5 117,-63.5 "/>
<text text-anchor="start" x="12" y="-51.5" font-family="Helvetica,sans-Serif" font-size="10.00">+ Runtime_error()</text>
<text text-anchor="start" x="12" y="-40.5" font-family="Helvetica,sans-Serif" font-size="10.00">+ str()</text>
<text text-anchor="start" x="12" y="-29.5" font-family="Helvetica,sans-Serif" font-size="10.00">+ extra_str()</text>
<text text-anchor="start" x="12" y="-18.5" font-family="Helvetica,sans-Serif" font-size="10.00">+ ~Runtime_error()</text>
<text text-anchor="start" x="12" y="-7.5" font-family="Helvetica,sans-Serif" font-size="10.00">+ err_no()</text>
</a>
</g>
</g>
<!-- Node2 -->
<g id="node2" class="node">
<title>Node2</title>
<g id="a_node2"><a xlink:href="classL4_1_1Base__exception.html" target="_top" xlink:title="Base class for all exceptions, thrown by the L4Re framework.">
<polygon fill="white" stroke="black" points="0,-138.5 0,-217.5 121,-217.5 121,-138.5 0,-138.5"/>
<text text-anchor="middle" x="60.5" y="-205.5" font-family="Helvetica,sans-Serif" font-size="10.00">L4::Base_exception</text>
<polyline fill="none" stroke="black" points="0,-198.5 121,-198.5 "/>
<text text-anchor="middle" x="60.5" y="-186.5" font-family="Helvetica,sans-Serif" font-size="10.00"> </text>
<polyline fill="none" stroke="black" points="0,-179.5 121,-179.5 "/>
<text text-anchor="start" x="8" y="-167.5" font-family="Helvetica,sans-Serif" font-size="10.00">+ str()</text>
<text text-anchor="start" x="8" y="-156.5" font-family="Helvetica,sans-Serif" font-size="10.00">+ ~Base_exception()</text>
<text text-anchor="start" x="8" y="-145.5" font-family="Helvetica,sans-Serif" font-size="10.00"># Base_exception()</text>
</a>
</g>
</g>
<!-- Node2&#45;&gt;Node1 -->
<g id="edge1" class="edge">
<title>Node2&#45;&gt;Node1</title>
<path fill="none" stroke="midnightblue" d="M60.5,-128.41C60.5,-119.64 60.5,-110.49 60.5,-101.69"/>
<polygon fill="none" stroke="midnightblue" points="57,-128.48 60.5,-138.48 64,-128.48 57,-128.48"/>
</g>
<!-- Node3 -->
<g id="node3" class="node">
<title>Node3</title>
<g id="a_node3"><a xlink:href="classL4_1_1Exception__tracer.html" target="_top" xlink:title="Back&#45;trace support for exceptions.">
<polygon fill="white" stroke="black" points="2,-254.5 2,-333.5 119,-333.5 119,-254.5 2,-254.5"/>
<text text-anchor="middle" x="60.5" y="-321.5" font-family="Helvetica,sans-Serif" font-size="10.00">L4::Exception_tracer</text>
<polyline fill="none" stroke="black" points="2,-314.5 119,-314.5 "/>
<text text-anchor="middle" x="60.5" y="-302.5" font-family="Helvetica,sans-Serif" font-size="10.00"> </text>
<polyline fill="none" stroke="black" points="2,-295.5 119,-295.5 "/>
<text text-anchor="start" x="10" y="-283.5" font-family="Helvetica,sans-Serif" font-size="10.00">+ pc_array()</text>
<text text-anchor="start" x="10" y="-272.5" font-family="Helvetica,sans-Serif" font-size="10.00">+ frame_count()</text>
<text text-anchor="start" x="10" y="-261.5" font-family="Helvetica,sans-Serif" font-size="10.00"># Exception_tracer()</text>
</a>
</g>
</g>
<!-- Node3&#45;&gt;Node2 -->
<g id="edge2" class="edge">
<title>Node3&#45;&gt;Node2</title>
<path fill="none" stroke="midnightblue" d="M60.5,-244.15C60.5,-235.26 60.5,-226.1 60.5,-217.56"/>
<polygon fill="none" stroke="midnightblue" points="57,-244.4 60.5,-254.4 64,-244.4 57,-244.4"/>
</g>
</g>
</svg>
