<?xml version="1.0" encoding="UTF-8" standalone="no"?>
<!DOCTYPE svg PUBLIC "-//W3C//DTD SVG 1.1//EN"
 "http://www.w3.org/Graphics/SVG/1.1/DTD/svg11.dtd">
<!-- Generated by graphviz version 2.43.0 (0)
 -->
<!-- Title: L4virtio::Svr::Driver_mem_list_t::load_desc Pages: 1 -->
<svg width="428pt" height="127pt"
 viewBox="0.00 0.00 428.00 127.00" xmlns="http://www.w3.org/2000/svg" xmlns:xlink="http://www.w3.org/1999/xlink">
<g id="graph0" class="graph" transform="scale(1 1) rotate(0) translate(4 123)">
<title>L4virtio::Svr::Driver_mem_list_t::load_desc</title>
<polygon fill="white" stroke="transparent" points="-4,4 -4,-123 424,-123 424,4 -4,4"/>
<!-- Node1 -->
<g id="node1" class="node">
<title>Node1</title>
<g id="a_node1"><a xlink:title="Default implementation for loading an indirect descriptor.">
<polygon fill="#bfbfbf" stroke="black" points="0,-44.5 0,-74.5 131,-74.5 131,-44.5 0,-44.5"/>
<text text-anchor="start" x="8" y="-62.5" font-family="Helvetica,sans-Serif" font-size="10.00">L4virtio::Svr::Driver</text>
<text text-anchor="middle" x="65.5" y="-51.5" font-family="Helvetica,sans-Serif" font-size="10.00">_mem_list_t::load_desc</text>
</a>
</g>
</g>
<!-- Node2 -->
<g id="node2" class="node">
<title>Node2</title>
<g id="a_node2"><a xlink:href="classL4virtio_1_1Svr_1_1Driver__mem__list__t.html#ac29f13949d9db73775966afb81049a8e" target="_top" xlink:title="Find memory region containing the given driver address region.">
<polygon fill="white" stroke="black" points="172.5,-88.5 172.5,-118.5 283.5,-118.5 283.5,-88.5 172.5,-88.5"/>
<text text-anchor="start" x="180.5" y="-106.5" font-family="Helvetica,sans-Serif" font-size="10.00">L4virtio::Svr::Driver</text>
<text text-anchor="middle" x="228" y="-95.5" font-family="Helvetica,sans-Serif" font-size="10.00">_mem_list_t::find</text>
</a>
</g>
</g>
<!-- Node1&#45;&gt;Node2 -->
<g id="edge1" class="edge">
<title>Node1&#45;&gt;Node2</title>
<path fill="none" stroke="midnightblue" d="M121.29,-74.52C134.59,-78.17 148.93,-82.1 162.62,-85.85"/>
<polygon fill="midnightblue" stroke="midnightblue" points="161.89,-89.28 172.46,-88.55 163.74,-82.53 161.89,-89.28"/>
</g>
<!-- Node3 -->
<g id="node3" class="node">
<title>Node3</title>
<g id="a_node3"><a xlink:href="classL4virtio_1_1Ptr.html#a8e39f7c9cd370812ebb4610b096c44b6" target="_top" xlink:title=" ">
<polygon fill="white" stroke="black" points="325,-28 325,-47 420,-47 420,-28 325,-28"/>
<text text-anchor="middle" x="372.5" y="-35" font-family="Helvetica,sans-Serif" font-size="10.00">L4virtio::Ptr::get</text>
</a>
</g>
</g>
<!-- Node1&#45;&gt;Node3 -->
<g id="edge2" class="edge">
<title>Node1&#45;&gt;Node3</title>
<path fill="none" stroke="midnightblue" d="M131.18,-54.83C185.61,-50.91 262.67,-45.35 314.74,-41.59"/>
<polygon fill="midnightblue" stroke="midnightblue" points="315.08,-45.08 324.8,-40.87 314.58,-38.1 315.08,-45.08"/>
</g>
<!-- Node4 -->
<g id="node4" class="node">
<title>Node4</title>
<g id="a_node4"><a xlink:href="classL4virtio_1_1Svr_1_1Driver__mem__region__t.html#a393117104bc267dc79c258f1902abf4b" target="_top" xlink:title="Get the local address for driver address p.">
<polygon fill="white" stroke="black" points="167,-0.5 167,-30.5 289,-30.5 289,-0.5 167,-0.5"/>
<text text-anchor="start" x="175" y="-18.5" font-family="Helvetica,sans-Serif" font-size="10.00">L4virtio::Svr::Driver</text>
<text text-anchor="middle" x="228" y="-7.5" font-family="Helvetica,sans-Serif" font-size="10.00">_mem_region_t::local</text>
</a>
</g>
</g>
<!-- Node1&#45;&gt;Node4 -->
<g id="edge3" class="edge">
<title>Node1&#45;&gt;Node4</title>
<path fill="none" stroke="midnightblue" d="M121.29,-44.48C134.51,-40.85 148.77,-36.95 162.4,-33.21"/>
<polygon fill="midnightblue" stroke="midnightblue" points="163.47,-36.55 172.19,-30.53 161.62,-29.79 163.47,-36.55"/>
</g>
<!-- Node4&#45;&gt;Node3 -->
<g id="edge4" class="edge">
<title>Node4&#45;&gt;Node3</title>
<path fill="none" stroke="midnightblue" d="M289.02,-24.77C297.66,-26.1 306.52,-27.47 315.09,-28.79"/>
<polygon fill="midnightblue" stroke="midnightblue" points="314.55,-32.25 324.97,-30.32 315.62,-25.33 314.55,-32.25"/>
</g>
</g>
</svg>
