<?xml version="1.0" encoding="UTF-8" standalone="no"?>
<!DOCTYPE svg PUBLIC "-//W3C//DTD SVG 1.1//EN"
 "http://www.w3.org/Graphics/SVG/1.1/DTD/svg11.dtd">
<!-- Generated by graphviz version 2.43.0 (0)
 -->
<!-- Title: L4virtio::Virtqueue Pages: 1 -->
<svg width="625pt" height="821pt"
 viewBox="0.00 0.00 625.00 821.00" xmlns="http://www.w3.org/2000/svg" xmlns:xlink="http://www.w3.org/1999/xlink">
<g id="graph0" class="graph" transform="scale(1 1) rotate(0) translate(4 817)">
<title>L4virtio::Virtqueue</title>
<polygon fill="white" stroke="transparent" points="-4,4 -4,-817 621,-817 621,4 -4,4"/>
<!-- Node1 -->
<g id="node1" class="node">
<title>Node1</title>
<g id="a_node1"><a xlink:title="Low&#45;level Virtqueue.">
<polygon fill="#bfbfbf" stroke="black" points="314.5,-0.5 314.5,-310.5 436.5,-310.5 436.5,-0.5 314.5,-0.5"/>
<text text-anchor="middle" x="375.5" y="-298.5" font-family="Helvetica,sans-Serif" font-size="10.00">L4virtio::Virtqueue</text>
<polyline fill="none" stroke="black" points="314.5,-291.5 436.5,-291.5 "/>
<text text-anchor="start" x="322.5" y="-279.5" font-family="Helvetica,sans-Serif" font-size="10.00"># _current_avail</text>
<text text-anchor="start" x="322.5" y="-268.5" font-family="Helvetica,sans-Serif" font-size="10.00"># _idx_mask</text>
<polyline fill="none" stroke="black" points="314.5,-261.5 436.5,-261.5 "/>
<text text-anchor="start" x="322.5" y="-249.5" font-family="Helvetica,sans-Serif" font-size="10.00">+ disable()</text>
<text text-anchor="start" x="322.5" y="-238.5" font-family="Helvetica,sans-Serif" font-size="10.00">+ total_size()</text>
<text text-anchor="start" x="322.5" y="-227.5" font-family="Helvetica,sans-Serif" font-size="10.00">+ avail_offset()</text>
<text text-anchor="start" x="322.5" y="-216.5" font-family="Helvetica,sans-Serif" font-size="10.00">+ used_offset()</text>
<text text-anchor="start" x="322.5" y="-205.5" font-family="Helvetica,sans-Serif" font-size="10.00">+ setup()</text>
<text text-anchor="start" x="322.5" y="-194.5" font-family="Helvetica,sans-Serif" font-size="10.00">+ setup_simple()</text>
<text text-anchor="start" x="322.5" y="-183.5" font-family="Helvetica,sans-Serif" font-size="10.00">+ dump()</text>
<text text-anchor="start" x="322.5" y="-172.5" font-family="Helvetica,sans-Serif" font-size="10.00">+ ready()</text>
<text text-anchor="start" x="322.5" y="-161.5" font-family="Helvetica,sans-Serif" font-size="10.00">+ num()</text>
<text text-anchor="start" x="322.5" y="-150.5" font-family="Helvetica,sans-Serif" font-size="10.00">+ no_notify_guest()</text>
<text text-anchor="start" x="322.5" y="-139.5" font-family="Helvetica,sans-Serif" font-size="10.00">+ no_notify_host()</text>
<text text-anchor="start" x="322.5" y="-128.5" font-family="Helvetica,sans-Serif" font-size="10.00">+ no_notify_host()</text>
<text text-anchor="start" x="322.5" y="-117.5" font-family="Helvetica,sans-Serif" font-size="10.00">+ get_avail_idx()</text>
<text text-anchor="start" x="322.5" y="-106.5" font-family="Helvetica,sans-Serif" font-size="10.00">+ get_tail_avail_idx()</text>
<text text-anchor="start" x="322.5" y="-95.5" font-family="Helvetica,sans-Serif" font-size="10.00">+ total_size()</text>
<text text-anchor="start" x="322.5" y="-84.5" font-family="Helvetica,sans-Serif" font-size="10.00">+ desc_size()</text>
<text text-anchor="start" x="322.5" y="-73.5" font-family="Helvetica,sans-Serif" font-size="10.00">+ desc_align()</text>
<text text-anchor="start" x="322.5" y="-62.5" font-family="Helvetica,sans-Serif" font-size="10.00">+ avail_size()</text>
<text text-anchor="start" x="322.5" y="-51.5" font-family="Helvetica,sans-Serif" font-size="10.00">+ avail_align()</text>
<text text-anchor="start" x="322.5" y="-40.5" font-family="Helvetica,sans-Serif" font-size="10.00">+ used_size()</text>
<text text-anchor="start" x="322.5" y="-29.5" font-family="Helvetica,sans-Serif" font-size="10.00">+ used_align()</text>
<text text-anchor="start" x="322.5" y="-18.5" font-family="Helvetica,sans-Serif" font-size="10.00"># Virtqueue()</text>
<text text-anchor="start" x="322.5" y="-7.5" font-family="Helvetica,sans-Serif" font-size="10.00"># Virtqueue()</text>
</a>
</g>
</g>
<!-- Node2 -->
<g id="node2" class="node">
<title>Node2</title>
<g id="a_node2"><a xlink:href="classL4virtio_1_1Virtqueue_1_1Desc.html" target="_top" xlink:title="Descriptor in the descriptor table.">
<polygon fill="white" stroke="black" points="130,-358.5 130,-437.5 237,-437.5 237,-358.5 130,-358.5"/>
<text text-anchor="start" x="138" y="-425.5" font-family="Helvetica,sans-Serif" font-size="10.00">L4virtio::Virtqueue</text>
<text text-anchor="middle" x="183.5" y="-414.5" font-family="Helvetica,sans-Serif" font-size="10.00">::Desc</text>
<polyline fill="none" stroke="black" points="130,-407.5 237,-407.5 "/>
<text text-anchor="start" x="138" y="-395.5" font-family="Helvetica,sans-Serif" font-size="10.00">+ len</text>
<text text-anchor="start" x="138" y="-384.5" font-family="Helvetica,sans-Serif" font-size="10.00">+ next</text>
<polyline fill="none" stroke="black" points="130,-377.5 237,-377.5 "/>
<text text-anchor="start" x="138" y="-365.5" font-family="Helvetica,sans-Serif" font-size="10.00">+ dump()</text>
</a>
</g>
</g>
<!-- Node2&#45;&gt;Node1 -->
<g id="edge1" class="edge">
<title>Node2&#45;&gt;Node1</title>
<path fill="none" stroke="#404040" d="M214.35,-358.36C239.27,-327.14 275.3,-282.01 306.97,-242.35"/>
<polygon fill="none" stroke="#404040" points="307,-242.3 307.62,-235.11 314.49,-232.92 313.87,-240.11 307,-242.3"/>
<text text-anchor="middle" x="255.5" y="-332" font-family="Helvetica,sans-Serif" font-size="10.00"> #_desc</text>
</g>
<!-- Node3 -->
<g id="node3" class="node">
<title>Node3</title>
<g id="a_node3"><a xlink:href="structL4virtio_1_1Virtqueue_1_1Desc_1_1Flags.html" target="_top" xlink:title="Type for descriptor flags.">
<polygon fill="white" stroke="black" points="0,-485.5 0,-663.5 107,-663.5 107,-485.5 0,-485.5"/>
<text text-anchor="start" x="8" y="-651.5" font-family="Helvetica,sans-Serif" font-size="10.00">L4virtio::Virtqueue</text>
<text text-anchor="middle" x="53.5" y="-640.5" font-family="Helvetica,sans-Serif" font-size="10.00">::Desc::Flags</text>
<polyline fill="none" stroke="black" points="0,-633.5 107,-633.5 "/>
<text text-anchor="start" x="8" y="-621.5" font-family="Helvetica,sans-Serif" font-size="10.00">+ raw</text>
<polyline fill="none" stroke="black" points="0,-614.5 107,-614.5 "/>
<text text-anchor="start" x="8" y="-602.5" font-family="Helvetica,sans-Serif" font-size="10.00">+ Flags()</text>
<text text-anchor="start" x="8" y="-591.5" font-family="Helvetica,sans-Serif" font-size="10.00">+ Flags()</text>
<text text-anchor="start" x="8" y="-580.5" font-family="Helvetica,sans-Serif" font-size="10.00">* next_bfm_t</text>
<text text-anchor="start" x="8" y="-569.5" font-family="Helvetica,sans-Serif" font-size="10.00">* next()</text>
<text text-anchor="start" x="8" y="-558.5" font-family="Helvetica,sans-Serif" font-size="10.00">* next()</text>
<text text-anchor="start" x="8" y="-547.5" font-family="Helvetica,sans-Serif" font-size="10.00">* write_bfm_t</text>
<text text-anchor="start" x="8" y="-536.5" font-family="Helvetica,sans-Serif" font-size="10.00">* write()</text>
<text text-anchor="start" x="8" y="-525.5" font-family="Helvetica,sans-Serif" font-size="10.00">* write()</text>
<text text-anchor="start" x="8" y="-514.5" font-family="Helvetica,sans-Serif" font-size="10.00">* indirect_bfm_t</text>
<text text-anchor="start" x="8" y="-503.5" font-family="Helvetica,sans-Serif" font-size="10.00">* indirect()</text>
<text text-anchor="start" x="8" y="-492.5" font-family="Helvetica,sans-Serif" font-size="10.00">* indirect()</text>
</a>
</g>
</g>
<!-- Node3&#45;&gt;Node2 -->
<g id="edge2" class="edge">
<title>Node3&#45;&gt;Node2</title>
<path fill="none" stroke="#404040" d="M107.24,-497.55C110.36,-493.29 113.46,-489.08 116.5,-485 125.69,-472.66 135.8,-459.49 145.31,-447.26"/>
<polygon fill="none" stroke="#404040" points="145.4,-447.14 145.94,-439.95 152.79,-437.68 152.25,-444.88 145.4,-447.14"/>
<text text-anchor="middle" x="156" y="-459" font-family="Helvetica,sans-Serif" font-size="10.00"> +flags</text>
</g>
<!-- Node4 -->
<g id="node4" class="node">
<title>Node4</title>
<g id="a_node4"><a xlink:href="classL4virtio_1_1Ptr.html" target="_top" xlink:title=" ">
<polygon fill="white" stroke="black" points="125.5,-524 125.5,-625 241.5,-625 241.5,-524 125.5,-524"/>
<text text-anchor="middle" x="183.5" y="-613" font-family="Helvetica,sans-Serif" font-size="10.00">L4virtio::Ptr&lt; void &gt;</text>
<polyline fill="none" stroke="black" points="125.5,-606 241.5,-606 "/>
<text text-anchor="middle" x="183.5" y="-594" font-family="Helvetica,sans-Serif" font-size="10.00"> </text>
<polyline fill="none" stroke="black" points="125.5,-587 241.5,-587 "/>
<text text-anchor="start" x="133.5" y="-575" font-family="Helvetica,sans-Serif" font-size="10.00">+ Ptr()</text>
<text text-anchor="start" x="133.5" y="-564" font-family="Helvetica,sans-Serif" font-size="10.00">+ Ptr()</text>
<text text-anchor="start" x="133.5" y="-553" font-family="Helvetica,sans-Serif" font-size="10.00">+ Ptr()</text>
<text text-anchor="start" x="133.5" y="-542" font-family="Helvetica,sans-Serif" font-size="10.00">+ get()</text>
<text text-anchor="start" x="133.5" y="-531" font-family="Helvetica,sans-Serif" font-size="10.00">+ is_valid()</text>
</a>
</g>
</g>
<!-- Node4&#45;&gt;Node2 -->
<g id="edge3" class="edge">
<title>Node4&#45;&gt;Node2</title>
<path fill="none" stroke="#404040" d="M183.5,-523.96C183.5,-500.73 183.5,-473.08 183.5,-449.7"/>
<polygon fill="none" stroke="#404040" points="183.5,-449.56 179.5,-443.56 183.5,-437.56 187.5,-443.56 183.5,-449.56"/>
<text text-anchor="middle" x="200.5" y="-459" font-family="Helvetica,sans-Serif" font-size="10.00"> +addr</text>
</g>
<!-- Node5 -->
<g id="node5" class="node">
<title>Node5</title>
<g id="a_node5"><a xlink:href="classL4virtio_1_1Ptr.html" target="_top" xlink:title="Pointer used in virtio descriptors.">
<polygon fill="white" stroke="black" points="133,-711.5 133,-812.5 234,-812.5 234,-711.5 133,-711.5"/>
<text text-anchor="middle" x="183.5" y="-800.5" font-family="Helvetica,sans-Serif" font-size="10.00">L4virtio::Ptr&lt; T &gt;</text>
<polyline fill="none" stroke="black" points="133,-793.5 234,-793.5 "/>
<text text-anchor="middle" x="183.5" y="-781.5" font-family="Helvetica,sans-Serif" font-size="10.00"> </text>
<polyline fill="none" stroke="black" points="133,-774.5 234,-774.5 "/>
<text text-anchor="start" x="141" y="-762.5" font-family="Helvetica,sans-Serif" font-size="10.00">+ Ptr()</text>
<text text-anchor="start" x="141" y="-751.5" font-family="Helvetica,sans-Serif" font-size="10.00">+ Ptr()</text>
<text text-anchor="start" x="141" y="-740.5" font-family="Helvetica,sans-Serif" font-size="10.00">+ Ptr()</text>
<text text-anchor="start" x="141" y="-729.5" font-family="Helvetica,sans-Serif" font-size="10.00">+ get()</text>
<text text-anchor="start" x="141" y="-718.5" font-family="Helvetica,sans-Serif" font-size="10.00">+ is_valid()</text>
</a>
</g>
</g>
<!-- Node5&#45;&gt;Node4 -->
<g id="edge4" class="edge">
<title>Node5&#45;&gt;Node4</title>
<path fill="none" stroke="orange" d="M183.5,-701.01C183.5,-676.45 183.5,-648.38 183.5,-625.03"/>
<polygon fill="orange" stroke="orange" points="180,-701.29 183.5,-711.29 187,-701.29 180,-701.29"/>
<text text-anchor="middle" x="207" y="-685" font-family="Helvetica,sans-Serif" font-size="10.00"> &lt; void &gt;</text>
</g>
<!-- Node6 -->
<g id="node6" class="node">
<title>Node6</title>
<g id="a_node6"><a xlink:href="classL4virtio_1_1Virtqueue_1_1Used.html" target="_top" xlink:title="Used ring.">
<polygon fill="white" stroke="black" points="322,-364 322,-432 429,-432 429,-364 322,-364"/>
<text text-anchor="start" x="330" y="-420" font-family="Helvetica,sans-Serif" font-size="10.00">L4virtio::Virtqueue</text>
<text text-anchor="middle" x="375.5" y="-409" font-family="Helvetica,sans-Serif" font-size="10.00">::Used</text>
<polyline fill="none" stroke="black" points="322,-402 429,-402 "/>
<text text-anchor="start" x="330" y="-390" font-family="Helvetica,sans-Serif" font-size="10.00">+ idx</text>
<polyline fill="none" stroke="black" points="322,-383 429,-383 "/>
<text text-anchor="middle" x="375.5" y="-371" font-family="Helvetica,sans-Serif" font-size="10.00"> </text>
</a>
</g>
</g>
<!-- Node6&#45;&gt;Node1 -->
<g id="edge5" class="edge">
<title>Node6&#45;&gt;Node1</title>
<path fill="none" stroke="#404040" d="M375.5,-363.81C375.5,-352.17 375.5,-338.18 375.5,-323.04"/>
<polygon fill="none" stroke="#404040" points="375.5,-322.67 371.5,-316.67 375.5,-310.67 379.5,-316.67 375.5,-322.67"/>
<text text-anchor="middle" x="395.5" y="-332" font-family="Helvetica,sans-Serif" font-size="10.00"> #_used</text>
</g>
<!-- Node7 -->
<g id="node7" class="node">
<title>Node7</title>
<g id="a_node7"><a xlink:href="structL4virtio_1_1Virtqueue_1_1Used_1_1Flags.html" target="_top" xlink:title="flags for the used ring.">
<polygon fill="white" stroke="black" points="260,-518.5 260,-630.5 367,-630.5 367,-518.5 260,-518.5"/>
<text text-anchor="start" x="268" y="-618.5" font-family="Helvetica,sans-Serif" font-size="10.00">L4virtio::Virtqueue</text>
<text text-anchor="middle" x="313.5" y="-607.5" font-family="Helvetica,sans-Serif" font-size="10.00">::Used::Flags</text>
<polyline fill="none" stroke="black" points="260,-600.5 367,-600.5 "/>
<text text-anchor="start" x="268" y="-588.5" font-family="Helvetica,sans-Serif" font-size="10.00">+ raw</text>
<polyline fill="none" stroke="black" points="260,-581.5 367,-581.5 "/>
<text text-anchor="start" x="268" y="-569.5" font-family="Helvetica,sans-Serif" font-size="10.00">+ Flags()</text>
<text text-anchor="start" x="268" y="-558.5" font-family="Helvetica,sans-Serif" font-size="10.00">+ Flags()</text>
<text text-anchor="start" x="268" y="-547.5" font-family="Helvetica,sans-Serif" font-size="10.00">* no_notify_bfm_t</text>
<text text-anchor="start" x="268" y="-536.5" font-family="Helvetica,sans-Serif" font-size="10.00">* no_notify()</text>
<text text-anchor="start" x="268" y="-525.5" font-family="Helvetica,sans-Serif" font-size="10.00">* no_notify()</text>
</a>
</g>
</g>
<!-- Node7&#45;&gt;Node6 -->
<g id="edge6" class="edge">
<title>Node7&#45;&gt;Node6</title>
<path fill="none" stroke="#404040" d="M333.12,-518.29C341.7,-494.14 351.63,-466.19 359.72,-443.42"/>
<polygon fill="none" stroke="#404040" points="359.75,-443.33 357.99,-436.34 363.77,-432.03 365.53,-439.02 359.75,-443.33"/>
<text text-anchor="middle" x="372" y="-459" font-family="Helvetica,sans-Serif" font-size="10.00"> +flags</text>
</g>
<!-- Node8 -->
<g id="node8" class="node">
<title>Node8</title>
<g id="a_node8"><a xlink:href="structL4virtio_1_1Virtqueue_1_1Used__elem.html" target="_top" xlink:title="Type of an element of the used ring.">
<polygon fill="white" stroke="black" points="385,-529.5 385,-619.5 492,-619.5 492,-529.5 385,-529.5"/>
<text text-anchor="start" x="393" y="-607.5" font-family="Helvetica,sans-Serif" font-size="10.00">L4virtio::Virtqueue</text>
<text text-anchor="middle" x="438.5" y="-596.5" font-family="Helvetica,sans-Serif" font-size="10.00">::Used_elem</text>
<polyline fill="none" stroke="black" points="385,-589.5 492,-589.5 "/>
<text text-anchor="start" x="393" y="-577.5" font-family="Helvetica,sans-Serif" font-size="10.00">+ id</text>
<text text-anchor="start" x="393" y="-566.5" font-family="Helvetica,sans-Serif" font-size="10.00">+ len</text>
<polyline fill="none" stroke="black" points="385,-559.5 492,-559.5 "/>
<text text-anchor="start" x="393" y="-547.5" font-family="Helvetica,sans-Serif" font-size="10.00">+ Used_elem()</text>
<text text-anchor="start" x="393" y="-536.5" font-family="Helvetica,sans-Serif" font-size="10.00">+ Used_elem()</text>
</a>
</g>
</g>
<!-- Node8&#45;&gt;Node6 -->
<g id="edge7" class="edge">
<title>Node8&#45;&gt;Node6</title>
<path fill="none" stroke="#404040" d="M422.6,-529.47C413.12,-503.2 401.11,-469.94 391.59,-443.58"/>
<polygon fill="none" stroke="#404040" points="391.49,-443.29 385.69,-439 387.41,-432 393.21,-436.29 391.49,-443.29"/>
<text text-anchor="middle" x="416" y="-459" font-family="Helvetica,sans-Serif" font-size="10.00"> +ring</text>
</g>
<!-- Node9 -->
<g id="node9" class="node">
<title>Node9</title>
<g id="a_node9"><a xlink:href="classL4virtio_1_1Virtqueue_1_1Avail.html" target="_top" xlink:title="Type of available ring, this is read&#45;only for the host.">
<polygon fill="white" stroke="black" points="479,-358.5 479,-437.5 586,-437.5 586,-358.5 479,-358.5"/>
<text text-anchor="start" x="487" y="-425.5" font-family="Helvetica,sans-Serif" font-size="10.00">L4virtio::Virtqueue</text>
<text text-anchor="middle" x="532.5" y="-414.5" font-family="Helvetica,sans-Serif" font-size="10.00">::Avail</text>
<polyline fill="none" stroke="black" points="479,-407.5 586,-407.5 "/>
<text text-anchor="start" x="487" y="-395.5" font-family="Helvetica,sans-Serif" font-size="10.00">+ idx</text>
<text text-anchor="start" x="487" y="-384.5" font-family="Helvetica,sans-Serif" font-size="10.00">+ ring</text>
<polyline fill="none" stroke="black" points="479,-377.5 586,-377.5 "/>
<text text-anchor="middle" x="532.5" y="-365.5" font-family="Helvetica,sans-Serif" font-size="10.00"> </text>
</a>
</g>
</g>
<!-- Node9&#45;&gt;Node1 -->
<g id="edge8" class="edge">
<title>Node9&#45;&gt;Node1</title>
<path fill="none" stroke="#404040" d="M507.28,-358.36C489.92,-331.77 465.98,-295.11 443.27,-260.31"/>
<polygon fill="none" stroke="#404040" points="443.15,-260.12 436.52,-257.29 436.59,-250.08 443.22,-252.91 443.15,-260.12"/>
<text text-anchor="middle" x="516" y="-332" font-family="Helvetica,sans-Serif" font-size="10.00"> #_avail</text>
</g>
<!-- Node10 -->
<g id="node10" class="node">
<title>Node10</title>
<g id="a_node10"><a xlink:href="structL4virtio_1_1Virtqueue_1_1Avail_1_1Flags.html" target="_top" xlink:title="Flags of the available ring.">
<polygon fill="white" stroke="black" points="510,-518.5 510,-630.5 617,-630.5 617,-518.5 510,-518.5"/>
<text text-anchor="start" x="518" y="-618.5" font-family="Helvetica,sans-Serif" font-size="10.00">L4virtio::Virtqueue</text>
<text text-anchor="middle" x="563.5" y="-607.5" font-family="Helvetica,sans-Serif" font-size="10.00">::Avail::Flags</text>
<polyline fill="none" stroke="black" points="510,-600.5 617,-600.5 "/>
<text text-anchor="start" x="518" y="-588.5" font-family="Helvetica,sans-Serif" font-size="10.00">+ raw</text>
<polyline fill="none" stroke="black" points="510,-581.5 617,-581.5 "/>
<text text-anchor="start" x="518" y="-569.5" font-family="Helvetica,sans-Serif" font-size="10.00">+ Flags()</text>
<text text-anchor="start" x="518" y="-558.5" font-family="Helvetica,sans-Serif" font-size="10.00">+ Flags()</text>
<text text-anchor="start" x="518" y="-547.5" font-family="Helvetica,sans-Serif" font-size="10.00">* no_irq_bfm_t</text>
<text text-anchor="start" x="518" y="-536.5" font-family="Helvetica,sans-Serif" font-size="10.00">* no_irq()</text>
<text text-anchor="start" x="518" y="-525.5" font-family="Helvetica,sans-Serif" font-size="10.00">* no_irq()</text>
</a>
</g>
</g>
<!-- Node10&#45;&gt;Node9 -->
<g id="edge9" class="edge">
<title>Node10&#45;&gt;Node9</title>
<path fill="none" stroke="#404040" d="M553.69,-518.29C549.77,-496.23 545.29,-471.01 541.46,-449.45"/>
<polygon fill="none" stroke="#404040" points="541.45,-449.38 536.46,-444.17 539.35,-437.56 544.34,-442.77 541.45,-449.38"/>
<text text-anchor="middle" x="562" y="-459" font-family="Helvetica,sans-Serif" font-size="10.00"> +flags</text>
</g>
</g>
</svg>
