<?xml version="1.0" encoding="UTF-8" standalone="no"?>
<!DOCTYPE svg PUBLIC "-//W3C//DTD SVG 1.1//EN"
 "http://www.w3.org/Graphics/SVG/1.1/DTD/svg11.dtd">
<!-- Generated by graphviz version 2.43.0 (0)
 -->
<!-- Title: L4::Cap&lt; T &gt; Pages: 1 -->
<svg width="1739pt" height="596pt"
 viewBox="0.00 0.00 1739.00 596.00" xmlns="http://www.w3.org/2000/svg" xmlns:xlink="http://www.w3.org/1999/xlink">
<g id="graph0" class="graph" transform="scale(1 1) rotate(0) translate(4 592)">
<title>L4::Cap&lt; T &gt;</title>
<polygon fill="white" stroke="transparent" points="-4,4 -4,-592 1735,-592 1735,4 -4,4"/>
<!-- Node1 -->
<g id="node1" class="node">
<title>Node1</title>
<g id="a_node1"><a xlink:title="C++ interface for capabilities.">
<polygon fill="#bfbfbf" stroke="black" points="799.5,-193.5 799.5,-327.5 888.5,-327.5 888.5,-193.5 799.5,-193.5"/>
<text text-anchor="middle" x="844" y="-315.5" font-family="Helvetica,sans-Serif" font-size="10.00">L4::Cap&lt; T &gt;</text>
<polyline fill="none" stroke="black" points="799.5,-308.5 888.5,-308.5 "/>
<text text-anchor="middle" x="844" y="-296.5" font-family="Helvetica,sans-Serif" font-size="10.00"> </text>
<polyline fill="none" stroke="black" points="799.5,-289.5 888.5,-289.5 "/>
<text text-anchor="start" x="807.5" y="-277.5" font-family="Helvetica,sans-Serif" font-size="10.00">+ Cap()</text>
<text text-anchor="start" x="807.5" y="-266.5" font-family="Helvetica,sans-Serif" font-size="10.00">+ Cap()</text>
<text text-anchor="start" x="807.5" y="-255.5" font-family="Helvetica,sans-Serif" font-size="10.00">+ Cap()</text>
<text text-anchor="start" x="807.5" y="-244.5" font-family="Helvetica,sans-Serif" font-size="10.00">+ Cap()</text>
<text text-anchor="start" x="807.5" y="-233.5" font-family="Helvetica,sans-Serif" font-size="10.00">+ Cap()</text>
<text text-anchor="start" x="807.5" y="-222.5" font-family="Helvetica,sans-Serif" font-size="10.00">+ move()</text>
<text text-anchor="start" x="807.5" y="-211.5" font-family="Helvetica,sans-Serif" font-size="10.00">+ copy()</text>
<text text-anchor="start" x="807.5" y="-200.5" font-family="Helvetica,sans-Serif" font-size="10.00">+ operator&#45;&gt;()</text>
</a>
</g>
</g>
<!-- Node3 -->
<g id="node3" class="node">
<title>Node3</title>
<g id="a_node3"><a xlink:href="classL4_1_1Cap.html" target="_top" xlink:title=" ">
<polygon fill="white" stroke="black" points="0,-6 0,-140 116,-140 116,-6 0,-6"/>
<text text-anchor="middle" x="58" y="-128" font-family="Helvetica,sans-Serif" font-size="10.00">L4::Cap&lt; L4::Vcon &gt;</text>
<polyline fill="none" stroke="black" points="0,-121 116,-121 "/>
<text text-anchor="middle" x="58" y="-109" font-family="Helvetica,sans-Serif" font-size="10.00"> </text>
<polyline fill="none" stroke="black" points="0,-102 116,-102 "/>
<text text-anchor="start" x="8" y="-90" font-family="Helvetica,sans-Serif" font-size="10.00">+ Cap()</text>
<text text-anchor="start" x="8" y="-79" font-family="Helvetica,sans-Serif" font-size="10.00">+ Cap()</text>
<text text-anchor="start" x="8" y="-68" font-family="Helvetica,sans-Serif" font-size="10.00">+ Cap()</text>
<text text-anchor="start" x="8" y="-57" font-family="Helvetica,sans-Serif" font-size="10.00">+ Cap()</text>
<text text-anchor="start" x="8" y="-46" font-family="Helvetica,sans-Serif" font-size="10.00">+ Cap()</text>
<text text-anchor="start" x="8" y="-35" font-family="Helvetica,sans-Serif" font-size="10.00">+ move()</text>
<text text-anchor="start" x="8" y="-24" font-family="Helvetica,sans-Serif" font-size="10.00">+ copy()</text>
<text text-anchor="start" x="8" y="-13" font-family="Helvetica,sans-Serif" font-size="10.00">+ operator&#45;&gt;()</text>
</a>
</g>
</g>
<!-- Node1&#45;&gt;Node3 -->
<g id="edge2" class="edge">
<title>Node1&#45;&gt;Node3</title>
<path fill="none" stroke="orange" d="M789.32,-253.8C683.08,-242.29 441.59,-214.02 241,-175 188.84,-164.85 170.77,-173.01 125,-146 121.91,-144.18 118.88,-142.17 115.91,-140.02"/>
<polygon fill="orange" stroke="orange" points="789.16,-257.3 799.48,-254.89 789.91,-250.34 789.16,-257.3"/>
<text text-anchor="middle" x="274.5" y="-167" font-family="Helvetica,sans-Serif" font-size="10.00"> &lt; L4::Vcon &gt;</text>
</g>
<!-- Node4 -->
<g id="node4" class="node">
<title>Node4</title>
<g id="a_node4"><a xlink:href="classL4_1_1Cap.html" target="_top" xlink:title=" ">
<polygon fill="white" stroke="black" points="134,-6 134,-140 262,-140 262,-6 134,-6"/>
<text text-anchor="middle" x="198" y="-128" font-family="Helvetica,sans-Serif" font-size="10.00">L4::Cap&lt; L4::Factory &gt;</text>
<polyline fill="none" stroke="black" points="134,-121 262,-121 "/>
<text text-anchor="middle" x="198" y="-109" font-family="Helvetica,sans-Serif" font-size="10.00"> </text>
<polyline fill="none" stroke="black" points="134,-102 262,-102 "/>
<text text-anchor="start" x="142" y="-90" font-family="Helvetica,sans-Serif" font-size="10.00">+ Cap()</text>
<text text-anchor="start" x="142" y="-79" font-family="Helvetica,sans-Serif" font-size="10.00">+ Cap()</text>
<text text-anchor="start" x="142" y="-68" font-family="Helvetica,sans-Serif" font-size="10.00">+ Cap()</text>
<text text-anchor="start" x="142" y="-57" font-family="Helvetica,sans-Serif" font-size="10.00">+ Cap()</text>
<text text-anchor="start" x="142" y="-46" font-family="Helvetica,sans-Serif" font-size="10.00">+ Cap()</text>
<text text-anchor="start" x="142" y="-35" font-family="Helvetica,sans-Serif" font-size="10.00">+ move()</text>
<text text-anchor="start" x="142" y="-24" font-family="Helvetica,sans-Serif" font-size="10.00">+ copy()</text>
<text text-anchor="start" x="142" y="-13" font-family="Helvetica,sans-Serif" font-size="10.00">+ operator&#45;&gt;()</text>
</a>
</g>
</g>
<!-- Node1&#45;&gt;Node4 -->
<g id="edge3" class="edge">
<title>Node1&#45;&gt;Node4</title>
<path fill="none" stroke="orange" d="M789.4,-252.63C699.04,-240.68 513.08,-213.59 359,-175 319.05,-164.99 306.14,-167.47 271,-146 267.96,-144.14 264.95,-142.14 261.99,-140.02"/>
<polygon fill="orange" stroke="orange" points="789.04,-256.12 799.41,-253.95 789.95,-249.18 789.04,-256.12"/>
<text text-anchor="middle" x="398.5" y="-167" font-family="Helvetica,sans-Serif" font-size="10.00"> &lt; L4::Factory &gt;</text>
</g>
<!-- Node5 -->
<g id="node5" class="node">
<title>Node5</title>
<g id="a_node5"><a xlink:href="classL4_1_1Cap.html" target="_top" xlink:title=" ">
<polygon fill="white" stroke="black" points="280,-6 280,-140 402,-140 402,-6 280,-6"/>
<text text-anchor="middle" x="341" y="-128" font-family="Helvetica,sans-Serif" font-size="10.00">L4::Cap&lt; L4Re::Rm &gt;</text>
<polyline fill="none" stroke="black" points="280,-121 402,-121 "/>
<text text-anchor="middle" x="341" y="-109" font-family="Helvetica,sans-Serif" font-size="10.00"> </text>
<polyline fill="none" stroke="black" points="280,-102 402,-102 "/>
<text text-anchor="start" x="288" y="-90" font-family="Helvetica,sans-Serif" font-size="10.00">+ Cap()</text>
<text text-anchor="start" x="288" y="-79" font-family="Helvetica,sans-Serif" font-size="10.00">+ Cap()</text>
<text text-anchor="start" x="288" y="-68" font-family="Helvetica,sans-Serif" font-size="10.00">+ Cap()</text>
<text text-anchor="start" x="288" y="-57" font-family="Helvetica,sans-Serif" font-size="10.00">+ Cap()</text>
<text text-anchor="start" x="288" y="-46" font-family="Helvetica,sans-Serif" font-size="10.00">+ Cap()</text>
<text text-anchor="start" x="288" y="-35" font-family="Helvetica,sans-Serif" font-size="10.00">+ move()</text>
<text text-anchor="start" x="288" y="-24" font-family="Helvetica,sans-Serif" font-size="10.00">+ copy()</text>
<text text-anchor="start" x="288" y="-13" font-family="Helvetica,sans-Serif" font-size="10.00">+ operator&#45;&gt;()</text>
</a>
</g>
</g>
<!-- Node1&#45;&gt;Node5 -->
<g id="edge4" class="edge">
<title>Node1&#45;&gt;Node5</title>
<path fill="none" stroke="orange" d="M789.31,-256.18C702.55,-248.63 530.96,-224.2 411,-146 408.08,-144.1 405.19,-142.05 402.34,-139.9"/>
<polygon fill="orange" stroke="orange" points="789.2,-259.68 799.46,-257.02 789.78,-252.71 789.2,-259.68"/>
<text text-anchor="middle" x="489.5" y="-167" font-family="Helvetica,sans-Serif" font-size="10.00"> &lt; L4Re::Rm &gt;</text>
</g>
<!-- Node6 -->
<g id="node6" class="node">
<title>Node6</title>
<g id="a_node6"><a xlink:href="classL4_1_1Cap.html" target="_top" xlink:title=" ">
<polygon fill="white" stroke="black" points="420.5,-6 420.5,-140 525.5,-140 525.5,-6 420.5,-6"/>
<text text-anchor="middle" x="473" y="-128" font-family="Helvetica,sans-Serif" font-size="10.00">L4::Cap&lt; L4::Irq &gt;</text>
<polyline fill="none" stroke="black" points="420.5,-121 525.5,-121 "/>
<text text-anchor="middle" x="473" y="-109" font-family="Helvetica,sans-Serif" font-size="10.00"> </text>
<polyline fill="none" stroke="black" points="420.5,-102 525.5,-102 "/>
<text text-anchor="start" x="428.5" y="-90" font-family="Helvetica,sans-Serif" font-size="10.00">+ Cap()</text>
<text text-anchor="start" x="428.5" y="-79" font-family="Helvetica,sans-Serif" font-size="10.00">+ Cap()</text>
<text text-anchor="start" x="428.5" y="-68" font-family="Helvetica,sans-Serif" font-size="10.00">+ Cap()</text>
<text text-anchor="start" x="428.5" y="-57" font-family="Helvetica,sans-Serif" font-size="10.00">+ Cap()</text>
<text text-anchor="start" x="428.5" y="-46" font-family="Helvetica,sans-Serif" font-size="10.00">+ Cap()</text>
<text text-anchor="start" x="428.5" y="-35" font-family="Helvetica,sans-Serif" font-size="10.00">+ move()</text>
<text text-anchor="start" x="428.5" y="-24" font-family="Helvetica,sans-Serif" font-size="10.00">+ copy()</text>
<text text-anchor="start" x="428.5" y="-13" font-family="Helvetica,sans-Serif" font-size="10.00">+ operator&#45;&gt;()</text>
</a>
</g>
</g>
<!-- Node1&#45;&gt;Node6 -->
<g id="edge5" class="edge">
<title>Node1&#45;&gt;Node6</title>
<path fill="none" stroke="orange" d="M789.2,-248.26C724.19,-233.02 614.59,-201.15 535,-146 531.88,-143.84 528.82,-141.49 525.84,-138.99"/>
<polygon fill="orange" stroke="orange" points="788.71,-251.74 799.24,-250.57 790.28,-244.92 788.71,-251.74"/>
<text text-anchor="middle" x="609" y="-167" font-family="Helvetica,sans-Serif" font-size="10.00"> &lt; L4::Irq &gt;</text>
</g>
<!-- Node7 -->
<g id="node7" class="node">
<title>Node7</title>
<g id="a_node7"><a xlink:href="classL4_1_1Cap.html" target="_top" xlink:title=" ">
<polygon fill="white" stroke="black" points="544,-6 544,-140 670,-140 670,-6 544,-6"/>
<text text-anchor="middle" x="607" y="-128" font-family="Helvetica,sans-Serif" font-size="10.00">L4::Cap&lt; L4::Thread &gt;</text>
<polyline fill="none" stroke="black" points="544,-121 670,-121 "/>
<text text-anchor="middle" x="607" y="-109" font-family="Helvetica,sans-Serif" font-size="10.00"> </text>
<polyline fill="none" stroke="black" points="544,-102 670,-102 "/>
<text text-anchor="start" x="552" y="-90" font-family="Helvetica,sans-Serif" font-size="10.00">+ Cap()</text>
<text text-anchor="start" x="552" y="-79" font-family="Helvetica,sans-Serif" font-size="10.00">+ Cap()</text>
<text text-anchor="start" x="552" y="-68" font-family="Helvetica,sans-Serif" font-size="10.00">+ Cap()</text>
<text text-anchor="start" x="552" y="-57" font-family="Helvetica,sans-Serif" font-size="10.00">+ Cap()</text>
<text text-anchor="start" x="552" y="-46" font-family="Helvetica,sans-Serif" font-size="10.00">+ Cap()</text>
<text text-anchor="start" x="552" y="-35" font-family="Helvetica,sans-Serif" font-size="10.00">+ move()</text>
<text text-anchor="start" x="552" y="-24" font-family="Helvetica,sans-Serif" font-size="10.00">+ copy()</text>
<text text-anchor="start" x="552" y="-13" font-family="Helvetica,sans-Serif" font-size="10.00">+ operator&#45;&gt;()</text>
</a>
</g>
</g>
<!-- Node1&#45;&gt;Node7 -->
<g id="edge6" class="edge">
<title>Node1&#45;&gt;Node7</title>
<path fill="none" stroke="orange" d="M790.13,-233.53C761.39,-218.43 726.23,-197.88 698,-175 685.16,-164.6 672.54,-152.33 660.98,-140"/>
<polygon fill="orange" stroke="orange" points="788.73,-236.75 799.22,-238.24 791.95,-230.53 788.73,-236.75"/>
<text text-anchor="middle" x="736.5" y="-167" font-family="Helvetica,sans-Serif" font-size="10.00"> &lt; L4::Thread &gt;</text>
</g>
<!-- Node8 -->
<g id="node8" class="node">
<title>Node8</title>
<g id="a_node8"><a xlink:href="classL4_1_1Cap.html" target="_top" xlink:title=" ">
<polygon fill="white" stroke="black" points="688.5,-6 688.5,-140 851.5,-140 851.5,-6 688.5,-6"/>
<text text-anchor="middle" x="770" y="-128" font-family="Helvetica,sans-Serif" font-size="10.00">L4::Cap&lt; L4Re::Namespace &gt;</text>
<polyline fill="none" stroke="black" points="688.5,-121 851.5,-121 "/>
<text text-anchor="middle" x="770" y="-109" font-family="Helvetica,sans-Serif" font-size="10.00"> </text>
<polyline fill="none" stroke="black" points="688.5,-102 851.5,-102 "/>
<text text-anchor="start" x="696.5" y="-90" font-family="Helvetica,sans-Serif" font-size="10.00">+ Cap()</text>
<text text-anchor="start" x="696.5" y="-79" font-family="Helvetica,sans-Serif" font-size="10.00">+ Cap()</text>
<text text-anchor="start" x="696.5" y="-68" font-family="Helvetica,sans-Serif" font-size="10.00">+ Cap()</text>
<text text-anchor="start" x="696.5" y="-57" font-family="Helvetica,sans-Serif" font-size="10.00">+ Cap()</text>
<text text-anchor="start" x="696.5" y="-46" font-family="Helvetica,sans-Serif" font-size="10.00">+ Cap()</text>
<text text-anchor="start" x="696.5" y="-35" font-family="Helvetica,sans-Serif" font-size="10.00">+ move()</text>
<text text-anchor="start" x="696.5" y="-24" font-family="Helvetica,sans-Serif" font-size="10.00">+ copy()</text>
<text text-anchor="start" x="696.5" y="-13" font-family="Helvetica,sans-Serif" font-size="10.00">+ operator&#45;&gt;()</text>
</a>
</g>
</g>
<!-- Node1&#45;&gt;Node8 -->
<g id="edge7" class="edge">
<title>Node1&#45;&gt;Node8</title>
<path fill="none" stroke="orange" d="M793.69,-198.27C789.16,-190.74 785.12,-182.91 782,-175 777.69,-164.08 774.81,-152.01 772.91,-140.14"/>
<polygon fill="orange" stroke="orange" points="790.89,-200.39 799.21,-206.95 796.8,-196.63 790.89,-200.39"/>
<text text-anchor="middle" x="839" y="-167" font-family="Helvetica,sans-Serif" font-size="10.00"> &lt; L4Re::Namespace &gt;</text>
</g>
<!-- Node9 -->
<g id="node9" class="node">
<title>Node9</title>
<g id="a_node9"><a xlink:href="classL4_1_1Cap.html" target="_top" xlink:title=" ">
<polygon fill="white" stroke="black" points="870,-6 870,-140 966,-140 966,-6 870,-6"/>
<text text-anchor="middle" x="918" y="-128" font-family="Helvetica,sans-Serif" font-size="10.00">L4::Cap&lt; void &gt;</text>
<polyline fill="none" stroke="black" points="870,-121 966,-121 "/>
<text text-anchor="middle" x="918" y="-109" font-family="Helvetica,sans-Serif" font-size="10.00"> </text>
<polyline fill="none" stroke="black" points="870,-102 966,-102 "/>
<text text-anchor="start" x="878" y="-90" font-family="Helvetica,sans-Serif" font-size="10.00">+ Cap()</text>
<text text-anchor="start" x="878" y="-79" font-family="Helvetica,sans-Serif" font-size="10.00">+ Cap()</text>
<text text-anchor="start" x="878" y="-68" font-family="Helvetica,sans-Serif" font-size="10.00">+ Cap()</text>
<text text-anchor="start" x="878" y="-57" font-family="Helvetica,sans-Serif" font-size="10.00">+ Cap()</text>
<text text-anchor="start" x="878" y="-46" font-family="Helvetica,sans-Serif" font-size="10.00">+ Cap()</text>
<text text-anchor="start" x="878" y="-35" font-family="Helvetica,sans-Serif" font-size="10.00">+ move()</text>
<text text-anchor="start" x="878" y="-24" font-family="Helvetica,sans-Serif" font-size="10.00">+ copy()</text>
<text text-anchor="start" x="878" y="-13" font-family="Helvetica,sans-Serif" font-size="10.00">+ operator&#45;&gt;()</text>
</a>
</g>
</g>
<!-- Node1&#45;&gt;Node9 -->
<g id="edge8" class="edge">
<title>Node1&#45;&gt;Node9</title>
<path fill="none" stroke="orange" d="M892.04,-184.13C893.45,-181.09 894.78,-178.04 896,-175 900.43,-164.01 904.03,-151.98 906.95,-140.17"/>
<polygon fill="orange" stroke="orange" points="888.83,-182.72 887.58,-193.24 895.12,-185.8 888.83,-182.72"/>
<text text-anchor="middle" x="923.5" y="-167" font-family="Helvetica,sans-Serif" font-size="10.00"> &lt; void &gt;</text>
</g>
<!-- Node10 -->
<g id="node10" class="node">
<title>Node10</title>
<g id="a_node10"><a xlink:href="classL4_1_1Cap.html" target="_top" xlink:title=" ">
<polygon fill="white" stroke="black" points="984,-6 984,-140 1132,-140 1132,-6 984,-6"/>
<text text-anchor="middle" x="1058" y="-128" font-family="Helvetica,sans-Serif" font-size="10.00">L4::Cap&lt; L4::Semaphore &gt;</text>
<polyline fill="none" stroke="black" points="984,-121 1132,-121 "/>
<text text-anchor="middle" x="1058" y="-109" font-family="Helvetica,sans-Serif" font-size="10.00"> </text>
<polyline fill="none" stroke="black" points="984,-102 1132,-102 "/>
<text text-anchor="start" x="992" y="-90" font-family="Helvetica,sans-Serif" font-size="10.00">+ Cap()</text>
<text text-anchor="start" x="992" y="-79" font-family="Helvetica,sans-Serif" font-size="10.00">+ Cap()</text>
<text text-anchor="start" x="992" y="-68" font-family="Helvetica,sans-Serif" font-size="10.00">+ Cap()</text>
<text text-anchor="start" x="992" y="-57" font-family="Helvetica,sans-Serif" font-size="10.00">+ Cap()</text>
<text text-anchor="start" x="992" y="-46" font-family="Helvetica,sans-Serif" font-size="10.00">+ Cap()</text>
<text text-anchor="start" x="992" y="-35" font-family="Helvetica,sans-Serif" font-size="10.00">+ move()</text>
<text text-anchor="start" x="992" y="-24" font-family="Helvetica,sans-Serif" font-size="10.00">+ copy()</text>
<text text-anchor="start" x="992" y="-13" font-family="Helvetica,sans-Serif" font-size="10.00">+ operator&#45;&gt;()</text>
</a>
</g>
</g>
<!-- Node1&#45;&gt;Node10 -->
<g id="edge9" class="edge">
<title>Node1&#45;&gt;Node10</title>
<path fill="none" stroke="orange" d="M896.62,-219.44C914.18,-205.68 933.68,-189.96 951,-175 963.76,-163.98 977.05,-151.93 989.75,-140.11"/>
<polygon fill="orange" stroke="orange" points="894.43,-216.71 888.7,-225.62 898.74,-222.23 894.43,-216.71"/>
<text text-anchor="middle" x="1012.5" y="-167" font-family="Helvetica,sans-Serif" font-size="10.00"> &lt; L4::Semaphore &gt;</text>
</g>
<!-- Node11 -->
<g id="node11" class="node">
<title>Node11</title>
<g id="a_node11"><a xlink:href="classL4_1_1Cap.html" target="_top" xlink:title=" ">
<polygon fill="white" stroke="black" points="1150.5,-6 1150.5,-140 1307.5,-140 1307.5,-6 1150.5,-6"/>
<text text-anchor="middle" x="1229" y="-128" font-family="Helvetica,sans-Serif" font-size="10.00">L4::Cap&lt; L4Re::Dataspace &gt;</text>
<polyline fill="none" stroke="black" points="1150.5,-121 1307.5,-121 "/>
<text text-anchor="middle" x="1229" y="-109" font-family="Helvetica,sans-Serif" font-size="10.00"> </text>
<polyline fill="none" stroke="black" points="1150.5,-102 1307.5,-102 "/>
<text text-anchor="start" x="1158.5" y="-90" font-family="Helvetica,sans-Serif" font-size="10.00">+ Cap()</text>
<text text-anchor="start" x="1158.5" y="-79" font-family="Helvetica,sans-Serif" font-size="10.00">+ Cap()</text>
<text text-anchor="start" x="1158.5" y="-68" font-family="Helvetica,sans-Serif" font-size="10.00">+ Cap()</text>
<text text-anchor="start" x="1158.5" y="-57" font-family="Helvetica,sans-Serif" font-size="10.00">+ Cap()</text>
<text text-anchor="start" x="1158.5" y="-46" font-family="Helvetica,sans-Serif" font-size="10.00">+ Cap()</text>
<text text-anchor="start" x="1158.5" y="-35" font-family="Helvetica,sans-Serif" font-size="10.00">+ move()</text>
<text text-anchor="start" x="1158.5" y="-24" font-family="Helvetica,sans-Serif" font-size="10.00">+ copy()</text>
<text text-anchor="start" x="1158.5" y="-13" font-family="Helvetica,sans-Serif" font-size="10.00">+ operator&#45;&gt;()</text>
</a>
</g>
</g>
<!-- Node1&#45;&gt;Node11 -->
<g id="edge10" class="edge">
<title>Node1&#45;&gt;Node11</title>
<path fill="none" stroke="orange" d="M898.42,-244.54C959.86,-226.34 1061.59,-192.25 1141,-146 1144.24,-144.11 1147.49,-142.11 1150.72,-140.02"/>
<polygon fill="orange" stroke="orange" points="897.16,-241.26 888.54,-247.43 899.12,-247.98 897.16,-241.26"/>
<text text-anchor="middle" x="1158" y="-167" font-family="Helvetica,sans-Serif" font-size="10.00"> &lt; L4Re::Dataspace &gt;</text>
</g>
<!-- Node12 -->
<g id="node12" class="node">
<title>Node12</title>
<g id="a_node12"><a xlink:href="classL4_1_1Cap.html" target="_top" xlink:title=" ">
<polygon fill="white" stroke="black" points="1325.5,-0.5 1325.5,-145.5 1432.5,-145.5 1432.5,-0.5 1325.5,-0.5"/>
<text text-anchor="start" x="1333.5" y="-133.5" font-family="Helvetica,sans-Serif" font-size="10.00">L4::Cap&lt; L4virtio::</text>
<text text-anchor="middle" x="1379" y="-122.5" font-family="Helvetica,sans-Serif" font-size="10.00">Device &gt;</text>
<polyline fill="none" stroke="black" points="1325.5,-115.5 1432.5,-115.5 "/>
<text text-anchor="middle" x="1379" y="-103.5" font-family="Helvetica,sans-Serif" font-size="10.00"> </text>
<polyline fill="none" stroke="black" points="1325.5,-96.5 1432.5,-96.5 "/>
<text text-anchor="start" x="1333.5" y="-84.5" font-family="Helvetica,sans-Serif" font-size="10.00">+ Cap()</text>
<text text-anchor="start" x="1333.5" y="-73.5" font-family="Helvetica,sans-Serif" font-size="10.00">+ Cap()</text>
<text text-anchor="start" x="1333.5" y="-62.5" font-family="Helvetica,sans-Serif" font-size="10.00">+ Cap()</text>
<text text-anchor="start" x="1333.5" y="-51.5" font-family="Helvetica,sans-Serif" font-size="10.00">+ Cap()</text>
<text text-anchor="start" x="1333.5" y="-40.5" font-family="Helvetica,sans-Serif" font-size="10.00">+ Cap()</text>
<text text-anchor="start" x="1333.5" y="-29.5" font-family="Helvetica,sans-Serif" font-size="10.00">+ move()</text>
<text text-anchor="start" x="1333.5" y="-18.5" font-family="Helvetica,sans-Serif" font-size="10.00">+ copy()</text>
<text text-anchor="start" x="1333.5" y="-7.5" font-family="Helvetica,sans-Serif" font-size="10.00">+ operator&#45;&gt;()</text>
</a>
</g>
</g>
<!-- Node1&#45;&gt;Node12 -->
<g id="edge11" class="edge">
<title>Node1&#45;&gt;Node12</title>
<path fill="none" stroke="orange" d="M898.71,-257.7C991.53,-252.31 1182.73,-230.88 1316,-146 1319.22,-143.95 1322.37,-141.68 1325.44,-139.26"/>
<polygon fill="orange" stroke="orange" points="898.49,-254.21 888.69,-258.24 898.87,-261.2 898.49,-254.21"/>
<text text-anchor="middle" x="1334.5" y="-167" font-family="Helvetica,sans-Serif" font-size="10.00"> &lt; L4virtio::Device &gt;</text>
</g>
<!-- Node13 -->
<g id="node13" class="node">
<title>Node13</title>
<g id="a_node13"><a xlink:href="classL4_1_1Cap.html" target="_top" xlink:title=" ">
<polygon fill="white" stroke="black" points="1451,-6 1451,-140 1591,-140 1591,-6 1451,-6"/>
<text text-anchor="middle" x="1521" y="-128" font-family="Helvetica,sans-Serif" font-size="10.00">L4::Cap&lt; L4vbus::Vbus &gt;</text>
<polyline fill="none" stroke="black" points="1451,-121 1591,-121 "/>
<text text-anchor="middle" x="1521" y="-109" font-family="Helvetica,sans-Serif" font-size="10.00"> </text>
<polyline fill="none" stroke="black" points="1451,-102 1591,-102 "/>
<text text-anchor="start" x="1459" y="-90" font-family="Helvetica,sans-Serif" font-size="10.00">+ Cap()</text>
<text text-anchor="start" x="1459" y="-79" font-family="Helvetica,sans-Serif" font-size="10.00">+ Cap()</text>
<text text-anchor="start" x="1459" y="-68" font-family="Helvetica,sans-Serif" font-size="10.00">+ Cap()</text>
<text text-anchor="start" x="1459" y="-57" font-family="Helvetica,sans-Serif" font-size="10.00">+ Cap()</text>
<text text-anchor="start" x="1459" y="-46" font-family="Helvetica,sans-Serif" font-size="10.00">+ Cap()</text>
<text text-anchor="start" x="1459" y="-35" font-family="Helvetica,sans-Serif" font-size="10.00">+ move()</text>
<text text-anchor="start" x="1459" y="-24" font-family="Helvetica,sans-Serif" font-size="10.00">+ copy()</text>
<text text-anchor="start" x="1459" y="-13" font-family="Helvetica,sans-Serif" font-size="10.00">+ operator&#45;&gt;()</text>
</a>
</g>
</g>
<!-- Node1&#45;&gt;Node13 -->
<g id="edge12" class="edge">
<title>Node1&#45;&gt;Node13</title>
<path fill="none" stroke="orange" d="M899.04,-257.54C999.34,-252.56 1217.44,-235.13 1390,-175 1412.1,-167.3 1433.41,-154.26 1452.19,-140.07"/>
<polygon fill="orange" stroke="orange" points="898.66,-254.06 888.84,-258.03 898.99,-261.05 898.66,-254.06"/>
<text text-anchor="middle" x="1460.5" y="-167" font-family="Helvetica,sans-Serif" font-size="10.00"> &lt; L4vbus::Vbus &gt;</text>
</g>
<!-- Node14 -->
<g id="node14" class="node">
<title>Node14</title>
<g id="a_node14"><a xlink:href="classL4_1_1Cap.html" target="_top" xlink:title=" ">
<polygon fill="white" stroke="black" points="1609,-0.5 1609,-145.5 1731,-145.5 1731,-0.5 1609,-0.5"/>
<text text-anchor="start" x="1617" y="-133.5" font-family="Helvetica,sans-Serif" font-size="10.00">L4::Cap&lt; L4Re::Video</text>
<text text-anchor="middle" x="1670" y="-122.5" font-family="Helvetica,sans-Serif" font-size="10.00">::Goos &gt;</text>
<polyline fill="none" stroke="black" points="1609,-115.5 1731,-115.5 "/>
<text text-anchor="middle" x="1670" y="-103.5" font-family="Helvetica,sans-Serif" font-size="10.00"> </text>
<polyline fill="none" stroke="black" points="1609,-96.5 1731,-96.5 "/>
<text text-anchor="start" x="1617" y="-84.5" font-family="Helvetica,sans-Serif" font-size="10.00">+ Cap()</text>
<text text-anchor="start" x="1617" y="-73.5" font-family="Helvetica,sans-Serif" font-size="10.00">+ Cap()</text>
<text text-anchor="start" x="1617" y="-62.5" font-family="Helvetica,sans-Serif" font-size="10.00">+ Cap()</text>
<text text-anchor="start" x="1617" y="-51.5" font-family="Helvetica,sans-Serif" font-size="10.00">+ Cap()</text>
<text text-anchor="start" x="1617" y="-40.5" font-family="Helvetica,sans-Serif" font-size="10.00">+ Cap()</text>
<text text-anchor="start" x="1617" y="-29.5" font-family="Helvetica,sans-Serif" font-size="10.00">+ move()</text>
<text text-anchor="start" x="1617" y="-18.5" font-family="Helvetica,sans-Serif" font-size="10.00">+ copy()</text>
<text text-anchor="start" x="1617" y="-7.5" font-family="Helvetica,sans-Serif" font-size="10.00">+ operator&#45;&gt;()</text>
</a>
</g>
</g>
<!-- Node1&#45;&gt;Node14 -->
<g id="edge13" class="edge">
<title>Node1&#45;&gt;Node14</title>
<path fill="none" stroke="orange" d="M898.78,-256C1013.38,-247.94 1286.32,-224.78 1510,-175 1551.02,-165.87 1564.3,-168.17 1600,-146 1602.96,-144.16 1605.89,-142.17 1608.77,-140.06"/>
<polygon fill="orange" stroke="orange" points="898.25,-252.53 888.52,-256.72 898.74,-259.52 898.25,-252.53"/>
<text text-anchor="middle" x="1619.5" y="-167" font-family="Helvetica,sans-Serif" font-size="10.00"> &lt; L4Re::Video::Goos &gt;</text>
</g>
<!-- Node2 -->
<g id="node2" class="node">
<title>Node2</title>
<g id="a_node2"><a xlink:href="classL4_1_1Cap__base.html" target="_top" xlink:title="Base class for all kinds of capabilities.">
<polygon fill="white" stroke="black" points="754.5,-365.5 754.5,-587.5 933.5,-587.5 933.5,-365.5 754.5,-365.5"/>
<text text-anchor="middle" x="844" y="-575.5" font-family="Helvetica,sans-Serif" font-size="10.00">L4::Cap_base</text>
<polyline fill="none" stroke="black" points="754.5,-568.5 933.5,-568.5 "/>
<text text-anchor="start" x="762.5" y="-556.5" font-family="Helvetica,sans-Serif" font-size="10.00"># _c</text>
<polyline fill="none" stroke="black" points="754.5,-549.5 933.5,-549.5 "/>
<text text-anchor="start" x="762.5" y="-537.5" font-family="Helvetica,sans-Serif" font-size="10.00">+ cap()</text>
<text text-anchor="start" x="762.5" y="-526.5" font-family="Helvetica,sans-Serif" font-size="10.00">+ is_valid()</text>
<text text-anchor="start" x="762.5" y="-515.5" font-family="Helvetica,sans-Serif" font-size="10.00">+ operator Invalid_conversion *()</text>
<text text-anchor="start" x="762.5" y="-504.5" font-family="Helvetica,sans-Serif" font-size="10.00">+ fpage()</text>
<text text-anchor="start" x="762.5" y="-493.5" font-family="Helvetica,sans-Serif" font-size="10.00">+ snd_base()</text>
<text text-anchor="start" x="762.5" y="-482.5" font-family="Helvetica,sans-Serif" font-size="10.00">+ operator==()</text>
<text text-anchor="start" x="762.5" y="-471.5" font-family="Helvetica,sans-Serif" font-size="10.00">+ operator!=()</text>
<text text-anchor="start" x="762.5" y="-460.5" font-family="Helvetica,sans-Serif" font-size="10.00">+ validate()</text>
<text text-anchor="start" x="762.5" y="-449.5" font-family="Helvetica,sans-Serif" font-size="10.00">+ validate()</text>
<text text-anchor="start" x="762.5" y="-438.5" font-family="Helvetica,sans-Serif" font-size="10.00">+ invalidate()</text>
<text text-anchor="start" x="762.5" y="-427.5" font-family="Helvetica,sans-Serif" font-size="10.00"># Cap_base()</text>
<text text-anchor="start" x="762.5" y="-416.5" font-family="Helvetica,sans-Serif" font-size="10.00"># Cap_base()</text>
<text text-anchor="start" x="762.5" y="-405.5" font-family="Helvetica,sans-Serif" font-size="10.00"># Cap_base()</text>
<text text-anchor="start" x="762.5" y="-394.5" font-family="Helvetica,sans-Serif" font-size="10.00"># Cap_base()</text>
<text text-anchor="start" x="762.5" y="-383.5" font-family="Helvetica,sans-Serif" font-size="10.00"># move()</text>
<text text-anchor="start" x="762.5" y="-372.5" font-family="Helvetica,sans-Serif" font-size="10.00"># copy()</text>
</a>
</g>
</g>
<!-- Node2&#45;&gt;Node1 -->
<g id="edge1" class="edge">
<title>Node2&#45;&gt;Node1</title>
<path fill="none" stroke="midnightblue" d="M844,-355.11C844,-345.7 844,-336.42 844,-327.59"/>
<polygon fill="none" stroke="midnightblue" points="840.5,-355.37 844,-365.37 847.5,-355.37 840.5,-355.37"/>
</g>
</g>
</svg>
