<?xml version="1.0" encoding="UTF-8" standalone="no"?>
<!DOCTYPE svg PUBLIC "-//W3C//DTD SVG 1.1//EN"
 "http://www.w3.org/Graphics/SVG/1.1/DTD/svg11.dtd">
<!-- Generated by graphviz version 2.43.0 (0)
 -->
<!-- Title: L4::Thread Pages: 1 -->
<svg width="291pt" height="453pt"
 viewBox="0.00 0.00 291.00 453.00" xmlns="http://www.w3.org/2000/svg" xmlns:xlink="http://www.w3.org/1999/xlink">
<g id="graph0" class="graph" transform="scale(1 1) rotate(0) translate(4 449)">
<title>L4::Thread</title>
<polygon fill="white" stroke="transparent" points="-4,4 -4,-449 287,-449 287,4 -4,4"/>
<!-- Node1 -->
<g id="node1" class="node">
<title>Node1</title>
<g id="a_node1"><a xlink:title="C++ L4 kernel thread interface.">
<polygon fill="#bfbfbf" stroke="black" points="40.5,-0.5 40.5,-167.5 183.5,-167.5 183.5,-0.5 40.5,-0.5"/>
<text text-anchor="middle" x="112" y="-155.5" font-family="Helvetica,sans-Serif" font-size="10.00">L4::Thread</text>
<polyline fill="none" stroke="black" points="40.5,-148.5 183.5,-148.5 "/>
<text text-anchor="middle" x="112" y="-136.5" font-family="Helvetica,sans-Serif" font-size="10.00"> </text>
<polyline fill="none" stroke="black" points="40.5,-129.5 183.5,-129.5 "/>
<text text-anchor="start" x="48.5" y="-117.5" font-family="Helvetica,sans-Serif" font-size="10.00">+ ex_regs()</text>
<text text-anchor="start" x="48.5" y="-106.5" font-family="Helvetica,sans-Serif" font-size="10.00">+ ex_regs()</text>
<text text-anchor="start" x="48.5" y="-95.5" font-family="Helvetica,sans-Serif" font-size="10.00">+ control()</text>
<text text-anchor="start" x="48.5" y="-84.5" font-family="Helvetica,sans-Serif" font-size="10.00">+ switch_to()</text>
<text text-anchor="start" x="48.5" y="-73.5" font-family="Helvetica,sans-Serif" font-size="10.00">+ stats_time()</text>
<text text-anchor="start" x="48.5" y="-62.5" font-family="Helvetica,sans-Serif" font-size="10.00">+ vcpu_resume_start()</text>
<text text-anchor="start" x="48.5" y="-51.5" font-family="Helvetica,sans-Serif" font-size="10.00">+ vcpu_resume_commit()</text>
<text text-anchor="start" x="48.5" y="-40.5" font-family="Helvetica,sans-Serif" font-size="10.00">+ vcpu_control()</text>
<text text-anchor="start" x="48.5" y="-29.5" font-family="Helvetica,sans-Serif" font-size="10.00">+ vcpu_control_ext()</text>
<text text-anchor="start" x="48.5" y="-18.5" font-family="Helvetica,sans-Serif" font-size="10.00">+ register_del_irq()</text>
<text text-anchor="start" x="48.5" y="-7.5" font-family="Helvetica,sans-Serif" font-size="10.00">+ modify_senders()</text>
</a>
</g>
</g>
<!-- Node2 -->
<g id="node2" class="node">
<title>Node2</title>
<g id="a_node2"><a xlink:href="classL4_1_1Kobject__t.html" target="_top" xlink:title=" ">
<polygon fill="white" stroke="black" points="31,-205.5 31,-295.5 193,-295.5 193,-205.5 31,-205.5"/>
<text text-anchor="start" x="39" y="-283.5" font-family="Helvetica,sans-Serif" font-size="10.00">L4::Kobject_t&lt; Thread,</text>
<text text-anchor="start" x="39" y="-272.5" font-family="Helvetica,sans-Serif" font-size="10.00"> Kobject, L4_PROTO_THREAD,</text>
<text text-anchor="middle" x="112" y="-261.5" font-family="Helvetica,sans-Serif" font-size="10.00"> Type_info::Demand_t&lt; 1 &gt; &gt;</text>
<polyline fill="none" stroke="black" points="31,-254.5 193,-254.5 "/>
<text text-anchor="middle" x="112" y="-242.5" font-family="Helvetica,sans-Serif" font-size="10.00"> </text>
<polyline fill="none" stroke="black" points="31,-235.5 193,-235.5 "/>
<text text-anchor="start" x="39" y="-223.5" font-family="Helvetica,sans-Serif" font-size="10.00"># c()</text>
<text text-anchor="start" x="39" y="-212.5" font-family="Helvetica,sans-Serif" font-size="10.00"># __check_protocols__()</text>
</a>
</g>
</g>
<!-- Node2&#45;&gt;Node1 -->
<g id="edge1" class="edge">
<title>Node2&#45;&gt;Node1</title>
<path fill="none" stroke="midnightblue" d="M112,-195.25C112,-186.38 112,-177.01 112,-167.64"/>
<polygon fill="none" stroke="midnightblue" points="108.5,-195.42 112,-205.42 115.5,-195.42 108.5,-195.42"/>
</g>
<!-- Node3 -->
<g id="node3" class="node">
<title>Node3</title>
<g id="a_node3"><a xlink:href="classL4_1_1Kobject.html" target="_top" xlink:title="Base class for all kinds of kernel objects and remote objects, referenced by capabilities.">
<polygon fill="white" stroke="black" points="0,-371 0,-439 86,-439 86,-371 0,-371"/>
<text text-anchor="middle" x="43" y="-427" font-family="Helvetica,sans-Serif" font-size="10.00">L4::Kobject</text>
<polyline fill="none" stroke="black" points="0,-420 86,-420 "/>
<text text-anchor="middle" x="43" y="-408" font-family="Helvetica,sans-Serif" font-size="10.00"> </text>
<polyline fill="none" stroke="black" points="0,-401 86,-401 "/>
<text text-anchor="start" x="8" y="-389" font-family="Helvetica,sans-Serif" font-size="10.00">+ dec_refcnt()</text>
<text text-anchor="start" x="8" y="-378" font-family="Helvetica,sans-Serif" font-size="10.00"># cap()</text>
</a>
</g>
</g>
<!-- Node3&#45;&gt;Node2 -->
<g id="edge2" class="edge">
<title>Node3&#45;&gt;Node2</title>
<path fill="none" stroke="midnightblue" d="M62.11,-361.76C71.44,-341.15 82.65,-316.37 92.08,-295.53"/>
<polygon fill="none" stroke="midnightblue" points="58.91,-360.36 57.97,-370.91 65.28,-363.24 58.91,-360.36"/>
</g>
<!-- Node4 -->
<g id="node4" class="node">
<title>Node4</title>
<g id="a_node4"><a xlink:href="classL4_1_1Kobject__t.html" target="_top" xlink:title="Helper class to create an L4Re interface class that is derived from a single base class.">
<polygon fill="white" stroke="black" points="104,-365.5 104,-444.5 260,-444.5 260,-365.5 104,-365.5"/>
<text text-anchor="start" x="112" y="-432.5" font-family="Helvetica,sans-Serif" font-size="10.00">L4::Kobject_t&lt; Derived,</text>
<text text-anchor="middle" x="182" y="-421.5" font-family="Helvetica,sans-Serif" font-size="10.00"> Base, PROTO, S_DEMAND &gt;</text>
<polyline fill="none" stroke="black" points="104,-414.5 260,-414.5 "/>
<text text-anchor="middle" x="182" y="-402.5" font-family="Helvetica,sans-Serif" font-size="10.00"> </text>
<polyline fill="none" stroke="black" points="104,-395.5 260,-395.5 "/>
<text text-anchor="start" x="112" y="-383.5" font-family="Helvetica,sans-Serif" font-size="10.00"># c()</text>
<text text-anchor="start" x="112" y="-372.5" font-family="Helvetica,sans-Serif" font-size="10.00"># __check_protocols__()</text>
</a>
</g>
</g>
<!-- Node4&#45;&gt;Node2 -->
<g id="edge3" class="edge">
<title>Node4&#45;&gt;Node2</title>
<path fill="none" stroke="orange" d="M159.93,-355.91C151.08,-336.64 140.95,-314.57 132.29,-295.7"/>
<polygon fill="orange" stroke="orange" points="156.8,-357.5 164.15,-365.12 163.16,-354.57 156.8,-357.5"/>
<text text-anchor="start" x="155" y="-339" font-family="Helvetica,sans-Serif" font-size="10.00"> &lt; Thread, Kobject,</text>
<text text-anchor="start" x="155" y="-328" font-family="Helvetica,sans-Serif" font-size="10.00"> L4_PROTO_THREAD, Type</text>
<text text-anchor="middle" x="219" y="-317" font-family="Helvetica,sans-Serif" font-size="10.00">_info::Demand_t&lt; 1 &gt; &gt;</text>
</g>
</g>
</svg>
