<?xml version="1.0" encoding="UTF-8" standalone="no"?>
<!DOCTYPE svg PUBLIC "-//W3C//DTD SVG 1.1//EN"
 "http://www.w3.org/Graphics/SVG/1.1/DTD/svg11.dtd">
<!-- Generated by graphviz version 2.43.0 (0)
 -->
<!-- Title: L4vbus::Vbus Pages: 1 -->
<svg width="637pt" height="1297pt"
 viewBox="0.00 0.00 637.00 1297.00" xmlns="http://www.w3.org/2000/svg" xmlns:xlink="http://www.w3.org/1999/xlink">
<g id="graph0" class="graph" transform="scale(1 1) rotate(0) translate(4 1293)">
<title>L4vbus::Vbus</title>
<polygon fill="white" stroke="transparent" points="-4,4 -4,-1293 633,-1293 633,4 -4,4"/>
<!-- Node1 -->
<g id="node1" class="node">
<title>Node1</title>
<g id="a_node1"><a xlink:title="The virtual bus (Vbus) interface.">
<polygon fill="#bfbfbf" stroke="black" points="229,-0.5 229,-123.5 365,-123.5 365,-0.5 229,-0.5"/>
<text text-anchor="middle" x="297" y="-111.5" font-family="Helvetica,sans-Serif" font-size="10.00">L4vbus::Vbus</text>
<polyline fill="none" stroke="black" points="229,-104.5 365,-104.5 "/>
<text text-anchor="middle" x="297" y="-92.5" font-family="Helvetica,sans-Serif" font-size="10.00"> </text>
<polyline fill="none" stroke="black" points="229,-85.5 365,-85.5 "/>
<text text-anchor="start" x="237" y="-73.5" font-family="Helvetica,sans-Serif" font-size="10.00">+ request_ioport()</text>
<text text-anchor="start" x="237" y="-62.5" font-family="Helvetica,sans-Serif" font-size="10.00">+ request_resource()</text>
<text text-anchor="start" x="237" y="-51.5" font-family="Helvetica,sans-Serif" font-size="10.00">+ release_ioport()</text>
<text text-anchor="start" x="237" y="-40.5" font-family="Helvetica,sans-Serif" font-size="10.00">+ release_resource()</text>
<text text-anchor="start" x="237" y="-29.5" font-family="Helvetica,sans-Serif" font-size="10.00">+ root()</text>
<text text-anchor="start" x="237" y="-18.5" font-family="Helvetica,sans-Serif" font-size="10.00">+ assign_dma_domain()</text>
<text text-anchor="start" x="237" y="-7.5" font-family="Helvetica,sans-Serif" font-size="10.00">+ assign_dma_domain()</text>
</a>
</g>
</g>
<!-- Node2 -->
<g id="node2" class="node">
<title>Node2</title>
<g id="a_node2"><a xlink:href="structL4_1_1Kobject__3t.html" target="_top" xlink:title=" ">
<polygon fill="white" stroke="black" points="219.5,-161.5 219.5,-284.5 374.5,-284.5 374.5,-161.5 219.5,-161.5"/>
<text text-anchor="start" x="227.5" y="-272.5" font-family="Helvetica,sans-Serif" font-size="10.00">L4::Kobject_3t&lt; Vbus,</text>
<text text-anchor="start" x="227.5" y="-261.5" font-family="Helvetica,sans-Serif" font-size="10.00"> L4Re::Dataspace, L4Re</text>
<text text-anchor="middle" x="297" y="-250.5" font-family="Helvetica,sans-Serif" font-size="10.00">::Inhibitor, L4Re::Event &gt;</text>
<polyline fill="none" stroke="black" points="219.5,-243.5 374.5,-243.5 "/>
<text text-anchor="middle" x="297" y="-231.5" font-family="Helvetica,sans-Serif" font-size="10.00"> </text>
<polyline fill="none" stroke="black" points="219.5,-224.5 374.5,-224.5 "/>
<text text-anchor="start" x="227.5" y="-212.5" font-family="Helvetica,sans-Serif" font-size="10.00">+ operator Kobject const &amp;()</text>
<text text-anchor="start" x="227.5" y="-201.5" font-family="Helvetica,sans-Serif" font-size="10.00">+ dec_refcnt()</text>
<text text-anchor="start" x="227.5" y="-190.5" font-family="Helvetica,sans-Serif" font-size="10.00"># cap()</text>
<text text-anchor="start" x="227.5" y="-179.5" font-family="Helvetica,sans-Serif" font-size="10.00"># c()</text>
<text text-anchor="start" x="227.5" y="-168.5" font-family="Helvetica,sans-Serif" font-size="10.00"># __check_protocols__()</text>
</a>
</g>
</g>
<!-- Node2&#45;&gt;Node1 -->
<g id="edge1" class="edge">
<title>Node2&#45;&gt;Node1</title>
<path fill="none" stroke="midnightblue" d="M297,-151.17C297,-141.99 297,-132.65 297,-123.66"/>
<polygon fill="none" stroke="midnightblue" points="293.5,-151.44 297,-161.44 300.5,-151.44 293.5,-151.44"/>
</g>
<!-- Node3 -->
<g id="node3" class="node">
<title>Node3</title>
<g id="a_node3"><a xlink:href="classL4Re_1_1Dataspace.html" target="_top" xlink:title="Interface for memory&#45;like objects.">
<polygon fill="white" stroke="black" points="196,-703.5 196,-837.5 294,-837.5 294,-703.5 196,-703.5"/>
<text text-anchor="middle" x="245" y="-825.5" font-family="Helvetica,sans-Serif" font-size="10.00">L4Re::Dataspace</text>
<polyline fill="none" stroke="black" points="196,-818.5 294,-818.5 "/>
<text text-anchor="middle" x="245" y="-806.5" font-family="Helvetica,sans-Serif" font-size="10.00"> </text>
<polyline fill="none" stroke="black" points="196,-799.5 294,-799.5 "/>
<text text-anchor="start" x="204" y="-787.5" font-family="Helvetica,sans-Serif" font-size="10.00">+ map()</text>
<text text-anchor="start" x="204" y="-776.5" font-family="Helvetica,sans-Serif" font-size="10.00">+ map_region()</text>
<text text-anchor="start" x="204" y="-765.5" font-family="Helvetica,sans-Serif" font-size="10.00">+ clear()</text>
<text text-anchor="start" x="204" y="-754.5" font-family="Helvetica,sans-Serif" font-size="10.00">+ allocate()</text>
<text text-anchor="start" x="204" y="-743.5" font-family="Helvetica,sans-Serif" font-size="10.00">+ copy_in()</text>
<text text-anchor="start" x="204" y="-732.5" font-family="Helvetica,sans-Serif" font-size="10.00">+ size()</text>
<text text-anchor="start" x="204" y="-721.5" font-family="Helvetica,sans-Serif" font-size="10.00">+ flags()</text>
<text text-anchor="start" x="204" y="-710.5" font-family="Helvetica,sans-Serif" font-size="10.00">+ info()</text>
</a>
</g>
</g>
<!-- Node3&#45;&gt;Node2 -->
<g id="edge2" class="edge">
<title>Node3&#45;&gt;Node2</title>
<path fill="none" stroke="midnightblue" d="M243.87,-693.07C243.71,-609.38 246.6,-471.43 264,-354 267.4,-331.08 273.14,-306.34 278.89,-284.65"/>
<polygon fill="none" stroke="midnightblue" points="240.37,-693.27 243.91,-703.26 247.37,-693.25 240.37,-693.27"/>
</g>
<!-- Node4 -->
<g id="node4" class="node">
<title>Node4</title>
<g id="a_node4"><a xlink:href="classL4_1_1Kobject__t.html" target="_top" xlink:title=" ">
<polygon fill="white" stroke="black" points="171,-1038.5 171,-1139.5 319,-1139.5 319,-1038.5 171,-1038.5"/>
<text text-anchor="start" x="179" y="-1127.5" font-family="Helvetica,sans-Serif" font-size="10.00">L4::Kobject_t&lt; Dataspace,</text>
<text text-anchor="start" x="179" y="-1116.5" font-family="Helvetica,sans-Serif" font-size="10.00"> L4::Kobject, L4RE_PROTO</text>
<text text-anchor="start" x="179" y="-1105.5" font-family="Helvetica,sans-Serif" font-size="10.00">_DATASPACE, L4::Type_info</text>
<text text-anchor="middle" x="245" y="-1094.5" font-family="Helvetica,sans-Serif" font-size="10.00">::Demand_t&lt; 1 &gt; &gt;</text>
<polyline fill="none" stroke="black" points="171,-1087.5 319,-1087.5 "/>
<text text-anchor="middle" x="245" y="-1075.5" font-family="Helvetica,sans-Serif" font-size="10.00"> </text>
<polyline fill="none" stroke="black" points="171,-1068.5 319,-1068.5 "/>
<text text-anchor="start" x="179" y="-1056.5" font-family="Helvetica,sans-Serif" font-size="10.00"># c()</text>
<text text-anchor="start" x="179" y="-1045.5" font-family="Helvetica,sans-Serif" font-size="10.00"># __check_protocols__()</text>
</a>
</g>
</g>
<!-- Node4&#45;&gt;Node3 -->
<g id="edge3" class="edge">
<title>Node4&#45;&gt;Node3</title>
<path fill="none" stroke="midnightblue" d="M245,-1028.02C245,-973.65 245,-893.67 245,-837.5"/>
<polygon fill="none" stroke="midnightblue" points="241.5,-1028.2 245,-1038.2 248.5,-1028.2 241.5,-1028.2"/>
</g>
<!-- Node5 -->
<g id="node5" class="node">
<title>Node5</title>
<g id="a_node5"><a xlink:href="classL4_1_1Kobject.html" target="_top" xlink:title="Base class for all kinds of kernel objects and remote objects, referenced by capabilities.">
<polygon fill="white" stroke="black" points="0,-1215 0,-1283 86,-1283 86,-1215 0,-1215"/>
<text text-anchor="middle" x="43" y="-1271" font-family="Helvetica,sans-Serif" font-size="10.00">L4::Kobject</text>
<polyline fill="none" stroke="black" points="0,-1264 86,-1264 "/>
<text text-anchor="middle" x="43" y="-1252" font-family="Helvetica,sans-Serif" font-size="10.00"> </text>
<polyline fill="none" stroke="black" points="0,-1245 86,-1245 "/>
<text text-anchor="start" x="8" y="-1233" font-family="Helvetica,sans-Serif" font-size="10.00">+ dec_refcnt()</text>
<text text-anchor="start" x="8" y="-1222" font-family="Helvetica,sans-Serif" font-size="10.00"># cap()</text>
</a>
</g>
</g>
<!-- Node5&#45;&gt;Node4 -->
<g id="edge4" class="edge">
<title>Node5&#45;&gt;Node4</title>
<path fill="none" stroke="midnightblue" d="M45.98,-1204.64C49.32,-1187.88 55.98,-1169.9 69,-1158 100.08,-1129.6 122.7,-1155.09 162,-1140 164.98,-1138.85 167.98,-1137.6 170.98,-1136.27"/>
<polygon fill="none" stroke="midnightblue" points="42.46,-1204.43 44.29,-1214.86 49.37,-1205.56 42.46,-1204.43"/>
</g>
<!-- Node8 -->
<g id="node8" class="node">
<title>Node8</title>
<g id="a_node8"><a xlink:href="classL4_1_1Kobject__t.html" target="_top" xlink:title=" ">
<polygon fill="white" stroke="black" points="11,-1044 11,-1134 153,-1134 153,-1044 11,-1044"/>
<text text-anchor="start" x="19" y="-1122" font-family="Helvetica,sans-Serif" font-size="10.00">L4::Kobject_t&lt; Inhibitor,</text>
<text text-anchor="start" x="19" y="-1111" font-family="Helvetica,sans-Serif" font-size="10.00"> L4::Kobject, L4RE_PROTO</text>
<text text-anchor="middle" x="82" y="-1100" font-family="Helvetica,sans-Serif" font-size="10.00">_INHIBITOR &gt;</text>
<polyline fill="none" stroke="black" points="11,-1093 153,-1093 "/>
<text text-anchor="middle" x="82" y="-1081" font-family="Helvetica,sans-Serif" font-size="10.00"> </text>
<polyline fill="none" stroke="black" points="11,-1074 153,-1074 "/>
<text text-anchor="start" x="19" y="-1062" font-family="Helvetica,sans-Serif" font-size="10.00"># c()</text>
<text text-anchor="start" x="19" y="-1051" font-family="Helvetica,sans-Serif" font-size="10.00"># __check_protocols__()</text>
</a>
</g>
</g>
<!-- Node5&#45;&gt;Node8 -->
<g id="edge8" class="edge">
<title>Node5&#45;&gt;Node8</title>
<path fill="none" stroke="midnightblue" d="M39.17,-1204.89C38.96,-1189.84 40.01,-1172.97 44,-1158 46.16,-1149.9 49.5,-1141.73 53.33,-1134.01"/>
<polygon fill="none" stroke="midnightblue" points="35.68,-1205.1 39.5,-1214.98 42.68,-1204.87 35.68,-1205.1"/>
</g>
<!-- Node6 -->
<g id="node6" class="node">
<title>Node6</title>
<g id="a_node6"><a xlink:href="classL4_1_1Kobject__t.html" target="_top" xlink:title="Helper class to create an L4Re interface class that is derived from a single base class.">
<polygon fill="white" stroke="black" points="256,-1209.5 256,-1288.5 412,-1288.5 412,-1209.5 256,-1209.5"/>
<text text-anchor="start" x="264" y="-1276.5" font-family="Helvetica,sans-Serif" font-size="10.00">L4::Kobject_t&lt; Derived,</text>
<text text-anchor="middle" x="334" y="-1265.5" font-family="Helvetica,sans-Serif" font-size="10.00"> Base, PROTO, S_DEMAND &gt;</text>
<polyline fill="none" stroke="black" points="256,-1258.5 412,-1258.5 "/>
<text text-anchor="middle" x="334" y="-1246.5" font-family="Helvetica,sans-Serif" font-size="10.00"> </text>
<polyline fill="none" stroke="black" points="256,-1239.5 412,-1239.5 "/>
<text text-anchor="start" x="264" y="-1227.5" font-family="Helvetica,sans-Serif" font-size="10.00"># c()</text>
<text text-anchor="start" x="264" y="-1216.5" font-family="Helvetica,sans-Serif" font-size="10.00"># __check_protocols__()</text>
</a>
</g>
</g>
<!-- Node6&#45;&gt;Node4 -->
<g id="edge5" class="edge">
<title>Node6&#45;&gt;Node4</title>
<path fill="none" stroke="orange" d="M253.23,-1201.68C250.51,-1198.33 248.07,-1194.77 246,-1191 237.55,-1175.64 235.55,-1156.86 236.25,-1139.69"/>
<polygon fill="orange" stroke="orange" points="250.72,-1204.12 260.05,-1209.14 255.89,-1199.4 250.72,-1204.12"/>
<text text-anchor="start" x="246" y="-1183" font-family="Helvetica,sans-Serif" font-size="10.00"> &lt; Dataspace, L4::Kobject,</text>
<text text-anchor="start" x="246" y="-1172" font-family="Helvetica,sans-Serif" font-size="10.00"> L4RE_PROTO_DATASPACE,</text>
<text text-anchor="middle" x="327.5" y="-1161" font-family="Helvetica,sans-Serif" font-size="10.00"> L4::Type_info::Demand_t&lt; 1 &gt; &gt;</text>
</g>
<!-- Node6&#45;&gt;Node8 -->
<g id="edge9" class="edge">
<title>Node6&#45;&gt;Node8</title>
<path fill="none" stroke="orange" d="M245.78,-1236.82C187.8,-1227.62 119.08,-1212.56 99,-1191 84.94,-1175.91 80.14,-1153.75 79.08,-1134.04"/>
<polygon fill="orange" stroke="orange" points="245.31,-1240.29 255.72,-1238.36 246.38,-1233.37 245.31,-1240.29"/>
<text text-anchor="start" x="99" y="-1177.5" font-family="Helvetica,sans-Serif" font-size="10.00"> &lt; Inhibitor, L4::Kobject,</text>
<text text-anchor="middle" x="166" y="-1166.5" font-family="Helvetica,sans-Serif" font-size="10.00"> L4RE_PROTO_INHIBITOR &gt;</text>
</g>
<!-- Node10 -->
<g id="node10" class="node">
<title>Node10</title>
<g id="a_node10"><a xlink:href="classL4_1_1Kobject__t.html" target="_top" xlink:title=" ">
<polygon fill="white" stroke="black" points="355.5,-594.5 355.5,-684.5 490.5,-684.5 490.5,-594.5 355.5,-594.5"/>
<text text-anchor="start" x="363.5" y="-672.5" font-family="Helvetica,sans-Serif" font-size="10.00">L4::Kobject_t&lt; Event,</text>
<text text-anchor="start" x="363.5" y="-661.5" font-family="Helvetica,sans-Serif" font-size="10.00"> L4::Icu, L4RE_PROTO</text>
<text text-anchor="middle" x="423" y="-650.5" font-family="Helvetica,sans-Serif" font-size="10.00">_EVENT &gt;</text>
<polyline fill="none" stroke="black" points="355.5,-643.5 490.5,-643.5 "/>
<text text-anchor="middle" x="423" y="-631.5" font-family="Helvetica,sans-Serif" font-size="10.00"> </text>
<polyline fill="none" stroke="black" points="355.5,-624.5 490.5,-624.5 "/>
<text text-anchor="start" x="363.5" y="-612.5" font-family="Helvetica,sans-Serif" font-size="10.00"># c()</text>
<text text-anchor="start" x="363.5" y="-601.5" font-family="Helvetica,sans-Serif" font-size="10.00"># __check_protocols__()</text>
</a>
</g>
</g>
<!-- Node6&#45;&gt;Node10 -->
<g id="edge16" class="edge">
<title>Node6&#45;&gt;Node10</title>
<path fill="none" stroke="orange" d="M402.18,-1201.76C404.77,-1198.35 407.07,-1194.77 409,-1191 420.45,-1168.63 422.54,-811.69 422.92,-684.82"/>
<polygon fill="orange" stroke="orange" points="399.51,-1199.5 395.68,-1209.38 404.84,-1204.04 399.51,-1199.5"/>
<text text-anchor="start" x="420" y="-1012" font-family="Helvetica,sans-Serif" font-size="10.00"> &lt; Event, L4::Icu, L4RE</text>
<text text-anchor="middle" x="475" y="-1001" font-family="Helvetica,sans-Serif" font-size="10.00">_PROTO_EVENT &gt;</text>
</g>
<!-- Node12 -->
<g id="node12" class="node">
<title>Node12</title>
<g id="a_node12"><a xlink:href="classL4_1_1Kobject__t.html" target="_top" xlink:title=" ">
<polygon fill="white" stroke="black" points="467,-1044 467,-1134 629,-1134 629,-1044 467,-1044"/>
<text text-anchor="start" x="475" y="-1122" font-family="Helvetica,sans-Serif" font-size="10.00">L4::Kobject_t&lt; Icu,</text>
<text text-anchor="start" x="475" y="-1111" font-family="Helvetica,sans-Serif" font-size="10.00"> Irq_eoi, L4_PROTO_IRQ,</text>
<text text-anchor="middle" x="548" y="-1100" font-family="Helvetica,sans-Serif" font-size="10.00"> Type_info::Demand_t&lt; 1 &gt; &gt;</text>
<polyline fill="none" stroke="black" points="467,-1093 629,-1093 "/>
<text text-anchor="middle" x="548" y="-1081" font-family="Helvetica,sans-Serif" font-size="10.00"> </text>
<polyline fill="none" stroke="black" points="467,-1074 629,-1074 "/>
<text text-anchor="start" x="475" y="-1062" font-family="Helvetica,sans-Serif" font-size="10.00"># c()</text>
<text text-anchor="start" x="475" y="-1051" font-family="Helvetica,sans-Serif" font-size="10.00"># __check_protocols__()</text>
</a>
</g>
</g>
<!-- Node6&#45;&gt;Node12 -->
<g id="edge15" class="edge">
<title>Node6&#45;&gt;Node12</title>
<path fill="none" stroke="orange" d="M419.7,-1203.5C424.76,-1199.57 429.59,-1195.4 434,-1191 445.99,-1179.06 441.64,-1170.54 453,-1158 460.63,-1149.58 469.46,-1141.59 478.61,-1134.25"/>
<polygon fill="orange" stroke="orange" points="417.54,-1200.74 411.56,-1209.49 421.69,-1206.38 417.54,-1200.74"/>
<text text-anchor="start" x="453" y="-1183" font-family="Helvetica,sans-Serif" font-size="10.00"> &lt; Icu, Irq_eoi, L4</text>
<text text-anchor="start" x="453" y="-1172" font-family="Helvetica,sans-Serif" font-size="10.00">_PROTO_IRQ, Type_info</text>
<text text-anchor="middle" x="510.5" y="-1161" font-family="Helvetica,sans-Serif" font-size="10.00">::Demand_t&lt; 1 &gt; &gt;</text>
</g>
<!-- Node7 -->
<g id="node7" class="node">
<title>Node7</title>
<g id="a_node7"><a xlink:href="classL4Re_1_1Inhibitor.html" target="_top" xlink:title="Set of inhibitor locks, which inhibit specific actions when held.">
<polygon fill="white" stroke="black" points="99.5,-496.5 99.5,-575.5 206.5,-575.5 206.5,-496.5 99.5,-496.5"/>
<text text-anchor="middle" x="153" y="-563.5" font-family="Helvetica,sans-Serif" font-size="10.00">L4Re::Inhibitor</text>
<polyline fill="none" stroke="black" points="99.5,-556.5 206.5,-556.5 "/>
<text text-anchor="middle" x="153" y="-544.5" font-family="Helvetica,sans-Serif" font-size="10.00"> </text>
<polyline fill="none" stroke="black" points="99.5,-537.5 206.5,-537.5 "/>
<text text-anchor="start" x="107.5" y="-525.5" font-family="Helvetica,sans-Serif" font-size="10.00">+ acquire()</text>
<text text-anchor="start" x="107.5" y="-514.5" font-family="Helvetica,sans-Serif" font-size="10.00">+ release()</text>
<text text-anchor="start" x="107.5" y="-503.5" font-family="Helvetica,sans-Serif" font-size="10.00">+ next_lock_info()</text>
</a>
</g>
</g>
<!-- Node7&#45;&gt;Node2 -->
<g id="edge6" class="edge">
<title>Node7&#45;&gt;Node2</title>
<path fill="none" stroke="midnightblue" d="M163.75,-486.3C175.73,-437.79 197.87,-362.2 231,-303 234.4,-296.92 238.3,-290.85 242.47,-284.95"/>
<polygon fill="none" stroke="midnightblue" points="160.3,-485.68 161.35,-496.23 167.11,-487.33 160.3,-485.68"/>
</g>
<!-- Node8&#45;&gt;Node7 -->
<g id="edge7" class="edge">
<title>Node8&#45;&gt;Node7</title>
<path fill="none" stroke="midnightblue" d="M88.97,-1033.87C103.27,-922.95 135.58,-672.18 148,-575.77"/>
<polygon fill="none" stroke="midnightblue" points="85.5,-1033.48 87.69,-1043.84 92.44,-1034.37 85.5,-1033.48"/>
</g>
<!-- Node9 -->
<g id="node9" class="node">
<title>Node9</title>
<g id="a_node9"><a xlink:href="classL4Re_1_1Event.html" target="_top" xlink:title="Event class.">
<polygon fill="white" stroke="black" points="273,-360 273,-472 427,-472 427,-360 273,-360"/>
<text text-anchor="middle" x="350" y="-460" font-family="Helvetica,sans-Serif" font-size="10.00">L4Re::Event</text>
<polyline fill="none" stroke="black" points="273,-453 427,-453 "/>
<text text-anchor="middle" x="350" y="-441" font-family="Helvetica,sans-Serif" font-size="10.00"> </text>
<polyline fill="none" stroke="black" points="273,-434 427,-434 "/>
<text text-anchor="start" x="281" y="-422" font-family="Helvetica,sans-Serif" font-size="10.00">+ get_buffer()</text>
<text text-anchor="start" x="281" y="-411" font-family="Helvetica,sans-Serif" font-size="10.00">+ get_num_streams()</text>
<text text-anchor="start" x="281" y="-400" font-family="Helvetica,sans-Serif" font-size="10.00">+ get_stream_info()</text>
<text text-anchor="start" x="281" y="-389" font-family="Helvetica,sans-Serif" font-size="10.00">+ get_stream_info_for_id()</text>
<text text-anchor="start" x="281" y="-378" font-family="Helvetica,sans-Serif" font-size="10.00">+ get_axis_info()</text>
<text text-anchor="start" x="281" y="-367" font-family="Helvetica,sans-Serif" font-size="10.00">+ get_stream_state_for_id()</text>
</a>
</g>
</g>
<!-- Node9&#45;&gt;Node2 -->
<g id="edge10" class="edge">
<title>Node9&#45;&gt;Node2</title>
<path fill="none" stroke="midnightblue" d="M331.94,-349.93C326.09,-328.85 319.63,-305.56 313.87,-284.81"/>
<polygon fill="none" stroke="midnightblue" points="328.62,-351.05 334.67,-359.75 335.37,-349.18 328.62,-351.05"/>
</g>
<!-- Node10&#45;&gt;Node9 -->
<g id="edge11" class="edge">
<title>Node10&#45;&gt;Node9</title>
<path fill="none" stroke="midnightblue" d="M405.27,-584.69C394.04,-550.63 379.56,-506.7 368.24,-472.35"/>
<polygon fill="none" stroke="midnightblue" points="402.04,-586.07 408.49,-594.47 408.68,-583.88 402.04,-586.07"/>
</g>
<!-- Node11 -->
<g id="node11" class="node">
<title>Node11</title>
<g id="a_node11"><a xlink:href="classL4_1_1Icu.html" target="_top" xlink:title="C++ Icu interface.">
<polygon fill="white" stroke="black" points="478.5,-856.5 478.5,-979.5 561.5,-979.5 561.5,-856.5 478.5,-856.5"/>
<text text-anchor="middle" x="520" y="-967.5" font-family="Helvetica,sans-Serif" font-size="10.00">L4::Icu</text>
<polyline fill="none" stroke="black" points="478.5,-960.5 561.5,-960.5 "/>
<text text-anchor="middle" x="520" y="-948.5" font-family="Helvetica,sans-Serif" font-size="10.00"> </text>
<polyline fill="none" stroke="black" points="478.5,-941.5 561.5,-941.5 "/>
<text text-anchor="start" x="486.5" y="-929.5" font-family="Helvetica,sans-Serif" font-size="10.00">+ bind()</text>
<text text-anchor="start" x="486.5" y="-918.5" font-family="Helvetica,sans-Serif" font-size="10.00">+ unbind()</text>
<text text-anchor="start" x="486.5" y="-907.5" font-family="Helvetica,sans-Serif" font-size="10.00">+ info()</text>
<text text-anchor="start" x="486.5" y="-896.5" font-family="Helvetica,sans-Serif" font-size="10.00">+ msi_info()</text>
<text text-anchor="start" x="486.5" y="-885.5" font-family="Helvetica,sans-Serif" font-size="10.00">+ control()</text>
<text text-anchor="start" x="486.5" y="-874.5" font-family="Helvetica,sans-Serif" font-size="10.00">+ mask()</text>
<text text-anchor="start" x="486.5" y="-863.5" font-family="Helvetica,sans-Serif" font-size="10.00">+ set_mode()</text>
</a>
</g>
</g>
<!-- Node11&#45;&gt;Node10 -->
<g id="edge12" class="edge">
<title>Node11&#45;&gt;Node10</title>
<path fill="none" stroke="midnightblue" d="M495.33,-846.68C477.45,-795.72 453.82,-728.36 438.52,-684.74"/>
<polygon fill="none" stroke="midnightblue" points="492.1,-848.04 498.71,-856.32 498.71,-845.73 492.1,-848.04"/>
</g>
<!-- Node12&#45;&gt;Node11 -->
<g id="edge13" class="edge">
<title>Node12&#45;&gt;Node11</title>
<path fill="none" stroke="midnightblue" d="M539.71,-1033.47C537.87,-1021.76 535.91,-1009.46 534,-998 533.02,-992.09 531.97,-985.94 530.91,-979.79"/>
<polygon fill="none" stroke="midnightblue" points="536.28,-1034.22 541.28,-1043.57 543.2,-1033.15 536.28,-1034.22"/>
</g>
<!-- Node13 -->
<g id="node13" class="node">
<title>Node13</title>
<g id="a_node13"><a xlink:href="classL4_1_1Irq__eoi.html" target="_top" xlink:title="Interface for sending an acknowledge message to an object.">
<polygon fill="white" stroke="black" points="549,-1220.5 549,-1277.5 623,-1277.5 623,-1220.5 549,-1220.5"/>
<text text-anchor="middle" x="586" y="-1265.5" font-family="Helvetica,sans-Serif" font-size="10.00">L4::Irq_eoi</text>
<polyline fill="none" stroke="black" points="549,-1258.5 623,-1258.5 "/>
<text text-anchor="middle" x="586" y="-1246.5" font-family="Helvetica,sans-Serif" font-size="10.00"> </text>
<polyline fill="none" stroke="black" points="549,-1239.5 623,-1239.5 "/>
<text text-anchor="start" x="557" y="-1227.5" font-family="Helvetica,sans-Serif" font-size="10.00">+ unmask()</text>
</a>
</g>
</g>
<!-- Node13&#45;&gt;Node12 -->
<g id="edge14" class="edge">
<title>Node13&#45;&gt;Node12</title>
<path fill="none" stroke="midnightblue" d="M581.67,-1209.99C579.43,-1193.83 576.25,-1174.86 572,-1158 570.04,-1150.23 567.56,-1142.1 564.95,-1134.26"/>
<polygon fill="none" stroke="midnightblue" points="578.24,-1210.71 583.02,-1220.16 585.18,-1209.79 578.24,-1210.71"/>
</g>
<!-- Node14 -->
<g id="node14" class="node">
<title>Node14</title>
<g id="a_node14"><a xlink:href="structL4_1_1Kobject__3t.html" target="_top" xlink:title="Helper class to create an L4Re interface class that is derived from three base classes (see L4::Kobje...">
<polygon fill="white" stroke="black" points="445.5,-354.5 445.5,-477.5 600.5,-477.5 600.5,-354.5 445.5,-354.5"/>
<text text-anchor="start" x="453.5" y="-465.5" font-family="Helvetica,sans-Serif" font-size="10.00">L4::Kobject_3t&lt; Derived,</text>
<text text-anchor="start" x="453.5" y="-454.5" font-family="Helvetica,sans-Serif" font-size="10.00"> Base1, Base2, Base3,</text>
<text text-anchor="middle" x="523" y="-443.5" font-family="Helvetica,sans-Serif" font-size="10.00"> PROTO, S_DEMAND &gt;</text>
<polyline fill="none" stroke="black" points="445.5,-436.5 600.5,-436.5 "/>
<text text-anchor="middle" x="523" y="-424.5" font-family="Helvetica,sans-Serif" font-size="10.00"> </text>
<polyline fill="none" stroke="black" points="445.5,-417.5 600.5,-417.5 "/>
<text text-anchor="start" x="453.5" y="-405.5" font-family="Helvetica,sans-Serif" font-size="10.00">+ operator Kobject const &amp;()</text>
<text text-anchor="start" x="453.5" y="-394.5" font-family="Helvetica,sans-Serif" font-size="10.00">+ dec_refcnt()</text>
<text text-anchor="start" x="453.5" y="-383.5" font-family="Helvetica,sans-Serif" font-size="10.00"># cap()</text>
<text text-anchor="start" x="453.5" y="-372.5" font-family="Helvetica,sans-Serif" font-size="10.00"># c()</text>
<text text-anchor="start" x="453.5" y="-361.5" font-family="Helvetica,sans-Serif" font-size="10.00"># __check_protocols__()</text>
</a>
</g>
</g>
<!-- Node14&#45;&gt;Node2 -->
<g id="edge17" class="edge">
<title>Node14&#45;&gt;Node2</title>
<path fill="none" stroke="orange" d="M443.36,-347.7C419.02,-327.12 392.41,-304.63 368.63,-284.54"/>
<polygon fill="orange" stroke="orange" points="441.28,-350.52 451.18,-354.3 445.8,-345.18 441.28,-350.52"/>
<text text-anchor="start" x="424" y="-328" font-family="Helvetica,sans-Serif" font-size="10.00"> &lt; Vbus, L4Re::Dataspace,</text>
<text text-anchor="start" x="424" y="-317" font-family="Helvetica,sans-Serif" font-size="10.00"> L4Re::Inhibitor, L4Re</text>
<text text-anchor="middle" x="489" y="-306" font-family="Helvetica,sans-Serif" font-size="10.00">::Event &gt;</text>
</g>
</g>
</svg>
