<?xml version="1.0" encoding="UTF-8" standalone="no"?>
<!DOCTYPE svg PUBLIC "-//W3C//DTD SVG 1.1//EN"
 "http://www.w3.org/Graphics/SVG/1.1/DTD/svg11.dtd">
<!-- Generated by graphviz version 2.43.0 (0)
 -->
<!-- Title: cxx::Base_slab_static::alloc Pages: 1 -->
<svg width="725pt" height="75pt"
 viewBox="0.00 0.00 725.00 75.00" xmlns="http://www.w3.org/2000/svg" xmlns:xlink="http://www.w3.org/1999/xlink">
<g id="graph0" class="graph" transform="scale(1 1) rotate(0) translate(4 71)">
<title>cxx::Base_slab_static::alloc</title>
<polygon fill="white" stroke="transparent" points="-4,4 -4,-71 721,-71 721,4 -4,4"/>
<!-- Node1 -->
<g id="node1" class="node">
<title>Node1</title>
<g id="a_node1"><a xlink:title="Allocate an object.">
<polygon fill="#bfbfbf" stroke="black" points="0,-23 0,-53 122,-53 122,-23 0,-23"/>
<text text-anchor="start" x="8" y="-41" font-family="Helvetica,sans-Serif" font-size="10.00">cxx::Base_slab_static</text>
<text text-anchor="middle" x="61" y="-30" font-family="Helvetica,sans-Serif" font-size="10.00">::alloc</text>
</a>
</g>
</g>
<!-- Node2 -->
<g id="node2" class="node">
<title>Node2</title>
<g id="a_node2"><a xlink:href="classcxx_1_1Base__slab.html#a48ac5e888c4292fc5b1662b3a5e01997" target="_top" xlink:title="Allocate a new object.">
<polygon fill="white" stroke="black" points="158,-28.5 158,-47.5 277,-47.5 277,-28.5 158,-28.5"/>
<text text-anchor="middle" x="217.5" y="-35.5" font-family="Helvetica,sans-Serif" font-size="10.00">cxx::Base_slab::alloc</text>
</a>
</g>
</g>
<!-- Node1&#45;&gt;Node2 -->
<g id="edge1" class="edge">
<title>Node1&#45;&gt;Node2</title>
<path fill="none" stroke="midnightblue" d="M122.18,-38C130.49,-38 139.08,-38 147.54,-38"/>
<polygon fill="midnightblue" stroke="midnightblue" points="147.76,-41.5 157.76,-38 147.76,-34.5 147.76,-41.5"/>
</g>
<!-- Node3 -->
<g id="node3" class="node">
<title>Node3</title>
<g id="a_node3"><a xlink:href="classcxx_1_1Base__slab.html#af7f8144a14030567ab8f83e88b9cf20b" target="_top" xlink:title="Free the given object (_o).">
<polygon fill="white" stroke="black" points="313,-28.5 313,-47.5 428,-47.5 428,-28.5 313,-28.5"/>
<text text-anchor="middle" x="370.5" y="-35.5" font-family="Helvetica,sans-Serif" font-size="10.00">cxx::Base_slab::free</text>
</a>
</g>
</g>
<!-- Node2&#45;&gt;Node3 -->
<g id="edge2" class="edge">
<title>Node2&#45;&gt;Node3</title>
<path fill="none" stroke="midnightblue" d="M277.31,-38C285.56,-38 294.08,-38 302.46,-38"/>
<polygon fill="midnightblue" stroke="midnightblue" points="302.58,-41.5 312.58,-38 302.58,-34.5 302.58,-41.5"/>
</g>
<!-- Node4 -->
<g id="node4" class="node">
<title>Node4</title>
<g id="a_node4"><a xlink:href="classcxx_1_1H__list.html#afa48e56b417c420b88b7494ce3e791d6" target="_top" xlink:title="Add element to the front of the list.">
<polygon fill="white" stroke="black" points="464,-47.5 464,-66.5 589,-66.5 589,-47.5 464,-47.5"/>
<text text-anchor="middle" x="526.5" y="-54.5" font-family="Helvetica,sans-Serif" font-size="10.00">cxx::H_list::push_front</text>
</a>
</g>
</g>
<!-- Node2&#45;&gt;Node4 -->
<g id="edge6" class="edge">
<title>Node2&#45;&gt;Node4</title>
<path fill="none" stroke="midnightblue" d="M256.86,-47.51C273.93,-51.27 294.35,-55.14 313,-57 359.7,-61.65 412.47,-61.68 453.73,-60.53"/>
<polygon fill="midnightblue" stroke="midnightblue" points="454.08,-64.02 463.97,-60.21 453.86,-57.02 454.08,-64.02"/>
</g>
<!-- Node6 -->
<g id="node6" class="node">
<title>Node6</title>
<g id="a_node6"><a xlink:href="classcxx_1_1H__list.html#abc13d604f76c1da4ea72c30c1302835d" target="_top" xlink:title="Remove the given element from its list.">
<polygon fill="white" stroke="black" points="471,-0.5 471,-19.5 582,-19.5 582,-0.5 471,-0.5"/>
<text text-anchor="middle" x="526.5" y="-7.5" font-family="Helvetica,sans-Serif" font-size="10.00">cxx::H_list::remove</text>
</a>
</g>
</g>
<!-- Node2&#45;&gt;Node6 -->
<g id="edge7" class="edge">
<title>Node2&#45;&gt;Node6</title>
<path fill="none" stroke="midnightblue" d="M258.74,-28.47C275.43,-24.89 295.06,-21.17 313,-19 362.27,-13.04 418.39,-10.86 460.58,-10.13"/>
<polygon fill="midnightblue" stroke="midnightblue" points="460.77,-13.63 470.72,-9.98 460.67,-6.63 460.77,-13.63"/>
</g>
<!-- Node3&#45;&gt;Node4 -->
<g id="edge3" class="edge">
<title>Node3&#45;&gt;Node4</title>
<path fill="none" stroke="midnightblue" d="M428.41,-45.02C436.72,-46.05 445.37,-47.11 453.93,-48.17"/>
<polygon fill="midnightblue" stroke="midnightblue" points="453.56,-51.65 463.91,-49.4 454.42,-44.7 453.56,-51.65"/>
</g>
<!-- Node3&#45;&gt;Node6 -->
<g id="edge5" class="edge">
<title>Node3&#45;&gt;Node6</title>
<path fill="none" stroke="midnightblue" d="M424.07,-28.44C436.58,-26.17 450.05,-23.72 462.97,-21.37"/>
<polygon fill="midnightblue" stroke="midnightblue" points="463.96,-24.75 473.17,-19.51 462.7,-17.86 463.96,-24.75"/>
</g>
<!-- Node5 -->
<g id="node5" class="node">
<title>Node5</title>
<g id="a_node5"><a xlink:href="classcxx_1_1H__list.html#a95a4b614aadeeb364d01693d2f594ace" target="_top" xlink:title="Add element to the front of the list.">
<polygon fill="white" stroke="black" points="625,-47.5 625,-66.5 717,-66.5 717,-47.5 625,-47.5"/>
<text text-anchor="middle" x="671" y="-54.5" font-family="Helvetica,sans-Serif" font-size="10.00">cxx::H_list::add</text>
</a>
</g>
</g>
<!-- Node4&#45;&gt;Node5 -->
<g id="edge4" class="edge">
<title>Node4&#45;&gt;Node5</title>
<path fill="none" stroke="midnightblue" d="M589.17,-57C597.73,-57 606.47,-57 614.9,-57"/>
<polygon fill="midnightblue" stroke="midnightblue" points="614.99,-60.5 624.99,-57 614.99,-53.5 614.99,-60.5"/>
</g>
</g>
</svg>
