<?xml version="1.0" encoding="UTF-8" standalone="no"?>
<!DOCTYPE svg PUBLIC "-//W3C//DTD SVG 1.1//EN"
 "http://www.w3.org/Graphics/SVG/1.1/DTD/svg11.dtd">
<!-- Generated by graphviz version 2.43.0 (0)
 -->
<!-- Title: cxx::H_list&lt; T, POLICY &gt; Pages: 1 -->
<svg width="672pt" height="1198pt"
 viewBox="0.00 0.00 671.50 1198.00" xmlns="http://www.w3.org/2000/svg" xmlns:xlink="http://www.w3.org/1999/xlink">
<g id="graph0" class="graph" transform="scale(1 1) rotate(0) translate(4 1194)">
<title>cxx::H_list&lt; T, POLICY &gt;</title>
<polygon fill="white" stroke="transparent" points="-4,4 -4,-1194 667.5,-1194 667.5,4 -4,4"/>
<!-- Node1 -->
<g id="node1" class="node">
<title>Node1</title>
<g id="a_node1"><a xlink:title="General double&#45;linked list of unspecified cxx::H_list_item elements.">
<polygon fill="#bfbfbf" stroke="black" points="218,-514.5 218,-703.5 355,-703.5 355,-514.5 218,-514.5"/>
<text text-anchor="middle" x="286.5" y="-691.5" font-family="Helvetica,sans-Serif" font-size="10.00">cxx::H_list&lt; T, POLICY &gt;</text>
<polyline fill="none" stroke="black" points="218,-684.5 355,-684.5 "/>
<text text-anchor="middle" x="286.5" y="-672.5" font-family="Helvetica,sans-Serif" font-size="10.00"> </text>
<polyline fill="none" stroke="black" points="218,-665.5 355,-665.5 "/>
<text text-anchor="start" x="226" y="-653.5" font-family="Helvetica,sans-Serif" font-size="10.00">+ H_list()</text>
<text text-anchor="start" x="226" y="-642.5" font-family="Helvetica,sans-Serif" font-size="10.00">+ H_list()</text>
<text text-anchor="start" x="226" y="-631.5" font-family="Helvetica,sans-Serif" font-size="10.00">+ add()</text>
<text text-anchor="start" x="226" y="-620.5" font-family="Helvetica,sans-Serif" font-size="10.00">+ push_front()</text>
<text text-anchor="start" x="226" y="-609.5" font-family="Helvetica,sans-Serif" font-size="10.00">+ pop_front()</text>
<text text-anchor="start" x="226" y="-598.5" font-family="Helvetica,sans-Serif" font-size="10.00">+ insert()</text>
<text text-anchor="start" x="226" y="-587.5" font-family="Helvetica,sans-Serif" font-size="10.00">+ iter()</text>
<text text-anchor="start" x="226" y="-576.5" font-family="Helvetica,sans-Serif" font-size="10.00">+ in_list()</text>
<text text-anchor="start" x="226" y="-565.5" font-family="Helvetica,sans-Serif" font-size="10.00">+ insert_after()</text>
<text text-anchor="start" x="226" y="-554.5" font-family="Helvetica,sans-Serif" font-size="10.00">+ insert_before()</text>
<text text-anchor="start" x="226" y="-543.5" font-family="Helvetica,sans-Serif" font-size="10.00">+ replace()</text>
<text text-anchor="start" x="226" y="-532.5" font-family="Helvetica,sans-Serif" font-size="10.00">+ remove()</text>
<text text-anchor="start" x="226" y="-521.5" font-family="Helvetica,sans-Serif" font-size="10.00">+ erase()</text>
</a>
</g>
</g>
<!-- Node4 -->
<g id="node4" class="node">
<title>Node4</title>
<g id="a_node4"><a xlink:href="structcxx_1_1H__list__t.html" target="_top" xlink:title=" ">
<polygon fill="white" stroke="black" points="0,-0.5 0,-79.5 115,-79.5 115,-0.5 0,-0.5"/>
<text text-anchor="start" x="8" y="-67.5" font-family="Helvetica,sans-Serif" font-size="10.00">cxx::H_list_t&lt; Weak</text>
<text text-anchor="middle" x="57.5" y="-56.5" font-family="Helvetica,sans-Serif" font-size="10.00">_ref_base &gt;</text>
<polyline fill="none" stroke="black" points="0,-49.5 115,-49.5 "/>
<text text-anchor="middle" x="57.5" y="-37.5" font-family="Helvetica,sans-Serif" font-size="10.00"> </text>
<polyline fill="none" stroke="black" points="0,-30.5 115,-30.5 "/>
<text text-anchor="start" x="8" y="-18.5" font-family="Helvetica,sans-Serif" font-size="10.00">+ H_list_t()</text>
<text text-anchor="start" x="8" y="-7.5" font-family="Helvetica,sans-Serif" font-size="10.00">+ H_list_t()</text>
</a>
</g>
</g>
<!-- Node1&#45;&gt;Node4 -->
<g id="edge3" class="edge">
<title>Node1&#45;&gt;Node4</title>
<path fill="none" stroke="midnightblue" d="M208.59,-575.05C156.34,-548.34 91.6,-505.21 60.5,-445 -1.86,-324.25 28.46,-154.87 46.88,-79.63"/>
<polygon fill="none" stroke="midnightblue" points="207.34,-578.34 217.85,-579.68 210.47,-572.08 207.34,-578.34"/>
</g>
<!-- Node5 -->
<g id="node5" class="node">
<title>Node5</title>
<g id="a_node5"><a xlink:href="classcxx_1_1H__list.html" target="_top" xlink:title=" ">
<polygon fill="white" stroke="black" points="70,-244.5 70,-433.5 201,-433.5 201,-244.5 70,-244.5"/>
<text text-anchor="middle" x="135.5" y="-421.5" font-family="Helvetica,sans-Serif" font-size="10.00">cxx::H_list&lt; Timeout &gt;</text>
<polyline fill="none" stroke="black" points="70,-414.5 201,-414.5 "/>
<text text-anchor="middle" x="135.5" y="-402.5" font-family="Helvetica,sans-Serif" font-size="10.00"> </text>
<polyline fill="none" stroke="black" points="70,-395.5 201,-395.5 "/>
<text text-anchor="start" x="78" y="-383.5" font-family="Helvetica,sans-Serif" font-size="10.00">+ H_list()</text>
<text text-anchor="start" x="78" y="-372.5" font-family="Helvetica,sans-Serif" font-size="10.00">+ H_list()</text>
<text text-anchor="start" x="78" y="-361.5" font-family="Helvetica,sans-Serif" font-size="10.00">+ add()</text>
<text text-anchor="start" x="78" y="-350.5" font-family="Helvetica,sans-Serif" font-size="10.00">+ push_front()</text>
<text text-anchor="start" x="78" y="-339.5" font-family="Helvetica,sans-Serif" font-size="10.00">+ pop_front()</text>
<text text-anchor="start" x="78" y="-328.5" font-family="Helvetica,sans-Serif" font-size="10.00">+ insert()</text>
<text text-anchor="start" x="78" y="-317.5" font-family="Helvetica,sans-Serif" font-size="10.00">+ iter()</text>
<text text-anchor="start" x="78" y="-306.5" font-family="Helvetica,sans-Serif" font-size="10.00">+ in_list()</text>
<text text-anchor="start" x="78" y="-295.5" font-family="Helvetica,sans-Serif" font-size="10.00">+ insert_after()</text>
<text text-anchor="start" x="78" y="-284.5" font-family="Helvetica,sans-Serif" font-size="10.00">+ insert_before()</text>
<text text-anchor="start" x="78" y="-273.5" font-family="Helvetica,sans-Serif" font-size="10.00">+ replace()</text>
<text text-anchor="start" x="78" y="-262.5" font-family="Helvetica,sans-Serif" font-size="10.00">+ remove()</text>
<text text-anchor="start" x="78" y="-251.5" font-family="Helvetica,sans-Serif" font-size="10.00">+ erase()</text>
</a>
</g>
</g>
<!-- Node1&#45;&gt;Node5 -->
<g id="edge4" class="edge">
<title>Node1&#45;&gt;Node5</title>
<path fill="none" stroke="orange" d="M221.1,-505.65C219.19,-502.41 217.32,-499.19 215.5,-496 204.09,-476.05 192.46,-454.3 181.72,-433.55"/>
<polygon fill="orange" stroke="orange" points="218.1,-507.46 226.21,-514.27 224.12,-503.89 218.1,-507.46"/>
<text text-anchor="middle" x="249" y="-477" font-family="Helvetica,sans-Serif" font-size="10.00"> &lt; Timeout &gt;</text>
</g>
<!-- Node6 -->
<g id="node6" class="node">
<title>Node6</title>
<g id="a_node6"><a xlink:href="classcxx_1_1H__list.html" target="_top" xlink:title=" ">
<polygon fill="white" stroke="black" points="219.5,-244.5 219.5,-433.5 353.5,-433.5 353.5,-244.5 219.5,-244.5"/>
<text text-anchor="middle" x="286.5" y="-421.5" font-family="Helvetica,sans-Serif" font-size="10.00">cxx::H_list&lt; Observer &gt;</text>
<polyline fill="none" stroke="black" points="219.5,-414.5 353.5,-414.5 "/>
<text text-anchor="middle" x="286.5" y="-402.5" font-family="Helvetica,sans-Serif" font-size="10.00"> </text>
<polyline fill="none" stroke="black" points="219.5,-395.5 353.5,-395.5 "/>
<text text-anchor="start" x="227.5" y="-383.5" font-family="Helvetica,sans-Serif" font-size="10.00">+ H_list()</text>
<text text-anchor="start" x="227.5" y="-372.5" font-family="Helvetica,sans-Serif" font-size="10.00">+ H_list()</text>
<text text-anchor="start" x="227.5" y="-361.5" font-family="Helvetica,sans-Serif" font-size="10.00">+ add()</text>
<text text-anchor="start" x="227.5" y="-350.5" font-family="Helvetica,sans-Serif" font-size="10.00">+ push_front()</text>
<text text-anchor="start" x="227.5" y="-339.5" font-family="Helvetica,sans-Serif" font-size="10.00">+ pop_front()</text>
<text text-anchor="start" x="227.5" y="-328.5" font-family="Helvetica,sans-Serif" font-size="10.00">+ insert()</text>
<text text-anchor="start" x="227.5" y="-317.5" font-family="Helvetica,sans-Serif" font-size="10.00">+ iter()</text>
<text text-anchor="start" x="227.5" y="-306.5" font-family="Helvetica,sans-Serif" font-size="10.00">+ in_list()</text>
<text text-anchor="start" x="227.5" y="-295.5" font-family="Helvetica,sans-Serif" font-size="10.00">+ insert_after()</text>
<text text-anchor="start" x="227.5" y="-284.5" font-family="Helvetica,sans-Serif" font-size="10.00">+ insert_before()</text>
<text text-anchor="start" x="227.5" y="-273.5" font-family="Helvetica,sans-Serif" font-size="10.00">+ replace()</text>
<text text-anchor="start" x="227.5" y="-262.5" font-family="Helvetica,sans-Serif" font-size="10.00">+ remove()</text>
<text text-anchor="start" x="227.5" y="-251.5" font-family="Helvetica,sans-Serif" font-size="10.00">+ erase()</text>
</a>
</g>
</g>
<!-- Node1&#45;&gt;Node6 -->
<g id="edge5" class="edge">
<title>Node1&#45;&gt;Node6</title>
<path fill="none" stroke="orange" d="M286.5,-504.07C286.5,-480.88 286.5,-456.42 286.5,-433.68"/>
<polygon fill="orange" stroke="orange" points="283,-504.27 286.5,-514.27 290,-504.27 283,-504.27"/>
<text text-anchor="middle" x="321.5" y="-477" font-family="Helvetica,sans-Serif" font-size="10.00"> &lt; Observer &gt;</text>
</g>
<!-- Node7 -->
<g id="node7" class="node">
<title>Node7</title>
<g id="a_node7"><a xlink:href="classcxx_1_1H__list.html" target="_top" xlink:title=" ">
<polygon fill="white" stroke="black" points="372,-233.5 372,-444.5 519,-444.5 519,-233.5 372,-233.5"/>
<text text-anchor="start" x="380" y="-432.5" font-family="Helvetica,sans-Serif" font-size="10.00">cxx::H_list&lt; T, Bits</text>
<text text-anchor="start" x="380" y="-421.5" font-family="Helvetica,sans-Serif" font-size="10.00">::Basic_list_policy&lt;</text>
<text text-anchor="middle" x="445.5" y="-410.5" font-family="Helvetica,sans-Serif" font-size="10.00"> T, H_list_item_t&lt; T &gt; &gt; &gt;</text>
<polyline fill="none" stroke="black" points="372,-403.5 519,-403.5 "/>
<text text-anchor="middle" x="445.5" y="-391.5" font-family="Helvetica,sans-Serif" font-size="10.00"> </text>
<polyline fill="none" stroke="black" points="372,-384.5 519,-384.5 "/>
<text text-anchor="start" x="380" y="-372.5" font-family="Helvetica,sans-Serif" font-size="10.00">+ H_list()</text>
<text text-anchor="start" x="380" y="-361.5" font-family="Helvetica,sans-Serif" font-size="10.00">+ H_list()</text>
<text text-anchor="start" x="380" y="-350.5" font-family="Helvetica,sans-Serif" font-size="10.00">+ add()</text>
<text text-anchor="start" x="380" y="-339.5" font-family="Helvetica,sans-Serif" font-size="10.00">+ push_front()</text>
<text text-anchor="start" x="380" y="-328.5" font-family="Helvetica,sans-Serif" font-size="10.00">+ pop_front()</text>
<text text-anchor="start" x="380" y="-317.5" font-family="Helvetica,sans-Serif" font-size="10.00">+ insert()</text>
<text text-anchor="start" x="380" y="-306.5" font-family="Helvetica,sans-Serif" font-size="10.00">+ iter()</text>
<text text-anchor="start" x="380" y="-295.5" font-family="Helvetica,sans-Serif" font-size="10.00">+ in_list()</text>
<text text-anchor="start" x="380" y="-284.5" font-family="Helvetica,sans-Serif" font-size="10.00">+ insert_after()</text>
<text text-anchor="start" x="380" y="-273.5" font-family="Helvetica,sans-Serif" font-size="10.00">+ insert_before()</text>
<text text-anchor="start" x="380" y="-262.5" font-family="Helvetica,sans-Serif" font-size="10.00">+ replace()</text>
<text text-anchor="start" x="380" y="-251.5" font-family="Helvetica,sans-Serif" font-size="10.00">+ remove()</text>
<text text-anchor="start" x="380" y="-240.5" font-family="Helvetica,sans-Serif" font-size="10.00">+ erase()</text>
</a>
</g>
</g>
<!-- Node1&#45;&gt;Node7 -->
<g id="edge6" class="edge">
<title>Node1&#45;&gt;Node7</title>
<path fill="none" stroke="orange" d="M354.63,-505.65C356.62,-502.4 358.59,-499.18 360.5,-496 370.35,-479.61 380.42,-462.01 390.02,-444.75"/>
<polygon fill="orange" stroke="orange" points="351.58,-503.92 349.27,-514.26 357.52,-507.62 351.58,-503.92"/>
<text text-anchor="start" x="378.5" y="-488" font-family="Helvetica,sans-Serif" font-size="10.00"> &lt; T, Bits::Basic_list</text>
<text text-anchor="start" x="378.5" y="-477" font-family="Helvetica,sans-Serif" font-size="10.00">_policy&lt; T, H_list_item</text>
<text text-anchor="middle" x="435.5" y="-466" font-family="Helvetica,sans-Serif" font-size="10.00">_t&lt; T &gt; &gt; &gt;</text>
</g>
<!-- Node9 -->
<g id="node9" class="node">
<title>Node9</title>
<g id="a_node9"><a xlink:href="classcxx_1_1H__list.html" target="_top" xlink:title=" ">
<polygon fill="white" stroke="black" points="537.5,-239 537.5,-439 663.5,-439 663.5,-239 537.5,-239"/>
<text text-anchor="start" x="545.5" y="-427" font-family="Helvetica,sans-Serif" font-size="10.00">cxx::H_list&lt; cxx::Base</text>
<text text-anchor="middle" x="600.5" y="-416" font-family="Helvetica,sans-Serif" font-size="10.00">_slab::Slab_i &gt;</text>
<polyline fill="none" stroke="black" points="537.5,-409 663.5,-409 "/>
<text text-anchor="middle" x="600.5" y="-397" font-family="Helvetica,sans-Serif" font-size="10.00"> </text>
<polyline fill="none" stroke="black" points="537.5,-390 663.5,-390 "/>
<text text-anchor="start" x="545.5" y="-378" font-family="Helvetica,sans-Serif" font-size="10.00">+ H_list()</text>
<text text-anchor="start" x="545.5" y="-367" font-family="Helvetica,sans-Serif" font-size="10.00">+ H_list()</text>
<text text-anchor="start" x="545.5" y="-356" font-family="Helvetica,sans-Serif" font-size="10.00">+ add()</text>
<text text-anchor="start" x="545.5" y="-345" font-family="Helvetica,sans-Serif" font-size="10.00">+ push_front()</text>
<text text-anchor="start" x="545.5" y="-334" font-family="Helvetica,sans-Serif" font-size="10.00">+ pop_front()</text>
<text text-anchor="start" x="545.5" y="-323" font-family="Helvetica,sans-Serif" font-size="10.00">+ insert()</text>
<text text-anchor="start" x="545.5" y="-312" font-family="Helvetica,sans-Serif" font-size="10.00">+ iter()</text>
<text text-anchor="start" x="545.5" y="-301" font-family="Helvetica,sans-Serif" font-size="10.00">+ in_list()</text>
<text text-anchor="start" x="545.5" y="-290" font-family="Helvetica,sans-Serif" font-size="10.00">+ insert_after()</text>
<text text-anchor="start" x="545.5" y="-279" font-family="Helvetica,sans-Serif" font-size="10.00">+ insert_before()</text>
<text text-anchor="start" x="545.5" y="-268" font-family="Helvetica,sans-Serif" font-size="10.00">+ replace()</text>
<text text-anchor="start" x="545.5" y="-257" font-family="Helvetica,sans-Serif" font-size="10.00">+ remove()</text>
<text text-anchor="start" x="545.5" y="-246" font-family="Helvetica,sans-Serif" font-size="10.00">+ erase()</text>
</a>
</g>
</g>
<!-- Node1&#45;&gt;Node9 -->
<g id="edge9" class="edge">
<title>Node1&#45;&gt;Node9</title>
<path fill="none" stroke="orange" d="M364.35,-577.63C406.64,-558.54 458,-530.9 496.5,-496 514.59,-479.6 531,-459.43 545.17,-439.09"/>
<polygon fill="orange" stroke="orange" points="362.92,-574.44 355.2,-581.7 365.76,-580.84 362.92,-574.44"/>
<text text-anchor="middle" x="592.5" y="-477" font-family="Helvetica,sans-Serif" font-size="10.00"> &lt; cxx::Base_slab::Slab_i &gt;</text>
</g>
<!-- Node2 -->
<g id="node2" class="node">
<title>Node2</title>
<g id="a_node2"><a xlink:href="classcxx_1_1Bits_1_1Basic__list.html" target="_top" xlink:title=" ">
<polygon fill="white" stroke="black" points="219.5,-741.5 219.5,-941.5 353.5,-941.5 353.5,-741.5 219.5,-741.5"/>
<text text-anchor="start" x="227.5" y="-929.5" font-family="Helvetica,sans-Serif" font-size="10.00">cxx::Bits::Basic_list</text>
<text text-anchor="start" x="227.5" y="-918.5" font-family="Helvetica,sans-Serif" font-size="10.00">&lt; Bits::Basic_list_policy</text>
<text text-anchor="middle" x="286.5" y="-907.5" font-family="Helvetica,sans-Serif" font-size="10.00">&lt; T, H_list_item &gt; &gt;</text>
<polyline fill="none" stroke="black" points="219.5,-900.5 353.5,-900.5 "/>
<text text-anchor="start" x="227.5" y="-888.5" font-family="Helvetica,sans-Serif" font-size="10.00"># _f</text>
<polyline fill="none" stroke="black" points="219.5,-881.5 353.5,-881.5 "/>
<text text-anchor="start" x="227.5" y="-869.5" font-family="Helvetica,sans-Serif" font-size="10.00">+ Basic_list()</text>
<text text-anchor="start" x="227.5" y="-858.5" font-family="Helvetica,sans-Serif" font-size="10.00">+ Basic_list()</text>
<text text-anchor="start" x="227.5" y="-847.5" font-family="Helvetica,sans-Serif" font-size="10.00">+ empty()</text>
<text text-anchor="start" x="227.5" y="-836.5" font-family="Helvetica,sans-Serif" font-size="10.00">+ front()</text>
<text text-anchor="start" x="227.5" y="-825.5" font-family="Helvetica,sans-Serif" font-size="10.00">+ clear()</text>
<text text-anchor="start" x="227.5" y="-814.5" font-family="Helvetica,sans-Serif" font-size="10.00">+ begin()</text>
<text text-anchor="start" x="227.5" y="-803.5" font-family="Helvetica,sans-Serif" font-size="10.00">+ begin()</text>
<text text-anchor="start" x="227.5" y="-792.5" font-family="Helvetica,sans-Serif" font-size="10.00">+ end()</text>
<text text-anchor="start" x="227.5" y="-781.5" font-family="Helvetica,sans-Serif" font-size="10.00">+ end()</text>
<text text-anchor="start" x="227.5" y="-770.5" font-family="Helvetica,sans-Serif" font-size="10.00">+ iter()</text>
<text text-anchor="start" x="227.5" y="-759.5" font-family="Helvetica,sans-Serif" font-size="10.00"># __get_internal()</text>
<text text-anchor="start" x="227.5" y="-748.5" font-family="Helvetica,sans-Serif" font-size="10.00"># __iter()</text>
</a>
</g>
</g>
<!-- Node2&#45;&gt;Node1 -->
<g id="edge1" class="edge">
<title>Node2&#45;&gt;Node1</title>
<path fill="none" stroke="midnightblue" d="M286.5,-731.35C286.5,-722.05 286.5,-712.7 286.5,-703.54"/>
<polygon fill="none" stroke="midnightblue" points="283,-731.41 286.5,-741.41 290,-731.41 283,-731.41"/>
</g>
<!-- Node3 -->
<g id="node3" class="node">
<title>Node3</title>
<g id="a_node3"><a xlink:href="classcxx_1_1Bits_1_1Basic__list.html" target="_top" xlink:title="Internal: Common functions for all head&#45;based list implementations.">
<polygon fill="white" stroke="black" points="231,-1000.5 231,-1189.5 342,-1189.5 342,-1000.5 231,-1000.5"/>
<text text-anchor="start" x="239" y="-1177.5" font-family="Helvetica,sans-Serif" font-size="10.00">cxx::Bits::Basic_list</text>
<text text-anchor="middle" x="286.5" y="-1166.5" font-family="Helvetica,sans-Serif" font-size="10.00">&lt; POLICY &gt;</text>
<polyline fill="none" stroke="black" points="231,-1159.5 342,-1159.5 "/>
<text text-anchor="start" x="239" y="-1147.5" font-family="Helvetica,sans-Serif" font-size="10.00"># _f</text>
<polyline fill="none" stroke="black" points="231,-1140.5 342,-1140.5 "/>
<text text-anchor="start" x="239" y="-1128.5" font-family="Helvetica,sans-Serif" font-size="10.00">+ Basic_list()</text>
<text text-anchor="start" x="239" y="-1117.5" font-family="Helvetica,sans-Serif" font-size="10.00">+ Basic_list()</text>
<text text-anchor="start" x="239" y="-1106.5" font-family="Helvetica,sans-Serif" font-size="10.00">+ empty()</text>
<text text-anchor="start" x="239" y="-1095.5" font-family="Helvetica,sans-Serif" font-size="10.00">+ front()</text>
<text text-anchor="start" x="239" y="-1084.5" font-family="Helvetica,sans-Serif" font-size="10.00">+ clear()</text>
<text text-anchor="start" x="239" y="-1073.5" font-family="Helvetica,sans-Serif" font-size="10.00">+ begin()</text>
<text text-anchor="start" x="239" y="-1062.5" font-family="Helvetica,sans-Serif" font-size="10.00">+ begin()</text>
<text text-anchor="start" x="239" y="-1051.5" font-family="Helvetica,sans-Serif" font-size="10.00">+ end()</text>
<text text-anchor="start" x="239" y="-1040.5" font-family="Helvetica,sans-Serif" font-size="10.00">+ end()</text>
<text text-anchor="start" x="239" y="-1029.5" font-family="Helvetica,sans-Serif" font-size="10.00">+ iter()</text>
<text text-anchor="start" x="239" y="-1018.5" font-family="Helvetica,sans-Serif" font-size="10.00"># __get_internal()</text>
<text text-anchor="start" x="239" y="-1007.5" font-family="Helvetica,sans-Serif" font-size="10.00"># __iter()</text>
</a>
</g>
</g>
<!-- Node3&#45;&gt;Node2 -->
<g id="edge2" class="edge">
<title>Node3&#45;&gt;Node2</title>
<path fill="none" stroke="orange" d="M286.5,-989.95C286.5,-973.99 286.5,-957.55 286.5,-941.7"/>
<polygon fill="orange" stroke="orange" points="283,-990.35 286.5,-1000.35 290,-990.35 283,-990.35"/>
<text text-anchor="start" x="286.5" y="-974" font-family="Helvetica,sans-Serif" font-size="10.00"> &lt; Bits::Basic_list</text>
<text text-anchor="middle" x="354.5" y="-963" font-family="Helvetica,sans-Serif" font-size="10.00">_policy&lt; T, H_list_item &gt; &gt;</text>
</g>
<!-- Node8 -->
<g id="node8" class="node">
<title>Node8</title>
<g id="a_node8"><a xlink:href="structcxx_1_1H__list__t.html" target="_top" xlink:title="Double&#45;linked list of typed H_list_item_t elements.">
<polygon fill="white" stroke="black" points="231,-127.5 231,-195.5 336,-195.5 336,-127.5 231,-127.5"/>
<text text-anchor="middle" x="283.5" y="-183.5" font-family="Helvetica,sans-Serif" font-size="10.00">cxx::H_list_t&lt; T &gt;</text>
<polyline fill="none" stroke="black" points="231,-176.5 336,-176.5 "/>
<text text-anchor="middle" x="283.5" y="-164.5" font-family="Helvetica,sans-Serif" font-size="10.00"> </text>
<polyline fill="none" stroke="black" points="231,-157.5 336,-157.5 "/>
<text text-anchor="start" x="239" y="-145.5" font-family="Helvetica,sans-Serif" font-size="10.00">+ H_list_t()</text>
<text text-anchor="start" x="239" y="-134.5" font-family="Helvetica,sans-Serif" font-size="10.00">+ H_list_t()</text>
</a>
</g>
</g>
<!-- Node7&#45;&gt;Node8 -->
<g id="edge7" class="edge">
<title>Node7&#45;&gt;Node8</title>
<path fill="none" stroke="midnightblue" d="M364.83,-235.49C364.05,-234.66 363.28,-233.82 362.5,-233 350.4,-220.15 336.27,-207.03 323.32,-195.64"/>
<polygon fill="none" stroke="midnightblue" points="362.51,-238.14 371.83,-243.18 367.68,-233.43 362.51,-238.14"/>
</g>
<!-- Node8&#45;&gt;Node4 -->
<g id="edge8" class="edge">
<title>Node8&#45;&gt;Node4</title>
<path fill="none" stroke="orange" d="M221.63,-127.78C188.37,-110.2 147.62,-88.65 115.05,-71.43"/>
<polygon fill="orange" stroke="orange" points="220.32,-131.05 230.8,-132.63 223.59,-124.86 220.32,-131.05"/>
<text text-anchor="middle" x="234.5" y="-101" font-family="Helvetica,sans-Serif" font-size="10.00"> &lt; Weak_ref_base &gt;</text>
</g>
</g>
</svg>
