<?xml version="1.0" encoding="UTF-8" standalone="no"?>
<!DOCTYPE svg PUBLIC "-//W3C//DTD SVG 1.1//EN"
 "http://www.w3.org/Graphics/SVG/1.1/DTD/svg11.dtd">
<!-- Generated by graphviz version 2.43.0 (0)
 -->
<!-- Title: cxx::H_list_item_t&lt; ELEM_TYPE &gt; Pages: 1 -->
<svg width="255pt" height="537pt"
 viewBox="0.00 0.00 254.50 537.00" xmlns="http://www.w3.org/2000/svg" xmlns:xlink="http://www.w3.org/1999/xlink">
<g id="graph0" class="graph" transform="scale(1 1) rotate(0) translate(4 533)">
<title>cxx::H_list_item_t&lt; ELEM_TYPE &gt;</title>
<polygon fill="white" stroke="transparent" points="-4,4 -4,-533 250.5,-533 250.5,4 -4,4"/>
<!-- Node1 -->
<g id="node1" class="node">
<title>Node1</title>
<g id="a_node1"><a xlink:title="Basic element type for a double&#45;linked H_list.">
<polygon fill="#bfbfbf" stroke="black" points="44.5,-449.5 44.5,-528.5 152.5,-528.5 152.5,-449.5 44.5,-449.5"/>
<text text-anchor="start" x="52.5" y="-516.5" font-family="Helvetica,sans-Serif" font-size="10.00">cxx::H_list_item_t</text>
<text text-anchor="middle" x="98.5" y="-505.5" font-family="Helvetica,sans-Serif" font-size="10.00">&lt; ELEM_TYPE &gt;</text>
<polyline fill="none" stroke="black" points="44.5,-498.5 152.5,-498.5 "/>
<text text-anchor="middle" x="98.5" y="-486.5" font-family="Helvetica,sans-Serif" font-size="10.00"> </text>
<polyline fill="none" stroke="black" points="44.5,-479.5 152.5,-479.5 "/>
<text text-anchor="start" x="52.5" y="-467.5" font-family="Helvetica,sans-Serif" font-size="10.00">+ H_list_item_t()</text>
<text text-anchor="start" x="52.5" y="-456.5" font-family="Helvetica,sans-Serif" font-size="10.00">+ ~H_list_item_t()</text>
</a>
</g>
</g>
<!-- Node2 -->
<g id="node2" class="node">
<title>Node2</title>
<g id="a_node2"><a xlink:href="classL4_1_1Ipc__svr_1_1Timeout.html" target="_top" xlink:title="Callback interface for Timeout_queue.">
<polygon fill="white" stroke="black" points="0,-300.5 0,-401.5 115,-401.5 115,-300.5 0,-300.5"/>
<text text-anchor="start" x="8" y="-389.5" font-family="Helvetica,sans-Serif" font-size="10.00">L4::Ipc_svr::Timeout</text>
<text text-anchor="middle" x="57.5" y="-378.5" font-family="Helvetica,sans-Serif" font-size="10.00">&lt; void &gt;</text>
<polyline fill="none" stroke="black" points="0,-371.5 115,-371.5 "/>
<text text-anchor="middle" x="57.5" y="-359.5" font-family="Helvetica,sans-Serif" font-size="10.00"> </text>
<polyline fill="none" stroke="black" points="0,-352.5 115,-352.5 "/>
<text text-anchor="start" x="8" y="-340.5" font-family="Helvetica,sans-Serif" font-size="10.00">+ Timeout()</text>
<text text-anchor="start" x="8" y="-329.5" font-family="Helvetica,sans-Serif" font-size="10.00">+ ~Timeout()</text>
<text text-anchor="start" x="8" y="-318.5" font-family="Helvetica,sans-Serif" font-size="10.00">+ expired()</text>
<text text-anchor="start" x="8" y="-307.5" font-family="Helvetica,sans-Serif" font-size="10.00">+ timeout()</text>
</a>
</g>
</g>
<!-- Node1&#45;&gt;Node2 -->
<g id="edge1" class="edge">
<title>Node1&#45;&gt;Node2</title>
<path fill="none" stroke="midnightblue" d="M83.96,-439.78C80.26,-427.5 76.27,-414.27 72.54,-401.91"/>
<polygon fill="none" stroke="midnightblue" points="80.62,-440.83 86.86,-449.39 87.33,-438.81 80.62,-440.83"/>
</g>
<!-- Node3 -->
<g id="node3" class="node">
<title>Node3</title>
<g id="a_node3"><a xlink:href="classcxx_1_1H__list__item__t.html" target="_top" xlink:title=" ">
<polygon fill="white" stroke="black" points="133,-311.5 133,-390.5 246,-390.5 246,-311.5 133,-311.5"/>
<text text-anchor="start" x="141" y="-378.5" font-family="Helvetica,sans-Serif" font-size="10.00">cxx::H_list_item_t</text>
<text text-anchor="middle" x="189.5" y="-367.5" font-family="Helvetica,sans-Serif" font-size="10.00">&lt; Weak_ref_base &gt;</text>
<polyline fill="none" stroke="black" points="133,-360.5 246,-360.5 "/>
<text text-anchor="middle" x="189.5" y="-348.5" font-family="Helvetica,sans-Serif" font-size="10.00"> </text>
<polyline fill="none" stroke="black" points="133,-341.5 246,-341.5 "/>
<text text-anchor="start" x="141" y="-329.5" font-family="Helvetica,sans-Serif" font-size="10.00">+ H_list_item_t()</text>
<text text-anchor="start" x="141" y="-318.5" font-family="Helvetica,sans-Serif" font-size="10.00">+ ~H_list_item_t()</text>
</a>
</g>
</g>
<!-- Node1&#45;&gt;Node3 -->
<g id="edge2" class="edge">
<title>Node1&#45;&gt;Node3</title>
<path fill="none" stroke="orange" d="M129.95,-441C140.93,-424.59 153.12,-406.36 163.6,-390.7"/>
<polygon fill="orange" stroke="orange" points="126.99,-439.13 124.33,-449.39 132.8,-443.03 126.99,-439.13"/>
<text text-anchor="middle" x="193.5" y="-423" font-family="Helvetica,sans-Serif" font-size="10.00"> &lt; Weak_ref_base &gt;</text>
</g>
<!-- Node4 -->
<g id="node4" class="node">
<title>Node4</title>
<g id="a_node4"><a xlink:href="classcxx_1_1Weak__ref__base.html" target="_top" xlink:title="Generic (base) weak reference to some object.">
<polygon fill="white" stroke="black" points="132.5,-183.5 132.5,-262.5 246.5,-262.5 246.5,-183.5 132.5,-183.5"/>
<text text-anchor="middle" x="189.5" y="-250.5" font-family="Helvetica,sans-Serif" font-size="10.00">cxx::Weak_ref_base</text>
<polyline fill="none" stroke="black" points="132.5,-243.5 246.5,-243.5 "/>
<text text-anchor="start" x="140.5" y="-231.5" font-family="Helvetica,sans-Serif" font-size="10.00"># _obj</text>
<polyline fill="none" stroke="black" points="132.5,-224.5 246.5,-224.5 "/>
<text text-anchor="start" x="140.5" y="-212.5" font-family="Helvetica,sans-Serif" font-size="10.00">+ operator bool()</text>
<text text-anchor="start" x="140.5" y="-201.5" font-family="Helvetica,sans-Serif" font-size="10.00"># Weak_ref_base()</text>
<text text-anchor="start" x="140.5" y="-190.5" font-family="Helvetica,sans-Serif" font-size="10.00"># reset_hard()</text>
</a>
</g>
</g>
<!-- Node3&#45;&gt;Node4 -->
<g id="edge3" class="edge">
<title>Node3&#45;&gt;Node4</title>
<path fill="none" stroke="midnightblue" d="M189.5,-300.83C189.5,-288.25 189.5,-274.9 189.5,-262.92"/>
<polygon fill="none" stroke="midnightblue" points="186,-301.17 189.5,-311.17 193,-301.17 186,-301.17"/>
</g>
<!-- Node5 -->
<g id="node5" class="node">
<title>Node5</title>
<g id="a_node5"><a xlink:href="classcxx_1_1Weak__ref.html" target="_top" xlink:title="Typed weak reference to an object of type T.">
<polygon fill="white" stroke="black" points="132.5,-0.5 132.5,-145.5 246.5,-145.5 246.5,-0.5 132.5,-0.5"/>
<text text-anchor="middle" x="189.5" y="-133.5" font-family="Helvetica,sans-Serif" font-size="10.00">cxx::Weak_ref&lt; T &gt;</text>
<polyline fill="none" stroke="black" points="132.5,-126.5 246.5,-126.5 "/>
<text text-anchor="middle" x="189.5" y="-114.5" font-family="Helvetica,sans-Serif" font-size="10.00"> </text>
<polyline fill="none" stroke="black" points="132.5,-107.5 246.5,-107.5 "/>
<text text-anchor="start" x="140.5" y="-95.5" font-family="Helvetica,sans-Serif" font-size="10.00">+ get()</text>
<text text-anchor="start" x="140.5" y="-84.5" font-family="Helvetica,sans-Serif" font-size="10.00">+ reset()</text>
<text text-anchor="start" x="140.5" y="-73.5" font-family="Helvetica,sans-Serif" font-size="10.00">+ Weak_ref()</text>
<text text-anchor="start" x="140.5" y="-62.5" font-family="Helvetica,sans-Serif" font-size="10.00">+ ~Weak_ref()</text>
<text text-anchor="start" x="140.5" y="-51.5" font-family="Helvetica,sans-Serif" font-size="10.00">+ operator=()</text>
<text text-anchor="start" x="140.5" y="-40.5" font-family="Helvetica,sans-Serif" font-size="10.00">+ Weak_ref()</text>
<text text-anchor="start" x="140.5" y="-29.5" font-family="Helvetica,sans-Serif" font-size="10.00">+ operator=()</text>
<text text-anchor="start" x="140.5" y="-18.5" font-family="Helvetica,sans-Serif" font-size="10.00">+ operator*()</text>
<text text-anchor="start" x="140.5" y="-7.5" font-family="Helvetica,sans-Serif" font-size="10.00">+ operator&#45;&gt;()</text>
</a>
</g>
</g>
<!-- Node4&#45;&gt;Node5 -->
<g id="edge4" class="edge">
<title>Node4&#45;&gt;Node5</title>
<path fill="none" stroke="midnightblue" d="M189.5,-173.04C189.5,-164.22 189.5,-154.86 189.5,-145.55"/>
<polygon fill="none" stroke="midnightblue" points="186,-173.11 189.5,-183.11 193,-173.11 186,-173.11"/>
</g>
</g>
</svg>
