<?xml version="1.0" encoding="UTF-8" standalone="no"?>
<!DOCTYPE svg PUBLIC "-//W3C//DTD SVG 1.1//EN"
 "http://www.w3.org/Graphics/SVG/1.1/DTD/svg11.dtd">
<!-- Generated by graphviz version 2.43.0 (0)
 -->
<!-- Title: L4::Ipc::Iostream::reset Pages: 1 -->
<svg width="275pt" height="66pt"
 viewBox="0.00 0.00 275.00 66.00" xmlns="http://www.w3.org/2000/svg" xmlns:xlink="http://www.w3.org/1999/xlink">
<g id="graph0" class="graph" transform="scale(1 1) rotate(0) translate(4 62)">
<title>L4::Ipc::Iostream::reset</title>
<polygon fill="white" stroke="transparent" points="-4,4 -4,-62 271,-62 271,4 -4,4"/>
<!-- Node1 -->
<g id="node1" class="node">
<title>Node1</title>
<g id="a_node1"><a xlink:title="Reset the stream to its initial state.">
<polygon fill="#bfbfbf" stroke="black" points="0,-14 0,-44 104,-44 104,-14 0,-14"/>
<text text-anchor="start" x="8" y="-32" font-family="Helvetica,sans-Serif" font-size="10.00">L4::Ipc::Iostream::</text>
<text text-anchor="middle" x="52" y="-21" font-family="Helvetica,sans-Serif" font-size="10.00">reset</text>
</a>
</g>
</g>
<!-- Node2 -->
<g id="node2" class="node">
<title>Node2</title>
<g id="a_node2"><a xlink:href="classL4_1_1Ipc_1_1Istream.html#a5f859ec603799261a88885307ae062ed" target="_top" xlink:title="Reset the stream to empty, and ready for receive()/wait().">
<polygon fill="white" stroke="black" points="142.5,-38.5 142.5,-57.5 264.5,-57.5 264.5,-38.5 142.5,-38.5"/>
<text text-anchor="middle" x="203.5" y="-45.5" font-family="Helvetica,sans-Serif" font-size="10.00">L4::Ipc::Istream::reset</text>
</a>
</g>
</g>
<!-- Node1&#45;&gt;Node2 -->
<g id="edge1" class="edge">
<title>Node1&#45;&gt;Node2</title>
<path fill="none" stroke="midnightblue" d="M104.03,-35.49C113.2,-36.65 122.89,-37.88 132.49,-39.1"/>
<polygon fill="midnightblue" stroke="midnightblue" points="132.06,-42.58 142.42,-40.36 132.94,-35.63 132.06,-42.58"/>
</g>
<!-- Node3 -->
<g id="node3" class="node">
<title>Node3</title>
<g id="a_node3"><a xlink:href="classL4_1_1Ipc_1_1Ostream.html#afaf2794226d026e500ead0757069ea7c" target="_top" xlink:title="Reset the stream to empty, same state as a newly created stream.">
<polygon fill="white" stroke="black" points="140,-0.5 140,-19.5 267,-19.5 267,-0.5 140,-0.5"/>
<text text-anchor="middle" x="203.5" y="-7.5" font-family="Helvetica,sans-Serif" font-size="10.00">L4::Ipc::Ostream::reset</text>
</a>
</g>
</g>
<!-- Node1&#45;&gt;Node3 -->
<g id="edge2" class="edge">
<title>Node1&#45;&gt;Node3</title>
<path fill="none" stroke="midnightblue" d="M104.03,-22.51C112.3,-21.46 121,-20.36 129.67,-19.26"/>
<polygon fill="midnightblue" stroke="midnightblue" points="130.32,-22.7 139.8,-17.97 129.43,-15.76 130.32,-22.7"/>
</g>
</g>
</svg>
