<?xml version="1.0" encoding="UTF-8" standalone="no"?>
<!DOCTYPE svg PUBLIC "-//W3C//DTD SVG 1.1//EN"
 "http://www.w3.org/Graphics/SVG/1.1/DTD/svg11.dtd">
<!-- Generated by graphviz version 2.43.0 (0)
 -->
<!-- Title: L4::Kobject::cap Pages: 1 -->
<svg width="625pt" height="977pt"
 viewBox="0.00 0.00 625.00 976.50" xmlns="http://www.w3.org/2000/svg" xmlns:xlink="http://www.w3.org/1999/xlink">
<g id="graph0" class="graph" transform="scale(1 1) rotate(0) translate(4 972.5)">
<title>L4::Kobject::cap</title>
<polygon fill="white" stroke="transparent" points="-4,4 -4,-972.5 621,-972.5 621,4 -4,4"/>
<!-- Node1 -->
<g id="node1" class="node">
<title>Node1</title>
<g id="a_node1"><a xlink:title="Return capability selector.">
<polygon fill="#bfbfbf" stroke="black" points="524,-449.5 524,-468.5 617,-468.5 617,-449.5 524,-449.5"/>
<text text-anchor="middle" x="570.5" y="-456.5" font-family="Helvetica,sans-Serif" font-size="10.00">L4::Kobject::cap</text>
</a>
</g>
</g>
<!-- Node2 -->
<g id="node2" class="node">
<title>Node2</title>
<g id="a_node2"><a xlink:href="classL4_1_1Icu.html#ada7541da586ea09b925b4d90d7dc357e" target="_top" xlink:title="Bind an interrupt line of an interrupt controller to an interrupt object.">
<polygon fill="white" stroke="black" points="372,-910.5 372,-929.5 447,-929.5 447,-910.5 372,-910.5"/>
<text text-anchor="middle" x="409.5" y="-917.5" font-family="Helvetica,sans-Serif" font-size="10.00">L4::Icu::bind</text>
</a>
</g>
</g>
<!-- Node1&#45;&gt;Node2 -->
<g id="edge1" class="edge">
<title>Node1&#45;&gt;Node2</title>
<path fill="none" stroke="midnightblue" d="M568.62,-478.85C564.79,-556.51 546.96,-838.51 488,-901 477.54,-912.08 461.76,-917.15 447.17,-919.32"/>
<polygon fill="midnightblue" stroke="midnightblue" points="572.13,-478.72 569.11,-468.57 565.14,-478.39 572.13,-478.72"/>
</g>
<!-- Node6 -->
<g id="node6" class="node">
<title>Node6</title>
<g id="a_node6"><a xlink:href="structL4_1_1Irq__mux.html#acfd63279449d20bef4226da9a01e5da9" target="_top" xlink:title="Attach an IRQ to this multiplexer.">
<polygon fill="white" stroke="black" points="356.5,-872.5 356.5,-891.5 462.5,-891.5 462.5,-872.5 356.5,-872.5"/>
<text text-anchor="middle" x="409.5" y="-879.5" font-family="Helvetica,sans-Serif" font-size="10.00">L4::Irq_mux::chain</text>
</a>
</g>
</g>
<!-- Node1&#45;&gt;Node6 -->
<g id="edge5" class="edge">
<title>Node1&#45;&gt;Node6</title>
<path fill="none" stroke="midnightblue" d="M568.24,-479.02C563.19,-552.58 542.08,-806.64 488,-863 481.19,-870.1 472.2,-874.72 462.75,-877.69"/>
<polygon fill="midnightblue" stroke="midnightblue" points="571.74,-479.03 568.91,-468.82 564.76,-478.57 571.74,-479.03"/>
</g>
<!-- Node7 -->
<g id="node7" class="node">
<title>Node7</title>
<g id="a_node7"><a xlink:href="classL4_1_1Factory.html#ab52604d4abed4d6009ce51a59492edd7" target="_top" xlink:title="Generic create call to the factory.">
<polygon fill="white" stroke="black" points="357,-834.5 357,-853.5 462,-853.5 462,-834.5 357,-834.5"/>
<text text-anchor="middle" x="409.5" y="-841.5" font-family="Helvetica,sans-Serif" font-size="10.00">L4::Factory::create</text>
</a>
</g>
</g>
<!-- Node1&#45;&gt;Node7 -->
<g id="edge6" class="edge">
<title>Node1&#45;&gt;Node7</title>
<path fill="none" stroke="midnightblue" d="M567.8,-478.88C561.5,-547.74 537.29,-774.65 488,-825 481.02,-832.13 471.84,-836.75 462.24,-839.71"/>
<polygon fill="midnightblue" stroke="midnightblue" points="571.31,-478.85 568.71,-468.58 564.34,-478.23 571.31,-478.85"/>
</g>
<!-- Node9 -->
<g id="node9" class="node">
<title>Node9</title>
<g id="a_node9"><a xlink:href="classL4_1_1Factory.html#a014721aec27ad4877555d5f4b7204896" target="_top" xlink:title="Create a new factory.">
<polygon fill="white" stroke="black" points="357,-785 357,-815 462,-815 462,-785 357,-785"/>
<text text-anchor="start" x="365" y="-803" font-family="Helvetica,sans-Serif" font-size="10.00">L4::Factory::create</text>
<text text-anchor="middle" x="409.5" y="-792" font-family="Helvetica,sans-Serif" font-size="10.00">_factory</text>
</a>
</g>
</g>
<!-- Node1&#45;&gt;Node9 -->
<g id="edge8" class="edge">
<title>Node1&#45;&gt;Node9</title>
<path fill="none" stroke="midnightblue" d="M566.9,-478.83C558.38,-541.08 529.42,-731.03 488,-775 481.02,-782.41 471.84,-787.63 462.24,-791.3"/>
<polygon fill="midnightblue" stroke="midnightblue" points="570.39,-479.14 568.26,-468.76 563.46,-478.21 570.39,-479.14"/>
</g>
<!-- Node10 -->
<g id="node10" class="node">
<title>Node10</title>
<g id="a_node10"><a xlink:href="classL4_1_1Factory.html#aac0a160a20464a6917f2f614d5b86407" target="_top" xlink:title="Create a new IPC gate.">
<polygon fill="white" stroke="black" points="343.5,-746.5 343.5,-765.5 475.5,-765.5 475.5,-746.5 343.5,-746.5"/>
<text text-anchor="middle" x="409.5" y="-753.5" font-family="Helvetica,sans-Serif" font-size="10.00">L4::Factory::create_gate</text>
</a>
</g>
</g>
<!-- Node1&#45;&gt;Node10 -->
<g id="edge9" class="edge">
<title>Node1&#45;&gt;Node10</title>
<path fill="none" stroke="midnightblue" d="M569.96,-478.85C569.99,-529.69 562.7,-665.57 488,-737 483.99,-740.83 479.35,-743.93 474.36,-746.43"/>
<polygon fill="midnightblue" stroke="midnightblue" points="573.45,-478.55 569.85,-468.59 566.45,-478.63 573.45,-478.55"/>
</g>
<!-- Node11 -->
<g id="node11" class="node">
<title>Node11</title>
<g id="a_node11"><a xlink:href="classL4_1_1Factory.html#a741b67e7d11d552f3c17eccfd0d3bf88" target="_top" xlink:title="Create a new IRQ.">
<polygon fill="white" stroke="black" points="348,-708.5 348,-727.5 471,-727.5 471,-708.5 348,-708.5"/>
<text text-anchor="middle" x="409.5" y="-715.5" font-family="Helvetica,sans-Serif" font-size="10.00">L4::Factory::create_irq</text>
</a>
</g>
</g>
<!-- Node1&#45;&gt;Node11 -->
<g id="edge10" class="edge">
<title>Node1&#45;&gt;Node11</title>
<path fill="none" stroke="midnightblue" d="M568.89,-478.59C566.37,-524.36 553.49,-638.97 488,-699 483.1,-703.49 477.31,-706.97 471.14,-709.65"/>
<polygon fill="midnightblue" stroke="midnightblue" points="572.39,-478.65 569.34,-468.51 565.4,-478.35 572.39,-478.65"/>
</g>
<!-- Node12 -->
<g id="node12" class="node">
<title>Node12</title>
<g id="a_node12"><a xlink:href="classL4_1_1Factory.html#a5a2119bba3ea97bfb0f10897c1c64ecb" target="_top" xlink:title="Create a new task.">
<polygon fill="white" stroke="black" points="344,-670.5 344,-689.5 475,-689.5 475,-670.5 344,-670.5"/>
<text text-anchor="middle" x="409.5" y="-677.5" font-family="Helvetica,sans-Serif" font-size="10.00">L4::Factory::create_task</text>
</a>
</g>
</g>
<!-- Node1&#45;&gt;Node12 -->
<g id="edge11" class="edge">
<title>Node1&#45;&gt;Node12</title>
<path fill="none" stroke="midnightblue" d="M567.44,-478.76C562.13,-519.35 544.17,-612.34 488,-661 483.6,-664.81 478.56,-667.88 473.21,-670.35"/>
<polygon fill="midnightblue" stroke="midnightblue" points="570.92,-479.13 568.63,-468.79 563.97,-478.31 570.92,-479.13"/>
</g>
<!-- Node13 -->
<g id="node13" class="node">
<title>Node13</title>
<g id="a_node13"><a xlink:href="classL4_1_1Factory.html#a0a5a8f18ac13a39f583c37ea42657246" target="_top" xlink:title="Create a new thread.">
<polygon fill="white" stroke="black" points="357,-621 357,-651 462,-651 462,-621 357,-621"/>
<text text-anchor="start" x="365" y="-639" font-family="Helvetica,sans-Serif" font-size="10.00">L4::Factory::create</text>
<text text-anchor="middle" x="409.5" y="-628" font-family="Helvetica,sans-Serif" font-size="10.00">_thread</text>
</a>
</g>
</g>
<!-- Node1&#45;&gt;Node13 -->
<g id="edge12" class="edge">
<title>Node1&#45;&gt;Node13</title>
<path fill="none" stroke="midnightblue" d="M564.15,-478.84C554.43,-511.2 530.78,-575.31 488,-611 480.51,-617.25 471.43,-621.95 462.15,-625.47"/>
<polygon fill="midnightblue" stroke="midnightblue" points="567.64,-479.4 567.02,-468.82 560.91,-477.47 567.64,-479.4"/>
</g>
<!-- Node14 -->
<g id="node14" class="node">
<title>Node14</title>
<g id="a_node14"><a xlink:href="classL4_1_1Factory.html#a664fad5aab28576190df9b3165f0b36a" target="_top" xlink:title="Create a new virtual machine.">
<polygon fill="white" stroke="black" points="346.5,-582.5 346.5,-601.5 472.5,-601.5 472.5,-582.5 346.5,-582.5"/>
<text text-anchor="middle" x="409.5" y="-589.5" font-family="Helvetica,sans-Serif" font-size="10.00">L4::Factory::create_vm</text>
</a>
</g>
</g>
<!-- Node1&#45;&gt;Node14 -->
<g id="edge13" class="edge">
<title>Node1&#45;&gt;Node14</title>
<path fill="none" stroke="midnightblue" d="M561.12,-478.12C548.87,-503.77 523.59,-548.9 488,-573 482.26,-576.88 475.81,-579.98 469.14,-582.44"/>
<polygon fill="midnightblue" stroke="midnightblue" points="564.44,-479.28 565.44,-468.73 558.08,-476.35 564.44,-479.28"/>
</g>
<!-- Node15 -->
<g id="node15" class="node">
<title>Node15</title>
<g id="a_node15"><a xlink:href="structL4_1_1Semaphore.html#a5db9d69c03c135a9ae92d8a523cd9a4c" target="_top" xlink:title="Semaphore down operation.">
<polygon fill="white" stroke="black" points="348.5,-544.5 348.5,-563.5 470.5,-563.5 470.5,-544.5 348.5,-544.5"/>
<text text-anchor="middle" x="409.5" y="-551.5" font-family="Helvetica,sans-Serif" font-size="10.00">L4::Semaphore::down</text>
</a>
</g>
</g>
<!-- Node1&#45;&gt;Node15 -->
<g id="edge14" class="edge">
<title>Node1&#45;&gt;Node15</title>
<path fill="none" stroke="midnightblue" d="M555.64,-476.33C540.75,-493.77 515.5,-520.14 488,-535 480.81,-538.89 472.82,-541.99 464.77,-544.47"/>
<polygon fill="midnightblue" stroke="midnightblue" points="558.38,-478.51 562.08,-468.58 552.99,-474.03 558.38,-478.51"/>
</g>
<!-- Node16 -->
<g id="node16" class="node">
<title>Node16</title>
<g id="a_node16"><a xlink:href="classL4_1_1Thread.html#aacd56bbf983577cfc591f21fd511d3b6" target="_top" xlink:title="Exchange basic thread registers.">
<polygon fill="white" stroke="black" points="353.5,-506.5 353.5,-525.5 465.5,-525.5 465.5,-506.5 353.5,-506.5"/>
<text text-anchor="middle" x="409.5" y="-513.5" font-family="Helvetica,sans-Serif" font-size="10.00">L4::Thread::ex_regs</text>
</a>
</g>
</g>
<!-- Node1&#45;&gt;Node16 -->
<g id="edge15" class="edge">
<title>Node1&#45;&gt;Node16</title>
<path fill="none" stroke="midnightblue" d="M542.41,-473.26C526.81,-481.06 506.66,-490.43 488,-497 477.81,-500.59 466.63,-503.75 456.02,-506.42"/>
<polygon fill="midnightblue" stroke="midnightblue" points="544.15,-476.31 551.48,-468.65 540.98,-470.07 544.15,-476.31"/>
</g>
<!-- Node17 -->
<g id="node17" class="node">
<title>Node17</title>
<g id="a_node17"><a xlink:href="classL4_1_1Vcon.html#a367997ce7608f9fd170828bba6d025ed" target="_top" xlink:title="Get attributes of this virtual console.">
<polygon fill="white" stroke="black" points="358.5,-468.5 358.5,-487.5 460.5,-487.5 460.5,-468.5 358.5,-468.5"/>
<text text-anchor="middle" x="409.5" y="-475.5" font-family="Helvetica,sans-Serif" font-size="10.00">L4::Vcon::get_attr</text>
</a>
</g>
</g>
<!-- Node1&#45;&gt;Node17 -->
<g id="edge16" class="edge">
<title>Node1&#45;&gt;Node17</title>
<path fill="none" stroke="midnightblue" d="M513.93,-465.64C496.56,-467.72 477.5,-469.99 460.53,-472.02"/>
<polygon fill="midnightblue" stroke="midnightblue" points="514.42,-469.11 523.94,-464.44 513.59,-462.16 514.42,-469.11"/>
</g>
<!-- Node18 -->
<g id="node18" class="node">
<title>Node18</title>
<g id="a_node18"><a xlink:href="classL4_1_1Icu.html#a356cfa88076c92e121ab7760d50d5f18" target="_top" xlink:title="Get information about the capabilities of the ICU.">
<polygon fill="white" stroke="black" points="373,-430.5 373,-449.5 446,-449.5 446,-430.5 373,-430.5"/>
<text text-anchor="middle" x="409.5" y="-437.5" font-family="Helvetica,sans-Serif" font-size="10.00">L4::Icu::info</text>
</a>
</g>
</g>
<!-- Node1&#45;&gt;Node18 -->
<g id="edge17" class="edge">
<title>Node1&#45;&gt;Node18</title>
<path fill="none" stroke="midnightblue" d="M513.85,-452.35C491.39,-449.67 466.14,-446.65 446.22,-444.27"/>
<polygon fill="midnightblue" stroke="midnightblue" points="513.59,-455.84 523.94,-453.56 514.42,-448.89 513.59,-455.84"/>
</g>
<!-- Node19 -->
<g id="node19" class="node">
<title>Node19</title>
<g id="a_node19"><a xlink:href="classL4_1_1Icu.html#ab58aa015a5216a0dece5d85089b42aaa" target="_top" xlink:title="Mask an IRQ line.">
<polygon fill="white" stroke="black" points="369,-392.5 369,-411.5 450,-411.5 450,-392.5 369,-392.5"/>
<text text-anchor="middle" x="409.5" y="-399.5" font-family="Helvetica,sans-Serif" font-size="10.00">L4::Icu::mask</text>
</a>
</g>
</g>
<!-- Node1&#45;&gt;Node19 -->
<g id="edge18" class="edge">
<title>Node1&#45;&gt;Node19</title>
<path fill="none" stroke="midnightblue" d="M542.41,-444.74C526.81,-436.94 506.66,-427.57 488,-421 475.98,-416.77 462.59,-413.13 450.36,-410.19"/>
<polygon fill="midnightblue" stroke="midnightblue" points="540.98,-447.93 551.48,-449.35 544.15,-441.69 540.98,-447.93"/>
</g>
<!-- Node20 -->
<g id="node20" class="node">
<title>Node20</title>
<g id="a_node20"><a xlink:href="classL4_1_1Thread.html#a9bcade7e8db8d775cc1f2a2a6225c845" target="_top" xlink:title="Apply sender modification rules.">
<polygon fill="white" stroke="black" points="356,-343 356,-373 463,-373 463,-343 356,-343"/>
<text text-anchor="start" x="364" y="-361" font-family="Helvetica,sans-Serif" font-size="10.00">L4::Thread::modify</text>
<text text-anchor="middle" x="409.5" y="-350" font-family="Helvetica,sans-Serif" font-size="10.00">_senders</text>
</a>
</g>
</g>
<!-- Node1&#45;&gt;Node20 -->
<g id="edge19" class="edge">
<title>Node1&#45;&gt;Node20</title>
<path fill="none" stroke="midnightblue" d="M555.17,-441.79C540.07,-424.68 514.81,-398.75 488,-383 480.32,-378.49 471.73,-374.68 463.14,-371.51"/>
<polygon fill="midnightblue" stroke="midnightblue" points="552.55,-444.11 561.73,-449.41 557.85,-439.55 552.55,-444.11"/>
</g>
<!-- Node22 -->
<g id="node22" class="node">
<title>Node22</title>
<g id="a_node22"><a xlink:href="classL4_1_1Vcon.html#ac53da09bc3a23b5fd654def074175046" target="_top" xlink:title="Read data from this virtual console.">
<polygon fill="white" stroke="black" points="366.5,-304.5 366.5,-323.5 452.5,-323.5 452.5,-304.5 366.5,-304.5"/>
<text text-anchor="middle" x="409.5" y="-311.5" font-family="Helvetica,sans-Serif" font-size="10.00">L4::Vcon::read</text>
</a>
</g>
</g>
<!-- Node1&#45;&gt;Node22 -->
<g id="edge21" class="edge">
<title>Node1&#45;&gt;Node22</title>
<path fill="none" stroke="midnightblue" d="M562.4,-440.09C551.03,-412.45 526.06,-361.33 488,-334 477.73,-326.62 464.97,-321.96 452.78,-319.02"/>
<polygon fill="midnightblue" stroke="midnightblue" points="559.16,-441.42 566.09,-449.44 565.67,-438.85 559.16,-441.42"/>
</g>
<!-- Node23 -->
<g id="node23" class="node">
<title>Node23</title>
<g id="a_node23"><a xlink:href="classL4_1_1Vcon.html#af400882103c8601a4b0750985c57d7c4" target="_top" xlink:title="Send data to this virtual console.">
<polygon fill="white" stroke="black" points="366,-266.5 366,-285.5 453,-285.5 453,-266.5 366,-266.5"/>
<text text-anchor="middle" x="409.5" y="-273.5" font-family="Helvetica,sans-Serif" font-size="10.00">L4::Vcon::send</text>
</a>
</g>
</g>
<!-- Node1&#45;&gt;Node23 -->
<g id="edge22" class="edge">
<title>Node1&#45;&gt;Node23</title>
<path fill="none" stroke="midnightblue" d="M565.5,-439.66C557.3,-405.1 535.26,-332.83 488,-295 478.16,-287.12 465.52,-282.44 453.32,-279.69"/>
<polygon fill="midnightblue" stroke="midnightblue" points="562.09,-440.47 567.69,-449.47 568.92,-438.94 562.09,-440.47"/>
</g>
<!-- Node24 -->
<g id="node24" class="node">
<title>Node24</title>
<g id="a_node24"><a xlink:href="classL4_1_1Vcon.html#a95422b151c12b5e20dda868972516f1a" target="_top" xlink:title="Set the attributes of this virtual console.">
<polygon fill="white" stroke="black" points="359,-228.5 359,-247.5 460,-247.5 460,-228.5 359,-228.5"/>
<text text-anchor="middle" x="409.5" y="-235.5" font-family="Helvetica,sans-Serif" font-size="10.00">L4::Vcon::set_attr</text>
</a>
</g>
</g>
<!-- Node1&#45;&gt;Node24 -->
<g id="edge23" class="edge">
<title>Node1&#45;&gt;Node24</title>
<path fill="none" stroke="midnightblue" d="M567.44,-439.24C562.13,-398.65 544.17,-305.66 488,-257 480.15,-250.2 470.24,-245.75 460.16,-242.86"/>
<polygon fill="midnightblue" stroke="midnightblue" points="563.97,-439.69 568.63,-449.21 570.92,-438.87 563.97,-439.69"/>
</g>
<!-- Node25 -->
<g id="node25" class="node">
<title>Node25</title>
<g id="a_node25"><a xlink:href="classL4_1_1Icu.html#a4258b1c32fc968b66a1ce15191f51b8b" target="_top" xlink:title="Set interrupt mode.">
<polygon fill="white" stroke="black" points="358.5,-190.5 358.5,-209.5 460.5,-209.5 460.5,-190.5 358.5,-190.5"/>
<text text-anchor="middle" x="409.5" y="-197.5" font-family="Helvetica,sans-Serif" font-size="10.00">L4::Icu::set_mode</text>
</a>
</g>
</g>
<!-- Node1&#45;&gt;Node25 -->
<g id="edge24" class="edge">
<title>Node1&#45;&gt;Node25</title>
<path fill="none" stroke="midnightblue" d="M568.89,-439.41C566.37,-393.64 553.49,-279.03 488,-219 480.44,-212.07 470.78,-207.56 460.86,-204.65"/>
<polygon fill="midnightblue" stroke="midnightblue" points="565.4,-439.65 569.34,-449.49 572.39,-439.35 565.4,-439.65"/>
</g>
<!-- Node26 -->
<g id="node26" class="node">
<title>Node26</title>
<g id="a_node26"><a xlink:href="structL4_1_1Triggerable.html#a7109ca8b4aeac0169639f973c91a3a6b" target="_top" xlink:title="Trigger.">
<polygon fill="white" stroke="black" points="346.5,-152.5 346.5,-171.5 472.5,-171.5 472.5,-152.5 346.5,-152.5"/>
<text text-anchor="middle" x="409.5" y="-159.5" font-family="Helvetica,sans-Serif" font-size="10.00">L4::Triggerable::trigger</text>
</a>
</g>
</g>
<!-- Node1&#45;&gt;Node26 -->
<g id="edge25" class="edge">
<title>Node1&#45;&gt;Node26</title>
<path fill="none" stroke="midnightblue" d="M569.96,-439.15C569.99,-388.31 562.7,-252.43 488,-181 483.59,-176.79 478.41,-173.46 472.85,-170.84"/>
<polygon fill="midnightblue" stroke="midnightblue" points="566.45,-439.37 569.85,-449.41 573.45,-439.45 566.45,-439.37"/>
</g>
<!-- Node28 -->
<g id="node28" class="node">
<title>Node28</title>
<g id="a_node28"><a xlink:href="classL4_1_1Icu.html#aa34e56cdac798b1949fcc00553386b8b" target="_top" xlink:title="Remove binding of an interrupt line from the interrupt controller object.">
<polygon fill="white" stroke="black" points="366,-114.5 366,-133.5 453,-133.5 453,-114.5 366,-114.5"/>
<text text-anchor="middle" x="409.5" y="-121.5" font-family="Helvetica,sans-Serif" font-size="10.00">L4::Icu::unbind</text>
</a>
</g>
</g>
<!-- Node1&#45;&gt;Node28 -->
<g id="edge27" class="edge">
<title>Node1&#45;&gt;Node28</title>
<path fill="none" stroke="midnightblue" d="M567.09,-439.45C559.02,-377.26 531.06,-185.55 488,-143 478.74,-133.85 465.83,-128.85 453.2,-126.2"/>
<polygon fill="midnightblue" stroke="midnightblue" points="563.63,-440.01 568.36,-449.49 570.57,-439.13 563.63,-440.01"/>
</g>
<!-- Node29 -->
<g id="node29" class="node">
<title>Node29</title>
<g id="a_node29"><a xlink:href="classL4_1_1Thread.html#a94a6d8a5a7a78fa99ef3c6358e0a0459" target="_top" xlink:title="Enable or disable the vCPU feature for the thread.">
<polygon fill="white" stroke="black" points="341.5,-76.5 341.5,-95.5 477.5,-95.5 477.5,-76.5 341.5,-76.5"/>
<text text-anchor="middle" x="409.5" y="-83.5" font-family="Helvetica,sans-Serif" font-size="10.00">L4::Thread::vcpu_control</text>
</a>
</g>
</g>
<!-- Node1&#45;&gt;Node29 -->
<g id="edge28" class="edge">
<title>Node1&#45;&gt;Node29</title>
<path fill="none" stroke="midnightblue" d="M567.66,-439.33C560.97,-372.18 535.82,-153.5 488,-105 484.21,-101.15 479.77,-98.04 474.98,-95.52"/>
<polygon fill="midnightblue" stroke="midnightblue" points="564.18,-439.78 568.63,-449.4 571.15,-439.11 564.18,-439.78"/>
</g>
<!-- Node30 -->
<g id="node30" class="node">
<title>Node30</title>
<g id="a_node30"><a xlink:href="classL4_1_1Thread.html#ac341b827b00c21bc3753c30163e0f173" target="_top" xlink:title="Enable or disable the extended vCPU feature for the thread.">
<polygon fill="white" stroke="black" points="331,-38.5 331,-57.5 488,-57.5 488,-38.5 331,-38.5"/>
<text text-anchor="middle" x="409.5" y="-45.5" font-family="Helvetica,sans-Serif" font-size="10.00">L4::Thread::vcpu_control_ext</text>
</a>
</g>
</g>
<!-- Node1&#45;&gt;Node30 -->
<g id="edge29" class="edge">
<title>Node1&#45;&gt;Node30</title>
<path fill="none" stroke="midnightblue" d="M568.11,-439.13C562.7,-367.16 540.59,-121.48 488,-67 484.34,-63.21 480.07,-60.13 475.43,-57.63"/>
<polygon fill="midnightblue" stroke="midnightblue" points="564.65,-439.75 568.87,-449.47 571.63,-439.24 564.65,-439.75"/>
</g>
<!-- Node31 -->
<g id="node31" class="node">
<title>Node31</title>
<g id="a_node31"><a xlink:href="classL4_1_1Vcon.html#a83407df2f5b674126d33505d73f5d34b" target="_top" xlink:title="Write data to this virtual console.">
<polygon fill="white" stroke="black" points="365,-0.5 365,-19.5 454,-19.5 454,-0.5 365,-0.5"/>
<text text-anchor="middle" x="409.5" y="-7.5" font-family="Helvetica,sans-Serif" font-size="10.00">L4::Vcon::write</text>
</a>
</g>
</g>
<!-- Node1&#45;&gt;Node31 -->
<g id="edge30" class="edge">
<title>Node1&#45;&gt;Node31</title>
<path fill="none" stroke="midnightblue" d="M568.51,-439.19C564.32,-362.93 545.44,-89.57 488,-29 479.23,-19.75 466.75,-14.7 454.37,-12.02"/>
<polygon fill="midnightblue" stroke="midnightblue" points="565.03,-439.52 569.05,-449.32 572.02,-439.15 565.03,-439.52"/>
</g>
<!-- Node3 -->
<g id="node3" class="node">
<title>Node3</title>
<g id="a_node3"><a xlink:href="classL4virtio_1_1Driver_1_1Device.html#a1c9b791b723e7e8ad2eae927094b487d" target="_top" xlink:title="Register a triggerable to receive notifications from the device.">
<polygon fill="white" stroke="black" points="163.5,-938 163.5,-968 292.5,-968 292.5,-938 163.5,-938"/>
<text text-anchor="start" x="171.5" y="-956" font-family="Helvetica,sans-Serif" font-size="10.00">L4virtio::Driver::Device</text>
<text text-anchor="middle" x="228" y="-945" font-family="Helvetica,sans-Serif" font-size="10.00">::bind_notification_irq</text>
</a>
</g>
</g>
<!-- Node2&#45;&gt;Node3 -->
<g id="edge2" class="edge">
<title>Node2&#45;&gt;Node3</title>
<path fill="none" stroke="midnightblue" d="M361.74,-928.6C340.64,-932.48 315.38,-937.12 292.59,-941.31"/>
<polygon fill="midnightblue" stroke="midnightblue" points="362.54,-932.01 371.74,-926.76 361.27,-925.12 362.54,-932.01"/>
</g>
<!-- Node4 -->
<g id="node4" class="node">
<title>Node4</title>
<g id="a_node4"><a xlink:href="classL4virtio_1_1Driver_1_1Device.html#a4f8b3d73188c3b6664755b81b80e441c" target="_top" xlink:title="Contacts the device and starts the initial handshake.">
<polygon fill="white" stroke="black" points="163.5,-889 163.5,-919 292.5,-919 292.5,-889 163.5,-889"/>
<text text-anchor="start" x="171.5" y="-907" font-family="Helvetica,sans-Serif" font-size="10.00">L4virtio::Driver::Device</text>
<text text-anchor="middle" x="228" y="-896" font-family="Helvetica,sans-Serif" font-size="10.00">::driver_connect</text>
</a>
</g>
</g>
<!-- Node2&#45;&gt;Node4 -->
<g id="edge3" class="edge">
<title>Node2&#45;&gt;Node4</title>
<path fill="none" stroke="midnightblue" d="M361.74,-915.83C340.64,-913.95 315.38,-911.7 292.59,-909.67"/>
<polygon fill="midnightblue" stroke="midnightblue" points="361.47,-919.32 371.74,-916.72 362.09,-912.35 361.47,-919.32"/>
</g>
<!-- Node5 -->
<g id="node5" class="node">
<title>Node5</title>
<g id="a_node5"><a xlink:href="classL4virtio_1_1Driver_1_1Block__device.html#a688df51bdec4ba327a6c0b48a83a115a" target="_top" xlink:title="Setup a connection to a device and set up shared memory.">
<polygon fill="white" stroke="black" points="0,-889 0,-919 125,-919 125,-889 0,-889"/>
<text text-anchor="start" x="8" y="-907" font-family="Helvetica,sans-Serif" font-size="10.00">L4virtio::Driver::Block</text>
<text text-anchor="middle" x="62.5" y="-896" font-family="Helvetica,sans-Serif" font-size="10.00">_device::setup_device</text>
</a>
</g>
</g>
<!-- Node4&#45;&gt;Node5 -->
<g id="edge4" class="edge">
<title>Node4&#45;&gt;Node5</title>
<path fill="none" stroke="midnightblue" d="M153.21,-904C143.83,-904 134.3,-904 125.13,-904"/>
<polygon fill="midnightblue" stroke="midnightblue" points="153.32,-907.5 163.32,-904 153.32,-900.5 153.32,-907.5"/>
</g>
<!-- Node8 -->
<g id="node8" class="node">
<title>Node8</title>
<g id="a_node8"><a xlink:href="classL4Re_1_1Mem__alloc.html#a44b301573ae859e8406400338cc8e924" target="_top" xlink:title="Allocate anonymous memory.">
<polygon fill="white" stroke="black" points="163.5,-834.5 163.5,-853.5 292.5,-853.5 292.5,-834.5 163.5,-834.5"/>
<text text-anchor="middle" x="228" y="-841.5" font-family="Helvetica,sans-Serif" font-size="10.00">L4Re::Mem_alloc::alloc</text>
</a>
</g>
</g>
<!-- Node7&#45;&gt;Node8 -->
<g id="edge7" class="edge">
<title>Node7&#45;&gt;Node8</title>
<path fill="none" stroke="midnightblue" d="M346.52,-844C329.09,-844 310.11,-844 292.59,-844"/>
<polygon fill="midnightblue" stroke="midnightblue" points="346.58,-847.5 356.58,-844 346.58,-840.5 346.58,-847.5"/>
</g>
<!-- Node21 -->
<g id="node21" class="node">
<title>Node21</title>
<g id="a_node21"><a xlink:href="classL4Re_1_1Util_1_1Object__registry.html#aeeea59583ffddfef4e7c1c3e6eed41b6" target="_top" xlink:title="Remove a server object from the handler list.">
<polygon fill="white" stroke="black" points="161,-343 161,-373 295,-373 295,-343 161,-343"/>
<text text-anchor="start" x="169" y="-361" font-family="Helvetica,sans-Serif" font-size="10.00">L4Re::Util::Object</text>
<text text-anchor="middle" x="228" y="-350" font-family="Helvetica,sans-Serif" font-size="10.00">_registry::unregister_obj</text>
</a>
</g>
</g>
<!-- Node20&#45;&gt;Node21 -->
<g id="edge20" class="edge">
<title>Node20&#45;&gt;Node21</title>
<path fill="none" stroke="midnightblue" d="M345.18,-358C328.99,-358 311.54,-358 295.21,-358"/>
<polygon fill="midnightblue" stroke="midnightblue" points="345.61,-361.5 355.61,-358 345.61,-354.5 345.61,-361.5"/>
</g>
<!-- Node27 -->
<g id="node27" class="node">
<title>Node27</title>
<g id="a_node27"><a xlink:href="structL4_1_1Semaphore.html#a3de7e4e35ff4dadab9a26f3b87fb76bc" target="_top" xlink:title="Semaphore up operation (wrapper for trigger()).">
<polygon fill="white" stroke="black" points="174.5,-152.5 174.5,-171.5 281.5,-171.5 281.5,-152.5 174.5,-152.5"/>
<text text-anchor="middle" x="228" y="-159.5" font-family="Helvetica,sans-Serif" font-size="10.00">L4::Semaphore::up</text>
</a>
</g>
</g>
<!-- Node26&#45;&gt;Node27 -->
<g id="edge26" class="edge">
<title>Node26&#45;&gt;Node27</title>
<path fill="none" stroke="midnightblue" d="M336.45,-162C318.18,-162 298.89,-162 281.77,-162"/>
<polygon fill="midnightblue" stroke="midnightblue" points="336.47,-165.5 346.47,-162 336.47,-158.5 336.47,-165.5"/>
</g>
</g>
</svg>
