<?xml version="1.0" encoding="UTF-8" standalone="no"?>
<!DOCTYPE svg PUBLIC "-//W3C//DTD SVG 1.1//EN"
 "http://www.w3.org/Graphics/SVG/1.1/DTD/svg11.dtd">
<!-- Generated by graphviz version 2.43.0 (0)
 -->
<!-- Title: L4virtio::Svr::Request_processor::next Pages: 1 -->
<svg width="283pt" height="137pt"
 viewBox="0.00 0.00 283.00 137.00" xmlns="http://www.w3.org/2000/svg" xmlns:xlink="http://www.w3.org/1999/xlink">
<g id="graph0" class="graph" transform="scale(1 1) rotate(0) translate(4 133)">
<title>L4virtio::Svr::Request_processor::next</title>
<polygon fill="white" stroke="transparent" points="-4,4 -4,-133 279,-133 279,4 -4,4"/>
<!-- Node1 -->
<g id="node1" class="node">
<title>Node1</title>
<g id="a_node1"><a xlink:title="Switch to the next descriptor in a descriptor chain.">
<polygon fill="#bfbfbf" stroke="black" points="154,-49.5 154,-79.5 275,-79.5 275,-49.5 154,-49.5"/>
<text text-anchor="start" x="162" y="-67.5" font-family="Helvetica,sans-Serif" font-size="10.00">L4virtio::Svr::Request</text>
<text text-anchor="middle" x="214.5" y="-56.5" font-family="Helvetica,sans-Serif" font-size="10.00">_processor::next</text>
</a>
</g>
</g>
<!-- Node2 -->
<g id="node2" class="node">
<title>Node2</title>
<g id="a_node2"><a xlink:href="classL4virtio_1_1Svr_1_1Block__request.html#a5f6bf664cda7dfe4f82d8726f6c33099" target="_top" xlink:title="Compute the total size of the data in the request.">
<polygon fill="white" stroke="black" points="3.5,-98.5 3.5,-128.5 114.5,-128.5 114.5,-98.5 3.5,-98.5"/>
<text text-anchor="start" x="11.5" y="-116.5" font-family="Helvetica,sans-Serif" font-size="10.00">L4virtio::Svr::Block</text>
<text text-anchor="middle" x="59" y="-105.5" font-family="Helvetica,sans-Serif" font-size="10.00">_request::data_size</text>
</a>
</g>
</g>
<!-- Node1&#45;&gt;Node2 -->
<g id="edge1" class="edge">
<title>Node1&#45;&gt;Node2</title>
<path fill="none" stroke="midnightblue" d="M156.3,-82.76C140.11,-87.93 122.68,-93.49 107.15,-98.45"/>
<polygon fill="midnightblue" stroke="midnightblue" points="157.73,-85.98 166.19,-79.6 155.6,-79.31 157.73,-85.98"/>
</g>
<!-- Node3 -->
<g id="node3" class="node">
<title>Node3</title>
<g id="a_node3"><a xlink:href="classL4virtio_1_1Svr_1_1Block__request.html#a7b714611659c91ffd67e9d8c20102ab6" target="_top" xlink:title="Check if the request contains more data blocks.">
<polygon fill="white" stroke="black" points="2.5,-49.5 2.5,-79.5 115.5,-79.5 115.5,-49.5 2.5,-49.5"/>
<text text-anchor="start" x="10.5" y="-67.5" font-family="Helvetica,sans-Serif" font-size="10.00">L4virtio::Svr::Block</text>
<text text-anchor="middle" x="59" y="-56.5" font-family="Helvetica,sans-Serif" font-size="10.00">_request::has_more</text>
</a>
</g>
</g>
<!-- Node1&#45;&gt;Node3 -->
<g id="edge2" class="edge">
<title>Node1&#45;&gt;Node3</title>
<path fill="none" stroke="midnightblue" d="M143.68,-64.5C134.36,-64.5 124.9,-64.5 115.86,-64.5"/>
<polygon fill="midnightblue" stroke="midnightblue" points="143.71,-68 153.71,-64.5 143.71,-61 143.71,-68"/>
</g>
<!-- Node4 -->
<g id="node4" class="node">
<title>Node4</title>
<g id="a_node4"><a xlink:href="classL4virtio_1_1Svr_1_1Block__request.html#aa2cb429f504f6568d6e25c13936d5be7" target="_top" xlink:title="Return next block in scatter&#45;gather list.">
<polygon fill="white" stroke="black" points="0,-0.5 0,-30.5 118,-30.5 118,-0.5 0,-0.5"/>
<text text-anchor="start" x="8" y="-18.5" font-family="Helvetica,sans-Serif" font-size="10.00">L4virtio::Svr::Block</text>
<text text-anchor="middle" x="59" y="-7.5" font-family="Helvetica,sans-Serif" font-size="10.00">_request::next_block</text>
</a>
</g>
</g>
<!-- Node1&#45;&gt;Node4 -->
<g id="edge3" class="edge">
<title>Node1&#45;&gt;Node4</title>
<path fill="none" stroke="midnightblue" d="M156.3,-46.24C140.11,-41.07 122.68,-35.51 107.15,-30.55"/>
<polygon fill="midnightblue" stroke="midnightblue" points="155.6,-49.69 166.19,-49.4 157.73,-43.02 155.6,-49.69"/>
</g>
</g>
</svg>
