<?xml version="1.0" encoding="UTF-8" standalone="no"?>
<!DOCTYPE svg PUBLIC "-//W3C//DTD SVG 1.1//EN"
 "http://www.w3.org/Graphics/SVG/1.1/DTD/svg11.dtd">
<!-- Generated by graphviz version 2.43.0 (0)
 -->
<!-- Title: L4::Task Pages: 1 -->
<svg width="285pt" height="654pt"
 viewBox="0.00 0.00 285.00 654.00" xmlns="http://www.w3.org/2000/svg" xmlns:xlink="http://www.w3.org/1999/xlink">
<g id="graph0" class="graph" transform="scale(1 1) rotate(0) translate(4 650)">
<title>L4::Task</title>
<polygon fill="white" stroke="transparent" points="-4,4 -4,-650 281,-650 281,4 -4,4"/>
<!-- Node1 -->
<g id="node1" class="node">
<title>Node1</title>
<g id="a_node1"><a xlink:title="C++ interface of the Task kernel object.">
<polygon fill="#bfbfbf" stroke="black" points="61.5,-234.5 61.5,-368.5 162.5,-368.5 162.5,-234.5 61.5,-234.5"/>
<text text-anchor="middle" x="112" y="-356.5" font-family="Helvetica,sans-Serif" font-size="10.00">L4::Task</text>
<polyline fill="none" stroke="black" points="61.5,-349.5 162.5,-349.5 "/>
<text text-anchor="middle" x="112" y="-337.5" font-family="Helvetica,sans-Serif" font-size="10.00"> </text>
<polyline fill="none" stroke="black" points="61.5,-330.5 162.5,-330.5 "/>
<text text-anchor="start" x="69.5" y="-318.5" font-family="Helvetica,sans-Serif" font-size="10.00">+ map()</text>
<text text-anchor="start" x="69.5" y="-307.5" font-family="Helvetica,sans-Serif" font-size="10.00">+ unmap()</text>
<text text-anchor="start" x="69.5" y="-296.5" font-family="Helvetica,sans-Serif" font-size="10.00">+ unmap_batch()</text>
<text text-anchor="start" x="69.5" y="-285.5" font-family="Helvetica,sans-Serif" font-size="10.00">+ delete_obj()</text>
<text text-anchor="start" x="69.5" y="-274.5" font-family="Helvetica,sans-Serif" font-size="10.00">+ release_cap()</text>
<text text-anchor="start" x="69.5" y="-263.5" font-family="Helvetica,sans-Serif" font-size="10.00">+ cap_valid()</text>
<text text-anchor="start" x="69.5" y="-252.5" font-family="Helvetica,sans-Serif" font-size="10.00">+ cap_equal()</text>
<text text-anchor="start" x="69.5" y="-241.5" font-family="Helvetica,sans-Serif" font-size="10.00">+ add_ku_mem()</text>
</a>
</g>
</g>
<!-- Node5 -->
<g id="node5" class="node">
<title>Node5</title>
<g id="a_node5"><a xlink:href="classL4_1_1Kobject__t.html" target="_top" xlink:title=" ">
<polygon fill="white" stroke="black" points="44.5,-117.5 44.5,-196.5 179.5,-196.5 179.5,-117.5 44.5,-117.5"/>
<text text-anchor="start" x="52.5" y="-184.5" font-family="Helvetica,sans-Serif" font-size="10.00">L4::Kobject_t&lt; Vm,</text>
<text text-anchor="middle" x="112" y="-173.5" font-family="Helvetica,sans-Serif" font-size="10.00"> Task, L4_PROTO_VM &gt;</text>
<polyline fill="none" stroke="black" points="44.5,-166.5 179.5,-166.5 "/>
<text text-anchor="middle" x="112" y="-154.5" font-family="Helvetica,sans-Serif" font-size="10.00"> </text>
<polyline fill="none" stroke="black" points="44.5,-147.5 179.5,-147.5 "/>
<text text-anchor="start" x="52.5" y="-135.5" font-family="Helvetica,sans-Serif" font-size="10.00"># c()</text>
<text text-anchor="start" x="52.5" y="-124.5" font-family="Helvetica,sans-Serif" font-size="10.00"># __check_protocols__()</text>
</a>
</g>
</g>
<!-- Node1&#45;&gt;Node5 -->
<g id="edge4" class="edge">
<title>Node1&#45;&gt;Node5</title>
<path fill="none" stroke="midnightblue" d="M112,-224.05C112,-214.66 112,-205.38 112,-196.89"/>
<polygon fill="none" stroke="midnightblue" points="108.5,-224.26 112,-234.26 115.5,-224.26 108.5,-224.26"/>
</g>
<!-- Node2 -->
<g id="node2" class="node">
<title>Node2</title>
<g id="a_node2"><a xlink:href="classL4_1_1Kobject__t.html" target="_top" xlink:title=" ">
<polygon fill="white" stroke="black" points="31,-406.5 31,-496.5 193,-496.5 193,-406.5 31,-406.5"/>
<text text-anchor="start" x="39" y="-484.5" font-family="Helvetica,sans-Serif" font-size="10.00">L4::Kobject_t&lt; Task,</text>
<text text-anchor="start" x="39" y="-473.5" font-family="Helvetica,sans-Serif" font-size="10.00"> Kobject, L4_PROTO_TASK,</text>
<text text-anchor="middle" x="112" y="-462.5" font-family="Helvetica,sans-Serif" font-size="10.00"> Type_info::Demand_t&lt; 2 &gt; &gt;</text>
<polyline fill="none" stroke="black" points="31,-455.5 193,-455.5 "/>
<text text-anchor="middle" x="112" y="-443.5" font-family="Helvetica,sans-Serif" font-size="10.00"> </text>
<polyline fill="none" stroke="black" points="31,-436.5 193,-436.5 "/>
<text text-anchor="start" x="39" y="-424.5" font-family="Helvetica,sans-Serif" font-size="10.00"># c()</text>
<text text-anchor="start" x="39" y="-413.5" font-family="Helvetica,sans-Serif" font-size="10.00"># __check_protocols__()</text>
</a>
</g>
</g>
<!-- Node2&#45;&gt;Node1 -->
<g id="edge1" class="edge">
<title>Node2&#45;&gt;Node1</title>
<path fill="none" stroke="midnightblue" d="M112,-396.46C112,-387.38 112,-377.87 112,-368.53"/>
<polygon fill="none" stroke="midnightblue" points="108.5,-396.5 112,-406.5 115.5,-396.5 108.5,-396.5"/>
</g>
<!-- Node3 -->
<g id="node3" class="node">
<title>Node3</title>
<g id="a_node3"><a xlink:href="classL4_1_1Kobject.html" target="_top" xlink:title="Base class for all kinds of kernel objects and remote objects, referenced by capabilities.">
<polygon fill="white" stroke="black" points="0,-572 0,-640 86,-640 86,-572 0,-572"/>
<text text-anchor="middle" x="43" y="-628" font-family="Helvetica,sans-Serif" font-size="10.00">L4::Kobject</text>
<polyline fill="none" stroke="black" points="0,-621 86,-621 "/>
<text text-anchor="middle" x="43" y="-609" font-family="Helvetica,sans-Serif" font-size="10.00"> </text>
<polyline fill="none" stroke="black" points="0,-602 86,-602 "/>
<text text-anchor="start" x="8" y="-590" font-family="Helvetica,sans-Serif" font-size="10.00">+ dec_refcnt()</text>
<text text-anchor="start" x="8" y="-579" font-family="Helvetica,sans-Serif" font-size="10.00"># cap()</text>
</a>
</g>
</g>
<!-- Node3&#45;&gt;Node2 -->
<g id="edge2" class="edge">
<title>Node3&#45;&gt;Node2</title>
<path fill="none" stroke="midnightblue" d="M62.11,-562.76C71.44,-542.15 82.65,-517.37 92.08,-496.53"/>
<polygon fill="none" stroke="midnightblue" points="58.91,-561.36 57.97,-571.91 65.28,-564.24 58.91,-561.36"/>
</g>
<!-- Node4 -->
<g id="node4" class="node">
<title>Node4</title>
<g id="a_node4"><a xlink:href="classL4_1_1Kobject__t.html" target="_top" xlink:title="Helper class to create an L4Re interface class that is derived from a single base class.">
<polygon fill="white" stroke="black" points="104,-566.5 104,-645.5 260,-645.5 260,-566.5 104,-566.5"/>
<text text-anchor="start" x="112" y="-633.5" font-family="Helvetica,sans-Serif" font-size="10.00">L4::Kobject_t&lt; Derived,</text>
<text text-anchor="middle" x="182" y="-622.5" font-family="Helvetica,sans-Serif" font-size="10.00"> Base, PROTO, S_DEMAND &gt;</text>
<polyline fill="none" stroke="black" points="104,-615.5 260,-615.5 "/>
<text text-anchor="middle" x="182" y="-603.5" font-family="Helvetica,sans-Serif" font-size="10.00"> </text>
<polyline fill="none" stroke="black" points="104,-596.5 260,-596.5 "/>
<text text-anchor="start" x="112" y="-584.5" font-family="Helvetica,sans-Serif" font-size="10.00"># c()</text>
<text text-anchor="start" x="112" y="-573.5" font-family="Helvetica,sans-Serif" font-size="10.00"># __check_protocols__()</text>
</a>
</g>
</g>
<!-- Node4&#45;&gt;Node2 -->
<g id="edge3" class="edge">
<title>Node4&#45;&gt;Node2</title>
<path fill="none" stroke="orange" d="M159.93,-556.91C151.08,-537.64 140.95,-515.57 132.29,-496.7"/>
<polygon fill="orange" stroke="orange" points="156.8,-558.5 164.15,-566.12 163.16,-555.57 156.8,-558.5"/>
<text text-anchor="start" x="155" y="-540" font-family="Helvetica,sans-Serif" font-size="10.00"> &lt; Task, Kobject, L4</text>
<text text-anchor="start" x="155" y="-529" font-family="Helvetica,sans-Serif" font-size="10.00">_PROTO_TASK, Type_info</text>
<text text-anchor="middle" x="216" y="-518" font-family="Helvetica,sans-Serif" font-size="10.00">::Demand_t&lt; 2 &gt; &gt;</text>
</g>
<!-- Node6 -->
<g id="node6" class="node">
<title>Node6</title>
<g id="a_node6"><a xlink:href="classL4_1_1Vm.html" target="_top" xlink:title="Virtual machine host address space.">
<polygon fill="white" stroke="black" points="68,-0.5 68,-79.5 156,-79.5 156,-0.5 68,-0.5"/>
<text text-anchor="middle" x="112" y="-67.5" font-family="Helvetica,sans-Serif" font-size="10.00">L4::Vm</text>
<polyline fill="none" stroke="black" points="68,-60.5 156,-60.5 "/>
<text text-anchor="middle" x="112" y="-48.5" font-family="Helvetica,sans-Serif" font-size="10.00"> </text>
<polyline fill="none" stroke="black" points="68,-41.5 156,-41.5 "/>
<text text-anchor="start" x="76" y="-29.5" font-family="Helvetica,sans-Serif" font-size="10.00">+ vgicc_map()</text>
<text text-anchor="start" x="76" y="-18.5" font-family="Helvetica,sans-Serif" font-size="10.00"># Vm()</text>
<text text-anchor="start" x="76" y="-7.5" font-family="Helvetica,sans-Serif" font-size="10.00"># Vm()</text>
</a>
</g>
</g>
<!-- Node5&#45;&gt;Node6 -->
<g id="edge5" class="edge">
<title>Node5&#45;&gt;Node6</title>
<path fill="none" stroke="midnightblue" d="M105.32,-107.2C105.17,-98.02 105.26,-88.53 105.58,-79.71"/>
<polygon fill="none" stroke="midnightblue" points="101.83,-107.48 105.58,-117.39 108.82,-107.3 101.83,-107.48"/>
</g>
<!-- Node5&#45;&gt;Node6 -->
<g id="edge6" class="edge">
<title>Node5&#45;&gt;Node6</title>
<path fill="none" stroke="midnightblue" d="M118.68,-107.2C118.83,-98.02 118.74,-88.53 118.42,-79.71"/>
<polygon fill="none" stroke="midnightblue" points="115.18,-107.3 118.42,-117.39 122.17,-107.48 115.18,-107.3"/>
</g>
</g>
</svg>
