<?xml version="1.0" encoding="UTF-8" standalone="no"?>
<!DOCTYPE svg PUBLIC "-//W3C//DTD SVG 1.1//EN"
 "http://www.w3.org/Graphics/SVG/1.1/DTD/svg11.dtd">
<!-- Generated by graphviz version 2.43.0 (0)
 -->
<!-- Title: L4Re::Dataspace Pages: 1 -->
<svg width="326pt" height="431pt"
 viewBox="0.00 0.00 326.00 431.00" xmlns="http://www.w3.org/2000/svg" xmlns:xlink="http://www.w3.org/1999/xlink">
<g id="graph0" class="graph" transform="scale(1 1) rotate(0) translate(4 427)">
<title>L4Re::Dataspace</title>
<polygon fill="white" stroke="transparent" points="-4,4 -4,-427 322,-427 322,4 -4,4"/>
<!-- Node1 -->
<g id="node1" class="node">
<title>Node1</title>
<g id="a_node1"><a xlink:title="Interface for memory&#45;like objects.">
<polygon fill="#bfbfbf" stroke="black" points="63,-0.5 63,-134.5 161,-134.5 161,-0.5 63,-0.5"/>
<text text-anchor="middle" x="112" y="-122.5" font-family="Helvetica,sans-Serif" font-size="10.00">L4Re::Dataspace</text>
<polyline fill="none" stroke="black" points="63,-115.5 161,-115.5 "/>
<text text-anchor="middle" x="112" y="-103.5" font-family="Helvetica,sans-Serif" font-size="10.00"> </text>
<polyline fill="none" stroke="black" points="63,-96.5 161,-96.5 "/>
<text text-anchor="start" x="71" y="-84.5" font-family="Helvetica,sans-Serif" font-size="10.00">+ map()</text>
<text text-anchor="start" x="71" y="-73.5" font-family="Helvetica,sans-Serif" font-size="10.00">+ map_region()</text>
<text text-anchor="start" x="71" y="-62.5" font-family="Helvetica,sans-Serif" font-size="10.00">+ clear()</text>
<text text-anchor="start" x="71" y="-51.5" font-family="Helvetica,sans-Serif" font-size="10.00">+ allocate()</text>
<text text-anchor="start" x="71" y="-40.5" font-family="Helvetica,sans-Serif" font-size="10.00">+ copy_in()</text>
<text text-anchor="start" x="71" y="-29.5" font-family="Helvetica,sans-Serif" font-size="10.00">+ size()</text>
<text text-anchor="start" x="71" y="-18.5" font-family="Helvetica,sans-Serif" font-size="10.00">+ flags()</text>
<text text-anchor="start" x="71" y="-7.5" font-family="Helvetica,sans-Serif" font-size="10.00">+ info()</text>
</a>
</g>
</g>
<!-- Node2 -->
<g id="node2" class="node">
<title>Node2</title>
<g id="a_node2"><a xlink:href="classL4_1_1Kobject__t.html" target="_top" xlink:title=" ">
<polygon fill="white" stroke="black" points="38,-172.5 38,-273.5 186,-273.5 186,-172.5 38,-172.5"/>
<text text-anchor="start" x="46" y="-261.5" font-family="Helvetica,sans-Serif" font-size="10.00">L4::Kobject_t&lt; Dataspace,</text>
<text text-anchor="start" x="46" y="-250.5" font-family="Helvetica,sans-Serif" font-size="10.00"> L4::Kobject, L4RE_PROTO</text>
<text text-anchor="start" x="46" y="-239.5" font-family="Helvetica,sans-Serif" font-size="10.00">_DATASPACE, L4::Type_info</text>
<text text-anchor="middle" x="112" y="-228.5" font-family="Helvetica,sans-Serif" font-size="10.00">::Demand_t&lt; 1 &gt; &gt;</text>
<polyline fill="none" stroke="black" points="38,-221.5 186,-221.5 "/>
<text text-anchor="middle" x="112" y="-209.5" font-family="Helvetica,sans-Serif" font-size="10.00"> </text>
<polyline fill="none" stroke="black" points="38,-202.5 186,-202.5 "/>
<text text-anchor="start" x="46" y="-190.5" font-family="Helvetica,sans-Serif" font-size="10.00"># c()</text>
<text text-anchor="start" x="46" y="-179.5" font-family="Helvetica,sans-Serif" font-size="10.00"># __check_protocols__()</text>
</a>
</g>
</g>
<!-- Node2&#45;&gt;Node1 -->
<g id="edge1" class="edge">
<title>Node2&#45;&gt;Node1</title>
<path fill="none" stroke="midnightblue" d="M112,-162.13C112,-153.09 112,-143.73 112,-134.57"/>
<polygon fill="none" stroke="midnightblue" points="108.5,-162.16 112,-172.16 115.5,-162.16 108.5,-162.16"/>
</g>
<!-- Node3 -->
<g id="node3" class="node">
<title>Node3</title>
<g id="a_node3"><a xlink:href="classL4_1_1Kobject.html" target="_top" xlink:title="Base class for all kinds of kernel objects and remote objects, referenced by capabilities.">
<polygon fill="white" stroke="black" points="0,-349 0,-417 86,-417 86,-349 0,-349"/>
<text text-anchor="middle" x="43" y="-405" font-family="Helvetica,sans-Serif" font-size="10.00">L4::Kobject</text>
<polyline fill="none" stroke="black" points="0,-398 86,-398 "/>
<text text-anchor="middle" x="43" y="-386" font-family="Helvetica,sans-Serif" font-size="10.00"> </text>
<polyline fill="none" stroke="black" points="0,-379 86,-379 "/>
<text text-anchor="start" x="8" y="-367" font-family="Helvetica,sans-Serif" font-size="10.00">+ dec_refcnt()</text>
<text text-anchor="start" x="8" y="-356" font-family="Helvetica,sans-Serif" font-size="10.00"># cap()</text>
</a>
</g>
</g>
<!-- Node3&#45;&gt;Node2 -->
<g id="edge2" class="edge">
<title>Node3&#45;&gt;Node2</title>
<path fill="none" stroke="midnightblue" d="M61.53,-339.56C70.41,-319.24 81.09,-294.77 90.34,-273.59"/>
<polygon fill="none" stroke="midnightblue" points="58.26,-338.31 57.46,-348.88 64.67,-341.11 58.26,-338.31"/>
</g>
<!-- Node4 -->
<g id="node4" class="node">
<title>Node4</title>
<g id="a_node4"><a xlink:href="classL4_1_1Kobject__t.html" target="_top" xlink:title="Helper class to create an L4Re interface class that is derived from a single base class.">
<polygon fill="white" stroke="black" points="104,-343.5 104,-422.5 260,-422.5 260,-343.5 104,-343.5"/>
<text text-anchor="start" x="112" y="-410.5" font-family="Helvetica,sans-Serif" font-size="10.00">L4::Kobject_t&lt; Derived,</text>
<text text-anchor="middle" x="182" y="-399.5" font-family="Helvetica,sans-Serif" font-size="10.00"> Base, PROTO, S_DEMAND &gt;</text>
<polyline fill="none" stroke="black" points="104,-392.5 260,-392.5 "/>
<text text-anchor="middle" x="182" y="-380.5" font-family="Helvetica,sans-Serif" font-size="10.00"> </text>
<polyline fill="none" stroke="black" points="104,-373.5 260,-373.5 "/>
<text text-anchor="start" x="112" y="-361.5" font-family="Helvetica,sans-Serif" font-size="10.00"># c()</text>
<text text-anchor="start" x="112" y="-350.5" font-family="Helvetica,sans-Serif" font-size="10.00"># __check_protocols__()</text>
</a>
</g>
</g>
<!-- Node4&#45;&gt;Node2 -->
<g id="edge3" class="edge">
<title>Node4&#45;&gt;Node2</title>
<path fill="none" stroke="orange" d="M160.82,-334.2C152.33,-315.04 142.55,-292.95 133.98,-273.61"/>
<polygon fill="orange" stroke="orange" points="157.63,-335.62 164.88,-343.35 164.03,-332.79 157.63,-335.62"/>
<text text-anchor="start" x="155" y="-317" font-family="Helvetica,sans-Serif" font-size="10.00"> &lt; Dataspace, L4::Kobject,</text>
<text text-anchor="start" x="155" y="-306" font-family="Helvetica,sans-Serif" font-size="10.00"> L4RE_PROTO_DATASPACE,</text>
<text text-anchor="middle" x="236.5" y="-295" font-family="Helvetica,sans-Serif" font-size="10.00"> L4::Type_info::Demand_t&lt; 1 &gt; &gt;</text>
</g>
</g>
</svg>
