<?xml version="1.0" encoding="UTF-8" standalone="no"?>
<!DOCTYPE svg PUBLIC "-//W3C//DTD SVG 1.1//EN"
 "http://www.w3.org/Graphics/SVG/1.1/DTD/svg11.dtd">
<!-- Generated by graphviz version 2.43.0 (0)
 -->
<!-- Title: L4Re::Cap_alloc::alloc Pages: 1 -->
<svg width="322pt" height="230pt"
 viewBox="0.00 0.00 322.00 230.00" xmlns="http://www.w3.org/2000/svg" xmlns:xlink="http://www.w3.org/1999/xlink">
<g id="graph0" class="graph" transform="scale(1 1) rotate(0) translate(4 226)">
<title>L4Re::Cap_alloc::alloc</title>
<polygon fill="white" stroke="transparent" points="-4,4 -4,-226 318,-226 318,4 -4,4"/>
<!-- Node1 -->
<g id="node1" class="node">
<title>Node1</title>
<g id="a_node1"><a xlink:title="Allocate a capability.">
<polygon fill="#bfbfbf" stroke="black" points="191,-95.5 191,-114.5 314,-114.5 314,-95.5 191,-95.5"/>
<text text-anchor="middle" x="252.5" y="-102.5" font-family="Helvetica,sans-Serif" font-size="10.00">L4Re::Cap_alloc::alloc</text>
</a>
</g>
</g>
<!-- Node2 -->
<g id="node2" class="node">
<title>Node2</title>
<g id="a_node2"><a xlink:href="classL4Re_1_1Cap__alloc.html#aa975f8a4ead1812cd5dc6651f7a796a3" target="_top" xlink:title="Allocate a capability.">
<polygon fill="white" stroke="black" points="16,-202.5 16,-221.5 139,-221.5 139,-202.5 16,-202.5"/>
<text text-anchor="middle" x="77.5" y="-209.5" font-family="Helvetica,sans-Serif" font-size="10.00">L4Re::Cap_alloc::alloc</text>
</a>
</g>
</g>
<!-- Node1&#45;&gt;Node2 -->
<g id="edge1" class="edge">
<title>Node1&#45;&gt;Node2</title>
<path fill="none" stroke="midnightblue" d="M237.31,-122.36C219.97,-142.41 188.76,-174.93 155,-193 147.76,-196.87 139.71,-199.98 131.63,-202.46"/>
<polygon fill="midnightblue" stroke="midnightblue" points="240.07,-124.51 243.85,-114.61 234.73,-119.99 240.07,-124.51"/>
</g>
<!-- Node3 -->
<g id="node3" class="node">
<title>Node3</title>
<g id="a_node3"><a xlink:href="classL4Re_1_1Cap__alloc.html#a1858c709ea7587ef8a42580203a93069" target="_top" xlink:title="Construct an instance of a capability allocator.">
<polygon fill="white" stroke="black" points="19.5,-153 19.5,-183 135.5,-183 135.5,-153 19.5,-153"/>
<text text-anchor="start" x="27.5" y="-171" font-family="Helvetica,sans-Serif" font-size="10.00">L4Re::Cap_alloc::get</text>
<text text-anchor="middle" x="77.5" y="-160" font-family="Helvetica,sans-Serif" font-size="10.00">_cap_alloc</text>
</a>
</g>
</g>
<!-- Node1&#45;&gt;Node3 -->
<g id="edge2" class="edge">
<title>Node1&#45;&gt;Node3</title>
<path fill="none" stroke="midnightblue" d="M218.77,-118.45C200.17,-125.95 176.4,-135.3 155,-143 145.67,-146.36 135.62,-149.78 125.99,-152.97"/>
<polygon fill="midnightblue" stroke="midnightblue" points="220.29,-121.6 228.25,-114.6 217.66,-115.12 220.29,-121.6"/>
</g>
<!-- Node4 -->
<g id="node4" class="node">
<title>Node4</title>
<g id="a_node4"><a xlink:href="namespaceL4Re.html#a051baa6f95232581020aa7ffa93a8468" target="_top" xlink:title="Allocate a capability slot and wrap it in a Shared_cap.">
<polygon fill="white" stroke="black" points="10.5,-114.5 10.5,-133.5 144.5,-133.5 144.5,-114.5 10.5,-114.5"/>
<text text-anchor="middle" x="77.5" y="-121.5" font-family="Helvetica,sans-Serif" font-size="10.00">L4Re::make_shared_cap</text>
</a>
</g>
</g>
<!-- Node1&#45;&gt;Node4 -->
<g id="edge3" class="edge">
<title>Node1&#45;&gt;Node4</title>
<path fill="none" stroke="midnightblue" d="M181,-112.74C168.96,-114.06 156.49,-115.43 144.57,-116.74"/>
<polygon fill="midnightblue" stroke="midnightblue" points="181.43,-116.22 190.99,-111.65 180.67,-109.26 181.43,-116.22"/>
</g>
<!-- Node5 -->
<g id="node5" class="node">
<title>Node5</title>
<g id="a_node5"><a xlink:href="namespaceL4Re.html#ac72f8cc3fd493c43ea1d4342ea41e661" target="_top" xlink:title="Allocate a capability slot and wrap it in a Shared_del_cap.">
<polygon fill="white" stroke="black" points="0,-76.5 0,-95.5 155,-95.5 155,-76.5 0,-76.5"/>
<text text-anchor="middle" x="77.5" y="-83.5" font-family="Helvetica,sans-Serif" font-size="10.00">L4Re::make_shared_del_cap</text>
</a>
</g>
</g>
<!-- Node1&#45;&gt;Node5 -->
<g id="edge4" class="edge">
<title>Node1&#45;&gt;Node5</title>
<path fill="none" stroke="midnightblue" d="M180.79,-97.23C172.32,-96.3 163.64,-95.35 155.09,-94.41"/>
<polygon fill="midnightblue" stroke="midnightblue" points="180.67,-100.74 190.99,-98.35 181.43,-93.78 180.67,-100.74"/>
</g>
<!-- Node6 -->
<g id="node6" class="node">
<title>Node6</title>
<g id="a_node6"><a xlink:href="namespaceL4Re.html#aaa11942653a165c2808fa89840ddb66a" target="_top" xlink:title="Allocate a capability slot and wrap it in an Unique_cap.">
<polygon fill="white" stroke="black" points="10.5,-38.5 10.5,-57.5 144.5,-57.5 144.5,-38.5 10.5,-38.5"/>
<text text-anchor="middle" x="77.5" y="-45.5" font-family="Helvetica,sans-Serif" font-size="10.00">L4Re::make_unique_cap</text>
</a>
</g>
</g>
<!-- Node1&#45;&gt;Node6 -->
<g id="edge5" class="edge">
<title>Node1&#45;&gt;Node6</title>
<path fill="none" stroke="midnightblue" d="M220.34,-91.52C201.62,-83.73 177.2,-74.09 155,-67 144.18,-63.54 132.34,-60.33 121.27,-57.57"/>
<polygon fill="midnightblue" stroke="midnightblue" points="218.99,-94.75 229.57,-95.41 221.71,-88.3 218.99,-94.75"/>
</g>
<!-- Node7 -->
<g id="node7" class="node">
<title>Node7</title>
<g id="a_node7"><a xlink:href="namespaceL4Re.html#a75ba5674c1988bcd85cb37696d6a76a7" target="_top" xlink:title="Allocate a capability slot and wrap it in an Unique_del_cap.">
<polygon fill="white" stroke="black" points="0,-0.5 0,-19.5 155,-19.5 155,-0.5 0,-0.5"/>
<text text-anchor="middle" x="77.5" y="-7.5" font-family="Helvetica,sans-Serif" font-size="10.00">L4Re::make_unique_del_cap</text>
</a>
</g>
</g>
<!-- Node1&#45;&gt;Node7 -->
<g id="edge6" class="edge">
<title>Node1&#45;&gt;Node7</title>
<path fill="none" stroke="midnightblue" d="M234.92,-88.26C216.82,-70.93 186.23,-44.29 155,-29 147.13,-25.15 138.42,-22.04 129.77,-19.53"/>
<polygon fill="midnightblue" stroke="midnightblue" points="232.72,-91 242.31,-95.49 237.61,-86 232.72,-91"/>
</g>
</g>
</svg>
