<?xml version="1.0" encoding="UTF-8" standalone="no"?>
<!DOCTYPE svg PUBLIC "-//W3C//DTD SVG 1.1//EN"
 "http://www.w3.org/Graphics/SVG/1.1/DTD/svg11.dtd">
<!-- Generated by graphviz version 2.43.0 (0)
 -->
<!-- Title: L4Re::Util::Counting_cap_alloc::free Pages: 1 -->
<svg width="291pt" height="88pt"
 viewBox="0.00 0.00 291.00 88.00" xmlns="http://www.w3.org/2000/svg" xmlns:xlink="http://www.w3.org/1999/xlink">
<g id="graph0" class="graph" transform="scale(1 1) rotate(0) translate(4 84)">
<title>L4Re::Util::Counting_cap_alloc::free</title>
<polygon fill="white" stroke="transparent" points="-4,4 -4,-84 287,-84 287,4 -4,4"/>
<!-- Node1 -->
<g id="node1" class="node">
<title>Node1</title>
<g id="a_node1"><a xlink:title="Free the capability.">
<polygon fill="#bfbfbf" stroke="black" points="170,-24.5 170,-54.5 283,-54.5 283,-24.5 170,-24.5"/>
<text text-anchor="start" x="178" y="-42.5" font-family="Helvetica,sans-Serif" font-size="10.00">L4Re::Util::Counting</text>
<text text-anchor="middle" x="226.5" y="-31.5" font-family="Helvetica,sans-Serif" font-size="10.00">_cap_alloc::free</text>
</a>
</g>
</g>
<!-- Node2 -->
<g id="node2" class="node">
<title>Node2</title>
<g id="a_node2"><a xlink:href="classL4Re_1_1Util_1_1Smart__cap__auto.html#a4dfba4f2c4731689f1a53992c83371a6" target="_top" xlink:title="Free operation for L4::Smart_cap.">
<polygon fill="white" stroke="black" points="6,-49.5 6,-79.5 128,-79.5 128,-49.5 6,-49.5"/>
<text text-anchor="start" x="14" y="-67.5" font-family="Helvetica,sans-Serif" font-size="10.00">L4Re::Util::Smart_cap</text>
<text text-anchor="middle" x="67" y="-56.5" font-family="Helvetica,sans-Serif" font-size="10.00">_auto::free</text>
</a>
</g>
</g>
<!-- Node1&#45;&gt;Node2 -->
<g id="edge1" class="edge">
<title>Node1&#45;&gt;Node2</title>
<path fill="none" stroke="midnightblue" d="M159.97,-49.9C149.42,-51.58 138.53,-53.3 128.11,-54.96"/>
<polygon fill="midnightblue" stroke="midnightblue" points="160.64,-53.34 169.97,-48.31 159.55,-46.43 160.64,-53.34"/>
</g>
<!-- Node3 -->
<g id="node3" class="node">
<title>Node3</title>
<g id="a_node3"><a xlink:href="classL4Re_1_1Util_1_1Object__registry.html#aeeea59583ffddfef4e7c1c3e6eed41b6" target="_top" xlink:title="Remove a server object from the handler list.">
<polygon fill="white" stroke="black" points="0,-0.5 0,-30.5 134,-30.5 134,-0.5 0,-0.5"/>
<text text-anchor="start" x="8" y="-18.5" font-family="Helvetica,sans-Serif" font-size="10.00">L4Re::Util::Object</text>
<text text-anchor="middle" x="67" y="-7.5" font-family="Helvetica,sans-Serif" font-size="10.00">_registry::unregister_obj</text>
</a>
</g>
</g>
<!-- Node1&#45;&gt;Node3 -->
<g id="edge2" class="edge">
<title>Node1&#45;&gt;Node3</title>
<path fill="none" stroke="midnightblue" d="M160.03,-29.52C151.46,-28.22 142.67,-26.88 134.09,-25.57"/>
<polygon fill="midnightblue" stroke="midnightblue" points="159.56,-32.99 169.97,-31.04 160.61,-26.07 159.56,-32.99"/>
</g>
</g>
</svg>
