<?xml version="1.0" encoding="UTF-8" standalone="no"?>
<!DOCTYPE svg PUBLIC "-//W3C//DTD SVG 1.1//EN"
 "http://www.w3.org/Graphics/SVG/1.1/DTD/svg11.dtd">
<!-- Generated by graphviz version 2.43.0 (0)
 -->
<!-- Title: L4Re::Dataspace::map_region Pages: 1 -->
<svg width="262pt" height="66pt"
 viewBox="0.00 0.00 262.00 66.00" xmlns="http://www.w3.org/2000/svg" xmlns:xlink="http://www.w3.org/1999/xlink">
<g id="graph0" class="graph" transform="scale(1 1) rotate(0) translate(4 62)">
<title>L4Re::Dataspace::map_region</title>
<polygon fill="white" stroke="transparent" points="-4,4 -4,-62 258,-62 258,4 -4,4"/>
<!-- Node1 -->
<g id="node1" class="node">
<title>Node1</title>
<g id="a_node1"><a xlink:title="Map a part of a dataspace into a local memory area.">
<polygon fill="#bfbfbf" stroke="black" points="0,-14 0,-44 126,-44 126,-14 0,-14"/>
<text text-anchor="start" x="8" y="-32" font-family="Helvetica,sans-Serif" font-size="10.00">L4Re::Dataspace::map</text>
<text text-anchor="middle" x="63" y="-21" font-family="Helvetica,sans-Serif" font-size="10.00">_region</text>
</a>
</g>
</g>
<!-- Node2 -->
<g id="node2" class="node">
<title>Node2</title>
<g id="a_node2"><a xlink:href="namespaceL4.html#a92c0d3febc3cd6b35aa072d1bf2d9d11" target="_top" xlink:title="Round a value up so the given number of lsb is zero.">
<polygon fill="white" stroke="black" points="162,-38.5 162,-57.5 254,-57.5 254,-38.5 162,-38.5"/>
<text text-anchor="middle" x="208" y="-45.5" font-family="Helvetica,sans-Serif" font-size="10.00">L4::round_order</text>
</a>
</g>
</g>
<!-- Node1&#45;&gt;Node2 -->
<g id="edge1" class="edge">
<title>Node1&#45;&gt;Node2</title>
<path fill="none" stroke="midnightblue" d="M126.31,-37.28C134.76,-38.4 143.39,-39.55 151.71,-40.65"/>
<polygon fill="midnightblue" stroke="midnightblue" points="151.3,-44.13 161.67,-41.98 152.22,-37.19 151.3,-44.13"/>
</g>
<!-- Node3 -->
<g id="node3" class="node">
<title>Node3</title>
<g id="a_node3"><a xlink:href="namespaceL4.html#a9e6e01651b5cc9d14d8436c6d5d46536" target="_top" xlink:title="Round a value down so the given number of lsb is zero.">
<polygon fill="white" stroke="black" points="163.5,-0.5 163.5,-19.5 252.5,-19.5 252.5,-0.5 163.5,-0.5"/>
<text text-anchor="middle" x="208" y="-7.5" font-family="Helvetica,sans-Serif" font-size="10.00">L4::trunc_order</text>
</a>
</g>
</g>
<!-- Node1&#45;&gt;Node3 -->
<g id="edge2" class="edge">
<title>Node1&#45;&gt;Node3</title>
<path fill="none" stroke="midnightblue" d="M126.31,-20.72C135.29,-19.53 144.46,-18.31 153.26,-17.14"/>
<polygon fill="midnightblue" stroke="midnightblue" points="153.92,-20.58 163.37,-15.8 153,-13.64 153.92,-20.58"/>
</g>
</g>
</svg>
