<?xml version="1.0" encoding="UTF-8" standalone="no"?>
<!DOCTYPE svg PUBLIC "-//W3C//DTD SVG 1.1//EN"
 "http://www.w3.org/Graphics/SVG/1.1/DTD/svg11.dtd">
<!-- Generated by graphviz version 2.43.0 (0)
 -->
<!-- Title: cxx::Bits::Smart_ptr_list_item&lt; T, STORE_T &gt; Pages: 1 -->
<svg width="161pt" height="171pt"
 viewBox="0.00 0.00 161.00 171.00" xmlns="http://www.w3.org/2000/svg" xmlns:xlink="http://www.w3.org/1999/xlink">
<g id="graph0" class="graph" transform="scale(1 1) rotate(0) translate(4 167)">
<title>cxx::Bits::Smart_ptr_list_item&lt; T, STORE_T &gt;</title>
<polygon fill="white" stroke="transparent" points="-4,4 -4,-167 157,-167 157,4 -4,4"/>
<!-- Node1 -->
<g id="node1" class="node">
<title>Node1</title>
<g id="a_node1"><a xlink:title="List item for an arbitrary item in a Smart_ptr_list.">
<polygon fill="#bfbfbf" stroke="black" points="5,-94.5 5,-162.5 148,-162.5 148,-94.5 5,-94.5"/>
<text text-anchor="start" x="13" y="-150.5" font-family="Helvetica,sans-Serif" font-size="10.00">cxx::Bits::Smart_ptr</text>
<text text-anchor="middle" x="76.5" y="-139.5" font-family="Helvetica,sans-Serif" font-size="10.00">_list_item&lt; T, STORE_T &gt;</text>
<polyline fill="none" stroke="black" points="5,-132.5 148,-132.5 "/>
<text text-anchor="middle" x="76.5" y="-120.5" font-family="Helvetica,sans-Serif" font-size="10.00"> </text>
<polyline fill="none" stroke="black" points="5,-113.5 148,-113.5 "/>
<text text-anchor="middle" x="76.5" y="-101.5" font-family="Helvetica,sans-Serif" font-size="10.00"> </text>
</a>
</g>
</g>
<!-- Node2 -->
<g id="node2" class="node">
<title>Node2</title>
<g id="a_node2"><a xlink:href="structcxx_1_1Ref__obj__list__item.html" target="_top" xlink:title="Item for list linked via cxx::Ref_ptr with default refence counting.">
<polygon fill="white" stroke="black" points="0,-0.5 0,-57.5 153,-57.5 153,-0.5 0,-0.5"/>
<text text-anchor="middle" x="76.5" y="-45.5" font-family="Helvetica,sans-Serif" font-size="10.00">cxx::Ref_obj_list_item&lt; T &gt;</text>
<polyline fill="none" stroke="black" points="0,-38.5 153,-38.5 "/>
<text text-anchor="middle" x="76.5" y="-26.5" font-family="Helvetica,sans-Serif" font-size="10.00"> </text>
<polyline fill="none" stroke="black" points="0,-19.5 153,-19.5 "/>
<text text-anchor="middle" x="76.5" y="-7.5" font-family="Helvetica,sans-Serif" font-size="10.00"> </text>
</a>
</g>
</g>
<!-- Node1&#45;&gt;Node2 -->
<g id="edge1" class="edge">
<title>Node1&#45;&gt;Node2</title>
<path fill="none" stroke="midnightblue" d="M76.5,-84.45C76.5,-75.4 76.5,-66.09 76.5,-57.78"/>
<polygon fill="none" stroke="midnightblue" points="73,-84.49 76.5,-94.49 80,-84.49 73,-84.49"/>
</g>
</g>
</svg>
