<?xml version="1.0" encoding="UTF-8" standalone="no"?>
<!DOCTYPE svg PUBLIC "-//W3C//DTD SVG 1.1//EN"
 "http://www.w3.org/Graphics/SVG/1.1/DTD/svg11.dtd">
<!-- Generated by graphviz version 2.43.0 (0)
 -->
<!-- Title: L4::Cap_base::copy Pages: 1 -->
<svg width="394pt" height="104pt"
 viewBox="0.00 0.00 394.00 104.00" xmlns="http://www.w3.org/2000/svg" xmlns:xlink="http://www.w3.org/1999/xlink">
<g id="graph0" class="graph" transform="scale(1 1) rotate(0) translate(4 100)">
<title>L4::Cap_base::copy</title>
<polygon fill="white" stroke="transparent" points="-4,4 -4,-100 390,-100 390,4 -4,4"/>
<!-- Node1 -->
<g id="node1" class="node">
<title>Node1</title>
<g id="a_node1"><a xlink:title="Copy a capability.">
<polygon fill="#bfbfbf" stroke="black" points="0,-38.5 0,-57.5 110,-57.5 110,-38.5 0,-38.5"/>
<text text-anchor="middle" x="55" y="-45.5" font-family="Helvetica,sans-Serif" font-size="10.00">L4::Cap_base::copy</text>
</a>
</g>
</g>
<!-- Node2 -->
<g id="node2" class="node">
<title>Node2</title>
<g id="a_node2"><a xlink:href="classL4_1_1Cap__base.html#a60a4c249059576429246b5b74bd3174e" target="_top" xlink:title="Return flex&#45;page for the capability.">
<polygon fill="white" stroke="black" points="151,-76.5 151,-95.5 266,-95.5 266,-76.5 151,-76.5"/>
<text text-anchor="middle" x="208.5" y="-83.5" font-family="Helvetica,sans-Serif" font-size="10.00">L4::Cap_base::fpage</text>
</a>
</g>
</g>
<!-- Node1&#45;&gt;Node2 -->
<g id="edge1" class="edge">
<title>Node1&#45;&gt;Node2</title>
<path fill="none" stroke="midnightblue" d="M94.23,-57.59C114.13,-62.58 138.66,-68.73 159.79,-74.03"/>
<polygon fill="midnightblue" stroke="midnightblue" points="158.99,-77.44 169.55,-76.48 160.7,-70.65 158.99,-77.44"/>
</g>
<!-- Node4 -->
<g id="node4" class="node">
<title>Node4</title>
<g id="a_node4"><a xlink:href="classL4_1_1Cap__base.html#ab4937bb12579c752564f7250760d0bda" target="_top" xlink:title="Test whether the capability is a valid capability index (i.e., not L4_INVALID_CAP).">
<polygon fill="white" stroke="black" points="146,-38.5 146,-57.5 271,-57.5 271,-38.5 146,-38.5"/>
<text text-anchor="middle" x="208.5" y="-45.5" font-family="Helvetica,sans-Serif" font-size="10.00">L4::Cap_base::is_valid</text>
</a>
</g>
</g>
<!-- Node1&#45;&gt;Node4 -->
<g id="edge3" class="edge">
<title>Node1&#45;&gt;Node4</title>
<path fill="none" stroke="midnightblue" d="M110.27,-48C118.57,-48 127.24,-48 135.84,-48"/>
<polygon fill="midnightblue" stroke="midnightblue" points="135.89,-51.5 145.89,-48 135.89,-44.5 135.89,-51.5"/>
</g>
<!-- Node5 -->
<g id="node5" class="node">
<title>Node5</title>
<g id="a_node5"><a xlink:href="group__l4__task__api.html#ga8ed2ff7ba204de7c01311c22412a2063" target="_top" xlink:title="Map resources available in the source task to a destination task.">
<polygon fill="white" stroke="black" points="169,-0.5 169,-19.5 248,-19.5 248,-0.5 169,-0.5"/>
<text text-anchor="middle" x="208.5" y="-7.5" font-family="Helvetica,sans-Serif" font-size="10.00">l4_task_map</text>
</a>
</g>
</g>
<!-- Node1&#45;&gt;Node5 -->
<g id="edge4" class="edge">
<title>Node1&#45;&gt;Node5</title>
<path fill="none" stroke="midnightblue" d="M94.23,-38.41C114.13,-33.42 138.66,-27.27 159.79,-21.97"/>
<polygon fill="midnightblue" stroke="midnightblue" points="160.7,-25.35 169.55,-19.52 158.99,-18.56 160.7,-25.35"/>
</g>
<!-- Node3 -->
<g id="node3" class="node">
<title>Node3</title>
<g id="a_node3"><a xlink:href="group__l4__fpage__api.html#ga3eaf59757a63812044e2b3a1cdf09d54" target="_top" xlink:title="Create a kernel&#45;object flex page.">
<polygon fill="white" stroke="black" points="307,-76.5 307,-95.5 386,-95.5 386,-76.5 307,-76.5"/>
<text text-anchor="middle" x="346.5" y="-83.5" font-family="Helvetica,sans-Serif" font-size="10.00">l4_obj_fpage</text>
</a>
</g>
</g>
<!-- Node2&#45;&gt;Node3 -->
<g id="edge2" class="edge">
<title>Node2&#45;&gt;Node3</title>
<path fill="none" stroke="midnightblue" d="M266.39,-86C276.54,-86 287.04,-86 296.94,-86"/>
<polygon fill="midnightblue" stroke="midnightblue" points="296.99,-89.5 306.99,-86 296.99,-82.5 296.99,-89.5"/>
</g>
</g>
</svg>
