<?xml version="1.0" encoding="UTF-8" standalone="no"?>
<!DOCTYPE svg PUBLIC "-//W3C//DTD SVG 1.1//EN"
 "http://www.w3.org/Graphics/SVG/1.1/DTD/svg11.dtd">
<!-- Generated by graphviz version 2.43.0 (0)
 -->
<!-- Title: L4::Debugger Pages: 1 -->
<svg width="285pt" height="387pt"
 viewBox="0.00 0.00 285.00 387.00" xmlns="http://www.w3.org/2000/svg" xmlns:xlink="http://www.w3.org/1999/xlink">
<g id="graph0" class="graph" transform="scale(1 1) rotate(0) translate(4 383)">
<title>L4::Debugger</title>
<polygon fill="white" stroke="transparent" points="-4,4 -4,-383 281,-383 281,4 -4,4"/>
<!-- Node1 -->
<g id="node1" class="node">
<title>Node1</title>
<g id="a_node1"><a xlink:title="C++ kernel debugger API.">
<polygon fill="#bfbfbf" stroke="black" points="52.5,-0.5 52.5,-123.5 171.5,-123.5 171.5,-0.5 52.5,-0.5"/>
<text text-anchor="middle" x="112" y="-111.5" font-family="Helvetica,sans-Serif" font-size="10.00">L4::Debugger</text>
<polyline fill="none" stroke="black" points="52.5,-104.5 171.5,-104.5 "/>
<text text-anchor="middle" x="112" y="-92.5" font-family="Helvetica,sans-Serif" font-size="10.00"> </text>
<polyline fill="none" stroke="black" points="52.5,-85.5 171.5,-85.5 "/>
<text text-anchor="start" x="60.5" y="-73.5" font-family="Helvetica,sans-Serif" font-size="10.00">+ set_object_name()</text>
<text text-anchor="start" x="60.5" y="-62.5" font-family="Helvetica,sans-Serif" font-size="10.00">+ global_id()</text>
<text text-anchor="start" x="60.5" y="-51.5" font-family="Helvetica,sans-Serif" font-size="10.00">+ kobj_to_id()</text>
<text text-anchor="start" x="60.5" y="-40.5" font-family="Helvetica,sans-Serif" font-size="10.00">+ query_log_typeid()</text>
<text text-anchor="start" x="60.5" y="-29.5" font-family="Helvetica,sans-Serif" font-size="10.00">+ query_log_name()</text>
<text text-anchor="start" x="60.5" y="-18.5" font-family="Helvetica,sans-Serif" font-size="10.00">+ switch_log()</text>
<text text-anchor="start" x="60.5" y="-7.5" font-family="Helvetica,sans-Serif" font-size="10.00">+ get_object_name()</text>
</a>
</g>
</g>
<!-- Node2 -->
<g id="node2" class="node">
<title>Node2</title>
<g id="a_node2"><a xlink:href="classL4_1_1Kobject__t.html" target="_top" xlink:title=" ">
<polygon fill="white" stroke="black" points="20,-161.5 20,-240.5 204,-240.5 204,-161.5 20,-161.5"/>
<text text-anchor="start" x="28" y="-228.5" font-family="Helvetica,sans-Serif" font-size="10.00">L4::Kobject_t&lt; Debugger,</text>
<text text-anchor="middle" x="112" y="-217.5" font-family="Helvetica,sans-Serif" font-size="10.00"> Kobject, L4_PROTO_DEBUGGER &gt;</text>
<polyline fill="none" stroke="black" points="20,-210.5 204,-210.5 "/>
<text text-anchor="middle" x="112" y="-198.5" font-family="Helvetica,sans-Serif" font-size="10.00"> </text>
<polyline fill="none" stroke="black" points="20,-191.5 204,-191.5 "/>
<text text-anchor="start" x="28" y="-179.5" font-family="Helvetica,sans-Serif" font-size="10.00"># c()</text>
<text text-anchor="start" x="28" y="-168.5" font-family="Helvetica,sans-Serif" font-size="10.00"># __check_protocols__()</text>
</a>
</g>
</g>
<!-- Node2&#45;&gt;Node1 -->
<g id="edge1" class="edge">
<title>Node2&#45;&gt;Node1</title>
<path fill="none" stroke="midnightblue" d="M112,-151.21C112,-142.25 112,-132.79 112,-123.53"/>
<polygon fill="none" stroke="midnightblue" points="108.5,-151.47 112,-161.47 115.5,-151.47 108.5,-151.47"/>
</g>
<!-- Node3 -->
<g id="node3" class="node">
<title>Node3</title>
<g id="a_node3"><a xlink:href="classL4_1_1Kobject.html" target="_top" xlink:title="Base class for all kinds of kernel objects and remote objects, referenced by capabilities.">
<polygon fill="white" stroke="black" points="0,-305 0,-373 86,-373 86,-305 0,-305"/>
<text text-anchor="middle" x="43" y="-361" font-family="Helvetica,sans-Serif" font-size="10.00">L4::Kobject</text>
<polyline fill="none" stroke="black" points="0,-354 86,-354 "/>
<text text-anchor="middle" x="43" y="-342" font-family="Helvetica,sans-Serif" font-size="10.00"> </text>
<polyline fill="none" stroke="black" points="0,-335 86,-335 "/>
<text text-anchor="start" x="8" y="-323" font-family="Helvetica,sans-Serif" font-size="10.00">+ dec_refcnt()</text>
<text text-anchor="start" x="8" y="-312" font-family="Helvetica,sans-Serif" font-size="10.00"># cap()</text>
</a>
</g>
</g>
<!-- Node3&#45;&gt;Node2 -->
<g id="edge2" class="edge">
<title>Node3&#45;&gt;Node2</title>
<path fill="none" stroke="midnightblue" d="M64.41,-295.81C73.33,-278.21 83.63,-257.92 92.36,-240.71"/>
<polygon fill="none" stroke="midnightblue" points="61.28,-294.23 59.88,-304.73 67.53,-297.4 61.28,-294.23"/>
</g>
<!-- Node4 -->
<g id="node4" class="node">
<title>Node4</title>
<g id="a_node4"><a xlink:href="classL4_1_1Kobject__t.html" target="_top" xlink:title="Helper class to create an L4Re interface class that is derived from a single base class.">
<polygon fill="white" stroke="black" points="104,-299.5 104,-378.5 260,-378.5 260,-299.5 104,-299.5"/>
<text text-anchor="start" x="112" y="-366.5" font-family="Helvetica,sans-Serif" font-size="10.00">L4::Kobject_t&lt; Derived,</text>
<text text-anchor="middle" x="182" y="-355.5" font-family="Helvetica,sans-Serif" font-size="10.00"> Base, PROTO, S_DEMAND &gt;</text>
<polyline fill="none" stroke="black" points="104,-348.5 260,-348.5 "/>
<text text-anchor="middle" x="182" y="-336.5" font-family="Helvetica,sans-Serif" font-size="10.00"> </text>
<polyline fill="none" stroke="black" points="104,-329.5 260,-329.5 "/>
<text text-anchor="start" x="112" y="-317.5" font-family="Helvetica,sans-Serif" font-size="10.00"># c()</text>
<text text-anchor="start" x="112" y="-306.5" font-family="Helvetica,sans-Serif" font-size="10.00"># __check_protocols__()</text>
</a>
</g>
</g>
<!-- Node4&#45;&gt;Node2 -->
<g id="edge3" class="edge">
<title>Node4&#45;&gt;Node2</title>
<path fill="none" stroke="orange" d="M157.34,-290.09C149.02,-273.92 139.83,-256.08 131.92,-240.7"/>
<polygon fill="orange" stroke="orange" points="154.44,-292.1 162.13,-299.39 160.66,-288.9 154.44,-292.1"/>
<text text-anchor="start" x="151" y="-273" font-family="Helvetica,sans-Serif" font-size="10.00"> &lt; Debugger, Kobject,</text>
<text text-anchor="middle" x="214" y="-262" font-family="Helvetica,sans-Serif" font-size="10.00"> L4_PROTO_DEBUGGER &gt;</text>
</g>
</g>
</svg>
