<?xml version="1.0" encoding="UTF-8" standalone="no"?>
<!DOCTYPE svg PUBLIC "-//W3C//DTD SVG 1.1//EN"
 "http://www.w3.org/Graphics/SVG/1.1/DTD/svg11.dtd">
<!-- Generated by graphviz version 2.43.0 (0)
 -->
<!-- Title: L4Re::Event Pages: 1 -->
<svg width="308pt" height="1030pt"
 viewBox="0.00 0.00 308.00 1030.00" xmlns="http://www.w3.org/2000/svg" xmlns:xlink="http://www.w3.org/1999/xlink">
<g id="graph0" class="graph" transform="scale(1 1) rotate(0) translate(4 1026)">
<title>L4Re::Event</title>
<polygon fill="white" stroke="transparent" points="-4,4 -4,-1026 304,-1026 304,4 -4,4"/>
<!-- Node1 -->
<g id="node1" class="node">
<title>Node1</title>
<g id="a_node1"><a xlink:title="Event class.">
<polygon fill="#bfbfbf" stroke="black" points="91,-322.5 91,-434.5 245,-434.5 245,-322.5 91,-322.5"/>
<text text-anchor="middle" x="168" y="-422.5" font-family="Helvetica,sans-Serif" font-size="10.00">L4Re::Event</text>
<polyline fill="none" stroke="black" points="91,-415.5 245,-415.5 "/>
<text text-anchor="middle" x="168" y="-403.5" font-family="Helvetica,sans-Serif" font-size="10.00"> </text>
<polyline fill="none" stroke="black" points="91,-396.5 245,-396.5 "/>
<text text-anchor="start" x="99" y="-384.5" font-family="Helvetica,sans-Serif" font-size="10.00">+ get_buffer()</text>
<text text-anchor="start" x="99" y="-373.5" font-family="Helvetica,sans-Serif" font-size="10.00">+ get_num_streams()</text>
<text text-anchor="start" x="99" y="-362.5" font-family="Helvetica,sans-Serif" font-size="10.00">+ get_stream_info()</text>
<text text-anchor="start" x="99" y="-351.5" font-family="Helvetica,sans-Serif" font-size="10.00">+ get_stream_info_for_id()</text>
<text text-anchor="start" x="99" y="-340.5" font-family="Helvetica,sans-Serif" font-size="10.00">+ get_axis_info()</text>
<text text-anchor="start" x="99" y="-329.5" font-family="Helvetica,sans-Serif" font-size="10.00">+ get_stream_state_for_id()</text>
</a>
</g>
</g>
<!-- Node7 -->
<g id="node7" class="node">
<title>Node7</title>
<g id="a_node7"><a xlink:href="structL4_1_1Kobject__3t.html" target="_top" xlink:title=" ">
<polygon fill="white" stroke="black" points="90.5,-161.5 90.5,-284.5 245.5,-284.5 245.5,-161.5 90.5,-161.5"/>
<text text-anchor="start" x="98.5" y="-272.5" font-family="Helvetica,sans-Serif" font-size="10.00">L4::Kobject_3t&lt; Vbus,</text>
<text text-anchor="start" x="98.5" y="-261.5" font-family="Helvetica,sans-Serif" font-size="10.00"> L4Re::Dataspace, L4Re</text>
<text text-anchor="middle" x="168" y="-250.5" font-family="Helvetica,sans-Serif" font-size="10.00">::Inhibitor, L4Re::Event &gt;</text>
<polyline fill="none" stroke="black" points="90.5,-243.5 245.5,-243.5 "/>
<text text-anchor="middle" x="168" y="-231.5" font-family="Helvetica,sans-Serif" font-size="10.00"> </text>
<polyline fill="none" stroke="black" points="90.5,-224.5 245.5,-224.5 "/>
<text text-anchor="start" x="98.5" y="-212.5" font-family="Helvetica,sans-Serif" font-size="10.00">+ operator Kobject const &amp;()</text>
<text text-anchor="start" x="98.5" y="-201.5" font-family="Helvetica,sans-Serif" font-size="10.00">+ dec_refcnt()</text>
<text text-anchor="start" x="98.5" y="-190.5" font-family="Helvetica,sans-Serif" font-size="10.00"># cap()</text>
<text text-anchor="start" x="98.5" y="-179.5" font-family="Helvetica,sans-Serif" font-size="10.00"># c()</text>
<text text-anchor="start" x="98.5" y="-168.5" font-family="Helvetica,sans-Serif" font-size="10.00"># __check_protocols__()</text>
</a>
</g>
</g>
<!-- Node1&#45;&gt;Node7 -->
<g id="edge7" class="edge">
<title>Node1&#45;&gt;Node7</title>
<path fill="none" stroke="midnightblue" d="M168,-311.93C168,-302.84 168,-293.53 168,-284.53"/>
<polygon fill="none" stroke="midnightblue" points="164.5,-312.08 168,-322.08 171.5,-312.08 164.5,-312.08"/>
</g>
<!-- Node2 -->
<g id="node2" class="node">
<title>Node2</title>
<g id="a_node2"><a xlink:href="classL4_1_1Kobject__t.html" target="_top" xlink:title=" ">
<polygon fill="white" stroke="black" points="100.5,-472.5 100.5,-562.5 235.5,-562.5 235.5,-472.5 100.5,-472.5"/>
<text text-anchor="start" x="108.5" y="-550.5" font-family="Helvetica,sans-Serif" font-size="10.00">L4::Kobject_t&lt; Event,</text>
<text text-anchor="start" x="108.5" y="-539.5" font-family="Helvetica,sans-Serif" font-size="10.00"> L4::Icu, L4RE_PROTO</text>
<text text-anchor="middle" x="168" y="-528.5" font-family="Helvetica,sans-Serif" font-size="10.00">_EVENT &gt;</text>
<polyline fill="none" stroke="black" points="100.5,-521.5 235.5,-521.5 "/>
<text text-anchor="middle" x="168" y="-509.5" font-family="Helvetica,sans-Serif" font-size="10.00"> </text>
<polyline fill="none" stroke="black" points="100.5,-502.5 235.5,-502.5 "/>
<text text-anchor="start" x="108.5" y="-490.5" font-family="Helvetica,sans-Serif" font-size="10.00"># c()</text>
<text text-anchor="start" x="108.5" y="-479.5" font-family="Helvetica,sans-Serif" font-size="10.00"># __check_protocols__()</text>
</a>
</g>
</g>
<!-- Node2&#45;&gt;Node1 -->
<g id="edge1" class="edge">
<title>Node2&#45;&gt;Node1</title>
<path fill="none" stroke="midnightblue" d="M168,-462.29C168,-453.18 168,-443.71 168,-434.57"/>
<polygon fill="none" stroke="midnightblue" points="164.5,-462.4 168,-472.4 171.5,-462.4 164.5,-462.4"/>
</g>
<!-- Node3 -->
<g id="node3" class="node">
<title>Node3</title>
<g id="a_node3"><a xlink:href="classL4_1_1Icu.html" target="_top" xlink:title="C++ Icu interface.">
<polygon fill="white" stroke="black" points="84.5,-600.5 84.5,-723.5 167.5,-723.5 167.5,-600.5 84.5,-600.5"/>
<text text-anchor="middle" x="126" y="-711.5" font-family="Helvetica,sans-Serif" font-size="10.00">L4::Icu</text>
<polyline fill="none" stroke="black" points="84.5,-704.5 167.5,-704.5 "/>
<text text-anchor="middle" x="126" y="-692.5" font-family="Helvetica,sans-Serif" font-size="10.00"> </text>
<polyline fill="none" stroke="black" points="84.5,-685.5 167.5,-685.5 "/>
<text text-anchor="start" x="92.5" y="-673.5" font-family="Helvetica,sans-Serif" font-size="10.00">+ bind()</text>
<text text-anchor="start" x="92.5" y="-662.5" font-family="Helvetica,sans-Serif" font-size="10.00">+ unbind()</text>
<text text-anchor="start" x="92.5" y="-651.5" font-family="Helvetica,sans-Serif" font-size="10.00">+ info()</text>
<text text-anchor="start" x="92.5" y="-640.5" font-family="Helvetica,sans-Serif" font-size="10.00">+ msi_info()</text>
<text text-anchor="start" x="92.5" y="-629.5" font-family="Helvetica,sans-Serif" font-size="10.00">+ control()</text>
<text text-anchor="start" x="92.5" y="-618.5" font-family="Helvetica,sans-Serif" font-size="10.00">+ mask()</text>
<text text-anchor="start" x="92.5" y="-607.5" font-family="Helvetica,sans-Serif" font-size="10.00">+ set_mode()</text>
</a>
</g>
</g>
<!-- Node3&#45;&gt;Node2 -->
<g id="edge2" class="edge">
<title>Node3&#45;&gt;Node2</title>
<path fill="none" stroke="midnightblue" d="M146.81,-590.38C149.59,-580.97 152.36,-571.55 154.95,-562.77"/>
<polygon fill="none" stroke="midnightblue" points="143.4,-589.57 143.93,-600.15 150.12,-591.55 143.4,-589.57"/>
</g>
<!-- Node4 -->
<g id="node4" class="node">
<title>Node4</title>
<g id="a_node4"><a xlink:href="classL4_1_1Kobject__t.html" target="_top" xlink:title=" ">
<polygon fill="white" stroke="black" points="0,-782.5 0,-872.5 162,-872.5 162,-782.5 0,-782.5"/>
<text text-anchor="start" x="8" y="-860.5" font-family="Helvetica,sans-Serif" font-size="10.00">L4::Kobject_t&lt; Icu,</text>
<text text-anchor="start" x="8" y="-849.5" font-family="Helvetica,sans-Serif" font-size="10.00"> Irq_eoi, L4_PROTO_IRQ,</text>
<text text-anchor="middle" x="81" y="-838.5" font-family="Helvetica,sans-Serif" font-size="10.00"> Type_info::Demand_t&lt; 1 &gt; &gt;</text>
<polyline fill="none" stroke="black" points="0,-831.5 162,-831.5 "/>
<text text-anchor="middle" x="81" y="-819.5" font-family="Helvetica,sans-Serif" font-size="10.00"> </text>
<polyline fill="none" stroke="black" points="0,-812.5 162,-812.5 "/>
<text text-anchor="start" x="8" y="-800.5" font-family="Helvetica,sans-Serif" font-size="10.00"># c()</text>
<text text-anchor="start" x="8" y="-789.5" font-family="Helvetica,sans-Serif" font-size="10.00"># __check_protocols__()</text>
</a>
</g>
</g>
<!-- Node4&#45;&gt;Node3 -->
<g id="edge3" class="edge">
<title>Node4&#45;&gt;Node3</title>
<path fill="none" stroke="midnightblue" d="M95.93,-772.24C100.23,-756.63 104.94,-739.51 109.34,-723.55"/>
<polygon fill="none" stroke="midnightblue" points="92.46,-771.68 93.18,-782.25 99.21,-773.54 92.46,-771.68"/>
</g>
<!-- Node5 -->
<g id="node5" class="node">
<title>Node5</title>
<g id="a_node5"><a xlink:href="classL4_1_1Irq__eoi.html" target="_top" xlink:title="Interface for sending an acknowledge message to an object.">
<polygon fill="white" stroke="black" points="11,-953.5 11,-1010.5 85,-1010.5 85,-953.5 11,-953.5"/>
<text text-anchor="middle" x="48" y="-998.5" font-family="Helvetica,sans-Serif" font-size="10.00">L4::Irq_eoi</text>
<polyline fill="none" stroke="black" points="11,-991.5 85,-991.5 "/>
<text text-anchor="middle" x="48" y="-979.5" font-family="Helvetica,sans-Serif" font-size="10.00"> </text>
<polyline fill="none" stroke="black" points="11,-972.5 85,-972.5 "/>
<text text-anchor="start" x="19" y="-960.5" font-family="Helvetica,sans-Serif" font-size="10.00">+ unmask()</text>
</a>
</g>
</g>
<!-- Node5&#45;&gt;Node4 -->
<g id="edge4" class="edge">
<title>Node5&#45;&gt;Node4</title>
<path fill="none" stroke="midnightblue" d="M52.69,-943.08C55,-926.93 58.13,-907.94 62,-891 63.36,-885.03 65,-878.8 66.73,-872.68"/>
<polygon fill="none" stroke="midnightblue" points="49.19,-942.85 51.29,-953.24 56.12,-943.81 49.19,-942.85"/>
</g>
<!-- Node6 -->
<g id="node6" class="node">
<title>Node6</title>
<g id="a_node6"><a xlink:href="classL4_1_1Kobject__t.html" target="_top" xlink:title="Helper class to create an L4Re interface class that is derived from a single base class.">
<polygon fill="white" stroke="black" points="118,-942.5 118,-1021.5 274,-1021.5 274,-942.5 118,-942.5"/>
<text text-anchor="start" x="126" y="-1009.5" font-family="Helvetica,sans-Serif" font-size="10.00">L4::Kobject_t&lt; Derived,</text>
<text text-anchor="middle" x="196" y="-998.5" font-family="Helvetica,sans-Serif" font-size="10.00"> Base, PROTO, S_DEMAND &gt;</text>
<polyline fill="none" stroke="black" points="118,-991.5 274,-991.5 "/>
<text text-anchor="middle" x="196" y="-979.5" font-family="Helvetica,sans-Serif" font-size="10.00"> </text>
<polyline fill="none" stroke="black" points="118,-972.5 274,-972.5 "/>
<text text-anchor="start" x="126" y="-960.5" font-family="Helvetica,sans-Serif" font-size="10.00"># c()</text>
<text text-anchor="start" x="126" y="-949.5" font-family="Helvetica,sans-Serif" font-size="10.00"># __check_protocols__()</text>
</a>
</g>
</g>
<!-- Node6&#45;&gt;Node2 -->
<g id="edge6" class="edge">
<title>Node6&#45;&gt;Node2</title>
<path fill="none" stroke="orange" d="M197.38,-932.44C197.53,-919.01 197.48,-904.44 197,-891 192.71,-772.05 179.67,-632.24 172.63,-562.58"/>
<polygon fill="orange" stroke="orange" points="193.88,-932.4 197.23,-942.45 200.88,-932.5 193.88,-932.4"/>
<text text-anchor="start" x="190" y="-756" font-family="Helvetica,sans-Serif" font-size="10.00"> &lt; Event, L4::Icu, L4RE</text>
<text text-anchor="middle" x="245" y="-745" font-family="Helvetica,sans-Serif" font-size="10.00">_PROTO_EVENT &gt;</text>
</g>
<!-- Node6&#45;&gt;Node4 -->
<g id="edge5" class="edge">
<title>Node6&#45;&gt;Node4</title>
<path fill="none" stroke="orange" d="M109.11,-950.98C98.38,-943.76 88.8,-934.88 82,-924 72.59,-908.96 70.88,-889.81 72.06,-872.61"/>
<polygon fill="orange" stroke="orange" points="107.59,-954.15 117.94,-956.42 111.27,-948.2 107.59,-954.15"/>
<text text-anchor="start" x="82" y="-916" font-family="Helvetica,sans-Serif" font-size="10.00"> &lt; Icu, Irq_eoi, L4</text>
<text text-anchor="start" x="82" y="-905" font-family="Helvetica,sans-Serif" font-size="10.00">_PROTO_IRQ, Type_info</text>
<text text-anchor="middle" x="139.5" y="-894" font-family="Helvetica,sans-Serif" font-size="10.00">::Demand_t&lt; 1 &gt; &gt;</text>
</g>
<!-- Node8 -->
<g id="node8" class="node">
<title>Node8</title>
<g id="a_node8"><a xlink:href="classL4vbus_1_1Vbus.html" target="_top" xlink:title="The virtual bus (Vbus) interface.">
<polygon fill="white" stroke="black" points="100,-0.5 100,-123.5 236,-123.5 236,-0.5 100,-0.5"/>
<text text-anchor="middle" x="168" y="-111.5" font-family="Helvetica,sans-Serif" font-size="10.00">L4vbus::Vbus</text>
<polyline fill="none" stroke="black" points="100,-104.5 236,-104.5 "/>
<text text-anchor="middle" x="168" y="-92.5" font-family="Helvetica,sans-Serif" font-size="10.00"> </text>
<polyline fill="none" stroke="black" points="100,-85.5 236,-85.5 "/>
<text text-anchor="start" x="108" y="-73.5" font-family="Helvetica,sans-Serif" font-size="10.00">+ request_ioport()</text>
<text text-anchor="start" x="108" y="-62.5" font-family="Helvetica,sans-Serif" font-size="10.00">+ request_resource()</text>
<text text-anchor="start" x="108" y="-51.5" font-family="Helvetica,sans-Serif" font-size="10.00">+ release_ioport()</text>
<text text-anchor="start" x="108" y="-40.5" font-family="Helvetica,sans-Serif" font-size="10.00">+ release_resource()</text>
<text text-anchor="start" x="108" y="-29.5" font-family="Helvetica,sans-Serif" font-size="10.00">+ root()</text>
<text text-anchor="start" x="108" y="-18.5" font-family="Helvetica,sans-Serif" font-size="10.00">+ assign_dma_domain()</text>
<text text-anchor="start" x="108" y="-7.5" font-family="Helvetica,sans-Serif" font-size="10.00">+ assign_dma_domain()</text>
</a>
</g>
</g>
<!-- Node7&#45;&gt;Node8 -->
<g id="edge8" class="edge">
<title>Node7&#45;&gt;Node8</title>
<path fill="none" stroke="midnightblue" d="M168,-151.17C168,-141.99 168,-132.65 168,-123.66"/>
<polygon fill="none" stroke="midnightblue" points="164.5,-151.44 168,-161.44 171.5,-151.44 164.5,-151.44"/>
</g>
</g>
</svg>
