<?xml version="1.0" encoding="UTF-8" standalone="no"?>
<!DOCTYPE svg PUBLIC "-//W3C//DTD SVG 1.1//EN"
 "http://www.w3.org/Graphics/SVG/1.1/DTD/svg11.dtd">
<!-- Generated by graphviz version 2.43.0 (0)
 -->
<!-- Title: cxx::H_list::insert_before Pages: 1 -->
<svg width="450pt" height="39pt"
 viewBox="0.00 0.00 450.00 39.00" xmlns="http://www.w3.org/2000/svg" xmlns:xlink="http://www.w3.org/1999/xlink">
<g id="graph0" class="graph" transform="scale(1 1) rotate(0) translate(4 35)">
<title>cxx::H_list::insert_before</title>
<polygon fill="white" stroke="transparent" points="-4,4 -4,-35 446,-35 446,4 -4,4"/>
<!-- Node1 -->
<g id="node1" class="node">
<title>Node1</title>
<g id="a_node1"><a xlink:title="Insert an element before the iterator position.">
<polygon fill="#bfbfbf" stroke="black" points="341,-0.5 341,-30.5 442,-30.5 442,-0.5 341,-0.5"/>
<text text-anchor="start" x="349" y="-18.5" font-family="Helvetica,sans-Serif" font-size="10.00">cxx::H_list::insert</text>
<text text-anchor="middle" x="391.5" y="-7.5" font-family="Helvetica,sans-Serif" font-size="10.00">_before</text>
</a>
</g>
</g>
<!-- Node2 -->
<g id="node2" class="node">
<title>Node2</title>
<g id="a_node2"><a xlink:href="classL4_1_1Ipc__svr_1_1Timeout__queue.html#ae31fed715901774759e1786b5e633a07" target="_top" xlink:title="Add a timeout to the queue.">
<polygon fill="white" stroke="black" points="190,-0.5 190,-30.5 305,-30.5 305,-0.5 190,-0.5"/>
<text text-anchor="start" x="198" y="-18.5" font-family="Helvetica,sans-Serif" font-size="10.00">L4::Ipc_svr::Timeout</text>
<text text-anchor="middle" x="247.5" y="-7.5" font-family="Helvetica,sans-Serif" font-size="10.00">_queue::add</text>
</a>
</g>
</g>
<!-- Node1&#45;&gt;Node2 -->
<g id="edge1" class="edge">
<title>Node1&#45;&gt;Node2</title>
<path fill="none" stroke="midnightblue" d="M330.67,-15.5C322.23,-15.5 313.57,-15.5 305.18,-15.5"/>
<polygon fill="midnightblue" stroke="midnightblue" points="330.84,-19 340.84,-15.5 330.84,-12 330.84,-19"/>
</g>
<!-- Node3 -->
<g id="node3" class="node">
<title>Node3</title>
<g id="a_node3"><a xlink:href="classL4_1_1Ipc__svr_1_1Timeout__queue__hooks.html#af6affbb704e771370cd0ae5486263784" target="_top" xlink:title="Add a timout to the queue for time time.">
<polygon fill="white" stroke="black" points="0,-0.5 0,-30.5 154,-30.5 154,-0.5 0,-0.5"/>
<text text-anchor="start" x="8" y="-18.5" font-family="Helvetica,sans-Serif" font-size="10.00">L4::Ipc_svr::Timeout</text>
<text text-anchor="middle" x="77" y="-7.5" font-family="Helvetica,sans-Serif" font-size="10.00">_queue_hooks::add_timeout</text>
</a>
</g>
</g>
<!-- Node2&#45;&gt;Node3 -->
<g id="edge2" class="edge">
<title>Node2&#45;&gt;Node3</title>
<path fill="none" stroke="midnightblue" d="M179.8,-15.5C171.39,-15.5 162.73,-15.5 154.19,-15.5"/>
<polygon fill="midnightblue" stroke="midnightblue" points="179.92,-19 189.92,-15.5 179.92,-12 179.92,-19"/>
</g>
</g>
</svg>
