<?xml version="1.0" encoding="UTF-8" standalone="no"?>
<!DOCTYPE svg PUBLIC "-//W3C//DTD SVG 1.1//EN"
 "http://www.w3.org/Graphics/SVG/1.1/DTD/svg11.dtd">
<!-- Generated by graphviz version 2.43.0 (0)
 -->
<!-- Title: L4virtio::Driver::Device::wait Pages: 1 -->
<svg width="402pt" height="66pt"
 viewBox="0.00 0.00 402.00 66.00" xmlns="http://www.w3.org/2000/svg" xmlns:xlink="http://www.w3.org/1999/xlink">
<g id="graph0" class="graph" transform="scale(1 1) rotate(0) translate(4 62)">
<title>L4virtio::Driver::Device::wait</title>
<polygon fill="white" stroke="transparent" points="-4,4 -4,-62 398,-62 398,4 -4,4"/>
<!-- Node1 -->
<g id="node1" class="node">
<title>Node1</title>
<g id="a_node1"><a xlink:title="Wait for a notification from the device.">
<polygon fill="#bfbfbf" stroke="black" points="0,-14 0,-44 129,-44 129,-14 0,-14"/>
<text text-anchor="start" x="8" y="-32" font-family="Helvetica,sans-Serif" font-size="10.00">L4virtio::Driver::Device</text>
<text text-anchor="middle" x="64.5" y="-21" font-family="Helvetica,sans-Serif" font-size="10.00">::wait</text>
</a>
</g>
</g>
<!-- Node2 -->
<g id="node2" class="node">
<title>Node2</title>
<g id="a_node2"><a xlink:href="group__l4__ipc__err__api.html#gad40f404217497793e95a10d77a47db39" target="_top" xlink:title="Get the error code for an object invocation.">
<polygon fill="white" stroke="black" points="165,-38.5 165,-57.5 239,-57.5 239,-38.5 165,-38.5"/>
<text text-anchor="middle" x="202" y="-45.5" font-family="Helvetica,sans-Serif" font-size="10.00">l4_ipc_error</text>
</a>
</g>
</g>
<!-- Node1&#45;&gt;Node2 -->
<g id="edge1" class="edge">
<title>Node1&#45;&gt;Node2</title>
<path fill="none" stroke="midnightblue" d="M129.28,-37.94C137.87,-39.15 146.55,-40.36 154.76,-41.52"/>
<polygon fill="midnightblue" stroke="midnightblue" points="154.47,-45.01 164.86,-42.93 155.44,-38.08 154.47,-45.01"/>
</g>
<!-- Node4 -->
<g id="node4" class="node">
<title>Node4</title>
<g id="a_node4"><a xlink:href="group__l4__utcb__api.html#gadc099b4a59e1d99638c72c11a8c8b644" target="_top" xlink:title="Get the UTCB address.">
<polygon fill="white" stroke="black" points="176,-0.5 176,-19.5 228,-19.5 228,-0.5 176,-0.5"/>
<text text-anchor="middle" x="202" y="-7.5" font-family="Helvetica,sans-Serif" font-size="10.00">l4_utcb</text>
</a>
</g>
</g>
<!-- Node1&#45;&gt;Node4 -->
<g id="edge3" class="edge">
<title>Node1&#45;&gt;Node4</title>
<path fill="none" stroke="midnightblue" d="M129.28,-20.06C141.77,-18.31 154.43,-16.53 165.57,-14.97"/>
<polygon fill="midnightblue" stroke="midnightblue" points="166.31,-18.4 175.73,-13.54 165.34,-11.47 166.31,-18.4"/>
</g>
<!-- Node3 -->
<g id="node3" class="node">
<title>Node3</title>
<g id="a_node3"><a xlink:href="group__l4__msgtag__api.html#ga52e71bb66855f4d78fa5c82b5f0c5a87" target="_top" xlink:title="Test for error indicator flag.">
<polygon fill="white" stroke="black" points="275,-38.5 275,-57.5 394,-57.5 394,-38.5 275,-38.5"/>
<text text-anchor="middle" x="334.5" y="-45.5" font-family="Helvetica,sans-Serif" font-size="10.00">l4_msgtag_has_error</text>
</a>
</g>
</g>
<!-- Node2&#45;&gt;Node3 -->
<g id="edge2" class="edge">
<title>Node2&#45;&gt;Node3</title>
<path fill="none" stroke="midnightblue" d="M239.01,-48C246.92,-48 255.56,-48 264.3,-48"/>
<polygon fill="midnightblue" stroke="midnightblue" points="264.56,-51.5 274.56,-48 264.56,-44.5 264.56,-51.5"/>
</g>
</g>
</svg>
