<?xml version="1.0" encoding="UTF-8" standalone="no"?>
<!DOCTYPE svg PUBLIC "-//W3C//DTD SVG 1.1//EN"
 "http://www.w3.org/Graphics/SVG/1.1/DTD/svg11.dtd">
<!-- Generated by graphviz version 2.43.0 (0)
 -->
<!-- Title: cxx::Bitmap_base::bit Pages: 1 -->
<svg width="324pt" height="127pt"
 viewBox="0.00 0.00 324.00 127.00" xmlns="http://www.w3.org/2000/svg" xmlns:xlink="http://www.w3.org/1999/xlink">
<g id="graph0" class="graph" transform="scale(1 1) rotate(0) translate(4 123)">
<title>cxx::Bitmap_base::bit</title>
<polygon fill="white" stroke="transparent" points="-4,4 -4,-123 320,-123 320,4 -4,4"/>
<!-- Node1 -->
<g id="node1" class="node">
<title>Node1</title>
<g id="a_node1"><a xlink:title="Set the value of bit bit to on.">
<polygon fill="#bfbfbf" stroke="black" points="194,-50 194,-69 316,-69 316,-50 194,-50"/>
<text text-anchor="middle" x="255" y="-57" font-family="Helvetica,sans-Serif" font-size="10.00">cxx::Bitmap_base::bit</text>
</a>
</g>
</g>
<!-- Node2 -->
<g id="node2" class="node">
<title>Node2</title>
<g id="a_node2"><a xlink:href="classcxx_1_1Bitmap__base.html#a63b497caf4cba8376deb2b8831d3fb4f" target="_top" xlink:title="Get the bit index within word_type for the given bit.">
<polygon fill="white" stroke="black" points="18,-88.5 18,-118.5 140,-118.5 140,-88.5 18,-88.5"/>
<text text-anchor="start" x="26" y="-106.5" font-family="Helvetica,sans-Serif" font-size="10.00">cxx::Bitmap_base::bit</text>
<text text-anchor="middle" x="79" y="-95.5" font-family="Helvetica,sans-Serif" font-size="10.00">_index</text>
</a>
</g>
</g>
<!-- Node1&#45;&gt;Node2 -->
<g id="edge1" class="edge">
<title>Node1&#45;&gt;Node2</title>
<path fill="none" stroke="midnightblue" d="M206.44,-71.53C185.8,-76.75 161.41,-82.91 139.58,-88.43"/>
<polygon fill="midnightblue" stroke="midnightblue" points="207.41,-74.89 216.24,-69.05 205.69,-68.11 207.41,-74.89"/>
</g>
<!-- Node3 -->
<g id="node3" class="node">
<title>Node3</title>
<g id="a_node3"><a xlink:href="classcxx_1_1Bitmap__base.html#a15db5e4d5366a13cb5a49aeb357635a7" target="_top" xlink:title="Get the bit at index bit.">
<polygon fill="white" stroke="black" points="0,-50 0,-69 158,-69 158,-50 0,-50"/>
<text text-anchor="middle" x="79" y="-57" font-family="Helvetica,sans-Serif" font-size="10.00">cxx::Bitmap_base::operator[]</text>
</a>
</g>
</g>
<!-- Node1&#45;&gt;Node3 -->
<g id="edge2" class="edge">
<title>Node1&#45;&gt;Node3</title>
<path fill="none" stroke="midnightblue" d="M183.52,-59.5C175.13,-59.5 166.53,-59.5 158.04,-59.5"/>
<polygon fill="midnightblue" stroke="midnightblue" points="183.63,-63 193.63,-59.5 183.63,-56 183.63,-63"/>
</g>
<!-- Node4 -->
<g id="node4" class="node">
<title>Node4</title>
<g id="a_node4"><a xlink:href="classcxx_1_1Bitmap__base.html#a7a9d9e1459ab5508c071f3989c3bbf4e" target="_top" xlink:title="Get the word index for the given bit.">
<polygon fill="white" stroke="black" points="12,-0.5 12,-30.5 146,-30.5 146,-0.5 12,-0.5"/>
<text text-anchor="start" x="20" y="-18.5" font-family="Helvetica,sans-Serif" font-size="10.00">cxx::Bitmap_base::word</text>
<text text-anchor="middle" x="79" y="-7.5" font-family="Helvetica,sans-Serif" font-size="10.00">_index</text>
</a>
</g>
</g>
<!-- Node1&#45;&gt;Node4 -->
<g id="edge3" class="edge">
<title>Node1&#45;&gt;Node4</title>
<path fill="none" stroke="midnightblue" d="M206.44,-47.47C185.8,-42.25 161.41,-36.09 139.58,-30.57"/>
<polygon fill="midnightblue" stroke="midnightblue" points="205.69,-50.89 216.24,-49.95 207.41,-44.11 205.69,-50.89"/>
</g>
</g>
</svg>
