<?xml version="1.0" encoding="UTF-8" standalone="no"?>
<!DOCTYPE svg PUBLIC "-//W3C//DTD SVG 1.1//EN"
 "http://www.w3.org/Graphics/SVG/1.1/DTD/svg11.dtd">
<!-- Generated by graphviz version 2.43.0 (0)
 -->
<!-- Title: L4::Vcon Pages: 1 -->
<svg width="314pt" height="697pt"
 viewBox="0.00 0.00 314.00 697.00" xmlns="http://www.w3.org/2000/svg" xmlns:xlink="http://www.w3.org/1999/xlink">
<g id="graph0" class="graph" transform="scale(1 1) rotate(0) translate(4 693)">
<title>L4::Vcon</title>
<polygon fill="white" stroke="transparent" points="-4,4 -4,-693 310,-693 310,4 -4,4"/>
<!-- Node1 -->
<g id="node1" class="node">
<title>Node1</title>
<g id="a_node1"><a xlink:title="C++ L4 Vcon interface.">
<polygon fill="#bfbfbf" stroke="black" points="112,-0.5 112,-112.5 224,-112.5 224,-0.5 112,-0.5"/>
<text text-anchor="middle" x="168" y="-100.5" font-family="Helvetica,sans-Serif" font-size="10.00">L4::Vcon</text>
<polyline fill="none" stroke="black" points="112,-93.5 224,-93.5 "/>
<text text-anchor="middle" x="168" y="-81.5" font-family="Helvetica,sans-Serif" font-size="10.00"> </text>
<polyline fill="none" stroke="black" points="112,-74.5 224,-74.5 "/>
<text text-anchor="start" x="120" y="-62.5" font-family="Helvetica,sans-Serif" font-size="10.00">+ send()</text>
<text text-anchor="start" x="120" y="-51.5" font-family="Helvetica,sans-Serif" font-size="10.00">+ write()</text>
<text text-anchor="start" x="120" y="-40.5" font-family="Helvetica,sans-Serif" font-size="10.00">+ read()</text>
<text text-anchor="start" x="120" y="-29.5" font-family="Helvetica,sans-Serif" font-size="10.00">+ read_with_flags()</text>
<text text-anchor="start" x="120" y="-18.5" font-family="Helvetica,sans-Serif" font-size="10.00">+ set_attr()</text>
<text text-anchor="start" x="120" y="-7.5" font-family="Helvetica,sans-Serif" font-size="10.00">+ get_attr()</text>
</a>
</g>
</g>
<!-- Node2 -->
<g id="node2" class="node">
<title>Node2</title>
<g id="a_node2"><a xlink:href="classL4_1_1Kobject__t.html" target="_top" xlink:title=" ">
<polygon fill="white" stroke="black" points="100.5,-150.5 100.5,-229.5 235.5,-229.5 235.5,-150.5 100.5,-150.5"/>
<text text-anchor="start" x="108.5" y="-217.5" font-family="Helvetica,sans-Serif" font-size="10.00">L4::Kobject_t&lt; Vcon,</text>
<text text-anchor="middle" x="168" y="-206.5" font-family="Helvetica,sans-Serif" font-size="10.00"> Icu, L4_PROTO_LOG &gt;</text>
<polyline fill="none" stroke="black" points="100.5,-199.5 235.5,-199.5 "/>
<text text-anchor="middle" x="168" y="-187.5" font-family="Helvetica,sans-Serif" font-size="10.00"> </text>
<polyline fill="none" stroke="black" points="100.5,-180.5 235.5,-180.5 "/>
<text text-anchor="start" x="108.5" y="-168.5" font-family="Helvetica,sans-Serif" font-size="10.00"># c()</text>
<text text-anchor="start" x="108.5" y="-157.5" font-family="Helvetica,sans-Serif" font-size="10.00"># __check_protocols__()</text>
</a>
</g>
</g>
<!-- Node2&#45;&gt;Node1 -->
<g id="edge1" class="edge">
<title>Node2&#45;&gt;Node1</title>
<path fill="none" stroke="midnightblue" d="M168,-139.99C168,-131.04 168,-121.64 168,-112.53"/>
<polygon fill="none" stroke="midnightblue" points="164.5,-140.26 168,-150.26 171.5,-140.26 164.5,-140.26"/>
</g>
<!-- Node3 -->
<g id="node3" class="node">
<title>Node3</title>
<g id="a_node3"><a xlink:href="classL4_1_1Icu.html" target="_top" xlink:title="C++ Icu interface.">
<polygon fill="white" stroke="black" points="84.5,-267.5 84.5,-390.5 167.5,-390.5 167.5,-267.5 84.5,-267.5"/>
<text text-anchor="middle" x="126" y="-378.5" font-family="Helvetica,sans-Serif" font-size="10.00">L4::Icu</text>
<polyline fill="none" stroke="black" points="84.5,-371.5 167.5,-371.5 "/>
<text text-anchor="middle" x="126" y="-359.5" font-family="Helvetica,sans-Serif" font-size="10.00"> </text>
<polyline fill="none" stroke="black" points="84.5,-352.5 167.5,-352.5 "/>
<text text-anchor="start" x="92.5" y="-340.5" font-family="Helvetica,sans-Serif" font-size="10.00">+ bind()</text>
<text text-anchor="start" x="92.5" y="-329.5" font-family="Helvetica,sans-Serif" font-size="10.00">+ unbind()</text>
<text text-anchor="start" x="92.5" y="-318.5" font-family="Helvetica,sans-Serif" font-size="10.00">+ info()</text>
<text text-anchor="start" x="92.5" y="-307.5" font-family="Helvetica,sans-Serif" font-size="10.00">+ msi_info()</text>
<text text-anchor="start" x="92.5" y="-296.5" font-family="Helvetica,sans-Serif" font-size="10.00">+ control()</text>
<text text-anchor="start" x="92.5" y="-285.5" font-family="Helvetica,sans-Serif" font-size="10.00">+ mask()</text>
<text text-anchor="start" x="92.5" y="-274.5" font-family="Helvetica,sans-Serif" font-size="10.00">+ set_mode()</text>
</a>
</g>
</g>
<!-- Node3&#45;&gt;Node2 -->
<g id="edge2" class="edge">
<title>Node3&#45;&gt;Node2</title>
<path fill="none" stroke="midnightblue" d="M147.6,-257.53C150.54,-247.94 153.47,-238.41 156.14,-229.67"/>
<polygon fill="none" stroke="midnightblue" points="144.25,-256.53 144.67,-267.11 150.94,-258.58 144.25,-256.53"/>
</g>
<!-- Node4 -->
<g id="node4" class="node">
<title>Node4</title>
<g id="a_node4"><a xlink:href="classL4_1_1Kobject__t.html" target="_top" xlink:title=" ">
<polygon fill="white" stroke="black" points="0,-449.5 0,-539.5 162,-539.5 162,-449.5 0,-449.5"/>
<text text-anchor="start" x="8" y="-527.5" font-family="Helvetica,sans-Serif" font-size="10.00">L4::Kobject_t&lt; Icu,</text>
<text text-anchor="start" x="8" y="-516.5" font-family="Helvetica,sans-Serif" font-size="10.00"> Irq_eoi, L4_PROTO_IRQ,</text>
<text text-anchor="middle" x="81" y="-505.5" font-family="Helvetica,sans-Serif" font-size="10.00"> Type_info::Demand_t&lt; 1 &gt; &gt;</text>
<polyline fill="none" stroke="black" points="0,-498.5 162,-498.5 "/>
<text text-anchor="middle" x="81" y="-486.5" font-family="Helvetica,sans-Serif" font-size="10.00"> </text>
<polyline fill="none" stroke="black" points="0,-479.5 162,-479.5 "/>
<text text-anchor="start" x="8" y="-467.5" font-family="Helvetica,sans-Serif" font-size="10.00"># c()</text>
<text text-anchor="start" x="8" y="-456.5" font-family="Helvetica,sans-Serif" font-size="10.00"># __check_protocols__()</text>
</a>
</g>
</g>
<!-- Node4&#45;&gt;Node3 -->
<g id="edge3" class="edge">
<title>Node4&#45;&gt;Node3</title>
<path fill="none" stroke="midnightblue" d="M95.93,-439.24C100.23,-423.63 104.94,-406.51 109.34,-390.55"/>
<polygon fill="none" stroke="midnightblue" points="92.46,-438.68 93.18,-449.25 99.21,-440.54 92.46,-438.68"/>
</g>
<!-- Node5 -->
<g id="node5" class="node">
<title>Node5</title>
<g id="a_node5"><a xlink:href="classL4_1_1Irq__eoi.html" target="_top" xlink:title="Interface for sending an acknowledge message to an object.">
<polygon fill="white" stroke="black" points="11,-620.5 11,-677.5 85,-677.5 85,-620.5 11,-620.5"/>
<text text-anchor="middle" x="48" y="-665.5" font-family="Helvetica,sans-Serif" font-size="10.00">L4::Irq_eoi</text>
<polyline fill="none" stroke="black" points="11,-658.5 85,-658.5 "/>
<text text-anchor="middle" x="48" y="-646.5" font-family="Helvetica,sans-Serif" font-size="10.00"> </text>
<polyline fill="none" stroke="black" points="11,-639.5 85,-639.5 "/>
<text text-anchor="start" x="19" y="-627.5" font-family="Helvetica,sans-Serif" font-size="10.00">+ unmask()</text>
</a>
</g>
</g>
<!-- Node5&#45;&gt;Node4 -->
<g id="edge4" class="edge">
<title>Node5&#45;&gt;Node4</title>
<path fill="none" stroke="midnightblue" d="M52.69,-610.08C55,-593.93 58.13,-574.94 62,-558 63.36,-552.03 65,-545.8 66.73,-539.68"/>
<polygon fill="none" stroke="midnightblue" points="49.19,-609.85 51.29,-620.24 56.12,-610.81 49.19,-609.85"/>
</g>
<!-- Node6 -->
<g id="node6" class="node">
<title>Node6</title>
<g id="a_node6"><a xlink:href="classL4_1_1Kobject__t.html" target="_top" xlink:title="Helper class to create an L4Re interface class that is derived from a single base class.">
<polygon fill="white" stroke="black" points="118,-609.5 118,-688.5 274,-688.5 274,-609.5 118,-609.5"/>
<text text-anchor="start" x="126" y="-676.5" font-family="Helvetica,sans-Serif" font-size="10.00">L4::Kobject_t&lt; Derived,</text>
<text text-anchor="middle" x="196" y="-665.5" font-family="Helvetica,sans-Serif" font-size="10.00"> Base, PROTO, S_DEMAND &gt;</text>
<polyline fill="none" stroke="black" points="118,-658.5 274,-658.5 "/>
<text text-anchor="middle" x="196" y="-646.5" font-family="Helvetica,sans-Serif" font-size="10.00"> </text>
<polyline fill="none" stroke="black" points="118,-639.5 274,-639.5 "/>
<text text-anchor="start" x="126" y="-627.5" font-family="Helvetica,sans-Serif" font-size="10.00"># c()</text>
<text text-anchor="start" x="126" y="-616.5" font-family="Helvetica,sans-Serif" font-size="10.00"># __check_protocols__()</text>
</a>
</g>
</g>
<!-- Node6&#45;&gt;Node2 -->
<g id="edge6" class="edge">
<title>Node6&#45;&gt;Node2</title>
<path fill="none" stroke="orange" d="M197.38,-599.44C197.53,-586.01 197.48,-571.44 197,-558 192.33,-428.41 187.46,-396.16 176,-267 174.92,-254.84 173.59,-241.61 172.32,-229.64"/>
<polygon fill="orange" stroke="orange" points="193.88,-599.4 197.23,-609.45 200.88,-599.5 193.88,-599.4"/>
<text text-anchor="start" x="191" y="-423" font-family="Helvetica,sans-Serif" font-size="10.00"> &lt; Vcon, Icu, L4_PROTO</text>
<text text-anchor="middle" x="248.5" y="-412" font-family="Helvetica,sans-Serif" font-size="10.00">_LOG &gt;</text>
</g>
<!-- Node6&#45;&gt;Node4 -->
<g id="edge5" class="edge">
<title>Node6&#45;&gt;Node4</title>
<path fill="none" stroke="orange" d="M109.11,-617.98C98.38,-610.76 88.8,-601.88 82,-591 72.59,-575.96 70.88,-556.81 72.06,-539.61"/>
<polygon fill="orange" stroke="orange" points="107.59,-621.15 117.94,-623.42 111.27,-615.2 107.59,-621.15"/>
<text text-anchor="start" x="82" y="-583" font-family="Helvetica,sans-Serif" font-size="10.00"> &lt; Icu, Irq_eoi, L4</text>
<text text-anchor="start" x="82" y="-572" font-family="Helvetica,sans-Serif" font-size="10.00">_PROTO_IRQ, Type_info</text>
<text text-anchor="middle" x="139.5" y="-561" font-family="Helvetica,sans-Serif" font-size="10.00">::Demand_t&lt; 1 &gt; &gt;</text>
</g>
</g>
</svg>
