<?xml version="1.0" encoding="UTF-8" standalone="no"?>
<!DOCTYPE svg PUBLIC "-//W3C//DTD SVG 1.1//EN"
 "http://www.w3.org/Graphics/SVG/1.1/DTD/svg11.dtd">
<!-- Generated by graphviz version 2.43.0 (0)
 -->
<!-- Title: L4Re::Util::Object_registry Pages: 1 -->
<svg width="688pt" height="789pt"
 viewBox="0.00 0.00 688.00 789.00" xmlns="http://www.w3.org/2000/svg" xmlns:xlink="http://www.w3.org/1999/xlink">
<g id="graph0" class="graph" transform="scale(1 1) rotate(0) translate(4 785)">
<title>L4Re::Util::Object_registry</title>
<polygon fill="white" stroke="transparent" points="-4,4 -4,-785 684,-785 684,4 -4,4"/>
<!-- Node1 -->
<g id="node1" class="node">
<title>Node1</title>
<g id="a_node1"><a xlink:title="A registry that manages server objects and their attached IPC gates for a single server loop for a sp...">
<polygon fill="#bfbfbf" stroke="black" points="261,-0.5 261,-134.5 372,-134.5 372,-0.5 261,-0.5"/>
<text text-anchor="start" x="269" y="-122.5" font-family="Helvetica,sans-Serif" font-size="10.00">L4Re::Util::Object</text>
<text text-anchor="middle" x="316.5" y="-111.5" font-family="Helvetica,sans-Serif" font-size="10.00">_registry</text>
<polyline fill="none" stroke="black" points="261,-104.5 372,-104.5 "/>
<text text-anchor="middle" x="316.5" y="-92.5" font-family="Helvetica,sans-Serif" font-size="10.00"> </text>
<polyline fill="none" stroke="black" points="261,-85.5 372,-85.5 "/>
<text text-anchor="start" x="269" y="-73.5" font-family="Helvetica,sans-Serif" font-size="10.00">+ Object_registry()</text>
<text text-anchor="start" x="269" y="-62.5" font-family="Helvetica,sans-Serif" font-size="10.00">+ Object_registry()</text>
<text text-anchor="start" x="269" y="-51.5" font-family="Helvetica,sans-Serif" font-size="10.00">+ register_obj()</text>
<text text-anchor="start" x="269" y="-40.5" font-family="Helvetica,sans-Serif" font-size="10.00">+ register_obj()</text>
<text text-anchor="start" x="269" y="-29.5" font-family="Helvetica,sans-Serif" font-size="10.00">+ register_irq_obj()</text>
<text text-anchor="start" x="269" y="-18.5" font-family="Helvetica,sans-Serif" font-size="10.00">+ register_obj()</text>
<text text-anchor="start" x="269" y="-7.5" font-family="Helvetica,sans-Serif" font-size="10.00">+ unregister_obj()</text>
</a>
</g>
</g>
<!-- Node2 -->
<g id="node2" class="node">
<title>Node2</title>
<g id="a_node2"><a xlink:href="classL4_1_1Basic__registry.html" target="_top" xlink:title="This registry returns the corresponding server object based on the label of an Ipc_gate.">
<polygon fill="white" stroke="black" points="0,-226.5 0,-294.5 103,-294.5 103,-226.5 0,-226.5"/>
<text text-anchor="middle" x="51.5" y="-282.5" font-family="Helvetica,sans-Serif" font-size="10.00">L4::Basic_registry</text>
<polyline fill="none" stroke="black" points="0,-275.5 103,-275.5 "/>
<text text-anchor="middle" x="51.5" y="-263.5" font-family="Helvetica,sans-Serif" font-size="10.00"> </text>
<polyline fill="none" stroke="black" points="0,-256.5 103,-256.5 "/>
<text text-anchor="start" x="8" y="-244.5" font-family="Helvetica,sans-Serif" font-size="10.00">+ find()</text>
<text text-anchor="start" x="8" y="-233.5" font-family="Helvetica,sans-Serif" font-size="10.00">+ dispatch()</text>
</a>
</g>
</g>
<!-- Node2&#45;&gt;Node1 -->
<g id="edge1" class="edge">
<title>Node2&#45;&gt;Node1</title>
<path fill="none" stroke="midnightblue" d="M78.48,-218.32C87.96,-205.72 99.31,-192.45 111.5,-182 156.74,-143.21 217.34,-111.64 260.9,-91.74"/>
<polygon fill="none" stroke="midnightblue" points="75.61,-216.32 72.54,-226.46 81.26,-220.45 75.61,-216.32"/>
</g>
<!-- Node3 -->
<g id="node3" class="node">
<title>Node3</title>
<g id="a_node3"><a xlink:href="classL4_1_1Registry__iface.html" target="_top" xlink:title="Abstract interface for object registries.">
<polygon fill="white" stroke="black" points="121,-199 121,-322 234,-322 234,-199 121,-199"/>
<text text-anchor="middle" x="177.5" y="-310" font-family="Helvetica,sans-Serif" font-size="10.00">L4::Registry_iface</text>
<polyline fill="none" stroke="black" points="121,-303 234,-303 "/>
<text text-anchor="middle" x="177.5" y="-291" font-family="Helvetica,sans-Serif" font-size="10.00"> </text>
<polyline fill="none" stroke="black" points="121,-284 234,-284 "/>
<text text-anchor="start" x="129" y="-272" font-family="Helvetica,sans-Serif" font-size="10.00">+ ~Registry_iface()</text>
<text text-anchor="start" x="129" y="-261" font-family="Helvetica,sans-Serif" font-size="10.00">+ register_obj()</text>
<text text-anchor="start" x="129" y="-250" font-family="Helvetica,sans-Serif" font-size="10.00">+ register_obj()</text>
<text text-anchor="start" x="129" y="-239" font-family="Helvetica,sans-Serif" font-size="10.00">+ register_irq_obj()</text>
<text text-anchor="start" x="129" y="-228" font-family="Helvetica,sans-Serif" font-size="10.00">+ register_obj()</text>
<text text-anchor="start" x="129" y="-217" font-family="Helvetica,sans-Serif" font-size="10.00">+ register_irq_obj()</text>
<text text-anchor="start" x="129" y="-206" font-family="Helvetica,sans-Serif" font-size="10.00">+ unregister_obj()</text>
</a>
</g>
</g>
<!-- Node3&#45;&gt;Node1 -->
<g id="edge2" class="edge">
<title>Node3&#45;&gt;Node1</title>
<path fill="none" stroke="midnightblue" d="M227.68,-190.55C240.93,-172.33 255.21,-152.72 268.35,-134.66"/>
<polygon fill="none" stroke="midnightblue" points="224.73,-188.66 221.67,-198.8 230.39,-192.78 224.73,-188.66"/>
</g>
<!-- Node4 -->
<g id="node4" class="node">
<title>Node4</title>
<g id="a_node4"><a xlink:href="classL4_1_1Cap.html" target="_top" xlink:title=" ">
<polygon fill="white" stroke="black" points="252.5,-193.5 252.5,-327.5 380.5,-327.5 380.5,-193.5 252.5,-193.5"/>
<text text-anchor="middle" x="316.5" y="-315.5" font-family="Helvetica,sans-Serif" font-size="10.00">L4::Cap&lt; L4::Factory &gt;</text>
<polyline fill="none" stroke="black" points="252.5,-308.5 380.5,-308.5 "/>
<text text-anchor="middle" x="316.5" y="-296.5" font-family="Helvetica,sans-Serif" font-size="10.00"> </text>
<polyline fill="none" stroke="black" points="252.5,-289.5 380.5,-289.5 "/>
<text text-anchor="start" x="260.5" y="-277.5" font-family="Helvetica,sans-Serif" font-size="10.00">+ Cap()</text>
<text text-anchor="start" x="260.5" y="-266.5" font-family="Helvetica,sans-Serif" font-size="10.00">+ Cap()</text>
<text text-anchor="start" x="260.5" y="-255.5" font-family="Helvetica,sans-Serif" font-size="10.00">+ Cap()</text>
<text text-anchor="start" x="260.5" y="-244.5" font-family="Helvetica,sans-Serif" font-size="10.00">+ Cap()</text>
<text text-anchor="start" x="260.5" y="-233.5" font-family="Helvetica,sans-Serif" font-size="10.00">+ Cap()</text>
<text text-anchor="start" x="260.5" y="-222.5" font-family="Helvetica,sans-Serif" font-size="10.00">+ move()</text>
<text text-anchor="start" x="260.5" y="-211.5" font-family="Helvetica,sans-Serif" font-size="10.00">+ copy()</text>
<text text-anchor="start" x="260.5" y="-200.5" font-family="Helvetica,sans-Serif" font-size="10.00">+ operator&#45;&gt;()</text>
</a>
</g>
</g>
<!-- Node4&#45;&gt;Node1 -->
<g id="edge3" class="edge">
<title>Node4&#45;&gt;Node1</title>
<path fill="none" stroke="#404040" d="M316.5,-193.23C316.5,-178.27 316.5,-162.25 316.5,-146.84"/>
<polygon fill="none" stroke="#404040" points="316.5,-146.65 312.5,-140.65 316.5,-134.65 320.5,-140.65 316.5,-146.65"/>
<text text-anchor="middle" x="342.5" y="-156" font-family="Helvetica,sans-Serif" font-size="10.00"> #_factory</text>
</g>
<!-- Node5 -->
<g id="node5" class="node">
<title>Node5</title>
<g id="a_node5"><a xlink:href="classL4_1_1Cap__base.html" target="_top" xlink:title="Base class for all kinds of capabilities.">
<polygon fill="white" stroke="black" points="314,-558.5 314,-780.5 493,-780.5 493,-558.5 314,-558.5"/>
<text text-anchor="middle" x="403.5" y="-768.5" font-family="Helvetica,sans-Serif" font-size="10.00">L4::Cap_base</text>
<polyline fill="none" stroke="black" points="314,-761.5 493,-761.5 "/>
<text text-anchor="start" x="322" y="-749.5" font-family="Helvetica,sans-Serif" font-size="10.00"># _c</text>
<polyline fill="none" stroke="black" points="314,-742.5 493,-742.5 "/>
<text text-anchor="start" x="322" y="-730.5" font-family="Helvetica,sans-Serif" font-size="10.00">+ cap()</text>
<text text-anchor="start" x="322" y="-719.5" font-family="Helvetica,sans-Serif" font-size="10.00">+ is_valid()</text>
<text text-anchor="start" x="322" y="-708.5" font-family="Helvetica,sans-Serif" font-size="10.00">+ operator Invalid_conversion *()</text>
<text text-anchor="start" x="322" y="-697.5" font-family="Helvetica,sans-Serif" font-size="10.00">+ fpage()</text>
<text text-anchor="start" x="322" y="-686.5" font-family="Helvetica,sans-Serif" font-size="10.00">+ snd_base()</text>
<text text-anchor="start" x="322" y="-675.5" font-family="Helvetica,sans-Serif" font-size="10.00">+ operator==()</text>
<text text-anchor="start" x="322" y="-664.5" font-family="Helvetica,sans-Serif" font-size="10.00">+ operator!=()</text>
<text text-anchor="start" x="322" y="-653.5" font-family="Helvetica,sans-Serif" font-size="10.00">+ validate()</text>
<text text-anchor="start" x="322" y="-642.5" font-family="Helvetica,sans-Serif" font-size="10.00">+ validate()</text>
<text text-anchor="start" x="322" y="-631.5" font-family="Helvetica,sans-Serif" font-size="10.00">+ invalidate()</text>
<text text-anchor="start" x="322" y="-620.5" font-family="Helvetica,sans-Serif" font-size="10.00"># Cap_base()</text>
<text text-anchor="start" x="322" y="-609.5" font-family="Helvetica,sans-Serif" font-size="10.00"># Cap_base()</text>
<text text-anchor="start" x="322" y="-598.5" font-family="Helvetica,sans-Serif" font-size="10.00"># Cap_base()</text>
<text text-anchor="start" x="322" y="-587.5" font-family="Helvetica,sans-Serif" font-size="10.00"># Cap_base()</text>
<text text-anchor="start" x="322" y="-576.5" font-family="Helvetica,sans-Serif" font-size="10.00"># move()</text>
<text text-anchor="start" x="322" y="-565.5" font-family="Helvetica,sans-Serif" font-size="10.00"># copy()</text>
</a>
</g>
</g>
<!-- Node5&#45;&gt;Node4 -->
<g id="edge4" class="edge">
<title>Node5&#45;&gt;Node4</title>
<path fill="none" stroke="midnightblue" d="M358,-548.51C355.23,-539.27 352.69,-530.03 350.5,-521 334.8,-456.19 325.93,-380.41 321.22,-327.54"/>
<polygon fill="none" stroke="midnightblue" points="354.68,-549.61 360.97,-558.13 361.37,-547.55 354.68,-549.61"/>
</g>
<!-- Node6 -->
<g id="node6" class="node">
<title>Node6</title>
<g id="a_node6"><a xlink:href="classL4_1_1Cap.html" target="_top" xlink:title="C++ interface for capabilities.">
<polygon fill="white" stroke="black" points="359,-386.5 359,-520.5 448,-520.5 448,-386.5 359,-386.5"/>
<text text-anchor="middle" x="403.5" y="-508.5" font-family="Helvetica,sans-Serif" font-size="10.00">L4::Cap&lt; T &gt;</text>
<polyline fill="none" stroke="black" points="359,-501.5 448,-501.5 "/>
<text text-anchor="middle" x="403.5" y="-489.5" font-family="Helvetica,sans-Serif" font-size="10.00"> </text>
<polyline fill="none" stroke="black" points="359,-482.5 448,-482.5 "/>
<text text-anchor="start" x="367" y="-470.5" font-family="Helvetica,sans-Serif" font-size="10.00">+ Cap()</text>
<text text-anchor="start" x="367" y="-459.5" font-family="Helvetica,sans-Serif" font-size="10.00">+ Cap()</text>
<text text-anchor="start" x="367" y="-448.5" font-family="Helvetica,sans-Serif" font-size="10.00">+ Cap()</text>
<text text-anchor="start" x="367" y="-437.5" font-family="Helvetica,sans-Serif" font-size="10.00">+ Cap()</text>
<text text-anchor="start" x="367" y="-426.5" font-family="Helvetica,sans-Serif" font-size="10.00">+ Cap()</text>
<text text-anchor="start" x="367" y="-415.5" font-family="Helvetica,sans-Serif" font-size="10.00">+ move()</text>
<text text-anchor="start" x="367" y="-404.5" font-family="Helvetica,sans-Serif" font-size="10.00">+ copy()</text>
<text text-anchor="start" x="367" y="-393.5" font-family="Helvetica,sans-Serif" font-size="10.00">+ operator&#45;&gt;()</text>
</a>
</g>
</g>
<!-- Node5&#45;&gt;Node6 -->
<g id="edge6" class="edge">
<title>Node5&#45;&gt;Node6</title>
<path fill="none" stroke="midnightblue" d="M403.5,-548.11C403.5,-538.7 403.5,-529.42 403.5,-520.59"/>
<polygon fill="none" stroke="midnightblue" points="400,-548.37 403.5,-558.37 407,-548.37 400,-548.37"/>
</g>
<!-- Node8 -->
<g id="node8" class="node">
<title>Node8</title>
<g id="a_node8"><a xlink:href="classL4_1_1Cap.html" target="_top" xlink:title=" ">
<polygon fill="white" stroke="black" points="398.5,-193.5 398.5,-327.5 524.5,-327.5 524.5,-193.5 398.5,-193.5"/>
<text text-anchor="middle" x="461.5" y="-315.5" font-family="Helvetica,sans-Serif" font-size="10.00">L4::Cap&lt; L4::Thread &gt;</text>
<polyline fill="none" stroke="black" points="398.5,-308.5 524.5,-308.5 "/>
<text text-anchor="middle" x="461.5" y="-296.5" font-family="Helvetica,sans-Serif" font-size="10.00"> </text>
<polyline fill="none" stroke="black" points="398.5,-289.5 524.5,-289.5 "/>
<text text-anchor="start" x="406.5" y="-277.5" font-family="Helvetica,sans-Serif" font-size="10.00">+ Cap()</text>
<text text-anchor="start" x="406.5" y="-266.5" font-family="Helvetica,sans-Serif" font-size="10.00">+ Cap()</text>
<text text-anchor="start" x="406.5" y="-255.5" font-family="Helvetica,sans-Serif" font-size="10.00">+ Cap()</text>
<text text-anchor="start" x="406.5" y="-244.5" font-family="Helvetica,sans-Serif" font-size="10.00">+ Cap()</text>
<text text-anchor="start" x="406.5" y="-233.5" font-family="Helvetica,sans-Serif" font-size="10.00">+ Cap()</text>
<text text-anchor="start" x="406.5" y="-222.5" font-family="Helvetica,sans-Serif" font-size="10.00">+ move()</text>
<text text-anchor="start" x="406.5" y="-211.5" font-family="Helvetica,sans-Serif" font-size="10.00">+ copy()</text>
<text text-anchor="start" x="406.5" y="-200.5" font-family="Helvetica,sans-Serif" font-size="10.00">+ operator&#45;&gt;()</text>
</a>
</g>
</g>
<!-- Node5&#45;&gt;Node8 -->
<g id="edge9" class="edge">
<title>Node5&#45;&gt;Node8</title>
<path fill="none" stroke="midnightblue" d="M457.8,-548.71C479.43,-494.69 501.72,-429.36 512.5,-368 514.9,-354.37 512.48,-340.53 507.63,-327.52"/>
<polygon fill="none" stroke="midnightblue" points="454.42,-547.73 453.92,-558.31 460.91,-550.36 454.42,-547.73"/>
</g>
<!-- Node6&#45;&gt;Node4 -->
<g id="edge5" class="edge">
<title>Node6&#45;&gt;Node4</title>
<path fill="none" stroke="orange" d="M353.96,-380.83C351.65,-376.56 349.48,-372.27 347.5,-368 341.63,-355.33 336.59,-341.3 332.4,-327.69"/>
<polygon fill="orange" stroke="orange" points="350.92,-382.56 358.87,-389.56 357.02,-379.13 350.92,-382.56"/>
<text text-anchor="middle" x="387" y="-360" font-family="Helvetica,sans-Serif" font-size="10.00"> &lt; L4::Factory &gt;</text>
</g>
<!-- Node6&#45;&gt;Node8 -->
<g id="edge10" class="edge">
<title>Node6&#45;&gt;Node8</title>
<path fill="none" stroke="orange" d="M426.63,-376.32C431.52,-360.22 436.65,-343.35 441.41,-327.65"/>
<polygon fill="orange" stroke="orange" points="423.18,-375.65 423.62,-386.23 429.88,-377.68 423.18,-375.65"/>
<text text-anchor="middle" x="471" y="-360" font-family="Helvetica,sans-Serif" font-size="10.00"> &lt; L4::Thread &gt;</text>
</g>
<!-- Node7 -->
<g id="node7" class="node">
<title>Node7</title>
<g id="a_node7"><a xlink:href="classL4_1_1Ipc__svr_1_1Server__iface.html" target="_top" xlink:title="Interface for server&#45;loop related functions.">
<polygon fill="white" stroke="black" points="543,-182.5 543,-338.5 680,-338.5 680,-182.5 543,-182.5"/>
<text text-anchor="start" x="551" y="-326.5" font-family="Helvetica,sans-Serif" font-size="10.00">L4::Ipc_svr::Server</text>
<text text-anchor="middle" x="611.5" y="-315.5" font-family="Helvetica,sans-Serif" font-size="10.00">_iface</text>
<polyline fill="none" stroke="black" points="543,-308.5 680,-308.5 "/>
<text text-anchor="middle" x="611.5" y="-296.5" font-family="Helvetica,sans-Serif" font-size="10.00"> </text>
<polyline fill="none" stroke="black" points="543,-289.5 680,-289.5 "/>
<text text-anchor="start" x="551" y="-277.5" font-family="Helvetica,sans-Serif" font-size="10.00">+ Server_iface()</text>
<text text-anchor="start" x="551" y="-266.5" font-family="Helvetica,sans-Serif" font-size="10.00">+ ~Server_iface()</text>
<text text-anchor="start" x="551" y="-255.5" font-family="Helvetica,sans-Serif" font-size="10.00">+ alloc_buffer_demand()</text>
<text text-anchor="start" x="551" y="-244.5" font-family="Helvetica,sans-Serif" font-size="10.00">+ get_rcv_cap()</text>
<text text-anchor="start" x="551" y="-233.5" font-family="Helvetica,sans-Serif" font-size="10.00">+ realloc_rcv_cap()</text>
<text text-anchor="start" x="551" y="-222.5" font-family="Helvetica,sans-Serif" font-size="10.00">+ add_timeout()</text>
<text text-anchor="start" x="551" y="-211.5" font-family="Helvetica,sans-Serif" font-size="10.00">+ remove_timeout()</text>
<text text-anchor="start" x="551" y="-200.5" font-family="Helvetica,sans-Serif" font-size="10.00">+ rcv_cap()</text>
<text text-anchor="start" x="551" y="-189.5" font-family="Helvetica,sans-Serif" font-size="10.00">+ rcv_cap()</text>
</a>
</g>
</g>
<!-- Node7&#45;&gt;Node1 -->
<g id="edge7" class="edge">
<title>Node7&#45;&gt;Node1</title>
<path fill="none" stroke="#404040" d="M542.71,-189.1C539.66,-186.63 536.58,-184.26 533.5,-182 486.54,-147.61 427.75,-117.55 383.21,-97.01"/>
<polygon fill="none" stroke="#404040" points="383.13,-96.98 376.01,-98.13 372.21,-92 379.33,-90.85 383.13,-96.98"/>
<text text-anchor="middle" x="520" y="-156" font-family="Helvetica,sans-Serif" font-size="10.00"> #_sif</text>
</g>
<!-- Node8&#45;&gt;Node1 -->
<g id="edge8" class="edge">
<title>Node8&#45;&gt;Node1</title>
<path fill="none" stroke="#404040" d="M411.19,-193.23C399.27,-177.53 386.46,-160.66 374.24,-144.56"/>
<polygon fill="none" stroke="#404040" points="373.97,-144.21 367.16,-141.85 366.72,-134.65 373.53,-137.01 373.97,-144.21"/>
<text text-anchor="middle" x="413.5" y="-156" font-family="Helvetica,sans-Serif" font-size="10.00"> #_server</text>
</g>
</g>
</svg>
