<?xml version="1.0" encoding="UTF-8" standalone="no"?>
<!DOCTYPE svg PUBLIC "-//W3C//DTD SVG 1.1//EN"
 "http://www.w3.org/Graphics/SVG/1.1/DTD/svg11.dtd">
<!-- Generated by graphviz version 2.43.0 (0)
 -->
<!-- Title: L4Re::Env::env Pages: 1 -->
<svg width="422pt" height="110pt"
 viewBox="0.00 0.00 422.00 110.00" xmlns="http://www.w3.org/2000/svg" xmlns:xlink="http://www.w3.org/1999/xlink">
<g id="graph0" class="graph" transform="scale(1 1) rotate(0) translate(4 106)">
<title>L4Re::Env::env</title>
<polygon fill="white" stroke="transparent" points="-4,4 -4,-106 418,-106 418,4 -4,4"/>
<!-- Node1 -->
<g id="node1" class="node">
<title>Node1</title>
<g id="a_node1"><a xlink:title="Returns the initial environment for the current task.">
<polygon fill="#bfbfbf" stroke="black" points="326,-28 326,-47 414,-47 414,-28 326,-28"/>
<text text-anchor="middle" x="370" y="-35" font-family="Helvetica,sans-Serif" font-size="10.00">L4Re::Env::env</text>
</a>
</g>
</g>
<!-- Node2 -->
<g id="node2" class="node">
<title>Node2</title>
<g id="a_node2"><a xlink:href="classL4virtio_1_1Svr_1_1Dev__config.html#a663b81f49e6ce03f9b7e136d6646bf89" target="_top" xlink:title="Create a L4&#45;Virtio config data space.">
<polygon fill="white" stroke="black" points="170,-71.5 170,-101.5 281,-101.5 281,-71.5 170,-71.5"/>
<text text-anchor="start" x="178" y="-89.5" font-family="Helvetica,sans-Serif" font-size="10.00">L4virtio::Svr::Dev</text>
<text text-anchor="middle" x="225.5" y="-78.5" font-family="Helvetica,sans-Serif" font-size="10.00">_config::Dev_config</text>
</a>
</g>
</g>
<!-- Node1&#45;&gt;Node2 -->
<g id="edge1" class="edge">
<title>Node1&#45;&gt;Node2</title>
<path fill="none" stroke="midnightblue" d="M331.49,-50.4C312.69,-56.86 289.82,-64.73 270.23,-71.46"/>
<polygon fill="midnightblue" stroke="midnightblue" points="332.87,-53.63 341.19,-47.06 330.59,-47.01 332.87,-53.63"/>
</g>
<!-- Node3 -->
<g id="node3" class="node">
<title>Node3</title>
<g id="a_node3"><a xlink:href="classL4virtio_1_1Driver_1_1Device.html#a4f8b3d73188c3b6664755b81b80e441c" target="_top" xlink:title="Contacts the device and starts the initial handshake.">
<polygon fill="white" stroke="black" points="161,-22.5 161,-52.5 290,-52.5 290,-22.5 161,-22.5"/>
<text text-anchor="start" x="169" y="-40.5" font-family="Helvetica,sans-Serif" font-size="10.00">L4virtio::Driver::Device</text>
<text text-anchor="middle" x="225.5" y="-29.5" font-family="Helvetica,sans-Serif" font-size="10.00">::driver_connect</text>
</a>
</g>
</g>
<!-- Node1&#45;&gt;Node3 -->
<g id="edge2" class="edge">
<title>Node1&#45;&gt;Node3</title>
<path fill="none" stroke="midnightblue" d="M315.61,-37.5C307.34,-37.5 298.73,-37.5 290.26,-37.5"/>
<polygon fill="midnightblue" stroke="midnightblue" points="315.86,-41 325.86,-37.5 315.86,-34 315.86,-41"/>
</g>
<!-- Node4 -->
<g id="node4" class="node">
<title>Node4</title>
<g id="a_node4"><a xlink:href="classL4virtio_1_1Driver_1_1Block__device.html#a688df51bdec4ba327a6c0b48a83a115a" target="_top" xlink:title="Setup a connection to a device and set up shared memory.">
<polygon fill="white" stroke="black" points="0,-0.5 0,-30.5 125,-30.5 125,-0.5 0,-0.5"/>
<text text-anchor="start" x="8" y="-18.5" font-family="Helvetica,sans-Serif" font-size="10.00">L4virtio::Driver::Block</text>
<text text-anchor="middle" x="62.5" y="-7.5" font-family="Helvetica,sans-Serif" font-size="10.00">_device::setup_device</text>
</a>
</g>
</g>
<!-- Node1&#45;&gt;Node4 -->
<g id="edge4" class="edge">
<title>Node1&#45;&gt;Node4</title>
<path fill="none" stroke="midnightblue" d="M334.67,-24.66C320.98,-20.18 304.95,-15.72 290,-13.5 234.77,-5.3 171.12,-6.81 125.38,-9.78"/>
<polygon fill="midnightblue" stroke="midnightblue" points="333.58,-27.99 344.17,-27.9 335.83,-21.36 333.58,-27.99"/>
</g>
<!-- Node3&#45;&gt;Node4 -->
<g id="edge3" class="edge">
<title>Node3&#45;&gt;Node4</title>
<path fill="none" stroke="midnightblue" d="M150.84,-27.43C142.23,-26.26 133.51,-25.07 125.09,-23.92"/>
<polygon fill="midnightblue" stroke="midnightblue" points="150.49,-30.92 160.87,-28.81 151.43,-23.98 150.49,-30.92"/>
</g>
</g>
</svg>
