<?xml version="1.0" encoding="UTF-8" standalone="no"?>
<!DOCTYPE svg PUBLIC "-//W3C//DTD SVG 1.1//EN"
 "http://www.w3.org/Graphics/SVG/1.1/DTD/svg11.dtd">
<!-- Generated by graphviz version 2.43.0 (0)
 -->
<!-- Title: L4virtio::Svr::Request_processor::next Pages: 1 -->
<svg width="287pt" height="88pt"
 viewBox="0.00 0.00 287.00 88.00" xmlns="http://www.w3.org/2000/svg" xmlns:xlink="http://www.w3.org/1999/xlink">
<g id="graph0" class="graph" transform="scale(1 1) rotate(0) translate(4 84)">
<title>L4virtio::Svr::Request_processor::next</title>
<polygon fill="white" stroke="transparent" points="-4,4 -4,-84 283,-84 283,4 -4,4"/>
<!-- Node1 -->
<g id="node1" class="node">
<title>Node1</title>
<g id="a_node1"><a xlink:title="Switch to the next descriptor in a descriptor chain.">
<polygon fill="#bfbfbf" stroke="black" points="0,-24.5 0,-54.5 121,-54.5 121,-24.5 0,-24.5"/>
<text text-anchor="start" x="8" y="-42.5" font-family="Helvetica,sans-Serif" font-size="10.00">L4virtio::Svr::Request</text>
<text text-anchor="middle" x="60.5" y="-31.5" font-family="Helvetica,sans-Serif" font-size="10.00">_processor::next</text>
</a>
</g>
</g>
<!-- Node2 -->
<g id="node2" class="node">
<title>Node2</title>
<g id="a_node2"><a xlink:href="structL4virtio_1_1Virtqueue_1_1Desc_1_1Flags.html#a978fd95c3be397943f14b0e5c2c9937b" target="_top" xlink:title="Get the indirect bits ( 2 to 2 ) of raw.">
<polygon fill="white" stroke="black" points="157,-49.5 157,-79.5 279,-79.5 279,-49.5 157,-49.5"/>
<text text-anchor="start" x="165" y="-67.5" font-family="Helvetica,sans-Serif" font-size="10.00">L4virtio::Virtqueue</text>
<text text-anchor="middle" x="218" y="-56.5" font-family="Helvetica,sans-Serif" font-size="10.00">::Desc::Flags::indirect</text>
</a>
</g>
</g>
<!-- Node1&#45;&gt;Node2 -->
<g id="edge1" class="edge">
<title>Node1&#45;&gt;Node2</title>
<path fill="none" stroke="midnightblue" d="M121.18,-49.09C129.61,-50.45 138.34,-51.85 146.95,-53.24"/>
<polygon fill="midnightblue" stroke="midnightblue" points="146.54,-56.72 156.97,-54.85 147.65,-49.81 146.54,-56.72"/>
</g>
<!-- Node3 -->
<g id="node3" class="node">
<title>Node3</title>
<g id="a_node3"><a xlink:href="structL4virtio_1_1Virtqueue_1_1Desc_1_1Flags.html#a4c91d7f9a29c6b9f80d7db69ea066863" target="_top" xlink:title="Get the next bits ( 0 to 0 ) of raw.">
<polygon fill="white" stroke="black" points="164.5,-0.5 164.5,-30.5 271.5,-30.5 271.5,-0.5 164.5,-0.5"/>
<text text-anchor="start" x="172.5" y="-18.5" font-family="Helvetica,sans-Serif" font-size="10.00">L4virtio::Virtqueue</text>
<text text-anchor="middle" x="218" y="-7.5" font-family="Helvetica,sans-Serif" font-size="10.00">::Desc::Flags::next</text>
</a>
</g>
</g>
<!-- Node1&#45;&gt;Node3 -->
<g id="edge2" class="edge">
<title>Node1&#45;&gt;Node3</title>
<path fill="none" stroke="midnightblue" d="M121.18,-30.29C132.06,-28.61 143.45,-26.85 154.41,-25.16"/>
<polygon fill="midnightblue" stroke="midnightblue" points="154.99,-28.61 164.34,-23.63 153.92,-21.69 154.99,-28.61"/>
</g>
</g>
</svg>
