<?xml version="1.0" encoding="UTF-8" standalone="no"?>
<!DOCTYPE svg PUBLIC "-//W3C//DTD SVG 1.1//EN"
 "http://www.w3.org/Graphics/SVG/1.1/DTD/svg11.dtd">
<!-- Generated by graphviz version 2.43.0 (0)
 -->
<!-- Title: L4virtio::Virtqueue::total_size Pages: 1 -->
<svg width="276pt" height="39pt"
 viewBox="0.00 0.00 276.00 39.00" xmlns="http://www.w3.org/2000/svg" xmlns:xlink="http://www.w3.org/1999/xlink">
<g id="graph0" class="graph" transform="scale(1 1) rotate(0) translate(4 35)">
<title>L4virtio::Virtqueue::total_size</title>
<polygon fill="white" stroke="transparent" points="-4,4 -4,-35 272,-35 272,4 -4,4"/>
<!-- Node1 -->
<g id="node1" class="node">
<title>Node1</title>
<g id="a_node1"><a xlink:title="Calculate the total size for a virtqueue of the given dimensions.">
<polygon fill="#bfbfbf" stroke="black" points="161,-0.5 161,-30.5 268,-30.5 268,-0.5 161,-0.5"/>
<text text-anchor="start" x="169" y="-18.5" font-family="Helvetica,sans-Serif" font-size="10.00">L4virtio::Virtqueue</text>
<text text-anchor="middle" x="214.5" y="-7.5" font-family="Helvetica,sans-Serif" font-size="10.00">::total_size</text>
</a>
</g>
</g>
<!-- Node2 -->
<g id="node2" class="node">
<title>Node2</title>
<g id="a_node2"><a xlink:href="classL4virtio_1_1Driver_1_1Block__device.html#a688df51bdec4ba327a6c0b48a83a115a" target="_top" xlink:title="Setup a connection to a device and set up shared memory.">
<polygon fill="white" stroke="black" points="0,-0.5 0,-30.5 125,-30.5 125,-0.5 0,-0.5"/>
<text text-anchor="start" x="8" y="-18.5" font-family="Helvetica,sans-Serif" font-size="10.00">L4virtio::Driver::Block</text>
<text text-anchor="middle" x="62.5" y="-7.5" font-family="Helvetica,sans-Serif" font-size="10.00">_device::setup_device</text>
</a>
</g>
</g>
<!-- Node1&#45;&gt;Node2 -->
<g id="edge1" class="edge">
<title>Node1&#45;&gt;Node2</title>
<path fill="none" stroke="midnightblue" d="M150.51,-15.5C142.11,-15.5 133.51,-15.5 125.14,-15.5"/>
<polygon fill="midnightblue" stroke="midnightblue" points="150.62,-19 160.62,-15.5 150.62,-12 150.62,-19"/>
</g>
</g>
</svg>
