<?xml version="1.0" encoding="UTF-8" standalone="no"?>
<!DOCTYPE svg PUBLIC "-//W3C//DTD SVG 1.1//EN"
 "http://www.w3.org/Graphics/SVG/1.1/DTD/svg11.dtd">
<!-- Generated by graphviz version 2.43.0 (0)
 -->
<!-- Title: L4virtio::Driver::Block_device Pages: 1 -->
<svg width="236pt" height="1016pt"
 viewBox="0.00 0.00 235.50 1016.00" xmlns="http://www.w3.org/2000/svg" xmlns:xlink="http://www.w3.org/1999/xlink">
<g id="graph0" class="graph" transform="scale(1 1) rotate(0) translate(4 1012)">
<title>L4virtio::Driver::Block_device</title>
<polygon fill="white" stroke="transparent" points="-4,4 -4,-1012 231.5,-1012 231.5,4 -4,4"/>
<!-- Node1 -->
<g id="node1" class="node">
<title>Node1</title>
<g id="a_node1"><a xlink:title="Simple class for accessing a virtio block device synchronously.">
<polygon fill="#bfbfbf" stroke="black" points="25,-0.5 25,-145.5 162,-145.5 162,-0.5 25,-0.5"/>
<text text-anchor="start" x="33" y="-133.5" font-family="Helvetica,sans-Serif" font-size="10.00">L4virtio::Driver::Block</text>
<text text-anchor="middle" x="93.5" y="-122.5" font-family="Helvetica,sans-Serif" font-size="10.00">_device</text>
<polyline fill="none" stroke="black" points="25,-115.5 162,-115.5 "/>
<text text-anchor="start" x="33" y="-103.5" font-family="Helvetica,sans-Serif" font-size="10.00"># _queue_ds</text>
<polyline fill="none" stroke="black" points="25,-96.5 162,-96.5 "/>
<text text-anchor="start" x="33" y="-84.5" font-family="Helvetica,sans-Serif" font-size="10.00">+ setup_device()</text>
<text text-anchor="start" x="33" y="-73.5" font-family="Helvetica,sans-Serif" font-size="10.00">+ device_config()</text>
<text text-anchor="start" x="33" y="-62.5" font-family="Helvetica,sans-Serif" font-size="10.00">+ start_request()</text>
<text text-anchor="start" x="33" y="-51.5" font-family="Helvetica,sans-Serif" font-size="10.00">+ add_block()</text>
<text text-anchor="start" x="33" y="-40.5" font-family="Helvetica,sans-Serif" font-size="10.00">+ send_request()</text>
<text text-anchor="start" x="33" y="-29.5" font-family="Helvetica,sans-Serif" font-size="10.00">+ process_request()</text>
<text text-anchor="start" x="33" y="-18.5" font-family="Helvetica,sans-Serif" font-size="10.00">+ free_request()</text>
<text text-anchor="start" x="33" y="-7.5" font-family="Helvetica,sans-Serif" font-size="10.00">+ process_used_queue()</text>
</a>
</g>
</g>
<!-- Node2 -->
<g id="node2" class="node">
<title>Node2</title>
<g id="a_node2"><a xlink:href="classL4virtio_1_1Driver_1_1Device.html" target="_top" xlink:title="Client&#45;side implementation for a general virtio device.">
<polygon fill="white" stroke="black" points="26.5,-183.5 26.5,-372.5 160.5,-372.5 160.5,-183.5 26.5,-183.5"/>
<text text-anchor="middle" x="93.5" y="-360.5" font-family="Helvetica,sans-Serif" font-size="10.00">L4virtio::Driver::Device</text>
<polyline fill="none" stroke="black" points="26.5,-353.5 160.5,-353.5 "/>
<text text-anchor="start" x="34.5" y="-341.5" font-family="Helvetica,sans-Serif" font-size="10.00"># _config</text>
<text text-anchor="start" x="34.5" y="-330.5" font-family="Helvetica,sans-Serif" font-size="10.00"># _next_devaddr</text>
<text text-anchor="start" x="34.5" y="-319.5" font-family="Helvetica,sans-Serif" font-size="10.00"># _driver_notification</text>
<polyline fill="none" stroke="black" points="26.5,-312.5 160.5,-312.5 "/>
<text text-anchor="start" x="34.5" y="-300.5" font-family="Helvetica,sans-Serif" font-size="10.00">+ driver_connect()</text>
<text text-anchor="start" x="34.5" y="-289.5" font-family="Helvetica,sans-Serif" font-size="10.00">+ bind_notification_irq()</text>
<text text-anchor="start" x="34.5" y="-278.5" font-family="Helvetica,sans-Serif" font-size="10.00">+ fail_state()</text>
<text text-anchor="start" x="34.5" y="-267.5" font-family="Helvetica,sans-Serif" font-size="10.00">+ driver_acknowledge()</text>
<text text-anchor="start" x="34.5" y="-256.5" font-family="Helvetica,sans-Serif" font-size="10.00">+ register_ds()</text>
<text text-anchor="start" x="34.5" y="-245.5" font-family="Helvetica,sans-Serif" font-size="10.00">+ config_queue()</text>
<text text-anchor="start" x="34.5" y="-234.5" font-family="Helvetica,sans-Serif" font-size="10.00">+ max_queue_size()</text>
<text text-anchor="start" x="34.5" y="-223.5" font-family="Helvetica,sans-Serif" font-size="10.00">+ send_and_wait()</text>
<text text-anchor="start" x="34.5" y="-212.5" font-family="Helvetica,sans-Serif" font-size="10.00">+ wait()</text>
<text text-anchor="start" x="34.5" y="-201.5" font-family="Helvetica,sans-Serif" font-size="10.00">+ wait_for_next_used()</text>
<text text-anchor="start" x="34.5" y="-190.5" font-family="Helvetica,sans-Serif" font-size="10.00">+ send()</text>
</a>
</g>
</g>
<!-- Node2&#45;&gt;Node1 -->
<g id="edge1" class="edge">
<title>Node2&#45;&gt;Node1</title>
<path fill="none" stroke="midnightblue" d="M93.5,-173.11C93.5,-163.78 93.5,-154.47 93.5,-145.51"/>
<polygon fill="none" stroke="midnightblue" points="90,-173.22 93.5,-183.22 97,-173.22 90,-173.22"/>
</g>
<!-- Node3 -->
<g id="node3" class="node">
<title>Node3</title>
<g id="a_node3"><a xlink:href="classL4_1_1Cap.html" target="_top" xlink:title=" ">
<polygon fill="white" stroke="black" points="40,-420.5 40,-565.5 147,-565.5 147,-420.5 40,-420.5"/>
<text text-anchor="start" x="48" y="-553.5" font-family="Helvetica,sans-Serif" font-size="10.00">L4::Cap&lt; L4virtio::</text>
<text text-anchor="middle" x="93.5" y="-542.5" font-family="Helvetica,sans-Serif" font-size="10.00">Device &gt;</text>
<polyline fill="none" stroke="black" points="40,-535.5 147,-535.5 "/>
<text text-anchor="middle" x="93.5" y="-523.5" font-family="Helvetica,sans-Serif" font-size="10.00"> </text>
<polyline fill="none" stroke="black" points="40,-516.5 147,-516.5 "/>
<text text-anchor="start" x="48" y="-504.5" font-family="Helvetica,sans-Serif" font-size="10.00">+ Cap()</text>
<text text-anchor="start" x="48" y="-493.5" font-family="Helvetica,sans-Serif" font-size="10.00">+ Cap()</text>
<text text-anchor="start" x="48" y="-482.5" font-family="Helvetica,sans-Serif" font-size="10.00">+ Cap()</text>
<text text-anchor="start" x="48" y="-471.5" font-family="Helvetica,sans-Serif" font-size="10.00">+ Cap()</text>
<text text-anchor="start" x="48" y="-460.5" font-family="Helvetica,sans-Serif" font-size="10.00">+ Cap()</text>
<text text-anchor="start" x="48" y="-449.5" font-family="Helvetica,sans-Serif" font-size="10.00">+ move()</text>
<text text-anchor="start" x="48" y="-438.5" font-family="Helvetica,sans-Serif" font-size="10.00">+ copy()</text>
<text text-anchor="start" x="48" y="-427.5" font-family="Helvetica,sans-Serif" font-size="10.00">+ operator&#45;&gt;()</text>
</a>
</g>
</g>
<!-- Node3&#45;&gt;Node2 -->
<g id="edge2" class="edge">
<title>Node3&#45;&gt;Node2</title>
<path fill="none" stroke="#404040" d="M93.5,-420.48C93.5,-408.97 93.5,-396.84 93.5,-384.73"/>
<polygon fill="none" stroke="#404040" points="93.5,-384.65 89.5,-378.65 93.5,-372.65 97.5,-378.65 93.5,-384.65"/>
<text text-anchor="middle" x="118" y="-394" font-family="Helvetica,sans-Serif" font-size="10.00"> #_device</text>
</g>
<!-- Node4 -->
<g id="node4" class="node">
<title>Node4</title>
<g id="a_node4"><a xlink:href="classL4_1_1Cap__base.html" target="_top" xlink:title="Base class for all kinds of capabilities.">
<polygon fill="white" stroke="black" points="0,-785.5 0,-1007.5 179,-1007.5 179,-785.5 0,-785.5"/>
<text text-anchor="middle" x="89.5" y="-995.5" font-family="Helvetica,sans-Serif" font-size="10.00">L4::Cap_base</text>
<polyline fill="none" stroke="black" points="0,-988.5 179,-988.5 "/>
<text text-anchor="start" x="8" y="-976.5" font-family="Helvetica,sans-Serif" font-size="10.00"># _c</text>
<polyline fill="none" stroke="black" points="0,-969.5 179,-969.5 "/>
<text text-anchor="start" x="8" y="-957.5" font-family="Helvetica,sans-Serif" font-size="10.00">+ cap()</text>
<text text-anchor="start" x="8" y="-946.5" font-family="Helvetica,sans-Serif" font-size="10.00">+ is_valid()</text>
<text text-anchor="start" x="8" y="-935.5" font-family="Helvetica,sans-Serif" font-size="10.00">+ operator Invalid_conversion *()</text>
<text text-anchor="start" x="8" y="-924.5" font-family="Helvetica,sans-Serif" font-size="10.00">+ fpage()</text>
<text text-anchor="start" x="8" y="-913.5" font-family="Helvetica,sans-Serif" font-size="10.00">+ snd_base()</text>
<text text-anchor="start" x="8" y="-902.5" font-family="Helvetica,sans-Serif" font-size="10.00">+ operator==()</text>
<text text-anchor="start" x="8" y="-891.5" font-family="Helvetica,sans-Serif" font-size="10.00">+ operator!=()</text>
<text text-anchor="start" x="8" y="-880.5" font-family="Helvetica,sans-Serif" font-size="10.00">+ validate()</text>
<text text-anchor="start" x="8" y="-869.5" font-family="Helvetica,sans-Serif" font-size="10.00">+ validate()</text>
<text text-anchor="start" x="8" y="-858.5" font-family="Helvetica,sans-Serif" font-size="10.00">+ invalidate()</text>
<text text-anchor="start" x="8" y="-847.5" font-family="Helvetica,sans-Serif" font-size="10.00"># Cap_base()</text>
<text text-anchor="start" x="8" y="-836.5" font-family="Helvetica,sans-Serif" font-size="10.00"># Cap_base()</text>
<text text-anchor="start" x="8" y="-825.5" font-family="Helvetica,sans-Serif" font-size="10.00"># Cap_base()</text>
<text text-anchor="start" x="8" y="-814.5" font-family="Helvetica,sans-Serif" font-size="10.00"># Cap_base()</text>
<text text-anchor="start" x="8" y="-803.5" font-family="Helvetica,sans-Serif" font-size="10.00"># move()</text>
<text text-anchor="start" x="8" y="-792.5" font-family="Helvetica,sans-Serif" font-size="10.00"># copy()</text>
</a>
</g>
</g>
<!-- Node4&#45;&gt;Node3 -->
<g id="edge3" class="edge">
<title>Node4&#45;&gt;Node3</title>
<path fill="none" stroke="midnightblue" d="M90.7,-774.88C91.38,-706.68 92.21,-623.73 92.79,-565.72"/>
<polygon fill="none" stroke="midnightblue" points="87.2,-775.22 90.6,-785.26 94.2,-775.29 87.2,-775.22"/>
</g>
<!-- Node5 -->
<g id="node5" class="node">
<title>Node5</title>
<g id="a_node5"><a xlink:href="classL4_1_1Cap.html" target="_top" xlink:title="C++ interface for capabilities.">
<polygon fill="white" stroke="black" points="106,-613.5 106,-747.5 195,-747.5 195,-613.5 106,-613.5"/>
<text text-anchor="middle" x="150.5" y="-735.5" font-family="Helvetica,sans-Serif" font-size="10.00">L4::Cap&lt; T &gt;</text>
<polyline fill="none" stroke="black" points="106,-728.5 195,-728.5 "/>
<text text-anchor="middle" x="150.5" y="-716.5" font-family="Helvetica,sans-Serif" font-size="10.00"> </text>
<polyline fill="none" stroke="black" points="106,-709.5 195,-709.5 "/>
<text text-anchor="start" x="114" y="-697.5" font-family="Helvetica,sans-Serif" font-size="10.00">+ Cap()</text>
<text text-anchor="start" x="114" y="-686.5" font-family="Helvetica,sans-Serif" font-size="10.00">+ Cap()</text>
<text text-anchor="start" x="114" y="-675.5" font-family="Helvetica,sans-Serif" font-size="10.00">+ Cap()</text>
<text text-anchor="start" x="114" y="-664.5" font-family="Helvetica,sans-Serif" font-size="10.00">+ Cap()</text>
<text text-anchor="start" x="114" y="-653.5" font-family="Helvetica,sans-Serif" font-size="10.00">+ Cap()</text>
<text text-anchor="start" x="114" y="-642.5" font-family="Helvetica,sans-Serif" font-size="10.00">+ move()</text>
<text text-anchor="start" x="114" y="-631.5" font-family="Helvetica,sans-Serif" font-size="10.00">+ copy()</text>
<text text-anchor="start" x="114" y="-620.5" font-family="Helvetica,sans-Serif" font-size="10.00">+ operator&#45;&gt;()</text>
</a>
</g>
</g>
<!-- Node4&#45;&gt;Node5 -->
<g id="edge5" class="edge">
<title>Node4&#45;&gt;Node5</title>
<path fill="none" stroke="midnightblue" d="M123.65,-775.71C126.39,-766.09 129.09,-756.61 131.66,-747.59"/>
<polygon fill="none" stroke="midnightblue" points="120.27,-774.79 120.89,-785.37 127,-776.71 120.27,-774.79"/>
</g>
<!-- Node5&#45;&gt;Node3 -->
<g id="edge4" class="edge">
<title>Node5&#45;&gt;Node3</title>
<path fill="none" stroke="orange" d="M127.22,-603.75C123.34,-591.11 119.32,-578.03 115.47,-565.5"/>
<polygon fill="orange" stroke="orange" points="123.88,-604.79 130.16,-613.32 130.57,-602.73 123.88,-604.79"/>
<text text-anchor="middle" x="176" y="-587" font-family="Helvetica,sans-Serif" font-size="10.00"> &lt; L4virtio::Device &gt;</text>
</g>
</g>
</svg>
