<?xml version="1.0" encoding="UTF-8" standalone="no"?>
<!DOCTYPE svg PUBLIC "-//W3C//DTD SVG 1.1//EN"
 "http://www.w3.org/Graphics/SVG/1.1/DTD/svg11.dtd">
<!-- Generated by graphviz version 2.43.0 (0)
 -->
<!-- Title: L4::Iommu Pages: 1 -->
<svg width="217pt" height="332pt"
 viewBox="0.00 0.00 217.00 332.00" xmlns="http://www.w3.org/2000/svg" xmlns:xlink="http://www.w3.org/1999/xlink">
<g id="graph0" class="graph" transform="scale(1 1) rotate(0) translate(4 328)">
<title>L4::Iommu</title>
<polygon fill="white" stroke="transparent" points="-4,4 -4,-328 213,-328 213,4 -4,4"/>
<!-- Node1 -->
<g id="node1" class="node">
<title>Node1</title>
<g id="a_node1"><a xlink:title="Interface for IO&#45;MMUs used for DMA remapping.">
<polygon fill="#bfbfbf" stroke="black" points="54,-0.5 54,-68.5 122,-68.5 122,-0.5 54,-0.5"/>
<text text-anchor="middle" x="88" y="-56.5" font-family="Helvetica,sans-Serif" font-size="10.00">L4::Iommu</text>
<polyline fill="none" stroke="black" points="54,-49.5 122,-49.5 "/>
<text text-anchor="middle" x="88" y="-37.5" font-family="Helvetica,sans-Serif" font-size="10.00"> </text>
<polyline fill="none" stroke="black" points="54,-30.5 122,-30.5 "/>
<text text-anchor="start" x="62" y="-18.5" font-family="Helvetica,sans-Serif" font-size="10.00">+ bind()</text>
<text text-anchor="start" x="62" y="-7.5" font-family="Helvetica,sans-Serif" font-size="10.00">+ unbind()</text>
</a>
</g>
</g>
<!-- Node2 -->
<g id="node2" class="node">
<title>Node2</title>
<g id="a_node2"><a xlink:href="structL4_1_1Kobject__x.html" target="_top" xlink:title=" ">
<polygon fill="white" stroke="black" points="0,-106.5 0,-185.5 176,-185.5 176,-106.5 0,-106.5"/>
<text text-anchor="start" x="8" y="-173.5" font-family="Helvetica,sans-Serif" font-size="10.00">L4::Kobject_x&lt; Iommu,</text>
<text text-anchor="start" x="8" y="-162.5" font-family="Helvetica,sans-Serif" font-size="10.00"> Proto_t&lt; L4_PROTO_IOMMU</text>
<text text-anchor="middle" x="88" y="-151.5" font-family="Helvetica,sans-Serif" font-size="10.00"> &gt;, Type_info::Demand_t&lt; 1 &gt; &gt;</text>
<polyline fill="none" stroke="black" points="0,-144.5 176,-144.5 "/>
<text text-anchor="middle" x="88" y="-132.5" font-family="Helvetica,sans-Serif" font-size="10.00"> </text>
<polyline fill="none" stroke="black" points="0,-125.5 176,-125.5 "/>
<text text-anchor="middle" x="88" y="-113.5" font-family="Helvetica,sans-Serif" font-size="10.00"> </text>
</a>
</g>
</g>
<!-- Node2&#45;&gt;Node1 -->
<g id="edge1" class="edge">
<title>Node2&#45;&gt;Node1</title>
<path fill="none" stroke="midnightblue" d="M88,-96.38C88,-87.02 88,-77.41 88,-68.67"/>
<polygon fill="none" stroke="midnightblue" points="84.5,-96.39 88,-106.39 91.5,-96.39 84.5,-96.39"/>
</g>
<!-- Node3 -->
<g id="node3" class="node">
<title>Node3</title>
<g id="a_node3"><a xlink:href="structL4_1_1Kobject__x.html" target="_top" xlink:title="Generic Kobject inheritance template.">
<polygon fill="white" stroke="black" points="21,-255.5 21,-323.5 155,-323.5 155,-255.5 21,-255.5"/>
<text text-anchor="start" x="29" y="-311.5" font-family="Helvetica,sans-Serif" font-size="10.00">L4::Kobject_x&lt; Derived,</text>
<text text-anchor="middle" x="88" y="-300.5" font-family="Helvetica,sans-Serif" font-size="10.00"> ARGS &gt;</text>
<polyline fill="none" stroke="black" points="21,-293.5 155,-293.5 "/>
<text text-anchor="middle" x="88" y="-281.5" font-family="Helvetica,sans-Serif" font-size="10.00"> </text>
<polyline fill="none" stroke="black" points="21,-274.5 155,-274.5 "/>
<text text-anchor="middle" x="88" y="-262.5" font-family="Helvetica,sans-Serif" font-size="10.00"> </text>
</a>
</g>
</g>
<!-- Node3&#45;&gt;Node2 -->
<g id="edge2" class="edge">
<title>Node3&#45;&gt;Node2</title>
<path fill="none" stroke="orange" d="M88,-245.16C88,-226.2 88,-204.14 88,-185.73"/>
<polygon fill="orange" stroke="orange" points="84.5,-245.32 88,-255.32 91.5,-245.32 84.5,-245.32"/>
<text text-anchor="start" x="88" y="-229" font-family="Helvetica,sans-Serif" font-size="10.00"> &lt; Iommu, Proto_t&lt; L4</text>
<text text-anchor="start" x="88" y="-218" font-family="Helvetica,sans-Serif" font-size="10.00">_PROTO_IOMMU &gt;, Type</text>
<text text-anchor="middle" x="148.5" y="-207" font-family="Helvetica,sans-Serif" font-size="10.00">_info::Demand_t&lt; 1 &gt; &gt;</text>
</g>
</g>
</svg>
