<?xml version="1.0" encoding="UTF-8" standalone="no"?>
<!DOCTYPE svg PUBLIC "-//W3C//DTD SVG 1.1//EN"
 "http://www.w3.org/Graphics/SVG/1.1/DTD/svg11.dtd">
<!-- Generated by graphviz version 2.43.0 (0)
 -->
<!-- Title: L4::Ipc_svr::Timeout Pages: 1 -->
<svg width="123pt" height="204pt"
 viewBox="0.00 0.00 123.00 204.00" xmlns="http://www.w3.org/2000/svg" xmlns:xlink="http://www.w3.org/1999/xlink">
<g id="graph0" class="graph" transform="scale(1 1) rotate(0) translate(4 200)">
<title>L4::Ipc_svr::Timeout</title>
<polygon fill="white" stroke="transparent" points="-4,4 -4,-200 119,-200 119,4 -4,4"/>
<!-- Node1 -->
<g id="node1" class="node">
<title>Node1</title>
<g id="a_node1"><a xlink:title="Callback interface for Timeout_queue.">
<polygon fill="#bfbfbf" stroke="black" points="0,-0.5 0,-90.5 115,-90.5 115,-0.5 0,-0.5"/>
<text text-anchor="middle" x="57.5" y="-78.5" font-family="Helvetica,sans-Serif" font-size="10.00">L4::Ipc_svr::Timeout</text>
<polyline fill="none" stroke="black" points="0,-71.5 115,-71.5 "/>
<text text-anchor="middle" x="57.5" y="-59.5" font-family="Helvetica,sans-Serif" font-size="10.00"> </text>
<polyline fill="none" stroke="black" points="0,-52.5 115,-52.5 "/>
<text text-anchor="start" x="8" y="-40.5" font-family="Helvetica,sans-Serif" font-size="10.00">+ Timeout()</text>
<text text-anchor="start" x="8" y="-29.5" font-family="Helvetica,sans-Serif" font-size="10.00">+ ~Timeout()</text>
<text text-anchor="start" x="8" y="-18.5" font-family="Helvetica,sans-Serif" font-size="10.00">+ expired()</text>
<text text-anchor="start" x="8" y="-7.5" font-family="Helvetica,sans-Serif" font-size="10.00">+ timeout()</text>
</a>
</g>
</g>
<!-- Node2 -->
<g id="node2" class="node">
<title>Node2</title>
<g id="a_node2"><a xlink:href="classcxx_1_1H__list__item__t.html" target="_top" xlink:title="Basic element type for a double&#45;linked H_list.">
<polygon fill="white" stroke="black" points="3.5,-127.5 3.5,-195.5 111.5,-195.5 111.5,-127.5 3.5,-127.5"/>
<text text-anchor="middle" x="57.5" y="-183.5" font-family="Helvetica,sans-Serif" font-size="10.00">cxx::H_list_item</text>
<polyline fill="none" stroke="black" points="3.5,-176.5 111.5,-176.5 "/>
<text text-anchor="middle" x="57.5" y="-164.5" font-family="Helvetica,sans-Serif" font-size="10.00"> </text>
<polyline fill="none" stroke="black" points="3.5,-157.5 111.5,-157.5 "/>
<text text-anchor="start" x="11.5" y="-145.5" font-family="Helvetica,sans-Serif" font-size="10.00">+ H_list_item_t()</text>
<text text-anchor="start" x="11.5" y="-134.5" font-family="Helvetica,sans-Serif" font-size="10.00">+ ~H_list_item_t()</text>
</a>
</g>
</g>
<!-- Node2&#45;&gt;Node1 -->
<g id="edge1" class="edge">
<title>Node2&#45;&gt;Node1</title>
<path fill="none" stroke="midnightblue" d="M57.5,-116.97C57.5,-108.35 57.5,-99.28 57.5,-90.64"/>
<polygon fill="none" stroke="midnightblue" points="54,-117.22 57.5,-127.22 61,-117.22 54,-117.22"/>
</g>
</g>
</svg>
