<?xml version="1.0" encoding="UTF-8" standalone="no"?>
<!DOCTYPE svg PUBLIC "-//W3C//DTD SVG 1.1//EN"
 "http://www.w3.org/Graphics/SVG/1.1/DTD/svg11.dtd">
<!-- Generated by graphviz version 2.43.0 (0)
 -->
<!-- Title: L4virtio::Svr::Device_t::device_error Pages: 1 -->
<svg width="500pt" height="247pt"
 viewBox="0.00 0.00 500.00 247.00" xmlns="http://www.w3.org/2000/svg" xmlns:xlink="http://www.w3.org/1999/xlink">
<g id="graph0" class="graph" transform="scale(1 1) rotate(0) translate(4 243)">
<title>L4virtio::Svr::Device_t::device_error</title>
<polygon fill="white" stroke="transparent" points="-4,4 -4,-243 496,-243 496,4 -4,4"/>
<!-- Node1 -->
<g id="node1" class="node">
<title>Node1</title>
<g id="a_node1"><a xlink:title="Transition device into DEVICE_NEEDS_RESET state.">
<polygon fill="#bfbfbf" stroke="black" points="0,-104.5 0,-134.5 115,-134.5 115,-104.5 0,-104.5"/>
<text text-anchor="start" x="8" y="-122.5" font-family="Helvetica,sans-Serif" font-size="10.00">L4virtio::Svr::Device</text>
<text text-anchor="middle" x="57.5" y="-111.5" font-family="Helvetica,sans-Serif" font-size="10.00">_t::device_error</text>
</a>
</g>
</g>
<!-- Node2 -->
<g id="node2" class="node">
<title>Node2</title>
<g id="a_node2"><a xlink:href="structL4virtio_1_1Svr_1_1Dev__status.html#a5b56e89190f111e843f56c8f55c29fd8" target="_top" xlink:title="Get the driver_ok bits ( 2 to 2 ) of raw.">
<polygon fill="white" stroke="black" points="174,-208.5 174,-238.5 278,-238.5 278,-208.5 174,-208.5"/>
<text text-anchor="start" x="182" y="-226.5" font-family="Helvetica,sans-Serif" font-size="10.00">L4virtio::Svr::Dev</text>
<text text-anchor="middle" x="226" y="-215.5" font-family="Helvetica,sans-Serif" font-size="10.00">_status::driver_ok</text>
</a>
</g>
</g>
<!-- Node1&#45;&gt;Node2 -->
<g id="edge1" class="edge">
<title>Node1&#45;&gt;Node2</title>
<path fill="none" stroke="midnightblue" d="M72.16,-134.52C89.08,-152.31 119.56,-181.77 151,-199.5 155.19,-201.86 159.65,-204.03 164.22,-206.02"/>
<polygon fill="midnightblue" stroke="midnightblue" points="163.12,-209.35 173.7,-209.84 165.73,-202.85 163.12,-209.35"/>
</g>
<!-- Node3 -->
<g id="node3" class="node">
<title>Node3</title>
<g id="a_node3"><a xlink:href="classL4virtio_1_1Svr_1_1Device__t.html#a4350f6e35f43df84584ec30740f5a7aa" target="_top" xlink:title="reset callback, called for doing a device reset">
<polygon fill="white" stroke="black" points="168.5,-159.5 168.5,-189.5 283.5,-189.5 283.5,-159.5 168.5,-159.5"/>
<text text-anchor="start" x="176.5" y="-177.5" font-family="Helvetica,sans-Serif" font-size="10.00">L4virtio::Svr::Device</text>
<text text-anchor="middle" x="226" y="-166.5" font-family="Helvetica,sans-Serif" font-size="10.00">_t::reset</text>
</a>
</g>
</g>
<!-- Node1&#45;&gt;Node3 -->
<g id="edge2" class="edge">
<title>Node1&#45;&gt;Node3</title>
<path fill="none" stroke="midnightblue" d="M104,-134.53C124.37,-141.26 148.57,-149.25 169.95,-156.32"/>
<polygon fill="midnightblue" stroke="midnightblue" points="168.96,-159.68 179.56,-159.49 171.16,-153.03 168.96,-159.68"/>
</g>
<!-- Node4 -->
<g id="node4" class="node">
<title>Node4</title>
<g id="a_node4"><a xlink:href="classL4virtio_1_1Svr_1_1Dev__config.html#afc2b3a6d213dc5fbaf7e500f784b5076" target="_top" xlink:title="Set DEVICE_NEEDS_RESET bit in device status register.">
<polygon fill="white" stroke="black" points="171,-99 171,-140 281,-140 281,-99 171,-99"/>
<text text-anchor="start" x="179" y="-128" font-family="Helvetica,sans-Serif" font-size="10.00">L4virtio::Svr::Dev</text>
<text text-anchor="start" x="179" y="-117" font-family="Helvetica,sans-Serif" font-size="10.00">_config::set_device</text>
<text text-anchor="middle" x="226" y="-106" font-family="Helvetica,sans-Serif" font-size="10.00">_needs_reset</text>
</a>
</g>
</g>
<!-- Node1&#45;&gt;Node4 -->
<g id="edge3" class="edge">
<title>Node1&#45;&gt;Node4</title>
<path fill="none" stroke="midnightblue" d="M115.33,-119.5C129.95,-119.5 145.79,-119.5 160.75,-119.5"/>
<polygon fill="midnightblue" stroke="midnightblue" points="160.95,-123 170.95,-119.5 160.95,-116 160.95,-123"/>
</g>
<!-- Node7 -->
<g id="node7" class="node">
<title>Node7</title>
<g id="a_node7"><a xlink:href="classL4virtio_1_1Svr_1_1Dev__config.html#a96ad6d40f04894e7a0ef8ce33a4f8416" target="_top" xlink:title="Get current device status (trusted).">
<polygon fill="white" stroke="black" points="175.5,-49.5 175.5,-79.5 276.5,-79.5 276.5,-49.5 175.5,-49.5"/>
<text text-anchor="start" x="183.5" y="-67.5" font-family="Helvetica,sans-Serif" font-size="10.00">L4virtio::Svr::Dev</text>
<text text-anchor="middle" x="226" y="-56.5" font-family="Helvetica,sans-Serif" font-size="10.00">_config::status</text>
</a>
</g>
</g>
<!-- Node1&#45;&gt;Node7 -->
<g id="edge6" class="edge">
<title>Node1&#45;&gt;Node7</title>
<path fill="none" stroke="midnightblue" d="M104,-104.47C124.37,-97.74 148.57,-89.75 169.95,-82.68"/>
<polygon fill="midnightblue" stroke="midnightblue" points="171.16,-85.97 179.56,-79.51 168.96,-79.32 171.16,-85.97"/>
</g>
<!-- Node8 -->
<g id="node8" class="node">
<title>Node8</title>
<g id="a_node8"><a xlink:href="classL4virtio_1_1Svr_1_1Device__t.html#a52d70a46453eb678e8656dbf790835e8" target="_top" xlink:title="callback for triggering configuration change notification IRQ">
<polygon fill="white" stroke="black" points="151,-0.5 151,-30.5 301,-30.5 301,-0.5 151,-0.5"/>
<text text-anchor="start" x="159" y="-18.5" font-family="Helvetica,sans-Serif" font-size="10.00">L4virtio::Svr::Device</text>
<text text-anchor="middle" x="226" y="-7.5" font-family="Helvetica,sans-Serif" font-size="10.00">_t::trigger_driver_config_irq</text>
</a>
</g>
</g>
<!-- Node1&#45;&gt;Node8 -->
<g id="edge7" class="edge">
<title>Node1&#45;&gt;Node8</title>
<path fill="none" stroke="midnightblue" d="M72.16,-104.48C89.08,-86.69 119.56,-57.23 151,-39.5 154.19,-37.7 157.53,-36.02 160.96,-34.44"/>
<polygon fill="midnightblue" stroke="midnightblue" points="162.35,-37.65 170.18,-30.51 159.61,-31.21 162.35,-37.65"/>
</g>
<!-- Node5 -->
<g id="node5" class="node">
<title>Node5</title>
<g id="a_node5"><a xlink:href="structL4virtio_1_1Svr_1_1Dev__status.html#a00de1af41a5731259d899bb58cf56212" target="_top" xlink:title="Get the device_needs_reset bits ( 6 to 6 ) of raw.">
<polygon fill="white" stroke="black" points="337,-128.5 337,-158.5 492,-158.5 492,-128.5 337,-128.5"/>
<text text-anchor="start" x="345" y="-146.5" font-family="Helvetica,sans-Serif" font-size="10.00">L4virtio::Svr::Dev</text>
<text text-anchor="middle" x="414.5" y="-135.5" font-family="Helvetica,sans-Serif" font-size="10.00">_status::device_needs_reset</text>
</a>
</g>
</g>
<!-- Node4&#45;&gt;Node5 -->
<g id="edge4" class="edge">
<title>Node4&#45;&gt;Node5</title>
<path fill="none" stroke="midnightblue" d="M281.19,-126.47C295.49,-128.31 311.27,-130.34 326.81,-132.34"/>
<polygon fill="midnightblue" stroke="midnightblue" points="326.61,-135.85 336.97,-133.65 327.5,-128.9 326.61,-135.85"/>
</g>
<!-- Node6 -->
<g id="node6" class="node">
<title>Node6</title>
<g id="a_node6"><a xlink:href="classL4virtio_1_1Svr_1_1Dev__config.html#a28c17f0bffa127dd6767dba771ee29f4" target="_top" xlink:title="Get a read&#45;only pointer to the config header.">
<polygon fill="white" stroke="black" points="364,-79.5 364,-109.5 465,-109.5 465,-79.5 364,-79.5"/>
<text text-anchor="start" x="372" y="-97.5" font-family="Helvetica,sans-Serif" font-size="10.00">L4virtio::Svr::Dev</text>
<text text-anchor="middle" x="414.5" y="-86.5" font-family="Helvetica,sans-Serif" font-size="10.00">_config::hdr</text>
</a>
</g>
</g>
<!-- Node4&#45;&gt;Node6 -->
<g id="edge5" class="edge">
<title>Node4&#45;&gt;Node6</title>
<path fill="none" stroke="midnightblue" d="M281.19,-112.24C303.96,-109.18 330.52,-105.62 353.84,-102.5"/>
<polygon fill="midnightblue" stroke="midnightblue" points="354.51,-105.94 363.95,-101.14 353.58,-99 354.51,-105.94"/>
</g>
</g>
</svg>
