<?xml version="1.0" encoding="UTF-8" standalone="no"?>
<!DOCTYPE svg PUBLIC "-//W3C//DTD SVG 1.1//EN"
 "http://www.w3.org/Graphics/SVG/1.1/DTD/svg11.dtd">
<!-- Generated by graphviz version 2.43.0 (0)
 -->
<!-- Title: L4vbus::Pci_host_bridge::cfg_read Pages: 1 -->
<svg width="315pt" height="66pt"
 viewBox="0.00 0.00 315.00 66.00" xmlns="http://www.w3.org/2000/svg" xmlns:xlink="http://www.w3.org/1999/xlink">
<g id="graph0" class="graph" transform="scale(1 1) rotate(0) translate(4 62)">
<title>L4vbus::Pci_host_bridge::cfg_read</title>
<polygon fill="white" stroke="transparent" points="-4,4 -4,-62 311,-62 311,4 -4,4"/>
<!-- Node1 -->
<g id="node1" class="node">
<title>Node1</title>
<g id="a_node1"><a xlink:title="Read from the vPCI configuration space using the PCI root bridge.">
<polygon fill="#bfbfbf" stroke="black" points="0,-14 0,-44 134,-44 134,-14 0,-14"/>
<text text-anchor="start" x="8" y="-32" font-family="Helvetica,sans-Serif" font-size="10.00">L4vbus::Pci_host_bridge</text>
<text text-anchor="middle" x="67" y="-21" font-family="Helvetica,sans-Serif" font-size="10.00">::cfg_read</text>
</a>
</g>
</g>
<!-- Node2 -->
<g id="node2" class="node">
<title>Node2</title>
<g id="a_node2"><a xlink:href="classL4vbus_1_1Device.html#a86e2a0b4eb5abb5ce6443690c6e2361f" target="_top" xlink:title="Access the Vbus capability of the underlying virtual bus.">
<polygon fill="white" stroke="black" points="170,-38.5 170,-57.5 307,-57.5 307,-38.5 170,-38.5"/>
<text text-anchor="middle" x="238.5" y="-45.5" font-family="Helvetica,sans-Serif" font-size="10.00">L4vbus::Device::bus_cap</text>
</a>
</g>
</g>
<!-- Node1&#45;&gt;Node2 -->
<g id="edge1" class="edge">
<title>Node1&#45;&gt;Node2</title>
<path fill="none" stroke="midnightblue" d="M134.02,-36.4C142.5,-37.35 151.25,-38.33 159.9,-39.3"/>
<polygon fill="midnightblue" stroke="midnightblue" points="159.66,-42.8 169.99,-40.43 160.44,-35.84 159.66,-42.8"/>
</g>
<!-- Node3 -->
<g id="node3" class="node">
<title>Node3</title>
<g id="a_node3"><a xlink:href="group__l4vbus__pci__module.html#gab256a616cebc75bebfc13785cda1a4ab" target="_top" xlink:title="Read from the vPCI configuration space using the PCI root bridge.">
<polygon fill="white" stroke="black" points="180.5,-0.5 180.5,-19.5 296.5,-19.5 296.5,-0.5 180.5,-0.5"/>
<text text-anchor="middle" x="238.5" y="-7.5" font-family="Helvetica,sans-Serif" font-size="10.00">l4vbus_pci_cfg_read</text>
</a>
</g>
</g>
<!-- Node1&#45;&gt;Node3 -->
<g id="edge2" class="edge">
<title>Node1&#45;&gt;Node3</title>
<path fill="none" stroke="midnightblue" d="M134.02,-21.6C146,-20.26 158.51,-18.85 170.52,-17.51"/>
<polygon fill="midnightblue" stroke="midnightblue" points="170.92,-20.99 180.47,-16.39 170.14,-14.03 170.92,-20.99"/>
</g>
</g>
</svg>
