<?xml version="1.0" encoding="UTF-8" standalone="no"?>
<!DOCTYPE svg PUBLIC "-//W3C//DTD SVG 1.1//EN"
 "http://www.w3.org/Graphics/SVG/1.1/DTD/svg11.dtd">
<!-- Generated by graphviz version 2.43.0 (0)
 -->
<!-- Title: l4/re/c/dataspace.h Pages: 1 -->
<svg width="812pt" height="207pt"
 viewBox="0.00 0.00 812.00 207.00" xmlns="http://www.w3.org/2000/svg" xmlns:xlink="http://www.w3.org/1999/xlink">
<g id="graph0" class="graph" transform="scale(1 1) rotate(0) translate(4 203)">
<title>l4/re/c/dataspace.h</title>
<polygon fill="white" stroke="transparent" points="-4,4 -4,-203 808,-203 808,4 -4,4"/>
<!-- Node1 -->
<g id="node1" class="node">
<title>Node1</title>
<g id="a_node1"><a xlink:title="Data space C interface.">
<polygon fill="#bfbfbf" stroke="black" points="349.5,-179.5 349.5,-198.5 458.5,-198.5 458.5,-179.5 349.5,-179.5"/>
<text text-anchor="middle" x="404" y="-186.5" font-family="Helvetica,sans-Serif" font-size="10.00">l4/re/c/dataspace.h</text>
</a>
</g>
</g>
<!-- Node2 -->
<g id="node2" class="node">
<title>Node2</title>
<g id="a_node2"><a xlink:href="dma__space_8h.html" target="_top" xlink:title="DMA space C interface.">
<polygon fill="white" stroke="black" points="0,-123.5 0,-142.5 114,-142.5 114,-123.5 0,-123.5"/>
<text text-anchor="middle" x="57" y="-130.5" font-family="Helvetica,sans-Serif" font-size="10.00">l4/re/c/dma_space.h</text>
</a>
</g>
</g>
<!-- Node1&#45;&gt;Node2 -->
<g id="edge1" class="edge">
<title>Node1&#45;&gt;Node2</title>
<path fill="none" stroke="midnightblue" d="M339.19,-177.91C273.68,-167.72 173.56,-152.14 111.85,-142.54"/>
<polygon fill="midnightblue" stroke="midnightblue" points="338.98,-181.42 349.4,-179.5 340.06,-174.51 338.98,-181.42"/>
</g>
<!-- Node3 -->
<g id="node3" class="node">
<title>Node3</title>
<g id="a_node3"><a xlink:href="c_2event_8h.html" target="_top" xlink:title="Event C interface.">
<polygon fill="white" stroke="black" points="132,-123.5 132,-142.5 218,-142.5 218,-123.5 132,-123.5"/>
<text text-anchor="middle" x="175" y="-130.5" font-family="Helvetica,sans-Serif" font-size="10.00">l4/re/c/event.h</text>
</a>
</g>
</g>
<!-- Node1&#45;&gt;Node3 -->
<g id="edge2" class="edge">
<title>Node1&#45;&gt;Node3</title>
<path fill="none" stroke="midnightblue" d="M357.73,-177.09C314.46,-166.89 250.74,-151.86 211.12,-142.52"/>
<polygon fill="midnightblue" stroke="midnightblue" points="357.18,-180.55 367.71,-179.44 358.78,-173.74 357.18,-180.55"/>
</g>
<!-- Node5 -->
<g id="node5" class="node">
<title>Node5</title>
<g id="a_node5"><a xlink:href="mem__alloc_8h.html" target="_top" xlink:title="Memory allocator C interface.">
<polygon fill="white" stroke="black" points="236.5,-123.5 236.5,-142.5 349.5,-142.5 349.5,-123.5 236.5,-123.5"/>
<text text-anchor="middle" x="293" y="-130.5" font-family="Helvetica,sans-Serif" font-size="10.00">l4/re/c/mem_alloc.h</text>
</a>
</g>
</g>
<!-- Node1&#45;&gt;Node5 -->
<g id="edge4" class="edge">
<title>Node1&#45;&gt;Node5</title>
<path fill="none" stroke="midnightblue" d="M376.99,-174.86C356.41,-164.85 328.66,-151.35 310.79,-142.65"/>
<polygon fill="midnightblue" stroke="midnightblue" points="375.64,-178.1 386.17,-179.32 378.7,-171.8 375.64,-178.1"/>
</g>
<!-- Node6 -->
<g id="node6" class="node">
<title>Node6</title>
<g id="a_node6"><a xlink:href="rm_8h.html" target="_top" xlink:title="Region map interface, C interface.">
<polygon fill="white" stroke="black" points="368,-123.5 368,-142.5 440,-142.5 440,-123.5 368,-123.5"/>
<text text-anchor="middle" x="404" y="-130.5" font-family="Helvetica,sans-Serif" font-size="10.00">l4/re/c/rm.h</text>
</a>
</g>
</g>
<!-- Node1&#45;&gt;Node6 -->
<g id="edge5" class="edge">
<title>Node1&#45;&gt;Node6</title>
<path fill="none" stroke="midnightblue" d="M404,-168.8C404,-159.91 404,-149.78 404,-142.75"/>
<polygon fill="midnightblue" stroke="midnightblue" points="400.5,-169.08 404,-179.08 407.5,-169.08 400.5,-169.08"/>
</g>
<!-- Node7 -->
<g id="node7" class="node">
<title>Node7</title>
<g id="a_node7"><a xlink:href="goos__fb_8h.html" target="_top" xlink:title="Framebuffer utility functionality.">
<polygon fill="white" stroke="black" points="462.5,-0.5 462.5,-30.5 557.5,-30.5 557.5,-0.5 462.5,-0.5"/>
<text text-anchor="start" x="470.5" y="-18.5" font-family="Helvetica,sans-Serif" font-size="10.00">l4/re/c/util/video</text>
<text text-anchor="middle" x="510" y="-7.5" font-family="Helvetica,sans-Serif" font-size="10.00">/goos_fb.h</text>
</a>
</g>
</g>
<!-- Node1&#45;&gt;Node7 -->
<g id="edge6" class="edge">
<title>Node1&#45;&gt;Node7</title>
<path fill="none" stroke="midnightblue" d="M422.23,-172.43C431.05,-164.28 441.36,-153.76 449,-143 456.06,-133.06 489.32,-61.44 503.53,-30.58"/>
<polygon fill="midnightblue" stroke="midnightblue" points="419.79,-169.92 414.67,-179.2 424.45,-175.14 419.79,-169.92"/>
</g>
<!-- Node8 -->
<g id="node8" class="node">
<title>Node8</title>
<g id="a_node8"><a xlink:href="goos_8h.html" target="_top" xlink:title=" ">
<polygon fill="white" stroke="black" points="496,-67.5 496,-86.5 608,-86.5 608,-67.5 496,-67.5"/>
<text text-anchor="middle" x="552" y="-74.5" font-family="Helvetica,sans-Serif" font-size="10.00">l4/re/c/video/goos.h</text>
</a>
</g>
</g>
<!-- Node1&#45;&gt;Node8 -->
<g id="edge7" class="edge">
<title>Node1&#45;&gt;Node8</title>
<path fill="none" stroke="midnightblue" d="M430.49,-174.64C446.04,-166.34 465.75,-154.99 482,-143 506.28,-125.08 531.42,-99.78 543.92,-86.66"/>
<polygon fill="midnightblue" stroke="midnightblue" points="428.66,-171.65 421.42,-179.39 431.91,-177.85 428.66,-171.65"/>
</g>
<!-- Node9 -->
<g id="node9" class="node">
<title>Node9</title>
<g id="a_node9"><a xlink:href="view_8h.html" target="_top" xlink:title=" ">
<polygon fill="white" stroke="black" points="598.5,-123.5 598.5,-142.5 709.5,-142.5 709.5,-123.5 598.5,-123.5"/>
<text text-anchor="middle" x="654" y="-130.5" font-family="Helvetica,sans-Serif" font-size="10.00">l4/re/c/video/view.h</text>
</a>
</g>
</g>
<!-- Node1&#45;&gt;Node9 -->
<g id="edge9" class="edge">
<title>Node1&#45;&gt;Node9</title>
<path fill="none" stroke="midnightblue" d="M453.62,-177.28C500.87,-167.08 571.04,-151.92 614.57,-142.52"/>
<polygon fill="midnightblue" stroke="midnightblue" points="452.65,-173.91 443.61,-179.44 454.13,-180.75 452.65,-173.91"/>
</g>
<!-- Node4 -->
<g id="node4" class="node">
<title>Node4</title>
<g id="a_node4"><a xlink:href="event__buffer_8h_source.html" target="_top" xlink:title=" ">
<polygon fill="white" stroke="black" points="115.5,-67.5 115.5,-86.5 234.5,-86.5 234.5,-67.5 115.5,-67.5"/>
<text text-anchor="middle" x="175" y="-74.5" font-family="Helvetica,sans-Serif" font-size="10.00">l4/re/c/event_buffer.h</text>
</a>
</g>
</g>
<!-- Node3&#45;&gt;Node4 -->
<g id="edge3" class="edge">
<title>Node3&#45;&gt;Node4</title>
<path fill="none" stroke="midnightblue" d="M175,-112.8C175,-103.91 175,-93.78 175,-86.75"/>
<polygon fill="midnightblue" stroke="midnightblue" points="171.5,-113.08 175,-123.08 178.5,-113.08 171.5,-113.08"/>
</g>
<!-- Node8&#45;&gt;Node7 -->
<g id="edge8" class="edge">
<title>Node8&#45;&gt;Node7</title>
<path fill="none" stroke="midnightblue" d="M540.17,-59.25C533.78,-50.19 525.97,-39.12 519.9,-30.52"/>
<polygon fill="midnightblue" stroke="midnightblue" points="537.36,-61.32 545.98,-67.48 543.07,-57.29 537.36,-61.32"/>
</g>
<!-- Node9&#45;&gt;Node8 -->
<g id="edge13" class="edge">
<title>Node9&#45;&gt;Node8</title>
<path fill="none" stroke="midnightblue" d="M628.67,-118.59C609.81,-108.61 584.62,-95.27 568.35,-86.65"/>
<polygon fill="midnightblue" stroke="midnightblue" points="627.14,-121.74 637.61,-123.32 630.41,-115.55 627.14,-121.74"/>
</g>
<!-- Node10 -->
<g id="node10" class="node">
<title>Node10</title>
<g id="a_node10"><a xlink:href="bitmap_8h.html" target="_top" xlink:title="Bitmap renderer header file.">
<polygon fill="white" stroke="black" points="626.5,-67.5 626.5,-86.5 763.5,-86.5 763.5,-67.5 626.5,-67.5"/>
<text text-anchor="middle" x="695" y="-74.5" font-family="Helvetica,sans-Serif" font-size="10.00">l4/libgfxbitmap/bitmap.h</text>
</a>
</g>
</g>
<!-- Node9&#45;&gt;Node10 -->
<g id="edge10" class="edge">
<title>Node9&#45;&gt;Node10</title>
<path fill="none" stroke="midnightblue" d="M667.02,-114.86C674.12,-105.5 682.6,-94.33 688.36,-86.75"/>
<polygon fill="midnightblue" stroke="midnightblue" points="664.03,-113 660.77,-123.08 669.61,-117.24 664.03,-113"/>
</g>
<!-- Node11 -->
<g id="node11" class="node">
<title>Node11</title>
<g id="a_node11"><a xlink:href="font_8h.html" target="_top" xlink:title="Bitmap font renderer header file.">
<polygon fill="white" stroke="black" points="682,-6 682,-25 804,-25 804,-6 682,-6"/>
<text text-anchor="middle" x="743" y="-13" font-family="Helvetica,sans-Serif" font-size="10.00">l4/libgfxbitmap/font.h</text>
</a>
</g>
</g>
<!-- Node9&#45;&gt;Node11 -->
<g id="edge12" class="edge">
<title>Node9&#45;&gt;Node11</title>
<path fill="none" stroke="midnightblue" d="M719.45,-122.25C740.02,-115.76 760.59,-104.96 773,-87 786.91,-66.86 765.33,-39.25 752.09,-25.31"/>
<polygon fill="midnightblue" stroke="midnightblue" points="718.36,-118.92 709.7,-125.02 720.28,-125.65 718.36,-118.92"/>
</g>
<!-- Node10&#45;&gt;Node11 -->
<g id="edge11" class="edge">
<title>Node10&#45;&gt;Node11</title>
<path fill="none" stroke="midnightblue" d="M708.17,-59.67C717.22,-48.45 728.87,-34.02 736.14,-25.01"/>
<polygon fill="midnightblue" stroke="midnightblue" points="705.43,-57.49 701.88,-67.48 710.88,-61.89 705.43,-57.49"/>
</g>
</g>
</svg>
