<?xml version="1.0" encoding="UTF-8" standalone="no"?>
<!DOCTYPE svg PUBLIC "-//W3C//DTD SVG 1.1//EN"
 "http://www.w3.org/Graphics/SVG/1.1/DTD/svg11.dtd">
<!-- Generated by graphviz version 2.43.0 (0)
 -->
<!-- Title: l4/re/dataspace Pages: 1 -->
<svg width="2737pt" height="296pt"
 viewBox="0.00 0.00 2737.46 296.00" xmlns="http://www.w3.org/2000/svg" xmlns:xlink="http://www.w3.org/1999/xlink">
<g id="graph0" class="graph" transform="scale(1 1) rotate(0) translate(4 292)">
<title>l4/re/dataspace</title>
<polygon fill="white" stroke="transparent" points="-4,4 -4,-292 2733.46,-292 2733.46,4 -4,4"/>
<!-- Node1 -->
<g id="node1" class="node">
<title>Node1</title>
<g id="a_node1"><a xlink:title="Dataspace interface.">
<polygon fill="#bfbfbf" stroke="black" points="1877.96,-268.5 1877.96,-287.5 1969.96,-287.5 1969.96,-268.5 1877.96,-268.5"/>
<text text-anchor="middle" x="1923.96" y="-275.5" font-family="Helvetica,sans-Serif" font-size="10.00">l4/re/dataspace</text>
</a>
</g>
</g>
<!-- Node2 -->
<g id="node2" class="node">
<title>Node2</title>
<g id="a_node2"><a xlink:href="client_2virtio-block_source.html" target="_top" xlink:title=" ">
<polygon fill="white" stroke="black" points="1295.46,-0.5 1295.46,-30.5 1388.46,-30.5 1388.46,-0.5 1295.46,-0.5"/>
<text text-anchor="start" x="1303.46" y="-18.5" font-family="Helvetica,sans-Serif" font-size="10.00">l4/l4virtio/client</text>
<text text-anchor="middle" x="1341.96" y="-7.5" font-family="Helvetica,sans-Serif" font-size="10.00">/virtio&#45;block</text>
</a>
</g>
</g>
<!-- Node1&#45;&gt;Node2 -->
<g id="edge1" class="edge">
<title>Node1&#45;&gt;Node2</title>
<path fill="none" stroke="midnightblue" d="M1927.2,-257.98C1933.1,-216.35 1940.37,-116.9 1885.96,-67 1849.65,-33.7 1514.01,-21.19 1388.78,-17.66"/>
<polygon fill="midnightblue" stroke="midnightblue" points="1923.71,-257.68 1925.63,-268.1 1930.62,-258.76 1923.71,-257.68"/>
</g>
<!-- Node3 -->
<g id="node3" class="node">
<title>Node3</title>
<g id="a_node3"><a xlink:href="l4virtio_source.html" target="_top" xlink:title=" ">
<polygon fill="white" stroke="black" points="822.46,-140 822.46,-159 923.46,-159 923.46,-140 822.46,-140"/>
<text text-anchor="middle" x="872.96" y="-147" font-family="Helvetica,sans-Serif" font-size="10.00">l4/l4virtio/l4virtio</text>
</a>
</g>
</g>
<!-- Node1&#45;&gt;Node3 -->
<g id="edge2" class="edge">
<title>Node1&#45;&gt;Node3</title>
<path fill="none" stroke="midnightblue" d="M1867.68,-275.43C1754.96,-271.77 1493.61,-260.7 1275.96,-232 1137.78,-213.78 975.95,-175.94 906.93,-159.01"/>
<polygon fill="midnightblue" stroke="midnightblue" points="1867.69,-278.93 1877.8,-275.75 1867.92,-271.94 1867.69,-278.93"/>
</g>
<!-- Node4 -->
<g id="node4" class="node">
<title>Node4</title>
<g id="a_node4"><a xlink:href="server_2l4virtio_source.html" target="_top" xlink:title=" ">
<polygon fill="white" stroke="black" points="745.46,-67.5 745.46,-97.5 842.46,-97.5 842.46,-67.5 745.46,-67.5"/>
<text text-anchor="start" x="753.46" y="-85.5" font-family="Helvetica,sans-Serif" font-size="10.00">l4/l4virtio/server</text>
<text text-anchor="middle" x="793.96" y="-74.5" font-family="Helvetica,sans-Serif" font-size="10.00">/l4virtio</text>
</a>
</g>
</g>
<!-- Node1&#45;&gt;Node4 -->
<g id="edge6" class="edge">
<title>Node1&#45;&gt;Node4</title>
<path fill="none" stroke="midnightblue" d="M1867.79,-277.4C1733.47,-277.62 1383.44,-273.76 1094.96,-232 967.46,-213.55 903.86,-256.28 812.96,-165 795.12,-147.09 792.75,-115.87 793.07,-97.72"/>
<polygon fill="midnightblue" stroke="midnightblue" points="1867.85,-280.9 1877.84,-277.38 1867.83,-273.9 1867.85,-280.9"/>
</g>
<!-- Node6 -->
<g id="node6" class="node">
<title>Node6</title>
<g id="a_node6"><a xlink:href="ns__fs__impl_8h_source.html" target="_top" xlink:title=" ">
<polygon fill="white" stroke="black" points="501.46,-0.5 501.46,-30.5 608.46,-30.5 608.46,-0.5 501.46,-0.5"/>
<text text-anchor="start" x="509.46" y="-18.5" font-family="Helvetica,sans-Serif" font-size="10.00">l4/l4re_vfs/impl/ns</text>
<text text-anchor="middle" x="554.96" y="-7.5" font-family="Helvetica,sans-Serif" font-size="10.00">_fs_impl.h</text>
</a>
</g>
</g>
<!-- Node1&#45;&gt;Node6 -->
<g id="edge7" class="edge">
<title>Node1&#45;&gt;Node6</title>
<path fill="none" stroke="midnightblue" d="M1867.62,-275.96C1661.11,-271.95 952.42,-256.53 853.96,-232 720.09,-198.64 660.36,-205.56 573.96,-98 558.31,-78.52 555.11,-48.42 554.7,-30.77"/>
<polygon fill="midnightblue" stroke="midnightblue" points="1867.58,-279.46 1877.65,-276.15 1867.72,-272.46 1867.58,-279.46"/>
</g>
<!-- Node7 -->
<g id="node7" class="node">
<title>Node7</title>
<g id="a_node7"><a xlink:href="vfs__impl_8h_source.html" target="_top" xlink:title=" ">
<polygon fill="white" stroke="black" points="175.96,-0.5 175.96,-30.5 285.96,-30.5 285.96,-0.5 175.96,-0.5"/>
<text text-anchor="start" x="183.96" y="-18.5" font-family="Helvetica,sans-Serif" font-size="10.00">l4/l4re_vfs/impl/vfs</text>
<text text-anchor="middle" x="230.96" y="-7.5" font-family="Helvetica,sans-Serif" font-size="10.00">_impl.h</text>
</a>
</g>
</g>
<!-- Node1&#45;&gt;Node7 -->
<g id="edge8" class="edge">
<title>Node1&#45;&gt;Node7</title>
<path fill="none" stroke="midnightblue" d="M1867.84,-276.91C1622.52,-276.3 642.96,-271.4 337.96,-232 207.62,-215.16 155.23,-243.66 49.96,-165 12.54,-137.04 -17.13,-103.56 11.96,-67 32.06,-41.73 117.7,-28.03 175.74,-21.5"/>
<polygon fill="midnightblue" stroke="midnightblue" points="1867.95,-280.41 1877.96,-276.94 1867.96,-273.41 1867.95,-280.41"/>
</g>
<!-- Node8 -->
<g id="node8" class="node">
<title>Node8</title>
<g id="a_node8"><a xlink:href="vfs_8h_source.html" target="_top" xlink:title=" ">
<polygon fill="white" stroke="black" points="347.46,-207 347.46,-226 442.46,-226 442.46,-207 347.46,-207"/>
<text text-anchor="middle" x="394.96" y="-214" font-family="Helvetica,sans-Serif" font-size="10.00">l4/l4re_vfs/vfs.h</text>
</a>
</g>
</g>
<!-- Node1&#45;&gt;Node8 -->
<g id="edge9" class="edge">
<title>Node1&#45;&gt;Node8</title>
<path fill="none" stroke="midnightblue" d="M1867.75,-276.51C1679.73,-274.59 1055.6,-265.89 540.96,-232 508.04,-229.83 471.07,-226.15 442.56,-223.03"/>
<polygon fill="midnightblue" stroke="midnightblue" points="1867.91,-280.01 1877.94,-276.61 1867.98,-273.01 1867.91,-280.01"/>
</g>
<!-- Node17 -->
<g id="node17" class="node">
<title>Node17</title>
<g id="a_node17"><a xlink:href="dma__space.html" target="_top" xlink:title=" ">
<polygon fill="white" stroke="black" points="1971.46,-207 1971.46,-226 2068.46,-226 2068.46,-207 1971.46,-207"/>
<text text-anchor="middle" x="2019.96" y="-214" font-family="Helvetica,sans-Serif" font-size="10.00">l4/re/dma_space</text>
</a>
</g>
</g>
<!-- Node1&#45;&gt;Node17 -->
<g id="edge23" class="edge">
<title>Node1&#45;&gt;Node17</title>
<path fill="none" stroke="midnightblue" d="M1946.41,-263.09C1964.93,-251.6 1990.63,-235.68 2006.23,-226.01"/>
<polygon fill="midnightblue" stroke="midnightblue" points="1944.37,-260.23 1937.71,-268.48 1948.06,-266.18 1944.37,-260.23"/>
</g>
<!-- Node18 -->
<g id="node18" class="node">
<title>Node18</title>
<g id="a_node18"><a xlink:href="vbus_source.html" target="_top" xlink:title=" ">
<polygon fill="white" stroke="black" points="1997.96,-140 1997.96,-159 2075.96,-159 2075.96,-140 1997.96,-140"/>
<text text-anchor="middle" x="2036.96" y="-147" font-family="Helvetica,sans-Serif" font-size="10.00">l4/vbus/vbus</text>
</a>
</g>
</g>
<!-- Node1&#45;&gt;Node18 -->
<g id="edge69" class="edge">
<title>Node1&#45;&gt;Node18</title>
<path fill="none" stroke="midnightblue" d="M1930.37,-258.64C1936.77,-242.22 1947.82,-218.15 1962.96,-201 1979.12,-182.69 2003.29,-167.84 2019.57,-159.1"/>
<polygon fill="midnightblue" stroke="midnightblue" points="1927.03,-257.59 1926.85,-268.19 1933.6,-260.02 1927.03,-257.59"/>
</g>
<!-- Node22 -->
<g id="node22" class="node">
<title>Node22</title>
<g id="a_node22"><a xlink:href="event_source.html" target="_top" xlink:title=" ">
<polygon fill="white" stroke="black" points="2086.46,-207 2086.46,-226 2155.46,-226 2155.46,-207 2086.46,-207"/>
<text text-anchor="middle" x="2120.96" y="-214" font-family="Helvetica,sans-Serif" font-size="10.00">l4/re/event</text>
</a>
</g>
</g>
<!-- Node1&#45;&gt;Node22 -->
<g id="edge28" class="edge">
<title>Node1&#45;&gt;Node22</title>
<path fill="none" stroke="midnightblue" d="M1964.09,-265.76C1995.25,-256.92 2039.48,-244.1 2077.96,-232 2083.82,-230.16 2090.1,-228.09 2096,-226.11"/>
<polygon fill="midnightblue" stroke="midnightblue" points="1963.13,-262.39 1954.46,-268.49 1965.03,-269.13 1963.13,-262.39"/>
</g>
<!-- Node27 -->
<g id="node27" class="node">
<title>Node27</title>
<g id="a_node27"><a xlink:href="dataspace__impl_8h.html" target="_top" xlink:title="Dataspace client stub implementation.">
<polygon fill="white" stroke="black" points="2325.96,-201.5 2325.96,-231.5 2441.96,-231.5 2441.96,-201.5 2325.96,-201.5"/>
<text text-anchor="start" x="2333.96" y="-219.5" font-family="Helvetica,sans-Serif" font-size="10.00">l4/re/impl/dataspace</text>
<text text-anchor="middle" x="2383.96" y="-208.5" font-family="Helvetica,sans-Serif" font-size="10.00">_impl.h</text>
</a>
</g>
</g>
<!-- Node1&#45;&gt;Node27 -->
<g id="edge34" class="edge">
<title>Node1&#45;&gt;Node27</title>
<path fill="none" stroke="midnightblue" d="M1980.52,-272.3C2057.1,-265.53 2197.88,-251.65 2316.96,-232 2319.89,-231.52 2322.89,-230.99 2325.92,-230.43"/>
<polygon fill="midnightblue" stroke="midnightblue" points="1979.8,-268.85 1970.15,-273.21 1980.41,-275.82 1979.8,-268.85"/>
</g>
<!-- Node28 -->
<g id="node28" class="node">
<title>Node28</title>
<g id="a_node28"><a xlink:href="mem__alloc__impl_8h.html" target="_top" xlink:title="Memory allocator client stub implementation.">
<polygon fill="white" stroke="black" points="2459.96,-201.5 2459.96,-231.5 2579.96,-231.5 2579.96,-201.5 2459.96,-201.5"/>
<text text-anchor="start" x="2467.96" y="-219.5" font-family="Helvetica,sans-Serif" font-size="10.00">l4/re/impl/mem_alloc</text>
<text text-anchor="middle" x="2519.96" y="-208.5" font-family="Helvetica,sans-Serif" font-size="10.00">_impl.h</text>
</a>
</g>
</g>
<!-- Node1&#45;&gt;Node28 -->
<g id="edge35" class="edge">
<title>Node1&#45;&gt;Node28</title>
<path fill="none" stroke="midnightblue" d="M1980.12,-274.46C2076.74,-269.58 2280.47,-257.1 2450.96,-232 2453.86,-231.57 2456.83,-231.1 2459.82,-230.59"/>
<polygon fill="midnightblue" stroke="midnightblue" points="1979.81,-270.97 1970,-274.96 1980.16,-277.96 1979.81,-270.97"/>
</g>
<!-- Node29 -->
<g id="node29" class="node">
<title>Node29</title>
<g id="a_node29"><a xlink:href="rm__impl_8h.html" target="_top" xlink:title="Region map client stub implementation.">
<polygon fill="white" stroke="black" points="1565.96,-140 1565.96,-159 1681.96,-159 1681.96,-140 1565.96,-140"/>
<text text-anchor="middle" x="1623.96" y="-147" font-family="Helvetica,sans-Serif" font-size="10.00">l4/re/impl/rm_impl.h</text>
</a>
</g>
</g>
<!-- Node1&#45;&gt;Node29 -->
<g id="edge36" class="edge">
<title>Node1&#45;&gt;Node29</title>
<path fill="none" stroke="midnightblue" d="M1893.89,-264.32C1832.9,-238.61 1696.09,-180.92 1644.33,-159.09"/>
<polygon fill="midnightblue" stroke="midnightblue" points="1892.76,-267.64 1903.34,-268.31 1895.48,-261.19 1892.76,-267.64"/>
</g>
<!-- Node30 -->
<g id="node30" class="node">
<title>Node30</title>
<g id="a_node30"><a xlink:href="rm.html" target="_top" xlink:title="Region mapper interface.">
<polygon fill="white" stroke="black" points="1285.46,-207 1285.46,-226 1340.46,-226 1340.46,-207 1285.46,-207"/>
<text text-anchor="middle" x="1312.96" y="-214" font-family="Helvetica,sans-Serif" font-size="10.00">l4/re/rm</text>
</a>
</g>
</g>
<!-- Node1&#45;&gt;Node30 -->
<g id="edge37" class="edge">
<title>Node1&#45;&gt;Node30</title>
<path fill="none" stroke="midnightblue" d="M1867.47,-271.5C1740.03,-259.09 1434.04,-229.29 1340.55,-220.19"/>
<polygon fill="midnightblue" stroke="midnightblue" points="1867.49,-275.02 1877.78,-272.5 1868.17,-268.05 1867.49,-275.02"/>
</g>
<!-- Node39 -->
<g id="node39" class="node">
<title>Node39</title>
<g id="a_node39"><a xlink:href="dataspace__svr_source.html" target="_top" xlink:title=" ">
<polygon fill="white" stroke="black" points="2598.46,-207 2598.46,-226 2729.46,-226 2729.46,-207 2598.46,-207"/>
<text text-anchor="middle" x="2663.96" y="-214" font-family="Helvetica,sans-Serif" font-size="10.00">l4/re/util/dataspace_svr</text>
</a>
</g>
</g>
<!-- Node1&#45;&gt;Node39 -->
<g id="edge61" class="edge">
<title>Node1&#45;&gt;Node39</title>
<path fill="none" stroke="midnightblue" d="M1980.41,-275.53C2095.38,-272.02 2364.74,-261.15 2588.96,-232 2600.66,-230.48 2613.29,-228.26 2624.79,-226.02"/>
<polygon fill="midnightblue" stroke="midnightblue" points="1980,-272.04 1970.1,-275.84 1980.2,-279.04 1980,-272.04"/>
</g>
<!-- Node40 -->
<g id="node40" class="node">
<title>Node40</title>
<g id="a_node40"><a xlink:href="goos__svr_source.html" target="_top" xlink:title=" ">
<polygon fill="white" stroke="black" points="2246.96,-140 2246.96,-159 2380.96,-159 2380.96,-140 2246.96,-140"/>
<text text-anchor="middle" x="2313.96" y="-147" font-family="Helvetica,sans-Serif" font-size="10.00">l4/re/util/video/goos_svr</text>
</a>
</g>
</g>
<!-- Node1&#45;&gt;Node40 -->
<g id="edge62" class="edge">
<title>Node1&#45;&gt;Node40</title>
<path fill="none" stroke="midnightblue" d="M1980.41,-274.17C2030.78,-269.89 2105.55,-259.11 2164.96,-232 2185.1,-222.81 2185.09,-212.59 2203.96,-201 2232.6,-183.4 2268.41,-168.07 2291.24,-159.05"/>
<polygon fill="midnightblue" stroke="midnightblue" points="1980.05,-270.69 1970.36,-274.97 1980.6,-277.67 1980.05,-270.69"/>
</g>
<!-- Node41 -->
<g id="node41" class="node">
<title>Node41</title>
<g id="a_node41"><a xlink:href="goos_source.html" target="_top" xlink:title=" ">
<polygon fill="white" stroke="black" points="2212.46,-207 2212.46,-226 2307.46,-226 2307.46,-207 2212.46,-207"/>
<text text-anchor="middle" x="2259.96" y="-214" font-family="Helvetica,sans-Serif" font-size="10.00">l4/re/video/goos</text>
</a>
</g>
</g>
<!-- Node1&#45;&gt;Node41 -->
<g id="edge63" class="edge">
<title>Node1&#45;&gt;Node41</title>
<path fill="none" stroke="midnightblue" d="M1980.17,-268.89C2035.7,-260.62 2122.96,-246.91 2197.96,-232 2206.85,-230.23 2216.4,-228.11 2225.29,-226.04"/>
<polygon fill="midnightblue" stroke="midnightblue" points="1979.56,-265.45 1970.18,-270.37 1980.59,-272.37 1979.56,-265.45"/>
</g>
<!-- Node3&#45;&gt;Node2 -->
<g id="edge3" class="edge">
<title>Node3&#45;&gt;Node2</title>
<path fill="none" stroke="midnightblue" d="M821.09,-137.48C770.36,-124.46 704.91,-100.3 735.96,-67 775,-25.13 1193.07,-37.46 1249.96,-31 1264.74,-29.32 1280.78,-26.98 1295.26,-24.66"/>
<polygon fill="midnightblue" stroke="midnightblue" points="820.46,-140.93 831.01,-139.93 822.14,-134.13 820.46,-140.93"/>
</g>
<!-- Node3&#45;&gt;Node4 -->
<g id="edge4" class="edge">
<title>Node3&#45;&gt;Node4</title>
<path fill="none" stroke="midnightblue" d="M854.41,-133.24C841.3,-122.45 823.86,-108.1 811.08,-97.59"/>
<polygon fill="midnightblue" stroke="midnightblue" points="852.36,-136.08 862.3,-139.73 856.81,-130.68 852.36,-136.08"/>
</g>
<!-- Node5 -->
<g id="node5" class="node">
<title>Node5</title>
<g id="a_node5"><a xlink:href="server_2virtio-block_source.html" target="_top" xlink:title=" ">
<polygon fill="white" stroke="black" points="745.46,-0.5 745.46,-30.5 842.46,-30.5 842.46,-0.5 745.46,-0.5"/>
<text text-anchor="start" x="753.46" y="-18.5" font-family="Helvetica,sans-Serif" font-size="10.00">l4/l4virtio/server</text>
<text text-anchor="middle" x="793.96" y="-7.5" font-family="Helvetica,sans-Serif" font-size="10.00">/virtio&#45;block</text>
</a>
</g>
</g>
<!-- Node4&#45;&gt;Node5 -->
<g id="edge5" class="edge">
<title>Node4&#45;&gt;Node5</title>
<path fill="none" stroke="midnightblue" d="M793.96,-57.11C793.96,-48.15 793.96,-38.32 793.96,-30.58"/>
<polygon fill="midnightblue" stroke="midnightblue" points="790.46,-57.4 793.96,-67.4 797.46,-57.4 790.46,-57.4"/>
</g>
<!-- Node9 -->
<g id="node9" class="node">
<title>Node9</title>
<g id="a_node9"><a xlink:href="backend_source.html" target="_top" xlink:title=" ">
<polygon fill="white" stroke="black" points="339.46,-140 339.46,-159 450.46,-159 450.46,-140 339.46,-140"/>
<text text-anchor="middle" x="394.96" y="-147" font-family="Helvetica,sans-Serif" font-size="10.00">l4/l4re_vfs/backend</text>
</a>
</g>
</g>
<!-- Node8&#45;&gt;Node9 -->
<g id="edge10" class="edge">
<title>Node8&#45;&gt;Node9</title>
<path fill="none" stroke="midnightblue" d="M394.96,-196.54C394.96,-184.17 394.96,-168.62 394.96,-159.13"/>
<polygon fill="midnightblue" stroke="midnightblue" points="391.46,-196.73 394.96,-206.73 398.46,-196.73 391.46,-196.73"/>
</g>
<!-- Node15 -->
<g id="node15" class="node">
<title>Node15</title>
<g id="a_node15"><a xlink:href="fd__store_8h_source.html" target="_top" xlink:title=" ">
<polygon fill="white" stroke="black" points="59.46,-134.5 59.46,-164.5 164.46,-164.5 164.46,-134.5 59.46,-134.5"/>
<text text-anchor="start" x="67.46" y="-152.5" font-family="Helvetica,sans-Serif" font-size="10.00">l4/l4re_vfs/impl/fd</text>
<text text-anchor="middle" x="111.96" y="-141.5" font-family="Helvetica,sans-Serif" font-size="10.00">_store.h</text>
</a>
</g>
</g>
<!-- Node8&#45;&gt;Node15 -->
<g id="edge20" class="edge">
<title>Node8&#45;&gt;Node15</title>
<path fill="none" stroke="midnightblue" d="M347.65,-204.63C297.06,-193.01 217.03,-174.63 164.51,-162.57"/>
<polygon fill="midnightblue" stroke="midnightblue" points="347.14,-208.11 357.67,-206.94 348.71,-201.29 347.14,-208.11"/>
</g>
<!-- Node9&#45;&gt;Node7 -->
<g id="edge19" class="edge">
<title>Node9&#45;&gt;Node7</title>
<path fill="none" stroke="midnightblue" d="M329.4,-139.99C301.28,-133.09 270.29,-120.61 249.96,-98 233.15,-79.31 230.38,-48.66 230.35,-30.75"/>
<polygon fill="midnightblue" stroke="midnightblue" points="328.68,-143.42 339.21,-142.21 330.23,-136.59 328.68,-143.42"/>
</g>
<!-- Node10 -->
<g id="node10" class="node">
<title>Node10</title>
<g id="a_node10"><a xlink:href="ns__fs_8h_source.html" target="_top" xlink:title=" ">
<polygon fill="white" stroke="black" points="258.96,-73 258.96,-92 388.96,-92 388.96,-73 258.96,-73"/>
<text text-anchor="middle" x="323.96" y="-80" font-family="Helvetica,sans-Serif" font-size="10.00">l4/l4re_vfs/impl/ns_fs.h</text>
</a>
</g>
</g>
<!-- Node9&#45;&gt;Node10 -->
<g id="edge11" class="edge">
<title>Node9&#45;&gt;Node10</title>
<path fill="none" stroke="midnightblue" d="M377.87,-132.86C363.91,-120.08 344.7,-102.49 333.38,-92.13"/>
<polygon fill="midnightblue" stroke="midnightblue" points="375.64,-135.56 385.38,-139.73 380.37,-130.4 375.64,-135.56"/>
</g>
<!-- Node11 -->
<g id="node11" class="node">
<title>Node11</title>
<g id="a_node11"><a xlink:href="ro__file_8h_source.html" target="_top" xlink:title=" ">
<polygon fill="white" stroke="black" points="583.46,-67.5 583.46,-97.5 688.46,-97.5 688.46,-67.5 583.46,-67.5"/>
<text text-anchor="start" x="591.46" y="-85.5" font-family="Helvetica,sans-Serif" font-size="10.00">l4/l4re_vfs/impl/ro</text>
<text text-anchor="middle" x="635.96" y="-74.5" font-family="Helvetica,sans-Serif" font-size="10.00">_file.h</text>
</a>
</g>
</g>
<!-- Node9&#45;&gt;Node11 -->
<g id="edge14" class="edge">
<title>Node9&#45;&gt;Node11</title>
<path fill="none" stroke="midnightblue" d="M436.86,-137.2C477.72,-126.18 539.95,-109.39 583.95,-97.53"/>
<polygon fill="midnightblue" stroke="midnightblue" points="435.7,-133.89 426.96,-139.87 437.53,-140.64 435.7,-133.89"/>
</g>
<!-- Node13 -->
<g id="node13" class="node">
<title>Node13</title>
<g id="a_node13"><a xlink:href="vcon__stream_8h_source.html" target="_top" xlink:title=" ">
<polygon fill="white" stroke="black" points="407.46,-67.5 407.46,-97.5 526.46,-97.5 526.46,-67.5 407.46,-67.5"/>
<text text-anchor="start" x="415.46" y="-85.5" font-family="Helvetica,sans-Serif" font-size="10.00">l4/l4re_vfs/impl/vcon</text>
<text text-anchor="middle" x="466.96" y="-74.5" font-family="Helvetica,sans-Serif" font-size="10.00">_stream.h</text>
</a>
</g>
</g>
<!-- Node9&#45;&gt;Node13 -->
<g id="edge16" class="edge">
<title>Node9&#45;&gt;Node13</title>
<path fill="none" stroke="midnightblue" d="M412.21,-132.93C424.11,-122.18 439.82,-108 451.35,-97.59"/>
<polygon fill="midnightblue" stroke="midnightblue" points="409.75,-130.43 404.67,-139.73 414.44,-135.63 409.75,-130.43"/>
</g>
<!-- Node10&#45;&gt;Node6 -->
<g id="edge12" class="edge">
<title>Node10&#45;&gt;Node6</title>
<path fill="none" stroke="midnightblue" d="M364.37,-70.13C403.54,-59.11 463.02,-42.37 505.1,-30.53"/>
<polygon fill="midnightblue" stroke="midnightblue" points="363.31,-66.79 354.63,-72.87 365.21,-73.53 363.31,-66.79"/>
</g>
<!-- Node10&#45;&gt;Node7 -->
<g id="edge13" class="edge">
<title>Node10&#45;&gt;Node7</title>
<path fill="none" stroke="midnightblue" d="M303,-66.85C287.47,-56 266.44,-41.3 251.12,-30.59"/>
<polygon fill="midnightblue" stroke="midnightblue" points="301.21,-69.87 311.42,-72.73 305.22,-64.14 301.21,-69.87"/>
</g>
<!-- Node12 -->
<g id="node12" class="node">
<title>Node12</title>
<g id="a_node12"><a xlink:href="ro__file__impl_8h_source.html" target="_top" xlink:title=" ">
<polygon fill="white" stroke="black" points="1136.46,-0.5 1136.46,-30.5 1241.46,-30.5 1241.46,-0.5 1136.46,-0.5"/>
<text text-anchor="start" x="1144.46" y="-18.5" font-family="Helvetica,sans-Serif" font-size="10.00">l4/l4re_vfs/impl/ro</text>
<text text-anchor="middle" x="1188.96" y="-7.5" font-family="Helvetica,sans-Serif" font-size="10.00">_file_impl.h</text>
</a>
</g>
</g>
<!-- Node11&#45;&gt;Node12 -->
<g id="edge15" class="edge">
<title>Node11&#45;&gt;Node12</title>
<path fill="none" stroke="midnightblue" d="M698.51,-67.73C700,-67.48 701.49,-67.23 702.96,-67 857.83,-42.38 898,-47.37 1053.96,-31 1081.15,-28.14 1111.42,-24.9 1136.39,-22.2"/>
<polygon fill="midnightblue" stroke="midnightblue" points="697.73,-64.32 688.52,-69.55 698.99,-71.2 697.73,-64.32"/>
</g>
<!-- Node13&#45;&gt;Node7 -->
<g id="edge18" class="edge">
<title>Node13&#45;&gt;Node7</title>
<path fill="none" stroke="midnightblue" d="M406.02,-64.71C367.61,-54.14 318.59,-40.63 282.19,-30.61"/>
<polygon fill="midnightblue" stroke="midnightblue" points="405.47,-68.19 416.04,-67.48 407.33,-61.45 405.47,-68.19"/>
</g>
<!-- Node14 -->
<g id="node14" class="node">
<title>Node14</title>
<g id="a_node14"><a xlink:href="vcon__stream__impl_8h_source.html" target="_top" xlink:title=" ">
<polygon fill="white" stroke="black" points="926.46,-0.5 926.46,-30.5 1045.46,-30.5 1045.46,-0.5 926.46,-0.5"/>
<text text-anchor="start" x="934.46" y="-18.5" font-family="Helvetica,sans-Serif" font-size="10.00">l4/l4re_vfs/impl/vcon</text>
<text text-anchor="middle" x="985.96" y="-7.5" font-family="Helvetica,sans-Serif" font-size="10.00">_stream_impl.h</text>
</a>
</g>
</g>
<!-- Node13&#45;&gt;Node14 -->
<g id="edge17" class="edge">
<title>Node13&#45;&gt;Node14</title>
<path fill="none" stroke="midnightblue" d="M536.9,-71.89C549.24,-70.23 561.97,-68.55 573.96,-67 699.21,-50.84 846.05,-33.14 926.23,-23.58"/>
<polygon fill="midnightblue" stroke="midnightblue" points="536.09,-68.47 526.65,-73.27 537.02,-75.41 536.09,-68.47"/>
</g>
<!-- Node15&#45;&gt;Node7 -->
<g id="edge22" class="edge">
<title>Node15&#45;&gt;Node7</title>
<path fill="none" stroke="midnightblue" d="M129.21,-126.17C142.37,-109.46 161.21,-86.28 178.96,-67 190.72,-54.22 204.91,-40.55 215.5,-30.65"/>
<polygon fill="midnightblue" stroke="midnightblue" points="126.29,-124.22 122.88,-134.26 131.8,-128.54 126.29,-124.22"/>
</g>
<!-- Node16 -->
<g id="node16" class="node">
<title>Node16</title>
<g id="a_node16"><a xlink:href="fd__store__impl_8h_source.html" target="_top" xlink:title=" ">
<polygon fill="white" stroke="black" points="21.46,-67.5 21.46,-97.5 126.46,-97.5 126.46,-67.5 21.46,-67.5"/>
<text text-anchor="start" x="29.46" y="-85.5" font-family="Helvetica,sans-Serif" font-size="10.00">l4/l4re_vfs/impl/fd</text>
<text text-anchor="middle" x="73.96" y="-74.5" font-family="Helvetica,sans-Serif" font-size="10.00">_store_impl.h</text>
</a>
</g>
</g>
<!-- Node15&#45;&gt;Node16 -->
<g id="edge21" class="edge">
<title>Node15&#45;&gt;Node16</title>
<path fill="none" stroke="midnightblue" d="M98.56,-125.58C93.1,-116.24 86.96,-105.75 82.19,-97.58"/>
<polygon fill="midnightblue" stroke="midnightblue" points="95.64,-127.53 103.71,-134.4 101.69,-124 95.64,-127.53"/>
</g>
<!-- Node17&#45;&gt;Node18 -->
<g id="edge24" class="edge">
<title>Node17&#45;&gt;Node18</title>
<path fill="none" stroke="midnightblue" d="M2024.82,-196.91C2028.07,-184.49 2032.19,-168.72 2034.7,-159.13"/>
<polygon fill="midnightblue" stroke="midnightblue" points="2021.39,-196.17 2022.25,-206.73 2028.17,-197.94 2021.39,-196.17"/>
</g>
<!-- Node19 -->
<g id="node19" class="node">
<title>Node19</title>
<g id="a_node19"><a xlink:href="vbus__generic_source.html" target="_top" xlink:title=" ">
<polygon fill="white" stroke="black" points="1933.46,-73 1933.46,-92 2052.46,-92 2052.46,-73 1933.46,-73"/>
<text text-anchor="middle" x="1992.96" y="-80" font-family="Helvetica,sans-Serif" font-size="10.00">l4/vbus/vbus_generic</text>
</a>
</g>
</g>
<!-- Node18&#45;&gt;Node19 -->
<g id="edge25" class="edge">
<title>Node18&#45;&gt;Node19</title>
<path fill="none" stroke="midnightblue" d="M2025.38,-131.4C2016.83,-118.77 2005.55,-102.1 1998.8,-92.13"/>
<polygon fill="midnightblue" stroke="midnightblue" points="2022.52,-133.41 2031.02,-139.73 2028.32,-129.49 2022.52,-133.41"/>
</g>
<!-- Node20 -->
<g id="node20" class="node">
<title>Node20</title>
<g id="a_node20"><a xlink:href="vbus__gpio_source.html" target="_top" xlink:title=" ">
<polygon fill="white" stroke="black" points="2070.96,-73 2070.96,-92 2174.96,-92 2174.96,-73 2070.96,-73"/>
<text text-anchor="middle" x="2122.96" y="-80" font-family="Helvetica,sans-Serif" font-size="10.00">l4/vbus/vbus_gpio</text>
</a>
</g>
</g>
<!-- Node18&#45;&gt;Node20 -->
<g id="edge26" class="edge">
<title>Node18&#45;&gt;Node20</title>
<path fill="none" stroke="midnightblue" d="M2056.71,-133.57C2073.69,-120.74 2097.57,-102.69 2111.54,-92.13"/>
<polygon fill="midnightblue" stroke="midnightblue" points="2054.42,-130.91 2048.56,-139.73 2058.64,-136.5 2054.42,-130.91"/>
</g>
<!-- Node21 -->
<g id="node21" class="node">
<title>Node21</title>
<g id="a_node21"><a xlink:href="vbus__pci_source.html" target="_top" xlink:title=" ">
<polygon fill="white" stroke="black" points="2192.96,-73 2192.96,-92 2290.96,-92 2290.96,-73 2192.96,-73"/>
<text text-anchor="middle" x="2241.96" y="-80" font-family="Helvetica,sans-Serif" font-size="10.00">l4/vbus/vbus_pci</text>
</a>
</g>
</g>
<!-- Node18&#45;&gt;Node21 -->
<g id="edge27" class="edge">
<title>Node18&#45;&gt;Node21</title>
<path fill="none" stroke="midnightblue" d="M2073.97,-136.77C2114.59,-123.89 2178.81,-103.52 2214.95,-92.06"/>
<polygon fill="midnightblue" stroke="midnightblue" points="2072.65,-133.51 2064.18,-139.87 2074.77,-140.18 2072.65,-133.51"/>
</g>
<!-- Node22&#45;&gt;Node18 -->
<g id="edge33" class="edge">
<title>Node22&#45;&gt;Node18</title>
<path fill="none" stroke="midnightblue" d="M2101.66,-200.57C2085.08,-187.74 2061.75,-169.69 2048.11,-159.13"/>
<polygon fill="midnightblue" stroke="midnightblue" points="2099.58,-203.38 2109.63,-206.73 2103.86,-197.85 2099.58,-203.38"/>
</g>
<!-- Node23 -->
<g id="node23" class="node">
<title>Node23</title>
<g id="a_node23"><a xlink:href="console_source.html" target="_top" xlink:title=" ">
<polygon fill="white" stroke="black" points="2149.46,-140 2149.46,-159 2228.46,-159 2228.46,-140 2149.46,-140"/>
<text text-anchor="middle" x="2188.96" y="-147" font-family="Helvetica,sans-Serif" font-size="10.00">l4/re/console</text>
</a>
</g>
</g>
<!-- Node22&#45;&gt;Node23 -->
<g id="edge29" class="edge">
<title>Node22&#45;&gt;Node23</title>
<path fill="none" stroke="midnightblue" d="M2137.7,-199.5C2151.04,-186.75 2169.19,-169.39 2179.93,-159.13"/>
<polygon fill="midnightblue" stroke="midnightblue" points="2134.94,-197.29 2130.13,-206.73 2139.78,-202.35 2134.94,-197.29"/>
</g>
<!-- Node24 -->
<g id="node24" class="node">
<title>Node24</title>
<g id="a_node24"><a xlink:href="event__buffer_source.html" target="_top" xlink:title=" ">
<polygon fill="white" stroke="black" points="1754.96,-140 1754.96,-159 1876.96,-159 1876.96,-140 1754.96,-140"/>
<text text-anchor="middle" x="1815.96" y="-147" font-family="Helvetica,sans-Serif" font-size="10.00">l4/re/util/event_buffer</text>
</a>
</g>
</g>
<!-- Node22&#45;&gt;Node24 -->
<g id="edge30" class="edge">
<title>Node22&#45;&gt;Node24</title>
<path fill="none" stroke="midnightblue" d="M2087.76,-203.81C2084.46,-202.8 2081.16,-201.84 2077.96,-201 2007.75,-182.49 1925.29,-167.71 1871.9,-159.04"/>
<polygon fill="midnightblue" stroke="midnightblue" points="2086.88,-207.21 2097.47,-206.94 2089.03,-200.54 2086.88,-207.21"/>
</g>
<!-- Node26 -->
<g id="node26" class="node">
<title>Node26</title>
<g id="a_node26"><a xlink:href="event__svr_source.html" target="_top" xlink:title=" ">
<polygon fill="white" stroke="black" points="1966.96,-6 1966.96,-25 2074.96,-25 2074.96,-6 1966.96,-6"/>
<text text-anchor="middle" x="2020.96" y="-13" font-family="Helvetica,sans-Serif" font-size="10.00">l4/re/util/event_svr</text>
</a>
</g>
</g>
<!-- Node22&#45;&gt;Node26 -->
<g id="edge32" class="edge">
<title>Node22&#45;&gt;Node26</title>
<path fill="none" stroke="midnightblue" d="M2120.27,-196.83C2120.64,-178.31 2124.26,-150.4 2140.96,-134 2192.65,-83.23 2254.73,-154.61 2299.96,-98 2308.56,-87.24 2308.79,-77.57 2299.96,-67 2271.87,-33.38 2147.96,-22.1 2075.06,-18.34"/>
<polygon fill="midnightblue" stroke="midnightblue" points="2116.77,-196.99 2120.36,-206.96 2123.77,-196.93 2116.77,-196.99"/>
</g>
<!-- Node25 -->
<g id="node25" class="node">
<title>Node25</title>
<g id="a_node25"><a xlink:href="util_2event.html" target="_top" xlink:title=" ">
<polygon fill="white" stroke="black" points="1788.96,-73 1788.96,-92 1876.96,-92 1876.96,-73 1788.96,-73"/>
<text text-anchor="middle" x="1832.96" y="-80" font-family="Helvetica,sans-Serif" font-size="10.00">l4/re/util/event</text>
</a>
</g>
</g>
<!-- Node24&#45;&gt;Node25 -->
<g id="edge31" class="edge">
<title>Node24&#45;&gt;Node25</title>
<path fill="none" stroke="midnightblue" d="M1820.82,-129.91C1824.07,-117.49 1828.19,-101.72 1830.7,-92.13"/>
<polygon fill="midnightblue" stroke="midnightblue" points="1817.39,-129.17 1818.25,-139.73 1824.17,-130.94 1817.39,-129.17"/>
</g>
<!-- Node30&#45;&gt;Node4 -->
<g id="edge38" class="edge">
<title>Node30&#45;&gt;Node4</title>
<path fill="none" stroke="midnightblue" d="M1275.34,-210.31C1222.04,-202.56 1121.69,-186.56 1037.96,-165 963.13,-145.74 878.01,-115.29 830.68,-97.57"/>
<polygon fill="midnightblue" stroke="midnightblue" points="1274.96,-213.79 1285.36,-211.75 1275.96,-206.86 1274.96,-213.79"/>
</g>
<!-- Node30&#45;&gt;Node7 -->
<g id="edge39" class="edge">
<title>Node30&#45;&gt;Node7</title>
<path fill="none" stroke="midnightblue" d="M1274.85,-214.75C1104.93,-211.25 420.68,-195.38 329.96,-165 279.58,-148.13 255.86,-144.93 230.96,-98 219.68,-76.75 223.38,-47.78 227.14,-30.72"/>
<polygon fill="midnightblue" stroke="midnightblue" points="1275,-218.26 1285.06,-214.96 1275.14,-211.26 1275,-218.26"/>
</g>
<!-- Node30&#45;&gt;Node24 -->
<g id="edge57" class="edge">
<title>Node30&#45;&gt;Node24</title>
<path fill="none" stroke="midnightblue" d="M1350.86,-210.6C1437.29,-199.43 1649.6,-172 1754.82,-158.4"/>
<polygon fill="midnightblue" stroke="midnightblue" points="1350.19,-207.16 1340.72,-211.91 1351.08,-214.1 1350.19,-207.16"/>
</g>
<!-- Node30&#45;&gt;Node25 -->
<g id="edge56" class="edge">
<title>Node30&#45;&gt;Node25</title>
<path fill="none" stroke="midnightblue" d="M1343.86,-203.37C1389.71,-185.79 1478.78,-153.23 1556.96,-134 1654.45,-110.02 1681.84,-119.28 1779.96,-98 1787.79,-96.3 1796.19,-94.16 1803.94,-92.04"/>
<polygon fill="midnightblue" stroke="midnightblue" points="1342.55,-200.12 1334.48,-206.99 1345.07,-206.66 1342.55,-200.12"/>
</g>
<!-- Node30&#45;&gt;Node29 -->
<g id="edge55" class="edge">
<title>Node30&#45;&gt;Node29</title>
<path fill="none" stroke="midnightblue" d="M1350.53,-207.65C1409.26,-195.37 1522.38,-171.73 1583.08,-159.04"/>
<polygon fill="midnightblue" stroke="midnightblue" points="1349.63,-204.26 1340.56,-209.73 1351.06,-211.11 1349.63,-204.26"/>
</g>
<!-- Node31 -->
<g id="node31" class="node">
<title>Node31</title>
<g id="a_node31"><a xlink:href="env.html" target="_top" xlink:title="Environment interface.">
<polygon fill="white" stroke="black" points="1283.46,-140 1283.46,-159 1342.46,-159 1342.46,-140 1283.46,-140"/>
<text text-anchor="middle" x="1312.96" y="-147" font-family="Helvetica,sans-Serif" font-size="10.00">l4/re/env</text>
</a>
</g>
</g>
<!-- Node30&#45;&gt;Node31 -->
<g id="edge40" class="edge">
<title>Node30&#45;&gt;Node31</title>
<path fill="none" stroke="midnightblue" d="M1312.96,-196.54C1312.96,-184.17 1312.96,-168.62 1312.96,-159.13"/>
<polygon fill="midnightblue" stroke="midnightblue" points="1309.46,-196.73 1312.96,-206.73 1316.46,-196.73 1309.46,-196.73"/>
</g>
<!-- Node37 -->
<g id="node37" class="node">
<title>Node37</title>
<g id="a_node37"><a xlink:href="region__mapping.html" target="_top" xlink:title="Region handling.">
<polygon fill="white" stroke="black" points="1047.46,-140 1047.46,-159 1186.46,-159 1186.46,-140 1047.46,-140"/>
<text text-anchor="middle" x="1116.96" y="-147" font-family="Helvetica,sans-Serif" font-size="10.00">l4/re/util/region_mapping</text>
</a>
</g>
</g>
<!-- Node30&#45;&gt;Node37 -->
<g id="edge58" class="edge">
<title>Node30&#45;&gt;Node37</title>
<path fill="none" stroke="midnightblue" d="M1277.08,-203.6C1238.22,-190.71 1177.18,-170.47 1142.78,-159.06"/>
<polygon fill="midnightblue" stroke="midnightblue" points="1276.34,-207.04 1286.93,-206.87 1278.54,-200.4 1276.34,-207.04"/>
</g>
<!-- Node38 -->
<g id="node38" class="node">
<title>Node38</title>
<g id="a_node38"><a xlink:href="region__mapping__svr__2_source.html" target="_top" xlink:title=" ">
<polygon fill="white" stroke="black" points="860.46,-67.5 860.46,-97.5 999.46,-97.5 999.46,-67.5 860.46,-67.5"/>
<text text-anchor="start" x="868.46" y="-85.5" font-family="Helvetica,sans-Serif" font-size="10.00">l4/re/util/region_mapping</text>
<text text-anchor="middle" x="929.96" y="-74.5" font-family="Helvetica,sans-Serif" font-size="10.00">_svr_2</text>
</a>
</g>
</g>
<!-- Node30&#45;&gt;Node38 -->
<g id="edge60" class="edge">
<title>Node30&#45;&gt;Node38</title>
<path fill="none" stroke="midnightblue" d="M1295.66,-200.03C1273.81,-181.37 1234.29,-150.46 1194.96,-134 1185.9,-130.21 1074.93,-109.7 999.49,-96.01"/>
<polygon fill="midnightblue" stroke="midnightblue" points="1293.54,-202.83 1303.39,-206.76 1298.14,-197.55 1293.54,-202.83"/>
</g>
<!-- Node31&#45;&gt;Node2 -->
<g id="edge42" class="edge">
<title>Node31&#45;&gt;Node2</title>
<path fill="none" stroke="midnightblue" d="M1345.77,-135.65C1361.88,-127.48 1379.76,-115.16 1388.96,-98 1395.47,-85.86 1394,-79.82 1388.96,-67 1383.26,-52.51 1371.23,-39.71 1360.77,-30.63"/>
<polygon fill="midnightblue" stroke="midnightblue" points="1344.13,-132.56 1336.57,-139.99 1347.11,-138.89 1344.13,-132.56"/>
</g>
<!-- Node31&#45;&gt;Node4 -->
<g id="edge43" class="edge">
<title>Node31&#45;&gt;Node4</title>
<path fill="none" stroke="midnightblue" d="M1273.36,-143.45C1250.47,-140.58 1221.1,-136.97 1194.96,-134 1042.22,-116.62 1002.29,-125.02 850.96,-98 848.24,-97.52 845.47,-96.97 842.67,-96.39"/>
<polygon fill="midnightblue" stroke="midnightblue" points="1273.03,-146.94 1283.39,-144.72 1273.91,-140 1273.03,-146.94"/>
</g>
<!-- Node31&#45;&gt;Node7 -->
<g id="edge46" class="edge">
<title>Node31&#45;&gt;Node7</title>
<path fill="none" stroke="midnightblue" d="M1273.4,-140.94C1261.67,-138.71 1248.8,-136.25 1236.96,-134 1152.52,-117.95 1125.1,-133.78 1046.96,-98 1026.83,-88.78 1028.62,-74.97 1007.96,-67 991.11,-60.5 460.7,-29.65 286.09,-19.64"/>
<polygon fill="midnightblue" stroke="midnightblue" points="1272.88,-144.41 1283.36,-142.84 1274.2,-137.53 1272.88,-144.41"/>
</g>
<!-- Node31&#45;&gt;Node12 -->
<g id="edge44" class="edge">
<title>Node31&#45;&gt;Node12</title>
<path fill="none" stroke="midnightblue" d="M1286.44,-134.88C1270.75,-125.91 1251.21,-113.05 1236.96,-98 1217.65,-77.61 1202.72,-48.1 1194.93,-30.75"/>
<polygon fill="midnightblue" stroke="midnightblue" points="1285.19,-138.19 1295.64,-139.95 1288.57,-132.06 1285.19,-138.19"/>
</g>
<!-- Node31&#45;&gt;Node14 -->
<g id="edge45" class="edge">
<title>Node31&#45;&gt;Node14</title>
<path fill="none" stroke="midnightblue" d="M1285.8,-135.6C1265.31,-125.7 1236.6,-111.48 1211.96,-98 1188.35,-85.09 1184.63,-77.73 1159.96,-67 1123.18,-51.01 1079.87,-38.42 1045.67,-29.81"/>
<polygon fill="midnightblue" stroke="midnightblue" points="1284.34,-138.78 1294.87,-139.96 1287.37,-132.47 1284.34,-138.78"/>
</g>
<!-- Node31&#45;&gt;Node25 -->
<g id="edge49" class="edge">
<title>Node31&#45;&gt;Node25</title>
<path fill="none" stroke="midnightblue" d="M1352.7,-142.31C1371.02,-139.56 1393.07,-136.42 1412.96,-134 1575.66,-114.24 1618.78,-127.73 1779.96,-98 1788.21,-96.48 1797.06,-94.29 1805.11,-92.07"/>
<polygon fill="midnightblue" stroke="midnightblue" points="1352.03,-138.87 1342.66,-143.83 1353.08,-145.79 1352.03,-138.87"/>
</g>
<!-- Node32 -->
<g id="node32" class="node">
<title>Node32</title>
<g id="a_node32"><a xlink:href="vcpu_source.html" target="_top" xlink:title=" ">
<polygon fill="white" stroke="black" points="1435.96,-73 1435.96,-92 1513.96,-92 1513.96,-73 1435.96,-73"/>
<text text-anchor="middle" x="1474.96" y="-80" font-family="Helvetica,sans-Serif" font-size="10.00">l4/vcpu/vcpu</text>
</a>
</g>
</g>
<!-- Node31&#45;&gt;Node32 -->
<g id="edge41" class="edge">
<title>Node31&#45;&gt;Node32</title>
<path fill="none" stroke="midnightblue" d="M1343.85,-136.1C1376.02,-123.2 1425.54,-103.33 1453.61,-92.06"/>
<polygon fill="midnightblue" stroke="midnightblue" points="1342.45,-132.9 1334.47,-139.87 1345.05,-139.39 1342.45,-132.9"/>
</g>
<!-- Node33 -->
<g id="node33" class="node">
<title>Node33</title>
<g id="a_node33"><a xlink:href="env__ns_source.html" target="_top" xlink:title=" ">
<polygon fill="white" stroke="black" points="1056.46,-73 1056.46,-92 1151.46,-92 1151.46,-73 1056.46,-73"/>
<text text-anchor="middle" x="1103.96" y="-80" font-family="Helvetica,sans-Serif" font-size="10.00">l4/re/util/env_ns</text>
</a>
</g>
</g>
<!-- Node31&#45;&gt;Node33 -->
<g id="edge47" class="edge">
<title>Node31&#45;&gt;Node33</title>
<path fill="none" stroke="midnightblue" d="M1275.49,-136.85C1234.09,-123.97 1168.41,-103.55 1131.49,-92.06"/>
<polygon fill="midnightblue" stroke="midnightblue" points="1274.62,-140.24 1285.2,-139.87 1276.69,-133.56 1274.62,-140.24"/>
</g>
<!-- Node34 -->
<g id="node34" class="node">
<title>Node34</title>
<g id="a_node34"><a xlink:href="icu__svr_source.html" target="_top" xlink:title=" ">
<polygon fill="white" stroke="black" points="1675.46,-73 1675.46,-92 1770.46,-92 1770.46,-73 1675.46,-73"/>
<text text-anchor="middle" x="1722.96" y="-80" font-family="Helvetica,sans-Serif" font-size="10.00">l4/re/util/icu_svr</text>
</a>
</g>
</g>
<!-- Node31&#45;&gt;Node34 -->
<g id="edge50" class="edge">
<title>Node31&#45;&gt;Node34</title>
<path fill="none" stroke="midnightblue" d="M1352.75,-142.7C1371.08,-140.04 1393.12,-136.84 1412.96,-134 1525.82,-117.82 1555.15,-120.33 1666.96,-98 1675.33,-96.33 1684.31,-94.17 1692.58,-92.03"/>
<polygon fill="midnightblue" stroke="midnightblue" points="1352.1,-139.26 1342.71,-144.16 1353.11,-146.18 1352.1,-139.26"/>
</g>
<!-- Node35 -->
<g id="node35" class="node">
<title>Node35</title>
<g id="a_node35"><a xlink:href="kumem__alloc.html" target="_top" xlink:title="Kumem allocator helper.">
<polygon fill="white" stroke="black" points="1532.46,-73 1532.46,-92 1657.46,-92 1657.46,-73 1532.46,-73"/>
<text text-anchor="middle" x="1594.96" y="-80" font-family="Helvetica,sans-Serif" font-size="10.00">l4/re/util/kumem_alloc</text>
</a>
</g>
</g>
<!-- Node31&#45;&gt;Node35 -->
<g id="edge52" class="edge">
<title>Node31&#45;&gt;Node35</title>
<path fill="none" stroke="midnightblue" d="M1352.59,-139.37C1407.1,-126.8 1504.5,-104.35 1557.73,-92.08"/>
<polygon fill="midnightblue" stroke="midnightblue" points="1351.56,-136.01 1342.6,-141.67 1353.13,-142.83 1351.56,-136.01"/>
</g>
<!-- Node36 -->
<g id="node36" class="node">
<title>Node36</title>
<g id="a_node36"><a xlink:href="object__registry_source.html" target="_top" xlink:title=" ">
<polygon fill="white" stroke="black" points="1246.46,-73 1246.46,-92 1379.46,-92 1379.46,-73 1246.46,-73"/>
<text text-anchor="middle" x="1312.96" y="-80" font-family="Helvetica,sans-Serif" font-size="10.00">l4/re/util/object_registry</text>
</a>
</g>
</g>
<!-- Node31&#45;&gt;Node36 -->
<g id="edge53" class="edge">
<title>Node31&#45;&gt;Node36</title>
<path fill="none" stroke="midnightblue" d="M1312.96,-129.54C1312.96,-117.17 1312.96,-101.62 1312.96,-92.13"/>
<polygon fill="midnightblue" stroke="midnightblue" points="1309.46,-129.73 1312.96,-139.73 1316.46,-129.73 1309.46,-129.73"/>
</g>
<!-- Node33&#45;&gt;Node6 -->
<g id="edge48" class="edge">
<title>Node33&#45;&gt;Node6</title>
<path fill="none" stroke="midnightblue" d="M1061.11,-70.74C1054.71,-69.35 1048.18,-68.05 1041.96,-67 959.7,-53.17 717.36,-30.87 608.72,-21.21"/>
<polygon fill="midnightblue" stroke="midnightblue" points="1060.45,-74.18 1070.97,-72.97 1061.99,-67.35 1060.45,-74.18"/>
</g>
<!-- Node34&#45;&gt;Node26 -->
<g id="edge51" class="edge">
<title>Node34&#45;&gt;Node26</title>
<path fill="none" stroke="midnightblue" d="M1765.4,-70.49C1770.3,-69.28 1775.23,-68.1 1779.96,-67 1848.67,-51.07 1928.92,-34.7 1977.3,-25.07"/>
<polygon fill="midnightblue" stroke="midnightblue" points="1764.31,-67.16 1755.45,-72.98 1766,-73.95 1764.31,-67.16"/>
</g>
<!-- Node36&#45;&gt;Node2 -->
<g id="edge54" class="edge">
<title>Node36&#45;&gt;Node2</title>
<path fill="none" stroke="midnightblue" d="M1321.04,-63.39C1325.66,-53.02 1331.38,-40.2 1335.67,-30.59"/>
<polygon fill="midnightblue" stroke="midnightblue" points="1317.75,-62.18 1316.87,-72.73 1324.14,-65.03 1317.75,-62.18"/>
</g>
<!-- Node37&#45;&gt;Node38 -->
<g id="edge59" class="edge">
<title>Node37&#45;&gt;Node38</title>
<path fill="none" stroke="midnightblue" d="M1082.41,-136.49C1050.7,-125.47 1003.73,-109.14 970.32,-97.53"/>
<polygon fill="midnightblue" stroke="midnightblue" points="1081.53,-139.89 1092.13,-139.87 1083.83,-133.28 1081.53,-139.89"/>
</g>
<!-- Node41&#45;&gt;Node23 -->
<g id="edge64" class="edge">
<title>Node41&#45;&gt;Node23</title>
<path fill="none" stroke="midnightblue" d="M2242.87,-199.86C2228.91,-187.08 2209.7,-169.49 2198.38,-159.13"/>
<polygon fill="midnightblue" stroke="midnightblue" points="2240.64,-202.56 2250.38,-206.73 2245.37,-197.4 2240.64,-202.56"/>
</g>
<!-- Node41&#45;&gt;Node40 -->
<g id="edge66" class="edge">
<title>Node41&#45;&gt;Node40</title>
<path fill="none" stroke="midnightblue" d="M2273.86,-198.77C2284.38,-186.1 2298.42,-169.2 2306.79,-159.13"/>
<polygon fill="midnightblue" stroke="midnightblue" points="2270.94,-196.81 2267.24,-206.73 2276.32,-201.28 2270.94,-196.81"/>
</g>
<!-- Node42 -->
<g id="node42" class="node">
<title>Node42</title>
<g id="a_node42"><a xlink:href="goos__fb_source.html" target="_top" xlink:title=" ">
<polygon fill="white" stroke="black" points="2398.96,-140 2398.96,-159 2526.96,-159 2526.96,-140 2398.96,-140"/>
<text text-anchor="middle" x="2462.96" y="-147" font-family="Helvetica,sans-Serif" font-size="10.00">l4/re/util/video/goos_fb</text>
</a>
</g>
</g>
<!-- Node41&#45;&gt;Node42 -->
<g id="edge65" class="edge">
<title>Node41&#45;&gt;Node42</title>
<path fill="none" stroke="midnightblue" d="M2296.61,-203.77C2336.83,-190.89 2400.43,-170.52 2436.21,-159.06"/>
<polygon fill="midnightblue" stroke="midnightblue" points="2295.37,-200.49 2286.91,-206.87 2297.51,-207.15 2295.37,-200.49"/>
</g>
<!-- Node43 -->
<g id="node43" class="node">
<title>Node43</title>
<g id="a_node43"><a xlink:href="view_source.html" target="_top" xlink:title=" ">
<polygon fill="white" stroke="black" points="2545.46,-140 2545.46,-159 2640.46,-159 2640.46,-140 2545.46,-140"/>
<text text-anchor="middle" x="2592.96" y="-147" font-family="Helvetica,sans-Serif" font-size="10.00">l4/re/video/view</text>
</a>
</g>
</g>
<!-- Node41&#45;&gt;Node43 -->
<g id="edge67" class="edge">
<title>Node41&#45;&gt;Node43</title>
<path fill="none" stroke="midnightblue" d="M2301.4,-204.52C2306.62,-203.26 2311.9,-202.06 2316.96,-201 2413.51,-180.82 2439.4,-185.18 2535.96,-165 2544.25,-163.27 2553.16,-161.13 2561.41,-159.04"/>
<polygon fill="midnightblue" stroke="midnightblue" points="2300.37,-201.16 2291.5,-206.96 2302.05,-207.96 2300.37,-201.16"/>
</g>
<!-- Node44 -->
<g id="node44" class="node">
<title>Node44</title>
<g id="a_node44"><a xlink:href="support.html" target="_top" xlink:title="Terminal support functionality.">
<polygon fill="white" stroke="black" points="2527.46,-73 2527.46,-92 2658.46,-92 2658.46,-73 2527.46,-73"/>
<text text-anchor="middle" x="2592.96" y="-80" font-family="Helvetica,sans-Serif" font-size="10.00">l4/libgfxbitmap/support</text>
</a>
</g>
</g>
<!-- Node43&#45;&gt;Node44 -->
<g id="edge68" class="edge">
<title>Node43&#45;&gt;Node44</title>
<path fill="none" stroke="midnightblue" d="M2592.96,-129.54C2592.96,-117.17 2592.96,-101.62 2592.96,-92.13"/>
<polygon fill="midnightblue" stroke="midnightblue" points="2589.46,-129.73 2592.96,-139.73 2596.46,-129.73 2589.46,-129.73"/>
</g>
</g>
</svg>
