<?xml version="1.0" encoding="UTF-8" standalone="no"?>
<!DOCTYPE svg PUBLIC "-//W3C//DTD SVG 1.1//EN"
 "http://www.w3.org/Graphics/SVG/1.1/DTD/svg11.dtd">
<!-- Generated by graphviz version 2.43.0 (0)
 -->
<!-- Title: l4/re/dataspace Pages: 1 -->
<svg width="1020pt" height="767pt"
 viewBox="0.00 0.00 1019.50 767.00" xmlns="http://www.w3.org/2000/svg" xmlns:xlink="http://www.w3.org/1999/xlink">
<g id="graph0" class="graph" transform="scale(1 1) rotate(0) translate(4 763)">
<title>l4/re/dataspace</title>
<polygon fill="white" stroke="transparent" points="-4,4 -4,-763 1015.5,-763 1015.5,4 -4,4"/>
<!-- Node1 -->
<g id="node1" class="node">
<title>Node1</title>
<g id="a_node1"><a xlink:title="Dataspace interface.">
<polygon fill="#bfbfbf" stroke="black" points="514,-739.5 514,-758.5 606,-758.5 606,-739.5 514,-739.5"/>
<text text-anchor="middle" x="560" y="-746.5" font-family="Helvetica,sans-Serif" font-size="10.00">l4/re/dataspace</text>
</a>
</g>
</g>
<!-- Node2 -->
<g id="node2" class="node">
<title>Node2</title>
<g id="a_node2"><a xlink:href="l4_2sys_2types_8h.html" target="_top" xlink:title="Common L4 ABI Data Types.">
<polygon fill="white" stroke="black" points="273,-168.5 273,-187.5 357,-187.5 357,-168.5 273,-168.5"/>
<text text-anchor="middle" x="315" y="-175.5" font-family="Helvetica,sans-Serif" font-size="10.00">l4/sys/types.h</text>
</a>
</g>
</g>
<!-- Node1&#45;&gt;Node2 -->
<g id="edge1" class="edge">
<title>Node1&#45;&gt;Node2</title>
<path fill="none" stroke="midnightblue" d="M513.68,-748.02C385.92,-746.85 38,-734.78 38,-638 38,-638 38,-638 38,-289 38,-252.28 57.72,-243.23 89,-224 142.03,-191.41 214.08,-181.81 262.44,-179.3"/>
<polygon fill="midnightblue" stroke="midnightblue" points="262.85,-182.78 272.69,-178.85 262.54,-175.79 262.85,-182.78"/>
</g>
<!-- Node3 -->
<g id="node3" class="node">
<title>Node3</title>
<g id="a_node3"><a xlink:href="l4_2sys_2l4int_8h.html" target="_top" xlink:title="Fixed sized integer types, generic version.">
<polygon fill="white" stroke="black" points="194.5,-56.5 194.5,-75.5 273.5,-75.5 273.5,-56.5 194.5,-56.5"/>
<text text-anchor="middle" x="234" y="-63.5" font-family="Helvetica,sans-Serif" font-size="10.00">l4/sys/l4int.h</text>
</a>
</g>
</g>
<!-- Node1&#45;&gt;Node3 -->
<g id="edge12" class="edge">
<title>Node1&#45;&gt;Node3</title>
<path fill="none" stroke="midnightblue" d="M513.91,-747.53C407.68,-745.84 148.69,-738.14 70,-703 31.23,-685.69 0,-680.46 0,-638 0,-638 0,-638 0,-177 0,-96.3 115.39,-74.7 184.11,-68.99"/>
<polygon fill="midnightblue" stroke="midnightblue" points="184.59,-72.46 194.31,-68.23 184.07,-65.48 184.59,-72.46"/>
</g>
<!-- Node9 -->
<g id="node9" class="node">
<title>Node9</title>
<g id="a_node9"><a xlink:href="capability.html" target="_top" xlink:title="L4::Cap related definitions.">
<polygon fill="white" stroke="black" points="344,-683.5 344,-702.5 440,-702.5 440,-683.5 344,-683.5"/>
<text text-anchor="middle" x="392" y="-690.5" font-family="Helvetica,sans-Serif" font-size="10.00">l4/sys/capability</text>
</a>
</g>
</g>
<!-- Node1&#45;&gt;Node9 -->
<g id="edge13" class="edge">
<title>Node1&#45;&gt;Node9</title>
<path fill="none" stroke="midnightblue" d="M533.38,-739.44C504.99,-730.32 459.86,-715.81 428.25,-705.65"/>
<polygon fill="midnightblue" stroke="midnightblue" points="429.09,-702.24 418.5,-702.52 426.94,-708.91 429.09,-702.24"/>
</g>
<!-- Node17 -->
<g id="node17" class="node">
<title>Node17</title>
<g id="a_node17"><a xlink:href="types.html" target="_top" xlink:title=" ">
<polygon fill="white" stroke="black" points="758,-342 758,-361 822,-361 822,-342 758,-342"/>
<text text-anchor="middle" x="790" y="-349" font-family="Helvetica,sans-Serif" font-size="10.00">cxx/types</text>
</a>
</g>
</g>
<!-- Node1&#45;&gt;Node17 -->
<g id="edge65" class="edge">
<title>Node1&#45;&gt;Node17</title>
<path fill="none" stroke="midnightblue" d="M606.03,-745.02C654.86,-740.56 733.43,-729.59 796,-703 842.08,-683.42 888,-688.06 888,-638 888,-638 888,-638 888,-468 888,-422.44 843.12,-385.65 814.1,-366.62"/>
<polygon fill="midnightblue" stroke="midnightblue" points="815.64,-363.45 805.31,-361.08 811.9,-369.37 815.64,-363.45"/>
</g>
<!-- Node22 -->
<g id="node22" class="node">
<title>Node22</title>
<g id="a_node22"><a xlink:href="ipc__iface.html" target="_top" xlink:title="Interface Definition Language.">
<polygon fill="white" stroke="black" points="494,-515.5 494,-534.5 574,-534.5 574,-515.5 494,-515.5"/>
<text text-anchor="middle" x="534" y="-522.5" font-family="Helvetica,sans-Serif" font-size="10.00">cxx/ipc_iface</text>
</a>
</g>
</g>
<!-- Node1&#45;&gt;Node22 -->
<g id="edge64" class="edge">
<title>Node1&#45;&gt;Node22</title>
<path fill="none" stroke="midnightblue" d="M558.98,-739.3C555.16,-706.63 541.6,-590.87 536.22,-544.96"/>
<polygon fill="midnightblue" stroke="midnightblue" points="539.68,-544.41 535.04,-534.88 532.73,-545.22 539.68,-544.41"/>
</g>
<!-- Node23 -->
<g id="node23" class="node">
<title>Node23</title>
<g id="a_node23"><a xlink:href="ipc__types.html" target="_top" xlink:title=" ">
<polygon fill="white" stroke="black" points="630.5,-459.5 630.5,-478.5 745.5,-478.5 745.5,-459.5 630.5,-459.5"/>
<text text-anchor="middle" x="688" y="-466.5" font-family="Helvetica,sans-Serif" font-size="10.00">l4/sys/cxx/ipc_types</text>
</a>
</g>
</g>
<!-- Node1&#45;&gt;Node23 -->
<g id="edge63" class="edge">
<title>Node1&#45;&gt;Node23</title>
<path fill="none" stroke="midnightblue" d="M606.27,-740.33C688.15,-725.44 850,-689.49 850,-638 850,-638 850,-638 850,-580 850,-524.93 785.14,-495.51 737.5,-481.33"/>
<polygon fill="midnightblue" stroke="midnightblue" points="738.21,-477.89 727.63,-478.53 736.3,-484.63 738.21,-477.89"/>
</g>
<!-- Node26 -->
<g id="node26" class="node">
<title>Node26</title>
<g id="a_node26"><a xlink:href="protocols_8h.html" target="_top" xlink:title="L4Re Protocol Constants (C version)">
<polygon fill="white" stroke="black" points="916.5,-683.5 916.5,-702.5 1011.5,-702.5 1011.5,-683.5 916.5,-683.5"/>
<text text-anchor="middle" x="964" y="-690.5" font-family="Helvetica,sans-Serif" font-size="10.00">l4/re/protocols.h</text>
</a>
</g>
</g>
<!-- Node1&#45;&gt;Node26 -->
<g id="edge62" class="edge">
<title>Node1&#45;&gt;Node26</title>
<path fill="none" stroke="midnightblue" d="M606.22,-742.12C671.96,-733.7 796.26,-717.63 902,-703 903.3,-702.82 904.62,-702.64 905.95,-702.45"/>
<polygon fill="midnightblue" stroke="midnightblue" points="906.87,-705.86 916.28,-700.99 905.89,-698.92 906.87,-705.86"/>
</g>
<!-- Node2&#45;&gt;Node3 -->
<g id="edge2" class="edge">
<title>Node2&#45;&gt;Node3</title>
<path fill="none" stroke="midnightblue" d="M272.96,-176.37C239.62,-173.38 194.94,-163.27 172,-132 157.73,-112.55 183.34,-92.87 205.85,-80.34"/>
<polygon fill="midnightblue" stroke="midnightblue" points="207.65,-83.35 214.86,-75.59 204.39,-77.16 207.65,-83.35"/>
</g>
<!-- Node4 -->
<g id="node4" class="node">
<title>Node4</title>
<g id="a_node4"><a xlink:href="compiler_8h.html" target="_top" xlink:title="L4 compiler related defines.">
<polygon fill="white" stroke="black" points="540.5,-56.5 540.5,-75.5 639.5,-75.5 639.5,-56.5 540.5,-56.5"/>
<text text-anchor="middle" x="590" y="-63.5" font-family="Helvetica,sans-Serif" font-size="10.00">l4/sys/compiler.h</text>
</a>
</g>
</g>
<!-- Node2&#45;&gt;Node4 -->
<g id="edge3" class="edge">
<title>Node2&#45;&gt;Node4</title>
<path fill="none" stroke="midnightblue" d="M314.83,-168.35C315.06,-154.29 317.71,-126.59 334,-112 362.24,-86.71 463.68,-75.24 530.07,-70.33"/>
<polygon fill="midnightblue" stroke="midnightblue" points="530.68,-73.8 540.41,-69.6 530.19,-66.82 530.68,-73.8"/>
</g>
<!-- Node6 -->
<g id="node6" class="node">
<title>Node6</title>
<g id="a_node6"><a xlink:href="l4_2sys_2consts_8h.html" target="_top" xlink:title="Common constants.">
<polygon fill="white" stroke="black" points="509.5,-112.5 509.5,-131.5 598.5,-131.5 598.5,-112.5 509.5,-112.5"/>
<text text-anchor="middle" x="554" y="-119.5" font-family="Helvetica,sans-Serif" font-size="10.00">l4/sys/consts.h</text>
</a>
</g>
</g>
<!-- Node2&#45;&gt;Node6 -->
<g id="edge5" class="edge">
<title>Node2&#45;&gt;Node6</title>
<path fill="none" stroke="midnightblue" d="M352.87,-168.44C394.48,-159.04 461.37,-143.93 506.47,-133.74"/>
<polygon fill="midnightblue" stroke="midnightblue" points="507.32,-137.13 516.31,-131.52 505.78,-130.31 507.32,-137.13"/>
</g>
<!-- Node7 -->
<g id="node7" class="node">
<title>Node7</title>
<g id="a_node7"><a xlink:href="____l4__fpage_8h_source.html" target="_top" xlink:title=" ">
<polygon fill="white" stroke="black" points="343,-112.5 343,-131.5 453,-131.5 453,-112.5 343,-112.5"/>
<text text-anchor="middle" x="398" y="-119.5" font-family="Helvetica,sans-Serif" font-size="10.00">l4/sys/__l4_fpage.h</text>
</a>
</g>
</g>
<!-- Node2&#45;&gt;Node7 -->
<g id="edge8" class="edge">
<title>Node2&#45;&gt;Node7</title>
<path fill="none" stroke="midnightblue" d="M328.34,-168.32C341.16,-159.98 360.78,-147.21 375.94,-137.35"/>
<polygon fill="midnightblue" stroke="midnightblue" points="378.22,-140.04 384.7,-131.65 374.41,-134.17 378.22,-140.04"/>
</g>
<!-- Node8 -->
<g id="node8" class="node">
<title>Node8</title>
<g id="a_node8"><a xlink:href="____timeout_8h_source.html" target="_top" xlink:title=" ">
<polygon fill="white" stroke="black" points="181,-112.5 181,-131.5 287,-131.5 287,-112.5 181,-112.5"/>
<text text-anchor="middle" x="234" y="-119.5" font-family="Helvetica,sans-Serif" font-size="10.00">l4/sys/__timeout.h</text>
</a>
</g>
</g>
<!-- Node2&#45;&gt;Node8 -->
<g id="edge10" class="edge">
<title>Node2&#45;&gt;Node8</title>
<path fill="none" stroke="midnightblue" d="M301.99,-168.32C289.47,-159.98 270.32,-147.21 255.53,-137.35"/>
<polygon fill="midnightblue" stroke="midnightblue" points="257.24,-134.29 246.98,-131.65 253.36,-140.11 257.24,-134.29"/>
</g>
<!-- Node5 -->
<g id="node5" class="node">
<title>Node5</title>
<g id="a_node5"><a xlink:title=" ">
<polygon fill="white" stroke="#bfbfbf" points="544,-0.5 544,-19.5 636,-19.5 636,-0.5 544,-0.5"/>
<text text-anchor="middle" x="590" y="-7.5" font-family="Helvetica,sans-Serif" font-size="10.00">l4/sys/linkage.h</text>
</a>
</g>
</g>
<!-- Node4&#45;&gt;Node5 -->
<g id="edge4" class="edge">
<title>Node4&#45;&gt;Node5</title>
<path fill="none" stroke="midnightblue" d="M590,-56.08C590,-49.01 590,-38.86 590,-29.99"/>
<polygon fill="midnightblue" stroke="midnightblue" points="593.5,-29.75 590,-19.75 586.5,-29.75 593.5,-29.75"/>
</g>
<!-- Node6&#45;&gt;Node3 -->
<g id="edge7" class="edge">
<title>Node6&#45;&gt;Node3</title>
<path fill="none" stroke="midnightblue" d="M509.17,-113.43C449.86,-103.43 345.64,-85.84 283.89,-75.42"/>
<polygon fill="midnightblue" stroke="midnightblue" points="284.43,-71.96 273.99,-73.75 283.27,-78.86 284.43,-71.96"/>
</g>
<!-- Node6&#45;&gt;Node4 -->
<g id="edge6" class="edge">
<title>Node6&#45;&gt;Node4</title>
<path fill="none" stroke="midnightblue" d="M559.94,-112.08C564.98,-104.53 572.34,-93.49 578.51,-84.23"/>
<polygon fill="midnightblue" stroke="midnightblue" points="581.53,-86.01 584.17,-75.75 575.71,-82.13 581.53,-86.01"/>
</g>
<!-- Node7&#45;&gt;Node4 -->
<g id="edge9" class="edge">
<title>Node7&#45;&gt;Node4</title>
<path fill="none" stroke="midnightblue" d="M428.42,-112.44C461.28,-103.2 513.78,-88.44 549.97,-78.26"/>
<polygon fill="midnightblue" stroke="midnightblue" points="551.04,-81.59 559.72,-75.52 549.15,-74.85 551.04,-81.59"/>
</g>
<!-- Node8&#45;&gt;Node3 -->
<g id="edge11" class="edge">
<title>Node8&#45;&gt;Node3</title>
<path fill="none" stroke="midnightblue" d="M234,-112.08C234,-105.01 234,-94.86 234,-85.99"/>
<polygon fill="midnightblue" stroke="midnightblue" points="237.5,-85.75 234,-75.75 230.5,-85.75 237.5,-85.75"/>
</g>
<!-- Node9&#45;&gt;Node2 -->
<g id="edge15" class="edge">
<title>Node9&#45;&gt;Node2</title>
<path fill="none" stroke="midnightblue" d="M343.66,-685.43C255.14,-672.02 76,-637.98 76,-582 76,-582 76,-582 76,-289 76,-207.37 192.47,-186.1 262.8,-180.7"/>
<polygon fill="midnightblue" stroke="midnightblue" points="263.08,-184.19 272.82,-180.02 262.61,-177.21 263.08,-184.19"/>
</g>
<!-- Node9&#45;&gt;Node6 -->
<g id="edge14" class="edge">
<title>Node9&#45;&gt;Node6</title>
<path fill="none" stroke="midnightblue" d="M397.28,-683.23C407.73,-665.04 430,-621.6 430,-582 430,-582 430,-582 430,-468 430,-437.9 432.66,-428.28 449,-403 490.59,-338.67 580,-367.6 580,-291 580,-291 580,-291 580,-233 580,-199.93 568.73,-162.73 561.03,-141.17"/>
<polygon fill="midnightblue" stroke="midnightblue" points="564.27,-139.83 557.51,-131.68 557.71,-142.27 564.27,-139.83"/>
</g>
<!-- Node10 -->
<g id="node10" class="node">
<title>Node10</title>
<g id="a_node10"><a xlink:href="kobject_source.html" target="_top" xlink:title=" ">
<polygon fill="white" stroke="black" points="242.5,-515.5 242.5,-534.5 325.5,-534.5 325.5,-515.5 242.5,-515.5"/>
<text text-anchor="middle" x="284" y="-522.5" font-family="Helvetica,sans-Serif" font-size="10.00">l4/sys/kobject</text>
</a>
</g>
</g>
<!-- Node9&#45;&gt;Node10 -->
<g id="edge16" class="edge">
<title>Node9&#45;&gt;Node10</title>
<path fill="none" stroke="midnightblue" d="M379.08,-683.26C367.63,-674.99 351.06,-661.69 340,-647 315.38,-614.3 298.05,-569.04 289.69,-544.18"/>
<polygon fill="midnightblue" stroke="midnightblue" points="292.99,-543.01 286.57,-534.58 286.33,-545.18 292.99,-543.01"/>
</g>
<!-- Node20 -->
<g id="node20" class="node">
<title>Node20</title>
<g id="a_node20"><a xlink:href="l4_2sys_2task_8h.html" target="_top" xlink:title="Common task related definitions.">
<polygon fill="white" stroke="black" points="398,-342 398,-361 476,-361 476,-342 398,-342"/>
<text text-anchor="middle" x="437" y="-349" font-family="Helvetica,sans-Serif" font-size="10.00">l4/sys/task.h</text>
</a>
</g>
</g>
<!-- Node9&#45;&gt;Node20 -->
<g id="edge45" class="edge">
<title>Node9&#45;&gt;Node20</title>
<path fill="none" stroke="midnightblue" d="M386.72,-683.23C376.27,-665.04 354,-621.6 354,-582 354,-582 354,-582 354,-468 354,-425.15 392.14,-387.32 416.71,-367.39"/>
<polygon fill="midnightblue" stroke="midnightblue" points="419.03,-370.03 424.75,-361.11 414.72,-364.51 419.03,-370.03"/>
</g>
<!-- Node21 -->
<g id="node21" class="node">
<title>Node21</title>
<g id="a_node21"><a xlink:href="sys_2meta.html" target="_top" xlink:title="Meta interface for getting dynamic type information about objects behind capabilities.">
<polygon fill="white" stroke="black" points="458,-627.5 458,-646.5 532,-646.5 532,-627.5 458,-627.5"/>
<text text-anchor="middle" x="495" y="-634.5" font-family="Helvetica,sans-Serif" font-size="10.00">l4/sys/meta</text>
</a>
</g>
</g>
<!-- Node9&#45;&gt;Node21 -->
<g id="edge46" class="edge">
<title>Node9&#45;&gt;Node21</title>
<path fill="none" stroke="midnightblue" d="M408.55,-683.32C424.99,-674.7 450.43,-661.36 469.47,-651.39"/>
<polygon fill="midnightblue" stroke="midnightblue" points="471.26,-654.4 478.49,-646.65 468.01,-648.2 471.26,-654.4"/>
</g>
<!-- Node10&#45;&gt;Node2 -->
<g id="edge31" class="edge">
<title>Node10&#45;&gt;Node2</title>
<path fill="none" stroke="midnightblue" d="M242.41,-516.09C192.09,-503.84 114,-474.99 114,-414 114,-414 114,-414 114,-289 114,-221.12 203.29,-194.86 262.85,-184.89"/>
<polygon fill="midnightblue" stroke="midnightblue" points="263.53,-188.33 272.86,-183.32 262.44,-181.42 263.53,-188.33"/>
</g>
<!-- Node11 -->
<g id="node11" class="node">
<title>Node11</title>
<g id="a_node11"><a xlink:href="kernel__object_8h.html" target="_top" xlink:title="Kernel object system calls.">
<polygon fill="white" stroke="black" points="234.5,-403.5 234.5,-422.5 325.5,-422.5 325.5,-403.5 234.5,-403.5"/>
<text text-anchor="middle" x="280" y="-410.5" font-family="Helvetica,sans-Serif" font-size="10.00">kernel_object.h</text>
</a>
</g>
</g>
<!-- Node10&#45;&gt;Node11 -->
<g id="edge17" class="edge">
<title>Node10&#45;&gt;Node11</title>
<path fill="none" stroke="midnightblue" d="M283.69,-515.37C283.04,-497.62 281.55,-456.67 280.68,-432.6"/>
<polygon fill="midnightblue" stroke="midnightblue" points="284.17,-432.46 280.31,-422.59 277.18,-432.71 284.17,-432.46"/>
</g>
<!-- Node16 -->
<g id="node16" class="node">
<title>Node16</title>
<g id="a_node16"><a xlink:href="____typeinfo_8h.html" target="_top" xlink:title="Type information handling.">
<polygon fill="white" stroke="black" points="458.5,-459.5 458.5,-478.5 535.5,-478.5 535.5,-459.5 458.5,-459.5"/>
<text text-anchor="middle" x="497" y="-466.5" font-family="Helvetica,sans-Serif" font-size="10.00">__typeinfo.h</text>
</a>
</g>
</g>
<!-- Node10&#45;&gt;Node16 -->
<g id="edge32" class="edge">
<title>Node10&#45;&gt;Node16</title>
<path fill="none" stroke="midnightblue" d="M317.75,-515.44C354.52,-506.12 413.45,-491.18 453.62,-481"/>
<polygon fill="midnightblue" stroke="midnightblue" points="454.57,-484.37 463.41,-478.52 452.85,-477.58 454.57,-484.37"/>
</g>
<!-- Node11&#45;&gt;Node2 -->
<g id="edge18" class="edge">
<title>Node11&#45;&gt;Node2</title>
<path fill="none" stroke="midnightblue" d="M250.12,-403.39C232.46,-396.59 211.55,-385.15 201,-367 194.08,-355.09 196.8,-349.12 201,-336 220,-276.7 271.01,-221.17 297.89,-194.89"/>
<polygon fill="midnightblue" stroke="midnightblue" points="300.6,-197.15 305.4,-187.7 295.75,-192.09 300.6,-197.15"/>
</g>
<!-- Node11&#45;&gt;Node4 -->
<g id="edge19" class="edge">
<title>Node11&#45;&gt;Node4</title>
<path fill="none" stroke="midnightblue" d="M325.63,-411.95C370.1,-409.75 437.74,-400.51 485,-367 583.81,-296.95 592.71,-249.27 623,-132 625.22,-123.39 625.77,-120.45 623,-112 619.51,-101.34 612.43,-91.12 605.71,-83.12"/>
<polygon fill="midnightblue" stroke="midnightblue" points="608.3,-80.76 599.02,-75.66 603.1,-85.44 608.3,-80.76"/>
</g>
<!-- Node12 -->
<g id="node12" class="node">
<title>Node12</title>
<g id="a_node12"><a xlink:href="l4_2sys_2utcb_8h.html" target="_top" xlink:title="UTCB definitions.">
<polygon fill="white" stroke="black" points="474,-224.5 474,-243.5 552,-243.5 552,-224.5 474,-224.5"/>
<text text-anchor="middle" x="513" y="-231.5" font-family="Helvetica,sans-Serif" font-size="10.00">l4/sys/utcb.h</text>
</a>
</g>
</g>
<!-- Node11&#45;&gt;Node12 -->
<g id="edge20" class="edge">
<title>Node11&#45;&gt;Node12</title>
<path fill="none" stroke="midnightblue" d="M254.84,-403.38C238.58,-396.34 218.71,-384.65 209,-367 202.36,-354.93 202.31,-348.04 209,-336 231.88,-294.82 255.28,-297.56 299,-280 353.26,-258.21 419.68,-246.35 464,-240.36"/>
<polygon fill="midnightblue" stroke="midnightblue" points="464.47,-243.83 473.93,-239.07 463.56,-236.89 464.47,-243.83"/>
</g>
<!-- Node13 -->
<g id="node13" class="node">
<title>Node13</title>
<g id="a_node13"><a xlink:href="____kernel__object__impl_8h.html" target="_top" xlink:title="Low&#45;level kernel debugger functions.">
<polygon fill="white" stroke="black" points="218,-336.5 218,-366.5 342,-366.5 342,-336.5 218,-336.5"/>
<text text-anchor="start" x="226" y="-354.5" font-family="Helvetica,sans-Serif" font-size="10.00">l4/sys/__kernel_object</text>
<text text-anchor="middle" x="280" y="-343.5" font-family="Helvetica,sans-Serif" font-size="10.00">_impl.h</text>
</a>
</g>
</g>
<!-- Node11&#45;&gt;Node13 -->
<g id="edge24" class="edge">
<title>Node11&#45;&gt;Node13</title>
<path fill="none" stroke="midnightblue" d="M280,-403.48C280,-396.47 280,-386.19 280,-376.7"/>
<polygon fill="midnightblue" stroke="midnightblue" points="283.5,-376.52 280,-366.52 276.5,-376.52 283.5,-376.52"/>
</g>
<!-- Node14 -->
<g id="node14" class="node">
<title>Node14</title>
<g id="a_node14"><a xlink:href="l4_2sys_2ipc_8h.html" target="_top" xlink:title="Common IPC interface.">
<polygon fill="white" stroke="black" points="308.5,-280.5 308.5,-299.5 379.5,-299.5 379.5,-280.5 308.5,-280.5"/>
<text text-anchor="middle" x="344" y="-287.5" font-family="Helvetica,sans-Serif" font-size="10.00">l4/sys/ipc.h</text>
</a>
</g>
</g>
<!-- Node11&#45;&gt;Node14 -->
<g id="edge30" class="edge">
<title>Node11&#45;&gt;Node14</title>
<path fill="none" stroke="midnightblue" d="M305.16,-403.38C321.42,-396.34 341.29,-384.65 351,-367 360.76,-349.27 356.38,-325.64 351.26,-309.46"/>
<polygon fill="midnightblue" stroke="midnightblue" points="354.41,-307.87 347.76,-299.62 347.81,-310.21 354.41,-307.87"/>
</g>
<!-- Node12&#45;&gt;Node2 -->
<g id="edge21" class="edge">
<title>Node12&#45;&gt;Node2</title>
<path fill="none" stroke="midnightblue" d="M481.63,-224.44C447.74,-215.2 393.6,-200.44 356.28,-190.26"/>
<polygon fill="midnightblue" stroke="midnightblue" points="356.8,-186.77 346.23,-187.52 354.95,-193.52 356.8,-186.77"/>
</g>
<!-- Node12&#45;&gt;Node3 -->
<g id="edge23" class="edge">
<title>Node12&#45;&gt;Node3</title>
<path fill="none" stroke="midnightblue" d="M512.09,-224.35C509.25,-201.93 498.42,-141.65 462,-112 435.29,-90.25 342.78,-77.49 284.13,-71.41"/>
<polygon fill="midnightblue" stroke="midnightblue" points="284.25,-67.91 273.95,-70.39 283.55,-74.87 284.25,-67.91"/>
</g>
<!-- Node12&#45;&gt;Node4 -->
<g id="edge22" class="edge">
<title>Node12&#45;&gt;Node4</title>
<path fill="none" stroke="midnightblue" d="M526.02,-224.31C547.91,-208.82 591.32,-174.07 608,-132 614.19,-116.39 607.79,-97.86 600.97,-84.59"/>
<polygon fill="midnightblue" stroke="midnightblue" points="603.85,-82.58 595.87,-75.6 597.76,-86.03 603.85,-82.58"/>
</g>
<!-- Node13&#45;&gt;Node14 -->
<g id="edge25" class="edge">
<title>Node13&#45;&gt;Node14</title>
<path fill="none" stroke="midnightblue" d="M295.17,-336.4C304.75,-327.49 317.16,-315.95 327.07,-306.74"/>
<polygon fill="midnightblue" stroke="midnightblue" points="329.75,-309.03 334.69,-299.66 324.98,-303.9 329.75,-309.03"/>
</g>
<!-- Node14&#45;&gt;Node2 -->
<g id="edge26" class="edge">
<title>Node14&#45;&gt;Node2</title>
<path fill="none" stroke="midnightblue" d="M341.72,-280.37C337.02,-262.54 326.15,-221.3 319.82,-197.27"/>
<polygon fill="midnightblue" stroke="midnightblue" points="323.2,-196.37 317.27,-187.59 316.43,-198.15 323.2,-196.37"/>
</g>
<!-- Node14&#45;&gt;Node12 -->
<g id="edge27" class="edge">
<title>Node14&#45;&gt;Node12</title>
<path fill="none" stroke="midnightblue" d="M370.78,-280.44C399.33,-271.32 444.73,-256.81 476.54,-246.65"/>
<polygon fill="midnightblue" stroke="midnightblue" points="477.89,-249.89 486.35,-243.52 475.76,-243.23 477.89,-249.89"/>
</g>
<!-- Node15 -->
<g id="node15" class="node">
<title>Node15</title>
<g id="a_node15"><a xlink:href="err_8h.html" target="_top" xlink:title="Error codes.">
<polygon fill="white" stroke="black" points="684,-224.5 684,-243.5 754,-243.5 754,-224.5 684,-224.5"/>
<text text-anchor="middle" x="719" y="-231.5" font-family="Helvetica,sans-Serif" font-size="10.00">l4/sys/err.h</text>
</a>
</g>
</g>
<!-- Node14&#45;&gt;Node15 -->
<g id="edge28" class="edge">
<title>Node14&#45;&gt;Node15</title>
<path fill="none" stroke="midnightblue" d="M379.62,-283.87C448.15,-274 598.26,-252.39 673.75,-241.52"/>
<polygon fill="midnightblue" stroke="midnightblue" points="674.49,-244.94 683.89,-240.06 673.5,-238.02 674.49,-244.94"/>
</g>
<!-- Node15&#45;&gt;Node4 -->
<g id="edge29" class="edge">
<title>Node15&#45;&gt;Node4</title>
<path fill="none" stroke="midnightblue" d="M721.04,-224.3C725.54,-202.77 733.99,-146.29 708,-112 693.93,-93.44 671.22,-82.53 649.46,-76.13"/>
<polygon fill="midnightblue" stroke="midnightblue" points="650.13,-72.68 639.56,-73.49 648.33,-79.44 650.13,-72.68"/>
</g>
<!-- Node16&#45;&gt;Node17 -->
<g id="edge33" class="edge">
<title>Node16&#45;&gt;Node17</title>
<path fill="none" stroke="midnightblue" d="M512.1,-459.34C535.8,-445.99 583.43,-420.14 626,-403 666.45,-386.72 714.25,-372.55 747.78,-363.39"/>
<polygon fill="midnightblue" stroke="midnightblue" points="748.96,-366.7 757.7,-360.72 747.14,-359.94 748.96,-366.7"/>
</g>
<!-- Node18 -->
<g id="node18" class="node">
<title>Node18</title>
<g id="a_node18"><a xlink:href="ipc__basics_source.html" target="_top" xlink:title=" ">
<polygon fill="white" stroke="black" points="634.5,-403.5 634.5,-422.5 721.5,-422.5 721.5,-403.5 634.5,-403.5"/>
<text text-anchor="middle" x="678" y="-410.5" font-family="Helvetica,sans-Serif" font-size="10.00">cxx/ipc_basics</text>
</a>
</g>
</g>
<!-- Node16&#45;&gt;Node18 -->
<g id="edge34" class="edge">
<title>Node16&#45;&gt;Node18</title>
<path fill="none" stroke="midnightblue" d="M525.68,-459.44C556.53,-450.24 605.73,-435.56 639.83,-425.39"/>
<polygon fill="midnightblue" stroke="midnightblue" points="640.87,-428.73 649.45,-422.52 638.87,-422.02 640.87,-428.73"/>
</g>
<!-- Node19 -->
<g id="node19" class="node">
<title>Node19</title>
<g id="a_node19"><a xlink:href="capability_8h_source.html" target="_top" xlink:title=" ">
<polygon fill="white" stroke="black" points="458,-403.5 458,-422.5 550,-422.5 550,-403.5 458,-403.5"/>
<text text-anchor="middle" x="504" y="-410.5" font-family="Helvetica,sans-Serif" font-size="10.00">cxx/capability.h</text>
</a>
</g>
</g>
<!-- Node16&#45;&gt;Node19 -->
<g id="edge38" class="edge">
<title>Node16&#45;&gt;Node19</title>
<path fill="none" stroke="midnightblue" d="M498.16,-459.08C499.08,-451.93 500.42,-441.64 501.58,-432.69"/>
<polygon fill="midnightblue" stroke="midnightblue" points="505.05,-433.12 502.87,-422.75 498.11,-432.22 505.05,-433.12"/>
</g>
<!-- Node18&#45;&gt;Node12 -->
<g id="edge36" class="edge">
<title>Node18&#45;&gt;Node12</title>
<path fill="none" stroke="midnightblue" d="M670.04,-403.46C644.19,-375.73 562.26,-287.85 528.14,-251.24"/>
<polygon fill="midnightblue" stroke="midnightblue" points="530.65,-248.8 521.27,-243.87 525.53,-253.57 530.65,-248.8"/>
</g>
<!-- Node18&#45;&gt;Node15 -->
<g id="edge37" class="edge">
<title>Node18&#45;&gt;Node15</title>
<path fill="none" stroke="midnightblue" d="M679.98,-403.46C686.27,-376.31 705.91,-291.51 714.69,-253.62"/>
<polygon fill="midnightblue" stroke="midnightblue" points="718.1,-254.4 716.95,-243.87 711.28,-252.82 718.1,-254.4"/>
</g>
<!-- Node18&#45;&gt;Node17 -->
<g id="edge35" class="edge">
<title>Node18&#45;&gt;Node17</title>
<path fill="none" stroke="midnightblue" d="M694.05,-403.48C712.59,-393.62 743.34,-377.29 765.02,-365.77"/>
<polygon fill="midnightblue" stroke="midnightblue" points="766.79,-368.79 773.98,-361.01 763.51,-362.61 766.79,-368.79"/>
</g>
<!-- Node19&#45;&gt;Node2 -->
<g id="edge40" class="edge">
<title>Node19&#45;&gt;Node2</title>
<path fill="none" stroke="midnightblue" d="M503.4,-403.45C502.04,-388.75 497.79,-358.14 485,-336 447.57,-271.22 374.64,-217.61 337.66,-193.2"/>
<polygon fill="midnightblue" stroke="midnightblue" points="339.38,-190.14 329.08,-187.63 335.57,-196.01 339.38,-190.14"/>
</g>
<!-- Node19&#45;&gt;Node6 -->
<g id="edge39" class="edge">
<title>Node19&#45;&gt;Node6</title>
<path fill="none" stroke="midnightblue" d="M533.31,-403.4C577.48,-388.42 656,-353.06 656,-291 656,-291 656,-291 656,-233 656,-188.39 610.34,-154.23 580.12,-136.51"/>
<polygon fill="midnightblue" stroke="midnightblue" points="581.73,-133.4 571.3,-131.55 578.3,-139.5 581.73,-133.4"/>
</g>
<!-- Node19&#45;&gt;Node20 -->
<g id="edge41" class="edge">
<title>Node19&#45;&gt;Node20</title>
<path fill="none" stroke="midnightblue" d="M494.4,-403.48C483.95,-394.2 467.03,-379.17 454.26,-367.83"/>
<polygon fill="midnightblue" stroke="midnightblue" points="456.38,-365.03 446.58,-361.01 451.73,-370.27 456.38,-365.03"/>
</g>
<!-- Node20&#45;&gt;Node2 -->
<g id="edge42" class="edge">
<title>Node20&#45;&gt;Node2</title>
<path fill="none" stroke="midnightblue" d="M431.02,-341.78C421.84,-328.43 403.69,-302.13 388,-280 366.84,-250.15 341.78,-215.67 327.21,-195.69"/>
<polygon fill="midnightblue" stroke="midnightblue" points="330.03,-193.62 321.3,-187.61 324.38,-197.75 330.03,-193.62"/>
</g>
<!-- Node20&#45;&gt;Node12 -->
<g id="edge43" class="edge">
<title>Node20&#45;&gt;Node12</title>
<path fill="none" stroke="midnightblue" d="M442.71,-341.82C455.2,-322.84 485.13,-277.35 501.62,-252.29"/>
<polygon fill="midnightblue" stroke="midnightblue" points="504.65,-254.06 507.22,-243.78 498.8,-250.21 504.65,-254.06"/>
</g>
<!-- Node20&#45;&gt;Node14 -->
<g id="edge44" class="edge">
<title>Node20&#45;&gt;Node14</title>
<path fill="none" stroke="midnightblue" d="M423.68,-341.98C408.62,-332.34 383.88,-316.52 365.96,-305.05"/>
<polygon fill="midnightblue" stroke="midnightblue" points="367.61,-301.95 357.3,-299.51 363.84,-307.85 367.61,-301.95"/>
</g>
<!-- Node21&#45;&gt;Node10 -->
<g id="edge47" class="edge">
<title>Node21&#45;&gt;Node10</title>
<path fill="none" stroke="midnightblue" d="M478.44,-627.37C441.7,-608.21 353.12,-562.04 309.35,-539.22"/>
<polygon fill="midnightblue" stroke="midnightblue" points="310.97,-536.11 300.48,-534.59 307.73,-542.32 310.97,-536.11"/>
</g>
<!-- Node21&#45;&gt;Node22 -->
<g id="edge48" class="edge">
<title>Node21&#45;&gt;Node22</title>
<path fill="none" stroke="midnightblue" d="M498.06,-627.37C504.38,-609.54 519,-568.3 527.52,-544.27"/>
<polygon fill="midnightblue" stroke="midnightblue" points="530.91,-545.19 530.95,-534.59 524.31,-542.85 530.91,-545.19"/>
</g>
<!-- Node24 -->
<g id="node24" class="node">
<title>Node24</title>
<g id="a_node24"><a xlink:href="ipc__string_source.html" target="_top" xlink:title=" ">
<polygon fill="white" stroke="black" points="649,-571.5 649,-590.5 733,-590.5 733,-571.5 649,-571.5"/>
<text text-anchor="middle" x="691" y="-578.5" font-family="Helvetica,sans-Serif" font-size="10.00">cxx/ipc_string</text>
</a>
</g>
</g>
<!-- Node21&#45;&gt;Node24 -->
<g id="edge55" class="edge">
<title>Node21&#45;&gt;Node24</title>
<path fill="none" stroke="midnightblue" d="M526.06,-627.44C559.6,-618.2 613.2,-603.44 650.14,-593.26"/>
<polygon fill="midnightblue" stroke="midnightblue" points="651.38,-596.55 660.09,-590.52 649.52,-589.8 651.38,-596.55"/>
</g>
<!-- Node22&#45;&gt;Node16 -->
<g id="edge54" class="edge">
<title>Node22&#45;&gt;Node16</title>
<path fill="none" stroke="midnightblue" d="M527.89,-515.08C522.72,-507.53 515.15,-496.49 508.81,-487.23"/>
<polygon fill="midnightblue" stroke="midnightblue" points="511.54,-485.02 503,-478.75 505.76,-488.98 511.54,-485.02"/>
</g>
<!-- Node22&#45;&gt;Node18 -->
<g id="edge49" class="edge">
<title>Node22&#45;&gt;Node18</title>
<path fill="none" stroke="midnightblue" d="M539.39,-515.45C548.21,-502.02 566.85,-475.78 588,-459 605.21,-445.35 627.22,-434.26 645.17,-426.5"/>
<polygon fill="midnightblue" stroke="midnightblue" points="646.78,-429.62 654.66,-422.53 644.09,-423.16 646.78,-429.62"/>
</g>
<!-- Node22&#45;&gt;Node23 -->
<g id="edge50" class="edge">
<title>Node22&#45;&gt;Node23</title>
<path fill="none" stroke="midnightblue" d="M558.4,-515.44C584.2,-506.4 625.08,-492.06 654.02,-481.92"/>
<polygon fill="midnightblue" stroke="midnightblue" points="655.43,-485.13 663.71,-478.52 653.12,-478.52 655.43,-485.13"/>
</g>
<!-- Node23&#45;&gt;Node17 -->
<g id="edge52" class="edge">
<title>Node23&#45;&gt;Node17</title>
<path fill="none" stroke="midnightblue" d="M696.74,-459.2C705.56,-450.24 719.47,-435.89 731,-423 747.04,-405.07 764.64,-383.82 776.41,-369.37"/>
<polygon fill="midnightblue" stroke="midnightblue" points="779.34,-371.31 782.91,-361.34 773.9,-366.9 779.34,-371.31"/>
</g>
<!-- Node23&#45;&gt;Node18 -->
<g id="edge53" class="edge">
<title>Node23&#45;&gt;Node18</title>
<path fill="none" stroke="midnightblue" d="M686.35,-459.08C685.02,-451.93 683.12,-441.64 681.46,-432.69"/>
<polygon fill="midnightblue" stroke="midnightblue" points="684.88,-431.95 679.62,-422.75 678,-433.22 684.88,-431.95"/>
</g>
<!-- Node23&#45;&gt;Node19 -->
<g id="edge51" class="edge">
<title>Node23&#45;&gt;Node19</title>
<path fill="none" stroke="midnightblue" d="M658.84,-459.44C627.49,-450.24 577.47,-435.56 542.8,-425.39"/>
<polygon fill="midnightblue" stroke="midnightblue" points="543.6,-421.97 533.02,-422.52 541.63,-428.69 543.6,-421.97"/>
</g>
<!-- Node24&#45;&gt;Node17 -->
<g id="edge56" class="edge">
<title>Node24&#45;&gt;Node17</title>
<path fill="none" stroke="midnightblue" d="M710.71,-571.45C726.35,-563.83 747.87,-551.34 762,-535 802.09,-488.63 809.13,-463.88 802,-403 800.75,-392.32 798.06,-380.63 795.54,-371.18"/>
<polygon fill="midnightblue" stroke="midnightblue" points="798.84,-370 792.76,-361.33 792.11,-371.9 798.84,-370"/>
</g>
<!-- Node24&#45;&gt;Node18 -->
<g id="edge57" class="edge">
<title>Node24&#45;&gt;Node18</title>
<path fill="none" stroke="midnightblue" d="M682.23,-571.27C666.49,-554.9 633.97,-517.75 622,-479 619.38,-470.51 618.16,-467.02 622,-459 628.25,-445.95 640.34,-435.49 651.68,-427.95"/>
<polygon fill="midnightblue" stroke="midnightblue" points="653.81,-430.75 660.5,-422.54 650.15,-424.79 653.81,-430.75"/>
</g>
<!-- Node25 -->
<g id="node25" class="node">
<title>Node25</title>
<g id="a_node25"><a xlink:href="ipc__array_source.html" target="_top" xlink:title=" ">
<polygon fill="white" stroke="black" points="691,-515.5 691,-534.5 753,-534.5 753,-515.5 691,-515.5"/>
<text text-anchor="middle" x="722" y="-522.5" font-family="Helvetica,sans-Serif" font-size="10.00">ipc_array</text>
</a>
</g>
</g>
<!-- Node24&#45;&gt;Node25 -->
<g id="edge58" class="edge">
<title>Node24&#45;&gt;Node25</title>
<path fill="none" stroke="midnightblue" d="M696.12,-571.08C700.41,-563.61 706.66,-552.72 711.94,-543.52"/>
<polygon fill="midnightblue" stroke="midnightblue" points="715.03,-545.17 716.98,-534.75 708.96,-541.68 715.03,-545.17"/>
</g>
<!-- Node25&#45;&gt;Node17 -->
<g id="edge59" class="edge">
<title>Node25&#45;&gt;Node17</title>
<path fill="none" stroke="midnightblue" d="M735.3,-515.35C746.47,-507.33 761.87,-494.34 770,-479 788.42,-444.24 790.93,-397.11 790.73,-371.31"/>
<polygon fill="midnightblue" stroke="midnightblue" points="794.22,-370.99 790.49,-361.08 787.22,-371.16 794.22,-370.99"/>
</g>
<!-- Node25&#45;&gt;Node18 -->
<g id="edge60" class="edge">
<title>Node25&#45;&gt;Node18</title>
<path fill="none" stroke="midnightblue" d="M732,-515.44C745.42,-502.87 766.34,-478.76 755,-459 746.38,-443.99 730.61,-433.5 715.57,-426.46"/>
<polygon fill="midnightblue" stroke="midnightblue" points="716.94,-423.24 706.37,-422.51 714.18,-429.67 716.94,-423.24"/>
</g>
<!-- Node25&#45;&gt;Node23 -->
<g id="edge61" class="edge">
<title>Node25&#45;&gt;Node23</title>
<path fill="none" stroke="midnightblue" d="M716.39,-515.08C711.63,-507.53 704.68,-496.49 698.85,-487.23"/>
<polygon fill="midnightblue" stroke="midnightblue" points="701.8,-485.35 693.51,-478.75 695.88,-489.08 701.8,-485.35"/>
</g>
</g>
</svg>
