<?xml version="1.0" encoding="UTF-8" standalone="no"?>
<!DOCTYPE svg PUBLIC "-//W3C//DTD SVG 1.1//EN"
 "http://www.w3.org/Graphics/SVG/1.1/DTD/svg11.dtd">
<!-- Generated by graphviz version 2.43.0 (0)
 -->
<!-- Title: l4/sys/debugger.h Pages: 1 -->
<svg width="606pt" height="487pt"
 viewBox="0.00 0.00 606.45 487.00" xmlns="http://www.w3.org/2000/svg" xmlns:xlink="http://www.w3.org/1999/xlink">
<g id="graph0" class="graph" transform="scale(1 1) rotate(0) translate(4 483)">
<title>l4/sys/debugger.h</title>
<polygon fill="white" stroke="transparent" points="-4,4 -4,-483 602.45,-483 602.45,4 -4,4"/>
<!-- Node1 -->
<g id="node1" class="node">
<title>Node1</title>
<g id="a_node1"><a xlink:title="Debugger related definitions.">
<polygon fill="#bfbfbf" stroke="black" points="240,-459.5 240,-478.5 342,-478.5 342,-459.5 240,-459.5"/>
<text text-anchor="middle" x="291" y="-466.5" font-family="Helvetica,sans-Serif" font-size="10.00">l4/sys/debugger.h</text>
</a>
</g>
</g>
<!-- Node2 -->
<g id="node2" class="node">
<title>Node2</title>
<g id="a_node2"><a xlink:href="compiler_8h.html" target="_top" xlink:title="L4 compiler related defines.">
<polygon fill="white" stroke="black" points="89.5,-56.5 89.5,-75.5 188.5,-75.5 188.5,-56.5 89.5,-56.5"/>
<text text-anchor="middle" x="139" y="-63.5" font-family="Helvetica,sans-Serif" font-size="10.00">l4/sys/compiler.h</text>
</a>
</g>
</g>
<!-- Node1&#45;&gt;Node2 -->
<g id="edge1" class="edge">
<title>Node1&#45;&gt;Node2</title>
<path fill="none" stroke="midnightblue" d="M244.25,-459.48C161.99,-443.15 0,-404.41 0,-352.5 0,-352.5 0,-352.5 0,-177 0,-125.58 59.23,-94.42 100.36,-78.98"/>
<polygon fill="midnightblue" stroke="midnightblue" points="101.63,-82.24 109.86,-75.57 99.27,-75.65 101.63,-82.24"/>
</g>
<!-- Node4 -->
<g id="node4" class="node">
<title>Node4</title>
<g id="a_node4"><a xlink:href="l4_2sys_2utcb_8h.html" target="_top" xlink:title="UTCB definitions.">
<polygon fill="white" stroke="black" points="334,-224.5 334,-243.5 412,-243.5 412,-224.5 334,-224.5"/>
<text text-anchor="middle" x="373" y="-231.5" font-family="Helvetica,sans-Serif" font-size="10.00">l4/sys/utcb.h</text>
</a>
</g>
</g>
<!-- Node1&#45;&gt;Node4 -->
<g id="edge3" class="edge">
<title>Node1&#45;&gt;Node4</title>
<path fill="none" stroke="midnightblue" d="M296.12,-459.27C310.07,-434.98 348.89,-364.2 366,-300 370.07,-284.73 371.78,-266.85 372.5,-253.71"/>
<polygon fill="midnightblue" stroke="midnightblue" points="376,-253.7 372.91,-243.57 369.01,-253.42 376,-253.7"/>
</g>
<!-- Node10 -->
<g id="node10" class="node">
<title>Node10</title>
<g id="a_node10"><a xlink:href="l4_2sys_2ipc_8h.html" target="_top" xlink:title="Common IPC interface.">
<polygon fill="white" stroke="black" points="264.5,-280.5 264.5,-299.5 335.5,-299.5 335.5,-280.5 264.5,-280.5"/>
<text text-anchor="middle" x="300" y="-287.5" font-family="Helvetica,sans-Serif" font-size="10.00">l4/sys/ipc.h</text>
</a>
</g>
</g>
<!-- Node1&#45;&gt;Node10 -->
<g id="edge16" class="edge">
<title>Node1&#45;&gt;Node10</title>
<path fill="none" stroke="midnightblue" d="M292.35,-459.4C293.73,-450.36 295.81,-435.71 297,-423 300.75,-382.82 300.76,-335.48 300.4,-309.83"/>
<polygon fill="midnightblue" stroke="midnightblue" points="303.9,-309.61 300.22,-299.67 296.9,-309.73 303.9,-309.61"/>
</g>
<!-- Node12 -->
<g id="node12" class="node">
<title>Node12</title>
<g id="a_node12"><a xlink:href="kernel__object_8h.html" target="_top" xlink:title="Kernel object system calls.">
<polygon fill="white" stroke="black" points="166,-403.5 166,-422.5 288,-422.5 288,-403.5 166,-403.5"/>
<text text-anchor="middle" x="227" y="-410.5" font-family="Helvetica,sans-Serif" font-size="10.00">l4/sys/kernel_object.h</text>
</a>
</g>
</g>
<!-- Node1&#45;&gt;Node12 -->
<g id="edge21" class="edge">
<title>Node1&#45;&gt;Node12</title>
<path fill="none" stroke="midnightblue" d="M280.72,-459.32C271.16,-451.26 256.72,-439.08 245.22,-429.37"/>
<polygon fill="midnightblue" stroke="midnightblue" points="247.37,-426.61 237.47,-422.83 242.86,-431.96 247.37,-426.61"/>
</g>
<!-- Node3 -->
<g id="node3" class="node">
<title>Node3</title>
<g id="a_node3"><a xlink:title=" ">
<polygon fill="white" stroke="#bfbfbf" points="93,-0.5 93,-19.5 185,-19.5 185,-0.5 93,-0.5"/>
<text text-anchor="middle" x="139" y="-7.5" font-family="Helvetica,sans-Serif" font-size="10.00">l4/sys/linkage.h</text>
</a>
</g>
</g>
<!-- Node2&#45;&gt;Node3 -->
<g id="edge2" class="edge">
<title>Node2&#45;&gt;Node3</title>
<path fill="none" stroke="midnightblue" d="M139,-56.08C139,-49.01 139,-38.86 139,-29.99"/>
<polygon fill="midnightblue" stroke="midnightblue" points="142.5,-29.75 139,-19.75 135.5,-29.75 142.5,-29.75"/>
</g>
<!-- Node4&#45;&gt;Node2 -->
<g id="edge14" class="edge">
<title>Node4&#45;&gt;Node2</title>
<path fill="none" stroke="midnightblue" d="M340.65,-224.4C296.63,-211.22 217.78,-182.13 169,-132 156.29,-118.94 148.3,-99.52 143.79,-85.3"/>
<polygon fill="midnightblue" stroke="midnightblue" points="147.14,-84.28 141,-75.64 140.41,-86.22 147.14,-84.28"/>
</g>
<!-- Node5 -->
<g id="node5" class="node">
<title>Node5</title>
<g id="a_node5"><a xlink:href="l4_2sys_2types_8h.html" target="_top" xlink:title="Common L4 ABI Data Types.">
<polygon fill="white" stroke="black" points="297,-168.5 297,-187.5 381,-187.5 381,-168.5 297,-168.5"/>
<text text-anchor="middle" x="339" y="-175.5" font-family="Helvetica,sans-Serif" font-size="10.00">l4/sys/types.h</text>
</a>
</g>
</g>
<!-- Node4&#45;&gt;Node5 -->
<g id="edge4" class="edge">
<title>Node4&#45;&gt;Node5</title>
<path fill="none" stroke="midnightblue" d="M367.39,-224.08C362.63,-216.53 355.68,-205.49 349.85,-196.23"/>
<polygon fill="midnightblue" stroke="midnightblue" points="352.8,-194.35 344.51,-187.75 346.88,-198.08 352.8,-194.35"/>
</g>
<!-- Node6 -->
<g id="node6" class="node">
<title>Node6</title>
<g id="a_node6"><a xlink:href="l4_2sys_2l4int_8h.html" target="_top" xlink:title="Fixed sized integer types, generic version.">
<polygon fill="white" stroke="black" points="451.5,-56.5 451.5,-75.5 530.5,-75.5 530.5,-56.5 451.5,-56.5"/>
<text text-anchor="middle" x="491" y="-63.5" font-family="Helvetica,sans-Serif" font-size="10.00">l4/sys/l4int.h</text>
</a>
</g>
</g>
<!-- Node4&#45;&gt;Node6 -->
<g id="edge15" class="edge">
<title>Node4&#45;&gt;Node6</title>
<path fill="none" stroke="midnightblue" d="M412.06,-227.95C463.95,-218.92 553.75,-194.64 594,-132 610.75,-105.93 574.58,-88.41 540.58,-78.19"/>
<polygon fill="midnightblue" stroke="midnightblue" points="541.2,-74.73 530.63,-75.38 539.3,-81.47 541.2,-74.73"/>
</g>
<!-- Node5&#45;&gt;Node2 -->
<g id="edge6" class="edge">
<title>Node5&#45;&gt;Node2</title>
<path fill="none" stroke="midnightblue" d="M296.96,-170.05C267,-163.66 226.74,-152.05 196,-132 176.82,-119.49 160.25,-98.8 150,-84.13"/>
<polygon fill="midnightblue" stroke="midnightblue" points="152.69,-81.85 144.21,-75.5 146.88,-85.76 152.69,-81.85"/>
</g>
<!-- Node5&#45;&gt;Node6 -->
<g id="edge5" class="edge">
<title>Node5&#45;&gt;Node6</title>
<path fill="none" stroke="midnightblue" d="M362.26,-168.44C381.7,-160.64 409.61,-147.93 431,-132 449.77,-118.02 467.45,-97.66 478.69,-83.46"/>
<polygon fill="midnightblue" stroke="midnightblue" points="481.47,-85.58 484.81,-75.53 475.93,-81.31 481.47,-85.58"/>
</g>
<!-- Node7 -->
<g id="node7" class="node">
<title>Node7</title>
<g id="a_node7"><a xlink:href="l4_2sys_2consts_8h.html" target="_top" xlink:title="Common constants.">
<polygon fill="white" stroke="black" points="333.5,-112.5 333.5,-131.5 422.5,-131.5 422.5,-112.5 333.5,-112.5"/>
<text text-anchor="middle" x="378" y="-119.5" font-family="Helvetica,sans-Serif" font-size="10.00">l4/sys/consts.h</text>
</a>
</g>
</g>
<!-- Node5&#45;&gt;Node7 -->
<g id="edge7" class="edge">
<title>Node5&#45;&gt;Node7</title>
<path fill="none" stroke="midnightblue" d="M345.44,-168.08C350.95,-160.46 359.03,-149.26 365.76,-139.94"/>
<polygon fill="midnightblue" stroke="midnightblue" points="368.66,-141.91 371.68,-131.75 362.99,-137.81 368.66,-141.91"/>
</g>
<!-- Node8 -->
<g id="node8" class="node">
<title>Node8</title>
<g id="a_node8"><a xlink:href="____l4__fpage_8h_source.html" target="_top" xlink:title=" ">
<polygon fill="white" stroke="black" points="205,-112.5 205,-131.5 315,-131.5 315,-112.5 205,-112.5"/>
<text text-anchor="middle" x="260" y="-119.5" font-family="Helvetica,sans-Serif" font-size="10.00">l4/sys/__l4_fpage.h</text>
</a>
</g>
</g>
<!-- Node5&#45;&gt;Node8 -->
<g id="edge10" class="edge">
<title>Node5&#45;&gt;Node8</title>
<path fill="none" stroke="midnightblue" d="M326.31,-168.32C314.1,-159.98 295.42,-147.21 281,-137.35"/>
<polygon fill="midnightblue" stroke="midnightblue" points="282.89,-134.41 272.66,-131.65 278.94,-140.19 282.89,-134.41"/>
</g>
<!-- Node9 -->
<g id="node9" class="node">
<title>Node9</title>
<g id="a_node9"><a xlink:href="____timeout_8h_source.html" target="_top" xlink:title=" ">
<polygon fill="white" stroke="black" points="479,-112.5 479,-131.5 585,-131.5 585,-112.5 479,-112.5"/>
<text text-anchor="middle" x="532" y="-119.5" font-family="Helvetica,sans-Serif" font-size="10.00">l4/sys/__timeout.h</text>
</a>
</g>
</g>
<!-- Node5&#45;&gt;Node9 -->
<g id="edge12" class="edge">
<title>Node5&#45;&gt;Node9</title>
<path fill="none" stroke="midnightblue" d="M369.58,-168.44C402.61,-159.2 455.39,-144.44 491.77,-134.26"/>
<polygon fill="midnightblue" stroke="midnightblue" points="492.87,-137.58 501.56,-131.52 490.99,-130.84 492.87,-137.58"/>
</g>
<!-- Node7&#45;&gt;Node2 -->
<g id="edge8" class="edge">
<title>Node7&#45;&gt;Node2</title>
<path fill="none" stroke="midnightblue" d="M340.13,-112.44C298.52,-103.04 231.63,-87.93 186.53,-77.74"/>
<polygon fill="midnightblue" stroke="midnightblue" points="187.22,-74.31 176.69,-75.52 185.68,-81.13 187.22,-74.31"/>
</g>
<!-- Node7&#45;&gt;Node6 -->
<g id="edge9" class="edge">
<title>Node7&#45;&gt;Node6</title>
<path fill="none" stroke="midnightblue" d="M395.91,-112.44C414.25,-103.68 443.01,-89.94 464.09,-79.86"/>
<polygon fill="midnightblue" stroke="midnightblue" points="465.67,-82.99 473.18,-75.52 462.65,-76.67 465.67,-82.99"/>
</g>
<!-- Node8&#45;&gt;Node2 -->
<g id="edge11" class="edge">
<title>Node8&#45;&gt;Node2</title>
<path fill="none" stroke="midnightblue" d="M240.83,-112.44C221.09,-103.64 190.11,-89.81 167.51,-79.72"/>
<polygon fill="midnightblue" stroke="midnightblue" points="168.64,-76.4 158.08,-75.52 165.79,-82.79 168.64,-76.4"/>
</g>
<!-- Node9&#45;&gt;Node6 -->
<g id="edge13" class="edge">
<title>Node9&#45;&gt;Node6</title>
<path fill="none" stroke="midnightblue" d="M525.23,-112.08C519.44,-104.46 510.94,-93.26 503.86,-83.94"/>
<polygon fill="midnightblue" stroke="midnightblue" points="506.48,-81.6 497.64,-75.75 500.9,-85.83 506.48,-81.6"/>
</g>
<!-- Node10&#45;&gt;Node4 -->
<g id="edge18" class="edge">
<title>Node10&#45;&gt;Node4</title>
<path fill="none" stroke="midnightblue" d="M311.73,-280.32C322.84,-272.11 339.74,-259.6 352.98,-249.81"/>
<polygon fill="midnightblue" stroke="midnightblue" points="355.1,-252.59 361.06,-243.83 350.94,-246.97 355.1,-252.59"/>
</g>
<!-- Node10&#45;&gt;Node5 -->
<g id="edge17" class="edge">
<title>Node10&#45;&gt;Node5</title>
<path fill="none" stroke="midnightblue" d="M303.06,-280.37C309.38,-262.54 324,-221.3 332.52,-197.27"/>
<polygon fill="midnightblue" stroke="midnightblue" points="335.91,-198.19 335.95,-187.59 329.31,-195.85 335.91,-198.19"/>
</g>
<!-- Node11 -->
<g id="node11" class="node">
<title>Node11</title>
<g id="a_node11"><a xlink:href="err_8h.html" target="_top" xlink:title="Error codes.">
<polygon fill="white" stroke="black" points="66,-168.5 66,-187.5 136,-187.5 136,-168.5 66,-168.5"/>
<text text-anchor="middle" x="101" y="-175.5" font-family="Helvetica,sans-Serif" font-size="10.00">l4/sys/err.h</text>
</a>
</g>
</g>
<!-- Node10&#45;&gt;Node11 -->
<g id="edge19" class="edge">
<title>Node10&#45;&gt;Node11</title>
<path fill="none" stroke="midnightblue" d="M284.38,-280.37C249.87,-261.29 166.89,-215.42 125.43,-192.51"/>
<polygon fill="midnightblue" stroke="midnightblue" points="126.99,-189.37 116.54,-187.59 123.6,-195.49 126.99,-189.37"/>
</g>
<!-- Node11&#45;&gt;Node2 -->
<g id="edge20" class="edge">
<title>Node11&#45;&gt;Node2</title>
<path fill="none" stroke="midnightblue" d="M103.98,-168.37C110.14,-150.54 124.39,-109.3 132.69,-85.27"/>
<polygon fill="midnightblue" stroke="midnightblue" points="136.07,-86.19 136.03,-75.59 129.46,-83.9 136.07,-86.19"/>
</g>
<!-- Node12&#45;&gt;Node2 -->
<g id="edge23" class="edge">
<title>Node12&#45;&gt;Node2</title>
<path fill="none" stroke="midnightblue" d="M180.77,-403.46C124.81,-390.15 38,-358.6 38,-291 38,-291 38,-291 38,-177 38,-132.59 83.21,-98.37 113.14,-80.58"/>
<polygon fill="midnightblue" stroke="midnightblue" points="114.92,-83.59 121.87,-75.59 111.45,-77.51 114.92,-83.59"/>
</g>
<!-- Node12&#45;&gt;Node4 -->
<g id="edge24" class="edge">
<title>Node12&#45;&gt;Node4</title>
<path fill="none" stroke="midnightblue" d="M245.63,-403.41C261.38,-395.51 283.88,-382.67 300,-367 334.32,-333.65 356.84,-280.65 366.92,-253.05"/>
<polygon fill="midnightblue" stroke="midnightblue" points="370.26,-254.1 370.27,-243.5 363.66,-251.78 370.26,-254.1"/>
</g>
<!-- Node12&#45;&gt;Node5 -->
<g id="edge22" class="edge">
<title>Node12&#45;&gt;Node5</title>
<path fill="none" stroke="midnightblue" d="M189.9,-403.46C170.56,-396.92 148.57,-385.72 137,-367 129.76,-355.28 130.94,-348.38 137,-336 172.99,-262.44 261.93,-213.4 308.87,-191.71"/>
<polygon fill="midnightblue" stroke="midnightblue" points="310.54,-194.8 318.22,-187.5 307.66,-188.42 310.54,-194.8"/>
</g>
<!-- Node12&#45;&gt;Node10 -->
<g id="edge27" class="edge">
<title>Node12&#45;&gt;Node10</title>
<path fill="none" stroke="midnightblue" d="M240.97,-403.35C252.79,-395.33 269.31,-382.34 279,-367 290.06,-349.49 295.38,-326.14 297.89,-309.96"/>
<polygon fill="midnightblue" stroke="midnightblue" points="301.41,-310.01 299.25,-299.63 294.47,-309.09 301.41,-310.01"/>
</g>
<!-- Node13 -->
<g id="node13" class="node">
<title>Node13</title>
<g id="a_node13"><a xlink:href="____kernel__object__impl_8h.html" target="_top" xlink:title="Low&#45;level kernel debugger functions.">
<polygon fill="white" stroke="black" points="146,-336.5 146,-366.5 270,-366.5 270,-336.5 146,-336.5"/>
<text text-anchor="start" x="154" y="-354.5" font-family="Helvetica,sans-Serif" font-size="10.00">l4/sys/__kernel_object</text>
<text text-anchor="middle" x="208" y="-343.5" font-family="Helvetica,sans-Serif" font-size="10.00">_impl.h</text>
</a>
</g>
</g>
<!-- Node12&#45;&gt;Node13 -->
<g id="edge25" class="edge">
<title>Node12&#45;&gt;Node13</title>
<path fill="none" stroke="midnightblue" d="M224.28,-403.48C221.99,-396.32 218.62,-385.75 215.53,-376.08"/>
<polygon fill="midnightblue" stroke="midnightblue" points="218.85,-374.98 212.48,-366.52 212.19,-377.11 218.85,-374.98"/>
</g>
<!-- Node13&#45;&gt;Node10 -->
<g id="edge26" class="edge">
<title>Node13&#45;&gt;Node10</title>
<path fill="none" stroke="midnightblue" d="M229.8,-336.4C244.41,-326.95 263.57,-314.56 278.18,-305.11"/>
<polygon fill="midnightblue" stroke="midnightblue" points="280.12,-308.03 286.61,-299.66 276.32,-302.15 280.12,-308.03"/>
</g>
</g>
</svg>
