<?xml version="1.0" encoding="UTF-8" standalone="no"?>
<!DOCTYPE svg PUBLIC "-//W3C//DTD SVG 1.1//EN"
 "http://www.w3.org/Graphics/SVG/1.1/DTD/svg11.dtd">
<!-- Generated by graphviz version 2.43.0 (0)
 -->
<!-- Title: l4/sys/debugger Pages: 1 -->
<svg width="760pt" height="599pt"
 viewBox="0.00 0.00 759.60 599.00" xmlns="http://www.w3.org/2000/svg" xmlns:xlink="http://www.w3.org/1999/xlink">
<g id="graph0" class="graph" transform="scale(1 1) rotate(0) translate(4 595)">
<title>l4/sys/debugger</title>
<polygon fill="white" stroke="transparent" points="-4,4 -4,-595 755.6,-595 755.6,4 -4,4"/>
<!-- Node1 -->
<g id="node1" class="node">
<title>Node1</title>
<g id="a_node1"><a xlink:title="The debugger interface specifies common debugging related definitions.">
<polygon fill="#bfbfbf" stroke="black" points="274,-571.5 274,-590.5 368,-590.5 368,-571.5 274,-571.5"/>
<text text-anchor="middle" x="321" y="-578.5" font-family="Helvetica,sans-Serif" font-size="10.00">l4/sys/debugger</text>
</a>
</g>
</g>
<!-- Node2 -->
<g id="node2" class="node">
<title>Node2</title>
<g id="a_node2"><a xlink:href="debugger_8h.html" target="_top" xlink:title="Debugger related definitions.">
<polygon fill="white" stroke="black" points="25,-459.5 25,-478.5 127,-478.5 127,-459.5 25,-459.5"/>
<text text-anchor="middle" x="76" y="-466.5" font-family="Helvetica,sans-Serif" font-size="10.00">l4/sys/debugger.h</text>
</a>
</g>
</g>
<!-- Node1&#45;&gt;Node2 -->
<g id="edge1" class="edge">
<title>Node1&#45;&gt;Node2</title>
<path fill="none" stroke="midnightblue" d="M301.78,-571.37C258.84,-552.09 154.96,-505.45 104.49,-482.79"/>
<polygon fill="midnightblue" stroke="midnightblue" points="105.69,-479.49 95.14,-478.59 102.82,-485.88 105.69,-479.49"/>
</g>
<!-- Node15 -->
<g id="node15" class="node">
<title>Node15</title>
<g id="a_node15"><a xlink:href="kobject_source.html" target="_top" xlink:title=" ">
<polygon fill="white" stroke="black" points="388.5,-515.5 388.5,-534.5 471.5,-534.5 471.5,-515.5 388.5,-515.5"/>
<text text-anchor="middle" x="430" y="-522.5" font-family="Helvetica,sans-Serif" font-size="10.00">l4/sys/kobject</text>
</a>
</g>
</g>
<!-- Node1&#45;&gt;Node15 -->
<g id="edge29" class="edge">
<title>Node1&#45;&gt;Node15</title>
<path fill="none" stroke="midnightblue" d="M338.51,-571.32C356.07,-562.62 383.33,-549.12 403.53,-539.11"/>
<polygon fill="midnightblue" stroke="midnightblue" points="405.12,-542.23 412.53,-534.65 402.02,-535.96 405.12,-542.23"/>
</g>
<!-- Node3 -->
<g id="node3" class="node">
<title>Node3</title>
<g id="a_node3"><a xlink:href="compiler_8h.html" target="_top" xlink:title="L4 compiler related defines.">
<polygon fill="white" stroke="black" points="241.5,-56.5 241.5,-75.5 340.5,-75.5 340.5,-56.5 241.5,-56.5"/>
<text text-anchor="middle" x="291" y="-63.5" font-family="Helvetica,sans-Serif" font-size="10.00">l4/sys/compiler.h</text>
</a>
</g>
</g>
<!-- Node2&#45;&gt;Node3 -->
<g id="edge2" class="edge">
<title>Node2&#45;&gt;Node3</title>
<path fill="none" stroke="midnightblue" d="M65.11,-459.42C44.1,-441.82 0,-399.31 0,-352.5 0,-352.5 0,-352.5 0,-177 0,-128.02 146.08,-93.23 231.24,-77.11"/>
<polygon fill="midnightblue" stroke="midnightblue" points="232.11,-80.5 241.31,-75.23 230.83,-73.62 232.11,-80.5"/>
</g>
<!-- Node5 -->
<g id="node5" class="node">
<title>Node5</title>
<g id="a_node5"><a xlink:href="l4_2sys_2utcb_8h.html" target="_top" xlink:title="UTCB definitions.">
<polygon fill="white" stroke="black" points="306,-224.5 306,-243.5 384,-243.5 384,-224.5 306,-224.5"/>
<text text-anchor="middle" x="345" y="-231.5" font-family="Helvetica,sans-Serif" font-size="10.00">l4/sys/utcb.h</text>
</a>
</g>
</g>
<!-- Node2&#45;&gt;Node5 -->
<g id="edge4" class="edge">
<title>Node2&#45;&gt;Node5</title>
<path fill="none" stroke="midnightblue" d="M75.42,-459.49C74.32,-436.74 74.38,-373.7 105,-336 135.66,-298.25 154.56,-299.75 199,-280 231.42,-265.6 269.81,-253.96 299.08,-246.13"/>
<polygon fill="midnightblue" stroke="midnightblue" points="300.25,-249.45 309.03,-243.52 298.47,-242.67 300.25,-249.45"/>
</g>
<!-- Node11 -->
<g id="node11" class="node">
<title>Node11</title>
<g id="a_node11"><a xlink:href="l4_2sys_2ipc_8h.html" target="_top" xlink:title="Common IPC interface.">
<polygon fill="white" stroke="black" points="207.5,-280.5 207.5,-299.5 278.5,-299.5 278.5,-280.5 207.5,-280.5"/>
<text text-anchor="middle" x="243" y="-287.5" font-family="Helvetica,sans-Serif" font-size="10.00">l4/sys/ipc.h</text>
</a>
</g>
</g>
<!-- Node2&#45;&gt;Node11 -->
<g id="edge17" class="edge">
<title>Node2&#45;&gt;Node11</title>
<path fill="none" stroke="midnightblue" d="M77.41,-459.32C81.61,-436.16 96.11,-372.18 133,-336 150.63,-318.71 175.81,-307.75 197.64,-300.98"/>
<polygon fill="midnightblue" stroke="midnightblue" points="198.76,-304.3 207.39,-298.16 196.81,-297.58 198.76,-304.3"/>
</g>
<!-- Node13 -->
<g id="node13" class="node">
<title>Node13</title>
<g id="a_node13"><a xlink:href="kernel__object_8h.html" target="_top" xlink:title="Kernel object system calls.">
<polygon fill="white" stroke="black" points="233,-403.5 233,-422.5 355,-422.5 355,-403.5 233,-403.5"/>
<text text-anchor="middle" x="294" y="-410.5" font-family="Helvetica,sans-Serif" font-size="10.00">l4/sys/kernel_object.h</text>
</a>
</g>
</g>
<!-- Node2&#45;&gt;Node13 -->
<g id="edge22" class="edge">
<title>Node2&#45;&gt;Node13</title>
<path fill="none" stroke="midnightblue" d="M110.54,-459.44C148.25,-450.1 208.74,-435.12 249.86,-424.93"/>
<polygon fill="midnightblue" stroke="midnightblue" points="250.75,-428.32 259.62,-422.52 249.07,-421.52 250.75,-428.32"/>
</g>
<!-- Node4 -->
<g id="node4" class="node">
<title>Node4</title>
<g id="a_node4"><a xlink:title=" ">
<polygon fill="white" stroke="#bfbfbf" points="245,-0.5 245,-19.5 337,-19.5 337,-0.5 245,-0.5"/>
<text text-anchor="middle" x="291" y="-7.5" font-family="Helvetica,sans-Serif" font-size="10.00">l4/sys/linkage.h</text>
</a>
</g>
</g>
<!-- Node3&#45;&gt;Node4 -->
<g id="edge3" class="edge">
<title>Node3&#45;&gt;Node4</title>
<path fill="none" stroke="midnightblue" d="M291,-56.08C291,-49.01 291,-38.86 291,-29.99"/>
<polygon fill="midnightblue" stroke="midnightblue" points="294.5,-29.75 291,-19.75 287.5,-29.75 294.5,-29.75"/>
</g>
<!-- Node5&#45;&gt;Node3 -->
<g id="edge15" class="edge">
<title>Node5&#45;&gt;Node3</title>
<path fill="none" stroke="midnightblue" d="M341.86,-224.4C335.55,-207.03 321,-166.47 310,-132 305.03,-116.42 299.85,-98.59 296.16,-85.55"/>
<polygon fill="midnightblue" stroke="midnightblue" points="299.52,-84.56 293.44,-75.87 292.78,-86.45 299.52,-84.56"/>
</g>
<!-- Node6 -->
<g id="node6" class="node">
<title>Node6</title>
<g id="a_node6"><a xlink:href="l4_2sys_2types_8h.html" target="_top" xlink:title="Common L4 ABI Data Types.">
<polygon fill="white" stroke="black" points="453,-168.5 453,-187.5 537,-187.5 537,-168.5 453,-168.5"/>
<text text-anchor="middle" x="495" y="-175.5" font-family="Helvetica,sans-Serif" font-size="10.00">l4/sys/types.h</text>
</a>
</g>
</g>
<!-- Node5&#45;&gt;Node6 -->
<g id="edge5" class="edge">
<title>Node5&#45;&gt;Node6</title>
<path fill="none" stroke="midnightblue" d="M368.77,-224.44C393.89,-215.4 433.71,-201.06 461.9,-190.92"/>
<polygon fill="midnightblue" stroke="midnightblue" points="463.12,-194.2 471.34,-187.52 460.75,-187.61 463.12,-194.2"/>
</g>
<!-- Node7 -->
<g id="node7" class="node">
<title>Node7</title>
<g id="a_node7"><a xlink:href="l4_2sys_2l4int_8h.html" target="_top" xlink:title="Fixed sized integer types, generic version.">
<polygon fill="white" stroke="black" points="594.5,-56.5 594.5,-75.5 673.5,-75.5 673.5,-56.5 594.5,-56.5"/>
<text text-anchor="middle" x="634" y="-63.5" font-family="Helvetica,sans-Serif" font-size="10.00">l4/sys/l4int.h</text>
</a>
</g>
</g>
<!-- Node5&#45;&gt;Node7 -->
<g id="edge16" class="edge">
<title>Node5&#45;&gt;Node7</title>
<path fill="none" stroke="midnightblue" d="M384.12,-229.23C476.18,-219.48 702.02,-189.99 746,-132 766.85,-104.51 722.44,-86.61 683.52,-76.69"/>
<polygon fill="midnightblue" stroke="midnightblue" points="684.33,-73.29 673.79,-74.34 682.69,-80.09 684.33,-73.29"/>
</g>
<!-- Node6&#45;&gt;Node3 -->
<g id="edge7" class="edge">
<title>Node6&#45;&gt;Node3</title>
<path fill="none" stroke="midnightblue" d="M489.8,-168.48C480.91,-154.6 461.44,-127.16 438,-112 411.75,-95.03 378.75,-84.17 350.67,-77.38"/>
<polygon fill="midnightblue" stroke="midnightblue" points="351.1,-73.88 340.57,-75.06 349.54,-80.71 351.1,-73.88"/>
</g>
<!-- Node6&#45;&gt;Node7 -->
<g id="edge6" class="edge">
<title>Node6&#45;&gt;Node7</title>
<path fill="none" stroke="midnightblue" d="M495.17,-168.23C495.91,-154.5 499.28,-127.85 514,-112 532.36,-92.22 560.26,-81.08 584.54,-74.84"/>
<polygon fill="midnightblue" stroke="midnightblue" points="585.4,-78.23 594.33,-72.52 583.79,-71.42 585.4,-78.23"/>
</g>
<!-- Node8 -->
<g id="node8" class="node">
<title>Node8</title>
<g id="a_node8"><a xlink:href="l4_2sys_2consts_8h.html" target="_top" xlink:title="Common constants.">
<polygon fill="white" stroke="black" points="647.5,-112.5 647.5,-131.5 736.5,-131.5 736.5,-112.5 647.5,-112.5"/>
<text text-anchor="middle" x="692" y="-119.5" font-family="Helvetica,sans-Serif" font-size="10.00">l4/sys/consts.h</text>
</a>
</g>
</g>
<!-- Node6&#45;&gt;Node8 -->
<g id="edge8" class="edge">
<title>Node6&#45;&gt;Node8</title>
<path fill="none" stroke="midnightblue" d="M526.22,-168.44C559.93,-159.2 613.8,-144.44 650.93,-134.26"/>
<polygon fill="midnightblue" stroke="midnightblue" points="652.21,-137.54 660.93,-131.52 650.36,-130.78 652.21,-137.54"/>
</g>
<!-- Node9 -->
<g id="node9" class="node">
<title>Node9</title>
<g id="a_node9"><a xlink:href="____l4__fpage_8h_source.html" target="_top" xlink:title=" ">
<polygon fill="white" stroke="black" points="319,-112.5 319,-131.5 429,-131.5 429,-112.5 319,-112.5"/>
<text text-anchor="middle" x="374" y="-119.5" font-family="Helvetica,sans-Serif" font-size="10.00">l4/sys/__l4_fpage.h</text>
</a>
</g>
</g>
<!-- Node6&#45;&gt;Node9 -->
<g id="edge11" class="edge">
<title>Node6&#45;&gt;Node9</title>
<path fill="none" stroke="midnightblue" d="M475.83,-168.44C456.09,-159.64 425.11,-145.81 402.51,-135.72"/>
<polygon fill="midnightblue" stroke="midnightblue" points="403.64,-132.4 393.08,-131.52 400.79,-138.79 403.64,-132.4"/>
</g>
<!-- Node10 -->
<g id="node10" class="node">
<title>Node10</title>
<g id="a_node10"><a xlink:href="____timeout_8h_source.html" target="_top" xlink:title=" ">
<polygon fill="white" stroke="black" points="523,-112.5 523,-131.5 629,-131.5 629,-112.5 523,-112.5"/>
<text text-anchor="middle" x="576" y="-119.5" font-family="Helvetica,sans-Serif" font-size="10.00">l4/sys/__timeout.h</text>
</a>
</g>
</g>
<!-- Node6&#45;&gt;Node10 -->
<g id="edge13" class="edge">
<title>Node6&#45;&gt;Node10</title>
<path fill="none" stroke="midnightblue" d="M508.01,-168.32C520.53,-159.98 539.68,-147.21 554.47,-137.35"/>
<polygon fill="midnightblue" stroke="midnightblue" points="556.64,-140.11 563.02,-131.65 552.76,-134.29 556.64,-140.11"/>
</g>
<!-- Node8&#45;&gt;Node3 -->
<g id="edge9" class="edge">
<title>Node8&#45;&gt;Node3</title>
<path fill="none" stroke="midnightblue" d="M647.23,-113.41C644.11,-112.92 641.01,-112.45 638,-112 537.55,-97.12 420.32,-82.48 351.06,-74.12"/>
<polygon fill="midnightblue" stroke="midnightblue" points="351.13,-70.6 340.78,-72.88 350.29,-77.55 351.13,-70.6"/>
</g>
<!-- Node8&#45;&gt;Node7 -->
<g id="edge10" class="edge">
<title>Node8&#45;&gt;Node7</title>
<path fill="none" stroke="midnightblue" d="M682.68,-112.32C674.11,-104.34 661.19,-92.31 650.81,-82.65"/>
<polygon fill="midnightblue" stroke="midnightblue" points="653.19,-80.09 643.49,-75.83 648.42,-85.21 653.19,-80.09"/>
</g>
<!-- Node9&#45;&gt;Node3 -->
<g id="edge12" class="edge">
<title>Node9&#45;&gt;Node3</title>
<path fill="none" stroke="midnightblue" d="M360.66,-112.32C347.84,-103.98 328.22,-91.21 313.06,-81.35"/>
<polygon fill="midnightblue" stroke="midnightblue" points="314.59,-78.17 304.3,-75.65 310.78,-84.04 314.59,-78.17"/>
</g>
<!-- Node10&#45;&gt;Node7 -->
<g id="edge14" class="edge">
<title>Node10&#45;&gt;Node7</title>
<path fill="none" stroke="midnightblue" d="M585.32,-112.32C593.89,-104.34 606.81,-92.31 617.19,-82.65"/>
<polygon fill="midnightblue" stroke="midnightblue" points="619.58,-85.21 624.51,-75.83 614.81,-80.09 619.58,-85.21"/>
</g>
<!-- Node11&#45;&gt;Node5 -->
<g id="edge19" class="edge">
<title>Node11&#45;&gt;Node5</title>
<path fill="none" stroke="midnightblue" d="M259.39,-280.32C275.67,-271.7 300.87,-258.36 319.72,-248.39"/>
<polygon fill="midnightblue" stroke="midnightblue" points="321.45,-251.43 328.65,-243.65 318.18,-245.24 321.45,-251.43"/>
</g>
<!-- Node11&#45;&gt;Node6 -->
<g id="edge18" class="edge">
<title>Node11&#45;&gt;Node6</title>
<path fill="none" stroke="midnightblue" d="M232.34,-280.26C217.48,-267.04 193.94,-241.62 209,-224 238.48,-189.52 368.58,-181.29 442.75,-179.44"/>
<polygon fill="midnightblue" stroke="midnightblue" points="442.91,-182.93 452.83,-179.21 442.75,-175.94 442.91,-182.93"/>
</g>
<!-- Node12 -->
<g id="node12" class="node">
<title>Node12</title>
<g id="a_node12"><a xlink:href="err_8h.html" target="_top" xlink:title="Error codes.">
<polygon fill="white" stroke="black" points="218,-224.5 218,-243.5 288,-243.5 288,-224.5 218,-224.5"/>
<text text-anchor="middle" x="253" y="-231.5" font-family="Helvetica,sans-Serif" font-size="10.00">l4/sys/err.h</text>
</a>
</g>
</g>
<!-- Node11&#45;&gt;Node12 -->
<g id="edge20" class="edge">
<title>Node11&#45;&gt;Node12</title>
<path fill="none" stroke="midnightblue" d="M244.65,-280.08C245.98,-272.93 247.88,-262.64 249.54,-253.69"/>
<polygon fill="midnightblue" stroke="midnightblue" points="253,-254.22 251.38,-243.75 246.12,-252.95 253,-254.22"/>
</g>
<!-- Node12&#45;&gt;Node3 -->
<g id="edge21" class="edge">
<title>Node12&#45;&gt;Node3</title>
<path fill="none" stroke="midnightblue" d="M254.38,-224.42C257.65,-204.52 266.4,-153.72 277,-112 279.27,-103.07 282.25,-93.28 284.88,-85.13"/>
<polygon fill="midnightblue" stroke="midnightblue" points="288.23,-86.14 288.04,-75.55 281.58,-83.95 288.23,-86.14"/>
</g>
<!-- Node13&#45;&gt;Node3 -->
<g id="edge24" class="edge">
<title>Node13&#45;&gt;Node3</title>
<path fill="none" stroke="midnightblue" d="M232.93,-409.47C199.15,-404.88 158.9,-393.63 133,-367 108.72,-342.04 114,-325.82 114,-291 114,-291 114,-291 114,-177 114,-119.9 181.28,-91.39 232.88,-77.93"/>
<polygon fill="midnightblue" stroke="midnightblue" points="233.77,-81.31 242.63,-75.51 232.09,-74.52 233.77,-81.31"/>
</g>
<!-- Node13&#45;&gt;Node5 -->
<g id="edge25" class="edge">
<title>Node13&#45;&gt;Node5</title>
<path fill="none" stroke="midnightblue" d="M296.46,-403.46C304.28,-376.31 328.72,-291.51 339.64,-253.62"/>
<polygon fill="midnightblue" stroke="midnightblue" points="343.04,-254.45 342.44,-243.87 336.31,-252.51 343.04,-254.45"/>
</g>
<!-- Node13&#45;&gt;Node6 -->
<g id="edge23" class="edge">
<title>Node13&#45;&gt;Node6</title>
<path fill="none" stroke="midnightblue" d="M301.39,-403.43C330.93,-369.18 440.84,-241.78 480.56,-195.74"/>
<polygon fill="midnightblue" stroke="midnightblue" points="483.44,-197.75 487.33,-187.9 478.14,-193.18 483.44,-197.75"/>
</g>
<!-- Node13&#45;&gt;Node11 -->
<g id="edge28" class="edge">
<title>Node13&#45;&gt;Node11</title>
<path fill="none" stroke="midnightblue" d="M292.89,-403.21C290.82,-388.69 285.58,-358.98 275,-336 270.35,-325.9 263.34,-315.71 257.06,-307.59"/>
<polygon fill="midnightblue" stroke="midnightblue" points="259.7,-305.27 250.69,-299.69 254.25,-309.67 259.7,-305.27"/>
</g>
<!-- Node14 -->
<g id="node14" class="node">
<title>Node14</title>
<g id="a_node14"><a xlink:href="____kernel__object__impl_8h.html" target="_top" xlink:title="Low&#45;level kernel debugger functions.">
<polygon fill="white" stroke="black" points="142,-336.5 142,-366.5 266,-366.5 266,-336.5 142,-336.5"/>
<text text-anchor="start" x="150" y="-354.5" font-family="Helvetica,sans-Serif" font-size="10.00">l4/sys/__kernel_object</text>
<text text-anchor="middle" x="204" y="-343.5" font-family="Helvetica,sans-Serif" font-size="10.00">_impl.h</text>
</a>
</g>
</g>
<!-- Node13&#45;&gt;Node14 -->
<g id="edge26" class="edge">
<title>Node13&#45;&gt;Node14</title>
<path fill="none" stroke="midnightblue" d="M281.11,-403.48C268.8,-395.34 249.82,-382.79 233.77,-372.18"/>
<polygon fill="midnightblue" stroke="midnightblue" points="235.48,-369.12 225.21,-366.52 231.62,-374.96 235.48,-369.12"/>
</g>
<!-- Node14&#45;&gt;Node11 -->
<g id="edge27" class="edge">
<title>Node14&#45;&gt;Node11</title>
<path fill="none" stroke="midnightblue" d="M213.24,-336.4C218.79,-327.93 225.89,-317.1 231.77,-308.14"/>
<polygon fill="midnightblue" stroke="midnightblue" points="234.77,-309.94 237.33,-299.66 228.92,-306.1 234.77,-309.94"/>
</g>
<!-- Node15&#45;&gt;Node6 -->
<g id="edge31" class="edge">
<title>Node15&#45;&gt;Node6</title>
<path fill="none" stroke="midnightblue" d="M471.54,-518.08C555.61,-504.92 738,-469.93 738,-414 738,-414 738,-414 738,-350.5 738,-256.62 615.44,-209.59 544.4,-190.21"/>
<polygon fill="midnightblue" stroke="midnightblue" points="544.87,-186.71 534.31,-187.55 543.09,-193.48 544.87,-186.71"/>
</g>
<!-- Node15&#45;&gt;Node13 -->
<g id="edge30" class="edge">
<title>Node15&#45;&gt;Node13</title>
<path fill="none" stroke="midnightblue" d="M419.33,-515.37C396.29,-496.73 341.64,-452.53 312.71,-429.13"/>
<polygon fill="midnightblue" stroke="midnightblue" points="314.6,-426.16 304.62,-422.59 310.2,-431.6 314.6,-426.16"/>
</g>
<!-- Node16 -->
<g id="node16" class="node">
<title>Node16</title>
<g id="a_node16"><a xlink:href="____typeinfo_8h.html" target="_top" xlink:title="Type information handling.">
<polygon fill="white" stroke="black" points="437.5,-459.5 437.5,-478.5 514.5,-478.5 514.5,-459.5 437.5,-459.5"/>
<text text-anchor="middle" x="476" y="-466.5" font-family="Helvetica,sans-Serif" font-size="10.00">__typeinfo.h</text>
</a>
</g>
</g>
<!-- Node15&#45;&gt;Node16 -->
<g id="edge32" class="edge">
<title>Node15&#45;&gt;Node16</title>
<path fill="none" stroke="midnightblue" d="M437.6,-515.08C444.23,-507.3 454.02,-495.8 462.06,-486.37"/>
<polygon fill="midnightblue" stroke="midnightblue" points="464.73,-488.63 468.55,-478.75 459.4,-484.09 464.73,-488.63"/>
</g>
<!-- Node17 -->
<g id="node17" class="node">
<title>Node17</title>
<g id="a_node17"><a xlink:href="types.html" target="_top" xlink:title=" ">
<polygon fill="white" stroke="black" points="474,-342 474,-361 538,-361 538,-342 474,-342"/>
<text text-anchor="middle" x="506" y="-349" font-family="Helvetica,sans-Serif" font-size="10.00">cxx/types</text>
</a>
</g>
</g>
<!-- Node16&#45;&gt;Node17 -->
<g id="edge33" class="edge">
<title>Node16&#45;&gt;Node17</title>
<path fill="none" stroke="midnightblue" d="M479.87,-459.19C483.67,-450.23 489.41,-435.87 493,-423 497.8,-405.78 501.3,-385.7 503.46,-371.38"/>
<polygon fill="midnightblue" stroke="midnightblue" points="506.95,-371.69 504.89,-361.3 500.02,-370.7 506.95,-371.69"/>
</g>
<!-- Node18 -->
<g id="node18" class="node">
<title>Node18</title>
<g id="a_node18"><a xlink:href="ipc__basics_source.html" target="_top" xlink:title=" ">
<polygon fill="white" stroke="black" points="396.5,-403.5 396.5,-422.5 483.5,-422.5 483.5,-403.5 396.5,-403.5"/>
<text text-anchor="middle" x="440" y="-410.5" font-family="Helvetica,sans-Serif" font-size="10.00">cxx/ipc_basics</text>
</a>
</g>
</g>
<!-- Node16&#45;&gt;Node18 -->
<g id="edge34" class="edge">
<title>Node16&#45;&gt;Node18</title>
<path fill="none" stroke="midnightblue" d="M470.06,-459.08C465.02,-451.53 457.66,-440.49 451.49,-431.23"/>
<polygon fill="midnightblue" stroke="midnightblue" points="454.29,-429.13 445.83,-422.75 448.47,-433.01 454.29,-429.13"/>
</g>
<!-- Node19 -->
<g id="node19" class="node">
<title>Node19</title>
<g id="a_node19"><a xlink:href="capability_8h_source.html" target="_top" xlink:title=" ">
<polygon fill="white" stroke="black" points="583,-403.5 583,-422.5 675,-422.5 675,-403.5 583,-403.5"/>
<text text-anchor="middle" x="629" y="-410.5" font-family="Helvetica,sans-Serif" font-size="10.00">cxx/capability.h</text>
</a>
</g>
</g>
<!-- Node16&#45;&gt;Node19 -->
<g id="edge38" class="edge">
<title>Node16&#45;&gt;Node19</title>
<path fill="none" stroke="midnightblue" d="M500.24,-459.44C525.87,-450.4 566.49,-436.06 595.24,-425.92"/>
<polygon fill="midnightblue" stroke="midnightblue" points="596.61,-429.15 604.87,-422.52 594.28,-422.54 596.61,-429.15"/>
</g>
<!-- Node18&#45;&gt;Node5 -->
<g id="edge36" class="edge">
<title>Node18&#45;&gt;Node5</title>
<path fill="none" stroke="midnightblue" d="M435.42,-403.46C420.78,-376.19 374.94,-290.78 354.73,-253.13"/>
<polygon fill="midnightblue" stroke="midnightblue" points="357.57,-251.02 349.76,-243.87 351.41,-254.33 357.57,-251.02"/>
</g>
<!-- Node18&#45;&gt;Node12 -->
<g id="edge37" class="edge">
<title>Node18&#45;&gt;Node12</title>
<path fill="none" stroke="midnightblue" d="M430.98,-403.46C401.56,-375.61 308.05,-287.11 269.68,-250.79"/>
<polygon fill="midnightblue" stroke="midnightblue" points="272.04,-248.2 262.37,-243.87 267.23,-253.28 272.04,-248.2"/>
</g>
<!-- Node18&#45;&gt;Node17 -->
<g id="edge35" class="edge">
<title>Node18&#45;&gt;Node17</title>
<path fill="none" stroke="midnightblue" d="M449.46,-403.48C459.75,-394.2 476.42,-379.17 488.99,-367.83"/>
<polygon fill="midnightblue" stroke="midnightblue" points="491.48,-370.3 496.56,-361.01 486.79,-365.11 491.48,-370.3"/>
</g>
<!-- Node19&#45;&gt;Node6 -->
<g id="edge40" class="edge">
<title>Node19&#45;&gt;Node6</title>
<path fill="none" stroke="midnightblue" d="M633.59,-403.28C640.54,-388.85 652.01,-359.27 643,-336 617.92,-271.22 551.53,-217.92 516.82,-193.45"/>
<polygon fill="midnightblue" stroke="midnightblue" points="518.55,-190.39 508.33,-187.59 514.58,-196.15 518.55,-190.39"/>
</g>
<!-- Node19&#45;&gt;Node8 -->
<g id="edge39" class="edge">
<title>Node19&#45;&gt;Node8</title>
<path fill="none" stroke="midnightblue" d="M636.25,-403.32C643.04,-394.68 652.89,-380.77 658,-367 687.66,-287.1 691.75,-183.75 692.1,-141.87"/>
<polygon fill="midnightblue" stroke="midnightblue" points="695.6,-141.76 692.12,-131.75 688.6,-141.75 695.6,-141.76"/>
</g>
<!-- Node20 -->
<g id="node20" class="node">
<title>Node20</title>
<g id="a_node20"><a xlink:href="l4_2sys_2task_8h.html" target="_top" xlink:title="Common task related definitions.">
<polygon fill="white" stroke="black" points="556,-342 556,-361 634,-361 634,-342 556,-342"/>
<text text-anchor="middle" x="595" y="-349" font-family="Helvetica,sans-Serif" font-size="10.00">l4/sys/task.h</text>
</a>
</g>
</g>
<!-- Node19&#45;&gt;Node20 -->
<g id="edge41" class="edge">
<title>Node19&#45;&gt;Node20</title>
<path fill="none" stroke="midnightblue" d="M624.13,-403.48C619.13,-394.73 611.21,-380.87 604.89,-369.81"/>
<polygon fill="midnightblue" stroke="midnightblue" points="607.86,-367.96 599.86,-361.01 601.78,-371.43 607.86,-367.96"/>
</g>
<!-- Node20&#45;&gt;Node5 -->
<g id="edge43" class="edge">
<title>Node20&#45;&gt;Node5</title>
<path fill="none" stroke="midnightblue" d="M579.88,-341.92C555.2,-328.06 504.52,-300.26 460,-280 433.14,-267.78 401.92,-255.69 378.8,-247.13"/>
<polygon fill="midnightblue" stroke="midnightblue" points="379.69,-243.73 369.1,-243.57 377.28,-250.3 379.69,-243.73"/>
</g>
<!-- Node20&#45;&gt;Node6 -->
<g id="edge42" class="edge">
<title>Node20&#45;&gt;Node6</title>
<path fill="none" stroke="midnightblue" d="M589.9,-341.76C574.19,-314.81 526.26,-232.62 505.16,-196.42"/>
<polygon fill="midnightblue" stroke="midnightblue" points="508.03,-194.4 499.97,-187.52 501.98,-197.92 508.03,-194.4"/>
</g>
<!-- Node20&#45;&gt;Node11 -->
<g id="edge44" class="edge">
<title>Node20&#45;&gt;Node11</title>
<path fill="none" stroke="midnightblue" d="M569.28,-341.97C562.12,-339.81 554.31,-337.63 547,-336 456.63,-315.78 349.05,-302.29 289.14,-295.7"/>
<polygon fill="midnightblue" stroke="midnightblue" points="289.2,-292.19 278.88,-294.59 288.45,-299.15 289.2,-292.19"/>
</g>
</g>
</svg>
