<?xml version="1.0" encoding="UTF-8" standalone="no"?>
<!DOCTYPE svg PUBLIC "-//W3C//DTD SVG 1.1//EN"
 "http://www.w3.org/Graphics/SVG/1.1/DTD/svg11.dtd">
<!-- Generated by graphviz version 2.43.0 (0)
 -->
<!-- Title: arm Pages: 1 -->
<svg width="220pt" height="204pt"
 viewBox="0.00 0.00 220.00 204.00" xmlns="http://www.w3.org/2000/svg" xmlns:xlink="http://www.w3.org/1999/xlink">
<g id="graph0" class="graph" transform="scale(1 1) rotate(0) translate(4 200)">
<title>arm</title>
<polygon fill="white" stroke="transparent" points="-4,4 -4,-200 216,-200 216,4 -4,4"/>
<g id="clust1" class="cluster">
<title>clusterdir_0d0fa5d0311b8000470d732da0750893</title>
<g id="a_clust1"><a xlink:href="dir_0d0fa5d0311b8000470d732da0750893.html" target="_top">
<polygon fill="#eeeeff" stroke="black" points="8,-64 8,-188 150,-188 150,-64 8,-64"/>
</a>
</g>
</g>
<!-- dir_0d0fa5d0311b8000470d732da0750893 -->
<g id="node1" class="node">
<title>dir_0d0fa5d0311b8000470d732da0750893</title>
<text text-anchor="middle" x="115" y="-159.5" font-family="Helvetica,sans-Serif" font-size="10.00">arm</text>
</g>
<!-- dir_803382d759928ec492adccfc96fc3562 -->
<g id="node2" class="node">
<title>dir_803382d759928ec492adccfc96fc3562</title>
<g id="a_node2"><a xlink:href="dir_803382d759928ec492adccfc96fc3562.html" target="_top" xlink:title="l4">
<polygon fill="white" stroke="red" points="70,-180 16,-180 16,-144 70,-144 70,-180"/>
<text text-anchor="middle" x="43" y="-159.5" font-family="Helvetica,sans-Serif" font-size="10.00">l4</text>
</a>
</g>
</g>
<!-- dir_df24d41d98786fa25d74de76b6a05081 -->
<g id="node3" class="node">
<title>dir_df24d41d98786fa25d74de76b6a05081</title>
<g id="a_node3"><a xlink:href="dir_df24d41d98786fa25d74de76b6a05081.html" target="_top" xlink:title="l4f">
<polygon fill="white" stroke="red" points="70,-108 16,-108 16,-72 70,-72 70,-108"/>
<text text-anchor="middle" x="43" y="-87.5" font-family="Helvetica,sans-Serif" font-size="10.00">l4f</text>
</a>
</g>
</g>
<!-- dir_803382d759928ec492adccfc96fc3562&#45;&gt;dir_df24d41d98786fa25d74de76b6a05081 -->
<g id="edge3" class="edge">
<title>dir_803382d759928ec492adccfc96fc3562&#45;&gt;dir_df24d41d98786fa25d74de76b6a05081</title>
<path fill="none" stroke="black" d="M43,-143.7C43,-135.98 43,-126.71 43,-118.11"/>
<polygon fill="black" stroke="black" points="46.5,-118.1 43,-108.1 39.5,-118.1 46.5,-118.1"/>
<g id="a_edge3&#45;headlabel"><a xlink:href="dir_000052_000055.html" target="_top" xlink:title="2">
<text text-anchor="middle" x="49.34" y="-119.2" font-family="Helvetica,sans-Serif" font-size="10.00">2</text>
</a>
</g>
</g>
<!-- dir_1f581fa1f88782a0973f05f5fe437b46 -->
<g id="node4" class="node">
<title>dir_1f581fa1f88782a0973f05f5fe437b46</title>
<g id="a_node4"><a xlink:href="dir_1f581fa1f88782a0973f05f5fe437b46.html" target="_top" xlink:title="l4">
<polygon fill="white" stroke="red" points="125,-36 71,-36 71,0 125,0 125,-36"/>
<text text-anchor="middle" x="98" y="-15.5" font-family="Helvetica,sans-Serif" font-size="10.00">l4</text>
</a>
</g>
</g>
<!-- dir_803382d759928ec492adccfc96fc3562&#45;&gt;dir_1f581fa1f88782a0973f05f5fe437b46 -->
<g id="edge2" class="edge">
<title>dir_803382d759928ec492adccfc96fc3562&#45;&gt;dir_1f581fa1f88782a0973f05f5fe437b46</title>
<path fill="none" stroke="black" d="M57.16,-143.85C64.69,-133.93 73.5,-120.89 79,-108 87.41,-88.29 92.24,-64.49 94.93,-46.46"/>
<polygon fill="black" stroke="black" points="98.43,-46.71 96.3,-36.33 91.49,-45.76 98.43,-46.71"/>
<g id="a_edge2&#45;headlabel"><a xlink:href="dir_000052_000039.html" target="_top" xlink:title="8">
<text text-anchor="middle" x="100.76" y="-48.15" font-family="Helvetica,sans-Serif" font-size="10.00">8</text>
</a>
</g>
</g>
<!-- dir_d979004d17f5223e5cbcd0eb3b9cd5ac -->
<g id="node5" class="node">
<title>dir_d979004d17f5223e5cbcd0eb3b9cd5ac</title>
<g id="a_node5"><a xlink:href="dir_d979004d17f5223e5cbcd0eb3b9cd5ac.html" target="_top" xlink:title="x86">
<polygon fill="white" stroke="red" points="212,-108 158,-108 158,-72 212,-72 212,-108"/>
<text text-anchor="middle" x="185" y="-87.5" font-family="Helvetica,sans-Serif" font-size="10.00">x86</text>
</a>
</g>
</g>
<!-- dir_803382d759928ec492adccfc96fc3562&#45;&gt;dir_d979004d17f5223e5cbcd0eb3b9cd5ac -->
<g id="edge4" class="edge">
<title>dir_803382d759928ec492adccfc96fc3562&#45;&gt;dir_d979004d17f5223e5cbcd0eb3b9cd5ac</title>
<path fill="none" stroke="black" d="M70.23,-148.1C95.13,-136.28 130.45,-119.49 148.82,-110.49"/>
<polygon fill="black" stroke="black" points="150.61,-113.52 158,-105.92 147.48,-107.25 150.61,-113.52"/>
<g id="a_edge4&#45;headlabel"><a xlink:href="dir_000052_000036.html" target="_top" xlink:title="1">
<text text-anchor="middle" x="148.65" y="-115.16" font-family="Helvetica,sans-Serif" font-size="10.00">1</text>
</a>
</g>
</g>
<!-- dir_df24d41d98786fa25d74de76b6a05081&#45;&gt;dir_1f581fa1f88782a0973f05f5fe437b46 -->
<g id="edge1" class="edge">
<title>dir_df24d41d98786fa25d74de76b6a05081&#45;&gt;dir_1f581fa1f88782a0973f05f5fe437b46</title>
<path fill="none" stroke="black" d="M56.6,-71.7C63.12,-63.39 71.07,-53.28 78.25,-44.14"/>
<polygon fill="black" stroke="black" points="81.13,-46.13 84.56,-36.1 75.63,-41.81 81.13,-46.13"/>
<g id="a_edge1&#45;headlabel"><a xlink:href="dir_000055_000039.html" target="_top" xlink:title="1">
<text text-anchor="middle" x="81.15" y="-48.21" font-family="Helvetica,sans-Serif" font-size="10.00">1</text>
</a>
</g>
</g>
<!-- dir_d979004d17f5223e5cbcd0eb3b9cd5ac&#45;&gt;dir_1f581fa1f88782a0973f05f5fe437b46 -->
<g id="edge5" class="edge">
<title>dir_d979004d17f5223e5cbcd0eb3b9cd5ac&#45;&gt;dir_1f581fa1f88782a0973f05f5fe437b46</title>
<path fill="none" stroke="black" d="M163.66,-71.78C160.42,-69.17 157.12,-66.51 154,-64 145.31,-57.01 135.86,-49.41 127.24,-42.48"/>
<polygon fill="black" stroke="black" points="129.27,-39.62 119.28,-36.09 124.88,-45.08 129.27,-39.62"/>
<g id="a_edge5&#45;headlabel"><a xlink:href="dir_000036_000039.html" target="_top" xlink:title="32">
<text text-anchor="middle" x="133.85" y="-37.16" font-family="Helvetica,sans-Serif" font-size="10.00">32</text>
</a>
</g>
</g>
</g>
</svg>
