<?xml version="1.0" encoding="UTF-8" standalone="no"?>
<!DOCTYPE svg PUBLIC "-//W3C//DTD SVG 1.1//EN"
 "http://www.w3.org/Graphics/SVG/1.1/DTD/svg11.dtd">
<!-- Generated by graphviz version 2.43.0 (0)
 -->
<!-- Title: l4/cxx Pages: 1 -->
<svg width="194pt" height="247pt"
 viewBox="0.00 0.00 194.00 247.00" xmlns="http://www.w3.org/2000/svg" xmlns:xlink="http://www.w3.org/1999/xlink">
<g id="graph0" class="graph" transform="scale(1 1) rotate(0) translate(4 243)">
<title>l4/cxx</title>
<polygon fill="white" stroke="transparent" points="-4,4 -4,-243 190,-243 190,4 -4,4"/>
<g id="clust1" class="cluster">
<title>clusterdir_1f581fa1f88782a0973f05f5fe437b46</title>
<g id="a_clust1"><a xlink:href="dir_1f581fa1f88782a0973f05f5fe437b46.html" target="_top" xlink:title="l4">
<polygon fill="#ddddee" stroke="black" points="8,-8 8,-231 178,-231 178,-8 8,-8"/>
<text text-anchor="middle" x="93" y="-219" font-family="Helvetica,sans-Serif" font-size="10.00">l4</text>
</a>
</g>
</g>
<g id="clust2" class="cluster">
<title>clusterdir_dd3580c6b729ef0dd2be01098f8e55ee</title>
<g id="a_clust2"><a xlink:href="dir_dd3580c6b729ef0dd2be01098f8e55ee.html" target="_top">
<polygon fill="#eeeeff" stroke="black" points="16,-80 16,-204 86,-204 86,-80 16,-80"/>
</a>
</g>
</g>
<!-- dir_b080fbfc44463f036af256b25228453b -->
<g id="node1" class="node">
<title>dir_b080fbfc44463f036af256b25228453b</title>
<g id="a_node1"><a xlink:href="dir_b080fbfc44463f036af256b25228453b.html" target="_top" xlink:title="util">
<polygon fill="none" stroke="black" points="150,-124 96,-124 96,-88 150,-88 150,-124"/>
<text text-anchor="middle" x="123" y="-103.5" font-family="Helvetica,sans-Serif" font-size="10.00">util</text>
</a>
</g>
</g>
<!-- dir_d458d878e154568f8572c436e514c759 -->
<g id="node2" class="node">
<title>dir_d458d878e154568f8572c436e514c759</title>
<g id="a_node2"><a xlink:href="dir_d458d878e154568f8572c436e514c759.html" target="_top" xlink:title="sys">
<polygon fill="white" stroke="red" points="160,-52 106,-52 106,-16 160,-16 160,-52"/>
<text text-anchor="middle" x="133" y="-31.5" font-family="Helvetica,sans-Serif" font-size="10.00">sys</text>
</a>
</g>
</g>
<!-- dir_b080fbfc44463f036af256b25228453b&#45;&gt;dir_d458d878e154568f8572c436e514c759 -->
<g id="edge1" class="edge">
<title>dir_b080fbfc44463f036af256b25228453b&#45;&gt;dir_d458d878e154568f8572c436e514c759</title>
<path fill="none" stroke="black" d="M125.47,-87.7C126.57,-79.98 127.9,-70.71 129.13,-62.11"/>
<polygon fill="black" stroke="black" points="132.61,-62.5 130.56,-52.1 125.68,-61.51 132.61,-62.5"/>
<g id="a_edge1&#45;headlabel"><a xlink:href="dir_000040_000065.html" target="_top" xlink:title="27">
<text text-anchor="middle" x="134.91" y="-63.96" font-family="Helvetica,sans-Serif" font-size="10.00">27</text>
</a>
</g>
</g>
<!-- dir_dd3580c6b729ef0dd2be01098f8e55ee -->
<g id="node3" class="node">
<title>dir_dd3580c6b729ef0dd2be01098f8e55ee</title>
<text text-anchor="middle" x="51" y="-175.5" font-family="Helvetica,sans-Serif" font-size="10.00">cxx</text>
</g>
<!-- dir_dd3580c6b729ef0dd2be01098f8e55ee&#45;&gt;dir_b080fbfc44463f036af256b25228453b -->
<g id="edge3" class="edge">
<title>dir_dd3580c6b729ef0dd2be01098f8e55ee&#45;&gt;dir_b080fbfc44463f036af256b25228453b</title>
<path fill="none" stroke="black" d="M68.8,-159.7C77.6,-151.14 88.38,-140.66 98,-131.3"/>
<polygon fill="black" stroke="black" points="100.68,-133.58 105.41,-124.1 95.8,-128.57 100.68,-133.58"/>
<g id="a_edge3&#45;headlabel"><a xlink:href="dir_000062_000040.html" target="_top" xlink:title="2">
<text text-anchor="middle" x="100.08" y="-135.63" font-family="Helvetica,sans-Serif" font-size="10.00">2</text>
</a>
</g>
</g>
<!-- dir_dd3580c6b729ef0dd2be01098f8e55ee&#45;&gt;dir_d458d878e154568f8572c436e514c759 -->
<g id="edge4" class="edge">
<title>dir_dd3580c6b729ef0dd2be01098f8e55ee&#45;&gt;dir_d458d878e154568f8572c436e514c759</title>
<path fill="none" stroke="black" d="M78.2,-172.08C104.03,-165.8 141.44,-152.18 159,-124 171.07,-104.63 161.79,-79.41 151.11,-60.77"/>
<polygon fill="black" stroke="black" points="154.06,-58.88 145.85,-52.2 148.1,-62.55 154.06,-58.88"/>
<g id="a_edge4&#45;headlabel"><a xlink:href="dir_000062_000065.html" target="_top" xlink:title="16">
<text text-anchor="middle" x="158.37" y="-57.96" font-family="Helvetica,sans-Serif" font-size="10.00">16</text>
</a>
</g>
</g>
<!-- dir_9ce08663f6888314580f3977af327a46 -->
<g id="node4" class="node">
<title>dir_9ce08663f6888314580f3977af327a46</title>
<g id="a_node4"><a xlink:href="dir_9ce08663f6888314580f3977af327a46.html" target="_top" xlink:title="bits">
<polygon fill="white" stroke="black" points="78,-124 24,-124 24,-88 78,-88 78,-124"/>
<text text-anchor="middle" x="51" y="-103.5" font-family="Helvetica,sans-Serif" font-size="10.00">bits</text>
</a>
</g>
</g>
<!-- dir_dd3580c6b729ef0dd2be01098f8e55ee&#45;&gt;dir_9ce08663f6888314580f3977af327a46 -->
<g id="edge2" class="edge">
<title>dir_dd3580c6b729ef0dd2be01098f8e55ee&#45;&gt;dir_9ce08663f6888314580f3977af327a46</title>
<path fill="none" stroke="black" d="M51,-159.7C51,-151.98 51,-142.71 51,-134.11"/>
<polygon fill="black" stroke="black" points="54.5,-134.1 51,-124.1 47.5,-134.1 54.5,-134.1"/>
<g id="a_edge2&#45;headlabel"><a xlink:href="dir_000062_000063.html" target="_top" xlink:title="2">
<text text-anchor="middle" x="57.34" y="-135.2" font-family="Helvetica,sans-Serif" font-size="10.00">2</text>
</a>
</g>
</g>
</g>
</svg>
