<?xml version="1.0" encoding="UTF-8" standalone="no"?>
<!DOCTYPE svg PUBLIC "-//W3C//DTD SVG 1.1//EN"
 "http://www.w3.org/Graphics/SVG/1.1/DTD/svg11.dtd">
<!-- Generated by graphviz version 2.43.0 (0)
 -->
<!-- Title: l4/l4re_vfs/impl Pages: 1 -->
<svg width="133pt" height="295pt"
 viewBox="0.00 0.00 133.00 295.00" xmlns="http://www.w3.org/2000/svg" xmlns:xlink="http://www.w3.org/1999/xlink">
<g id="graph0" class="graph" transform="scale(1 1) rotate(0) translate(4 291)">
<title>l4/l4re_vfs/impl</title>
<polygon fill="white" stroke="transparent" points="-4,4 -4,-291 129,-291 129,4 -4,4"/>
<g id="clust1" class="cluster">
<title>clusterdir_23b146a426e7ed970afb9c6da946d6da</title>
<g id="a_clust1"><a xlink:href="dir_23b146a426e7ed970afb9c6da946d6da.html" target="_top" xlink:title="l4re_vfs">
<polygon fill="#ddddee" stroke="black" points="47,-208 47,-279 117,-279 117,-208 47,-208"/>
<text text-anchor="middle" x="82" y="-267" font-family="Helvetica,sans-Serif" font-size="10.00">l4re_vfs</text>
</a>
</g>
</g>
<!-- dir_9de6b533186d5fc3929ab9300eb1cb79 -->
<g id="node1" class="node">
<title>dir_9de6b533186d5fc3929ab9300eb1cb79</title>
<g id="a_node1"><a xlink:href="dir_9de6b533186d5fc3929ab9300eb1cb79.html" target="_top" xlink:title="impl">
<polygon fill="#eeeeff" stroke="black" points="109,-252 55,-252 55,-216 109,-216 109,-252"/>
<text text-anchor="middle" x="82" y="-231.5" font-family="Helvetica,sans-Serif" font-size="10.00">impl</text>
</a>
</g>
</g>
<!-- dir_30d77a5207eb89e366a23f343e13fefd -->
<g id="node2" class="node">
<title>dir_30d77a5207eb89e366a23f343e13fefd</title>
<g id="a_node2"><a xlink:href="dir_30d77a5207eb89e366a23f343e13fefd.html" target="_top" xlink:title="re">
<polygon fill="white" stroke="red" points="54,-180 0,-180 0,-144 54,-144 54,-180"/>
<text text-anchor="middle" x="27" y="-159.5" font-family="Helvetica,sans-Serif" font-size="10.00">re</text>
</a>
</g>
</g>
<!-- dir_9de6b533186d5fc3929ab9300eb1cb79&#45;&gt;dir_30d77a5207eb89e366a23f343e13fefd -->
<g id="edge4" class="edge">
<title>dir_9de6b533186d5fc3929ab9300eb1cb79&#45;&gt;dir_30d77a5207eb89e366a23f343e13fefd</title>
<path fill="none" stroke="black" d="M68.4,-215.7C61.88,-207.39 53.93,-197.28 46.75,-188.14"/>
<polygon fill="black" stroke="black" points="49.37,-185.81 40.44,-180.1 43.87,-190.13 49.37,-185.81"/>
<g id="a_edge4&#45;headlabel"><a xlink:href="dir_000067_000073.html" target="_top" xlink:title="10">
<text text-anchor="middle" x="53.82" y="-184.38" font-family="Helvetica,sans-Serif" font-size="10.00">10</text>
</a>
</g>
</g>
<!-- dir_d458d878e154568f8572c436e514c759 -->
<g id="node3" class="node">
<title>dir_d458d878e154568f8572c436e514c759</title>
<g id="a_node3"><a xlink:href="dir_d458d878e154568f8572c436e514c759.html" target="_top" xlink:title="sys">
<polygon fill="white" stroke="red" points="100,-36 46,-36 46,0 100,0 100,-36"/>
<text text-anchor="middle" x="73" y="-15.5" font-family="Helvetica,sans-Serif" font-size="10.00">sys</text>
</a>
</g>
</g>
<!-- dir_9de6b533186d5fc3929ab9300eb1cb79&#45;&gt;dir_d458d878e154568f8572c436e514c759 -->
<g id="edge5" class="edge">
<title>dir_9de6b533186d5fc3929ab9300eb1cb79&#45;&gt;dir_d458d878e154568f8572c436e514c759</title>
<path fill="none" stroke="black" d="M90.02,-215.74C102.76,-185.88 124.66,-122.93 109,-72 105.99,-62.22 100.49,-52.62 94.68,-44.33"/>
<polygon fill="black" stroke="black" points="97.41,-42.13 88.61,-36.23 91.81,-46.33 97.41,-42.13"/>
<g id="a_edge5&#45;headlabel"><a xlink:href="dir_000067_000065.html" target="_top" xlink:title="5">
<text text-anchor="middle" x="101.83" y="-40.8" font-family="Helvetica,sans-Serif" font-size="10.00">5</text>
</a>
</g>
</g>
<!-- dir_dd3580c6b729ef0dd2be01098f8e55ee -->
<g id="node4" class="node">
<title>dir_dd3580c6b729ef0dd2be01098f8e55ee</title>
<g id="a_node4"><a xlink:href="dir_dd3580c6b729ef0dd2be01098f8e55ee.html" target="_top" xlink:title="cxx">
<polygon fill="white" stroke="red" points="100,-108 46,-108 46,-72 100,-72 100,-108"/>
<text text-anchor="middle" x="73" y="-87.5" font-family="Helvetica,sans-Serif" font-size="10.00">cxx</text>
</a>
</g>
</g>
<!-- dir_9de6b533186d5fc3929ab9300eb1cb79&#45;&gt;dir_dd3580c6b729ef0dd2be01098f8e55ee -->
<g id="edge6" class="edge">
<title>dir_9de6b533186d5fc3929ab9300eb1cb79&#45;&gt;dir_dd3580c6b729ef0dd2be01098f8e55ee</title>
<path fill="none" stroke="black" d="M80.91,-215.87C79.38,-191.67 76.56,-147.21 74.74,-118.39"/>
<polygon fill="black" stroke="black" points="78.22,-117.95 74.09,-108.19 71.23,-118.39 78.22,-117.95"/>
<g id="a_edge6&#45;headlabel"><a xlink:href="dir_000067_000062.html" target="_top" xlink:title="1">
<text text-anchor="middle" x="81.28" y="-118.86" font-family="Helvetica,sans-Serif" font-size="10.00">1</text>
</a>
</g>
</g>
<!-- dir_30d77a5207eb89e366a23f343e13fefd&#45;&gt;dir_d458d878e154568f8572c436e514c759 -->
<g id="edge1" class="edge">
<title>dir_30d77a5207eb89e366a23f343e13fefd&#45;&gt;dir_d458d878e154568f8572c436e514c759</title>
<path fill="none" stroke="black" d="M26.52,-143.71C26.56,-125.35 28.21,-95.77 37,-72 40.55,-62.4 46.2,-52.85 51.98,-44.56"/>
<polygon fill="black" stroke="black" points="54.86,-46.55 57.97,-36.42 49.23,-42.4 54.86,-46.55"/>
<g id="a_edge1&#45;headlabel"><a xlink:href="dir_000073_000065.html" target="_top" xlink:title="109">
<text text-anchor="middle" x="55.02" y="-48.63" font-family="Helvetica,sans-Serif" font-size="10.00">109</text>
</a>
</g>
</g>
<!-- dir_30d77a5207eb89e366a23f343e13fefd&#45;&gt;dir_dd3580c6b729ef0dd2be01098f8e55ee -->
<g id="edge2" class="edge">
<title>dir_30d77a5207eb89e366a23f343e13fefd&#45;&gt;dir_dd3580c6b729ef0dd2be01098f8e55ee</title>
<path fill="none" stroke="black" d="M38.37,-143.7C43.72,-135.56 50.2,-125.69 56.11,-116.7"/>
<polygon fill="black" stroke="black" points="59.19,-118.38 61.76,-108.1 53.34,-114.54 59.19,-118.38"/>
<g id="a_edge2&#45;headlabel"><a xlink:href="dir_000073_000062.html" target="_top" xlink:title="4">
<text text-anchor="middle" x="59.59" y="-120.45" font-family="Helvetica,sans-Serif" font-size="10.00">4</text>
</a>
</g>
</g>
<!-- dir_dd3580c6b729ef0dd2be01098f8e55ee&#45;&gt;dir_d458d878e154568f8572c436e514c759 -->
<g id="edge3" class="edge">
<title>dir_dd3580c6b729ef0dd2be01098f8e55ee&#45;&gt;dir_d458d878e154568f8572c436e514c759</title>
<path fill="none" stroke="black" d="M73,-71.7C73,-63.98 73,-54.71 73,-46.11"/>
<polygon fill="black" stroke="black" points="76.5,-46.1 73,-36.1 69.5,-46.1 76.5,-46.1"/>
<g id="a_edge3&#45;headlabel"><a xlink:href="dir_000062_000065.html" target="_top" xlink:title="16">
<text text-anchor="middle" x="79.34" y="-47.2" font-family="Helvetica,sans-Serif" font-size="10.00">16</text>
</a>
</g>
</g>
</g>
</svg>
