<?xml version="1.0" encoding="UTF-8" standalone="no"?>
<!DOCTYPE svg PUBLIC "-//W3C//DTD SVG 1.1//EN"
 "http://www.w3.org/Graphics/SVG/1.1/DTD/svg11.dtd">
<!-- Generated by graphviz version 2.43.0 (0)
 -->
<!-- Title: l4/re Pages: 1 -->
<svg width="428pt" height="247pt"
 viewBox="0.00 0.00 428.00 247.00" xmlns="http://www.w3.org/2000/svg" xmlns:xlink="http://www.w3.org/1999/xlink">
<g id="graph0" class="graph" transform="scale(1 1) rotate(0) translate(4 243)">
<title>l4/re</title>
<polygon fill="white" stroke="transparent" points="-4,4 -4,-243 424,-243 424,4 -4,4"/>
<g id="clust1" class="cluster">
<title>clusterdir_1f581fa1f88782a0973f05f5fe437b46</title>
<g id="a_clust1"><a xlink:href="dir_1f581fa1f88782a0973f05f5fe437b46.html" target="_top" xlink:title="l4">
<polygon fill="#ddddee" stroke="black" points="8,-8 8,-231 412,-231 412,-8 8,-8"/>
<text text-anchor="middle" x="210" y="-219" font-family="Helvetica,sans-Serif" font-size="10.00">l4</text>
</a>
</g>
</g>
<g id="clust2" class="cluster">
<title>clusterdir_30d77a5207eb89e366a23f343e13fefd</title>
<g id="a_clust2"><a xlink:href="dir_30d77a5207eb89e366a23f343e13fefd.html" target="_top">
<polygon fill="#eeeeff" stroke="black" points="16,-80 16,-204 302,-204 302,-80 16,-80"/>
</a>
</g>
</g>
<!-- dir_d458d878e154568f8572c436e514c759 -->
<g id="node1" class="node">
<title>dir_d458d878e154568f8572c436e514c759</title>
<g id="a_node1"><a xlink:href="dir_d458d878e154568f8572c436e514c759.html" target="_top" xlink:title="sys">
<polygon fill="white" stroke="red" points="364,-52 310,-52 310,-16 364,-16 364,-52"/>
<text text-anchor="middle" x="337" y="-31.5" font-family="Helvetica,sans-Serif" font-size="10.00">sys</text>
</a>
</g>
</g>
<!-- dir_dd3580c6b729ef0dd2be01098f8e55ee -->
<g id="node2" class="node">
<title>dir_dd3580c6b729ef0dd2be01098f8e55ee</title>
<g id="a_node2"><a xlink:href="dir_dd3580c6b729ef0dd2be01098f8e55ee.html" target="_top" xlink:title="cxx">
<polygon fill="white" stroke="red" points="364,-124 310,-124 310,-88 364,-88 364,-124"/>
<text text-anchor="middle" x="337" y="-103.5" font-family="Helvetica,sans-Serif" font-size="10.00">cxx</text>
</a>
</g>
</g>
<!-- dir_dd3580c6b729ef0dd2be01098f8e55ee&#45;&gt;dir_d458d878e154568f8572c436e514c759 -->
<g id="edge3" class="edge">
<title>dir_dd3580c6b729ef0dd2be01098f8e55ee&#45;&gt;dir_d458d878e154568f8572c436e514c759</title>
<path fill="none" stroke="black" d="M337,-87.7C337,-79.98 337,-70.71 337,-62.11"/>
<polygon fill="black" stroke="black" points="340.5,-62.1 337,-52.1 333.5,-62.1 340.5,-62.1"/>
<g id="a_edge3&#45;headlabel"><a xlink:href="dir_000062_000065.html" target="_top" xlink:title="16">
<text text-anchor="middle" x="343.34" y="-63.2" font-family="Helvetica,sans-Serif" font-size="10.00">16</text>
</a>
</g>
</g>
<!-- dir_30d77a5207eb89e366a23f343e13fefd -->
<g id="node3" class="node">
<title>dir_30d77a5207eb89e366a23f343e13fefd</title>
<text text-anchor="middle" x="123" y="-175.5" font-family="Helvetica,sans-Serif" font-size="10.00">re</text>
</g>
<!-- dir_30d77a5207eb89e366a23f343e13fefd&#45;&gt;dir_dd3580c6b729ef0dd2be01098f8e55ee -->
<g id="edge1" class="edge">
<title>dir_30d77a5207eb89e366a23f343e13fefd&#45;&gt;dir_dd3580c6b729ef0dd2be01098f8e55ee</title>
<path fill="none" stroke="black" d="M150.28,-163.42C153.19,-162.19 156.13,-161.02 159,-160 219.3,-138.62 241.17,-147.4 300.38,-125.97"/>
<polygon fill="black" stroke="black" points="301.68,-129.22 309.8,-122.42 299.21,-122.67 301.68,-129.22"/>
<g id="a_edge1&#45;headlabel"><a xlink:href="dir_000073_000062.html" target="_top" xlink:title="4">
<text text-anchor="middle" x="299.31" y="-130.64" font-family="Helvetica,sans-Serif" font-size="10.00">4</text>
</a>
</g>
</g>
<!-- dir_9cacc43b47fb52c27eca04eb55cc6fe9 -->
<g id="node4" class="node">
<title>dir_9cacc43b47fb52c27eca04eb55cc6fe9</title>
<g id="a_node4"><a xlink:href="dir_9cacc43b47fb52c27eca04eb55cc6fe9.html" target="_top" xlink:title="c">
<polygon fill="white" stroke="red" points="222,-196 168,-196 168,-160 222,-160 222,-196"/>
<text text-anchor="middle" x="195" y="-175.5" font-family="Helvetica,sans-Serif" font-size="10.00">c</text>
</a>
</g>
</g>
<!-- dir_9cacc43b47fb52c27eca04eb55cc6fe9&#45;&gt;dir_d458d878e154568f8572c436e514c759 -->
<g id="edge5" class="edge">
<title>dir_9cacc43b47fb52c27eca04eb55cc6fe9&#45;&gt;dir_d458d878e154568f8572c436e514c759</title>
<path fill="none" stroke="black" d="M222.29,-163.45C225.2,-162.2 228.14,-161.03 231,-160 292.28,-138 333.02,-175.38 373,-124 385.01,-108.57 379.47,-98.45 373,-80 370.5,-72.86 366.33,-66.01 361.7,-59.91"/>
<polygon fill="black" stroke="black" points="364.29,-57.55 355.22,-52.08 358.9,-62.01 364.29,-57.55"/>
<g id="a_edge5&#45;headlabel"><a xlink:href="dir_000074_000065.html" target="_top" xlink:title="13">
<text text-anchor="middle" x="368.77" y="-56" font-family="Helvetica,sans-Serif" font-size="10.00">13</text>
</a>
</g>
</g>
<!-- dir_36777f7a7a96e008b339783d073d7ed0 -->
<g id="node5" class="node">
<title>dir_36777f7a7a96e008b339783d073d7ed0</title>
<g id="a_node5"><a xlink:href="dir_36777f7a7a96e008b339783d073d7ed0.html" target="_top" xlink:title="impl">
<polygon fill="white" stroke="black" points="294,-196 240,-196 240,-160 294,-160 294,-196"/>
<text text-anchor="middle" x="267" y="-175.5" font-family="Helvetica,sans-Serif" font-size="10.00">impl</text>
</a>
</g>
</g>
<!-- dir_36777f7a7a96e008b339783d073d7ed0&#45;&gt;dir_d458d878e154568f8572c436e514c759 -->
<g id="edge4" class="edge">
<title>dir_36777f7a7a96e008b339783d073d7ed0&#45;&gt;dir_d458d878e154568f8572c436e514c759</title>
<path fill="none" stroke="black" d="M294.15,-173.68C323.01,-168.54 367.29,-155.67 388,-124 398.7,-107.63 396.04,-97.82 388,-80 384.37,-71.95 378.51,-64.77 372.03,-58.63"/>
<polygon fill="black" stroke="black" points="374.1,-55.8 364.25,-51.92 369.53,-61.1 374.1,-55.8"/>
<g id="a_edge4&#45;headlabel"><a xlink:href="dir_000079_000065.html" target="_top" xlink:title="7">
<text text-anchor="middle" x="378.68" y="-53.49" font-family="Helvetica,sans-Serif" font-size="10.00">7</text>
</a>
</g>
</g>
<!-- dir_57b23affb30111293db30b1adc1928ce -->
<g id="node6" class="node">
<title>dir_57b23affb30111293db30b1adc1928ce</title>
<g id="a_node6"><a xlink:href="dir_57b23affb30111293db30b1adc1928ce.html" target="_top" xlink:title="util">
<polygon fill="white" stroke="red" points="78,-196 24,-196 24,-160 78,-160 78,-196"/>
<text text-anchor="middle" x="51" y="-175.5" font-family="Helvetica,sans-Serif" font-size="10.00">util</text>
</a>
</g>
</g>
<!-- dir_57b23affb30111293db30b1adc1928ce&#45;&gt;dir_d458d878e154568f8572c436e514c759 -->
<g id="edge6" class="edge">
<title>dir_57b23affb30111293db30b1adc1928ce&#45;&gt;dir_d458d878e154568f8572c436e514c759</title>
<path fill="none" stroke="black" d="M78.16,-163.51C129.81,-137.87 242.18,-82.08 300.4,-53.17"/>
<polygon fill="black" stroke="black" points="302.2,-56.19 309.6,-48.6 299.09,-49.92 302.2,-56.19"/>
<g id="a_edge6&#45;headlabel"><a xlink:href="dir_000078_000065.html" target="_top" xlink:title="29">
<text text-anchor="middle" x="300.24" y="-57.83" font-family="Helvetica,sans-Serif" font-size="10.00">29</text>
</a>
</g>
</g>
<!-- dir_57b23affb30111293db30b1adc1928ce&#45;&gt;dir_dd3580c6b729ef0dd2be01098f8e55ee -->
<g id="edge7" class="edge">
<title>dir_57b23affb30111293db30b1adc1928ce&#45;&gt;dir_dd3580c6b729ef0dd2be01098f8e55ee</title>
<path fill="none" stroke="black" d="M78.2,-163.2C81.13,-162 84.1,-160.9 87,-160 177.96,-131.66 210.52,-154.49 300.12,-125.79"/>
<polygon fill="black" stroke="black" points="301.47,-129.03 309.85,-122.54 299.25,-122.39 301.47,-129.03"/>
<g id="a_edge7&#45;headlabel"><a xlink:href="dir_000078_000062.html" target="_top" xlink:title="3">
<text text-anchor="middle" x="298.96" y="-130.36" font-family="Helvetica,sans-Serif" font-size="10.00">3</text>
</a>
</g>
</g>
<!-- dir_64a0a8d27b6a136ec43eee79cca0e5fc -->
<g id="node7" class="node">
<title>dir_64a0a8d27b6a136ec43eee79cca0e5fc</title>
<g id="a_node7"><a xlink:href="dir_64a0a8d27b6a136ec43eee79cca0e5fc.html" target="_top" xlink:title="video">
<polygon fill="white" stroke="black" points="127,-124 73,-124 73,-88 127,-88 127,-124"/>
<text text-anchor="middle" x="100" y="-103.5" font-family="Helvetica,sans-Serif" font-size="10.00">video</text>
</a>
</g>
</g>
<!-- dir_57b23affb30111293db30b1adc1928ce&#45;&gt;dir_64a0a8d27b6a136ec43eee79cca0e5fc -->
<g id="edge8" class="edge">
<title>dir_57b23affb30111293db30b1adc1928ce&#45;&gt;dir_64a0a8d27b6a136ec43eee79cca0e5fc</title>
<path fill="none" stroke="black" d="M63.11,-159.7C68.87,-151.47 75.86,-141.48 82.21,-132.42"/>
<polygon fill="black" stroke="black" points="85.16,-134.3 88.03,-124.1 79.42,-130.29 85.16,-134.3"/>
<g id="a_edge8&#45;headlabel"><a xlink:href="dir_000078_000081.html" target="_top" xlink:title="1">
<text text-anchor="middle" x="85.42" y="-136.38" font-family="Helvetica,sans-Serif" font-size="10.00">1</text>
</a>
</g>
</g>
<!-- dir_64a0a8d27b6a136ec43eee79cca0e5fc&#45;&gt;dir_d458d878e154568f8572c436e514c759 -->
<g id="edge2" class="edge">
<title>dir_64a0a8d27b6a136ec43eee79cca0e5fc&#45;&gt;dir_d458d878e154568f8572c436e514c759</title>
<path fill="none" stroke="black" d="M118.4,-87.9C122.34,-84.91 126.64,-82.09 131,-80 186.08,-53.6 256.88,-42.5 299.5,-37.97"/>
<polygon fill="black" stroke="black" points="300.1,-41.43 309.7,-36.95 299.4,-34.46 300.1,-41.43"/>
<g id="a_edge2&#45;headlabel"><a xlink:href="dir_000081_000065.html" target="_top" xlink:title="3">
<text text-anchor="middle" x="296.8" y="-42.11" font-family="Helvetica,sans-Serif" font-size="10.00">3</text>
</a>
</g>
</g>
</g>
</svg>
