<?xml version="1.0" encoding="UTF-8" standalone="no"?>
<!DOCTYPE svg PUBLIC "-//W3C//DTD SVG 1.1//EN"
 "http://www.w3.org/Graphics/SVG/1.1/DTD/svg11.dtd">
<!-- Generated by graphviz version 2.43.0 (0)
 -->
<!-- Title: amd64 Pages: 1 -->
<svg width="238pt" height="204pt"
 viewBox="0.00 0.00 238.00 204.00" xmlns="http://www.w3.org/2000/svg" xmlns:xlink="http://www.w3.org/1999/xlink">
<g id="graph0" class="graph" transform="scale(1 1) rotate(0) translate(4 200)">
<title>amd64</title>
<polygon fill="white" stroke="transparent" points="-4,4 -4,-200 234,-200 234,4 -4,4"/>
<g id="clust1" class="cluster">
<title>clusterdir_69ed642223cba8c1112b95b83b35b671</title>
<g id="a_clust1"><a xlink:href="dir_69ed642223cba8c1112b95b83b35b671.html" target="_top">
<polygon fill="#eeeeff" stroke="black" points="8,-136 8,-188 222,-188 222,-136 8,-136"/>
</a>
</g>
</g>
<!-- dir_69ed642223cba8c1112b95b83b35b671 -->
<g id="node1" class="node">
<title>dir_69ed642223cba8c1112b95b83b35b671</title>
<text text-anchor="middle" x="187" y="-159.5" font-family="Helvetica,sans-Serif" font-size="10.00">amd64</text>
</g>
<!-- dir_f2c352f429e78fe44d0dc125624401eb -->
<g id="node2" class="node">
<title>dir_f2c352f429e78fe44d0dc125624401eb</title>
<g id="a_node2"><a xlink:href="dir_f2c352f429e78fe44d0dc125624401eb.html" target="_top" xlink:title="l4">
<polygon fill="white" stroke="red" points="70,-180 16,-180 16,-144 70,-144 70,-180"/>
<text text-anchor="middle" x="43" y="-159.5" font-family="Helvetica,sans-Serif" font-size="10.00">l4</text>
</a>
</g>
</g>
<!-- dir_1f581fa1f88782a0973f05f5fe437b46 -->
<g id="node4" class="node">
<title>dir_1f581fa1f88782a0973f05f5fe437b46</title>
<g id="a_node4"><a xlink:href="dir_1f581fa1f88782a0973f05f5fe437b46.html" target="_top" xlink:title="l4">
<polygon fill="white" stroke="red" points="106,-36 52,-36 52,0 106,0 106,-36"/>
<text text-anchor="middle" x="79" y="-15.5" font-family="Helvetica,sans-Serif" font-size="10.00">l4</text>
</a>
</g>
</g>
<!-- dir_f2c352f429e78fe44d0dc125624401eb&#45;&gt;dir_1f581fa1f88782a0973f05f5fe437b46 -->
<g id="edge3" class="edge">
<title>dir_f2c352f429e78fe44d0dc125624401eb&#45;&gt;dir_1f581fa1f88782a0973f05f5fe437b46</title>
<path fill="none" stroke="black" d="M40.07,-143.83C37.62,-125.57 35.6,-96.07 43,-72 46.01,-62.22 51.51,-52.62 57.32,-44.33"/>
<polygon fill="black" stroke="black" points="60.19,-46.33 63.39,-36.23 54.59,-42.13 60.19,-46.33"/>
<g id="a_edge3&#45;headlabel"><a xlink:href="dir_000034_000039.html" target="_top" xlink:title="23">
<text text-anchor="middle" x="60.31" y="-48.41" font-family="Helvetica,sans-Serif" font-size="10.00">23</text>
</a>
</g>
</g>
<!-- dir_d979004d17f5223e5cbcd0eb3b9cd5ac -->
<g id="node5" class="node">
<title>dir_d979004d17f5223e5cbcd0eb3b9cd5ac</title>
<g id="a_node5"><a xlink:href="dir_d979004d17f5223e5cbcd0eb3b9cd5ac.html" target="_top" xlink:title="x86">
<polygon fill="white" stroke="red" points="106,-108 52,-108 52,-72 106,-72 106,-108"/>
<text text-anchor="middle" x="79" y="-87.5" font-family="Helvetica,sans-Serif" font-size="10.00">x86</text>
</a>
</g>
</g>
<!-- dir_f2c352f429e78fe44d0dc125624401eb&#45;&gt;dir_d979004d17f5223e5cbcd0eb3b9cd5ac -->
<g id="edge4" class="edge">
<title>dir_f2c352f429e78fe44d0dc125624401eb&#45;&gt;dir_d979004d17f5223e5cbcd0eb3b9cd5ac</title>
<path fill="none" stroke="black" d="M51.9,-143.7C56,-135.73 60.95,-126.1 65.49,-117.26"/>
<polygon fill="black" stroke="black" points="68.74,-118.6 70.2,-108.1 62.52,-115.4 68.74,-118.6"/>
<g id="a_edge4&#45;headlabel"><a xlink:href="dir_000034_000036.html" target="_top" xlink:title="1">
<text text-anchor="middle" x="69.62" y="-120.59" font-family="Helvetica,sans-Serif" font-size="10.00">1</text>
</a>
</g>
</g>
<!-- dir_e6be2e03ac70b36b170aaf8da4ea97b0 -->
<g id="node3" class="node">
<title>dir_e6be2e03ac70b36b170aaf8da4ea97b0</title>
<g id="a_node3"><a xlink:href="dir_e6be2e03ac70b36b170aaf8da4ea97b0.html" target="_top" xlink:title="l4f">
<polygon fill="white" stroke="red" points="142,-180 88,-180 88,-144 142,-144 142,-180"/>
<text text-anchor="middle" x="115" y="-159.5" font-family="Helvetica,sans-Serif" font-size="10.00">l4f</text>
</a>
</g>
</g>
<!-- dir_e6be2e03ac70b36b170aaf8da4ea97b0&#45;&gt;dir_1f581fa1f88782a0973f05f5fe437b46 -->
<g id="edge1" class="edge">
<title>dir_e6be2e03ac70b36b170aaf8da4ea97b0&#45;&gt;dir_1f581fa1f88782a0973f05f5fe437b46</title>
<path fill="none" stroke="black" d="M117.93,-143.83C120.38,-125.57 122.4,-96.07 115,-72 111.99,-62.22 106.49,-52.62 100.68,-44.33"/>
<polygon fill="black" stroke="black" points="103.41,-42.13 94.61,-36.23 97.81,-46.33 103.41,-42.13"/>
<g id="a_edge1&#45;headlabel"><a xlink:href="dir_000041_000039.html" target="_top" xlink:title="1">
<text text-anchor="middle" x="107.83" y="-40.8" font-family="Helvetica,sans-Serif" font-size="10.00">1</text>
</a>
</g>
</g>
<!-- dir_e6be2e03ac70b36b170aaf8da4ea97b0&#45;&gt;dir_d979004d17f5223e5cbcd0eb3b9cd5ac -->
<g id="edge2" class="edge">
<title>dir_e6be2e03ac70b36b170aaf8da4ea97b0&#45;&gt;dir_d979004d17f5223e5cbcd0eb3b9cd5ac</title>
<path fill="none" stroke="black" d="M106.1,-143.7C102,-135.73 97.05,-126.1 92.51,-117.26"/>
<polygon fill="black" stroke="black" points="95.48,-115.4 87.8,-108.1 89.26,-118.6 95.48,-115.4"/>
<g id="a_edge2&#45;headlabel"><a xlink:href="dir_000041_000036.html" target="_top" xlink:title="1">
<text text-anchor="middle" x="99.65" y="-114.79" font-family="Helvetica,sans-Serif" font-size="10.00">1</text>
</a>
</g>
</g>
<!-- dir_d979004d17f5223e5cbcd0eb3b9cd5ac&#45;&gt;dir_1f581fa1f88782a0973f05f5fe437b46 -->
<g id="edge5" class="edge">
<title>dir_d979004d17f5223e5cbcd0eb3b9cd5ac&#45;&gt;dir_1f581fa1f88782a0973f05f5fe437b46</title>
<path fill="none" stroke="black" d="M79,-71.7C79,-63.98 79,-54.71 79,-46.11"/>
<polygon fill="black" stroke="black" points="82.5,-46.1 79,-36.1 75.5,-46.1 82.5,-46.1"/>
<g id="a_edge5&#45;headlabel"><a xlink:href="dir_000036_000039.html" target="_top" xlink:title="32">
<text text-anchor="middle" x="85.34" y="-47.2" font-family="Helvetica,sans-Serif" font-size="10.00">32</text>
</a>
</g>
</g>
</g>
</svg>
