<?xml version="1.0" encoding="UTF-8" standalone="no"?>
<!DOCTYPE svg PUBLIC "-//W3C//DTD SVG 1.1//EN"
 "http://www.w3.org/Graphics/SVG/1.1/DTD/svg11.dtd">
<!-- Generated by graphviz version 2.43.0 (0)
 -->
<!-- Title: x86/l4f/l4 Pages: 1 -->
<svg width="254pt" height="231pt"
 viewBox="0.00 0.00 254.00 231.00" xmlns="http://www.w3.org/2000/svg" xmlns:xlink="http://www.w3.org/1999/xlink">
<g id="graph0" class="graph" transform="scale(1 1) rotate(0) translate(4 227)">
<title>x86/l4f/l4</title>
<polygon fill="white" stroke="transparent" points="-4,4 -4,-227 250,-227 250,4 -4,4"/>
<g id="clust1" class="cluster">
<title>clusterdir_8d01419ca1aaeec965167f1badeb4efc</title>
<g id="a_clust1"><a xlink:href="dir_8d01419ca1aaeec965167f1badeb4efc.html" target="_top" xlink:title="l4f">
<polygon fill="#ddddee" stroke="black" points="8,-128 8,-215 238,-215 238,-128 8,-128"/>
<text text-anchor="middle" x="123" y="-203" font-family="Helvetica,sans-Serif" font-size="10.00">l4f</text>
</a>
</g>
</g>
<g id="clust2" class="cluster">
<title>clusterdir_b1ef4b33e412106de45c69a6c077bb16</title>
<g id="a_clust2"><a xlink:href="dir_b1ef4b33e412106de45c69a6c077bb16.html" target="_top">
<polygon fill="#eeeeff" stroke="black" points="16,-136 16,-188 230,-188 230,-136 16,-136"/>
</a>
</g>
</g>
<!-- dir_b1ef4b33e412106de45c69a6c077bb16 -->
<g id="node1" class="node">
<title>dir_b1ef4b33e412106de45c69a6c077bb16</title>
<text text-anchor="middle" x="195" y="-159.5" font-family="Helvetica,sans-Serif" font-size="10.00">l4</text>
</g>
<!-- dir_fc28d5f4fe926199ead80cf3928a99e6 -->
<g id="node2" class="node">
<title>dir_fc28d5f4fe926199ead80cf3928a99e6</title>
<g id="a_node2"><a xlink:href="dir_fc28d5f4fe926199ead80cf3928a99e6.html" target="_top" xlink:title="sys">
<polygon fill="white" stroke="black" points="78,-180 24,-180 24,-144 78,-144 78,-180"/>
<text text-anchor="middle" x="51" y="-159.5" font-family="Helvetica,sans-Serif" font-size="10.00">sys</text>
</a>
</g>
</g>
<!-- dir_1f581fa1f88782a0973f05f5fe437b46 -->
<g id="node4" class="node">
<title>dir_1f581fa1f88782a0973f05f5fe437b46</title>
<g id="a_node4"><a xlink:href="dir_1f581fa1f88782a0973f05f5fe437b46.html" target="_top" xlink:title="l4">
<polygon fill="white" stroke="red" points="116,-36 62,-36 62,0 116,0 116,-36"/>
<text text-anchor="middle" x="89" y="-15.5" font-family="Helvetica,sans-Serif" font-size="10.00">l4</text>
</a>
</g>
</g>
<!-- dir_fc28d5f4fe926199ead80cf3928a99e6&#45;&gt;dir_1f581fa1f88782a0973f05f5fe437b46 -->
<g id="edge1" class="edge">
<title>dir_fc28d5f4fe926199ead80cf3928a99e6&#45;&gt;dir_1f581fa1f88782a0973f05f5fe437b46</title>
<path fill="none" stroke="black" d="M55.58,-143.87C62.09,-119.56 74.06,-74.82 81.77,-46.01"/>
<polygon fill="black" stroke="black" points="85.2,-46.75 84.4,-36.19 78.43,-44.94 85.2,-46.75"/>
<g id="a_edge1&#45;headlabel"><a xlink:href="dir_000047_000039.html" target="_top" xlink:title="3">
<text text-anchor="middle" x="87.01" y="-48.46" font-family="Helvetica,sans-Serif" font-size="10.00">3</text>
</a>
</g>
</g>
<!-- dir_1be68f62509728dc1eed2b689efb1ed4 -->
<g id="node3" class="node">
<title>dir_1be68f62509728dc1eed2b689efb1ed4</title>
<g id="a_node3"><a xlink:href="dir_1be68f62509728dc1eed2b689efb1ed4.html" target="_top" xlink:title="util">
<polygon fill="white" stroke="black" points="150,-180 96,-180 96,-144 150,-144 150,-180"/>
<text text-anchor="middle" x="123" y="-159.5" font-family="Helvetica,sans-Serif" font-size="10.00">util</text>
</a>
</g>
</g>
<!-- dir_1be68f62509728dc1eed2b689efb1ed4&#45;&gt;dir_1f581fa1f88782a0973f05f5fe437b46 -->
<g id="edge3" class="edge">
<title>dir_1be68f62509728dc1eed2b689efb1ed4&#45;&gt;dir_1f581fa1f88782a0973f05f5fe437b46</title>
<path fill="none" stroke="black" d="M117.85,-143.89C114.81,-133.54 110.99,-120.07 108,-108 102.9,-87.43 97.93,-63.97 94.35,-46.31"/>
<polygon fill="black" stroke="black" points="97.71,-45.26 92.31,-36.14 90.84,-46.63 97.71,-45.26"/>
<g id="a_edge3&#45;headlabel"><a xlink:href="dir_000050_000039.html" target="_top" xlink:title="4">
<text text-anchor="middle" x="101.2" y="-45.72" font-family="Helvetica,sans-Serif" font-size="10.00">4</text>
</a>
</g>
</g>
<!-- dir_3fa9cbe562e25975b065e1d6353565fc -->
<g id="node5" class="node">
<title>dir_3fa9cbe562e25975b065e1d6353565fc</title>
<g id="a_node5"><a xlink:href="dir_3fa9cbe562e25975b065e1d6353565fc.html" target="_top" xlink:title="l4">
<polygon fill="white" stroke="red" points="171,-108 117,-108 117,-72 171,-72 171,-108"/>
<text text-anchor="middle" x="144" y="-87.5" font-family="Helvetica,sans-Serif" font-size="10.00">l4</text>
</a>
</g>
</g>
<!-- dir_1be68f62509728dc1eed2b689efb1ed4&#45;&gt;dir_3fa9cbe562e25975b065e1d6353565fc -->
<g id="edge4" class="edge">
<title>dir_1be68f62509728dc1eed2b689efb1ed4&#45;&gt;dir_3fa9cbe562e25975b065e1d6353565fc</title>
<path fill="none" stroke="black" d="M128.19,-143.7C130.53,-135.9 133.35,-126.51 135.95,-117.83"/>
<polygon fill="black" stroke="black" points="139.35,-118.69 138.87,-108.1 132.64,-116.68 139.35,-118.69"/>
<g id="a_edge4&#45;headlabel"><a xlink:href="dir_000050_000037.html" target="_top" xlink:title="1">
<text text-anchor="middle" x="141.03" y="-120.45" font-family="Helvetica,sans-Serif" font-size="10.00">1</text>
</a>
</g>
</g>
<!-- dir_3fa9cbe562e25975b065e1d6353565fc&#45;&gt;dir_1f581fa1f88782a0973f05f5fe437b46 -->
<g id="edge2" class="edge">
<title>dir_3fa9cbe562e25975b065e1d6353565fc&#45;&gt;dir_1f581fa1f88782a0973f05f5fe437b46</title>
<path fill="none" stroke="black" d="M130.4,-71.7C123.88,-63.39 115.93,-53.28 108.75,-44.14"/>
<polygon fill="black" stroke="black" points="111.37,-41.81 102.44,-36.1 105.87,-46.13 111.37,-41.81"/>
<g id="a_edge2&#45;headlabel"><a xlink:href="dir_000037_000039.html" target="_top" xlink:title="25">
<text text-anchor="middle" x="115.82" y="-40.38" font-family="Helvetica,sans-Serif" font-size="10.00">25</text>
</a>
</g>
</g>
</g>
</svg>
