<?xml version="1.0" encoding="UTF-8" standalone="no"?>
<!DOCTYPE svg PUBLIC "-//W3C//DTD SVG 1.1//EN"
 "http://www.w3.org/Graphics/SVG/1.1/DTD/svg11.dtd">
<!-- Generated by graphviz version 2.43.0 (0)
 -->
<!-- Title: l4/l4re_vfs Pages: 1 -->
<svg width="184pt" height="319pt"
 viewBox="0.00 0.00 184.00 319.00" xmlns="http://www.w3.org/2000/svg" xmlns:xlink="http://www.w3.org/1999/xlink">
<g id="graph0" class="graph" transform="scale(1 1) rotate(0) translate(4 315)">
<title>l4/l4re_vfs</title>
<polygon fill="white" stroke="transparent" points="-4,4 -4,-315 180,-315 180,4 -4,4"/>
<g id="clust1" class="cluster">
<title>clusterdir_1f581fa1f88782a0973f05f5fe437b46</title>
<g id="a_clust1"><a xlink:href="dir_1f581fa1f88782a0973f05f5fe437b46.html" target="_top" xlink:title="l4">
<polygon fill="#ddddee" stroke="black" points="8,-8 8,-303 168,-303 168,-8 8,-8"/>
<text text-anchor="middle" x="88" y="-291" font-family="Helvetica,sans-Serif" font-size="10.00">l4</text>
</a>
</g>
</g>
<g id="clust2" class="cluster">
<title>clusterdir_23b146a426e7ed970afb9c6da946d6da</title>
<g id="a_clust2"><a xlink:href="dir_23b146a426e7ed970afb9c6da946d6da.html" target="_top">
<polygon fill="#eeeeff" stroke="black" points="16,-224 16,-276 160,-276 160,-224 16,-224"/>
</a>
</g>
</g>
<!-- dir_30d77a5207eb89e366a23f343e13fefd -->
<g id="node1" class="node">
<title>dir_30d77a5207eb89e366a23f343e13fefd</title>
<g id="a_node1"><a xlink:href="dir_30d77a5207eb89e366a23f343e13fefd.html" target="_top" xlink:title="re">
<polygon fill="white" stroke="red" points="90,-196 36,-196 36,-160 90,-160 90,-196"/>
<text text-anchor="middle" x="63" y="-175.5" font-family="Helvetica,sans-Serif" font-size="10.00">re</text>
</a>
</g>
</g>
<!-- dir_d458d878e154568f8572c436e514c759 -->
<g id="node2" class="node">
<title>dir_d458d878e154568f8572c436e514c759</title>
<g id="a_node2"><a xlink:href="dir_d458d878e154568f8572c436e514c759.html" target="_top" xlink:title="sys">
<polygon fill="white" stroke="red" points="80,-52 26,-52 26,-16 80,-16 80,-52"/>
<text text-anchor="middle" x="53" y="-31.5" font-family="Helvetica,sans-Serif" font-size="10.00">sys</text>
</a>
</g>
</g>
<!-- dir_30d77a5207eb89e366a23f343e13fefd&#45;&gt;dir_d458d878e154568f8572c436e514c759 -->
<g id="edge1" class="edge">
<title>dir_30d77a5207eb89e366a23f343e13fefd&#45;&gt;dir_d458d878e154568f8572c436e514c759</title>
<path fill="none" stroke="black" d="M61.79,-159.87C60.09,-135.67 56.96,-91.21 54.93,-62.39"/>
<polygon fill="black" stroke="black" points="58.4,-61.92 54.21,-52.19 51.42,-62.41 58.4,-61.92"/>
<g id="a_edge1&#45;headlabel"><a xlink:href="dir_000073_000065.html" target="_top" xlink:title="109">
<text text-anchor="middle" x="61.49" y="-62.8" font-family="Helvetica,sans-Serif" font-size="10.00">109</text>
</a>
</g>
</g>
<!-- dir_dd3580c6b729ef0dd2be01098f8e55ee -->
<g id="node3" class="node">
<title>dir_dd3580c6b729ef0dd2be01098f8e55ee</title>
<g id="a_node3"><a xlink:href="dir_dd3580c6b729ef0dd2be01098f8e55ee.html" target="_top" xlink:title="cxx">
<polygon fill="white" stroke="red" points="126,-124 72,-124 72,-88 126,-88 126,-124"/>
<text text-anchor="middle" x="99" y="-103.5" font-family="Helvetica,sans-Serif" font-size="10.00">cxx</text>
</a>
</g>
</g>
<!-- dir_30d77a5207eb89e366a23f343e13fefd&#45;&gt;dir_dd3580c6b729ef0dd2be01098f8e55ee -->
<g id="edge2" class="edge">
<title>dir_30d77a5207eb89e366a23f343e13fefd&#45;&gt;dir_dd3580c6b729ef0dd2be01098f8e55ee</title>
<path fill="none" stroke="black" d="M71.9,-159.7C76,-151.73 80.95,-142.1 85.49,-133.26"/>
<polygon fill="black" stroke="black" points="88.74,-134.6 90.2,-124.1 82.52,-131.4 88.74,-134.6"/>
<g id="a_edge2&#45;headlabel"><a xlink:href="dir_000073_000062.html" target="_top" xlink:title="4">
<text text-anchor="middle" x="89.62" y="-136.59" font-family="Helvetica,sans-Serif" font-size="10.00">4</text>
</a>
</g>
</g>
<!-- dir_dd3580c6b729ef0dd2be01098f8e55ee&#45;&gt;dir_d458d878e154568f8572c436e514c759 -->
<g id="edge3" class="edge">
<title>dir_dd3580c6b729ef0dd2be01098f8e55ee&#45;&gt;dir_d458d878e154568f8572c436e514c759</title>
<path fill="none" stroke="black" d="M87.63,-87.7C82.28,-79.56 75.8,-69.69 69.89,-60.7"/>
<polygon fill="black" stroke="black" points="72.66,-58.54 64.24,-52.1 66.81,-62.38 72.66,-58.54"/>
<g id="a_edge3&#45;headlabel"><a xlink:href="dir_000062_000065.html" target="_top" xlink:title="16">
<text text-anchor="middle" x="77" y="-57.48" font-family="Helvetica,sans-Serif" font-size="10.00">16</text>
</a>
</g>
</g>
<!-- dir_23b146a426e7ed970afb9c6da946d6da -->
<g id="node4" class="node">
<title>dir_23b146a426e7ed970afb9c6da946d6da</title>
<text text-anchor="middle" x="124" y="-247.5" font-family="Helvetica,sans-Serif" font-size="10.00">l4re_vfs</text>
</g>
<!-- dir_9de6b533186d5fc3929ab9300eb1cb79 -->
<g id="node5" class="node">
<title>dir_9de6b533186d5fc3929ab9300eb1cb79</title>
<g id="a_node5"><a xlink:href="dir_9de6b533186d5fc3929ab9300eb1cb79.html" target="_top" xlink:title="impl">
<polygon fill="white" stroke="black" points="78,-268 24,-268 24,-232 78,-232 78,-268"/>
<text text-anchor="middle" x="51" y="-247.5" font-family="Helvetica,sans-Serif" font-size="10.00">impl</text>
</a>
</g>
</g>
<!-- dir_9de6b533186d5fc3929ab9300eb1cb79&#45;&gt;dir_30d77a5207eb89e366a23f343e13fefd -->
<g id="edge4" class="edge">
<title>dir_9de6b533186d5fc3929ab9300eb1cb79&#45;&gt;dir_30d77a5207eb89e366a23f343e13fefd</title>
<path fill="none" stroke="black" d="M53.97,-231.7C55.29,-223.98 56.88,-214.71 58.35,-206.11"/>
<polygon fill="black" stroke="black" points="61.83,-206.55 60.07,-196.1 54.93,-205.37 61.83,-206.55"/>
<g id="a_edge4&#45;headlabel"><a xlink:href="dir_000067_000073.html" target="_top" xlink:title="10">
<text text-anchor="middle" x="64.02" y="-208.07" font-family="Helvetica,sans-Serif" font-size="10.00">10</text>
</a>
</g>
</g>
<!-- dir_9de6b533186d5fc3929ab9300eb1cb79&#45;&gt;dir_d458d878e154568f8572c436e514c759 -->
<g id="edge5" class="edge">
<title>dir_9de6b533186d5fc3929ab9300eb1cb79&#45;&gt;dir_d458d878e154568f8572c436e514c759</title>
<path fill="none" stroke="black" d="M41.05,-231.98C35.73,-221.89 29.73,-208.64 27,-196 16.87,-149.05 31.58,-93.63 42.66,-61.58"/>
<polygon fill="black" stroke="black" points="46,-62.63 46.09,-52.03 39.42,-60.26 46,-62.63"/>
<g id="a_edge5&#45;headlabel"><a xlink:href="dir_000067_000065.html" target="_top" xlink:title="5">
<text text-anchor="middle" x="47.46" y="-64.47" font-family="Helvetica,sans-Serif" font-size="10.00">5</text>
</a>
</g>
</g>
<!-- dir_9de6b533186d5fc3929ab9300eb1cb79&#45;&gt;dir_dd3580c6b729ef0dd2be01098f8e55ee -->
<g id="edge6" class="edge">
<title>dir_9de6b533186d5fc3929ab9300eb1cb79&#45;&gt;dir_dd3580c6b729ef0dd2be01098f8e55ee</title>
<path fill="none" stroke="black" d="M72.71,-231.79C82.76,-222.41 93.64,-209.9 99,-196 106.62,-176.24 106.08,-152.12 103.93,-133.97"/>
<polygon fill="black" stroke="black" points="107.4,-133.47 102.53,-124.06 100.46,-134.45 107.4,-133.47"/>
<g id="a_edge6&#45;headlabel"><a xlink:href="dir_000067_000062.html" target="_top" xlink:title="1">
<text text-anchor="middle" x="110.71" y="-134.14" font-family="Helvetica,sans-Serif" font-size="10.00">1</text>
</a>
</g>
</g>
</g>
</svg>
