<?xml version="1.0" encoding="UTF-8" standalone="no"?>
<!DOCTYPE svg PUBLIC "-//W3C//DTD SVG 1.1//EN"
 "http://www.w3.org/Graphics/SVG/1.1/DTD/svg11.dtd">
<!-- Generated by graphviz version 2.43.0 (0)
 -->
<!-- Title: l4/re/util Pages: 1 -->
<svg width="236pt" height="231pt"
 viewBox="0.00 0.00 236.00 231.00" xmlns="http://www.w3.org/2000/svg" xmlns:xlink="http://www.w3.org/1999/xlink">
<g id="graph0" class="graph" transform="scale(1 1) rotate(0) translate(4 227)">
<title>l4/re/util</title>
<polygon fill="white" stroke="transparent" points="-4,4 -4,-227 232,-227 232,4 -4,4"/>
<g id="clust1" class="cluster">
<title>clusterdir_30d77a5207eb89e366a23f343e13fefd</title>
<g id="a_clust1"><a xlink:href="dir_30d77a5207eb89e366a23f343e13fefd.html" target="_top" xlink:title="re">
<polygon fill="#ddddee" stroke="black" points="8,-64 8,-215 166,-215 166,-64 8,-64"/>
<text text-anchor="middle" x="87" y="-203" font-family="Helvetica,sans-Serif" font-size="10.00">re</text>
</a>
</g>
</g>
<g id="clust2" class="cluster">
<title>clusterdir_57b23affb30111293db30b1adc1928ce</title>
<g id="a_clust2"><a xlink:href="dir_57b23affb30111293db30b1adc1928ce.html" target="_top">
<polygon fill="#eeeeff" stroke="black" points="16,-136 16,-188 158,-188 158,-136 16,-136"/>
</a>
</g>
</g>
<!-- dir_64a0a8d27b6a136ec43eee79cca0e5fc -->
<g id="node1" class="node">
<title>dir_64a0a8d27b6a136ec43eee79cca0e5fc</title>
<g id="a_node1"><a xlink:href="dir_64a0a8d27b6a136ec43eee79cca0e5fc.html" target="_top" xlink:title="video">
<polygon fill="none" stroke="black" points="74,-108 20,-108 20,-72 74,-72 74,-108"/>
<text text-anchor="middle" x="47" y="-87.5" font-family="Helvetica,sans-Serif" font-size="10.00">video</text>
</a>
</g>
</g>
<!-- dir_d458d878e154568f8572c436e514c759 -->
<g id="node4" class="node">
<title>dir_d458d878e154568f8572c436e514c759</title>
<g id="a_node4"><a xlink:href="dir_d458d878e154568f8572c436e514c759.html" target="_top" xlink:title="sys">
<polygon fill="white" stroke="red" points="148,-36 94,-36 94,0 148,0 148,-36"/>
<text text-anchor="middle" x="121" y="-15.5" font-family="Helvetica,sans-Serif" font-size="10.00">sys</text>
</a>
</g>
</g>
<!-- dir_64a0a8d27b6a136ec43eee79cca0e5fc&#45;&gt;dir_d458d878e154568f8572c436e514c759 -->
<g id="edge1" class="edge">
<title>dir_64a0a8d27b6a136ec43eee79cca0e5fc&#45;&gt;dir_d458d878e154568f8572c436e514c759</title>
<path fill="none" stroke="black" d="M65.29,-71.7C74.43,-63.05 85.64,-52.45 95.6,-43.03"/>
<polygon fill="black" stroke="black" points="98.06,-45.52 102.92,-36.1 93.25,-40.43 98.06,-45.52"/>
<g id="a_edge1&#45;headlabel"><a xlink:href="dir_000081_000065.html" target="_top" xlink:title="3">
<text text-anchor="middle" x="97.4" y="-47.55" font-family="Helvetica,sans-Serif" font-size="10.00">3</text>
</a>
</g>
</g>
<!-- dir_57b23affb30111293db30b1adc1928ce -->
<g id="node2" class="node">
<title>dir_57b23affb30111293db30b1adc1928ce</title>
<text text-anchor="middle" x="123" y="-159.5" font-family="Helvetica,sans-Serif" font-size="10.00">util</text>
</g>
<!-- dir_57b23affb30111293db30b1adc1928ce&#45;&gt;dir_d458d878e154568f8572c436e514c759 -->
<g id="edge3" class="edge">
<title>dir_57b23affb30111293db30b1adc1928ce&#45;&gt;dir_d458d878e154568f8572c436e514c759</title>
<path fill="none" stroke="black" d="M122.76,-143.87C122.42,-119.67 121.79,-75.21 121.39,-46.39"/>
<polygon fill="black" stroke="black" points="124.88,-46.14 121.24,-36.19 117.88,-46.24 124.88,-46.14"/>
<g id="a_edge3&#45;headlabel"><a xlink:href="dir_000078_000065.html" target="_top" xlink:title="29">
<text text-anchor="middle" x="127.77" y="-47.19" font-family="Helvetica,sans-Serif" font-size="10.00">29</text>
</a>
</g>
</g>
<!-- dir_dd3580c6b729ef0dd2be01098f8e55ee -->
<g id="node5" class="node">
<title>dir_dd3580c6b729ef0dd2be01098f8e55ee</title>
<g id="a_node5"><a xlink:href="dir_dd3580c6b729ef0dd2be01098f8e55ee.html" target="_top" xlink:title="cxx">
<polygon fill="white" stroke="red" points="228,-108 174,-108 174,-72 228,-72 228,-108"/>
<text text-anchor="middle" x="201" y="-87.5" font-family="Helvetica,sans-Serif" font-size="10.00">cxx</text>
</a>
</g>
</g>
<!-- dir_57b23affb30111293db30b1adc1928ce&#45;&gt;dir_dd3580c6b729ef0dd2be01098f8e55ee -->
<g id="edge4" class="edge">
<title>dir_57b23affb30111293db30b1adc1928ce&#45;&gt;dir_dd3580c6b729ef0dd2be01098f8e55ee</title>
<path fill="none" stroke="black" d="M142.28,-143.7C151.92,-135.05 163.73,-124.45 174.23,-115.03"/>
<polygon fill="black" stroke="black" points="176.84,-117.39 181.94,-108.1 172.16,-112.18 176.84,-117.39"/>
<g id="a_edge4&#45;headlabel"><a xlink:href="dir_000078_000062.html" target="_top" xlink:title="3">
<text text-anchor="middle" x="176.06" y="-119.4" font-family="Helvetica,sans-Serif" font-size="10.00">3</text>
</a>
</g>
</g>
<!-- dir_0dfae912e25851fbe3b3a693de7dc524 -->
<g id="node3" class="node">
<title>dir_0dfae912e25851fbe3b3a693de7dc524</title>
<g id="a_node3"><a xlink:href="dir_0dfae912e25851fbe3b3a693de7dc524.html" target="_top" xlink:title="video">
<polygon fill="white" stroke="black" points="78,-180 24,-180 24,-144 78,-144 78,-180"/>
<text text-anchor="middle" x="51" y="-159.5" font-family="Helvetica,sans-Serif" font-size="10.00">video</text>
</a>
</g>
</g>
<!-- dir_0dfae912e25851fbe3b3a693de7dc524&#45;&gt;dir_64a0a8d27b6a136ec43eee79cca0e5fc -->
<g id="edge5" class="edge">
<title>dir_0dfae912e25851fbe3b3a693de7dc524&#45;&gt;dir_64a0a8d27b6a136ec43eee79cca0e5fc</title>
<path fill="none" stroke="black" d="M50.01,-143.7C49.57,-135.98 49.04,-126.71 48.55,-118.11"/>
<polygon fill="black" stroke="black" points="52.04,-117.89 47.98,-108.1 45.05,-118.29 52.04,-117.89"/>
<g id="a_edge5&#45;headlabel"><a xlink:href="dir_000080_000081.html" target="_top" xlink:title="1">
<text text-anchor="middle" x="55.08" y="-118.82" font-family="Helvetica,sans-Serif" font-size="10.00">1</text>
</a>
</g>
</g>
<!-- dir_0dfae912e25851fbe3b3a693de7dc524&#45;&gt;dir_d458d878e154568f8572c436e514c759 -->
<g id="edge6" class="edge">
<title>dir_0dfae912e25851fbe3b3a693de7dc524&#45;&gt;dir_d458d878e154568f8572c436e514c759</title>
<path fill="none" stroke="black" d="M64.86,-143.57C72.38,-133.56 81.44,-120.53 88,-108 98.46,-88.01 107.17,-63.95 113.01,-45.89"/>
<polygon fill="black" stroke="black" points="116.37,-46.87 116.03,-36.28 109.69,-44.77 116.37,-46.87"/>
<g id="a_edge6&#45;headlabel"><a xlink:href="dir_000080_000065.html" target="_top" xlink:title="1">
<text text-anchor="middle" x="118" y="-48.65" font-family="Helvetica,sans-Serif" font-size="10.00">1</text>
</a>
</g>
</g>
<!-- dir_dd3580c6b729ef0dd2be01098f8e55ee&#45;&gt;dir_d458d878e154568f8572c436e514c759 -->
<g id="edge2" class="edge">
<title>dir_dd3580c6b729ef0dd2be01098f8e55ee&#45;&gt;dir_d458d878e154568f8572c436e514c759</title>
<path fill="none" stroke="black" d="M181.22,-71.7C171.25,-62.97 158.99,-52.24 148.14,-42.75"/>
<polygon fill="black" stroke="black" points="150.38,-40.06 140.55,-36.1 145.77,-45.32 150.38,-40.06"/>
<g id="a_edge2&#45;headlabel"><a xlink:href="dir_000062_000065.html" target="_top" xlink:title="16">
<text text-anchor="middle" x="154.95" y="-37.79" font-family="Helvetica,sans-Serif" font-size="10.00">16</text>
</a>
</g>
</g>
</g>
</svg>
