<?xml version="1.0" encoding="UTF-8" standalone="no"?>
<!DOCTYPE svg PUBLIC "-//W3C//DTD SVG 1.1//EN"
 "http://www.w3.org/Graphics/SVG/1.1/DTD/svg11.dtd">
<!-- Generated by graphviz version 2.43.0 (0)
 -->
<!-- Title: l4/re/c Pages: 1 -->
<svg width="182pt" height="231pt"
 viewBox="0.00 0.00 182.00 231.00" xmlns="http://www.w3.org/2000/svg" xmlns:xlink="http://www.w3.org/1999/xlink">
<g id="graph0" class="graph" transform="scale(1 1) rotate(0) translate(4 227)">
<title>l4/re/c</title>
<polygon fill="white" stroke="transparent" points="-4,4 -4,-227 178,-227 178,4 -4,4"/>
<g id="clust1" class="cluster">
<title>clusterdir_30d77a5207eb89e366a23f343e13fefd</title>
<g id="a_clust1"><a xlink:href="dir_30d77a5207eb89e366a23f343e13fefd.html" target="_top" xlink:title="re">
<polygon fill="#ddddee" stroke="black" points="8,-56 8,-215 166,-215 166,-56 8,-56"/>
<text text-anchor="middle" x="87" y="-203" font-family="Helvetica,sans-Serif" font-size="10.00">re</text>
</a>
</g>
</g>
<g id="clust2" class="cluster">
<title>clusterdir_9cacc43b47fb52c27eca04eb55cc6fe9</title>
<g id="a_clust2"><a xlink:href="dir_9cacc43b47fb52c27eca04eb55cc6fe9.html" target="_top">
<polygon fill="#eeeeff" stroke="black" points="16,-64 16,-188 158,-188 158,-64 16,-64"/>
</a>
</g>
</g>
<!-- dir_9cacc43b47fb52c27eca04eb55cc6fe9 -->
<g id="node1" class="node">
<title>dir_9cacc43b47fb52c27eca04eb55cc6fe9</title>
<text text-anchor="middle" x="123" y="-159.5" font-family="Helvetica,sans-Serif" font-size="10.00">c</text>
</g>
<!-- dir_d458d878e154568f8572c436e514c759 -->
<g id="node4" class="node">
<title>dir_d458d878e154568f8572c436e514c759</title>
<g id="a_node4"><a xlink:href="dir_d458d878e154568f8572c436e514c759.html" target="_top" xlink:title="sys">
<polygon fill="white" stroke="red" points="133,-36 79,-36 79,0 133,0 133,-36"/>
<text text-anchor="middle" x="106" y="-15.5" font-family="Helvetica,sans-Serif" font-size="10.00">sys</text>
</a>
</g>
</g>
<!-- dir_9cacc43b47fb52c27eca04eb55cc6fe9&#45;&gt;dir_d458d878e154568f8572c436e514c759 -->
<g id="edge2" class="edge">
<title>dir_9cacc43b47fb52c27eca04eb55cc6fe9&#45;&gt;dir_d458d878e154568f8572c436e514c759</title>
<path fill="none" stroke="black" d="M124.25,-143.71C125.36,-122.74 126.01,-86.41 120,-56 119.35,-52.7 118.43,-49.31 117.38,-45.98"/>
<polygon fill="black" stroke="black" points="120.59,-44.57 113.92,-36.34 114,-46.93 120.59,-44.57"/>
<g id="a_edge2&#45;headlabel"><a xlink:href="dir_000074_000065.html" target="_top" xlink:title="13">
<text text-anchor="middle" x="124.48" y="-44.5" font-family="Helvetica,sans-Serif" font-size="10.00">13</text>
</a>
</g>
</g>
<!-- dir_62d0de061f5b15d9ae7ef168087326fc -->
<g id="node2" class="node">
<title>dir_62d0de061f5b15d9ae7ef168087326fc</title>
<g id="a_node2"><a xlink:href="dir_62d0de061f5b15d9ae7ef168087326fc.html" target="_top" xlink:title="util">
<polygon fill="white" stroke="red" points="78,-180 24,-180 24,-144 78,-144 78,-180"/>
<text text-anchor="middle" x="51" y="-159.5" font-family="Helvetica,sans-Serif" font-size="10.00">util</text>
</a>
</g>
</g>
<!-- dir_5b2b4e7eaf016c405ff23a7e80f5d639 -->
<g id="node3" class="node">
<title>dir_5b2b4e7eaf016c405ff23a7e80f5d639</title>
<g id="a_node3"><a xlink:href="dir_5b2b4e7eaf016c405ff23a7e80f5d639.html" target="_top" xlink:title="video">
<polygon fill="white" stroke="black" points="78,-108 24,-108 24,-72 78,-72 78,-108"/>
<text text-anchor="middle" x="51" y="-87.5" font-family="Helvetica,sans-Serif" font-size="10.00">video</text>
</a>
</g>
</g>
<!-- dir_62d0de061f5b15d9ae7ef168087326fc&#45;&gt;dir_5b2b4e7eaf016c405ff23a7e80f5d639 -->
<g id="edge4" class="edge">
<title>dir_62d0de061f5b15d9ae7ef168087326fc&#45;&gt;dir_5b2b4e7eaf016c405ff23a7e80f5d639</title>
<path fill="none" stroke="black" d="M51,-143.7C51,-135.98 51,-126.71 51,-118.11"/>
<polygon fill="black" stroke="black" points="54.5,-118.1 51,-108.1 47.5,-118.1 54.5,-118.1"/>
<g id="a_edge4&#45;headlabel"><a xlink:href="dir_000075_000077.html" target="_top" xlink:title="1">
<text text-anchor="middle" x="57.34" y="-119.2" font-family="Helvetica,sans-Serif" font-size="10.00">1</text>
</a>
</g>
</g>
<!-- dir_62d0de061f5b15d9ae7ef168087326fc&#45;&gt;dir_d458d878e154568f8572c436e514c759 -->
<g id="edge3" class="edge">
<title>dir_62d0de061f5b15d9ae7ef168087326fc&#45;&gt;dir_d458d878e154568f8572c436e514c759</title>
<path fill="none" stroke="black" d="M65.16,-143.85C72.69,-133.93 81.5,-120.89 87,-108 95.41,-88.29 100.24,-64.49 102.93,-46.46"/>
<polygon fill="black" stroke="black" points="106.43,-46.71 104.3,-36.33 99.49,-45.76 106.43,-46.71"/>
<g id="a_edge3&#45;headlabel"><a xlink:href="dir_000075_000065.html" target="_top" xlink:title="4">
<text text-anchor="middle" x="108.76" y="-48.15" font-family="Helvetica,sans-Serif" font-size="10.00">4</text>
</a>
</g>
</g>
<!-- dir_5b2b4e7eaf016c405ff23a7e80f5d639&#45;&gt;dir_d458d878e154568f8572c436e514c759 -->
<g id="edge1" class="edge">
<title>dir_5b2b4e7eaf016c405ff23a7e80f5d639&#45;&gt;dir_d458d878e154568f8572c436e514c759</title>
<path fill="none" stroke="black" d="M64.6,-71.7C71.12,-63.39 79.07,-53.28 86.25,-44.14"/>
<polygon fill="black" stroke="black" points="89.13,-46.13 92.56,-36.1 83.63,-41.81 89.13,-46.13"/>
<g id="a_edge1&#45;headlabel"><a xlink:href="dir_000077_000065.html" target="_top" xlink:title="3">
<text text-anchor="middle" x="89.15" y="-48.21" font-family="Helvetica,sans-Serif" font-size="10.00">3</text>
</a>
</g>
</g>
</g>
</svg>
