<?xml version="1.0" encoding="UTF-8" standalone="no"?>
<!DOCTYPE svg PUBLIC "-//W3C//DTD SVG 1.1//EN"
 "http://www.w3.org/Graphics/SVG/1.1/DTD/svg11.dtd">
<!-- Generated by graphviz version 2.43.0 (0)
 -->
<!-- Title: l4/libgfxbitmap Pages: 1 -->
<svg width="118pt" height="239pt"
 viewBox="0.00 0.00 118.00 239.00" xmlns="http://www.w3.org/2000/svg" xmlns:xlink="http://www.w3.org/1999/xlink">
<g id="graph0" class="graph" transform="scale(1 1) rotate(0) translate(4 235)">
<title>l4/libgfxbitmap</title>
<polygon fill="white" stroke="transparent" points="-4,4 -4,-235 114,-235 114,4 -4,4"/>
<g id="clust1" class="cluster">
<title>clusterdir_1f581fa1f88782a0973f05f5fe437b46</title>
<g id="a_clust1"><a xlink:href="dir_1f581fa1f88782a0973f05f5fe437b46.html" target="_top" xlink:title="l4">
<polygon fill="#ddddee" stroke="black" points="8,-8 8,-223 102,-223 102,-8 8,-8"/>
<text text-anchor="middle" x="55" y="-211" font-family="Helvetica,sans-Serif" font-size="10.00">l4</text>
</a>
</g>
</g>
<!-- dir_30d77a5207eb89e366a23f343e13fefd -->
<g id="node1" class="node">
<title>dir_30d77a5207eb89e366a23f343e13fefd</title>
<g id="a_node1"><a xlink:href="dir_30d77a5207eb89e366a23f343e13fefd.html" target="_top" xlink:title="re">
<polygon fill="white" stroke="red" points="70,-124 16,-124 16,-88 70,-88 70,-124"/>
<text text-anchor="middle" x="43" y="-103.5" font-family="Helvetica,sans-Serif" font-size="10.00">re</text>
</a>
</g>
</g>
<!-- dir_d458d878e154568f8572c436e514c759 -->
<g id="node2" class="node">
<title>dir_d458d878e154568f8572c436e514c759</title>
<g id="a_node2"><a xlink:href="dir_d458d878e154568f8572c436e514c759.html" target="_top" xlink:title="sys">
<polygon fill="white" stroke="red" points="82,-52 28,-52 28,-16 82,-16 82,-52"/>
<text text-anchor="middle" x="55" y="-31.5" font-family="Helvetica,sans-Serif" font-size="10.00">sys</text>
</a>
</g>
</g>
<!-- dir_30d77a5207eb89e366a23f343e13fefd&#45;&gt;dir_d458d878e154568f8572c436e514c759 -->
<g id="edge1" class="edge">
<title>dir_30d77a5207eb89e366a23f343e13fefd&#45;&gt;dir_d458d878e154568f8572c436e514c759</title>
<path fill="none" stroke="black" d="M45.97,-87.7C47.29,-79.98 48.88,-70.71 50.35,-62.11"/>
<polygon fill="black" stroke="black" points="53.83,-62.55 52.07,-52.1 46.93,-61.37 53.83,-62.55"/>
<g id="a_edge1&#45;headlabel"><a xlink:href="dir_000073_000065.html" target="_top" xlink:title="109">
<text text-anchor="middle" x="56.02" y="-64.07" font-family="Helvetica,sans-Serif" font-size="10.00">109</text>
</a>
</g>
</g>
<!-- dir_5b9eef2fe4d1c957141337621eddea61 -->
<g id="node3" class="node">
<title>dir_5b9eef2fe4d1c957141337621eddea61</title>
<g id="a_node3"><a xlink:href="dir_5b9eef2fe4d1c957141337621eddea61.html" target="_top" xlink:title="libgfxbitmap">
<polygon fill="#eeeeff" stroke="black" points="94.5,-196 15.5,-196 15.5,-160 94.5,-160 94.5,-196"/>
<text text-anchor="middle" x="55" y="-175.5" font-family="Helvetica,sans-Serif" font-size="10.00">libgfxbitmap</text>
</a>
</g>
</g>
<!-- dir_5b9eef2fe4d1c957141337621eddea61&#45;&gt;dir_30d77a5207eb89e366a23f343e13fefd -->
<g id="edge2" class="edge">
<title>dir_5b9eef2fe4d1c957141337621eddea61&#45;&gt;dir_30d77a5207eb89e366a23f343e13fefd</title>
<path fill="none" stroke="black" d="M52.03,-159.7C50.71,-151.98 49.12,-142.71 47.65,-134.11"/>
<polygon fill="black" stroke="black" points="51.07,-133.37 45.93,-124.1 44.17,-134.55 51.07,-133.37"/>
<g id="a_edge2&#45;headlabel"><a xlink:href="dir_000072_000073.html" target="_top" xlink:title="2">
<text text-anchor="middle" x="54.48" y="-133.93" font-family="Helvetica,sans-Serif" font-size="10.00">2</text>
</a>
</g>
</g>
<!-- dir_5b9eef2fe4d1c957141337621eddea61&#45;&gt;dir_d458d878e154568f8572c436e514c759 -->
<g id="edge3" class="edge">
<title>dir_5b9eef2fe4d1c957141337621eddea61&#45;&gt;dir_d458d878e154568f8572c436e514c759</title>
<path fill="none" stroke="black" d="M64.95,-159.98C70.27,-149.89 76.27,-136.64 79,-124 82.38,-108.36 82.38,-103.64 79,-88 77.04,-78.92 73.39,-69.52 69.51,-61.2"/>
<polygon fill="black" stroke="black" points="72.54,-59.42 64.95,-52.02 66.27,-62.53 72.54,-59.42"/>
<g id="a_edge3&#45;headlabel"><a xlink:href="dir_000072_000065.html" target="_top" xlink:title="2">
<text text-anchor="middle" x="76.68" y="-58.88" font-family="Helvetica,sans-Serif" font-size="10.00">2</text>
</a>
</g>
</g>
</g>
</svg>
