<?xml version="1.0" encoding="UTF-8" standalone="no"?>
<!DOCTYPE svg PUBLIC "-//W3C//DTD SVG 1.1//EN"
 "http://www.w3.org/Graphics/SVG/1.1/DTD/svg11.dtd">
<!-- Generated by graphviz version 2.43.0 (0)
 -->
<!-- Title: amd64/l4f/l4 Pages: 1 -->
<svg width="254pt" height="231pt"
 viewBox="0.00 0.00 254.00 231.00" xmlns="http://www.w3.org/2000/svg" xmlns:xlink="http://www.w3.org/1999/xlink">
<g id="graph0" class="graph" transform="scale(1 1) rotate(0) translate(4 227)">
<title>amd64/l4f/l4</title>
<polygon fill="white" stroke="transparent" points="-4,4 -4,-227 250,-227 250,4 -4,4"/>
<g id="clust1" class="cluster">
<title>clusterdir_e6be2e03ac70b36b170aaf8da4ea97b0</title>
<g id="a_clust1"><a xlink:href="dir_e6be2e03ac70b36b170aaf8da4ea97b0.html" target="_top" xlink:title="l4f">
<polygon fill="#ddddee" stroke="black" points="8,-128 8,-215 238,-215 238,-128 8,-128"/>
<text text-anchor="middle" x="123" y="-203" font-family="Helvetica,sans-Serif" font-size="10.00">l4f</text>
</a>
</g>
</g>
<g id="clust2" class="cluster">
<title>clusterdir_e2d272e039388fbee58103c579c4291d</title>
<g id="a_clust2"><a xlink:href="dir_e2d272e039388fbee58103c579c4291d.html" target="_top">
<polygon fill="#eeeeff" stroke="black" points="16,-136 16,-188 230,-188 230,-136 16,-136"/>
</a>
</g>
</g>
<!-- dir_e2d272e039388fbee58103c579c4291d -->
<g id="node1" class="node">
<title>dir_e2d272e039388fbee58103c579c4291d</title>
<text text-anchor="middle" x="195" y="-159.5" font-family="Helvetica,sans-Serif" font-size="10.00">l4</text>
</g>
<!-- dir_60e808c1f9c91eeeb28ca552e19f3d64 -->
<g id="node2" class="node">
<title>dir_60e808c1f9c91eeeb28ca552e19f3d64</title>
<g id="a_node2"><a xlink:href="dir_60e808c1f9c91eeeb28ca552e19f3d64.html" target="_top" xlink:title="sys">
<polygon fill="white" stroke="black" points="78,-180 24,-180 24,-144 78,-144 78,-180"/>
<text text-anchor="middle" x="51" y="-159.5" font-family="Helvetica,sans-Serif" font-size="10.00">sys</text>
</a>
</g>
</g>
<!-- dir_1f581fa1f88782a0973f05f5fe437b46 -->
<g id="node4" class="node">
<title>dir_1f581fa1f88782a0973f05f5fe437b46</title>
<g id="a_node4"><a xlink:href="dir_1f581fa1f88782a0973f05f5fe437b46.html" target="_top" xlink:title="l4">
<polygon fill="white" stroke="red" points="113,-36 59,-36 59,0 113,0 113,-36"/>
<text text-anchor="middle" x="86" y="-15.5" font-family="Helvetica,sans-Serif" font-size="10.00">l4</text>
</a>
</g>
</g>
<!-- dir_60e808c1f9c91eeeb28ca552e19f3d64&#45;&gt;dir_1f581fa1f88782a0973f05f5fe437b46 -->
<g id="edge2" class="edge">
<title>dir_60e808c1f9c91eeeb28ca552e19f3d64&#45;&gt;dir_1f581fa1f88782a0973f05f5fe437b46</title>
<path fill="none" stroke="black" d="M55.22,-143.87C61.21,-119.56 72.24,-74.82 79.34,-46.01"/>
<polygon fill="black" stroke="black" points="82.77,-46.74 81.76,-36.19 75.97,-45.06 82.77,-46.74"/>
<g id="a_edge2&#45;headlabel"><a xlink:href="dir_000043_000039.html" target="_top" xlink:title="1">
<text text-anchor="middle" x="84.66" y="-48.41" font-family="Helvetica,sans-Serif" font-size="10.00">1</text>
</a>
</g>
</g>
<!-- dir_7060edddde9e6bee0ac26ad5048a9d58 -->
<g id="node3" class="node">
<title>dir_7060edddde9e6bee0ac26ad5048a9d58</title>
<g id="a_node3"><a xlink:href="dir_7060edddde9e6bee0ac26ad5048a9d58.html" target="_top" xlink:title="util">
<polygon fill="white" stroke="black" points="150,-180 96,-180 96,-144 150,-144 150,-180"/>
<text text-anchor="middle" x="123" y="-159.5" font-family="Helvetica,sans-Serif" font-size="10.00">util</text>
</a>
</g>
</g>
<!-- dir_d979004d17f5223e5cbcd0eb3b9cd5ac -->
<g id="node5" class="node">
<title>dir_d979004d17f5223e5cbcd0eb3b9cd5ac</title>
<g id="a_node5"><a xlink:href="dir_d979004d17f5223e5cbcd0eb3b9cd5ac.html" target="_top" xlink:title="x86">
<polygon fill="white" stroke="red" points="145,-108 91,-108 91,-72 145,-72 145,-108"/>
<text text-anchor="middle" x="118" y="-87.5" font-family="Helvetica,sans-Serif" font-size="10.00">x86</text>
</a>
</g>
</g>
<!-- dir_7060edddde9e6bee0ac26ad5048a9d58&#45;&gt;dir_d979004d17f5223e5cbcd0eb3b9cd5ac -->
<g id="edge1" class="edge">
<title>dir_7060edddde9e6bee0ac26ad5048a9d58&#45;&gt;dir_d979004d17f5223e5cbcd0eb3b9cd5ac</title>
<path fill="none" stroke="black" d="M121.76,-143.7C121.21,-135.98 120.55,-126.71 119.94,-118.11"/>
<polygon fill="black" stroke="black" points="123.43,-117.83 119.22,-108.1 116.44,-118.33 123.43,-117.83"/>
<g id="a_edge1&#45;headlabel"><a xlink:href="dir_000049_000036.html" target="_top" xlink:title="1">
<text text-anchor="middle" x="126.51" y="-118.71" font-family="Helvetica,sans-Serif" font-size="10.00">1</text>
</a>
</g>
</g>
<!-- dir_d979004d17f5223e5cbcd0eb3b9cd5ac&#45;&gt;dir_1f581fa1f88782a0973f05f5fe437b46 -->
<g id="edge3" class="edge">
<title>dir_d979004d17f5223e5cbcd0eb3b9cd5ac&#45;&gt;dir_1f581fa1f88782a0973f05f5fe437b46</title>
<path fill="none" stroke="black" d="M110.09,-71.7C106.45,-63.73 102.05,-54.1 98.01,-45.26"/>
<polygon fill="black" stroke="black" points="101.16,-43.74 93.82,-36.1 94.79,-46.65 101.16,-43.74"/>
<g id="a_edge3&#45;headlabel"><a xlink:href="dir_000036_000039.html" target="_top" xlink:title="32">
<text text-anchor="middle" x="105.24" y="-43.33" font-family="Helvetica,sans-Serif" font-size="10.00">32</text>
</a>
</g>
</g>
</g>
</svg>
