<?xml version="1.0" encoding="UTF-8" standalone="no"?>
<!DOCTYPE svg PUBLIC "-//W3C//DTD SVG 1.1//EN"
 "http://www.w3.org/Graphics/SVG/1.1/DTD/svg11.dtd">
<!-- Generated by graphviz version 2.43.0 (0)
 -->
<!-- Title: contrib Pages: 1 -->
<svg width="166pt" height="132pt"
 viewBox="0.00 0.00 166.00 132.00" xmlns="http://www.w3.org/2000/svg" xmlns:xlink="http://www.w3.org/1999/xlink">
<g id="graph0" class="graph" transform="scale(1 1) rotate(0) translate(4 128)">
<title>contrib</title>
<polygon fill="white" stroke="transparent" points="-4,4 -4,-128 162,-128 162,4 -4,4"/>
<g id="clust1" class="cluster">
<title>clusterdir_1bb4dd1fc832d7e87e413ca7fd330da9</title>
<g id="a_clust1"><a xlink:href="dir_1bb4dd1fc832d7e87e413ca7fd330da9.html" target="_top">
<polygon fill="#eeeeff" stroke="black" points="8,-64 8,-116 150,-116 150,-64 8,-64"/>
</a>
</g>
</g>
<!-- dir_1bb4dd1fc832d7e87e413ca7fd330da9 -->
<g id="node1" class="node">
<title>dir_1bb4dd1fc832d7e87e413ca7fd330da9</title>
<text text-anchor="middle" x="115" y="-87.5" font-family="Helvetica,sans-Serif" font-size="10.00">contrib</text>
</g>
<!-- dir_ebc3f49c0ac4c140d078610147cb9ffe -->
<g id="node2" class="node">
<title>dir_ebc3f49c0ac4c140d078610147cb9ffe</title>
<g id="a_node2"><a xlink:href="dir_ebc3f49c0ac4c140d078610147cb9ffe.html" target="_top" xlink:title="libio&#45;io">
<polygon fill="white" stroke="red" points="70,-108 16,-108 16,-72 70,-72 70,-108"/>
<text text-anchor="middle" x="43" y="-87.5" font-family="Helvetica,sans-Serif" font-size="10.00">libio&#45;io</text>
</a>
</g>
</g>
<!-- dir_1f581fa1f88782a0973f05f5fe437b46 -->
<g id="node3" class="node">
<title>dir_1f581fa1f88782a0973f05f5fe437b46</title>
<g id="a_node3"><a xlink:href="dir_1f581fa1f88782a0973f05f5fe437b46.html" target="_top" xlink:title="l4">
<polygon fill="white" stroke="red" points="70,-36 16,-36 16,0 70,0 70,-36"/>
<text text-anchor="middle" x="43" y="-15.5" font-family="Helvetica,sans-Serif" font-size="10.00">l4</text>
</a>
</g>
</g>
<!-- dir_ebc3f49c0ac4c140d078610147cb9ffe&#45;&gt;dir_1f581fa1f88782a0973f05f5fe437b46 -->
<g id="edge1" class="edge">
<title>dir_ebc3f49c0ac4c140d078610147cb9ffe&#45;&gt;dir_1f581fa1f88782a0973f05f5fe437b46</title>
<path fill="none" stroke="black" d="M43,-71.7C43,-63.98 43,-54.71 43,-46.11"/>
<polygon fill="black" stroke="black" points="46.5,-46.1 43,-36.1 39.5,-46.1 46.5,-46.1"/>
<g id="a_edge1&#45;headlabel"><a xlink:href="dir_000059_000039.html" target="_top" xlink:title="2">
<text text-anchor="middle" x="49.34" y="-47.2" font-family="Helvetica,sans-Serif" font-size="10.00">2</text>
</a>
</g>
</g>
</g>
</svg>
