<?xml version="1.0" encoding="UTF-8" standalone="no"?>
<!DOCTYPE svg PUBLIC "-//W3C//DTD SVG 1.1//EN"
 "http://www.w3.org/Graphics/SVG/1.1/DTD/svg11.dtd">
<!-- Generated by graphviz version 2.43.0 (0)
 -->
<!-- Title: l4/re/dma_space Pages: 1 -->
<svg width="1054pt" height="823pt"
 viewBox="0.00 0.00 1054.00 823.00" xmlns="http://www.w3.org/2000/svg" xmlns:xlink="http://www.w3.org/1999/xlink">
<g id="graph0" class="graph" transform="scale(1 1) rotate(0) translate(4 819)">
<title>l4/re/dma_space</title>
<polygon fill="white" stroke="transparent" points="-4,4 -4,-819 1050,-819 1050,4 -4,4"/>
<!-- Node1 -->
<g id="node1" class="node">
<title>Node1</title>
<g id="a_node1"><a xlink:title=" ">
<polygon fill="#bfbfbf" stroke="black" points="141.5,-795.5 141.5,-814.5 238.5,-814.5 238.5,-795.5 141.5,-795.5"/>
<text text-anchor="middle" x="190" y="-802.5" font-family="Helvetica,sans-Serif" font-size="10.00">l4/re/dma_space</text>
</a>
</g>
</g>
<!-- Node2 -->
<g id="node2" class="node">
<title>Node2</title>
<g id="a_node2"><a xlink:href="l4_2sys_2types_8h.html" target="_top" xlink:title="Common L4 ABI Data Types.">
<polygon fill="white" stroke="black" points="515,-168.5 515,-187.5 599,-187.5 599,-168.5 515,-168.5"/>
<text text-anchor="middle" x="557" y="-175.5" font-family="Helvetica,sans-Serif" font-size="10.00">l4/sys/types.h</text>
</a>
</g>
</g>
<!-- Node1&#45;&gt;Node2 -->
<g id="edge1" class="edge">
<title>Node1&#45;&gt;Node2</title>
<path fill="none" stroke="midnightblue" d="M155.13,-795.4C110.25,-782 38,-751.49 38,-694 38,-694 38,-694 38,-524 38,-445.93 76,-430.57 76,-352.5 76,-352.5 76,-352.5 76,-289 76,-248.77 102.85,-241.65 139,-224 202.21,-193.15 407.15,-183.24 504.6,-180.23"/>
<polygon fill="midnightblue" stroke="midnightblue" points="504.92,-183.73 514.81,-179.93 504.71,-176.73 504.92,-183.73"/>
</g>
<!-- Node3 -->
<g id="node3" class="node">
<title>Node3</title>
<g id="a_node3"><a xlink:href="l4_2sys_2l4int_8h.html" target="_top" xlink:title="Fixed sized integer types, generic version.">
<polygon fill="white" stroke="black" points="411.5,-56.5 411.5,-75.5 490.5,-75.5 490.5,-56.5 411.5,-56.5"/>
<text text-anchor="middle" x="451" y="-63.5" font-family="Helvetica,sans-Serif" font-size="10.00">l4/sys/l4int.h</text>
</a>
</g>
</g>
<!-- Node1&#45;&gt;Node3 -->
<g id="edge12" class="edge">
<title>Node1&#45;&gt;Node3</title>
<path fill="none" stroke="midnightblue" d="M141.07,-797.23C84.77,-786.36 0,-759.18 0,-694 0,-694 0,-694 0,-177 0,-132.21 35.93,-129.87 77,-112 134.11,-87.15 313.25,-74.37 401.24,-69.45"/>
<polygon fill="midnightblue" stroke="midnightblue" points="401.45,-72.95 411.25,-68.9 401.07,-65.96 401.45,-72.95"/>
</g>
<!-- Node9 -->
<g id="node9" class="node">
<title>Node9</title>
<g id="a_node9"><a xlink:href="capability.html" target="_top" xlink:title="L4::Cap related definitions.">
<polygon fill="white" stroke="black" points="484,-683.5 484,-702.5 580,-702.5 580,-683.5 484,-683.5"/>
<text text-anchor="middle" x="532" y="-690.5" font-family="Helvetica,sans-Serif" font-size="10.00">l4/sys/capability</text>
</a>
</g>
</g>
<!-- Node1&#45;&gt;Node9 -->
<g id="edge13" class="edge">
<title>Node1&#45;&gt;Node9</title>
<path fill="none" stroke="midnightblue" d="M238.72,-799.94C307.95,-793.53 430.73,-779.65 470,-759 491.26,-747.82 509.38,-726.56 520.45,-711.4"/>
<polygon fill="midnightblue" stroke="midnightblue" points="523.53,-713.1 526.39,-702.89 517.79,-709.09 523.53,-713.1"/>
</g>
<!-- Node17 -->
<g id="node17" class="node">
<title>Node17</title>
<g id="a_node17"><a xlink:href="types.html" target="_top" xlink:title=" ">
<polygon fill="white" stroke="black" points="272,-342 272,-361 336,-361 336,-342 272,-342"/>
<text text-anchor="middle" x="304" y="-349" font-family="Helvetica,sans-Serif" font-size="10.00">cxx/types</text>
</a>
</g>
</g>
<!-- Node1&#45;&gt;Node17 -->
<g id="edge71" class="edge">
<title>Node1&#45;&gt;Node17</title>
<path fill="none" stroke="midnightblue" d="M169.36,-795.42C136.5,-780.23 76,-745.29 76,-694 76,-694 76,-694 76,-580 76,-469.33 212.27,-393.81 274.11,-365.23"/>
<polygon fill="midnightblue" stroke="midnightblue" points="275.69,-368.36 283.36,-361.05 272.81,-361.98 275.69,-368.36"/>
</g>
<!-- Node22 -->
<g id="node22" class="node">
<title>Node22</title>
<g id="a_node22"><a xlink:href="ipc__iface.html" target="_top" xlink:title="Interface Definition Language.">
<polygon fill="white" stroke="black" points="483,-571.5 483,-590.5 563,-590.5 563,-571.5 483,-571.5"/>
<text text-anchor="middle" x="523" y="-578.5" font-family="Helvetica,sans-Serif" font-size="10.00">cxx/ipc_iface</text>
</a>
</g>
</g>
<!-- Node1&#45;&gt;Node22 -->
<g id="edge73" class="edge">
<title>Node1&#45;&gt;Node22</title>
<path fill="none" stroke="midnightblue" d="M237.41,-795.46C291.63,-783.46 380.1,-756.77 436,-703 464.13,-675.94 456.57,-658.22 480,-627 487.77,-616.65 497.67,-606.14 506.02,-597.88"/>
<polygon fill="midnightblue" stroke="midnightblue" points="508.66,-600.19 513.43,-590.73 503.8,-595.16 508.66,-600.19"/>
</g>
<!-- Node23 -->
<g id="node23" class="node">
<title>Node23</title>
<g id="a_node23"><a xlink:href="ipc__types.html" target="_top" xlink:title=" ">
<polygon fill="white" stroke="black" points="332.5,-459.5 332.5,-478.5 447.5,-478.5 447.5,-459.5 332.5,-459.5"/>
<text text-anchor="middle" x="390" y="-466.5" font-family="Helvetica,sans-Serif" font-size="10.00">l4/sys/cxx/ipc_types</text>
</a>
</g>
</g>
<!-- Node1&#45;&gt;Node23 -->
<g id="edge72" class="edge">
<title>Node1&#45;&gt;Node23</title>
<path fill="none" stroke="midnightblue" d="M186.21,-795.39C177.8,-774.98 159.61,-722.45 176,-683 215.42,-588.16 319.86,-513.72 366.7,-484.01"/>
<polygon fill="midnightblue" stroke="midnightblue" points="368.63,-486.93 375.26,-478.67 364.92,-480.99 368.63,-486.93"/>
</g>
<!-- Node26 -->
<g id="node26" class="node">
<title>Node26</title>
<g id="a_node26"><a xlink:href="dataspace.html" target="_top" xlink:title="Dataspace interface.">
<polygon fill="white" stroke="black" points="201,-739.5 201,-758.5 293,-758.5 293,-739.5 201,-739.5"/>
<text text-anchor="middle" x="247" y="-746.5" font-family="Helvetica,sans-Serif" font-size="10.00">l4/re/dataspace</text>
</a>
</g>
</g>
<!-- Node1&#45;&gt;Node26 -->
<g id="edge62" class="edge">
<title>Node1&#45;&gt;Node26</title>
<path fill="none" stroke="midnightblue" d="M199.16,-795.32C207.5,-787.42 220.03,-775.55 230.18,-765.94"/>
<polygon fill="midnightblue" stroke="midnightblue" points="232.82,-768.25 237.68,-758.83 228.01,-763.17 232.82,-768.25"/>
</g>
<!-- Node27 -->
<g id="node27" class="node">
<title>Node27</title>
<g id="a_node27"><a xlink:href="protocols_8h.html" target="_top" xlink:title="L4Re Protocol Constants (C version)">
<polygon fill="white" stroke="black" points="332.5,-683.5 332.5,-702.5 427.5,-702.5 427.5,-683.5 332.5,-683.5"/>
<text text-anchor="middle" x="380" y="-690.5" font-family="Helvetica,sans-Serif" font-size="10.00">l4/re/protocols.h</text>
</a>
</g>
</g>
<!-- Node1&#45;&gt;Node27 -->
<g id="edge70" class="edge">
<title>Node1&#45;&gt;Node27</title>
<path fill="none" stroke="midnightblue" d="M218.29,-795.38C241.65,-787.63 275.19,-775.01 302,-759 325.49,-744.97 349.18,-724.05 364.18,-709.76"/>
<polygon fill="midnightblue" stroke="midnightblue" points="366.83,-712.06 371.57,-702.59 361.96,-707.04 366.83,-712.06"/>
</g>
<!-- Node2&#45;&gt;Node3 -->
<g id="edge2" class="edge">
<title>Node2&#45;&gt;Node3</title>
<path fill="none" stroke="midnightblue" d="M547.45,-168.22C537.82,-159.29 522.61,-144.95 510,-132 494.3,-115.88 477.08,-96.73 465.32,-83.41"/>
<polygon fill="midnightblue" stroke="midnightblue" points="467.68,-80.79 458.45,-75.59 462.42,-85.41 467.68,-80.79"/>
</g>
<!-- Node4 -->
<g id="node4" class="node">
<title>Node4</title>
<g id="a_node4"><a xlink:href="compiler_8h.html" target="_top" xlink:title="L4 compiler related defines.">
<polygon fill="white" stroke="black" points="754.5,-56.5 754.5,-75.5 853.5,-75.5 853.5,-56.5 754.5,-56.5"/>
<text text-anchor="middle" x="804" y="-63.5" font-family="Helvetica,sans-Serif" font-size="10.00">l4/sys/compiler.h</text>
</a>
</g>
</g>
<!-- Node2&#45;&gt;Node4 -->
<g id="edge3" class="edge">
<title>Node2&#45;&gt;Node4</title>
<path fill="none" stroke="midnightblue" d="M576.38,-168.37C619.67,-149.09 724.39,-102.45 775.28,-79.79"/>
<polygon fill="midnightblue" stroke="midnightblue" points="777,-82.86 784.71,-75.59 774.15,-76.46 777,-82.86"/>
</g>
<!-- Node6 -->
<g id="node6" class="node">
<title>Node6</title>
<g id="a_node6"><a xlink:href="l4_2sys_2consts_8h.html" target="_top" xlink:title="Common constants.">
<polygon fill="white" stroke="black" points="723.5,-112.5 723.5,-131.5 812.5,-131.5 812.5,-112.5 723.5,-112.5"/>
<text text-anchor="middle" x="768" y="-119.5" font-family="Helvetica,sans-Serif" font-size="10.00">l4/sys/consts.h</text>
</a>
</g>
</g>
<!-- Node2&#45;&gt;Node6 -->
<g id="edge5" class="edge">
<title>Node2&#45;&gt;Node6</title>
<path fill="none" stroke="midnightblue" d="M590.43,-168.44C626.86,-159.12 685.23,-144.18 725.03,-134"/>
<polygon fill="midnightblue" stroke="midnightblue" points="725.9,-137.39 734.72,-131.52 724.17,-130.61 725.9,-137.39"/>
</g>
<!-- Node7 -->
<g id="node7" class="node">
<title>Node7</title>
<g id="a_node7"><a xlink:href="____l4__fpage_8h_source.html" target="_top" xlink:title=" ">
<polygon fill="white" stroke="black" points="519,-112.5 519,-131.5 629,-131.5 629,-112.5 519,-112.5"/>
<text text-anchor="middle" x="574" y="-119.5" font-family="Helvetica,sans-Serif" font-size="10.00">l4/sys/__l4_fpage.h</text>
</a>
</g>
</g>
<!-- Node2&#45;&gt;Node7 -->
<g id="edge8" class="edge">
<title>Node2&#45;&gt;Node7</title>
<path fill="none" stroke="midnightblue" d="M559.81,-168.08C562.08,-160.85 565.37,-150.41 568.21,-141.4"/>
<polygon fill="midnightblue" stroke="midnightblue" points="571.58,-142.34 571.25,-131.75 564.9,-140.24 571.58,-142.34"/>
</g>
<!-- Node8 -->
<g id="node8" class="node">
<title>Node8</title>
<g id="a_node8"><a xlink:href="____timeout_8h_source.html" target="_top" xlink:title=" ">
<polygon fill="white" stroke="black" points="357,-112.5 357,-131.5 463,-131.5 463,-112.5 357,-112.5"/>
<text text-anchor="middle" x="410" y="-119.5" font-family="Helvetica,sans-Serif" font-size="10.00">l4/sys/__timeout.h</text>
</a>
</g>
</g>
<!-- Node2&#45;&gt;Node8 -->
<g id="edge10" class="edge">
<title>Node2&#45;&gt;Node8</title>
<path fill="none" stroke="midnightblue" d="M533.71,-168.44C509.19,-159.44 470.4,-145.19 442.8,-135.05"/>
<polygon fill="midnightblue" stroke="midnightblue" points="443.78,-131.68 433.18,-131.52 441.36,-138.25 443.78,-131.68"/>
</g>
<!-- Node5 -->
<g id="node5" class="node">
<title>Node5</title>
<g id="a_node5"><a xlink:title=" ">
<polygon fill="white" stroke="#bfbfbf" points="758,-0.5 758,-19.5 850,-19.5 850,-0.5 758,-0.5"/>
<text text-anchor="middle" x="804" y="-7.5" font-family="Helvetica,sans-Serif" font-size="10.00">l4/sys/linkage.h</text>
</a>
</g>
</g>
<!-- Node4&#45;&gt;Node5 -->
<g id="edge4" class="edge">
<title>Node4&#45;&gt;Node5</title>
<path fill="none" stroke="midnightblue" d="M804,-56.08C804,-49.01 804,-38.86 804,-29.99"/>
<polygon fill="midnightblue" stroke="midnightblue" points="807.5,-29.75 804,-19.75 800.5,-29.75 807.5,-29.75"/>
</g>
<!-- Node6&#45;&gt;Node3 -->
<g id="edge7" class="edge">
<title>Node6&#45;&gt;Node3</title>
<path fill="none" stroke="midnightblue" d="M723.25,-113.38C664.53,-103.37 561.77,-85.87 500.69,-75.46"/>
<polygon fill="midnightblue" stroke="midnightblue" points="500.97,-71.96 490.52,-73.73 499.79,-78.86 500.97,-71.96"/>
</g>
<!-- Node6&#45;&gt;Node4 -->
<g id="edge6" class="edge">
<title>Node6&#45;&gt;Node4</title>
<path fill="none" stroke="midnightblue" d="M773.94,-112.08C778.98,-104.53 786.34,-93.49 792.51,-84.23"/>
<polygon fill="midnightblue" stroke="midnightblue" points="795.53,-86.01 798.17,-75.75 789.71,-82.13 795.53,-86.01"/>
</g>
<!-- Node7&#45;&gt;Node4 -->
<g id="edge9" class="edge">
<title>Node7&#45;&gt;Node4</title>
<path fill="none" stroke="midnightblue" d="M610.44,-112.44C650.4,-103.06 714.59,-87.99 757.98,-77.8"/>
<polygon fill="midnightblue" stroke="midnightblue" points="758.79,-81.21 767.73,-75.52 757.19,-74.39 758.79,-81.21"/>
</g>
<!-- Node8&#45;&gt;Node3 -->
<g id="edge11" class="edge">
<title>Node8&#45;&gt;Node3</title>
<path fill="none" stroke="midnightblue" d="M416.77,-112.08C422.56,-104.46 431.06,-93.26 438.14,-83.94"/>
<polygon fill="midnightblue" stroke="midnightblue" points="441.1,-85.83 444.36,-75.75 435.52,-81.6 441.1,-85.83"/>
</g>
<!-- Node9&#45;&gt;Node2 -->
<g id="edge15" class="edge">
<title>Node9&#45;&gt;Node2</title>
<path fill="none" stroke="midnightblue" d="M506.18,-683.41C420.65,-653.14 152,-542.92 152,-352.5 152,-352.5 152,-352.5 152,-289 152,-216.74 395.13,-190.42 504.64,-182.23"/>
<polygon fill="midnightblue" stroke="midnightblue" points="505.08,-185.71 514.8,-181.49 504.58,-178.72 505.08,-185.71"/>
</g>
<!-- Node9&#45;&gt;Node6 -->
<g id="edge14" class="edge">
<title>Node9&#45;&gt;Node6</title>
<path fill="none" stroke="midnightblue" d="M580.26,-691.02C701.27,-687.27 1008,-669.15 1008,-582 1008,-582 1008,-582 1008,-233 1008,-151.96 893.52,-130.39 822.69,-124.8"/>
<polygon fill="midnightblue" stroke="midnightblue" points="822.8,-121.3 812.58,-124.09 822.31,-128.28 822.8,-121.3"/>
</g>
<!-- Node10 -->
<g id="node10" class="node">
<title>Node10</title>
<g id="a_node10"><a xlink:href="kobject_source.html" target="_top" xlink:title=" ">
<polygon fill="white" stroke="black" points="618.5,-515.5 618.5,-534.5 701.5,-534.5 701.5,-515.5 618.5,-515.5"/>
<text text-anchor="middle" x="660" y="-522.5" font-family="Helvetica,sans-Serif" font-size="10.00">l4/sys/kobject</text>
</a>
</g>
</g>
<!-- Node9&#45;&gt;Node10 -->
<g id="edge16" class="edge">
<title>Node9&#45;&gt;Node10</title>
<path fill="none" stroke="midnightblue" d="M540.23,-683.26C548.51,-674.35 561.51,-660.03 572,-647 600.9,-611.09 632.02,-566.83 648.39,-543.05"/>
<polygon fill="midnightblue" stroke="midnightblue" points="651.33,-544.95 654.09,-534.72 645.55,-540.99 651.33,-544.95"/>
</g>
<!-- Node20 -->
<g id="node20" class="node">
<title>Node20</title>
<g id="a_node20"><a xlink:href="l4_2sys_2task_8h.html" target="_top" xlink:title="Common task related definitions.">
<polygon fill="white" stroke="black" points="608,-342 608,-361 686,-361 686,-342 608,-342"/>
<text text-anchor="middle" x="647" y="-349" font-family="Helvetica,sans-Serif" font-size="10.00">l4/sys/task.h</text>
</a>
</g>
</g>
<!-- Node9&#45;&gt;Node20 -->
<g id="edge45" class="edge">
<title>Node9&#45;&gt;Node20</title>
<path fill="none" stroke="midnightblue" d="M580.22,-689.79C647.66,-683.81 762,-661.89 762,-582 762,-582 762,-582 762,-468 762,-419.12 709.63,-383.61 675.57,-365.69"/>
<polygon fill="midnightblue" stroke="midnightblue" points="677.01,-362.49 666.51,-361.1 673.85,-368.74 677.01,-362.49"/>
</g>
<!-- Node21 -->
<g id="node21" class="node">
<title>Node21</title>
<g id="a_node21"><a xlink:href="sys_2meta.html" target="_top" xlink:title="Meta interface for getting dynamic type information about objects behind capabilities.">
<polygon fill="white" stroke="black" points="489,-627.5 489,-646.5 563,-646.5 563,-627.5 489,-627.5"/>
<text text-anchor="middle" x="526" y="-634.5" font-family="Helvetica,sans-Serif" font-size="10.00">l4/sys/meta</text>
</a>
</g>
</g>
<!-- Node9&#45;&gt;Node21 -->
<g id="edge46" class="edge">
<title>Node9&#45;&gt;Node21</title>
<path fill="none" stroke="midnightblue" d="M531.01,-683.08C530.21,-675.93 529.07,-665.64 528.08,-656.69"/>
<polygon fill="midnightblue" stroke="midnightblue" points="531.56,-656.3 526.97,-646.75 524.6,-657.08 531.56,-656.3"/>
</g>
<!-- Node10&#45;&gt;Node2 -->
<g id="edge31" class="edge">
<title>Node10&#45;&gt;Node2</title>
<path fill="none" stroke="midnightblue" d="M663.61,-515.29C671.72,-494.24 689.03,-439.59 667,-403 649.36,-373.7 619.75,-394.18 599,-367 559.64,-315.42 555.82,-234.05 556.27,-197.66"/>
<polygon fill="midnightblue" stroke="midnightblue" points="559.77,-197.61 556.53,-187.52 552.78,-197.43 559.77,-197.61"/>
</g>
<!-- Node11 -->
<g id="node11" class="node">
<title>Node11</title>
<g id="a_node11"><a xlink:href="kernel__object_8h.html" target="_top" xlink:title="Kernel object system calls.">
<polygon fill="white" stroke="black" points="790.5,-403.5 790.5,-422.5 881.5,-422.5 881.5,-403.5 790.5,-403.5"/>
<text text-anchor="middle" x="836" y="-410.5" font-family="Helvetica,sans-Serif" font-size="10.00">kernel_object.h</text>
</a>
</g>
</g>
<!-- Node10&#45;&gt;Node11 -->
<g id="edge17" class="edge">
<title>Node10&#45;&gt;Node11</title>
<path fill="none" stroke="midnightblue" d="M673.81,-515.37C704.14,-496.41 776.8,-451 813.69,-427.94"/>
<polygon fill="midnightblue" stroke="midnightblue" points="815.63,-430.86 822.25,-422.59 811.92,-424.92 815.63,-430.86"/>
</g>
<!-- Node16 -->
<g id="node16" class="node">
<title>Node16</title>
<g id="a_node16"><a xlink:href="____typeinfo_8h.html" target="_top" xlink:title="Type information handling.">
<polygon fill="white" stroke="black" points="580.5,-459.5 580.5,-478.5 657.5,-478.5 657.5,-459.5 580.5,-459.5"/>
<text text-anchor="middle" x="619" y="-466.5" font-family="Helvetica,sans-Serif" font-size="10.00">__typeinfo.h</text>
</a>
</g>
</g>
<!-- Node10&#45;&gt;Node16 -->
<g id="edge32" class="edge">
<title>Node10&#45;&gt;Node16</title>
<path fill="none" stroke="midnightblue" d="M653.23,-515.08C647.44,-507.46 638.94,-496.26 631.86,-486.94"/>
<polygon fill="midnightblue" stroke="midnightblue" points="634.48,-484.6 625.64,-478.75 628.9,-488.83 634.48,-484.6"/>
</g>
<!-- Node11&#45;&gt;Node2 -->
<g id="edge18" class="edge">
<title>Node11&#45;&gt;Node2</title>
<path fill="none" stroke="midnightblue" d="M825.74,-403.43C784.3,-368.82 628.93,-239.07 575.32,-194.3"/>
<polygon fill="midnightblue" stroke="midnightblue" points="577.27,-191.37 567.35,-187.65 572.79,-196.74 577.27,-191.37"/>
</g>
<!-- Node11&#45;&gt;Node4 -->
<g id="edge19" class="edge">
<title>Node11&#45;&gt;Node4</title>
<path fill="none" stroke="midnightblue" d="M881.57,-406.19C943.33,-395.47 1046,-366.32 1046,-291 1046,-291 1046,-291 1046,-177 1046,-97.16 935.49,-75 863.83,-69.01"/>
<polygon fill="midnightblue" stroke="midnightblue" points="863.79,-65.5 853.56,-68.24 863.27,-72.48 863.79,-65.5"/>
</g>
<!-- Node12 -->
<g id="node12" class="node">
<title>Node12</title>
<g id="a_node12"><a xlink:href="l4_2sys_2utcb_8h.html" target="_top" xlink:title="UTCB definitions.">
<polygon fill="white" stroke="black" points="658,-224.5 658,-243.5 736,-243.5 736,-224.5 658,-224.5"/>
<text text-anchor="middle" x="697" y="-231.5" font-family="Helvetica,sans-Serif" font-size="10.00">l4/sys/utcb.h</text>
</a>
</g>
</g>
<!-- Node11&#45;&gt;Node12 -->
<g id="edge20" class="edge">
<title>Node11&#45;&gt;Node12</title>
<path fill="none" stroke="midnightblue" d="M830.64,-403.26C817.11,-381.51 780.06,-323.55 743,-280 734.24,-269.71 723.49,-259.09 714.58,-250.76"/>
<polygon fill="midnightblue" stroke="midnightblue" points="716.76,-248.01 707.03,-243.82 712.03,-253.17 716.76,-248.01"/>
</g>
<!-- Node13 -->
<g id="node13" class="node">
<title>Node13</title>
<g id="a_node13"><a xlink:href="____kernel__object__impl_8h.html" target="_top" xlink:title="Low&#45;level kernel debugger functions.">
<polygon fill="white" stroke="black" points="856,-336.5 856,-366.5 980,-366.5 980,-336.5 856,-336.5"/>
<text text-anchor="start" x="864" y="-354.5" font-family="Helvetica,sans-Serif" font-size="10.00">l4/sys/__kernel_object</text>
<text text-anchor="middle" x="918" y="-343.5" font-family="Helvetica,sans-Serif" font-size="10.00">_impl.h</text>
</a>
</g>
</g>
<!-- Node11&#45;&gt;Node13 -->
<g id="edge24" class="edge">
<title>Node11&#45;&gt;Node13</title>
<path fill="none" stroke="midnightblue" d="M847.75,-403.48C858.85,-395.42 875.93,-383.02 890.47,-372.47"/>
<polygon fill="midnightblue" stroke="midnightblue" points="892.64,-375.23 898.67,-366.52 888.52,-369.56 892.64,-375.23"/>
</g>
<!-- Node14 -->
<g id="node14" class="node">
<title>Node14</title>
<g id="a_node14"><a xlink:href="l4_2sys_2ipc_8h.html" target="_top" xlink:title="Common IPC interface.">
<polygon fill="white" stroke="black" points="795.5,-280.5 795.5,-299.5 866.5,-299.5 866.5,-280.5 795.5,-280.5"/>
<text text-anchor="middle" x="831" y="-287.5" font-family="Helvetica,sans-Serif" font-size="10.00">l4/sys/ipc.h</text>
</a>
</g>
</g>
<!-- Node11&#45;&gt;Node14 -->
<g id="edge30" class="edge">
<title>Node11&#45;&gt;Node14</title>
<path fill="none" stroke="midnightblue" d="M835.64,-403.3C834.84,-383.85 832.88,-336.49 831.78,-309.9"/>
<polygon fill="midnightblue" stroke="midnightblue" points="835.27,-309.47 831.36,-299.62 828.27,-309.76 835.27,-309.47"/>
</g>
<!-- Node12&#45;&gt;Node2 -->
<g id="edge21" class="edge">
<title>Node12&#45;&gt;Node2</title>
<path fill="none" stroke="midnightblue" d="M674.82,-224.44C651.57,-215.48 614.85,-201.31 588.58,-191.18"/>
<polygon fill="midnightblue" stroke="midnightblue" points="589.67,-187.85 579.08,-187.52 587.15,-194.38 589.67,-187.85"/>
</g>
<!-- Node12&#45;&gt;Node3 -->
<g id="edge23" class="edge">
<title>Node12&#45;&gt;Node3</title>
<path fill="none" stroke="midnightblue" d="M695.42,-224.41C690.87,-202.13 675.54,-142.15 638,-112 599,-80.68 541.61,-70.6 500.71,-67.64"/>
<polygon fill="midnightblue" stroke="midnightblue" points="500.88,-64.14 490.68,-67.03 500.45,-71.13 500.88,-64.14"/>
</g>
<!-- Node12&#45;&gt;Node4 -->
<g id="edge22" class="edge">
<title>Node12&#45;&gt;Node4</title>
<path fill="none" stroke="midnightblue" d="M715.7,-224.48C744.61,-210.13 799.07,-178.14 821,-132 828.25,-116.74 821.86,-97.94 814.93,-84.49"/>
<polygon fill="midnightblue" stroke="midnightblue" points="817.97,-82.74 809.99,-75.77 811.88,-86.2 817.97,-82.74"/>
</g>
<!-- Node13&#45;&gt;Node14 -->
<g id="edge25" class="edge">
<title>Node13&#45;&gt;Node14</title>
<path fill="none" stroke="midnightblue" d="M897.38,-336.4C883.7,-327.04 865.79,-314.79 852.02,-305.38"/>
<polygon fill="midnightblue" stroke="midnightblue" points="853.89,-302.41 843.66,-299.66 849.94,-308.19 853.89,-302.41"/>
</g>
<!-- Node14&#45;&gt;Node2 -->
<g id="edge26" class="edge">
<title>Node14&#45;&gt;Node2</title>
<path fill="none" stroke="midnightblue" d="M822.29,-280.41C807.61,-266.44 776.48,-238.86 745,-224 701.68,-203.55 648.22,-191.91 609.39,-185.62"/>
<polygon fill="midnightblue" stroke="midnightblue" points="609.77,-182.14 599.35,-184.06 608.7,-189.05 609.77,-182.14"/>
</g>
<!-- Node14&#45;&gt;Node12 -->
<g id="edge27" class="edge">
<title>Node14&#45;&gt;Node12</title>
<path fill="none" stroke="midnightblue" d="M809.77,-280.44C787.62,-271.52 752.68,-257.44 727.56,-247.32"/>
<polygon fill="midnightblue" stroke="midnightblue" points="728.72,-244.01 718.13,-243.52 726.1,-250.5 728.72,-244.01"/>
</g>
<!-- Node15 -->
<g id="node15" class="node">
<title>Node15</title>
<g id="a_node15"><a xlink:href="err_8h.html" target="_top" xlink:title="Error codes.">
<polygon fill="white" stroke="black" points="844,-224.5 844,-243.5 914,-243.5 914,-224.5 844,-224.5"/>
<text text-anchor="middle" x="879" y="-231.5" font-family="Helvetica,sans-Serif" font-size="10.00">l4/sys/err.h</text>
</a>
</g>
</g>
<!-- Node14&#45;&gt;Node15 -->
<g id="edge28" class="edge">
<title>Node14&#45;&gt;Node15</title>
<path fill="none" stroke="midnightblue" d="M838.93,-280.08C845.85,-272.3 856.07,-260.8 864.45,-251.37"/>
<polygon fill="midnightblue" stroke="midnightblue" points="867.19,-253.55 871.22,-243.75 861.96,-248.9 867.19,-253.55"/>
</g>
<!-- Node15&#45;&gt;Node4 -->
<g id="edge29" class="edge">
<title>Node15&#45;&gt;Node4</title>
<path fill="none" stroke="midnightblue" d="M879.13,-224.43C879.06,-203.69 876.67,-149.69 855,-112 848.01,-99.84 836.53,-89.28 826.23,-81.45"/>
<polygon fill="midnightblue" stroke="midnightblue" points="828.15,-78.52 817.98,-75.54 824.07,-84.21 828.15,-78.52"/>
</g>
<!-- Node16&#45;&gt;Node17 -->
<g id="edge33" class="edge">
<title>Node16&#45;&gt;Node17</title>
<path fill="none" stroke="midnightblue" d="M608.48,-459.48C590.84,-445.61 553.7,-418.17 518,-403 461.08,-378.81 390.5,-365.02 346.34,-358.14"/>
<polygon fill="midnightblue" stroke="midnightblue" points="346.66,-354.65 336.25,-356.62 345.62,-361.57 346.66,-354.65"/>
</g>
<!-- Node18 -->
<g id="node18" class="node">
<title>Node18</title>
<g id="a_node18"><a xlink:href="ipc__basics_source.html" target="_top" xlink:title=" ">
<polygon fill="white" stroke="black" points="422.5,-403.5 422.5,-422.5 509.5,-422.5 509.5,-403.5 422.5,-403.5"/>
<text text-anchor="middle" x="466" y="-410.5" font-family="Helvetica,sans-Serif" font-size="10.00">cxx/ipc_basics</text>
</a>
</g>
</g>
<!-- Node16&#45;&gt;Node18 -->
<g id="edge34" class="edge">
<title>Node16&#45;&gt;Node18</title>
<path fill="none" stroke="midnightblue" d="M594.76,-459.44C569.13,-450.4 528.51,-436.06 499.76,-425.92"/>
<polygon fill="midnightblue" stroke="midnightblue" points="500.72,-422.54 490.13,-422.52 498.39,-429.15 500.72,-422.54"/>
</g>
<!-- Node19 -->
<g id="node19" class="node">
<title>Node19</title>
<g id="a_node19"><a xlink:href="capability_8h_source.html" target="_top" xlink:title=" ">
<polygon fill="white" stroke="black" points="566,-403.5 566,-422.5 658,-422.5 658,-403.5 566,-403.5"/>
<text text-anchor="middle" x="612" y="-410.5" font-family="Helvetica,sans-Serif" font-size="10.00">cxx/capability.h</text>
</a>
</g>
</g>
<!-- Node16&#45;&gt;Node19 -->
<g id="edge38" class="edge">
<title>Node16&#45;&gt;Node19</title>
<path fill="none" stroke="midnightblue" d="M617.84,-459.08C616.92,-451.93 615.58,-441.64 614.42,-432.69"/>
<polygon fill="midnightblue" stroke="midnightblue" points="617.89,-432.22 613.13,-422.75 610.95,-433.12 617.89,-432.22"/>
</g>
<!-- Node18&#45;&gt;Node12 -->
<g id="edge36" class="edge">
<title>Node18&#45;&gt;Node12</title>
<path fill="none" stroke="midnightblue" d="M477.14,-403.46C513.8,-375.37 630.99,-285.58 677.61,-249.86"/>
<polygon fill="midnightblue" stroke="midnightblue" points="679.89,-252.52 685.7,-243.66 675.63,-246.96 679.89,-252.52"/>
</g>
<!-- Node18&#45;&gt;Node15 -->
<g id="edge37" class="edge">
<title>Node18&#45;&gt;Node15</title>
<path fill="none" stroke="midnightblue" d="M509.86,-406.76C606.18,-394.23 831.15,-359.14 875,-300 884.78,-286.81 884.75,-267.68 882.9,-253.58"/>
<polygon fill="midnightblue" stroke="midnightblue" points="886.32,-252.83 881.17,-243.57 879.42,-254.02 886.32,-252.83"/>
</g>
<!-- Node18&#45;&gt;Node17 -->
<g id="edge35" class="edge">
<title>Node18&#45;&gt;Node17</title>
<path fill="none" stroke="midnightblue" d="M442.79,-403.48C415,-393.27 368.28,-376.11 336.81,-364.55"/>
<polygon fill="midnightblue" stroke="midnightblue" points="337.76,-361.17 327.17,-361.01 335.35,-367.74 337.76,-361.17"/>
</g>
<!-- Node19&#45;&gt;Node2 -->
<g id="edge40" class="edge">
<title>Node19&#45;&gt;Node2</title>
<path fill="none" stroke="midnightblue" d="M579.74,-403.41C561.27,-396.69 539.55,-385.34 528,-367 494.13,-313.2 505.66,-284.56 525,-224 528.34,-213.54 535.1,-203.43 541.55,-195.45"/>
<polygon fill="midnightblue" stroke="midnightblue" points="544.35,-197.56 548.25,-187.71 539.06,-192.98 544.35,-197.56"/>
</g>
<!-- Node19&#45;&gt;Node6 -->
<g id="edge39" class="edge">
<title>Node19&#45;&gt;Node6</title>
<path fill="none" stroke="midnightblue" d="M607.16,-403.43C599.55,-388.69 586.84,-358.03 599,-336 617.53,-302.42 723.4,-275.69 745,-244 766.2,-212.89 769.12,-167.35 768.87,-141.94"/>
<polygon fill="midnightblue" stroke="midnightblue" points="772.37,-141.7 768.59,-131.8 765.37,-141.89 772.37,-141.7"/>
</g>
<!-- Node19&#45;&gt;Node20 -->
<g id="edge41" class="edge">
<title>Node19&#45;&gt;Node20</title>
<path fill="none" stroke="midnightblue" d="M617.01,-403.48C622.16,-394.73 630.31,-380.87 636.82,-369.81"/>
<polygon fill="midnightblue" stroke="midnightblue" points="639.94,-371.4 641.99,-361.01 633.91,-367.85 639.94,-371.4"/>
</g>
<!-- Node20&#45;&gt;Node2 -->
<g id="edge42" class="edge">
<title>Node20&#45;&gt;Node2</title>
<path fill="none" stroke="midnightblue" d="M642.41,-341.76C628.27,-314.81 585.14,-232.62 566.14,-196.42"/>
<polygon fill="midnightblue" stroke="midnightblue" points="569.22,-194.75 561.47,-187.52 563.02,-198 569.22,-194.75"/>
</g>
<!-- Node20&#45;&gt;Node12 -->
<g id="edge43" class="edge">
<title>Node20&#45;&gt;Node12</title>
<path fill="none" stroke="midnightblue" d="M650.76,-341.82C658.87,-323.09 678.15,-278.55 689.08,-253.29"/>
<polygon fill="midnightblue" stroke="midnightblue" points="692.44,-254.35 693.2,-243.78 686.01,-251.57 692.44,-254.35"/>
</g>
<!-- Node20&#45;&gt;Node14 -->
<g id="edge44" class="edge">
<title>Node20&#45;&gt;Node14</title>
<path fill="none" stroke="midnightblue" d="M673.36,-341.98C705.34,-331.64 759.38,-314.16 795.12,-302.6"/>
<polygon fill="midnightblue" stroke="midnightblue" points="796.25,-305.92 804.69,-299.51 794.09,-299.26 796.25,-305.92"/>
</g>
<!-- Node21&#45;&gt;Node10 -->
<g id="edge47" class="edge">
<title>Node21&#45;&gt;Node10</title>
<path fill="none" stroke="midnightblue" d="M536.51,-627.37C559.22,-608.73 613.06,-564.53 641.56,-541.13"/>
<polygon fill="midnightblue" stroke="midnightblue" points="644.03,-543.64 649.53,-534.59 639.58,-538.23 644.03,-543.64"/>
</g>
<!-- Node21&#45;&gt;Node22 -->
<g id="edge48" class="edge">
<title>Node21&#45;&gt;Node22</title>
<path fill="none" stroke="midnightblue" d="M525.5,-627.08C525.11,-620.01 524.55,-609.86 524.05,-600.99"/>
<polygon fill="midnightblue" stroke="midnightblue" points="527.54,-600.54 523.49,-590.75 520.55,-600.93 527.54,-600.54"/>
</g>
<!-- Node24 -->
<g id="node24" class="node">
<title>Node24</title>
<g id="a_node24"><a xlink:href="ipc__string_source.html" target="_top" xlink:title=" ">
<polygon fill="white" stroke="black" points="374,-571.5 374,-590.5 458,-590.5 458,-571.5 374,-571.5"/>
<text text-anchor="middle" x="416" y="-578.5" font-family="Helvetica,sans-Serif" font-size="10.00">cxx/ipc_string</text>
</a>
</g>
</g>
<!-- Node21&#45;&gt;Node24 -->
<g id="edge55" class="edge">
<title>Node21&#45;&gt;Node24</title>
<path fill="none" stroke="midnightblue" d="M508.33,-627.32C490.61,-618.62 463.1,-605.12 442.71,-595.11"/>
<polygon fill="midnightblue" stroke="midnightblue" points="444.15,-591.92 433.63,-590.65 441.06,-598.2 444.15,-591.92"/>
</g>
<!-- Node22&#45;&gt;Node16 -->
<g id="edge54" class="edge">
<title>Node22&#45;&gt;Node16</title>
<path fill="none" stroke="midnightblue" d="M531.78,-571.23C540.62,-562.3 554.56,-547.96 566,-535 580.1,-519.04 595.38,-500.1 605.9,-486.8"/>
<polygon fill="midnightblue" stroke="midnightblue" points="608.92,-488.62 612.35,-478.59 603.42,-484.29 608.92,-488.62"/>
</g>
<!-- Node22&#45;&gt;Node18 -->
<g id="edge49" class="edge">
<title>Node22&#45;&gt;Node18</title>
<path fill="none" stroke="midnightblue" d="M521.18,-571.3C516.83,-551.14 504.99,-499.84 489,-459 485.36,-449.71 480.42,-439.79 476.04,-431.63"/>
<polygon fill="midnightblue" stroke="midnightblue" points="479.02,-429.78 471.12,-422.72 472.89,-433.17 479.02,-429.78"/>
</g>
<!-- Node22&#45;&gt;Node23 -->
<g id="edge50" class="edge">
<title>Node22&#45;&gt;Node23</title>
<path fill="none" stroke="midnightblue" d="M513.6,-571.37C499.72,-558.71 472.81,-534.5 449,-515 436.29,-504.59 421.61,-493.39 410.07,-484.77"/>
<polygon fill="midnightblue" stroke="midnightblue" points="412.06,-481.88 401.94,-478.73 407.88,-487.5 412.06,-481.88"/>
</g>
<!-- Node23&#45;&gt;Node17 -->
<g id="edge52" class="edge">
<title>Node23&#45;&gt;Node17</title>
<path fill="none" stroke="midnightblue" d="M383.54,-459.32C369.34,-440.26 335.23,-394.45 316.63,-369.46"/>
<polygon fill="midnightblue" stroke="midnightblue" points="319.32,-367.21 310.54,-361.28 313.7,-371.39 319.32,-367.21"/>
</g>
<!-- Node23&#45;&gt;Node18 -->
<g id="edge53" class="edge">
<title>Node23&#45;&gt;Node18</title>
<path fill="none" stroke="midnightblue" d="M402.21,-459.32C413.78,-451.11 431.38,-438.6 445.16,-428.81"/>
<polygon fill="midnightblue" stroke="midnightblue" points="447.44,-431.48 453.57,-422.83 443.39,-425.77 447.44,-431.48"/>
</g>
<!-- Node23&#45;&gt;Node19 -->
<g id="edge51" class="edge">
<title>Node23&#45;&gt;Node19</title>
<path fill="none" stroke="midnightblue" d="M425.18,-459.44C463.58,-450.1 525.18,-435.12 567.06,-424.93"/>
<polygon fill="midnightblue" stroke="midnightblue" points="568.1,-428.28 576.99,-422.52 566.44,-421.48 568.1,-428.28"/>
</g>
<!-- Node24&#45;&gt;Node17 -->
<g id="edge56" class="edge">
<title>Node24&#45;&gt;Node17</title>
<path fill="none" stroke="midnightblue" d="M402.27,-571.31C379.03,-555.81 332.2,-521.05 309,-479 290.13,-444.8 295.05,-397.13 299.82,-371.16"/>
<polygon fill="midnightblue" stroke="midnightblue" points="303.29,-371.68 301.85,-361.18 296.43,-370.28 303.29,-371.68"/>
</g>
<!-- Node24&#45;&gt;Node18 -->
<g id="edge57" class="edge">
<title>Node24&#45;&gt;Node18</title>
<path fill="none" stroke="midnightblue" d="M423.55,-571.34C437.33,-554.8 465.91,-516.97 474,-479 477.3,-463.54 474.65,-445.69 471.55,-432.62"/>
<polygon fill="midnightblue" stroke="midnightblue" points="474.91,-431.67 468.95,-422.91 468.15,-433.48 474.91,-431.67"/>
</g>
<!-- Node25 -->
<g id="node25" class="node">
<title>Node25</title>
<g id="a_node25"><a xlink:href="ipc__array_source.html" target="_top" xlink:title=" ">
<polygon fill="white" stroke="black" points="378,-515.5 378,-534.5 440,-534.5 440,-515.5 378,-515.5"/>
<text text-anchor="middle" x="409" y="-522.5" font-family="Helvetica,sans-Serif" font-size="10.00">ipc_array</text>
</a>
</g>
</g>
<!-- Node24&#45;&gt;Node25 -->
<g id="edge58" class="edge">
<title>Node24&#45;&gt;Node25</title>
<path fill="none" stroke="midnightblue" d="M414.84,-571.08C413.92,-563.93 412.58,-553.64 411.42,-544.69"/>
<polygon fill="midnightblue" stroke="midnightblue" points="414.89,-544.22 410.13,-534.75 407.95,-545.12 414.89,-544.22"/>
</g>
<!-- Node25&#45;&gt;Node17 -->
<g id="edge59" class="edge">
<title>Node25&#45;&gt;Node17</title>
<path fill="none" stroke="midnightblue" d="M377.95,-515.61C359.05,-508.86 336.1,-497.39 323,-479 299.99,-446.7 299.84,-397.91 301.85,-371.35"/>
<polygon fill="midnightblue" stroke="midnightblue" points="305.36,-371.43 302.82,-361.15 298.39,-370.77 305.36,-371.43"/>
</g>
<!-- Node25&#45;&gt;Node18 -->
<g id="edge60" class="edge">
<title>Node25&#45;&gt;Node18</title>
<path fill="none" stroke="midnightblue" d="M422.04,-515.3C432.99,-507.24 448.07,-494.23 456,-479 463.5,-464.6 465.75,-446.14 466.27,-432.58"/>
<polygon fill="midnightblue" stroke="midnightblue" points="469.77,-432.57 466.38,-422.53 462.77,-432.49 469.77,-432.57"/>
</g>
<!-- Node25&#45;&gt;Node23 -->
<g id="edge61" class="edge">
<title>Node25&#45;&gt;Node23</title>
<path fill="none" stroke="midnightblue" d="M405.86,-515.08C403.32,-507.85 399.64,-497.41 396.47,-488.4"/>
<polygon fill="midnightblue" stroke="midnightblue" points="399.7,-487.02 393.08,-478.75 393.1,-489.35 399.7,-487.02"/>
</g>
<!-- Node26&#45;&gt;Node2 -->
<g id="edge63" class="edge">
<title>Node26&#45;&gt;Node2</title>
<path fill="none" stroke="midnightblue" d="M240.59,-739.22C214.02,-701.98 114,-552.56 114,-414 114,-414 114,-414 114,-289 114,-244.21 149.96,-241.92 191,-224 246.11,-199.94 417.44,-186.96 504.73,-181.75"/>
<polygon fill="midnightblue" stroke="midnightblue" points="505.17,-185.23 514.95,-181.16 504.76,-178.24 505.17,-185.23"/>
</g>
<!-- Node26&#45;&gt;Node3 -->
<g id="edge64" class="edge">
<title>Node26&#45;&gt;Node3</title>
<path fill="none" stroke="midnightblue" d="M236.6,-739.47C226.64,-730.95 211.6,-717.12 201,-703 184.05,-680.42 183.48,-672.33 171,-647 107.5,-518.18 38,-496.12 38,-352.5 38,-352.5 38,-352.5 38,-177 38,-102.6 291.42,-77.26 401.23,-69.78"/>
<polygon fill="midnightblue" stroke="midnightblue" points="401.65,-73.26 411.4,-69.11 401.19,-66.27 401.65,-73.26"/>
</g>
<!-- Node26&#45;&gt;Node9 -->
<g id="edge65" class="edge">
<title>Node26&#45;&gt;Node9</title>
<path fill="none" stroke="midnightblue" d="M292.16,-739.44C342.29,-729.94 423.22,-714.61 477.01,-704.42"/>
<polygon fill="midnightblue" stroke="midnightblue" points="477.88,-707.82 487.05,-702.52 476.58,-700.94 477.88,-707.82"/>
</g>
<!-- Node26&#45;&gt;Node17 -->
<g id="edge69" class="edge">
<title>Node26&#45;&gt;Node17</title>
<path fill="none" stroke="midnightblue" d="M247.44,-739.5C248.83,-713.92 253.52,-635.52 262,-571 271.88,-495.8 276.56,-477.26 292,-403 294.22,-392.35 297.01,-380.51 299.35,-370.97"/>
<polygon fill="midnightblue" stroke="midnightblue" points="302.8,-371.59 301.81,-361.04 296,-369.91 302.8,-371.59"/>
</g>
<!-- Node26&#45;&gt;Node22 -->
<g id="edge68" class="edge">
<title>Node26&#45;&gt;Node22</title>
<path fill="none" stroke="midnightblue" d="M255.79,-739.24C269.38,-725.98 296.7,-700.52 323,-683 379.83,-645.15 452.75,-611.72 492.98,-594.45"/>
<polygon fill="midnightblue" stroke="midnightblue" points="494.41,-597.64 502.24,-590.51 491.67,-591.2 494.41,-597.64"/>
</g>
<!-- Node26&#45;&gt;Node23 -->
<g id="edge67" class="edge">
<title>Node26&#45;&gt;Node23</title>
<path fill="none" stroke="midnightblue" d="M251.44,-739.38C271.45,-700.46 353.58,-540.81 381.02,-487.45"/>
<polygon fill="midnightblue" stroke="midnightblue" points="384.15,-489.02 385.62,-478.52 377.93,-485.82 384.15,-489.02"/>
</g>
<!-- Node26&#45;&gt;Node27 -->
<g id="edge66" class="edge">
<title>Node26&#45;&gt;Node27</title>
<path fill="none" stroke="midnightblue" d="M268.07,-739.44C290.06,-730.52 324.73,-716.44 349.66,-706.32"/>
<polygon fill="midnightblue" stroke="midnightblue" points="351.08,-709.52 359.02,-702.52 348.44,-703.04 351.08,-709.52"/>
</g>
</g>
</svg>
