<?xml version="1.0" encoding="UTF-8" standalone="no"?>
<!DOCTYPE svg PUBLIC "-//W3C//DTD SVG 1.1//EN"
 "http://www.w3.org/Graphics/SVG/1.1/DTD/svg11.dtd">
<!-- Generated by graphviz version 2.43.0 (0)
 -->
<!-- Title: l4/re/env.h Pages: 1 -->
<svg width="2022pt" height="497pt"
 viewBox="0.00 0.00 2021.67 497.00" xmlns="http://www.w3.org/2000/svg" xmlns:xlink="http://www.w3.org/1999/xlink">
<g id="graph0" class="graph" transform="scale(1 1) rotate(0) translate(4 493)">
<title>l4/re/env.h</title>
<polygon fill="white" stroke="transparent" points="-4,4 -4,-493 2017.67,-493 2017.67,4 -4,4"/>
<!-- Node1 -->
<g id="node1" class="node">
<title>Node1</title>
<g id="a_node1"><a xlink:title="Environment interface.">
<polygon fill="#bfbfbf" stroke="black" points="753.5,-469.5 753.5,-488.5 821.5,-488.5 821.5,-469.5 753.5,-469.5"/>
<text text-anchor="middle" x="787.5" y="-476.5" font-family="Helvetica,sans-Serif" font-size="10.00">l4/re/env.h</text>
</a>
</g>
</g>
<!-- Node2 -->
<g id="node2" class="node">
<title>Node2</title>
<g id="a_node2"><a xlink:href="log_8h.html" target="_top" xlink:title="Log C interface.">
<polygon fill="white" stroke="black" points="394.5,-408 394.5,-427 468.5,-427 468.5,-408 394.5,-408"/>
<text text-anchor="middle" x="431.5" y="-415" font-family="Helvetica,sans-Serif" font-size="10.00">l4/re/c/log.h</text>
</a>
</g>
</g>
<!-- Node1&#45;&gt;Node2 -->
<g id="edge1" class="edge">
<title>Node1&#45;&gt;Node2</title>
<path fill="none" stroke="midnightblue" d="M743.25,-473.84C682.72,-467.65 570.97,-454.37 477.5,-433 470.48,-431.4 462.99,-429.23 456.13,-427.07"/>
<polygon fill="midnightblue" stroke="midnightblue" points="742.92,-477.33 753.22,-474.85 743.62,-470.36 742.92,-477.33"/>
</g>
<!-- Node3 -->
<g id="node3" class="node">
<title>Node3</title>
<g id="a_node3"><a xlink:href="mem__alloc_8h.html" target="_top" xlink:title="Memory allocator C interface.">
<polygon fill="white" stroke="black" points="487,-408 487,-427 600,-427 600,-408 487,-408"/>
<text text-anchor="middle" x="543.5" y="-415" font-family="Helvetica,sans-Serif" font-size="10.00">l4/re/c/mem_alloc.h</text>
</a>
</g>
</g>
<!-- Node1&#45;&gt;Node3 -->
<g id="edge2" class="edge">
<title>Node1&#45;&gt;Node3</title>
<path fill="none" stroke="midnightblue" d="M743.37,-467.24C696.12,-455.72 622.1,-437.67 578.64,-427.07"/>
<polygon fill="midnightblue" stroke="midnightblue" points="742.77,-470.7 753.32,-469.66 744.43,-463.89 742.77,-470.7"/>
</g>
<!-- Node4 -->
<g id="node4" class="node">
<title>Node4</title>
<g id="a_node4"><a xlink:href="namespace_8h.html" target="_top" xlink:title="Namespace functions, C interface.">
<polygon fill="white" stroke="black" points="618,-408 618,-427 733,-427 733,-408 618,-408"/>
<text text-anchor="middle" x="675.5" y="-415" font-family="Helvetica,sans-Serif" font-size="10.00">l4/re/c/namespace.h</text>
</a>
</g>
</g>
<!-- Node1&#45;&gt;Node4 -->
<g id="edge3" class="edge">
<title>Node1&#45;&gt;Node4</title>
<path fill="none" stroke="midnightblue" d="M762.49,-464.71C740.8,-453.19 710.05,-436.86 691.52,-427.01"/>
<polygon fill="midnightblue" stroke="midnightblue" points="760.98,-467.87 771.45,-469.48 764.26,-461.69 760.98,-467.87"/>
</g>
<!-- Node5 -->
<g id="node5" class="node">
<title>Node5</title>
<g id="a_node5"><a xlink:href="rm_8h.html" target="_top" xlink:title="Region map interface, C interface.">
<polygon fill="white" stroke="black" points="751.5,-408 751.5,-427 823.5,-427 823.5,-408 751.5,-408"/>
<text text-anchor="middle" x="787.5" y="-415" font-family="Helvetica,sans-Serif" font-size="10.00">l4/re/c/rm.h</text>
</a>
</g>
</g>
<!-- Node1&#45;&gt;Node5 -->
<g id="edge4" class="edge">
<title>Node1&#45;&gt;Node5</title>
<path fill="none" stroke="midnightblue" d="M787.5,-459.32C787.5,-448.5 787.5,-435.4 787.5,-427.01"/>
<polygon fill="midnightblue" stroke="midnightblue" points="784,-459.48 787.5,-469.48 791,-459.48 784,-459.48"/>
</g>
<!-- Node6 -->
<g id="node6" class="node">
<title>Node6</title>
<g id="a_node6"><a xlink:href="re_2consts.html" target="_top" xlink:title="Constants.">
<polygon fill="white" stroke="black" points="842,-408 842,-427 915,-427 915,-408 842,-408"/>
<text text-anchor="middle" x="878.5" y="-415" font-family="Helvetica,sans-Serif" font-size="10.00">l4/re/consts</text>
</a>
</g>
</g>
<!-- Node1&#45;&gt;Node6 -->
<g id="edge5" class="edge">
<title>Node1&#45;&gt;Node6</title>
<path fill="none" stroke="midnightblue" d="M809.02,-463.93C826.56,-452.46 850.77,-436.63 865.49,-427.01"/>
<polygon fill="midnightblue" stroke="midnightblue" points="806.99,-461.07 800.54,-469.48 810.82,-466.93 806.99,-461.07"/>
</g>
<!-- Node23 -->
<g id="node23" class="node">
<title>Node23</title>
<g id="a_node23"><a xlink:href="env.html" target="_top" xlink:title="Environment interface.">
<polygon fill="white" stroke="black" points="1217,-140 1217,-159 1276,-159 1276,-140 1217,-140"/>
<text text-anchor="middle" x="1246.5" y="-147" font-family="Helvetica,sans-Serif" font-size="10.00">l4/re/env</text>
</a>
</g>
</g>
<!-- Node1&#45;&gt;Node23 -->
<g id="edge74" class="edge">
<title>Node1&#45;&gt;Node23</title>
<path fill="none" stroke="midnightblue" d="M831.81,-473.58C861.54,-468.43 899.66,-457.24 924.5,-433 952.02,-406.15 953.5,-389.95 953.5,-351.5 953.5,-351.5 953.5,-351.5 953.5,-282.5 953.5,-267.65 1156.34,-186.13 1224.48,-159.16"/>
<polygon fill="midnightblue" stroke="midnightblue" points="831.02,-470.16 821.68,-475.17 832.1,-477.08 831.02,-470.16"/>
</g>
<!-- Node43 -->
<g id="node43" class="node">
<title>Node43</title>
<g id="a_node43"><a xlink:href="poll__timeout__kipclock_source.html" target="_top" xlink:title=" ">
<polygon fill="white" stroke="black" points="981.5,-402.5 981.5,-432.5 1103.5,-432.5 1103.5,-402.5 981.5,-402.5"/>
<text text-anchor="start" x="989.5" y="-420.5" font-family="Helvetica,sans-Serif" font-size="10.00">l4/re/util/poll_timeout</text>
<text text-anchor="middle" x="1042.5" y="-409.5" font-family="Helvetica,sans-Serif" font-size="10.00">_kipclock</text>
</a>
</g>
</g>
<!-- Node1&#45;&gt;Node43 -->
<g id="edge75" class="edge">
<title>Node1&#45;&gt;Node43</title>
<path fill="none" stroke="midnightblue" d="M831.47,-467.74C873.08,-458.03 935.91,-443.37 982.19,-432.57"/>
<polygon fill="midnightblue" stroke="midnightblue" points="830.57,-464.36 821.63,-470.04 832.16,-471.17 830.57,-464.36"/>
</g>
<!-- Node7 -->
<g id="node7" class="node">
<title>Node7</title>
<g id="a_node7"><a xlink:href="cap__alloc.html" target="_top" xlink:title="Abstract capability&#45;allocator interface.">
<polygon fill="white" stroke="black" points="1386,-341 1386,-360 1473,-360 1473,-341 1386,-341"/>
<text text-anchor="middle" x="1429.5" y="-348" font-family="Helvetica,sans-Serif" font-size="10.00">l4/re/cap_alloc</text>
</a>
</g>
</g>
<!-- Node6&#45;&gt;Node7 -->
<g id="edge6" class="edge">
<title>Node6&#45;&gt;Node7</title>
<path fill="none" stroke="midnightblue" d="M925.18,-408.89C940.26,-406.55 957.07,-404.04 972.5,-402 1124.04,-381.95 1304.59,-363.64 1385.95,-355.68"/>
<polygon fill="midnightblue" stroke="midnightblue" points="924.39,-405.48 915.05,-410.49 925.48,-412.39 924.39,-405.48"/>
</g>
<!-- Node6&#45;&gt;Node23 -->
<g id="edge29" class="edge">
<title>Node6&#45;&gt;Node23</title>
<path fill="none" stroke="midnightblue" d="M882.55,-397.87C893.56,-347.99 924.23,-214.23 939.5,-201 985.08,-161.51 1150.05,-179.85 1208.5,-165 1214.52,-163.47 1220.89,-161.28 1226.66,-159.06"/>
<polygon fill="midnightblue" stroke="midnightblue" points="879.07,-397.39 880.35,-407.91 885.91,-398.89 879.07,-397.39"/>
</g>
<!-- Node31 -->
<g id="node31" class="node">
<title>Node31</title>
<g id="a_node31"><a xlink:href="object__registry_source.html" target="_top" xlink:title=" ">
<polygon fill="white" stroke="black" points="452,-73 452,-92 585,-92 585,-73 452,-73"/>
<text text-anchor="middle" x="518.5" y="-80" font-family="Helvetica,sans-Serif" font-size="10.00">l4/re/util/object_registry</text>
</a>
</g>
</g>
<!-- Node6&#45;&gt;Node31 -->
<g id="edge73" class="edge">
<title>Node6&#45;&gt;Node31</title>
<path fill="none" stroke="midnightblue" d="M841.45,-404.87C758.98,-378.46 567.5,-313.96 567.5,-284.5 567.5,-284.5 567.5,-284.5 567.5,-215.5 567.5,-166.12 536.99,-112.48 524.12,-92.05"/>
<polygon fill="midnightblue" stroke="midnightblue" points="840.58,-408.27 851.17,-407.97 842.71,-401.6 840.58,-408.27"/>
</g>
<!-- Node32 -->
<g id="node32" class="node">
<title>Node32</title>
<g id="a_node32"><a xlink:href="rm.html" target="_top" xlink:title="Region mapper interface.">
<polygon fill="white" stroke="black" points="832,-207 832,-226 887,-226 887,-207 832,-207"/>
<text text-anchor="middle" x="859.5" y="-214" font-family="Helvetica,sans-Serif" font-size="10.00">l4/re/rm</text>
</a>
</g>
</g>
<!-- Node6&#45;&gt;Node32 -->
<g id="edge44" class="edge">
<title>Node6&#45;&gt;Node32</title>
<path fill="none" stroke="midnightblue" d="M876.71,-397.8C872.72,-356.01 863.21,-256.33 860.33,-226.24"/>
<polygon fill="midnightblue" stroke="midnightblue" points="873.25,-398.33 877.68,-407.95 880.22,-397.66 873.25,-398.33"/>
</g>
<!-- Node37 -->
<g id="node37" class="node">
<title>Node37</title>
<g id="a_node37"><a xlink:href="util_2cap__alloc.html" target="_top" xlink:title="Capability allocator.">
<polygon fill="white" stroke="black" points="414.5,-207 414.5,-226 520.5,-226 520.5,-207 414.5,-207"/>
<text text-anchor="middle" x="467.5" y="-214" font-family="Helvetica,sans-Serif" font-size="10.00">l4/re/util/cap_alloc</text>
</a>
</g>
</g>
<!-- Node6&#45;&gt;Node37 -->
<g id="edge55" class="edge">
<title>Node6&#45;&gt;Node37</title>
<path fill="none" stroke="midnightblue" d="M844.28,-404.98C840.33,-403.87 836.35,-402.85 832.5,-402 771.45,-388.55 603.54,-403.47 553.5,-366 515.43,-337.49 535.74,-308.31 510.5,-268 500.48,-251.99 485.65,-235.77 476.29,-226.18"/>
<polygon fill="midnightblue" stroke="midnightblue" points="843.31,-408.35 853.89,-407.86 845.31,-401.64 843.31,-408.35"/>
</g>
<!-- Node41 -->
<g id="node41" class="node">
<title>Node41</title>
<g id="a_node41"><a xlink:href="counting__cap__alloc.html" target="_top" xlink:title="Reference&#45;counting capability allocator.">
<polygon fill="white" stroke="black" points="398.5,-335.5 398.5,-365.5 500.5,-365.5 500.5,-335.5 398.5,-335.5"/>
<text text-anchor="start" x="406.5" y="-353.5" font-family="Helvetica,sans-Serif" font-size="10.00">l4/re/util/counting</text>
<text text-anchor="middle" x="449.5" y="-342.5" font-family="Helvetica,sans-Serif" font-size="10.00">_cap_alloc</text>
</a>
</g>
</g>
<!-- Node6&#45;&gt;Node41 -->
<g id="edge70" class="edge">
<title>Node6&#45;&gt;Node41</title>
<path fill="none" stroke="midnightblue" d="M844.56,-405C840.53,-403.87 836.44,-402.84 832.5,-402 693.8,-372.55 655.38,-389.24 515.5,-366 510.64,-365.19 505.6,-364.26 500.56,-363.26"/>
<polygon fill="midnightblue" stroke="midnightblue" points="843.8,-408.42 854.38,-407.94 845.81,-401.72 843.8,-408.42"/>
</g>
<!-- Node8 -->
<g id="node8" class="node">
<title>Node8</title>
<g id="a_node8"><a xlink:href="vfs_8h_source.html" target="_top" xlink:title=" ">
<polygon fill="white" stroke="black" points="1528,-274 1528,-293 1623,-293 1623,-274 1528,-274"/>
<text text-anchor="middle" x="1575.5" y="-281" font-family="Helvetica,sans-Serif" font-size="10.00">l4/l4re_vfs/vfs.h</text>
</a>
</g>
</g>
<!-- Node7&#45;&gt;Node8 -->
<g id="edge7" class="edge">
<title>Node7&#45;&gt;Node8</title>
<path fill="none" stroke="midnightblue" d="M1458.07,-336.78C1486.98,-323.91 1530.9,-304.35 1556.03,-293.17"/>
<polygon fill="midnightblue" stroke="midnightblue" points="1456.6,-333.6 1448.89,-340.87 1459.45,-340 1456.6,-333.6"/>
</g>
<!-- Node19 -->
<g id="node19" class="node">
<title>Node19</title>
<g id="a_node19"><a xlink:href="shared__cap.html" target="_top" xlink:title="Shared_cap / Shared_del_cap.">
<polygon fill="white" stroke="black" points="1728,-274 1728,-293 1825,-293 1825,-274 1728,-274"/>
<text text-anchor="middle" x="1776.5" y="-281" font-family="Helvetica,sans-Serif" font-size="10.00">l4/re/shared_cap</text>
</a>
</g>
</g>
<!-- Node7&#45;&gt;Node19 -->
<g id="edge21" class="edge">
<title>Node7&#45;&gt;Node19</title>
<path fill="none" stroke="midnightblue" d="M1483.17,-339.45C1551.12,-326.72 1667,-305.01 1730.88,-293.05"/>
<polygon fill="midnightblue" stroke="midnightblue" points="1482.28,-336.05 1473.1,-341.33 1483.57,-342.93 1482.28,-336.05"/>
</g>
<!-- Node20 -->
<g id="node20" class="node">
<title>Node20</title>
<g id="a_node20"><a xlink:href="unique__cap.html" target="_top" xlink:title="Unique_cap / Unique_del_cap.">
<polygon fill="white" stroke="black" points="1887,-207 1887,-226 1984,-226 1984,-207 1887,-207"/>
<text text-anchor="middle" x="1935.5" y="-214" font-family="Helvetica,sans-Serif" font-size="10.00">l4/re/unique_cap</text>
</a>
</g>
</g>
<!-- Node7&#45;&gt;Node20 -->
<g id="edge23" class="edge">
<title>Node7&#45;&gt;Node20</title>
<path fill="none" stroke="midnightblue" d="M1483.19,-346.46C1578.33,-340.47 1772.36,-325.38 1834.5,-299 1874.94,-281.83 1912.38,-243.53 1927.92,-226.25"/>
<polygon fill="midnightblue" stroke="midnightblue" points="1482.96,-342.97 1473.19,-347.08 1483.39,-349.95 1482.96,-342.97"/>
</g>
<!-- Node21 -->
<g id="node21" class="node">
<title>Node21</title>
<g id="a_node21"><a xlink:href="env__ns_source.html" target="_top" xlink:title=" ">
<polygon fill="white" stroke="black" points="1259,-73 1259,-92 1354,-92 1354,-73 1259,-73"/>
<text text-anchor="middle" x="1306.5" y="-80" font-family="Helvetica,sans-Serif" font-size="10.00">l4/re/util/env_ns</text>
</a>
</g>
</g>
<!-- Node7&#45;&gt;Node21 -->
<g id="edge26" class="edge">
<title>Node7&#45;&gt;Node21</title>
<path fill="none" stroke="midnightblue" d="M1417.28,-332.22C1395.46,-300.56 1349.69,-230.46 1324.5,-165 1314.72,-139.58 1309.59,-107.54 1307.56,-92.31"/>
<polygon fill="midnightblue" stroke="midnightblue" points="1414.65,-334.56 1423.24,-340.77 1420.39,-330.56 1414.65,-334.56"/>
</g>
<!-- Node22 -->
<g id="node22" class="node">
<title>Node22</title>
<g id="a_node22"><a xlink:href="util_2event.html" target="_top" xlink:title=" ">
<polygon fill="white" stroke="black" points="603.5,-73 603.5,-92 691.5,-92 691.5,-73 603.5,-73"/>
<text text-anchor="middle" x="647.5" y="-80" font-family="Helvetica,sans-Serif" font-size="10.00">l4/re/util/event</text>
</a>
</g>
</g>
<!-- Node7&#45;&gt;Node22 -->
<g id="edge28" class="edge">
<title>Node7&#45;&gt;Node22</title>
<path fill="none" stroke="midnightblue" d="M1375.47,-342.84C1268.34,-328.8 1022.1,-292.41 822.5,-232 748.71,-209.67 710.86,-225.04 662.5,-165 645.17,-143.49 645.4,-108.4 646.59,-92.2"/>
<polygon fill="midnightblue" stroke="midnightblue" points="1375.34,-346.35 1385.7,-344.17 1376.24,-339.41 1375.34,-346.35"/>
</g>
<!-- Node9 -->
<g id="node9" class="node">
<title>Node9</title>
<g id="a_node9"><a xlink:href="backend_source.html" target="_top" xlink:title=" ">
<polygon fill="white" stroke="black" points="1520,-207 1520,-226 1631,-226 1631,-207 1520,-207"/>
<text text-anchor="middle" x="1575.5" y="-214" font-family="Helvetica,sans-Serif" font-size="10.00">l4/l4re_vfs/backend</text>
</a>
</g>
</g>
<!-- Node8&#45;&gt;Node9 -->
<g id="edge8" class="edge">
<title>Node8&#45;&gt;Node9</title>
<path fill="none" stroke="midnightblue" d="M1575.5,-263.54C1575.5,-251.17 1575.5,-235.62 1575.5,-226.13"/>
<polygon fill="midnightblue" stroke="midnightblue" points="1572,-263.73 1575.5,-273.73 1579,-263.73 1572,-263.73"/>
</g>
<!-- Node17 -->
<g id="node17" class="node">
<title>Node17</title>
<g id="a_node17"><a xlink:href="fd__store_8h_source.html" target="_top" xlink:title=" ">
<polygon fill="white" stroke="black" points="1671,-201.5 1671,-231.5 1776,-231.5 1776,-201.5 1671,-201.5"/>
<text text-anchor="start" x="1679" y="-219.5" font-family="Helvetica,sans-Serif" font-size="10.00">l4/l4re_vfs/impl/fd</text>
<text text-anchor="middle" x="1723.5" y="-208.5" font-family="Helvetica,sans-Serif" font-size="10.00">_store.h</text>
</a>
</g>
</g>
<!-- Node8&#45;&gt;Node17 -->
<g id="edge18" class="edge">
<title>Node8&#45;&gt;Node17</title>
<path fill="none" stroke="midnightblue" d="M1604.49,-269.77C1629.54,-258.77 1665.69,-242.89 1691.56,-231.53"/>
<polygon fill="midnightblue" stroke="midnightblue" points="1602.9,-266.64 1595.15,-273.87 1605.72,-273.05 1602.9,-266.64"/>
</g>
<!-- Node10 -->
<g id="node10" class="node">
<title>Node10</title>
<g id="a_node10"><a xlink:href="ns__fs_8h_source.html" target="_top" xlink:title=" ">
<polygon fill="white" stroke="black" points="1870.5,-140 1870.5,-159 2000.5,-159 2000.5,-140 1870.5,-140"/>
<text text-anchor="middle" x="1935.5" y="-147" font-family="Helvetica,sans-Serif" font-size="10.00">l4/l4re_vfs/impl/ns_fs.h</text>
</a>
</g>
</g>
<!-- Node9&#45;&gt;Node10 -->
<g id="edge9" class="edge">
<title>Node9&#45;&gt;Node10</title>
<path fill="none" stroke="midnightblue" d="M1633.01,-205.12C1703.77,-192.34 1822.56,-170.89 1888.25,-159.03"/>
<polygon fill="midnightblue" stroke="midnightblue" points="1632.15,-201.71 1622.93,-206.94 1633.4,-208.6 1632.15,-201.71"/>
</g>
<!-- Node12 -->
<g id="node12" class="node">
<title>Node12</title>
<g id="a_node12"><a xlink:href="vfs__impl_8h_source.html" target="_top" xlink:title=" ">
<polygon fill="white" stroke="black" points="1632.5,-67.5 1632.5,-97.5 1742.5,-97.5 1742.5,-67.5 1632.5,-67.5"/>
<text text-anchor="start" x="1640.5" y="-85.5" font-family="Helvetica,sans-Serif" font-size="10.00">l4/l4re_vfs/impl/vfs</text>
<text text-anchor="middle" x="1687.5" y="-74.5" font-family="Helvetica,sans-Serif" font-size="10.00">_impl.h</text>
</a>
</g>
</g>
<!-- Node9&#45;&gt;Node12 -->
<g id="edge17" class="edge">
<title>Node9&#45;&gt;Node12</title>
<path fill="none" stroke="midnightblue" d="M1591.53,-199.42C1601.06,-189.67 1613.24,-176.87 1623.5,-165 1643.27,-142.14 1664.65,-114.18 1677.02,-97.66"/>
<polygon fill="midnightblue" stroke="midnightblue" points="1588.79,-197.22 1584.26,-206.8 1593.77,-202.13 1588.79,-197.22"/>
</g>
<!-- Node13 -->
<g id="node13" class="node">
<title>Node13</title>
<g id="a_node13"><a xlink:href="ro__file_8h_source.html" target="_top" xlink:title=" ">
<polygon fill="white" stroke="black" points="1333,-134.5 1333,-164.5 1438,-164.5 1438,-134.5 1333,-134.5"/>
<text text-anchor="start" x="1341" y="-152.5" font-family="Helvetica,sans-Serif" font-size="10.00">l4/l4re_vfs/impl/ro</text>
<text text-anchor="middle" x="1385.5" y="-141.5" font-family="Helvetica,sans-Serif" font-size="10.00">_file.h</text>
</a>
</g>
</g>
<!-- Node9&#45;&gt;Node13 -->
<g id="edge12" class="edge">
<title>Node9&#45;&gt;Node13</title>
<path fill="none" stroke="midnightblue" d="M1540.39,-203.49C1508.18,-192.47 1460.46,-176.14 1426.51,-164.53"/>
<polygon fill="midnightblue" stroke="midnightblue" points="1539.67,-206.94 1550.27,-206.87 1541.94,-200.32 1539.67,-206.94"/>
</g>
<!-- Node15 -->
<g id="node15" class="node">
<title>Node15</title>
<g id="a_node15"><a xlink:href="vcon__stream_8h_source.html" target="_top" xlink:title=" ">
<polygon fill="white" stroke="black" points="1495,-134.5 1495,-164.5 1614,-164.5 1614,-134.5 1495,-134.5"/>
<text text-anchor="start" x="1503" y="-152.5" font-family="Helvetica,sans-Serif" font-size="10.00">l4/l4re_vfs/impl/vcon</text>
<text text-anchor="middle" x="1554.5" y="-141.5" font-family="Helvetica,sans-Serif" font-size="10.00">_stream.h</text>
</a>
</g>
</g>
<!-- Node9&#45;&gt;Node15 -->
<g id="edge14" class="edge">
<title>Node9&#45;&gt;Node15</title>
<path fill="none" stroke="midnightblue" d="M1569.54,-197.06C1566.21,-186.75 1562.13,-174.1 1559.05,-164.59"/>
<polygon fill="midnightblue" stroke="midnightblue" points="1566.26,-198.29 1572.67,-206.73 1572.92,-196.14 1566.26,-198.29"/>
</g>
<!-- Node11 -->
<g id="node11" class="node">
<title>Node11</title>
<g id="a_node11"><a xlink:href="ns__fs__impl_8h_source.html" target="_top" xlink:title=" ">
<polygon fill="white" stroke="black" points="1882,-0.5 1882,-30.5 1989,-30.5 1989,-0.5 1882,-0.5"/>
<text text-anchor="start" x="1890" y="-18.5" font-family="Helvetica,sans-Serif" font-size="10.00">l4/l4re_vfs/impl/ns</text>
<text text-anchor="middle" x="1935.5" y="-7.5" font-family="Helvetica,sans-Serif" font-size="10.00">_fs_impl.h</text>
</a>
</g>
</g>
<!-- Node10&#45;&gt;Node11 -->
<g id="edge10" class="edge">
<title>Node10&#45;&gt;Node11</title>
<path fill="none" stroke="midnightblue" d="M1935.5,-129.53C1935.5,-102.81 1935.5,-54.69 1935.5,-30.78"/>
<polygon fill="midnightblue" stroke="midnightblue" points="1932,-129.84 1935.5,-139.84 1939,-129.84 1932,-129.84"/>
</g>
<!-- Node10&#45;&gt;Node12 -->
<g id="edge11" class="edge">
<title>Node10&#45;&gt;Node12</title>
<path fill="none" stroke="midnightblue" d="M1892.91,-137.34C1850.92,-126.33 1786.6,-109.47 1741.14,-97.56"/>
<polygon fill="midnightblue" stroke="midnightblue" points="1892.26,-140.79 1902.82,-139.94 1894.04,-134.01 1892.26,-140.79"/>
</g>
<!-- Node14 -->
<g id="node14" class="node">
<title>Node14</title>
<g id="a_node14"><a xlink:href="ro__file__impl_8h_source.html" target="_top" xlink:title=" ">
<polygon fill="white" stroke="black" points="1372,-67.5 1372,-97.5 1477,-97.5 1477,-67.5 1372,-67.5"/>
<text text-anchor="start" x="1380" y="-85.5" font-family="Helvetica,sans-Serif" font-size="10.00">l4/l4re_vfs/impl/ro</text>
<text text-anchor="middle" x="1424.5" y="-74.5" font-family="Helvetica,sans-Serif" font-size="10.00">_file_impl.h</text>
</a>
</g>
</g>
<!-- Node13&#45;&gt;Node14 -->
<g id="edge13" class="edge">
<title>Node13&#45;&gt;Node14</title>
<path fill="none" stroke="midnightblue" d="M1399.25,-125.58C1404.86,-116.24 1411.15,-105.75 1416.05,-97.58"/>
<polygon fill="midnightblue" stroke="midnightblue" points="1396.11,-124.02 1393.96,-134.4 1402.11,-127.62 1396.11,-124.02"/>
</g>
<!-- Node15&#45;&gt;Node12 -->
<g id="edge16" class="edge">
<title>Node15&#45;&gt;Node12</title>
<path fill="none" stroke="midnightblue" d="M1592.37,-129.99C1613.45,-119.69 1639.28,-107.07 1658.7,-97.58"/>
<polygon fill="midnightblue" stroke="midnightblue" points="1590.81,-126.86 1583.36,-134.4 1593.88,-133.15 1590.81,-126.86"/>
</g>
<!-- Node16 -->
<g id="node16" class="node">
<title>Node16</title>
<g id="a_node16"><a xlink:href="vcon__stream__impl_8h_source.html" target="_top" xlink:title=" ">
<polygon fill="white" stroke="black" points="1495,-67.5 1495,-97.5 1614,-97.5 1614,-67.5 1495,-67.5"/>
<text text-anchor="start" x="1503" y="-85.5" font-family="Helvetica,sans-Serif" font-size="10.00">l4/l4re_vfs/impl/vcon</text>
<text text-anchor="middle" x="1554.5" y="-74.5" font-family="Helvetica,sans-Serif" font-size="10.00">_stream_impl.h</text>
</a>
</g>
</g>
<!-- Node15&#45;&gt;Node16 -->
<g id="edge15" class="edge">
<title>Node15&#45;&gt;Node16</title>
<path fill="none" stroke="midnightblue" d="M1554.5,-124.11C1554.5,-115.15 1554.5,-105.32 1554.5,-97.58"/>
<polygon fill="midnightblue" stroke="midnightblue" points="1551,-124.4 1554.5,-134.4 1558,-124.4 1551,-124.4"/>
</g>
<!-- Node17&#45;&gt;Node12 -->
<g id="edge20" class="edge">
<title>Node17&#45;&gt;Node12</title>
<path fill="none" stroke="midnightblue" d="M1758.58,-195.54C1769.24,-187.54 1779.67,-177.27 1785.5,-165 1791.41,-152.56 1792.67,-145.76 1785.5,-134 1775.04,-116.84 1756.67,-105.26 1738.65,-97.57"/>
<polygon fill="midnightblue" stroke="midnightblue" points="1756.27,-192.88 1750.06,-201.47 1760.27,-198.63 1756.27,-192.88"/>
</g>
<!-- Node18 -->
<g id="node18" class="node">
<title>Node18</title>
<g id="a_node18"><a xlink:href="fd__store__impl_8h_source.html" target="_top" xlink:title=" ">
<polygon fill="white" stroke="black" points="1671,-134.5 1671,-164.5 1776,-164.5 1776,-134.5 1671,-134.5"/>
<text text-anchor="start" x="1679" y="-152.5" font-family="Helvetica,sans-Serif" font-size="10.00">l4/l4re_vfs/impl/fd</text>
<text text-anchor="middle" x="1723.5" y="-141.5" font-family="Helvetica,sans-Serif" font-size="10.00">_store_impl.h</text>
</a>
</g>
</g>
<!-- Node17&#45;&gt;Node18 -->
<g id="edge19" class="edge">
<title>Node17&#45;&gt;Node18</title>
<path fill="none" stroke="midnightblue" d="M1723.5,-191.11C1723.5,-182.15 1723.5,-172.32 1723.5,-164.58"/>
<polygon fill="midnightblue" stroke="midnightblue" points="1720,-191.4 1723.5,-201.4 1727,-191.4 1720,-191.4"/>
</g>
<!-- Node19&#45;&gt;Node12 -->
<g id="edge22" class="edge">
<title>Node19&#45;&gt;Node12</title>
<path fill="none" stroke="midnightblue" d="M1786.79,-264.86C1802.55,-235.3 1828.16,-174.97 1801.5,-134 1788.28,-113.68 1764.8,-101.47 1742.58,-94.17"/>
<polygon fill="midnightblue" stroke="midnightblue" points="1783.54,-263.51 1781.73,-273.95 1789.65,-266.92 1783.54,-263.51"/>
</g>
<!-- Node20&#45;&gt;Node10 -->
<g id="edge24" class="edge">
<title>Node20&#45;&gt;Node10</title>
<path fill="none" stroke="midnightblue" d="M1935.5,-196.54C1935.5,-184.17 1935.5,-168.62 1935.5,-159.13"/>
<polygon fill="midnightblue" stroke="midnightblue" points="1932,-196.73 1935.5,-206.73 1939,-196.73 1932,-196.73"/>
</g>
<!-- Node20&#45;&gt;Node11 -->
<g id="edge25" class="edge">
<title>Node20&#45;&gt;Node11</title>
<path fill="none" stroke="midnightblue" d="M1967.16,-202.61C1982.93,-194.38 2000.51,-182.01 2009.5,-165 2015.94,-152.82 2013.32,-147.24 2009.5,-134 1997.53,-92.54 1966.12,-51.61 1948.31,-30.74"/>
<polygon fill="midnightblue" stroke="midnightblue" points="1965.62,-199.47 1958.16,-206.99 1968.68,-205.76 1965.62,-199.47"/>
</g>
<!-- Node21&#45;&gt;Node11 -->
<g id="edge27" class="edge">
<title>Node21&#45;&gt;Node11</title>
<path fill="none" stroke="midnightblue" d="M1346.3,-70.51C1352.04,-69.18 1357.9,-67.95 1363.5,-67 1552.44,-34.84 1780.19,-22.5 1881.9,-18.35"/>
<polygon fill="midnightblue" stroke="midnightblue" points="1345.07,-67.21 1336.18,-72.99 1346.73,-74.01 1345.07,-67.21"/>
</g>
<!-- Node23&#45;&gt;Node12 -->
<g id="edge36" class="edge">
<title>Node23&#45;&gt;Node12</title>
<path fill="none" stroke="midnightblue" d="M1286.02,-140.65C1298.32,-138.34 1311.95,-135.92 1324.5,-134 1456.81,-113.76 1491.61,-120.82 1623.5,-98 1626.42,-97.5 1629.4,-96.94 1632.41,-96.36"/>
<polygon fill="midnightblue" stroke="midnightblue" points="1285.22,-137.23 1276.06,-142.54 1286.53,-144.11 1285.22,-137.23"/>
</g>
<!-- Node23&#45;&gt;Node14 -->
<g id="edge34" class="edge">
<title>Node23&#45;&gt;Node14</title>
<path fill="none" stroke="midnightblue" d="M1279.78,-136.35C1309.95,-125.33 1354.42,-109.09 1386.08,-97.53"/>
<polygon fill="midnightblue" stroke="midnightblue" points="1278.33,-133.15 1270.14,-139.87 1280.73,-139.73 1278.33,-133.15"/>
</g>
<!-- Node23&#45;&gt;Node16 -->
<g id="edge35" class="edge">
<title>Node23&#45;&gt;Node16</title>
<path fill="none" stroke="midnightblue" d="M1285.95,-140.23C1333.52,-130.26 1415.87,-112.96 1486.5,-98 1489.22,-97.42 1491.99,-96.84 1494.8,-96.24"/>
<polygon fill="midnightblue" stroke="midnightblue" points="1285.13,-136.83 1276.06,-142.31 1286.57,-143.68 1285.13,-136.83"/>
</g>
<!-- Node23&#45;&gt;Node21 -->
<g id="edge37" class="edge">
<title>Node23&#45;&gt;Node21</title>
<path fill="none" stroke="midnightblue" d="M1261.61,-132.13C1273.34,-119.42 1289.15,-102.3 1298.54,-92.13"/>
<polygon fill="midnightblue" stroke="midnightblue" points="1258.8,-130.01 1254.59,-139.73 1263.95,-134.76 1258.8,-130.01"/>
</g>
<!-- Node23&#45;&gt;Node22 -->
<g id="edge38" class="edge">
<title>Node23&#45;&gt;Node22</title>
<path fill="none" stroke="midnightblue" d="M1217.84,-136.56C1214.73,-135.56 1211.57,-134.68 1208.5,-134 987.5,-85.13 923.62,-136.05 700.5,-98 692.04,-96.56 682.97,-94.34 674.78,-92.06"/>
<polygon fill="midnightblue" stroke="midnightblue" points="1216.91,-139.94 1227.51,-140 1219.26,-133.35 1216.91,-139.94"/>
</g>
<!-- Node24 -->
<g id="node24" class="node">
<title>Node24</title>
<g id="a_node24"><a xlink:href="vcpu_source.html" target="_top" xlink:title=" ">
<polygon fill="white" stroke="black" points="1162.5,-73 1162.5,-92 1240.5,-92 1240.5,-73 1162.5,-73"/>
<text text-anchor="middle" x="1201.5" y="-80" font-family="Helvetica,sans-Serif" font-size="10.00">l4/vcpu/vcpu</text>
</a>
</g>
</g>
<!-- Node23&#45;&gt;Node24 -->
<g id="edge30" class="edge">
<title>Node23&#45;&gt;Node24</title>
<path fill="none" stroke="midnightblue" d="M1234.66,-131.4C1225.92,-118.77 1214.38,-102.1 1207.47,-92.13"/>
<polygon fill="midnightblue" stroke="midnightblue" points="1231.86,-133.5 1240.43,-139.73 1237.62,-129.52 1231.86,-133.5"/>
</g>
<!-- Node25 -->
<g id="node25" class="node">
<title>Node25</title>
<g id="a_node25"><a xlink:href="client_2virtio-block_source.html" target="_top" xlink:title=" ">
<polygon fill="white" stroke="black" points="472,-0.5 472,-30.5 565,-30.5 565,-0.5 472,-0.5"/>
<text text-anchor="start" x="480" y="-18.5" font-family="Helvetica,sans-Serif" font-size="10.00">l4/l4virtio/client</text>
<text text-anchor="middle" x="518.5" y="-7.5" font-family="Helvetica,sans-Serif" font-size="10.00">/virtio&#45;block</text>
</a>
</g>
</g>
<!-- Node23&#45;&gt;Node25 -->
<g id="edge31" class="edge">
<title>Node23&#45;&gt;Node25</title>
<path fill="none" stroke="midnightblue" d="M1216.59,-136.5C1213.87,-135.59 1211.15,-134.74 1208.5,-134 1122.35,-109.95 1091.96,-134.94 1010.5,-98 990.33,-88.86 991.97,-75.45 971.5,-67 934.51,-51.74 673.22,-29.07 565.13,-20.23"/>
<polygon fill="midnightblue" stroke="midnightblue" points="1215.63,-139.87 1226.22,-139.97 1218,-133.29 1215.63,-139.87"/>
</g>
<!-- Node26 -->
<g id="node26" class="node">
<title>Node26</title>
<g id="a_node26"><a xlink:href="server_2l4virtio_source.html" target="_top" xlink:title=" ">
<polygon fill="white" stroke="black" points="260,-67.5 260,-97.5 357,-97.5 357,-67.5 260,-67.5"/>
<text text-anchor="start" x="268" y="-85.5" font-family="Helvetica,sans-Serif" font-size="10.00">l4/l4virtio/server</text>
<text text-anchor="middle" x="308.5" y="-74.5" font-family="Helvetica,sans-Serif" font-size="10.00">/l4virtio</text>
</a>
</g>
</g>
<!-- Node23&#45;&gt;Node26 -->
<g id="edge32" class="edge">
<title>Node23&#45;&gt;Node26</title>
<path fill="none" stroke="midnightblue" d="M1217.86,-136.48C1214.74,-135.5 1211.58,-134.64 1208.5,-134 874.87,-64.37 782.3,-124.35 442.5,-98 414.15,-95.8 382.53,-92.42 357.13,-89.48"/>
<polygon fill="midnightblue" stroke="midnightblue" points="1216.93,-139.87 1227.53,-139.91 1219.27,-133.27 1216.93,-139.87"/>
</g>
<!-- Node28 -->
<g id="node28" class="node">
<title>Node28</title>
<g id="a_node28"><a xlink:href="icu__svr_source.html" target="_top" xlink:title=" ">
<polygon fill="white" stroke="black" points="710,-73 710,-92 805,-92 805,-73 710,-73"/>
<text text-anchor="middle" x="757.5" y="-80" font-family="Helvetica,sans-Serif" font-size="10.00">l4/re/util/icu_svr</text>
</a>
</g>
</g>
<!-- Node23&#45;&gt;Node28 -->
<g id="edge39" class="edge">
<title>Node23&#45;&gt;Node28</title>
<path fill="none" stroke="midnightblue" d="M1217.62,-136.55C1214.58,-135.57 1211.5,-134.69 1208.5,-134 1036.77,-94.21 987.18,-128.19 813.5,-98 804.69,-96.47 795.24,-94.25 786.66,-92.01"/>
<polygon fill="midnightblue" stroke="midnightblue" points="1216.5,-139.87 1227.1,-139.93 1218.85,-133.27 1216.5,-139.87"/>
</g>
<!-- Node30 -->
<g id="node30" class="node">
<title>Node30</title>
<g id="a_node30"><a xlink:href="kumem__alloc.html" target="_top" xlink:title="Kumem allocator helper.">
<polygon fill="white" stroke="black" points="1019,-73 1019,-92 1144,-92 1144,-73 1019,-73"/>
<text text-anchor="middle" x="1081.5" y="-80" font-family="Helvetica,sans-Serif" font-size="10.00">l4/re/util/kumem_alloc</text>
</a>
</g>
</g>
<!-- Node23&#45;&gt;Node30 -->
<g id="edge41" class="edge">
<title>Node23&#45;&gt;Node30</title>
<path fill="none" stroke="midnightblue" d="M1215.03,-136.1C1182.27,-123.2 1131.83,-103.33 1103.24,-92.06"/>
<polygon fill="midnightblue" stroke="midnightblue" points="1214,-139.46 1224.59,-139.87 1216.57,-132.95 1214,-139.46"/>
</g>
<!-- Node23&#45;&gt;Node31 -->
<g id="edge42" class="edge">
<title>Node23&#45;&gt;Node31</title>
<path fill="none" stroke="midnightblue" d="M1217.85,-136.52C1214.73,-135.53 1211.58,-134.66 1208.5,-134 941.24,-76.6 865.77,-131.69 594.5,-98 582.5,-96.51 569.55,-94.28 557.79,-92"/>
<polygon fill="midnightblue" stroke="midnightblue" points="1216.92,-139.9 1227.52,-139.95 1219.26,-133.31 1216.92,-139.9"/>
</g>
<!-- Node27 -->
<g id="node27" class="node">
<title>Node27</title>
<g id="a_node27"><a xlink:href="server_2virtio-block_source.html" target="_top" xlink:title=" ">
<polygon fill="white" stroke="black" points="299,-0.5 299,-30.5 396,-30.5 396,-0.5 299,-0.5"/>
<text text-anchor="start" x="307" y="-18.5" font-family="Helvetica,sans-Serif" font-size="10.00">l4/l4virtio/server</text>
<text text-anchor="middle" x="347.5" y="-7.5" font-family="Helvetica,sans-Serif" font-size="10.00">/virtio&#45;block</text>
</a>
</g>
</g>
<!-- Node26&#45;&gt;Node27 -->
<g id="edge33" class="edge">
<title>Node26&#45;&gt;Node27</title>
<path fill="none" stroke="midnightblue" d="M322.25,-58.58C327.86,-49.24 334.15,-38.75 339.05,-30.58"/>
<polygon fill="midnightblue" stroke="midnightblue" points="319.11,-57.02 316.96,-67.4 325.11,-60.62 319.11,-57.02"/>
</g>
<!-- Node29 -->
<g id="node29" class="node">
<title>Node29</title>
<g id="a_node29"><a xlink:href="event__svr_source.html" target="_top" xlink:title=" ">
<polygon fill="white" stroke="black" points="703.5,-6 703.5,-25 811.5,-25 811.5,-6 703.5,-6"/>
<text text-anchor="middle" x="757.5" y="-13" font-family="Helvetica,sans-Serif" font-size="10.00">l4/re/util/event_svr</text>
</a>
</g>
</g>
<!-- Node28&#45;&gt;Node29 -->
<g id="edge40" class="edge">
<title>Node28&#45;&gt;Node29</title>
<path fill="none" stroke="midnightblue" d="M757.5,-62.54C757.5,-50.17 757.5,-34.62 757.5,-25.13"/>
<polygon fill="midnightblue" stroke="midnightblue" points="754,-62.73 757.5,-72.73 761,-62.73 754,-62.73"/>
</g>
<!-- Node31&#45;&gt;Node25 -->
<g id="edge43" class="edge">
<title>Node31&#45;&gt;Node25</title>
<path fill="none" stroke="midnightblue" d="M518.5,-62.41C518.5,-52.22 518.5,-39.9 518.5,-30.59"/>
<polygon fill="midnightblue" stroke="midnightblue" points="515,-62.73 518.5,-72.73 522,-62.73 515,-62.73"/>
</g>
<!-- Node32&#45;&gt;Node12 -->
<g id="edge46" class="edge">
<title>Node32&#45;&gt;Node12</title>
<path fill="none" stroke="midnightblue" d="M897.61,-215.08C1011.38,-213.39 1346.86,-205.04 1447.5,-165 1468.07,-156.82 1466.65,-143.81 1486.5,-134 1499.65,-127.51 1577.54,-108.81 1632.4,-96.08"/>
<polygon fill="midnightblue" stroke="midnightblue" points="897.26,-211.59 887.31,-215.23 897.36,-218.59 897.26,-211.59"/>
</g>
<!-- Node32&#45;&gt;Node22 -->
<g id="edge49" class="edge">
<title>Node32&#45;&gt;Node22</title>
<path fill="none" stroke="midnightblue" d="M851.47,-197.91C842.18,-179.46 825.21,-150.83 802.5,-134 792.21,-126.38 718.99,-104.29 676.97,-92"/>
<polygon fill="midnightblue" stroke="midnightblue" points="848.34,-199.49 855.83,-206.98 854.65,-196.45 848.34,-199.49"/>
</g>
<!-- Node32&#45;&gt;Node23 -->
<g id="edge47" class="edge">
<title>Node32&#45;&gt;Node23</title>
<path fill="none" stroke="midnightblue" d="M891.08,-203.79C894.57,-202.74 898.09,-201.78 901.5,-201 1035.43,-170.41 1075.08,-197.74 1208.5,-165 1214.53,-163.52 1220.91,-161.34 1226.68,-159.12"/>
<polygon fill="midnightblue" stroke="midnightblue" points="889.9,-200.49 881.47,-206.92 892.07,-207.15 889.9,-200.49"/>
</g>
<!-- Node32&#45;&gt;Node26 -->
<g id="edge45" class="edge">
<title>Node32&#45;&gt;Node26</title>
<path fill="none" stroke="midnightblue" d="M821.47,-214.12C707.88,-209.7 376.57,-194.38 338.5,-165 317.49,-148.79 311.19,-116.34 309.3,-97.65"/>
<polygon fill="midnightblue" stroke="midnightblue" points="821.64,-217.63 831.77,-214.52 821.91,-210.64 821.64,-217.63"/>
</g>
<!-- Node33 -->
<g id="node33" class="node">
<title>Node33</title>
<g id="a_node33"><a xlink:href="rm__impl_8h.html" target="_top" xlink:title="Region map client stub implementation.">
<polygon fill="white" stroke="black" points="887.5,-140 887.5,-159 1003.5,-159 1003.5,-140 887.5,-140"/>
<text text-anchor="middle" x="945.5" y="-147" font-family="Helvetica,sans-Serif" font-size="10.00">l4/re/impl/rm_impl.h</text>
</a>
</g>
</g>
<!-- Node32&#45;&gt;Node33 -->
<g id="edge48" class="edge">
<title>Node32&#45;&gt;Node33</title>
<path fill="none" stroke="midnightblue" d="M879.26,-200.57C896.23,-187.74 920.12,-169.69 934.09,-159.13"/>
<polygon fill="midnightblue" stroke="midnightblue" points="876.97,-197.91 871.1,-206.73 881.19,-203.5 876.97,-197.91"/>
</g>
<!-- Node34 -->
<g id="node34" class="node">
<title>Node34</title>
<g id="a_node34"><a xlink:href="event__buffer_source.html" target="_top" xlink:title=" ">
<polygon fill="white" stroke="black" points="671.5,-140 671.5,-159 793.5,-159 793.5,-140 671.5,-140"/>
<text text-anchor="middle" x="732.5" y="-147" font-family="Helvetica,sans-Serif" font-size="10.00">l4/re/util/event_buffer</text>
</a>
</g>
</g>
<!-- Node32&#45;&gt;Node34 -->
<g id="edge50" class="edge">
<title>Node32&#45;&gt;Node34</title>
<path fill="none" stroke="midnightblue" d="M833.66,-202.27C808.5,-189.4 771.01,-170.21 749.43,-159.17"/>
<polygon fill="midnightblue" stroke="midnightblue" points="832.14,-205.43 842.64,-206.87 835.33,-199.2 832.14,-205.43"/>
</g>
<!-- Node35 -->
<g id="node35" class="node">
<title>Node35</title>
<g id="a_node35"><a xlink:href="region__mapping.html" target="_top" xlink:title="Region handling.">
<polygon fill="white" stroke="black" points="1060,-140 1060,-159 1199,-159 1199,-140 1060,-140"/>
<text text-anchor="middle" x="1129.5" y="-147" font-family="Helvetica,sans-Serif" font-size="10.00">l4/re/util/region_mapping</text>
</a>
</g>
</g>
<!-- Node32&#45;&gt;Node35 -->
<g id="edge52" class="edge">
<title>Node32&#45;&gt;Node35</title>
<path fill="none" stroke="midnightblue" d="M892.47,-203.72C895.51,-202.76 898.55,-201.83 901.5,-201 963.93,-183.37 1037.38,-168.05 1083.7,-159.04"/>
<polygon fill="midnightblue" stroke="midnightblue" points="891.29,-200.42 882.9,-206.89 893.49,-207.07 891.29,-200.42"/>
</g>
<!-- Node36 -->
<g id="node36" class="node">
<title>Node36</title>
<g id="a_node36"><a xlink:href="region__mapping__svr__2_source.html" target="_top" xlink:title=" ">
<polygon fill="white" stroke="black" points="823,-67.5 823,-97.5 962,-97.5 962,-67.5 823,-67.5"/>
<text text-anchor="start" x="831" y="-85.5" font-family="Helvetica,sans-Serif" font-size="10.00">l4/re/util/region_mapping</text>
<text text-anchor="middle" x="892.5" y="-74.5" font-family="Helvetica,sans-Serif" font-size="10.00">_svr_2</text>
</a>
</g>
</g>
<!-- Node32&#45;&gt;Node36 -->
<g id="edge54" class="edge">
<title>Node32&#45;&gt;Node36</title>
<path fill="none" stroke="midnightblue" d="M893.56,-203.68C896.24,-202.77 898.91,-201.87 901.5,-201 950.68,-184.54 982,-206.95 1012.5,-165 1035.01,-134.04 988.48,-111.11 946.97,-97.59"/>
<polygon fill="midnightblue" stroke="midnightblue" points="892.23,-200.44 883.9,-206.99 894.5,-207.06 892.23,-200.44"/>
</g>
<!-- Node34&#45;&gt;Node22 -->
<g id="edge51" class="edge">
<title>Node34&#45;&gt;Node22</title>
<path fill="none" stroke="midnightblue" d="M712.97,-133.57C696.2,-120.74 672.59,-102.69 658.78,-92.13"/>
<polygon fill="midnightblue" stroke="midnightblue" points="710.97,-136.44 721.04,-139.73 715.22,-130.88 710.97,-136.44"/>
</g>
<!-- Node35&#45;&gt;Node36 -->
<g id="edge53" class="edge">
<title>Node35&#45;&gt;Node36</title>
<path fill="none" stroke="midnightblue" d="M1088.29,-137.2C1048.12,-126.18 986.91,-109.39 943.65,-97.53"/>
<polygon fill="midnightblue" stroke="midnightblue" points="1087.46,-140.6 1098.03,-139.87 1089.31,-133.85 1087.46,-140.6"/>
</g>
<!-- Node37&#45;&gt;Node21 -->
<g id="edge58" class="edge">
<title>Node37&#45;&gt;Node21</title>
<path fill="none" stroke="midnightblue" d="M530.66,-210.49C598.71,-204.05 709.72,-190.52 802.5,-165 837.67,-155.32 843.08,-142.74 878.5,-134 1039.34,-94.3 1086.31,-126.5 1249.5,-98 1258.35,-96.45 1267.85,-94.26 1276.51,-92.04"/>
<polygon fill="midnightblue" stroke="midnightblue" points="530.16,-207.02 520.53,-211.42 530.81,-213.99 530.16,-207.02"/>
</g>
<!-- Node37&#45;&gt;Node22 -->
<g id="edge59" class="edge">
<title>Node37&#45;&gt;Node22</title>
<path fill="none" stroke="midnightblue" d="M487.51,-200.82C525.25,-173.15 605.83,-114.06 635.88,-92.02"/>
<polygon fill="midnightblue" stroke="midnightblue" points="485.3,-198.1 479.31,-206.84 489.44,-203.75 485.3,-198.1"/>
</g>
<!-- Node37&#45;&gt;Node26 -->
<g id="edge56" class="edge">
<title>Node37&#45;&gt;Node26</title>
<path fill="none" stroke="midnightblue" d="M404.27,-213.17C369.13,-208.24 328.06,-195.67 305.5,-165 291.07,-145.38 297.38,-115.34 303.08,-97.73"/>
<polygon fill="midnightblue" stroke="midnightblue" points="404.13,-216.68 414.48,-214.42 404.98,-209.73 404.13,-216.68"/>
</g>
<!-- Node37&#45;&gt;Node28 -->
<g id="edge60" class="edge">
<title>Node37&#45;&gt;Node28</title>
<path fill="none" stroke="midnightblue" d="M495.99,-202.53C555.02,-175.66 689.34,-114.53 738.78,-92.02"/>
<polygon fill="midnightblue" stroke="midnightblue" points="494.18,-199.51 486.53,-206.84 497.08,-205.88 494.18,-199.51"/>
</g>
<!-- Node37&#45;&gt;Node31 -->
<g id="edge61" class="edge">
<title>Node37&#45;&gt;Node31</title>
<path fill="none" stroke="midnightblue" d="M474.59,-197.16C485.76,-168.23 507.05,-113.13 515.21,-92.02"/>
<polygon fill="midnightblue" stroke="midnightblue" points="471.19,-196.25 470.85,-206.84 477.72,-198.77 471.19,-196.25"/>
</g>
<!-- Node38 -->
<g id="node38" class="node">
<title>Node38</title>
<g id="a_node38"><a xlink:href="br__manager_source.html" target="_top" xlink:title=" ">
<polygon fill="white" stroke="black" points="0,-140 0,-159 119,-159 119,-140 0,-140"/>
<text text-anchor="middle" x="59.5" y="-147" font-family="Helvetica,sans-Serif" font-size="10.00">l4/re/util/br_manager</text>
</a>
</g>
</g>
<!-- Node37&#45;&gt;Node38 -->
<g id="edge57" class="edge">
<title>Node37&#45;&gt;Node38</title>
<path fill="none" stroke="midnightblue" d="M404.34,-207.23C336.12,-198.03 224.32,-182.19 128.5,-165 118.62,-163.23 107.99,-161.1 98.1,-159.03"/>
<polygon fill="midnightblue" stroke="midnightblue" points="404.12,-210.73 414.49,-208.59 405.05,-203.79 404.12,-210.73"/>
</g>
<!-- Node39 -->
<g id="node39" class="node">
<title>Node39</title>
<g id="a_node39"><a xlink:href="util_2shared__cap.html" target="_top" xlink:title="Shared_cap / Shared_del_cap.">
<polygon fill="white" stroke="black" points="137.5,-140 137.5,-159 253.5,-159 253.5,-140 137.5,-140"/>
<text text-anchor="middle" x="195.5" y="-147" font-family="Helvetica,sans-Serif" font-size="10.00">l4/re/util/shared_cap</text>
</a>
</g>
</g>
<!-- Node37&#45;&gt;Node39 -->
<g id="edge62" class="edge">
<title>Node37&#45;&gt;Node39</title>
<path fill="none" stroke="midnightblue" d="M421.74,-204.56C368.11,-191.75 280.38,-170.78 231.42,-159.08"/>
<polygon fill="midnightblue" stroke="midnightblue" points="421.12,-208.02 431.66,-206.94 422.75,-201.21 421.12,-208.02"/>
</g>
<!-- Node40 -->
<g id="node40" class="node">
<title>Node40</title>
<g id="a_node40"><a xlink:href="util_2unique__cap.html" target="_top" xlink:title="Unique_cap / Unique_del_cap.">
<polygon fill="white" stroke="black" points="347.5,-140 347.5,-159 463.5,-159 463.5,-140 347.5,-140"/>
<text text-anchor="middle" x="405.5" y="-147" font-family="Helvetica,sans-Serif" font-size="10.00">l4/re/util/unique_cap</text>
</a>
</g>
</g>
<!-- Node37&#45;&gt;Node40 -->
<g id="edge64" class="edge">
<title>Node37&#45;&gt;Node40</title>
<path fill="none" stroke="midnightblue" d="M452.24,-199.5C440.08,-186.75 423.52,-169.39 413.73,-159.13"/>
<polygon fill="midnightblue" stroke="midnightblue" points="449.7,-201.91 459.14,-206.73 454.77,-197.08 449.7,-201.91"/>
</g>
<!-- Node39&#45;&gt;Node26 -->
<g id="edge63" class="edge">
<title>Node39&#45;&gt;Node26</title>
<path fill="none" stroke="midnightblue" d="M219.66,-134.6C238.63,-123.69 264.95,-108.55 284.01,-97.59"/>
<polygon fill="midnightblue" stroke="midnightblue" points="217.66,-131.71 210.74,-139.73 221.15,-137.78 217.66,-131.71"/>
</g>
<!-- Node40&#45;&gt;Node22 -->
<g id="edge68" class="edge">
<title>Node40&#45;&gt;Node22</title>
<path fill="none" stroke="midnightblue" d="M447.11,-137.32C494.9,-124.49 572.25,-103.71 615.54,-92.08"/>
<polygon fill="midnightblue" stroke="midnightblue" points="446.14,-133.96 437.39,-139.94 447.95,-140.72 446.14,-133.96"/>
</g>
<!-- Node40&#45;&gt;Node25 -->
<g id="edge65" class="edge">
<title>Node40&#45;&gt;Node25</title>
<path fill="none" stroke="midnightblue" d="M410.6,-130.09C416.2,-112.42 426.57,-85.72 442.5,-67 455.44,-51.8 474.05,-39.33 489.62,-30.58"/>
<polygon fill="midnightblue" stroke="midnightblue" points="407.22,-129.19 407.72,-139.78 413.93,-131.19 407.22,-129.19"/>
</g>
<!-- Node40&#45;&gt;Node26 -->
<g id="edge66" class="edge">
<title>Node40&#45;&gt;Node26</title>
<path fill="none" stroke="midnightblue" d="M384.09,-134.15C367.86,-123.27 345.66,-108.4 329.53,-97.59"/>
<polygon fill="midnightblue" stroke="midnightblue" points="382.16,-137.07 392.42,-139.73 386.06,-131.26 382.16,-137.07"/>
</g>
<!-- Node40&#45;&gt;Node27 -->
<g id="edge67" class="edge">
<title>Node40&#45;&gt;Node27</title>
<path fill="none" stroke="midnightblue" d="M397.63,-130.6C386,-104.11 364.42,-55.01 353.78,-30.78"/>
<polygon fill="midnightblue" stroke="midnightblue" points="394.47,-132.09 401.69,-139.84 400.88,-129.28 394.47,-132.09"/>
</g>
<!-- Node40&#45;&gt;Node31 -->
<g id="edge69" class="edge">
<title>Node40&#45;&gt;Node31</title>
<path fill="none" stroke="midnightblue" d="M429.64,-134.62C452.03,-121.74 484.64,-102.98 503.5,-92.13"/>
<polygon fill="midnightblue" stroke="midnightblue" points="427.66,-131.71 420.74,-139.73 431.15,-137.78 427.66,-131.71"/>
</g>
<!-- Node42 -->
<g id="node42" class="node">
<title>Node42</title>
<g id="a_node42"><a xlink:href="cap__alloc__impl_8h.html" target="_top" xlink:title="Capability allocator implementation.">
<polygon fill="white" stroke="black" points="395.5,-268.5 395.5,-298.5 501.5,-298.5 501.5,-268.5 395.5,-268.5"/>
<text text-anchor="start" x="403.5" y="-286.5" font-family="Helvetica,sans-Serif" font-size="10.00">l4/re/util/cap_alloc</text>
<text text-anchor="middle" x="448.5" y="-275.5" font-family="Helvetica,sans-Serif" font-size="10.00">_impl.h</text>
</a>
</g>
</g>
<!-- Node41&#45;&gt;Node42 -->
<g id="edge71" class="edge">
<title>Node41&#45;&gt;Node42</title>
<path fill="none" stroke="midnightblue" d="M449.12,-325.11C448.99,-316.15 448.84,-306.32 448.72,-298.58"/>
<polygon fill="midnightblue" stroke="midnightblue" points="445.63,-325.45 449.28,-335.4 452.63,-325.34 445.63,-325.45"/>
</g>
<!-- Node42&#45;&gt;Node37 -->
<g id="edge72" class="edge">
<title>Node42&#45;&gt;Node37</title>
<path fill="none" stroke="midnightblue" d="M455.49,-258.6C458.8,-247.28 462.54,-234.46 464.96,-226.19"/>
<polygon fill="midnightblue" stroke="midnightblue" points="452.07,-257.82 452.62,-268.4 458.79,-259.78 452.07,-257.82"/>
</g>
</g>
</svg>
