<?xml version="1.0" encoding="UTF-8" standalone="no"?>
<!DOCTYPE svg PUBLIC "-//W3C//DTD SVG 1.1//EN"
 "http://www.w3.org/Graphics/SVG/1.1/DTD/svg11.dtd">
<!-- Generated by graphviz version 2.43.0 (0)
 -->
<!-- Title: l4/re/error_helper Pages: 1 -->
<svg width="1120pt" height="823pt"
 viewBox="0.00 0.00 1120.34 823.00" xmlns="http://www.w3.org/2000/svg" xmlns:xlink="http://www.w3.org/1999/xlink">
<g id="graph0" class="graph" transform="scale(1 1) rotate(0) translate(4 819)">
<title>l4/re/error_helper</title>
<polygon fill="white" stroke="transparent" points="-4,4 -4,-819 1116.34,-819 1116.34,4 -4,4"/>
<!-- Node1 -->
<g id="node1" class="node">
<title>Node1</title>
<g id="a_node1"><a xlink:title="Error helper.">
<polygon fill="#bfbfbf" stroke="black" points="646.34,-795.5 646.34,-814.5 747.34,-814.5 747.34,-795.5 646.34,-795.5"/>
<text text-anchor="middle" x="696.84" y="-802.5" font-family="Helvetica,sans-Serif" font-size="10.00">l4/re/error_helper</text>
</a>
</g>
</g>
<!-- Node2 -->
<g id="node2" class="node">
<title>Node2</title>
<g id="a_node2"><a xlink:href="l4_2sys_2types_8h.html" target="_top" xlink:title="Common L4 ABI Data Types.">
<polygon fill="white" stroke="black" points="270.84,-168.5 270.84,-187.5 354.84,-187.5 354.84,-168.5 270.84,-168.5"/>
<text text-anchor="middle" x="312.84" y="-175.5" font-family="Helvetica,sans-Serif" font-size="10.00">l4/sys/types.h</text>
</a>
</g>
</g>
<!-- Node1&#45;&gt;Node2 -->
<g id="edge1" class="edge">
<title>Node1&#45;&gt;Node2</title>
<path fill="none" stroke="midnightblue" d="M646.22,-801.5C500.46,-792.98 86.66,-759.09 31.84,-647 -57.26,-464.84 54.15,-361.89 202.84,-224 219.95,-208.13 243.4,-197.5 264.26,-190.58"/>
<polygon fill="midnightblue" stroke="midnightblue" points="265.44,-193.88 273.94,-187.56 263.36,-187.2 265.44,-193.88"/>
</g>
<!-- Node9 -->
<g id="node9" class="node">
<title>Node9</title>
<g id="a_node9"><a xlink:href="exceptions.html" target="_top" xlink:title="Base exceptions.">
<polygon fill="white" stroke="black" points="300.84,-739.5 300.84,-758.5 402.84,-758.5 402.84,-739.5 300.84,-739.5"/>
<text text-anchor="middle" x="351.84" y="-746.5" font-family="Helvetica,sans-Serif" font-size="10.00">l4/cxx/exceptions</text>
</a>
</g>
</g>
<!-- Node1&#45;&gt;Node9 -->
<g id="edge12" class="edge">
<title>Node1&#45;&gt;Node9</title>
<path fill="none" stroke="midnightblue" d="M646.3,-796.09C584.35,-786.39 479.42,-769.97 412.99,-759.57"/>
<polygon fill="midnightblue" stroke="midnightblue" points="413.49,-756.11 403.07,-758.02 412.41,-763.02 413.49,-756.11"/>
</g>
<!-- Node12 -->
<g id="node12" class="node">
<title>Node12</title>
<g id="a_node12"><a xlink:href="err_8h.html" target="_top" xlink:title="Error codes.">
<polygon fill="white" stroke="black" points="798.84,-224.5 798.84,-243.5 868.84,-243.5 868.84,-224.5 798.84,-224.5"/>
<text text-anchor="middle" x="833.84" y="-231.5" font-family="Helvetica,sans-Serif" font-size="10.00">l4/sys/err.h</text>
</a>
</g>
</g>
<!-- Node1&#45;&gt;Node12 -->
<g id="edge71" class="edge">
<title>Node1&#45;&gt;Node12</title>
<path fill="none" stroke="midnightblue" d="M746.33,-795.49C828.18,-779.99 982.84,-744.07 982.84,-694 982.84,-694 982.84,-694 982.84,-350.5 982.84,-295.27 918.1,-262.67 873.97,-246.86"/>
<polygon fill="midnightblue" stroke="midnightblue" points="874.94,-243.49 864.35,-243.56 872.67,-250.11 874.94,-243.49"/>
</g>
<!-- Node31 -->
<g id="node31" class="node">
<title>Node31</title>
<g id="a_node31"><a xlink:href="type__traits_source.html" target="_top" xlink:title=" ">
<polygon fill="white" stroke="black" points="1011.34,-739.5 1011.34,-758.5 1112.34,-758.5 1112.34,-739.5 1011.34,-739.5"/>
<text text-anchor="middle" x="1061.84" y="-746.5" font-family="Helvetica,sans-Serif" font-size="10.00">l4/cxx/type_traits</text>
</a>
</g>
</g>
<!-- Node1&#45;&gt;Node31 -->
<g id="edge69" class="edge">
<title>Node1&#45;&gt;Node31</title>
<path fill="none" stroke="midnightblue" d="M747.59,-796.49C813.96,-786.67 930.11,-769.49 1001.09,-758.99"/>
<polygon fill="midnightblue" stroke="midnightblue" points="1001.84,-762.41 1011.22,-757.49 1000.82,-755.49 1001.84,-762.41"/>
</g>
<!-- Node3 -->
<g id="node3" class="node">
<title>Node3</title>
<g id="a_node3"><a xlink:href="l4_2sys_2l4int_8h.html" target="_top" xlink:title="Fixed sized integer types, generic version.">
<polygon fill="white" stroke="black" points="324.34,-56.5 324.34,-75.5 403.34,-75.5 403.34,-56.5 324.34,-56.5"/>
<text text-anchor="middle" x="363.84" y="-63.5" font-family="Helvetica,sans-Serif" font-size="10.00">l4/sys/l4int.h</text>
</a>
</g>
</g>
<!-- Node2&#45;&gt;Node3 -->
<g id="edge2" class="edge">
<title>Node2&#45;&gt;Node3</title>
<path fill="none" stroke="midnightblue" d="M316.84,-168.37C325.14,-150.46 344.4,-108.92 355.51,-84.95"/>
<polygon fill="midnightblue" stroke="midnightblue" points="358.82,-86.14 359.85,-75.59 352.47,-83.19 358.82,-86.14"/>
</g>
<!-- Node4 -->
<g id="node4" class="node">
<title>Node4</title>
<g id="a_node4"><a xlink:href="compiler_8h.html" target="_top" xlink:title="L4 compiler related defines.">
<polygon fill="white" stroke="black" points="626.34,-56.5 626.34,-75.5 725.34,-75.5 725.34,-56.5 626.34,-56.5"/>
<text text-anchor="middle" x="675.84" y="-63.5" font-family="Helvetica,sans-Serif" font-size="10.00">l4/sys/compiler.h</text>
</a>
</g>
</g>
<!-- Node2&#45;&gt;Node4 -->
<g id="edge3" class="edge">
<title>Node2&#45;&gt;Node4</title>
<path fill="none" stroke="midnightblue" d="M355.1,-175.67C432.3,-172.52 592.39,-162.41 637.84,-132 654.1,-121.12 664.33,-100.74 670.03,-85.69"/>
<polygon fill="midnightblue" stroke="midnightblue" points="673.46,-86.48 673.4,-75.89 666.84,-84.21 673.46,-86.48"/>
</g>
<!-- Node6 -->
<g id="node6" class="node">
<title>Node6</title>
<g id="a_node6"><a xlink:href="l4_2sys_2consts_8h.html" target="_top" xlink:title="Common constants.">
<polygon fill="white" stroke="black" points="411.34,-112.5 411.34,-131.5 500.34,-131.5 500.34,-112.5 411.34,-112.5"/>
<text text-anchor="middle" x="455.84" y="-119.5" font-family="Helvetica,sans-Serif" font-size="10.00">l4/sys/consts.h</text>
</a>
</g>
</g>
<!-- Node2&#45;&gt;Node6 -->
<g id="edge5" class="edge">
<title>Node2&#45;&gt;Node6</title>
<path fill="none" stroke="midnightblue" d="M335.49,-168.44C359.24,-159.48 396.74,-145.31 423.57,-135.18"/>
<polygon fill="midnightblue" stroke="midnightblue" points="425.16,-138.32 433.28,-131.52 422.69,-131.77 425.16,-138.32"/>
</g>
<!-- Node7 -->
<g id="node7" class="node">
<title>Node7</title>
<g id="a_node7"><a xlink:href="____l4__fpage_8h_source.html" target="_top" xlink:title=" ">
<polygon fill="white" stroke="black" points="518.84,-112.5 518.84,-131.5 628.84,-131.5 628.84,-112.5 518.84,-112.5"/>
<text text-anchor="middle" x="573.84" y="-119.5" font-family="Helvetica,sans-Serif" font-size="10.00">l4/sys/__l4_fpage.h</text>
</a>
</g>
</g>
<!-- Node2&#45;&gt;Node7 -->
<g id="edge8" class="edge">
<title>Node2&#45;&gt;Node7</title>
<path fill="none" stroke="midnightblue" d="M354.19,-168.44C399.91,-158.98 473.6,-143.74 522.86,-133.55"/>
<polygon fill="midnightblue" stroke="midnightblue" points="523.59,-136.97 532.67,-131.52 522.17,-130.12 523.59,-136.97"/>
</g>
<!-- Node8 -->
<g id="node8" class="node">
<title>Node8</title>
<g id="a_node8"><a xlink:href="____timeout_8h_source.html" target="_top" xlink:title=" ">
<polygon fill="white" stroke="black" points="210.84,-112.5 210.84,-131.5 316.84,-131.5 316.84,-112.5 210.84,-112.5"/>
<text text-anchor="middle" x="263.84" y="-119.5" font-family="Helvetica,sans-Serif" font-size="10.00">l4/sys/__timeout.h</text>
</a>
</g>
</g>
<!-- Node2&#45;&gt;Node8 -->
<g id="edge10" class="edge">
<title>Node2&#45;&gt;Node8</title>
<path fill="none" stroke="midnightblue" d="M304.74,-168.08C297.68,-160.3 287.25,-148.8 278.69,-139.37"/>
<polygon fill="midnightblue" stroke="midnightblue" points="281.09,-136.8 271.78,-131.75 275.9,-141.51 281.09,-136.8"/>
</g>
<!-- Node5 -->
<g id="node5" class="node">
<title>Node5</title>
<g id="a_node5"><a xlink:title=" ">
<polygon fill="white" stroke="#bfbfbf" points="629.84,-0.5 629.84,-19.5 721.84,-19.5 721.84,-0.5 629.84,-0.5"/>
<text text-anchor="middle" x="675.84" y="-7.5" font-family="Helvetica,sans-Serif" font-size="10.00">l4/sys/linkage.h</text>
</a>
</g>
</g>
<!-- Node4&#45;&gt;Node5 -->
<g id="edge4" class="edge">
<title>Node4&#45;&gt;Node5</title>
<path fill="none" stroke="midnightblue" d="M675.84,-56.08C675.84,-49.01 675.84,-38.86 675.84,-29.99"/>
<polygon fill="midnightblue" stroke="midnightblue" points="679.34,-29.75 675.84,-19.75 672.34,-29.75 679.34,-29.75"/>
</g>
<!-- Node6&#45;&gt;Node3 -->
<g id="edge7" class="edge">
<title>Node6&#45;&gt;Node3</title>
<path fill="none" stroke="midnightblue" d="M441.05,-112.32C426.57,-103.82 404.26,-90.73 387.34,-80.8"/>
<polygon fill="midnightblue" stroke="midnightblue" points="388.98,-77.7 378.58,-75.65 385.43,-83.74 388.98,-77.7"/>
</g>
<!-- Node6&#45;&gt;Node4 -->
<g id="edge6" class="edge">
<title>Node6&#45;&gt;Node4</title>
<path fill="none" stroke="midnightblue" d="M490.7,-112.44C528.75,-103.1 589.79,-88.12 631.3,-77.93"/>
<polygon fill="midnightblue" stroke="midnightblue" points="632.26,-81.3 641.14,-75.52 630.59,-74.5 632.26,-81.3"/>
</g>
<!-- Node7&#45;&gt;Node4 -->
<g id="edge9" class="edge">
<title>Node7&#45;&gt;Node4</title>
<path fill="none" stroke="midnightblue" d="M590.22,-112.32C606.51,-103.7 631.7,-90.36 650.55,-80.39"/>
<polygon fill="midnightblue" stroke="midnightblue" points="652.29,-83.43 659.49,-75.65 649.01,-77.24 652.29,-83.43"/>
</g>
<!-- Node8&#45;&gt;Node3 -->
<g id="edge11" class="edge">
<title>Node8&#45;&gt;Node3</title>
<path fill="none" stroke="midnightblue" d="M279.9,-112.32C295.79,-103.74 320.34,-90.49 338.79,-80.52"/>
<polygon fill="midnightblue" stroke="midnightblue" points="340.67,-83.49 347.81,-75.65 337.35,-77.33 340.67,-83.49"/>
</g>
<!-- Node10 -->
<g id="node10" class="node">
<title>Node10</title>
<g id="a_node10"><a xlink:href="l4types_8h.html" target="_top" xlink:title="L4 Types.">
<polygon fill="white" stroke="black" points="128.84,-683.5 128.84,-702.5 222.84,-702.5 222.84,-683.5 128.84,-683.5"/>
<text text-anchor="middle" x="175.84" y="-690.5" font-family="Helvetica,sans-Serif" font-size="10.00">l4/cxx/l4types.h</text>
</a>
</g>
</g>
<!-- Node9&#45;&gt;Node10 -->
<g id="edge13" class="edge">
<title>Node9&#45;&gt;Node10</title>
<path fill="none" stroke="midnightblue" d="M323.95,-739.44C294.08,-730.28 246.52,-715.69 213.38,-705.52"/>
<polygon fill="midnightblue" stroke="midnightblue" points="214.18,-702.1 203.59,-702.52 212.13,-708.8 214.18,-702.1"/>
</g>
<!-- Node11 -->
<g id="node11" class="node">
<title>Node11</title>
<g id="a_node11"><a xlink:href="basic__ostream.html" target="_top" xlink:title="Basic IO stream.">
<polygon fill="white" stroke="black" points="40.84,-627.5 40.84,-646.5 160.84,-646.5 160.84,-627.5 40.84,-627.5"/>
<text text-anchor="middle" x="100.84" y="-634.5" font-family="Helvetica,sans-Serif" font-size="10.00">l4/cxx/basic_ostream</text>
</a>
</g>
</g>
<!-- Node9&#45;&gt;Node11 -->
<g id="edge16" class="edge">
<title>Node9&#45;&gt;Node11</title>
<path fill="none" stroke="midnightblue" d="M300.67,-744.23C240.57,-738.77 145.76,-726.63 119.84,-703 106.96,-691.26 102.62,-671.33 101.25,-656.62"/>
<polygon fill="midnightblue" stroke="midnightblue" points="104.75,-656.41 100.69,-646.62 97.76,-656.8 104.75,-656.41"/>
</g>
<!-- Node9&#45;&gt;Node12 -->
<g id="edge17" class="edge">
<title>Node9&#45;&gt;Node12</title>
<path fill="none" stroke="midnightblue" d="M402.91,-743.9C546.75,-731.68 944.84,-692.91 944.84,-638 944.84,-638 944.84,-638 944.84,-350.5 944.84,-302.41 894.19,-266.58 861.31,-248.4"/>
<polygon fill="midnightblue" stroke="midnightblue" points="862.64,-245.14 852.16,-243.54 859.35,-251.32 862.64,-245.14"/>
</g>
<!-- Node13 -->
<g id="node13" class="node">
<title>Node13</title>
<g id="a_node13"><a xlink:href="capability.html" target="_top" xlink:title="L4::Cap related definitions.">
<polygon fill="white" stroke="black" points="362.84,-683.5 362.84,-702.5 458.84,-702.5 458.84,-683.5 362.84,-683.5"/>
<text text-anchor="middle" x="410.84" y="-690.5" font-family="Helvetica,sans-Serif" font-size="10.00">l4/sys/capability</text>
</a>
</g>
</g>
<!-- Node9&#45;&gt;Node13 -->
<g id="edge19" class="edge">
<title>Node9&#45;&gt;Node13</title>
<path fill="none" stroke="midnightblue" d="M361.31,-739.32C370.04,-731.34 383.18,-719.31 393.73,-709.65"/>
<polygon fill="midnightblue" stroke="midnightblue" points="396.17,-712.17 401.18,-702.83 391.44,-707 396.17,-712.17"/>
</g>
<!-- Node29 -->
<g id="node29" class="node">
<title>Node29</title>
<g id="a_node29"><a xlink:href="backtrace_8h.html" target="_top" xlink:title="Backtrace.">
<polygon fill="white" stroke="black" points="240.84,-683.5 240.84,-702.5 344.84,-702.5 344.84,-683.5 240.84,-683.5"/>
<text text-anchor="middle" x="292.84" y="-690.5" font-family="Helvetica,sans-Serif" font-size="10.00">l4/util/backtrace.h</text>
</a>
</g>
</g>
<!-- Node9&#45;&gt;Node29 -->
<g id="edge67" class="edge">
<title>Node9&#45;&gt;Node29</title>
<path fill="none" stroke="midnightblue" d="M342.36,-739.32C333.63,-731.34 320.49,-719.31 309.94,-709.65"/>
<polygon fill="midnightblue" stroke="midnightblue" points="312.23,-707 302.49,-702.83 307.5,-712.17 312.23,-707"/>
</g>
<!-- Node10&#45;&gt;Node2 -->
<g id="edge14" class="edge">
<title>Node10&#45;&gt;Node2</title>
<path fill="none" stroke="midnightblue" d="M177.54,-683.48C181.06,-665.06 188.84,-620.08 188.84,-582 188.84,-582 188.84,-582 188.84,-289 188.84,-240.26 243.11,-207.87 279.84,-191.52"/>
<polygon fill="midnightblue" stroke="midnightblue" points="281.39,-194.67 289.22,-187.52 278.65,-188.23 281.39,-194.67"/>
</g>
<!-- Node10&#45;&gt;Node11 -->
<g id="edge15" class="edge">
<title>Node10&#45;&gt;Node11</title>
<path fill="none" stroke="midnightblue" d="M163.79,-683.32C152.37,-675.11 135,-662.6 121.4,-652.81"/>
<polygon fill="midnightblue" stroke="midnightblue" points="123.27,-649.84 113.1,-646.83 119.18,-655.52 123.27,-649.84"/>
</g>
<!-- Node12&#45;&gt;Node4 -->
<g id="edge18" class="edge">
<title>Node12&#45;&gt;Node4</title>
<path fill="none" stroke="midnightblue" d="M832.67,-224.43C829.3,-202.73 817.58,-144.96 784.84,-112 768.97,-96.02 746.61,-85.47 726.27,-78.62"/>
<polygon fill="midnightblue" stroke="midnightblue" points="727.07,-75.21 716.49,-75.56 724.98,-81.89 727.07,-75.21"/>
</g>
<!-- Node13&#45;&gt;Node2 -->
<g id="edge21" class="edge">
<title>Node13&#45;&gt;Node2</title>
<path fill="none" stroke="midnightblue" d="M406.98,-683.41C388.72,-642.05 311.47,-459.04 300.84,-300 298.58,-266.3 296.45,-257.49 300.84,-224 301.99,-215.18 304.37,-205.63 306.71,-197.61"/>
<polygon fill="midnightblue" stroke="midnightblue" points="310.12,-198.42 309.75,-187.83 303.44,-196.34 310.12,-198.42"/>
</g>
<!-- Node13&#45;&gt;Node6 -->
<g id="edge20" class="edge">
<title>Node13&#45;&gt;Node6</title>
<path fill="none" stroke="midnightblue" d="M401.37,-683.42C351.32,-636.96 122.65,-410.67 202.84,-224 234.77,-149.65 337.03,-129.57 401.35,-124.43"/>
<polygon fill="midnightblue" stroke="midnightblue" points="401.6,-127.92 411.33,-123.72 401.11,-120.93 401.6,-127.92"/>
</g>
<!-- Node14 -->
<g id="node14" class="node">
<title>Node14</title>
<g id="a_node14"><a xlink:href="kobject_source.html" target="_top" xlink:title=" ">
<polygon fill="white" stroke="black" points="442.34,-515.5 442.34,-534.5 525.34,-534.5 525.34,-515.5 442.34,-515.5"/>
<text text-anchor="middle" x="483.84" y="-522.5" font-family="Helvetica,sans-Serif" font-size="10.00">l4/sys/kobject</text>
</a>
</g>
</g>
<!-- Node13&#45;&gt;Node14 -->
<g id="edge22" class="edge">
<title>Node13&#45;&gt;Node14</title>
<path fill="none" stroke="midnightblue" d="M414.76,-683.08C426.3,-656.83 460.29,-579.55 475.87,-544.12"/>
<polygon fill="midnightblue" stroke="midnightblue" points="479.25,-545.13 480.07,-534.57 472.84,-542.31 479.25,-545.13"/>
</g>
<!-- Node23 -->
<g id="node23" class="node">
<title>Node23</title>
<g id="a_node23"><a xlink:href="l4_2sys_2task_8h.html" target="_top" xlink:title="Common task related definitions.">
<polygon fill="white" stroke="black" points="370.84,-342 370.84,-361 448.84,-361 448.84,-342 370.84,-342"/>
<text text-anchor="middle" x="409.84" y="-349" font-family="Helvetica,sans-Serif" font-size="10.00">l4/sys/task.h</text>
</a>
</g>
</g>
<!-- Node13&#45;&gt;Node23 -->
<g id="edge50" class="edge">
<title>Node13&#45;&gt;Node23</title>
<path fill="none" stroke="midnightblue" d="M410.81,-683.27C410.68,-638.52 410.08,-434.57 409.89,-371.29"/>
<polygon fill="midnightblue" stroke="midnightblue" points="413.39,-371.17 409.86,-361.18 406.39,-371.19 413.39,-371.17"/>
</g>
<!-- Node24 -->
<g id="node24" class="node">
<title>Node24</title>
<g id="a_node24"><a xlink:href="sys_2meta.html" target="_top" xlink:title="Meta interface for getting dynamic type information about objects behind capabilities.">
<polygon fill="white" stroke="black" points="519.84,-627.5 519.84,-646.5 593.84,-646.5 593.84,-627.5 519.84,-627.5"/>
<text text-anchor="middle" x="556.84" y="-634.5" font-family="Helvetica,sans-Serif" font-size="10.00">l4/sys/meta</text>
</a>
</g>
</g>
<!-- Node13&#45;&gt;Node24 -->
<g id="edge51" class="edge">
<title>Node13&#45;&gt;Node24</title>
<path fill="none" stroke="midnightblue" d="M433.97,-683.44C458.32,-674.44 496.84,-660.19 524.26,-650.05"/>
<polygon fill="midnightblue" stroke="midnightblue" points="525.64,-653.27 533.81,-646.52 523.22,-646.7 525.64,-653.27"/>
</g>
<!-- Node14&#45;&gt;Node2 -->
<g id="edge36" class="edge">
<title>Node14&#45;&gt;Node2</title>
<path fill="none" stroke="midnightblue" d="M471.26,-515.4C441.1,-494.07 364.26,-435.45 325.84,-367 294.91,-311.91 303.24,-232.96 309.2,-197.49"/>
<polygon fill="midnightblue" stroke="midnightblue" points="312.66,-198.06 311,-187.59 305.77,-196.8 312.66,-198.06"/>
</g>
<!-- Node15 -->
<g id="node15" class="node">
<title>Node15</title>
<g id="a_node15"><a xlink:href="kernel__object_8h.html" target="_top" xlink:title="Kernel object system calls.">
<polygon fill="white" stroke="black" points="457.34,-403.5 457.34,-422.5 548.34,-422.5 548.34,-403.5 457.34,-403.5"/>
<text text-anchor="middle" x="502.84" y="-410.5" font-family="Helvetica,sans-Serif" font-size="10.00">kernel_object.h</text>
</a>
</g>
</g>
<!-- Node14&#45;&gt;Node15 -->
<g id="edge23" class="edge">
<title>Node14&#45;&gt;Node15</title>
<path fill="none" stroke="midnightblue" d="M485.33,-515.37C488.39,-497.62 495.47,-456.67 499.62,-432.6"/>
<polygon fill="midnightblue" stroke="midnightblue" points="503.1,-433.04 501.35,-422.59 496.2,-431.85 503.1,-433.04"/>
</g>
<!-- Node19 -->
<g id="node19" class="node">
<title>Node19</title>
<g id="a_node19"><a xlink:href="____typeinfo_8h.html" target="_top" xlink:title="Type information handling.">
<polygon fill="white" stroke="black" points="512.34,-459.5 512.34,-478.5 589.34,-478.5 589.34,-459.5 512.34,-459.5"/>
<text text-anchor="middle" x="550.84" y="-466.5" font-family="Helvetica,sans-Serif" font-size="10.00">__typeinfo.h</text>
</a>
</g>
</g>
<!-- Node14&#45;&gt;Node19 -->
<g id="edge37" class="edge">
<title>Node14&#45;&gt;Node19</title>
<path fill="none" stroke="midnightblue" d="M494.6,-515.32C504.6,-507.26 519.72,-495.08 531.77,-485.37"/>
<polygon fill="midnightblue" stroke="midnightblue" points="534.29,-487.83 539.87,-478.83 529.89,-482.38 534.29,-487.83"/>
</g>
<!-- Node15&#45;&gt;Node2 -->
<g id="edge24" class="edge">
<title>Node15&#45;&gt;Node2</title>
<path fill="none" stroke="midnightblue" d="M457.32,-403.99C417.68,-396.09 364.34,-382.9 349.84,-367 306.15,-319.12 307.53,-235.22 310.68,-197.86"/>
<polygon fill="midnightblue" stroke="midnightblue" points="314.17,-198.15 311.67,-187.86 307.2,-197.46 314.17,-198.15"/>
</g>
<!-- Node15&#45;&gt;Node4 -->
<g id="edge25" class="edge">
<title>Node15&#45;&gt;Node4</title>
<path fill="none" stroke="midnightblue" d="M548.47,-404.12C571.94,-397.83 599.23,-386.65 616.84,-367 689.05,-286.36 666.49,-239.29 680.84,-132 682.9,-116.56 681.3,-98.92 679.38,-85.92"/>
<polygon fill="midnightblue" stroke="midnightblue" points="682.8,-85.15 677.69,-75.86 675.89,-86.31 682.8,-85.15"/>
</g>
<!-- Node16 -->
<g id="node16" class="node">
<title>Node16</title>
<g id="a_node16"><a xlink:href="l4_2sys_2utcb_8h.html" target="_top" xlink:title="UTCB definitions.">
<polygon fill="white" stroke="black" points="408.84,-224.5 408.84,-243.5 486.84,-243.5 486.84,-224.5 408.84,-224.5"/>
<text text-anchor="middle" x="447.84" y="-231.5" font-family="Helvetica,sans-Serif" font-size="10.00">l4/sys/utcb.h</text>
</a>
</g>
</g>
<!-- Node15&#45;&gt;Node16 -->
<g id="edge26" class="edge">
<title>Node15&#45;&gt;Node16</title>
<path fill="none" stroke="midnightblue" d="M457.27,-403.48C420.59,-395.59 373.32,-382.72 361.84,-367 331.62,-325.64 391.63,-274.16 426.03,-249.49"/>
<polygon fill="midnightblue" stroke="midnightblue" points="428.36,-252.14 434.56,-243.55 424.35,-246.4 428.36,-252.14"/>
</g>
<!-- Node17 -->
<g id="node17" class="node">
<title>Node17</title>
<g id="a_node17"><a xlink:href="____kernel__object__impl_8h.html" target="_top" xlink:title="Low&#45;level kernel debugger functions.">
<polygon fill="white" stroke="black" points="466.84,-336.5 466.84,-366.5 590.84,-366.5 590.84,-336.5 466.84,-336.5"/>
<text text-anchor="start" x="474.84" y="-354.5" font-family="Helvetica,sans-Serif" font-size="10.00">l4/sys/__kernel_object</text>
<text text-anchor="middle" x="528.84" y="-343.5" font-family="Helvetica,sans-Serif" font-size="10.00">_impl.h</text>
</a>
</g>
</g>
<!-- Node15&#45;&gt;Node17 -->
<g id="edge30" class="edge">
<title>Node15&#45;&gt;Node17</title>
<path fill="none" stroke="midnightblue" d="M506.56,-403.48C509.72,-396.25 514.4,-385.53 518.66,-375.78"/>
<polygon fill="midnightblue" stroke="midnightblue" points="521.91,-377.09 522.71,-366.52 515.5,-374.28 521.91,-377.09"/>
</g>
<!-- Node18 -->
<g id="node18" class="node">
<title>Node18</title>
<g id="a_node18"><a xlink:href="l4_2sys_2ipc_8h.html" target="_top" xlink:title="Common IPC interface.">
<polygon fill="white" stroke="black" points="477.34,-280.5 477.34,-299.5 548.34,-299.5 548.34,-280.5 477.34,-280.5"/>
<text text-anchor="middle" x="512.84" y="-287.5" font-family="Helvetica,sans-Serif" font-size="10.00">l4/sys/ipc.h</text>
</a>
</g>
</g>
<!-- Node15&#45;&gt;Node18 -->
<g id="edge35" class="edge">
<title>Node15&#45;&gt;Node18</title>
<path fill="none" stroke="midnightblue" d="M545.23,-403.45C565.42,-397.02 587.75,-385.93 599.84,-367 607.25,-355.39 607,-347.77 599.84,-336 590.38,-320.46 573.63,-310.05 557.33,-303.19"/>
<polygon fill="midnightblue" stroke="midnightblue" points="558.44,-299.87 547.85,-299.55 555.93,-306.4 558.44,-299.87"/>
</g>
<!-- Node16&#45;&gt;Node2 -->
<g id="edge27" class="edge">
<title>Node16&#45;&gt;Node2</title>
<path fill="none" stroke="midnightblue" d="M426.44,-224.44C404.13,-215.52 368.93,-201.44 343.63,-191.32"/>
<polygon fill="midnightblue" stroke="midnightblue" points="344.71,-187.98 334.13,-187.52 342.11,-194.48 344.71,-187.98"/>
</g>
<!-- Node16&#45;&gt;Node3 -->
<g id="edge29" class="edge">
<title>Node16&#45;&gt;Node3</title>
<path fill="none" stroke="midnightblue" d="M443.32,-224.08C429.98,-197.72 390.59,-119.88 372.77,-84.66"/>
<polygon fill="midnightblue" stroke="midnightblue" points="375.81,-82.91 368.17,-75.57 369.56,-86.07 375.81,-82.91"/>
</g>
<!-- Node16&#45;&gt;Node4 -->
<g id="edge28" class="edge">
<title>Node16&#45;&gt;Node4</title>
<path fill="none" stroke="midnightblue" d="M487.22,-225.49C535.93,-214.07 617.77,-187.5 661.84,-132 672.26,-118.87 675.36,-99.73 676.09,-85.61"/>
<polygon fill="midnightblue" stroke="midnightblue" points="679.59,-85.64 676.27,-75.58 672.6,-85.52 679.59,-85.64"/>
</g>
<!-- Node17&#45;&gt;Node18 -->
<g id="edge31" class="edge">
<title>Node17&#45;&gt;Node18</title>
<path fill="none" stroke="midnightblue" d="M525.04,-336.4C522.89,-328.38 520.16,-318.23 517.83,-309.57"/>
<polygon fill="midnightblue" stroke="midnightblue" points="521.14,-308.41 515.16,-299.66 514.38,-310.22 521.14,-308.41"/>
</g>
<!-- Node18&#45;&gt;Node2 -->
<g id="edge32" class="edge">
<title>Node18&#45;&gt;Node2</title>
<path fill="none" stroke="midnightblue" d="M485.44,-280.36C461.97,-272.43 427.66,-259.57 399.84,-244 374.06,-229.57 347.24,-208.45 330.32,-194.24"/>
<polygon fill="midnightblue" stroke="midnightblue" points="332.31,-191.34 322.43,-187.51 327.76,-196.66 332.31,-191.34"/>
</g>
<!-- Node18&#45;&gt;Node12 -->
<g id="edge34" class="edge">
<title>Node18&#45;&gt;Node12</title>
<path fill="none" stroke="midnightblue" d="M548.41,-283.01C607.14,-273.14 724.25,-253.43 788.71,-242.59"/>
<polygon fill="midnightblue" stroke="midnightblue" points="789.31,-246.04 798.59,-240.93 788.14,-239.14 789.31,-246.04"/>
</g>
<!-- Node18&#45;&gt;Node16 -->
<g id="edge33" class="edge">
<title>Node18&#45;&gt;Node16</title>
<path fill="none" stroke="midnightblue" d="M502.39,-280.32C492.69,-272.26 478.02,-260.08 466.34,-250.37"/>
<polygon fill="midnightblue" stroke="midnightblue" points="468.4,-247.53 458.47,-243.83 463.92,-252.92 468.4,-247.53"/>
</g>
<!-- Node20 -->
<g id="node20" class="node">
<title>Node20</title>
<g id="a_node20"><a xlink:href="types.html" target="_top" xlink:title=" ">
<polygon fill="white" stroke="black" points="836.84,-342 836.84,-361 900.84,-361 900.84,-342 836.84,-342"/>
<text text-anchor="middle" x="868.84" y="-349" font-family="Helvetica,sans-Serif" font-size="10.00">cxx/types</text>
</a>
</g>
</g>
<!-- Node19&#45;&gt;Node20 -->
<g id="edge38" class="edge">
<title>Node19&#45;&gt;Node20</title>
<path fill="none" stroke="midnightblue" d="M575.83,-459.35C599.76,-450.84 636.72,-437.11 667.84,-423 685.22,-415.12 688.2,-410.3 705.84,-403 745.9,-386.42 793.43,-372.29 826.8,-363.23"/>
<polygon fill="midnightblue" stroke="midnightblue" points="827.92,-366.55 836.67,-360.58 826.11,-359.79 827.92,-366.55"/>
</g>
<!-- Node21 -->
<g id="node21" class="node">
<title>Node21</title>
<g id="a_node21"><a xlink:href="ipc__basics_source.html" target="_top" xlink:title=" ">
<polygon fill="white" stroke="black" points="715.34,-403.5 715.34,-422.5 802.34,-422.5 802.34,-403.5 715.34,-403.5"/>
<text text-anchor="middle" x="758.84" y="-410.5" font-family="Helvetica,sans-Serif" font-size="10.00">cxx/ipc_basics</text>
</a>
</g>
</g>
<!-- Node19&#45;&gt;Node21 -->
<g id="edge39" class="edge">
<title>Node19&#45;&gt;Node21</title>
<path fill="none" stroke="midnightblue" d="M583.79,-459.44C619.62,-450.14 677,-435.25 716.23,-425.06"/>
<polygon fill="midnightblue" stroke="midnightblue" points="717.23,-428.42 726.03,-422.52 715.47,-421.64 717.23,-428.42"/>
</g>
<!-- Node22 -->
<g id="node22" class="node">
<title>Node22</title>
<g id="a_node22"><a xlink:href="capability_8h_source.html" target="_top" xlink:title=" ">
<polygon fill="white" stroke="black" points="566.84,-403.5 566.84,-422.5 658.84,-422.5 658.84,-403.5 566.84,-403.5"/>
<text text-anchor="middle" x="612.84" y="-410.5" font-family="Helvetica,sans-Serif" font-size="10.00">cxx/capability.h</text>
</a>
</g>
</g>
<!-- Node19&#45;&gt;Node22 -->
<g id="edge43" class="edge">
<title>Node19&#45;&gt;Node22</title>
<path fill="none" stroke="midnightblue" d="M560.8,-459.32C569.96,-451.34 583.77,-439.31 594.86,-429.65"/>
<polygon fill="midnightblue" stroke="midnightblue" points="597.45,-432.04 602.69,-422.83 592.85,-426.76 597.45,-432.04"/>
</g>
<!-- Node21&#45;&gt;Node12 -->
<g id="edge42" class="edge">
<title>Node21&#45;&gt;Node12</title>
<path fill="none" stroke="midnightblue" d="M764.47,-403.27C770.07,-394.38 778.69,-380.06 784.84,-367 803.41,-327.52 819.9,-278.92 828.19,-253.11"/>
<polygon fill="midnightblue" stroke="midnightblue" points="831.54,-254.13 831.22,-243.54 824.86,-252.02 831.54,-254.13"/>
</g>
<!-- Node21&#45;&gt;Node16 -->
<g id="edge41" class="edge">
<title>Node21&#45;&gt;Node16</title>
<path fill="none" stroke="midnightblue" d="M747.47,-403.47C717.46,-381.19 633.18,-320.25 556.84,-280 532.49,-267.17 503.66,-255.4 481.77,-247.13"/>
<polygon fill="midnightblue" stroke="midnightblue" points="482.83,-243.79 472.24,-243.58 480.39,-250.35 482.83,-243.79"/>
</g>
<!-- Node21&#45;&gt;Node20 -->
<g id="edge40" class="edge">
<title>Node21&#45;&gt;Node20</title>
<path fill="none" stroke="midnightblue" d="M774.6,-403.48C792.81,-393.62 823.01,-377.29 844.3,-365.77"/>
<polygon fill="midnightblue" stroke="midnightblue" points="845.97,-368.85 853.1,-361.01 842.64,-362.69 845.97,-368.85"/>
</g>
<!-- Node22&#45;&gt;Node2 -->
<g id="edge45" class="edge">
<title>Node22&#45;&gt;Node2</title>
<path fill="none" stroke="midnightblue" d="M615.77,-403.12C620.08,-388.45 626.63,-358.54 616.84,-336 587.63,-268.79 560.43,-258.61 495.84,-224 454.98,-202.11 403.29,-190.66 365.28,-184.81"/>
<polygon fill="midnightblue" stroke="midnightblue" points="365.34,-181.28 354.94,-183.3 364.33,-188.21 365.34,-181.28"/>
</g>
<!-- Node22&#45;&gt;Node6 -->
<g id="edge44" class="edge">
<title>Node22&#45;&gt;Node6</title>
<path fill="none" stroke="midnightblue" d="M632.12,-403.49C666.04,-387.05 732.84,-347.51 732.84,-291 732.84,-291 732.84,-291 732.84,-233 732.84,-185.61 591.03,-149.72 510.34,-133.14"/>
<polygon fill="midnightblue" stroke="midnightblue" points="510.84,-129.67 500.34,-131.12 509.45,-136.53 510.84,-129.67"/>
</g>
<!-- Node22&#45;&gt;Node23 -->
<g id="edge46" class="edge">
<title>Node22&#45;&gt;Node23</title>
<path fill="none" stroke="midnightblue" d="M583.09,-403.47C551.87,-394.49 501.36,-379.89 457.84,-367 454.52,-366.02 451.08,-364.99 447.63,-363.96"/>
<polygon fill="midnightblue" stroke="midnightblue" points="448.58,-360.59 437.99,-361.06 446.56,-367.29 448.58,-360.59"/>
</g>
<!-- Node23&#45;&gt;Node2 -->
<g id="edge47" class="edge">
<title>Node23&#45;&gt;Node2</title>
<path fill="none" stroke="midnightblue" d="M404.89,-341.76C389.65,-314.81 343.16,-232.62 322.69,-196.42"/>
<polygon fill="midnightblue" stroke="midnightblue" points="325.62,-194.5 317.65,-187.52 319.53,-197.95 325.62,-194.5"/>
</g>
<!-- Node23&#45;&gt;Node16 -->
<g id="edge48" class="edge">
<title>Node23&#45;&gt;Node16</title>
<path fill="none" stroke="midnightblue" d="M412.69,-341.82C418.85,-323.09 433.51,-278.55 441.82,-253.29"/>
<polygon fill="midnightblue" stroke="midnightblue" points="445.15,-254.37 444.95,-243.78 438.5,-252.19 445.15,-254.37"/>
</g>
<!-- Node23&#45;&gt;Node18 -->
<g id="edge49" class="edge">
<title>Node23&#45;&gt;Node18</title>
<path fill="none" stroke="midnightblue" d="M424.59,-341.98C441.5,-332.21 469.42,-316.08 489.33,-304.58"/>
<polygon fill="midnightblue" stroke="midnightblue" points="491.2,-307.54 498.11,-299.51 487.7,-301.48 491.2,-307.54"/>
</g>
<!-- Node24&#45;&gt;Node14 -->
<g id="edge52" class="edge">
<title>Node24&#45;&gt;Node14</title>
<path fill="none" stroke="midnightblue" d="M551.11,-627.37C539.06,-609.22 510.91,-566.8 495.11,-542.99"/>
<polygon fill="midnightblue" stroke="midnightblue" points="497.98,-540.99 489.54,-534.59 492.15,-544.86 497.98,-540.99"/>
</g>
<!-- Node25 -->
<g id="node25" class="node">
<title>Node25</title>
<g id="a_node25"><a xlink:href="ipc__iface.html" target="_top" xlink:title="Interface Definition Language.">
<polygon fill="white" stroke="black" points="560.84,-515.5 560.84,-534.5 640.84,-534.5 640.84,-515.5 560.84,-515.5"/>
<text text-anchor="middle" x="600.84" y="-522.5" font-family="Helvetica,sans-Serif" font-size="10.00">cxx/ipc_iface</text>
</a>
</g>
</g>
<!-- Node24&#45;&gt;Node25 -->
<g id="edge53" class="edge">
<title>Node24&#45;&gt;Node25</title>
<path fill="none" stroke="midnightblue" d="M560.29,-627.37C567.45,-609.46 584.07,-567.92 593.66,-543.95"/>
<polygon fill="midnightblue" stroke="midnightblue" points="596.93,-545.18 597.4,-534.59 590.44,-542.58 596.93,-545.18"/>
</g>
<!-- Node27 -->
<g id="node27" class="node">
<title>Node27</title>
<g id="a_node27"><a xlink:href="ipc__string_source.html" target="_top" xlink:title=" ">
<polygon fill="white" stroke="black" points="776.84,-571.5 776.84,-590.5 860.84,-590.5 860.84,-571.5 776.84,-571.5"/>
<text text-anchor="middle" x="818.84" y="-578.5" font-family="Helvetica,sans-Serif" font-size="10.00">cxx/ipc_string</text>
</a>
</g>
</g>
<!-- Node24&#45;&gt;Node27 -->
<g id="edge60" class="edge">
<title>Node24&#45;&gt;Node27</title>
<path fill="none" stroke="midnightblue" d="M594.1,-628.32C639.52,-618.96 716.54,-603.08 767.54,-592.57"/>
<polygon fill="midnightblue" stroke="midnightblue" points="768.29,-595.99 777.38,-590.54 766.88,-589.13 768.29,-595.99"/>
</g>
<!-- Node25&#45;&gt;Node19 -->
<g id="edge59" class="edge">
<title>Node25&#45;&gt;Node19</title>
<path fill="none" stroke="midnightblue" d="M592.58,-515.08C585.37,-507.3 574.73,-495.8 565.99,-486.37"/>
<polygon fill="midnightblue" stroke="midnightblue" points="568.3,-483.71 558.94,-478.75 563.16,-488.47 568.3,-483.71"/>
</g>
<!-- Node25&#45;&gt;Node21 -->
<g id="edge54" class="edge">
<title>Node25&#45;&gt;Node21</title>
<path fill="none" stroke="midnightblue" d="M603.5,-515.14C608.11,-501.27 618.82,-474.46 636.84,-459 656.25,-442.34 682.38,-431.61 705.48,-424.83"/>
<polygon fill="midnightblue" stroke="midnightblue" points="706.45,-428.19 715.16,-422.16 704.59,-421.44 706.45,-428.19"/>
</g>
<!-- Node26 -->
<g id="node26" class="node">
<title>Node26</title>
<g id="a_node26"><a xlink:href="ipc__types.html" target="_top" xlink:title=" ">
<polygon fill="white" stroke="black" points="646.34,-459.5 646.34,-478.5 761.34,-478.5 761.34,-459.5 646.34,-459.5"/>
<text text-anchor="middle" x="703.84" y="-466.5" font-family="Helvetica,sans-Serif" font-size="10.00">l4/sys/cxx/ipc_types</text>
</a>
</g>
</g>
<!-- Node25&#45;&gt;Node26 -->
<g id="edge55" class="edge">
<title>Node25&#45;&gt;Node26</title>
<path fill="none" stroke="midnightblue" d="M617.38,-515.32C633.83,-506.7 659.27,-493.36 678.3,-483.39"/>
<polygon fill="midnightblue" stroke="midnightblue" points="680.1,-486.4 687.33,-478.65 676.85,-480.2 680.1,-486.4"/>
</g>
<!-- Node26&#45;&gt;Node20 -->
<g id="edge57" class="edge">
<title>Node26&#45;&gt;Node20</title>
<path fill="none" stroke="midnightblue" d="M734.47,-459.5C757.05,-452.24 787.72,-440.22 810.84,-423 830.62,-408.26 847.8,-385.37 858.21,-369.7"/>
<polygon fill="midnightblue" stroke="midnightblue" points="861.33,-371.32 863.79,-361.01 855.44,-367.54 861.33,-371.32"/>
</g>
<!-- Node26&#45;&gt;Node21 -->
<g id="edge58" class="edge">
<title>Node26&#45;&gt;Node21</title>
<path fill="none" stroke="midnightblue" d="M712.92,-459.08C721.01,-451.14 733.03,-439.34 742.75,-429.8"/>
<polygon fill="midnightblue" stroke="midnightblue" points="745.24,-432.25 749.92,-422.75 740.33,-427.26 745.24,-432.25"/>
</g>
<!-- Node26&#45;&gt;Node22 -->
<g id="edge56" class="edge">
<title>Node26&#45;&gt;Node22</title>
<path fill="none" stroke="midnightblue" d="M689.21,-459.32C674.89,-450.82 652.82,-437.73 636.09,-427.8"/>
<polygon fill="midnightblue" stroke="midnightblue" points="637.81,-424.75 627.42,-422.65 634.23,-430.77 637.81,-424.75"/>
</g>
<!-- Node27&#45;&gt;Node20 -->
<g id="edge61" class="edge">
<title>Node27&#45;&gt;Node20</title>
<path fill="none" stroke="midnightblue" d="M842.62,-571.5C858.56,-564.41 878.3,-552.61 887.84,-535 917.12,-480.93 891.44,-404.64 877.03,-370.38"/>
<polygon fill="midnightblue" stroke="midnightblue" points="880.22,-368.92 873,-361.17 873.81,-371.73 880.22,-368.92"/>
</g>
<!-- Node27&#45;&gt;Node21 -->
<g id="edge62" class="edge">
<title>Node27&#45;&gt;Node21</title>
<path fill="none" stroke="midnightblue" d="M815.61,-571.08C806.12,-544.83 778.19,-467.55 765.38,-432.12"/>
<polygon fill="midnightblue" stroke="midnightblue" points="768.62,-430.78 761.93,-422.57 762.04,-433.16 768.62,-430.78"/>
</g>
<!-- Node28 -->
<g id="node28" class="node">
<title>Node28</title>
<g id="a_node28"><a xlink:href="ipc__array_source.html" target="_top" xlink:title=" ">
<polygon fill="white" stroke="black" points="816.84,-515.5 816.84,-534.5 878.84,-534.5 878.84,-515.5 816.84,-515.5"/>
<text text-anchor="middle" x="847.84" y="-522.5" font-family="Helvetica,sans-Serif" font-size="10.00">ipc_array</text>
</a>
</g>
</g>
<!-- Node27&#45;&gt;Node28 -->
<g id="edge63" class="edge">
<title>Node27&#45;&gt;Node28</title>
<path fill="none" stroke="midnightblue" d="M823.62,-571.08C827.59,-563.69 833.36,-552.95 838.27,-543.81"/>
<polygon fill="midnightblue" stroke="midnightblue" points="841.49,-545.22 843.14,-534.75 835.32,-541.91 841.49,-545.22"/>
</g>
<!-- Node28&#45;&gt;Node20 -->
<g id="edge64" class="edge">
<title>Node28&#45;&gt;Node20</title>
<path fill="none" stroke="midnightblue" d="M848.91,-515.26C852.16,-488.65 862.01,-408.21 866.53,-371.34"/>
<polygon fill="midnightblue" stroke="midnightblue" points="870.05,-371.37 867.79,-361.02 863.1,-370.52 870.05,-371.37"/>
</g>
<!-- Node28&#45;&gt;Node21 -->
<g id="edge65" class="edge">
<title>Node28&#45;&gt;Node21</title>
<path fill="none" stroke="midnightblue" d="M842.63,-515.22C834.86,-502.37 819.45,-477.91 803.84,-459 795.33,-448.69 784.81,-438.08 776.08,-429.75"/>
<polygon fill="midnightblue" stroke="midnightblue" points="778.37,-427.1 768.68,-422.82 773.59,-432.21 778.37,-427.1"/>
</g>
<!-- Node28&#45;&gt;Node26 -->
<g id="edge66" class="edge">
<title>Node28&#45;&gt;Node26</title>
<path fill="none" stroke="midnightblue" d="M825.02,-515.44C801,-506.44 763.01,-492.19 735.97,-482.05"/>
<polygon fill="midnightblue" stroke="midnightblue" points="737.14,-478.75 726.55,-478.52 734.68,-485.3 737.14,-478.75"/>
</g>
<!-- Node30 -->
<g id="node30" class="node">
<title>Node30</title>
<g id="a_node30"><a xlink:title=" ">
<polygon fill="white" stroke="#bfbfbf" points="217.34,-627.5 217.34,-646.5 288.34,-646.5 288.34,-627.5 217.34,-627.5"/>
<text text-anchor="middle" x="252.84" y="-634.5" font-family="Helvetica,sans-Serif" font-size="10.00">sys/cdefs.h</text>
</a>
</g>
</g>
<!-- Node29&#45;&gt;Node30 -->
<g id="edge68" class="edge">
<title>Node29&#45;&gt;Node30</title>
<path fill="none" stroke="midnightblue" d="M286.23,-683.08C280.58,-675.46 272.29,-664.26 265.38,-654.94"/>
<polygon fill="midnightblue" stroke="midnightblue" points="268.08,-652.7 259.32,-646.75 262.46,-656.87 268.08,-652.7"/>
</g>
<!-- Node32 -->
<g id="node32" class="node">
<title>Node32</title>
<g id="a_node32"><a xlink:href="type__traits_8h_source.html" target="_top" xlink:title=" ">
<polygon fill="white" stroke="black" points="1012.34,-683.5 1012.34,-702.5 1111.34,-702.5 1111.34,-683.5 1012.34,-683.5"/>
<text text-anchor="middle" x="1061.84" y="-690.5" font-family="Helvetica,sans-Serif" font-size="10.00">bits/type_traits.h</text>
</a>
</g>
</g>
<!-- Node31&#45;&gt;Node32 -->
<g id="edge70" class="edge">
<title>Node31&#45;&gt;Node32</title>
<path fill="none" stroke="midnightblue" d="M1061.84,-739.08C1061.84,-732.01 1061.84,-721.86 1061.84,-712.99"/>
<polygon fill="midnightblue" stroke="midnightblue" points="1065.34,-712.75 1061.84,-702.75 1058.34,-712.75 1065.34,-712.75"/>
</g>
</g>
</svg>
