<?xml version="1.0" encoding="UTF-8" standalone="no"?>
<!DOCTYPE svg PUBLIC "-//W3C//DTD SVG 1.1//EN"
 "http://www.w3.org/Graphics/SVG/1.1/DTD/svg11.dtd">
<!-- Generated by graphviz version 2.43.0 (0)
 -->
<!-- Title: l4/re/event.h Pages: 1 -->
<svg width="722pt" height="196pt"
 viewBox="0.00 0.00 721.50 196.00" xmlns="http://www.w3.org/2000/svg" xmlns:xlink="http://www.w3.org/1999/xlink">
<g id="graph0" class="graph" transform="scale(1 1) rotate(0) translate(4 192)">
<title>l4/re/event.h</title>
<polygon fill="white" stroke="transparent" points="-4,4 -4,-192 717.5,-192 717.5,4 -4,4"/>
<!-- Node1 -->
<g id="node1" class="node">
<title>Node1</title>
<g id="a_node1"><a xlink:title="Events.">
<polygon fill="#bfbfbf" stroke="black" points="138.5,-168.5 138.5,-187.5 216.5,-187.5 216.5,-168.5 138.5,-168.5"/>
<text text-anchor="middle" x="177.5" y="-175.5" font-family="Helvetica,sans-Serif" font-size="10.00">l4/re/event.h</text>
</a>
</g>
</g>
<!-- Node2 -->
<g id="node2" class="node">
<title>Node2</title>
<g id="a_node2"><a xlink:href="c_2event_8h.html" target="_top" xlink:title="Event C interface.">
<polygon fill="white" stroke="black" points="86.5,-112.5 86.5,-131.5 172.5,-131.5 172.5,-112.5 86.5,-112.5"/>
<text text-anchor="middle" x="129.5" y="-119.5" font-family="Helvetica,sans-Serif" font-size="10.00">l4/re/c/event.h</text>
</a>
</g>
</g>
<!-- Node1&#45;&gt;Node2 -->
<g id="edge1" class="edge">
<title>Node1&#45;&gt;Node2</title>
<path fill="none" stroke="midnightblue" d="M162.77,-160.43C154.36,-150.97 144.15,-139.48 137.28,-131.75"/>
<polygon fill="midnightblue" stroke="midnightblue" points="160.31,-162.93 169.57,-168.08 165.55,-158.28 160.31,-162.93"/>
</g>
<!-- Node4 -->
<g id="node4" class="node">
<title>Node4</title>
<g id="a_node4"><a xlink:href="event_source.html" target="_top" xlink:title=" ">
<polygon fill="white" stroke="black" points="261,-112.5 261,-131.5 330,-131.5 330,-112.5 261,-112.5"/>
<text text-anchor="middle" x="295.5" y="-119.5" font-family="Helvetica,sans-Serif" font-size="10.00">l4/re/event</text>
</a>
</g>
</g>
<!-- Node1&#45;&gt;Node4 -->
<g id="edge3" class="edge">
<title>Node1&#45;&gt;Node4</title>
<path fill="none" stroke="midnightblue" d="M205.4,-164.23C227.47,-154.13 257.68,-140.31 276.89,-131.52"/>
<polygon fill="midnightblue" stroke="midnightblue" points="203.83,-161.1 196.2,-168.44 206.75,-167.46 203.83,-161.1"/>
</g>
<!-- Node3 -->
<g id="node3" class="node">
<title>Node3</title>
<g id="a_node3"><a xlink:href="event__buffer_8h_source.html" target="_top" xlink:title=" ">
<polygon fill="white" stroke="black" points="0,-56.5 0,-75.5 119,-75.5 119,-56.5 0,-56.5"/>
<text text-anchor="middle" x="59.5" y="-63.5" font-family="Helvetica,sans-Serif" font-size="10.00">l4/re/c/event_buffer.h</text>
</a>
</g>
</g>
<!-- Node2&#45;&gt;Node3 -->
<g id="edge2" class="edge">
<title>Node2&#45;&gt;Node3</title>
<path fill="none" stroke="midnightblue" d="M110.19,-106.1C97.59,-96.38 81.57,-84.03 70.95,-75.83"/>
<polygon fill="midnightblue" stroke="midnightblue" points="108.2,-108.99 118.25,-112.32 112.47,-103.44 108.2,-108.99"/>
</g>
<!-- Node5 -->
<g id="node5" class="node">
<title>Node5</title>
<g id="a_node5"><a xlink:href="console_source.html" target="_top" xlink:title=" ">
<polygon fill="white" stroke="black" points="137,-56.5 137,-75.5 216,-75.5 216,-56.5 137,-56.5"/>
<text text-anchor="middle" x="176.5" y="-63.5" font-family="Helvetica,sans-Serif" font-size="10.00">l4/re/console</text>
</a>
</g>
</g>
<!-- Node4&#45;&gt;Node5 -->
<g id="edge4" class="edge">
<title>Node4&#45;&gt;Node5</title>
<path fill="none" stroke="midnightblue" d="M267.36,-108.23C245.1,-98.13 214.64,-84.31 195.27,-75.52"/>
<polygon fill="midnightblue" stroke="midnightblue" points="266.09,-111.5 276.64,-112.44 268.98,-105.12 266.09,-111.5"/>
</g>
<!-- Node6 -->
<g id="node6" class="node">
<title>Node6</title>
<g id="a_node6"><a xlink:href="event__buffer_source.html" target="_top" xlink:title=" ">
<polygon fill="white" stroke="black" points="234.5,-56.5 234.5,-75.5 356.5,-75.5 356.5,-56.5 234.5,-56.5"/>
<text text-anchor="middle" x="295.5" y="-63.5" font-family="Helvetica,sans-Serif" font-size="10.00">l4/re/util/event_buffer</text>
</a>
</g>
</g>
<!-- Node4&#45;&gt;Node6 -->
<g id="edge5" class="edge">
<title>Node4&#45;&gt;Node6</title>
<path fill="none" stroke="midnightblue" d="M295.5,-101.8C295.5,-92.91 295.5,-82.78 295.5,-75.75"/>
<polygon fill="midnightblue" stroke="midnightblue" points="292,-102.08 295.5,-112.08 299,-102.08 292,-102.08"/>
</g>
<!-- Node8 -->
<g id="node8" class="node">
<title>Node8</title>
<g id="a_node8"><a xlink:href="event__svr_source.html" target="_top" xlink:title=" ">
<polygon fill="white" stroke="black" points="374.5,-56.5 374.5,-75.5 482.5,-75.5 482.5,-56.5 374.5,-56.5"/>
<text text-anchor="middle" x="428.5" y="-63.5" font-family="Helvetica,sans-Serif" font-size="10.00">l4/re/util/event_svr</text>
</a>
</g>
</g>
<!-- Node4&#45;&gt;Node8 -->
<g id="edge7" class="edge">
<title>Node4&#45;&gt;Node8</title>
<path fill="none" stroke="midnightblue" d="M325.95,-108.64C350.91,-98.5 385.58,-84.43 407.52,-75.52"/>
<polygon fill="midnightblue" stroke="midnightblue" points="324.52,-105.44 316.57,-112.44 327.16,-111.92 324.52,-105.44"/>
</g>
<!-- Node9 -->
<g id="node9" class="node">
<title>Node9</title>
<g id="a_node9"><a xlink:href="vbus_source.html" target="_top" xlink:title=" ">
<polygon fill="white" stroke="black" points="504.5,-56.5 504.5,-75.5 582.5,-75.5 582.5,-56.5 504.5,-56.5"/>
<text text-anchor="middle" x="543.5" y="-63.5" font-family="Helvetica,sans-Serif" font-size="10.00">l4/vbus/vbus</text>
</a>
</g>
</g>
<!-- Node4&#45;&gt;Node9 -->
<g id="edge8" class="edge">
<title>Node4&#45;&gt;Node9</title>
<path fill="none" stroke="midnightblue" d="M340.11,-111.29C386.96,-101.09 459.88,-85.21 504.5,-75.49"/>
<polygon fill="midnightblue" stroke="midnightblue" points="339.27,-107.89 330.24,-113.43 340.76,-114.73 339.27,-107.89"/>
</g>
<!-- Node7 -->
<g id="node7" class="node">
<title>Node7</title>
<g id="a_node7"><a xlink:href="util_2event.html" target="_top" xlink:title=" ">
<polygon fill="white" stroke="black" points="249.5,-0.5 249.5,-19.5 337.5,-19.5 337.5,-0.5 249.5,-0.5"/>
<text text-anchor="middle" x="293.5" y="-7.5" font-family="Helvetica,sans-Serif" font-size="10.00">l4/re/util/event</text>
</a>
</g>
</g>
<!-- Node6&#45;&gt;Node7 -->
<g id="edge6" class="edge">
<title>Node6&#45;&gt;Node7</title>
<path fill="none" stroke="midnightblue" d="M294.79,-45.8C294.46,-36.91 294.08,-26.78 293.82,-19.75"/>
<polygon fill="midnightblue" stroke="midnightblue" points="291.3,-46.22 295.17,-56.08 298.3,-45.96 291.3,-46.22"/>
</g>
<!-- Node10 -->
<g id="node10" class="node">
<title>Node10</title>
<g id="a_node10"><a xlink:href="vbus__generic_source.html" target="_top" xlink:title=" ">
<polygon fill="white" stroke="black" points="356,-0.5 356,-19.5 475,-19.5 475,-0.5 356,-0.5"/>
<text text-anchor="middle" x="415.5" y="-7.5" font-family="Helvetica,sans-Serif" font-size="10.00">l4/vbus/vbus_generic</text>
</a>
</g>
</g>
<!-- Node9&#45;&gt;Node10 -->
<g id="edge9" class="edge">
<title>Node9&#45;&gt;Node10</title>
<path fill="none" stroke="midnightblue" d="M513.88,-52.5C489.88,-42.38 456.72,-28.39 435.69,-19.52"/>
<polygon fill="midnightblue" stroke="midnightblue" points="512.64,-55.78 523.22,-56.44 515.36,-49.33 512.64,-55.78"/>
</g>
<!-- Node11 -->
<g id="node11" class="node">
<title>Node11</title>
<g id="a_node11"><a xlink:href="vbus__gpio_source.html" target="_top" xlink:title=" ">
<polygon fill="white" stroke="black" points="493.5,-0.5 493.5,-19.5 597.5,-19.5 597.5,-0.5 493.5,-0.5"/>
<text text-anchor="middle" x="545.5" y="-7.5" font-family="Helvetica,sans-Serif" font-size="10.00">l4/vbus/vbus_gpio</text>
</a>
</g>
</g>
<!-- Node9&#45;&gt;Node11 -->
<g id="edge10" class="edge">
<title>Node9&#45;&gt;Node11</title>
<path fill="none" stroke="midnightblue" d="M544.21,-45.8C544.54,-36.91 544.92,-26.78 545.18,-19.75"/>
<polygon fill="midnightblue" stroke="midnightblue" points="540.7,-45.96 543.83,-56.08 547.7,-46.22 540.7,-45.96"/>
</g>
<!-- Node12 -->
<g id="node12" class="node">
<title>Node12</title>
<g id="a_node12"><a xlink:href="vbus__pci_source.html" target="_top" xlink:title=" ">
<polygon fill="white" stroke="black" points="615.5,-0.5 615.5,-19.5 713.5,-19.5 713.5,-0.5 615.5,-0.5"/>
<text text-anchor="middle" x="664.5" y="-7.5" font-family="Helvetica,sans-Serif" font-size="10.00">l4/vbus/vbus_pci</text>
</a>
</g>
</g>
<!-- Node9&#45;&gt;Node12 -->
<g id="edge11" class="edge">
<title>Node9&#45;&gt;Node12</title>
<path fill="none" stroke="midnightblue" d="M571.81,-52.37C594.47,-42.26 625.63,-28.35 645.42,-19.52"/>
<polygon fill="midnightblue" stroke="midnightblue" points="570.38,-49.17 562.67,-56.44 573.23,-55.56 570.38,-49.17"/>
</g>
</g>
</svg>
