<?xml version="1.0" encoding="UTF-8" standalone="no"?>
<!DOCTYPE svg PUBLIC "-//W3C//DTD SVG 1.1//EN"
 "http://www.w3.org/Graphics/SVG/1.1/DTD/svg11.dtd">
<!-- Generated by graphviz version 2.43.0 (0)
 -->
<!-- Title: l4/cxx/exceptions Pages: 1 -->
<svg width="1089pt" height="767pt"
 viewBox="0.00 0.00 1089.00 767.00" xmlns="http://www.w3.org/2000/svg" xmlns:xlink="http://www.w3.org/1999/xlink">
<g id="graph0" class="graph" transform="scale(1 1) rotate(0) translate(4 763)">
<title>l4/cxx/exceptions</title>
<polygon fill="white" stroke="transparent" points="-4,4 -4,-763 1085,-763 1085,4 -4,4"/>
<!-- Node1 -->
<g id="node1" class="node">
<title>Node1</title>
<g id="a_node1"><a xlink:title="Base exceptions.">
<polygon fill="#bfbfbf" stroke="black" points="835,-739.5 835,-758.5 937,-758.5 937,-739.5 835,-739.5"/>
<text text-anchor="middle" x="886" y="-746.5" font-family="Helvetica,sans-Serif" font-size="10.00">l4/cxx/exceptions</text>
</a>
</g>
</g>
<!-- Node2 -->
<g id="node2" class="node">
<title>Node2</title>
<g id="a_node2"><a xlink:href="l4types_8h.html" target="_top" xlink:title="L4 Types.">
<polygon fill="white" stroke="black" points="764,-683.5 764,-702.5 858,-702.5 858,-683.5 764,-683.5"/>
<text text-anchor="middle" x="811" y="-690.5" font-family="Helvetica,sans-Serif" font-size="10.00">l4/cxx/l4types.h</text>
</a>
</g>
</g>
<!-- Node1&#45;&gt;Node2 -->
<g id="edge1" class="edge">
<title>Node1&#45;&gt;Node2</title>
<path fill="none" stroke="midnightblue" d="M873.95,-739.32C862.54,-731.11 845.17,-718.6 831.57,-708.81"/>
<polygon fill="midnightblue" stroke="midnightblue" points="833.43,-705.84 823.27,-702.83 829.34,-711.52 833.43,-705.84"/>
</g>
<!-- Node10 -->
<g id="node10" class="node">
<title>Node10</title>
<g id="a_node10"><a xlink:href="basic__ostream.html" target="_top" xlink:title="Basic IO stream.">
<polygon fill="white" stroke="black" points="801,-627.5 801,-646.5 921,-646.5 921,-627.5 801,-627.5"/>
<text text-anchor="middle" x="861" y="-634.5" font-family="Helvetica,sans-Serif" font-size="10.00">l4/cxx/basic_ostream</text>
</a>
</g>
</g>
<!-- Node1&#45;&gt;Node10 -->
<g id="edge14" class="edge">
<title>Node1&#45;&gt;Node10</title>
<path fill="none" stroke="midnightblue" d="M884.04,-739.37C880,-721.62 870.7,-680.67 865.23,-656.6"/>
<polygon fill="midnightblue" stroke="midnightblue" points="868.58,-655.57 862.95,-646.59 861.76,-657.12 868.58,-655.57"/>
</g>
<!-- Node11 -->
<g id="node11" class="node">
<title>Node11</title>
<g id="a_node11"><a xlink:href="err_8h.html" target="_top" xlink:title="Error codes.">
<polygon fill="white" stroke="black" points="529,-224.5 529,-243.5 599,-243.5 599,-224.5 529,-224.5"/>
<text text-anchor="middle" x="564" y="-231.5" font-family="Helvetica,sans-Serif" font-size="10.00">l4/sys/err.h</text>
</a>
</g>
</g>
<!-- Node1&#45;&gt;Node11 -->
<g id="edge15" class="edge">
<title>Node1&#45;&gt;Node11</title>
<path fill="none" stroke="midnightblue" d="M893.5,-739.43C909.96,-719.55 946.48,-668.8 930,-627 857.59,-443.34 654.06,-295.01 586.28,-249.47"/>
<polygon fill="midnightblue" stroke="midnightblue" points="587.91,-246.35 577.64,-243.73 584.03,-252.18 587.91,-246.35"/>
</g>
<!-- Node12 -->
<g id="node12" class="node">
<title>Node12</title>
<g id="a_node12"><a xlink:href="capability.html" target="_top" xlink:title="L4::Cap related definitions.">
<polygon fill="white" stroke="black" points="448,-683.5 448,-702.5 544,-702.5 544,-683.5 448,-683.5"/>
<text text-anchor="middle" x="496" y="-690.5" font-family="Helvetica,sans-Serif" font-size="10.00">l4/sys/capability</text>
</a>
</g>
</g>
<!-- Node1&#45;&gt;Node12 -->
<g id="edge17" class="edge">
<title>Node1&#45;&gt;Node12</title>
<path fill="none" stroke="midnightblue" d="M834.61,-740.88C762.21,-730.86 630.54,-712.63 554.48,-702.1"/>
<polygon fill="midnightblue" stroke="midnightblue" points="554.51,-698.57 544.13,-700.66 553.55,-705.5 554.51,-698.57"/>
</g>
<!-- Node28 -->
<g id="node28" class="node">
<title>Node28</title>
<g id="a_node28"><a xlink:href="backtrace_8h.html" target="_top" xlink:title="Backtrace.">
<polygon fill="white" stroke="black" points="977,-683.5 977,-702.5 1081,-702.5 1081,-683.5 977,-683.5"/>
<text text-anchor="middle" x="1029" y="-690.5" font-family="Helvetica,sans-Serif" font-size="10.00">l4/util/backtrace.h</text>
</a>
</g>
</g>
<!-- Node1&#45;&gt;Node28 -->
<g id="edge65" class="edge">
<title>Node1&#45;&gt;Node28</title>
<path fill="none" stroke="midnightblue" d="M908.66,-739.44C932.4,-730.48 969.91,-716.31 996.74,-706.18"/>
<polygon fill="midnightblue" stroke="midnightblue" points="998.33,-709.32 1006.45,-702.52 995.86,-702.77 998.33,-709.32"/>
</g>
<!-- Node3 -->
<g id="node3" class="node">
<title>Node3</title>
<g id="a_node3"><a xlink:href="l4_2sys_2types_8h.html" target="_top" xlink:title="Common L4 ABI Data Types.">
<polygon fill="white" stroke="black" points="361,-168.5 361,-187.5 445,-187.5 445,-168.5 361,-168.5"/>
<text text-anchor="middle" x="403" y="-175.5" font-family="Helvetica,sans-Serif" font-size="10.00">l4/sys/types.h</text>
</a>
</g>
</g>
<!-- Node2&#45;&gt;Node3 -->
<g id="edge2" class="edge">
<title>Node2&#45;&gt;Node3</title>
<path fill="none" stroke="midnightblue" d="M806.12,-683.37C801.44,-674.55 794.69,-660.3 792,-647 790.24,-638.29 791.69,-635.88 792,-627 796.22,-504.78 811,-474.79 811,-352.5 811,-352.5 811,-352.5 811,-289 811,-216.15 565.47,-190.13 455.35,-182.12"/>
<polygon fill="midnightblue" stroke="midnightblue" points="455.35,-178.62 445.13,-181.4 454.86,-185.6 455.35,-178.62"/>
</g>
<!-- Node2&#45;&gt;Node10 -->
<g id="edge13" class="edge">
<title>Node2&#45;&gt;Node10</title>
<path fill="none" stroke="midnightblue" d="M819.26,-683.08C826.46,-675.3 837.11,-663.8 845.85,-654.37"/>
<polygon fill="midnightblue" stroke="midnightblue" points="848.67,-656.47 852.9,-646.75 843.53,-651.71 848.67,-656.47"/>
</g>
<!-- Node4 -->
<g id="node4" class="node">
<title>Node4</title>
<g id="a_node4"><a xlink:href="l4_2sys_2l4int_8h.html" target="_top" xlink:title="Fixed sized integer types, generic version.">
<polygon fill="white" stroke="black" points="196.5,-56.5 196.5,-75.5 275.5,-75.5 275.5,-56.5 196.5,-56.5"/>
<text text-anchor="middle" x="236" y="-63.5" font-family="Helvetica,sans-Serif" font-size="10.00">l4/sys/l4int.h</text>
</a>
</g>
</g>
<!-- Node3&#45;&gt;Node4 -->
<g id="edge3" class="edge">
<title>Node3&#45;&gt;Node4</title>
<path fill="none" stroke="midnightblue" d="M381.96,-168.38C362.98,-160.2 334.65,-146.95 312,-132 289.75,-117.31 266.85,-96.86 252.08,-82.84"/>
<polygon fill="midnightblue" stroke="midnightblue" points="254.4,-80.21 244.77,-75.79 249.54,-85.25 254.4,-80.21"/>
</g>
<!-- Node5 -->
<g id="node5" class="node">
<title>Node5</title>
<g id="a_node5"><a xlink:href="compiler_8h.html" target="_top" xlink:title="L4 compiler related defines.">
<polygon fill="white" stroke="black" points="446.5,-56.5 446.5,-75.5 545.5,-75.5 545.5,-56.5 446.5,-56.5"/>
<text text-anchor="middle" x="496" y="-63.5" font-family="Helvetica,sans-Serif" font-size="10.00">l4/sys/compiler.h</text>
</a>
</g>
</g>
<!-- Node3&#45;&gt;Node5 -->
<g id="edge4" class="edge">
<title>Node3&#45;&gt;Node5</title>
<path fill="none" stroke="midnightblue" d="M410.3,-168.37C425.78,-150.05 462.14,-107.05 482.17,-83.36"/>
<polygon fill="midnightblue" stroke="midnightblue" points="484.95,-85.49 488.74,-75.59 479.61,-80.97 484.95,-85.49"/>
</g>
<!-- Node7 -->
<g id="node7" class="node">
<title>Node7</title>
<g id="a_node7"><a xlink:href="l4_2sys_2consts_8h.html" target="_top" xlink:title="Common constants.">
<polygon fill="white" stroke="black" points="99.5,-112.5 99.5,-131.5 188.5,-131.5 188.5,-112.5 99.5,-112.5"/>
<text text-anchor="middle" x="144" y="-119.5" font-family="Helvetica,sans-Serif" font-size="10.00">l4/sys/consts.h</text>
</a>
</g>
</g>
<!-- Node3&#45;&gt;Node7 -->
<g id="edge6" class="edge">
<title>Node3&#45;&gt;Node7</title>
<path fill="none" stroke="midnightblue" d="M361.96,-168.44C316.68,-159 243.77,-143.8 194.89,-133.61"/>
<polygon fill="midnightblue" stroke="midnightblue" points="195.35,-130.13 184.85,-131.52 193.92,-136.98 195.35,-130.13"/>
</g>
<!-- Node8 -->
<g id="node8" class="node">
<title>Node8</title>
<g id="a_node8"><a xlink:href="____l4__fpage_8h_source.html" target="_top" xlink:title=" ">
<polygon fill="white" stroke="black" points="483,-112.5 483,-131.5 593,-131.5 593,-112.5 483,-112.5"/>
<text text-anchor="middle" x="538" y="-119.5" font-family="Helvetica,sans-Serif" font-size="10.00">l4/sys/__l4_fpage.h</text>
</a>
</g>
</g>
<!-- Node3&#45;&gt;Node8 -->
<g id="edge9" class="edge">
<title>Node3&#45;&gt;Node8</title>
<path fill="none" stroke="midnightblue" d="M424.39,-168.44C446.71,-159.52 481.9,-145.44 507.21,-135.32"/>
<polygon fill="midnightblue" stroke="midnightblue" points="508.72,-138.48 516.71,-131.52 506.12,-131.98 508.72,-138.48"/>
</g>
<!-- Node9 -->
<g id="node9" class="node">
<title>Node9</title>
<g id="a_node9"><a xlink:href="____timeout_8h_source.html" target="_top" xlink:title=" ">
<polygon fill="white" stroke="black" points="321,-112.5 321,-131.5 427,-131.5 427,-112.5 321,-112.5"/>
<text text-anchor="middle" x="374" y="-119.5" font-family="Helvetica,sans-Serif" font-size="10.00">l4/sys/__timeout.h</text>
</a>
</g>
</g>
<!-- Node3&#45;&gt;Node9 -->
<g id="edge11" class="edge">
<title>Node3&#45;&gt;Node9</title>
<path fill="none" stroke="midnightblue" d="M398.21,-168.08C394.24,-160.69 388.47,-149.95 383.57,-140.81"/>
<polygon fill="midnightblue" stroke="midnightblue" points="386.51,-138.91 378.7,-131.75 380.35,-142.22 386.51,-138.91"/>
</g>
<!-- Node6 -->
<g id="node6" class="node">
<title>Node6</title>
<g id="a_node6"><a xlink:title=" ">
<polygon fill="white" stroke="#bfbfbf" points="450,-0.5 450,-19.5 542,-19.5 542,-0.5 450,-0.5"/>
<text text-anchor="middle" x="496" y="-7.5" font-family="Helvetica,sans-Serif" font-size="10.00">l4/sys/linkage.h</text>
</a>
</g>
</g>
<!-- Node5&#45;&gt;Node6 -->
<g id="edge5" class="edge">
<title>Node5&#45;&gt;Node6</title>
<path fill="none" stroke="midnightblue" d="M496,-56.08C496,-49.01 496,-38.86 496,-29.99"/>
<polygon fill="midnightblue" stroke="midnightblue" points="499.5,-29.75 496,-19.75 492.5,-29.75 499.5,-29.75"/>
</g>
<!-- Node7&#45;&gt;Node4 -->
<g id="edge8" class="edge">
<title>Node7&#45;&gt;Node4</title>
<path fill="none" stroke="midnightblue" d="M158.78,-112.32C173.27,-103.82 195.57,-90.73 212.49,-80.8"/>
<polygon fill="midnightblue" stroke="midnightblue" points="214.4,-83.74 221.26,-75.65 210.86,-77.7 214.4,-83.74"/>
</g>
<!-- Node7&#45;&gt;Node5 -->
<g id="edge7" class="edge">
<title>Node7&#45;&gt;Node5</title>
<path fill="none" stroke="midnightblue" d="M188.58,-114.16C251.44,-104.52 366.26,-86.9 436.39,-76.14"/>
<polygon fill="midnightblue" stroke="midnightblue" points="437.05,-79.58 446.41,-74.61 435.99,-72.67 437.05,-79.58"/>
</g>
<!-- Node8&#45;&gt;Node5 -->
<g id="edge10" class="edge">
<title>Node8&#45;&gt;Node5</title>
<path fill="none" stroke="midnightblue" d="M531.06,-112.08C525.07,-104.38 516.25,-93.03 508.95,-83.65"/>
<polygon fill="midnightblue" stroke="midnightblue" points="511.71,-81.5 502.81,-75.75 506.18,-85.79 511.71,-81.5"/>
</g>
<!-- Node9&#45;&gt;Node4 -->
<g id="edge12" class="edge">
<title>Node9&#45;&gt;Node4</title>
<path fill="none" stroke="midnightblue" d="M352.13,-112.44C329.22,-103.48 293.02,-89.31 267.13,-79.18"/>
<polygon fill="midnightblue" stroke="midnightblue" points="268.35,-75.9 257.76,-75.52 265.8,-82.42 268.35,-75.9"/>
</g>
<!-- Node11&#45;&gt;Node5 -->
<g id="edge16" class="edge">
<title>Node11&#45;&gt;Node5</title>
<path fill="none" stroke="midnightblue" d="M571.38,-224.38C588.32,-203.52 626.67,-149.27 602,-112 591.34,-95.89 573.63,-85.53 555.71,-78.88"/>
<polygon fill="midnightblue" stroke="midnightblue" points="556.37,-75.41 545.77,-75.55 554.14,-82.05 556.37,-75.41"/>
</g>
<!-- Node12&#45;&gt;Node3 -->
<g id="edge19" class="edge">
<title>Node12&#45;&gt;Node3</title>
<path fill="none" stroke="midnightblue" d="M544.08,-690.6C613.87,-685.71 735,-665.25 735,-582 735,-582 735,-582 735,-468 735,-350.46 729.4,-291.25 633,-224 604.91,-204.4 514.26,-191.11 455.5,-184.32"/>
<polygon fill="midnightblue" stroke="midnightblue" points="455.62,-180.81 445.29,-183.16 454.83,-187.76 455.62,-180.81"/>
</g>
<!-- Node12&#45;&gt;Node7 -->
<g id="edge18" class="edge">
<title>Node12&#45;&gt;Node7</title>
<path fill="none" stroke="midnightblue" d="M447.99,-691.48C323.51,-688.83 0,-673.18 0,-582 0,-582 0,-582 0,-233 0,-180.76 60.59,-150.01 103.17,-134.85"/>
<polygon fill="midnightblue" stroke="midnightblue" points="104.41,-138.12 112.75,-131.58 102.16,-131.49 104.41,-138.12"/>
</g>
<!-- Node13 -->
<g id="node13" class="node">
<title>Node13</title>
<g id="a_node13"><a xlink:href="kobject_source.html" target="_top" xlink:title=" ">
<polygon fill="white" stroke="black" points="490.5,-515.5 490.5,-534.5 573.5,-534.5 573.5,-515.5 490.5,-515.5"/>
<text text-anchor="middle" x="532" y="-522.5" font-family="Helvetica,sans-Serif" font-size="10.00">l4/sys/kobject</text>
</a>
</g>
</g>
<!-- Node12&#45;&gt;Node13 -->
<g id="edge20" class="edge">
<title>Node12&#45;&gt;Node13</title>
<path fill="none" stroke="midnightblue" d="M497.94,-683.08C503.6,-656.95 520.24,-580.21 527.97,-544.58"/>
<polygon fill="midnightblue" stroke="midnightblue" points="531.44,-545.08 530.14,-534.57 524.6,-543.6 531.44,-545.08"/>
</g>
<!-- Node22 -->
<g id="node22" class="node">
<title>Node22</title>
<g id="a_node22"><a xlink:href="l4_2sys_2task_8h.html" target="_top" xlink:title="Common task related definitions.">
<polygon fill="white" stroke="black" points="259,-342 259,-361 337,-361 337,-342 259,-342"/>
<text text-anchor="middle" x="298" y="-349" font-family="Helvetica,sans-Serif" font-size="10.00">l4/sys/task.h</text>
</a>
</g>
</g>
<!-- Node12&#45;&gt;Node22 -->
<g id="edge48" class="edge">
<title>Node12&#45;&gt;Node22</title>
<path fill="none" stroke="midnightblue" d="M490.72,-683.23C480.27,-665.04 458,-621.6 458,-582 458,-582 458,-582 458,-468 458,-435.7 371.17,-388.31 325.44,-365.59"/>
<polygon fill="midnightblue" stroke="midnightblue" points="326.87,-362.39 316.35,-361.13 323.79,-368.68 326.87,-362.39"/>
</g>
<!-- Node23 -->
<g id="node23" class="node">
<title>Node23</title>
<g id="a_node23"><a xlink:href="sys_2meta.html" target="_top" xlink:title="Meta interface for getting dynamic type information about objects behind capabilities.">
<polygon fill="white" stroke="black" points="344,-627.5 344,-646.5 418,-646.5 418,-627.5 344,-627.5"/>
<text text-anchor="middle" x="381" y="-634.5" font-family="Helvetica,sans-Serif" font-size="10.00">l4/sys/meta</text>
</a>
</g>
</g>
<!-- Node12&#45;&gt;Node23 -->
<g id="edge49" class="edge">
<title>Node12&#45;&gt;Node23</title>
<path fill="none" stroke="midnightblue" d="M477.78,-683.44C459.1,-674.68 429.84,-660.94 408.38,-650.86"/>
<polygon fill="midnightblue" stroke="midnightblue" points="409.68,-647.6 399.14,-646.52 406.7,-653.93 409.68,-647.6"/>
</g>
<!-- Node13&#45;&gt;Node3 -->
<g id="edge34" class="edge">
<title>Node13&#45;&gt;Node3</title>
<path fill="none" stroke="midnightblue" d="M545.79,-515.33C583.07,-490.69 681.77,-416.79 663,-336 650.45,-281.98 651.63,-258.23 608,-224 584.68,-205.71 508.24,-192.49 455.59,-185.29"/>
<polygon fill="midnightblue" stroke="midnightblue" points="455.78,-181.78 445.4,-183.93 454.85,-188.72 455.78,-181.78"/>
</g>
<!-- Node14 -->
<g id="node14" class="node">
<title>Node14</title>
<g id="a_node14"><a xlink:href="kernel__object_8h.html" target="_top" xlink:title="Kernel object system calls.">
<polygon fill="white" stroke="black" points="486.5,-403.5 486.5,-422.5 577.5,-422.5 577.5,-403.5 486.5,-403.5"/>
<text text-anchor="middle" x="532" y="-410.5" font-family="Helvetica,sans-Serif" font-size="10.00">kernel_object.h</text>
</a>
</g>
</g>
<!-- Node13&#45;&gt;Node14 -->
<g id="edge21" class="edge">
<title>Node13&#45;&gt;Node14</title>
<path fill="none" stroke="midnightblue" d="M532,-515.37C532,-497.62 532,-456.67 532,-432.6"/>
<polygon fill="midnightblue" stroke="midnightblue" points="535.5,-432.59 532,-422.59 528.5,-432.59 535.5,-432.59"/>
</g>
<!-- Node18 -->
<g id="node18" class="node">
<title>Node18</title>
<g id="a_node18"><a xlink:href="____typeinfo_8h.html" target="_top" xlink:title="Type information handling.">
<polygon fill="white" stroke="black" points="276.5,-459.5 276.5,-478.5 353.5,-478.5 353.5,-459.5 276.5,-459.5"/>
<text text-anchor="middle" x="315" y="-466.5" font-family="Helvetica,sans-Serif" font-size="10.00">__typeinfo.h</text>
</a>
</g>
</g>
<!-- Node13&#45;&gt;Node18 -->
<g id="edge35" class="edge">
<title>Node13&#45;&gt;Node18</title>
<path fill="none" stroke="midnightblue" d="M497.62,-515.44C460.08,-506.1 399.87,-491.12 358.93,-480.93"/>
<polygon fill="midnightblue" stroke="midnightblue" points="359.77,-477.53 349.22,-478.52 358.08,-484.33 359.77,-477.53"/>
</g>
<!-- Node14&#45;&gt;Node3 -->
<g id="edge22" class="edge">
<title>Node14&#45;&gt;Node3</title>
<path fill="none" stroke="midnightblue" d="M518.94,-403.4C494.89,-386.73 444.03,-347.46 422,-300 406.39,-266.37 403.23,-222.41 402.8,-197.8"/>
<polygon fill="midnightblue" stroke="midnightblue" points="406.3,-197.67 402.77,-187.68 399.3,-197.69 406.3,-197.67"/>
</g>
<!-- Node14&#45;&gt;Node5 -->
<g id="edge23" class="edge">
<title>Node14&#45;&gt;Node5</title>
<path fill="none" stroke="midnightblue" d="M576.24,-403.44C598.34,-396.98 623.77,-385.86 640,-367 662.71,-340.61 659,-325.82 659,-291 659,-291 659,-291 659,-177 659,-121.75 593.85,-92.39 545.92,-78.27"/>
<polygon fill="midnightblue" stroke="midnightblue" points="546.87,-74.9 536.29,-75.57 544.97,-81.64 546.87,-74.9"/>
</g>
<!-- Node15 -->
<g id="node15" class="node">
<title>Node15</title>
<g id="a_node15"><a xlink:href="l4_2sys_2utcb_8h.html" target="_top" xlink:title="UTCB definitions.">
<polygon fill="white" stroke="black" points="229,-224.5 229,-243.5 307,-243.5 307,-224.5 229,-224.5"/>
<text text-anchor="middle" x="268" y="-231.5" font-family="Helvetica,sans-Serif" font-size="10.00">l4/sys/utcb.h</text>
</a>
</g>
</g>
<!-- Node14&#45;&gt;Node15 -->
<g id="edge24" class="edge">
<title>Node14&#45;&gt;Node15</title>
<path fill="none" stroke="midnightblue" d="M486.22,-403.99C456.79,-397.35 418.64,-385.87 389,-367 339.99,-335.8 298.06,-279.81 278.98,-251.85"/>
<polygon fill="midnightblue" stroke="midnightblue" points="281.88,-249.89 273.41,-243.52 276.06,-253.78 281.88,-249.89"/>
</g>
<!-- Node16 -->
<g id="node16" class="node">
<title>Node16</title>
<g id="a_node16"><a xlink:href="____kernel__object__impl_8h.html" target="_top" xlink:title="Low&#45;level kernel debugger functions.">
<polygon fill="white" stroke="black" points="507,-336.5 507,-366.5 631,-366.5 631,-336.5 507,-336.5"/>
<text text-anchor="start" x="515" y="-354.5" font-family="Helvetica,sans-Serif" font-size="10.00">l4/sys/__kernel_object</text>
<text text-anchor="middle" x="569" y="-343.5" font-family="Helvetica,sans-Serif" font-size="10.00">_impl.h</text>
</a>
</g>
</g>
<!-- Node14&#45;&gt;Node16 -->
<g id="edge28" class="edge">
<title>Node14&#45;&gt;Node16</title>
<path fill="none" stroke="midnightblue" d="M537.3,-403.48C541.89,-396.09 548.74,-385.08 554.9,-375.17"/>
<polygon fill="midnightblue" stroke="midnightblue" points="557.97,-376.86 560.28,-366.52 552.03,-373.17 557.97,-376.86"/>
</g>
<!-- Node17 -->
<g id="node17" class="node">
<title>Node17</title>
<g id="a_node17"><a xlink:href="l4_2sys_2ipc_8h.html" target="_top" xlink:title="Common IPC interface.">
<polygon fill="white" stroke="black" points="431.5,-280.5 431.5,-299.5 502.5,-299.5 502.5,-280.5 431.5,-280.5"/>
<text text-anchor="middle" x="467" y="-287.5" font-family="Helvetica,sans-Serif" font-size="10.00">l4/sys/ipc.h</text>
</a>
</g>
</g>
<!-- Node14&#45;&gt;Node17 -->
<g id="edge33" class="edge">
<title>Node14&#45;&gt;Node17</title>
<path fill="none" stroke="midnightblue" d="M524.23,-403.18C516.81,-394.44 505.65,-380.45 498,-367 487.35,-348.28 478.47,-325.18 472.98,-309.39"/>
<polygon fill="midnightblue" stroke="midnightblue" points="476.25,-308.13 469.75,-299.77 469.62,-310.37 476.25,-308.13"/>
</g>
<!-- Node15&#45;&gt;Node3 -->
<g id="edge25" class="edge">
<title>Node15&#45;&gt;Node3</title>
<path fill="none" stroke="midnightblue" d="M289.39,-224.44C311.71,-215.52 346.9,-201.44 372.21,-191.32"/>
<polygon fill="midnightblue" stroke="midnightblue" points="373.72,-194.48 381.71,-187.52 371.12,-187.98 373.72,-194.48"/>
</g>
<!-- Node15&#45;&gt;Node4 -->
<g id="edge27" class="edge">
<title>Node15&#45;&gt;Node4</title>
<path fill="none" stroke="midnightblue" d="M266.28,-224.08C261.24,-197.95 246.45,-121.21 239.58,-85.58"/>
<polygon fill="midnightblue" stroke="midnightblue" points="242.98,-84.72 237.65,-75.57 236.11,-86.05 242.98,-84.72"/>
</g>
<!-- Node15&#45;&gt;Node5 -->
<g id="edge26" class="edge">
<title>Node15&#45;&gt;Node5</title>
<path fill="none" stroke="midnightblue" d="M268.46,-224.47C270.12,-202.36 277.72,-142.74 312,-112 345.79,-81.71 396.61,-71 436.29,-67.56"/>
<polygon fill="midnightblue" stroke="midnightblue" points="436.66,-71.04 446.38,-66.82 436.15,-64.06 436.66,-71.04"/>
</g>
<!-- Node16&#45;&gt;Node17 -->
<g id="edge29" class="edge">
<title>Node16&#45;&gt;Node17</title>
<path fill="none" stroke="midnightblue" d="M544.83,-336.4C528.48,-326.86 506.99,-314.32 490.73,-304.84"/>
<polygon fill="midnightblue" stroke="midnightblue" points="492.24,-301.67 481.84,-299.66 488.72,-307.72 492.24,-301.67"/>
</g>
<!-- Node17&#45;&gt;Node3 -->
<g id="edge30" class="edge">
<title>Node17&#45;&gt;Node3</title>
<path fill="none" stroke="midnightblue" d="M461.98,-280.37C451.46,-262.3 426.96,-220.18 413.07,-196.31"/>
<polygon fill="midnightblue" stroke="midnightblue" points="416.05,-194.47 408,-187.59 410,-198 416.05,-194.47"/>
</g>
<!-- Node17&#45;&gt;Node11 -->
<g id="edge32" class="edge">
<title>Node17&#45;&gt;Node11</title>
<path fill="none" stroke="midnightblue" d="M482.58,-280.32C498,-271.74 521.81,-258.49 539.71,-248.52"/>
<polygon fill="midnightblue" stroke="midnightblue" points="541.42,-251.58 548.45,-243.65 538.01,-245.46 541.42,-251.58"/>
</g>
<!-- Node17&#45;&gt;Node15 -->
<g id="edge31" class="edge">
<title>Node17&#45;&gt;Node15</title>
<path fill="none" stroke="midnightblue" d="M435.47,-280.44C401.41,-271.2 346.99,-256.44 309.48,-246.26"/>
<polygon fill="midnightblue" stroke="midnightblue" points="309.95,-242.76 299.38,-243.52 308.12,-249.51 309.95,-242.76"/>
</g>
<!-- Node19 -->
<g id="node19" class="node">
<title>Node19</title>
<g id="a_node19"><a xlink:href="types.html" target="_top" xlink:title=" ">
<polygon fill="white" stroke="black" points="63,-342 63,-361 127,-361 127,-342 63,-342"/>
<text text-anchor="middle" x="95" y="-349" font-family="Helvetica,sans-Serif" font-size="10.00">cxx/types</text>
</a>
</g>
</g>
<!-- Node18&#45;&gt;Node19 -->
<g id="edge36" class="edge">
<title>Node18&#45;&gt;Node19</title>
<path fill="none" stroke="midnightblue" d="M276.41,-460.84C246.27,-454.12 204.08,-442.18 171,-423 146.3,-408.68 123.03,-385.04 108.9,-369.13"/>
<polygon fill="midnightblue" stroke="midnightblue" points="111.23,-366.47 102.04,-361.19 105.93,-371.04 111.23,-366.47"/>
</g>
<!-- Node20 -->
<g id="node20" class="node">
<title>Node20</title>
<g id="a_node20"><a xlink:href="ipc__basics_source.html" target="_top" xlink:title=" ">
<polygon fill="white" stroke="black" points="290.5,-403.5 290.5,-422.5 377.5,-422.5 377.5,-403.5 290.5,-403.5"/>
<text text-anchor="middle" x="334" y="-410.5" font-family="Helvetica,sans-Serif" font-size="10.00">cxx/ipc_basics</text>
</a>
</g>
</g>
<!-- Node18&#45;&gt;Node20 -->
<g id="edge37" class="edge">
<title>Node18&#45;&gt;Node20</title>
<path fill="none" stroke="midnightblue" d="M318.14,-459.08C320.68,-451.85 324.36,-441.41 327.53,-432.4"/>
<polygon fill="midnightblue" stroke="midnightblue" points="330.9,-433.35 330.92,-422.75 324.3,-431.02 330.9,-433.35"/>
</g>
<!-- Node21 -->
<g id="node21" class="node">
<title>Node21</title>
<g id="a_node21"><a xlink:href="capability_8h_source.html" target="_top" xlink:title=" ">
<polygon fill="white" stroke="black" points="180,-403.5 180,-422.5 272,-422.5 272,-403.5 180,-403.5"/>
<text text-anchor="middle" x="226" y="-410.5" font-family="Helvetica,sans-Serif" font-size="10.00">cxx/capability.h</text>
</a>
</g>
</g>
<!-- Node18&#45;&gt;Node21 -->
<g id="edge41" class="edge">
<title>Node18&#45;&gt;Node21</title>
<path fill="none" stroke="midnightblue" d="M300.7,-459.32C286.82,-450.9 265.51,-437.97 249.2,-428.07"/>
<polygon fill="midnightblue" stroke="midnightblue" points="250.63,-424.85 240.26,-422.65 247,-430.83 250.63,-424.85"/>
</g>
<!-- Node20&#45;&gt;Node11 -->
<g id="edge40" class="edge">
<title>Node20&#45;&gt;Node11</title>
<path fill="none" stroke="midnightblue" d="M351.34,-403.45C384.55,-386.58 458.49,-346.56 511,-300 527.11,-285.71 542.29,-266.24 552.24,-252.35"/>
<polygon fill="midnightblue" stroke="midnightblue" points="555.39,-253.95 558.24,-243.75 549.65,-249.94 555.39,-253.95"/>
</g>
<!-- Node20&#45;&gt;Node15 -->
<g id="edge39" class="edge">
<title>Node20&#45;&gt;Node15</title>
<path fill="none" stroke="midnightblue" d="M301.01,-403.44C282.54,-396.77 261.05,-385.45 250,-367 228.5,-331.09 246.39,-279.98 258.73,-253.11"/>
<polygon fill="midnightblue" stroke="midnightblue" points="262.04,-254.31 263.24,-243.79 255.74,-251.26 262.04,-254.31"/>
</g>
<!-- Node20&#45;&gt;Node19 -->
<g id="edge38" class="edge">
<title>Node20&#45;&gt;Node19</title>
<path fill="none" stroke="midnightblue" d="M299.76,-403.48C256.83,-392.79 183.27,-374.47 136.99,-362.95"/>
<polygon fill="midnightblue" stroke="midnightblue" points="137.81,-359.55 127.27,-360.53 136.12,-366.34 137.81,-359.55"/>
</g>
<!-- Node21&#45;&gt;Node3 -->
<g id="edge43" class="edge">
<title>Node21&#45;&gt;Node3</title>
<path fill="none" stroke="midnightblue" d="M222.25,-403.33C210.36,-374.3 176.69,-279.26 220,-224 236.02,-203.57 302.51,-191.17 350.74,-184.7"/>
<polygon fill="midnightblue" stroke="midnightblue" points="351.26,-188.17 360.73,-183.41 350.36,-181.22 351.26,-188.17"/>
</g>
<!-- Node21&#45;&gt;Node7 -->
<g id="edge42" class="edge">
<title>Node21&#45;&gt;Node7</title>
<path fill="none" stroke="midnightblue" d="M216.42,-403.33C197.04,-384.77 155,-338.98 155,-291 155,-291 155,-291 155,-233 155,-200.79 150.27,-163.53 147.02,-141.69"/>
<polygon fill="midnightblue" stroke="midnightblue" points="150.43,-140.87 145.44,-131.53 143.51,-141.95 150.43,-140.87"/>
</g>
<!-- Node21&#45;&gt;Node22 -->
<g id="edge44" class="edge">
<title>Node21&#45;&gt;Node22</title>
<path fill="none" stroke="midnightblue" d="M236.32,-403.48C247.65,-394.11 266.07,-378.88 279.84,-367.51"/>
<polygon fill="midnightblue" stroke="midnightblue" points="282.22,-370.08 287.7,-361.01 277.77,-364.68 282.22,-370.08"/>
</g>
<!-- Node22&#45;&gt;Node3 -->
<g id="edge45" class="edge">
<title>Node22&#45;&gt;Node3</title>
<path fill="none" stroke="midnightblue" d="M303.35,-341.76C319.85,-314.81 370.17,-232.62 392.33,-196.42"/>
<polygon fill="midnightblue" stroke="midnightblue" points="395.55,-197.88 397.78,-187.52 389.58,-194.22 395.55,-197.88"/>
</g>
<!-- Node22&#45;&gt;Node15 -->
<g id="edge46" class="edge">
<title>Node22&#45;&gt;Node15</title>
<path fill="none" stroke="midnightblue" d="M295.75,-341.82C290.9,-323.17 279.41,-278.94 272.84,-253.63"/>
<polygon fill="midnightblue" stroke="midnightblue" points="276.18,-252.58 270.28,-243.78 269.41,-254.34 276.18,-252.58"/>
</g>
<!-- Node22&#45;&gt;Node17 -->
<g id="edge47" class="edge">
<title>Node22&#45;&gt;Node17</title>
<path fill="none" stroke="midnightblue" d="M322.21,-341.98C351.33,-331.72 400.37,-314.46 433.2,-302.9"/>
<polygon fill="midnightblue" stroke="midnightblue" points="434.56,-306.13 442.83,-299.51 432.24,-299.53 434.56,-306.13"/>
</g>
<!-- Node23&#45;&gt;Node13 -->
<g id="edge50" class="edge">
<title>Node23&#45;&gt;Node13</title>
<path fill="none" stroke="midnightblue" d="M392.85,-627.37C418.65,-608.57 480.15,-563.77 512.05,-540.53"/>
<polygon fill="midnightblue" stroke="midnightblue" points="514.18,-543.31 520.21,-534.59 510.06,-537.65 514.18,-543.31"/>
</g>
<!-- Node24 -->
<g id="node24" class="node">
<title>Node24</title>
<g id="a_node24"><a xlink:href="ipc__iface.html" target="_top" xlink:title="Interface Definition Language.">
<polygon fill="white" stroke="black" points="305,-515.5 305,-534.5 385,-534.5 385,-515.5 305,-515.5"/>
<text text-anchor="middle" x="345" y="-522.5" font-family="Helvetica,sans-Serif" font-size="10.00">cxx/ipc_iface</text>
</a>
</g>
</g>
<!-- Node23&#45;&gt;Node24 -->
<g id="edge51" class="edge">
<title>Node23&#45;&gt;Node24</title>
<path fill="none" stroke="midnightblue" d="M378.18,-627.37C372.34,-609.54 358.84,-568.3 350.98,-544.27"/>
<polygon fill="midnightblue" stroke="midnightblue" points="354.25,-543.01 347.81,-534.59 347.6,-545.18 354.25,-543.01"/>
</g>
<!-- Node26 -->
<g id="node26" class="node">
<title>Node26</title>
<g id="a_node26"><a xlink:href="ipc__string_source.html" target="_top" xlink:title=" ">
<polygon fill="white" stroke="black" points="208,-571.5 208,-590.5 292,-590.5 292,-571.5 208,-571.5"/>
<text text-anchor="middle" x="250" y="-578.5" font-family="Helvetica,sans-Serif" font-size="10.00">cxx/ipc_string</text>
</a>
</g>
</g>
<!-- Node23&#45;&gt;Node26 -->
<g id="edge58" class="edge">
<title>Node23&#45;&gt;Node26</title>
<path fill="none" stroke="midnightblue" d="M360.24,-627.44C338.68,-618.56 304.74,-604.56 280.21,-594.45"/>
<polygon fill="midnightblue" stroke="midnightblue" points="281.24,-591.09 270.66,-590.52 278.57,-597.56 281.24,-591.09"/>
</g>
<!-- Node24&#45;&gt;Node18 -->
<g id="edge57" class="edge">
<title>Node24&#45;&gt;Node18</title>
<path fill="none" stroke="midnightblue" d="M340.05,-515.08C335.9,-507.61 329.85,-496.72 324.73,-487.52"/>
<polygon fill="midnightblue" stroke="midnightblue" points="327.78,-485.79 319.86,-478.75 321.66,-489.19 327.78,-485.79"/>
</g>
<!-- Node24&#45;&gt;Node20 -->
<g id="edge52" class="edge">
<title>Node24&#45;&gt;Node20</title>
<path fill="none" stroke="midnightblue" d="M350.36,-515.13C357.26,-502.59 367.7,-478.96 362,-459 359.1,-448.84 353.17,-438.75 347.51,-430.7"/>
<polygon fill="midnightblue" stroke="midnightblue" points="350.22,-428.48 341.41,-422.59 344.62,-432.69 350.22,-428.48"/>
</g>
<!-- Node25 -->
<g id="node25" class="node">
<title>Node25</title>
<g id="a_node25"><a xlink:href="ipc__types.html" target="_top" xlink:title=" ">
<polygon fill="white" stroke="black" points="104.5,-459.5 104.5,-478.5 219.5,-478.5 219.5,-459.5 104.5,-459.5"/>
<text text-anchor="middle" x="162" y="-466.5" font-family="Helvetica,sans-Serif" font-size="10.00">l4/sys/cxx/ipc_types</text>
</a>
</g>
</g>
<!-- Node24&#45;&gt;Node25 -->
<g id="edge53" class="edge">
<title>Node24&#45;&gt;Node25</title>
<path fill="none" stroke="midnightblue" d="M316,-515.44C284.82,-506.24 235.07,-491.56 200.59,-481.39"/>
<polygon fill="midnightblue" stroke="midnightblue" points="201.44,-477.99 190.86,-478.52 199.46,-484.7 201.44,-477.99"/>
</g>
<!-- Node25&#45;&gt;Node19 -->
<g id="edge55" class="edge">
<title>Node25&#45;&gt;Node19</title>
<path fill="none" stroke="midnightblue" d="M156.96,-459.32C146,-440.42 119.8,-395.25 105.22,-370.12"/>
<polygon fill="midnightblue" stroke="midnightblue" points="108.14,-368.18 100.09,-361.28 102.08,-371.69 108.14,-368.18"/>
</g>
<!-- Node25&#45;&gt;Node20 -->
<g id="edge56" class="edge">
<title>Node25&#45;&gt;Node20</title>
<path fill="none" stroke="midnightblue" d="M189.25,-459.44C218.44,-450.28 264.92,-435.69 297.31,-425.52"/>
<polygon fill="midnightblue" stroke="midnightblue" points="298.38,-428.85 306.87,-422.52 296.28,-422.17 298.38,-428.85"/>
</g>
<!-- Node25&#45;&gt;Node21 -->
<g id="edge54" class="edge">
<title>Node25&#45;&gt;Node21</title>
<path fill="none" stroke="midnightblue" d="M172.28,-459.32C181.84,-451.26 196.28,-439.08 207.78,-429.37"/>
<polygon fill="midnightblue" stroke="midnightblue" points="210.14,-431.96 215.53,-422.83 205.63,-426.61 210.14,-431.96"/>
</g>
<!-- Node26&#45;&gt;Node19 -->
<g id="edge59" class="edge">
<title>Node26&#45;&gt;Node19</title>
<path fill="none" stroke="midnightblue" d="M218.8,-571.44C178.99,-558.66 111.73,-530.41 82,-479 62.18,-444.73 76.5,-396.41 86.86,-370.53"/>
<polygon fill="midnightblue" stroke="midnightblue" points="90.13,-371.78 90.82,-361.21 83.69,-369.05 90.13,-371.78"/>
</g>
<!-- Node26&#45;&gt;Node20 -->
<g id="edge60" class="edge">
<title>Node26&#45;&gt;Node20</title>
<path fill="none" stroke="midnightblue" d="M292.32,-579.47C325.89,-576.53 370.88,-566.44 394,-535 419.32,-500.57 378.16,-453.82 352.36,-429.76"/>
<polygon fill="midnightblue" stroke="midnightblue" points="354.4,-426.88 344.63,-422.79 349.71,-432.08 354.4,-426.88"/>
</g>
<!-- Node27 -->
<g id="node27" class="node">
<title>Node27</title>
<g id="a_node27"><a xlink:href="ipc__array_source.html" target="_top" xlink:title=" ">
<polygon fill="white" stroke="black" points="174,-515.5 174,-534.5 236,-534.5 236,-515.5 174,-515.5"/>
<text text-anchor="middle" x="205" y="-522.5" font-family="Helvetica,sans-Serif" font-size="10.00">ipc_array</text>
</a>
</g>
</g>
<!-- Node26&#45;&gt;Node27 -->
<g id="edge61" class="edge">
<title>Node26&#45;&gt;Node27</title>
<path fill="none" stroke="midnightblue" d="M242.57,-571.08C236.15,-563.38 226.69,-552.03 218.88,-542.65"/>
<polygon fill="midnightblue" stroke="midnightblue" points="221.38,-540.19 212.29,-534.75 216.01,-544.67 221.38,-540.19"/>
</g>
<!-- Node27&#45;&gt;Node19 -->
<g id="edge62" class="edge">
<title>Node27&#45;&gt;Node19</title>
<path fill="none" stroke="midnightblue" d="M173.94,-520.65C147.98,-516.02 112.48,-505.04 95,-479 73.04,-446.29 81.86,-397.31 89.1,-370.92"/>
<polygon fill="midnightblue" stroke="midnightblue" points="92.52,-371.69 92.01,-361.11 85.81,-369.7 92.52,-371.69"/>
</g>
<!-- Node27&#45;&gt;Node20 -->
<g id="edge63" class="edge">
<title>Node27&#45;&gt;Node20</title>
<path fill="none" stroke="midnightblue" d="M212.11,-515.43C223.12,-502.43 245.3,-477.29 267,-459 280.67,-447.48 297.35,-436.27 310.65,-427.92"/>
<polygon fill="midnightblue" stroke="midnightblue" points="312.56,-430.85 319.24,-422.62 308.89,-424.89 312.56,-430.85"/>
</g>
<!-- Node27&#45;&gt;Node25 -->
<g id="edge64" class="edge">
<title>Node27&#45;&gt;Node25</title>
<path fill="none" stroke="midnightblue" d="M197.9,-515.08C191.76,-507.38 182.73,-496.03 175.26,-486.65"/>
<polygon fill="midnightblue" stroke="midnightblue" points="177.94,-484.39 168.97,-478.75 172.46,-488.75 177.94,-484.39"/>
</g>
<!-- Node29 -->
<g id="node29" class="node">
<title>Node29</title>
<g id="a_node29"><a xlink:title=" ">
<polygon fill="white" stroke="#bfbfbf" points="993.5,-627.5 993.5,-646.5 1064.5,-646.5 1064.5,-627.5 993.5,-627.5"/>
<text text-anchor="middle" x="1029" y="-634.5" font-family="Helvetica,sans-Serif" font-size="10.00">sys/cdefs.h</text>
</a>
</g>
</g>
<!-- Node28&#45;&gt;Node29 -->
<g id="edge66" class="edge">
<title>Node28&#45;&gt;Node29</title>
<path fill="none" stroke="midnightblue" d="M1029,-683.08C1029,-676.01 1029,-665.86 1029,-656.99"/>
<polygon fill="midnightblue" stroke="midnightblue" points="1032.5,-656.75 1029,-646.75 1025.5,-656.75 1032.5,-656.75"/>
</g>
</g>
</svg>
