<?xml version="1.0" encoding="UTF-8" standalone="no"?>
<!DOCTYPE svg PUBLIC "-//W3C//DTD SVG 1.1//EN"
 "http://www.w3.org/Graphics/SVG/1.1/DTD/svg11.dtd">
<!-- Generated by graphviz version 2.43.0 (0)
 -->
<!-- Title: l4/sys/factory.h Pages: 1 -->
<svg width="544pt" height="364pt"
 viewBox="0.00 0.00 543.50 364.00" xmlns="http://www.w3.org/2000/svg" xmlns:xlink="http://www.w3.org/1999/xlink">
<g id="graph0" class="graph" transform="scale(1 1) rotate(0) translate(4 360)">
<title>l4/sys/factory.h</title>
<polygon fill="white" stroke="transparent" points="-4,4 -4,-360 539.5,-360 539.5,4 -4,4"/>
<!-- Node1 -->
<g id="node1" class="node">
<title>Node1</title>
<g id="a_node1"><a xlink:title="Common factory related definitions.">
<polygon fill="#bfbfbf" stroke="black" points="324.5,-336.5 324.5,-355.5 414.5,-355.5 414.5,-336.5 324.5,-336.5"/>
<text text-anchor="middle" x="369.5" y="-343.5" font-family="Helvetica,sans-Serif" font-size="10.00">l4/sys/factory.h</text>
</a>
</g>
</g>
<!-- Node2 -->
<g id="node2" class="node">
<title>Node2</title>
<g id="a_node2"><a xlink:href="compiler_8h.html" target="_top" xlink:title="L4 compiler related defines.">
<polygon fill="white" stroke="black" points="343,-56.5 343,-75.5 442,-75.5 442,-56.5 343,-56.5"/>
<text text-anchor="middle" x="392.5" y="-63.5" font-family="Helvetica,sans-Serif" font-size="10.00">l4/sys/compiler.h</text>
</a>
</g>
</g>
<!-- Node1&#45;&gt;Node2 -->
<g id="edge1" class="edge">
<title>Node1&#45;&gt;Node2</title>
<path fill="none" stroke="midnightblue" d="M411.39,-336.45C460.56,-323.68 535.5,-294.46 535.5,-235 535.5,-235 535.5,-235 535.5,-177 535.5,-124.84 474.99,-93.99 432.69,-78.8"/>
<polygon fill="midnightblue" stroke="midnightblue" points="433.77,-75.47 423.18,-75.54 431.5,-82.09 433.77,-75.47"/>
</g>
<!-- Node4 -->
<g id="node4" class="node">
<title>Node4</title>
<g id="a_node4"><a xlink:href="l4_2sys_2types_8h.html" target="_top" xlink:title="Common L4 ABI Data Types.">
<polygon fill="white" stroke="black" points="226.5,-168.5 226.5,-187.5 310.5,-187.5 310.5,-168.5 226.5,-168.5"/>
<text text-anchor="middle" x="268.5" y="-175.5" font-family="Helvetica,sans-Serif" font-size="10.00">l4/sys/types.h</text>
</a>
</g>
</g>
<!-- Node1&#45;&gt;Node4 -->
<g id="edge3" class="edge">
<title>Node1&#45;&gt;Node4</title>
<path fill="none" stroke="midnightblue" d="M360.47,-336.42C343.7,-320.01 307.65,-282.4 287.5,-244 279.82,-229.36 274.84,-211.19 271.92,-197.79"/>
<polygon fill="midnightblue" stroke="midnightblue" points="275.32,-196.95 269.93,-187.83 268.46,-198.32 275.32,-196.95"/>
</g>
<!-- Node9 -->
<g id="node9" class="node">
<title>Node9</title>
<g id="a_node9"><a xlink:href="l4_2sys_2utcb_8h.html" target="_top" xlink:title="UTCB definitions.">
<polygon fill="white" stroke="black" points="296.5,-224.5 296.5,-243.5 374.5,-243.5 374.5,-224.5 296.5,-224.5"/>
<text text-anchor="middle" x="335.5" y="-231.5" font-family="Helvetica,sans-Serif" font-size="10.00">l4/sys/utcb.h</text>
</a>
</g>
</g>
<!-- Node1&#45;&gt;Node9 -->
<g id="edge13" class="edge">
<title>Node1&#45;&gt;Node9</title>
<path fill="none" stroke="midnightblue" d="M366.83,-336.37C361.32,-318.54 348.57,-277.3 341.15,-253.27"/>
<polygon fill="midnightblue" stroke="midnightblue" points="344.45,-252.11 338.16,-243.59 337.76,-254.18 344.45,-252.11"/>
</g>
<!-- Node10 -->
<g id="node10" class="node">
<title>Node10</title>
<g id="a_node10"><a xlink:href="l4_2sys_2ipc_8h.html" target="_top" xlink:title="Common IPC interface.">
<polygon fill="white" stroke="black" points="366,-280.5 366,-299.5 437,-299.5 437,-280.5 366,-280.5"/>
<text text-anchor="middle" x="401.5" y="-287.5" font-family="Helvetica,sans-Serif" font-size="10.00">l4/sys/ipc.h</text>
</a>
</g>
</g>
<!-- Node1&#45;&gt;Node10 -->
<g id="edge17" class="edge">
<title>Node1&#45;&gt;Node10</title>
<path fill="none" stroke="midnightblue" d="M374.78,-336.08C379.21,-328.61 385.66,-317.72 391.12,-308.52"/>
<polygon fill="midnightblue" stroke="midnightblue" points="394.23,-310.14 396.31,-299.75 388.21,-306.57 394.23,-310.14"/>
</g>
<!-- Node3 -->
<g id="node3" class="node">
<title>Node3</title>
<g id="a_node3"><a xlink:title=" ">
<polygon fill="white" stroke="#bfbfbf" points="346.5,-0.5 346.5,-19.5 438.5,-19.5 438.5,-0.5 346.5,-0.5"/>
<text text-anchor="middle" x="392.5" y="-7.5" font-family="Helvetica,sans-Serif" font-size="10.00">l4/sys/linkage.h</text>
</a>
</g>
</g>
<!-- Node2&#45;&gt;Node3 -->
<g id="edge2" class="edge">
<title>Node2&#45;&gt;Node3</title>
<path fill="none" stroke="midnightblue" d="M392.5,-56.08C392.5,-49.01 392.5,-38.86 392.5,-29.99"/>
<polygon fill="midnightblue" stroke="midnightblue" points="396,-29.75 392.5,-19.75 389,-29.75 396,-29.75"/>
</g>
<!-- Node4&#45;&gt;Node2 -->
<g id="edge5" class="edge">
<title>Node4&#45;&gt;Node2</title>
<path fill="none" stroke="midnightblue" d="M268.76,-168.31C269.61,-154.69 273.15,-128.19 287.5,-112 301.68,-96 322.53,-85.5 341.93,-78.7"/>
<polygon fill="midnightblue" stroke="midnightblue" points="343.16,-81.98 351.59,-75.56 341,-75.32 343.16,-81.98"/>
</g>
<!-- Node5 -->
<g id="node5" class="node">
<title>Node5</title>
<g id="a_node5"><a xlink:href="l4_2sys_2l4int_8h.html" target="_top" xlink:title="Fixed sized integer types, generic version.">
<polygon fill="white" stroke="black" points="0,-56.5 0,-75.5 79,-75.5 79,-56.5 0,-56.5"/>
<text text-anchor="middle" x="39.5" y="-63.5" font-family="Helvetica,sans-Serif" font-size="10.00">l4/sys/l4int.h</text>
</a>
</g>
</g>
<!-- Node4&#45;&gt;Node5 -->
<g id="edge4" class="edge">
<title>Node4&#45;&gt;Node5</title>
<path fill="none" stroke="midnightblue" d="M226.31,-175.74C161.87,-172.82 43.64,-163.24 17.5,-132 5.96,-118.21 15.68,-98.08 25.59,-83.89"/>
<polygon fill="midnightblue" stroke="midnightblue" points="28.67,-85.63 31.92,-75.54 23.09,-81.4 28.67,-85.63"/>
</g>
<!-- Node6 -->
<g id="node6" class="node">
<title>Node6</title>
<g id="a_node6"><a xlink:href="l4_2sys_2consts_8h.html" target="_top" xlink:title="Common constants.">
<polygon fill="white" stroke="black" points="151,-112.5 151,-131.5 240,-131.5 240,-112.5 151,-112.5"/>
<text text-anchor="middle" x="195.5" y="-119.5" font-family="Helvetica,sans-Serif" font-size="10.00">l4/sys/consts.h</text>
</a>
</g>
</g>
<!-- Node4&#45;&gt;Node6 -->
<g id="edge6" class="edge">
<title>Node4&#45;&gt;Node6</title>
<path fill="none" stroke="midnightblue" d="M256.77,-168.32C245.66,-160.11 228.76,-147.6 215.52,-137.81"/>
<polygon fill="midnightblue" stroke="midnightblue" points="217.56,-134.97 207.44,-131.83 213.4,-140.59 217.56,-134.97"/>
</g>
<!-- Node7 -->
<g id="node7" class="node">
<title>Node7</title>
<g id="a_node7"><a xlink:href="____l4__fpage_8h_source.html" target="_top" xlink:title=" ">
<polygon fill="white" stroke="black" points="296.5,-112.5 296.5,-131.5 406.5,-131.5 406.5,-112.5 296.5,-112.5"/>
<text text-anchor="middle" x="351.5" y="-119.5" font-family="Helvetica,sans-Serif" font-size="10.00">l4/sys/__l4_fpage.h</text>
</a>
</g>
</g>
<!-- Node4&#45;&gt;Node7 -->
<g id="edge9" class="edge">
<title>Node4&#45;&gt;Node7</title>
<path fill="none" stroke="midnightblue" d="M281.84,-168.32C294.66,-159.98 314.28,-147.21 329.44,-137.35"/>
<polygon fill="midnightblue" stroke="midnightblue" points="331.72,-140.04 338.2,-131.65 327.91,-134.17 331.72,-140.04"/>
</g>
<!-- Node8 -->
<g id="node8" class="node">
<title>Node8</title>
<g id="a_node8"><a xlink:href="____timeout_8h_source.html" target="_top" xlink:title=" ">
<polygon fill="white" stroke="black" points="26.5,-112.5 26.5,-131.5 132.5,-131.5 132.5,-112.5 26.5,-112.5"/>
<text text-anchor="middle" x="79.5" y="-119.5" font-family="Helvetica,sans-Serif" font-size="10.00">l4/sys/__timeout.h</text>
</a>
</g>
</g>
<!-- Node4&#45;&gt;Node8 -->
<g id="edge11" class="edge">
<title>Node4&#45;&gt;Node8</title>
<path fill="none" stroke="midnightblue" d="M238.55,-168.44C206.34,-159.24 154.97,-144.56 119.36,-134.39"/>
<polygon fill="midnightblue" stroke="midnightblue" points="119.88,-130.9 109.31,-131.52 117.96,-137.63 119.88,-130.9"/>
</g>
<!-- Node6&#45;&gt;Node2 -->
<g id="edge7" class="edge">
<title>Node6&#45;&gt;Node2</title>
<path fill="none" stroke="midnightblue" d="M226.72,-112.44C260.43,-103.2 314.3,-88.44 351.43,-78.26"/>
<polygon fill="midnightblue" stroke="midnightblue" points="352.71,-81.54 361.43,-75.52 350.86,-74.78 352.71,-81.54"/>
</g>
<!-- Node6&#45;&gt;Node5 -->
<g id="edge8" class="edge">
<title>Node6&#45;&gt;Node5</title>
<path fill="none" stroke="midnightblue" d="M170.78,-112.44C144.65,-103.4 103.24,-89.06 73.92,-78.92"/>
<polygon fill="midnightblue" stroke="midnightblue" points="74.7,-75.48 64.1,-75.52 72.41,-82.1 74.7,-75.48"/>
</g>
<!-- Node7&#45;&gt;Node2 -->
<g id="edge10" class="edge">
<title>Node7&#45;&gt;Node2</title>
<path fill="none" stroke="midnightblue" d="M358.27,-112.08C364.06,-104.46 372.56,-93.26 379.64,-83.94"/>
<polygon fill="midnightblue" stroke="midnightblue" points="382.6,-85.83 385.86,-75.75 377.02,-81.6 382.6,-85.83"/>
</g>
<!-- Node8&#45;&gt;Node5 -->
<g id="edge12" class="edge">
<title>Node8&#45;&gt;Node5</title>
<path fill="none" stroke="midnightblue" d="M72.89,-112.08C67.24,-104.46 58.96,-93.26 52.05,-83.94"/>
<polygon fill="midnightblue" stroke="midnightblue" points="54.75,-81.7 45.98,-75.75 49.12,-85.87 54.75,-81.7"/>
</g>
<!-- Node9&#45;&gt;Node2 -->
<g id="edge15" class="edge">
<title>Node9&#45;&gt;Node2</title>
<path fill="none" stroke="midnightblue" d="M345.92,-224.33C364.23,-208.33 401.53,-172.14 415.5,-132 421.14,-115.81 413.27,-97.39 405.24,-84.3"/>
<polygon fill="midnightblue" stroke="midnightblue" points="408.03,-82.18 399.56,-75.82 402.22,-86.08 408.03,-82.18"/>
</g>
<!-- Node9&#45;&gt;Node4 -->
<g id="edge14" class="edge">
<title>Node9&#45;&gt;Node4</title>
<path fill="none" stroke="midnightblue" d="M324.74,-224.32C314.73,-216.26 299.61,-204.08 287.57,-194.37"/>
<polygon fill="midnightblue" stroke="midnightblue" points="289.44,-191.38 279.46,-187.83 285.05,-196.83 289.44,-191.38"/>
</g>
<!-- Node9&#45;&gt;Node5 -->
<g id="edge16" class="edge">
<title>Node9&#45;&gt;Node5</title>
<path fill="none" stroke="midnightblue" d="M296.33,-226.78C217.27,-213.34 43.16,-178.98 8.5,-132 -2.79,-116.69 10.29,-96.62 22.76,-82.86"/>
<polygon fill="midnightblue" stroke="midnightblue" points="25.38,-85.18 29.84,-75.56 20.36,-80.3 25.38,-85.18"/>
</g>
<!-- Node10&#45;&gt;Node4 -->
<g id="edge18" class="edge">
<title>Node10&#45;&gt;Node4</title>
<path fill="none" stroke="midnightblue" d="M401.45,-280.26C400.92,-266.58 397.93,-240 383.5,-224 367.11,-205.83 342.48,-194.92 320.22,-188.41"/>
<polygon fill="midnightblue" stroke="midnightblue" points="321.09,-185.02 310.52,-185.79 319.27,-191.78 321.09,-185.02"/>
</g>
<!-- Node10&#45;&gt;Node9 -->
<g id="edge19" class="edge">
<title>Node10&#45;&gt;Node9</title>
<path fill="none" stroke="midnightblue" d="M390.9,-280.32C381.04,-272.26 366.15,-260.08 354.28,-250.37"/>
<polygon fill="midnightblue" stroke="midnightblue" points="356.25,-247.46 346.3,-243.83 351.82,-252.88 356.25,-247.46"/>
</g>
<!-- Node11 -->
<g id="node11" class="node">
<title>Node11</title>
<g id="a_node11"><a xlink:href="err_8h.html" target="_top" xlink:title="Error codes.">
<polygon fill="white" stroke="black" points="437.5,-168.5 437.5,-187.5 507.5,-187.5 507.5,-168.5 437.5,-168.5"/>
<text text-anchor="middle" x="472.5" y="-175.5" font-family="Helvetica,sans-Serif" font-size="10.00">l4/sys/err.h</text>
</a>
</g>
</g>
<!-- Node10&#45;&gt;Node11 -->
<g id="edge20" class="edge">
<title>Node10&#45;&gt;Node11</title>
<path fill="none" stroke="midnightblue" d="M407.07,-280.37C418.74,-262.3 445.92,-220.18 461.33,-196.31"/>
<polygon fill="midnightblue" stroke="midnightblue" points="464.47,-197.89 466.95,-187.59 458.59,-194.1 464.47,-197.89"/>
</g>
<!-- Node11&#45;&gt;Node2 -->
<g id="edge21" class="edge">
<title>Node11&#45;&gt;Node2</title>
<path fill="none" stroke="midnightblue" d="M470.85,-168.3C468.02,-155.13 461.29,-129.77 448.5,-112 439.76,-99.86 426.92,-89.22 415.74,-81.33"/>
<polygon fill="midnightblue" stroke="midnightblue" points="417.49,-78.29 407.23,-75.63 413.59,-84.11 417.49,-78.29"/>
</g>
</g>
</svg>
