<?xml version="1.0" encoding="UTF-8" standalone="no"?>
<!DOCTYPE svg PUBLIC "-//W3C//DTD SVG 1.1//EN"
 "http://www.w3.org/Graphics/SVG/1.1/DTD/svg11.dtd">
<!-- Generated by graphviz version 2.43.0 (0)
 -->
<!-- Title: l4/sys/factory Pages: 1 -->
<svg width="1270pt" height="285pt"
 viewBox="0.00 0.00 1270.48 285.00" xmlns="http://www.w3.org/2000/svg" xmlns:xlink="http://www.w3.org/1999/xlink">
<g id="graph0" class="graph" transform="scale(1 1) rotate(0) translate(4 281)">
<title>l4/sys/factory</title>
<polygon fill="white" stroke="transparent" points="-4,4 -4,-281 1266.48,-281 1266.48,4 -4,4"/>
<!-- Node1 -->
<g id="node1" class="node">
<title>Node1</title>
<g id="a_node1"><a xlink:title="Common factory related definitions.">
<polygon fill="#bfbfbf" stroke="black" points="378.98,-257.5 378.98,-276.5 461.98,-276.5 461.98,-257.5 378.98,-257.5"/>
<text text-anchor="middle" x="420.48" y="-264.5" font-family="Helvetica,sans-Serif" font-size="10.00">l4/sys/factory</text>
</a>
</g>
</g>
<!-- Node2 -->
<g id="node2" class="node">
<title>Node2</title>
<g id="a_node2"><a xlink:href="client_2virtio-block_source.html" target="_top" xlink:title=" ">
<polygon fill="white" stroke="black" points="34.98,-0.5 34.98,-30.5 127.98,-30.5 127.98,-0.5 34.98,-0.5"/>
<text text-anchor="start" x="42.98" y="-18.5" font-family="Helvetica,sans-Serif" font-size="10.00">l4/l4virtio/client</text>
<text text-anchor="middle" x="81.48" y="-7.5" font-family="Helvetica,sans-Serif" font-size="10.00">/virtio&#45;block</text>
</a>
</g>
</g>
<!-- Node1&#45;&gt;Node2 -->
<g id="edge1" class="edge">
<title>Node1&#45;&gt;Node2</title>
<path fill="none" stroke="midnightblue" d="M368.66,-262.7C276.98,-253.75 88.09,-220.57 5.48,-98 -2.22,-86.58 -1.03,-79.14 5.48,-67 14.24,-50.66 30.86,-38.71 46.34,-30.55"/>
<polygon fill="midnightblue" stroke="midnightblue" points="368.53,-266.21 378.81,-263.63 369.17,-259.23 368.53,-266.21"/>
</g>
<!-- Node3 -->
<g id="node3" class="node">
<title>Node3</title>
<g id="a_node3"><a xlink:href="vcon__stream__impl_8h_source.html" target="_top" xlink:title=" ">
<polygon fill="white" stroke="black" points="165.98,-67.5 165.98,-97.5 284.98,-97.5 284.98,-67.5 165.98,-67.5"/>
<text text-anchor="start" x="173.98" y="-85.5" font-family="Helvetica,sans-Serif" font-size="10.00">l4/l4re_vfs/impl/vcon</text>
<text text-anchor="middle" x="225.48" y="-74.5" font-family="Helvetica,sans-Serif" font-size="10.00">_stream_impl.h</text>
</a>
</g>
</g>
<!-- Node1&#45;&gt;Node3 -->
<g id="edge2" class="edge">
<title>Node1&#45;&gt;Node3</title>
<path fill="none" stroke="midnightblue" d="M403.81,-250.4C366.49,-215.47 276.64,-131.39 240.71,-97.75"/>
<polygon fill="midnightblue" stroke="midnightblue" points="401.64,-253.16 411.33,-257.44 406.42,-248.05 401.64,-253.16"/>
</g>
<!-- Node4 -->
<g id="node4" class="node">
<title>Node4</title>
<g id="a_node4"><a xlink:href="mem__alloc__impl_8h.html" target="_top" xlink:title="Memory allocator client stub implementation.">
<polygon fill="white" stroke="black" points="533.48,-134.5 533.48,-164.5 653.48,-164.5 653.48,-134.5 533.48,-134.5"/>
<text text-anchor="start" x="541.48" y="-152.5" font-family="Helvetica,sans-Serif" font-size="10.00">l4/re/impl/mem_alloc</text>
<text text-anchor="middle" x="593.48" y="-141.5" font-family="Helvetica,sans-Serif" font-size="10.00">_impl.h</text>
</a>
</g>
</g>
<!-- Node1&#45;&gt;Node4 -->
<g id="edge3" class="edge">
<title>Node1&#45;&gt;Node4</title>
<path fill="none" stroke="midnightblue" d="M470.82,-254.69C494.23,-247.7 521.47,-236.94 542.48,-221 562.58,-205.75 578.16,-180.4 586.56,-164.61"/>
<polygon fill="midnightblue" stroke="midnightblue" points="469.72,-251.37 461.05,-257.46 471.63,-258.1 469.72,-251.37"/>
</g>
<!-- Node5 -->
<g id="node5" class="node">
<title>Node5</title>
<g id="a_node5"><a xlink:href="mem__alloc.html" target="_top" xlink:title="Memory allocator interface.">
<polygon fill="white" stroke="black" points="437.98,-201.5 437.98,-220.5 532.98,-220.5 532.98,-201.5 437.98,-201.5"/>
<text text-anchor="middle" x="485.48" y="-208.5" font-family="Helvetica,sans-Serif" font-size="10.00">l4/re/mem_alloc</text>
</a>
</g>
</g>
<!-- Node1&#45;&gt;Node5 -->
<g id="edge4" class="edge">
<title>Node1&#45;&gt;Node5</title>
<path fill="none" stroke="midnightblue" d="M438.75,-250.82C450.4,-241.15 465.08,-228.95 474.84,-220.83"/>
<polygon fill="midnightblue" stroke="midnightblue" points="436.38,-248.24 430.92,-257.32 440.85,-253.63 436.38,-248.24"/>
</g>
<!-- Node14 -->
<g id="node14" class="node">
<title>Node14</title>
<g id="a_node14"><a xlink:href="util_2event.html" target="_top" xlink:title=" ">
<polygon fill="white" stroke="black" points="1174.48,-73 1174.48,-92 1262.48,-92 1262.48,-73 1174.48,-73"/>
<text text-anchor="middle" x="1218.48" y="-80" font-family="Helvetica,sans-Serif" font-size="10.00">l4/re/util/event</text>
</a>
</g>
</g>
<!-- Node1&#45;&gt;Node14 -->
<g id="edge22" class="edge">
<title>Node1&#45;&gt;Node14</title>
<path fill="none" stroke="midnightblue" d="M471.49,-255.33C592.41,-229.85 905.78,-162.77 1165.48,-98 1172.88,-96.15 1180.84,-94.04 1188.27,-92.02"/>
<polygon fill="midnightblue" stroke="midnightblue" points="470.48,-251.97 461.41,-257.45 471.92,-258.82 470.48,-251.97"/>
</g>
<!-- Node18 -->
<g id="node18" class="node">
<title>Node18</title>
<g id="a_node18"><a xlink:href="object__registry_source.html" target="_top" xlink:title=" ">
<polygon fill="white" stroke="black" points="14.98,-73 14.98,-92 147.98,-92 147.98,-73 14.98,-73"/>
<text text-anchor="middle" x="81.48" y="-80" font-family="Helvetica,sans-Serif" font-size="10.00">l4/re/util/object_registry</text>
</a>
</g>
</g>
<!-- Node1&#45;&gt;Node18 -->
<g id="edge23" class="edge">
<title>Node1&#45;&gt;Node18</title>
<path fill="none" stroke="midnightblue" d="M395.7,-252.66C329.81,-217.19 151.56,-121.23 97.34,-92.04"/>
<polygon fill="midnightblue" stroke="midnightblue" points="394.12,-255.78 404.58,-257.44 397.44,-249.62 394.12,-255.78"/>
</g>
<!-- Node5&#45;&gt;Node4 -->
<g id="edge21" class="edge">
<title>Node5&#45;&gt;Node4</title>
<path fill="none" stroke="midnightblue" d="M509.91,-196.54C527.24,-186.99 550.46,-174.2 568.02,-164.52"/>
<polygon fill="midnightblue" stroke="midnightblue" points="508.02,-193.58 500.95,-201.48 511.4,-199.72 508.02,-193.58"/>
</g>
<!-- Node6 -->
<g id="node6" class="node">
<title>Node6</title>
<g id="a_node6"><a xlink:href="env.html" target="_top" xlink:title="Environment interface.">
<polygon fill="white" stroke="black" points="455.98,-140 455.98,-159 514.98,-159 514.98,-140 455.98,-140"/>
<text text-anchor="middle" x="485.48" y="-147" font-family="Helvetica,sans-Serif" font-size="10.00">l4/re/env</text>
</a>
</g>
</g>
<!-- Node5&#45;&gt;Node6 -->
<g id="edge5" class="edge">
<title>Node5&#45;&gt;Node6</title>
<path fill="none" stroke="midnightblue" d="M485.48,-191.32C485.48,-180.5 485.48,-167.4 485.48,-159.01"/>
<polygon fill="midnightblue" stroke="midnightblue" points="481.98,-191.48 485.48,-201.48 488.98,-191.48 481.98,-191.48"/>
</g>
<!-- Node6&#45;&gt;Node2 -->
<g id="edge7" class="edge">
<title>Node6&#45;&gt;Node2</title>
<path fill="none" stroke="midnightblue" d="M445.91,-139.55C414.06,-131.39 368.79,-117.61 332.48,-98 313,-87.48 313.39,-76.69 293.48,-67 240.06,-41.02 172.43,-27.91 128.1,-21.66"/>
<polygon fill="midnightblue" stroke="midnightblue" points="445.2,-142.98 455.75,-142 446.89,-136.18 445.2,-142.98"/>
</g>
<!-- Node6&#45;&gt;Node3 -->
<g id="edge11" class="edge">
<title>Node6&#45;&gt;Node3</title>
<path fill="none" stroke="midnightblue" d="M446.2,-138.68C402.44,-127.74 331.32,-109.96 281.68,-97.55"/>
<polygon fill="midnightblue" stroke="midnightblue" points="445.36,-142.08 455.91,-141.11 447.05,-135.29 445.36,-142.08"/>
</g>
<!-- Node7 -->
<g id="node7" class="node">
<title>Node7</title>
<g id="a_node7"><a xlink:href="vcpu_source.html" target="_top" xlink:title=" ">
<polygon fill="white" stroke="black" points="341.48,-73 341.48,-92 419.48,-92 419.48,-73 341.48,-73"/>
<text text-anchor="middle" x="380.48" y="-80" font-family="Helvetica,sans-Serif" font-size="10.00">l4/vcpu/vcpu</text>
</a>
</g>
</g>
<!-- Node6&#45;&gt;Node7 -->
<g id="edge6" class="edge">
<title>Node6&#45;&gt;Node7</title>
<path fill="none" stroke="midnightblue" d="M462.77,-134.44C441.97,-121.57 411.86,-102.93 394.41,-92.13"/>
<polygon fill="midnightblue" stroke="midnightblue" points="460.97,-137.45 471.32,-139.73 464.66,-131.49 460.97,-137.45"/>
</g>
<!-- Node8 -->
<g id="node8" class="node">
<title>Node8</title>
<g id="a_node8"><a xlink:href="server_2l4virtio_source.html" target="_top" xlink:title=" ">
<polygon fill="white" stroke="black" points="673.98,-67.5 673.98,-97.5 770.98,-97.5 770.98,-67.5 673.98,-67.5"/>
<text text-anchor="start" x="681.98" y="-85.5" font-family="Helvetica,sans-Serif" font-size="10.00">l4/l4virtio/server</text>
<text text-anchor="middle" x="722.48" y="-74.5" font-family="Helvetica,sans-Serif" font-size="10.00">/l4virtio</text>
</a>
</g>
</g>
<!-- Node6&#45;&gt;Node8 -->
<g id="edge8" class="edge">
<title>Node6&#45;&gt;Node8</title>
<path fill="none" stroke="midnightblue" d="M516.64,-136.58C519.28,-135.67 521.92,-134.8 524.48,-134 526.31,-133.43 615.83,-110.63 673.86,-95.87"/>
<polygon fill="midnightblue" stroke="midnightblue" points="515.44,-133.29 507.2,-139.96 517.8,-139.88 515.44,-133.29"/>
</g>
<!-- Node10 -->
<g id="node10" class="node">
<title>Node10</title>
<g id="a_node10"><a xlink:href="ro__file__impl_8h_source.html" target="_top" xlink:title=" ">
<polygon fill="white" stroke="black" points="550.98,-67.5 550.98,-97.5 655.98,-97.5 655.98,-67.5 550.98,-67.5"/>
<text text-anchor="start" x="558.98" y="-85.5" font-family="Helvetica,sans-Serif" font-size="10.00">l4/l4re_vfs/impl/ro</text>
<text text-anchor="middle" x="603.48" y="-74.5" font-family="Helvetica,sans-Serif" font-size="10.00">_file_impl.h</text>
</a>
</g>
</g>
<!-- Node6&#45;&gt;Node10 -->
<g id="edge10" class="edge">
<title>Node6&#45;&gt;Node10</title>
<path fill="none" stroke="midnightblue" d="M510.16,-134.9C530.02,-123.97 557.82,-108.65 577.9,-97.59"/>
<polygon fill="midnightblue" stroke="midnightblue" points="508.46,-131.84 501.39,-139.73 511.84,-137.97 508.46,-131.84"/>
</g>
<!-- Node11 -->
<g id="node11" class="node">
<title>Node11</title>
<g id="a_node11"><a xlink:href="vfs__impl_8h_source.html" target="_top" xlink:title=" ">
<polygon fill="white" stroke="black" points="789.48,-67.5 789.48,-97.5 899.48,-97.5 899.48,-67.5 789.48,-67.5"/>
<text text-anchor="start" x="797.48" y="-85.5" font-family="Helvetica,sans-Serif" font-size="10.00">l4/l4re_vfs/impl/vfs</text>
<text text-anchor="middle" x="844.48" y="-74.5" font-family="Helvetica,sans-Serif" font-size="10.00">_impl.h</text>
</a>
</g>
</g>
<!-- Node6&#45;&gt;Node11 -->
<g id="edge12" class="edge">
<title>Node6&#45;&gt;Node11</title>
<path fill="none" stroke="midnightblue" d="M515.37,-136.65C518.42,-135.66 521.49,-134.76 524.48,-134 635.86,-105.82 667.46,-118.71 780.48,-98 783.39,-97.47 786.37,-96.89 789.38,-96.29"/>
<polygon fill="midnightblue" stroke="midnightblue" points="514.14,-133.37 505.86,-139.98 516.45,-139.98 514.14,-133.37"/>
</g>
<!-- Node12 -->
<g id="node12" class="node">
<title>Node12</title>
<g id="a_node12"><a xlink:href="env__ns_source.html" target="_top" xlink:title=" ">
<polygon fill="white" stroke="black" points="917.98,-73 917.98,-92 1012.98,-92 1012.98,-73 917.98,-73"/>
<text text-anchor="middle" x="965.48" y="-80" font-family="Helvetica,sans-Serif" font-size="10.00">l4/re/util/env_ns</text>
</a>
</g>
</g>
<!-- Node6&#45;&gt;Node12 -->
<g id="edge13" class="edge">
<title>Node6&#45;&gt;Node12</title>
<path fill="none" stroke="midnightblue" d="M515.13,-136.57C518.25,-135.58 521.41,-134.7 524.48,-134 691.58,-95.8 739.57,-127.22 908.48,-98 917.33,-96.47 926.83,-94.28 935.49,-92.06"/>
<polygon fill="midnightblue" stroke="midnightblue" points="513.71,-133.36 505.41,-139.94 516.01,-139.97 513.71,-133.36"/>
</g>
<!-- Node6&#45;&gt;Node14 -->
<g id="edge15" class="edge">
<title>Node6&#45;&gt;Node14</title>
<path fill="none" stroke="midnightblue" d="M514.59,-136.61C517.88,-135.58 521.23,-134.68 524.48,-134 803.78,-75.63 883.86,-143.9 1165.48,-98 1174.05,-96.6 1183.22,-94.37 1191.49,-92.07"/>
<polygon fill="midnightblue" stroke="midnightblue" points="513.28,-133.36 504.98,-139.95 515.57,-139.97 513.28,-133.36"/>
</g>
<!-- Node15 -->
<g id="node15" class="node">
<title>Node15</title>
<g id="a_node15"><a xlink:href="icu__svr_source.html" target="_top" xlink:title=" ">
<polygon fill="white" stroke="black" points="437.98,-73 437.98,-92 532.98,-92 532.98,-73 437.98,-73"/>
<text text-anchor="middle" x="485.48" y="-80" font-family="Helvetica,sans-Serif" font-size="10.00">l4/re/util/icu_svr</text>
</a>
</g>
</g>
<!-- Node6&#45;&gt;Node15 -->
<g id="edge16" class="edge">
<title>Node6&#45;&gt;Node15</title>
<path fill="none" stroke="midnightblue" d="M485.48,-129.54C485.48,-117.17 485.48,-101.62 485.48,-92.13"/>
<polygon fill="midnightblue" stroke="midnightblue" points="481.98,-129.73 485.48,-139.73 488.98,-129.73 481.98,-129.73"/>
</g>
<!-- Node17 -->
<g id="node17" class="node">
<title>Node17</title>
<g id="a_node17"><a xlink:href="kumem__alloc.html" target="_top" xlink:title="Kumem allocator helper.">
<polygon fill="white" stroke="black" points="1030.98,-73 1030.98,-92 1155.98,-92 1155.98,-73 1030.98,-73"/>
<text text-anchor="middle" x="1093.48" y="-80" font-family="Helvetica,sans-Serif" font-size="10.00">l4/re/util/kumem_alloc</text>
</a>
</g>
</g>
<!-- Node6&#45;&gt;Node17 -->
<g id="edge18" class="edge">
<title>Node6&#45;&gt;Node17</title>
<path fill="none" stroke="midnightblue" d="M515.12,-136.5C518.24,-135.53 521.4,-134.67 524.48,-134 741.32,-86.86 802.64,-128.26 1022.48,-98 1033.57,-96.47 1045.53,-94.26 1056.42,-92.01"/>
<polygon fill="midnightblue" stroke="midnightblue" points="513.7,-133.28 505.39,-139.86 515.99,-139.9 513.7,-133.28"/>
</g>
<!-- Node6&#45;&gt;Node18 -->
<g id="edge19" class="edge">
<title>Node6&#45;&gt;Node18</title>
<path fill="none" stroke="midnightblue" d="M445.81,-142.92C383.91,-134.09 260.63,-116.05 156.48,-98 146.02,-96.19 134.78,-94.09 124.26,-92.07"/>
<polygon fill="midnightblue" stroke="midnightblue" points="445.53,-146.41 455.92,-144.35 446.52,-139.48 445.53,-146.41"/>
</g>
<!-- Node9 -->
<g id="node9" class="node">
<title>Node9</title>
<g id="a_node9"><a xlink:href="server_2virtio-block_source.html" target="_top" xlink:title=" ">
<polygon fill="white" stroke="black" points="673.98,-0.5 673.98,-30.5 770.98,-30.5 770.98,-0.5 673.98,-0.5"/>
<text text-anchor="start" x="681.98" y="-18.5" font-family="Helvetica,sans-Serif" font-size="10.00">l4/l4virtio/server</text>
<text text-anchor="middle" x="722.48" y="-7.5" font-family="Helvetica,sans-Serif" font-size="10.00">/virtio&#45;block</text>
</a>
</g>
</g>
<!-- Node8&#45;&gt;Node9 -->
<g id="edge9" class="edge">
<title>Node8&#45;&gt;Node9</title>
<path fill="none" stroke="midnightblue" d="M722.48,-57.11C722.48,-48.15 722.48,-38.32 722.48,-30.58"/>
<polygon fill="midnightblue" stroke="midnightblue" points="718.98,-57.4 722.48,-67.4 725.98,-57.4 718.98,-57.4"/>
</g>
<!-- Node13 -->
<g id="node13" class="node">
<title>Node13</title>
<g id="a_node13"><a xlink:href="ns__fs__impl_8h_source.html" target="_top" xlink:title=" ">
<polygon fill="white" stroke="black" points="911.98,-0.5 911.98,-30.5 1018.98,-30.5 1018.98,-0.5 911.98,-0.5"/>
<text text-anchor="start" x="919.98" y="-18.5" font-family="Helvetica,sans-Serif" font-size="10.00">l4/l4re_vfs/impl/ns</text>
<text text-anchor="middle" x="965.48" y="-7.5" font-family="Helvetica,sans-Serif" font-size="10.00">_fs_impl.h</text>
</a>
</g>
</g>
<!-- Node12&#45;&gt;Node13 -->
<g id="edge14" class="edge">
<title>Node12&#45;&gt;Node13</title>
<path fill="none" stroke="midnightblue" d="M965.48,-62.41C965.48,-52.22 965.48,-39.9 965.48,-30.59"/>
<polygon fill="midnightblue" stroke="midnightblue" points="961.98,-62.73 965.48,-72.73 968.98,-62.73 961.98,-62.73"/>
</g>
<!-- Node16 -->
<g id="node16" class="node">
<title>Node16</title>
<g id="a_node16"><a xlink:href="event__svr_source.html" target="_top" xlink:title=" ">
<polygon fill="white" stroke="black" points="431.48,-6 431.48,-25 539.48,-25 539.48,-6 431.48,-6"/>
<text text-anchor="middle" x="485.48" y="-13" font-family="Helvetica,sans-Serif" font-size="10.00">l4/re/util/event_svr</text>
</a>
</g>
</g>
<!-- Node15&#45;&gt;Node16 -->
<g id="edge17" class="edge">
<title>Node15&#45;&gt;Node16</title>
<path fill="none" stroke="midnightblue" d="M485.48,-62.54C485.48,-50.17 485.48,-34.62 485.48,-25.13"/>
<polygon fill="midnightblue" stroke="midnightblue" points="481.98,-62.73 485.48,-72.73 488.98,-62.73 481.98,-62.73"/>
</g>
<!-- Node18&#45;&gt;Node2 -->
<g id="edge20" class="edge">
<title>Node18&#45;&gt;Node2</title>
<path fill="none" stroke="midnightblue" d="M81.48,-62.41C81.48,-52.22 81.48,-39.9 81.48,-30.59"/>
<polygon fill="midnightblue" stroke="midnightblue" points="77.98,-62.73 81.48,-72.73 84.98,-62.73 77.98,-62.73"/>
</g>
</g>
</svg>
