<?xml version="1.0" encoding="UTF-8" standalone="no"?>
<!DOCTYPE svg PUBLIC "-//W3C//DTD SVG 1.1//EN"
 "http://www.w3.org/Graphics/SVG/1.1/DTD/svg11.dtd">
<!-- Generated by graphviz version 2.43.0 (0)
 -->
<!-- Title: l4/re/c/util/video/goos_fb.h Pages: 1 -->
<svg width="530pt" height="431pt"
 viewBox="0.00 0.00 530.00 431.00" xmlns="http://www.w3.org/2000/svg" xmlns:xlink="http://www.w3.org/1999/xlink">
<g id="graph0" class="graph" transform="scale(1 1) rotate(0) translate(4 427)">
<title>l4/re/c/util/video/goos_fb.h</title>
<polygon fill="white" stroke="transparent" points="-4,4 -4,-427 526,-427 526,4 -4,4"/>
<!-- Node1 -->
<g id="node1" class="node">
<title>Node1</title>
<g id="a_node1"><a xlink:title="Framebuffer utility functionality.">
<polygon fill="#bfbfbf" stroke="black" points="97.5,-392.5 97.5,-422.5 192.5,-422.5 192.5,-392.5 97.5,-392.5"/>
<text text-anchor="start" x="105.5" y="-410.5" font-family="Helvetica,sans-Serif" font-size="10.00">l4/re/c/util/video</text>
<text text-anchor="middle" x="145" y="-399.5" font-family="Helvetica,sans-Serif" font-size="10.00">/goos_fb.h</text>
</a>
</g>
</g>
<!-- Node2 -->
<g id="node2" class="node">
<title>Node2</title>
<g id="a_node2"><a xlink:href="compiler_8h.html" target="_top" xlink:title="L4 compiler related defines.">
<polygon fill="white" stroke="black" points="68.5,-56.5 68.5,-75.5 167.5,-75.5 167.5,-56.5 68.5,-56.5"/>
<text text-anchor="middle" x="118" y="-63.5" font-family="Helvetica,sans-Serif" font-size="10.00">l4/sys/compiler.h</text>
</a>
</g>
</g>
<!-- Node1&#45;&gt;Node2 -->
<g id="edge1" class="edge">
<title>Node1&#45;&gt;Node2</title>
<path fill="none" stroke="midnightblue" d="M101.1,-392.46C58.42,-375.74 0,-343.3 0,-291 0,-291 0,-291 0,-177 0,-129.51 51.77,-96.67 86.72,-79.91"/>
<polygon fill="midnightblue" stroke="midnightblue" points="88.46,-82.97 96.08,-75.61 85.53,-76.61 88.46,-82.97"/>
</g>
<!-- Node4 -->
<g id="node4" class="node">
<title>Node4</title>
<g id="a_node4"><a xlink:href="goos_8h.html" target="_top" xlink:title=" ">
<polygon fill="white" stroke="black" points="132,-336.5 132,-355.5 244,-355.5 244,-336.5 132,-336.5"/>
<text text-anchor="middle" x="188" y="-343.5" font-family="Helvetica,sans-Serif" font-size="10.00">l4/re/c/video/goos.h</text>
</a>
</g>
</g>
<!-- Node1&#45;&gt;Node4 -->
<g id="edge3" class="edge">
<title>Node1&#45;&gt;Node4</title>
<path fill="none" stroke="midnightblue" d="M155.19,-392.4C161.37,-383.84 169.3,-372.87 175.82,-363.86"/>
<polygon fill="midnightblue" stroke="midnightblue" points="178.72,-365.81 181.74,-355.66 173.05,-361.71 178.72,-365.81"/>
</g>
<!-- Node10 -->
<g id="node10" class="node">
<title>Node10</title>
<g id="a_node10"><a xlink:href="dataspace_8h.html" target="_top" xlink:title="Data space C interface.">
<polygon fill="white" stroke="black" points="301.5,-224.5 301.5,-243.5 410.5,-243.5 410.5,-224.5 301.5,-224.5"/>
<text text-anchor="middle" x="356" y="-231.5" font-family="Helvetica,sans-Serif" font-size="10.00">l4/re/c/dataspace.h</text>
</a>
</g>
</g>
<!-- Node1&#45;&gt;Node10 -->
<g id="edge24" class="edge">
<title>Node1&#45;&gt;Node10</title>
<path fill="none" stroke="midnightblue" d="M192.91,-397.76C243.75,-385.62 321.4,-358.2 356,-300 364.28,-286.07 363.27,-267.31 360.79,-253.53"/>
<polygon fill="midnightblue" stroke="midnightblue" points="364.2,-252.74 358.63,-243.73 357.36,-254.25 364.2,-252.74"/>
</g>
<!-- Node13 -->
<g id="node13" class="node">
<title>Node13</title>
<g id="a_node13"><a xlink:href="err_8h.html" target="_top" xlink:title="Error codes.">
<polygon fill="white" stroke="black" points="52,-280.5 52,-299.5 122,-299.5 122,-280.5 52,-280.5"/>
<text text-anchor="middle" x="87" y="-287.5" font-family="Helvetica,sans-Serif" font-size="10.00">l4/sys/err.h</text>
</a>
</g>
</g>
<!-- Node1&#45;&gt;Node13 -->
<g id="edge22" class="edge">
<title>Node1&#45;&gt;Node13</title>
<path fill="none" stroke="midnightblue" d="M137.89,-392.34C127.3,-371.24 107.39,-331.6 95.86,-308.65"/>
<polygon fill="midnightblue" stroke="midnightblue" points="98.97,-307.04 91.35,-299.67 92.71,-310.18 98.97,-307.04"/>
</g>
<!-- Node3 -->
<g id="node3" class="node">
<title>Node3</title>
<g id="a_node3"><a xlink:title=" ">
<polygon fill="white" stroke="#bfbfbf" points="72,-0.5 72,-19.5 164,-19.5 164,-0.5 72,-0.5"/>
<text text-anchor="middle" x="118" y="-7.5" font-family="Helvetica,sans-Serif" font-size="10.00">l4/sys/linkage.h</text>
</a>
</g>
</g>
<!-- Node2&#45;&gt;Node3 -->
<g id="edge2" class="edge">
<title>Node2&#45;&gt;Node3</title>
<path fill="none" stroke="midnightblue" d="M118,-56.08C118,-49.01 118,-38.86 118,-29.99"/>
<polygon fill="midnightblue" stroke="midnightblue" points="121.5,-29.75 118,-19.75 114.5,-29.75 121.5,-29.75"/>
</g>
<!-- Node5 -->
<g id="node5" class="node">
<title>Node5</title>
<g id="a_node5"><a xlink:href="l4_2sys_2types_8h.html" target="_top" xlink:title="Common L4 ABI Data Types.">
<polygon fill="white" stroke="black" points="252,-168.5 252,-187.5 336,-187.5 336,-168.5 252,-168.5"/>
<text text-anchor="middle" x="294" y="-175.5" font-family="Helvetica,sans-Serif" font-size="10.00">l4/sys/types.h</text>
</a>
</g>
</g>
<!-- Node4&#45;&gt;Node5 -->
<g id="edge4" class="edge">
<title>Node4&#45;&gt;Node5</title>
<path fill="none" stroke="midnightblue" d="M189.54,-336.14C192.04,-323.2 197.78,-298.63 208,-280 226.61,-246.08 257.83,-213.18 277.1,-194.57"/>
<polygon fill="midnightblue" stroke="midnightblue" points="279.7,-196.93 284.55,-187.51 274.89,-191.85 279.7,-196.93"/>
</g>
<!-- Node4&#45;&gt;Node10 -->
<g id="edge14" class="edge">
<title>Node4&#45;&gt;Node10</title>
<path fill="none" stroke="midnightblue" d="M244.24,-340.92C275.4,-335.82 312.65,-324.57 337,-300 349.02,-287.88 353.51,-268.6 355.16,-254.18"/>
<polygon fill="midnightblue" stroke="midnightblue" points="358.67,-254.13 355.95,-243.89 351.69,-253.59 358.67,-254.13"/>
</g>
<!-- Node11 -->
<g id="node11" class="node">
<title>Node11</title>
<g id="a_node11"><a xlink:href="colors_8h.html" target="_top" xlink:title=" ">
<polygon fill="white" stroke="black" points="66,-224.5 66,-243.5 184,-243.5 184,-224.5 66,-224.5"/>
<text text-anchor="middle" x="125" y="-231.5" font-family="Helvetica,sans-Serif" font-size="10.00">l4/re/c/video/colors.h</text>
</a>
</g>
</g>
<!-- Node4&#45;&gt;Node11 -->
<g id="edge16" class="edge">
<title>Node4&#45;&gt;Node11</title>
<path fill="none" stroke="midnightblue" d="M183.06,-336.37C172.71,-318.3 148.58,-276.18 134.91,-252.31"/>
<polygon fill="midnightblue" stroke="midnightblue" points="137.93,-250.53 129.92,-243.59 131.85,-254.01 137.93,-250.53"/>
</g>
<!-- Node12 -->
<g id="node12" class="node">
<title>Node12</title>
<g id="a_node12"><a xlink:href="view_8h.html" target="_top" xlink:title=" ">
<polygon fill="white" stroke="black" points="216.5,-280.5 216.5,-299.5 327.5,-299.5 327.5,-280.5 216.5,-280.5"/>
<text text-anchor="middle" x="272" y="-287.5" font-family="Helvetica,sans-Serif" font-size="10.00">l4/re/c/video/view.h</text>
</a>
</g>
</g>
<!-- Node4&#45;&gt;Node12 -->
<g id="edge18" class="edge">
<title>Node4&#45;&gt;Node12</title>
<path fill="none" stroke="midnightblue" d="M201.5,-336.32C214.6,-327.9 234.71,-314.97 250.11,-305.07"/>
<polygon fill="midnightblue" stroke="midnightblue" points="252.02,-308.01 258.54,-299.65 248.23,-302.12 252.02,-308.01"/>
</g>
<!-- Node5&#45;&gt;Node2 -->
<g id="edge6" class="edge">
<title>Node5&#45;&gt;Node2</title>
<path fill="none" stroke="midnightblue" d="M286.44,-168.42C274.21,-154.96 248.84,-128.67 223,-112 201.57,-98.17 175.16,-86.87 154.19,-79.06"/>
<polygon fill="midnightblue" stroke="midnightblue" points="155.28,-75.73 144.68,-75.61 152.89,-82.31 155.28,-75.73"/>
</g>
<!-- Node6 -->
<g id="node6" class="node">
<title>Node6</title>
<g id="a_node6"><a xlink:href="l4_2sys_2l4int_8h.html" target="_top" xlink:title="Fixed sized integer types, generic version.">
<polygon fill="white" stroke="black" points="348.5,-56.5 348.5,-75.5 427.5,-75.5 427.5,-56.5 348.5,-56.5"/>
<text text-anchor="middle" x="388" y="-63.5" font-family="Helvetica,sans-Serif" font-size="10.00">l4/sys/l4int.h</text>
</a>
</g>
</g>
<!-- Node5&#45;&gt;Node6 -->
<g id="edge5" class="edge">
<title>Node5&#45;&gt;Node6</title>
<path fill="none" stroke="midnightblue" d="M317.18,-168.48C333.88,-161.22 355.73,-149.19 369,-132 379.32,-118.63 384.04,-99.81 386.19,-85.86"/>
<polygon fill="midnightblue" stroke="midnightblue" points="389.67,-86.26 387.43,-75.91 382.72,-85.4 389.67,-86.26"/>
</g>
<!-- Node7 -->
<g id="node7" class="node">
<title>Node7</title>
<g id="a_node7"><a xlink:href="l4_2sys_2consts_8h.html" target="_top" xlink:title="Common constants.">
<polygon fill="white" stroke="black" points="270.5,-112.5 270.5,-131.5 359.5,-131.5 359.5,-112.5 270.5,-112.5"/>
<text text-anchor="middle" x="315" y="-119.5" font-family="Helvetica,sans-Serif" font-size="10.00">l4/sys/consts.h</text>
</a>
</g>
</g>
<!-- Node5&#45;&gt;Node7 -->
<g id="edge7" class="edge">
<title>Node5&#45;&gt;Node7</title>
<path fill="none" stroke="midnightblue" d="M297.47,-168.08C300.31,-160.77 304.43,-150.18 307.96,-141.1"/>
<polygon fill="midnightblue" stroke="midnightblue" points="311.23,-142.34 311.6,-131.75 304.71,-139.8 311.23,-142.34"/>
</g>
<!-- Node8 -->
<g id="node8" class="node">
<title>Node8</title>
<g id="a_node8"><a xlink:href="____l4__fpage_8h_source.html" target="_top" xlink:title=" ">
<polygon fill="white" stroke="black" points="104,-112.5 104,-131.5 214,-131.5 214,-112.5 104,-112.5"/>
<text text-anchor="middle" x="159" y="-119.5" font-family="Helvetica,sans-Serif" font-size="10.00">l4/sys/__l4_fpage.h</text>
</a>
</g>
</g>
<!-- Node5&#45;&gt;Node8 -->
<g id="edge10" class="edge">
<title>Node5&#45;&gt;Node8</title>
<path fill="none" stroke="midnightblue" d="M272.61,-168.44C250.29,-159.52 215.1,-145.44 189.79,-135.32"/>
<polygon fill="midnightblue" stroke="midnightblue" points="190.88,-131.98 180.29,-131.52 188.28,-138.48 190.88,-131.98"/>
</g>
<!-- Node9 -->
<g id="node9" class="node">
<title>Node9</title>
<g id="a_node9"><a xlink:href="____timeout_8h_source.html" target="_top" xlink:title=" ">
<polygon fill="white" stroke="black" points="416,-112.5 416,-131.5 522,-131.5 522,-112.5 416,-112.5"/>
<text text-anchor="middle" x="469" y="-119.5" font-family="Helvetica,sans-Serif" font-size="10.00">l4/sys/__timeout.h</text>
</a>
</g>
</g>
<!-- Node5&#45;&gt;Node9 -->
<g id="edge12" class="edge">
<title>Node5&#45;&gt;Node9</title>
<path fill="none" stroke="midnightblue" d="M321.73,-168.44C351.43,-159.28 398.72,-144.69 431.67,-134.52"/>
<polygon fill="midnightblue" stroke="midnightblue" points="432.88,-137.81 441.4,-131.52 430.81,-131.12 432.88,-137.81"/>
</g>
<!-- Node7&#45;&gt;Node2 -->
<g id="edge8" class="edge">
<title>Node7&#45;&gt;Node2</title>
<path fill="none" stroke="midnightblue" d="M283.78,-112.44C250.07,-103.2 196.2,-88.44 159.07,-78.26"/>
<polygon fill="midnightblue" stroke="midnightblue" points="159.64,-74.78 149.07,-75.52 157.79,-81.54 159.64,-74.78"/>
</g>
<!-- Node7&#45;&gt;Node6 -->
<g id="edge9" class="edge">
<title>Node7&#45;&gt;Node6</title>
<path fill="none" stroke="midnightblue" d="M326.73,-112.32C337.84,-104.11 354.74,-91.6 367.98,-81.81"/>
<polygon fill="midnightblue" stroke="midnightblue" points="370.1,-84.59 376.06,-75.83 365.94,-78.97 370.1,-84.59"/>
</g>
<!-- Node8&#45;&gt;Node2 -->
<g id="edge11" class="edge">
<title>Node8&#45;&gt;Node2</title>
<path fill="none" stroke="midnightblue" d="M152.23,-112.08C146.44,-104.46 137.94,-93.26 130.86,-83.94"/>
<polygon fill="midnightblue" stroke="midnightblue" points="133.48,-81.6 124.64,-75.75 127.9,-85.83 133.48,-81.6"/>
</g>
<!-- Node9&#45;&gt;Node6 -->
<g id="edge13" class="edge">
<title>Node9&#45;&gt;Node6</title>
<path fill="none" stroke="midnightblue" d="M455.99,-112.32C443.47,-103.98 424.32,-91.21 409.53,-81.35"/>
<polygon fill="midnightblue" stroke="midnightblue" points="411.24,-78.29 400.98,-75.65 407.36,-84.11 411.24,-78.29"/>
</g>
<!-- Node10&#45;&gt;Node5 -->
<g id="edge15" class="edge">
<title>Node10&#45;&gt;Node5</title>
<path fill="none" stroke="midnightblue" d="M346.04,-224.32C336.87,-216.34 323.06,-204.31 311.97,-194.65"/>
<polygon fill="midnightblue" stroke="midnightblue" points="313.98,-191.76 304.14,-187.83 309.38,-197.04 313.98,-191.76"/>
</g>
<!-- Node11&#45;&gt;Node2 -->
<g id="edge17" class="edge">
<title>Node11&#45;&gt;Node2</title>
<path fill="none" stroke="midnightblue" d="M119.87,-224.2C108.88,-204.26 84.87,-154.08 95,-112 97.31,-102.42 102.02,-92.58 106.58,-84.56"/>
<polygon fill="midnightblue" stroke="midnightblue" points="109.69,-86.17 111.9,-75.81 103.71,-82.54 109.69,-86.17"/>
</g>
<!-- Node12&#45;&gt;Node5 -->
<g id="edge19" class="edge">
<title>Node12&#45;&gt;Node5</title>
<path fill="none" stroke="midnightblue" d="M273.73,-280.37C277.28,-262.62 285.47,-221.67 290.28,-197.6"/>
<polygon fill="midnightblue" stroke="midnightblue" points="293.75,-198.08 292.28,-187.59 286.89,-196.71 293.75,-198.08"/>
</g>
<!-- Node12&#45;&gt;Node10 -->
<g id="edge20" class="edge">
<title>Node12&#45;&gt;Node10</title>
<path fill="none" stroke="midnightblue" d="M285.5,-280.32C298.6,-271.9 318.71,-258.97 334.11,-249.07"/>
<polygon fill="midnightblue" stroke="midnightblue" points="336.02,-252.01 342.54,-243.65 332.23,-246.12 336.02,-252.01"/>
</g>
<!-- Node12&#45;&gt;Node11 -->
<g id="edge21" class="edge">
<title>Node12&#45;&gt;Node11</title>
<path fill="none" stroke="midnightblue" d="M248.71,-280.44C224.19,-271.44 185.4,-257.19 157.8,-247.05"/>
<polygon fill="midnightblue" stroke="midnightblue" points="158.78,-243.68 148.18,-243.52 156.36,-250.25 158.78,-243.68"/>
</g>
<!-- Node13&#45;&gt;Node2 -->
<g id="edge23" class="edge">
<title>Node13&#45;&gt;Node2</title>
<path fill="none" stroke="midnightblue" d="M78.79,-280.18C71.46,-271.66 61.24,-258.02 57,-244 54.42,-235.49 55.8,-232.81 57,-224 63.95,-172.82 66.52,-158.97 88,-112 92.48,-102.2 98.98,-92.14 104.78,-84.02"/>
<polygon fill="midnightblue" stroke="midnightblue" points="107.73,-85.92 110.89,-75.8 102.11,-81.74 107.73,-85.92"/>
</g>
</g>
</svg>
