<?xml version="1.0" encoding="UTF-8" standalone="no"?>
<!DOCTYPE svg PUBLIC "-//W3C//DTD SVG 1.1//EN"
 "http://www.w3.org/Graphics/SVG/1.1/DTD/svg11.dtd">
<!-- Generated by graphviz version 2.43.0 (0)
 -->
<!-- Title: l4_vcon_send_u Pages: 1 -->
<svg width="358pt" height="104pt"
 viewBox="0.00 0.00 358.00 104.00" xmlns="http://www.w3.org/2000/svg" xmlns:xlink="http://www.w3.org/1999/xlink">
<g id="graph0" class="graph" transform="scale(1 1) rotate(0) translate(4 100)">
<title>l4_vcon_send_u</title>
<polygon fill="white" stroke="transparent" points="-4,4 -4,-100 354,-100 354,4 -4,4"/>
<!-- Node1 -->
<g id="node1" class="node">
<title>Node1</title>
<g id="a_node1"><a xlink:title="Send data to this virtual console.">
<polygon fill="#bfbfbf" stroke="black" points="256,-38.5 256,-57.5 350,-57.5 350,-38.5 256,-38.5"/>
<text text-anchor="middle" x="303" y="-45.5" font-family="Helvetica,sans-Serif" font-size="10.00">l4_vcon_send_u</text>
</a>
</g>
</g>
<!-- Node2 -->
<g id="node2" class="node">
<title>Node2</title>
<g id="a_node2"><a xlink:href="group__l4__vcon__api.html#gabbc45ad5d795d46d1edbf8118957ecb2" target="_top" xlink:title="Send data to virtual console.">
<polygon fill="white" stroke="black" points="131,-76.5 131,-95.5 214,-95.5 214,-76.5 131,-76.5"/>
<text text-anchor="middle" x="172.5" y="-83.5" font-family="Helvetica,sans-Serif" font-size="10.00">l4_vcon_send</text>
</a>
</g>
</g>
<!-- Node1&#45;&gt;Node2 -->
<g id="edge1" class="edge">
<title>Node1&#45;&gt;Node2</title>
<path fill="none" stroke="midnightblue" d="M259.61,-60.54C242.13,-65.7 222.2,-71.6 205.92,-76.41"/>
<polygon fill="midnightblue" stroke="midnightblue" points="260.98,-63.78 269.57,-57.59 258.99,-57.07 260.98,-63.78"/>
</g>
<!-- Node3 -->
<g id="node3" class="node">
<title>Node3</title>
<g id="a_node3"><a xlink:href="group__l4__vcon__api.html#ga899728ba23baf18f59f62142534e039c" target="_top" xlink:title="Write data to this virtual console.">
<polygon fill="white" stroke="black" points="125,-38.5 125,-57.5 220,-57.5 220,-38.5 125,-38.5"/>
<text text-anchor="middle" x="172.5" y="-45.5" font-family="Helvetica,sans-Serif" font-size="10.00">l4_vcon_write_u</text>
</a>
</g>
</g>
<!-- Node1&#45;&gt;Node3 -->
<g id="edge2" class="edge">
<title>Node1&#45;&gt;Node3</title>
<path fill="none" stroke="midnightblue" d="M245.96,-48C237.32,-48 228.48,-48 220.07,-48"/>
<polygon fill="midnightblue" stroke="midnightblue" points="245.97,-51.5 255.97,-48 245.97,-44.5 245.97,-51.5"/>
</g>
<!-- Node6 -->
<g id="node6" class="node">
<title>Node6</title>
<g id="a_node6"><a xlink:href="classL4_1_1Vcon.html#af400882103c8601a4b0750985c57d7c4" target="_top" xlink:title="Send data to this virtual console.">
<polygon fill="white" stroke="black" points="129,-0.5 129,-19.5 216,-19.5 216,-0.5 129,-0.5"/>
<text text-anchor="middle" x="172.5" y="-7.5" font-family="Helvetica,sans-Serif" font-size="10.00">L4::Vcon::send</text>
</a>
</g>
</g>
<!-- Node1&#45;&gt;Node6 -->
<g id="edge5" class="edge">
<title>Node1&#45;&gt;Node6</title>
<path fill="none" stroke="midnightblue" d="M259.61,-35.46C242.13,-30.3 222.2,-24.4 205.92,-19.59"/>
<polygon fill="midnightblue" stroke="midnightblue" points="258.99,-38.93 269.57,-38.41 260.98,-32.22 258.99,-38.93"/>
</g>
<!-- Node4 -->
<g id="node4" class="node">
<title>Node4</title>
<g id="a_node4"><a xlink:href="group__l4__vcon__api.html#ga9f083a69c2c51329da6778a3af0331bc" target="_top" xlink:title="Write data to virtual console.">
<polygon fill="white" stroke="black" points="2.5,-57.5 2.5,-76.5 86.5,-76.5 86.5,-57.5 2.5,-57.5"/>
<text text-anchor="middle" x="44.5" y="-64.5" font-family="Helvetica,sans-Serif" font-size="10.00">l4_vcon_write</text>
</a>
</g>
</g>
<!-- Node3&#45;&gt;Node4 -->
<g id="edge3" class="edge">
<title>Node3&#45;&gt;Node4</title>
<path fill="none" stroke="midnightblue" d="M114.84,-56.54C105.43,-57.96 95.82,-59.41 86.88,-60.76"/>
<polygon fill="midnightblue" stroke="midnightblue" points="115.57,-59.97 124.94,-55.02 114.53,-53.05 115.57,-59.97"/>
</g>
<!-- Node5 -->
<g id="node5" class="node">
<title>Node5</title>
<g id="a_node5"><a xlink:href="classL4_1_1Vcon.html#a83407df2f5b674126d33505d73f5d34b" target="_top" xlink:title="Write data to this virtual console.">
<polygon fill="white" stroke="black" points="0,-19.5 0,-38.5 89,-38.5 89,-19.5 0,-19.5"/>
<text text-anchor="middle" x="44.5" y="-26.5" font-family="Helvetica,sans-Serif" font-size="10.00">L4::Vcon::write</text>
</a>
</g>
</g>
<!-- Node3&#45;&gt;Node5 -->
<g id="edge4" class="edge">
<title>Node3&#45;&gt;Node5</title>
<path fill="none" stroke="midnightblue" d="M114.97,-39.48C106.38,-38.18 97.63,-36.86 89.36,-35.61"/>
<polygon fill="midnightblue" stroke="midnightblue" points="114.53,-42.95 124.94,-40.98 115.57,-36.03 114.53,-42.95"/>
</g>
</g>
</svg>
