<?xml version="1.0" encoding="UTF-8" standalone="no"?>
<!DOCTYPE svg PUBLIC "-//W3C//DTD SVG 1.1//EN"
 "http://www.w3.org/Graphics/SVG/1.1/DTD/svg11.dtd">
<!-- Generated by graphviz version 2.43.0 (0)
 -->
<!-- Title: L4 Vbus functions Pages: 1 -->
<svg width="273pt" height="64pt"
 viewBox="0.00 0.00 273.00 64.00" xmlns="http://www.w3.org/2000/svg" xmlns:xlink="http://www.w3.org/1999/xlink">
<g id="graph0" class="graph" transform="scale(1 1) rotate(0) translate(4 60)">
<title>L4 Vbus functions</title>
<polygon fill="white" stroke="transparent" points="-4,4 -4,-60 269,-60 269,4 -4,4"/>
<!-- Node2 -->
<g id="node1" class="node">
<title>Node2</title>
<g id="a_node1"><a xlink:href="group__l4vbus__gpio__module.html" target="_top" xlink:title=" ">
<polygon fill="white" stroke="black" points="265,-56 139,-56 139,-37 265,-37 265,-56"/>
<text text-anchor="middle" x="202" y="-44" font-family="Helvetica,sans-Serif" font-size="10.00">L4vbus GPIO functions</text>
</a>
</g>
</g>
<!-- Node1 -->
<g id="node2" class="node">
<title>Node1</title>
<g id="a_node2"><a xlink:title="C interface of the Vbus API.">
<polygon fill="#bfbfbf" stroke="black" points="103,-37 0,-37 0,-18 103,-18 103,-37"/>
<text text-anchor="middle" x="51.5" y="-25" font-family="Helvetica,sans-Serif" font-size="10.00">L4 Vbus functions</text>
</a>
</g>
</g>
<!-- Node1&#45;&gt;Node2 -->
<g id="edge1" class="edge">
<title>Node1&#45;&gt;Node2</title>
<path fill="none" stroke="black" d="M113.35,-35.29C121.81,-36.37 130.5,-37.48 138.98,-38.56"/>
<polygon fill="black" stroke="black" points="113.55,-31.78 103.19,-33.99 112.66,-38.73 113.55,-31.78"/>
</g>
<!-- Node3 -->
<g id="node3" class="node">
<title>Node3</title>
<g id="a_node3"><a xlink:href="group__l4vbus__pci__module.html" target="_top" xlink:title=" ">
<polygon fill="white" stroke="black" points="261,-19 143,-19 143,0 261,0 261,-19"/>
<text text-anchor="middle" x="202" y="-7" font-family="Helvetica,sans-Serif" font-size="10.00">L4vbus PCI functions</text>
</a>
</g>
</g>
<!-- Node1&#45;&gt;Node3 -->
<g id="edge2" class="edge">
<title>Node1&#45;&gt;Node3</title>
<path fill="none" stroke="black" d="M113.24,-20.14C123.03,-18.95 133.15,-17.72 142.87,-16.55"/>
<polygon fill="black" stroke="black" points="112.7,-16.68 103.19,-21.36 113.54,-23.63 112.7,-16.68"/>
</g>
</g>
</svg>
