<?xml version="1.0" encoding="UTF-8" standalone="no"?>
<!DOCTYPE svg PUBLIC "-//W3C//DTD SVG 1.1//EN"
 "http://www.w3.org/Graphics/SVG/1.1/DTD/svg11.dtd">
<!-- Generated by graphviz version 2.43.0 (0)
 -->
<!-- Title: l4_factory_create_thread_u Pages: 1 -->
<svg width="331pt" height="78pt"
 viewBox="0.00 0.00 331.00 77.50" xmlns="http://www.w3.org/2000/svg" xmlns:xlink="http://www.w3.org/1999/xlink">
<g id="graph0" class="graph" transform="scale(1 1) rotate(0) translate(4 73.5)">
<title>l4_factory_create_thread_u</title>
<polygon fill="white" stroke="transparent" points="-4,4 -4,-73.5 327,-73.5 327,4 -4,4"/>
<!-- Node1 -->
<g id="node1" class="node">
<title>Node1</title>
<g id="a_node1"><a xlink:title="Create a new thread.">
<polygon fill="#bfbfbf" stroke="black" points="174,-22.5 174,-41.5 323,-41.5 323,-22.5 174,-22.5"/>
<text text-anchor="middle" x="248.5" y="-29.5" font-family="Helvetica,sans-Serif" font-size="10.00">l4_factory_create_thread_u</text>
</a>
</g>
</g>
<!-- Node2 -->
<g id="node2" class="node">
<title>Node2</title>
<g id="a_node2"><a xlink:href="classL4_1_1Factory.html#a0a5a8f18ac13a39f583c37ea42657246" target="_top" xlink:title="Create a new thread.">
<polygon fill="white" stroke="black" points="16.5,-39 16.5,-69 121.5,-69 121.5,-39 16.5,-39"/>
<text text-anchor="start" x="24.5" y="-57" font-family="Helvetica,sans-Serif" font-size="10.00">L4::Factory::create</text>
<text text-anchor="middle" x="69" y="-46" font-family="Helvetica,sans-Serif" font-size="10.00">_thread</text>
</a>
</g>
</g>
<!-- Node1&#45;&gt;Node2 -->
<g id="edge1" class="edge">
<title>Node1&#45;&gt;Node2</title>
<path fill="none" stroke="midnightblue" d="M163.84,-42.37C149.44,-44.15 134.85,-45.96 121.62,-47.6"/>
<polygon fill="midnightblue" stroke="midnightblue" points="164.27,-45.84 173.77,-41.14 163.41,-38.9 164.27,-45.84"/>
</g>
<!-- Node3 -->
<g id="node3" class="node">
<title>Node3</title>
<g id="a_node3"><a xlink:href="group__l4__factory__api.html#ga26aad57304812d2a73597b591f1b3630" target="_top" xlink:title="Create a new thread.">
<polygon fill="white" stroke="black" points="0,-0.5 0,-19.5 138,-19.5 138,-0.5 0,-0.5"/>
<text text-anchor="middle" x="69" y="-7.5" font-family="Helvetica,sans-Serif" font-size="10.00">l4_factory_create_thread</text>
</a>
</g>
</g>
<!-- Node1&#45;&gt;Node3 -->
<g id="edge2" class="edge">
<title>Node1&#45;&gt;Node3</title>
<path fill="none" stroke="midnightblue" d="M163.73,-21.62C155.15,-20.55 146.5,-19.48 138.11,-18.44"/>
<polygon fill="midnightblue" stroke="midnightblue" points="163.41,-25.1 173.77,-22.86 164.27,-18.16 163.41,-25.1"/>
</g>
</g>
</svg>
