<?xml version="1.0" encoding="UTF-8" standalone="no"?>
<!DOCTYPE svg PUBLIC "-//W3C//DTD SVG 1.1//EN"
 "http://www.w3.org/Graphics/SVG/1.1/DTD/svg11.dtd">
<!-- Generated by graphviz version 2.43.0 (0)
 -->
<!-- Title: Bitmap graphics and fonts Pages: 1 -->
<svg width="422pt" height="108pt"
 viewBox="0.00 0.00 422.00 108.00" xmlns="http://www.w3.org/2000/svg" xmlns:xlink="http://www.w3.org/1999/xlink">
<g id="graph0" class="graph" transform="scale(1 1) rotate(0) translate(4 104)">
<title>Bitmap graphics and fonts</title>
<polygon fill="white" stroke="transparent" points="-4,4 -4,-104 418,-104 418,4 -4,4"/>
<!-- Node3 -->
<g id="node1" class="node">
<title>Node3</title>
<g id="a_node1"><a xlink:href="group__api__gfxbitmap__bitmap.html" target="_top" xlink:title=" ">
<polygon fill="white" stroke="black" points="414,-100 285,-100 285,-59 414,-59 414,-100"/>
<text text-anchor="start" x="293" y="-88" font-family="Helvetica,sans-Serif" font-size="10.00">Functions for rendering</text>
<text text-anchor="start" x="293" y="-77" font-family="Helvetica,sans-Serif" font-size="10.00"> bitmap data in frame</text>
<text text-anchor="middle" x="349.5" y="-66" font-family="Helvetica,sans-Serif" font-size="10.00"> buffers</text>
</a>
</g>
</g>
<!-- Node2 -->
<g id="node2" class="node">
<title>Node2</title>
<g id="a_node2"><a xlink:href="group__l4util__api.html" target="_top" xlink:title="Utilities, generic file.">
<polygon fill="white" stroke="black" points="96,-59 0,-59 0,-40 96,-40 96,-59"/>
<text text-anchor="middle" x="48" y="-47" font-family="Helvetica,sans-Serif" font-size="10.00">Utility Functions</text>
</a>
</g>
</g>
<!-- Node1 -->
<g id="node3" class="node">
<title>Node1</title>
<g id="a_node3"><a xlink:title="This library provides some functions for bitmap handling in frame buffers.">
<polygon fill="#bfbfbf" stroke="black" points="249,-64.5 132,-64.5 132,-34.5 249,-34.5 249,-64.5"/>
<text text-anchor="start" x="140" y="-52.5" font-family="Helvetica,sans-Serif" font-size="10.00">Bitmap graphics and</text>
<text text-anchor="middle" x="190.5" y="-41.5" font-family="Helvetica,sans-Serif" font-size="10.00"> fonts</text>
</a>
</g>
</g>
<!-- Node2&#45;&gt;Node1 -->
<g id="edge1" class="edge">
<title>Node2&#45;&gt;Node1</title>
<path fill="none" stroke="black" d="M106.33,-49.5C114.78,-49.5 123.5,-49.5 131.96,-49.5"/>
<polygon fill="black" stroke="black" points="106.18,-46 96.18,-49.5 106.18,-53 106.18,-46"/>
</g>
<!-- Node1&#45;&gt;Node3 -->
<g id="edge2" class="edge">
<title>Node1&#45;&gt;Node3</title>
<path fill="none" stroke="black" d="M259.02,-62.4C267.59,-64.04 276.34,-65.71 284.85,-67.34"/>
<polygon fill="black" stroke="black" points="259.55,-58.94 249.07,-60.5 258.23,-65.82 259.55,-58.94"/>
</g>
<!-- Node4 -->
<g id="node4" class="node">
<title>Node4</title>
<g id="a_node4"><a xlink:href="group__api__gfxbitmap__font.html" target="_top" xlink:title=" ">
<polygon fill="white" stroke="black" points="414,-41 285,-41 285,0 414,0 414,-41"/>
<text text-anchor="start" x="293" y="-29" font-family="Helvetica,sans-Serif" font-size="10.00">Functions for rendering</text>
<text text-anchor="start" x="293" y="-18" font-family="Helvetica,sans-Serif" font-size="10.00"> bitmap fonts to frame</text>
<text text-anchor="middle" x="349.5" y="-7" font-family="Helvetica,sans-Serif" font-size="10.00"> buffers</text>
</a>
</g>
</g>
<!-- Node1&#45;&gt;Node4 -->
<g id="edge3" class="edge">
<title>Node1&#45;&gt;Node4</title>
<path fill="none" stroke="black" d="M259.02,-37.03C267.59,-35.44 276.34,-33.83 284.85,-32.26"/>
<polygon fill="black" stroke="black" points="258.27,-33.61 249.07,-38.87 259.54,-40.49 258.27,-33.61"/>
</g>
</g>
</svg>
