<?xml version="1.0" encoding="UTF-8" standalone="no"?>
<!DOCTYPE svg PUBLIC "-//W3C//DTD SVG 1.1//EN"
 "http://www.w3.org/Graphics/SVG/1.1/DTD/svg11.dtd">
<!-- Generated by graphviz version 2.43.0 (0)
 -->
<!-- Title: l4_icu_bind_u Pages: 1 -->
<svg width="528pt" height="96pt"
 viewBox="0.00 0.00 528.00 95.50" xmlns="http://www.w3.org/2000/svg" xmlns:xlink="http://www.w3.org/1999/xlink">
<g id="graph0" class="graph" transform="scale(1 1) rotate(0) translate(4 91.5)">
<title>l4_icu_bind_u</title>
<polygon fill="white" stroke="transparent" points="-4,4 -4,-91.5 524,-91.5 524,4 -4,4"/>
<!-- Node1 -->
<g id="node1" class="node">
<title>Node1</title>
<g id="a_node1"><a xlink:title="Bind an interrupt line of an interrupt controller to an interrupt object.">
<polygon fill="#bfbfbf" stroke="black" points="437,-19.5 437,-38.5 520,-38.5 520,-19.5 437,-19.5"/>
<text text-anchor="middle" x="478.5" y="-26.5" font-family="Helvetica,sans-Serif" font-size="10.00">l4_icu_bind_u</text>
</a>
</g>
</g>
<!-- Node2 -->
<g id="node2" class="node">
<title>Node2</title>
<g id="a_node2"><a xlink:href="classL4_1_1Icu.html#ada7541da586ea09b925b4d90d7dc357e" target="_top" xlink:title="Bind an interrupt line of an interrupt controller to an interrupt object.">
<polygon fill="white" stroke="black" points="326,-38.5 326,-57.5 401,-57.5 401,-38.5 326,-38.5"/>
<text text-anchor="middle" x="363.5" y="-45.5" font-family="Helvetica,sans-Serif" font-size="10.00">L4::Icu::bind</text>
</a>
</g>
</g>
<!-- Node1&#45;&gt;Node2 -->
<g id="edge1" class="edge">
<title>Node1&#45;&gt;Node2</title>
<path fill="none" stroke="midnightblue" d="M426.71,-37.54C418.08,-38.99 409.28,-40.47 401.11,-41.84"/>
<polygon fill="midnightblue" stroke="midnightblue" points="427.42,-40.97 436.7,-35.86 426.26,-34.07 427.42,-40.97"/>
</g>
<!-- Node6 -->
<g id="node6" class="node">
<title>Node6</title>
<g id="a_node6"><a xlink:href="group__l4__icu__api.html#ga793c534597fd98ee93cbaf24ad08a615" target="_top" xlink:title="Bind an interrupt line of an interrupt controller to an interrupt object.">
<polygon fill="white" stroke="black" points="328,-0.5 328,-19.5 399,-19.5 399,-0.5 328,-0.5"/>
<text text-anchor="middle" x="363.5" y="-7.5" font-family="Helvetica,sans-Serif" font-size="10.00">l4_icu_bind</text>
</a>
</g>
</g>
<!-- Node1&#45;&gt;Node6 -->
<g id="edge5" class="edge">
<title>Node1&#45;&gt;Node6</title>
<path fill="none" stroke="midnightblue" d="M426.75,-20.47C417.46,-18.9 407.96,-17.31 399.27,-15.85"/>
<polygon fill="midnightblue" stroke="midnightblue" points="426.26,-23.93 436.7,-22.14 427.42,-17.03 426.26,-23.93"/>
</g>
<!-- Node3 -->
<g id="node3" class="node">
<title>Node3</title>
<g id="a_node3"><a xlink:href="classL4virtio_1_1Driver_1_1Device.html#a1c9b791b723e7e8ad2eae927094b487d" target="_top" xlink:title="Register a triggerable to receive notifications from the device.">
<polygon fill="white" stroke="black" points="161,-57 161,-87 290,-87 290,-57 161,-57"/>
<text text-anchor="start" x="169" y="-75" font-family="Helvetica,sans-Serif" font-size="10.00">L4virtio::Driver::Device</text>
<text text-anchor="middle" x="225.5" y="-64" font-family="Helvetica,sans-Serif" font-size="10.00">::bind_notification_irq</text>
</a>
</g>
</g>
<!-- Node2&#45;&gt;Node3 -->
<g id="edge2" class="edge">
<title>Node2&#45;&gt;Node3</title>
<path fill="none" stroke="midnightblue" d="M315.83,-56.24C307.53,-57.7 298.75,-59.25 290.06,-60.78"/>
<polygon fill="midnightblue" stroke="midnightblue" points="316.46,-59.68 325.7,-54.49 315.24,-52.79 316.46,-59.68"/>
</g>
<!-- Node4 -->
<g id="node4" class="node">
<title>Node4</title>
<g id="a_node4"><a xlink:href="classL4virtio_1_1Driver_1_1Device.html#a4f8b3d73188c3b6664755b81b80e441c" target="_top" xlink:title="Contacts the device and starts the initial handshake.">
<polygon fill="white" stroke="black" points="161,-8 161,-38 290,-38 290,-8 161,-8"/>
<text text-anchor="start" x="169" y="-26" font-family="Helvetica,sans-Serif" font-size="10.00">L4virtio::Driver::Device</text>
<text text-anchor="middle" x="225.5" y="-15" font-family="Helvetica,sans-Serif" font-size="10.00">::driver_connect</text>
</a>
</g>
</g>
<!-- Node2&#45;&gt;Node4 -->
<g id="edge3" class="edge">
<title>Node2&#45;&gt;Node4</title>
<path fill="none" stroke="midnightblue" d="M315.83,-39.42C307.53,-37.89 298.75,-36.28 290.06,-34.68"/>
<polygon fill="midnightblue" stroke="midnightblue" points="315.23,-42.87 325.7,-41.23 316.49,-35.98 315.23,-42.87"/>
</g>
<!-- Node5 -->
<g id="node5" class="node">
<title>Node5</title>
<g id="a_node5"><a xlink:href="classL4virtio_1_1Driver_1_1Block__device.html#a688df51bdec4ba327a6c0b48a83a115a" target="_top" xlink:title="Setup a connection to a device and set up shared memory.">
<polygon fill="white" stroke="black" points="0,-8 0,-38 125,-38 125,-8 0,-8"/>
<text text-anchor="start" x="8" y="-26" font-family="Helvetica,sans-Serif" font-size="10.00">L4virtio::Driver::Block</text>
<text text-anchor="middle" x="62.5" y="-15" font-family="Helvetica,sans-Serif" font-size="10.00">_device::setup_device</text>
</a>
</g>
</g>
<!-- Node4&#45;&gt;Node5 -->
<g id="edge4" class="edge">
<title>Node4&#45;&gt;Node5</title>
<path fill="none" stroke="midnightblue" d="M150.84,-23C142.23,-23 133.51,-23 125.09,-23"/>
<polygon fill="midnightblue" stroke="midnightblue" points="150.87,-26.5 160.87,-23 150.87,-19.5 150.87,-26.5"/>
</g>
</g>
</svg>
