<?xml version="1.0" encoding="UTF-8" standalone="no"?>
<!DOCTYPE svg PUBLIC "-//W3C//DTD SVG 1.1//EN"
 "http://www.w3.org/Graphics/SVG/1.1/DTD/svg11.dtd">
<!-- Generated by graphviz version 2.43.0 (0)
 -->
<!-- Title: l4_irq_receive_u Pages: 1 -->
<svg width="396pt" height="72pt"
 viewBox="0.00 0.00 396.00 71.50" xmlns="http://www.w3.org/2000/svg" xmlns:xlink="http://www.w3.org/1999/xlink">
<g id="graph0" class="graph" transform="scale(1 1) rotate(0) translate(4 67.5)">
<title>l4_irq_receive_u</title>
<polygon fill="white" stroke="transparent" points="-4,4 -4,-67.5 392,-67.5 392,4 -4,4"/>
<!-- Node1 -->
<g id="node1" class="node">
<title>Node1</title>
<g id="a_node1"><a xlink:title="Unmask and wait for this IRQ.">
<polygon fill="#bfbfbf" stroke="black" points="292,-19.5 292,-38.5 388,-38.5 388,-19.5 292,-19.5"/>
<text text-anchor="middle" x="340" y="-26.5" font-family="Helvetica,sans-Serif" font-size="10.00">l4_irq_receive_u</text>
</a>
</g>
</g>
<!-- Node2 -->
<g id="node2" class="node">
<title>Node2</title>
<g id="a_node2"><a xlink:href="group__l4__irq__api.html#ga997f18b89d6235214d2f9c381ed6c6a5" target="_top" xlink:title="Unmask and wait for specified IRQ.">
<polygon fill="white" stroke="black" points="169,-38.5 169,-57.5 254,-57.5 254,-38.5 169,-38.5"/>
<text text-anchor="middle" x="211.5" y="-45.5" font-family="Helvetica,sans-Serif" font-size="10.00">l4_irq_receive</text>
</a>
</g>
</g>
<!-- Node1&#45;&gt;Node2 -->
<g id="edge1" class="edge">
<title>Node1&#45;&gt;Node2</title>
<path fill="none" stroke="midnightblue" d="M281.9,-37.58C272.58,-38.98 263.08,-40.4 254.23,-41.73"/>
<polygon fill="midnightblue" stroke="midnightblue" points="282.53,-41.02 291.9,-36.07 281.49,-34.1 282.53,-41.02"/>
</g>
<!-- Node4 -->
<g id="node4" class="node">
<title>Node4</title>
<g id="a_node4"><a xlink:href="classL4_1_1Irq.html#ad6e4134fba0e3d985f4ef988a524fa6d" target="_top" xlink:title="Unmask and wait for this IRQ.">
<polygon fill="white" stroke="black" points="167,-0.5 167,-19.5 256,-19.5 256,-0.5 167,-0.5"/>
<text text-anchor="middle" x="211.5" y="-7.5" font-family="Helvetica,sans-Serif" font-size="10.00">L4::Irq::receive</text>
</a>
</g>
</g>
<!-- Node1&#45;&gt;Node4 -->
<g id="edge3" class="edge">
<title>Node1&#45;&gt;Node4</title>
<path fill="none" stroke="midnightblue" d="M281.91,-20.43C273.31,-19.13 264.56,-17.82 256.29,-16.58"/>
<polygon fill="midnightblue" stroke="midnightblue" points="281.49,-23.9 291.9,-21.93 282.53,-16.98 281.49,-23.9"/>
</g>
<!-- Node3 -->
<g id="node3" class="node">
<title>Node3</title>
<g id="a_node3"><a xlink:href="classL4Re_1_1Util_1_1Event__buffer__consumer__t.html#a4ed22b41ce4c7e6b93efae878b1415ef" target="_top" xlink:title="Continuously wait for events and process them.">
<polygon fill="white" stroke="black" points="0,-33 0,-63 131,-63 131,-33 0,-33"/>
<text text-anchor="start" x="8" y="-51" font-family="Helvetica,sans-Serif" font-size="10.00">L4Re::Util::Event_buffer</text>
<text text-anchor="middle" x="65.5" y="-40" font-family="Helvetica,sans-Serif" font-size="10.00">_consumer_t::process</text>
</a>
</g>
</g>
<!-- Node2&#45;&gt;Node3 -->
<g id="edge2" class="edge">
<title>Node2&#45;&gt;Node3</title>
<path fill="none" stroke="midnightblue" d="M158.62,-48C149.7,-48 140.33,-48 131.12,-48"/>
<polygon fill="midnightblue" stroke="midnightblue" points="158.85,-51.5 168.85,-48 158.85,-44.5 158.85,-51.5"/>
</g>
</g>
</svg>
