<?xml version="1.0" encoding="UTF-8" standalone="no"?>
<!DOCTYPE svg PUBLIC "-//W3C//DTD SVG 1.1//EN"
 "http://www.w3.org/Graphics/SVG/1.1/DTD/svg11.dtd">
<!-- Generated by graphviz version 2.43.0 (0)
 -->
<!-- Title: l4_vm_vmx_write Pages: 1 -->
<svg width="273pt" height="142pt"
 viewBox="0.00 0.00 273.00 142.00" xmlns="http://www.w3.org/2000/svg" xmlns:xlink="http://www.w3.org/1999/xlink">
<g id="graph0" class="graph" transform="scale(1 1) rotate(0) translate(4 138)">
<title>l4_vm_vmx_write</title>
<polygon fill="white" stroke="transparent" points="-4,4 -4,-138 269,-138 269,4 -4,4"/>
<!-- Node1 -->
<g id="node1" class="node">
<title>Node1</title>
<g id="a_node1"><a xlink:title="Write to an arbitrary VMCS field.">
<polygon fill="#bfbfbf" stroke="black" points="0,-57.5 0,-76.5 104,-76.5 104,-57.5 0,-57.5"/>
<text text-anchor="middle" x="52" y="-64.5" font-family="Helvetica,sans-Serif" font-size="10.00">l4_vm_vmx_write</text>
</a>
</g>
</g>
<!-- Node2 -->
<g id="node2" class="node">
<title>Node2</title>
<g id="a_node2"><a xlink:href="group__l4__vm__vmx__api.html#gae32bd0cc1cf4a980f43ff1c0a6405c18" target="_top" xlink:title="Write to a 16bit VMCS field.">
<polygon fill="white" stroke="black" points="142,-114.5 142,-133.5 263,-133.5 263,-114.5 142,-114.5"/>
<text text-anchor="middle" x="202.5" y="-121.5" font-family="Helvetica,sans-Serif" font-size="10.00">l4_vm_vmx_write_16</text>
</a>
</g>
</g>
<!-- Node1&#45;&gt;Node2 -->
<g id="edge1" class="edge">
<title>Node1&#45;&gt;Node2</title>
<path fill="none" stroke="midnightblue" d="M73.13,-76.56C90.59,-84.67 116.67,-96.33 140,-105 145.91,-107.2 152.21,-109.35 158.43,-111.37"/>
<polygon fill="midnightblue" stroke="midnightblue" points="157.49,-114.74 168.08,-114.42 159.6,-108.07 157.49,-114.74"/>
</g>
<!-- Node3 -->
<g id="node3" class="node">
<title>Node3</title>
<g id="a_node3"><a xlink:href="group__l4__vm__vmx__api.html#ga334d673fbbbae474a5d15f97eb584e67" target="_top" xlink:title="Write to a 32bit VMCS field.">
<polygon fill="white" stroke="black" points="142,-76.5 142,-95.5 263,-95.5 263,-76.5 142,-76.5"/>
<text text-anchor="middle" x="202.5" y="-83.5" font-family="Helvetica,sans-Serif" font-size="10.00">l4_vm_vmx_write_32</text>
</a>
</g>
</g>
<!-- Node1&#45;&gt;Node3 -->
<g id="edge2" class="edge">
<title>Node1&#45;&gt;Node3</title>
<path fill="none" stroke="midnightblue" d="M104.11,-73.54C113.04,-74.68 122.47,-75.89 131.8,-77.08"/>
<polygon fill="midnightblue" stroke="midnightblue" points="131.5,-80.57 141.87,-78.37 132.39,-73.63 131.5,-80.57"/>
</g>
<!-- Node4 -->
<g id="node4" class="node">
<title>Node4</title>
<g id="a_node4"><a xlink:href="group__l4__vm__vmx__api.html#ga95fe266751c622d7e7f142b87236028e" target="_top" xlink:title="Write to a 64bit VMCS field.">
<polygon fill="white" stroke="black" points="142,-38.5 142,-57.5 263,-57.5 263,-38.5 142,-38.5"/>
<text text-anchor="middle" x="202.5" y="-45.5" font-family="Helvetica,sans-Serif" font-size="10.00">l4_vm_vmx_write_64</text>
</a>
</g>
</g>
<!-- Node1&#45;&gt;Node4 -->
<g id="edge3" class="edge">
<title>Node1&#45;&gt;Node4</title>
<path fill="none" stroke="midnightblue" d="M104.11,-60.46C113.04,-59.32 122.47,-58.11 131.8,-56.92"/>
<polygon fill="midnightblue" stroke="midnightblue" points="132.39,-60.37 141.87,-55.63 131.5,-53.43 132.39,-60.37"/>
</g>
<!-- Node5 -->
<g id="node5" class="node">
<title>Node5</title>
<g id="a_node5"><a xlink:href="group__l4__vm__vmx__api.html#ga02df2cccd7e75a57359e4f562079e1d6" target="_top" xlink:title="Write to a natural width VMCS field.">
<polygon fill="white" stroke="black" points="140,-0.5 140,-19.5 265,-19.5 265,-0.5 140,-0.5"/>
<text text-anchor="middle" x="202.5" y="-7.5" font-family="Helvetica,sans-Serif" font-size="10.00">l4_vm_vmx_write_nat</text>
</a>
</g>
</g>
<!-- Node1&#45;&gt;Node5 -->
<g id="edge4" class="edge">
<title>Node1&#45;&gt;Node5</title>
<path fill="none" stroke="midnightblue" d="M73.13,-57.44C90.59,-49.33 116.67,-37.67 140,-29 145.91,-26.8 152.21,-24.65 158.43,-22.63"/>
<polygon fill="midnightblue" stroke="midnightblue" points="159.6,-25.93 168.08,-19.58 157.49,-19.26 159.6,-25.93"/>
</g>
</g>
</svg>
