<?xml version="1.0" encoding="UTF-8" standalone="no"?>
<!DOCTYPE svg PUBLIC "-//W3C//DTD SVG 1.1//EN"
 "http://www.w3.org/Graphics/SVG/1.1/DTD/svg11.dtd">
<!-- Generated by graphviz version 2.43.0 (0)
 -->
<!-- Title: l4_trunc_size Pages: 1 -->
<svg width="266pt" height="66pt"
 viewBox="0.00 0.00 266.00 66.00" xmlns="http://www.w3.org/2000/svg" xmlns:xlink="http://www.w3.org/1999/xlink">
<g id="graph0" class="graph" transform="scale(1 1) rotate(0) translate(4 62)">
<title>l4_trunc_size</title>
<polygon fill="white" stroke="transparent" points="-4,4 -4,-62 262,-62 262,4 -4,4"/>
<!-- Node1 -->
<g id="node1" class="node">
<title>Node1</title>
<g id="a_node1"><a xlink:title="Round an address down to the next lower flex page with size bits.">
<polygon fill="#bfbfbf" stroke="black" points="178,-19.5 178,-38.5 258,-38.5 258,-19.5 178,-19.5"/>
<text text-anchor="middle" x="218" y="-26.5" font-family="Helvetica,sans-Serif" font-size="10.00">l4_trunc_size</text>
</a>
</g>
</g>
<!-- Node2 -->
<g id="node2" class="node">
<title>Node2</title>
<g id="a_node2"><a xlink:href="classcxx_1_1List__alloc.html#a9028a4d3bf8a79f61b2d6ee16736f51a" target="_top" xlink:title="Allocate a memory block of min &lt;= size &lt;= max.">
<polygon fill="white" stroke="black" points="0,-38.5 0,-57.5 142,-57.5 142,-38.5 0,-38.5"/>
<text text-anchor="middle" x="71" y="-45.5" font-family="Helvetica,sans-Serif" font-size="10.00">cxx::List_alloc::alloc_max</text>
</a>
</g>
</g>
<!-- Node1&#45;&gt;Node2 -->
<g id="edge1" class="edge">
<title>Node1&#45;&gt;Node2</title>
<path fill="none" stroke="midnightblue" d="M167.59,-35.47C159.34,-36.56 150.65,-37.69 142,-38.83"/>
<polygon fill="midnightblue" stroke="midnightblue" points="168.3,-38.91 177.76,-34.14 167.39,-31.97 168.3,-38.91"/>
</g>
<!-- Node3 -->
<g id="node3" class="node">
<title>Node3</title>
<g id="a_node3"><a xlink:href="group__l4__fpage__api.html#ga960465b596caf60adc6c5042e9257f0a" target="_top" xlink:title="Determine maximum flex page size of a region.">
<polygon fill="white" stroke="black" points="13,-0.5 13,-19.5 129,-19.5 129,-0.5 13,-0.5"/>
<text text-anchor="middle" x="71" y="-7.5" font-family="Helvetica,sans-Serif" font-size="10.00">l4_fpage_max_order</text>
</a>
</g>
</g>
<!-- Node1&#45;&gt;Node3 -->
<g id="edge2" class="edge">
<title>Node1&#45;&gt;Node3</title>
<path fill="none" stroke="midnightblue" d="M167.66,-22.53C155.3,-20.92 141.94,-19.17 129.24,-17.5"/>
<polygon fill="midnightblue" stroke="midnightblue" points="167.39,-26.03 177.76,-23.86 168.3,-19.09 167.39,-26.03"/>
</g>
</g>
</svg>
