<?xml version="1.0" encoding="UTF-8" standalone="no"?>
<!DOCTYPE svg PUBLIC "-//W3C//DTD SVG 1.1//EN"
 "http://www.w3.org/Graphics/SVG/1.1/DTD/svg11.dtd">
<!-- Generated by graphviz version 2.43.0 (0)
 -->
<!-- Title: l4_ipc_send Pages: 1 -->
<svg width="557pt" height="123pt"
 viewBox="0.00 0.00 557.00 123.00" xmlns="http://www.w3.org/2000/svg" xmlns:xlink="http://www.w3.org/1999/xlink">
<g id="graph0" class="graph" transform="scale(1 1) rotate(0) translate(4 119)">
<title>l4_ipc_send</title>
<polygon fill="white" stroke="transparent" points="-4,4 -4,-119 553,-119 553,4 -4,4"/>
<!-- Node1 -->
<g id="node1" class="node">
<title>Node1</title>
<g id="a_node1"><a xlink:title="Send a message to an object (do not wait for a reply).">
<polygon fill="#bfbfbf" stroke="black" points="475,-38.5 475,-57.5 549,-57.5 549,-38.5 475,-38.5"/>
<text text-anchor="middle" x="512" y="-45.5" font-family="Helvetica,sans-Serif" font-size="10.00">l4_ipc_send</text>
</a>
</g>
</g>
<!-- Node2 -->
<g id="node2" class="node">
<title>Node2</title>
<g id="a_node2"><a xlink:href="group__l4__irq__api.html#ga180cfaf342ce9ff484a6aa7c276e1597" target="_top" xlink:title="Trigger.">
<polygon fill="white" stroke="black" points="326,-76.5 326,-95.5 418,-95.5 418,-76.5 326,-76.5"/>
<text text-anchor="middle" x="372" y="-83.5" font-family="Helvetica,sans-Serif" font-size="10.00">l4_irq_trigger_u</text>
</a>
</g>
</g>
<!-- Node1&#45;&gt;Node2 -->
<g id="edge1" class="edge">
<title>Node1&#45;&gt;Node2</title>
<path fill="none" stroke="midnightblue" d="M466.53,-60.25C447.51,-65.48 425.62,-71.51 407.81,-76.41"/>
<polygon fill="midnightblue" stroke="midnightblue" points="467.46,-63.62 476.18,-57.59 465.61,-56.87 467.46,-63.62"/>
</g>
<!-- Node6 -->
<g id="node6" class="node">
<title>Node6</title>
<g id="a_node6"><a xlink:href="classL4_1_1Server.html#a4333dc750dee494087ee92ab058718a1" target="_top" xlink:title="Internal implementation for reply and wait.">
<polygon fill="white" stroke="black" points="305,-38.5 305,-57.5 439,-57.5 439,-38.5 305,-38.5"/>
<text text-anchor="middle" x="372" y="-45.5" font-family="Helvetica,sans-Serif" font-size="10.00">L4::Server::reply_n_wait</text>
</a>
</g>
</g>
<!-- Node1&#45;&gt;Node6 -->
<g id="edge5" class="edge">
<title>Node1&#45;&gt;Node6</title>
<path fill="none" stroke="midnightblue" d="M464.66,-48C456.47,-48 447.79,-48 439.18,-48"/>
<polygon fill="midnightblue" stroke="midnightblue" points="464.74,-51.5 474.74,-48 464.74,-44.5 464.74,-51.5"/>
</g>
<!-- Node7 -->
<g id="node7" class="node">
<title>Node7</title>
<g id="a_node7"><a xlink:href="classL4_1_1Ipc_1_1Ostream.html#a0ac15ba65285ed66a3b2ae7f9dc612d1" target="_top" xlink:title="Send the message via IPC to the given receiver.">
<polygon fill="white" stroke="black" points="309.5,-0.5 309.5,-19.5 434.5,-19.5 434.5,-0.5 309.5,-0.5"/>
<text text-anchor="middle" x="372" y="-7.5" font-family="Helvetica,sans-Serif" font-size="10.00">L4::Ipc::Ostream::send</text>
</a>
</g>
</g>
<!-- Node1&#45;&gt;Node7 -->
<g id="edge6" class="edge">
<title>Node1&#45;&gt;Node7</title>
<path fill="none" stroke="midnightblue" d="M466.53,-35.75C447.51,-30.52 425.62,-24.49 407.81,-19.59"/>
<polygon fill="midnightblue" stroke="midnightblue" points="465.61,-39.13 476.18,-38.41 467.46,-32.38 465.61,-39.13"/>
</g>
<!-- Node3 -->
<g id="node3" class="node">
<title>Node3</title>
<g id="a_node3"><a xlink:href="group__l4__irq__api.html#gab24e0fc21a207fd566ece1e6fafbac48" target="_top" xlink:title="Trigger an IRQ.">
<polygon fill="white" stroke="black" points="165.5,-95.5 165.5,-114.5 246.5,-114.5 246.5,-95.5 165.5,-95.5"/>
<text text-anchor="middle" x="206" y="-102.5" font-family="Helvetica,sans-Serif" font-size="10.00">l4_irq_trigger</text>
</a>
</g>
</g>
<!-- Node2&#45;&gt;Node3 -->
<g id="edge2" class="edge">
<title>Node2&#45;&gt;Node3</title>
<path fill="none" stroke="midnightblue" d="M315.58,-92.42C292.92,-95.05 267.23,-98.02 246.52,-100.42"/>
<polygon fill="midnightblue" stroke="midnightblue" points="316.22,-95.87 325.75,-91.24 315.42,-88.92 316.22,-95.87"/>
</g>
<!-- Node4 -->
<g id="node4" class="node">
<title>Node4</title>
<g id="a_node4"><a xlink:href="structL4_1_1Triggerable.html#a7109ca8b4aeac0169639f973c91a3a6b" target="_top" xlink:title="Trigger.">
<polygon fill="white" stroke="black" points="143,-57.5 143,-76.5 269,-76.5 269,-57.5 143,-57.5"/>
<text text-anchor="middle" x="206" y="-64.5" font-family="Helvetica,sans-Serif" font-size="10.00">L4::Triggerable::trigger</text>
</a>
</g>
</g>
<!-- Node2&#45;&gt;Node4 -->
<g id="edge3" class="edge">
<title>Node2&#45;&gt;Node4</title>
<path fill="none" stroke="midnightblue" d="M315.67,-79.59C300.77,-77.86 284.54,-75.98 269.29,-74.22"/>
<polygon fill="midnightblue" stroke="midnightblue" points="315.42,-83.08 325.75,-80.76 316.22,-76.13 315.42,-83.08"/>
</g>
<!-- Node5 -->
<g id="node5" class="node">
<title>Node5</title>
<g id="a_node5"><a xlink:href="structL4_1_1Semaphore.html#a3de7e4e35ff4dadab9a26f3b87fb76bc" target="_top" xlink:title="Semaphore up operation (wrapper for trigger()).">
<polygon fill="white" stroke="black" points="0,-57.5 0,-76.5 107,-76.5 107,-57.5 0,-57.5"/>
<text text-anchor="middle" x="53.5" y="-64.5" font-family="Helvetica,sans-Serif" font-size="10.00">L4::Semaphore::up</text>
</a>
</g>
</g>
<!-- Node4&#45;&gt;Node5 -->
<g id="edge4" class="edge">
<title>Node4&#45;&gt;Node5</title>
<path fill="none" stroke="midnightblue" d="M132.86,-67C124.25,-67 115.59,-67 107.33,-67"/>
<polygon fill="midnightblue" stroke="midnightblue" points="132.92,-70.5 142.92,-67 132.92,-63.5 132.92,-70.5"/>
</g>
</g>
</svg>
