<?xml version="1.0" encoding="UTF-8" standalone="no"?>
<!DOCTYPE svg PUBLIC "-//W3C//DTD SVG 1.1//EN"
 "http://www.w3.org/Graphics/SVG/1.1/DTD/svg11.dtd">
<!-- Generated by graphviz version 2.43.0 (0)
 -->
<!-- Title: l4vcpu_irq_enable Pages: 1 -->
<svg width="463pt" height="66pt"
 viewBox="0.00 0.00 463.00 66.00" xmlns="http://www.w3.org/2000/svg" xmlns:xlink="http://www.w3.org/1999/xlink">
<g id="graph0" class="graph" transform="scale(1 1) rotate(0) translate(4 62)">
<title>l4vcpu_irq_enable</title>
<polygon fill="white" stroke="transparent" points="-4,4 -4,-62 459,-62 459,4 -4,4"/>
<!-- Node1 -->
<g id="node1" class="node">
<title>Node1</title>
<g id="a_node1"><a xlink:title="Enable a vCPU for event delivery.">
<polygon fill="#bfbfbf" stroke="black" points="350,-19.5 350,-38.5 455,-38.5 455,-19.5 350,-19.5"/>
<text text-anchor="middle" x="402.5" y="-26.5" font-family="Helvetica,sans-Serif" font-size="10.00">l4vcpu_irq_enable</text>
</a>
</g>
</g>
<!-- Node2 -->
<g id="node2" class="node">
<title>Node2</title>
<g id="a_node2"><a xlink:href="classL4vcpu_1_1Vcpu.html#a9776fe5423e6215779e321a921a9ac90" target="_top" xlink:title="Enable the vCPU for event delivery.">
<polygon fill="white" stroke="black" points="176,-38.5 176,-57.5 314,-57.5 314,-38.5 176,-38.5"/>
<text text-anchor="middle" x="245" y="-45.5" font-family="Helvetica,sans-Serif" font-size="10.00">L4vcpu::Vcpu::irq_enable</text>
</a>
</g>
</g>
<!-- Node1&#45;&gt;Node2 -->
<g id="edge1" class="edge">
<title>Node1&#45;&gt;Node2</title>
<path fill="none" stroke="midnightblue" d="M339.65,-36.56C331.27,-37.58 322.64,-38.64 314.15,-39.67"/>
<polygon fill="midnightblue" stroke="midnightblue" points="340.22,-40.01 349.72,-35.33 339.37,-33.07 340.22,-40.01"/>
</g>
<!-- Node3 -->
<g id="node3" class="node">
<title>Node3</title>
<g id="a_node3"><a xlink:href="group__api__libvcpu.html#ga68cccc12b6542f9413afb281d8bdffcc" target="_top" xlink:title="Restore a previously saved IRQ/event state.">
<polygon fill="white" stroke="black" points="191.5,-0.5 191.5,-19.5 298.5,-19.5 298.5,-0.5 191.5,-0.5"/>
<text text-anchor="middle" x="245" y="-7.5" font-family="Helvetica,sans-Serif" font-size="10.00">l4vcpu_irq_restore</text>
</a>
</g>
</g>
<!-- Node1&#45;&gt;Node3 -->
<g id="edge2" class="edge">
<title>Node1&#45;&gt;Node3</title>
<path fill="none" stroke="midnightblue" d="M339.52,-21.43C325.97,-19.77 311.76,-18.03 298.61,-16.43"/>
<polygon fill="midnightblue" stroke="midnightblue" points="339.37,-24.93 349.72,-22.67 340.22,-17.99 339.37,-24.93"/>
</g>
<!-- Node4 -->
<g id="node4" class="node">
<title>Node4</title>
<g id="a_node4"><a xlink:href="classL4vcpu_1_1Vcpu.html#af180fbb0106c7727a255eb8185dbe981" target="_top" xlink:title="Restore a previously saved IRQ/event state.">
<polygon fill="white" stroke="black" points="0,-0.5 0,-19.5 140,-19.5 140,-0.5 0,-0.5"/>
<text text-anchor="middle" x="70" y="-7.5" font-family="Helvetica,sans-Serif" font-size="10.00">L4vcpu::Vcpu::irq_restore</text>
</a>
</g>
</g>
<!-- Node3&#45;&gt;Node4 -->
<g id="edge3" class="edge">
<title>Node3&#45;&gt;Node4</title>
<path fill="none" stroke="midnightblue" d="M181.14,-10C167.81,-10 153.66,-10 140.11,-10"/>
<polygon fill="midnightblue" stroke="midnightblue" points="181.15,-13.5 191.15,-10 181.15,-6.5 181.15,-13.5"/>
</g>
</g>
</svg>
