<?xml version="1.0" encoding="UTF-8" standalone="no"?>
<!DOCTYPE svg PUBLIC "-//W3C//DTD SVG 1.1//EN"
 "http://www.w3.org/Graphics/SVG/1.1/DTD/svg11.dtd">
<!-- Generated by graphviz version 2.43.0 (0)
 -->
<!-- Title: l4_irq_receive Pages: 1 -->
<svg width="225pt" height="66pt"
 viewBox="0.00 0.00 225.00 66.00" xmlns="http://www.w3.org/2000/svg" xmlns:xlink="http://www.w3.org/1999/xlink">
<g id="graph0" class="graph" transform="scale(1 1) rotate(0) translate(4 62)">
<title>l4_irq_receive</title>
<polygon fill="white" stroke="transparent" points="-4,4 -4,-62 221,-62 221,4 -4,4"/>
<!-- Node1 -->
<g id="node1" class="node">
<title>Node1</title>
<g id="a_node1"><a xlink:title="Unmask and wait for specified IRQ.">
<polygon fill="#bfbfbf" stroke="black" points="0,-19.5 0,-38.5 85,-38.5 85,-19.5 0,-19.5"/>
<text text-anchor="middle" x="42.5" y="-26.5" font-family="Helvetica,sans-Serif" font-size="10.00">l4_irq_receive</text>
</a>
</g>
</g>
<!-- Node2 -->
<g id="node2" class="node">
<title>Node2</title>
<g id="a_node2"><a xlink:href="group__l4__irq__api.html#ga430999e1f8f6eb5f7e3f957b854b7446" target="_top" xlink:title="Unmask and wait for this IRQ.">
<polygon fill="white" stroke="black" points="121,-38.5 121,-57.5 217,-57.5 217,-38.5 121,-38.5"/>
<text text-anchor="middle" x="169" y="-45.5" font-family="Helvetica,sans-Serif" font-size="10.00">l4_irq_receive_u</text>
</a>
</g>
</g>
<!-- Node1&#45;&gt;Node2 -->
<g id="edge1" class="edge">
<title>Node1&#45;&gt;Node2</title>
<path fill="none" stroke="midnightblue" d="M85.3,-35.38C93.53,-36.63 102.29,-37.97 110.92,-39.29"/>
<polygon fill="midnightblue" stroke="midnightblue" points="110.53,-42.77 120.94,-40.82 111.59,-35.85 110.53,-42.77"/>
</g>
<!-- Node3 -->
<g id="node3" class="node">
<title>Node3</title>
<g id="a_node3"><a xlink:href="group__l4__utcb__api.html#gadc099b4a59e1d99638c72c11a8c8b644" target="_top" xlink:title="Get the UTCB address.">
<polygon fill="white" stroke="black" points="143,-0.5 143,-19.5 195,-19.5 195,-0.5 143,-0.5"/>
<text text-anchor="middle" x="169" y="-7.5" font-family="Helvetica,sans-Serif" font-size="10.00">l4_utcb</text>
</a>
</g>
</g>
<!-- Node1&#45;&gt;Node3 -->
<g id="edge2" class="edge">
<title>Node1&#45;&gt;Node3</title>
<path fill="none" stroke="midnightblue" d="M85.3,-22.62C100.65,-20.28 117.86,-17.65 132.6,-15.4"/>
<polygon fill="midnightblue" stroke="midnightblue" points="133.47,-18.81 142.82,-13.84 132.41,-11.89 133.47,-18.81"/>
</g>
</g>
</svg>
