<?xml version="1.0" encoding="UTF-8" standalone="no"?>
<!DOCTYPE svg PUBLIC "-//W3C//DTD SVG 1.1//EN"
 "http://www.w3.org/Graphics/SVG/1.1/DTD/svg11.dtd">
<!-- Generated by graphviz version 2.43.0 (0)
 -->
<!-- Title: l4_icu_set_mode_u Pages: 1 -->
<svg width="256pt" height="66pt"
 viewBox="0.00 0.00 256.00 66.00" xmlns="http://www.w3.org/2000/svg" xmlns:xlink="http://www.w3.org/1999/xlink">
<g id="graph0" class="graph" transform="scale(1 1) rotate(0) translate(4 62)">
<title>l4_icu_set_mode_u</title>
<polygon fill="white" stroke="transparent" points="-4,4 -4,-62 252,-62 252,4 -4,4"/>
<!-- Node1 -->
<g id="node1" class="node">
<title>Node1</title>
<g id="a_node1"><a xlink:title="Set interrupt mode.">
<polygon fill="#bfbfbf" stroke="black" points="138,-19.5 138,-38.5 248,-38.5 248,-19.5 138,-19.5"/>
<text text-anchor="middle" x="193" y="-26.5" font-family="Helvetica,sans-Serif" font-size="10.00">l4_icu_set_mode_u</text>
</a>
</g>
</g>
<!-- Node2 -->
<g id="node2" class="node">
<title>Node2</title>
<g id="a_node2"><a xlink:href="group__l4__icu__api.html#gad387684dcc6b4838f1d4f466e1aeef6f" target="_top" xlink:title="Set interrupt mode.">
<polygon fill="white" stroke="black" points="2,-38.5 2,-57.5 100,-57.5 100,-38.5 2,-38.5"/>
<text text-anchor="middle" x="51" y="-45.5" font-family="Helvetica,sans-Serif" font-size="10.00">l4_icu_set_mode</text>
</a>
</g>
</g>
<!-- Node1&#45;&gt;Node2 -->
<g id="edge1" class="edge">
<title>Node1&#45;&gt;Node2</title>
<path fill="none" stroke="midnightblue" d="M127.82,-37.71C118.48,-38.98 109,-40.26 100.05,-41.48"/>
<polygon fill="midnightblue" stroke="midnightblue" points="128.43,-41.16 137.87,-36.35 127.49,-34.22 128.43,-41.16"/>
</g>
<!-- Node3 -->
<g id="node3" class="node">
<title>Node3</title>
<g id="a_node3"><a xlink:href="classL4_1_1Icu.html#a4258b1c32fc968b66a1ce15191f51b8b" target="_top" xlink:title="Set interrupt mode.">
<polygon fill="white" stroke="black" points="0,-0.5 0,-19.5 102,-19.5 102,-0.5 0,-0.5"/>
<text text-anchor="middle" x="51" y="-7.5" font-family="Helvetica,sans-Serif" font-size="10.00">L4::Icu::set_mode</text>
</a>
</g>
</g>
<!-- Node1&#45;&gt;Node3 -->
<g id="edge2" class="edge">
<title>Node1&#45;&gt;Node3</title>
<path fill="none" stroke="midnightblue" d="M127.89,-20.3C119.31,-19.13 110.61,-17.95 102.31,-16.83"/>
<polygon fill="midnightblue" stroke="midnightblue" points="127.49,-23.78 137.87,-21.65 128.43,-16.84 127.49,-23.78"/>
</g>
</g>
</svg>
