<?xml version="1.0" encoding="UTF-8" standalone="no"?>
<!DOCTYPE svg PUBLIC "-//W3C//DTD SVG 1.1//EN"
 "http://www.w3.org/Graphics/SVG/1.1/DTD/svg11.dtd">
<!-- Generated by graphviz version 2.43.0 (0)
 -->
<!-- Title: l4_ipc_reply_and_wait Pages: 1 -->
<svg width="303pt" height="78pt"
 viewBox="0.00 0.00 303.00 77.50" xmlns="http://www.w3.org/2000/svg" xmlns:xlink="http://www.w3.org/1999/xlink">
<g id="graph0" class="graph" transform="scale(1 1) rotate(0) translate(4 73.5)">
<title>l4_ipc_reply_and_wait</title>
<polygon fill="white" stroke="transparent" points="-4,4 -4,-73.5 299,-73.5 299,4 -4,4"/>
<!-- Node1 -->
<g id="node1" class="node">
<title>Node1</title>
<g id="a_node1"><a xlink:title="Reply and wait operation (uses the reply capability).">
<polygon fill="#bfbfbf" stroke="black" points="170,-22.5 170,-41.5 295,-41.5 295,-22.5 170,-22.5"/>
<text text-anchor="middle" x="232.5" y="-29.5" font-family="Helvetica,sans-Serif" font-size="10.00">l4_ipc_reply_and_wait</text>
</a>
</g>
</g>
<!-- Node2 -->
<g id="node2" class="node">
<title>Node2</title>
<g id="a_node2"><a xlink:href="classL4_1_1Ipc_1_1Iostream.html#a38428e61e86208016e9653937da01f6d" target="_top" xlink:title="Do an IPC reply and wait.">
<polygon fill="white" stroke="black" points="15,-39 15,-69 119,-69 119,-39 15,-39"/>
<text text-anchor="start" x="23" y="-57" font-family="Helvetica,sans-Serif" font-size="10.00">L4::Ipc::Iostream::</text>
<text text-anchor="middle" x="67" y="-46" font-family="Helvetica,sans-Serif" font-size="10.00">reply_and_wait</text>
</a>
</g>
</g>
<!-- Node1&#45;&gt;Node2 -->
<g id="edge1" class="edge">
<title>Node1&#45;&gt;Node2</title>
<path fill="none" stroke="midnightblue" d="M159.43,-41.7C145.89,-43.52 131.99,-45.39 119.24,-47.11"/>
<polygon fill="midnightblue" stroke="midnightblue" points="160.24,-45.12 169.69,-40.32 159.31,-38.18 160.24,-45.12"/>
</g>
<!-- Node3 -->
<g id="node3" class="node">
<title>Node3</title>
<g id="a_node3"><a xlink:href="classL4_1_1Server.html#a4333dc750dee494087ee92ab058718a1" target="_top" xlink:title="Internal implementation for reply and wait.">
<polygon fill="white" stroke="black" points="0,-0.5 0,-19.5 134,-19.5 134,-0.5 0,-0.5"/>
<text text-anchor="middle" x="67" y="-7.5" font-family="Helvetica,sans-Serif" font-size="10.00">L4::Server::reply_n_wait</text>
</a>
</g>
</g>
<!-- Node1&#45;&gt;Node3 -->
<g id="edge2" class="edge">
<title>Node1&#45;&gt;Node3</title>
<path fill="none" stroke="midnightblue" d="M159.53,-22.32C151.13,-21.19 142.59,-20.04 134.27,-18.92"/>
<polygon fill="midnightblue" stroke="midnightblue" points="159.31,-25.82 169.69,-23.68 160.24,-18.88 159.31,-25.82"/>
</g>
</g>
</svg>
