<?xml version="1.0" encoding="UTF-8" standalone="no"?>
<!DOCTYPE svg PUBLIC "-//W3C//DTD SVG 1.1//EN"
 "http://www.w3.org/Graphics/SVG/1.1/DTD/svg11.dtd">
<!-- Generated by graphviz version 2.43.0 (0)
 -->
<!-- Title: l4_factory_create_task_u Pages: 1 -->
<svg width="314pt" height="66pt"
 viewBox="0.00 0.00 314.00 66.00" xmlns="http://www.w3.org/2000/svg" xmlns:xlink="http://www.w3.org/1999/xlink">
<g id="graph0" class="graph" transform="scale(1 1) rotate(0) translate(4 62)">
<title>l4_factory_create_task_u</title>
<polygon fill="white" stroke="transparent" points="-4,4 -4,-62 310,-62 310,4 -4,4"/>
<!-- Node1 -->
<g id="node1" class="node">
<title>Node1</title>
<g id="a_node1"><a xlink:title="Create a new task.">
<polygon fill="#bfbfbf" stroke="black" points="167,-19.5 167,-38.5 306,-38.5 306,-19.5 167,-19.5"/>
<text text-anchor="middle" x="236.5" y="-26.5" font-family="Helvetica,sans-Serif" font-size="10.00">l4_factory_create_task_u</text>
</a>
</g>
</g>
<!-- Node2 -->
<g id="node2" class="node">
<title>Node2</title>
<g id="a_node2"><a xlink:href="classL4_1_1Factory.html#a5a2119bba3ea97bfb0f10897c1c64ecb" target="_top" xlink:title="Create a new task.">
<polygon fill="white" stroke="black" points="0,-38.5 0,-57.5 131,-57.5 131,-38.5 0,-38.5"/>
<text text-anchor="middle" x="65.5" y="-45.5" font-family="Helvetica,sans-Serif" font-size="10.00">L4::Factory::create_task</text>
</a>
</g>
</g>
<!-- Node1&#45;&gt;Node2 -->
<g id="edge1" class="edge">
<title>Node1&#45;&gt;Node2</title>
<path fill="none" stroke="midnightblue" d="M156.74,-37.86C148.15,-38.82 139.48,-39.8 131.08,-40.74"/>
<polygon fill="midnightblue" stroke="midnightblue" points="157.21,-41.32 166.76,-36.73 156.43,-34.37 157.21,-41.32"/>
</g>
<!-- Node3 -->
<g id="node3" class="node">
<title>Node3</title>
<g id="a_node3"><a xlink:href="group__l4__factory__api.html#gaa68cf0ef0a5f11b15e5f77e241ff0b2a" target="_top" xlink:title="Create a new task.">
<polygon fill="white" stroke="black" points="1.5,-0.5 1.5,-19.5 129.5,-19.5 129.5,-0.5 1.5,-0.5"/>
<text text-anchor="middle" x="65.5" y="-7.5" font-family="Helvetica,sans-Serif" font-size="10.00">l4_factory_create_task</text>
</a>
</g>
</g>
<!-- Node1&#45;&gt;Node3 -->
<g id="edge2" class="edge">
<title>Node1&#45;&gt;Node3</title>
<path fill="none" stroke="midnightblue" d="M156.64,-20.13C147.62,-19.12 138.51,-18.1 129.73,-17.11"/>
<polygon fill="midnightblue" stroke="midnightblue" points="156.43,-23.63 166.76,-21.27 157.21,-16.68 156.43,-23.63"/>
</g>
</g>
</svg>
