<?xml version="1.0" encoding="UTF-8" standalone="no"?>
<!DOCTYPE svg PUBLIC "-//W3C//DTD SVG 1.1//EN"
 "http://www.w3.org/Graphics/SVG/1.1/DTD/svg11.dtd">
<!-- Generated by graphviz version 2.43.0 (0)
 -->
<!-- Title: l4_vcon_write Pages: 1 -->
<svg width="378pt" height="104pt"
 viewBox="0.00 0.00 378.00 104.00" xmlns="http://www.w3.org/2000/svg" xmlns:xlink="http://www.w3.org/1999/xlink">
<g id="graph0" class="graph" transform="scale(1 1) rotate(0) translate(4 100)">
<title>l4_vcon_write</title>
<polygon fill="white" stroke="transparent" points="-4,4 -4,-100 374,-100 374,4 -4,4"/>
<!-- Node1 -->
<g id="node1" class="node">
<title>Node1</title>
<g id="a_node1"><a xlink:title="Write data to virtual console.">
<polygon fill="#bfbfbf" stroke="black" points="0,-57.5 0,-76.5 84,-76.5 84,-57.5 0,-57.5"/>
<text text-anchor="middle" x="42" y="-64.5" font-family="Helvetica,sans-Serif" font-size="10.00">l4_vcon_write</text>
</a>
</g>
</g>
<!-- Node2 -->
<g id="node2" class="node">
<title>Node2</title>
<g id="a_node2"><a xlink:href="group__l4__utcb__api.html#gadc099b4a59e1d99638c72c11a8c8b644" target="_top" xlink:title="Get the UTCB address.">
<polygon fill="white" stroke="black" points="141.5,-76.5 141.5,-95.5 193.5,-95.5 193.5,-76.5 141.5,-76.5"/>
<text text-anchor="middle" x="167.5" y="-83.5" font-family="Helvetica,sans-Serif" font-size="10.00">l4_utcb</text>
</a>
</g>
</g>
<!-- Node1&#45;&gt;Node2 -->
<g id="edge1" class="edge">
<title>Node1&#45;&gt;Node2</title>
<path fill="none" stroke="midnightblue" d="M84.12,-73.33C99.37,-75.67 116.51,-78.31 131.19,-80.57"/>
<polygon fill="midnightblue" stroke="midnightblue" points="130.97,-84.07 141.38,-82.14 132.03,-77.16 130.97,-84.07"/>
</g>
<!-- Node3 -->
<g id="node3" class="node">
<title>Node3</title>
<g id="a_node3"><a xlink:href="group__l4__vcon__api.html#ga899728ba23baf18f59f62142534e039c" target="_top" xlink:title="Write data to this virtual console.">
<polygon fill="white" stroke="black" points="120,-38.5 120,-57.5 215,-57.5 215,-38.5 120,-38.5"/>
<text text-anchor="middle" x="167.5" y="-45.5" font-family="Helvetica,sans-Serif" font-size="10.00">l4_vcon_write_u</text>
</a>
</g>
</g>
<!-- Node1&#45;&gt;Node3 -->
<g id="edge2" class="edge">
<title>Node1&#45;&gt;Node3</title>
<path fill="none" stroke="midnightblue" d="M84.12,-60.67C92.29,-59.42 101.01,-58.08 109.6,-56.75"/>
<polygon fill="midnightblue" stroke="midnightblue" points="110.23,-60.2 119.58,-55.22 109.17,-53.28 110.23,-60.2"/>
</g>
<!-- Node4 -->
<g id="node4" class="node">
<title>Node4</title>
<g id="a_node4"><a xlink:href="group__l4__ipc__err__api.html#ga05c11e3e10b6c2aa941396ac2018899f" target="_top" xlink:title="Return error code of a system call return message tag or the tag label.">
<polygon fill="white" stroke="black" points="283.5,-76.5 283.5,-95.5 337.5,-95.5 337.5,-76.5 283.5,-76.5"/>
<text text-anchor="middle" x="310.5" y="-83.5" font-family="Helvetica,sans-Serif" font-size="10.00">l4_error</text>
</a>
</g>
</g>
<!-- Node3&#45;&gt;Node4 -->
<g id="edge3" class="edge">
<title>Node3&#45;&gt;Node4</title>
<path fill="none" stroke="midnightblue" d="M204.08,-57.59C225.35,-63.32 252.29,-70.58 273.62,-76.33"/>
<polygon fill="midnightblue" stroke="midnightblue" points="272.71,-79.71 283.28,-78.93 274.53,-72.95 272.71,-79.71"/>
</g>
<!-- Node5 -->
<g id="node5" class="node">
<title>Node5</title>
<g id="a_node5"><a xlink:href="group__l4__msgtag__api.html#ga52e71bb66855f4d78fa5c82b5f0c5a87" target="_top" xlink:title="Test for error indicator flag.">
<polygon fill="white" stroke="black" points="251,-38.5 251,-57.5 370,-57.5 370,-38.5 251,-38.5"/>
<text text-anchor="middle" x="310.5" y="-45.5" font-family="Helvetica,sans-Serif" font-size="10.00">l4_msgtag_has_error</text>
</a>
</g>
</g>
<!-- Node3&#45;&gt;Node5 -->
<g id="edge4" class="edge">
<title>Node3&#45;&gt;Node5</title>
<path fill="none" stroke="midnightblue" d="M215.06,-48C223.3,-48 232.04,-48 240.75,-48"/>
<polygon fill="midnightblue" stroke="midnightblue" points="240.92,-51.5 250.92,-48 240.92,-44.5 240.92,-51.5"/>
</g>
<!-- Node6 -->
<g id="node6" class="node">
<title>Node6</title>
<g id="a_node6"><a xlink:href="group__l4__vcon__api.html#ga05df63a45bb7ade1e0e19caaa6e35f5f" target="_top" xlink:title="Send data to this virtual console.">
<polygon fill="white" stroke="black" points="263.5,-0.5 263.5,-19.5 357.5,-19.5 357.5,-0.5 263.5,-0.5"/>
<text text-anchor="middle" x="310.5" y="-7.5" font-family="Helvetica,sans-Serif" font-size="10.00">l4_vcon_send_u</text>
</a>
</g>
</g>
<!-- Node3&#45;&gt;Node6 -->
<g id="edge5" class="edge">
<title>Node3&#45;&gt;Node6</title>
<path fill="none" stroke="midnightblue" d="M204.08,-38.41C222.28,-33.51 244.64,-27.48 264.07,-22.24"/>
<polygon fill="midnightblue" stroke="midnightblue" points="265.19,-25.57 273.93,-19.59 263.36,-18.81 265.19,-25.57"/>
</g>
</g>
</svg>
