<?xml version="1.0" encoding="UTF-8" standalone="no"?>
<!DOCTYPE svg PUBLIC "-//W3C//DTD SVG 1.1//EN"
 "http://www.w3.org/Graphics/SVG/1.1/DTD/svg11.dtd">
<!-- Generated by graphviz version 2.43.0 (0)
 -->
<!-- Title: l4_icu_unbind_u Pages: 1 -->
<svg width="226pt" height="66pt"
 viewBox="0.00 0.00 226.00 66.00" xmlns="http://www.w3.org/2000/svg" xmlns:xlink="http://www.w3.org/1999/xlink">
<g id="graph0" class="graph" transform="scale(1 1) rotate(0) translate(4 62)">
<title>l4_icu_unbind_u</title>
<polygon fill="white" stroke="transparent" points="-4,4 -4,-62 222,-62 222,4 -4,4"/>
<!-- Node1 -->
<g id="node1" class="node">
<title>Node1</title>
<g id="a_node1"><a xlink:title="Remove binding of an interrupt line from the interrupt controller object.">
<polygon fill="#bfbfbf" stroke="black" points="123,-19.5 123,-38.5 218,-38.5 218,-19.5 123,-19.5"/>
<text text-anchor="middle" x="170.5" y="-26.5" font-family="Helvetica,sans-Serif" font-size="10.00">l4_icu_unbind_u</text>
</a>
</g>
</g>
<!-- Node2 -->
<g id="node2" class="node">
<title>Node2</title>
<g id="a_node2"><a xlink:href="group__l4__icu__api.html#ga77d613300601861b13605e7687146dc5" target="_top" xlink:title="Remove binding of an interrupt line from the interrupt controller object.">
<polygon fill="white" stroke="black" points="2,-38.5 2,-57.5 85,-57.5 85,-38.5 2,-38.5"/>
<text text-anchor="middle" x="43.5" y="-45.5" font-family="Helvetica,sans-Serif" font-size="10.00">l4_icu_unbind</text>
</a>
</g>
</g>
<!-- Node1&#45;&gt;Node2 -->
<g id="edge1" class="edge">
<title>Node1&#45;&gt;Node2</title>
<path fill="none" stroke="midnightblue" d="M112.96,-37.59C103.65,-39.01 94.16,-40.45 85.33,-41.79"/>
<polygon fill="midnightblue" stroke="midnightblue" points="113.59,-41.04 122.95,-36.07 112.54,-34.12 113.59,-41.04"/>
</g>
<!-- Node3 -->
<g id="node3" class="node">
<title>Node3</title>
<g id="a_node3"><a xlink:href="classL4_1_1Icu.html#aa34e56cdac798b1949fcc00553386b8b" target="_top" xlink:title="Remove binding of an interrupt line from the interrupt controller object.">
<polygon fill="white" stroke="black" points="0,-0.5 0,-19.5 87,-19.5 87,-0.5 0,-0.5"/>
<text text-anchor="middle" x="43.5" y="-7.5" font-family="Helvetica,sans-Serif" font-size="10.00">L4::Icu::unbind</text>
</a>
</g>
</g>
<!-- Node1&#45;&gt;Node3 -->
<g id="edge2" class="edge">
<title>Node1&#45;&gt;Node3</title>
<path fill="none" stroke="midnightblue" d="M112.97,-20.41C104.36,-19.1 95.61,-17.77 87.36,-16.52"/>
<polygon fill="midnightblue" stroke="midnightblue" points="112.54,-23.88 122.95,-21.93 113.59,-16.96 112.54,-23.88"/>
</g>
</g>
</svg>
