<?xml version="1.0" encoding="UTF-8" standalone="no"?>
<!DOCTYPE svg PUBLIC "-//W3C//DTD SVG 1.1//EN"
 "http://www.w3.org/Graphics/SVG/1.1/DTD/svg11.dtd">
<!-- Generated by graphviz version 2.43.0 (0)
 -->
<!-- Title: l4_msgtag_label Pages: 1 -->
<svg width="297pt" height="230pt"
 viewBox="0.00 0.00 297.00 230.00" xmlns="http://www.w3.org/2000/svg" xmlns:xlink="http://www.w3.org/1999/xlink">
<g id="graph0" class="graph" transform="scale(1 1) rotate(0) translate(4 226)">
<title>l4_msgtag_label</title>
<polygon fill="white" stroke="transparent" points="-4,4 -4,-226 293,-226 293,4 -4,4"/>
<!-- Node1 -->
<g id="node1" class="node">
<title>Node1</title>
<g id="a_node1"><a xlink:title="Get the protocol of tag.">
<polygon fill="#bfbfbf" stroke="black" points="192,-95.5 192,-114.5 289,-114.5 289,-95.5 192,-95.5"/>
<text text-anchor="middle" x="240.5" y="-102.5" font-family="Helvetica,sans-Serif" font-size="10.00">l4_msgtag_label</text>
</a>
</g>
</g>
<!-- Node2 -->
<g id="node2" class="node">
<title>Node2</title>
<g id="a_node2"><a xlink:href="group__l4__msgtag__api.html#ga0f2cf0a5f8d4a733f69b94dcc388c2ef" target="_top" xlink:title="Test for exception protocol.">
<polygon fill="white" stroke="black" points="11,-202.5 11,-221.5 145,-221.5 145,-202.5 11,-202.5"/>
<text text-anchor="middle" x="78" y="-209.5" font-family="Helvetica,sans-Serif" font-size="10.00">l4_msgtag_is_exception</text>
</a>
</g>
</g>
<!-- Node1&#45;&gt;Node2 -->
<g id="edge1" class="edge">
<title>Node1&#45;&gt;Node2</title>
<path fill="none" stroke="midnightblue" d="M227.36,-122.97C212.79,-143.12 186.47,-175.28 156,-193 149.33,-196.88 141.9,-199.97 134.35,-202.43"/>
<polygon fill="midnightblue" stroke="midnightblue" points="230.32,-124.85 233.2,-114.65 224.59,-120.82 230.32,-124.85"/>
</g>
<!-- Node3 -->
<g id="node3" class="node">
<title>Node3</title>
<g id="a_node3"><a xlink:href="group__l4__msgtag__api.html#ga463384faf9cb37d3f65f24913e34d687" target="_top" xlink:title="Test for IO&#45;page&#45;fault protocol.">
<polygon fill="white" stroke="black" points="15.5,-153 15.5,-183 140.5,-183 140.5,-153 15.5,-153"/>
<text text-anchor="start" x="23.5" y="-171" font-family="Helvetica,sans-Serif" font-size="10.00">l4_msgtag_is_io_page</text>
<text text-anchor="middle" x="78" y="-160" font-family="Helvetica,sans-Serif" font-size="10.00">_fault</text>
</a>
</g>
</g>
<!-- Node1&#45;&gt;Node3 -->
<g id="edge2" class="edge">
<title>Node1&#45;&gt;Node3</title>
<path fill="none" stroke="midnightblue" d="M210.88,-119C194.92,-126.56 174.56,-135.79 156,-143 147.09,-146.46 137.48,-149.85 128.17,-152.95"/>
<polygon fill="midnightblue" stroke="midnightblue" points="212.69,-122.01 220.2,-114.54 209.66,-115.7 212.69,-122.01"/>
</g>
<!-- Node4 -->
<g id="node4" class="node">
<title>Node4</title>
<g id="a_node4"><a xlink:href="group__l4__msgtag__api.html#gaf949daa8e7aa7d20743502de15e86dcd" target="_top" xlink:title="Test for page&#45;fault protocol.">
<polygon fill="white" stroke="black" points="9,-114.5 9,-133.5 147,-133.5 147,-114.5 9,-114.5"/>
<text text-anchor="middle" x="78" y="-121.5" font-family="Helvetica,sans-Serif" font-size="10.00">l4_msgtag_is_page_fault</text>
</a>
</g>
</g>
<!-- Node1&#45;&gt;Node4 -->
<g id="edge3" class="edge">
<title>Node1&#45;&gt;Node4</title>
<path fill="none" stroke="midnightblue" d="M181.67,-111.85C170.43,-113.18 158.56,-114.58 147.03,-115.95"/>
<polygon fill="midnightblue" stroke="midnightblue" points="182.26,-115.3 191.78,-110.65 181.44,-108.35 182.26,-115.3"/>
</g>
<!-- Node5 -->
<g id="node5" class="node">
<title>Node5</title>
<g id="a_node5"><a xlink:href="group__l4__msgtag__api.html#gafb02742f6231ff4568412fed96e7e272" target="_top" xlink:title="Test for preemption protocol.">
<polygon fill="white" stroke="black" points="6.5,-76.5 6.5,-95.5 149.5,-95.5 149.5,-76.5 6.5,-76.5"/>
<text text-anchor="middle" x="78" y="-83.5" font-family="Helvetica,sans-Serif" font-size="10.00">l4_msgtag_is_preemption</text>
</a>
</g>
</g>
<!-- Node1&#45;&gt;Node5 -->
<g id="edge4" class="edge">
<title>Node1&#45;&gt;Node5</title>
<path fill="none" stroke="midnightblue" d="M181.63,-98.15C171.28,-96.92 160.38,-95.63 149.71,-94.37"/>
<polygon fill="midnightblue" stroke="midnightblue" points="181.44,-101.65 191.78,-99.35 182.26,-94.7 181.44,-101.65"/>
</g>
<!-- Node6 -->
<g id="node6" class="node">
<title>Node6</title>
<g id="a_node6"><a xlink:href="group__l4__msgtag__api.html#ga047100a8ec6216015fbd1385f5443760" target="_top" xlink:title="Test for sigma0 protocol.">
<polygon fill="white" stroke="black" points="17,-38.5 17,-57.5 139,-57.5 139,-38.5 17,-38.5"/>
<text text-anchor="middle" x="78" y="-45.5" font-family="Helvetica,sans-Serif" font-size="10.00">l4_msgtag_is_sigma0</text>
</a>
</g>
</g>
<!-- Node1&#45;&gt;Node6 -->
<g id="edge5" class="edge">
<title>Node1&#45;&gt;Node6</title>
<path fill="none" stroke="midnightblue" d="M211.7,-90.78C195.71,-83 175.06,-73.63 156,-67 145.73,-63.43 134.46,-60.25 123.79,-57.57"/>
<polygon fill="midnightblue" stroke="midnightblue" points="210.49,-94.09 221,-95.38 213.59,-87.81 210.49,-94.09"/>
</g>
<!-- Node7 -->
<g id="node7" class="node">
<title>Node7</title>
<g id="a_node7"><a xlink:href="group__l4__msgtag__api.html#gafc73bad60b56767f6eb04cf4b71838ee" target="_top" xlink:title="Test for system&#45;exception protocol.">
<polygon fill="white" stroke="black" points="0,-0.5 0,-19.5 156,-19.5 156,-0.5 0,-0.5"/>
<text text-anchor="middle" x="78" y="-7.5" font-family="Helvetica,sans-Serif" font-size="10.00">l4_msgtag_is_sys_exception</text>
</a>
</g>
</g>
<!-- Node1&#45;&gt;Node7 -->
<g id="edge6" class="edge">
<title>Node1&#45;&gt;Node7</title>
<path fill="none" stroke="midnightblue" d="M225.2,-87.69C209.87,-70.27 183.94,-43.91 156,-29 148.71,-25.11 140.61,-22 132.48,-19.52"/>
<polygon fill="midnightblue" stroke="midnightblue" points="222.67,-90.12 231.84,-95.43 227.99,-85.56 222.67,-90.12"/>
</g>
</g>
</svg>
