<?xml version="1.0" encoding="UTF-8" standalone="no"?>
<!DOCTYPE svg PUBLIC "-//W3C//DTD SVG 1.1//EN"
 "http://www.w3.org/Graphics/SVG/1.1/DTD/svg11.dtd">
<!-- Generated by graphviz version 2.43.0 (0)
 -->
<!-- Title: l4_thread_ex_regs_u Pages: 1 -->
<svg width="273pt" height="66pt"
 viewBox="0.00 0.00 273.00 66.00" xmlns="http://www.w3.org/2000/svg" xmlns:xlink="http://www.w3.org/1999/xlink">
<g id="graph0" class="graph" transform="scale(1 1) rotate(0) translate(4 62)">
<title>l4_thread_ex_regs_u</title>
<polygon fill="white" stroke="transparent" points="-4,4 -4,-62 269,-62 269,4 -4,4"/>
<!-- Node1 -->
<g id="node1" class="node">
<title>Node1</title>
<g id="a_node1"><a xlink:title="Exchange basic thread registers.">
<polygon fill="#bfbfbf" stroke="black" points="148,-19.5 148,-38.5 265,-38.5 265,-19.5 148,-19.5"/>
<text text-anchor="middle" x="206.5" y="-26.5" font-family="Helvetica,sans-Serif" font-size="10.00">l4_thread_ex_regs_u</text>
</a>
</g>
</g>
<!-- Node2 -->
<g id="node2" class="node">
<title>Node2</title>
<g id="a_node2"><a xlink:href="classL4_1_1Thread.html#aacd56bbf983577cfc591f21fd511d3b6" target="_top" xlink:title="Exchange basic thread registers.">
<polygon fill="white" stroke="black" points="0,-38.5 0,-57.5 112,-57.5 112,-38.5 0,-38.5"/>
<text text-anchor="middle" x="56" y="-45.5" font-family="Helvetica,sans-Serif" font-size="10.00">L4::Thread::ex_regs</text>
</a>
</g>
</g>
<!-- Node1&#45;&gt;Node2 -->
<g id="edge1" class="edge">
<title>Node1&#45;&gt;Node2</title>
<path fill="none" stroke="midnightblue" d="M137.66,-37.68C129.07,-38.78 120.36,-39.89 112.01,-40.96"/>
<polygon fill="midnightblue" stroke="midnightblue" points="138.19,-41.14 147.66,-36.4 137.3,-34.2 138.19,-41.14"/>
</g>
<!-- Node3 -->
<g id="node3" class="node">
<title>Node3</title>
<g id="a_node3"><a xlink:href="group__l4__thread__api.html#ga1ea29499c679caeae810516d16f4347c" target="_top" xlink:title="Exchange basic thread registers.">
<polygon fill="white" stroke="black" points="3,-0.5 3,-19.5 109,-19.5 109,-0.5 3,-0.5"/>
<text text-anchor="middle" x="56" y="-7.5" font-family="Helvetica,sans-Serif" font-size="10.00">l4_thread_ex_regs</text>
</a>
</g>
</g>
<!-- Node1&#45;&gt;Node3 -->
<g id="edge2" class="edge">
<title>Node1&#45;&gt;Node3</title>
<path fill="none" stroke="midnightblue" d="M137.73,-20.33C128.12,-19.1 118.36,-17.85 109.11,-16.67"/>
<polygon fill="midnightblue" stroke="midnightblue" points="137.3,-23.8 147.66,-21.6 138.19,-16.86 137.3,-23.8"/>
</g>
</g>
</svg>
