<?xml version="1.0" encoding="UTF-8" standalone="no"?>
<!DOCTYPE svg PUBLIC "-//W3C//DTD SVG 1.1//EN"
 "http://www.w3.org/Graphics/SVG/1.1/DTD/svg11.dtd">
<!-- Generated by graphviz version 2.43.0 (0)
 -->
<!-- Title: l4_thread_ex_regs_ret Pages: 1 -->
<svg width="305pt" height="66pt"
 viewBox="0.00 0.00 305.00 66.00" xmlns="http://www.w3.org/2000/svg" xmlns:xlink="http://www.w3.org/1999/xlink">
<g id="graph0" class="graph" transform="scale(1 1) rotate(0) translate(4 62)">
<title>l4_thread_ex_regs_ret</title>
<polygon fill="white" stroke="transparent" points="-4,4 -4,-62 301,-62 301,4 -4,4"/>
<!-- Node1 -->
<g id="node1" class="node">
<title>Node1</title>
<g id="a_node1"><a xlink:title="Exchange basic thread registers and return previous values.">
<polygon fill="#bfbfbf" stroke="black" points="0,-19.5 0,-38.5 125,-38.5 125,-19.5 0,-19.5"/>
<text text-anchor="middle" x="62.5" y="-26.5" font-family="Helvetica,sans-Serif" font-size="10.00">l4_thread_ex_regs_ret</text>
</a>
</g>
</g>
<!-- Node2 -->
<g id="node2" class="node">
<title>Node2</title>
<g id="a_node2"><a xlink:href="group__l4__thread__api.html#ga5e191cd9b1cbc5d0ac9166fb2bdd5a18" target="_top" xlink:title="Exchange basic thread registers and return previous values.">
<polygon fill="white" stroke="black" points="161,-38.5 161,-57.5 297,-57.5 297,-38.5 161,-38.5"/>
<text text-anchor="middle" x="229" y="-45.5" font-family="Helvetica,sans-Serif" font-size="10.00">l4_thread_ex_regs_ret_u</text>
</a>
</g>
</g>
<!-- Node1&#45;&gt;Node2 -->
<g id="edge1" class="edge">
<title>Node1&#45;&gt;Node2</title>
<path fill="none" stroke="midnightblue" d="M125.22,-36.13C133.61,-37.1 142.3,-38.1 150.92,-39.1"/>
<polygon fill="midnightblue" stroke="midnightblue" points="150.64,-42.59 160.97,-40.26 151.44,-35.63 150.64,-42.59"/>
</g>
<!-- Node3 -->
<g id="node3" class="node">
<title>Node3</title>
<g id="a_node3"><a xlink:href="group__l4__utcb__api.html#gadc099b4a59e1d99638c72c11a8c8b644" target="_top" xlink:title="Get the UTCB address.">
<polygon fill="white" stroke="black" points="203,-0.5 203,-19.5 255,-19.5 255,-0.5 203,-0.5"/>
<text text-anchor="middle" x="229" y="-7.5" font-family="Helvetica,sans-Serif" font-size="10.00">l4_utcb</text>
</a>
</g>
</g>
<!-- Node1&#45;&gt;Node3 -->
<g id="edge2" class="edge">
<title>Node1&#45;&gt;Node3</title>
<path fill="none" stroke="midnightblue" d="M125.22,-21.87C148.1,-19.23 173.23,-16.33 192.92,-14.05"/>
<polygon fill="midnightblue" stroke="midnightblue" points="193.43,-17.52 202.97,-12.89 192.63,-10.56 193.43,-17.52"/>
</g>
</g>
</svg>
