<?xml version="1.0" encoding="UTF-8" standalone="no"?>
<!DOCTYPE svg PUBLIC "-//W3C//DTD SVG 1.1//EN"
 "http://www.w3.org/Graphics/SVG/1.1/DTD/svg11.dtd">
<!-- Generated by graphviz version 2.43.0 (0)
 -->
<!-- Title: l4vcpu_irq_restore Pages: 1 -->
<svg width="357pt" height="66pt"
 viewBox="0.00 0.00 357.00 66.00" xmlns="http://www.w3.org/2000/svg" xmlns:xlink="http://www.w3.org/1999/xlink">
<g id="graph0" class="graph" transform="scale(1 1) rotate(0) translate(4 62)">
<title>l4vcpu_irq_restore</title>
<polygon fill="white" stroke="transparent" points="-4,4 -4,-62 353,-62 353,4 -4,4"/>
<!-- Node1 -->
<g id="node1" class="node">
<title>Node1</title>
<g id="a_node1"><a xlink:title="Restore a previously saved IRQ/event state.">
<polygon fill="#bfbfbf" stroke="black" points="0,-19.5 0,-38.5 107,-38.5 107,-19.5 0,-19.5"/>
<text text-anchor="middle" x="53.5" y="-26.5" font-family="Helvetica,sans-Serif" font-size="10.00">l4vcpu_irq_restore</text>
</a>
</g>
</g>
<!-- Node2 -->
<g id="node2" class="node">
<title>Node2</title>
<g id="a_node2"><a xlink:href="group__api__libvcpu.html#gac8dd177f5382328e3922754cc9d36b28" target="_top" xlink:title="Disable a vCPU for event delivery.">
<polygon fill="white" stroke="black" points="143,-38.5 143,-57.5 250,-57.5 250,-38.5 143,-38.5"/>
<text text-anchor="middle" x="196.5" y="-45.5" font-family="Helvetica,sans-Serif" font-size="10.00">l4vcpu_irq_disable</text>
</a>
</g>
</g>
<!-- Node1&#45;&gt;Node2 -->
<g id="edge1" class="edge">
<title>Node1&#45;&gt;Node2</title>
<path fill="none" stroke="midnightblue" d="M107,-36.07C115.44,-37.21 124.26,-38.4 132.9,-39.57"/>
<polygon fill="midnightblue" stroke="midnightblue" points="132.58,-43.05 142.95,-40.92 133.51,-36.12 132.58,-43.05"/>
</g>
<!-- Node4 -->
<g id="node4" class="node">
<title>Node4</title>
<g id="a_node4"><a xlink:href="group__api__libvcpu.html#ga58a61ec0b02bed0a03f708e1594cf8a5" target="_top" xlink:title="Enable a vCPU for event delivery.">
<polygon fill="white" stroke="black" points="144,-0.5 144,-19.5 249,-19.5 249,-0.5 144,-0.5"/>
<text text-anchor="middle" x="196.5" y="-7.5" font-family="Helvetica,sans-Serif" font-size="10.00">l4vcpu_irq_enable</text>
</a>
</g>
</g>
<!-- Node1&#45;&gt;Node4 -->
<g id="edge3" class="edge">
<title>Node1&#45;&gt;Node4</title>
<path fill="none" stroke="midnightblue" d="M107,-21.93C115.76,-20.74 124.92,-19.51 133.89,-18.3"/>
<polygon fill="midnightblue" stroke="midnightblue" points="134.45,-21.76 143.89,-16.95 133.51,-14.82 134.45,-21.76"/>
</g>
<!-- Node3 -->
<g id="node3" class="node">
<title>Node3</title>
<g id="a_node3"><a xlink:href="compiler_8h.html#a4accdcabe8bddb4964f8986855e7c728" target="_top" xlink:title="Memory barrier.">
<polygon fill="white" stroke="black" points="286,-19.5 286,-38.5 349,-38.5 349,-19.5 286,-19.5"/>
<text text-anchor="middle" x="317.5" y="-26.5" font-family="Helvetica,sans-Serif" font-size="10.00">l4_barrier</text>
</a>
</g>
</g>
<!-- Node2&#45;&gt;Node3 -->
<g id="edge2" class="edge">
<title>Node2&#45;&gt;Node3</title>
<path fill="none" stroke="midnightblue" d="M250.04,-39.61C258.62,-38.24 267.4,-36.84 275.64,-35.52"/>
<polygon fill="midnightblue" stroke="midnightblue" points="276.43,-38.94 285.75,-33.91 275.32,-32.03 276.43,-38.94"/>
</g>
<!-- Node4&#45;&gt;Node3 -->
<g id="edge4" class="edge">
<title>Node4&#45;&gt;Node3</title>
<path fill="none" stroke="midnightblue" d="M249,-18.22C257.93,-19.65 267.11,-21.11 275.71,-22.49"/>
<polygon fill="midnightblue" stroke="midnightblue" points="275.42,-25.99 285.85,-24.11 276.53,-19.07 275.42,-25.99"/>
</g>
</g>
</svg>
