<?xml version="1.0" encoding="UTF-8" standalone="no"?>
<!DOCTYPE svg PUBLIC "-//W3C//DTD SVG 1.1//EN"
 "http://www.w3.org/Graphics/SVG/1.1/DTD/svg11.dtd">
<!-- Generated by graphviz version 2.43.0 (0)
 -->
<!-- Title: Fiasco extensions Pages: 1 -->
<svg width="393pt" height="76pt"
 viewBox="0.00 0.00 393.00 75.50" xmlns="http://www.w3.org/2000/svg" xmlns:xlink="http://www.w3.org/1999/xlink">
<g id="graph0" class="graph" transform="scale(1 1) rotate(0) translate(4 71.5)">
<title>Fiasco extensions</title>
<polygon fill="white" stroke="transparent" points="-4,4 -4,-71.5 389,-71.5 389,4 -4,4"/>
<!-- Node3 -->
<g id="node1" class="node">
<title>Node3</title>
<g id="a_node1"><a xlink:href="group__api__calls__rt__sched.html" target="_top" xlink:title="Real time scheduling extension for the Fiasco L4 implementation.">
<polygon fill="white" stroke="black" points="385,-67.5 235,-67.5 235,-37.5 385,-37.5 385,-67.5"/>
<text text-anchor="start" x="243" y="-55.5" font-family="Helvetica,sans-Serif" font-size="10.00">Fiasco real time scheduling</text>
<text text-anchor="middle" x="310" y="-44.5" font-family="Helvetica,sans-Serif" font-size="10.00"> extensions</text>
</a>
</g>
</g>
<!-- Node2 -->
<g id="node2" class="node">
<title>Node2</title>
<g id="a_node2"><a xlink:href="group__l4__api.html" target="_top" xlink:title="Interfaces for all kinds of base functionality.">
<polygon fill="white" stroke="black" points="59,-40 0,-40 0,-21 59,-21 59,-40"/>
<text text-anchor="middle" x="29.5" y="-28" font-family="Helvetica,sans-Serif" font-size="10.00">Base API</text>
</a>
</g>
</g>
<!-- Node1 -->
<g id="node3" class="node">
<title>Node1</title>
<g id="a_node3"><a xlink:title="Kernel debugger extensions of the Fiasco L4 implementation.">
<polygon fill="#bfbfbf" stroke="black" points="199,-40 95,-40 95,-21 199,-21 199,-40"/>
<text text-anchor="middle" x="147" y="-28" font-family="Helvetica,sans-Serif" font-size="10.00">Fiasco extensions</text>
</a>
</g>
</g>
<!-- Node2&#45;&gt;Node1 -->
<g id="edge1" class="edge">
<title>Node2&#45;&gt;Node1</title>
<path fill="none" stroke="black" d="M69.12,-30.5C77.36,-30.5 86.2,-30.5 94.83,-30.5"/>
<polygon fill="black" stroke="black" points="69.05,-27 59.05,-30.5 69.05,-34 69.05,-27"/>
</g>
<!-- Node1&#45;&gt;Node3 -->
<g id="edge2" class="edge">
<title>Node1&#45;&gt;Node3</title>
<path fill="none" stroke="black" d="M209.4,-38.89C217.74,-40.03 226.38,-41.21 234.93,-42.38"/>
<polygon fill="black" stroke="black" points="209.77,-35.41 199.38,-37.52 208.82,-42.34 209.77,-35.41"/>
</g>
<!-- Node4 -->
<g id="node4" class="node">
<title>Node4</title>
<g id="a_node4"><a xlink:href="group__l4__debugger__api.html" target="_top" xlink:title="Kernel debugger related functionality.">
<polygon fill="white" stroke="black" points="359,-19 261,-19 261,0 359,0 359,-19"/>
<text text-anchor="middle" x="310" y="-7" font-family="Helvetica,sans-Serif" font-size="10.00">Kernel Debugger</text>
</a>
</g>
</g>
<!-- Node1&#45;&gt;Node4 -->
<g id="edge3" class="edge">
<title>Node1&#45;&gt;Node4</title>
<path fill="none" stroke="black" d="M209.75,-22.45C226.68,-20.24 244.79,-17.88 260.84,-15.78"/>
<polygon fill="black" stroke="black" points="208.85,-19.03 199.38,-23.8 209.75,-25.97 208.85,-19.03"/>
</g>
</g>
</svg>
