<?xml version="1.0" encoding="UTF-8" standalone="no"?>
<!DOCTYPE svg PUBLIC "-//W3C//DTD SVG 1.1//EN"
 "http://www.w3.org/Graphics/SVG/1.1/DTD/svg11.dtd">
<!-- Generated by graphviz version 2.43.0 (0)
 -->
<!-- Title: l4_is_valid_cap Pages: 1 -->
<svg width="422pt" height="112pt"
 viewBox="0.00 0.00 422.00 112.00" xmlns="http://www.w3.org/2000/svg" xmlns:xlink="http://www.w3.org/1999/xlink">
<g id="graph0" class="graph" transform="scale(1 1) rotate(0) translate(4 108)">
<title>l4_is_valid_cap</title>
<polygon fill="white" stroke="transparent" points="-4,4 -4,-108 418,-108 418,4 -4,4"/>
<!-- Node1 -->
<g id="node1" class="node">
<title>Node1</title>
<g id="a_node1"><a xlink:title="Test if a capability selector is a valid selector.">
<polygon fill="#bfbfbf" stroke="black" points="323,-54 323,-73 414,-73 414,-54 323,-54"/>
<text text-anchor="middle" x="368.5" y="-61" font-family="Helvetica,sans-Serif" font-size="10.00">l4_is_valid_cap</text>
</a>
</g>
</g>
<!-- Node2 -->
<g id="node2" class="node">
<title>Node2</title>
<g id="a_node2"><a xlink:href="classL4Re_1_1Util_1_1Cap__alloc__base.html#afe4cbd695e9050e2827d17e7e960e67d" target="_top" xlink:title="Free a capability slot.">
<polygon fill="white" stroke="black" points="170,-73.5 170,-103.5 287,-103.5 287,-73.5 170,-73.5"/>
<text text-anchor="start" x="178" y="-91.5" font-family="Helvetica,sans-Serif" font-size="10.00">L4Re::Util::Cap_alloc</text>
<text text-anchor="middle" x="228.5" y="-80.5" font-family="Helvetica,sans-Serif" font-size="10.00">_base::free</text>
</a>
</g>
</g>
<!-- Node1&#45;&gt;Node2 -->
<g id="edge1" class="edge">
<title>Node1&#45;&gt;Node2</title>
<path fill="none" stroke="midnightblue" d="M312.65,-73.44C304.27,-74.95 295.6,-76.53 287.16,-78.05"/>
<polygon fill="midnightblue" stroke="midnightblue" points="313.48,-76.84 322.7,-71.62 312.23,-69.96 313.48,-76.84"/>
</g>
<!-- Node3 -->
<g id="node3" class="node">
<title>Node3</title>
<g id="a_node3"><a xlink:href="classL4Re_1_1Util_1_1Counting__cap__alloc.html#a4f65c951a2cc3aae899c67e1ef325a8a" target="_top" xlink:title="Free the capability.">
<polygon fill="white" stroke="black" points="172,-24.5 172,-54.5 285,-54.5 285,-24.5 172,-24.5"/>
<text text-anchor="start" x="180" y="-42.5" font-family="Helvetica,sans-Serif" font-size="10.00">L4Re::Util::Counting</text>
<text text-anchor="middle" x="228.5" y="-31.5" font-family="Helvetica,sans-Serif" font-size="10.00">_cap_alloc::free</text>
</a>
</g>
</g>
<!-- Node1&#45;&gt;Node3 -->
<g id="edge2" class="edge">
<title>Node1&#45;&gt;Node3</title>
<path fill="none" stroke="midnightblue" d="M312.67,-53.96C303.63,-52.39 294.25,-50.76 285.19,-49.18"/>
<polygon fill="midnightblue" stroke="midnightblue" points="312.24,-57.44 322.7,-55.71 313.44,-50.55 312.24,-57.44"/>
</g>
<!-- Node4 -->
<g id="node4" class="node">
<title>Node4</title>
<g id="a_node4"><a xlink:href="classL4Re_1_1Util_1_1Smart__cap__auto.html#a4dfba4f2c4731689f1a53992c83371a6" target="_top" xlink:title="Free operation for L4::Smart_cap.">
<polygon fill="white" stroke="black" points="6,-49.5 6,-79.5 128,-79.5 128,-49.5 6,-49.5"/>
<text text-anchor="start" x="14" y="-67.5" font-family="Helvetica,sans-Serif" font-size="10.00">L4Re::Util::Smart_cap</text>
<text text-anchor="middle" x="67" y="-56.5" font-family="Helvetica,sans-Serif" font-size="10.00">_auto::free</text>
</a>
</g>
</g>
<!-- Node3&#45;&gt;Node4 -->
<g id="edge3" class="edge">
<title>Node3&#45;&gt;Node4</title>
<path fill="none" stroke="midnightblue" d="M161.64,-49.82C150.53,-51.56 139.05,-53.36 128.1,-55.08"/>
<polygon fill="midnightblue" stroke="midnightblue" points="162.38,-53.25 171.71,-48.24 161.29,-46.33 162.38,-53.25"/>
</g>
<!-- Node5 -->
<g id="node5" class="node">
<title>Node5</title>
<g id="a_node5"><a xlink:href="classL4Re_1_1Util_1_1Object__registry.html#aeeea59583ffddfef4e7c1c3e6eed41b6" target="_top" xlink:title="Remove a server object from the handler list.">
<polygon fill="white" stroke="black" points="0,-0.5 0,-30.5 134,-30.5 134,-0.5 0,-0.5"/>
<text text-anchor="start" x="8" y="-18.5" font-family="Helvetica,sans-Serif" font-size="10.00">L4Re::Util::Object</text>
<text text-anchor="middle" x="67" y="-7.5" font-family="Helvetica,sans-Serif" font-size="10.00">_registry::unregister_obj</text>
</a>
</g>
</g>
<!-- Node3&#45;&gt;Node5 -->
<g id="edge4" class="edge">
<title>Node3&#45;&gt;Node5</title>
<path fill="none" stroke="midnightblue" d="M161.61,-29.59C152.54,-28.22 143.23,-26.82 134.16,-25.46"/>
<polygon fill="midnightblue" stroke="midnightblue" points="161.31,-33.08 171.71,-31.11 162.35,-26.16 161.31,-33.08"/>
</g>
</g>
</svg>
