<?xml version="1.0" encoding="UTF-8" standalone="no"?>
<!DOCTYPE svg PUBLIC "-//W3C//DTD SVG 1.1//EN"
 "http://www.w3.org/Graphics/SVG/1.1/DTD/svg11.dtd">
<!-- Generated by graphviz version 2.43.0 (0)
 -->
<!-- Title: l4_msgtag Pages: 1 -->
<svg width="563pt" height="241pt"
 viewBox="0.00 0.00 563.00 240.50" xmlns="http://www.w3.org/2000/svg" xmlns:xlink="http://www.w3.org/1999/xlink">
<g id="graph0" class="graph" transform="scale(1 1) rotate(0) translate(4 236.5)">
<title>l4_msgtag</title>
<polygon fill="white" stroke="transparent" points="-4,4 -4,-236.5 559,-236.5 559,4 -4,4"/>
<!-- Node1 -->
<g id="node1" class="node">
<title>Node1</title>
<g id="a_node1"><a xlink:title="Create a message tag from the specified values.">
<polygon fill="#bfbfbf" stroke="black" points="487,-118 487,-137 555,-137 555,-118 487,-118"/>
<text text-anchor="middle" x="521" y="-125" font-family="Helvetica,sans-Serif" font-size="10.00">l4_msgtag</text>
</a>
</g>
</g>
<!-- Node2 -->
<g id="node2" class="node">
<title>Node2</title>
<g id="a_node2"><a xlink:href="structL4_1_1Irqep__t.html#acde9b9d1d25df85492715b6373fc7c7f" target="_top" xlink:title="The abstract handler for client requests to the object.">
<polygon fill="white" stroke="black" points="324.5,-213 324.5,-232 439.5,-232 439.5,-213 324.5,-213"/>
<text text-anchor="middle" x="382" y="-220" font-family="Helvetica,sans-Serif" font-size="10.00">L4::Irqep_t::dispatch</text>
</a>
</g>
</g>
<!-- Node1&#45;&gt;Node2 -->
<g id="edge1" class="edge">
<title>Node1&#45;&gt;Node2</title>
<path fill="none" stroke="midnightblue" d="M508.09,-145.68C495.79,-163.02 475.05,-188.65 451,-203.5 444.74,-207.36 437.68,-210.46 430.54,-212.94"/>
<polygon fill="midnightblue" stroke="midnightblue" points="511.26,-147.24 514.02,-137.01 505.48,-143.29 511.26,-147.24"/>
</g>
<!-- Node3 -->
<g id="node3" class="node">
<title>Node3</title>
<g id="a_node3"><a xlink:href="classL4_1_1Server.html#ac0965dc536f1df5dfe0be1b224feab89" target="_top" xlink:title="The server loop.">
<polygon fill="white" stroke="black" points="314.5,-175 314.5,-194 449.5,-194 449.5,-175 314.5,-175"/>
<text text-anchor="middle" x="382" y="-182" font-family="Helvetica,sans-Serif" font-size="10.00">L4::Server::internal_loop</text>
</a>
</g>
</g>
<!-- Node1&#45;&gt;Node3 -->
<g id="edge2" class="edge">
<title>Node1&#45;&gt;Node3</title>
<path fill="none" stroke="midnightblue" d="M496.13,-142.44C483.14,-150.1 466.59,-159.13 451,-165.5 442.15,-169.12 432.38,-172.29 423.07,-174.96"/>
<polygon fill="midnightblue" stroke="midnightblue" points="498.13,-145.32 504.89,-137.16 494.51,-139.32 498.13,-145.32"/>
</g>
<!-- Node6 -->
<g id="node6" class="node">
<title>Node6</title>
<g id="a_node6"><a xlink:href="group__l4__irq__api.html#ga180cfaf342ce9ff484a6aa7c276e1597" target="_top" xlink:title="Trigger.">
<polygon fill="white" stroke="black" points="336,-137 336,-156 428,-156 428,-137 336,-137"/>
<text text-anchor="middle" x="382" y="-144" font-family="Helvetica,sans-Serif" font-size="10.00">l4_irq_trigger_u</text>
</a>
</g>
</g>
<!-- Node1&#45;&gt;Node6 -->
<g id="edge5" class="edge">
<title>Node1&#45;&gt;Node6</title>
<path fill="none" stroke="midnightblue" d="M476.49,-133.53C461.03,-135.68 443.61,-138.09 428.02,-140.26"/>
<polygon fill="midnightblue" stroke="midnightblue" points="477.41,-136.94 486.84,-132.1 476.45,-130.01 477.41,-136.94"/>
</g>
<!-- Node10 -->
<g id="node10" class="node">
<title>Node10</title>
<g id="a_node10"><a xlink:href="x86_2l4f_2l4_2util_2port__io_8h.html#a38a37fdbed4dd2dca75ce192d506a2d4" target="_top" xlink:title="Map a range of I/O ports.">
<polygon fill="white" stroke="black" points="331,-99 331,-118 433,-118 433,-99 331,-99"/>
<text text-anchor="middle" x="382" y="-106" font-family="Helvetica,sans-Serif" font-size="10.00">l4util_ioport_map</text>
</a>
</g>
</g>
<!-- Node1&#45;&gt;Node10 -->
<g id="edge9" class="edge">
<title>Node1&#45;&gt;Node10</title>
<path fill="none" stroke="midnightblue" d="M476.64,-121.49C462.85,-119.57 447.48,-117.44 433.24,-115.47"/>
<polygon fill="midnightblue" stroke="midnightblue" points="476.45,-124.99 486.84,-122.9 477.41,-118.06 476.45,-124.99"/>
</g>
<!-- Node11 -->
<g id="node11" class="node">
<title>Node11</title>
<g id="a_node11"><a xlink:href="classL4_1_1Thread.html#a9bcade7e8db8d775cc1f2a2a6225c845" target="_top" xlink:title="Apply sender modification rules.">
<polygon fill="white" stroke="black" points="328.5,-49.5 328.5,-79.5 435.5,-79.5 435.5,-49.5 328.5,-49.5"/>
<text text-anchor="start" x="336.5" y="-67.5" font-family="Helvetica,sans-Serif" font-size="10.00">L4::Thread::modify</text>
<text text-anchor="middle" x="382" y="-56.5" font-family="Helvetica,sans-Serif" font-size="10.00">_senders</text>
</a>
</g>
</g>
<!-- Node1&#45;&gt;Node11 -->
<g id="edge10" class="edge">
<title>Node1&#45;&gt;Node11</title>
<path fill="none" stroke="midnightblue" d="M495.4,-112.76C482.43,-105.31 466.12,-96.39 451,-89.5 443.33,-86 435.02,-82.62 426.93,-79.54"/>
<polygon fill="midnightblue" stroke="midnightblue" points="493.78,-115.87 504.18,-117.89 497.31,-109.83 493.78,-115.87"/>
</g>
<!-- Node13 -->
<g id="node13" class="node">
<title>Node13</title>
<g id="a_node13"><a xlink:href="structL4_1_1Ipc__svr_1_1Exc__dispatch.html#a551ccfbe372009fa7319689dedfc4ded" target="_top" xlink:title="Dispatch the call via Direct_dispatch&lt;R&gt;() and handle exceptions.">
<polygon fill="white" stroke="black" points="313,-0.5 313,-30.5 451,-30.5 451,-0.5 313,-0.5"/>
<text text-anchor="start" x="321" y="-18.5" font-family="Helvetica,sans-Serif" font-size="10.00">L4::Ipc_svr::Exc_dispatch</text>
<text text-anchor="middle" x="382" y="-7.5" font-family="Helvetica,sans-Serif" font-size="10.00">::operator()</text>
</a>
</g>
</g>
<!-- Node1&#45;&gt;Node13 -->
<g id="edge12" class="edge">
<title>Node1&#45;&gt;Node13</title>
<path fill="none" stroke="midnightblue" d="M509.91,-109.13C498.17,-89.34 477.02,-58.18 451,-39.5 446.22,-36.07 440.9,-33.09 435.41,-30.51"/>
<polygon fill="midnightblue" stroke="midnightblue" points="506.88,-110.89 514.9,-117.83 512.96,-107.41 506.88,-110.89"/>
</g>
<!-- Node4 -->
<g id="node4" class="node">
<title>Node4</title>
<g id="a_node4"><a xlink:href="classL4_1_1Server.html#a5a7bc51a6e831afec522789beb7b71ef" target="_top" xlink:title="Server loop with internal exception handling.">
<polygon fill="white" stroke="black" points="164,-213 164,-232 256,-232 256,-213 164,-213"/>
<text text-anchor="middle" x="210" y="-220" font-family="Helvetica,sans-Serif" font-size="10.00">L4::Server::loop</text>
</a>
</g>
</g>
<!-- Node3&#45;&gt;Node4 -->
<g id="edge3" class="edge">
<title>Node3&#45;&gt;Node4</title>
<path fill="none" stroke="midnightblue" d="M328.1,-196.32C304.13,-201.68 276.18,-207.93 253.59,-212.98"/>
<polygon fill="midnightblue" stroke="midnightblue" points="329.11,-199.69 338.1,-194.09 327.58,-192.85 329.11,-199.69"/>
</g>
<!-- Node5 -->
<g id="node5" class="node">
<title>Node5</title>
<g id="a_node5"><a xlink:href="classL4_1_1Server.html#ad15a140307fcbc82b7d9dc9990000fbd" target="_top" xlink:title="Server loop without exception handling.">
<polygon fill="white" stroke="black" points="146.5,-175 146.5,-194 273.5,-194 273.5,-175 146.5,-175"/>
<text text-anchor="middle" x="210" y="-182" font-family="Helvetica,sans-Serif" font-size="10.00">L4::Server::loop_noexc</text>
</a>
</g>
</g>
<!-- Node3&#45;&gt;Node5 -->
<g id="edge4" class="edge">
<title>Node3&#45;&gt;Node5</title>
<path fill="none" stroke="midnightblue" d="M304.16,-184.5C293.94,-184.5 283.56,-184.5 273.62,-184.5"/>
<polygon fill="midnightblue" stroke="midnightblue" points="304.3,-188 314.3,-184.5 304.3,-181 304.3,-188"/>
</g>
<!-- Node7 -->
<g id="node7" class="node">
<title>Node7</title>
<g id="a_node7"><a xlink:href="group__l4__irq__api.html#gab24e0fc21a207fd566ece1e6fafbac48" target="_top" xlink:title="Trigger an IRQ.">
<polygon fill="white" stroke="black" points="169.5,-137 169.5,-156 250.5,-156 250.5,-137 169.5,-137"/>
<text text-anchor="middle" x="210" y="-144" font-family="Helvetica,sans-Serif" font-size="10.00">l4_irq_trigger</text>
</a>
</g>
</g>
<!-- Node6&#45;&gt;Node7 -->
<g id="edge6" class="edge">
<title>Node6&#45;&gt;Node7</title>
<path fill="none" stroke="midnightblue" d="M325.64,-146.5C301.13,-146.5 272.86,-146.5 250.53,-146.5"/>
<polygon fill="midnightblue" stroke="midnightblue" points="325.89,-150 335.89,-146.5 325.89,-143 325.89,-150"/>
</g>
<!-- Node8 -->
<g id="node8" class="node">
<title>Node8</title>
<g id="a_node8"><a xlink:href="structL4_1_1Triggerable.html#a7109ca8b4aeac0169639f973c91a3a6b" target="_top" xlink:title="Trigger.">
<polygon fill="white" stroke="black" points="147,-99 147,-118 273,-118 273,-99 147,-99"/>
<text text-anchor="middle" x="210" y="-106" font-family="Helvetica,sans-Serif" font-size="10.00">L4::Triggerable::trigger</text>
</a>
</g>
</g>
<!-- Node6&#45;&gt;Node8 -->
<g id="edge7" class="edge">
<title>Node6&#45;&gt;Node8</title>
<path fill="none" stroke="midnightblue" d="M328.1,-134.68C304.13,-129.32 276.18,-123.07 253.59,-118.02"/>
<polygon fill="midnightblue" stroke="midnightblue" points="327.58,-138.15 338.1,-136.91 329.11,-131.31 327.58,-138.15"/>
</g>
<!-- Node9 -->
<g id="node9" class="node">
<title>Node9</title>
<g id="a_node9"><a xlink:href="structL4_1_1Semaphore.html#a3de7e4e35ff4dadab9a26f3b87fb76bc" target="_top" xlink:title="Semaphore up operation (wrapper for trigger()).">
<polygon fill="white" stroke="black" points="0,-99 0,-118 107,-118 107,-99 0,-99"/>
<text text-anchor="middle" x="53.5" y="-106" font-family="Helvetica,sans-Serif" font-size="10.00">L4::Semaphore::up</text>
</a>
</g>
</g>
<!-- Node8&#45;&gt;Node9 -->
<g id="edge8" class="edge">
<title>Node8&#45;&gt;Node9</title>
<path fill="none" stroke="midnightblue" d="M136.41,-108.5C126.56,-108.5 116.62,-108.5 107.21,-108.5"/>
<polygon fill="midnightblue" stroke="midnightblue" points="136.6,-112 146.6,-108.5 136.6,-105 136.6,-112"/>
</g>
<!-- Node12 -->
<g id="node12" class="node">
<title>Node12</title>
<g id="a_node12"><a xlink:href="classL4Re_1_1Util_1_1Object__registry.html#aeeea59583ffddfef4e7c1c3e6eed41b6" target="_top" xlink:title="Remove a server object from the handler list.">
<polygon fill="white" stroke="black" points="143,-49.5 143,-79.5 277,-79.5 277,-49.5 143,-49.5"/>
<text text-anchor="start" x="151" y="-67.5" font-family="Helvetica,sans-Serif" font-size="10.00">L4Re::Util::Object</text>
<text text-anchor="middle" x="210" y="-56.5" font-family="Helvetica,sans-Serif" font-size="10.00">_registry::unregister_obj</text>
</a>
</g>
</g>
<!-- Node11&#45;&gt;Node12 -->
<g id="edge11" class="edge">
<title>Node11&#45;&gt;Node12</title>
<path fill="none" stroke="midnightblue" d="M318.08,-64.5C304.69,-64.5 290.52,-64.5 277.02,-64.5"/>
<polygon fill="midnightblue" stroke="midnightblue" points="318.14,-68 328.14,-64.5 318.14,-61 318.14,-68"/>
</g>
</g>
</svg>
