<?xml version="1.0" encoding="UTF-8" standalone="no"?>
<!DOCTYPE svg PUBLIC "-//W3C//DTD SVG 1.1//EN"
 "http://www.w3.org/Graphics/SVG/1.1/DTD/svg11.dtd">
<!-- Generated by graphviz version 2.43.0 (0)
 -->
<!-- Title: l4_vcon_read_u Pages: 1 -->
<svg width="222pt" height="66pt"
 viewBox="0.00 0.00 222.00 66.00" xmlns="http://www.w3.org/2000/svg" xmlns:xlink="http://www.w3.org/1999/xlink">
<g id="graph0" class="graph" transform="scale(1 1) rotate(0) translate(4 62)">
<title>l4_vcon_read_u</title>
<polygon fill="white" stroke="transparent" points="-4,4 -4,-62 218,-62 218,4 -4,4"/>
<!-- Node1 -->
<g id="node1" class="node">
<title>Node1</title>
<g id="a_node1"><a xlink:title="Read data from this virtual console.">
<polygon fill="#bfbfbf" stroke="black" points="122,-19.5 122,-38.5 214,-38.5 214,-19.5 122,-19.5"/>
<text text-anchor="middle" x="168" y="-26.5" font-family="Helvetica,sans-Serif" font-size="10.00">l4_vcon_read_u</text>
</a>
</g>
</g>
<!-- Node2 -->
<g id="node2" class="node">
<title>Node2</title>
<g id="a_node2"><a xlink:href="group__l4__vcon__api.html#ga6c775101d4cb0763e352ae9bb395a7a1" target="_top" xlink:title="Read data from virtual console.">
<polygon fill="white" stroke="black" points="2.5,-38.5 2.5,-57.5 83.5,-57.5 83.5,-38.5 2.5,-38.5"/>
<text text-anchor="middle" x="43" y="-45.5" font-family="Helvetica,sans-Serif" font-size="10.00">l4_vcon_read</text>
</a>
</g>
</g>
<!-- Node1&#45;&gt;Node2 -->
<g id="edge1" class="edge">
<title>Node1&#45;&gt;Node2</title>
<path fill="none" stroke="midnightblue" d="M111.79,-37.53C102.37,-38.98 92.74,-40.47 83.82,-41.85"/>
<polygon fill="midnightblue" stroke="midnightblue" points="112.55,-40.95 121.9,-35.97 111.48,-34.03 112.55,-40.95"/>
</g>
<!-- Node3 -->
<g id="node3" class="node">
<title>Node3</title>
<g id="a_node3"><a xlink:href="classL4_1_1Vcon.html#ac53da09bc3a23b5fd654def074175046" target="_top" xlink:title="Read data from this virtual console.">
<polygon fill="white" stroke="black" points="0,-0.5 0,-19.5 86,-19.5 86,-0.5 0,-0.5"/>
<text text-anchor="middle" x="43" y="-7.5" font-family="Helvetica,sans-Serif" font-size="10.00">L4::Vcon::read</text>
</a>
</g>
</g>
<!-- Node1&#45;&gt;Node3 -->
<g id="edge2" class="edge">
<title>Node1&#45;&gt;Node3</title>
<path fill="none" stroke="midnightblue" d="M111.9,-20.49C103.29,-19.16 94.5,-17.8 86.24,-16.52"/>
<polygon fill="midnightblue" stroke="midnightblue" points="111.48,-23.97 121.9,-22.03 112.55,-17.05 111.48,-23.97"/>
</g>
</g>
</svg>
