<?xml version="1.0" encoding="UTF-8" standalone="no"?>
<!DOCTYPE svg PUBLIC "-//W3C//DTD SVG 1.1//EN"
 "http://www.w3.org/Graphics/SVG/1.1/DTD/svg11.dtd">
<!-- Generated by graphviz version 2.43.0 (0)
 -->
<!-- Title: L4Re C++ Interface Pages: 1 -->
<svg width="292pt" height="483pt"
 viewBox="0.00 0.00 292.00 483.00" xmlns="http://www.w3.org/2000/svg" xmlns:xlink="http://www.w3.org/1999/xlink">
<g id="graph0" class="graph" transform="scale(1 1) rotate(0) translate(4 479)">
<title>L4Re C++ Interface</title>
<polygon fill="white" stroke="transparent" points="-4,4 -4,-479 288,-479 288,4 -4,4"/>
<!-- Node6 -->
<g id="node1" class="node">
<title>Node6</title>
<g id="a_node1"><a xlink:href="group__api__l4re__event.html" target="_top" xlink:title="Event API.">
<polygon fill="white" stroke="black" points="248,-475 185,-475 185,-456 248,-456 248,-475"/>
<text text-anchor="middle" x="216.5" y="-463" font-family="Helvetica,sans-Serif" font-size="10.00">Event API</text>
</a>
</g>
</g>
<!-- Node9 -->
<g id="node2" class="node">
<title>Node9</title>
<g id="a_node2"><a xlink:href="group__api__l4re__util.html" target="_top" xlink:title="Documentation of the L4 Runtime Environment utility functionality in C++.">
<polygon fill="white" stroke="black" points="283.5,-438 149.5,-438 149.5,-419 283.5,-419 283.5,-438"/>
<text text-anchor="middle" x="216.5" y="-426" font-family="Helvetica,sans-Serif" font-size="10.00">L4Re Util C++ Interface</text>
</a>
</g>
</g>
<!-- Node5 -->
<g id="node3" class="node">
<title>Node5</title>
<g id="a_node3"><a xlink:href="group__api__l4re__debug.html" target="_top" xlink:title="Debugging Interface.">
<polygon fill="white" stroke="black" points="260.5,-401 172.5,-401 172.5,-382 260.5,-382 260.5,-401"/>
<text text-anchor="middle" x="216.5" y="-389" font-family="Helvetica,sans-Serif" font-size="10.00">Debugging API</text>
</a>
</g>
</g>
<!-- Node4 -->
<g id="node4" class="node">
<title>Node4</title>
<g id="a_node4"><a xlink:href="group__api__l4re__console.html" target="_top" xlink:title="Console interface.">
<polygon fill="white" stroke="black" points="253.5,-364 179.5,-364 179.5,-345 253.5,-345 253.5,-364"/>
<text text-anchor="middle" x="216.5" y="-352" font-family="Helvetica,sans-Serif" font-size="10.00">Console API</text>
</a>
</g>
</g>
<!-- Node14 -->
<g id="node5" class="node">
<title>Node14</title>
<g id="a_node5"><a xlink:href="group__api__l4re__vbus.html" target="_top" xlink:title="C++ interface of the Vbus API.">
<polygon fill="white" stroke="black" points="246,-327 187,-327 187,-308 246,-308 246,-327"/>
<text text-anchor="middle" x="216.5" y="-315" font-family="Helvetica,sans-Serif" font-size="10.00">Vbus API</text>
</a>
</g>
</g>
<!-- Node8 -->
<g id="node6" class="node">
<title>Node8</title>
<g id="a_node6"><a xlink:href="group__api__l4re__protocols.html" target="_top" xlink:title="Fix L4Re Protocol Constants.">
<polygon fill="white" stroke="black" points="284,-290 149,-290 149,-271 284,-271 284,-290"/>
<text text-anchor="middle" x="216.5" y="-278" font-family="Helvetica,sans-Serif" font-size="10.00">L4Re Protocol identifiers</text>
</a>
</g>
</g>
<!-- Node11 -->
<g id="node7" class="node">
<title>Node11</title>
<g id="a_node7"><a xlink:href="group__api__l4re__namespace.html" target="_top" xlink:title="API for name spaces that store capabilities.">
<polygon fill="white" stroke="black" points="265,-253 168,-253 168,-234 265,-234 265,-253"/>
<text text-anchor="middle" x="216.5" y="-241" font-family="Helvetica,sans-Serif" font-size="10.00">Name&#45;space API</text>
</a>
</g>
</g>
<!-- Node10 -->
<g id="node8" class="node">
<title>Node10</title>
<g id="a_node8"><a xlink:href="group__api__l4re__log.html" target="_top" xlink:title="Interface for log output.">
<polygon fill="white" stroke="black" points="267,-216 166,-216 166,-197 267,-197 267,-216"/>
<text text-anchor="middle" x="216.5" y="-204" font-family="Helvetica,sans-Serif" font-size="10.00">Logging interface</text>
</a>
</g>
</g>
<!-- Node3 -->
<g id="node9" class="node">
<title>Node3</title>
<g id="a_node9"><a xlink:href="group__l4cxx__exceptions.html" target="_top" xlink:title=" ">
<polygon fill="white" stroke="black" points="264.5,-179 168.5,-179 168.5,-160 264.5,-160 264.5,-179"/>
<text text-anchor="middle" x="216.5" y="-167" font-family="Helvetica,sans-Serif" font-size="10.00">C++ Exceptions</text>
</a>
</g>
</g>
<!-- Node13 -->
<g id="node10" class="node">
<title>Node13</title>
<g id="a_node10"><a xlink:href="group__api__l4re__rm.html" target="_top" xlink:title="Virtual address&#45;space management.">
<polygon fill="white" stroke="black" points="263.5,-142 169.5,-142 169.5,-123 263.5,-123 263.5,-142"/>
<text text-anchor="middle" x="216.5" y="-130" font-family="Helvetica,sans-Serif" font-size="10.00">Region map API</text>
</a>
</g>
</g>
<!-- Node1 -->
<g id="node11" class="node">
<title>Node1</title>
<g id="a_node11"><a xlink:title="Documentation of the L4 Runtime Environment C++ API.">
<polygon fill="#bfbfbf" stroke="black" points="113,-253 0,-253 0,-234 113,-234 113,-253"/>
<text text-anchor="middle" x="56.5" y="-241" font-family="Helvetica,sans-Serif" font-size="10.00">L4Re C++ Interface</text>
</a>
</g>
</g>
<!-- Node1&#45;&gt;Node6 -->
<g id="edge5" class="edge">
<title>Node1&#45;&gt;Node6</title>
<path fill="none" stroke="black" d="M60.63,-263.4C68.12,-304.26 90.99,-397.96 149,-447.5 158.91,-455.97 172.44,-460.49 184.71,-462.89"/>
<polygon fill="black" stroke="black" points="64.05,-262.62 58.91,-253.35 57.15,-263.8 64.05,-262.62"/>
</g>
<!-- Node1&#45;&gt;Node9 -->
<g id="edge8" class="edge">
<title>Node1&#45;&gt;Node9</title>
<path fill="none" stroke="black" d="M62.7,-263.11C73.04,-298.17 99.54,-371.56 149,-410.5 153.32,-413.9 158.24,-416.66 163.4,-418.91"/>
<polygon fill="black" stroke="black" points="65.98,-261.85 59.91,-253.17 59.25,-263.74 65.98,-261.85"/>
</g>
<!-- Node1&#45;&gt;Node5 -->
<g id="edge4" class="edge">
<title>Node1&#45;&gt;Node5</title>
<path fill="none" stroke="black" d="M65.58,-262.31C78.78,-290.8 107.72,-344.6 149,-373.5 155.96,-378.37 164.17,-381.92 172.41,-384.52"/>
<polygon fill="black" stroke="black" points="68.71,-260.75 61.43,-253.06 62.32,-263.62 68.71,-260.75"/>
</g>
<!-- Node1&#45;&gt;Node4 -->
<g id="edge3" class="edge">
<title>Node1&#45;&gt;Node4</title>
<path fill="none" stroke="black" d="M70.11,-261.12C86.1,-282.18 115.63,-317 149,-336.5 158.19,-341.87 169.03,-345.68 179.26,-348.37"/>
<polygon fill="black" stroke="black" points="72.88,-258.98 64.11,-253.03 67.25,-263.15 72.88,-258.98"/>
</g>
<!-- Node1&#45;&gt;Node14 -->
<g id="edge13" class="edge">
<title>Node1&#45;&gt;Node14</title>
<path fill="none" stroke="black" d="M79.04,-259.12C97,-271.54 123.66,-288.58 149,-299.5 160.97,-304.66 174.81,-308.69 186.74,-311.61"/>
<polygon fill="black" stroke="black" points="80.68,-256 70.49,-253.11 76.65,-261.73 80.68,-256"/>
</g>
<!-- Node1&#45;&gt;Node8 -->
<g id="edge7" class="edge">
<title>Node1&#45;&gt;Node8</title>
<path fill="none" stroke="black" d="M108.13,-255.36C129.63,-260.39 154.37,-266.18 174.67,-270.94"/>
<polygon fill="black" stroke="black" points="108.72,-251.9 98.19,-253.03 107.13,-258.72 108.72,-251.9"/>
</g>
<!-- Node1&#45;&gt;Node11 -->
<g id="edge10" class="edge">
<title>Node1&#45;&gt;Node11</title>
<path fill="none" stroke="black" d="M123.41,-243.5C138.33,-243.5 153.89,-243.5 167.89,-243.5"/>
<polygon fill="black" stroke="black" points="123.2,-240 113.2,-243.5 123.2,-247 123.2,-240"/>
</g>
<!-- Node1&#45;&gt;Node10 -->
<g id="edge9" class="edge">
<title>Node1&#45;&gt;Node10</title>
<path fill="none" stroke="black" d="M108.13,-231.64C129.63,-226.61 154.37,-220.82 174.67,-216.06"/>
<polygon fill="black" stroke="black" points="107.13,-228.28 98.19,-233.97 108.72,-235.1 107.13,-228.28"/>
</g>
<!-- Node1&#45;&gt;Node3 -->
<g id="edge2" class="edge">
<title>Node1&#45;&gt;Node3</title>
<path fill="none" stroke="black" d="M79.43,-228.06C97.43,-215.95 123.96,-199.38 149,-188.5 157.37,-184.86 166.63,-181.71 175.52,-179.08"/>
<polygon fill="black" stroke="black" points="77.12,-225.4 70.84,-233.93 81.07,-231.18 77.12,-225.4"/>
</g>
<!-- Node1&#45;&gt;Node13 -->
<g id="edge12" class="edge">
<title>Node1&#45;&gt;Node13</title>
<path fill="none" stroke="black" d="M70.45,-225.83C86.58,-205.05 116.07,-170.94 149,-151.5 155.51,-147.65 162.85,-144.55 170.21,-142.06"/>
<polygon fill="black" stroke="black" points="67.63,-223.75 64.38,-233.83 73.21,-227.98 67.63,-223.75"/>
</g>
<!-- Node7 -->
<g id="node12" class="node">
<title>Node7</title>
<g id="a_node12"><a xlink:href="group__api__l4re__elf__aux.html" target="_top" xlink:title="API for embedding auxiliary information into binary programs.">
<polygon fill="white" stroke="black" points="270,-104.5 163,-104.5 163,-74.5 270,-74.5 270,-104.5"/>
<text text-anchor="start" x="171" y="-92.5" font-family="Helvetica,sans-Serif" font-size="10.00">L4Re ELF Auxiliary</text>
<text text-anchor="middle" x="216.5" y="-81.5" font-family="Helvetica,sans-Serif" font-size="10.00"> Information</text>
</a>
</g>
</g>
<!-- Node1&#45;&gt;Node7 -->
<g id="edge6" class="edge">
<title>Node1&#45;&gt;Node7</title>
<path fill="none" stroke="black" d="M66.17,-224.9C79.97,-197.16 109.49,-144.96 149,-114.5 153.98,-110.66 159.62,-107.36 165.45,-104.53"/>
<polygon fill="black" stroke="black" points="63,-223.4 61.8,-233.93 69.31,-226.45 63,-223.4"/>
</g>
<!-- Node2 -->
<g id="node13" class="node">
<title>Node2</title>
<g id="a_node13"><a xlink:href="group__api__l4aux.html" target="_top" xlink:title=" ">
<polygon fill="white" stroke="black" points="259,-56 174,-56 174,-37 259,-37 259,-56"/>
<text text-anchor="middle" x="216.5" y="-44" font-family="Helvetica,sans-Serif" font-size="10.00">Auxiliary data</text>
</a>
</g>
</g>
<!-- Node1&#45;&gt;Node2 -->
<g id="edge1" class="edge">
<title>Node1&#45;&gt;Node2</title>
<path fill="none" stroke="black" d="M62.11,-223.69C71.71,-186.89 97.39,-107.85 149,-65.5 156.15,-59.64 165.01,-55.58 173.91,-52.78"/>
<polygon fill="black" stroke="black" points="58.64,-223.13 59.63,-233.67 65.44,-224.81 58.64,-223.13"/>
</g>
<!-- Node12 -->
<g id="node14" class="node">
<title>Node12</title>
<g id="a_node14"><a xlink:href="group__api__l4re__parent.html" target="_top" xlink:title="Parent interface.">
<polygon fill="white" stroke="black" points="249.5,-19 183.5,-19 183.5,0 249.5,0 249.5,-19"/>
<text text-anchor="middle" x="216.5" y="-7" font-family="Helvetica,sans-Serif" font-size="10.00">Parent API</text>
</a>
</g>
</g>
<!-- Node1&#45;&gt;Node12 -->
<g id="edge11" class="edge">
<title>Node1&#45;&gt;Node12</title>
<path fill="none" stroke="black" d="M60.21,-223.49C67.01,-181.06 88.84,-81.63 149,-28.5 158.45,-20.15 171.34,-15.46 183.25,-12.82"/>
<polygon fill="black" stroke="black" points="56.7,-223.23 58.69,-233.64 63.63,-224.27 56.7,-223.23"/>
</g>
</g>
</svg>
