<?xml version="1.0" encoding="UTF-8" standalone="no"?>
<!DOCTYPE svg PUBLIC "-//W3C//DTD SVG 1.1//EN"
 "http://www.w3.org/Graphics/SVG/1.1/DTD/svg11.dtd">
<!-- Generated by graphviz version 2.43.0 (0)
 -->
<!-- Title: l4_factory_create_gate_u Pages: 1 -->
<svg width="316pt" height="66pt"
 viewBox="0.00 0.00 316.00 66.00" xmlns="http://www.w3.org/2000/svg" xmlns:xlink="http://www.w3.org/1999/xlink">
<g id="graph0" class="graph" transform="scale(1 1) rotate(0) translate(4 62)">
<title>l4_factory_create_gate_u</title>
<polygon fill="white" stroke="transparent" points="-4,4 -4,-62 312,-62 312,4 -4,4"/>
<!-- Node1 -->
<g id="node1" class="node">
<title>Node1</title>
<g id="a_node1"><a xlink:title="Create a new IPC gate.">
<polygon fill="#bfbfbf" stroke="black" points="168,-19.5 168,-38.5 308,-38.5 308,-19.5 168,-19.5"/>
<text text-anchor="middle" x="238" y="-26.5" font-family="Helvetica,sans-Serif" font-size="10.00">l4_factory_create_gate_u</text>
</a>
</g>
</g>
<!-- Node2 -->
<g id="node2" class="node">
<title>Node2</title>
<g id="a_node2"><a xlink:href="classL4_1_1Factory.html#aac0a160a20464a6917f2f614d5b86407" target="_top" xlink:title="Create a new IPC gate.">
<polygon fill="white" stroke="black" points="0,-38.5 0,-57.5 132,-57.5 132,-38.5 0,-38.5"/>
<text text-anchor="middle" x="66" y="-45.5" font-family="Helvetica,sans-Serif" font-size="10.00">L4::Factory::create_gate</text>
</a>
</g>
</g>
<!-- Node1&#45;&gt;Node2 -->
<g id="edge1" class="edge">
<title>Node1&#45;&gt;Node2</title>
<path fill="none" stroke="midnightblue" d="M157.85,-37.85C149.27,-38.8 140.62,-39.77 132.24,-40.71"/>
<polygon fill="midnightblue" stroke="midnightblue" points="158.31,-41.32 167.85,-36.73 157.53,-34.36 158.31,-41.32"/>
</g>
<!-- Node3 -->
<g id="node3" class="node">
<title>Node3</title>
<g id="a_node3"><a xlink:href="group__l4__factory__api.html#ga15e3ccc0f2ac38b98bfc943bfbcbfc57" target="_top" xlink:title="Create a new IPC gate.">
<polygon fill="white" stroke="black" points="2,-0.5 2,-19.5 130,-19.5 130,-0.5 2,-0.5"/>
<text text-anchor="middle" x="66" y="-7.5" font-family="Helvetica,sans-Serif" font-size="10.00">l4_factory_create_gate</text>
</a>
</g>
</g>
<!-- Node1&#45;&gt;Node3 -->
<g id="edge2" class="edge">
<title>Node1&#45;&gt;Node3</title>
<path fill="none" stroke="midnightblue" d="M157.81,-20.15C148.51,-19.11 139.11,-18.06 130.06,-17.05"/>
<polygon fill="midnightblue" stroke="midnightblue" points="157.53,-23.64 167.85,-21.27 158.31,-16.68 157.53,-23.64"/>
</g>
</g>
</svg>
