<?xml version="1.0" encoding="UTF-8" standalone="no"?>
<!DOCTYPE svg PUBLIC "-//W3C//DTD SVG 1.1//EN"
 "http://www.w3.org/Graphics/SVG/1.1/DTD/svg11.dtd">
<!-- Generated by graphviz version 2.43.0 (0)
 -->
<!-- Title: Kernel Objects Pages: 1 -->
<svg width="351pt" height="409pt"
 viewBox="0.00 0.00 351.00 409.00" xmlns="http://www.w3.org/2000/svg" xmlns:xlink="http://www.w3.org/1999/xlink">
<g id="graph0" class="graph" transform="scale(1 1) rotate(0) translate(4 405)">
<title>Kernel Objects</title>
<polygon fill="white" stroke="transparent" points="-4,4 -4,-405 347,-405 347,4 -4,4"/>
<!-- Node8 -->
<g id="node1" class="node">
<title>Node8</title>
<g id="a_node1"><a xlink:href="group__l4__platform__control__api.html" target="_top" xlink:title="C interface for controlling platform&#45;wide properties.">
<polygon fill="white" stroke="black" points="343,-401 218,-401 218,-382 343,-382 343,-401"/>
<text text-anchor="middle" x="280.5" y="-389" font-family="Helvetica,sans-Serif" font-size="10.00">Platform Control C API</text>
</a>
</g>
</g>
<!-- Node9 -->
<g id="node2" class="node">
<title>Node9</title>
<g id="a_node2"><a xlink:href="group__l4__scheduler__api.html" target="_top" xlink:title="C interface of the Scheduler kernel object.">
<polygon fill="white" stroke="black" points="313,-364 248,-364 248,-345 313,-345 313,-364"/>
<text text-anchor="middle" x="280.5" y="-352" font-family="Helvetica,sans-Serif" font-size="10.00">Scheduler</text>
</a>
</g>
</g>
<!-- Node5 -->
<g id="node3" class="node">
<title>Node5</title>
<g id="a_node3"><a xlink:href="group__l4__irq__api.html" target="_top" xlink:title="C IRQ interface.">
<polygon fill="white" stroke="black" points="300,-327 261,-327 261,-308 300,-308 300,-327"/>
<text text-anchor="middle" x="280.5" y="-315" font-family="Helvetica,sans-Serif" font-size="10.00">IRQs</text>
</a>
</g>
</g>
<!-- Node11 -->
<g id="node4" class="node">
<title>Node11</title>
<g id="a_node4"><a xlink:href="group__l4__thread__api.html" target="_top" xlink:title="Thread object.">
<polygon fill="white" stroke="black" points="305.5,-290 255.5,-290 255.5,-271 305.5,-271 305.5,-290"/>
<text text-anchor="middle" x="280.5" y="-278" font-family="Helvetica,sans-Serif" font-size="10.00">Thread</text>
</a>
</g>
</g>
<!-- Node6 -->
<g id="node5" class="node">
<title>Node6</title>
<g id="a_node5"><a xlink:href="group__l4__icu__api.html" target="_top" xlink:title="The C Icu interface.">
<polygon fill="white" stroke="black" points="334.5,-253 226.5,-253 226.5,-234 334.5,-234 334.5,-253"/>
<text text-anchor="middle" x="280.5" y="-241" font-family="Helvetica,sans-Serif" font-size="10.00">Interrupt controller</text>
</a>
</g>
</g>
<!-- Node13 -->
<g id="node6" class="node">
<title>Node13</title>
<g id="a_node6"><a xlink:href="group__l4__vm__api.html" target="_top" xlink:title="Virtual Machine API.">
<polygon fill="white" stroke="black" points="329.5,-216 231.5,-216 231.5,-197 329.5,-197 329.5,-216"/>
<text text-anchor="middle" x="280.5" y="-204" font-family="Helvetica,sans-Serif" font-size="10.00">Virtual Machines</text>
</a>
</g>
</g>
<!-- Node4 -->
<g id="node7" class="node">
<title>Node4</title>
<g id="a_node7"><a xlink:href="group__l4__kernel__object__gate__api.html" target="_top" xlink:title="Secure communication object.">
<polygon fill="white" stroke="black" points="319.5,-179 241.5,-179 241.5,-160 319.5,-160 319.5,-179"/>
<text text-anchor="middle" x="280.5" y="-167" font-family="Helvetica,sans-Serif" font-size="10.00">IPC&#45;Gate API</text>
</a>
</g>
</g>
<!-- Node3 -->
<g id="node8" class="node">
<title>Node3</title>
<g id="a_node8"><a xlink:href="group__l4__factory__api.html" target="_top" xlink:title="C factory interface to create kernel objects.">
<polygon fill="white" stroke="black" points="306.5,-142 254.5,-142 254.5,-123 306.5,-123 306.5,-142"/>
<text text-anchor="middle" x="280.5" y="-130" font-family="Helvetica,sans-Serif" font-size="10.00">Factory</text>
</a>
</g>
</g>
<!-- Node12 -->
<g id="node9" class="node">
<title>Node12</title>
<g id="a_node9"><a xlink:href="group__l4__vcon__api.html" target="_top" xlink:title="Virtual console for simple character based input and output.">
<polygon fill="white" stroke="black" points="326,-105 235,-105 235,-86 326,-86 326,-105"/>
<text text-anchor="middle" x="280.5" y="-93" font-family="Helvetica,sans-Serif" font-size="10.00">Virtual Console</text>
</a>
</g>
</g>
<!-- Node2 -->
<g id="node10" class="node">
<title>Node2</title>
<g id="a_node10"><a xlink:href="group__l4__api.html" target="_top" xlink:title="Interfaces for all kinds of base functionality.">
<polygon fill="white" stroke="black" points="59,-216 0,-216 0,-197 59,-197 59,-216"/>
<text text-anchor="middle" x="29.5" y="-204" font-family="Helvetica,sans-Serif" font-size="10.00">Base API</text>
</a>
</g>
</g>
<!-- Node1 -->
<g id="node11" class="node">
<title>Node1</title>
<g id="a_node11"><a xlink:title="API of kernel objects.">
<polygon fill="#bfbfbf" stroke="black" points="182,-216 95,-216 95,-197 182,-197 182,-216"/>
<text text-anchor="middle" x="138.5" y="-204" font-family="Helvetica,sans-Serif" font-size="10.00">Kernel Objects</text>
</a>
</g>
</g>
<!-- Node2&#45;&gt;Node1 -->
<g id="edge1" class="edge">
<title>Node2&#45;&gt;Node1</title>
<path fill="none" stroke="black" d="M69.28,-206.5C77.52,-206.5 86.27,-206.5 94.65,-206.5"/>
<polygon fill="black" stroke="black" points="69.17,-203 59.17,-206.5 69.17,-210 69.17,-203"/>
</g>
<!-- Node1&#45;&gt;Node8 -->
<g id="edge7" class="edge">
<title>Node1&#45;&gt;Node8</title>
<path fill="none" stroke="black" d="M143.2,-225.97C150.83,-260.79 171.67,-333.83 218,-373.5 221.97,-376.9 226.56,-379.66 231.4,-381.9"/>
<polygon fill="black" stroke="black" points="146.61,-225.18 141.16,-216.09 139.75,-226.59 146.61,-225.18"/>
</g>
<!-- Node1&#45;&gt;Node9 -->
<g id="edge8" class="edge">
<title>Node1&#45;&gt;Node9</title>
<path fill="none" stroke="black" d="M146.05,-225.99C156.63,-254.52 180.21,-307.4 218,-336.5 226.55,-343.08 237.45,-347.26 247.69,-349.91"/>
<polygon fill="black" stroke="black" points="149.27,-224.6 142.63,-216.35 142.67,-226.95 149.27,-224.6"/>
</g>
<!-- Node1&#45;&gt;Node5 -->
<g id="edge4" class="edge">
<title>Node1&#45;&gt;Node5</title>
<path fill="none" stroke="black" d="M150.35,-224.96C163.67,-246.04 188.21,-280.1 218,-299.5 230.96,-307.94 247.98,-312.52 260.82,-314.95"/>
<polygon fill="black" stroke="black" points="153.25,-222.99 145.04,-216.29 147.28,-226.64 153.25,-222.99"/>
</g>
<!-- Node1&#45;&gt;Node11 -->
<g id="edge10" class="edge">
<title>Node1&#45;&gt;Node11</title>
<path fill="none" stroke="black" d="M158.52,-222.86C173.74,-235.23 196.1,-251.86 218,-262.5 229.81,-268.24 243.8,-272.51 255.45,-275.45"/>
<polygon fill="black" stroke="black" points="160.37,-219.84 150.44,-216.14 155.89,-225.22 160.37,-219.84"/>
</g>
<!-- Node1&#45;&gt;Node6 -->
<g id="edge5" class="edge">
<title>Node1&#45;&gt;Node6</title>
<path fill="none" stroke="black" d="M185.36,-218.62C204.09,-223.57 225.45,-229.22 243.08,-233.88"/>
<polygon fill="black" stroke="black" points="186.12,-215.2 175.55,-216.03 184.33,-221.97 186.12,-215.2"/>
</g>
<!-- Node1&#45;&gt;Node13 -->
<g id="edge12" class="edge">
<title>Node1&#45;&gt;Node13</title>
<path fill="none" stroke="black" d="M192.28,-206.5C205.03,-206.5 218.59,-206.5 231.12,-206.5"/>
<polygon fill="black" stroke="black" points="192.27,-203 182.27,-206.5 192.27,-210 192.27,-203"/>
</g>
<!-- Node1&#45;&gt;Node4 -->
<g id="edge3" class="edge">
<title>Node1&#45;&gt;Node4</title>
<path fill="none" stroke="black" d="M185.36,-194.38C204.09,-189.43 225.45,-183.78 243.08,-179.12"/>
<polygon fill="black" stroke="black" points="184.33,-191.03 175.55,-196.97 186.12,-197.8 184.33,-191.03"/>
</g>
<!-- Node1&#45;&gt;Node3 -->
<g id="edge2" class="edge">
<title>Node1&#45;&gt;Node3</title>
<path fill="none" stroke="black" d="M158.52,-190.14C173.74,-177.77 196.1,-161.14 218,-150.5 229.41,-144.96 242.85,-140.78 254.26,-137.86"/>
<polygon fill="black" stroke="black" points="155.89,-187.78 150.44,-196.86 160.37,-193.16 155.89,-187.78"/>
</g>
<!-- Node1&#45;&gt;Node12 -->
<g id="edge11" class="edge">
<title>Node1&#45;&gt;Node12</title>
<path fill="none" stroke="black" d="M150.35,-188.04C163.67,-166.96 188.21,-132.9 218,-113.5 223.22,-110.1 229.1,-107.33 235.1,-105.07"/>
<polygon fill="black" stroke="black" points="147.28,-186.36 145.04,-196.71 153.25,-190.01 147.28,-186.36"/>
</g>
<!-- Node7 -->
<g id="node12" class="node">
<title>Node7</title>
<g id="a_node12"><a xlink:href="group__l4__kobject__rtti.html" target="_top" xlink:title="Type information for L4 server objects that can be called via IPC.">
<polygon fill="white" stroke="black" points="340,-67.5 221,-67.5 221,-37.5 340,-37.5 340,-67.5"/>
<text text-anchor="start" x="229" y="-55.5" font-family="Helvetica,sans-Serif" font-size="10.00">L4 kernel object type</text>
<text text-anchor="middle" x="280.5" y="-44.5" font-family="Helvetica,sans-Serif" font-size="10.00"> information</text>
</a>
</g>
</g>
<!-- Node1&#45;&gt;Node7 -->
<g id="edge6" class="edge">
<title>Node1&#45;&gt;Node7</title>
<path fill="none" stroke="black" d="M146.39,-187.43C157.4,-159.43 181.52,-107.22 218,-76.5 222.03,-73.1 226.6,-70.15 231.39,-67.6"/>
<polygon fill="black" stroke="black" points="143.08,-186.28 142.81,-196.88 149.62,-188.76 143.08,-186.28"/>
</g>
<!-- Node10 -->
<g id="node13" class="node">
<title>Node10</title>
<g id="a_node13"><a xlink:href="group__l4__task__api.html" target="_top" xlink:title="C interface of the Task kernel object.">
<polygon fill="white" stroke="black" points="299.5,-19 261.5,-19 261.5,0 299.5,0 299.5,-19"/>
<text text-anchor="middle" x="280.5" y="-7" font-family="Helvetica,sans-Serif" font-size="10.00">Task</text>
</a>
</g>
</g>
<!-- Node1&#45;&gt;Node10 -->
<g id="edge9" class="edge">
<title>Node1&#45;&gt;Node10</title>
<path fill="none" stroke="black" d="M142.67,-186.84C149.6,-150.29 169.54,-71.65 218,-28.5 230.02,-17.8 247.97,-13.12 261.39,-11.08"/>
<polygon fill="black" stroke="black" points="139.21,-186.3 140.92,-196.75 146.11,-187.51 139.21,-186.3"/>
</g>
</g>
</svg>
