<?xml version="1.0" encoding="UTF-8" standalone="no"?>
<!DOCTYPE svg PUBLIC "-//W3C//DTD SVG 1.1//EN"
 "http://www.w3.org/Graphics/SVG/1.1/DTD/svg11.dtd">
<!-- Generated by graphviz version 2.43.0 (0)
 -->
<!-- Title: l4_factory_create_factory_u Pages: 1 -->
<svg width="337pt" height="78pt"
 viewBox="0.00 0.00 337.00 77.50" xmlns="http://www.w3.org/2000/svg" xmlns:xlink="http://www.w3.org/1999/xlink">
<g id="graph0" class="graph" transform="scale(1 1) rotate(0) translate(4 73.5)">
<title>l4_factory_create_factory_u</title>
<polygon fill="white" stroke="transparent" points="-4,4 -4,-73.5 333,-73.5 333,4 -4,4"/>
<!-- Node1 -->
<g id="node1" class="node">
<title>Node1</title>
<g id="a_node1"><a xlink:title="Create a new factory.">
<polygon fill="#bfbfbf" stroke="black" points="177,-22.5 177,-41.5 329,-41.5 329,-22.5 177,-22.5"/>
<text text-anchor="middle" x="253" y="-29.5" font-family="Helvetica,sans-Serif" font-size="10.00">l4_factory_create_factory_u</text>
</a>
</g>
</g>
<!-- Node2 -->
<g id="node2" class="node">
<title>Node2</title>
<g id="a_node2"><a xlink:href="classL4_1_1Factory.html#a014721aec27ad4877555d5f4b7204896" target="_top" xlink:title="Create a new factory.">
<polygon fill="white" stroke="black" points="18,-39 18,-69 123,-69 123,-39 18,-39"/>
<text text-anchor="start" x="26" y="-57" font-family="Helvetica,sans-Serif" font-size="10.00">L4::Factory::create</text>
<text text-anchor="middle" x="70.5" y="-46" font-family="Helvetica,sans-Serif" font-size="10.00">_factory</text>
</a>
</g>
</g>
<!-- Node1&#45;&gt;Node2 -->
<g id="edge1" class="edge">
<title>Node1&#45;&gt;Node2</title>
<path fill="none" stroke="midnightblue" d="M166.52,-42.42C151.65,-44.23 136.62,-46.06 123.03,-47.72"/>
<polygon fill="midnightblue" stroke="midnightblue" points="167.26,-45.85 176.76,-41.17 166.41,-38.91 167.26,-45.85"/>
</g>
<!-- Node3 -->
<g id="node3" class="node">
<title>Node3</title>
<g id="a_node3"><a xlink:href="group__l4__factory__api.html#ga63c20eadfff54bdc3087e7157dcd7129" target="_top" xlink:title="Create a new factory.">
<polygon fill="white" stroke="black" points="0,-0.5 0,-19.5 141,-19.5 141,-0.5 0,-0.5"/>
<text text-anchor="middle" x="70.5" y="-7.5" font-family="Helvetica,sans-Serif" font-size="10.00">l4_factory_create_factory</text>
</a>
</g>
</g>
<!-- Node1&#45;&gt;Node3 -->
<g id="edge2" class="edge">
<title>Node1&#45;&gt;Node3</title>
<path fill="none" stroke="midnightblue" d="M166.74,-21.61C158.16,-20.56 149.52,-19.51 141.14,-18.49"/>
<polygon fill="midnightblue" stroke="midnightblue" points="166.41,-25.09 176.76,-22.83 167.26,-18.15 166.41,-25.09"/>
</g>
</g>
</svg>
