<?xml version="1.0" encoding="UTF-8" standalone="no"?>
<!DOCTYPE svg PUBLIC "-//W3C//DTD SVG 1.1//EN"
 "http://www.w3.org/Graphics/SVG/1.1/DTD/svg11.dtd">
<!-- Generated by graphviz version 2.43.0 (0)
 -->
<!-- Title: l4_thread_vcpu_control_ext_u Pages: 1 -->
<svg width="331pt" height="66pt"
 viewBox="0.00 0.00 331.00 66.00" xmlns="http://www.w3.org/2000/svg" xmlns:xlink="http://www.w3.org/1999/xlink">
<g id="graph0" class="graph" transform="scale(1 1) rotate(0) translate(4 62)">
<title>l4_thread_vcpu_control_ext_u</title>
<polygon fill="white" stroke="transparent" points="-4,4 -4,-62 327,-62 327,4 -4,4"/>
<!-- Node1 -->
<g id="node1" class="node">
<title>Node1</title>
<g id="a_node1"><a xlink:title="Enable or disable the extended vCPU feature for the thread.">
<polygon fill="#bfbfbf" stroke="black" points="193,-14 193,-44 323,-44 323,-14 193,-14"/>
<text text-anchor="start" x="201" y="-32" font-family="Helvetica,sans-Serif" font-size="10.00">l4_thread_vcpu_control</text>
<text text-anchor="middle" x="258" y="-21" font-family="Helvetica,sans-Serif" font-size="10.00">_ext_u</text>
</a>
</g>
</g>
<!-- Node2 -->
<g id="node2" class="node">
<title>Node2</title>
<g id="a_node2"><a xlink:href="group__l4__thread__api.html#ga592d99fe80a0091a837f6001d0d5c25b" target="_top" xlink:title="Enable or disable the extended vCPU feature for the thread.">
<polygon fill="white" stroke="black" points="3,-38.5 3,-57.5 154,-57.5 154,-38.5 3,-38.5"/>
<text text-anchor="middle" x="78.5" y="-45.5" font-family="Helvetica,sans-Serif" font-size="10.00">l4_thread_vcpu_control_ext</text>
</a>
</g>
</g>
<!-- Node1&#45;&gt;Node2 -->
<g id="edge1" class="edge">
<title>Node1&#45;&gt;Node2</title>
<path fill="none" stroke="midnightblue" d="M182.74,-36.95C173.25,-37.96 163.54,-39 154.05,-40.02"/>
<polygon fill="midnightblue" stroke="midnightblue" points="183.35,-40.4 192.92,-35.86 182.6,-33.44 183.35,-40.4"/>
</g>
<!-- Node3 -->
<g id="node3" class="node">
<title>Node3</title>
<g id="a_node3"><a xlink:href="classL4_1_1Thread.html#ac341b827b00c21bc3753c30163e0f173" target="_top" xlink:title="Enable or disable the extended vCPU feature for the thread.">
<polygon fill="white" stroke="black" points="0,-0.5 0,-19.5 157,-19.5 157,-0.5 0,-0.5"/>
<text text-anchor="middle" x="78.5" y="-7.5" font-family="Helvetica,sans-Serif" font-size="10.00">L4::Thread::vcpu_control_ext</text>
</a>
</g>
</g>
<!-- Node1&#45;&gt;Node3 -->
<g id="edge2" class="edge">
<title>Node1&#45;&gt;Node3</title>
<path fill="none" stroke="midnightblue" d="M182.71,-21.05C174.25,-20.14 165.61,-19.22 157.11,-18.31"/>
<polygon fill="midnightblue" stroke="midnightblue" points="182.6,-24.56 192.92,-22.14 183.35,-17.6 182.6,-24.56"/>
</g>
</g>
</svg>
