<?xml version="1.0" encoding="UTF-8" standalone="no"?>
<!DOCTYPE svg PUBLIC "-//W3C//DTD SVG 1.1//EN"
 "http://www.w3.org/Graphics/SVG/1.1/DTD/svg11.dtd">
<!-- Generated by graphviz version 2.43.0 (0)
 -->
<!-- Title: Virtual Machines Pages: 1 -->
<svg width="358pt" height="101pt"
 viewBox="0.00 0.00 358.00 101.00" xmlns="http://www.w3.org/2000/svg" xmlns:xlink="http://www.w3.org/1999/xlink">
<g id="graph0" class="graph" transform="scale(1 1) rotate(0) translate(4 97)">
<title>Virtual Machines</title>
<polygon fill="white" stroke="transparent" points="-4,4 -4,-97 354,-97 354,4 -4,4"/>
<!-- Node4 -->
<g id="node1" class="node">
<title>Node4</title>
<g id="a_node1"><a xlink:href="group__l4__vm__tz__api.html" target="_top" xlink:title="Virtual Machine API for ARM TrustZone.">
<polygon fill="white" stroke="black" points="345,-93 262,-93 262,-74 345,-74 345,-93"/>
<text text-anchor="middle" x="303.5" y="-81" font-family="Helvetica,sans-Serif" font-size="10.00">VM API for TZ</text>
</a>
</g>
</g>
<!-- Node5 -->
<g id="node2" class="node">
<title>Node5</title>
<g id="a_node2"><a xlink:href="group__l4__vm__vmx__api.html" target="_top" xlink:title="Virtual machine API for VMX.">
<polygon fill="white" stroke="black" points="350,-56 257,-56 257,-37 350,-37 350,-56"/>
<text text-anchor="middle" x="303.5" y="-44" font-family="Helvetica,sans-Serif" font-size="10.00">VM API for VMX</text>
</a>
</g>
</g>
<!-- Node1 -->
<g id="node3" class="node">
<title>Node1</title>
<g id="a_node3"><a xlink:title="Virtual Machine API.">
<polygon fill="#bfbfbf" stroke="black" points="221,-56 123,-56 123,-37 221,-37 221,-56"/>
<text text-anchor="middle" x="172" y="-44" font-family="Helvetica,sans-Serif" font-size="10.00">Virtual Machines</text>
</a>
</g>
</g>
<!-- Node1&#45;&gt;Node4 -->
<g id="edge3" class="edge">
<title>Node1&#45;&gt;Node4</title>
<path fill="none" stroke="black" d="M216.14,-58.83C233.29,-63.73 252.73,-69.28 268.81,-73.88"/>
<polygon fill="black" stroke="black" points="216.93,-55.41 206.35,-56.03 215,-62.14 216.93,-55.41"/>
</g>
<!-- Node1&#45;&gt;Node5 -->
<g id="edge4" class="edge">
<title>Node1&#45;&gt;Node5</title>
<path fill="none" stroke="black" d="M231.48,-46.5C239.97,-46.5 248.62,-46.5 256.81,-46.5"/>
<polygon fill="black" stroke="black" points="231.22,-43 221.22,-46.5 231.22,-50 231.22,-43"/>
</g>
<!-- Node3 -->
<g id="node4" class="node">
<title>Node3</title>
<g id="a_node4"><a xlink:href="group__l4__vm__svm__api.html" target="_top" xlink:title="Virtual machine API for SVM.">
<polygon fill="white" stroke="black" points="349.5,-19 257.5,-19 257.5,0 349.5,0 349.5,-19"/>
<text text-anchor="middle" x="303.5" y="-7" font-family="Helvetica,sans-Serif" font-size="10.00">VM API for SVM</text>
</a>
</g>
</g>
<!-- Node1&#45;&gt;Node3 -->
<g id="edge2" class="edge">
<title>Node1&#45;&gt;Node3</title>
<path fill="none" stroke="black" d="M216.14,-34.17C233.29,-29.27 252.73,-23.72 268.81,-19.12"/>
<polygon fill="black" stroke="black" points="215,-30.86 206.35,-36.97 216.93,-37.59 215,-30.86"/>
</g>
<!-- Node2 -->
<g id="node5" class="node">
<title>Node2</title>
<g id="a_node5"><a xlink:href="group__l4__kernel__object__api.html" target="_top" xlink:title="API of kernel objects.">
<polygon fill="white" stroke="black" points="87,-56 0,-56 0,-37 87,-37 87,-56"/>
<text text-anchor="middle" x="43.5" y="-44" font-family="Helvetica,sans-Serif" font-size="10.00">Kernel Objects</text>
</a>
</g>
</g>
<!-- Node2&#45;&gt;Node1 -->
<g id="edge1" class="edge">
<title>Node2&#45;&gt;Node1</title>
<path fill="none" stroke="black" d="M97.48,-46.5C105.94,-46.5 114.66,-46.5 123,-46.5"/>
<polygon fill="black" stroke="black" points="97.33,-43 87.33,-46.5 97.33,-50 97.33,-43"/>
</g>
</g>
</svg>
