<?xml version="1.0" encoding="UTF-8" standalone="no"?>
<!DOCTYPE svg PUBLIC "-//W3C//DTD SVG 1.1//EN"
 "http://www.w3.org/Graphics/SVG/1.1/DTD/svg11.dtd">
<!-- Generated by graphviz version 2.43.0 (0)
 -->
<!-- Title: l4_vcon_get_attr Pages: 1 -->
<svg width="251pt" height="66pt"
 viewBox="0.00 0.00 251.00 66.00" xmlns="http://www.w3.org/2000/svg" xmlns:xlink="http://www.w3.org/1999/xlink">
<g id="graph0" class="graph" transform="scale(1 1) rotate(0) translate(4 62)">
<title>l4_vcon_get_attr</title>
<polygon fill="white" stroke="transparent" points="-4,4 -4,-62 247,-62 247,4 -4,4"/>
<!-- Node1 -->
<g id="node1" class="node">
<title>Node1</title>
<g id="a_node1"><a xlink:title="Get attributes of a Vcon.">
<polygon fill="#bfbfbf" stroke="black" points="0,-19.5 0,-38.5 98,-38.5 98,-19.5 0,-19.5"/>
<text text-anchor="middle" x="49" y="-26.5" font-family="Helvetica,sans-Serif" font-size="10.00">l4_vcon_get_attr</text>
</a>
</g>
</g>
<!-- Node2 -->
<g id="node2" class="node">
<title>Node2</title>
<g id="a_node2"><a xlink:href="group__l4__utcb__api.html#gadc099b4a59e1d99638c72c11a8c8b644" target="_top" xlink:title="Get the UTCB address.">
<polygon fill="white" stroke="black" points="162.5,-38.5 162.5,-57.5 214.5,-57.5 214.5,-38.5 162.5,-38.5"/>
<text text-anchor="middle" x="188.5" y="-45.5" font-family="Helvetica,sans-Serif" font-size="10.00">l4_utcb</text>
</a>
</g>
</g>
<!-- Node1&#45;&gt;Node2 -->
<g id="edge1" class="edge">
<title>Node1&#45;&gt;Node2</title>
<path fill="none" stroke="midnightblue" d="M98.09,-35.65C115.88,-38.1 135.7,-40.84 152.15,-43.12"/>
<polygon fill="midnightblue" stroke="midnightblue" points="152.04,-46.63 162.42,-44.53 152.99,-39.7 152.04,-46.63"/>
</g>
<!-- Node3 -->
<g id="node3" class="node">
<title>Node3</title>
<g id="a_node3"><a xlink:href="group__l4__vcon__api.html#gae9c105658ebcbc5d1a86e0672f0a5465" target="_top" xlink:title="Get attributes of this virtual console.">
<polygon fill="white" stroke="black" points="134,-0.5 134,-19.5 243,-19.5 243,-0.5 134,-0.5"/>
<text text-anchor="middle" x="188.5" y="-7.5" font-family="Helvetica,sans-Serif" font-size="10.00">l4_vcon_get_attr_u</text>
</a>
</g>
</g>
<!-- Node1&#45;&gt;Node3 -->
<g id="edge2" class="edge">
<title>Node1&#45;&gt;Node3</title>
<path fill="none" stroke="midnightblue" d="M98.09,-22.35C106.33,-21.22 115,-20.02 123.58,-18.83"/>
<polygon fill="midnightblue" stroke="midnightblue" points="124.14,-22.29 133.56,-17.45 123.18,-15.35 124.14,-22.29"/>
</g>
</g>
</svg>
