<?xml version="1.0" encoding="UTF-8" standalone="no"?>
<!DOCTYPE svg PUBLIC "-//W3C//DTD SVG 1.1//EN"
 "http://www.w3.org/Graphics/SVG/1.1/DTD/svg11.dtd">
<!-- Generated by graphviz version 2.43.0 (0)
 -->
<!-- Title: l4util_splitlog2_size Pages: 1 -->
<svg width="219pt" height="66pt"
 viewBox="0.00 0.00 219.00 66.00" xmlns="http://www.w3.org/2000/svg" xmlns:xlink="http://www.w3.org/1999/xlink">
<g id="graph0" class="graph" transform="scale(1 1) rotate(0) translate(4 62)">
<title>l4util_splitlog2_size</title>
<polygon fill="white" stroke="transparent" points="-4,4 -4,-62 215,-62 215,4 -4,4"/>
<!-- Node1 -->
<g id="node1" class="node">
<title>Node1</title>
<g id="a_node1"><a xlink:title="Return log2 base and size aligned length of a range.">
<polygon fill="#bfbfbf" stroke="black" points="0,-19.5 0,-38.5 113,-38.5 113,-19.5 0,-19.5"/>
<text text-anchor="middle" x="56.5" y="-26.5" font-family="Helvetica,sans-Serif" font-size="10.00">l4util_splitlog2_size</text>
</a>
</g>
</g>
<!-- Node2 -->
<g id="node2" class="node">
<title>Node2</title>
<g id="a_node2"><a xlink:href="group__l4util__bitops.html#ga3906818d29569abd0c82fc7ec35687f7" target="_top" xlink:title="Bit scan forward.">
<polygon fill="white" stroke="black" points="149,-38.5 149,-57.5 211,-57.5 211,-38.5 149,-38.5"/>
<text text-anchor="middle" x="180" y="-45.5" font-family="Helvetica,sans-Serif" font-size="10.00">l4util_bsf</text>
</a>
</g>
</g>
<!-- Node1&#45;&gt;Node2 -->
<g id="edge1" class="edge">
<title>Node1&#45;&gt;Node2</title>
<path fill="none" stroke="midnightblue" d="M113.27,-37.72C121.87,-39.07 130.6,-40.43 138.77,-41.71"/>
<polygon fill="midnightblue" stroke="midnightblue" points="138.35,-45.18 148.77,-43.27 139.43,-38.27 138.35,-45.18"/>
</g>
<!-- Node3 -->
<g id="node3" class="node">
<title>Node3</title>
<g id="a_node3"><a xlink:href="group__l4util__bitops.html#ga530be11fa91000db4c4539558e115bd2" target="_top" xlink:title="Bit scan reverse.">
<polygon fill="white" stroke="black" points="149,-0.5 149,-19.5 211,-19.5 211,-0.5 149,-0.5"/>
<text text-anchor="middle" x="180" y="-7.5" font-family="Helvetica,sans-Serif" font-size="10.00">l4util_bsr</text>
</a>
</g>
</g>
<!-- Node1&#45;&gt;Node3 -->
<g id="edge2" class="edge">
<title>Node1&#45;&gt;Node3</title>
<path fill="none" stroke="midnightblue" d="M113.27,-20.28C121.87,-18.93 130.6,-17.57 138.77,-16.29"/>
<polygon fill="midnightblue" stroke="midnightblue" points="139.43,-19.73 148.77,-14.73 138.35,-12.82 139.43,-19.73"/>
</g>
</g>
</svg>
