<?xml version="1.0" encoding="UTF-8" standalone="no"?>
<!DOCTYPE svg PUBLIC "-//W3C//DTD SVG 1.1//EN"
 "http://www.w3.org/Graphics/SVG/1.1/DTD/svg11.dtd">
<!-- Generated by graphviz version 2.43.0 (0)
 -->
<!-- Title: l4_thread_vcpu_control_ext Pages: 1 -->
<svg width="325pt" height="78pt"
 viewBox="0.00 0.00 325.00 77.50" xmlns="http://www.w3.org/2000/svg" xmlns:xlink="http://www.w3.org/1999/xlink">
<g id="graph0" class="graph" transform="scale(1 1) rotate(0) translate(4 73.5)">
<title>l4_thread_vcpu_control_ext</title>
<polygon fill="white" stroke="transparent" points="-4,4 -4,-73.5 321,-73.5 321,4 -4,4"/>
<!-- Node1 -->
<g id="node1" class="node">
<title>Node1</title>
<g id="a_node1"><a xlink:title="Enable or disable the extended vCPU feature for the thread.">
<polygon fill="#bfbfbf" stroke="black" points="0,-22.5 0,-41.5 151,-41.5 151,-22.5 0,-22.5"/>
<text text-anchor="middle" x="75.5" y="-29.5" font-family="Helvetica,sans-Serif" font-size="10.00">l4_thread_vcpu_control_ext</text>
</a>
</g>
</g>
<!-- Node2 -->
<g id="node2" class="node">
<title>Node2</title>
<g id="a_node2"><a xlink:href="group__l4__thread__api.html#ga1015c5500bcfeaa01d209ee116cf57ec" target="_top" xlink:title="Enable or disable the extended vCPU feature for the thread.">
<polygon fill="white" stroke="black" points="187,-39 187,-69 317,-69 317,-39 187,-39"/>
<text text-anchor="start" x="195" y="-57" font-family="Helvetica,sans-Serif" font-size="10.00">l4_thread_vcpu_control</text>
<text text-anchor="middle" x="252" y="-46" font-family="Helvetica,sans-Serif" font-size="10.00">_ext_u</text>
</a>
</g>
</g>
<!-- Node1&#45;&gt;Node2 -->
<g id="edge1" class="edge">
<title>Node1&#45;&gt;Node2</title>
<path fill="none" stroke="midnightblue" d="M151.01,-41.39C159.6,-42.48 168.36,-43.58 176.94,-44.66"/>
<polygon fill="midnightblue" stroke="midnightblue" points="176.55,-48.14 186.91,-45.92 177.43,-41.2 176.55,-48.14"/>
</g>
<!-- Node3 -->
<g id="node3" class="node">
<title>Node3</title>
<g id="a_node3"><a xlink:href="group__l4__utcb__api.html#gadc099b4a59e1d99638c72c11a8c8b644" target="_top" xlink:title="Get the UTCB address.">
<polygon fill="white" stroke="black" points="226,-0.5 226,-19.5 278,-19.5 278,-0.5 226,-0.5"/>
<text text-anchor="middle" x="252" y="-7.5" font-family="Helvetica,sans-Serif" font-size="10.00">l4_utcb</text>
</a>
</g>
</g>
<!-- Node1&#45;&gt;Node3 -->
<g id="edge2" class="edge">
<title>Node1&#45;&gt;Node3</title>
<path fill="none" stroke="midnightblue" d="M151.01,-22.61C173.42,-19.78 196.97,-16.81 215.58,-14.47"/>
<polygon fill="midnightblue" stroke="midnightblue" points="216.17,-17.92 225.65,-13.2 215.29,-10.97 216.17,-17.92"/>
</g>
</g>
</svg>
