<?xml version="1.0" encoding="UTF-8" standalone="no"?>
<!DOCTYPE svg PUBLIC "-//W3C//DTD SVG 1.1//EN"
 "http://www.w3.org/Graphics/SVG/1.1/DTD/svg11.dtd">
<!-- Generated by graphviz version 2.43.0 (0)
 -->
<!-- Title: Message Registers (MRs) Pages: 1 -->
<svg width="431pt" height="38pt"
 viewBox="0.00 0.00 431.00 38.00" xmlns="http://www.w3.org/2000/svg" xmlns:xlink="http://www.w3.org/1999/xlink">
<g id="graph0" class="graph" transform="scale(1 1) rotate(0) translate(4 34)">
<title>Message Registers (MRs)</title>
<polygon fill="white" stroke="transparent" points="-4,4 -4,-34 427,-34 427,4 -4,4"/>
<!-- Node2 -->
<g id="node1" class="node">
<title>Node2</title>
<g id="a_node1"><a xlink:href="group__l4__utcb__api.html" target="_top" xlink:title="L4 Virtual Registers (UTCB).">
<polygon fill="white" stroke="black" points="101,-30 0,-30 0,0 101,0 101,-30"/>
<text text-anchor="start" x="8" y="-18" font-family="Helvetica,sans-Serif" font-size="10.00">Virtual Registers </text>
<text text-anchor="middle" x="50.5" y="-7" font-family="Helvetica,sans-Serif" font-size="10.00">(UTCBs)</text>
</a>
</g>
</g>
<!-- Node1 -->
<g id="node2" class="node">
<title>Node1</title>
<g id="a_node2"><a xlink:title=" ">
<polygon fill="#bfbfbf" stroke="black" points="277,-24.5 137,-24.5 137,-5.5 277,-5.5 277,-24.5"/>
<text text-anchor="middle" x="207" y="-12.5" font-family="Helvetica,sans-Serif" font-size="10.00">Message Registers (MRs)</text>
</a>
</g>
</g>
<!-- Node2&#45;&gt;Node1 -->
<g id="edge1" class="edge">
<title>Node2&#45;&gt;Node1</title>
<path fill="none" stroke="black" d="M111.3,-15C119.7,-15 128.39,-15 136.94,-15"/>
<polygon fill="black" stroke="black" points="111.24,-11.5 101.24,-15 111.24,-18.5 111.24,-11.5"/>
</g>
<!-- Node3 -->
<g id="node3" class="node">
<title>Node3</title>
<g id="a_node3"><a xlink:href="group__l4__utcb__exc__api.html" target="_top" xlink:title="Overly definition of the MRs for exception messages.">
<polygon fill="white" stroke="black" points="423,-24.5 313,-24.5 313,-5.5 423,-5.5 423,-24.5"/>
<text text-anchor="middle" x="368" y="-12.5" font-family="Helvetica,sans-Serif" font-size="10.00">Exception registers</text>
</a>
</g>
</g>
<!-- Node1&#45;&gt;Node3 -->
<g id="edge2" class="edge">
<title>Node1&#45;&gt;Node3</title>
<path fill="none" stroke="black" d="M287.35,-15C295.96,-15 304.56,-15 312.77,-15"/>
<polygon fill="black" stroke="black" points="287.28,-11.5 277.28,-15 287.28,-18.5 287.28,-11.5"/>
</g>
</g>
</svg>
