<?xml version="1.0" encoding="UTF-8" standalone="no"?>
<!DOCTYPE svg PUBLIC "-//W3C//DTD SVG 1.1//EN"
 "http://www.w3.org/Graphics/SVG/1.1/DTD/svg11.dtd">
<!-- Generated by graphviz version 2.43.0 (0)
 -->
<!-- Title: l4_error Pages: 1 -->
<svg width="390pt" height="418pt"
 viewBox="0.00 0.00 390.00 417.50" xmlns="http://www.w3.org/2000/svg" xmlns:xlink="http://www.w3.org/1999/xlink">
<g id="graph0" class="graph" transform="scale(1 1) rotate(0) translate(4 413.5)">
<title>l4_error</title>
<polygon fill="white" stroke="transparent" points="-4,4 -4,-413.5 386,-413.5 386,4 -4,4"/>
<!-- Node1 -->
<g id="node1" class="node">
<title>Node1</title>
<g id="a_node1"><a xlink:title="Return error code of a system call return message tag or the tag label.">
<polygon fill="#bfbfbf" stroke="black" points="328,-195 328,-214 382,-214 382,-195 328,-195"/>
<text text-anchor="middle" x="355" y="-202" font-family="Helvetica,sans-Serif" font-size="10.00">l4_error</text>
</a>
</g>
</g>
<!-- Node2 -->
<g id="node2" class="node">
<title>Node2</title>
<g id="a_node2"><a xlink:href="classL4Re_1_1Mem__alloc.html#a44b301573ae859e8406400338cc8e924" target="_top" xlink:title="Allocate anonymous memory.">
<polygon fill="white" stroke="black" points="162,-390 162,-409 291,-409 291,-390 162,-390"/>
<text text-anchor="middle" x="226.5" y="-397" font-family="Helvetica,sans-Serif" font-size="10.00">L4Re::Mem_alloc::alloc</text>
</a>
</g>
</g>
<!-- Node1&#45;&gt;Node2 -->
<g id="edge1" class="edge">
<title>Node1&#45;&gt;Node2</title>
<path fill="none" stroke="midnightblue" d="M352.73,-224.37C349.34,-260.66 336.95,-337.84 292,-380.5 287.94,-384.36 283.13,-387.44 278,-389.89"/>
<polygon fill="midnightblue" stroke="midnightblue" points="356.25,-224.37 353.55,-214.12 349.27,-223.81 356.25,-224.37"/>
</g>
<!-- Node3 -->
<g id="node3" class="node">
<title>Node3</title>
<g id="a_node3"><a xlink:href="classL4virtio_1_1Driver_1_1Device.html#a1c9b791b723e7e8ad2eae927094b487d" target="_top" xlink:title="Register a triggerable to receive notifications from the device.">
<polygon fill="white" stroke="black" points="162,-340.5 162,-370.5 291,-370.5 291,-340.5 162,-340.5"/>
<text text-anchor="start" x="170" y="-358.5" font-family="Helvetica,sans-Serif" font-size="10.00">L4virtio::Driver::Device</text>
<text text-anchor="middle" x="226.5" y="-347.5" font-family="Helvetica,sans-Serif" font-size="10.00">::bind_notification_irq</text>
</a>
</g>
</g>
<!-- Node1&#45;&gt;Node3 -->
<g id="edge2" class="edge">
<title>Node1&#45;&gt;Node3</title>
<path fill="none" stroke="midnightblue" d="M349.21,-224.11C341.56,-251.49 324.07,-301.12 292,-330.5 287.84,-334.31 283.03,-337.57 277.95,-340.34"/>
<polygon fill="midnightblue" stroke="midnightblue" points="352.66,-224.73 351.82,-214.17 345.89,-222.95 352.66,-224.73"/>
</g>
<!-- Node4 -->
<g id="node4" class="node">
<title>Node4</title>
<g id="a_node4"><a xlink:href="namespaceL4.html#a60bf71a466a8c641298d4d9404102f68" target="_top" xlink:title="dynamic_cast for capabilities.">
<polygon fill="white" stroke="black" points="164.5,-302 164.5,-321 288.5,-321 288.5,-302 164.5,-302"/>
<text text-anchor="middle" x="226.5" y="-309" font-family="Helvetica,sans-Serif" font-size="10.00">L4::cap_dynamic_cast</text>
</a>
</g>
</g>
<!-- Node1&#45;&gt;Node4 -->
<g id="edge3" class="edge">
<title>Node1&#45;&gt;Node4</title>
<path fill="none" stroke="midnightblue" d="M345.59,-223.11C335.6,-243.13 317.08,-274.53 292,-292.5 286.59,-296.38 280.39,-299.47 274.03,-301.93"/>
<polygon fill="midnightblue" stroke="midnightblue" points="348.76,-224.58 349.91,-214.05 342.44,-221.57 348.76,-224.58"/>
</g>
<!-- Node5 -->
<g id="node5" class="node">
<title>Node5</title>
<g id="a_node5"><a xlink:href="classL4virtio_1_1Driver_1_1Device.html#a4f8b3d73188c3b6664755b81b80e441c" target="_top" xlink:title="Contacts the device and starts the initial handshake.">
<polygon fill="white" stroke="black" points="162,-252.5 162,-282.5 291,-282.5 291,-252.5 162,-252.5"/>
<text text-anchor="start" x="170" y="-270.5" font-family="Helvetica,sans-Serif" font-size="10.00">L4virtio::Driver::Device</text>
<text text-anchor="middle" x="226.5" y="-259.5" font-family="Helvetica,sans-Serif" font-size="10.00">::driver_connect</text>
</a>
</g>
</g>
<!-- Node1&#45;&gt;Node5 -->
<g id="edge4" class="edge">
<title>Node1&#45;&gt;Node5</title>
<path fill="none" stroke="midnightblue" d="M331.57,-219.6C320.03,-227.02 305.57,-235.78 292,-242.5 284.9,-246.02 277.17,-249.38 269.61,-252.44"/>
<polygon fill="midnightblue" stroke="midnightblue" points="333.68,-222.4 340.13,-214 329.85,-216.55 333.68,-222.4"/>
</g>
<!-- Node7 -->
<g id="node7" class="node">
<title>Node7</title>
<g id="a_node7"><a xlink:href="group__api__calls__fiasco.html#ga11d469f93c5befca8389362282c5cb74" target="_top" xlink:title="Create new trace&#45;buffer entry with describing &lt;text&gt;.">
<polygon fill="white" stroke="black" points="181.5,-214 181.5,-233 271.5,-233 271.5,-214 181.5,-214"/>
<text text-anchor="middle" x="226.5" y="-221" font-family="Helvetica,sans-Serif" font-size="10.00">fiasco_tbuf_log</text>
</a>
</g>
</g>
<!-- Node1&#45;&gt;Node7 -->
<g id="edge6" class="edge">
<title>Node1&#45;&gt;Node7</title>
<path fill="none" stroke="midnightblue" d="M317.77,-209.94C303.38,-212.1 286.69,-214.61 271.61,-216.87"/>
<polygon fill="midnightblue" stroke="midnightblue" points="318.42,-213.38 327.79,-208.44 317.38,-206.46 318.42,-213.38"/>
</g>
<!-- Node8 -->
<g id="node8" class="node">
<title>Node8</title>
<g id="a_node8"><a xlink:href="group__api__calls__fiasco.html#gac59d89f0e05763396f2fcda591ffe870" target="_top" xlink:title="Create new trace&#45;buffer entry with describing &lt;text&gt; and three additional values.">
<polygon fill="white" stroke="black" points="168.5,-176 168.5,-195 284.5,-195 284.5,-176 168.5,-176"/>
<text text-anchor="middle" x="226.5" y="-183" font-family="Helvetica,sans-Serif" font-size="10.00">fiasco_tbuf_log_3val</text>
</a>
</g>
</g>
<!-- Node1&#45;&gt;Node8 -->
<g id="edge7" class="edge">
<title>Node1&#45;&gt;Node8</title>
<path fill="none" stroke="midnightblue" d="M317.89,-199.08C307.54,-197.52 296,-195.79 284.71,-194.09"/>
<polygon fill="midnightblue" stroke="midnightblue" points="317.38,-202.54 327.79,-200.56 318.42,-195.62 317.38,-202.54"/>
</g>
<!-- Node9 -->
<g id="node9" class="node">
<title>Node9</title>
<g id="a_node9"><a xlink:href="group__api__calls__fiasco.html#gacec61dde47b1cf788fcc51614bcc1a2f" target="_top" xlink:title="Create new trace&#45;buffer entry with binary data.">
<polygon fill="white" stroke="black" points="163.5,-138 163.5,-157 289.5,-157 289.5,-138 163.5,-138"/>
<text text-anchor="middle" x="226.5" y="-145" font-family="Helvetica,sans-Serif" font-size="10.00">fiasco_tbuf_log_binary</text>
</a>
</g>
</g>
<!-- Node1&#45;&gt;Node9 -->
<g id="edge8" class="edge">
<title>Node1&#45;&gt;Node9</title>
<path fill="none" stroke="midnightblue" d="M332.25,-189.22C320.7,-181.61 306.02,-172.73 292,-166.5 283.79,-162.85 274.68,-159.68 265.96,-157.02"/>
<polygon fill="midnightblue" stroke="midnightblue" points="330.53,-192.28 340.78,-194.97 334.45,-186.47 330.53,-192.28"/>
</g>
<!-- Node10 -->
<g id="node10" class="node">
<title>Node10</title>
<g id="a_node10"><a xlink:href="classL4Re_1_1Util_1_1Event__t.html#a6052908f83d35a7bb1ba9371cbfc9834" target="_top" xlink:title="Initialise an event object.">
<polygon fill="white" stroke="black" points="173,-88.5 173,-118.5 280,-118.5 280,-88.5 173,-88.5"/>
<text text-anchor="start" x="181" y="-106.5" font-family="Helvetica,sans-Serif" font-size="10.00">L4Re::Util::Event_t</text>
<text text-anchor="middle" x="226.5" y="-95.5" font-family="Helvetica,sans-Serif" font-size="10.00">::init</text>
</a>
</g>
</g>
<!-- Node1&#45;&gt;Node10 -->
<g id="edge9" class="edge">
<title>Node1&#45;&gt;Node10</title>
<path fill="none" stroke="midnightblue" d="M343.22,-186.49C332.23,-169.48 313.74,-144.29 292,-128.5 286.75,-124.69 280.85,-121.37 274.8,-118.51"/>
<polygon fill="midnightblue" stroke="midnightblue" points="340.26,-188.36 348.53,-194.99 346.2,-184.66 340.26,-188.36"/>
</g>
<!-- Node11 -->
<g id="node11" class="node">
<title>Node11</title>
<g id="a_node11"><a xlink:href="group__l4__vcon__api.html#ga899728ba23baf18f59f62142534e039c" target="_top" xlink:title="Write data to this virtual console.">
<polygon fill="white" stroke="black" points="179,-50 179,-69 274,-69 274,-50 179,-50"/>
<text text-anchor="middle" x="226.5" y="-57" font-family="Helvetica,sans-Serif" font-size="10.00">l4_vcon_write_u</text>
</a>
</g>
</g>
<!-- Node1&#45;&gt;Node11 -->
<g id="edge10" class="edge">
<title>Node1&#45;&gt;Node11</title>
<path fill="none" stroke="midnightblue" d="M349.43,-184.74C342.06,-157.2 324.9,-107.53 292,-79.5 286.82,-75.09 280.68,-71.65 274.28,-68.97"/>
<polygon fill="midnightblue" stroke="midnightblue" points="346.12,-185.9 351.94,-194.75 352.91,-184.19 346.12,-185.9"/>
</g>
<!-- Node14 -->
<g id="node14" class="node">
<title>Node14</title>
<g id="a_node14"><a xlink:href="classL4Re_1_1Util_1_1Event__buffer__consumer__t.html#a4ed22b41ce4c7e6b93efae878b1415ef" target="_top" xlink:title="Continuously wait for events and process them.">
<polygon fill="white" stroke="black" points="161,-0.5 161,-30.5 292,-30.5 292,-0.5 161,-0.5"/>
<text text-anchor="start" x="169" y="-18.5" font-family="Helvetica,sans-Serif" font-size="10.00">L4Re::Util::Event_buffer</text>
<text text-anchor="middle" x="226.5" y="-7.5" font-family="Helvetica,sans-Serif" font-size="10.00">_consumer_t::process</text>
</a>
</g>
</g>
<!-- Node1&#45;&gt;Node14 -->
<g id="edge13" class="edge">
<title>Node1&#45;&gt;Node14</title>
<path fill="none" stroke="midnightblue" d="M351.78,-184.9C346.95,-151.03 332.44,-81.28 292,-40.5 288.19,-36.66 283.73,-33.4 278.97,-30.63"/>
<polygon fill="midnightblue" stroke="midnightblue" points="348.32,-185.44 353.07,-194.91 355.27,-184.55 348.32,-185.44"/>
</g>
<!-- Node6 -->
<g id="node6" class="node">
<title>Node6</title>
<g id="a_node6"><a xlink:href="classL4virtio_1_1Driver_1_1Block__device.html#a688df51bdec4ba327a6c0b48a83a115a" target="_top" xlink:title="Setup a connection to a device and set up shared memory.">
<polygon fill="white" stroke="black" points="0,-252.5 0,-282.5 125,-282.5 125,-252.5 0,-252.5"/>
<text text-anchor="start" x="8" y="-270.5" font-family="Helvetica,sans-Serif" font-size="10.00">L4virtio::Driver::Block</text>
<text text-anchor="middle" x="62.5" y="-259.5" font-family="Helvetica,sans-Serif" font-size="10.00">_device::setup_device</text>
</a>
</g>
</g>
<!-- Node5&#45;&gt;Node6 -->
<g id="edge5" class="edge">
<title>Node5&#45;&gt;Node6</title>
<path fill="none" stroke="midnightblue" d="M151.88,-267.5C142.9,-267.5 133.8,-267.5 125.02,-267.5"/>
<polygon fill="midnightblue" stroke="midnightblue" points="151.94,-271 161.94,-267.5 151.94,-264 151.94,-271"/>
</g>
<!-- Node12 -->
<g id="node12" class="node">
<title>Node12</title>
<g id="a_node12"><a xlink:href="group__l4__vcon__api.html#ga9f083a69c2c51329da6778a3af0331bc" target="_top" xlink:title="Write data to virtual console.">
<polygon fill="white" stroke="black" points="20.5,-69 20.5,-88 104.5,-88 104.5,-69 20.5,-69"/>
<text text-anchor="middle" x="62.5" y="-76" font-family="Helvetica,sans-Serif" font-size="10.00">l4_vcon_write</text>
</a>
</g>
</g>
<!-- Node11&#45;&gt;Node12 -->
<g id="edge11" class="edge">
<title>Node11&#45;&gt;Node12</title>
<path fill="none" stroke="midnightblue" d="M168.54,-66.18C147.51,-68.65 124.11,-71.39 104.74,-73.66"/>
<polygon fill="midnightblue" stroke="midnightblue" points="169.12,-69.64 178.64,-65 168.3,-62.68 169.12,-69.64"/>
</g>
<!-- Node13 -->
<g id="node13" class="node">
<title>Node13</title>
<g id="a_node13"><a xlink:href="classL4_1_1Vcon.html#a83407df2f5b674126d33505d73f5d34b" target="_top" xlink:title="Write data to this virtual console.">
<polygon fill="white" stroke="black" points="18,-31 18,-50 107,-50 107,-31 18,-31"/>
<text text-anchor="middle" x="62.5" y="-38" font-family="Helvetica,sans-Serif" font-size="10.00">L4::Vcon::write</text>
</a>
</g>
</g>
<!-- Node11&#45;&gt;Node13 -->
<g id="edge12" class="edge">
<title>Node11&#45;&gt;Node13</title>
<path fill="none" stroke="midnightblue" d="M168.64,-52.83C148.47,-50.47 126.1,-47.84 107.2,-45.63"/>
<polygon fill="midnightblue" stroke="midnightblue" points="168.3,-56.32 178.64,-54 169.12,-49.36 168.3,-56.32"/>
</g>
</g>
</svg>
