<?xml version="1.0" encoding="UTF-8" standalone="no"?>
<!DOCTYPE svg PUBLIC "-//W3C//DTD SVG 1.1//EN"
 "http://www.w3.org/Graphics/SVG/1.1/DTD/svg11.dtd">
<!-- Generated by graphviz version 2.43.0 (0)
 -->
<!-- Title: l4vbus_release_ioport Pages: 1 -->
<svg width="291pt" height="88pt"
 viewBox="0.00 0.00 291.00 88.00" xmlns="http://www.w3.org/2000/svg" xmlns:xlink="http://www.w3.org/1999/xlink">
<g id="graph0" class="graph" transform="scale(1 1) rotate(0) translate(4 84)">
<title>l4vbus_release_ioport</title>
<polygon fill="white" stroke="transparent" points="-4,4 -4,-84 287,-84 287,4 -4,4"/>
<!-- Node1 -->
<g id="node1" class="node">
<title>Node1</title>
<g id="a_node1"><a xlink:title="Release a previously requested IO port resource.">
<polygon fill="#bfbfbf" stroke="black" points="159,-30 159,-49 283,-49 283,-30 159,-30"/>
<text text-anchor="middle" x="221" y="-37" font-family="Helvetica,sans-Serif" font-size="10.00">l4vbus_release_ioport</text>
</a>
</g>
</g>
<!-- Node2 -->
<g id="node2" class="node">
<title>Node2</title>
<g id="a_node2"><a xlink:href="classL4vbus_1_1Vbus.html#aa7a0641bf41be1fee81d4d6a871d5ef9" target="_top" xlink:title="Release the given IO port resource from the bus.">
<polygon fill="white" stroke="black" points="0,-49.5 0,-79.5 123,-79.5 123,-49.5 0,-49.5"/>
<text text-anchor="start" x="8" y="-67.5" font-family="Helvetica,sans-Serif" font-size="10.00">L4vbus::Vbus::release</text>
<text text-anchor="middle" x="61.5" y="-56.5" font-family="Helvetica,sans-Serif" font-size="10.00">_ioport</text>
</a>
</g>
</g>
<!-- Node1&#45;&gt;Node2 -->
<g id="edge1" class="edge">
<title>Node1&#45;&gt;Node2</title>
<path fill="none" stroke="midnightblue" d="M149.98,-50.61C141.02,-52.04 131.9,-53.48 123.11,-54.88"/>
<polygon fill="midnightblue" stroke="midnightblue" points="150.68,-54.05 160.01,-49.02 149.58,-47.13 150.68,-54.05"/>
</g>
<!-- Node3 -->
<g id="node3" class="node">
<title>Node3</title>
<g id="a_node3"><a xlink:href="classL4vbus_1_1Vbus.html#af4047b9cc293b2c78f324a29ec0d3ce1" target="_top" xlink:title="Release the given resource from the bus.">
<polygon fill="white" stroke="black" points="0,-0.5 0,-30.5 123,-30.5 123,-0.5 0,-0.5"/>
<text text-anchor="start" x="8" y="-18.5" font-family="Helvetica,sans-Serif" font-size="10.00">L4vbus::Vbus::release</text>
<text text-anchor="middle" x="61.5" y="-7.5" font-family="Helvetica,sans-Serif" font-size="10.00">_resource</text>
</a>
</g>
</g>
<!-- Node1&#45;&gt;Node3 -->
<g id="edge2" class="edge">
<title>Node1&#45;&gt;Node3</title>
<path fill="none" stroke="midnightblue" d="M148.71,-28.64C140.18,-27.34 131.53,-26.02 123.16,-24.74"/>
<polygon fill="midnightblue" stroke="midnightblue" points="148.24,-32.11 158.66,-30.15 149.3,-25.19 148.24,-32.11"/>
</g>
</g>
</svg>
