<?xml version="1.0" encoding="UTF-8" standalone="no"?>
<!DOCTYPE svg PUBLIC "-//W3C//DTD SVG 1.1//EN"
 "http://www.w3.org/Graphics/SVG/1.1/DTD/svg11.dtd">
<!-- Generated by graphviz version 2.43.0 (0)
 -->
<!-- Title: l4util_cmpxchg Pages: 1 -->
<svg width="224pt" height="142pt"
 viewBox="0.00 0.00 224.00 142.00" xmlns="http://www.w3.org/2000/svg" xmlns:xlink="http://www.w3.org/1999/xlink">
<g id="graph0" class="graph" transform="scale(1 1) rotate(0) translate(4 138)">
<title>l4util_cmpxchg</title>
<polygon fill="white" stroke="transparent" points="-4,4 -4,-138 220,-138 220,4 -4,4"/>
<!-- Node1 -->
<g id="node1" class="node">
<title>Node1</title>
<g id="a_node1"><a xlink:title="Atomic compare and exchange (machine wide fields)">
<polygon fill="#bfbfbf" stroke="black" points="125,-57.5 125,-76.5 216,-76.5 216,-57.5 125,-57.5"/>
<text text-anchor="middle" x="170.5" y="-64.5" font-family="Helvetica,sans-Serif" font-size="10.00">l4util_cmpxchg</text>
</a>
</g>
</g>
<!-- Node2 -->
<g id="node2" class="node">
<title>Node2</title>
<g id="a_node2"><a xlink:href="group__l4util__bitops.html#ga54de534dc4cb8daba99590f38edfd12c" target="_top" xlink:title="Bit test and reset.">
<polygon fill="white" stroke="black" points="14.5,-114.5 14.5,-133.5 74.5,-133.5 74.5,-114.5 14.5,-114.5"/>
<text text-anchor="middle" x="44.5" y="-121.5" font-family="Helvetica,sans-Serif" font-size="10.00">l4util_btr</text>
</a>
</g>
</g>
<!-- Node1&#45;&gt;Node2 -->
<g id="edge1" class="edge">
<title>Node1&#45;&gt;Node2</title>
<path fill="none" stroke="midnightblue" d="M140.31,-81.03C125.07,-88.29 106.08,-97.24 89,-105 82.1,-108.14 74.54,-111.47 67.69,-114.46"/>
<polygon fill="midnightblue" stroke="midnightblue" points="142.21,-84 149.73,-76.53 139.19,-77.68 142.21,-84"/>
</g>
<!-- Node3 -->
<g id="node3" class="node">
<title>Node3</title>
<g id="a_node3"><a xlink:href="group__l4util__bitops.html#gaa19a970e0ccba655837ac519d5adfdf0" target="_top" xlink:title="Bit test and set.">
<polygon fill="white" stroke="black" points="13.5,-76.5 13.5,-95.5 75.5,-95.5 75.5,-76.5 13.5,-76.5"/>
<text text-anchor="middle" x="44.5" y="-83.5" font-family="Helvetica,sans-Serif" font-size="10.00">l4util_bts</text>
</a>
</g>
</g>
<!-- Node1&#45;&gt;Node3 -->
<g id="edge2" class="edge">
<title>Node1&#45;&gt;Node3</title>
<path fill="none" stroke="midnightblue" d="M114.67,-75.4C101.34,-77.44 87.57,-79.55 75.85,-81.35"/>
<polygon fill="midnightblue" stroke="midnightblue" points="115.38,-78.83 124.73,-73.86 114.32,-71.91 115.38,-78.83"/>
</g>
<!-- Node4 -->
<g id="node4" class="node">
<title>Node4</title>
<g id="a_node4"><a xlink:href="group__l4util__bitops.html#gab1ab1fd14748d27abd7862942b5ae46b" target="_top" xlink:title="Clear bit in memory.">
<polygon fill="white" stroke="black" points="0,-38.5 0,-57.5 89,-57.5 89,-38.5 0,-38.5"/>
<text text-anchor="middle" x="44.5" y="-45.5" font-family="Helvetica,sans-Serif" font-size="10.00">l4util_clear_bit</text>
</a>
</g>
</g>
<!-- Node1&#45;&gt;Node4 -->
<g id="edge3" class="edge">
<title>Node1&#45;&gt;Node4</title>
<path fill="none" stroke="midnightblue" d="M114.57,-58.58C106.14,-57.29 97.52,-55.97 89.37,-54.72"/>
<polygon fill="midnightblue" stroke="midnightblue" points="114.32,-62.09 124.73,-60.14 115.38,-55.17 114.32,-62.09"/>
</g>
<!-- Node5 -->
<g id="node5" class="node">
<title>Node5</title>
<g id="a_node5"><a xlink:href="group__l4util__bitops.html#ga1e5017ce33e0af71dc00a526ffa46f0b" target="_top" xlink:title="Set bit in memory.">
<polygon fill="white" stroke="black" points="4.5,-0.5 4.5,-19.5 84.5,-19.5 84.5,-0.5 4.5,-0.5"/>
<text text-anchor="middle" x="44.5" y="-7.5" font-family="Helvetica,sans-Serif" font-size="10.00">l4util_set_bit</text>
</a>
</g>
</g>
<!-- Node1&#45;&gt;Node5 -->
<g id="edge4" class="edge">
<title>Node1&#45;&gt;Node5</title>
<path fill="none" stroke="midnightblue" d="M140.31,-52.97C125.07,-45.71 106.08,-36.76 89,-29 82.1,-25.86 74.54,-22.53 67.69,-19.54"/>
<polygon fill="midnightblue" stroke="midnightblue" points="139.19,-56.32 149.73,-57.47 142.21,-50 139.19,-56.32"/>
</g>
</g>
</svg>
