<?xml version="1.0" encoding="UTF-8" standalone="no"?>
<!DOCTYPE svg PUBLIC "-//W3C//DTD SVG 1.1//EN"
 "http://www.w3.org/Graphics/SVG/1.1/DTD/svg11.dtd">
<!-- Generated by graphviz version 2.43.0 (0)
 -->
<!-- Title: l4_usleep Pages: 1 -->
<svg width="387pt" height="28pt"
 viewBox="0.00 0.00 387.00 28.00" xmlns="http://www.w3.org/2000/svg" xmlns:xlink="http://www.w3.org/1999/xlink">
<g id="graph0" class="graph" transform="scale(1 1) rotate(0) translate(4 24)">
<title>l4_usleep</title>
<polygon fill="white" stroke="transparent" points="-4,4 -4,-24 383,-24 383,4 -4,4"/>
<!-- Node1 -->
<g id="node1" class="node">
<title>Node1</title>
<g id="a_node1"><a xlink:title="Suspend thread for a period of us microseconds.">
<polygon fill="#bfbfbf" stroke="black" points="0,-0.5 0,-19.5 63,-19.5 63,-0.5 0,-0.5"/>
<text text-anchor="middle" x="31.5" y="-7.5" font-family="Helvetica,sans-Serif" font-size="10.00">l4_usleep</text>
</a>
</g>
</g>
<!-- Node2 -->
<g id="node2" class="node">
<title>Node2</title>
<g id="a_node2"><a xlink:href="group__l4__ipc__api.html#gac3b4a3b13e77b799dc154c57a04cdd9b" target="_top" xlink:title="Sleep for an amount of time.">
<polygon fill="white" stroke="black" points="99,-0.5 99,-19.5 176,-19.5 176,-0.5 99,-0.5"/>
<text text-anchor="middle" x="137.5" y="-7.5" font-family="Helvetica,sans-Serif" font-size="10.00">l4_ipc_sleep</text>
</a>
</g>
</g>
<!-- Node1&#45;&gt;Node2 -->
<g id="edge1" class="edge">
<title>Node1&#45;&gt;Node2</title>
<path fill="none" stroke="midnightblue" d="M63.14,-10C71.15,-10 79.98,-10 88.65,-10"/>
<polygon fill="midnightblue" stroke="midnightblue" points="88.71,-13.5 98.71,-10 88.71,-6.5 88.71,-13.5"/>
</g>
<!-- Node3 -->
<g id="node3" class="node">
<title>Node3</title>
<g id="a_node3"><a xlink:href="group__l4__ipc__api.html#ga3a8617092651c67f9ef1670b53fce66c" target="_top" xlink:title="Wait for a message from a specific source.">
<polygon fill="white" stroke="black" points="212,-0.5 212,-19.5 298,-19.5 298,-0.5 212,-0.5"/>
<text text-anchor="middle" x="255" y="-7.5" font-family="Helvetica,sans-Serif" font-size="10.00">l4_ipc_receive</text>
</a>
</g>
</g>
<!-- Node2&#45;&gt;Node3 -->
<g id="edge2" class="edge">
<title>Node2&#45;&gt;Node3</title>
<path fill="none" stroke="midnightblue" d="M176.32,-10C184.36,-10 193,-10 201.48,-10"/>
<polygon fill="midnightblue" stroke="midnightblue" points="201.7,-13.5 211.7,-10 201.7,-6.5 201.7,-13.5"/>
</g>
<!-- Node4 -->
<g id="node4" class="node">
<title>Node4</title>
<g id="a_node4"><a xlink:href="group__l4__ipc__api.html#ga0e7e5b18d784b1d3439ea6e5b4bea4e2" target="_top" xlink:title="Generic L4 object invocation.">
<polygon fill="white" stroke="black" points="334,-0.5 334,-19.5 379,-19.5 379,-0.5 334,-0.5"/>
<text text-anchor="middle" x="356.5" y="-7.5" font-family="Helvetica,sans-Serif" font-size="10.00">l4_ipc</text>
</a>
</g>
</g>
<!-- Node3&#45;&gt;Node4 -->
<g id="edge3" class="edge">
<title>Node3&#45;&gt;Node4</title>
<path fill="none" stroke="midnightblue" d="M298.2,-10C306.74,-10 315.59,-10 323.7,-10"/>
<polygon fill="midnightblue" stroke="midnightblue" points="323.86,-13.5 333.86,-10 323.86,-6.5 323.86,-13.5"/>
</g>
</g>
</svg>
