<?xml version="1.0" encoding="UTF-8" standalone="no"?>
<!DOCTYPE svg PUBLIC "-//W3C//DTD SVG 1.1//EN"
 "http://www.w3.org/Graphics/SVG/1.1/DTD/svg11.dtd">
<!-- Generated by graphviz version 2.43.0 (0)
 -->
<!-- Title: Thread Pages: 1 -->
<svg width="304pt" height="64pt"
 viewBox="0.00 0.00 304.00 64.00" xmlns="http://www.w3.org/2000/svg" xmlns:xlink="http://www.w3.org/1999/xlink">
<g id="graph0" class="graph" transform="scale(1 1) rotate(0) translate(4 60)">
<title>Thread</title>
<polygon fill="white" stroke="transparent" points="-4,4 -4,-60 300,-60 300,4 -4,4"/>
<!-- Node3 -->
<g id="node1" class="node">
<title>Node3</title>
<g id="a_node1"><a xlink:href="group__l4__thread__control__api.html" target="_top" xlink:title="API for Thread Control method.">
<polygon fill="white" stroke="black" points="296,-56 209,-56 209,-37 296,-37 296,-56"/>
<text text-anchor="middle" x="252.5" y="-44" font-family="Helvetica,sans-Serif" font-size="10.00">Thread control</text>
</a>
</g>
</g>
<!-- Node1 -->
<g id="node2" class="node">
<title>Node1</title>
<g id="a_node2"><a xlink:title="Thread object.">
<polygon fill="#bfbfbf" stroke="black" points="173,-37 123,-37 123,-18 173,-18 173,-37"/>
<text text-anchor="middle" x="148" y="-25" font-family="Helvetica,sans-Serif" font-size="10.00">Thread</text>
</a>
</g>
</g>
<!-- Node1&#45;&gt;Node3 -->
<g id="edge2" class="edge">
<title>Node1&#45;&gt;Node3</title>
<path fill="none" stroke="black" d="M183.03,-33.81C191.26,-35.33 200.16,-36.98 208.74,-38.57"/>
<polygon fill="black" stroke="black" points="183.5,-30.34 173.03,-31.95 182.23,-37.22 183.5,-30.34"/>
</g>
<!-- Node4 -->
<g id="node3" class="node">
<title>Node4</title>
<g id="a_node3"><a xlink:href="group__l4__vcpu__api.html" target="_top" xlink:title="vCPU API">
<polygon fill="white" stroke="black" points="283.5,-19 221.5,-19 221.5,0 283.5,0 283.5,-19"/>
<text text-anchor="middle" x="252.5" y="-7" font-family="Helvetica,sans-Serif" font-size="10.00">vCPU API</text>
</a>
</g>
</g>
<!-- Node1&#45;&gt;Node4 -->
<g id="edge3" class="edge">
<title>Node1&#45;&gt;Node4</title>
<path fill="none" stroke="black" d="M183.01,-21.53C195.41,-19.35 209.34,-16.9 221.38,-14.79"/>
<polygon fill="black" stroke="black" points="182.28,-18.1 173.03,-23.28 183.49,-25 182.28,-18.1"/>
</g>
<!-- Node2 -->
<g id="node4" class="node">
<title>Node2</title>
<g id="a_node4"><a xlink:href="group__l4__kernel__object__api.html" target="_top" xlink:title="API of kernel objects.">
<polygon fill="white" stroke="black" points="87,-37 0,-37 0,-18 87,-18 87,-37"/>
<text text-anchor="middle" x="43.5" y="-25" font-family="Helvetica,sans-Serif" font-size="10.00">Kernel Objects</text>
</a>
</g>
</g>
<!-- Node2&#45;&gt;Node1 -->
<g id="edge1" class="edge">
<title>Node2&#45;&gt;Node1</title>
<path fill="none" stroke="black" d="M97.19,-27.5C106.17,-27.5 115.1,-27.5 122.86,-27.5"/>
<polygon fill="black" stroke="black" points="97.08,-24 87.08,-27.5 97.08,-31 97.08,-24"/>
</g>
</g>
</svg>
