<?xml version="1.0" encoding="UTF-8" standalone="no"?>
<!DOCTYPE svg PUBLIC "-//W3C//DTD SVG 1.1//EN"
 "http://www.w3.org/Graphics/SVG/1.1/DTD/svg11.dtd">
<!-- Generated by graphviz version 2.43.0 (0)
 -->
<!-- Title: Interface for asynchronous ISR handlers with a given IRQ capability. Pages: 1 -->
<svg width="338pt" height="49pt"
 viewBox="0.00 0.00 338.00 49.00" xmlns="http://www.w3.org/2000/svg" xmlns:xlink="http://www.w3.org/1999/xlink">
<g id="graph0" class="graph" transform="scale(1 1) rotate(0) translate(4 45)">
<title>Interface for asynchronous ISR handlers with a given IRQ capability.</title>
<polygon fill="white" stroke="transparent" points="-4,4 -4,-45 334,-45 334,4 -4,4"/>
<!-- Node2 -->
<g id="node1" class="node">
<title>Node2</title>
<g id="a_node1"><a xlink:href="group__l4irq__api__async.html" target="_top" xlink:title="This interface has just two (main) functions.">
<polygon fill="white" stroke="black" points="147,-35.5 0,-35.5 0,-5.5 147,-5.5 147,-35.5"/>
<text text-anchor="start" x="8" y="-23.5" font-family="Helvetica,sans-Serif" font-size="10.00">Interface for asynchronous</text>
<text text-anchor="middle" x="73.5" y="-12.5" font-family="Helvetica,sans-Serif" font-size="10.00"> ISR handlers.</text>
</a>
</g>
</g>
<!-- Node1 -->
<g id="node2" class="node">
<title>Node1</title>
<g id="a_node2"><a xlink:title="This group is just an enhanced version to l4irq_request() which takes a capability object instead of ...">
<polygon fill="#bfbfbf" stroke="black" points="330,-41 183,-41 183,0 330,0 330,-41"/>
<text text-anchor="start" x="191" y="-29" font-family="Helvetica,sans-Serif" font-size="10.00">Interface for asynchronous</text>
<text text-anchor="start" x="191" y="-18" font-family="Helvetica,sans-Serif" font-size="10.00"> ISR handlers with a given</text>
<text text-anchor="middle" x="256.5" y="-7" font-family="Helvetica,sans-Serif" font-size="10.00"> IRQ capability.</text>
</a>
</g>
</g>
<!-- Node2&#45;&gt;Node1 -->
<g id="edge1" class="edge">
<title>Node2&#45;&gt;Node1</title>
<path fill="none" stroke="black" d="M157.12,-20.5C165.72,-20.5 174.42,-20.5 182.91,-20.5"/>
<polygon fill="black" stroke="black" points="157.08,-17 147.08,-20.5 157.08,-24 157.08,-17"/>
</g>
</g>
</svg>
