<?xml version="1.0" encoding="UTF-8" standalone="no"?>
<!DOCTYPE svg PUBLIC "-//W3C//DTD SVG 1.1//EN"
 "http://www.w3.org/Graphics/SVG/1.1/DTD/svg11.dtd">
<!-- Generated by graphviz version 2.43.0 (0)
 -->
<!-- Title: x86 Virtual Registers (UTCB) Pages: 1 -->
<svg width="502pt" height="86pt"
 viewBox="0.00 0.00 502.00 86.00" xmlns="http://www.w3.org/2000/svg" xmlns:xlink="http://www.w3.org/1999/xlink">
<g id="graph0" class="graph" transform="scale(1 1) rotate(0) translate(4 82)">
<title>x86 Virtual Registers (UTCB)</title>
<polygon fill="white" stroke="transparent" points="-4,4 -4,-82 498,-82 498,4 -4,4"/>
<!-- Node1 -->
<g id="node1" class="node">
<title>Node1</title>
<g id="a_node1"><a xlink:title=" ">
<polygon fill="#bfbfbf" stroke="black" points="257,-54 138,-54 138,-24 257,-24 257,-54"/>
<text text-anchor="start" x="146" y="-42" font-family="Helvetica,sans-Serif" font-size="10.00">x86 Virtual Registers</text>
<text text-anchor="middle" x="197.5" y="-31" font-family="Helvetica,sans-Serif" font-size="10.00"> (UTCB)</text>
</a>
</g>
</g>
<!-- Node4 -->
<g id="node3" class="node">
<title>Node4</title>
<g id="a_node3"><a xlink:href="group__l4__utcb__api__amd64.html" target="_top" xlink:title=" ">
<polygon fill="white" stroke="black" points="494,-78 360,-78 360,-48 494,-48 494,-78"/>
<text text-anchor="start" x="368" y="-66" font-family="Helvetica,sans-Serif" font-size="10.00">amd64 Virtual Registers</text>
<text text-anchor="middle" x="427" y="-55" font-family="Helvetica,sans-Serif" font-size="10.00"> (UTCB)</text>
</a>
</g>
</g>
<!-- Node1&#45;&gt;Node4 -->
<g id="edge3" class="edge">
<title>Node1&#45;&gt;Node4</title>
<path fill="none" stroke="orange" stroke-dasharray="5,2" d="M257.09,-45.18C288.55,-48.5 327.45,-52.6 359.98,-56.04"/>
<text text-anchor="middle" x="308.5" y="-56" font-family="Helvetica,sans-Serif" font-size="10.00">l4_exc_regs_t</text>
</g>
<!-- Node3 -->
<g id="node4" class="node">
<title>Node3</title>
<g id="a_node4"><a xlink:href="group__l4__utcb__api__arm.html" target="_top" xlink:title=" ">
<polygon fill="white" stroke="black" points="488.5,-30 365.5,-30 365.5,0 488.5,0 488.5,-30"/>
<text text-anchor="start" x="373.5" y="-18" font-family="Helvetica,sans-Serif" font-size="10.00">ARM Virtual Registers</text>
<text text-anchor="middle" x="427" y="-7" font-family="Helvetica,sans-Serif" font-size="10.00"> (UTCB)</text>
</a>
</g>
</g>
<!-- Node1&#45;&gt;Node3 -->
<g id="edge2" class="edge">
<title>Node1&#45;&gt;Node3</title>
<path fill="none" stroke="orange" stroke-dasharray="5,2" d="M257.38,-31.96C263.33,-31.29 269.28,-30.62 275,-30 304.73,-26.78 337.78,-23.46 365.36,-20.77"/>
<text text-anchor="middle" x="308.5" y="-33" font-family="Helvetica,sans-Serif" font-size="10.00">l4_exc_regs_t</text>
</g>
<!-- Node2 -->
<g id="node2" class="node">
<title>Node2</title>
<g id="a_node2"><a xlink:href="group__l4__utcb__api.html" target="_top" xlink:title="L4 Virtual Registers (UTCB).">
<polygon fill="white" stroke="black" points="101,-54 0,-54 0,-24 101,-24 101,-54"/>
<text text-anchor="start" x="8" y="-42" font-family="Helvetica,sans-Serif" font-size="10.00">Virtual Registers </text>
<text text-anchor="middle" x="50.5" y="-31" font-family="Helvetica,sans-Serif" font-size="10.00">(UTCBs)</text>
</a>
</g>
</g>
<!-- Node2&#45;&gt;Node1 -->
<g id="edge1" class="edge">
<title>Node2&#45;&gt;Node1</title>
<path fill="none" stroke="black" d="M111.46,-39C120.16,-39 129.1,-39 137.77,-39"/>
<polygon fill="black" stroke="black" points="111.4,-35.5 101.4,-39 111.4,-42.5 111.4,-35.5"/>
</g>
</g>
</svg>
