<?xml version="1.0" encoding="UTF-8" standalone="no"?>
<!DOCTYPE svg PUBLIC "-//W3C//DTD SVG 1.1//EN"
 "http://www.w3.org/Graphics/SVG/1.1/DTD/svg11.dtd">
<!-- Generated by graphviz version 2.43.0 (0)
 -->
<!-- Title: l4re_rm_detach_srv Pages: 1 -->
<svg width="305pt" height="142pt"
 viewBox="0.00 0.00 305.00 142.00" xmlns="http://www.w3.org/2000/svg" xmlns:xlink="http://www.w3.org/1999/xlink">
<g id="graph0" class="graph" transform="scale(1 1) rotate(0) translate(4 138)">
<title>l4re_rm_detach_srv</title>
<polygon fill="white" stroke="transparent" points="-4,4 -4,-138 301,-138 301,4 -4,4"/>
<!-- Node1 -->
<g id="node1" class="node">
<title>Node1</title>
<g id="a_node1"><a xlink:title=" ">
<polygon fill="#bfbfbf" stroke="black" points="184,-57.5 184,-76.5 297,-76.5 297,-57.5 184,-57.5"/>
<text text-anchor="middle" x="240.5" y="-64.5" font-family="Helvetica,sans-Serif" font-size="10.00">l4re_rm_detach_srv</text>
</a>
</g>
</g>
<!-- Node2 -->
<g id="node2" class="node">
<title>Node2</title>
<g id="a_node2"><a xlink:href="group__api__l4re__c__rm.html#ga5d553540131111a12f66712bb6d4d449" target="_top" xlink:title="Detach and unmap in current task.">
<polygon fill="white" stroke="black" points="28,-114.5 28,-133.5 120,-133.5 120,-114.5 28,-114.5"/>
<text text-anchor="middle" x="74" y="-121.5" font-family="Helvetica,sans-Serif" font-size="10.00">l4re_rm_detach</text>
</a>
</g>
</g>
<!-- Node1&#45;&gt;Node2 -->
<g id="edge1" class="edge">
<title>Node1&#45;&gt;Node2</title>
<path fill="none" stroke="midnightblue" d="M209.51,-80.7C191.84,-88.45 168.91,-97.97 148,-105 137.7,-108.46 126.4,-111.68 115.84,-114.44"/>
<polygon fill="midnightblue" stroke="midnightblue" points="211.02,-83.85 218.74,-76.6 208.18,-77.46 211.02,-83.85"/>
</g>
<!-- Node3 -->
<g id="node3" class="node">
<title>Node3</title>
<g id="a_node3"><a xlink:href="group__api__l4re__c__rm.html#gab808c5167e7464afa8be55a1650c938a" target="_top" xlink:title="Detach, unmap and return affected dataspace in current task.">
<polygon fill="white" stroke="black" points="19.5,-76.5 19.5,-95.5 128.5,-95.5 128.5,-76.5 19.5,-76.5"/>
<text text-anchor="middle" x="74" y="-83.5" font-family="Helvetica,sans-Serif" font-size="10.00">l4re_rm_detach_ds</text>
</a>
</g>
</g>
<!-- Node1&#45;&gt;Node3 -->
<g id="edge2" class="edge">
<title>Node1&#45;&gt;Node3</title>
<path fill="none" stroke="midnightblue" d="M173.62,-74.61C158.7,-76.33 143.03,-78.14 128.69,-79.8"/>
<polygon fill="midnightblue" stroke="midnightblue" points="174.28,-78.06 183.81,-73.43 173.47,-71.1 174.28,-78.06"/>
</g>
<!-- Node4 -->
<g id="node4" class="node">
<title>Node4</title>
<g id="a_node4"><a xlink:href="group__api__l4re__c__rm.html#gaf909259f07302cc9f7d4798192aa58f4" target="_top" xlink:title="Detach and unmap in specified task.">
<polygon fill="white" stroke="black" points="0,-38.5 0,-57.5 148,-57.5 148,-38.5 0,-38.5"/>
<text text-anchor="middle" x="74" y="-45.5" font-family="Helvetica,sans-Serif" font-size="10.00">l4re_rm_detach_ds_unmap</text>
</a>
</g>
</g>
<!-- Node1&#45;&gt;Node4 -->
<g id="edge3" class="edge">
<title>Node1&#45;&gt;Node4</title>
<path fill="none" stroke="midnightblue" d="M173.7,-59.4C165.29,-58.43 156.65,-57.43 148.13,-56.45"/>
<polygon fill="midnightblue" stroke="midnightblue" points="173.47,-62.9 183.81,-60.57 174.28,-55.94 173.47,-62.9"/>
</g>
<!-- Node5 -->
<g id="node5" class="node">
<title>Node5</title>
<g id="a_node5"><a xlink:href="group__api__l4re__c__rm.html#gac52716554eaf92c93e3634f1dbde236b" target="_top" xlink:title="Detach and unmap in specified task.">
<polygon fill="white" stroke="black" points="8.5,-0.5 8.5,-19.5 139.5,-19.5 139.5,-0.5 8.5,-0.5"/>
<text text-anchor="middle" x="74" y="-7.5" font-family="Helvetica,sans-Serif" font-size="10.00">l4re_rm_detach_unmap</text>
</a>
</g>
</g>
<!-- Node1&#45;&gt;Node5 -->
<g id="edge4" class="edge">
<title>Node1&#45;&gt;Node5</title>
<path fill="none" stroke="midnightblue" d="M209.51,-53.3C191.84,-45.55 168.91,-36.03 148,-29 137.7,-25.54 126.4,-22.32 115.84,-19.56"/>
<polygon fill="midnightblue" stroke="midnightblue" points="208.18,-56.54 218.74,-57.4 211.02,-50.15 208.18,-56.54"/>
</g>
</g>
</svg>
