<?xml version="1.0" encoding="UTF-8" standalone="no"?>
<!DOCTYPE svg PUBLIC "-//W3C//DTD SVG 1.1//EN"
 "http://www.w3.org/Graphics/SVG/1.1/DTD/svg11.dtd">
<!-- Generated by graphviz version 2.43.0 (0)
 -->
<!-- Title: l4_task_unmap Pages: 1 -->
<svg width="422pt" height="137pt"
 viewBox="0.00 0.00 422.00 137.00" xmlns="http://www.w3.org/2000/svg" xmlns:xlink="http://www.w3.org/1999/xlink">
<g id="graph0" class="graph" transform="scale(1 1) rotate(0) translate(4 133)">
<title>l4_task_unmap</title>
<polygon fill="white" stroke="transparent" points="-4,4 -4,-133 418,-133 418,4 -4,4"/>
<!-- Node1 -->
<g id="node1" class="node">
<title>Node1</title>
<g id="a_node1"><a xlink:title="Revoke rights from the task.">
<polygon fill="#bfbfbf" stroke="black" points="323,-55 323,-74 414,-74 414,-55 323,-55"/>
<text text-anchor="middle" x="368.5" y="-62" font-family="Helvetica,sans-Serif" font-size="10.00">l4_task_unmap</text>
</a>
</g>
</g>
<!-- Node2 -->
<g id="node2" class="node">
<title>Node2</title>
<g id="a_node2"><a xlink:href="classL4Re_1_1Util_1_1Cap__alloc__base.html#afe4cbd695e9050e2827d17e7e960e67d" target="_top" xlink:title="Free a capability slot.">
<polygon fill="white" stroke="black" points="170,-98.5 170,-128.5 287,-128.5 287,-98.5 170,-98.5"/>
<text text-anchor="start" x="178" y="-116.5" font-family="Helvetica,sans-Serif" font-size="10.00">L4Re::Util::Cap_alloc</text>
<text text-anchor="middle" x="228.5" y="-105.5" font-family="Helvetica,sans-Serif" font-size="10.00">_base::free</text>
</a>
</g>
</g>
<!-- Node1&#45;&gt;Node2 -->
<g id="edge1" class="edge">
<title>Node1&#45;&gt;Node2</title>
<path fill="none" stroke="midnightblue" d="M330.92,-77.49C312.77,-83.93 290.73,-91.76 271.85,-98.46"/>
<polygon fill="midnightblue" stroke="midnightblue" points="332.31,-80.71 340.56,-74.06 329.97,-74.11 332.31,-80.71"/>
</g>
<!-- Node3 -->
<g id="node3" class="node">
<title>Node3</title>
<g id="a_node3"><a xlink:href="classL4Re_1_1Util_1_1Counting__cap__alloc.html#a4f65c951a2cc3aae899c67e1ef325a8a" target="_top" xlink:title="Free the capability.">
<polygon fill="white" stroke="black" points="172,-49.5 172,-79.5 285,-79.5 285,-49.5 172,-49.5"/>
<text text-anchor="start" x="180" y="-67.5" font-family="Helvetica,sans-Serif" font-size="10.00">L4Re::Util::Counting</text>
<text text-anchor="middle" x="228.5" y="-56.5" font-family="Helvetica,sans-Serif" font-size="10.00">_cap_alloc::free</text>
</a>
</g>
</g>
<!-- Node1&#45;&gt;Node3 -->
<g id="edge2" class="edge">
<title>Node1&#45;&gt;Node3</title>
<path fill="none" stroke="midnightblue" d="M312.67,-64.5C303.63,-64.5 294.25,-64.5 285.19,-64.5"/>
<polygon fill="midnightblue" stroke="midnightblue" points="312.7,-68 322.7,-64.5 312.7,-61 312.7,-68"/>
</g>
<!-- Node6 -->
<g id="node6" class="node">
<title>Node6</title>
<g id="a_node6"><a xlink:href="classL4Re_1_1Util_1_1Counting__cap__alloc.html#aa27af115ce976a4073a5c53f09a88ee4" target="_top" xlink:title="Decrease the reference counter for a capability.">
<polygon fill="white" stroke="black" points="172,-0.5 172,-30.5 285,-30.5 285,-0.5 172,-0.5"/>
<text text-anchor="start" x="180" y="-18.5" font-family="Helvetica,sans-Serif" font-size="10.00">L4Re::Util::Counting</text>
<text text-anchor="middle" x="228.5" y="-7.5" font-family="Helvetica,sans-Serif" font-size="10.00">_cap_alloc::release</text>
</a>
</g>
</g>
<!-- Node1&#45;&gt;Node6 -->
<g id="edge5" class="edge">
<title>Node1&#45;&gt;Node6</title>
<path fill="none" stroke="midnightblue" d="M330.92,-51.51C312.77,-45.07 290.73,-37.24 271.85,-30.54"/>
<polygon fill="midnightblue" stroke="midnightblue" points="329.97,-54.89 340.56,-54.94 332.31,-48.29 329.97,-54.89"/>
</g>
<!-- Node4 -->
<g id="node4" class="node">
<title>Node4</title>
<g id="a_node4"><a xlink:href="classL4Re_1_1Util_1_1Smart__cap__auto.html#a4dfba4f2c4731689f1a53992c83371a6" target="_top" xlink:title="Free operation for L4::Smart_cap.">
<polygon fill="white" stroke="black" points="6,-98.5 6,-128.5 128,-128.5 128,-98.5 6,-98.5"/>
<text text-anchor="start" x="14" y="-116.5" font-family="Helvetica,sans-Serif" font-size="10.00">L4Re::Util::Smart_cap</text>
<text text-anchor="middle" x="67" y="-105.5" font-family="Helvetica,sans-Serif" font-size="10.00">_auto::free</text>
</a>
</g>
</g>
<!-- Node3&#45;&gt;Node4 -->
<g id="edge3" class="edge">
<title>Node3&#45;&gt;Node4</title>
<path fill="none" stroke="midnightblue" d="M168.54,-82.61C151.58,-87.82 133.28,-93.45 116.99,-98.45"/>
<polygon fill="midnightblue" stroke="midnightblue" points="169.81,-85.88 178.34,-79.6 167.76,-79.19 169.81,-85.88"/>
</g>
<!-- Node5 -->
<g id="node5" class="node">
<title>Node5</title>
<g id="a_node5"><a xlink:href="classL4Re_1_1Util_1_1Object__registry.html#aeeea59583ffddfef4e7c1c3e6eed41b6" target="_top" xlink:title="Remove a server object from the handler list.">
<polygon fill="white" stroke="black" points="0,-49.5 0,-79.5 134,-79.5 134,-49.5 0,-49.5"/>
<text text-anchor="start" x="8" y="-67.5" font-family="Helvetica,sans-Serif" font-size="10.00">L4Re::Util::Object</text>
<text text-anchor="middle" x="67" y="-56.5" font-family="Helvetica,sans-Serif" font-size="10.00">_registry::unregister_obj</text>
</a>
</g>
</g>
<!-- Node3&#45;&gt;Node5 -->
<g id="edge4" class="edge">
<title>Node3&#45;&gt;Node5</title>
<path fill="none" stroke="midnightblue" d="M161.61,-64.5C152.54,-64.5 143.23,-64.5 134.16,-64.5"/>
<polygon fill="midnightblue" stroke="midnightblue" points="161.71,-68 171.71,-64.5 161.71,-61 161.71,-68"/>
</g>
<!-- Node7 -->
<g id="node7" class="node">
<title>Node7</title>
<g id="a_node7"><a xlink:href="classL4Re_1_1Util_1_1Smart__count__cap.html#ab983007403f2b6e4dc3963bcaa70e80a" target="_top" xlink:title="Free operation for L4::Smart_cap (decrement ref count and delete if 0).">
<polygon fill="white" stroke="black" points="1.5,-0.5 1.5,-30.5 132.5,-30.5 132.5,-0.5 1.5,-0.5"/>
<text text-anchor="start" x="9.5" y="-18.5" font-family="Helvetica,sans-Serif" font-size="10.00">L4Re::Util::Smart_count</text>
<text text-anchor="middle" x="67" y="-7.5" font-family="Helvetica,sans-Serif" font-size="10.00">_cap::free</text>
</a>
</g>
</g>
<!-- Node6&#45;&gt;Node7 -->
<g id="edge6" class="edge">
<title>Node6&#45;&gt;Node7</title>
<path fill="none" stroke="midnightblue" d="M161.53,-15.5C152.03,-15.5 142.26,-15.5 132.77,-15.5"/>
<polygon fill="midnightblue" stroke="midnightblue" points="161.71,-19 171.71,-15.5 161.71,-12 161.71,-19"/>
</g>
</g>
</svg>
