<?xml version="1.0" encoding="UTF-8" standalone="no"?>
<!DOCTYPE svg PUBLIC "-//W3C//DTD SVG 1.1//EN"
 "http://www.w3.org/Graphics/SVG/1.1/DTD/svg11.dtd">
<!-- Generated by graphviz version 2.43.0 (0)
 -->
<!-- Title: l4_vcon_get_attr_u Pages: 1 -->
<svg width="255pt" height="66pt"
 viewBox="0.00 0.00 255.00 66.00" xmlns="http://www.w3.org/2000/svg" xmlns:xlink="http://www.w3.org/1999/xlink">
<g id="graph0" class="graph" transform="scale(1 1) rotate(0) translate(4 62)">
<title>l4_vcon_get_attr_u</title>
<polygon fill="white" stroke="transparent" points="-4,4 -4,-62 251,-62 251,4 -4,4"/>
<!-- Node1 -->
<g id="node1" class="node">
<title>Node1</title>
<g id="a_node1"><a xlink:title="Get attributes of this virtual console.">
<polygon fill="#bfbfbf" stroke="black" points="138,-19.5 138,-38.5 247,-38.5 247,-19.5 138,-19.5"/>
<text text-anchor="middle" x="192.5" y="-26.5" font-family="Helvetica,sans-Serif" font-size="10.00">l4_vcon_get_attr_u</text>
</a>
</g>
</g>
<!-- Node2 -->
<g id="node2" class="node">
<title>Node2</title>
<g id="a_node2"><a xlink:href="classL4_1_1Vcon.html#a367997ce7608f9fd170828bba6d025ed" target="_top" xlink:title="Get attributes of this virtual console.">
<polygon fill="white" stroke="black" points="0,-38.5 0,-57.5 102,-57.5 102,-38.5 0,-38.5"/>
<text text-anchor="middle" x="51" y="-45.5" font-family="Helvetica,sans-Serif" font-size="10.00">L4::Vcon::get_attr</text>
</a>
</g>
</g>
<!-- Node1&#45;&gt;Node2 -->
<g id="edge1" class="edge">
<title>Node1&#45;&gt;Node2</title>
<path fill="none" stroke="midnightblue" d="M127.99,-37.65C119.42,-38.82 110.72,-40 102.41,-41.13"/>
<polygon fill="midnightblue" stroke="midnightblue" points="128.53,-41.11 137.96,-36.29 127.58,-34.17 128.53,-41.11"/>
</g>
<!-- Node3 -->
<g id="node3" class="node">
<title>Node3</title>
<g id="a_node3"><a xlink:href="group__l4__vcon__api.html#gadc134de4289402f313cae68717e0a5d4" target="_top" xlink:title="Get attributes of a Vcon.">
<polygon fill="white" stroke="black" points="2,-0.5 2,-19.5 100,-19.5 100,-0.5 2,-0.5"/>
<text text-anchor="middle" x="51" y="-7.5" font-family="Helvetica,sans-Serif" font-size="10.00">l4_vcon_get_attr</text>
</a>
</g>
</g>
<!-- Node1&#45;&gt;Node3 -->
<g id="edge2" class="edge">
<title>Node1&#45;&gt;Node3</title>
<path fill="none" stroke="midnightblue" d="M127.92,-20.34C118.59,-19.07 109.1,-17.78 100.14,-16.56"/>
<polygon fill="midnightblue" stroke="midnightblue" points="127.58,-23.83 137.96,-21.71 128.53,-16.89 127.58,-23.83"/>
</g>
</g>
</svg>
