<?xml version="1.0" encoding="UTF-8" standalone="no"?>
<!DOCTYPE svg PUBLIC "-//W3C//DTD SVG 1.1//EN"
 "http://www.w3.org/Graphics/SVG/1.1/DTD/svg11.dtd">
<!-- Generated by graphviz version 2.43.0 (0)
 -->
<!-- Title: Object Invocation Pages: 1 -->
<svg width="342pt" height="224pt"
 viewBox="0.00 0.00 342.00 224.00" xmlns="http://www.w3.org/2000/svg" xmlns:xlink="http://www.w3.org/1999/xlink">
<g id="graph0" class="graph" transform="scale(1 1) rotate(0) translate(4 220)">
<title>Object Invocation</title>
<polygon fill="white" stroke="transparent" points="-4,4 -4,-220 338,-220 338,4 -4,4"/>
<!-- Node6 -->
<g id="node1" class="node">
<title>Node6</title>
<g id="a_node1"><a xlink:href="group__l4__ipc__rt__api.html" target="_top" xlink:title=" ">
<polygon fill="white" stroke="black" points="323.5,-216 243.5,-216 243.5,-197 323.5,-197 323.5,-216"/>
<text text-anchor="middle" x="283.5" y="-204" font-family="Helvetica,sans-Serif" font-size="10.00">Realtime API</text>
</a>
</g>
</g>
<!-- Node8 -->
<g id="node2" class="node">
<title>Node8</title>
<g id="a_node2"><a xlink:href="group__l4__utcb__api.html" target="_top" xlink:title="L4 Virtual Registers (UTCB).">
<polygon fill="white" stroke="black" points="334,-178.5 233,-178.5 233,-148.5 334,-148.5 334,-178.5"/>
<text text-anchor="start" x="241" y="-166.5" font-family="Helvetica,sans-Serif" font-size="10.00">Virtual Registers </text>
<text text-anchor="middle" x="283.5" y="-155.5" font-family="Helvetica,sans-Serif" font-size="10.00">(UTCBs)</text>
</a>
</g>
</g>
<!-- Node3 -->
<g id="node3" class="node">
<title>Node3</title>
<g id="a_node3"><a xlink:href="group__l4__ipc__err__api.html" target="_top" xlink:title="Error handling for L4 object invocation.">
<polygon fill="white" stroke="black" points="326.5,-130 240.5,-130 240.5,-111 326.5,-111 326.5,-130"/>
<text text-anchor="middle" x="283.5" y="-118" font-family="Helvetica,sans-Serif" font-size="10.00">Error Handling</text>
</a>
</g>
</g>
<!-- Node7 -->
<g id="node4" class="node">
<title>Node7</title>
<g id="a_node4"><a xlink:href="group__l4__timeout__api.html" target="_top" xlink:title="All kinds of timeouts and time related functions.">
<polygon fill="white" stroke="black" points="314.5,-93 252.5,-93 252.5,-74 314.5,-74 314.5,-93"/>
<text text-anchor="middle" x="283.5" y="-81" font-family="Helvetica,sans-Serif" font-size="10.00">Timeouts</text>
</a>
</g>
</g>
<!-- Node4 -->
<g id="node5" class="node">
<title>Node4</title>
<g id="a_node5"><a xlink:href="group__l4__msgitem__api.html" target="_top" xlink:title="Message item related functions.">
<polygon fill="white" stroke="black" points="329,-56 238,-56 238,-37 329,-37 329,-56"/>
<text text-anchor="middle" x="283.5" y="-44" font-family="Helvetica,sans-Serif" font-size="10.00">Message Items</text>
</a>
</g>
</g>
<!-- Node2 -->
<g id="node6" class="node">
<title>Node2</title>
<g id="a_node6"><a xlink:href="group__l4__api.html" target="_top" xlink:title="Interfaces for all kinds of base functionality.">
<polygon fill="white" stroke="black" points="59,-111 0,-111 0,-92 59,-92 59,-111"/>
<text text-anchor="middle" x="29.5" y="-99" font-family="Helvetica,sans-Serif" font-size="10.00">Base API</text>
</a>
</g>
</g>
<!-- Node1 -->
<g id="node7" class="node">
<title>Node1</title>
<g id="a_node7"><a xlink:title="API for L4 object invocation.">
<polygon fill="#bfbfbf" stroke="black" points="197,-111 95,-111 95,-92 197,-92 197,-111"/>
<text text-anchor="middle" x="146" y="-99" font-family="Helvetica,sans-Serif" font-size="10.00">Object Invocation</text>
</a>
</g>
</g>
<!-- Node2&#45;&gt;Node1 -->
<g id="edge1" class="edge">
<title>Node2&#45;&gt;Node1</title>
<path fill="none" stroke="black" d="M69.2,-101.5C77.47,-101.5 86.32,-101.5 94.95,-101.5"/>
<polygon fill="black" stroke="black" points="69.1,-98 59.1,-101.5 69.1,-105 69.1,-98"/>
</g>
<!-- Node1&#45;&gt;Node6 -->
<g id="edge5" class="edge">
<title>Node1&#45;&gt;Node6</title>
<path fill="none" stroke="black" d="M160.62,-118.96C176.29,-138.05 203.67,-168.45 233,-187.5 238.71,-191.21 245.26,-194.36 251.68,-196.97"/>
<polygon fill="black" stroke="black" points="163.27,-116.67 154.28,-111.07 157.81,-121.06 163.27,-116.67"/>
</g>
<!-- Node1&#45;&gt;Node8 -->
<g id="edge7" class="edge">
<title>Node1&#45;&gt;Node8</title>
<path fill="none" stroke="black" d="M177.16,-115.3C198.6,-125.11 227.4,-138.29 249.46,-148.38"/>
<polygon fill="black" stroke="black" points="178.42,-112.03 167.87,-111.05 175.51,-118.4 178.42,-112.03"/>
</g>
<!-- Node1&#45;&gt;Node3 -->
<g id="edge2" class="edge">
<title>Node1&#45;&gt;Node3</title>
<path fill="none" stroke="black" d="M207.18,-109.94C218.32,-111.5 229.73,-113.1 240.19,-114.57"/>
<polygon fill="black" stroke="black" points="207.46,-106.44 197.07,-108.52 206.49,-113.38 207.46,-106.44"/>
</g>
<!-- Node1&#45;&gt;Node7 -->
<g id="edge6" class="edge">
<title>Node1&#45;&gt;Node7</title>
<path fill="none" stroke="black" d="M207.22,-93.5C222.83,-91.43 238.98,-89.28 252.3,-87.51"/>
<polygon fill="black" stroke="black" points="206.52,-90.06 197.07,-94.85 207.44,-97 206.52,-90.06"/>
</g>
<!-- Node1&#45;&gt;Node4 -->
<g id="edge3" class="edge">
<title>Node1&#45;&gt;Node4</title>
<path fill="none" stroke="black" d="M177.98,-87.66C194.26,-80.52 214.61,-71.79 233,-64.5 240.23,-61.63 248.11,-58.69 255.42,-56.03"/>
<polygon fill="black" stroke="black" points="176.15,-84.64 168.42,-91.88 178.98,-91.05 176.15,-84.64"/>
</g>
<!-- Node5 -->
<g id="node8" class="node">
<title>Node5</title>
<g id="a_node8"><a xlink:href="group__l4__msgtag__api.html" target="_top" xlink:title="API related to the message tag data type.">
<polygon fill="white" stroke="black" points="323.5,-19 243.5,-19 243.5,0 323.5,0 323.5,-19"/>
<text text-anchor="middle" x="283.5" y="-7" font-family="Helvetica,sans-Serif" font-size="10.00">Message Tag</text>
</a>
</g>
</g>
<!-- Node1&#45;&gt;Node5 -->
<g id="edge4" class="edge">
<title>Node1&#45;&gt;Node5</title>
<path fill="none" stroke="black" d="M163.31,-84.22C179.64,-67.77 206.12,-43.24 233,-27.5 238.52,-24.27 244.73,-21.45 250.83,-19.08"/>
<polygon fill="black" stroke="black" points="160.62,-81.97 156.16,-91.58 165.64,-86.85 160.62,-81.97"/>
</g>
</g>
</svg>
