<?xml version="1.0" encoding="UTF-8" standalone="no"?>
<!DOCTYPE svg PUBLIC "-//W3C//DTD SVG 1.1//EN"
 "http://www.w3.org/Graphics/SVG/1.1/DTD/svg11.dtd">
<!-- Generated by graphviz version 2.43.0 (0)
 -->
<!-- Title: l4_ipc_receive Pages: 1 -->
<svg width="356pt" height="85pt"
 viewBox="0.00 0.00 356.00 85.00" xmlns="http://www.w3.org/2000/svg" xmlns:xlink="http://www.w3.org/1999/xlink">
<g id="graph0" class="graph" transform="scale(1 1) rotate(0) translate(4 81)">
<title>l4_ipc_receive</title>
<polygon fill="white" stroke="transparent" points="-4,4 -4,-81 352,-81 352,4 -4,4"/>
<!-- Node1 -->
<g id="node1" class="node">
<title>Node1</title>
<g id="a_node1"><a xlink:title="Wait for a message from a specific source.">
<polygon fill="#bfbfbf" stroke="black" points="262,-19.5 262,-38.5 348,-38.5 348,-19.5 262,-19.5"/>
<text text-anchor="middle" x="305" y="-26.5" font-family="Helvetica,sans-Serif" font-size="10.00">l4_ipc_receive</text>
</a>
</g>
</g>
<!-- Node2 -->
<g id="node2" class="node">
<title>Node2</title>
<g id="a_node2"><a xlink:href="group__l4__ipc__api.html#gac3b4a3b13e77b799dc154c57a04cdd9b" target="_top" xlink:title="Sleep for an amount of time.">
<polygon fill="white" stroke="black" points="141.5,-38.5 141.5,-57.5 218.5,-57.5 218.5,-38.5 141.5,-38.5"/>
<text text-anchor="middle" x="180" y="-45.5" font-family="Helvetica,sans-Serif" font-size="10.00">l4_ipc_sleep</text>
</a>
</g>
</g>
<!-- Node1&#45;&gt;Node2 -->
<g id="edge1" class="edge">
<title>Node1&#45;&gt;Node2</title>
<path fill="none" stroke="midnightblue" d="M251.7,-37.08C240.68,-38.78 229.25,-40.55 218.88,-42.15"/>
<polygon fill="midnightblue" stroke="midnightblue" points="252.32,-40.52 261.67,-35.54 251.25,-33.61 252.32,-40.52"/>
</g>
<!-- Node5 -->
<g id="node5" class="node">
<title>Node5</title>
<g id="a_node5"><a xlink:href="group__l4__thread__api.html#ga5e47131f486f920826b5f72dad82bafe" target="_top" xlink:title="Yield current time slice.">
<polygon fill="white" stroke="black" points="134,-0.5 134,-19.5 226,-19.5 226,-0.5 134,-0.5"/>
<text text-anchor="middle" x="180" y="-7.5" font-family="Helvetica,sans-Serif" font-size="10.00">l4_thread_yield</text>
</a>
</g>
</g>
<!-- Node1&#45;&gt;Node5 -->
<g id="edge4" class="edge">
<title>Node1&#45;&gt;Node5</title>
<path fill="none" stroke="midnightblue" d="M251.59,-20.9C243.19,-19.61 234.56,-18.27 226.35,-17"/>
<polygon fill="midnightblue" stroke="midnightblue" points="251.25,-24.39 261.67,-22.46 252.32,-17.48 251.25,-24.39"/>
</g>
<!-- Node3 -->
<g id="node3" class="node">
<title>Node3</title>
<g id="a_node3"><a xlink:href="group__l4util__api.html#ga3a74b4dee439a339ed5a6368845cad37" target="_top" xlink:title="Go sleep and never wake up.">
<polygon fill="white" stroke="black" points="0,-57.5 0,-76.5 98,-76.5 98,-57.5 0,-57.5"/>
<text text-anchor="middle" x="49" y="-64.5" font-family="Helvetica,sans-Serif" font-size="10.00">l4_sleep_forever</text>
</a>
</g>
</g>
<!-- Node2&#45;&gt;Node3 -->
<g id="edge2" class="edge">
<title>Node2&#45;&gt;Node3</title>
<path fill="none" stroke="midnightblue" d="M131.21,-55.04C120.39,-56.63 108.89,-58.33 98.05,-59.92"/>
<polygon fill="midnightblue" stroke="midnightblue" points="131.96,-58.47 141.34,-53.55 130.94,-51.54 131.96,-58.47"/>
</g>
<!-- Node4 -->
<g id="node4" class="node">
<title>Node4</title>
<g id="a_node4"><a xlink:href="group__l4util__api.html#ga88934d990c73f40eebe52998d894ff69" target="_top" xlink:title="Suspend thread for a period of us microseconds.">
<polygon fill="white" stroke="black" points="17.5,-19.5 17.5,-38.5 80.5,-38.5 80.5,-19.5 17.5,-19.5"/>
<text text-anchor="middle" x="49" y="-26.5" font-family="Helvetica,sans-Serif" font-size="10.00">l4_usleep</text>
</a>
</g>
</g>
<!-- Node2&#45;&gt;Node4 -->
<g id="edge3" class="edge">
<title>Node2&#45;&gt;Node4</title>
<path fill="none" stroke="midnightblue" d="M131.07,-40.94C114.16,-38.45 95.62,-35.72 80.55,-33.5"/>
<polygon fill="midnightblue" stroke="midnightblue" points="130.94,-44.46 141.34,-42.45 131.96,-37.53 130.94,-44.46"/>
</g>
</g>
</svg>
