<?xml version="1.0" encoding="UTF-8" standalone="no"?>
<!DOCTYPE svg PUBLIC "-//W3C//DTD SVG 1.1//EN"
 "http://www.w3.org/Graphics/SVG/1.1/DTD/svg11.dtd">
<!-- Generated by graphviz version 2.43.0 (0)
 -->
<!-- Title: l4_round_size Pages: 1 -->
<svg width="448pt" height="127pt"
 viewBox="0.00 0.00 448.00 126.50" xmlns="http://www.w3.org/2000/svg" xmlns:xlink="http://www.w3.org/1999/xlink">
<g id="graph0" class="graph" transform="scale(1 1) rotate(0) translate(4 122.5)">
<title>l4_round_size</title>
<polygon fill="white" stroke="transparent" points="-4,4 -4,-122.5 444,-122.5 444,4 -4,4"/>
<!-- Node1 -->
<g id="node1" class="node">
<title>Node1</title>
<g id="a_node1"><a xlink:title="Round value up to the next alignment with bits size.">
<polygon fill="#bfbfbf" stroke="black" points="357,-55 357,-74 440,-74 440,-55 357,-55"/>
<text text-anchor="middle" x="398.5" y="-62" font-family="Helvetica,sans-Serif" font-size="10.00">l4_round_size</text>
</a>
</g>
</g>
<!-- Node2 -->
<g id="node2" class="node">
<title>Node2</title>
<g id="a_node2"><a xlink:href="classcxx_1_1List__alloc.html#a9028a4d3bf8a79f61b2d6ee16736f51a" target="_top" xlink:title="Allocate a memory block of min &lt;= size &lt;= max.">
<polygon fill="white" stroke="black" points="179,-99 179,-118 321,-118 321,-99 179,-99"/>
<text text-anchor="middle" x="250" y="-106" font-family="Helvetica,sans-Serif" font-size="10.00">cxx::List_alloc::alloc_max</text>
</a>
</g>
</g>
<!-- Node1&#45;&gt;Node2 -->
<g id="edge1" class="edge">
<title>Node1&#45;&gt;Node2</title>
<path fill="none" stroke="midnightblue" d="M359.75,-77.26C347.44,-81.3 333.68,-85.71 321,-89.5 310.14,-92.75 298.27,-96.06 287.43,-98.99"/>
<polygon fill="midnightblue" stroke="midnightblue" points="360.88,-80.57 369.27,-74.1 358.68,-73.93 360.88,-80.57"/>
</g>
<!-- Node3 -->
<g id="node3" class="node">
<title>Node3</title>
<g id="a_node3"><a xlink:href="classL4virtio_1_1Driver_1_1Block__device.html#a688df51bdec4ba327a6c0b48a83a115a" target="_top" xlink:title="Setup a connection to a device and set up shared memory.">
<polygon fill="white" stroke="black" points="187.5,-49.5 187.5,-79.5 312.5,-79.5 312.5,-49.5 187.5,-49.5"/>
<text text-anchor="start" x="195.5" y="-67.5" font-family="Helvetica,sans-Serif" font-size="10.00">L4virtio::Driver::Block</text>
<text text-anchor="middle" x="250" y="-56.5" font-family="Helvetica,sans-Serif" font-size="10.00">_device::setup_device</text>
</a>
</g>
</g>
<!-- Node1&#45;&gt;Node3 -->
<g id="edge2" class="edge">
<title>Node1&#45;&gt;Node3</title>
<path fill="none" stroke="midnightblue" d="M346.49,-64.5C335.59,-64.5 323.95,-64.5 312.69,-64.5"/>
<polygon fill="midnightblue" stroke="midnightblue" points="346.69,-68 356.69,-64.5 346.69,-61 346.69,-68"/>
</g>
<!-- Node4 -->
<g id="node4" class="node">
<title>Node4</title>
<g id="a_node4"><a xlink:href="classL4virtio_1_1Virtqueue.html#a437c0ed2eb83201cc69c41d011503036" target="_top" xlink:title="Enable this queue.">
<polygon fill="white" stroke="black" points="196.5,-0.5 196.5,-30.5 303.5,-30.5 303.5,-0.5 196.5,-0.5"/>
<text text-anchor="start" x="204.5" y="-18.5" font-family="Helvetica,sans-Serif" font-size="10.00">L4virtio::Virtqueue</text>
<text text-anchor="middle" x="250" y="-7.5" font-family="Helvetica,sans-Serif" font-size="10.00">::setup_simple</text>
</a>
</g>
</g>
<!-- Node1&#45;&gt;Node4 -->
<g id="edge3" class="edge">
<title>Node1&#45;&gt;Node4</title>
<path fill="none" stroke="midnightblue" d="M359.2,-51.69C339.83,-45.21 316.19,-37.3 295.96,-30.54"/>
<polygon fill="midnightblue" stroke="midnightblue" points="358.31,-55.08 368.91,-54.94 360.53,-48.44 358.31,-55.08"/>
</g>
<!-- Node5 -->
<g id="node5" class="node">
<title>Node5</title>
<g id="a_node5"><a xlink:href="classL4virtio_1_1Driver_1_1Virtqueue.html#a285bae271e6acfe9c5bfa3df388c6b17" target="_top" xlink:title="Initialize this virtqueue.">
<polygon fill="white" stroke="black" points="0,-0.5 0,-30.5 143,-30.5 143,-0.5 0,-0.5"/>
<text text-anchor="start" x="8" y="-18.5" font-family="Helvetica,sans-Serif" font-size="10.00">L4virtio::Driver::Virtqueue</text>
<text text-anchor="middle" x="71.5" y="-7.5" font-family="Helvetica,sans-Serif" font-size="10.00">::init_queue</text>
</a>
</g>
</g>
<!-- Node4&#45;&gt;Node5 -->
<g id="edge4" class="edge">
<title>Node4&#45;&gt;Node5</title>
<path fill="none" stroke="midnightblue" d="M185.67,-15.5C171.85,-15.5 157.14,-15.5 143.06,-15.5"/>
<polygon fill="midnightblue" stroke="midnightblue" points="186.04,-19 196.04,-15.5 186.04,-12 186.04,-19"/>
</g>
</g>
</svg>
