<?xml version="1.0" encoding="UTF-8" standalone="no"?>
<!DOCTYPE svg PUBLIC "-//W3C//DTD SVG 1.1//EN"
 "http://www.w3.org/Graphics/SVG/1.1/DTD/svg11.dtd">
<!-- Generated by graphviz version 2.43.0 (0)
 -->
<!-- Title: l4_fpage_contains Pages: 1 -->
<svg width="260pt" height="66pt"
 viewBox="0.00 0.00 260.00 66.00" xmlns="http://www.w3.org/2000/svg" xmlns:xlink="http://www.w3.org/1999/xlink">
<g id="graph0" class="graph" transform="scale(1 1) rotate(0) translate(4 62)">
<title>l4_fpage_contains</title>
<polygon fill="white" stroke="transparent" points="-4,4 -4,-62 256,-62 256,4 -4,4"/>
<!-- Node1 -->
<g id="node1" class="node">
<title>Node1</title>
<g id="a_node1"><a xlink:title="Test whether a given range is completely within an fpage.">
<polygon fill="#bfbfbf" stroke="black" points="0,-19.5 0,-38.5 105,-38.5 105,-19.5 0,-19.5"/>
<text text-anchor="middle" x="52.5" y="-26.5" font-family="Helvetica,sans-Serif" font-size="10.00">l4_fpage_contains</text>
</a>
</g>
</g>
<!-- Node2 -->
<g id="node2" class="node">
<title>Node2</title>
<g id="a_node2"><a xlink:href="group__l4__fpage__api.html#ga87c7b03e1b72e9cfed3ad4b31a0c58ba" target="_top" xlink:title="Return the memory address from the memory flex page.">
<polygon fill="white" stroke="black" points="141,-38.5 141,-57.5 252,-57.5 252,-38.5 141,-38.5"/>
<text text-anchor="middle" x="196.5" y="-45.5" font-family="Helvetica,sans-Serif" font-size="10.00">l4_fpage_memaddr</text>
</a>
</g>
</g>
<!-- Node1&#45;&gt;Node2 -->
<g id="edge1" class="edge">
<title>Node1&#45;&gt;Node2</title>
<path fill="none" stroke="midnightblue" d="M105.17,-35.91C113.49,-37.03 122.19,-38.19 130.78,-39.34"/>
<polygon fill="midnightblue" stroke="midnightblue" points="130.39,-42.82 140.76,-40.68 131.32,-35.88 130.39,-42.82"/>
</g>
<!-- Node3 -->
<g id="node3" class="node">
<title>Node3</title>
<g id="a_node3"><a xlink:href="group__l4__fpage__api.html#ga905f25ce8cd4e02fb988702dc85e18e0" target="_top" xlink:title="Return size from a flex page.">
<polygon fill="white" stroke="black" points="155,-0.5 155,-19.5 238,-19.5 238,-0.5 155,-0.5"/>
<text text-anchor="middle" x="196.5" y="-7.5" font-family="Helvetica,sans-Serif" font-size="10.00">l4_fpage_size</text>
</a>
</g>
</g>
<!-- Node1&#45;&gt;Node3 -->
<g id="edge2" class="edge">
<title>Node1&#45;&gt;Node3</title>
<path fill="none" stroke="midnightblue" d="M105.17,-22.09C118.06,-20.36 131.87,-18.51 144.71,-16.8"/>
<polygon fill="midnightblue" stroke="midnightblue" points="145.33,-20.24 154.77,-15.45 144.4,-13.31 145.33,-20.24"/>
</g>
</g>
</svg>
