<?xml version="1.0" encoding="UTF-8" standalone="no"?>
<!DOCTYPE svg PUBLIC "-//W3C//DTD SVG 1.1//EN"
 "http://www.w3.org/Graphics/SVG/1.1/DTD/svg11.dtd">
<!-- Generated by graphviz version 2.43.0 (0)
 -->
<!-- Title: Base API Pages: 1 -->
<svg width="261pt" height="471pt"
 viewBox="0.00 0.00 261.00 471.00" xmlns="http://www.w3.org/2000/svg" xmlns:xlink="http://www.w3.org/1999/xlink">
<g id="graph0" class="graph" transform="scale(1 1) rotate(0) translate(4 467)">
<title>Base API</title>
<polygon fill="white" stroke="transparent" points="-4,4 -4,-467 257,-467 257,4 -4,4"/>
<!-- Node10 -->
<g id="node1" class="node">
<title>Node10</title>
<g id="a_node1"><a xlink:href="group__l4__kip__api.html" target="_top" xlink:title="Kernel Interface Page.">
<polygon fill="white" stroke="black" points="234,-463 114,-463 114,-444 234,-444 234,-463"/>
<text text-anchor="middle" x="174" y="-451" font-family="Helvetica,sans-Serif" font-size="10.00">Kernel Interface Page</text>
</a>
</g>
</g>
<!-- Node6 -->
<g id="node2" class="node">
<title>Node6</title>
<g id="a_node2"><a xlink:href="group__l4__error__api.html" target="_top" xlink:title="Common error codes.">
<polygon fill="white" stroke="black" points="209.5,-426 138.5,-426 138.5,-407 209.5,-407 209.5,-426"/>
<text text-anchor="middle" x="174" y="-414" font-family="Helvetica,sans-Serif" font-size="10.00">Error codes</text>
</a>
</g>
</g>
<!-- Node9 -->
<g id="node3" class="node">
<title>Node9</title>
<g id="a_node3"><a xlink:href="group__l4__basic__types.html" target="_top" xlink:title=" ">
<polygon fill="white" stroke="black" points="215,-389 133,-389 133,-370 215,-370 215,-389"/>
<text text-anchor="middle" x="174" y="-377" font-family="Helvetica,sans-Serif" font-size="10.00">Integer Types</text>
</a>
</g>
</g>
<!-- Node12 -->
<g id="node4" class="node">
<title>Node12</title>
<g id="a_node4"><a xlink:href="group__l4__mem__op__api.html" target="_top" xlink:title="Operations for memory access.">
<polygon fill="white" stroke="black" points="231.5,-352 116.5,-352 116.5,-333 231.5,-333 231.5,-352"/>
<text text-anchor="middle" x="174" y="-340" font-family="Helvetica,sans-Serif" font-size="10.00">Memory operations.</text>
</a>
</g>
</g>
<!-- Node8 -->
<g id="node5" class="node">
<title>Node8</title>
<g id="a_node5"><a xlink:href="group__l4__fpage__api.html" target="_top" xlink:title="Flex&#45;page related API.">
<polygon fill="white" stroke="black" points="209,-315 139,-315 139,-296 209,-296 209,-315"/>
<text text-anchor="middle" x="174" y="-303" font-family="Helvetica,sans-Serif" font-size="10.00">Flex pages</text>
</a>
</g>
</g>
<!-- Node3 -->
<g id="node6" class="node">
<title>Node3</title>
<g id="a_node6"><a xlink:href="group__l4__cxx__ipc__ifaces.html" target="_top" xlink:title="APIs for defining IPC interfaces using C++ as language.">
<polygon fill="white" stroke="black" points="253,-278 95,-278 95,-259 253,-259 253,-278"/>
<text text-anchor="middle" x="174" y="-266" font-family="Helvetica,sans-Serif" font-size="10.00">C++ IPC Interface Definition.</text>
</a>
</g>
</g>
<!-- Node1 -->
<g id="node7" class="node">
<title>Node1</title>
<g id="a_node7"><a xlink:title="Interfaces for all kinds of base functionality.">
<polygon fill="#bfbfbf" stroke="black" points="59,-241 0,-241 0,-222 59,-222 59,-241"/>
<text text-anchor="middle" x="29.5" y="-229" font-family="Helvetica,sans-Serif" font-size="10.00">Base API</text>
</a>
</g>
</g>
<!-- Node1&#45;&gt;Node10 -->
<g id="edge9" class="edge">
<title>Node1&#45;&gt;Node10</title>
<path fill="none" stroke="black" d="M30.64,-251.4C32.07,-292.27 41.37,-385.97 95,-435.5 100.41,-440.5 106.92,-444.2 113.85,-446.92"/>
<polygon fill="black" stroke="black" points="34.14,-251.27 30.42,-241.35 27.14,-251.43 34.14,-251.27"/>
</g>
<!-- Node1&#45;&gt;Node6 -->
<g id="edge5" class="edge">
<title>Node1&#45;&gt;Node6</title>
<path fill="none" stroke="black" d="M32.23,-251.14C36.41,-286.25 50.3,-359.73 95,-398.5 106.86,-408.79 123.45,-413.5 138.28,-415.56"/>
<polygon fill="black" stroke="black" points="35.71,-250.76 31.19,-241.18 28.75,-251.49 35.71,-250.76"/>
</g>
<!-- Node1&#45;&gt;Node9 -->
<g id="edge8" class="edge">
<title>Node1&#45;&gt;Node9</title>
<path fill="none" stroke="black" d="M34.65,-251.17C41.79,-279.97 59.22,-333.24 95,-361.5 105.69,-369.94 119.62,-374.56 132.75,-377.04"/>
<polygon fill="black" stroke="black" points="37.99,-250.07 32.33,-241.11 31.17,-251.64 37.99,-250.07"/>
</g>
<!-- Node1&#45;&gt;Node12 -->
<g id="edge11" class="edge">
<title>Node1&#45;&gt;Node12</title>
<path fill="none" stroke="black" d="M38.51,-250.51C48.53,-271.89 67.74,-306.03 95,-324.5 101.44,-328.87 108.8,-332.18 116.36,-334.7"/>
<polygon fill="black" stroke="black" points="41.61,-248.87 34.34,-241.16 35.22,-251.72 41.61,-248.87"/>
</g>
<!-- Node1&#45;&gt;Node8 -->
<g id="edge7" class="edge">
<title>Node1&#45;&gt;Node8</title>
<path fill="none" stroke="black" d="M45.71,-248.62C57.85,-261.22 75.92,-277.79 95,-287.5 108.5,-294.37 124.64,-298.66 138.73,-301.31"/>
<polygon fill="black" stroke="black" points="48.02,-245.96 38.65,-241.02 42.89,-250.72 48.02,-245.96"/>
</g>
<!-- Node1&#45;&gt;Node3 -->
<g id="edge2" class="edge">
<title>Node1&#45;&gt;Node3</title>
<path fill="none" stroke="black" d="M69.02,-243.26C77.55,-245.74 86.56,-248.29 95,-250.5 106.16,-253.43 118.28,-256.35 129.57,-258.96"/>
<polygon fill="black" stroke="black" points="69.88,-239.86 59.29,-240.38 67.89,-246.57 69.88,-239.86"/>
</g>
<!-- Node14 -->
<g id="node8" class="node">
<title>Node14</title>
<g id="a_node8"><a xlink:href="group__l4__ipc__api.html" target="_top" xlink:title="API for L4 object invocation.">
<polygon fill="white" stroke="black" points="225,-241 123,-241 123,-222 225,-222 225,-241"/>
<text text-anchor="middle" x="174" y="-229" font-family="Helvetica,sans-Serif" font-size="10.00">Object Invocation</text>
</a>
</g>
</g>
<!-- Node1&#45;&gt;Node14 -->
<g id="edge13" class="edge">
<title>Node1&#45;&gt;Node14</title>
<path fill="none" stroke="black" d="M69.67,-231.5C86.1,-231.5 105.41,-231.5 122.86,-231.5"/>
<polygon fill="black" stroke="black" points="69.34,-228 59.34,-231.5 69.34,-235 69.34,-228"/>
</g>
<!-- Node13 -->
<g id="node9" class="node">
<title>Node13</title>
<g id="a_node9"><a xlink:href="group__l4__memory__api.html" target="_top" xlink:title="Memory related constants, data types and functions.">
<polygon fill="white" stroke="black" points="221.5,-204 126.5,-204 126.5,-185 221.5,-185 221.5,-204"/>
<text text-anchor="middle" x="174" y="-192" font-family="Helvetica,sans-Serif" font-size="10.00">Memory related</text>
</a>
</g>
</g>
<!-- Node1&#45;&gt;Node13 -->
<g id="edge12" class="edge">
<title>Node1&#45;&gt;Node13</title>
<path fill="none" stroke="black" d="M68.82,-220.58C77.42,-218.19 86.51,-215.72 95,-213.5 107.27,-210.29 120.67,-206.97 132.85,-204.01"/>
<polygon fill="black" stroke="black" points="67.71,-217.26 59.02,-223.32 69.59,-224 67.71,-217.26"/>
</g>
<!-- Node7 -->
<g id="node10" class="node">
<title>Node7</title>
<g id="a_node10"><a xlink:href="group__api__calls__fiasco.html" target="_top" xlink:title="Kernel debugger extensions of the Fiasco L4 implementation.">
<polygon fill="white" stroke="black" points="226,-167 122,-167 122,-148 226,-148 226,-167"/>
<text text-anchor="middle" x="174" y="-155" font-family="Helvetica,sans-Serif" font-size="10.00">Fiasco extensions</text>
</a>
</g>
</g>
<!-- Node1&#45;&gt;Node7 -->
<g id="edge6" class="edge">
<title>Node1&#45;&gt;Node7</title>
<path fill="none" stroke="black" d="M46.22,-214.34C58.4,-202.06 76.3,-186.06 95,-176.5 103.32,-172.25 112.62,-168.92 121.83,-166.33"/>
<polygon fill="black" stroke="black" points="43.49,-212.13 39.1,-221.77 48.54,-216.98 43.49,-212.13"/>
</g>
<!-- Node11 -->
<g id="node11" class="node">
<title>Node11</title>
<g id="a_node11"><a xlink:href="group__l4__kernel__object__api.html" target="_top" xlink:title="API of kernel objects.">
<polygon fill="white" stroke="black" points="217.5,-130 130.5,-130 130.5,-111 217.5,-111 217.5,-130"/>
<text text-anchor="middle" x="174" y="-118" font-family="Helvetica,sans-Serif" font-size="10.00">Kernel Objects</text>
</a>
</g>
</g>
<!-- Node1&#45;&gt;Node11 -->
<g id="edge10" class="edge">
<title>Node1&#45;&gt;Node11</title>
<path fill="none" stroke="black" d="M38.61,-212.75C48.71,-191.66 68,-157.93 95,-139.5 105.36,-132.43 118.07,-127.98 130.21,-125.18"/>
<polygon fill="black" stroke="black" points="35.37,-211.42 34.39,-221.97 41.73,-214.33 35.37,-211.42"/>
</g>
<!-- Node5 -->
<g id="node12" class="node">
<title>Node5</title>
<g id="a_node12"><a xlink:href="group__l4__cap__api.html" target="_top" xlink:title="C interface for capabilities.">
<polygon fill="white" stroke="black" points="211,-93 137,-93 137,-74 211,-74 211,-93"/>
<text text-anchor="middle" x="174" y="-81" font-family="Helvetica,sans-Serif" font-size="10.00">Capabilities</text>
</a>
</g>
</g>
<!-- Node1&#45;&gt;Node5 -->
<g id="edge4" class="edge">
<title>Node1&#45;&gt;Node5</title>
<path fill="none" stroke="black" d="M34.74,-212.03C42,-183.53 59.57,-130.75 95,-102.5 106.77,-93.12 122.49,-88.27 136.74,-85.8"/>
<polygon fill="black" stroke="black" points="31.28,-211.45 32.38,-221.99 38.09,-213.07 31.28,-211.45"/>
</g>
<!-- Node4 -->
<g id="node13" class="node">
<title>Node4</title>
<g id="a_node13"><a xlink:href="group__l4__cache__api.html" target="_top" xlink:title="Various functions for cache consistency.">
<polygon fill="white" stroke="black" points="228.5,-56 119.5,-56 119.5,-37 228.5,-37 228.5,-56"/>
<text text-anchor="middle" x="174" y="-44" font-family="Helvetica,sans-Serif" font-size="10.00">Cache Consistency</text>
</a>
</g>
</g>
<!-- Node1&#45;&gt;Node4 -->
<g id="edge3" class="edge">
<title>Node1&#45;&gt;Node4</title>
<path fill="none" stroke="black" d="M32.37,-211.57C36.75,-176.57 50.92,-104.13 95,-65.5 101.92,-59.44 110.45,-55.24 119.31,-52.34"/>
<polygon fill="black" stroke="black" points="28.85,-211.58 31.23,-221.9 35.81,-212.35 28.85,-211.58"/>
</g>
<!-- Node2 -->
<g id="node14" class="node">
<title>Node2</title>
<g id="a_node14"><a xlink:href="group__l4sys__defines.html" target="_top" xlink:title="L4 standard macros for header files, function definitions, and public APIs etc.">
<polygon fill="white" stroke="black" points="214.5,-19 133.5,-19 133.5,0 214.5,0 214.5,-19"/>
<text text-anchor="middle" x="174" y="-7" font-family="Helvetica,sans-Serif" font-size="10.00">Basic Macros</text>
</a>
</g>
</g>
<!-- Node1&#45;&gt;Node2 -->
<g id="edge1" class="edge">
<title>Node1&#45;&gt;Node2</title>
<path fill="none" stroke="black" d="M30.73,-211.49C32.35,-170.78 41.99,-77.99 95,-28.5 105.29,-18.89 119.6,-13.91 133.16,-11.4"/>
<polygon fill="black" stroke="black" points="27.23,-211.63 30.46,-221.72 34.23,-211.82 27.23,-211.63"/>
</g>
</g>
</svg>
