<?xml version="1.0" encoding="UTF-8" standalone="no"?>
<!DOCTYPE svg PUBLIC "-//W3C//DTD SVG 1.1//EN"
 "http://www.w3.org/Graphics/SVG/1.1/DTD/svg11.dtd">
<!-- Generated by graphviz version 2.43.0 (0)
 -->
<!-- Title: amd64 Virtual Registers (UTCB) Pages: 1 -->
<svg width="506pt" height="86pt"
 viewBox="0.00 0.00 506.00 86.00" xmlns="http://www.w3.org/2000/svg" xmlns:xlink="http://www.w3.org/1999/xlink">
<g id="graph0" class="graph" transform="scale(1 1) rotate(0) translate(4 82)">
<title>amd64 Virtual Registers (UTCB)</title>
<polygon fill="white" stroke="transparent" points="-4,4 -4,-82 502,-82 502,4 -4,4"/>
<!-- Node4 -->
<g id="node1" class="node">
<title>Node4</title>
<g id="a_node1"><a xlink:href="group__l4__utcb__api__x86.html" target="_top" xlink:title=" ">
<polygon fill="white" stroke="black" points="496,-78 377,-78 377,-48 496,-48 496,-78"/>
<text text-anchor="start" x="385" y="-66" font-family="Helvetica,sans-Serif" font-size="10.00">x86 Virtual Registers</text>
<text text-anchor="middle" x="436.5" y="-55" font-family="Helvetica,sans-Serif" font-size="10.00"> (UTCB)</text>
</a>
</g>
</g>
<!-- Node2 -->
<g id="node2" class="node">
<title>Node2</title>
<g id="a_node2"><a xlink:href="group__l4__utcb__api.html" target="_top" xlink:title="L4 Virtual Registers (UTCB).">
<polygon fill="white" stroke="black" points="101,-54 0,-54 0,-24 101,-24 101,-54"/>
<text text-anchor="start" x="8" y="-42" font-family="Helvetica,sans-Serif" font-size="10.00">Virtual Registers </text>
<text text-anchor="middle" x="50.5" y="-31" font-family="Helvetica,sans-Serif" font-size="10.00">(UTCBs)</text>
</a>
</g>
</g>
<!-- Node1 -->
<g id="node3" class="node">
<title>Node1</title>
<g id="a_node3"><a xlink:title=" ">
<polygon fill="#bfbfbf" stroke="black" points="272,-54 138,-54 138,-24 272,-24 272,-54"/>
<text text-anchor="start" x="146" y="-42" font-family="Helvetica,sans-Serif" font-size="10.00">amd64 Virtual Registers</text>
<text text-anchor="middle" x="205" y="-31" font-family="Helvetica,sans-Serif" font-size="10.00"> (UTCB)</text>
</a>
</g>
</g>
<!-- Node2&#45;&gt;Node1 -->
<g id="edge1" class="edge">
<title>Node2&#45;&gt;Node1</title>
<path fill="none" stroke="black" d="M111.12,-39C119.87,-39 128.94,-39 137.81,-39"/>
<polygon fill="black" stroke="black" points="111.01,-35.5 101.01,-39 111.01,-42.5 111.01,-35.5"/>
</g>
<!-- Node1&#45;&gt;Node4 -->
<g id="edge3" class="edge">
<title>Node1&#45;&gt;Node4</title>
<path fill="none" stroke="orange" stroke-dasharray="5,2" d="M272.07,-45.91C305.18,-49.37 344.92,-53.53 376.92,-56.87"/>
<text text-anchor="middle" x="323.5" y="-57" font-family="Helvetica,sans-Serif" font-size="10.00">l4_exc_regs_t</text>
</g>
<!-- Node3 -->
<g id="node4" class="node">
<title>Node3</title>
<g id="a_node4"><a xlink:href="group__l4__utcb__api__arm.html" target="_top" xlink:title=" ">
<polygon fill="white" stroke="black" points="498,-30 375,-30 375,0 498,0 498,-30"/>
<text text-anchor="start" x="383" y="-18" font-family="Helvetica,sans-Serif" font-size="10.00">ARM Virtual Registers</text>
<text text-anchor="middle" x="436.5" y="-7" font-family="Helvetica,sans-Serif" font-size="10.00"> (UTCB)</text>
</a>
</g>
</g>
<!-- Node1&#45;&gt;Node3 -->
<g id="edge2" class="edge">
<title>Node1&#45;&gt;Node3</title>
<path fill="none" stroke="orange" stroke-dasharray="5,2" d="M272.03,-31.9C278.1,-31.25 284.17,-30.61 290,-30 317.91,-27.07 348.83,-23.87 374.97,-21.19"/>
<text text-anchor="middle" x="323.5" y="-33" font-family="Helvetica,sans-Serif" font-size="10.00">l4_exc_regs_t</text>
</g>
</g>
</svg>
