<?xml version="1.0" encoding="UTF-8" standalone="no"?>
<!DOCTYPE svg PUBLIC "-//W3C//DTD SVG 1.1//EN"
 "http://www.w3.org/Graphics/SVG/1.1/DTD/svg11.dtd">
<!-- Generated by graphviz version 2.43.0 (0)
 -->
<!-- Title: L4Re Util C++ Interface Pages: 1 -->
<svg width="439pt" height="64pt"
 viewBox="0.00 0.00 439.00 64.00" xmlns="http://www.w3.org/2000/svg" xmlns:xlink="http://www.w3.org/1999/xlink">
<g id="graph0" class="graph" transform="scale(1 1) rotate(0) translate(4 60)">
<title>L4Re Util C++ Interface</title>
<polygon fill="white" stroke="transparent" points="-4,4 -4,-60 435,-60 435,4 -4,4"/>
<!-- Node1 -->
<g id="node1" class="node">
<title>Node1</title>
<g id="a_node1"><a xlink:title="Documentation of the L4 Runtime Environment utility functionality in C++.">
<polygon fill="#bfbfbf" stroke="black" points="283,-37 149,-37 149,-18 283,-18 283,-37"/>
<text text-anchor="middle" x="216" y="-25" font-family="Helvetica,sans-Serif" font-size="10.00">L4Re Util C++ Interface</text>
</a>
</g>
</g>
<!-- Node3 -->
<g id="node3" class="node">
<title>Node3</title>
<g id="a_node3"><a xlink:href="group__l4re__util__kumem.html" target="_top" xlink:title=" ">
<polygon fill="white" stroke="black" points="424,-56 326,-56 326,-37 424,-37 424,-56"/>
<text text-anchor="middle" x="375" y="-44" font-family="Helvetica,sans-Serif" font-size="10.00">Kumem utiltities</text>
</a>
</g>
</g>
<!-- Node1&#45;&gt;Node3 -->
<g id="edge2" class="edge">
<title>Node1&#45;&gt;Node3</title>
<path fill="none" stroke="black" d="M293.21,-36.72C304.24,-38.06 315.32,-39.4 325.6,-40.64"/>
<polygon fill="black" stroke="black" points="293.48,-33.23 283.13,-35.5 292.63,-40.18 293.48,-33.23"/>
</g>
<!-- Node4 -->
<g id="node4" class="node">
<title>Node4</title>
<g id="a_node4"><a xlink:href="group__l4re__cap__api.html" target="_top" xlink:title=" ">
<polygon fill="white" stroke="black" points="431,-19 319,-19 319,0 431,0 431,-19"/>
<text text-anchor="middle" x="375" y="-7" font-family="Helvetica,sans-Serif" font-size="10.00">L4Re Capability API</text>
</a>
</g>
</g>
<!-- Node1&#45;&gt;Node4 -->
<g id="edge3" class="edge">
<title>Node1&#45;&gt;Node4</title>
<path fill="none" stroke="black" d="M293.23,-18.76C301.88,-17.77 310.56,-16.77 318.86,-15.82"/>
<polygon fill="black" stroke="black" points="292.66,-15.3 283.13,-19.92 293.46,-22.26 292.66,-15.3"/>
</g>
<!-- Node2 -->
<g id="node2" class="node">
<title>Node2</title>
<g id="a_node2"><a xlink:href="group__api__l4re.html" target="_top" xlink:title="Documentation of the L4 Runtime Environment C++ API.">
<polygon fill="white" stroke="black" points="113,-37 0,-37 0,-18 113,-18 113,-37"/>
<text text-anchor="middle" x="56.5" y="-25" font-family="Helvetica,sans-Serif" font-size="10.00">L4Re C++ Interface</text>
</a>
</g>
</g>
<!-- Node2&#45;&gt;Node1 -->
<g id="edge1" class="edge">
<title>Node2&#45;&gt;Node1</title>
<path fill="none" stroke="black" d="M123.25,-27.5C131.73,-27.5 140.42,-27.5 148.91,-27.5"/>
<polygon fill="black" stroke="black" points="123.03,-24 113.03,-27.5 123.03,-31 123.03,-24"/>
</g>
</g>
</svg>
