<?xml version="1.0" encoding="UTF-8" standalone="no"?>
<!DOCTYPE svg PUBLIC "-//W3C//DTD SVG 1.1//EN"
 "http://www.w3.org/Graphics/SVG/1.1/DTD/svg11.dtd">
<!-- Generated by graphviz version 2.43.0 (0)
 -->
<!-- Title: l4_factory_create_task Pages: 1 -->
<svg width="311pt" height="66pt"
 viewBox="0.00 0.00 311.00 66.00" xmlns="http://www.w3.org/2000/svg" xmlns:xlink="http://www.w3.org/1999/xlink">
<g id="graph0" class="graph" transform="scale(1 1) rotate(0) translate(4 62)">
<title>l4_factory_create_task</title>
<polygon fill="white" stroke="transparent" points="-4,4 -4,-62 307,-62 307,4 -4,4"/>
<!-- Node1 -->
<g id="node1" class="node">
<title>Node1</title>
<g id="a_node1"><a xlink:title="Create a new task.">
<polygon fill="#bfbfbf" stroke="black" points="0,-19.5 0,-38.5 128,-38.5 128,-19.5 0,-19.5"/>
<text text-anchor="middle" x="64" y="-26.5" font-family="Helvetica,sans-Serif" font-size="10.00">l4_factory_create_task</text>
</a>
</g>
</g>
<!-- Node2 -->
<g id="node2" class="node">
<title>Node2</title>
<g id="a_node2"><a xlink:href="group__l4__factory__api.html#gaf1c482ad38bad5429e3034c86aea435d" target="_top" xlink:title="Create a new task.">
<polygon fill="white" stroke="black" points="164,-38.5 164,-57.5 303,-57.5 303,-38.5 164,-38.5"/>
<text text-anchor="middle" x="233.5" y="-45.5" font-family="Helvetica,sans-Serif" font-size="10.00">l4_factory_create_task_u</text>
</a>
</g>
</g>
<!-- Node1&#45;&gt;Node2 -->
<g id="edge1" class="edge">
<title>Node1&#45;&gt;Node2</title>
<path fill="none" stroke="midnightblue" d="M128.32,-36.18C136.65,-37.13 145.26,-38.1 153.8,-39.07"/>
<polygon fill="midnightblue" stroke="midnightblue" points="153.44,-42.55 163.77,-40.2 154.23,-35.6 153.44,-42.55"/>
</g>
<!-- Node3 -->
<g id="node3" class="node">
<title>Node3</title>
<g id="a_node3"><a xlink:href="group__l4__utcb__api.html#gadc099b4a59e1d99638c72c11a8c8b644" target="_top" xlink:title="Get the UTCB address.">
<polygon fill="white" stroke="black" points="207.5,-0.5 207.5,-19.5 259.5,-19.5 259.5,-0.5 207.5,-0.5"/>
<text text-anchor="middle" x="233.5" y="-7.5" font-family="Helvetica,sans-Serif" font-size="10.00">l4_utcb</text>
</a>
</g>
</g>
<!-- Node1&#45;&gt;Node3 -->
<g id="edge2" class="edge">
<title>Node1&#45;&gt;Node3</title>
<path fill="none" stroke="midnightblue" d="M128.32,-21.82C151.57,-19.18 177.05,-16.29 196.99,-14.03"/>
<polygon fill="midnightblue" stroke="midnightblue" points="197.62,-17.48 207.16,-12.87 196.83,-10.52 197.62,-17.48"/>
</g>
</g>
</svg>
