<?xml version="1.0" encoding="UTF-8" standalone="no"?>
<!DOCTYPE svg PUBLIC "-//W3C//DTD SVG 1.1//EN"
 "http://www.w3.org/Graphics/SVG/1.1/DTD/svg11.dtd">
<!-- Generated by graphviz version 2.43.0 (0)
 -->
<!-- Title: l4_vm_vmx_read Pages: 1 -->
<svg width="267pt" height="142pt"
 viewBox="0.00 0.00 267.00 142.00" xmlns="http://www.w3.org/2000/svg" xmlns:xlink="http://www.w3.org/1999/xlink">
<g id="graph0" class="graph" transform="scale(1 1) rotate(0) translate(4 138)">
<title>l4_vm_vmx_read</title>
<polygon fill="white" stroke="transparent" points="-4,4 -4,-138 263,-138 263,4 -4,4"/>
<!-- Node1 -->
<g id="node1" class="node">
<title>Node1</title>
<g id="a_node1"><a xlink:title="Read any VMCS field.">
<polygon fill="#bfbfbf" stroke="black" points="0,-57.5 0,-76.5 101,-76.5 101,-57.5 0,-57.5"/>
<text text-anchor="middle" x="50.5" y="-64.5" font-family="Helvetica,sans-Serif" font-size="10.00">l4_vm_vmx_read</text>
</a>
</g>
</g>
<!-- Node2 -->
<g id="node2" class="node">
<title>Node2</title>
<g id="a_node2"><a xlink:href="group__l4__vm__vmx__api.html#ga0e2bcaaaab669770cccebfe57bf9a0c7" target="_top" xlink:title="Read a 16bit VMCS field.">
<polygon fill="white" stroke="black" points="139,-114.5 139,-133.5 257,-133.5 257,-114.5 139,-114.5"/>
<text text-anchor="middle" x="198" y="-121.5" font-family="Helvetica,sans-Serif" font-size="10.00">l4_vm_vmx_read_16</text>
</a>
</g>
</g>
<!-- Node1&#45;&gt;Node2 -->
<g id="edge1" class="edge">
<title>Node1&#45;&gt;Node2</title>
<path fill="none" stroke="midnightblue" d="M71.28,-76.54C88.44,-84.65 114.07,-96.3 137,-105 142.69,-107.16 148.75,-109.28 154.75,-111.27"/>
<polygon fill="midnightblue" stroke="midnightblue" points="154.11,-114.75 164.7,-114.5 156.27,-108.09 154.11,-114.75"/>
</g>
<!-- Node3 -->
<g id="node3" class="node">
<title>Node3</title>
<g id="a_node3"><a xlink:href="group__l4__vm__vmx__api.html#ga61ff297f992665a110c3693a4683d02b" target="_top" xlink:title="Read a 32bit VMCS field.">
<polygon fill="white" stroke="black" points="139,-76.5 139,-95.5 257,-95.5 257,-76.5 139,-76.5"/>
<text text-anchor="middle" x="198" y="-83.5" font-family="Helvetica,sans-Serif" font-size="10.00">l4_vm_vmx_read_32</text>
</a>
</g>
</g>
<!-- Node1&#45;&gt;Node3 -->
<g id="edge2" class="edge">
<title>Node1&#45;&gt;Node3</title>
<path fill="none" stroke="midnightblue" d="M101.17,-73.49C110.05,-74.65 119.45,-75.87 128.75,-77.09"/>
<polygon fill="midnightblue" stroke="midnightblue" points="128.41,-80.57 138.78,-78.4 129.32,-73.63 128.41,-80.57"/>
</g>
<!-- Node4 -->
<g id="node4" class="node">
<title>Node4</title>
<g id="a_node4"><a xlink:href="group__l4__vm__vmx__api.html#gabc2c4aa13e806afb4c1701f366eb2c88" target="_top" xlink:title="Read a 64bit VMCS field.">
<polygon fill="white" stroke="black" points="139,-38.5 139,-57.5 257,-57.5 257,-38.5 139,-38.5"/>
<text text-anchor="middle" x="198" y="-45.5" font-family="Helvetica,sans-Serif" font-size="10.00">l4_vm_vmx_read_64</text>
</a>
</g>
</g>
<!-- Node1&#45;&gt;Node4 -->
<g id="edge3" class="edge">
<title>Node1&#45;&gt;Node4</title>
<path fill="none" stroke="midnightblue" d="M101.17,-60.51C110.05,-59.35 119.45,-58.13 128.75,-56.91"/>
<polygon fill="midnightblue" stroke="midnightblue" points="129.32,-60.37 138.78,-55.6 128.41,-53.43 129.32,-60.37"/>
</g>
<!-- Node5 -->
<g id="node5" class="node">
<title>Node5</title>
<g id="a_node5"><a xlink:href="group__l4__vm__vmx__api.html#gabc0002470856bad7a0e0038f539b56bb" target="_top" xlink:title="Read a natural width VMCS field.">
<polygon fill="white" stroke="black" points="137,-0.5 137,-19.5 259,-19.5 259,-0.5 137,-0.5"/>
<text text-anchor="middle" x="198" y="-7.5" font-family="Helvetica,sans-Serif" font-size="10.00">l4_vm_vmx_read_nat</text>
</a>
</g>
</g>
<!-- Node1&#45;&gt;Node5 -->
<g id="edge4" class="edge">
<title>Node1&#45;&gt;Node5</title>
<path fill="none" stroke="midnightblue" d="M71.28,-57.46C88.44,-49.35 114.07,-37.7 137,-29 142.69,-26.84 148.75,-24.72 154.75,-22.73"/>
<polygon fill="midnightblue" stroke="midnightblue" points="156.27,-25.91 164.7,-19.5 154.11,-19.25 156.27,-25.91"/>
</g>
</g>
</svg>
