<?xml version="1.0" encoding="UTF-8" standalone="no"?>
<!DOCTYPE svg PUBLIC "-//W3C//DTD SVG 1.1//EN"
 "http://www.w3.org/Graphics/SVG/1.1/DTD/svg11.dtd">
<!-- Generated by graphviz version 2.43.0 (0)
 -->
<!-- Title: l4re_env_get_cap_l Pages: 1 -->
<svg width="405pt" height="66pt"
 viewBox="0.00 0.00 405.00 66.00" xmlns="http://www.w3.org/2000/svg" xmlns:xlink="http://www.w3.org/1999/xlink">
<g id="graph0" class="graph" transform="scale(1 1) rotate(0) translate(4 62)">
<title>l4re_env_get_cap_l</title>
<polygon fill="white" stroke="transparent" points="-4,4 -4,-62 401,-62 401,4 -4,4"/>
<!-- Node1 -->
<g id="node1" class="node">
<title>Node1</title>
<g id="a_node1"><a xlink:title="Get the full l4re_env_cap_entry_t for the object named name.">
<polygon fill="#bfbfbf" stroke="black" points="287,-19.5 287,-38.5 397,-38.5 397,-19.5 287,-19.5"/>
<text text-anchor="middle" x="342" y="-26.5" font-family="Helvetica,sans-Serif" font-size="10.00">l4re_env_get_cap_l</text>
</a>
</g>
</g>
<!-- Node2 -->
<g id="node2" class="node">
<title>Node2</title>
<g id="a_node2"><a xlink:href="classL4Re_1_1Env.html#ae4cc81f3bfe0de3ac30c5d9db902472e" target="_top" xlink:title="Get the Cap_entry for the object named name.">
<polygon fill="white" stroke="black" points="151.5,-38.5 151.5,-57.5 237.5,-57.5 237.5,-38.5 151.5,-38.5"/>
<text text-anchor="middle" x="194.5" y="-45.5" font-family="Helvetica,sans-Serif" font-size="10.00">L4Re::Env::get</text>
</a>
</g>
</g>
<!-- Node1&#45;&gt;Node2 -->
<g id="edge1" class="edge">
<title>Node1&#45;&gt;Node2</title>
<path fill="none" stroke="midnightblue" d="M276.84,-37.38C263.65,-39.1 250.09,-40.87 237.9,-42.46"/>
<polygon fill="midnightblue" stroke="midnightblue" points="277.36,-40.84 286.82,-36.07 276.45,-33.9 277.36,-40.84"/>
</g>
<!-- Node3 -->
<g id="node3" class="node">
<title>Node3</title>
<g id="a_node3"><a xlink:href="group__api__l4re__env.html#ga788aedd589b464cccbeff610416cced9" target="_top" xlink:title="Get the capability selector for the object named name.">
<polygon fill="white" stroke="black" points="138,-0.5 138,-19.5 251,-19.5 251,-0.5 138,-0.5"/>
<text text-anchor="middle" x="194.5" y="-7.5" font-family="Helvetica,sans-Serif" font-size="10.00">l4re_env_get_cap_e</text>
</a>
</g>
</g>
<!-- Node1&#45;&gt;Node3 -->
<g id="edge2" class="edge">
<title>Node1&#45;&gt;Node3</title>
<path fill="none" stroke="midnightblue" d="M276.87,-20.63C268.31,-19.51 259.58,-18.37 251.18,-17.27"/>
<polygon fill="midnightblue" stroke="midnightblue" points="276.45,-24.1 286.82,-21.93 277.36,-17.16 276.45,-24.1"/>
</g>
<!-- Node4 -->
<g id="node4" class="node">
<title>Node4</title>
<g id="a_node4"><a xlink:href="group__api__l4re__env.html#ga1413d41707d888eb9121f6efe1682504" target="_top" xlink:title="Get the capability selector for the object named name.">
<polygon fill="white" stroke="black" points="0,-0.5 0,-19.5 102,-19.5 102,-0.5 0,-0.5"/>
<text text-anchor="middle" x="51" y="-7.5" font-family="Helvetica,sans-Serif" font-size="10.00">l4re_env_get_cap</text>
</a>
</g>
</g>
<!-- Node3&#45;&gt;Node4 -->
<g id="edge3" class="edge">
<title>Node3&#45;&gt;Node4</title>
<path fill="none" stroke="midnightblue" d="M127.94,-10C119.32,-10 110.6,-10 102.29,-10"/>
<polygon fill="midnightblue" stroke="midnightblue" points="127.98,-13.5 137.98,-10 127.98,-6.5 127.98,-13.5"/>
</g>
</g>
</svg>
