<?xml version="1.0" encoding="UTF-8" standalone="no"?>
<!DOCTYPE svg PUBLIC "-//W3C//DTD SVG 1.1//EN"
 "http://www.w3.org/Graphics/SVG/1.1/DTD/svg11.dtd">
<!-- Generated by graphviz version 2.43.0 (0)
 -->
<!-- Title: ARM Virtual Registers (UTCB) Pages: 1 -->
<svg width="506pt" height="86pt"
 viewBox="0.00 0.00 506.00 86.00" xmlns="http://www.w3.org/2000/svg" xmlns:xlink="http://www.w3.org/1999/xlink">
<g id="graph0" class="graph" transform="scale(1 1) rotate(0) translate(4 82)">
<title>ARM Virtual Registers (UTCB)</title>
<polygon fill="white" stroke="transparent" points="-4,4 -4,-82 502,-82 502,4 -4,4"/>
<!-- Node4 -->
<g id="node1" class="node">
<title>Node4</title>
<g id="a_node1"><a xlink:href="group__l4__utcb__api__x86.html" target="_top" xlink:title=" ">
<polygon fill="white" stroke="black" points="490.5,-78 371.5,-78 371.5,-48 490.5,-48 490.5,-78"/>
<text text-anchor="start" x="379.5" y="-66" font-family="Helvetica,sans-Serif" font-size="10.00">x86 Virtual Registers</text>
<text text-anchor="middle" x="431" y="-55" font-family="Helvetica,sans-Serif" font-size="10.00"> (UTCB)</text>
</a>
</g>
</g>
<!-- Node2 -->
<g id="node2" class="node">
<title>Node2</title>
<g id="a_node2"><a xlink:href="group__l4__utcb__api.html" target="_top" xlink:title="L4 Virtual Registers (UTCB).">
<polygon fill="white" stroke="black" points="101,-54 0,-54 0,-24 101,-24 101,-54"/>
<text text-anchor="start" x="8" y="-42" font-family="Helvetica,sans-Serif" font-size="10.00">Virtual Registers </text>
<text text-anchor="middle" x="50.5" y="-31" font-family="Helvetica,sans-Serif" font-size="10.00">(UTCBs)</text>
</a>
</g>
</g>
<!-- Node1 -->
<g id="node4" class="node">
<title>Node1</title>
<g id="a_node4"><a xlink:title=" ">
<polygon fill="#bfbfbf" stroke="black" points="261,-54 138,-54 138,-24 261,-24 261,-54"/>
<text text-anchor="start" x="146" y="-42" font-family="Helvetica,sans-Serif" font-size="10.00">ARM Virtual Registers</text>
<text text-anchor="middle" x="199.5" y="-31" font-family="Helvetica,sans-Serif" font-size="10.00"> (UTCB)</text>
</a>
</g>
</g>
<!-- Node2&#45;&gt;Node1 -->
<g id="edge1" class="edge">
<title>Node2&#45;&gt;Node1</title>
<path fill="none" stroke="black" d="M111.36,-39C120.09,-39 129.08,-39 137.83,-39"/>
<polygon fill="black" stroke="black" points="111.27,-35.5 101.27,-39 111.27,-42.5 111.27,-35.5"/>
</g>
<!-- Node3 -->
<g id="node3" class="node">
<title>Node3</title>
<g id="a_node3"><a xlink:href="group__l4__utcb__api__amd64.html" target="_top" xlink:title=" ">
<polygon fill="white" stroke="black" points="498,-30 364,-30 364,0 498,0 498,-30"/>
<text text-anchor="start" x="372" y="-18" font-family="Helvetica,sans-Serif" font-size="10.00">amd64 Virtual Registers</text>
<text text-anchor="middle" x="431" y="-7" font-family="Helvetica,sans-Serif" font-size="10.00"> (UTCB)</text>
</a>
</g>
</g>
<!-- Node1&#45;&gt;Node4 -->
<g id="edge3" class="edge">
<title>Node1&#45;&gt;Node4</title>
<path fill="none" stroke="orange" stroke-dasharray="5,2" d="M261.1,-45.34C295.23,-48.91 337.65,-53.34 371.44,-56.88"/>
<text text-anchor="middle" x="312.5" y="-56" font-family="Helvetica,sans-Serif" font-size="10.00">l4_exc_regs_t</text>
</g>
<!-- Node1&#45;&gt;Node3 -->
<g id="edge2" class="edge">
<title>Node1&#45;&gt;Node3</title>
<path fill="none" stroke="orange" stroke-dasharray="5,2" d="M261.34,-31.93C267.31,-31.27 273.27,-30.61 279,-30 306.77,-27.03 337.43,-23.95 363.83,-21.35"/>
<text text-anchor="middle" x="312.5" y="-33" font-family="Helvetica,sans-Serif" font-size="10.00">l4_exc_regs_t</text>
</g>
</g>
</svg>
