<?xml version="1.0" encoding="UTF-8" standalone="no"?>
<!DOCTYPE svg PUBLIC "-//W3C//DTD SVG 1.1//EN"
 "http://www.w3.org/Graphics/SVG/1.1/DTD/svg11.dtd">
<!-- Generated by graphviz version 2.43.0 (0)
 -->
<!-- Title: l4_thread_ex_regs_ret_u Pages: 1 -->
<svg width="305pt" height="66pt"
 viewBox="0.00 0.00 305.00 66.00" xmlns="http://www.w3.org/2000/svg" xmlns:xlink="http://www.w3.org/1999/xlink">
<g id="graph0" class="graph" transform="scale(1 1) rotate(0) translate(4 62)">
<title>l4_thread_ex_regs_ret_u</title>
<polygon fill="white" stroke="transparent" points="-4,4 -4,-62 301,-62 301,4 -4,4"/>
<!-- Node1 -->
<g id="node1" class="node">
<title>Node1</title>
<g id="a_node1"><a xlink:title="Exchange basic thread registers and return previous values.">
<polygon fill="#bfbfbf" stroke="black" points="161,-19.5 161,-38.5 297,-38.5 297,-19.5 161,-19.5"/>
<text text-anchor="middle" x="229" y="-26.5" font-family="Helvetica,sans-Serif" font-size="10.00">l4_thread_ex_regs_ret_u</text>
</a>
</g>
</g>
<!-- Node2 -->
<g id="node2" class="node">
<title>Node2</title>
<g id="a_node2"><a xlink:href="classL4_1_1Thread.html#af50335e91a9efefa66b440aefefd9c61" target="_top" xlink:title="Exchange basic thread registers and return previous values.">
<polygon fill="white" stroke="black" points="6.5,-38.5 6.5,-57.5 118.5,-57.5 118.5,-38.5 6.5,-38.5"/>
<text text-anchor="middle" x="62.5" y="-45.5" font-family="Helvetica,sans-Serif" font-size="10.00">L4::Thread::ex_regs</text>
</a>
</g>
</g>
<!-- Node1&#45;&gt;Node2 -->
<g id="edge1" class="edge">
<title>Node1&#45;&gt;Node2</title>
<path fill="none" stroke="midnightblue" d="M150.42,-37.96C139.72,-39.2 128.91,-40.44 118.73,-41.62"/>
<polygon fill="midnightblue" stroke="midnightblue" points="151.08,-41.41 160.62,-36.78 150.28,-34.45 151.08,-41.41"/>
</g>
<!-- Node3 -->
<g id="node3" class="node">
<title>Node3</title>
<g id="a_node3"><a xlink:href="group__l4__thread__api.html#ga828e4612273914dcae12c442bcdd2ea1" target="_top" xlink:title="Exchange basic thread registers and return previous values.">
<polygon fill="white" stroke="black" points="0,-0.5 0,-19.5 125,-19.5 125,-0.5 0,-0.5"/>
<text text-anchor="middle" x="62.5" y="-7.5" font-family="Helvetica,sans-Serif" font-size="10.00">l4_thread_ex_regs_ret</text>
</a>
</g>
</g>
<!-- Node1&#45;&gt;Node3 -->
<g id="edge2" class="edge">
<title>Node1&#45;&gt;Node3</title>
<path fill="none" stroke="midnightblue" d="M150.66,-20.07C142.13,-19.08 133.53,-18.09 125.23,-17.13"/>
<polygon fill="midnightblue" stroke="midnightblue" points="150.28,-23.55 160.62,-21.22 151.08,-16.59 150.28,-23.55"/>
</g>
</g>
</svg>
