<?xml version="1.0" encoding="UTF-8" standalone="no"?>
<!DOCTYPE svg PUBLIC "-//W3C//DTD SVG 1.1//EN"
 "http://www.w3.org/Graphics/SVG/1.1/DTD/svg11.dtd">
<!-- Generated by graphviz version 2.43.0 (0)
 -->
<!-- Title: l4_vcon_set_attr_u Pages: 1 -->
<svg width="253pt" height="66pt"
 viewBox="0.00 0.00 253.00 66.00" xmlns="http://www.w3.org/2000/svg" xmlns:xlink="http://www.w3.org/1999/xlink">
<g id="graph0" class="graph" transform="scale(1 1) rotate(0) translate(4 62)">
<title>l4_vcon_set_attr_u</title>
<polygon fill="white" stroke="transparent" points="-4,4 -4,-62 249,-62 249,4 -4,4"/>
<!-- Node1 -->
<g id="node1" class="node">
<title>Node1</title>
<g id="a_node1"><a xlink:title="Set the attributes of this virtual console.">
<polygon fill="#bfbfbf" stroke="black" points="137,-19.5 137,-38.5 245,-38.5 245,-19.5 137,-19.5"/>
<text text-anchor="middle" x="191" y="-26.5" font-family="Helvetica,sans-Serif" font-size="10.00">l4_vcon_set_attr_u</text>
</a>
</g>
</g>
<!-- Node2 -->
<g id="node2" class="node">
<title>Node2</title>
<g id="a_node2"><a xlink:href="group__l4__vcon__api.html#gad6423b427845fd9cff6d6b39b17f44d3" target="_top" xlink:title="Set attributes of a Vcon.">
<polygon fill="white" stroke="black" points="2,-38.5 2,-57.5 99,-57.5 99,-38.5 2,-38.5"/>
<text text-anchor="middle" x="50.5" y="-45.5" font-family="Helvetica,sans-Serif" font-size="10.00">l4_vcon_set_attr</text>
</a>
</g>
</g>
<!-- Node1&#45;&gt;Node2 -->
<g id="edge1" class="edge">
<title>Node1&#45;&gt;Node2</title>
<path fill="none" stroke="midnightblue" d="M126.88,-37.66C117.61,-38.93 108.19,-40.22 99.3,-41.44"/>
<polygon fill="midnightblue" stroke="midnightblue" points="127.42,-41.12 136.85,-36.29 126.47,-34.18 127.42,-41.12"/>
</g>
<!-- Node3 -->
<g id="node3" class="node">
<title>Node3</title>
<g id="a_node3"><a xlink:href="classL4_1_1Vcon.html#a95422b151c12b5e20dda868972516f1a" target="_top" xlink:title="Set the attributes of this virtual console.">
<polygon fill="white" stroke="black" points="0,-0.5 0,-19.5 101,-19.5 101,-0.5 0,-0.5"/>
<text text-anchor="middle" x="50.5" y="-7.5" font-family="Helvetica,sans-Serif" font-size="10.00">L4::Vcon::set_attr</text>
</a>
</g>
</g>
<!-- Node1&#45;&gt;Node3 -->
<g id="edge2" class="edge">
<title>Node1&#45;&gt;Node3</title>
<path fill="none" stroke="midnightblue" d="M126.81,-20.33C118.19,-19.15 109.44,-17.95 101.1,-16.8"/>
<polygon fill="midnightblue" stroke="midnightblue" points="126.47,-23.82 136.85,-21.71 127.42,-16.88 126.47,-23.82"/>
</g>
</g>
</svg>
