<?xml version="1.0" encoding="UTF-8" standalone="no"?>
<!DOCTYPE svg PUBLIC "-//W3C//DTD SVG 1.1//EN"
 "http://www.w3.org/Graphics/SVG/1.1/DTD/svg11.dtd">
<!-- Generated by graphviz version 2.43.0 (0)
 -->
<!-- Title: cxx::min Pages: 1 -->
<svg width="245pt" height="253pt"
 viewBox="0.00 0.00 245.00 253.00" xmlns="http://www.w3.org/2000/svg" xmlns:xlink="http://www.w3.org/1999/xlink">
<g id="graph0" class="graph" transform="scale(1 1) rotate(0) translate(4 249)">
<title>cxx::min</title>
<polygon fill="white" stroke="transparent" points="-4,4 -4,-249 241,-249 241,4 -4,4"/>
<!-- Node1 -->
<g id="node1" class="node">
<title>Node1</title>
<g id="a_node1"><a xlink:title="Get the minimum of a and b.">
<polygon fill="#bfbfbf" stroke="black" points="178,-110.5 178,-129.5 237,-129.5 237,-110.5 178,-110.5"/>
<text text-anchor="middle" x="207.5" y="-117.5" font-family="Helvetica,sans-Serif" font-size="10.00">cxx::min</text>
</a>
</g>
</g>
<!-- Node2 -->
<g id="node2" class="node">
<title>Node2</title>
<g id="a_node2"><a xlink:href="classcxx_1_1List__alloc.html#a9028a4d3bf8a79f61b2d6ee16736f51a" target="_top" xlink:title="Allocate a memory block of min &lt;= size &lt;= max.">
<polygon fill="white" stroke="black" points="0,-225.5 0,-244.5 142,-244.5 142,-225.5 0,-225.5"/>
<text text-anchor="middle" x="71" y="-232.5" font-family="Helvetica,sans-Serif" font-size="10.00">cxx::List_alloc::alloc_max</text>
</a>
</g>
</g>
<!-- Node1&#45;&gt;Node2 -->
<g id="edge1" class="edge">
<title>Node1&#45;&gt;Node2</title>
<path fill="none" stroke="midnightblue" d="M198.81,-138.8C188.9,-160.64 169.61,-196.2 142,-216 136.58,-219.89 130.4,-222.98 124.01,-225.44"/>
<polygon fill="midnightblue" stroke="midnightblue" points="202.04,-140.14 202.8,-129.57 195.62,-137.35 202.04,-140.14"/>
</g>
<!-- Node3 -->
<g id="node3" class="node">
<title>Node3</title>
<g id="a_node3"><a xlink:href="structL4virtio_1_1Svr_1_1Data__buffer.html#a0ae0d4405b3a3ae5aa554b3adece0138" target="_top" xlink:title="Copy contents from this buffer to the destination buffer.">
<polygon fill="white" stroke="black" points="19,-176 19,-206 123,-206 123,-176 19,-176"/>
<text text-anchor="start" x="27" y="-194" font-family="Helvetica,sans-Serif" font-size="10.00">L4virtio::Svr::Data</text>
<text text-anchor="middle" x="71" y="-183" font-family="Helvetica,sans-Serif" font-size="10.00">_buffer::copy_to</text>
</a>
</g>
</g>
<!-- Node1&#45;&gt;Node3 -->
<g id="edge2" class="edge">
<title>Node1&#45;&gt;Node3</title>
<path fill="none" stroke="midnightblue" d="M187.53,-136.17C175.18,-146.09 158.38,-158.47 142,-167 135.73,-170.26 128.93,-173.23 122.1,-175.88"/>
<polygon fill="midnightblue" stroke="midnightblue" points="189.8,-138.84 195.31,-129.78 185.36,-133.43 189.8,-138.84"/>
</g>
<!-- Node4 -->
<g id="node4" class="node">
<title>Node4</title>
<g id="a_node4"><a xlink:href="classL4Re_1_1Util_1_1Dataspace__svr.html#ac4277eb3cc3e5790d7438bc0d3c69a4a" target="_top" xlink:title="A hook that is called as the first operation in each map request.">
<polygon fill="white" stroke="black" points="10,-127 10,-157 132,-157 132,-127 10,-127"/>
<text text-anchor="start" x="18" y="-145" font-family="Helvetica,sans-Serif" font-size="10.00">L4Re::Util::Dataspace</text>
<text text-anchor="middle" x="71" y="-134" font-family="Helvetica,sans-Serif" font-size="10.00">_svr::map_hook</text>
</a>
</g>
</g>
<!-- Node1&#45;&gt;Node4 -->
<g id="edge3" class="edge">
<title>Node1&#45;&gt;Node4</title>
<path fill="none" stroke="midnightblue" d="M168.07,-126.29C156.84,-128.12 144.27,-130.18 132.03,-132.18"/>
<polygon fill="midnightblue" stroke="midnightblue" points="168.67,-129.73 177.98,-124.67 167.54,-122.83 168.67,-129.73"/>
</g>
<!-- Node5 -->
<g id="node5" class="node">
<title>Node5</title>
<g id="a_node5"><a xlink:href="ipc__stream.html#a0b996eb899b325073d3efdd06c5096c6" target="_top" xlink:title="Extract an array of T elements from the stream s.">
<polygon fill="white" stroke="black" points="34,-88.5 34,-107.5 108,-107.5 108,-88.5 34,-88.5"/>
<text text-anchor="middle" x="71" y="-95.5" font-family="Helvetica,sans-Serif" font-size="10.00">operator&gt;&gt;</text>
</a>
</g>
</g>
<!-- Node1&#45;&gt;Node5 -->
<g id="edge4" class="edge">
<title>Node1&#45;&gt;Node5</title>
<path fill="none" stroke="midnightblue" d="M167.96,-113.7C149.15,-110.62 126.66,-106.94 108.18,-103.92"/>
<polygon fill="midnightblue" stroke="midnightblue" points="167.54,-117.17 177.98,-115.33 168.67,-110.27 167.54,-117.17"/>
</g>
<!-- Node6 -->
<g id="node6" class="node">
<title>Node6</title>
<g id="a_node6"><a xlink:href="structL4virtio_1_1Svr_1_1Data__buffer.html#aecd5fb1a25657f4a7b3af2362a74433c" target="_top" xlink:title="Skip given number of bytes in this buffer.">
<polygon fill="white" stroke="black" points="19,-39 19,-69 123,-69 123,-39 19,-39"/>
<text text-anchor="start" x="27" y="-57" font-family="Helvetica,sans-Serif" font-size="10.00">L4virtio::Svr::Data</text>
<text text-anchor="middle" x="71" y="-46" font-family="Helvetica,sans-Serif" font-size="10.00">_buffer::skip</text>
</a>
</g>
</g>
<!-- Node1&#45;&gt;Node6 -->
<g id="edge5" class="edge">
<title>Node1&#45;&gt;Node6</title>
<path fill="none" stroke="midnightblue" d="M184.62,-104.36C172.46,-96.12 156.82,-86.24 142,-79 134.7,-75.43 126.75,-72.1 118.91,-69.12"/>
<polygon fill="midnightblue" stroke="midnightblue" points="182.96,-107.47 193.18,-110.28 186.94,-101.71 182.96,-107.47"/>
</g>
<!-- Node7 -->
<g id="node7" class="node">
<title>Node7</title>
<g id="a_node7"><a xlink:href="classcxx_1_1String.html#a6f501d9ccb1c93cf26db6c33c847b5a3" target="_top" xlink:title="Substring of length len starting at idx.">
<polygon fill="white" stroke="black" points="19,-0.5 19,-19.5 123,-19.5 123,-0.5 19,-0.5"/>
<text text-anchor="middle" x="71" y="-7.5" font-family="Helvetica,sans-Serif" font-size="10.00">cxx::String::substr</text>
</a>
</g>
</g>
<!-- Node1&#45;&gt;Node7 -->
<g id="edge6" class="edge">
<title>Node1&#45;&gt;Node7</title>
<path fill="none" stroke="midnightblue" d="M197.86,-101.25C187.45,-80.75 168.08,-48.37 142,-30 135.8,-25.63 128.66,-22.21 121.36,-19.54"/>
<polygon fill="midnightblue" stroke="midnightblue" points="194.83,-103.03 202.35,-110.5 201.13,-99.97 194.83,-103.03"/>
</g>
</g>
</svg>
