<?xml version="1.0" encoding="UTF-8" standalone="no"?>
<!DOCTYPE svg PUBLIC "-//W3C//DTD SVG 1.1//EN"
 "http://www.w3.org/Graphics/SVG/1.1/DTD/svg11.dtd">
<!-- Generated by graphviz version 2.43.0 (0)
 -->
<!-- Title: l4_timeout Pages: 1 -->
<svg width="434pt" height="100pt"
 viewBox="0.00 0.00 434.00 99.50" xmlns="http://www.w3.org/2000/svg" xmlns:xlink="http://www.w3.org/1999/xlink">
<g id="graph0" class="graph" transform="scale(1 1) rotate(0) translate(4 95.5)">
<title>l4_timeout</title>
<polygon fill="white" stroke="transparent" points="-4,4 -4,-95.5 430,-95.5 430,4 -4,4"/>
<!-- Node1 -->
<g id="node1" class="node">
<title>Node1</title>
<g id="a_node1"><a xlink:title="Combine send and receive timeout in a timeout.">
<polygon fill="#bfbfbf" stroke="black" points="357,-38.5 357,-57.5 426,-57.5 426,-38.5 357,-38.5"/>
<text text-anchor="middle" x="391.5" y="-45.5" font-family="Helvetica,sans-Serif" font-size="10.00">l4_timeout</text>
</a>
</g>
</g>
<!-- Node2 -->
<g id="node2" class="node">
<title>Node2</title>
<g id="a_node2"><a xlink:href="classL4_1_1Ipc__svr_1_1Timeout__queue__hooks.html#ae4a6bd9781bf97a37dbff039db58d47d" target="_top" xlink:title="get the time for the next timeout">
<polygon fill="white" stroke="black" points="190,-33 190,-63 321,-63 321,-33 190,-33"/>
<text text-anchor="start" x="198" y="-51" font-family="Helvetica,sans-Serif" font-size="10.00">L4::Ipc_svr::Timeout</text>
<text text-anchor="middle" x="255.5" y="-40" font-family="Helvetica,sans-Serif" font-size="10.00">_queue_hooks::timeout</text>
</a>
</g>
</g>
<!-- Node1&#45;&gt;Node2 -->
<g id="edge1" class="edge">
<title>Node1&#45;&gt;Node2</title>
<path fill="none" stroke="midnightblue" d="M346.65,-48C338.47,-48 329.77,-48 321.12,-48"/>
<polygon fill="midnightblue" stroke="midnightblue" points="346.69,-51.5 356.69,-48 346.69,-44.5 346.69,-51.5"/>
</g>
<!-- Node3 -->
<g id="node3" class="node">
<title>Node3</title>
<g id="a_node3"><a xlink:href="classL4_1_1Ipc__svr_1_1Timeout__queue__hooks.html#af6affbb704e771370cd0ae5486263784" target="_top" xlink:title="Add a timout to the queue for time time.">
<polygon fill="white" stroke="black" points="0,-61 0,-91 154,-91 154,-61 0,-61"/>
<text text-anchor="start" x="8" y="-79" font-family="Helvetica,sans-Serif" font-size="10.00">L4::Ipc_svr::Timeout</text>
<text text-anchor="middle" x="77" y="-68" font-family="Helvetica,sans-Serif" font-size="10.00">_queue_hooks::add_timeout</text>
</a>
</g>
</g>
<!-- Node2&#45;&gt;Node3 -->
<g id="edge2" class="edge">
<title>Node2&#45;&gt;Node3</title>
<path fill="none" stroke="midnightblue" d="M179.87,-59.84C171.33,-61.19 162.63,-62.57 154.08,-63.93"/>
<polygon fill="midnightblue" stroke="midnightblue" points="180.45,-63.29 189.78,-58.27 179.36,-56.38 180.45,-63.29"/>
</g>
<!-- Node4 -->
<g id="node4" class="node">
<title>Node4</title>
<g id="a_node4"><a xlink:href="classL4_1_1Ipc__svr_1_1Timeout__queue__hooks.html#ab1fba549749a3efc182d719e22d23a4e" target="_top" xlink:title="Remove timeout from the queue.">
<polygon fill="white" stroke="black" points="12,-0.5 12,-41.5 142,-41.5 142,-0.5 12,-0.5"/>
<text text-anchor="start" x="20" y="-29.5" font-family="Helvetica,sans-Serif" font-size="10.00">L4::Ipc_svr::Timeout</text>
<text text-anchor="start" x="20" y="-18.5" font-family="Helvetica,sans-Serif" font-size="10.00">_queue_hooks::remove</text>
<text text-anchor="middle" x="77" y="-7.5" font-family="Helvetica,sans-Serif" font-size="10.00">_timeout</text>
</a>
</g>
</g>
<!-- Node2&#45;&gt;Node4 -->
<g id="edge3" class="edge">
<title>Node2&#45;&gt;Node4</title>
<path fill="none" stroke="midnightblue" d="M179.82,-36.58C167.28,-34.66 154.37,-32.68 142.12,-30.81"/>
<polygon fill="midnightblue" stroke="midnightblue" points="179.37,-40.05 189.78,-38.1 180.42,-33.13 179.37,-40.05"/>
</g>
</g>
</svg>
