<?xml version="1.0" encoding="UTF-8" standalone="no"?>
<!DOCTYPE svg PUBLIC "-//W3C//DTD SVG 1.1//EN"
 "http://www.w3.org/Graphics/SVG/1.1/DTD/svg11.dtd">
<!-- Generated by graphviz version 2.43.0 (0)
 -->
<!-- Title: l4_factory_create_irq_u Pages: 1 -->
<svg width="298pt" height="66pt"
 viewBox="0.00 0.00 298.00 66.00" xmlns="http://www.w3.org/2000/svg" xmlns:xlink="http://www.w3.org/1999/xlink">
<g id="graph0" class="graph" transform="scale(1 1) rotate(0) translate(4 62)">
<title>l4_factory_create_irq_u</title>
<polygon fill="white" stroke="transparent" points="-4,4 -4,-62 294,-62 294,4 -4,4"/>
<!-- Node1 -->
<g id="node1" class="node">
<title>Node1</title>
<g id="a_node1"><a xlink:title="Create a new IRQ.">
<polygon fill="#bfbfbf" stroke="black" points="159,-19.5 159,-38.5 290,-38.5 290,-19.5 159,-19.5"/>
<text text-anchor="middle" x="224.5" y="-26.5" font-family="Helvetica,sans-Serif" font-size="10.00">l4_factory_create_irq_u</text>
</a>
</g>
</g>
<!-- Node2 -->
<g id="node2" class="node">
<title>Node2</title>
<g id="a_node2"><a xlink:href="classL4_1_1Factory.html#a741b67e7d11d552f3c17eccfd0d3bf88" target="_top" xlink:title="Create a new IRQ.">
<polygon fill="white" stroke="black" points="0,-38.5 0,-57.5 123,-57.5 123,-38.5 0,-38.5"/>
<text text-anchor="middle" x="61.5" y="-45.5" font-family="Helvetica,sans-Serif" font-size="10.00">L4::Factory::create_irq</text>
</a>
</g>
</g>
<!-- Node1&#45;&gt;Node2 -->
<g id="edge1" class="edge">
<title>Node1&#45;&gt;Node2</title>
<path fill="none" stroke="midnightblue" d="M148.89,-37.81C140.27,-38.82 131.56,-39.85 123.15,-40.84"/>
<polygon fill="midnightblue" stroke="midnightblue" points="149.42,-41.27 158.94,-36.62 148.6,-34.31 149.42,-41.27"/>
</g>
<!-- Node3 -->
<g id="node3" class="node">
<title>Node3</title>
<g id="a_node3"><a xlink:href="group__l4__factory__api.html#ga31a4707e4932e045960ad18b4fa07c66" target="_top" xlink:title="Create a new IRQ sender.">
<polygon fill="white" stroke="black" points="2,-0.5 2,-19.5 121,-19.5 121,-0.5 2,-0.5"/>
<text text-anchor="middle" x="61.5" y="-7.5" font-family="Helvetica,sans-Serif" font-size="10.00">l4_factory_create_irq</text>
</a>
</g>
</g>
<!-- Node1&#45;&gt;Node3 -->
<g id="edge2" class="edge">
<title>Node1&#45;&gt;Node3</title>
<path fill="none" stroke="midnightblue" d="M148.88,-20.19C139.55,-19.09 130.12,-17.98 121.08,-16.91"/>
<polygon fill="midnightblue" stroke="midnightblue" points="148.6,-23.69 158.94,-21.38 149.42,-16.73 148.6,-23.69"/>
</g>
</g>
</svg>
