<?xml version="1.0" encoding="UTF-8" standalone="no"?>
<!DOCTYPE svg PUBLIC "-//W3C//DTD SVG 1.1//EN"
 "http://www.w3.org/Graphics/SVG/1.1/DTD/svg11.dtd">
<!-- Generated by graphviz version 2.43.0 (0)
 -->
<!-- Title: l4_irq_mux_chain_u Pages: 1 -->
<svg width="263pt" height="66pt"
 viewBox="0.00 0.00 263.00 66.00" xmlns="http://www.w3.org/2000/svg" xmlns:xlink="http://www.w3.org/1999/xlink">
<g id="graph0" class="graph" transform="scale(1 1) rotate(0) translate(4 62)">
<title>l4_irq_mux_chain_u</title>
<polygon fill="white" stroke="transparent" points="-4,4 -4,-62 259,-62 259,4 -4,4"/>
<!-- Node1 -->
<g id="node1" class="node">
<title>Node1</title>
<g id="a_node1"><a xlink:title="Attach an IRQ to this multiplexer.">
<polygon fill="#bfbfbf" stroke="black" points="142,-19.5 142,-38.5 255,-38.5 255,-19.5 142,-19.5"/>
<text text-anchor="middle" x="198.5" y="-26.5" font-family="Helvetica,sans-Serif" font-size="10.00">l4_irq_mux_chain_u</text>
</a>
</g>
</g>
<!-- Node2 -->
<g id="node2" class="node">
<title>Node2</title>
<g id="a_node2"><a xlink:href="structL4_1_1Irq__mux.html#acfd63279449d20bef4226da9a01e5da9" target="_top" xlink:title="Attach an IRQ to this multiplexer.">
<polygon fill="white" stroke="black" points="0,-38.5 0,-57.5 106,-57.5 106,-38.5 0,-38.5"/>
<text text-anchor="middle" x="53" y="-45.5" font-family="Helvetica,sans-Serif" font-size="10.00">L4::Irq_mux::chain</text>
</a>
</g>
</g>
<!-- Node1&#45;&gt;Node2 -->
<g id="edge1" class="edge">
<title>Node1&#45;&gt;Node2</title>
<path fill="none" stroke="midnightblue" d="M131.67,-37.72C123.14,-38.85 114.49,-39.99 106.22,-41.09"/>
<polygon fill="midnightblue" stroke="midnightblue" points="132.15,-41.18 141.61,-36.4 131.24,-34.24 132.15,-41.18"/>
</g>
<!-- Node3 -->
<g id="node3" class="node">
<title>Node3</title>
<g id="a_node3"><a xlink:href="group__l4__irq__api.html#ga3176fd8767eeabcf521356c6f1b21ac4" target="_top" xlink:title="Chain an IRQ to another master IRQ source.">
<polygon fill="white" stroke="black" points="2,-0.5 2,-19.5 104,-19.5 104,-0.5 2,-0.5"/>
<text text-anchor="middle" x="53" y="-7.5" font-family="Helvetica,sans-Serif" font-size="10.00">l4_irq_mux_chain</text>
</a>
</g>
</g>
<!-- Node1&#45;&gt;Node3 -->
<g id="edge2" class="edge">
<title>Node1&#45;&gt;Node3</title>
<path fill="none" stroke="midnightblue" d="M131.42,-20.25C122.33,-19.05 113.11,-17.83 104.36,-16.67"/>
<polygon fill="midnightblue" stroke="midnightblue" points="131.24,-23.76 141.61,-21.6 132.15,-16.82 131.24,-23.76"/>
</g>
</g>
</svg>
