<?xml version="1.0" encoding="UTF-8" standalone="no"?>
<!DOCTYPE svg PUBLIC "-//W3C//DTD SVG 1.1//EN"
 "http://www.w3.org/Graphics/SVG/1.1/DTD/svg11.dtd">
<!-- Generated by graphviz version 2.43.0 (0)
 -->
<!-- Title: l4_factory_create_vm_u Pages: 1 -->
<svg width="304pt" height="66pt"
 viewBox="0.00 0.00 304.00 66.00" xmlns="http://www.w3.org/2000/svg" xmlns:xlink="http://www.w3.org/1999/xlink">
<g id="graph0" class="graph" transform="scale(1 1) rotate(0) translate(4 62)">
<title>l4_factory_create_vm_u</title>
<polygon fill="white" stroke="transparent" points="-4,4 -4,-62 300,-62 300,4 -4,4"/>
<!-- Node1 -->
<g id="node1" class="node">
<title>Node1</title>
<g id="a_node1"><a xlink:title="Create a new virtual machine.">
<polygon fill="#bfbfbf" stroke="black" points="162,-19.5 162,-38.5 296,-38.5 296,-19.5 162,-19.5"/>
<text text-anchor="middle" x="229" y="-26.5" font-family="Helvetica,sans-Serif" font-size="10.00">l4_factory_create_vm_u</text>
</a>
</g>
</g>
<!-- Node2 -->
<g id="node2" class="node">
<title>Node2</title>
<g id="a_node2"><a xlink:href="classL4_1_1Factory.html#a664fad5aab28576190df9b3165f0b36a" target="_top" xlink:title="Create a new virtual machine.">
<polygon fill="white" stroke="black" points="0,-38.5 0,-57.5 126,-57.5 126,-38.5 0,-38.5"/>
<text text-anchor="middle" x="63" y="-45.5" font-family="Helvetica,sans-Serif" font-size="10.00">L4::Factory::create_vm</text>
</a>
</g>
</g>
<!-- Node1&#45;&gt;Node2 -->
<g id="edge1" class="edge">
<title>Node1&#45;&gt;Node2</title>
<path fill="none" stroke="midnightblue" d="M151.78,-37.83C143.23,-38.82 134.58,-39.82 126.23,-40.79"/>
<polygon fill="midnightblue" stroke="midnightblue" points="152.24,-41.3 161.77,-36.67 151.43,-34.35 152.24,-41.3"/>
</g>
<!-- Node3 -->
<g id="node3" class="node">
<title>Node3</title>
<g id="a_node3"><a xlink:href="group__l4__factory__api.html#gaaa9565a45b0bb3621ce0d3c7994d0710" target="_top" xlink:title="Create a new virtual machine.">
<polygon fill="white" stroke="black" points="2,-0.5 2,-19.5 124,-19.5 124,-0.5 2,-0.5"/>
<text text-anchor="middle" x="63" y="-7.5" font-family="Helvetica,sans-Serif" font-size="10.00">l4_factory_create_vm</text>
</a>
</g>
</g>
<!-- Node1&#45;&gt;Node3 -->
<g id="edge2" class="edge">
<title>Node1&#45;&gt;Node3</title>
<path fill="none" stroke="midnightblue" d="M151.77,-20.17C142.49,-19.09 133.12,-18.01 124.13,-16.97"/>
<polygon fill="midnightblue" stroke="midnightblue" points="151.43,-23.65 161.77,-21.33 152.24,-16.7 151.43,-23.65"/>
</g>
</g>
</svg>
