<?xml version="1.0" encoding="UTF-8" standalone="no"?>
<!DOCTYPE svg PUBLIC "-//W3C//DTD SVG 1.1//EN"
 "http://www.w3.org/Graphics/SVG/1.1/DTD/svg11.dtd">
<!-- Generated by graphviz version 2.43.0 (0)
 -->
<!-- Title: l4re_kip Pages: 1 -->
<svg width="439pt" height="83pt"
 viewBox="0.00 0.00 439.00 83.00" xmlns="http://www.w3.org/2000/svg" xmlns:xlink="http://www.w3.org/1999/xlink">
<g id="graph0" class="graph" transform="scale(1 1) rotate(0) translate(4 79)">
<title>l4re_kip</title>
<polygon fill="white" stroke="transparent" points="-4,4 -4,-79 435,-79 435,4 -4,4"/>
<!-- Node1 -->
<g id="node1" class="node">
<title>Node1</title>
<g id="a_node1"><a xlink:title="Get Kernel Info Page.">
<polygon fill="#bfbfbf" stroke="black" points="375,-28 375,-47 431,-47 431,-28 375,-28"/>
<text text-anchor="middle" x="403" y="-35" font-family="Helvetica,sans-Serif" font-size="10.00">l4re_kip</text>
</a>
</g>
</g>
<!-- Node2 -->
<g id="node2" class="node">
<title>Node2</title>
<g id="a_node2"><a xlink:href="classL4_1_1Poll__timeout__kipclock.html#a5a981174ea6408e39c3a80b8cdb92831" target="_top" xlink:title="(Re&#45;)Set relative timeout in microseconds">
<polygon fill="white" stroke="black" points="177,-50 177,-69 339,-69 339,-50 177,-50"/>
<text text-anchor="middle" x="258" y="-57" font-family="Helvetica,sans-Serif" font-size="10.00">L4::Poll_timeout_kipclock::set</text>
</a>
</g>
</g>
<!-- Node1&#45;&gt;Node2 -->
<g id="edge1" class="edge">
<title>Node1&#45;&gt;Node2</title>
<path fill="none" stroke="midnightblue" d="M364.53,-43.26C351.15,-45.32 335.69,-47.7 320.8,-49.99"/>
<polygon fill="midnightblue" stroke="midnightblue" points="365.41,-46.67 374.77,-41.69 364.35,-39.75 365.41,-46.67"/>
</g>
<!-- Node4 -->
<g id="node4" class="node">
<title>Node4</title>
<g id="a_node4"><a xlink:href="classL4_1_1Poll__timeout__kipclock.html#a5901a2c8eefa9640939fd91cb57e4bf2" target="_top" xlink:title="Test whether timeout has expired.">
<polygon fill="white" stroke="black" points="187.5,-0.5 187.5,-30.5 328.5,-30.5 328.5,-0.5 187.5,-0.5"/>
<text text-anchor="start" x="195.5" y="-18.5" font-family="Helvetica,sans-Serif" font-size="10.00">L4::Poll_timeout_kipclock</text>
<text text-anchor="middle" x="258" y="-7.5" font-family="Helvetica,sans-Serif" font-size="10.00">::test</text>
</a>
</g>
</g>
<!-- Node1&#45;&gt;Node4 -->
<g id="edge3" class="edge">
<title>Node1&#45;&gt;Node4</title>
<path fill="none" stroke="midnightblue" d="M364.63,-31.75C353.56,-30.05 341.05,-28.12 328.63,-26.21"/>
<polygon fill="midnightblue" stroke="midnightblue" points="364.35,-35.25 374.77,-33.31 365.41,-28.33 364.35,-35.25"/>
</g>
<!-- Node3 -->
<g id="node3" class="node">
<title>Node3</title>
<g id="a_node3"><a xlink:href="classL4_1_1Poll__timeout__kipclock.html#a0b0d86579969353be5308ef67c875576" target="_top" xlink:title="Initialise relative timeout in microseconds.">
<polygon fill="white" stroke="black" points="0,-44.5 0,-74.5 141,-74.5 141,-44.5 0,-44.5"/>
<text text-anchor="start" x="8" y="-62.5" font-family="Helvetica,sans-Serif" font-size="10.00">L4::Poll_timeout_kipclock</text>
<text text-anchor="middle" x="70.5" y="-51.5" font-family="Helvetica,sans-Serif" font-size="10.00">::Poll_timeout_kipclock</text>
</a>
</g>
</g>
<!-- Node2&#45;&gt;Node3 -->
<g id="edge2" class="edge">
<title>Node2&#45;&gt;Node3</title>
<path fill="none" stroke="midnightblue" d="M166.84,-59.5C158.17,-59.5 149.47,-59.5 141.05,-59.5"/>
<polygon fill="midnightblue" stroke="midnightblue" points="166.99,-63 176.99,-59.5 166.99,-56 166.99,-63"/>
</g>
</g>
</svg>
