<?xml version="1.0" encoding="UTF-8" standalone="no"?>
<!DOCTYPE svg PUBLIC "-//W3C//DTD SVG 1.1//EN"
 "http://www.w3.org/Graphics/SVG/1.1/DTD/svg11.dtd">
<!-- Generated by graphviz version 2.43.0 (0)
 -->
<!-- Title: l4/sys/icu.h Pages: 1 -->
<svg width="552pt" height="487pt"
 viewBox="0.00 0.00 551.50 487.00" xmlns="http://www.w3.org/2000/svg" xmlns:xlink="http://www.w3.org/1999/xlink">
<g id="graph0" class="graph" transform="scale(1 1) rotate(0) translate(4 483)">
<title>l4/sys/icu.h</title>
<polygon fill="white" stroke="transparent" points="-4,4 -4,-483 547.5,-483 547.5,4 -4,4"/>
<!-- Node1 -->
<g id="node1" class="node">
<title>Node1</title>
<g id="a_node1"><a xlink:title="Interrupt controller.">
<polygon fill="#bfbfbf" stroke="black" points="215,-459.5 215,-478.5 286,-478.5 286,-459.5 215,-459.5"/>
<text text-anchor="middle" x="250.5" y="-466.5" font-family="Helvetica,sans-Serif" font-size="10.00">l4/sys/icu.h</text>
</a>
</g>
</g>
<!-- Node2 -->
<g id="node2" class="node">
<title>Node2</title>
<g id="a_node2"><a xlink:href="kernel__object_8h.html" target="_top" xlink:title="Kernel object system calls.">
<polygon fill="white" stroke="black" points="298.5,-403.5 298.5,-422.5 420.5,-422.5 420.5,-403.5 298.5,-403.5"/>
<text text-anchor="middle" x="359.5" y="-410.5" font-family="Helvetica,sans-Serif" font-size="10.00">l4/sys/kernel_object.h</text>
</a>
</g>
</g>
<!-- Node1&#45;&gt;Node2 -->
<g id="edge1" class="edge">
<title>Node1&#45;&gt;Node2</title>
<path fill="none" stroke="midnightblue" d="M268.01,-459.32C285.57,-450.62 312.83,-437.12 333.03,-427.11"/>
<polygon fill="midnightblue" stroke="midnightblue" points="334.62,-430.23 342.03,-422.65 331.52,-423.96 334.62,-430.23"/>
</g>
<!-- Node12 -->
<g id="node12" class="node">
<title>Node12</title>
<g id="a_node12"><a xlink:href="l4_2sys_2ipc_8h.html" target="_top" xlink:title="Common IPC interface.">
<polygon fill="white" stroke="black" points="276,-280.5 276,-299.5 347,-299.5 347,-280.5 276,-280.5"/>
<text text-anchor="middle" x="311.5" y="-287.5" font-family="Helvetica,sans-Serif" font-size="10.00">l4/sys/ipc.h</text>
</a>
</g>
</g>
<!-- Node1&#45;&gt;Node12 -->
<g id="edge25" class="edge">
<title>Node1&#45;&gt;Node12</title>
<path fill="none" stroke="midnightblue" d="M245.92,-459.25C234.96,-436.99 209.81,-377.02 233.5,-336 242.18,-320.98 257.99,-310.52 273.12,-303.5"/>
<polygon fill="midnightblue" stroke="midnightblue" points="274.55,-306.69 282.38,-299.56 271.81,-300.25 274.55,-306.69"/>
</g>
<!-- Node3 -->
<g id="node3" class="node">
<title>Node3</title>
<g id="a_node3"><a xlink:href="l4_2sys_2types_8h.html" target="_top" xlink:title="Common L4 ABI Data Types.">
<polygon fill="white" stroke="black" points="268.5,-168.5 268.5,-187.5 352.5,-187.5 352.5,-168.5 268.5,-168.5"/>
<text text-anchor="middle" x="310.5" y="-175.5" font-family="Helvetica,sans-Serif" font-size="10.00">l4/sys/types.h</text>
</a>
</g>
</g>
<!-- Node2&#45;&gt;Node3 -->
<g id="edge2" class="edge">
<title>Node2&#45;&gt;Node3</title>
<path fill="none" stroke="midnightblue" d="M370.68,-403.27C380.43,-395.01 394.14,-381.72 401.5,-367 430.28,-309.49 459.59,-277.22 423.5,-224 409.77,-203.75 385.32,-192.61 362.67,-186.49"/>
<polygon fill="midnightblue" stroke="midnightblue" points="363.32,-183.04 352.77,-184.08 361.67,-189.85 363.32,-183.04"/>
</g>
<!-- Node5 -->
<g id="node5" class="node">
<title>Node5</title>
<g id="a_node5"><a xlink:href="compiler_8h.html" target="_top" xlink:title="L4 compiler related defines.">
<polygon fill="white" stroke="black" points="366,-56.5 366,-75.5 465,-75.5 465,-56.5 366,-56.5"/>
<text text-anchor="middle" x="415.5" y="-63.5" font-family="Helvetica,sans-Serif" font-size="10.00">l4/sys/compiler.h</text>
</a>
</g>
</g>
<!-- Node2&#45;&gt;Node5 -->
<g id="edge13" class="edge">
<title>Node2&#45;&gt;Node5</title>
<path fill="none" stroke="midnightblue" d="M403.11,-403.42C457.52,-389.88 543.5,-357.91 543.5,-291 543.5,-291 543.5,-291 543.5,-177 543.5,-127.64 488.08,-95.61 450.17,-79.48"/>
<polygon fill="midnightblue" stroke="midnightblue" points="451.07,-76.06 440.48,-75.53 448.43,-82.55 451.07,-76.06"/>
</g>
<!-- Node10 -->
<g id="node10" class="node">
<title>Node10</title>
<g id="a_node10"><a xlink:href="l4_2sys_2utcb_8h.html" target="_top" xlink:title="UTCB definitions.">
<polygon fill="white" stroke="black" points="336.5,-224.5 336.5,-243.5 414.5,-243.5 414.5,-224.5 336.5,-224.5"/>
<text text-anchor="middle" x="375.5" y="-231.5" font-family="Helvetica,sans-Serif" font-size="10.00">l4/sys/utcb.h</text>
</a>
</g>
</g>
<!-- Node2&#45;&gt;Node10 -->
<g id="edge14" class="edge">
<title>Node2&#45;&gt;Node10</title>
<path fill="none" stroke="midnightblue" d="M366.39,-403.32C372.77,-394.68 381.81,-380.77 385.5,-367 396.08,-327.55 387.15,-279.27 380.7,-253.42"/>
<polygon fill="midnightblue" stroke="midnightblue" points="384.02,-252.29 378.07,-243.52 377.26,-254.08 384.02,-252.29"/>
</g>
<!-- Node11 -->
<g id="node11" class="node">
<title>Node11</title>
<g id="a_node11"><a xlink:href="____kernel__object__impl_8h.html" target="_top" xlink:title="Low&#45;level kernel debugger functions.">
<polygon fill="white" stroke="black" points="252.5,-336.5 252.5,-366.5 376.5,-366.5 376.5,-336.5 252.5,-336.5"/>
<text text-anchor="start" x="260.5" y="-354.5" font-family="Helvetica,sans-Serif" font-size="10.00">l4/sys/__kernel_object</text>
<text text-anchor="middle" x="314.5" y="-343.5" font-family="Helvetica,sans-Serif" font-size="10.00">_impl.h</text>
</a>
</g>
</g>
<!-- Node2&#45;&gt;Node11 -->
<g id="edge18" class="edge">
<title>Node2&#45;&gt;Node11</title>
<path fill="none" stroke="midnightblue" d="M353.05,-403.48C347.36,-395.94 338.8,-384.63 331.19,-374.57"/>
<polygon fill="midnightblue" stroke="midnightblue" points="333.93,-372.39 325.11,-366.52 328.35,-376.61 333.93,-372.39"/>
</g>
<!-- Node2&#45;&gt;Node12 -->
<g id="edge24" class="edge">
<title>Node2&#45;&gt;Node12</title>
<path fill="none" stroke="midnightblue" d="M300.93,-403.48C279.17,-397.16 256.62,-386.16 243.5,-367 235.72,-355.63 236.98,-348.14 243.5,-336 251.12,-321.82 265.4,-311.35 278.91,-304.1"/>
<polygon fill="midnightblue" stroke="midnightblue" points="280.63,-307.16 288.05,-299.59 277.53,-300.88 280.63,-307.16"/>
</g>
<!-- Node4 -->
<g id="node4" class="node">
<title>Node4</title>
<g id="a_node4"><a xlink:href="l4_2sys_2l4int_8h.html" target="_top" xlink:title="Fixed sized integer types, generic version.">
<polygon fill="white" stroke="black" points="0,-56.5 0,-75.5 79,-75.5 79,-56.5 0,-56.5"/>
<text text-anchor="middle" x="39.5" y="-63.5" font-family="Helvetica,sans-Serif" font-size="10.00">l4/sys/l4int.h</text>
</a>
</g>
</g>
<!-- Node3&#45;&gt;Node4 -->
<g id="edge3" class="edge">
<title>Node3&#45;&gt;Node4</title>
<path fill="none" stroke="midnightblue" d="M268.47,-176.97C195.31,-175.92 49.34,-169.1 17.5,-132 5.68,-118.22 15.72,-97.82 25.79,-83.56"/>
<polygon fill="midnightblue" stroke="midnightblue" points="28.59,-85.66 31.87,-75.58 23.02,-81.42 28.59,-85.66"/>
</g>
<!-- Node3&#45;&gt;Node5 -->
<g id="edge4" class="edge">
<title>Node3&#45;&gt;Node5</title>
<path fill="none" stroke="midnightblue" d="M327.47,-168.44C342.03,-160.48 362.92,-147.52 377.5,-132 390.48,-118.18 400.95,-99.16 407.59,-85.26"/>
<polygon fill="midnightblue" stroke="midnightblue" points="410.93,-86.36 411.89,-75.81 404.56,-83.46 410.93,-86.36"/>
</g>
<!-- Node7 -->
<g id="node7" class="node">
<title>Node7</title>
<g id="a_node7"><a xlink:href="l4_2sys_2consts_8h.html" target="_top" xlink:title="Common constants.">
<polygon fill="white" stroke="black" points="151,-112.5 151,-131.5 240,-131.5 240,-112.5 151,-112.5"/>
<text text-anchor="middle" x="195.5" y="-119.5" font-family="Helvetica,sans-Serif" font-size="10.00">l4/sys/consts.h</text>
</a>
</g>
</g>
<!-- Node3&#45;&gt;Node7 -->
<g id="edge6" class="edge">
<title>Node3&#45;&gt;Node7</title>
<path fill="none" stroke="midnightblue" d="M292.28,-168.44C273.6,-159.68 244.34,-145.94 222.88,-135.86"/>
<polygon fill="midnightblue" stroke="midnightblue" points="224.18,-132.6 213.64,-131.52 221.2,-138.93 224.18,-132.6"/>
</g>
<!-- Node8 -->
<g id="node8" class="node">
<title>Node8</title>
<g id="a_node8"><a xlink:href="____l4__fpage_8h_source.html" target="_top" xlink:title=" ">
<polygon fill="white" stroke="black" points="258.5,-112.5 258.5,-131.5 368.5,-131.5 368.5,-112.5 258.5,-112.5"/>
<text text-anchor="middle" x="313.5" y="-119.5" font-family="Helvetica,sans-Serif" font-size="10.00">l4/sys/__l4_fpage.h</text>
</a>
</g>
</g>
<!-- Node3&#45;&gt;Node8 -->
<g id="edge9" class="edge">
<title>Node3&#45;&gt;Node8</title>
<path fill="none" stroke="midnightblue" d="M311,-168.08C311.39,-161.01 311.95,-150.86 312.45,-141.99"/>
<polygon fill="midnightblue" stroke="midnightblue" points="315.95,-141.93 313.01,-131.75 308.96,-141.54 315.95,-141.93"/>
</g>
<!-- Node9 -->
<g id="node9" class="node">
<title>Node9</title>
<g id="a_node9"><a xlink:href="____timeout_8h_source.html" target="_top" xlink:title=" ">
<polygon fill="white" stroke="black" points="26.5,-112.5 26.5,-131.5 132.5,-131.5 132.5,-112.5 26.5,-112.5"/>
<text text-anchor="middle" x="79.5" y="-119.5" font-family="Helvetica,sans-Serif" font-size="10.00">l4/sys/__timeout.h</text>
</a>
</g>
</g>
<!-- Node3&#45;&gt;Node9 -->
<g id="edge11" class="edge">
<title>Node3&#45;&gt;Node9</title>
<path fill="none" stroke="midnightblue" d="M273.9,-168.44C233.77,-159.06 169.3,-143.99 125.72,-133.8"/>
<polygon fill="midnightblue" stroke="midnightblue" points="126.47,-130.38 115.93,-131.52 124.87,-137.2 126.47,-130.38"/>
</g>
<!-- Node6 -->
<g id="node6" class="node">
<title>Node6</title>
<g id="a_node6"><a xlink:title=" ">
<polygon fill="white" stroke="#bfbfbf" points="369.5,-0.5 369.5,-19.5 461.5,-19.5 461.5,-0.5 369.5,-0.5"/>
<text text-anchor="middle" x="415.5" y="-7.5" font-family="Helvetica,sans-Serif" font-size="10.00">l4/sys/linkage.h</text>
</a>
</g>
</g>
<!-- Node5&#45;&gt;Node6 -->
<g id="edge5" class="edge">
<title>Node5&#45;&gt;Node6</title>
<path fill="none" stroke="midnightblue" d="M415.5,-56.08C415.5,-49.01 415.5,-38.86 415.5,-29.99"/>
<polygon fill="midnightblue" stroke="midnightblue" points="419,-29.75 415.5,-19.75 412,-29.75 419,-29.75"/>
</g>
<!-- Node7&#45;&gt;Node4 -->
<g id="edge8" class="edge">
<title>Node7&#45;&gt;Node4</title>
<path fill="none" stroke="midnightblue" d="M170.78,-112.44C144.65,-103.4 103.24,-89.06 73.92,-78.92"/>
<polygon fill="midnightblue" stroke="midnightblue" points="74.7,-75.48 64.1,-75.52 72.41,-82.1 74.7,-75.48"/>
</g>
<!-- Node7&#45;&gt;Node5 -->
<g id="edge7" class="edge">
<title>Node7&#45;&gt;Node5</title>
<path fill="none" stroke="midnightblue" d="M230.36,-112.44C268.42,-103.1 329.46,-88.12 370.96,-77.93"/>
<polygon fill="midnightblue" stroke="midnightblue" points="371.93,-81.3 380.8,-75.52 370.26,-74.5 371.93,-81.3"/>
</g>
<!-- Node8&#45;&gt;Node5 -->
<g id="edge10" class="edge">
<title>Node8&#45;&gt;Node5</title>
<path fill="none" stroke="midnightblue" d="M329.89,-112.32C346.17,-103.7 371.37,-90.36 390.22,-80.39"/>
<polygon fill="midnightblue" stroke="midnightblue" points="391.95,-83.43 399.15,-75.65 388.68,-77.24 391.95,-83.43"/>
</g>
<!-- Node9&#45;&gt;Node4 -->
<g id="edge12" class="edge">
<title>Node9&#45;&gt;Node4</title>
<path fill="none" stroke="midnightblue" d="M72.89,-112.08C67.24,-104.46 58.96,-93.26 52.05,-83.94"/>
<polygon fill="midnightblue" stroke="midnightblue" points="54.75,-81.7 45.98,-75.75 49.12,-85.87 54.75,-81.7"/>
</g>
<!-- Node10&#45;&gt;Node3 -->
<g id="edge15" class="edge">
<title>Node10&#45;&gt;Node3</title>
<path fill="none" stroke="midnightblue" d="M365.06,-224.32C355.35,-216.26 340.68,-204.08 329,-194.37"/>
<polygon fill="midnightblue" stroke="midnightblue" points="331.06,-191.53 321.13,-187.83 326.59,-196.92 331.06,-191.53"/>
</g>
<!-- Node10&#45;&gt;Node4 -->
<g id="edge17" class="edge">
<title>Node10&#45;&gt;Node4</title>
<path fill="none" stroke="midnightblue" d="M336.25,-228.16C250.02,-216.64 48.55,-184.56 8.5,-132 -3.03,-116.87 10.09,-96.77 22.64,-82.94"/>
<polygon fill="midnightblue" stroke="midnightblue" points="25.3,-85.22 29.77,-75.62 20.29,-80.34 25.3,-85.22"/>
</g>
<!-- Node10&#45;&gt;Node5 -->
<g id="edge16" class="edge">
<title>Node10&#45;&gt;Node5</title>
<path fill="none" stroke="midnightblue" d="M377.65,-224.08C383.95,-197.95 402.44,-121.21 411.02,-85.58"/>
<polygon fill="midnightblue" stroke="midnightblue" points="414.5,-86.11 413.44,-75.57 407.69,-84.47 414.5,-86.11"/>
</g>
<!-- Node11&#45;&gt;Node12 -->
<g id="edge19" class="edge">
<title>Node11&#45;&gt;Node12</title>
<path fill="none" stroke="midnightblue" d="M313.79,-336.4C313.39,-328.47 312.88,-318.46 312.45,-309.86"/>
<polygon fill="midnightblue" stroke="midnightblue" points="315.94,-309.47 311.94,-299.66 308.94,-309.82 315.94,-309.47"/>
</g>
<!-- Node12&#45;&gt;Node3 -->
<g id="edge20" class="edge">
<title>Node12&#45;&gt;Node3</title>
<path fill="none" stroke="midnightblue" d="M311.42,-280.37C311.26,-262.62 310.89,-221.67 310.67,-197.6"/>
<polygon fill="midnightblue" stroke="midnightblue" points="314.17,-197.56 310.58,-187.59 307.17,-197.62 314.17,-197.56"/>
</g>
<!-- Node12&#45;&gt;Node10 -->
<g id="edge21" class="edge">
<title>Node12&#45;&gt;Node10</title>
<path fill="none" stroke="midnightblue" d="M321.78,-280.32C331.34,-272.26 345.78,-260.08 357.28,-250.37"/>
<polygon fill="midnightblue" stroke="midnightblue" points="359.64,-252.96 365.03,-243.83 355.13,-247.61 359.64,-252.96"/>
</g>
<!-- Node13 -->
<g id="node13" class="node">
<title>Node13</title>
<g id="a_node13"><a xlink:href="err_8h.html" target="_top" xlink:title="Error codes.">
<polygon fill="white" stroke="black" points="445.5,-168.5 445.5,-187.5 515.5,-187.5 515.5,-168.5 445.5,-168.5"/>
<text text-anchor="middle" x="480.5" y="-175.5" font-family="Helvetica,sans-Serif" font-size="10.00">l4/sys/err.h</text>
</a>
</g>
</g>
<!-- Node12&#45;&gt;Node13 -->
<g id="edge22" class="edge">
<title>Node12&#45;&gt;Node13</title>
<path fill="none" stroke="midnightblue" d="M343.91,-280.41C367.42,-273.17 399.22,-261.2 423.5,-244 441.98,-230.9 458.49,-210.65 468.92,-196.24"/>
<polygon fill="midnightblue" stroke="midnightblue" points="472,-197.95 474.86,-187.74 466.26,-193.93 472,-197.95"/>
</g>
<!-- Node13&#45;&gt;Node5 -->
<g id="edge23" class="edge">
<title>Node13&#45;&gt;Node5</title>
<path fill="none" stroke="midnightblue" d="M476.82,-168.33C471.29,-155.63 460.24,-131.36 448.5,-112 442.6,-102.27 435.16,-91.99 428.84,-83.72"/>
<polygon fill="midnightblue" stroke="midnightblue" points="431.46,-81.38 422.55,-75.65 425.94,-85.68 431.46,-81.38"/>
</g>
</g>
</svg>
