<?xml version="1.0" encoding="UTF-8" standalone="no"?>
<!DOCTYPE svg PUBLIC "-//W3C//DTD SVG 1.1//EN"
 "http://www.w3.org/Graphics/SVG/1.1/DTD/svg11.dtd">
<!-- Generated by graphviz version 2.43.0 (0)
 -->
<!-- Title: l4/sys/icu Pages: 1 -->
<svg width="995pt" height="879pt"
 viewBox="0.00 0.00 995.00 879.00" xmlns="http://www.w3.org/2000/svg" xmlns:xlink="http://www.w3.org/1999/xlink">
<g id="graph0" class="graph" transform="scale(1 1) rotate(0) translate(4 875)">
<title>l4/sys/icu</title>
<polygon fill="white" stroke="transparent" points="-4,4 -4,-875 991,-875 991,4 -4,4"/>
<!-- Node1 -->
<g id="node1" class="node">
<title>Node1</title>
<g id="a_node1"><a xlink:title="Interrupt controller.">
<polygon fill="#bfbfbf" stroke="black" points="389,-851.5 389,-870.5 451,-870.5 451,-851.5 389,-851.5"/>
<text text-anchor="middle" x="420" y="-858.5" font-family="Helvetica,sans-Serif" font-size="10.00">l4/sys/icu</text>
</a>
</g>
</g>
<!-- Node2 -->
<g id="node2" class="node">
<title>Node2</title>
<g id="a_node2"><a xlink:href="irq.html" target="_top" xlink:title="C++ Irq interface.">
<polygon fill="white" stroke="black" points="389.5,-795.5 389.5,-814.5 450.5,-814.5 450.5,-795.5 389.5,-795.5"/>
<text text-anchor="middle" x="420" y="-802.5" font-family="Helvetica,sans-Serif" font-size="10.00">l4/sys/irq</text>
</a>
</g>
</g>
<!-- Node1&#45;&gt;Node2 -->
<g id="edge1" class="edge">
<title>Node1&#45;&gt;Node2</title>
<path fill="none" stroke="midnightblue" d="M420,-851.08C420,-844.01 420,-833.86 420,-824.99"/>
<polygon fill="midnightblue" stroke="midnightblue" points="423.5,-824.75 420,-814.75 416.5,-824.75 423.5,-824.75"/>
</g>
<!-- Node3 -->
<g id="node3" class="node">
<title>Node3</title>
<g id="a_node3"><a xlink:href="icu_8h.html" target="_top" xlink:title="Interrupt controller.">
<polygon fill="white" stroke="black" points="99.5,-459.5 99.5,-478.5 170.5,-478.5 170.5,-459.5 99.5,-459.5"/>
<text text-anchor="middle" x="135" y="-466.5" font-family="Helvetica,sans-Serif" font-size="10.00">l4/sys/icu.h</text>
</a>
</g>
</g>
<!-- Node2&#45;&gt;Node3 -->
<g id="edge2" class="edge">
<title>Node2&#45;&gt;Node3</title>
<path fill="none" stroke="midnightblue" d="M389.12,-803.61C324.3,-801.01 180,-784.98 180,-694 180,-694 180,-694 180,-580 180,-544.93 160.16,-507.94 146.83,-487.04"/>
<polygon fill="midnightblue" stroke="midnightblue" points="149.7,-485.03 141.26,-478.63 143.87,-488.9 149.7,-485.03"/>
</g>
<!-- Node16 -->
<g id="node16" class="node">
<title>Node16</title>
<g id="a_node16"><a xlink:href="l4_2sys_2irq_8h.html" target="_top" xlink:title="C Irq interface.">
<polygon fill="white" stroke="black" points="227,-459.5 227,-478.5 297,-478.5 297,-459.5 227,-459.5"/>
<text text-anchor="middle" x="262" y="-466.5" font-family="Helvetica,sans-Serif" font-size="10.00">l4/sys/irq.h</text>
</a>
</g>
</g>
<!-- Node2&#45;&gt;Node16 -->
<g id="edge28" class="edge">
<title>Node2&#45;&gt;Node16</title>
<path fill="none" stroke="midnightblue" d="M389.25,-795.71C346.69,-782.15 275,-750.88 275,-694 275,-694 275,-694 275,-580 275,-547.58 269.36,-510.15 265.51,-488.37"/>
<polygon fill="midnightblue" stroke="midnightblue" points="268.95,-487.72 263.7,-478.52 262.07,-488.99 268.95,-487.72"/>
</g>
<!-- Node18 -->
<g id="node18" class="node">
<title>Node18</title>
<g id="a_node18"><a xlink:href="capability.html" target="_top" xlink:title="L4::Cap related definitions.">
<polygon fill="white" stroke="black" points="723,-683.5 723,-702.5 819,-702.5 819,-683.5 723,-683.5"/>
<text text-anchor="middle" x="771" y="-690.5" font-family="Helvetica,sans-Serif" font-size="10.00">l4/sys/capability</text>
</a>
</g>
</g>
<!-- Node2&#45;&gt;Node18 -->
<g id="edge35" class="edge">
<title>Node2&#45;&gt;Node18</title>
<path fill="none" stroke="midnightblue" d="M450.67,-796.48C484.33,-788.06 539.83,-773.66 587,-759 640.82,-742.27 702.39,-719.83 738.92,-706.17"/>
<polygon fill="midnightblue" stroke="midnightblue" points="740.39,-709.36 748.52,-702.57 737.93,-702.8 740.39,-709.36"/>
</g>
<!-- Node26 -->
<g id="node26" class="node">
<title>Node26</title>
<g id="a_node26"><a xlink:href="ipc__iface.html" target="_top" xlink:title="Interface Definition Language.">
<polygon fill="white" stroke="black" points="473,-571.5 473,-590.5 553,-590.5 553,-571.5 473,-571.5"/>
<text text-anchor="middle" x="513" y="-578.5" font-family="Helvetica,sans-Serif" font-size="10.00">cxx/ipc_iface</text>
</a>
</g>
</g>
<!-- Node2&#45;&gt;Node26 -->
<g id="edge76" class="edge">
<title>Node2&#45;&gt;Node26</title>
<path fill="none" stroke="midnightblue" d="M423.65,-795.3C437.39,-762.49 486.24,-645.88 505.3,-600.38"/>
<polygon fill="midnightblue" stroke="midnightblue" points="508.64,-601.46 509.28,-590.88 502.19,-598.75 508.64,-601.46"/>
</g>
<!-- Node27 -->
<g id="node27" class="node">
<title>Node27</title>
<g id="a_node27"><a xlink:href="ipc__types.html" target="_top" xlink:title=" ">
<polygon fill="white" stroke="black" points="467.5,-459.5 467.5,-478.5 582.5,-478.5 582.5,-459.5 467.5,-459.5"/>
<text text-anchor="middle" x="525" y="-466.5" font-family="Helvetica,sans-Serif" font-size="10.00">l4/sys/cxx/ipc_types</text>
</a>
</g>
</g>
<!-- Node2&#45;&gt;Node27 -->
<g id="edge77" class="edge">
<title>Node2&#45;&gt;Node27</title>
<path fill="none" stroke="midnightblue" d="M417.44,-795.25C412.25,-776.74 401,-732.18 401,-694 401,-694 401,-694 401,-580 401,-531.26 455.27,-498.87 492.01,-482.52"/>
<polygon fill="midnightblue" stroke="midnightblue" points="493.56,-485.67 501.38,-478.52 490.81,-479.23 493.56,-485.67"/>
</g>
<!-- Node30 -->
<g id="node30" class="node">
<title>Node30</title>
<g id="a_node30"><a xlink:href="rcv__endpoint.html" target="_top" xlink:title="The C++ Receive endpoint interface.">
<polygon fill="white" stroke="black" points="467.5,-739.5 467.5,-758.5 578.5,-758.5 578.5,-739.5 467.5,-739.5"/>
<text text-anchor="middle" x="523" y="-746.5" font-family="Helvetica,sans-Serif" font-size="10.00">l4/sys/rcv_endpoint</text>
</a>
</g>
</g>
<!-- Node2&#45;&gt;Node30 -->
<g id="edge71" class="edge">
<title>Node2&#45;&gt;Node30</title>
<path fill="none" stroke="midnightblue" d="M436.55,-795.32C452.99,-786.7 478.43,-773.36 497.47,-763.39"/>
<polygon fill="midnightblue" stroke="midnightblue" points="499.26,-766.4 506.49,-758.65 496.01,-760.2 499.26,-766.4"/>
</g>
<!-- Node4 -->
<g id="node4" class="node">
<title>Node4</title>
<g id="a_node4"><a xlink:href="kernel__object_8h.html" target="_top" xlink:title="Kernel object system calls.">
<polygon fill="white" stroke="black" points="106,-403.5 106,-422.5 228,-422.5 228,-403.5 106,-403.5"/>
<text text-anchor="middle" x="167" y="-410.5" font-family="Helvetica,sans-Serif" font-size="10.00">l4/sys/kernel_object.h</text>
</a>
</g>
</g>
<!-- Node3&#45;&gt;Node4 -->
<g id="edge3" class="edge">
<title>Node3&#45;&gt;Node4</title>
<path fill="none" stroke="midnightblue" d="M140.28,-459.08C144.71,-451.61 151.16,-440.72 156.62,-431.52"/>
<polygon fill="midnightblue" stroke="midnightblue" points="159.73,-433.14 161.81,-422.75 153.71,-429.57 159.73,-433.14"/>
</g>
<!-- Node14 -->
<g id="node14" class="node">
<title>Node14</title>
<g id="a_node14"><a xlink:href="l4_2sys_2ipc_8h.html" target="_top" xlink:title="Common IPC interface.">
<polygon fill="white" stroke="black" points="340.5,-280.5 340.5,-299.5 411.5,-299.5 411.5,-280.5 340.5,-280.5"/>
<text text-anchor="middle" x="376" y="-287.5" font-family="Helvetica,sans-Serif" font-size="10.00">l4/sys/ipc.h</text>
</a>
</g>
</g>
<!-- Node3&#45;&gt;Node14 -->
<g id="edge27" class="edge">
<title>Node3&#45;&gt;Node14</title>
<path fill="none" stroke="midnightblue" d="M124.29,-459.3C115.06,-451.07 102.41,-437.79 97,-423 82.63,-383.7 99.2,-360.67 133,-336 163.71,-313.59 268.39,-300.64 329.88,-294.79"/>
<polygon fill="midnightblue" stroke="midnightblue" points="330.46,-298.25 340.09,-293.85 329.82,-291.28 330.46,-298.25"/>
</g>
<!-- Node5 -->
<g id="node5" class="node">
<title>Node5</title>
<g id="a_node5"><a xlink:href="l4_2sys_2types_8h.html" target="_top" xlink:title="Common L4 ABI Data Types.">
<polygon fill="white" stroke="black" points="704,-168.5 704,-187.5 788,-187.5 788,-168.5 704,-168.5"/>
<text text-anchor="middle" x="746" y="-175.5" font-family="Helvetica,sans-Serif" font-size="10.00">l4/sys/types.h</text>
</a>
</g>
</g>
<!-- Node4&#45;&gt;Node5 -->
<g id="edge4" class="edge">
<title>Node4&#45;&gt;Node5</title>
<path fill="none" stroke="midnightblue" d="M154.5,-403.3C144.13,-395.25 130.11,-382.24 124,-367 118.87,-354.21 117.08,-347.92 124,-336 186.13,-228.94 258.54,-252.5 379,-224 489.3,-197.91 622.03,-186.4 693.78,-181.77"/>
<polygon fill="midnightblue" stroke="midnightblue" points="694.15,-185.26 703.92,-181.14 693.72,-178.27 694.15,-185.26"/>
</g>
<!-- Node7 -->
<g id="node7" class="node">
<title>Node7</title>
<g id="a_node7"><a xlink:href="compiler_8h.html" target="_top" xlink:title="L4 compiler related defines.">
<polygon fill="white" stroke="black" points="441.5,-56.5 441.5,-75.5 540.5,-75.5 540.5,-56.5 441.5,-56.5"/>
<text text-anchor="middle" x="491" y="-63.5" font-family="Helvetica,sans-Serif" font-size="10.00">l4/sys/compiler.h</text>
</a>
</g>
</g>
<!-- Node4&#45;&gt;Node7 -->
<g id="edge15" class="edge">
<title>Node4&#45;&gt;Node7</title>
<path fill="none" stroke="midnightblue" d="M131.99,-403.5C83.02,-389.27 0,-355.63 0,-291 0,-291 0,-291 0,-177 0,-89.61 299.93,-71.63 430.95,-67.94"/>
<polygon fill="midnightblue" stroke="midnightblue" points="431.31,-71.44 441.22,-67.67 431.13,-64.44 431.31,-71.44"/>
</g>
<!-- Node12 -->
<g id="node12" class="node">
<title>Node12</title>
<g id="a_node12"><a xlink:href="l4_2sys_2utcb_8h.html" target="_top" xlink:title="UTCB definitions.">
<polygon fill="white" stroke="black" points="497,-224.5 497,-243.5 575,-243.5 575,-224.5 497,-224.5"/>
<text text-anchor="middle" x="536" y="-231.5" font-family="Helvetica,sans-Serif" font-size="10.00">l4/sys/utcb.h</text>
</a>
</g>
</g>
<!-- Node4&#45;&gt;Node12 -->
<g id="edge16" class="edge">
<title>Node4&#45;&gt;Node12</title>
<path fill="none" stroke="midnightblue" d="M157.61,-403.35C142.63,-388.5 116.61,-357.67 133,-336 154.53,-307.53 383.72,-262.7 486.56,-243.83"/>
<polygon fill="midnightblue" stroke="midnightblue" points="487.48,-247.22 496.69,-241.98 486.22,-240.34 487.48,-247.22"/>
</g>
<!-- Node13 -->
<g id="node13" class="node">
<title>Node13</title>
<g id="a_node13"><a xlink:href="____kernel__object__impl_8h.html" target="_top" xlink:title="Low&#45;level kernel debugger functions.">
<polygon fill="white" stroke="black" points="142,-336.5 142,-366.5 266,-366.5 266,-336.5 142,-336.5"/>
<text text-anchor="start" x="150" y="-354.5" font-family="Helvetica,sans-Serif" font-size="10.00">l4/sys/__kernel_object</text>
<text text-anchor="middle" x="204" y="-343.5" font-family="Helvetica,sans-Serif" font-size="10.00">_impl.h</text>
</a>
</g>
</g>
<!-- Node4&#45;&gt;Node13 -->
<g id="edge20" class="edge">
<title>Node4&#45;&gt;Node13</title>
<path fill="none" stroke="midnightblue" d="M172.3,-403.48C176.89,-396.09 183.74,-385.08 189.9,-375.17"/>
<polygon fill="midnightblue" stroke="midnightblue" points="192.97,-376.86 195.28,-366.52 187.03,-373.17 192.97,-376.86"/>
</g>
<!-- Node4&#45;&gt;Node14 -->
<g id="edge26" class="edge">
<title>Node4&#45;&gt;Node14</title>
<path fill="none" stroke="midnightblue" d="M192.72,-403.35C215.15,-395.33 248.21,-382.34 275,-367 283.59,-362.08 330.26,-326.33 357.06,-305.66"/>
<polygon fill="midnightblue" stroke="midnightblue" points="359.21,-308.42 364.98,-299.54 354.93,-302.88 359.21,-308.42"/>
</g>
<!-- Node6 -->
<g id="node6" class="node">
<title>Node6</title>
<g id="a_node6"><a xlink:href="l4_2sys_2l4int_8h.html" target="_top" xlink:title="Fixed sized integer types, generic version.">
<polygon fill="white" stroke="black" points="714.5,-56.5 714.5,-75.5 793.5,-75.5 793.5,-56.5 714.5,-56.5"/>
<text text-anchor="middle" x="754" y="-63.5" font-family="Helvetica,sans-Serif" font-size="10.00">l4/sys/l4int.h</text>
</a>
</g>
</g>
<!-- Node5&#45;&gt;Node6 -->
<g id="edge5" class="edge">
<title>Node5&#45;&gt;Node6</title>
<path fill="none" stroke="midnightblue" d="M741.88,-168.14C736.58,-155.61 728.56,-132 733,-112 735.12,-102.43 739.51,-92.48 743.72,-84.37"/>
<polygon fill="midnightblue" stroke="midnightblue" points="746.82,-86 748.62,-75.56 740.7,-82.6 746.82,-86"/>
</g>
<!-- Node5&#45;&gt;Node7 -->
<g id="edge6" class="edge">
<title>Node5&#45;&gt;Node7</title>
<path fill="none" stroke="midnightblue" d="M703.73,-172.35C648.75,-165.62 556.49,-151.76 529,-132 513.11,-120.58 502.81,-100.3 497,-85.42"/>
<polygon fill="midnightblue" stroke="midnightblue" points="500.2,-83.98 493.54,-75.74 493.61,-86.33 500.2,-83.98"/>
</g>
<!-- Node9 -->
<g id="node9" class="node">
<title>Node9</title>
<g id="a_node9"><a xlink:href="l4_2sys_2consts_8h.html" target="_top" xlink:title="Common constants.">
<polygon fill="white" stroke="black" points="866.5,-112.5 866.5,-131.5 955.5,-131.5 955.5,-112.5 866.5,-112.5"/>
<text text-anchor="middle" x="911" y="-119.5" font-family="Helvetica,sans-Serif" font-size="10.00">l4/sys/consts.h</text>
</a>
</g>
</g>
<!-- Node5&#45;&gt;Node9 -->
<g id="edge8" class="edge">
<title>Node5&#45;&gt;Node9</title>
<path fill="none" stroke="midnightblue" d="M772.14,-168.44C800.02,-159.32 844.35,-144.81 875.4,-134.65"/>
<polygon fill="midnightblue" stroke="midnightblue" points="876.56,-137.95 884.98,-131.52 874.38,-131.3 876.56,-137.95"/>
</g>
<!-- Node10 -->
<g id="node10" class="node">
<title>Node10</title>
<g id="a_node10"><a xlink:href="____l4__fpage_8h_source.html" target="_top" xlink:title=" ">
<polygon fill="white" stroke="black" points="538,-112.5 538,-131.5 648,-131.5 648,-112.5 538,-112.5"/>
<text text-anchor="middle" x="593" y="-119.5" font-family="Helvetica,sans-Serif" font-size="10.00">l4/sys/__l4_fpage.h</text>
</a>
</g>
</g>
<!-- Node5&#45;&gt;Node10 -->
<g id="edge11" class="edge">
<title>Node5&#45;&gt;Node10</title>
<path fill="none" stroke="midnightblue" d="M721.76,-168.44C696.13,-159.4 655.51,-145.06 626.76,-134.92"/>
<polygon fill="midnightblue" stroke="midnightblue" points="627.72,-131.54 617.13,-131.52 625.39,-138.15 627.72,-131.54"/>
</g>
<!-- Node11 -->
<g id="node11" class="node">
<title>Node11</title>
<g id="a_node11"><a xlink:href="____timeout_8h_source.html" target="_top" xlink:title=" ">
<polygon fill="white" stroke="black" points="742,-112.5 742,-131.5 848,-131.5 848,-112.5 742,-112.5"/>
<text text-anchor="middle" x="795" y="-119.5" font-family="Helvetica,sans-Serif" font-size="10.00">l4/sys/__timeout.h</text>
</a>
</g>
</g>
<!-- Node5&#45;&gt;Node11 -->
<g id="edge13" class="edge">
<title>Node5&#45;&gt;Node11</title>
<path fill="none" stroke="midnightblue" d="M754.09,-168.08C761.16,-160.3 771.59,-148.8 780.15,-139.37"/>
<polygon fill="midnightblue" stroke="midnightblue" points="782.93,-141.51 787.06,-131.75 777.75,-136.8 782.93,-141.51"/>
</g>
<!-- Node8 -->
<g id="node8" class="node">
<title>Node8</title>
<g id="a_node8"><a xlink:title=" ">
<polygon fill="white" stroke="#bfbfbf" points="445,-0.5 445,-19.5 537,-19.5 537,-0.5 445,-0.5"/>
<text text-anchor="middle" x="491" y="-7.5" font-family="Helvetica,sans-Serif" font-size="10.00">l4/sys/linkage.h</text>
</a>
</g>
</g>
<!-- Node7&#45;&gt;Node8 -->
<g id="edge7" class="edge">
<title>Node7&#45;&gt;Node8</title>
<path fill="none" stroke="midnightblue" d="M491,-56.08C491,-49.01 491,-38.86 491,-29.99"/>
<polygon fill="midnightblue" stroke="midnightblue" points="494.5,-29.75 491,-19.75 487.5,-29.75 494.5,-29.75"/>
</g>
<!-- Node9&#45;&gt;Node6 -->
<g id="edge10" class="edge">
<title>Node9&#45;&gt;Node6</title>
<path fill="none" stroke="midnightblue" d="M886.12,-112.44C859.71,-103.36 817.78,-88.94 788.26,-78.78"/>
<polygon fill="midnightblue" stroke="midnightblue" points="789.36,-75.46 778.76,-75.52 787.08,-82.08 789.36,-75.46"/>
</g>
<!-- Node9&#45;&gt;Node7 -->
<g id="edge9" class="edge">
<title>Node9&#45;&gt;Node7</title>
<path fill="none" stroke="midnightblue" d="M866.23,-113.39C863.11,-112.9 860.01,-112.44 857,-112 749.36,-96.42 623.39,-81.7 550.83,-73.56"/>
<polygon fill="midnightblue" stroke="midnightblue" points="550.85,-70.04 540.52,-72.41 550.07,-77 550.85,-70.04"/>
</g>
<!-- Node10&#45;&gt;Node7 -->
<g id="edge12" class="edge">
<title>Node10&#45;&gt;Node7</title>
<path fill="none" stroke="midnightblue" d="M576.61,-112.32C560.33,-103.7 535.13,-90.36 516.28,-80.39"/>
<polygon fill="midnightblue" stroke="midnightblue" points="517.82,-77.24 507.35,-75.65 514.55,-83.43 517.82,-77.24"/>
</g>
<!-- Node11&#45;&gt;Node6 -->
<g id="edge14" class="edge">
<title>Node11&#45;&gt;Node6</title>
<path fill="none" stroke="midnightblue" d="M788.23,-112.08C782.44,-104.46 773.94,-93.26 766.86,-83.94"/>
<polygon fill="midnightblue" stroke="midnightblue" points="769.48,-81.6 760.64,-75.75 763.9,-85.83 769.48,-81.6"/>
</g>
<!-- Node12&#45;&gt;Node5 -->
<g id="edge17" class="edge">
<title>Node12&#45;&gt;Node5</title>
<path fill="none" stroke="midnightblue" d="M569.28,-224.44C605.45,-215.14 663.38,-200.25 702.98,-190.06"/>
<polygon fill="midnightblue" stroke="midnightblue" points="704.07,-193.4 712.88,-187.52 702.32,-186.62 704.07,-193.4"/>
</g>
<!-- Node12&#45;&gt;Node6 -->
<g id="edge19" class="edge">
<title>Node12&#45;&gt;Node6</title>
<path fill="none" stroke="midnightblue" d="M547.41,-224.31C582.73,-197.42 690.5,-115.35 734.74,-81.67"/>
<polygon fill="midnightblue" stroke="midnightblue" points="736.86,-84.45 742.7,-75.61 732.62,-78.88 736.86,-84.45"/>
</g>
<!-- Node12&#45;&gt;Node7 -->
<g id="edge18" class="edge">
<title>Node12&#45;&gt;Node7</title>
<path fill="none" stroke="midnightblue" d="M533.56,-224.36C528.64,-206.93 517.23,-166.26 508,-132 503.82,-116.49 499.22,-98.87 495.86,-85.89"/>
<polygon fill="midnightblue" stroke="midnightblue" points="499.16,-84.65 493.27,-75.84 492.38,-86.4 499.16,-84.65"/>
</g>
<!-- Node13&#45;&gt;Node14 -->
<g id="edge21" class="edge">
<title>Node13&#45;&gt;Node14</title>
<path fill="none" stroke="midnightblue" d="M244.76,-336.4C274.22,-326.21 313.59,-312.59 341.5,-302.93"/>
<polygon fill="midnightblue" stroke="midnightblue" points="342.92,-306.15 351.22,-299.57 340.63,-299.53 342.92,-306.15"/>
</g>
<!-- Node14&#45;&gt;Node5 -->
<g id="edge22" class="edge">
<title>Node14&#45;&gt;Node5</title>
<path fill="none" stroke="midnightblue" d="M375.76,-280.26C375.88,-266.08 378.37,-238.2 395,-224 438.82,-186.57 606.95,-179.83 693.63,-178.9"/>
<polygon fill="midnightblue" stroke="midnightblue" points="693.82,-182.4 703.79,-178.82 693.76,-175.4 693.82,-182.4"/>
</g>
<!-- Node14&#45;&gt;Node12 -->
<g id="edge23" class="edge">
<title>Node14&#45;&gt;Node12</title>
<path fill="none" stroke="midnightblue" d="M401.35,-280.44C428.27,-271.36 471,-256.94 501.09,-246.78"/>
<polygon fill="midnightblue" stroke="midnightblue" points="502.41,-250.03 510.77,-243.52 500.17,-243.4 502.41,-250.03"/>
</g>
<!-- Node15 -->
<g id="node15" class="node">
<title>Node15</title>
<g id="a_node15"><a xlink:href="err_8h.html" target="_top" xlink:title="Error codes.">
<polygon fill="white" stroke="black" points="404,-224.5 404,-243.5 474,-243.5 474,-224.5 404,-224.5"/>
<text text-anchor="middle" x="439" y="-231.5" font-family="Helvetica,sans-Serif" font-size="10.00">l4/sys/err.h</text>
</a>
</g>
</g>
<!-- Node14&#45;&gt;Node15 -->
<g id="edge24" class="edge">
<title>Node14&#45;&gt;Node15</title>
<path fill="none" stroke="midnightblue" d="M386.12,-280.32C395.53,-272.26 409.74,-260.08 421.07,-250.37"/>
<polygon fill="midnightblue" stroke="midnightblue" points="423.38,-253 428.69,-243.83 418.82,-247.68 423.38,-253"/>
</g>
<!-- Node15&#45;&gt;Node7 -->
<g id="edge25" class="edge">
<title>Node15&#45;&gt;Node7</title>
<path fill="none" stroke="midnightblue" d="M441.8,-224.08C450.02,-197.83 474.23,-120.55 485.32,-85.12"/>
<polygon fill="midnightblue" stroke="midnightblue" points="488.67,-86.16 488.32,-75.57 481.99,-84.06 488.67,-86.16"/>
</g>
<!-- Node16&#45;&gt;Node4 -->
<g id="edge29" class="edge">
<title>Node16&#45;&gt;Node4</title>
<path fill="none" stroke="midnightblue" d="M246.74,-459.32C231.78,-450.82 208.75,-437.73 191.27,-427.8"/>
<polygon fill="midnightblue" stroke="midnightblue" points="192.65,-424.55 182.23,-422.65 189.19,-430.64 192.65,-424.55"/>
</g>
<!-- Node16&#45;&gt;Node14 -->
<g id="edge30" class="edge">
<title>Node16&#45;&gt;Node14</title>
<path fill="none" stroke="midnightblue" d="M267.5,-459.46C285.14,-432.08 340.54,-346.05 364.63,-308.65"/>
<polygon fill="midnightblue" stroke="midnightblue" points="367.82,-310.17 370.29,-299.87 361.93,-306.38 367.82,-310.17"/>
</g>
<!-- Node17 -->
<g id="node17" class="node">
<title>Node17</title>
<g id="a_node17"><a xlink:href="rcv__endpoint_8h.html" target="_top" xlink:title="Receive endpoint C interface.">
<polygon fill="white" stroke="black" points="360,-342 360,-361 480,-361 480,-342 360,-342"/>
<text text-anchor="middle" x="420" y="-349" font-family="Helvetica,sans-Serif" font-size="10.00">l4/sys/rcv_endpoint.h</text>
</a>
</g>
</g>
<!-- Node16&#45;&gt;Node17 -->
<g id="edge31" class="edge">
<title>Node16&#45;&gt;Node17</title>
<path fill="none" stroke="midnightblue" d="M273.9,-459.39C286.39,-450.35 306.6,-435.7 324,-423 350.36,-403.76 380.71,-381.44 400.1,-367.16"/>
<polygon fill="midnightblue" stroke="midnightblue" points="402.22,-369.95 408.19,-361.2 398.06,-364.32 402.22,-369.95"/>
</g>
<!-- Node17&#45;&gt;Node5 -->
<g id="edge33" class="edge">
<title>Node17&#45;&gt;Node5</title>
<path fill="none" stroke="midnightblue" d="M436.17,-342C488.96,-314.22 656.57,-226.04 720.71,-192.31"/>
<polygon fill="midnightblue" stroke="midnightblue" points="722.52,-195.31 729.74,-187.56 719.26,-189.11 722.52,-195.31"/>
</g>
<!-- Node17&#45;&gt;Node12 -->
<g id="edge32" class="edge">
<title>Node17&#45;&gt;Node12</title>
<path fill="none" stroke="midnightblue" d="M428.72,-341.82C448.12,-322.5 495.09,-275.74 519.95,-250.98"/>
<polygon fill="midnightblue" stroke="midnightblue" points="522.56,-253.32 527.18,-243.78 517.62,-248.36 522.56,-253.32"/>
</g>
<!-- Node17&#45;&gt;Node14 -->
<g id="edge34" class="edge">
<title>Node17&#45;&gt;Node14</title>
<path fill="none" stroke="midnightblue" d="M413.7,-341.98C407.1,-333.05 396.56,-318.81 388.31,-307.64"/>
<polygon fill="midnightblue" stroke="midnightblue" points="391.05,-305.47 382.29,-299.51 385.42,-309.63 391.05,-305.47"/>
</g>
<!-- Node18&#45;&gt;Node5 -->
<g id="edge37" class="edge">
<title>Node18&#45;&gt;Node5</title>
<path fill="none" stroke="midnightblue" d="M800.35,-683.5C841.4,-669.59 911,-637.79 911,-582 911,-582 911,-582 911,-350.5 911,-272.42 821.08,-216.16 774,-192.05"/>
<polygon fill="midnightblue" stroke="midnightblue" points="775.44,-188.86 764.93,-187.53 772.32,-195.12 775.44,-188.86"/>
</g>
<!-- Node18&#45;&gt;Node9 -->
<g id="edge36" class="edge">
<title>Node18&#45;&gt;Node9</title>
<path fill="none" stroke="midnightblue" d="M819.17,-683.69C871.88,-671.5 949,-643.21 949,-582 949,-582 949,-582 949,-524 949,-445.93 987,-430.57 987,-352.5 987,-352.5 987,-352.5 987,-233 987,-193.28 953.04,-157.5 930.52,-138.15"/>
<polygon fill="midnightblue" stroke="midnightblue" points="932.48,-135.24 922.54,-131.57 928.02,-140.63 932.48,-135.24"/>
</g>
<!-- Node19 -->
<g id="node19" class="node">
<title>Node19</title>
<g id="a_node19"><a xlink:href="kobject_source.html" target="_top" xlink:title=" ">
<polygon fill="white" stroke="black" points="799.5,-515.5 799.5,-534.5 882.5,-534.5 882.5,-515.5 799.5,-515.5"/>
<text text-anchor="middle" x="841" y="-522.5" font-family="Helvetica,sans-Serif" font-size="10.00">l4/sys/kobject</text>
</a>
</g>
</g>
<!-- Node18&#45;&gt;Node19 -->
<g id="edge38" class="edge">
<title>Node18&#45;&gt;Node19</title>
<path fill="none" stroke="midnightblue" d="M774.76,-683.08C785.83,-656.83 818.42,-579.55 833.36,-544.12"/>
<polygon fill="midnightblue" stroke="midnightblue" points="836.73,-545.14 837.39,-534.57 830.28,-542.42 836.73,-545.14"/>
</g>
<!-- Node24 -->
<g id="node24" class="node">
<title>Node24</title>
<g id="a_node24"><a xlink:href="l4_2sys_2task_8h.html" target="_top" xlink:title="Common task related definitions.">
<polygon fill="white" stroke="black" points="686,-342 686,-361 764,-361 764,-342 686,-342"/>
<text text-anchor="middle" x="725" y="-349" font-family="Helvetica,sans-Serif" font-size="10.00">l4/sys/task.h</text>
</a>
</g>
</g>
<!-- Node18&#45;&gt;Node24 -->
<g id="edge54" class="edge">
<title>Node18&#45;&gt;Node24</title>
<path fill="none" stroke="midnightblue" d="M772.07,-683.33C775.63,-652.28 785.58,-543.88 763,-459 758.35,-441.52 750.62,-439.84 744,-423 737.34,-406.06 732.17,-385.94 728.92,-371.54"/>
<polygon fill="midnightblue" stroke="midnightblue" points="732.26,-370.42 726.73,-361.38 725.42,-371.9 732.26,-370.42"/>
</g>
<!-- Node25 -->
<g id="node25" class="node">
<title>Node25</title>
<g id="a_node25"><a xlink:href="sys_2meta.html" target="_top" xlink:title="Meta interface for getting dynamic type information about objects behind capabilities.">
<polygon fill="white" stroke="black" points="623,-627.5 623,-646.5 697,-646.5 697,-627.5 623,-627.5"/>
<text text-anchor="middle" x="660" y="-634.5" font-family="Helvetica,sans-Serif" font-size="10.00">l4/sys/meta</text>
</a>
</g>
</g>
<!-- Node18&#45;&gt;Node25 -->
<g id="edge55" class="edge">
<title>Node18&#45;&gt;Node25</title>
<path fill="none" stroke="midnightblue" d="M753.17,-683.32C735.28,-674.62 707.52,-661.12 686.95,-651.11"/>
<polygon fill="midnightblue" stroke="midnightblue" points="688.31,-647.88 677.79,-646.65 685.25,-654.18 688.31,-647.88"/>
</g>
<!-- Node19&#45;&gt;Node4 -->
<g id="edge39" class="edge">
<title>Node19&#45;&gt;Node4</title>
<path fill="none" stroke="midnightblue" d="M799.22,-521.91C663.71,-515.02 243.67,-492.65 218,-479 198.47,-468.61 183.96,-447.15 175.51,-431.73"/>
<polygon fill="midnightblue" stroke="midnightblue" points="178.53,-429.94 170.84,-422.64 172.3,-433.14 178.53,-429.94"/>
</g>
<!-- Node19&#45;&gt;Node5 -->
<g id="edge40" class="edge">
<title>Node19&#45;&gt;Node5</title>
<path fill="none" stroke="midnightblue" d="M843.78,-515.39C849.83,-495.43 862.96,-444.51 854,-403 836.12,-320.1 782.08,-232.53 757.91,-196.27"/>
<polygon fill="midnightblue" stroke="midnightblue" points="760.7,-194.14 752.19,-187.82 754.9,-198.06 760.7,-194.14"/>
</g>
<!-- Node20 -->
<g id="node20" class="node">
<title>Node20</title>
<g id="a_node20"><a xlink:href="____typeinfo_8h.html" target="_top" xlink:title="Type information handling.">
<polygon fill="white" stroke="black" points="677.5,-459.5 677.5,-478.5 754.5,-478.5 754.5,-459.5 677.5,-459.5"/>
<text text-anchor="middle" x="716" y="-466.5" font-family="Helvetica,sans-Serif" font-size="10.00">__typeinfo.h</text>
</a>
</g>
</g>
<!-- Node19&#45;&gt;Node20 -->
<g id="edge41" class="edge">
<title>Node19&#45;&gt;Node20</title>
<path fill="none" stroke="midnightblue" d="M821.19,-515.44C800.71,-506.6 768.52,-492.69 745.14,-482.59"/>
<polygon fill="midnightblue" stroke="midnightblue" points="746.28,-479.27 735.71,-478.52 743.51,-485.7 746.28,-479.27"/>
</g>
<!-- Node21 -->
<g id="node21" class="node">
<title>Node21</title>
<g id="a_node21"><a xlink:href="types.html" target="_top" xlink:title=" ">
<polygon fill="white" stroke="black" points="579,-342 579,-361 643,-361 643,-342 579,-342"/>
<text text-anchor="middle" x="611" y="-349" font-family="Helvetica,sans-Serif" font-size="10.00">cxx/types</text>
</a>
</g>
</g>
<!-- Node20&#45;&gt;Node21 -->
<g id="edge42" class="edge">
<title>Node20&#45;&gt;Node21</title>
<path fill="none" stroke="midnightblue" d="M709.44,-459.32C699.72,-446.61 680.71,-422.32 663,-403 651.86,-390.85 638.51,-377.91 628.12,-368.17"/>
<polygon fill="midnightblue" stroke="midnightblue" points="630.24,-365.36 620.53,-361.13 625.48,-370.49 630.24,-365.36"/>
</g>
<!-- Node22 -->
<g id="node22" class="node">
<title>Node22</title>
<g id="a_node22"><a xlink:href="ipc__basics_source.html" target="_top" xlink:title=" ">
<polygon fill="white" stroke="black" points="457.5,-403.5 457.5,-422.5 544.5,-422.5 544.5,-403.5 457.5,-403.5"/>
<text text-anchor="middle" x="501" y="-410.5" font-family="Helvetica,sans-Serif" font-size="10.00">cxx/ipc_basics</text>
</a>
</g>
</g>
<!-- Node20&#45;&gt;Node22 -->
<g id="edge43" class="edge">
<title>Node20&#45;&gt;Node22</title>
<path fill="none" stroke="midnightblue" d="M681.93,-459.44C644.82,-450.12 585.34,-435.18 544.79,-425"/>
<polygon fill="midnightblue" stroke="midnightblue" points="545.46,-421.56 534.91,-422.52 543.75,-428.35 545.46,-421.56"/>
</g>
<!-- Node23 -->
<g id="node23" class="node">
<title>Node23</title>
<g id="a_node23"><a xlink:href="capability_8h_source.html" target="_top" xlink:title=" ">
<polygon fill="white" stroke="black" points="753,-403.5 753,-422.5 845,-422.5 845,-403.5 753,-403.5"/>
<text text-anchor="middle" x="799" y="-410.5" font-family="Helvetica,sans-Serif" font-size="10.00">cxx/capability.h</text>
</a>
</g>
</g>
<!-- Node20&#45;&gt;Node23 -->
<g id="edge47" class="edge">
<title>Node20&#45;&gt;Node23</title>
<path fill="none" stroke="midnightblue" d="M729.34,-459.32C742.16,-450.98 761.78,-438.21 776.94,-428.35"/>
<polygon fill="midnightblue" stroke="midnightblue" points="779.22,-431.04 785.7,-422.65 775.41,-425.17 779.22,-431.04"/>
</g>
<!-- Node22&#45;&gt;Node12 -->
<g id="edge45" class="edge">
<title>Node22&#45;&gt;Node12</title>
<path fill="none" stroke="midnightblue" d="M506.09,-403.37C511.03,-394.55 518.31,-380.29 522,-367 532.92,-327.72 535.43,-279.69 535.94,-253.77"/>
<polygon fill="midnightblue" stroke="midnightblue" points="539.45,-253.56 536.06,-243.52 532.45,-253.48 539.45,-253.56"/>
</g>
<!-- Node22&#45;&gt;Node15 -->
<g id="edge46" class="edge">
<title>Node22&#45;&gt;Node15</title>
<path fill="none" stroke="midnightblue" d="M500.49,-403.37C499.46,-389.07 496.54,-359.68 489,-336 479.15,-305.06 461.06,-271.79 449.55,-252.21"/>
<polygon fill="midnightblue" stroke="midnightblue" points="452.5,-250.32 444.35,-243.54 446.49,-253.91 452.5,-250.32"/>
</g>
<!-- Node22&#45;&gt;Node21 -->
<g id="edge44" class="edge">
<title>Node22&#45;&gt;Node21</title>
<path fill="none" stroke="midnightblue" d="M516.76,-403.48C534.98,-393.62 565.17,-377.29 586.47,-365.77"/>
<polygon fill="midnightblue" stroke="midnightblue" points="588.14,-368.85 595.27,-361.01 584.81,-362.69 588.14,-368.85"/>
</g>
<!-- Node23&#45;&gt;Node5 -->
<g id="edge49" class="edge">
<title>Node23&#45;&gt;Node5</title>
<path fill="none" stroke="midnightblue" d="M797.05,-403.43C789.37,-369.68 761.12,-245.47 750.28,-197.8"/>
<polygon fill="midnightblue" stroke="midnightblue" points="753.65,-196.87 748.02,-187.9 746.83,-198.42 753.65,-196.87"/>
</g>
<!-- Node23&#45;&gt;Node9 -->
<g id="edge48" class="edge">
<title>Node23&#45;&gt;Node9</title>
<path fill="none" stroke="midnightblue" d="M802.35,-403.35C817.81,-363.46 882.38,-196.86 903.95,-141.2"/>
<polygon fill="midnightblue" stroke="midnightblue" points="907.31,-142.2 907.66,-131.62 900.78,-139.67 907.31,-142.2"/>
</g>
<!-- Node23&#45;&gt;Node24 -->
<g id="edge50" class="edge">
<title>Node23&#45;&gt;Node24</title>
<path fill="none" stroke="midnightblue" d="M788.4,-403.48C776.75,-394.11 757.81,-378.88 743.67,-367.51"/>
<polygon fill="midnightblue" stroke="midnightblue" points="745.57,-364.55 735.58,-361.01 741.18,-370 745.57,-364.55"/>
</g>
<!-- Node24&#45;&gt;Node5 -->
<g id="edge51" class="edge">
<title>Node24&#45;&gt;Node5</title>
<path fill="none" stroke="midnightblue" d="M726.07,-341.76C729.33,-315.15 739.18,-234.71 743.69,-197.84"/>
<polygon fill="midnightblue" stroke="midnightblue" points="747.22,-197.87 744.96,-187.52 740.27,-197.02 747.22,-197.87"/>
</g>
<!-- Node24&#45;&gt;Node12 -->
<g id="edge52" class="edge">
<title>Node24&#45;&gt;Node12</title>
<path fill="none" stroke="midnightblue" d="M710.79,-341.82C678.29,-321.95 598.26,-273.05 558.78,-248.92"/>
<polygon fill="midnightblue" stroke="midnightblue" points="560.47,-245.85 550.11,-243.62 556.82,-251.83 560.47,-245.85"/>
</g>
<!-- Node24&#45;&gt;Node14 -->
<g id="edge53" class="edge">
<title>Node24&#45;&gt;Node14</title>
<path fill="none" stroke="midnightblue" d="M685.65,-342.42C674.76,-340.26 662.93,-337.98 652,-336 571.21,-321.39 476.73,-306.45 421.89,-297.99"/>
<polygon fill="midnightblue" stroke="midnightblue" points="422.21,-294.49 411.8,-296.43 421.15,-301.41 422.21,-294.49"/>
</g>
<!-- Node25&#45;&gt;Node19 -->
<g id="edge56" class="edge">
<title>Node25&#45;&gt;Node19</title>
<path fill="none" stroke="midnightblue" d="M674.2,-627.37C705.39,-608.41 780.12,-563 818.06,-539.94"/>
<polygon fill="midnightblue" stroke="midnightblue" points="820.14,-542.78 826.86,-534.59 816.5,-536.79 820.14,-542.78"/>
</g>
<!-- Node25&#45;&gt;Node26 -->
<g id="edge57" class="edge">
<title>Node25&#45;&gt;Node26</title>
<path fill="none" stroke="midnightblue" d="M636.71,-627.44C612.19,-618.44 573.4,-604.19 545.8,-594.05"/>
<polygon fill="midnightblue" stroke="midnightblue" points="546.78,-590.68 536.18,-590.52 544.36,-597.25 546.78,-590.68"/>
</g>
<!-- Node28 -->
<g id="node28" class="node">
<title>Node28</title>
<g id="a_node28"><a xlink:href="ipc__string_source.html" target="_top" xlink:title=" ">
<polygon fill="white" stroke="black" points="589,-571.5 589,-590.5 673,-590.5 673,-571.5 589,-571.5"/>
<text text-anchor="middle" x="631" y="-578.5" font-family="Helvetica,sans-Serif" font-size="10.00">cxx/ipc_string</text>
</a>
</g>
</g>
<!-- Node25&#45;&gt;Node28 -->
<g id="edge64" class="edge">
<title>Node25&#45;&gt;Node28</title>
<path fill="none" stroke="midnightblue" d="M655.21,-627.08C651.24,-619.69 645.47,-608.95 640.57,-599.81"/>
<polygon fill="midnightblue" stroke="midnightblue" points="643.51,-597.91 635.7,-590.75 637.35,-601.22 643.51,-597.91"/>
</g>
<!-- Node26&#45;&gt;Node20 -->
<g id="edge63" class="edge">
<title>Node26&#45;&gt;Node20</title>
<path fill="none" stroke="midnightblue" d="M531.09,-571.34C549.38,-562.5 578.38,-548.22 603,-535 634.4,-518.14 669.94,-497.42 692.63,-483.97"/>
<polygon fill="midnightblue" stroke="midnightblue" points="694.72,-486.81 701.53,-478.69 691.14,-480.79 694.72,-486.81"/>
</g>
<!-- Node26&#45;&gt;Node22 -->
<g id="edge58" class="edge">
<title>Node26&#45;&gt;Node22</title>
<path fill="none" stroke="midnightblue" d="M493.52,-571.33C464.05,-556.99 409.2,-525.25 387,-479 372.72,-449.24 411.11,-432.35 447.14,-423.29"/>
<polygon fill="midnightblue" stroke="midnightblue" points="448.25,-426.62 457.19,-420.94 446.65,-419.81 448.25,-426.62"/>
</g>
<!-- Node26&#45;&gt;Node27 -->
<g id="edge59" class="edge">
<title>Node26&#45;&gt;Node27</title>
<path fill="none" stroke="midnightblue" d="M513.94,-571.37C515.88,-553.62 520.35,-512.67 522.97,-488.6"/>
<polygon fill="midnightblue" stroke="midnightblue" points="526.46,-488.91 524.06,-478.59 519.5,-488.15 526.46,-488.91"/>
</g>
<!-- Node27&#45;&gt;Node21 -->
<g id="edge61" class="edge">
<title>Node27&#45;&gt;Node21</title>
<path fill="none" stroke="midnightblue" d="M531.46,-459.32C545.66,-440.26 579.77,-394.45 598.37,-369.46"/>
<polygon fill="midnightblue" stroke="midnightblue" points="601.3,-371.39 604.46,-361.28 595.68,-367.21 601.3,-371.39"/>
</g>
<!-- Node27&#45;&gt;Node22 -->
<g id="edge62" class="edge">
<title>Node27&#45;&gt;Node22</title>
<path fill="none" stroke="midnightblue" d="M521.04,-459.08C517.79,-451.77 513.08,-441.18 509.05,-432.1"/>
<polygon fill="midnightblue" stroke="midnightblue" points="512.15,-430.47 504.89,-422.75 505.75,-433.31 512.15,-430.47"/>
</g>
<!-- Node27&#45;&gt;Node23 -->
<g id="edge60" class="edge">
<title>Node27&#45;&gt;Node23</title>
<path fill="none" stroke="midnightblue" d="M568.42,-459.44C616.52,-449.96 694.09,-434.67 745.81,-424.48"/>
<polygon fill="midnightblue" stroke="midnightblue" points="746.65,-427.88 755.79,-422.52 745.3,-421.02 746.65,-427.88"/>
</g>
<!-- Node28&#45;&gt;Node21 -->
<g id="edge65" class="edge">
<title>Node28&#45;&gt;Node21</title>
<path fill="none" stroke="midnightblue" d="M630.94,-571.49C630.66,-545.89 629.16,-467.43 621,-403 619.64,-392.29 617.34,-380.45 615.29,-370.93"/>
<polygon fill="midnightblue" stroke="midnightblue" points="618.67,-370.01 613.06,-361.02 611.84,-371.54 618.67,-370.01"/>
</g>
<!-- Node28&#45;&gt;Node22 -->
<g id="edge66" class="edge">
<title>Node28&#45;&gt;Node22</title>
<path fill="none" stroke="midnightblue" d="M590.79,-571.47C546.29,-559.52 477.37,-532.92 451,-479 441.68,-459.94 460.15,-441.04 477.22,-428.58"/>
<polygon fill="midnightblue" stroke="midnightblue" points="479.58,-431.21 485.86,-422.68 475.63,-425.43 479.58,-431.21"/>
</g>
<!-- Node29 -->
<g id="node29" class="node">
<title>Node29</title>
<g id="a_node29"><a xlink:href="ipc__array_source.html" target="_top" xlink:title=" ">
<polygon fill="white" stroke="black" points="532,-515.5 532,-534.5 594,-534.5 594,-515.5 532,-515.5"/>
<text text-anchor="middle" x="563" y="-522.5" font-family="Helvetica,sans-Serif" font-size="10.00">ipc_array</text>
</a>
</g>
</g>
<!-- Node28&#45;&gt;Node29 -->
<g id="edge67" class="edge">
<title>Node28&#45;&gt;Node29</title>
<path fill="none" stroke="midnightblue" d="M620.07,-571.32C609.83,-563.18 594.28,-550.84 582,-541.09"/>
<polygon fill="midnightblue" stroke="midnightblue" points="584.13,-538.31 574.12,-534.83 579.78,-543.79 584.13,-538.31"/>
</g>
<!-- Node29&#45;&gt;Node21 -->
<g id="edge68" class="edge">
<title>Node29&#45;&gt;Node21</title>
<path fill="none" stroke="midnightblue" d="M569.94,-515.25C576.45,-506.57 585.92,-492.62 591,-479 604.67,-442.32 609,-396.27 610.37,-371.08"/>
<polygon fill="midnightblue" stroke="midnightblue" points="613.86,-371.23 610.81,-361.08 606.87,-370.92 613.86,-371.23"/>
</g>
<!-- Node29&#45;&gt;Node22 -->
<g id="edge69" class="edge">
<title>Node29&#45;&gt;Node22</title>
<path fill="none" stroke="midnightblue" d="M531.83,-519.92C507.17,-514.87 474.27,-503.67 458,-479 446.65,-461.78 464.06,-442.02 480.01,-428.85"/>
<polygon fill="midnightblue" stroke="midnightblue" points="482.29,-431.51 488.05,-422.62 478,-425.98 482.29,-431.51"/>
</g>
<!-- Node29&#45;&gt;Node27 -->
<g id="edge70" class="edge">
<title>Node29&#45;&gt;Node27</title>
<path fill="none" stroke="midnightblue" d="M556.73,-515.08C551.36,-507.46 543.48,-496.26 536.92,-486.94"/>
<polygon fill="midnightblue" stroke="midnightblue" points="539.78,-484.91 531.16,-478.75 534.05,-488.94 539.78,-484.91"/>
</g>
<!-- Node30&#45;&gt;Node5 -->
<g id="edge73" class="edge">
<title>Node30&#45;&gt;Node5</title>
<path fill="none" stroke="midnightblue" d="M578.51,-746.45C701.67,-741.51 987,-721.1 987,-638 987,-638 987,-638 987,-524 987,-445.93 949,-430.57 949,-352.5 949,-352.5 949,-352.5 949,-289 949,-220.41 858.32,-194.37 798.17,-184.64"/>
<polygon fill="midnightblue" stroke="midnightblue" points="798.47,-181.15 788.06,-183.11 797.43,-188.07 798.47,-181.15"/>
</g>
<!-- Node30&#45;&gt;Node17 -->
<g id="edge72" class="edge">
<title>Node30&#45;&gt;Node17</title>
<path fill="none" stroke="midnightblue" d="M516.33,-739.37C491.98,-707.28 407.89,-590.88 380,-479 370.11,-439.34 393.15,-393.88 408.22,-369.72"/>
<polygon fill="midnightblue" stroke="midnightblue" points="411.19,-371.58 413.7,-361.29 405.32,-367.76 411.19,-371.58"/>
</g>
<!-- Node30&#45;&gt;Node18 -->
<g id="edge74" class="edge">
<title>Node30&#45;&gt;Node18</title>
<path fill="none" stroke="midnightblue" d="M562.3,-739.44C605.56,-730.02 675.17,-714.87 721.97,-704.68"/>
<polygon fill="midnightblue" stroke="midnightblue" points="722.86,-708.06 731.89,-702.52 721.37,-701.22 722.86,-708.06"/>
</g>
<!-- Node30&#45;&gt;Node26 -->
<g id="edge75" class="edge">
<title>Node30&#45;&gt;Node26</title>
<path fill="none" stroke="midnightblue" d="M522.46,-739.08C520.89,-712.95 516.27,-636.21 514.12,-600.58"/>
<polygon fill="midnightblue" stroke="midnightblue" points="517.61,-600.34 513.52,-590.57 510.62,-600.76 517.61,-600.34"/>
</g>
</g>
</svg>
