<?xml version="1.0" encoding="UTF-8" standalone="no"?>
<!DOCTYPE svg PUBLIC "-//W3C//DTD SVG 1.1//EN"
 "http://www.w3.org/Graphics/SVG/1.1/DTD/svg11.dtd">
<!-- Generated by graphviz version 2.43.0 (0)
 -->
<!-- Title: l4/sys/icu Pages: 1 -->
<svg width="1265pt" height="341pt"
 viewBox="0.00 0.00 1264.50 341.00" xmlns="http://www.w3.org/2000/svg" xmlns:xlink="http://www.w3.org/1999/xlink">
<g id="graph0" class="graph" transform="scale(1 1) rotate(0) translate(4 337)">
<title>l4/sys/icu</title>
<polygon fill="white" stroke="transparent" points="-4,4 -4,-337 1260.5,-337 1260.5,4 -4,4"/>
<!-- Node1 -->
<g id="node1" class="node">
<title>Node1</title>
<g id="a_node1"><a xlink:title="Interrupt controller.">
<polygon fill="#bfbfbf" stroke="black" points="700.5,-313.5 700.5,-332.5 762.5,-332.5 762.5,-313.5 700.5,-313.5"/>
<text text-anchor="middle" x="731.5" y="-320.5" font-family="Helvetica,sans-Serif" font-size="10.00">l4/sys/icu</text>
</a>
</g>
</g>
<!-- Node2 -->
<g id="node2" class="node">
<title>Node2</title>
<g id="a_node2"><a xlink:href="scheduler.html" target="_top" xlink:title="Scheduler object functions.">
<polygon fill="white" stroke="black" points="519,-257.5 519,-276.5 614,-276.5 614,-257.5 519,-257.5"/>
<text text-anchor="middle" x="566.5" y="-264.5" font-family="Helvetica,sans-Serif" font-size="10.00">l4/sys/scheduler</text>
</a>
</g>
</g>
<!-- Node1&#45;&gt;Node2 -->
<g id="edge1" class="edge">
<title>Node1&#45;&gt;Node2</title>
<path fill="none" stroke="midnightblue" d="M695.76,-310.3C664.67,-300.13 620.35,-285.62 592.52,-276.52"/>
<polygon fill="midnightblue" stroke="midnightblue" points="694.76,-313.66 705.36,-313.44 696.94,-307.01 694.76,-313.66"/>
</g>
<!-- Node3 -->
<g id="node3" class="node">
<title>Node3</title>
<g id="a_node3"><a xlink:href="vcon.html" target="_top" xlink:title="Virtual console interface.">
<polygon fill="white" stroke="black" points="632,-257.5 632,-276.5 703,-276.5 703,-257.5 632,-257.5"/>
<text text-anchor="middle" x="667.5" y="-264.5" font-family="Helvetica,sans-Serif" font-size="10.00">l4/sys/vcon</text>
</a>
</g>
</g>
<!-- Node1&#45;&gt;Node3 -->
<g id="edge2" class="edge">
<title>Node1&#45;&gt;Node3</title>
<path fill="none" stroke="midnightblue" d="M713.51,-306.82C702.04,-297.15 687.59,-284.95 677.97,-276.83"/>
<polygon fill="midnightblue" stroke="midnightblue" points="711.32,-309.55 721.22,-313.32 715.83,-304.2 711.32,-309.55"/>
</g>
<!-- Node17 -->
<g id="node17" class="node">
<title>Node17</title>
<g id="a_node17"><a xlink:href="icu__svr_source.html" target="_top" xlink:title=" ">
<polygon fill="white" stroke="black" points="1152,-73 1152,-92 1247,-92 1247,-73 1152,-73"/>
<text text-anchor="middle" x="1199.5" y="-80" font-family="Helvetica,sans-Serif" font-size="10.00">l4/re/util/icu_svr</text>
</a>
</g>
</g>
<!-- Node1&#45;&gt;Node17 -->
<g id="edge25" class="edge">
<title>Node1&#45;&gt;Node17</title>
<path fill="none" stroke="midnightblue" d="M728.67,-303.22C725.85,-276.91 725.03,-229.16 750.5,-201 751.4,-200 1063.09,-118.94 1166.56,-92.06"/>
<polygon fill="midnightblue" stroke="midnightblue" points="725.23,-303.89 729.98,-313.36 732.17,-302.99 725.23,-303.89"/>
</g>
<!-- Node22 -->
<g id="node22" class="node">
<title>Node22</title>
<g id="a_node22"><a xlink:href="random_source.html" target="_top" xlink:title=" ">
<polygon fill="white" stroke="black" points="760,-257.5 760,-276.5 839,-276.5 839,-257.5 760,-257.5"/>
<text text-anchor="middle" x="799.5" y="-264.5" font-family="Helvetica,sans-Serif" font-size="10.00">l4/re/random</text>
</a>
</g>
</g>
<!-- Node1&#45;&gt;Node22 -->
<g id="edge24" class="edge">
<title>Node1&#45;&gt;Node22</title>
<path fill="none" stroke="midnightblue" d="M750.26,-307.1C762.5,-297.38 778.06,-285.03 788.38,-276.83"/>
<polygon fill="midnightblue" stroke="midnightblue" points="748.08,-304.36 742.43,-313.32 752.43,-309.85 748.08,-304.36"/>
</g>
<!-- Node23 -->
<g id="node23" class="node">
<title>Node23</title>
<g id="a_node23"><a xlink:href="vbus_source.html" target="_top" xlink:title=" ">
<polygon fill="white" stroke="black" points="876.5,-257.5 876.5,-276.5 954.5,-276.5 954.5,-257.5 876.5,-257.5"/>
<text text-anchor="middle" x="915.5" y="-264.5" font-family="Helvetica,sans-Serif" font-size="10.00">l4/vbus/vbus</text>
</a>
</g>
</g>
<!-- Node1&#45;&gt;Node23 -->
<g id="edge26" class="edge">
<title>Node1&#45;&gt;Node23</title>
<path fill="none" stroke="midnightblue" d="M770.45,-310.57C805.16,-300.38 855.18,-285.7 886.48,-276.52"/>
<polygon fill="midnightblue" stroke="midnightblue" points="769.27,-307.27 760.66,-313.44 771.24,-313.99 769.27,-307.27"/>
</g>
<!-- Node4 -->
<g id="node4" class="node">
<title>Node4</title>
<g id="a_node4"><a xlink:href="vcon__stream_8h_source.html" target="_top" xlink:title=" ">
<polygon fill="white" stroke="black" points="133,-134.5 133,-164.5 252,-164.5 252,-134.5 133,-134.5"/>
<text text-anchor="start" x="141" y="-152.5" font-family="Helvetica,sans-Serif" font-size="10.00">l4/l4re_vfs/impl/vcon</text>
<text text-anchor="middle" x="192.5" y="-141.5" font-family="Helvetica,sans-Serif" font-size="10.00">_stream.h</text>
</a>
</g>
</g>
<!-- Node3&#45;&gt;Node4 -->
<g id="edge3" class="edge">
<title>Node3&#45;&gt;Node4</title>
<path fill="none" stroke="midnightblue" d="M654.35,-249.34C641.22,-234.01 619.56,-212.02 595.5,-201 535.72,-173.62 349.15,-159.33 252.26,-153.59"/>
<polygon fill="midnightblue" stroke="midnightblue" points="651.99,-251.98 661.05,-257.47 657.39,-247.53 651.99,-251.98"/>
</g>
<!-- Node7 -->
<g id="node7" class="node">
<title>Node7</title>
<g id="a_node7"><a xlink:href="log.html" target="_top" xlink:title="Log interface.">
<polygon fill="white" stroke="black" points="642.5,-201.5 642.5,-220.5 698.5,-220.5 698.5,-201.5 642.5,-201.5"/>
<text text-anchor="middle" x="670.5" y="-208.5" font-family="Helvetica,sans-Serif" font-size="10.00">l4/re/log</text>
</a>
</g>
</g>
<!-- Node3&#45;&gt;Node7 -->
<g id="edge6" class="edge">
<title>Node3&#45;&gt;Node7</title>
<path fill="none" stroke="midnightblue" d="M668.57,-246.8C669.06,-237.91 669.62,-227.78 670.01,-220.75"/>
<polygon fill="midnightblue" stroke="midnightblue" points="665.06,-246.9 668,-257.08 672.04,-247.29 665.06,-246.9"/>
</g>
<!-- Node21 -->
<g id="node21" class="node">
<title>Node21</title>
<g id="a_node21"><a xlink:href="vcon__svr_source.html" target="_top" xlink:title=" ">
<polygon fill="white" stroke="black" points="482.5,-201.5 482.5,-220.5 586.5,-220.5 586.5,-201.5 482.5,-201.5"/>
<text text-anchor="middle" x="534.5" y="-208.5" font-family="Helvetica,sans-Serif" font-size="10.00">l4/re/util/vcon_svr</text>
</a>
</g>
</g>
<!-- Node3&#45;&gt;Node21 -->
<g id="edge23" class="edge">
<title>Node3&#45;&gt;Node21</title>
<path fill="none" stroke="midnightblue" d="M637.05,-253.64C612.09,-243.5 577.42,-229.43 555.48,-220.52"/>
<polygon fill="midnightblue" stroke="midnightblue" points="635.84,-256.92 646.43,-257.44 638.48,-250.44 635.84,-256.92"/>
</g>
<!-- Node5 -->
<g id="node5" class="node">
<title>Node5</title>
<g id="a_node5"><a xlink:href="vcon__stream__impl_8h_source.html" target="_top" xlink:title=" ">
<polygon fill="white" stroke="black" points="0,-67.5 0,-97.5 119,-97.5 119,-67.5 0,-67.5"/>
<text text-anchor="start" x="8" y="-85.5" font-family="Helvetica,sans-Serif" font-size="10.00">l4/l4re_vfs/impl/vcon</text>
<text text-anchor="middle" x="59.5" y="-74.5" font-family="Helvetica,sans-Serif" font-size="10.00">_stream_impl.h</text>
</a>
</g>
</g>
<!-- Node4&#45;&gt;Node5 -->
<g id="edge4" class="edge">
<title>Node4&#45;&gt;Node5</title>
<path fill="none" stroke="midnightblue" d="M154.63,-129.99C133.55,-119.69 107.72,-107.07 88.3,-97.58"/>
<polygon fill="midnightblue" stroke="midnightblue" points="153.12,-133.15 163.64,-134.4 156.19,-126.86 153.12,-133.15"/>
</g>
<!-- Node6 -->
<g id="node6" class="node">
<title>Node6</title>
<g id="a_node6"><a xlink:href="vfs__impl_8h_source.html" target="_top" xlink:title=" ">
<polygon fill="white" stroke="black" points="137.5,-67.5 137.5,-97.5 247.5,-97.5 247.5,-67.5 137.5,-67.5"/>
<text text-anchor="start" x="145.5" y="-85.5" font-family="Helvetica,sans-Serif" font-size="10.00">l4/l4re_vfs/impl/vfs</text>
<text text-anchor="middle" x="192.5" y="-74.5" font-family="Helvetica,sans-Serif" font-size="10.00">_impl.h</text>
</a>
</g>
</g>
<!-- Node4&#45;&gt;Node6 -->
<g id="edge5" class="edge">
<title>Node4&#45;&gt;Node6</title>
<path fill="none" stroke="midnightblue" d="M192.5,-124.11C192.5,-115.15 192.5,-105.32 192.5,-97.58"/>
<polygon fill="midnightblue" stroke="midnightblue" points="189,-124.4 192.5,-134.4 196,-124.4 189,-124.4"/>
</g>
<!-- Node8 -->
<g id="node8" class="node">
<title>Node8</title>
<g id="a_node8"><a xlink:href="env.html" target="_top" xlink:title="Environment interface.">
<polygon fill="white" stroke="black" points="641,-140 641,-159 700,-159 700,-140 641,-140"/>
<text text-anchor="middle" x="670.5" y="-147" font-family="Helvetica,sans-Serif" font-size="10.00">l4/re/env</text>
</a>
</g>
</g>
<!-- Node7&#45;&gt;Node8 -->
<g id="edge7" class="edge">
<title>Node7&#45;&gt;Node8</title>
<path fill="none" stroke="midnightblue" d="M670.5,-191.32C670.5,-180.5 670.5,-167.4 670.5,-159.01"/>
<polygon fill="midnightblue" stroke="midnightblue" points="667,-191.48 670.5,-201.48 674,-191.48 667,-191.48"/>
</g>
<!-- Node8&#45;&gt;Node5 -->
<g id="edge13" class="edge">
<title>Node8&#45;&gt;Node5</title>
<path fill="none" stroke="midnightblue" d="M630.97,-146.37C541.25,-141.19 315.46,-126.26 128.5,-98 125.47,-97.54 122.38,-97.04 119.26,-96.49"/>
<polygon fill="midnightblue" stroke="midnightblue" points="630.8,-149.86 640.98,-146.94 631.2,-142.88 630.8,-149.86"/>
</g>
<!-- Node8&#45;&gt;Node6 -->
<g id="edge14" class="edge">
<title>Node8&#45;&gt;Node6</title>
<path fill="none" stroke="midnightblue" d="M630.73,-145C556.73,-138.2 393,-121.72 256.5,-98 253.58,-97.49 250.6,-96.94 247.59,-96.35"/>
<polygon fill="midnightblue" stroke="midnightblue" points="630.71,-148.52 640.98,-145.94 631.34,-141.54 630.71,-148.52"/>
</g>
<!-- Node9 -->
<g id="node9" class="node">
<title>Node9</title>
<g id="a_node9"><a xlink:href="vcpu_source.html" target="_top" xlink:title=" ">
<polygon fill="white" stroke="black" points="751.5,-73 751.5,-92 829.5,-92 829.5,-73 751.5,-73"/>
<text text-anchor="middle" x="790.5" y="-80" font-family="Helvetica,sans-Serif" font-size="10.00">l4/vcpu/vcpu</text>
</a>
</g>
</g>
<!-- Node8&#45;&gt;Node9 -->
<g id="edge8" class="edge">
<title>Node8&#45;&gt;Node9</title>
<path fill="none" stroke="midnightblue" d="M695.5,-134.96C719.29,-122.07 754.37,-103.07 774.57,-92.13"/>
<polygon fill="midnightblue" stroke="midnightblue" points="693.81,-131.89 686.68,-139.73 697.14,-138.05 693.81,-131.89"/>
</g>
<!-- Node10 -->
<g id="node10" class="node">
<title>Node10</title>
<g id="a_node10"><a xlink:href="client_2virtio-block_source.html" target="_top" xlink:title=" ">
<polygon fill="white" stroke="black" points="858,-0.5 858,-30.5 951,-30.5 951,-0.5 858,-0.5"/>
<text text-anchor="start" x="866" y="-18.5" font-family="Helvetica,sans-Serif" font-size="10.00">l4/l4virtio/client</text>
<text text-anchor="middle" x="904.5" y="-7.5" font-family="Helvetica,sans-Serif" font-size="10.00">/virtio&#45;block</text>
</a>
</g>
</g>
<!-- Node8&#45;&gt;Node10 -->
<g id="edge9" class="edge">
<title>Node8&#45;&gt;Node10</title>
<path fill="none" stroke="midnightblue" d="M707.94,-136.91C711.18,-135.92 714.39,-134.94 717.5,-134 771.2,-117.73 791.87,-129.2 838.5,-98 864.83,-80.38 885.86,-49.06 896.63,-30.81"/>
<polygon fill="midnightblue" stroke="midnightblue" points="706.85,-133.58 698.32,-139.87 708.91,-140.28 706.85,-133.58"/>
</g>
<!-- Node11 -->
<g id="node11" class="node">
<title>Node11</title>
<g id="a_node11"><a xlink:href="server_2l4virtio_source.html" target="_top" xlink:title=" ">
<polygon fill="white" stroke="black" points="1037,-67.5 1037,-97.5 1134,-97.5 1134,-67.5 1037,-67.5"/>
<text text-anchor="start" x="1045" y="-85.5" font-family="Helvetica,sans-Serif" font-size="10.00">l4/l4virtio/server</text>
<text text-anchor="middle" x="1085.5" y="-74.5" font-family="Helvetica,sans-Serif" font-size="10.00">/l4virtio</text>
</a>
</g>
</g>
<!-- Node8&#45;&gt;Node11 -->
<g id="edge10" class="edge">
<title>Node8&#45;&gt;Node11</title>
<path fill="none" stroke="midnightblue" d="M704.83,-137.11C709.07,-135.95 713.36,-134.87 717.5,-134 853.67,-105.37 891.66,-123.21 1028.5,-98 1031.21,-97.5 1033.98,-96.95 1036.78,-96.35"/>
<polygon fill="midnightblue" stroke="midnightblue" points="703.76,-133.78 695.16,-139.96 705.74,-140.5 703.76,-133.78"/>
</g>
<!-- Node13 -->
<g id="node13" class="node">
<title>Node13</title>
<g id="a_node13"><a xlink:href="ro__file__impl_8h_source.html" target="_top" xlink:title=" ">
<polygon fill="white" stroke="black" points="266,-67.5 266,-97.5 371,-97.5 371,-67.5 266,-67.5"/>
<text text-anchor="start" x="274" y="-85.5" font-family="Helvetica,sans-Serif" font-size="10.00">l4/l4re_vfs/impl/ro</text>
<text text-anchor="middle" x="318.5" y="-74.5" font-family="Helvetica,sans-Serif" font-size="10.00">_file_impl.h</text>
</a>
</g>
</g>
<!-- Node8&#45;&gt;Node13 -->
<g id="edge12" class="edge">
<title>Node8&#45;&gt;Node13</title>
<path fill="none" stroke="midnightblue" d="M630.75,-142.4C574.58,-133.59 468.87,-116.36 379.5,-98 376.73,-97.43 373.89,-96.83 371.03,-96.2"/>
<polygon fill="midnightblue" stroke="midnightblue" points="630.22,-145.86 640.64,-143.94 631.3,-138.94 630.22,-145.86"/>
</g>
<!-- Node14 -->
<g id="node14" class="node">
<title>Node14</title>
<g id="a_node14"><a xlink:href="env__ns_source.html" target="_top" xlink:title=" ">
<polygon fill="white" stroke="black" points="389,-73 389,-92 484,-92 484,-73 389,-73"/>
<text text-anchor="middle" x="436.5" y="-80" font-family="Helvetica,sans-Serif" font-size="10.00">l4/re/util/env_ns</text>
</a>
</g>
</g>
<!-- Node8&#45;&gt;Node14 -->
<g id="edge15" class="edge">
<title>Node8&#45;&gt;Node14</title>
<path fill="none" stroke="midnightblue" d="M631.21,-137.59C585.08,-124.77 509.53,-103.78 467.38,-92.08"/>
<polygon fill="midnightblue" stroke="midnightblue" points="630.29,-140.96 640.86,-140.27 632.17,-134.22 630.29,-140.96"/>
</g>
<!-- Node16 -->
<g id="node16" class="node">
<title>Node16</title>
<g id="a_node16"><a xlink:href="util_2event.html" target="_top" xlink:title=" ">
<polygon fill="white" stroke="black" points="502.5,-73 502.5,-92 590.5,-92 590.5,-73 502.5,-73"/>
<text text-anchor="middle" x="546.5" y="-80" font-family="Helvetica,sans-Serif" font-size="10.00">l4/re/util/event</text>
</a>
</g>
</g>
<!-- Node8&#45;&gt;Node16 -->
<g id="edge17" class="edge">
<title>Node8&#45;&gt;Node16</title>
<path fill="none" stroke="midnightblue" d="M644.94,-135.1C620.39,-122.23 584.01,-103.16 563.03,-92.17"/>
<polygon fill="midnightblue" stroke="midnightblue" points="643.55,-138.33 654.03,-139.87 646.8,-132.13 643.55,-138.33"/>
</g>
<!-- Node8&#45;&gt;Node17 -->
<g id="edge18" class="edge">
<title>Node8&#45;&gt;Node17</title>
<path fill="none" stroke="midnightblue" d="M704.52,-137.07C708.85,-135.89 713.26,-134.82 717.5,-134 904.02,-97.78 956.19,-129.93 1143.5,-98 1152.31,-96.5 1161.76,-94.29 1170.35,-92.04"/>
<polygon fill="midnightblue" stroke="midnightblue" points="703.25,-133.79 694.64,-139.96 705.22,-140.51 703.25,-133.79"/>
</g>
<!-- Node19 -->
<g id="node19" class="node">
<title>Node19</title>
<g id="a_node19"><a xlink:href="kumem__alloc.html" target="_top" xlink:title="Kumem allocator helper.">
<polygon fill="white" stroke="black" points="608,-73 608,-92 733,-92 733,-73 608,-73"/>
<text text-anchor="middle" x="670.5" y="-80" font-family="Helvetica,sans-Serif" font-size="10.00">l4/re/util/kumem_alloc</text>
</a>
</g>
</g>
<!-- Node8&#45;&gt;Node19 -->
<g id="edge20" class="edge">
<title>Node8&#45;&gt;Node19</title>
<path fill="none" stroke="midnightblue" d="M670.5,-129.54C670.5,-117.17 670.5,-101.62 670.5,-92.13"/>
<polygon fill="midnightblue" stroke="midnightblue" points="667,-129.73 670.5,-139.73 674,-129.73 667,-129.73"/>
</g>
<!-- Node20 -->
<g id="node20" class="node">
<title>Node20</title>
<g id="a_node20"><a xlink:href="object__registry_source.html" target="_top" xlink:title=" ">
<polygon fill="white" stroke="black" points="886,-73 886,-92 1019,-92 1019,-73 886,-73"/>
<text text-anchor="middle" x="952.5" y="-80" font-family="Helvetica,sans-Serif" font-size="10.00">l4/re/util/object_registry</text>
</a>
</g>
</g>
<!-- Node8&#45;&gt;Node20 -->
<g id="edge21" class="edge">
<title>Node8&#45;&gt;Node20</title>
<path fill="none" stroke="midnightblue" d="M706.44,-137.06C710.17,-135.98 713.9,-134.94 717.5,-134 782.91,-116.92 859.64,-101.23 907.17,-92.02"/>
<polygon fill="midnightblue" stroke="midnightblue" points="705.31,-133.74 696.73,-139.96 707.32,-140.45 705.31,-133.74"/>
</g>
<!-- Node12 -->
<g id="node12" class="node">
<title>Node12</title>
<g id="a_node12"><a xlink:href="server_2virtio-block_source.html" target="_top" xlink:title=" ">
<polygon fill="white" stroke="black" points="1033,-0.5 1033,-30.5 1130,-30.5 1130,-0.5 1033,-0.5"/>
<text text-anchor="start" x="1041" y="-18.5" font-family="Helvetica,sans-Serif" font-size="10.00">l4/l4virtio/server</text>
<text text-anchor="middle" x="1081.5" y="-7.5" font-family="Helvetica,sans-Serif" font-size="10.00">/virtio&#45;block</text>
</a>
</g>
</g>
<!-- Node11&#45;&gt;Node12 -->
<g id="edge11" class="edge">
<title>Node11&#45;&gt;Node12</title>
<path fill="none" stroke="midnightblue" d="M1084.02,-57.4C1083.46,-48.37 1082.85,-38.41 1082.37,-30.58"/>
<polygon fill="midnightblue" stroke="midnightblue" points="1080.52,-57.63 1084.63,-67.4 1087.51,-57.2 1080.52,-57.63"/>
</g>
<!-- Node15 -->
<g id="node15" class="node">
<title>Node15</title>
<g id="a_node15"><a xlink:href="ns__fs__impl_8h_source.html" target="_top" xlink:title=" ">
<polygon fill="white" stroke="black" points="383,-0.5 383,-30.5 490,-30.5 490,-0.5 383,-0.5"/>
<text text-anchor="start" x="391" y="-18.5" font-family="Helvetica,sans-Serif" font-size="10.00">l4/l4re_vfs/impl/ns</text>
<text text-anchor="middle" x="436.5" y="-7.5" font-family="Helvetica,sans-Serif" font-size="10.00">_fs_impl.h</text>
</a>
</g>
</g>
<!-- Node14&#45;&gt;Node15 -->
<g id="edge16" class="edge">
<title>Node14&#45;&gt;Node15</title>
<path fill="none" stroke="midnightblue" d="M436.5,-62.41C436.5,-52.22 436.5,-39.9 436.5,-30.59"/>
<polygon fill="midnightblue" stroke="midnightblue" points="433,-62.73 436.5,-72.73 440,-62.73 433,-62.73"/>
</g>
<!-- Node18 -->
<g id="node18" class="node">
<title>Node18</title>
<g id="a_node18"><a xlink:href="event__svr_source.html" target="_top" xlink:title=" ">
<polygon fill="white" stroke="black" points="1148.5,-6 1148.5,-25 1256.5,-25 1256.5,-6 1148.5,-6"/>
<text text-anchor="middle" x="1202.5" y="-13" font-family="Helvetica,sans-Serif" font-size="10.00">l4/re/util/event_svr</text>
</a>
</g>
</g>
<!-- Node17&#45;&gt;Node18 -->
<g id="edge19" class="edge">
<title>Node17&#45;&gt;Node18</title>
<path fill="none" stroke="midnightblue" d="M1200.38,-62.54C1200.95,-50.17 1201.66,-34.62 1202.1,-25.13"/>
<polygon fill="midnightblue" stroke="midnightblue" points="1196.87,-62.58 1199.9,-72.73 1203.86,-62.91 1196.87,-62.58"/>
</g>
<!-- Node20&#45;&gt;Node10 -->
<g id="edge22" class="edge">
<title>Node20&#45;&gt;Node10</title>
<path fill="none" stroke="midnightblue" d="M940.07,-64.67C932.26,-54.09 922.3,-40.6 914.9,-30.59"/>
<polygon fill="midnightblue" stroke="midnightblue" points="937.27,-66.77 946.03,-72.73 942.9,-62.61 937.27,-66.77"/>
</g>
<!-- Node24 -->
<g id="node24" class="node">
<title>Node24</title>
<g id="a_node24"><a xlink:href="vbus__generic_source.html" target="_top" xlink:title=" ">
<polygon fill="white" stroke="black" points="876,-201.5 876,-220.5 995,-220.5 995,-201.5 876,-201.5"/>
<text text-anchor="middle" x="935.5" y="-208.5" font-family="Helvetica,sans-Serif" font-size="10.00">l4/vbus/vbus_generic</text>
</a>
</g>
</g>
<!-- Node23&#45;&gt;Node24 -->
<g id="edge27" class="edge">
<title>Node23&#45;&gt;Node24</title>
<path fill="none" stroke="midnightblue" d="M922.28,-247.69C925.65,-238.59 929.57,-228.01 932.26,-220.75"/>
<polygon fill="midnightblue" stroke="midnightblue" points="918.99,-246.49 918.8,-257.08 925.56,-248.92 918.99,-246.49"/>
</g>
<!-- Node25 -->
<g id="node25" class="node">
<title>Node25</title>
<g id="a_node25"><a xlink:href="vbus__gpio_source.html" target="_top" xlink:title=" ">
<polygon fill="white" stroke="black" points="1013.5,-201.5 1013.5,-220.5 1117.5,-220.5 1117.5,-201.5 1013.5,-201.5"/>
<text text-anchor="middle" x="1065.5" y="-208.5" font-family="Helvetica,sans-Serif" font-size="10.00">l4/vbus/vbus_gpio</text>
</a>
</g>
</g>
<!-- Node23&#45;&gt;Node25 -->
<g id="edge28" class="edge">
<title>Node23&#45;&gt;Node25</title>
<path fill="none" stroke="midnightblue" d="M948.72,-254.04C976.95,-243.88 1016.76,-229.55 1041.84,-220.52"/>
<polygon fill="midnightblue" stroke="midnightblue" points="947.49,-250.76 939.27,-257.44 949.86,-257.35 947.49,-250.76"/>
</g>
<!-- Node26 -->
<g id="node26" class="node">
<title>Node26</title>
<g id="a_node26"><a xlink:href="vbus__pci_source.html" target="_top" xlink:title=" ">
<polygon fill="white" stroke="black" points="759.5,-201.5 759.5,-220.5 857.5,-220.5 857.5,-201.5 759.5,-201.5"/>
<text text-anchor="middle" x="808.5" y="-208.5" font-family="Helvetica,sans-Serif" font-size="10.00">l4/vbus/vbus_pci</text>
</a>
</g>
</g>
<!-- Node23&#45;&gt;Node26 -->
<g id="edge29" class="edge">
<title>Node23&#45;&gt;Node26</title>
<path fill="none" stroke="midnightblue" d="M889.2,-252.73C869.39,-242.73 842.79,-229.31 825.65,-220.65"/>
<polygon fill="midnightblue" stroke="midnightblue" points="887.8,-255.94 898.31,-257.32 890.96,-249.69 887.8,-255.94"/>
</g>
</g>
</svg>
