<?xml version="1.0" encoding="UTF-8" standalone="no"?>
<!DOCTYPE svg PUBLIC "-//W3C//DTD SVG 1.1//EN"
 "http://www.w3.org/Graphics/SVG/1.1/DTD/svg11.dtd">
<!-- Generated by graphviz version 2.43.0 (0)
 -->
<!-- Title: Graphical Class Hierarchy Pages: 1 -->
<svg width="230pt" height="66pt"
 viewBox="0.00 0.00 230.00 66.00" xmlns="http://www.w3.org/2000/svg" xmlns:xlink="http://www.w3.org/1999/xlink">
<g id="graph0" class="graph" transform="scale(1 1) rotate(0) translate(4 62)">
<title>Graphical Class Hierarchy</title>
<polygon fill="white" stroke="transparent" points="-4,4 -4,-62 226,-62 226,4 -4,4"/>
<!-- Node0 -->
<g id="node1" class="node">
<title>Node0</title>
<g id="a_node1"><a xlink:href="classL4Re_1_1Vfs_1_1Fs.html" target="_top" xlink:title="POSIX File&#45;system related functionality.">
<polygon fill="white" stroke="black" points="9.5,-38.5 9.5,-57.5 89.5,-57.5 89.5,-38.5 9.5,-38.5"/>
<text text-anchor="middle" x="49.5" y="-45.5" font-family="Helvetica,sans-Serif" font-size="10.00">L4Re::Vfs::Fs</text>
</a>
</g>
</g>
<!-- Node1 -->
<g id="node2" class="node">
<title>Node1</title>
<g id="a_node2"><a xlink:href="classL4Re_1_1Vfs_1_1Ops.html" target="_top" xlink:title="Interface for the POSIX backends for an application.">
<polygon fill="white" stroke="black" points="135,-19.5 135,-38.5 222,-38.5 222,-19.5 135,-19.5"/>
<text text-anchor="middle" x="178.5" y="-26.5" font-family="Helvetica,sans-Serif" font-size="10.00">L4Re::Vfs::Ops</text>
</a>
</g>
</g>
<!-- Node0&#45;&gt;Node1 -->
<g id="edge1" class="edge">
<title>Node0&#45;&gt;Node1</title>
<path fill="none" stroke="midnightblue" d="M99.61,-40.65C111.19,-38.92 123.45,-37.09 134.73,-35.4"/>
<polygon fill="midnightblue" stroke="midnightblue" points="99.01,-37.2 89.64,-42.14 100.05,-44.13 99.01,-37.2"/>
</g>
<!-- Node368 -->
<g id="node3" class="node">
<title>Node368</title>
<g id="a_node3"><a xlink:href="classL4Re_1_1Vfs_1_1Mman.html" target="_top" xlink:title="Interface for the POSIX memory management.">
<polygon fill="white" stroke="black" points="0,-0.5 0,-19.5 99,-19.5 99,-0.5 0,-0.5"/>
<text text-anchor="middle" x="49.5" y="-7.5" font-family="Helvetica,sans-Serif" font-size="10.00">L4Re::Vfs::Mman</text>
</a>
</g>
</g>
<!-- Node368&#45;&gt;Node1 -->
<g id="edge2" class="edge">
<title>Node368&#45;&gt;Node1</title>
<path fill="none" stroke="midnightblue" d="M109.28,-18.79C117.92,-20.09 126.67,-21.4 134.9,-22.63"/>
<polygon fill="midnightblue" stroke="midnightblue" points="109.65,-15.31 99.24,-17.29 108.61,-22.23 109.65,-15.31"/>
</g>
</g>
</svg>
