<?xml version="1.0" encoding="UTF-8" standalone="no"?>
<!DOCTYPE svg PUBLIC "-//W3C//DTD SVG 1.1//EN"
 "http://www.w3.org/Graphics/SVG/1.1/DTD/svg11.dtd">
<!-- Generated by graphviz version 2.43.0 (0)
 -->
<!-- Title: Graphical Class Hierarchy Pages: 1 -->
<svg width="434pt" height="180pt"
 viewBox="0.00 0.00 434.00 180.00" xmlns="http://www.w3.org/2000/svg" xmlns:xlink="http://www.w3.org/1999/xlink">
<g id="graph0" class="graph" transform="scale(1 1) rotate(0) translate(4 176)">
<title>Graphical Class Hierarchy</title>
<polygon fill="white" stroke="transparent" points="-4,4 -4,-176 430,-176 430,4 -4,4"/>
<!-- Node0 -->
<g id="node1" class="node">
<title>Node0</title>
<g id="a_node1"><a xlink:href="classL4vbus_1_1Pm.html" target="_top" xlink:title=" ">
<polygon fill="white" stroke="black" points="0,-76.5 0,-95.5 129,-95.5 129,-76.5 0,-76.5"/>
<text text-anchor="middle" x="64.5" y="-83.5" font-family="Helvetica,sans-Serif" font-size="10.00">L4vbus::Pm&lt; Device &gt;</text>
</a>
</g>
</g>
<!-- Node1 -->
<g id="node2" class="node">
<title>Node1</title>
<g id="a_node2"><a xlink:href="classL4vbus_1_1Device.html" target="_top" xlink:title="Device on a L4vbus::Vbus.">
<polygon fill="white" stroke="black" points="165,-76.5 165,-95.5 256,-95.5 256,-76.5 165,-76.5"/>
<text text-anchor="middle" x="210.5" y="-83.5" font-family="Helvetica,sans-Serif" font-size="10.00">L4vbus::Device</text>
</a>
</g>
</g>
<!-- Node0&#45;&gt;Node1 -->
<g id="edge1" class="edge">
<title>Node0&#45;&gt;Node1</title>
<path fill="none" stroke="midnightblue" d="M139.3,-86C148.01,-86 156.69,-86 164.83,-86"/>
<polygon fill="midnightblue" stroke="midnightblue" points="139.08,-82.5 129.08,-86 139.08,-89.5 139.08,-82.5"/>
</g>
<!-- Node2 -->
<g id="node3" class="node">
<title>Node2</title>
<g id="a_node3"><a xlink:href="classL4vbus_1_1Gpio__module.html" target="_top" xlink:title="A Gpio_module groups multiple GPIO pins together.">
<polygon fill="white" stroke="black" points="298,-152.5 298,-171.5 420,-171.5 420,-152.5 298,-152.5"/>
<text text-anchor="middle" x="359" y="-159.5" font-family="Helvetica,sans-Serif" font-size="10.00">L4vbus::Gpio_module</text>
</a>
</g>
</g>
<!-- Node1&#45;&gt;Node2 -->
<g id="edge2" class="edge">
<title>Node1&#45;&gt;Node2</title>
<path fill="none" stroke="midnightblue" d="M230.31,-102.1C245.93,-114.76 269.21,-132.04 292,-143 299.74,-146.72 308.34,-149.85 316.72,-152.43"/>
<polygon fill="midnightblue" stroke="midnightblue" points="232.4,-99.29 222.47,-95.61 227.94,-104.68 232.4,-99.29"/>
</g>
<!-- Node3 -->
<g id="node4" class="node">
<title>Node3</title>
<g id="a_node4"><a xlink:href="classL4vbus_1_1Gpio__pin.html" target="_top" xlink:title="A GPIO pin.">
<polygon fill="white" stroke="black" points="309,-114.5 309,-133.5 409,-133.5 409,-114.5 309,-114.5"/>
<text text-anchor="middle" x="359" y="-121.5" font-family="Helvetica,sans-Serif" font-size="10.00">L4vbus::Gpio_pin</text>
</a>
</g>
</g>
<!-- Node1&#45;&gt;Node3 -->
<g id="edge3" class="edge">
<title>Node1&#45;&gt;Node3</title>
<path fill="none" stroke="midnightblue" d="M258.2,-98.11C278.6,-103.4 302.18,-109.52 321.3,-114.48"/>
<polygon fill="midnightblue" stroke="midnightblue" points="259.03,-94.71 248.47,-95.59 257.27,-101.49 259.03,-94.71"/>
</g>
<!-- Node4 -->
<g id="node5" class="node">
<title>Node4</title>
<g id="a_node5"><a xlink:href="classL4vbus_1_1Icu.html" target="_top" xlink:title="Vbus Interrupt controller API.">
<polygon fill="white" stroke="black" points="323.5,-76.5 323.5,-95.5 394.5,-95.5 394.5,-76.5 323.5,-76.5"/>
<text text-anchor="middle" x="359" y="-83.5" font-family="Helvetica,sans-Serif" font-size="10.00">L4vbus::Icu</text>
</a>
</g>
</g>
<!-- Node1&#45;&gt;Node4 -->
<g id="edge4" class="edge">
<title>Node1&#45;&gt;Node4</title>
<path fill="none" stroke="midnightblue" d="M266.33,-86C285.42,-86 306.28,-86 323.28,-86"/>
<polygon fill="midnightblue" stroke="midnightblue" points="266.25,-82.5 256.25,-86 266.25,-89.5 266.25,-82.5"/>
</g>
<!-- Node5 -->
<g id="node6" class="node">
<title>Node5</title>
<g id="a_node6"><a xlink:href="classL4vbus_1_1Pci__dev.html" target="_top" xlink:title="A PCI device.">
<polygon fill="white" stroke="black" points="311.5,-38.5 311.5,-57.5 406.5,-57.5 406.5,-38.5 311.5,-38.5"/>
<text text-anchor="middle" x="359" y="-45.5" font-family="Helvetica,sans-Serif" font-size="10.00">L4vbus::Pci_dev</text>
</a>
</g>
</g>
<!-- Node1&#45;&gt;Node5 -->
<g id="edge5" class="edge">
<title>Node1&#45;&gt;Node5</title>
<path fill="none" stroke="midnightblue" d="M258.2,-73.89C278.6,-68.6 302.18,-62.48 321.3,-57.52"/>
<polygon fill="midnightblue" stroke="midnightblue" points="257.27,-70.51 248.47,-76.41 259.03,-77.29 257.27,-70.51"/>
</g>
<!-- Node6 -->
<g id="node7" class="node">
<title>Node6</title>
<g id="a_node7"><a xlink:href="classL4vbus_1_1Pci__host__bridge.html" target="_top" xlink:title="A Pci host bridge.">
<polygon fill="white" stroke="black" points="292,-0.5 292,-19.5 426,-19.5 426,-0.5 292,-0.5"/>
<text text-anchor="middle" x="359" y="-7.5" font-family="Helvetica,sans-Serif" font-size="10.00">L4vbus::Pci_host_bridge</text>
</a>
</g>
</g>
<!-- Node1&#45;&gt;Node6 -->
<g id="edge6" class="edge">
<title>Node1&#45;&gt;Node6</title>
<path fill="none" stroke="midnightblue" d="M230.31,-69.9C245.93,-57.24 269.21,-39.96 292,-29 299.74,-25.28 308.34,-22.15 316.72,-19.57"/>
<polygon fill="midnightblue" stroke="midnightblue" points="227.94,-67.32 222.47,-76.39 232.4,-72.71 227.94,-67.32"/>
</g>
</g>
</svg>
