<?xml version="1.0" encoding="UTF-8" standalone="no"?>
<!DOCTYPE svg PUBLIC "-//W3C//DTD SVG 1.1//EN"
 "http://www.w3.org/Graphics/SVG/1.1/DTD/svg11.dtd">
<!-- Generated by graphviz version 2.43.0 (0)
 -->
<!-- Title: Graphical Class Hierarchy Pages: 1 -->
<svg width="363pt" height="88pt"
 viewBox="0.00 0.00 363.00 88.00" xmlns="http://www.w3.org/2000/svg" xmlns:xlink="http://www.w3.org/1999/xlink">
<g id="graph0" class="graph" transform="scale(1 1) rotate(0) translate(4 84)">
<title>Graphical Class Hierarchy</title>
<polygon fill="white" stroke="transparent" points="-4,4 -4,-84 359,-84 359,4 -4,4"/>
<!-- Node0 -->
<g id="node1" class="node">
<title>Node0</title>
<g id="a_node1"><a xlink:href="classcxx_1_1Bitfield_1_1Value__base.html" target="_top" xlink:title="Internal helper type.">
<polygon fill="white" stroke="black" points="0,-24.5 0,-54.5 149,-54.5 149,-24.5 0,-24.5"/>
<text text-anchor="start" x="8" y="-42.5" font-family="Helvetica,sans-Serif" font-size="10.00">cxx::Bitfield&lt; T, LSB,</text>
<text text-anchor="middle" x="74.5" y="-31.5" font-family="Helvetica,sans-Serif" font-size="10.00"> MSB &gt;::Value_base&lt; TT &gt;</text>
</a>
</g>
</g>
<!-- Node1 -->
<g id="node2" class="node">
<title>Node1</title>
<g id="a_node2"><a xlink:href="classcxx_1_1Bitfield_1_1Value.html" target="_top" xlink:title="Internal helper type.">
<polygon fill="white" stroke="black" points="210,-49.5 210,-79.5 330,-79.5 330,-49.5 210,-49.5"/>
<text text-anchor="start" x="218" y="-67.5" font-family="Helvetica,sans-Serif" font-size="10.00">cxx::Bitfield&lt; T, LSB,</text>
<text text-anchor="middle" x="270" y="-56.5" font-family="Helvetica,sans-Serif" font-size="10.00"> MSB &gt;::Value&lt; TT &gt;</text>
</a>
</g>
</g>
<!-- Node0&#45;&gt;Node1 -->
<g id="edge1" class="edge">
<title>Node0&#45;&gt;Node1</title>
<path fill="none" stroke="midnightblue" d="M159.19,-50.31C176.27,-52.52 193.91,-54.8 209.92,-56.87"/>
<polygon fill="midnightblue" stroke="midnightblue" points="159.57,-46.83 149.21,-49.02 158.68,-53.78 159.57,-46.83"/>
</g>
<!-- Node2 -->
<g id="node3" class="node">
<title>Node2</title>
<g id="a_node3"><a xlink:href="classcxx_1_1Bitfield_1_1Value__unshifted.html" target="_top" xlink:title="Internal helper type.">
<polygon fill="white" stroke="black" points="185,-0.5 185,-30.5 355,-30.5 355,-0.5 185,-0.5"/>
<text text-anchor="start" x="193" y="-18.5" font-family="Helvetica,sans-Serif" font-size="10.00">cxx::Bitfield&lt; T, LSB,</text>
<text text-anchor="middle" x="270" y="-7.5" font-family="Helvetica,sans-Serif" font-size="10.00"> MSB &gt;::Value_unshifted&lt; TT &gt;</text>
</a>
</g>
</g>
<!-- Node0&#45;&gt;Node2 -->
<g id="edge2" class="edge">
<title>Node0&#45;&gt;Node2</title>
<path fill="none" stroke="midnightblue" d="M159.4,-29.09C167.83,-28.05 176.39,-26.99 184.82,-25.94"/>
<polygon fill="midnightblue" stroke="midnightblue" points="158.7,-25.65 149.21,-30.36 159.56,-32.6 158.7,-25.65"/>
</g>
</g>
</svg>
