<?xml version="1.0" encoding="UTF-8" standalone="no"?>
<!DOCTYPE svg PUBLIC "-//W3C//DTD SVG 1.1//EN"
 "http://www.w3.org/Graphics/SVG/1.1/DTD/svg11.dtd">
<!-- Generated by graphviz version 2.43.0 (0)
 -->
<!-- Title: Graphical Class Hierarchy Pages: 1 -->
<svg width="288pt" height="546pt"
 viewBox="0.00 0.00 288.00 546.00" xmlns="http://www.w3.org/2000/svg" xmlns:xlink="http://www.w3.org/1999/xlink">
<g id="graph0" class="graph" transform="scale(1 1) rotate(0) translate(4 542)">
<title>Graphical Class Hierarchy</title>
<polygon fill="white" stroke="transparent" points="-4,4 -4,-542 284,-542 284,4 -4,4"/>
<!-- Node0 -->
<g id="node1" class="node">
<title>Node0</title>
<g id="a_node1"><a xlink:href="classL4_1_1Cap__base.html" target="_top" xlink:title="Base class for all kinds of capabilities.">
<polygon fill="white" stroke="black" points="0,-271.5 0,-290.5 81,-290.5 81,-271.5 0,-271.5"/>
<text text-anchor="middle" x="40.5" y="-278.5" font-family="Helvetica,sans-Serif" font-size="10.00">L4::Cap_base</text>
</a>
</g>
</g>
<!-- Node1 -->
<g id="node2" class="node">
<title>Node1</title>
<g id="a_node2"><a xlink:href="classL4_1_1Cap.html" target="_top" xlink:title=" ">
<polygon fill="white" stroke="black" points="140.5,-518.5 140.5,-537.5 256.5,-537.5 256.5,-518.5 140.5,-518.5"/>
<text text-anchor="middle" x="198.5" y="-525.5" font-family="Helvetica,sans-Serif" font-size="10.00">L4::Cap&lt; L4::Vcon &gt;</text>
</a>
</g>
</g>
<!-- Node0&#45;&gt;Node1 -->
<g id="edge1" class="edge">
<title>Node0&#45;&gt;Node1</title>
<path fill="none" stroke="midnightblue" d="M41.92,-300.79C44,-345.07 55.46,-452.65 117,-509 123.57,-515.01 131.67,-519.23 140.19,-522.16"/>
<polygon fill="midnightblue" stroke="midnightblue" points="45.41,-300.39 41.57,-290.52 38.42,-300.64 45.41,-300.39"/>
</g>
<!-- Node2 -->
<g id="node3" class="node">
<title>Node2</title>
<g id="a_node3"><a xlink:href="classL4_1_1Cap.html" target="_top" xlink:title=" ">
<polygon fill="white" stroke="black" points="134.5,-480.5 134.5,-499.5 262.5,-499.5 262.5,-480.5 134.5,-480.5"/>
<text text-anchor="middle" x="198.5" y="-487.5" font-family="Helvetica,sans-Serif" font-size="10.00">L4::Cap&lt; L4::Factory &gt;</text>
</a>
</g>
</g>
<!-- Node0&#45;&gt;Node2 -->
<g id="edge2" class="edge">
<title>Node0&#45;&gt;Node2</title>
<path fill="none" stroke="midnightblue" d="M43.41,-300.65C48.26,-339.4 64.67,-425.82 117,-471 122.11,-475.41 128.05,-478.84 134.36,-481.5"/>
<polygon fill="midnightblue" stroke="midnightblue" points="46.88,-300.2 42.29,-290.66 39.93,-300.98 46.88,-300.2"/>
</g>
<!-- Node3 -->
<g id="node4" class="node">
<title>Node3</title>
<g id="a_node4"><a xlink:href="classL4_1_1Cap.html" target="_top" xlink:title=" ">
<polygon fill="white" stroke="black" points="137.5,-442.5 137.5,-461.5 259.5,-461.5 259.5,-442.5 137.5,-442.5"/>
<text text-anchor="middle" x="198.5" y="-449.5" font-family="Helvetica,sans-Serif" font-size="10.00">L4::Cap&lt; L4Re::Rm &gt;</text>
</a>
</g>
</g>
<!-- Node0&#45;&gt;Node3 -->
<g id="edge3" class="edge">
<title>Node0&#45;&gt;Node3</title>
<path fill="none" stroke="midnightblue" d="M45.6,-300.73C53.46,-333.46 73.85,-398.76 117,-433 122.96,-437.73 129.91,-441.32 137.17,-444.03"/>
<polygon fill="midnightblue" stroke="midnightblue" points="48.93,-299.61 43.32,-290.62 42.1,-301.14 48.93,-299.61"/>
</g>
<!-- Node4 -->
<g id="node5" class="node">
<title>Node4</title>
<g id="a_node5"><a xlink:href="classL4_1_1Cap.html" target="_top" xlink:title=" ">
<polygon fill="white" stroke="black" points="146,-404.5 146,-423.5 251,-423.5 251,-404.5 146,-404.5"/>
<text text-anchor="middle" x="198.5" y="-411.5" font-family="Helvetica,sans-Serif" font-size="10.00">L4::Cap&lt; L4::Irq &gt;</text>
</a>
</g>
</g>
<!-- Node0&#45;&gt;Node4 -->
<g id="edge4" class="edge">
<title>Node0&#45;&gt;Node4</title>
<path fill="none" stroke="midnightblue" d="M48.85,-300.15C59.72,-325.85 82.6,-371.02 117,-395 125.48,-400.91 135.56,-405 145.67,-407.83"/>
<polygon fill="midnightblue" stroke="midnightblue" points="52.04,-298.7 45.04,-290.75 45.55,-301.33 52.04,-298.7"/>
</g>
<!-- Node5 -->
<g id="node6" class="node">
<title>Node5</title>
<g id="a_node6"><a xlink:href="classL4_1_1Cap.html" target="_top" xlink:title=" ">
<polygon fill="white" stroke="black" points="135.5,-366.5 135.5,-385.5 261.5,-385.5 261.5,-366.5 135.5,-366.5"/>
<text text-anchor="middle" x="198.5" y="-373.5" font-family="Helvetica,sans-Serif" font-size="10.00">L4::Cap&lt; L4::Thread &gt;</text>
</a>
</g>
</g>
<!-- Node0&#45;&gt;Node5 -->
<g id="edge5" class="edge">
<title>Node0&#45;&gt;Node5</title>
<path fill="none" stroke="midnightblue" d="M54.41,-298.88C68.01,-316.38 91.02,-342.46 117,-357 123.89,-360.86 131.54,-363.93 139.3,-366.39"/>
<polygon fill="midnightblue" stroke="midnightblue" points="57,-296.51 48.19,-290.62 51.41,-300.72 57,-296.51"/>
</g>
<!-- Node6 -->
<g id="node7" class="node">
<title>Node6</title>
<g id="a_node7"><a xlink:href="classL4_1_1Cap.html" target="_top" xlink:title=" ">
<polygon fill="white" stroke="black" points="117,-328.5 117,-347.5 280,-347.5 280,-328.5 117,-328.5"/>
<text text-anchor="middle" x="198.5" y="-335.5" font-family="Helvetica,sans-Serif" font-size="10.00">L4::Cap&lt; L4Re::Namespace &gt;</text>
</a>
</g>
</g>
<!-- Node0&#45;&gt;Node6 -->
<g id="edge6" class="edge">
<title>Node0&#45;&gt;Node6</title>
<path fill="none" stroke="midnightblue" d="M66.58,-295.49C80.97,-303.32 99.58,-312.66 117,-319 127.12,-322.68 138.22,-325.84 148.86,-328.46"/>
<polygon fill="midnightblue" stroke="midnightblue" points="68.23,-292.41 57.79,-290.61 64.83,-298.53 68.23,-292.41"/>
</g>
<!-- Node7 -->
<g id="node8" class="node">
<title>Node7</title>
<g id="a_node8"><a xlink:href="classL4_1_1Cap.html" target="_top" xlink:title=" ">
<polygon fill="white" stroke="black" points="150.5,-290.5 150.5,-309.5 246.5,-309.5 246.5,-290.5 150.5,-290.5"/>
<text text-anchor="middle" x="198.5" y="-297.5" font-family="Helvetica,sans-Serif" font-size="10.00">L4::Cap&lt; void &gt;</text>
</a>
</g>
</g>
<!-- Node0&#45;&gt;Node7 -->
<g id="edge7" class="edge">
<title>Node0&#45;&gt;Node7</title>
<path fill="none" stroke="midnightblue" d="M91.46,-287.08C110.32,-289.38 131.71,-291.99 150.31,-294.25"/>
<polygon fill="midnightblue" stroke="midnightblue" points="91.62,-283.58 81.27,-285.84 90.77,-290.53 91.62,-283.58"/>
</g>
<!-- Node8 -->
<g id="node9" class="node">
<title>Node8</title>
<g id="a_node9"><a xlink:href="classL4_1_1Cap.html" target="_top" xlink:title=" ">
<polygon fill="white" stroke="black" points="124.5,-252.5 124.5,-271.5 272.5,-271.5 272.5,-252.5 124.5,-252.5"/>
<text text-anchor="middle" x="198.5" y="-259.5" font-family="Helvetica,sans-Serif" font-size="10.00">L4::Cap&lt; L4::Semaphore &gt;</text>
</a>
</g>
</g>
<!-- Node0&#45;&gt;Node8 -->
<g id="edge8" class="edge">
<title>Node0&#45;&gt;Node8</title>
<path fill="none" stroke="midnightblue" d="M91.48,-274.91C101.99,-273.63 113.28,-272.26 124.44,-270.9"/>
<polygon fill="midnightblue" stroke="midnightblue" points="90.77,-271.47 81.27,-276.16 91.62,-278.42 90.77,-271.47"/>
</g>
<!-- Node9 -->
<g id="node10" class="node">
<title>Node9</title>
<g id="a_node10"><a xlink:href="classL4_1_1Cap.html" target="_top" xlink:title=" ">
<polygon fill="white" stroke="black" points="120,-214.5 120,-233.5 277,-233.5 277,-214.5 120,-214.5"/>
<text text-anchor="middle" x="198.5" y="-221.5" font-family="Helvetica,sans-Serif" font-size="10.00">L4::Cap&lt; L4Re::Dataspace &gt;</text>
</a>
</g>
</g>
<!-- Node0&#45;&gt;Node9 -->
<g id="edge9" class="edge">
<title>Node0&#45;&gt;Node9</title>
<path fill="none" stroke="midnightblue" d="M66.58,-266.51C80.97,-258.68 99.58,-249.34 117,-243 127.12,-239.32 138.22,-236.16 148.86,-233.54"/>
<polygon fill="midnightblue" stroke="midnightblue" points="64.83,-263.47 57.79,-271.39 68.23,-269.59 64.83,-263.47"/>
</g>
<!-- Node10 -->
<g id="node11" class="node">
<title>Node10</title>
<g id="a_node11"><a xlink:href="classL4_1_1Cap.html" target="_top" xlink:title=" ">
<polygon fill="white" stroke="black" points="145,-165 145,-195 252,-195 252,-165 145,-165"/>
<text text-anchor="start" x="153" y="-183" font-family="Helvetica,sans-Serif" font-size="10.00">L4::Cap&lt; L4virtio::</text>
<text text-anchor="middle" x="198.5" y="-172" font-family="Helvetica,sans-Serif" font-size="10.00">Device &gt;</text>
</a>
</g>
</g>
<!-- Node0&#45;&gt;Node10 -->
<g id="edge10" class="edge">
<title>Node0&#45;&gt;Node10</title>
<path fill="none" stroke="midnightblue" d="M54.85,-263.22C68.64,-246.01 91.67,-220.35 117,-205 125.51,-199.84 135.18,-195.66 144.79,-192.3"/>
<polygon fill="midnightblue" stroke="midnightblue" points="51.9,-261.3 48.52,-271.34 57.42,-265.61 51.9,-261.3"/>
</g>
<!-- Node11 -->
<g id="node12" class="node">
<title>Node11</title>
<g id="a_node12"><a xlink:href="classL4_1_1Cap.html" target="_top" xlink:title=" ">
<polygon fill="white" stroke="black" points="128.5,-126.5 128.5,-145.5 268.5,-145.5 268.5,-126.5 128.5,-126.5"/>
<text text-anchor="middle" x="198.5" y="-133.5" font-family="Helvetica,sans-Serif" font-size="10.00">L4::Cap&lt; L4vbus::Vbus &gt;</text>
</a>
</g>
</g>
<!-- Node0&#45;&gt;Node11 -->
<g id="edge11" class="edge">
<title>Node0&#45;&gt;Node11</title>
<path fill="none" stroke="midnightblue" d="M47.79,-261.7C57.84,-233.93 80.25,-183.1 117,-156 122.91,-151.64 129.66,-148.22 136.68,-145.55"/>
<polygon fill="midnightblue" stroke="midnightblue" points="44.38,-260.83 44.43,-271.42 51,-263.11 44.38,-260.83"/>
</g>
<!-- Node12 -->
<g id="node13" class="node">
<title>Node12</title>
<g id="a_node13"><a xlink:href="classL4_1_1Cap.html" target="_top" xlink:title=" ">
<polygon fill="white" stroke="black" points="137.5,-77 137.5,-107 259.5,-107 259.5,-77 137.5,-77"/>
<text text-anchor="start" x="145.5" y="-95" font-family="Helvetica,sans-Serif" font-size="10.00">L4::Cap&lt; L4Re::Video</text>
<text text-anchor="middle" x="198.5" y="-84" font-family="Helvetica,sans-Serif" font-size="10.00">::Goos &gt;</text>
</a>
</g>
</g>
<!-- Node0&#45;&gt;Node12 -->
<g id="edge12" class="edge">
<title>Node0&#45;&gt;Node12</title>
<path fill="none" stroke="midnightblue" d="M45.2,-261.03C52.61,-226.6 72.55,-156.01 117,-117 122.94,-111.79 129.96,-107.66 137.33,-104.4"/>
<polygon fill="midnightblue" stroke="midnightblue" points="41.69,-260.73 43.14,-271.22 48.55,-262.11 41.69,-260.73"/>
</g>
<!-- Node13 -->
<g id="node14" class="node">
<title>Node13</title>
<g id="a_node14"><a xlink:href="classL4_1_1Cap.html" target="_top" xlink:title="C++ interface for capabilities.">
<polygon fill="white" stroke="black" points="158,-38.5 158,-57.5 239,-57.5 239,-38.5 158,-38.5"/>
<text text-anchor="middle" x="198.5" y="-45.5" font-family="Helvetica,sans-Serif" font-size="10.00">L4::Cap&lt; T &gt;</text>
</a>
</g>
</g>
<!-- Node0&#45;&gt;Node13 -->
<g id="edge13" class="edge">
<title>Node0&#45;&gt;Node13</title>
<path fill="none" stroke="midnightblue" d="M42.52,-261.1C45.79,-218.93 59.51,-120.16 117,-68 128.09,-57.94 143.46,-52.75 157.79,-50.14"/>
<polygon fill="midnightblue" stroke="midnightblue" points="39.02,-260.99 41.86,-271.2 46,-261.45 39.02,-260.99"/>
</g>
<!-- Node14 -->
<g id="node15" class="node">
<title>Node14</title>
<g id="a_node15"><a xlink:href="classL4_1_1Smart__cap.html" target="_top" xlink:title="Smart capability class.">
<polygon fill="white" stroke="black" points="121.5,-0.5 121.5,-19.5 275.5,-19.5 275.5,-0.5 121.5,-0.5"/>
<text text-anchor="middle" x="198.5" y="-7.5" font-family="Helvetica,sans-Serif" font-size="10.00">L4::Smart_cap&lt; T, SMART &gt;</text>
</a>
</g>
</g>
<!-- Node0&#45;&gt;Node14 -->
<g id="edge14" class="edge">
<title>Node0&#45;&gt;Node14</title>
<path fill="none" stroke="midnightblue" d="M41.19,-261.09C41.6,-213.52 49.6,-92.52 117,-29 121.08,-25.16 125.78,-22.05 130.82,-19.53"/>
<polygon fill="midnightblue" stroke="midnightblue" points="37.69,-261.29 41.22,-271.29 44.69,-261.28 37.69,-261.29"/>
</g>
</g>
</svg>
