<?xml version="1.0" encoding="UTF-8" standalone="no"?>
<!DOCTYPE svg PUBLIC "-//W3C//DTD SVG 1.1//EN"
 "http://www.w3.org/Graphics/SVG/1.1/DTD/svg11.dtd">
<!-- Generated by graphviz version 2.43.0 (0)
 -->
<!-- Title: Graphical Class Hierarchy Pages: 1 -->
<svg width="393pt" height="142pt"
 viewBox="0.00 0.00 393.00 142.00" xmlns="http://www.w3.org/2000/svg" xmlns:xlink="http://www.w3.org/1999/xlink">
<g id="graph0" class="graph" transform="scale(1 1) rotate(0) translate(4 138)">
<title>Graphical Class Hierarchy</title>
<polygon fill="white" stroke="transparent" points="-4,4 -4,-138 389,-138 389,4 -4,4"/>
<!-- Node0 -->
<g id="node1" class="node">
<title>Node0</title>
<g id="a_node1"><a xlink:href="classL4Re_1_1Vfs_1_1Directory.html" target="_top" xlink:title="Interface for a POSIX file that is a directory.">
<polygon fill="white" stroke="black" points="6.5,-114.5 6.5,-133.5 119.5,-133.5 119.5,-114.5 6.5,-114.5"/>
<text text-anchor="middle" x="63" y="-121.5" font-family="Helvetica,sans-Serif" font-size="10.00">L4Re::Vfs::Directory</text>
</a>
</g>
</g>
<!-- Node1 -->
<g id="node2" class="node">
<title>Node1</title>
<g id="a_node2"><a xlink:href="classL4Re_1_1Vfs_1_1File.html" target="_top" xlink:title="The basic interface for an open POSIX file.">
<polygon fill="white" stroke="black" points="162,-57.5 162,-76.5 248,-76.5 248,-57.5 162,-57.5"/>
<text text-anchor="middle" x="205" y="-64.5" font-family="Helvetica,sans-Serif" font-size="10.00">L4Re::Vfs::File</text>
</a>
</g>
</g>
<!-- Node0&#45;&gt;Node1 -->
<g id="edge1" class="edge">
<title>Node0&#45;&gt;Node1</title>
<path fill="none" stroke="midnightblue" d="M108.39,-111.32C114.36,-109.35 120.36,-107.22 126,-105 147.3,-96.61 170.81,-84.78 186.39,-76.56"/>
<polygon fill="midnightblue" stroke="midnightblue" points="106.91,-108.12 98.44,-114.49 109.03,-114.79 106.91,-108.12"/>
</g>
<!-- Node2 -->
<g id="node3" class="node">
<title>Node2</title>
<g id="a_node3"><a xlink:href="classL4Re_1_1Vfs_1_1Be__file.html" target="_top" xlink:title="Boiler plate class for implementing an open file for L4Re::Vfs.">
<polygon fill="white" stroke="black" points="284,-57.5 284,-76.5 385,-76.5 385,-57.5 284,-57.5"/>
<text text-anchor="middle" x="334.5" y="-64.5" font-family="Helvetica,sans-Serif" font-size="10.00">L4Re::Vfs::Be_file</text>
</a>
</g>
</g>
<!-- Node1&#45;&gt;Node2 -->
<g id="edge2" class="edge">
<title>Node1&#45;&gt;Node2</title>
<path fill="none" stroke="midnightblue" d="M258.26,-67C266.74,-67 275.5,-67 283.92,-67"/>
<polygon fill="midnightblue" stroke="midnightblue" points="258.1,-63.5 248.1,-67 258.1,-70.5 258.1,-63.5"/>
</g>
<!-- Node367 -->
<g id="node4" class="node">
<title>Node367</title>
<g id="a_node4"><a xlink:href="classL4Re_1_1Vfs_1_1Generic__file.html" target="_top" xlink:title="The common interface for an open POSIX file.">
<polygon fill="white" stroke="black" points="0,-76.5 0,-95.5 126,-95.5 126,-76.5 0,-76.5"/>
<text text-anchor="middle" x="63" y="-83.5" font-family="Helvetica,sans-Serif" font-size="10.00">L4Re::Vfs::Generic_file</text>
</a>
</g>
</g>
<!-- Node367&#45;&gt;Node1 -->
<g id="edge3" class="edge">
<title>Node367&#45;&gt;Node1</title>
<path fill="none" stroke="midnightblue" d="M136.37,-76.18C145.02,-75 153.62,-73.84 161.65,-72.75"/>
<polygon fill="midnightblue" stroke="midnightblue" points="135.66,-72.74 126.22,-77.56 136.6,-79.68 135.66,-72.74"/>
</g>
<!-- Node369 -->
<g id="node5" class="node">
<title>Node369</title>
<g id="a_node5"><a xlink:href="classL4Re_1_1Vfs_1_1Regular__file.html" target="_top" xlink:title="Interface for a POSIX file that provides regular file semantics.">
<polygon fill="white" stroke="black" points="0,-38.5 0,-57.5 126,-57.5 126,-38.5 0,-38.5"/>
<text text-anchor="middle" x="63" y="-45.5" font-family="Helvetica,sans-Serif" font-size="10.00">L4Re::Vfs::Regular_file</text>
</a>
</g>
</g>
<!-- Node369&#45;&gt;Node1 -->
<g id="edge4" class="edge">
<title>Node369&#45;&gt;Node1</title>
<path fill="none" stroke="midnightblue" d="M136.37,-57.82C145.02,-59 153.62,-60.16 161.65,-61.25"/>
<polygon fill="midnightblue" stroke="midnightblue" points="136.6,-54.32 126.22,-56.44 135.66,-61.26 136.6,-54.32"/>
</g>
<!-- Node370 -->
<g id="node6" class="node">
<title>Node370</title>
<g id="a_node6"><a xlink:href="classL4Re_1_1Vfs_1_1Special__file.html" target="_top" xlink:title="Interface for a POSIX file that provides special file semantics.">
<polygon fill="white" stroke="black" points="1,-0.5 1,-19.5 125,-19.5 125,-0.5 1,-0.5"/>
<text text-anchor="middle" x="63" y="-7.5" font-family="Helvetica,sans-Serif" font-size="10.00">L4Re::Vfs::Special_file</text>
</a>
</g>
</g>
<!-- Node370&#45;&gt;Node1 -->
<g id="edge5" class="edge">
<title>Node370&#45;&gt;Node1</title>
<path fill="none" stroke="midnightblue" d="M108.39,-22.68C114.36,-24.65 120.36,-26.78 126,-29 147.3,-37.39 170.81,-49.22 186.39,-57.44"/>
<polygon fill="midnightblue" stroke="midnightblue" points="109.03,-19.21 98.44,-19.51 106.91,-25.88 109.03,-19.21"/>
</g>
</g>
</svg>
