<?xml version="1.0" encoding="UTF-8" standalone="no"?>
<!DOCTYPE svg PUBLIC "-//W3C//DTD SVG 1.1//EN"
 "http://www.w3.org/Graphics/SVG/1.1/DTD/svg11.dtd">
<!-- Generated by graphviz version 2.43.0 (0)
 -->
<!-- Title: Graphical Class Hierarchy Pages: 1 -->
<svg width="443pt" height="176pt"
 viewBox="0.00 0.00 443.00 175.50" xmlns="http://www.w3.org/2000/svg" xmlns:xlink="http://www.w3.org/1999/xlink">
<g id="graph0" class="graph" transform="scale(1 1) rotate(0) translate(4 171.5)">
<title>Graphical Class Hierarchy</title>
<polygon fill="white" stroke="transparent" points="-4,4 -4,-171.5 439,-171.5 439,4 -4,4"/>
<!-- Node0 -->
<g id="node1" class="node">
<title>Node0</title>
<g id="a_node1"><a xlink:href="classcxx_1_1Bits_1_1Basic__list.html" target="_top" xlink:title="Internal: Common functions for all head&#45;based list implementations.">
<polygon fill="white" stroke="black" points="0,-79.5 0,-109.5 111,-109.5 111,-79.5 0,-79.5"/>
<text text-anchor="start" x="8" y="-97.5" font-family="Helvetica,sans-Serif" font-size="10.00">cxx::Bits::Basic_list</text>
<text text-anchor="middle" x="55.5" y="-86.5" font-family="Helvetica,sans-Serif" font-size="10.00">&lt; POLICY &gt;</text>
</a>
</g>
</g>
<!-- Node1 -->
<g id="node2" class="node">
<title>Node1</title>
<g id="a_node2"><a xlink:href="classcxx_1_1H__list.html" target="_top" xlink:title=" ">
<polygon fill="white" stroke="black" points="155,-148 155,-167 286,-167 286,-148 155,-148"/>
<text text-anchor="middle" x="220.5" y="-155" font-family="Helvetica,sans-Serif" font-size="10.00">cxx::H_list&lt; Timeout &gt;</text>
</a>
</g>
</g>
<!-- Node0&#45;&gt;Node1 -->
<g id="edge1" class="edge">
<title>Node0&#45;&gt;Node1</title>
<path fill="none" stroke="midnightblue" d="M93.13,-114.34C109.32,-122.57 128.78,-131.76 147,-138.5 156.64,-142.07 167.24,-145.24 177.28,-147.93"/>
<polygon fill="midnightblue" stroke="midnightblue" points="94.5,-111.11 84.01,-109.63 91.29,-117.33 94.5,-111.11"/>
</g>
<!-- Node2 -->
<g id="node3" class="node">
<title>Node2</title>
<g id="a_node3"><a xlink:href="classcxx_1_1H__list.html" target="_top" xlink:title=" ">
<polygon fill="white" stroke="black" points="153.5,-110 153.5,-129 287.5,-129 287.5,-110 153.5,-110"/>
<text text-anchor="middle" x="220.5" y="-117" font-family="Helvetica,sans-Serif" font-size="10.00">cxx::H_list&lt; Observer &gt;</text>
</a>
</g>
</g>
<!-- Node0&#45;&gt;Node2 -->
<g id="edge2" class="edge">
<title>Node0&#45;&gt;Node2</title>
<path fill="none" stroke="midnightblue" d="M121.47,-104.46C133.28,-106.28 145.59,-108.16 157.32,-109.96"/>
<polygon fill="midnightblue" stroke="midnightblue" points="121.65,-100.95 111.23,-102.89 120.58,-107.87 121.65,-100.95"/>
</g>
<!-- Node3 -->
<g id="node4" class="node">
<title>Node3</title>
<g id="a_node4"><a xlink:href="classcxx_1_1H__list.html" target="_top" xlink:title=" ">
<polygon fill="white" stroke="black" points="147,-50 147,-91 294,-91 294,-50 147,-50"/>
<text text-anchor="start" x="155" y="-79" font-family="Helvetica,sans-Serif" font-size="10.00">cxx::H_list&lt; T, Bits</text>
<text text-anchor="start" x="155" y="-68" font-family="Helvetica,sans-Serif" font-size="10.00">::Basic_list_policy&lt;</text>
<text text-anchor="middle" x="220.5" y="-57" font-family="Helvetica,sans-Serif" font-size="10.00"> T, H_list_item_t&lt; T &gt; &gt; &gt;</text>
</a>
</g>
</g>
<!-- Node0&#45;&gt;Node3 -->
<g id="edge3" class="edge">
<title>Node0&#45;&gt;Node3</title>
<path fill="none" stroke="midnightblue" d="M121.35,-84.95C129.77,-83.71 138.43,-82.44 146.96,-81.18"/>
<polygon fill="midnightblue" stroke="midnightblue" points="120.61,-81.52 111.23,-86.44 121.63,-88.45 120.61,-81.52"/>
</g>
<!-- Node5 -->
<g id="node6" class="node">
<title>Node5</title>
<g id="a_node6"><a xlink:href="classcxx_1_1H__list.html" target="_top" xlink:title=" ">
<polygon fill="white" stroke="black" points="157.5,-0.5 157.5,-30.5 283.5,-30.5 283.5,-0.5 157.5,-0.5"/>
<text text-anchor="start" x="165.5" y="-18.5" font-family="Helvetica,sans-Serif" font-size="10.00">cxx::H_list&lt; cxx::Base</text>
<text text-anchor="middle" x="220.5" y="-7.5" font-family="Helvetica,sans-Serif" font-size="10.00">_slab::Slab_i &gt;</text>
</a>
</g>
</g>
<!-- Node0&#45;&gt;Node5 -->
<g id="edge5" class="edge">
<title>Node0&#45;&gt;Node5</title>
<path fill="none" stroke="midnightblue" d="M87.32,-73.95C104.43,-63.1 126.37,-50.09 147,-40.5 154.73,-36.91 163.12,-33.55 171.37,-30.53"/>
<polygon fill="midnightblue" stroke="midnightblue" points="85.37,-71.04 78.85,-79.39 89.15,-76.93 85.37,-71.04"/>
</g>
<!-- Node4 -->
<g id="node5" class="node">
<title>Node4</title>
<g id="a_node5"><a xlink:href="structcxx_1_1H__list__t.html" target="_top" xlink:title="Double&#45;linked list of typed H_list_item_t elements.">
<polygon fill="white" stroke="black" points="330,-61 330,-80 435,-80 435,-61 330,-61"/>
<text text-anchor="middle" x="382.5" y="-68" font-family="Helvetica,sans-Serif" font-size="10.00">cxx::H_list_t&lt; T &gt;</text>
</a>
</g>
</g>
<!-- Node3&#45;&gt;Node4 -->
<g id="edge4" class="edge">
<title>Node3&#45;&gt;Node4</title>
<path fill="none" stroke="midnightblue" d="M304.23,-70.5C312.93,-70.5 321.59,-70.5 329.8,-70.5"/>
<polygon fill="midnightblue" stroke="midnightblue" points="304.01,-67 294.01,-70.5 304.01,-74 304.01,-67"/>
</g>
</g>
</svg>
