<?xml version="1.0" encoding="UTF-8" standalone="no"?>
<!DOCTYPE svg PUBLIC "-//W3C//DTD SVG 1.1//EN"
 "http://www.w3.org/Graphics/SVG/1.1/DTD/svg11.dtd">
<!-- Generated by graphviz version 2.43.0 (0)
 -->
<!-- Title: Graphical Class Hierarchy Pages: 1 -->
<svg width="258pt" height="78pt"
 viewBox="0.00 0.00 258.00 77.50" xmlns="http://www.w3.org/2000/svg" xmlns:xlink="http://www.w3.org/1999/xlink">
<g id="graph0" class="graph" transform="scale(1 1) rotate(0) translate(4 73.5)">
<title>Graphical Class Hierarchy</title>
<polygon fill="white" stroke="transparent" points="-4,4 -4,-73.5 254,-73.5 254,4 -4,4"/>
<!-- Node0 -->
<g id="node1" class="node">
<title>Node0</title>
<g id="a_node1"><a xlink:href="structL4_1_1Ipc_1_1Call.html" target="_top" xlink:title="RPC attribute for a standard RPC call.">
<polygon fill="white" stroke="black" points="0,-28 0,-47 73,-47 73,-28 0,-28"/>
<text text-anchor="middle" x="36.5" y="-35" font-family="Helvetica,sans-Serif" font-size="10.00">L4::Ipc::Call</text>
</a>
</g>
</g>
<!-- Node1 -->
<g id="node2" class="node">
<title>Node1</title>
<g id="a_node2"><a xlink:href="structL4_1_1Ipc_1_1Call__t.html" target="_top" xlink:title="RPC attribute for an RPC call with required rights.">
<polygon fill="white" stroke="black" points="109,-50 109,-69 250,-69 250,-50 109,-50"/>
<text text-anchor="middle" x="179.5" y="-57" font-family="Helvetica,sans-Serif" font-size="10.00">L4::Ipc::Call_t&lt; RIGHTS &gt;</text>
</a>
</g>
</g>
<!-- Node0&#45;&gt;Node1 -->
<g id="edge1" class="edge">
<title>Node0&#45;&gt;Node1</title>
<path fill="none" stroke="midnightblue" d="M83.22,-44.63C94.13,-46.34 105.94,-48.18 117.42,-49.97"/>
<polygon fill="midnightblue" stroke="midnightblue" points="83.5,-41.14 73.08,-43.05 82.42,-48.05 83.5,-41.14"/>
</g>
<!-- Node2 -->
<g id="node3" class="node">
<title>Node2</title>
<g id="a_node3"><a xlink:href="structL4_1_1Ipc_1_1Call__zero__send__timeout.html" target="_top" xlink:title="RPC attribute for an RPC call, with zero send timeout.">
<polygon fill="white" stroke="black" points="130,-0.5 130,-30.5 229,-30.5 229,-0.5 130,-0.5"/>
<text text-anchor="start" x="138" y="-18.5" font-family="Helvetica,sans-Serif" font-size="10.00">L4::Ipc::Call_zero</text>
<text text-anchor="middle" x="179.5" y="-7.5" font-family="Helvetica,sans-Serif" font-size="10.00">_send_timeout</text>
</a>
</g>
</g>
<!-- Node0&#45;&gt;Node2 -->
<g id="edge2" class="edge">
<title>Node0&#45;&gt;Node2</title>
<path fill="none" stroke="midnightblue" d="M83.12,-30.38C98.06,-28.05 114.72,-25.45 129.88,-23.09"/>
<polygon fill="midnightblue" stroke="midnightblue" points="82.42,-26.95 73.08,-31.95 83.5,-33.86 82.42,-26.95"/>
</g>
</g>
</svg>
