<?xml version="1.0" encoding="UTF-8" standalone="no"?>
<!DOCTYPE svg PUBLIC "-//W3C//DTD SVG 1.1//EN"
 "http://www.w3.org/Graphics/SVG/1.1/DTD/svg11.dtd">
<!-- Generated by graphviz version 2.43.0 (0)
 -->
<!-- Title: Graphical Class Hierarchy Pages: 1 -->
<svg width="249pt" height="66pt"
 viewBox="0.00 0.00 249.00 66.00" xmlns="http://www.w3.org/2000/svg" xmlns:xlink="http://www.w3.org/1999/xlink">
<g id="graph0" class="graph" transform="scale(1 1) rotate(0) translate(4 62)">
<title>Graphical Class Hierarchy</title>
<polygon fill="white" stroke="transparent" points="-4,4 -4,-62 245,-62 245,4 -4,4"/>
<!-- Node0 -->
<g id="node1" class="node">
<title>Node0</title>
<g id="a_node1"><a xlink:href="classL4_1_1Basic__registry.html" target="_top" xlink:title="This registry returns the corresponding server object based on the label of an Ipc_gate.">
<polygon fill="white" stroke="black" points="0.5,-38.5 0.5,-57.5 103.5,-57.5 103.5,-38.5 0.5,-38.5"/>
<text text-anchor="middle" x="52" y="-45.5" font-family="Helvetica,sans-Serif" font-size="10.00">L4::Basic_registry</text>
</a>
</g>
</g>
<!-- Node1 -->
<g id="node2" class="node">
<title>Node1</title>
<g id="a_node2"><a xlink:href="classL4Re_1_1Util_1_1Object__registry.html" target="_top" xlink:title="A registry that manages server objects and their attached IPC gates for a single server loop for a sp...">
<polygon fill="white" stroke="black" points="140,-14 140,-44 241,-44 241,-14 140,-14"/>
<text text-anchor="start" x="148" y="-32" font-family="Helvetica,sans-Serif" font-size="10.00">L4Re::Util::Object</text>
<text text-anchor="middle" x="190.5" y="-21" font-family="Helvetica,sans-Serif" font-size="10.00">_registry</text>
</a>
</g>
</g>
<!-- Node0&#45;&gt;Node1 -->
<g id="edge1" class="edge">
<title>Node0&#45;&gt;Node1</title>
<path fill="none" stroke="midnightblue" d="M113.95,-39.52C122.66,-38.3 131.53,-37.07 139.99,-35.89"/>
<polygon fill="midnightblue" stroke="midnightblue" points="113.25,-36.08 103.83,-40.93 114.21,-43.01 113.25,-36.08"/>
</g>
<!-- Node277 -->
<g id="node3" class="node">
<title>Node277</title>
<g id="a_node3"><a xlink:href="classL4_1_1Registry__iface.html" target="_top" xlink:title="Abstract interface for object registries.">
<polygon fill="white" stroke="black" points="0,-0.5 0,-19.5 104,-19.5 104,-0.5 0,-0.5"/>
<text text-anchor="middle" x="52" y="-7.5" font-family="Helvetica,sans-Serif" font-size="10.00">L4::Registry_iface</text>
</a>
</g>
</g>
<!-- Node277&#45;&gt;Node1 -->
<g id="edge2" class="edge">
<title>Node277&#45;&gt;Node1</title>
<path fill="none" stroke="midnightblue" d="M114.18,-18.52C122.76,-19.71 131.48,-20.92 139.81,-22.08"/>
<polygon fill="midnightblue" stroke="midnightblue" points="114.6,-15.04 104.22,-17.13 113.64,-21.97 114.6,-15.04"/>
</g>
</g>
</svg>
