<?xml version="1.0" encoding="UTF-8" standalone="no"?>
<!DOCTYPE svg PUBLIC "-//W3C//DTD SVG 1.1//EN"
 "http://www.w3.org/Graphics/SVG/1.1/DTD/svg11.dtd">
<!-- Generated by graphviz version 2.43.0 (0)
 -->
<!-- Title: Graphical Class Hierarchy Pages: 1 -->
<svg width="519pt" height="163pt"
 viewBox="0.00 0.00 519.00 162.50" xmlns="http://www.w3.org/2000/svg" xmlns:xlink="http://www.w3.org/1999/xlink">
<g id="graph0" class="graph" transform="scale(1 1) rotate(0) translate(4 158.5)">
<title>Graphical Class Hierarchy</title>
<polygon fill="white" stroke="transparent" points="-4,4 -4,-158.5 515,-158.5 515,4 -4,4"/>
<!-- Node0 -->
<g id="node1" class="node">
<title>Node0</title>
<g id="a_node1"><a xlink:href="classL4_1_1Type__info_1_1Demand.html" target="_top" xlink:title="Data type for expressing the needed receive buffers at the server&#45;side of an interface.">
<polygon fill="white" stroke="black" points="0,-49.5 0,-68.5 128,-68.5 128,-49.5 0,-49.5"/>
<text text-anchor="middle" x="64" y="-56.5" font-family="Helvetica,sans-Serif" font-size="10.00">L4::Type_info::Demand</text>
</a>
</g>
</g>
<!-- Node1 -->
<g id="node2" class="node">
<title>Node1</title>
<g id="a_node2"><a xlink:href="structL4_1_1Type__info_1_1Demand__t.html" target="_top" xlink:title=" ">
<polygon fill="white" stroke="black" points="164,-61 164,-135 334,-135 334,-61 164,-61"/>
<text text-anchor="start" x="172" y="-123" font-family="Helvetica,sans-Serif" font-size="10.00">L4::Type_info::Demand</text>
<text text-anchor="start" x="172" y="-112" font-family="Helvetica,sans-Serif" font-size="10.00">_t&lt; __I::Max&lt; D1::Caps,</text>
<text text-anchor="start" x="172" y="-101" font-family="Helvetica,sans-Serif" font-size="10.00"> D2::Caps &gt;::Res, D1::Flags|</text>
<text text-anchor="start" x="172" y="-90" font-family="Helvetica,sans-Serif" font-size="10.00">D2::Flags, __I::Max&lt; D1::Mem,</text>
<text text-anchor="start" x="172" y="-79" font-family="Helvetica,sans-Serif" font-size="10.00"> D2::Mem &gt;::Res, __I::Max&lt; D1</text>
<text text-anchor="middle" x="249" y="-68" font-family="Helvetica,sans-Serif" font-size="10.00">::Ports, D2::Ports &gt;::Res &gt;</text>
</a>
</g>
</g>
<!-- Node0&#45;&gt;Node1 -->
<g id="edge1" class="edge">
<title>Node0&#45;&gt;Node1</title>
<path fill="none" stroke="midnightblue" d="M119.6,-70.64C133.47,-73.59 148.69,-76.84 163.66,-80.03"/>
<polygon fill="midnightblue" stroke="midnightblue" points="120.28,-67.2 109.77,-68.54 118.82,-74.05 120.28,-67.2"/>
</g>
<!-- Node4 -->
<g id="node5" class="node">
<title>Node4</title>
<g id="a_node5"><a xlink:href="structL4_1_1Type__info_1_1Demand__t.html" target="_top" xlink:title="Template type statically describing demand of receive buffers.">
<polygon fill="white" stroke="black" points="182,-0.5 182,-41.5 316,-41.5 316,-0.5 182,-0.5"/>
<text text-anchor="start" x="190" y="-29.5" font-family="Helvetica,sans-Serif" font-size="10.00">L4::Type_info::Demand</text>
<text text-anchor="start" x="190" y="-18.5" font-family="Helvetica,sans-Serif" font-size="10.00">_t&lt; CAPS, FLAGS, MEM,</text>
<text text-anchor="middle" x="249" y="-7.5" font-family="Helvetica,sans-Serif" font-size="10.00"> PORTS &gt;</text>
</a>
</g>
</g>
<!-- Node0&#45;&gt;Node4 -->
<g id="edge4" class="edge">
<title>Node0&#45;&gt;Node4</title>
<path fill="none" stroke="midnightblue" d="M120.97,-47.38C140.18,-43.39 161.85,-38.89 181.79,-34.75"/>
<polygon fill="midnightblue" stroke="midnightblue" points="120.26,-43.95 111.18,-49.41 121.68,-50.8 120.26,-43.95"/>
</g>
<!-- Node2 -->
<g id="node3" class="node">
<title>Node2</title>
<g id="a_node3"><a xlink:href="structL4_1_1Type__info_1_1Demand__union__t.html" target="_top" xlink:title=" ">
<polygon fill="white" stroke="black" points="370,-102 370,-154 511,-154 511,-102 370,-102"/>
<text text-anchor="start" x="378" y="-142" font-family="Helvetica,sans-Serif" font-size="10.00">L4::Type_info::Demand</text>
<text text-anchor="start" x="378" y="-131" font-family="Helvetica,sans-Serif" font-size="10.00">_union_t&lt; Kobject_typeid</text>
<text text-anchor="start" x="378" y="-120" font-family="Helvetica,sans-Serif" font-size="10.00">&lt; T1 &gt;::Demand, Kobject</text>
<text text-anchor="middle" x="440.5" y="-109" font-family="Helvetica,sans-Serif" font-size="10.00">_demand&lt; T2... &gt; &gt;</text>
</a>
</g>
</g>
<!-- Node1&#45;&gt;Node2 -->
<g id="edge2" class="edge">
<title>Node1&#45;&gt;Node2</title>
<path fill="none" stroke="midnightblue" d="M344.27,-112.92C352.84,-114.28 361.42,-115.64 369.72,-116.95"/>
<polygon fill="midnightblue" stroke="midnightblue" points="344.65,-109.44 334.22,-111.33 343.55,-116.35 344.65,-109.44"/>
</g>
<!-- Node3 -->
<g id="node4" class="node">
<title>Node3</title>
<g id="a_node4"><a xlink:href="structL4_1_1Type__info_1_1Demand__union__t.html" target="_top" xlink:title="Template type statically describing the combination of two Demand object.">
<polygon fill="white" stroke="black" points="376.5,-53 376.5,-83 504.5,-83 504.5,-53 376.5,-53"/>
<text text-anchor="start" x="384.5" y="-71" font-family="Helvetica,sans-Serif" font-size="10.00">L4::Type_info::Demand</text>
<text text-anchor="middle" x="440.5" y="-60" font-family="Helvetica,sans-Serif" font-size="10.00">_union_t&lt; D1, D2 &gt;</text>
</a>
</g>
</g>
<!-- Node1&#45;&gt;Node3 -->
<g id="edge3" class="edge">
<title>Node1&#45;&gt;Node3</title>
<path fill="none" stroke="midnightblue" d="M344.2,-83.09C355.08,-81.36 365.97,-79.64 376.3,-78.01"/>
<polygon fill="midnightblue" stroke="midnightblue" points="343.55,-79.65 334.22,-84.67 344.65,-86.56 343.55,-79.65"/>
</g>
</g>
</svg>
