<?xml version="1.0" encoding="UTF-8" standalone="no"?>
<!DOCTYPE svg PUBLIC "-//W3C//DTD SVG 1.1//EN"
 "http://www.w3.org/Graphics/SVG/1.1/DTD/svg11.dtd">
<!-- Generated by graphviz version 2.43.0 (0)
 -->
<!-- Title: Graphical Class Hierarchy Pages: 1 -->
<svg width="313pt" height="88pt"
 viewBox="0.00 0.00 313.00 88.00" xmlns="http://www.w3.org/2000/svg" xmlns:xlink="http://www.w3.org/1999/xlink">
<g id="graph0" class="graph" transform="scale(1 1) rotate(0) translate(4 84)">
<title>Graphical Class Hierarchy</title>
<polygon fill="white" stroke="transparent" points="-4,4 -4,-84 309,-84 309,4 -4,4"/>
<!-- Node0 -->
<g id="node1" class="node">
<title>Node0</title>
<g id="a_node1"><a xlink:href="classcxx_1_1Bits_1_1Basic__list.html" target="_top" xlink:title=" ">
<polygon fill="white" stroke="black" points="0,-13.5 0,-54.5 134,-54.5 134,-13.5 0,-13.5"/>
<text text-anchor="start" x="8" y="-42.5" font-family="Helvetica,sans-Serif" font-size="10.00">cxx::Bits::Basic_list</text>
<text text-anchor="start" x="8" y="-31.5" font-family="Helvetica,sans-Serif" font-size="10.00">&lt; Bits::Basic_list_policy</text>
<text text-anchor="middle" x="67" y="-20.5" font-family="Helvetica,sans-Serif" font-size="10.00">&lt; T, S_list_item &gt; &gt;</text>
</a>
</g>
</g>
<!-- Node1 -->
<g id="node2" class="node">
<title>Node1</title>
<g id="a_node2"><a xlink:href="classcxx_1_1S__list.html" target="_top" xlink:title=" ">
<polygon fill="white" stroke="black" points="181.5,-38.5 181.5,-79.5 293.5,-79.5 293.5,-38.5 181.5,-38.5"/>
<text text-anchor="start" x="189.5" y="-67.5" font-family="Helvetica,sans-Serif" font-size="10.00">cxx::S_list&lt; T, Bits</text>
<text text-anchor="start" x="189.5" y="-56.5" font-family="Helvetica,sans-Serif" font-size="10.00">::Basic_list_policy&lt;</text>
<text text-anchor="middle" x="237.5" y="-45.5" font-family="Helvetica,sans-Serif" font-size="10.00"> T, S_list_item &gt; &gt;</text>
</a>
</g>
</g>
<!-- Node0&#45;&gt;Node1 -->
<g id="edge1" class="edge">
<title>Node0&#45;&gt;Node1</title>
<path fill="none" stroke="midnightblue" d="M144.13,-45.29C156.71,-47.16 169.53,-49.06 181.46,-50.83"/>
<polygon fill="midnightblue" stroke="midnightblue" points="144.52,-41.81 134.11,-43.81 143.49,-48.74 144.52,-41.81"/>
</g>
<!-- Node2 -->
<g id="node3" class="node">
<title>Node2</title>
<g id="a_node3"><a xlink:href="classcxx_1_1S__list.html" target="_top" xlink:title="Simple single&#45;linked list.">
<polygon fill="white" stroke="black" points="170,-0.5 170,-19.5 305,-19.5 305,-0.5 170,-0.5"/>
<text text-anchor="middle" x="237.5" y="-7.5" font-family="Helvetica,sans-Serif" font-size="10.00">cxx::S_list&lt; T, POLICY &gt;</text>
</a>
</g>
</g>
<!-- Node0&#45;&gt;Node2 -->
<g id="edge2" class="edge">
<title>Node0&#45;&gt;Node2</title>
<path fill="none" stroke="midnightblue" d="M144.09,-23.16C152.65,-21.94 161.32,-20.71 169.75,-19.51"/>
<polygon fill="midnightblue" stroke="midnightblue" points="143.52,-19.71 134.11,-24.58 144.51,-26.64 143.52,-19.71"/>
</g>
</g>
</svg>
