<?xml version="1.0" encoding="UTF-8" standalone="no"?>
<!DOCTYPE svg PUBLIC "-//W3C//DTD SVG 1.1//EN"
 "http://www.w3.org/Graphics/SVG/1.1/DTD/svg11.dtd">
<!-- Generated by graphviz version 2.43.0 (0)
 -->
<!-- Title: Graphical Class Hierarchy Pages: 1 -->
<svg width="862pt" height="315pt"
 viewBox="0.00 0.00 862.00 314.73" xmlns="http://www.w3.org/2000/svg" xmlns:xlink="http://www.w3.org/1999/xlink">
<g id="graph0" class="graph" transform="scale(1 1) rotate(0) translate(4 310.73)">
<title>Graphical Class Hierarchy</title>
<polygon fill="white" stroke="transparent" points="-4,4 -4,-310.73 858,-310.73 858,4 -4,4"/>
<!-- Node0 -->
<g id="node1" class="node">
<title>Node0</title>
<g id="a_node1"><a xlink:href="structL4_1_1Ipc__svr_1_1Compound__reply.html" target="_top" xlink:title="Mix in for LOOP_HOOKS to always use compound reply and wait.">
<polygon fill="white" stroke="black" points="164,-127.73 164,-157.73 291,-157.73 291,-127.73 164,-127.73"/>
<text text-anchor="start" x="172" y="-145.73" font-family="Helvetica,sans-Serif" font-size="10.00">L4::Ipc_svr::Compound</text>
<text text-anchor="middle" x="227.5" y="-134.73" font-family="Helvetica,sans-Serif" font-size="10.00">_reply</text>
</a>
</g>
</g>
<!-- Node1 -->
<g id="node2" class="node">
<title>Node1</title>
<g id="a_node2"><a xlink:href="structL4_1_1Ipc__svr_1_1Default__loop__hooks.html" target="_top" xlink:title="Default LOOP_HOOKS.">
<polygon fill="white" stroke="black" points="362,-87.73 362,-117.73 472,-117.73 472,-87.73 362,-87.73"/>
<text text-anchor="start" x="370" y="-105.73" font-family="Helvetica,sans-Serif" font-size="10.00">L4::Ipc_svr::Default</text>
<text text-anchor="middle" x="417" y="-94.73" font-family="Helvetica,sans-Serif" font-size="10.00">_loop_hooks</text>
</a>
</g>
</g>
<!-- Node0&#45;&gt;Node1 -->
<g id="edge1" class="edge">
<title>Node0&#45;&gt;Node1</title>
<path fill="none" stroke="midnightblue" d="M301,-127.26C321.23,-122.95 342.86,-118.33 361.84,-114.28"/>
<polygon fill="midnightblue" stroke="midnightblue" points="300.25,-123.84 291.2,-129.35 301.71,-130.69 300.25,-123.84"/>
</g>
<!-- Node5 -->
<g id="node6" class="node">
<title>Node5</title>
<g id="a_node6"><a xlink:href="structL4Re_1_1Util_1_1Br__manager__hooks.html" target="_top" xlink:title="Predefined server&#45;loop hooks for a server loop using the Br_manager.">
<polygon fill="white" stroke="black" points="352.5,-146.73 352.5,-176.73 481.5,-176.73 481.5,-146.73 352.5,-146.73"/>
<text text-anchor="start" x="360.5" y="-164.73" font-family="Helvetica,sans-Serif" font-size="10.00">L4Re::Util::Br_manager</text>
<text text-anchor="middle" x="417" y="-153.73" font-family="Helvetica,sans-Serif" font-size="10.00">_hooks</text>
</a>
</g>
</g>
<!-- Node0&#45;&gt;Node5 -->
<g id="edge5" class="edge">
<title>Node0&#45;&gt;Node5</title>
<path fill="none" stroke="midnightblue" d="M301.51,-150.13C318.31,-151.83 336.04,-153.63 352.4,-155.28"/>
<polygon fill="midnightblue" stroke="midnightblue" points="301.5,-146.61 291.2,-149.08 300.79,-153.57 301.5,-146.61"/>
</g>
<!-- Node2 -->
<g id="node3" class="node">
<title>Node2</title>
<g id="a_node3"><a xlink:href="classL4_1_1Server.html" target="_top" xlink:title=" ">
<polygon fill="white" stroke="black" points="523,-109.73 523,-139.73 674,-139.73 674,-109.73 523,-109.73"/>
<text text-anchor="start" x="531" y="-127.73" font-family="Helvetica,sans-Serif" font-size="10.00">L4::Server&lt; L4::Ipc</text>
<text text-anchor="middle" x="598.5" y="-116.73" font-family="Helvetica,sans-Serif" font-size="10.00">_svr::Default_loop_hooks &gt;</text>
</a>
</g>
</g>
<!-- Node1&#45;&gt;Node2 -->
<g id="edge2" class="edge">
<title>Node1&#45;&gt;Node2</title>
<path fill="none" stroke="midnightblue" d="M482.61,-110.65C495.65,-112.25 509.46,-113.94 522.81,-115.57"/>
<polygon fill="midnightblue" stroke="midnightblue" points="482.69,-107.13 472.34,-109.39 481.84,-114.08 482.69,-107.13"/>
</g>
<!-- Node4 -->
<g id="node5" class="node">
<title>Node4</title>
<g id="a_node5"><a xlink:href="classL4_1_1Server.html" target="_top" xlink:title="Basic server loop for handling client requests.">
<polygon fill="white" stroke="black" points="521,-71.23 521,-90.23 676,-90.23 676,-71.23 521,-71.23"/>
<text text-anchor="middle" x="598.5" y="-78.23" font-family="Helvetica,sans-Serif" font-size="10.00">L4::Server&lt; LOOP_HOOKS &gt;</text>
</a>
</g>
</g>
<!-- Node1&#45;&gt;Node4 -->
<g id="edge4" class="edge">
<title>Node1&#45;&gt;Node4</title>
<path fill="none" stroke="midnightblue" d="M482.58,-94.81C494.98,-93.29 508.08,-91.69 520.83,-90.13"/>
<polygon fill="midnightblue" stroke="midnightblue" points="481.84,-91.38 472.34,-96.07 482.69,-98.33 481.84,-91.38"/>
</g>
<!-- Node3 -->
<g id="node4" class="node">
<title>Node3</title>
<g id="a_node4"><a xlink:href="classL4Re_1_1Util_1_1Registry__server.html" target="_top" xlink:title="A server loop object which has a Object_registry included.">
<polygon fill="white" stroke="black" points="712,-109.73 712,-139.73 854,-139.73 854,-109.73 712,-109.73"/>
<text text-anchor="start" x="720" y="-127.73" font-family="Helvetica,sans-Serif" font-size="10.00">L4Re::Util::Registry</text>
<text text-anchor="middle" x="783" y="-116.73" font-family="Helvetica,sans-Serif" font-size="10.00">_server&lt; LOOP_HOOKS &gt;</text>
</a>
</g>
</g>
<!-- Node2&#45;&gt;Node3 -->
<g id="edge3" class="edge">
<title>Node2&#45;&gt;Node3</title>
<path fill="none" stroke="midnightblue" d="M684.51,-124.73C693.63,-124.73 702.84,-124.73 711.77,-124.73"/>
<polygon fill="midnightblue" stroke="midnightblue" points="684.26,-121.23 674.26,-124.73 684.26,-128.23 684.26,-121.23"/>
</g>
<!-- Node214 -->
<g id="node7" class="node">
<title>Node214</title>
<g id="a_node7"><a xlink:href="structL4_1_1Ipc__svr_1_1Default__timeout.html" target="_top" xlink:title="Mix in for LOOP_HOOKS to use a 0 send and a infinite receive timeout.">
<polygon fill="white" stroke="black" points="172.5,-78.73 172.5,-108.73 282.5,-108.73 282.5,-78.73 172.5,-78.73"/>
<text text-anchor="start" x="180.5" y="-96.73" font-family="Helvetica,sans-Serif" font-size="10.00">L4::Ipc_svr::Default</text>
<text text-anchor="middle" x="227.5" y="-85.73" font-family="Helvetica,sans-Serif" font-size="10.00">_timeout</text>
</a>
</g>
</g>
<!-- Node214&#45;&gt;Node1 -->
<g id="edge6" class="edge">
<title>Node214&#45;&gt;Node1</title>
<path fill="none" stroke="midnightblue" d="M292.86,-96.82C315.34,-97.9 340.33,-99.1 361.89,-100.13"/>
<polygon fill="midnightblue" stroke="midnightblue" points="292.89,-93.32 282.73,-96.33 292.55,-100.31 292.89,-93.32"/>
</g>
<!-- Node214&#45;&gt;Node5 -->
<g id="edge7" class="edge">
<title>Node214&#45;&gt;Node5</title>
<path fill="none" stroke="midnightblue" d="M292.07,-111.73C299.17,-113.98 306.26,-116.33 313,-118.73 336.55,-127.1 362.52,-137.96 382.49,-146.66"/>
<polygon fill="midnightblue" stroke="midnightblue" points="293.01,-108.36 282.42,-108.74 290.94,-115.04 293.01,-108.36"/>
</g>
<!-- Node218 -->
<g id="node8" class="node">
<title>Node218</title>
<g id="a_node8"><a xlink:href="structL4_1_1Ipc__svr_1_1Ignore__errors.html" target="_top" xlink:title="Mix in for LOOP_HOOKS to ignore IPC errors.">
<polygon fill="white" stroke="black" points="175,-215.73 175,-245.73 280,-245.73 280,-215.73 175,-215.73"/>
<text text-anchor="start" x="183" y="-233.73" font-family="Helvetica,sans-Serif" font-size="10.00">L4::Ipc_svr::Ignore</text>
<text text-anchor="middle" x="227.5" y="-222.73" font-family="Helvetica,sans-Serif" font-size="10.00">_errors</text>
</a>
</g>
</g>
<!-- Node218&#45;&gt;Node1 -->
<g id="edge8" class="edge">
<title>Node218&#45;&gt;Node1</title>
<path fill="none" stroke="midnightblue" d="M289.89,-218.98C298.21,-215.61 306.2,-211.29 313,-205.73 339.47,-184.07 324.75,-161.84 349,-137.73 357.1,-129.68 367.43,-123.06 377.54,-117.82"/>
<polygon fill="midnightblue" stroke="midnightblue" points="288.64,-215.71 280.41,-222.38 291.01,-222.29 288.64,-215.71"/>
</g>
<!-- Node218&#45;&gt;Node5 -->
<g id="edge9" class="edge">
<title>Node218&#45;&gt;Node5</title>
<path fill="none" stroke="midnightblue" d="M290,-213.44C297.79,-210.99 305.61,-208.39 313,-205.73 336.97,-197.1 363.38,-185.78 383.45,-176.78"/>
<polygon fill="midnightblue" stroke="midnightblue" points="288.72,-210.18 280.2,-216.47 290.79,-216.87 288.72,-210.18"/>
</g>
<!-- Node219 -->
<g id="node9" class="node">
<title>Node219</title>
<g id="a_node9"><a xlink:href="structL4Re_1_1Util_1_1Br__manager__timeout__hooks.html" target="_top" xlink:title="Predefined server&#45;loop hooks for a server with using the Br_manager and a timeout queue.">
<polygon fill="white" stroke="black" points="352.5,-242.73 352.5,-272.73 481.5,-272.73 481.5,-242.73 352.5,-242.73"/>
<text text-anchor="start" x="360.5" y="-260.73" font-family="Helvetica,sans-Serif" font-size="10.00">L4Re::Util::Br_manager</text>
<text text-anchor="middle" x="417" y="-249.73" font-family="Helvetica,sans-Serif" font-size="10.00">_timeout_hooks</text>
</a>
</g>
</g>
<!-- Node218&#45;&gt;Node219 -->
<g id="edge10" class="edge">
<title>Node218&#45;&gt;Node219</title>
<path fill="none" stroke="midnightblue" d="M290.14,-239.61C310.12,-242.48 332.3,-245.68 352.41,-248.57"/>
<polygon fill="midnightblue" stroke="midnightblue" points="290.63,-236.14 280.23,-238.18 289.63,-243.07 290.63,-236.14"/>
</g>
<!-- Node220 -->
<g id="node10" class="node">
<title>Node220</title>
<g id="a_node10"><a xlink:href="classL4_1_1Ipc__svr_1_1Server__iface.html" target="_top" xlink:title="Interface for server&#45;loop related functions.">
<polygon fill="white" stroke="black" points="0,-100.73 0,-130.73 106,-130.73 106,-100.73 0,-100.73"/>
<text text-anchor="start" x="8" y="-118.73" font-family="Helvetica,sans-Serif" font-size="10.00">L4::Ipc_svr::Server</text>
<text text-anchor="middle" x="53" y="-107.73" font-family="Helvetica,sans-Serif" font-size="10.00">_iface</text>
</a>
</g>
</g>
<!-- Node221 -->
<g id="node11" class="node">
<title>Node221</title>
<g id="a_node11"><a xlink:href="classL4_1_1Ipc__svr_1_1Timeout__queue__hooks.html" target="_top" xlink:title=" ">
<polygon fill="white" stroke="black" points="142,-265.23 142,-306.23 313,-306.23 313,-265.23 142,-265.23"/>
<text text-anchor="start" x="150" y="-294.23" font-family="Helvetica,sans-Serif" font-size="10.00">L4::Ipc_svr::Timeout</text>
<text text-anchor="start" x="150" y="-283.23" font-family="Helvetica,sans-Serif" font-size="10.00">_queue_hooks&lt; Br_manager</text>
<text text-anchor="middle" x="227.5" y="-272.23" font-family="Helvetica,sans-Serif" font-size="10.00">_timeout_hooks, Br_manager &gt;</text>
</a>
</g>
</g>
<!-- Node220&#45;&gt;Node221 -->
<g id="edge11" class="edge">
<title>Node220&#45;&gt;Node221</title>
<path fill="none" stroke="midnightblue" d="M63.47,-140.41C76.6,-171.51 103.18,-224.63 142,-255.73 146.37,-259.23 151.19,-262.34 156.23,-265.1"/>
<polygon fill="midnightblue" stroke="midnightblue" points="66.71,-139.07 59.68,-131.14 60.23,-141.72 66.71,-139.07"/>
</g>
<!-- Node222 -->
<g id="node12" class="node">
<title>Node222</title>
<g id="a_node12"><a xlink:href="classL4_1_1Ipc__svr_1_1Br__manager__no__buffers.html" target="_top" xlink:title="Empty implementation of Server_iface.">
<polygon fill="white" stroke="black" points="160.5,-29.73 160.5,-59.73 294.5,-59.73 294.5,-29.73 160.5,-29.73"/>
<text text-anchor="start" x="168.5" y="-47.73" font-family="Helvetica,sans-Serif" font-size="10.00">L4::Ipc_svr::Br_manager</text>
<text text-anchor="middle" x="227.5" y="-36.73" font-family="Helvetica,sans-Serif" font-size="10.00">_no_buffers</text>
</a>
</g>
</g>
<!-- Node220&#45;&gt;Node222 -->
<g id="edge13" class="edge">
<title>Node220&#45;&gt;Node222</title>
<path fill="none" stroke="midnightblue" d="M88.51,-95.71C104.45,-86.98 123.83,-77.08 142,-69.73 150.93,-66.11 160.59,-62.76 170.07,-59.77"/>
<polygon fill="midnightblue" stroke="midnightblue" points="86.59,-92.76 79.56,-100.68 90,-98.88 86.59,-92.76"/>
</g>
<!-- Node223 -->
<g id="node13" class="node">
<title>Node223</title>
<g id="a_node13"><a xlink:href="classL4_1_1Ipc__svr_1_1Timeout__queue__hooks.html" target="_top" xlink:title="Loop hooks mixin for integrating a timeout queue into the server loop.">
<polygon fill="white" stroke="black" points="349,-8.23 349,-49.23 485,-49.23 485,-8.23 349,-8.23"/>
<text text-anchor="start" x="357" y="-37.23" font-family="Helvetica,sans-Serif" font-size="10.00">L4::Ipc_svr::Timeout</text>
<text text-anchor="start" x="357" y="-26.23" font-family="Helvetica,sans-Serif" font-size="10.00">_queue_hooks&lt; HOOKS,</text>
<text text-anchor="middle" x="417" y="-15.23" font-family="Helvetica,sans-Serif" font-size="10.00"> BR_MAN &gt;</text>
</a>
</g>
</g>
<!-- Node220&#45;&gt;Node223 -->
<g id="edge16" class="edge">
<title>Node220&#45;&gt;Node223</title>
<path fill="none" stroke="midnightblue" d="M67.69,-91.79C82.57,-68.44 108.75,-34.36 142,-19.73 207.78,9.21 291.29,0.88 348.73,-10.82"/>
<polygon fill="midnightblue" stroke="midnightblue" points="64.62,-90.1 62.37,-100.46 70.58,-93.77 64.62,-90.1"/>
</g>
<!-- Node224 -->
<g id="node14" class="node">
<title>Node224</title>
<g id="a_node14"><a xlink:href="classL4Re_1_1Util_1_1Br__manager.html" target="_top" xlink:title="Buffer&#45;register (BR) manager for L4::Server.">
<polygon fill="white" stroke="black" points="163,-177.23 163,-196.23 292,-196.23 292,-177.23 163,-177.23"/>
<text text-anchor="middle" x="227.5" y="-184.23" font-family="Helvetica,sans-Serif" font-size="10.00">L4Re::Util::Br_manager</text>
</a>
</g>
</g>
<!-- Node220&#45;&gt;Node224 -->
<g id="edge17" class="edge">
<title>Node220&#45;&gt;Node224</title>
<path fill="none" stroke="midnightblue" d="M83.73,-136.47C100.25,-147.16 121.54,-159.62 142,-167.73 151.51,-171.5 161.92,-174.6 172.1,-177.14"/>
<polygon fill="midnightblue" stroke="midnightblue" points="85.36,-133.35 75.09,-130.75 81.5,-139.19 85.36,-133.35"/>
</g>
<!-- Node221&#45;&gt;Node219 -->
<g id="edge12" class="edge">
<title>Node221&#45;&gt;Node219</title>
<path fill="none" stroke="midnightblue" d="M323.13,-271.6C333.07,-270.11 342.99,-268.63 352.46,-267.22"/>
<polygon fill="midnightblue" stroke="midnightblue" points="322.57,-268.14 313.2,-273.08 323.61,-275.07 322.57,-268.14"/>
</g>
<!-- Node222&#45;&gt;Node1 -->
<g id="edge14" class="edge">
<title>Node222&#45;&gt;Node1</title>
<path fill="none" stroke="midnightblue" d="M289.78,-62.68C297.6,-65.03 305.5,-67.42 313,-69.73 331.66,-75.48 352.16,-82 369.92,-87.72"/>
<polygon fill="midnightblue" stroke="midnightblue" points="290.53,-59.25 279.94,-59.75 288.53,-65.96 290.53,-59.25"/>
</g>
<!-- Node222&#45;&gt;Node223 -->
<g id="edge15" class="edge">
<title>Node222&#45;&gt;Node223</title>
<path fill="none" stroke="midnightblue" d="M304.64,-38.23C319.3,-36.98 334.56,-35.68 348.91,-34.45"/>
<polygon fill="midnightblue" stroke="midnightblue" points="304.27,-34.75 294.61,-39.09 304.87,-41.72 304.27,-34.75"/>
</g>
<!-- Node224&#45;&gt;Node5 -->
<g id="edge18" class="edge">
<title>Node224&#45;&gt;Node5</title>
<path fill="none" stroke="midnightblue" d="M302.41,-176.87C318.95,-174.67 336.36,-172.35 352.44,-170.2"/>
<polygon fill="midnightblue" stroke="midnightblue" points="301.69,-173.44 292.24,-178.23 302.62,-180.38 301.69,-173.44"/>
</g>
</g>
</svg>
