<?xml version="1.0" encoding="UTF-8" standalone="no"?>
<!DOCTYPE svg PUBLIC "-//W3C//DTD SVG 1.1//EN"
 "http://www.w3.org/Graphics/SVG/1.1/DTD/svg11.dtd">
<!-- Generated by graphviz version 2.43.0 (0)
 -->
<!-- Title: Graphical Class Hierarchy Pages: 1 -->
<svg width="312pt" height="230pt"
 viewBox="0.00 0.00 312.00 230.00" xmlns="http://www.w3.org/2000/svg" xmlns:xlink="http://www.w3.org/1999/xlink">
<g id="graph0" class="graph" transform="scale(1 1) rotate(0) translate(4 226)">
<title>Graphical Class Hierarchy</title>
<polygon fill="white" stroke="transparent" points="-4,4 -4,-226 308,-226 308,4 -4,4"/>
<!-- Node0 -->
<g id="node1" class="node">
<title>Node0</title>
<g id="a_node1"><a xlink:href="classcxx_1_1Bits_1_1Bst.html" target="_top" xlink:title="Basic binary search tree (BST).">
<polygon fill="white" stroke="black" points="0,-95.5 0,-125.5 121,-125.5 121,-95.5 0,-95.5"/>
<text text-anchor="start" x="8" y="-113.5" font-family="Helvetica,sans-Serif" font-size="10.00">cxx::Bits::Bst&lt; Node,</text>
<text text-anchor="middle" x="60.5" y="-102.5" font-family="Helvetica,sans-Serif" font-size="10.00"> Get_key, Compare &gt;</text>
</a>
</g>
</g>
<!-- Node1 -->
<g id="node2" class="node">
<title>Node1</title>
<g id="a_node2"><a xlink:href="classcxx_1_1Avl__tree.html" target="_top" xlink:title=" ">
<polygon fill="white" stroke="black" points="157,-169.5 157,-221.5 304,-221.5 304,-169.5 157,-169.5"/>
<text text-anchor="start" x="165" y="-209.5" font-family="Helvetica,sans-Serif" font-size="10.00">cxx::Avl_tree&lt; _Node,</text>
<text text-anchor="start" x="165" y="-198.5" font-family="Helvetica,sans-Serif" font-size="10.00"> Bits::Avl_set_get_key</text>
<text text-anchor="start" x="165" y="-187.5" font-family="Helvetica,sans-Serif" font-size="10.00">&lt; ITEM_TYPE &gt;, Lt_functor</text>
<text text-anchor="middle" x="230.5" y="-176.5" font-family="Helvetica,sans-Serif" font-size="10.00">&lt; ITEM_TYPE &gt; &gt;</text>
</a>
</g>
</g>
<!-- Node0&#45;&gt;Node1 -->
<g id="edge1" class="edge">
<title>Node0&#45;&gt;Node1</title>
<path fill="none" stroke="midnightblue" d="M98.63,-130.3C116.25,-139.6 137.64,-150.76 157,-160.5 162.74,-163.39 168.76,-166.37 174.78,-169.32"/>
<polygon fill="midnightblue" stroke="midnightblue" points="100.27,-127.2 89.79,-125.62 96.99,-133.39 100.27,-127.2"/>
</g>
<!-- Node2 -->
<g id="node3" class="node">
<title>Node2</title>
<g id="a_node3"><a xlink:href="classcxx_1_1Avl__tree.html" target="_top" xlink:title=" ">
<polygon fill="white" stroke="black" points="171,-120.5 171,-150.5 290,-150.5 290,-120.5 171,-120.5"/>
<text text-anchor="start" x="179" y="-138.5" font-family="Helvetica,sans-Serif" font-size="10.00">cxx::Avl_tree&lt; Entry,</text>
<text text-anchor="middle" x="230.5" y="-127.5" font-family="Helvetica,sans-Serif" font-size="10.00"> Names_get_key &gt;</text>
</a>
</g>
</g>
<!-- Node0&#45;&gt;Node2 -->
<g id="edge2" class="edge">
<title>Node0&#45;&gt;Node2</title>
<path fill="none" stroke="midnightblue" d="M131.17,-120.87C144.36,-122.83 158.03,-124.86 170.84,-126.77"/>
<polygon fill="midnightblue" stroke="midnightblue" points="131.61,-117.39 121.2,-119.38 130.58,-124.32 131.61,-117.39"/>
</g>
<!-- Node3 -->
<g id="node4" class="node">
<title>Node3</title>
<g id="a_node4"><a xlink:href="classcxx_1_1Avl__tree.html" target="_top" xlink:title=" ">
<polygon fill="white" stroke="black" points="166.5,-71.5 166.5,-101.5 294.5,-101.5 294.5,-71.5 166.5,-71.5"/>
<text text-anchor="start" x="174.5" y="-89.5" font-family="Helvetica,sans-Serif" font-size="10.00">cxx::Avl_tree&lt; _Node,</text>
<text text-anchor="middle" x="230.5" y="-78.5" font-family="Helvetica,sans-Serif" font-size="10.00"> GET_KEY, COMPARE &gt;</text>
</a>
</g>
</g>
<!-- Node0&#45;&gt;Node3 -->
<g id="edge3" class="edge">
<title>Node0&#45;&gt;Node3</title>
<path fill="none" stroke="midnightblue" d="M131.28,-100.53C142.89,-98.87 154.86,-97.16 166.29,-95.53"/>
<polygon fill="midnightblue" stroke="midnightblue" points="130.61,-97.09 121.2,-101.97 131.6,-104.02 130.61,-97.09"/>
</g>
<!-- Node4 -->
<g id="node5" class="node">
<title>Node4</title>
<g id="a_node5"><a xlink:href="classcxx_1_1Avl__tree.html" target="_top" xlink:title=" ">
<polygon fill="white" stroke="black" points="159.5,-0.5 159.5,-52.5 301.5,-52.5 301.5,-0.5 159.5,-0.5"/>
<text text-anchor="start" x="167.5" y="-40.5" font-family="Helvetica,sans-Serif" font-size="10.00">cxx::Avl_tree&lt; _Node,</text>
<text text-anchor="start" x="167.5" y="-29.5" font-family="Helvetica,sans-Serif" font-size="10.00"> Bits::Avl_map_get_key</text>
<text text-anchor="start" x="167.5" y="-18.5" font-family="Helvetica,sans-Serif" font-size="10.00">&lt; KEY_TYPE &gt;, Lt_functor</text>
<text text-anchor="middle" x="230.5" y="-7.5" font-family="Helvetica,sans-Serif" font-size="10.00">&lt; KEY_TYPE &gt; &gt;</text>
</a>
</g>
</g>
<!-- Node0&#45;&gt;Node4 -->
<g id="edge4" class="edge">
<title>Node0&#45;&gt;Node4</title>
<path fill="none" stroke="midnightblue" d="M100.8,-90.69C118.03,-82.02 138.51,-71.74 157,-62.5 163.41,-59.3 170.15,-55.94 176.82,-52.62"/>
<polygon fill="midnightblue" stroke="midnightblue" points="98.95,-87.71 91.59,-95.33 102.1,-93.96 98.95,-87.71"/>
</g>
</g>
</svg>
