<?xml version="1.0" encoding="UTF-8" standalone="no"?>
<!DOCTYPE svg PUBLIC "-//W3C//DTD SVG 1.1//EN"
 "http://www.w3.org/Graphics/SVG/1.1/DTD/svg11.dtd">
<!-- Generated by graphviz version 2.43.0 (0)
 -->
<!-- Title: contrib/libio&#45;io/l4/io/io.h Pages: 1 -->
<svg width="458pt" height="375pt"
 viewBox="0.00 0.00 458.00 375.00" xmlns="http://www.w3.org/2000/svg" xmlns:xlink="http://www.w3.org/1999/xlink">
<g id="graph0" class="graph" transform="scale(1 1) rotate(0) translate(4 371)">
<title>contrib/libio&#45;io/l4/io/io.h</title>
<polygon fill="white" stroke="transparent" points="-4,4 -4,-371 454,-371 454,4 -4,4"/>
<!-- Node1 -->
<g id="node1" class="node">
<title>Node1</title>
<g id="a_node1"><a xlink:title=" ">
<polygon fill="#bfbfbf" stroke="black" points="276.5,-336.5 276.5,-366.5 375.5,-366.5 375.5,-336.5 276.5,-336.5"/>
<text text-anchor="start" x="284.5" y="-354.5" font-family="Helvetica,sans-Serif" font-size="10.00">contrib/libio&#45;io/l4</text>
<text text-anchor="middle" x="326" y="-343.5" font-family="Helvetica,sans-Serif" font-size="10.00">/io/io.h</text>
</a>
</g>
</g>
<!-- Node2 -->
<g id="node2" class="node">
<title>Node2</title>
<g id="a_node2"><a xlink:href="l4_2sys_2types_8h.html" target="_top" xlink:title="Common L4 ABI Data Types.">
<polygon fill="white" stroke="black" points="196,-168.5 196,-187.5 280,-187.5 280,-168.5 196,-168.5"/>
<text text-anchor="middle" x="238" y="-175.5" font-family="Helvetica,sans-Serif" font-size="10.00">l4/sys/types.h</text>
</a>
</g>
</g>
<!-- Node1&#45;&gt;Node2 -->
<g id="edge1" class="edge">
<title>Node1&#45;&gt;Node2</title>
<path fill="none" stroke="midnightblue" d="M309.98,-336.28C300.03,-326.78 287.55,-313.58 279,-300 258.2,-266.96 246.62,-222.14 241.41,-197.37"/>
<polygon fill="midnightblue" stroke="midnightblue" points="244.84,-196.64 239.46,-187.51 237.97,-198 244.84,-196.64"/>
</g>
<!-- Node5 -->
<g id="node5" class="node">
<title>Node5</title>
<g id="a_node5"><a xlink:title=" ">
<polygon fill="white" stroke="#bfbfbf" points="358,-0.5 358,-19.5 450,-19.5 450,-0.5 358,-0.5"/>
<text text-anchor="middle" x="404" y="-7.5" font-family="Helvetica,sans-Serif" font-size="10.00">l4/sys/linkage.h</text>
</a>
</g>
</g>
<!-- Node1&#45;&gt;Node5 -->
<g id="edge12" class="edge">
<title>Node1&#45;&gt;Node5</title>
<path fill="none" stroke="midnightblue" d="M358.16,-336.48C393.7,-318.55 446,-283.87 446,-235 446,-235 446,-235 446,-121 446,-86.41 427.65,-49.49 415.21,-28.43"/>
<polygon fill="midnightblue" stroke="midnightblue" points="418.06,-26.38 409.84,-19.69 412.09,-30.04 418.06,-26.38"/>
</g>
<!-- Node9 -->
<g id="node9" class="node">
<title>Node9</title>
<g id="a_node9"><a xlink:href="contrib_2libio-io_2l4_2io_2types_8h_source.html" target="_top" xlink:title=" ">
<polygon fill="white" stroke="black" points="287.5,-280.5 287.5,-299.5 364.5,-299.5 364.5,-280.5 287.5,-280.5"/>
<text text-anchor="middle" x="326" y="-287.5" font-family="Helvetica,sans-Serif" font-size="10.00">l4/io/types.h</text>
</a>
</g>
</g>
<!-- Node1&#45;&gt;Node9 -->
<g id="edge13" class="edge">
<title>Node1&#45;&gt;Node9</title>
<path fill="none" stroke="midnightblue" d="M326,-336.4C326,-328.47 326,-318.46 326,-309.86"/>
<polygon fill="midnightblue" stroke="midnightblue" points="329.5,-309.66 326,-299.66 322.5,-309.66 329.5,-309.66"/>
</g>
<!-- Node3 -->
<g id="node3" class="node">
<title>Node3</title>
<g id="a_node3"><a xlink:href="l4_2sys_2l4int_8h.html" target="_top" xlink:title="Fixed sized integer types, generic version.">
<polygon fill="white" stroke="black" points="94.5,-56.5 94.5,-75.5 173.5,-75.5 173.5,-56.5 94.5,-56.5"/>
<text text-anchor="middle" x="134" y="-63.5" font-family="Helvetica,sans-Serif" font-size="10.00">l4/sys/l4int.h</text>
</a>
</g>
</g>
<!-- Node2&#45;&gt;Node3 -->
<g id="edge2" class="edge">
<title>Node2&#45;&gt;Node3</title>
<path fill="none" stroke="midnightblue" d="M209.35,-168.36C190.78,-161.37 167.46,-149.73 153,-132 142.21,-118.77 137.55,-99.64 135.53,-85.56"/>
<polygon fill="midnightblue" stroke="midnightblue" points="139.01,-85.11 134.42,-75.55 132.05,-85.88 139.01,-85.11"/>
</g>
<!-- Node4 -->
<g id="node4" class="node">
<title>Node4</title>
<g id="a_node4"><a xlink:href="compiler_8h.html" target="_top" xlink:title="L4 compiler related defines.">
<polygon fill="white" stroke="black" points="271.5,-56.5 271.5,-75.5 370.5,-75.5 370.5,-56.5 271.5,-56.5"/>
<text text-anchor="middle" x="321" y="-63.5" font-family="Helvetica,sans-Serif" font-size="10.00">l4/sys/compiler.h</text>
</a>
</g>
</g>
<!-- Node2&#45;&gt;Node4 -->
<g id="edge3" class="edge">
<title>Node2&#45;&gt;Node4</title>
<path fill="none" stroke="midnightblue" d="M244.51,-168.37C258.27,-150.14 290.5,-107.43 308.42,-83.68"/>
<polygon fill="midnightblue" stroke="midnightblue" points="311.29,-85.68 314.52,-75.59 305.7,-81.47 311.29,-85.68"/>
</g>
<!-- Node6 -->
<g id="node6" class="node">
<title>Node6</title>
<g id="a_node6"><a xlink:href="l4_2sys_2consts_8h.html" target="_top" xlink:title="Common constants.">
<polygon fill="white" stroke="black" points="162.5,-112.5 162.5,-131.5 251.5,-131.5 251.5,-112.5 162.5,-112.5"/>
<text text-anchor="middle" x="207" y="-119.5" font-family="Helvetica,sans-Serif" font-size="10.00">l4/sys/consts.h</text>
</a>
</g>
</g>
<!-- Node2&#45;&gt;Node6 -->
<g id="edge5" class="edge">
<title>Node2&#45;&gt;Node6</title>
<path fill="none" stroke="midnightblue" d="M232.88,-168.08C228.59,-160.61 222.34,-149.72 217.06,-140.52"/>
<polygon fill="midnightblue" stroke="midnightblue" points="220.04,-138.68 212.02,-131.75 213.97,-142.17 220.04,-138.68"/>
</g>
<!-- Node7 -->
<g id="node7" class="node">
<title>Node7</title>
<g id="a_node7"><a xlink:href="____l4__fpage_8h_source.html" target="_top" xlink:title=" ">
<polygon fill="white" stroke="black" points="308,-112.5 308,-131.5 418,-131.5 418,-112.5 308,-112.5"/>
<text text-anchor="middle" x="363" y="-119.5" font-family="Helvetica,sans-Serif" font-size="10.00">l4/sys/__l4_fpage.h</text>
</a>
</g>
</g>
<!-- Node2&#45;&gt;Node7 -->
<g id="edge8" class="edge">
<title>Node2&#45;&gt;Node7</title>
<path fill="none" stroke="midnightblue" d="M257.81,-168.44C278.29,-159.6 310.48,-145.69 333.86,-135.59"/>
<polygon fill="midnightblue" stroke="midnightblue" points="335.49,-138.7 343.29,-131.52 332.72,-132.27 335.49,-138.7"/>
</g>
<!-- Node8 -->
<g id="node8" class="node">
<title>Node8</title>
<g id="a_node8"><a xlink:href="____timeout_8h_source.html" target="_top" xlink:title=" ">
<polygon fill="white" stroke="black" points="0,-112.5 0,-131.5 106,-131.5 106,-112.5 0,-112.5"/>
<text text-anchor="middle" x="53" y="-119.5" font-family="Helvetica,sans-Serif" font-size="10.00">l4/sys/__timeout.h</text>
</a>
</g>
</g>
<!-- Node2&#45;&gt;Node8 -->
<g id="edge10" class="edge">
<title>Node2&#45;&gt;Node8</title>
<path fill="none" stroke="midnightblue" d="M208.69,-168.44C177.16,-159.24 126.87,-144.56 92.01,-134.39"/>
<polygon fill="midnightblue" stroke="midnightblue" points="92.76,-130.96 82.18,-131.52 90.8,-137.68 92.76,-130.96"/>
</g>
<!-- Node4&#45;&gt;Node5 -->
<g id="edge4" class="edge">
<title>Node4&#45;&gt;Node5</title>
<path fill="none" stroke="midnightblue" d="M334.34,-56.32C347.16,-47.98 366.78,-35.21 381.94,-25.35"/>
<polygon fill="midnightblue" stroke="midnightblue" points="384.22,-28.04 390.7,-19.65 380.41,-22.17 384.22,-28.04"/>
</g>
<!-- Node6&#45;&gt;Node3 -->
<g id="edge7" class="edge">
<title>Node6&#45;&gt;Node3</title>
<path fill="none" stroke="midnightblue" d="M195.27,-112.32C184.16,-104.11 167.26,-91.6 154.02,-81.81"/>
<polygon fill="midnightblue" stroke="midnightblue" points="156.06,-78.97 145.94,-75.83 151.9,-84.59 156.06,-78.97"/>
</g>
<!-- Node6&#45;&gt;Node4 -->
<g id="edge6" class="edge">
<title>Node6&#45;&gt;Node4</title>
<path fill="none" stroke="midnightblue" d="M225.06,-112.44C243.57,-103.68 272.58,-89.94 293.86,-79.86"/>
<polygon fill="midnightblue" stroke="midnightblue" points="295.48,-82.96 303.02,-75.52 292.49,-76.63 295.48,-82.96"/>
</g>
<!-- Node7&#45;&gt;Node4 -->
<g id="edge9" class="edge">
<title>Node7&#45;&gt;Node4</title>
<path fill="none" stroke="midnightblue" d="M356.06,-112.08C350.07,-104.38 341.25,-93.03 333.95,-83.65"/>
<polygon fill="midnightblue" stroke="midnightblue" points="336.71,-81.5 327.81,-75.75 331.18,-85.79 336.71,-81.5"/>
</g>
<!-- Node8&#45;&gt;Node3 -->
<g id="edge11" class="edge">
<title>Node8&#45;&gt;Node3</title>
<path fill="none" stroke="midnightblue" d="M66.01,-112.32C78.53,-103.98 97.68,-91.21 112.47,-81.35"/>
<polygon fill="midnightblue" stroke="midnightblue" points="114.64,-84.11 121.02,-75.65 110.76,-78.29 114.64,-84.11"/>
</g>
<!-- Node10 -->
<g id="node10" class="node">
<title>Node10</title>
<g id="a_node10"><a xlink:href="vbus__types_8h.html" target="_top" xlink:title="This header file contains descriptions of vbus related data types and constants.">
<polygon fill="white" stroke="black" points="266.5,-224.5 266.5,-243.5 385.5,-243.5 385.5,-224.5 266.5,-224.5"/>
<text text-anchor="middle" x="326" y="-231.5" font-family="Helvetica,sans-Serif" font-size="10.00">l4/vbus/vbus_types.h</text>
</a>
</g>
</g>
<!-- Node9&#45;&gt;Node10 -->
<g id="edge14" class="edge">
<title>Node9&#45;&gt;Node10</title>
<path fill="none" stroke="midnightblue" d="M326,-280.08C326,-273.01 326,-262.86 326,-253.99"/>
<polygon fill="midnightblue" stroke="midnightblue" points="329.5,-253.75 326,-243.75 322.5,-253.75 329.5,-253.75"/>
</g>
<!-- Node10&#45;&gt;Node2 -->
<g id="edge15" class="edge">
<title>Node10&#45;&gt;Node2</title>
<path fill="none" stroke="midnightblue" d="M311.86,-224.32C298.13,-215.9 277.06,-202.97 260.94,-193.07"/>
<polygon fill="midnightblue" stroke="midnightblue" points="262.46,-189.9 252.1,-187.65 258.8,-195.87 262.46,-189.9"/>
</g>
</g>
</svg>
