<?xml version="1.0" encoding="UTF-8" standalone="no"?>
<!DOCTYPE svg PUBLIC "-//W3C//DTD SVG 1.1//EN"
 "http://www.w3.org/Graphics/SVG/1.1/DTD/svg11.dtd">
<!-- Generated by graphviz version 2.43.0 (0)
 -->
<!-- Title: l4/sys/ipc_gate Pages: 1 -->
<svg width="988pt" height="823pt"
 viewBox="0.00 0.00 988.35 823.00" xmlns="http://www.w3.org/2000/svg" xmlns:xlink="http://www.w3.org/1999/xlink">
<g id="graph0" class="graph" transform="scale(1 1) rotate(0) translate(4 819)">
<title>l4/sys/ipc_gate</title>
<polygon fill="white" stroke="transparent" points="-4,4 -4,-819 984.35,-819 984.35,4 -4,4"/>
<!-- Node1 -->
<g id="node1" class="node">
<title>Node1</title>
<g id="a_node1"><a xlink:title="The C++ IPC gate interface.">
<polygon fill="#bfbfbf" stroke="black" points="428.5,-795.5 428.5,-814.5 517.5,-814.5 517.5,-795.5 428.5,-795.5"/>
<text text-anchor="middle" x="473" y="-802.5" font-family="Helvetica,sans-Serif" font-size="10.00">l4/sys/ipc_gate</text>
</a>
</g>
</g>
<!-- Node2 -->
<g id="node2" class="node">
<title>Node2</title>
<g id="a_node2"><a xlink:href="ipc__gate_8h.html" target="_top" xlink:title="The C IPC gate interface.">
<polygon fill="white" stroke="black" points="104,-403.5 104,-422.5 202,-422.5 202,-403.5 104,-403.5"/>
<text text-anchor="middle" x="153" y="-410.5" font-family="Helvetica,sans-Serif" font-size="10.00">l4/sys/ipc_gate.h</text>
</a>
</g>
</g>
<!-- Node1&#45;&gt;Node2 -->
<g id="edge1" class="edge">
<title>Node1&#45;&gt;Node2</title>
<path fill="none" stroke="midnightblue" d="M428.23,-801.08C324.41,-793.09 76,-766.41 76,-694 76,-694 76,-694 76,-524 76,-483.93 110.71,-448.08 133.53,-428.84"/>
<polygon fill="midnightblue" stroke="midnightblue" points="135.74,-431.55 141.31,-422.53 131.33,-426.11 135.74,-431.55"/>
</g>
<!-- Node14 -->
<g id="node14" class="node">
<title>Node14</title>
<g id="a_node14"><a xlink:href="capability.html" target="_top" xlink:title="L4::Cap related definitions.">
<polygon fill="white" stroke="black" points="337,-683.5 337,-702.5 433,-702.5 433,-683.5 337,-683.5"/>
<text text-anchor="middle" x="385" y="-690.5" font-family="Helvetica,sans-Serif" font-size="10.00">l4/sys/capability</text>
</a>
</g>
</g>
<!-- Node1&#45;&gt;Node14 -->
<g id="edge26" class="edge">
<title>Node1&#45;&gt;Node14</title>
<path fill="none" stroke="midnightblue" d="M466.09,-795.37C451.51,-777.14 417.34,-734.43 398.34,-710.68"/>
<polygon fill="midnightblue" stroke="midnightblue" points="400.85,-708.21 391.87,-702.59 395.39,-712.59 400.85,-708.21"/>
</g>
<!-- Node24 -->
<g id="node24" class="node">
<title>Node24</title>
<g id="a_node24"><a xlink:href="ipc__iface.html" target="_top" xlink:title="Interface Definition Language.">
<polygon fill="white" stroke="black" points="752,-571.5 752,-590.5 832,-590.5 832,-571.5 752,-571.5"/>
<text text-anchor="middle" x="792" y="-578.5" font-family="Helvetica,sans-Serif" font-size="10.00">cxx/ipc_iface</text>
</a>
</g>
</g>
<!-- Node1&#45;&gt;Node24 -->
<g id="edge73" class="edge">
<title>Node1&#45;&gt;Node24</title>
<path fill="none" stroke="midnightblue" d="M499.09,-795.44C521.41,-787.57 553.96,-774.74 580,-759 660.92,-710.1 742.97,-631.52 776.39,-597.99"/>
<polygon fill="midnightblue" stroke="midnightblue" points="778.92,-600.41 783.46,-590.83 773.94,-595.48 778.92,-600.41"/>
</g>
<!-- Node28 -->
<g id="node28" class="node">
<title>Node28</title>
<g id="a_node28"><a xlink:href="rcv__endpoint.html" target="_top" xlink:title="The C++ Receive endpoint interface.">
<polygon fill="white" stroke="black" points="459.5,-739.5 459.5,-758.5 570.5,-758.5 570.5,-739.5 459.5,-739.5"/>
<text text-anchor="middle" x="515" y="-746.5" font-family="Helvetica,sans-Serif" font-size="10.00">l4/sys/rcv_endpoint</text>
</a>
</g>
</g>
<!-- Node1&#45;&gt;Node28 -->
<g id="edge68" class="edge">
<title>Node1&#45;&gt;Node28</title>
<path fill="none" stroke="midnightblue" d="M479.94,-795.08C485.93,-787.38 494.75,-776.03 502.05,-766.65"/>
<polygon fill="midnightblue" stroke="midnightblue" points="504.82,-768.79 508.19,-758.75 499.29,-764.5 504.82,-768.79"/>
</g>
<!-- Node3 -->
<g id="node3" class="node">
<title>Node3</title>
<g id="a_node3"><a xlink:href="l4_2sys_2utcb_8h.html" target="_top" xlink:title="UTCB definitions.">
<polygon fill="white" stroke="black" points="329,-224.5 329,-243.5 407,-243.5 407,-224.5 329,-224.5"/>
<text text-anchor="middle" x="368" y="-231.5" font-family="Helvetica,sans-Serif" font-size="10.00">l4/sys/utcb.h</text>
</a>
</g>
</g>
<!-- Node2&#45;&gt;Node3 -->
<g id="edge2" class="edge">
<title>Node2&#45;&gt;Node3</title>
<path fill="none" stroke="midnightblue" d="M157.99,-403.21C166.83,-388.16 186.47,-357.02 209,-336 249.91,-297.82 307.17,-265.56 340.64,-248.36"/>
<polygon fill="midnightblue" stroke="midnightblue" points="342.48,-251.35 349.82,-243.71 339.32,-245.11 342.48,-251.35"/>
</g>
<!-- Node4 -->
<g id="node4" class="node">
<title>Node4</title>
<g id="a_node4"><a xlink:href="l4_2sys_2types_8h.html" target="_top" xlink:title="Common L4 ABI Data Types.">
<polygon fill="white" stroke="black" points="256,-168.5 256,-187.5 340,-187.5 340,-168.5 256,-168.5"/>
<text text-anchor="middle" x="298" y="-175.5" font-family="Helvetica,sans-Serif" font-size="10.00">l4/sys/types.h</text>
</a>
</g>
</g>
<!-- Node2&#45;&gt;Node4 -->
<g id="edge16" class="edge">
<title>Node2&#45;&gt;Node4</title>
<path fill="none" stroke="midnightblue" d="M154.23,-403.32C158.76,-374.24 177.07,-279.07 229,-224 241.04,-211.23 257.38,-200.37 271.15,-192.51"/>
<polygon fill="midnightblue" stroke="midnightblue" points="273.08,-195.44 280.18,-187.57 269.72,-189.3 273.08,-195.44"/>
</g>
<!-- Node11 -->
<g id="node11" class="node">
<title>Node11</title>
<g id="a_node11"><a xlink:href="rcv__endpoint_8h.html" target="_top" xlink:title="Receive endpoint C interface.">
<polygon fill="white" stroke="black" points="218,-342 218,-361 338,-361 338,-342 218,-342"/>
<text text-anchor="middle" x="278" y="-349" font-family="Helvetica,sans-Serif" font-size="10.00">l4/sys/rcv_endpoint.h</text>
</a>
</g>
</g>
<!-- Node2&#45;&gt;Node11 -->
<g id="edge17" class="edge">
<title>Node2&#45;&gt;Node11</title>
<path fill="none" stroke="midnightblue" d="M170.91,-403.48C191.89,-393.49 226.85,-376.85 251.09,-365.31"/>
<polygon fill="midnightblue" stroke="midnightblue" points="252.6,-368.47 260.12,-361.01 249.59,-362.15 252.6,-368.47"/>
</g>
<!-- Node12 -->
<g id="node12" class="node">
<title>Node12</title>
<g id="a_node12"><a xlink:href="l4_2sys_2ipc_8h.html" target="_top" xlink:title="Common IPC interface.">
<polygon fill="white" stroke="black" points="400.5,-280.5 400.5,-299.5 471.5,-299.5 471.5,-280.5 400.5,-280.5"/>
<text text-anchor="middle" x="436" y="-287.5" font-family="Helvetica,sans-Serif" font-size="10.00">l4/sys/ipc.h</text>
</a>
</g>
</g>
<!-- Node2&#45;&gt;Node12 -->
<g id="edge25" class="edge">
<title>Node2&#45;&gt;Node12</title>
<path fill="none" stroke="midnightblue" d="M202.24,-407.15C242.83,-401.65 301.01,-390.21 347,-367 376.93,-351.9 405.25,-324.69 421.6,-307.26"/>
<polygon fill="midnightblue" stroke="midnightblue" points="424.46,-309.32 428.62,-299.58 419.29,-304.6 424.46,-309.32"/>
</g>
<!-- Node3&#45;&gt;Node4 -->
<g id="edge3" class="edge">
<title>Node3&#45;&gt;Node4</title>
<path fill="none" stroke="midnightblue" d="M356.75,-224.32C346.2,-216.18 330.2,-203.84 317.56,-194.09"/>
<polygon fill="midnightblue" stroke="midnightblue" points="319.51,-191.17 309.45,-187.83 315.23,-196.71 319.51,-191.17"/>
</g>
<!-- Node5 -->
<g id="node5" class="node">
<title>Node5</title>
<g id="a_node5"><a xlink:href="l4_2sys_2l4int_8h.html" target="_top" xlink:title="Fixed sized integer types, generic version.">
<polygon fill="white" stroke="black" points="288.5,-56.5 288.5,-75.5 367.5,-75.5 367.5,-56.5 288.5,-56.5"/>
<text text-anchor="middle" x="328" y="-63.5" font-family="Helvetica,sans-Serif" font-size="10.00">l4/sys/l4int.h</text>
</a>
</g>
</g>
<!-- Node3&#45;&gt;Node5 -->
<g id="edge15" class="edge">
<title>Node3&#45;&gt;Node5</title>
<path fill="none" stroke="midnightblue" d="M367.47,-224.31C366.07,-204.16 361.48,-152.88 349,-112 346.14,-102.62 341.67,-92.69 337.59,-84.55"/>
<polygon fill="midnightblue" stroke="midnightblue" points="340.68,-82.91 332.95,-75.67 334.48,-86.16 340.68,-82.91"/>
</g>
<!-- Node6 -->
<g id="node6" class="node">
<title>Node6</title>
<g id="a_node6"><a xlink:href="compiler_8h.html" target="_top" xlink:title="L4 compiler related defines.">
<polygon fill="white" stroke="black" points="611.5,-56.5 611.5,-75.5 710.5,-75.5 710.5,-56.5 611.5,-56.5"/>
<text text-anchor="middle" x="661" y="-63.5" font-family="Helvetica,sans-Serif" font-size="10.00">l4/sys/compiler.h</text>
</a>
</g>
</g>
<!-- Node3&#45;&gt;Node6 -->
<g id="edge14" class="edge">
<title>Node3&#45;&gt;Node6</title>
<path fill="none" stroke="midnightblue" d="M407.23,-230.26C467.79,-223.86 583.55,-202.56 646,-132 657.14,-119.41 660.47,-100.19 661.27,-85.92"/>
<polygon fill="midnightblue" stroke="midnightblue" points="664.77,-85.81 661.46,-75.75 657.77,-85.68 664.77,-85.81"/>
</g>
<!-- Node4&#45;&gt;Node5 -->
<g id="edge4" class="edge">
<title>Node4&#45;&gt;Node5</title>
<path fill="none" stroke="midnightblue" d="M274.42,-168.49C247.47,-157.37 209.02,-136.42 225,-112 237.03,-93.62 258.4,-82.7 278.56,-76.24"/>
<polygon fill="midnightblue" stroke="midnightblue" points="279.69,-79.55 288.32,-73.41 277.74,-72.83 279.69,-79.55"/>
</g>
<!-- Node4&#45;&gt;Node6 -->
<g id="edge5" class="edge">
<title>Node4&#45;&gt;Node6</title>
<path fill="none" stroke="midnightblue" d="M340.26,-175.67C417.46,-172.52 577.55,-162.41 623,-132 639.26,-121.12 649.5,-100.74 655.19,-85.69"/>
<polygon fill="midnightblue" stroke="midnightblue" points="658.62,-86.48 658.56,-75.89 652,-84.21 658.62,-86.48"/>
</g>
<!-- Node8 -->
<g id="node8" class="node">
<title>Node8</title>
<g id="a_node8"><a xlink:href="l4_2sys_2consts_8h.html" target="_top" xlink:title="Common constants.">
<polygon fill="white" stroke="black" points="396.5,-112.5 396.5,-131.5 485.5,-131.5 485.5,-112.5 396.5,-112.5"/>
<text text-anchor="middle" x="441" y="-119.5" font-family="Helvetica,sans-Serif" font-size="10.00">l4/sys/consts.h</text>
</a>
</g>
</g>
<!-- Node4&#45;&gt;Node8 -->
<g id="edge7" class="edge">
<title>Node4&#45;&gt;Node8</title>
<path fill="none" stroke="midnightblue" d="M320.66,-168.44C344.4,-159.48 381.91,-145.31 408.74,-135.18"/>
<polygon fill="midnightblue" stroke="midnightblue" points="410.33,-138.32 418.45,-131.52 407.86,-131.77 410.33,-138.32"/>
</g>
<!-- Node9 -->
<g id="node9" class="node">
<title>Node9</title>
<g id="a_node9"><a xlink:href="____l4__fpage_8h_source.html" target="_top" xlink:title=" ">
<polygon fill="white" stroke="black" points="504,-112.5 504,-131.5 614,-131.5 614,-112.5 504,-112.5"/>
<text text-anchor="middle" x="559" y="-119.5" font-family="Helvetica,sans-Serif" font-size="10.00">l4/sys/__l4_fpage.h</text>
</a>
</g>
</g>
<!-- Node4&#45;&gt;Node9 -->
<g id="edge10" class="edge">
<title>Node4&#45;&gt;Node9</title>
<path fill="none" stroke="midnightblue" d="M339.36,-168.44C385.08,-158.98 458.76,-143.74 508.02,-133.55"/>
<polygon fill="midnightblue" stroke="midnightblue" points="508.75,-136.97 517.84,-131.52 507.34,-130.12 508.75,-136.97"/>
</g>
<!-- Node10 -->
<g id="node10" class="node">
<title>Node10</title>
<g id="a_node10"><a xlink:href="____timeout_8h_source.html" target="_top" xlink:title=" ">
<polygon fill="white" stroke="black" points="234,-112.5 234,-131.5 340,-131.5 340,-112.5 234,-112.5"/>
<text text-anchor="middle" x="287" y="-119.5" font-family="Helvetica,sans-Serif" font-size="10.00">l4/sys/__timeout.h</text>
</a>
</g>
</g>
<!-- Node4&#45;&gt;Node10 -->
<g id="edge12" class="edge">
<title>Node4&#45;&gt;Node10</title>
<path fill="none" stroke="midnightblue" d="M296.18,-168.08C294.73,-160.93 292.63,-150.64 290.81,-141.69"/>
<polygon fill="midnightblue" stroke="midnightblue" points="294.21,-140.85 288.78,-131.75 287.35,-142.25 294.21,-140.85"/>
</g>
<!-- Node7 -->
<g id="node7" class="node">
<title>Node7</title>
<g id="a_node7"><a xlink:title=" ">
<polygon fill="white" stroke="#bfbfbf" points="615,-0.5 615,-19.5 707,-19.5 707,-0.5 615,-0.5"/>
<text text-anchor="middle" x="661" y="-7.5" font-family="Helvetica,sans-Serif" font-size="10.00">l4/sys/linkage.h</text>
</a>
</g>
</g>
<!-- Node6&#45;&gt;Node7 -->
<g id="edge6" class="edge">
<title>Node6&#45;&gt;Node7</title>
<path fill="none" stroke="midnightblue" d="M661,-56.08C661,-49.01 661,-38.86 661,-29.99"/>
<polygon fill="midnightblue" stroke="midnightblue" points="664.5,-29.75 661,-19.75 657.5,-29.75 664.5,-29.75"/>
</g>
<!-- Node8&#45;&gt;Node5 -->
<g id="edge9" class="edge">
<title>Node8&#45;&gt;Node5</title>
<path fill="none" stroke="midnightblue" d="M423.09,-112.44C404.75,-103.68 375.99,-89.94 354.91,-79.86"/>
<polygon fill="midnightblue" stroke="midnightblue" points="356.35,-76.67 345.82,-75.52 353.33,-82.99 356.35,-76.67"/>
</g>
<!-- Node8&#45;&gt;Node6 -->
<g id="edge8" class="edge">
<title>Node8&#45;&gt;Node6</title>
<path fill="none" stroke="midnightblue" d="M475.86,-112.44C513.92,-103.1 574.96,-88.12 616.46,-77.93"/>
<polygon fill="midnightblue" stroke="midnightblue" points="617.43,-81.3 626.3,-75.52 615.76,-74.5 617.43,-81.3"/>
</g>
<!-- Node9&#45;&gt;Node6 -->
<g id="edge11" class="edge">
<title>Node9&#45;&gt;Node6</title>
<path fill="none" stroke="midnightblue" d="M575.39,-112.32C591.67,-103.7 616.87,-90.36 635.72,-80.39"/>
<polygon fill="midnightblue" stroke="midnightblue" points="637.45,-83.43 644.65,-75.65 634.18,-77.24 637.45,-83.43"/>
</g>
<!-- Node10&#45;&gt;Node5 -->
<g id="edge13" class="edge">
<title>Node10&#45;&gt;Node5</title>
<path fill="none" stroke="midnightblue" d="M293.77,-112.08C299.56,-104.46 308.06,-93.26 315.14,-83.94"/>
<polygon fill="midnightblue" stroke="midnightblue" points="318.1,-85.83 321.36,-75.75 312.52,-81.6 318.1,-85.83"/>
</g>
<!-- Node11&#45;&gt;Node3 -->
<g id="edge18" class="edge">
<title>Node11&#45;&gt;Node3</title>
<path fill="none" stroke="midnightblue" d="M284.76,-341.82C299.62,-322.76 335.31,-276.95 354.79,-251.96"/>
<polygon fill="midnightblue" stroke="midnightblue" points="357.77,-253.82 361.16,-243.78 352.25,-249.52 357.77,-253.82"/>
</g>
<!-- Node11&#45;&gt;Node4 -->
<g id="edge19" class="edge">
<title>Node11&#45;&gt;Node4</title>
<path fill="none" stroke="midnightblue" d="M279.02,-341.76C282.12,-315.15 291.5,-234.71 295.8,-197.84"/>
<polygon fill="midnightblue" stroke="midnightblue" points="299.32,-197.86 297.01,-187.52 292.37,-197.05 299.32,-197.86"/>
</g>
<!-- Node11&#45;&gt;Node12 -->
<g id="edge20" class="edge">
<title>Node11&#45;&gt;Node12</title>
<path fill="none" stroke="midnightblue" d="M300.64,-341.98C327.74,-331.77 373.31,-314.61 404,-303.05"/>
<polygon fill="midnightblue" stroke="midnightblue" points="405.28,-306.31 413.4,-299.51 402.81,-299.76 405.28,-306.31"/>
</g>
<!-- Node12&#45;&gt;Node3 -->
<g id="edge22" class="edge">
<title>Node12&#45;&gt;Node3</title>
<path fill="none" stroke="midnightblue" d="M425.07,-280.32C414.83,-272.18 399.28,-259.84 387,-250.09"/>
<polygon fill="midnightblue" stroke="midnightblue" points="389.13,-247.31 379.12,-243.83 384.78,-252.79 389.13,-247.31"/>
</g>
<!-- Node12&#45;&gt;Node4 -->
<g id="edge21" class="edge">
<title>Node12&#45;&gt;Node4</title>
<path fill="none" stroke="midnightblue" d="M400.37,-283.42C374.82,-277.66 341.29,-266.24 320,-244 308.04,-231.5 302.57,-212.28 300.07,-197.97"/>
<polygon fill="midnightblue" stroke="midnightblue" points="303.5,-197.19 298.64,-187.77 296.57,-198.16 303.5,-197.19"/>
</g>
<!-- Node13 -->
<g id="node13" class="node">
<title>Node13</title>
<g id="a_node13"><a xlink:href="err_8h.html" target="_top" xlink:title="Error codes.">
<polygon fill="white" stroke="black" points="746,-224.5 746,-243.5 816,-243.5 816,-224.5 746,-224.5"/>
<text text-anchor="middle" x="781" y="-231.5" font-family="Helvetica,sans-Serif" font-size="10.00">l4/sys/err.h</text>
</a>
</g>
</g>
<!-- Node12&#45;&gt;Node13 -->
<g id="edge23" class="edge">
<title>Node12&#45;&gt;Node13</title>
<path fill="none" stroke="midnightblue" d="M471.62,-283.42C534.75,-273.54 666.14,-252.98 735.63,-242.1"/>
<polygon fill="midnightblue" stroke="midnightblue" points="736.49,-245.51 745.83,-240.5 735.41,-238.59 736.49,-245.51"/>
</g>
<!-- Node13&#45;&gt;Node6 -->
<g id="edge24" class="edge">
<title>Node13&#45;&gt;Node6</title>
<path fill="none" stroke="midnightblue" d="M779.42,-224.45C775.15,-203.26 761.62,-147.5 732,-112 720.73,-98.49 704.32,-87.72 690.12,-80.11"/>
<polygon fill="midnightblue" stroke="midnightblue" points="691.68,-76.98 681.18,-75.57 688.51,-83.22 691.68,-76.98"/>
</g>
<!-- Node14&#45;&gt;Node4 -->
<g id="edge28" class="edge">
<title>Node14&#45;&gt;Node4</title>
<path fill="none" stroke="midnightblue" d="M336.75,-686.91C241.41,-675.51 38,-643.93 38,-582 38,-582 38,-582 38,-289 38,-199.71 169.67,-181.8 245.61,-178.89"/>
<polygon fill="midnightblue" stroke="midnightblue" points="246.05,-182.38 255.94,-178.57 245.84,-175.38 246.05,-182.38"/>
</g>
<!-- Node14&#45;&gt;Node8 -->
<g id="edge27" class="edge">
<title>Node14&#45;&gt;Node8</title>
<path fill="none" stroke="midnightblue" d="M336.98,-688.22C262.37,-681.81 122.46,-667.47 77,-647 36.16,-628.61 0,-626.79 0,-582 0,-582 0,-582 0,-233 0,-193.61 268.3,-148.74 386.36,-130.91"/>
<polygon fill="midnightblue" stroke="midnightblue" points="386.92,-134.37 396.29,-129.42 385.88,-127.44 386.92,-134.37"/>
</g>
<!-- Node15 -->
<g id="node15" class="node">
<title>Node15</title>
<g id="a_node15"><a xlink:href="kobject_source.html" target="_top" xlink:title=" ">
<polygon fill="white" stroke="black" points="375.5,-515.5 375.5,-534.5 458.5,-534.5 458.5,-515.5 375.5,-515.5"/>
<text text-anchor="middle" x="417" y="-522.5" font-family="Helvetica,sans-Serif" font-size="10.00">l4/sys/kobject</text>
</a>
</g>
</g>
<!-- Node14&#45;&gt;Node15 -->
<g id="edge29" class="edge">
<title>Node14&#45;&gt;Node15</title>
<path fill="none" stroke="midnightblue" d="M386.72,-683.08C391.76,-656.95 406.55,-580.21 413.42,-544.58"/>
<polygon fill="midnightblue" stroke="midnightblue" points="416.89,-545.05 415.35,-534.57 410.02,-543.72 416.89,-545.05"/>
</g>
<!-- Node22 -->
<g id="node22" class="node">
<title>Node22</title>
<g id="a_node22"><a xlink:href="l4_2sys_2task_8h.html" target="_top" xlink:title="Common task related definitions.">
<polygon fill="white" stroke="black" points="612,-342 612,-361 690,-361 690,-342 612,-342"/>
<text text-anchor="middle" x="651" y="-349" font-family="Helvetica,sans-Serif" font-size="10.00">l4/sys/task.h</text>
</a>
</g>
</g>
<!-- Node14&#45;&gt;Node22 -->
<g id="edge51" class="edge">
<title>Node14&#45;&gt;Node22</title>
<path fill="none" stroke="midnightblue" d="M380.68,-683.13C368.05,-655.86 334.15,-571.65 367,-515 395.59,-465.7 553.8,-393.87 620.9,-365.1"/>
<polygon fill="midnightblue" stroke="midnightblue" points="622.29,-368.31 630.12,-361.17 619.55,-361.87 622.29,-368.31"/>
</g>
<!-- Node23 -->
<g id="node23" class="node">
<title>Node23</title>
<g id="a_node23"><a xlink:href="sys_2meta.html" target="_top" xlink:title="Meta interface for getting dynamic type information about objects behind capabilities.">
<polygon fill="white" stroke="black" points="413,-627.5 413,-646.5 487,-646.5 487,-627.5 413,-627.5"/>
<text text-anchor="middle" x="450" y="-634.5" font-family="Helvetica,sans-Serif" font-size="10.00">l4/sys/meta</text>
</a>
</g>
</g>
<!-- Node14&#45;&gt;Node23 -->
<g id="edge52" class="edge">
<title>Node14&#45;&gt;Node23</title>
<path fill="none" stroke="midnightblue" d="M395.44,-683.32C405.15,-675.26 419.82,-663.08 431.5,-653.37"/>
<polygon fill="midnightblue" stroke="midnightblue" points="433.91,-655.92 439.37,-646.83 429.44,-650.53 433.91,-655.92"/>
</g>
<!-- Node15&#45;&gt;Node4 -->
<g id="edge37" class="edge">
<title>Node15&#45;&gt;Node4</title>
<path fill="none" stroke="midnightblue" d="M375.42,-523.14C306.99,-519.4 170.68,-501.82 95,-423 72.53,-399.59 76,-384.95 76,-352.5 76,-352.5 76,-352.5 76,-289 76,-213.57 180.18,-189.86 245.8,-182.41"/>
<polygon fill="midnightblue" stroke="midnightblue" points="246.4,-185.87 255.98,-181.35 245.67,-178.91 246.4,-185.87"/>
</g>
<!-- Node16 -->
<g id="node16" class="node">
<title>Node16</title>
<g id="a_node16"><a xlink:href="kernel__object_8h.html" target="_top" xlink:title="Kernel object system calls.">
<polygon fill="white" stroke="black" points="366.5,-403.5 366.5,-422.5 457.5,-422.5 457.5,-403.5 366.5,-403.5"/>
<text text-anchor="middle" x="412" y="-410.5" font-family="Helvetica,sans-Serif" font-size="10.00">kernel_object.h</text>
</a>
</g>
</g>
<!-- Node15&#45;&gt;Node16 -->
<g id="edge30" class="edge">
<title>Node15&#45;&gt;Node16</title>
<path fill="none" stroke="midnightblue" d="M416.61,-515.37C415.8,-497.62 413.94,-456.67 412.85,-432.6"/>
<polygon fill="midnightblue" stroke="midnightblue" points="416.34,-432.42 412.39,-422.59 409.35,-432.74 416.34,-432.42"/>
</g>
<!-- Node18 -->
<g id="node18" class="node">
<title>Node18</title>
<g id="a_node18"><a xlink:href="____typeinfo_8h.html" target="_top" xlink:title="Type information handling.">
<polygon fill="white" stroke="black" points="839.5,-459.5 839.5,-478.5 916.5,-478.5 916.5,-459.5 839.5,-459.5"/>
<text text-anchor="middle" x="878" y="-466.5" font-family="Helvetica,sans-Serif" font-size="10.00">__typeinfo.h</text>
</a>
</g>
</g>
<!-- Node15&#45;&gt;Node18 -->
<g id="edge38" class="edge">
<title>Node15&#45;&gt;Node18</title>
<path fill="none" stroke="midnightblue" d="M458.72,-519.11C544.09,-509.11 738.29,-486.37 829.27,-475.71"/>
<polygon fill="midnightblue" stroke="midnightblue" points="829.79,-479.17 839.32,-474.53 828.98,-472.22 829.79,-479.17"/>
</g>
<!-- Node16&#45;&gt;Node3 -->
<g id="edge33" class="edge">
<title>Node16&#45;&gt;Node3</title>
<path fill="none" stroke="midnightblue" d="M409.88,-403.46C403.13,-376.31 382.05,-291.51 372.63,-253.62"/>
<polygon fill="midnightblue" stroke="midnightblue" points="376.01,-252.73 370.2,-243.87 369.22,-254.42 376.01,-252.73"/>
</g>
<!-- Node16&#45;&gt;Node4 -->
<g id="edge31" class="edge">
<title>Node16&#45;&gt;Node4</title>
<path fill="none" stroke="midnightblue" d="M366.11,-408.37C312.4,-403.06 228.32,-391.07 209,-367 164.03,-310.97 242.71,-228.48 280.01,-194.5"/>
<polygon fill="midnightblue" stroke="midnightblue" points="282.56,-196.92 287.69,-187.65 277.9,-191.69 282.56,-196.92"/>
</g>
<!-- Node16&#45;&gt;Node6 -->
<g id="edge32" class="edge">
<title>Node16&#45;&gt;Node6</title>
<path fill="none" stroke="midnightblue" d="M457.75,-410.81C529.66,-407.99 664.52,-398.52 699,-367 724.7,-343.51 718,-325.82 718,-291 718,-291 718,-291 718,-177 718,-140.3 692.68,-103.66 675.79,-83.3"/>
<polygon fill="midnightblue" stroke="midnightblue" points="678.35,-80.9 669.17,-75.62 673.05,-85.48 678.35,-80.9"/>
</g>
<!-- Node16&#45;&gt;Node12 -->
<g id="edge36" class="edge">
<title>Node16&#45;&gt;Node12</title>
<path fill="none" stroke="midnightblue" d="M413.73,-403.3C417.6,-383.76 427.06,-336.06 432.32,-309.55"/>
<polygon fill="midnightblue" stroke="midnightblue" points="435.78,-310.11 434.29,-299.62 428.91,-308.75 435.78,-310.11"/>
</g>
<!-- Node17 -->
<g id="node17" class="node">
<title>Node17</title>
<g id="a_node17"><a xlink:href="____kernel__object__impl_8h.html" target="_top" xlink:title="Low&#45;level kernel debugger functions.">
<polygon fill="white" stroke="black" points="470,-336.5 470,-366.5 594,-366.5 594,-336.5 470,-336.5"/>
<text text-anchor="start" x="478" y="-354.5" font-family="Helvetica,sans-Serif" font-size="10.00">l4/sys/__kernel_object</text>
<text text-anchor="middle" x="532" y="-343.5" font-family="Helvetica,sans-Serif" font-size="10.00">_impl.h</text>
</a>
</g>
</g>
<!-- Node16&#45;&gt;Node17 -->
<g id="edge34" class="edge">
<title>Node16&#45;&gt;Node17</title>
<path fill="none" stroke="midnightblue" d="M429.19,-403.48C446.2,-395.04 472.8,-381.86 494.67,-371.01"/>
<polygon fill="midnightblue" stroke="midnightblue" points="496.31,-374.1 503.72,-366.52 493.2,-367.83 496.31,-374.1"/>
</g>
<!-- Node17&#45;&gt;Node12 -->
<g id="edge35" class="edge">
<title>Node17&#45;&gt;Node12</title>
<path fill="none" stroke="midnightblue" d="M509.25,-336.4C494.01,-326.95 474.01,-314.56 458.76,-305.11"/>
<polygon fill="midnightblue" stroke="midnightblue" points="460.31,-301.95 449.97,-299.66 456.62,-307.9 460.31,-301.95"/>
</g>
<!-- Node19 -->
<g id="node19" class="node">
<title>Node19</title>
<g id="a_node19"><a xlink:href="types.html" target="_top" xlink:title=" ">
<polygon fill="white" stroke="black" points="746,-342 746,-361 810,-361 810,-342 746,-342"/>
<text text-anchor="middle" x="778" y="-349" font-family="Helvetica,sans-Serif" font-size="10.00">cxx/types</text>
</a>
</g>
</g>
<!-- Node18&#45;&gt;Node19 -->
<g id="edge39" class="edge">
<title>Node18&#45;&gt;Node19</title>
<path fill="none" stroke="midnightblue" d="M865.23,-459.35C853.41,-450.95 835.79,-437.39 823,-423 808.58,-406.77 795.65,-385.46 787.4,-370.53"/>
<polygon fill="midnightblue" stroke="midnightblue" points="790.28,-368.5 782.46,-361.35 784.12,-371.82 790.28,-368.5"/>
</g>
<!-- Node20 -->
<g id="node20" class="node">
<title>Node20</title>
<g id="a_node20"><a xlink:href="ipc__basics_source.html" target="_top" xlink:title=" ">
<polygon fill="white" stroke="black" points="688.5,-403.5 688.5,-422.5 775.5,-422.5 775.5,-403.5 688.5,-403.5"/>
<text text-anchor="middle" x="732" y="-410.5" font-family="Helvetica,sans-Serif" font-size="10.00">cxx/ipc_basics</text>
</a>
</g>
</g>
<!-- Node18&#45;&gt;Node20 -->
<g id="edge40" class="edge">
<title>Node18&#45;&gt;Node20</title>
<path fill="none" stroke="midnightblue" d="M854.87,-459.44C830.52,-450.44 791.99,-436.19 764.58,-426.05"/>
<polygon fill="midnightblue" stroke="midnightblue" points="765.62,-422.7 755.03,-422.52 763.19,-429.27 765.62,-422.7"/>
</g>
<!-- Node21 -->
<g id="node21" class="node">
<title>Node21</title>
<g id="a_node21"><a xlink:href="capability_8h_source.html" target="_top" xlink:title=" ">
<polygon fill="white" stroke="black" points="832,-403.5 832,-422.5 924,-422.5 924,-403.5 832,-403.5"/>
<text text-anchor="middle" x="878" y="-410.5" font-family="Helvetica,sans-Serif" font-size="10.00">cxx/capability.h</text>
</a>
</g>
</g>
<!-- Node18&#45;&gt;Node21 -->
<g id="edge44" class="edge">
<title>Node18&#45;&gt;Node21</title>
<path fill="none" stroke="midnightblue" d="M878,-459.08C878,-452.01 878,-441.86 878,-432.99"/>
<polygon fill="midnightblue" stroke="midnightblue" points="881.5,-432.75 878,-422.75 874.5,-432.75 881.5,-432.75"/>
</g>
<!-- Node20&#45;&gt;Node3 -->
<g id="edge42" class="edge">
<title>Node20&#45;&gt;Node3</title>
<path fill="none" stroke="midnightblue" d="M767.01,-403.45C785.93,-396.84 807.68,-385.59 819,-367 826.16,-355.23 827.61,-346.75 819,-336 769.07,-273.65 523.96,-247.19 417.51,-238.51"/>
<polygon fill="midnightblue" stroke="midnightblue" points="417.59,-235 407.34,-237.7 417.04,-241.98 417.59,-235"/>
</g>
<!-- Node20&#45;&gt;Node13 -->
<g id="edge43" class="edge">
<title>Node20&#45;&gt;Node13</title>
<path fill="none" stroke="midnightblue" d="M775.62,-407.89C802.46,-402.85 834.89,-391.69 852,-367 874.02,-335.22 870.64,-313.88 852,-280 844.11,-265.66 829.51,-255.25 815.6,-248.08"/>
<polygon fill="midnightblue" stroke="midnightblue" points="816.7,-244.73 806.16,-243.62 813.71,-251.06 816.7,-244.73"/>
</g>
<!-- Node20&#45;&gt;Node19 -->
<g id="edge41" class="edge">
<title>Node20&#45;&gt;Node19</title>
<path fill="none" stroke="midnightblue" d="M738.59,-403.48C745.49,-394.55 756.5,-380.31 765.13,-369.14"/>
<polygon fill="midnightblue" stroke="midnightblue" points="768.07,-371.06 771.42,-361.01 762.54,-366.78 768.07,-371.06"/>
</g>
<!-- Node21&#45;&gt;Node4 -->
<g id="edge46" class="edge">
<title>Node21&#45;&gt;Node4</title>
<path fill="none" stroke="midnightblue" d="M879.23,-403.28C881.94,-381.57 886.88,-323.69 870,-280 858.49,-250.22 853.18,-239.01 825,-224 783.76,-202.03 474.99,-186.55 350.15,-181.13"/>
<polygon fill="midnightblue" stroke="midnightblue" points="350.21,-177.63 340.06,-180.69 349.9,-184.62 350.21,-177.63"/>
</g>
<!-- Node21&#45;&gt;Node8 -->
<g id="edge45" class="edge">
<title>Node21&#45;&gt;Node8</title>
<path fill="none" stroke="midnightblue" d="M888.29,-403.28C920.62,-374.88 1015.11,-283.46 966,-224 958.46,-214.87 628.98,-156.05 495.9,-132.62"/>
<polygon fill="midnightblue" stroke="midnightblue" points="496.36,-129.14 485.91,-130.86 495.15,-136.04 496.36,-129.14"/>
</g>
<!-- Node21&#45;&gt;Node22 -->
<g id="edge47" class="edge">
<title>Node21&#45;&gt;Node22</title>
<path fill="none" stroke="midnightblue" d="M845.48,-403.48C805.44,-392.98 737.36,-375.14 693.3,-363.59"/>
<polygon fill="midnightblue" stroke="midnightblue" points="694.02,-360.16 683.46,-361.01 692.25,-366.93 694.02,-360.16"/>
</g>
<!-- Node22&#45;&gt;Node3 -->
<g id="edge49" class="edge">
<title>Node22&#45;&gt;Node3</title>
<path fill="none" stroke="midnightblue" d="M630.63,-341.94C598.76,-328.58 535.17,-302.02 481,-280 453.39,-268.78 421.89,-256.26 399.17,-247.27"/>
<polygon fill="midnightblue" stroke="midnightblue" points="400.29,-243.95 389.7,-243.54 397.71,-250.46 400.29,-243.95"/>
</g>
<!-- Node22&#45;&gt;Node4 -->
<g id="edge48" class="edge">
<title>Node22&#45;&gt;Node4</title>
<path fill="none" stroke="midnightblue" d="M636.76,-341.99C600.63,-320.58 502.16,-263.42 416,-224 388.61,-211.47 356.64,-199.43 332.89,-190.96"/>
<polygon fill="midnightblue" stroke="midnightblue" points="333.84,-187.59 323.25,-187.56 331.51,-194.19 333.84,-187.59"/>
</g>
<!-- Node22&#45;&gt;Node12 -->
<g id="edge50" class="edge">
<title>Node22&#45;&gt;Node12</title>
<path fill="none" stroke="midnightblue" d="M623.38,-342C616.71,-339.99 609.61,-337.89 603,-336 560.87,-323.96 512.52,-311.03 478.72,-302.13"/>
<polygon fill="midnightblue" stroke="midnightblue" points="479.28,-298.66 468.72,-299.51 477.5,-305.43 479.28,-298.66"/>
</g>
<!-- Node23&#45;&gt;Node15 -->
<g id="edge53" class="edge">
<title>Node23&#45;&gt;Node15</title>
<path fill="none" stroke="midnightblue" d="M447.41,-627.37C442.06,-609.54 429.69,-568.3 422.48,-544.27"/>
<polygon fill="midnightblue" stroke="midnightblue" points="425.8,-543.16 419.58,-534.59 419.1,-545.18 425.8,-543.16"/>
</g>
<!-- Node23&#45;&gt;Node24 -->
<g id="edge54" class="edge">
<title>Node23&#45;&gt;Node24</title>
<path fill="none" stroke="midnightblue" d="M487.25,-630.12C548.92,-620.38 672.29,-600.9 741.66,-589.95"/>
<polygon fill="midnightblue" stroke="midnightblue" points="742.56,-593.35 751.9,-588.33 741.47,-586.43 742.56,-593.35"/>
</g>
<!-- Node26 -->
<g id="node26" class="node">
<title>Node26</title>
<g id="a_node26"><a xlink:href="ipc__string_source.html" target="_top" xlink:title=" ">
<polygon fill="white" stroke="black" points="530,-571.5 530,-590.5 614,-590.5 614,-571.5 530,-571.5"/>
<text text-anchor="middle" x="572" y="-578.5" font-family="Helvetica,sans-Serif" font-size="10.00">cxx/ipc_string</text>
</a>
</g>
</g>
<!-- Node23&#45;&gt;Node26 -->
<g id="edge61" class="edge">
<title>Node23&#45;&gt;Node26</title>
<path fill="none" stroke="midnightblue" d="M469.33,-627.44C489.32,-618.6 520.74,-604.69 543.56,-594.59"/>
<polygon fill="midnightblue" stroke="midnightblue" points="545.03,-597.76 552.76,-590.52 542.2,-591.36 545.03,-597.76"/>
</g>
<!-- Node24&#45;&gt;Node18 -->
<g id="edge60" class="edge">
<title>Node24&#45;&gt;Node18</title>
<path fill="none" stroke="midnightblue" d="M798.75,-571.37C813,-553.14 846.39,-510.43 864.96,-486.68"/>
<polygon fill="midnightblue" stroke="midnightblue" points="867.88,-488.63 871.28,-478.59 862.37,-484.31 867.88,-488.63"/>
</g>
<!-- Node24&#45;&gt;Node20 -->
<g id="edge55" class="edge">
<title>Node24&#45;&gt;Node20</title>
<path fill="none" stroke="midnightblue" d="M793.9,-571.5C798.04,-550.9 806.07,-497.18 787,-459 780.56,-446.11 768.55,-435.62 757.39,-428.01"/>
<polygon fill="midnightblue" stroke="midnightblue" points="759.07,-424.93 748.75,-422.55 755.33,-430.85 759.07,-424.93"/>
</g>
<!-- Node25 -->
<g id="node25" class="node">
<title>Node25</title>
<g id="a_node25"><a xlink:href="ipc__types.html" target="_top" xlink:title=" ">
<polygon fill="white" stroke="black" points="629.5,-459.5 629.5,-478.5 744.5,-478.5 744.5,-459.5 629.5,-459.5"/>
<text text-anchor="middle" x="687" y="-466.5" font-family="Helvetica,sans-Serif" font-size="10.00">l4/sys/cxx/ipc_types</text>
</a>
</g>
</g>
<!-- Node24&#45;&gt;Node25 -->
<g id="edge56" class="edge">
<title>Node24&#45;&gt;Node25</title>
<path fill="none" stroke="midnightblue" d="M783.76,-571.37C766.2,-552.97 724.87,-509.67 702.32,-486.05"/>
<polygon fill="midnightblue" stroke="midnightblue" points="704.64,-483.41 695.2,-478.59 699.57,-488.24 704.64,-483.41"/>
</g>
<!-- Node25&#45;&gt;Node19 -->
<g id="edge58" class="edge">
<title>Node25&#45;&gt;Node19</title>
<path fill="none" stroke="midnightblue" d="M682.89,-459.27C677.32,-446.05 669.25,-420.64 680,-403 687.51,-390.68 720.15,-375.36 745.73,-364.84"/>
<polygon fill="midnightblue" stroke="midnightblue" points="747.15,-368.05 755.12,-361.07 744.54,-361.55 747.15,-368.05"/>
</g>
<!-- Node25&#45;&gt;Node20 -->
<g id="edge59" class="edge">
<title>Node25&#45;&gt;Node20</title>
<path fill="none" stroke="midnightblue" d="M694.43,-459.08C700.85,-451.38 710.31,-440.03 718.12,-430.65"/>
<polygon fill="midnightblue" stroke="midnightblue" points="720.99,-432.67 724.71,-422.75 715.62,-428.19 720.99,-432.67"/>
</g>
<!-- Node25&#45;&gt;Node21 -->
<g id="edge57" class="edge">
<title>Node25&#45;&gt;Node21</title>
<path fill="none" stroke="midnightblue" d="M717.26,-459.44C749.96,-450.2 802.18,-435.44 838.18,-425.26"/>
<polygon fill="midnightblue" stroke="midnightblue" points="839.21,-428.61 847.88,-422.52 837.3,-421.87 839.21,-428.61"/>
</g>
<!-- Node26&#45;&gt;Node19 -->
<g id="edge62" class="edge">
<title>Node26&#45;&gt;Node19</title>
<path fill="none" stroke="midnightblue" d="M566.3,-571.12C558.97,-558.57 547.88,-534.92 554,-515 571.82,-457.02 583.41,-439.31 632,-403 636.61,-399.55 700.74,-378.01 742.46,-364.19"/>
<polygon fill="midnightblue" stroke="midnightblue" points="743.62,-367.49 752.01,-361.03 741.42,-360.85 743.62,-367.49"/>
</g>
<!-- Node26&#45;&gt;Node20 -->
<g id="edge63" class="edge">
<title>Node26&#45;&gt;Node20</title>
<path fill="none" stroke="midnightblue" d="M608.88,-571.49C652.39,-559.27 722.74,-532.1 754,-479 762.84,-463.99 754.4,-444.91 745.54,-431.32"/>
<polygon fill="midnightblue" stroke="midnightblue" points="748.19,-429.01 739.54,-422.9 742.49,-433.07 748.19,-429.01"/>
</g>
<!-- Node27 -->
<g id="node27" class="node">
<title>Node27</title>
<g id="a_node27"><a xlink:href="ipc__array_source.html" target="_top" xlink:title=" ">
<polygon fill="white" stroke="black" points="563,-515.5 563,-534.5 625,-534.5 625,-515.5 563,-515.5"/>
<text text-anchor="middle" x="594" y="-522.5" font-family="Helvetica,sans-Serif" font-size="10.00">ipc_array</text>
</a>
</g>
</g>
<!-- Node26&#45;&gt;Node27 -->
<g id="edge64" class="edge">
<title>Node26&#45;&gt;Node27</title>
<path fill="none" stroke="midnightblue" d="M575.63,-571.08C578.61,-563.77 582.93,-553.18 586.62,-544.1"/>
<polygon fill="midnightblue" stroke="midnightblue" points="589.9,-545.33 590.43,-534.75 583.42,-542.69 589.9,-545.33"/>
</g>
<!-- Node27&#45;&gt;Node19 -->
<g id="edge65" class="edge">
<title>Node27&#45;&gt;Node19</title>
<path fill="none" stroke="midnightblue" d="M593.3,-515.39C592.64,-502.34 592.95,-477.14 603,-459 621.81,-425.06 637.26,-423.84 670,-403 694.19,-387.61 723.81,-374.09 745.92,-364.92"/>
<polygon fill="midnightblue" stroke="midnightblue" points="747.25,-368.16 755.19,-361.15 744.61,-361.67 747.25,-368.16"/>
</g>
<!-- Node27&#45;&gt;Node20 -->
<g id="edge66" class="edge">
<title>Node27&#45;&gt;Node20</title>
<path fill="none" stroke="midnightblue" d="M595.42,-515.22C598.07,-501.48 605.03,-474.83 621,-459 637.25,-442.89 660.05,-432.31 680.76,-425.49"/>
<polygon fill="midnightblue" stroke="midnightblue" points="681.88,-428.81 690.41,-422.52 679.82,-422.11 681.88,-428.81"/>
</g>
<!-- Node27&#45;&gt;Node25 -->
<g id="edge67" class="edge">
<title>Node27&#45;&gt;Node25</title>
<path fill="none" stroke="midnightblue" d="M608.94,-515.32C623.59,-506.82 646.13,-493.73 663.24,-483.8"/>
<polygon fill="midnightblue" stroke="midnightblue" points="665.2,-486.7 672.1,-478.65 661.69,-480.65 665.2,-486.7"/>
</g>
<!-- Node28&#45;&gt;Node4 -->
<g id="edge70" class="edge">
<title>Node28&#45;&gt;Node4</title>
<path fill="none" stroke="midnightblue" d="M567.71,-739.45C683.94,-719.1 952,-663.36 952,-582 952,-582 952,-582 952,-289 952,-235.99 902.17,-241.11 852,-224 760.04,-192.63 469.94,-182.77 350.34,-179.99"/>
<polygon fill="midnightblue" stroke="midnightblue" points="350.4,-176.49 340.32,-179.76 350.24,-183.49 350.4,-176.49"/>
</g>
<!-- Node28&#45;&gt;Node11 -->
<g id="edge69" class="edge">
<title>Node28&#45;&gt;Node11</title>
<path fill="none" stroke="midnightblue" d="M515.36,-739.16C516.26,-706.59 515.76,-591.24 468,-515 434.17,-460.99 406.36,-464.52 358,-423 336.23,-404.31 311.5,-382.41 295.37,-368.04"/>
<polygon fill="midnightblue" stroke="midnightblue" points="297.57,-365.31 287.78,-361.27 292.91,-370.54 297.57,-365.31"/>
</g>
<!-- Node28&#45;&gt;Node14 -->
<g id="edge71" class="edge">
<title>Node28&#45;&gt;Node14</title>
<path fill="none" stroke="midnightblue" d="M494.4,-739.44C473.01,-730.56 439.32,-716.56 414.98,-706.45"/>
<polygon fill="midnightblue" stroke="midnightblue" points="416.08,-703.12 405.5,-702.52 413.39,-709.58 416.08,-703.12"/>
</g>
<!-- Node28&#45;&gt;Node24 -->
<g id="edge72" class="edge">
<title>Node28&#45;&gt;Node24</title>
<path fill="none" stroke="midnightblue" d="M529.5,-739.31C574.75,-712.19 713.61,-628.98 768.91,-595.83"/>
<polygon fill="midnightblue" stroke="midnightblue" points="770.86,-598.75 777.64,-590.61 767.26,-592.74 770.86,-598.75"/>
</g>
</g>
</svg>
