<?xml version="1.0" encoding="UTF-8" standalone="no"?>
<!DOCTYPE svg PUBLIC "-//W3C//DTD SVG 1.1//EN"
 "http://www.w3.org/Graphics/SVG/1.1/DTD/svg11.dtd">
<!-- Generated by graphviz version 2.43.0 (0)
 -->
<!-- Title: l4/sys/cxx/ipc_client Pages: 1 -->
<svg width="553pt" height="588pt"
 viewBox="0.00 0.00 552.50 588.00" xmlns="http://www.w3.org/2000/svg" xmlns:xlink="http://www.w3.org/1999/xlink">
<g id="graph0" class="graph" transform="scale(1 1) rotate(0) translate(4 584)">
<title>l4/sys/cxx/ipc_client</title>
<polygon fill="white" stroke="transparent" points="-4,4 -4,-584 548.5,-584 548.5,4 -4,4"/>
<!-- Node1 -->
<g id="node1" class="node">
<title>Node1</title>
<g id="a_node1"><a xlink:title=" ">
<polygon fill="#bfbfbf" stroke="black" points="346,-560.5 346,-579.5 461,-579.5 461,-560.5 346,-560.5"/>
<text text-anchor="middle" x="403.5" y="-567.5" font-family="Helvetica,sans-Serif" font-size="10.00">l4/sys/cxx/ipc_client</text>
</a>
</g>
</g>
<!-- Node2 -->
<g id="node2" class="node">
<title>Node2</title>
<g id="a_node2"><a xlink:href="ipc__basics_source.html" target="_top" xlink:title=" ">
<polygon fill="white" stroke="black" points="384,-392.5 384,-411.5 503,-411.5 503,-392.5 384,-392.5"/>
<text text-anchor="middle" x="443.5" y="-399.5" font-family="Helvetica,sans-Serif" font-size="10.00">l4/sys/cxx/ipc_basics</text>
</a>
</g>
</g>
<!-- Node1&#45;&gt;Node2 -->
<g id="edge1" class="edge">
<title>Node1&#45;&gt;Node2</title>
<path fill="none" stroke="midnightblue" d="M425.31,-560.45C440.44,-553.22 459.45,-541.26 468.5,-524 486.17,-490.27 467.31,-445.13 454.09,-420.62"/>
<polygon fill="midnightblue" stroke="midnightblue" points="457.03,-418.73 449.05,-411.76 450.95,-422.18 457.03,-418.73"/>
</g>
<!-- Node12 -->
<g id="node12" class="node">
<title>Node12</title>
<g id="a_node12"><a xlink:href="err_8h.html" target="_top" xlink:title="Error codes.">
<polygon fill="white" stroke="black" points="474.5,-224.5 474.5,-243.5 544.5,-243.5 544.5,-224.5 474.5,-224.5"/>
<text text-anchor="middle" x="509.5" y="-231.5" font-family="Helvetica,sans-Serif" font-size="10.00">l4/sys/err.h</text>
</a>
</g>
</g>
<!-- Node1&#45;&gt;Node12 -->
<g id="edge40" class="edge">
<title>Node1&#45;&gt;Node12</title>
<path fill="none" stroke="midnightblue" d="M428.48,-560.47C465.73,-545.97 531.5,-512.77 531.5,-459 531.5,-459 531.5,-459 531.5,-345 531.5,-312.33 522.05,-275.24 515.54,-253.55"/>
<polygon fill="midnightblue" stroke="midnightblue" points="518.79,-252.22 512.47,-243.72 512.11,-254.31 518.79,-252.22"/>
</g>
<!-- Node13 -->
<g id="node13" class="node">
<title>Node13</title>
<g id="a_node13"><a xlink:href="ipc__types.html" target="_top" xlink:title=" ">
<polygon fill="white" stroke="black" points="180,-448.5 180,-467.5 295,-467.5 295,-448.5 180,-448.5"/>
<text text-anchor="middle" x="237.5" y="-455.5" font-family="Helvetica,sans-Serif" font-size="10.00">l4/sys/cxx/ipc_types</text>
</a>
</g>
</g>
<!-- Node1&#45;&gt;Node13 -->
<g id="edge19" class="edge">
<title>Node1&#45;&gt;Node13</title>
<path fill="none" stroke="midnightblue" d="M389.3,-560.4C374.69,-551.48 351.33,-537.04 331.5,-524 305.74,-507.06 276.62,-486.73 257.71,-473.38"/>
<polygon fill="midnightblue" stroke="midnightblue" points="259.73,-470.52 249.55,-467.6 255.68,-476.23 259.73,-470.52"/>
</g>
<!-- Node17 -->
<g id="node17" class="node">
<title>Node17</title>
<g id="a_node17"><a xlink:href="ipc__iface.html" target="_top" xlink:title="Interface Definition Language.">
<polygon fill="white" stroke="black" points="347.5,-504.5 347.5,-523.5 459.5,-523.5 459.5,-504.5 347.5,-504.5"/>
<text text-anchor="middle" x="403.5" y="-511.5" font-family="Helvetica,sans-Serif" font-size="10.00">l4/sys/cxx/ipc_iface</text>
</a>
</g>
</g>
<!-- Node1&#45;&gt;Node17 -->
<g id="edge32" class="edge">
<title>Node1&#45;&gt;Node17</title>
<path fill="none" stroke="midnightblue" d="M403.5,-560.08C403.5,-553.01 403.5,-542.86 403.5,-533.99"/>
<polygon fill="midnightblue" stroke="midnightblue" points="407,-533.75 403.5,-523.75 400,-533.75 407,-533.75"/>
</g>
<!-- Node18 -->
<g id="node18" class="node">
<title>Node18</title>
<g id="a_node18"><a xlink:href="____typeinfo_8h.html" target="_top" xlink:title="Type information handling.">
<polygon fill="white" stroke="black" points="313.5,-448.5 313.5,-467.5 421.5,-467.5 421.5,-448.5 313.5,-448.5"/>
<text text-anchor="middle" x="367.5" y="-455.5" font-family="Helvetica,sans-Serif" font-size="10.00">l4/sys/__typeinfo.h</text>
</a>
</g>
</g>
<!-- Node1&#45;&gt;Node18 -->
<g id="edge39" class="edge">
<title>Node1&#45;&gt;Node18</title>
<path fill="none" stroke="midnightblue" d="M381.69,-560.45C366.56,-553.22 347.55,-541.26 338.5,-524 330.03,-507.84 340.98,-488.7 351.76,-475.39"/>
<polygon fill="midnightblue" stroke="midnightblue" points="354.65,-477.4 358.62,-467.58 349.39,-472.78 354.65,-477.4"/>
</g>
<!-- Node3 -->
<g id="node3" class="node">
<title>Node3</title>
<g id="a_node3"><a xlink:href="types.html" target="_top" xlink:title=" ">
<polygon fill="white" stroke="black" points="334.5,-336.5 334.5,-355.5 378.5,-355.5 378.5,-336.5 334.5,-336.5"/>
<text text-anchor="middle" x="356.5" y="-343.5" font-family="Helvetica,sans-Serif" font-size="10.00">types</text>
</a>
</g>
</g>
<!-- Node2&#45;&gt;Node3 -->
<g id="edge2" class="edge">
<title>Node2&#45;&gt;Node3</title>
<path fill="none" stroke="midnightblue" d="M429.52,-392.32C415.95,-383.9 395.12,-370.97 379.18,-361.07"/>
<polygon fill="midnightblue" stroke="midnightblue" points="380.79,-357.95 370.44,-355.65 377.09,-363.9 380.79,-357.95"/>
</g>
<!-- Node4 -->
<g id="node4" class="node">
<title>Node4</title>
<g id="a_node4"><a xlink:href="l4_2sys_2utcb_8h.html" target="_top" xlink:title="UTCB definitions.">
<polygon fill="white" stroke="black" points="372.5,-224.5 372.5,-243.5 450.5,-243.5 450.5,-224.5 372.5,-224.5"/>
<text text-anchor="middle" x="411.5" y="-231.5" font-family="Helvetica,sans-Serif" font-size="10.00">l4/sys/utcb.h</text>
</a>
</g>
</g>
<!-- Node2&#45;&gt;Node4 -->
<g id="edge3" class="edge">
<title>Node2&#45;&gt;Node4</title>
<path fill="none" stroke="midnightblue" d="M441.78,-392.08C436.74,-365.95 421.95,-289.21 415.08,-253.58"/>
<polygon fill="midnightblue" stroke="midnightblue" points="418.48,-252.72 413.15,-243.57 411.61,-254.05 418.48,-252.72"/>
</g>
<!-- Node2&#45;&gt;Node12 -->
<g id="edge17" class="edge">
<title>Node2&#45;&gt;Node12</title>
<path fill="none" stroke="midnightblue" d="M447.05,-392.08C457.48,-365.83 488.21,-288.55 502.3,-253.12"/>
<polygon fill="midnightblue" stroke="midnightblue" points="505.65,-254.15 506.09,-243.57 499.15,-251.57 505.65,-254.15"/>
</g>
<!-- Node5 -->
<g id="node5" class="node">
<title>Node5</title>
<g id="a_node5"><a xlink:href="l4_2sys_2types_8h.html" target="_top" xlink:title="Common L4 ABI Data Types.">
<polygon fill="white" stroke="black" points="237.5,-168.5 237.5,-187.5 321.5,-187.5 321.5,-168.5 237.5,-168.5"/>
<text text-anchor="middle" x="279.5" y="-175.5" font-family="Helvetica,sans-Serif" font-size="10.00">l4/sys/types.h</text>
</a>
</g>
</g>
<!-- Node4&#45;&gt;Node5 -->
<g id="edge4" class="edge">
<title>Node4&#45;&gt;Node5</title>
<path fill="none" stroke="midnightblue" d="M390.58,-224.44C368.76,-215.52 334.35,-201.44 309.61,-191.32"/>
<polygon fill="midnightblue" stroke="midnightblue" points="310.9,-188.06 300.32,-187.52 308.25,-194.54 310.9,-188.06"/>
</g>
<!-- Node6 -->
<g id="node6" class="node">
<title>Node6</title>
<g id="a_node6"><a xlink:href="l4_2sys_2l4int_8h.html" target="_top" xlink:title="Fixed sized integer types, generic version.">
<polygon fill="white" stroke="black" points="119,-56.5 119,-75.5 198,-75.5 198,-56.5 119,-56.5"/>
<text text-anchor="middle" x="158.5" y="-63.5" font-family="Helvetica,sans-Serif" font-size="10.00">l4/sys/l4int.h</text>
</a>
</g>
</g>
<!-- Node4&#45;&gt;Node6 -->
<g id="edge16" class="edge">
<title>Node4&#45;&gt;Node6</title>
<path fill="none" stroke="midnightblue" d="M416.39,-224.45C428.05,-202.79 454.53,-145.13 426.5,-112 412.57,-95.53 281.75,-79.63 208.17,-71.88"/>
<polygon fill="midnightblue" stroke="midnightblue" points="208.5,-68.4 198.19,-70.85 207.77,-75.36 208.5,-68.4"/>
</g>
<!-- Node7 -->
<g id="node7" class="node">
<title>Node7</title>
<g id="a_node7"><a xlink:href="compiler_8h.html" target="_top" xlink:title="L4 compiler related defines.">
<polygon fill="white" stroke="black" points="313,-56.5 313,-75.5 412,-75.5 412,-56.5 313,-56.5"/>
<text text-anchor="middle" x="362.5" y="-63.5" font-family="Helvetica,sans-Serif" font-size="10.00">l4/sys/compiler.h</text>
</a>
</g>
</g>
<!-- Node4&#45;&gt;Node7 -->
<g id="edge15" class="edge">
<title>Node4&#45;&gt;Node7</title>
<path fill="none" stroke="midnightblue" d="M415.71,-224.49C425.27,-203.87 446.3,-150.13 426.5,-112 419.35,-98.23 405.83,-87.78 393.05,-80.44"/>
<polygon fill="midnightblue" stroke="midnightblue" points="394.46,-77.23 383.98,-75.64 391.18,-83.41 394.46,-77.23"/>
</g>
<!-- Node5&#45;&gt;Node6 -->
<g id="edge5" class="edge">
<title>Node5&#45;&gt;Node6</title>
<path fill="none" stroke="midnightblue" d="M237.31,-169.41C199.63,-161.67 148.59,-148.47 136.5,-132 125.98,-117.66 135.21,-97.94 144.74,-83.99"/>
<polygon fill="midnightblue" stroke="midnightblue" points="147.69,-85.89 150.83,-75.77 142.06,-81.72 147.69,-85.89"/>
</g>
<!-- Node5&#45;&gt;Node7 -->
<g id="edge6" class="edge">
<title>Node5&#45;&gt;Node7</title>
<path fill="none" stroke="midnightblue" d="M280.22,-168.21C281.7,-154.91 286.05,-129.4 298.5,-112 307.91,-98.85 322.42,-88.19 335.24,-80.56"/>
<polygon fill="midnightblue" stroke="midnightblue" points="337.18,-83.49 344.19,-75.54 333.75,-77.38 337.18,-83.49"/>
</g>
<!-- Node9 -->
<g id="node9" class="node">
<title>Node9</title>
<g id="a_node9"><a xlink:href="l4_2sys_2consts_8h.html" target="_top" xlink:title="Common constants.">
<polygon fill="white" stroke="black" points="0,-112.5 0,-131.5 89,-131.5 89,-112.5 0,-112.5"/>
<text text-anchor="middle" x="44.5" y="-119.5" font-family="Helvetica,sans-Serif" font-size="10.00">l4/sys/consts.h</text>
</a>
</g>
</g>
<!-- Node5&#45;&gt;Node9 -->
<g id="edge8" class="edge">
<title>Node5&#45;&gt;Node9</title>
<path fill="none" stroke="midnightblue" d="M242.26,-168.44C201.44,-159.06 135.86,-143.99 91.52,-133.8"/>
<polygon fill="midnightblue" stroke="midnightblue" points="92.09,-130.34 81.56,-131.52 90.52,-137.17 92.09,-130.34"/>
</g>
<!-- Node10 -->
<g id="node10" class="node">
<title>Node10</title>
<g id="a_node10"><a xlink:href="____l4__fpage_8h_source.html" target="_top" xlink:title=" ">
<polygon fill="white" stroke="black" points="307.5,-112.5 307.5,-131.5 417.5,-131.5 417.5,-112.5 307.5,-112.5"/>
<text text-anchor="middle" x="362.5" y="-119.5" font-family="Helvetica,sans-Serif" font-size="10.00">l4/sys/__l4_fpage.h</text>
</a>
</g>
</g>
<!-- Node5&#45;&gt;Node10 -->
<g id="edge11" class="edge">
<title>Node5&#45;&gt;Node10</title>
<path fill="none" stroke="midnightblue" d="M292.84,-168.32C305.66,-159.98 325.28,-147.21 340.44,-137.35"/>
<polygon fill="midnightblue" stroke="midnightblue" points="342.72,-140.04 349.2,-131.65 338.91,-134.17 342.72,-140.04"/>
</g>
<!-- Node11 -->
<g id="node11" class="node">
<title>Node11</title>
<g id="a_node11"><a xlink:href="____timeout_8h_source.html" target="_top" xlink:title=" ">
<polygon fill="white" stroke="black" points="145.5,-112.5 145.5,-131.5 251.5,-131.5 251.5,-112.5 145.5,-112.5"/>
<text text-anchor="middle" x="198.5" y="-119.5" font-family="Helvetica,sans-Serif" font-size="10.00">l4/sys/__timeout.h</text>
</a>
</g>
</g>
<!-- Node5&#45;&gt;Node11 -->
<g id="edge13" class="edge">
<title>Node5&#45;&gt;Node11</title>
<path fill="none" stroke="midnightblue" d="M266.49,-168.32C253.97,-159.98 234.82,-147.21 220.03,-137.35"/>
<polygon fill="midnightblue" stroke="midnightblue" points="221.74,-134.29 211.48,-131.65 217.86,-140.11 221.74,-134.29"/>
</g>
<!-- Node8 -->
<g id="node8" class="node">
<title>Node8</title>
<g id="a_node8"><a xlink:title=" ">
<polygon fill="white" stroke="#bfbfbf" points="316.5,-0.5 316.5,-19.5 408.5,-19.5 408.5,-0.5 316.5,-0.5"/>
<text text-anchor="middle" x="362.5" y="-7.5" font-family="Helvetica,sans-Serif" font-size="10.00">l4/sys/linkage.h</text>
</a>
</g>
</g>
<!-- Node7&#45;&gt;Node8 -->
<g id="edge7" class="edge">
<title>Node7&#45;&gt;Node8</title>
<path fill="none" stroke="midnightblue" d="M362.5,-56.08C362.5,-49.01 362.5,-38.86 362.5,-29.99"/>
<polygon fill="midnightblue" stroke="midnightblue" points="366,-29.75 362.5,-19.75 359,-29.75 366,-29.75"/>
</g>
<!-- Node9&#45;&gt;Node6 -->
<g id="edge10" class="edge">
<title>Node9&#45;&gt;Node6</title>
<path fill="none" stroke="midnightblue" d="M62.56,-112.44C81.07,-103.68 110.08,-89.94 131.36,-79.86"/>
<polygon fill="midnightblue" stroke="midnightblue" points="132.98,-82.96 140.52,-75.52 129.99,-76.63 132.98,-82.96"/>
</g>
<!-- Node9&#45;&gt;Node7 -->
<g id="edge9" class="edge">
<title>Node9&#45;&gt;Node7</title>
<path fill="none" stroke="midnightblue" d="M89.05,-113.43C144.83,-103.96 240.59,-87.7 302.71,-77.15"/>
<polygon fill="midnightblue" stroke="midnightblue" points="303.48,-80.57 312.76,-75.45 302.31,-73.67 303.48,-80.57"/>
</g>
<!-- Node10&#45;&gt;Node7 -->
<g id="edge12" class="edge">
<title>Node10&#45;&gt;Node7</title>
<path fill="none" stroke="midnightblue" d="M362.5,-112.08C362.5,-105.01 362.5,-94.86 362.5,-85.99"/>
<polygon fill="midnightblue" stroke="midnightblue" points="366,-85.75 362.5,-75.75 359,-85.75 366,-85.75"/>
</g>
<!-- Node11&#45;&gt;Node6 -->
<g id="edge14" class="edge">
<title>Node11&#45;&gt;Node6</title>
<path fill="none" stroke="midnightblue" d="M191.89,-112.08C186.24,-104.46 177.96,-93.26 171.05,-83.94"/>
<polygon fill="midnightblue" stroke="midnightblue" points="173.75,-81.7 164.98,-75.75 168.12,-85.87 173.75,-81.7"/>
</g>
<!-- Node12&#45;&gt;Node7 -->
<g id="edge18" class="edge">
<title>Node12&#45;&gt;Node7</title>
<path fill="none" stroke="midnightblue" d="M511.54,-224.22C516.04,-202.51 524.38,-145.65 497.5,-112 479.31,-89.22 449.2,-77.88 422.03,-72.27"/>
<polygon fill="midnightblue" stroke="midnightblue" points="422.65,-68.83 412.18,-70.46 421.38,-75.71 422.65,-68.83"/>
</g>
<!-- Node13&#45;&gt;Node2 -->
<g id="edge31" class="edge">
<title>Node13&#45;&gt;Node2</title>
<path fill="none" stroke="midnightblue" d="M270.14,-448.44C305.55,-439.16 362.21,-424.31 401.05,-414.13"/>
<polygon fill="midnightblue" stroke="midnightblue" points="402.23,-417.44 411.01,-411.52 400.45,-410.67 402.23,-417.44"/>
</g>
<!-- Node13&#45;&gt;Node3 -->
<g id="edge30" class="edge">
<title>Node13&#45;&gt;Node3</title>
<path fill="none" stroke="midnightblue" d="M246.84,-448.37C266.91,-429.81 314.4,-385.91 339.8,-362.44"/>
<polygon fill="midnightblue" stroke="midnightblue" points="342.24,-364.95 347.21,-355.59 337.49,-359.81 342.24,-364.95"/>
</g>
<!-- Node14 -->
<g id="node14" class="node">
<title>Node14</title>
<g id="a_node14"><a xlink:href="capability_8h_source.html" target="_top" xlink:title=" ">
<polygon fill="white" stroke="black" points="201.5,-392.5 201.5,-411.5 273.5,-411.5 273.5,-392.5 201.5,-392.5"/>
<text text-anchor="middle" x="237.5" y="-399.5" font-family="Helvetica,sans-Serif" font-size="10.00">capability.h</text>
</a>
</g>
</g>
<!-- Node13&#45;&gt;Node14 -->
<g id="edge20" class="edge">
<title>Node13&#45;&gt;Node14</title>
<path fill="none" stroke="midnightblue" d="M237.5,-448.08C237.5,-441.01 237.5,-430.86 237.5,-421.99"/>
<polygon fill="midnightblue" stroke="midnightblue" points="241,-421.75 237.5,-411.75 234,-421.75 241,-421.75"/>
</g>
<!-- Node14&#45;&gt;Node5 -->
<g id="edge22" class="edge">
<title>Node14&#45;&gt;Node5</title>
<path fill="none" stroke="midnightblue" d="M225.29,-392.24C215.15,-384.14 201.46,-371.11 195.5,-356 192.24,-347.73 193.34,-344.62 195.5,-336 209.41,-280.5 247.11,-223.19 266.93,-195.69"/>
<polygon fill="midnightblue" stroke="midnightblue" points="269.81,-197.69 272.91,-187.56 264.17,-193.55 269.81,-197.69"/>
</g>
<!-- Node14&#45;&gt;Node9 -->
<g id="edge21" class="edge">
<title>Node14&#45;&gt;Node9</title>
<path fill="none" stroke="midnightblue" d="M233.72,-392.35C226.08,-374.03 209.5,-329.82 209.5,-291 209.5,-291 209.5,-291 209.5,-233 209.5,-177.44 143.93,-148.22 95.46,-134.2"/>
<polygon fill="midnightblue" stroke="midnightblue" points="96.28,-130.8 85.71,-131.52 94.42,-137.55 96.28,-130.8"/>
</g>
<!-- Node15 -->
<g id="node15" class="node">
<title>Node15</title>
<g id="a_node15"><a xlink:href="l4_2sys_2task_8h.html" target="_top" xlink:title="Common task related definitions.">
<polygon fill="white" stroke="black" points="238.5,-336.5 238.5,-355.5 316.5,-355.5 316.5,-336.5 238.5,-336.5"/>
<text text-anchor="middle" x="277.5" y="-343.5" font-family="Helvetica,sans-Serif" font-size="10.00">l4/sys/task.h</text>
</a>
</g>
</g>
<!-- Node14&#45;&gt;Node15 -->
<g id="edge23" class="edge">
<title>Node14&#45;&gt;Node15</title>
<path fill="none" stroke="midnightblue" d="M244.11,-392.08C249.76,-384.46 258.04,-373.26 264.95,-363.94"/>
<polygon fill="midnightblue" stroke="midnightblue" points="267.88,-365.87 271.02,-355.75 262.25,-361.7 267.88,-365.87"/>
</g>
<!-- Node15&#45;&gt;Node4 -->
<g id="edge25" class="edge">
<title>Node15&#45;&gt;Node4</title>
<path fill="none" stroke="midnightblue" d="M316.5,-336.77C339.19,-330.2 366.89,-318.88 385.5,-300 397.89,-287.43 404.59,-268.21 408.07,-253.93"/>
<polygon fill="midnightblue" stroke="midnightblue" points="411.57,-254.26 410.21,-243.75 404.72,-252.82 411.57,-254.26"/>
</g>
<!-- Node15&#45;&gt;Node5 -->
<g id="edge24" class="edge">
<title>Node15&#45;&gt;Node5</title>
<path fill="none" stroke="midnightblue" d="M277.61,-336.08C277.92,-309.95 278.85,-233.21 279.28,-197.58"/>
<polygon fill="midnightblue" stroke="midnightblue" points="282.78,-197.61 279.4,-187.57 275.78,-197.53 282.78,-197.61"/>
</g>
<!-- Node16 -->
<g id="node16" class="node">
<title>Node16</title>
<g id="a_node16"><a xlink:href="l4_2sys_2ipc_8h.html" target="_top" xlink:title="Common IPC interface.">
<polygon fill="white" stroke="black" points="306,-280.5 306,-299.5 377,-299.5 377,-280.5 306,-280.5"/>
<text text-anchor="middle" x="341.5" y="-287.5" font-family="Helvetica,sans-Serif" font-size="10.00">l4/sys/ipc.h</text>
</a>
</g>
</g>
<!-- Node15&#45;&gt;Node16 -->
<g id="edge26" class="edge">
<title>Node15&#45;&gt;Node16</title>
<path fill="none" stroke="midnightblue" d="M287.78,-336.32C297.34,-328.26 311.78,-316.08 323.28,-306.37"/>
<polygon fill="midnightblue" stroke="midnightblue" points="325.64,-308.96 331.03,-299.83 321.13,-303.61 325.64,-308.96"/>
</g>
<!-- Node16&#45;&gt;Node4 -->
<g id="edge28" class="edge">
<title>Node16&#45;&gt;Node4</title>
<path fill="none" stroke="midnightblue" d="M352.75,-280.32C363.3,-272.18 379.3,-259.84 391.94,-250.09"/>
<polygon fill="midnightblue" stroke="midnightblue" points="394.27,-252.71 400.05,-243.83 389.99,-247.17 394.27,-252.71"/>
</g>
<!-- Node16&#45;&gt;Node5 -->
<g id="edge27" class="edge">
<title>Node16&#45;&gt;Node5</title>
<path fill="none" stroke="midnightblue" d="M336.63,-280.37C326.45,-262.3 302.71,-220.18 289.26,-196.31"/>
<polygon fill="midnightblue" stroke="midnightblue" points="292.3,-194.58 284.34,-187.59 286.2,-198.02 292.3,-194.58"/>
</g>
<!-- Node16&#45;&gt;Node12 -->
<g id="edge29" class="edge">
<title>Node16&#45;&gt;Node12</title>
<path fill="none" stroke="midnightblue" d="M368.12,-280.44C396.51,-271.32 441.64,-256.81 473.25,-246.65"/>
<polygon fill="midnightblue" stroke="midnightblue" points="474.56,-249.91 483,-243.52 472.41,-243.24 474.56,-249.91"/>
</g>
<!-- Node17&#45;&gt;Node2 -->
<g id="edge33" class="edge">
<title>Node17&#45;&gt;Node2</title>
<path fill="none" stroke="midnightblue" d="M409.83,-504.5C416.01,-495.78 425.24,-481.6 430.5,-468 436.28,-453.06 439.62,-435.14 441.46,-421.91"/>
<polygon fill="midnightblue" stroke="midnightblue" points="444.97,-422.03 442.72,-411.68 438.02,-421.17 444.97,-422.03"/>
</g>
<!-- Node17&#45;&gt;Node13 -->
<g id="edge34" class="edge">
<title>Node17&#45;&gt;Node13</title>
<path fill="none" stroke="midnightblue" d="M377.2,-504.44C349.15,-495.32 304.56,-480.81 273.32,-470.65"/>
<polygon fill="midnightblue" stroke="midnightblue" points="274.27,-467.28 263.68,-467.52 272.11,-473.94 274.27,-467.28"/>
</g>
<!-- Node17&#45;&gt;Node18 -->
<g id="edge35" class="edge">
<title>Node17&#45;&gt;Node18</title>
<path fill="none" stroke="midnightblue" d="M397.56,-504.08C392.52,-496.53 385.16,-485.49 378.99,-476.23"/>
<polygon fill="midnightblue" stroke="midnightblue" points="381.79,-474.13 373.33,-467.75 375.97,-478.01 381.79,-474.13"/>
</g>
<!-- Node18&#45;&gt;Node2 -->
<g id="edge37" class="edge">
<title>Node18&#45;&gt;Node2</title>
<path fill="none" stroke="midnightblue" d="M379.71,-448.32C391.28,-440.11 408.88,-427.6 422.66,-417.81"/>
<polygon fill="midnightblue" stroke="midnightblue" points="424.94,-420.48 431.07,-411.83 420.89,-414.77 424.94,-420.48"/>
</g>
<!-- Node18&#45;&gt;Node3 -->
<g id="edge36" class="edge">
<title>Node18&#45;&gt;Node3</title>
<path fill="none" stroke="midnightblue" d="M366.64,-448.37C364.86,-430.62 360.77,-389.67 358.36,-365.6"/>
<polygon fill="midnightblue" stroke="midnightblue" points="361.84,-365.19 357.36,-355.59 354.87,-365.89 361.84,-365.19"/>
</g>
<!-- Node18&#45;&gt;Node14 -->
<g id="edge38" class="edge">
<title>Node18&#45;&gt;Node14</title>
<path fill="none" stroke="midnightblue" d="M346.9,-448.44C325.51,-439.56 291.82,-425.56 267.48,-415.45"/>
<polygon fill="midnightblue" stroke="midnightblue" points="268.58,-412.12 258,-411.52 265.89,-418.58 268.58,-412.12"/>
</g>
</g>
</svg>
