<?xml version="1.0" encoding="UTF-8" standalone="no"?>
<!DOCTYPE svg PUBLIC "-//W3C//DTD SVG 1.1//EN"
 "http://www.w3.org/Graphics/SVG/1.1/DTD/svg11.dtd">
<!-- Generated by graphviz version 2.43.0 (0)
 -->
<!-- Title: l4/sys/cxx/ipc_iface Pages: 1 -->
<svg width="543pt" height="532pt"
 viewBox="0.00 0.00 542.54 532.00" xmlns="http://www.w3.org/2000/svg" xmlns:xlink="http://www.w3.org/1999/xlink">
<g id="graph0" class="graph" transform="scale(1 1) rotate(0) translate(4 528)">
<title>l4/sys/cxx/ipc_iface</title>
<polygon fill="white" stroke="transparent" points="-4,4 -4,-528 538.54,-528 538.54,4 -4,4"/>
<!-- Node1 -->
<g id="node1" class="node">
<title>Node1</title>
<g id="a_node1"><a xlink:title="Interface Definition Language.">
<polygon fill="#bfbfbf" stroke="black" points="334.54,-504.5 334.54,-523.5 446.54,-523.5 446.54,-504.5 334.54,-504.5"/>
<text text-anchor="middle" x="390.54" y="-511.5" font-family="Helvetica,sans-Serif" font-size="10.00">l4/sys/cxx/ipc_iface</text>
</a>
</g>
</g>
<!-- Node2 -->
<g id="node2" class="node">
<title>Node2</title>
<g id="a_node2"><a xlink:href="ipc__basics_source.html" target="_top" xlink:title=" ">
<polygon fill="white" stroke="black" points="407.04,-392.5 407.04,-411.5 526.04,-411.5 526.04,-392.5 407.04,-392.5"/>
<text text-anchor="middle" x="466.54" y="-399.5" font-family="Helvetica,sans-Serif" font-size="10.00">l4/sys/cxx/ipc_basics</text>
</a>
</g>
</g>
<!-- Node1&#45;&gt;Node2 -->
<g id="edge1" class="edge">
<title>Node1&#45;&gt;Node2</title>
<path fill="none" stroke="midnightblue" d="M409.25,-504.5C423.64,-496.97 442.82,-484.59 453.54,-468 462.43,-454.26 465.46,-435.73 466.39,-421.97"/>
<polygon fill="midnightblue" stroke="midnightblue" points="469.9,-421.87 466.76,-411.74 462.9,-421.61 469.9,-421.87"/>
</g>
<!-- Node13 -->
<g id="node13" class="node">
<title>Node13</title>
<g id="a_node13"><a xlink:href="ipc__types.html" target="_top" xlink:title=" ">
<polygon fill="white" stroke="black" points="203.04,-448.5 203.04,-467.5 318.04,-467.5 318.04,-448.5 203.04,-448.5"/>
<text text-anchor="middle" x="260.54" y="-455.5" font-family="Helvetica,sans-Serif" font-size="10.00">l4/sys/cxx/ipc_types</text>
</a>
</g>
</g>
<!-- Node1&#45;&gt;Node13 -->
<g id="edge19" class="edge">
<title>Node1&#45;&gt;Node13</title>
<path fill="none" stroke="midnightblue" d="M369.95,-504.44C348.55,-495.56 314.86,-481.56 290.52,-471.45"/>
<polygon fill="midnightblue" stroke="midnightblue" points="291.62,-468.12 281.05,-467.52 288.94,-474.58 291.62,-468.12"/>
</g>
<!-- Node17 -->
<g id="node17" class="node">
<title>Node17</title>
<g id="a_node17"><a xlink:href="____typeinfo_8h.html" target="_top" xlink:title="Type information handling.">
<polygon fill="white" stroke="black" points="336.54,-448.5 336.54,-467.5 444.54,-467.5 444.54,-448.5 336.54,-448.5"/>
<text text-anchor="middle" x="390.54" y="-455.5" font-family="Helvetica,sans-Serif" font-size="10.00">l4/sys/__typeinfo.h</text>
</a>
</g>
</g>
<!-- Node1&#45;&gt;Node17 -->
<g id="edge32" class="edge">
<title>Node1&#45;&gt;Node17</title>
<path fill="none" stroke="midnightblue" d="M390.54,-504.08C390.54,-497.01 390.54,-486.86 390.54,-477.99"/>
<polygon fill="midnightblue" stroke="midnightblue" points="394.04,-477.75 390.54,-467.75 387.04,-477.75 394.04,-477.75"/>
</g>
<!-- Node3 -->
<g id="node3" class="node">
<title>Node3</title>
<g id="a_node3"><a xlink:href="types.html" target="_top" xlink:title=" ">
<polygon fill="white" stroke="black" points="367.54,-336.5 367.54,-355.5 411.54,-355.5 411.54,-336.5 367.54,-336.5"/>
<text text-anchor="middle" x="389.54" y="-343.5" font-family="Helvetica,sans-Serif" font-size="10.00">types</text>
</a>
</g>
</g>
<!-- Node2&#45;&gt;Node3 -->
<g id="edge2" class="edge">
<title>Node2&#45;&gt;Node3</title>
<path fill="none" stroke="midnightblue" d="M454.17,-392.32C442.39,-384.06 424.41,-371.45 410.41,-361.63"/>
<polygon fill="midnightblue" stroke="midnightblue" points="412.08,-358.53 401.89,-355.65 408.06,-364.26 412.08,-358.53"/>
</g>
<!-- Node4 -->
<g id="node4" class="node">
<title>Node4</title>
<g id="a_node4"><a xlink:href="l4_2sys_2utcb_8h.html" target="_top" xlink:title="UTCB definitions.">
<polygon fill="white" stroke="black" points="368.54,-224.5 368.54,-243.5 446.54,-243.5 446.54,-224.5 368.54,-224.5"/>
<text text-anchor="middle" x="407.54" y="-231.5" font-family="Helvetica,sans-Serif" font-size="10.00">l4/sys/utcb.h</text>
</a>
</g>
</g>
<!-- Node2&#45;&gt;Node4 -->
<g id="edge3" class="edge">
<title>Node2&#45;&gt;Node4</title>
<path fill="none" stroke="midnightblue" d="M463.37,-392.08C454.05,-365.83 426.58,-288.55 413.98,-253.12"/>
<polygon fill="midnightblue" stroke="midnightblue" points="417.24,-251.82 410.59,-243.57 410.64,-254.16 417.24,-251.82"/>
</g>
<!-- Node12 -->
<g id="node12" class="node">
<title>Node12</title>
<g id="a_node12"><a xlink:href="err_8h.html" target="_top" xlink:title="Error codes.">
<polygon fill="white" stroke="black" points="464.54,-224.5 464.54,-243.5 534.54,-243.5 534.54,-224.5 464.54,-224.5"/>
<text text-anchor="middle" x="499.54" y="-231.5" font-family="Helvetica,sans-Serif" font-size="10.00">l4/sys/err.h</text>
</a>
</g>
</g>
<!-- Node2&#45;&gt;Node12 -->
<g id="edge17" class="edge">
<title>Node2&#45;&gt;Node12</title>
<path fill="none" stroke="midnightblue" d="M468.32,-392.08C473.51,-365.95 488.77,-289.21 495.85,-253.58"/>
<polygon fill="midnightblue" stroke="midnightblue" points="499.32,-254.06 497.84,-243.57 492.46,-252.69 499.32,-254.06"/>
</g>
<!-- Node5 -->
<g id="node5" class="node">
<title>Node5</title>
<g id="a_node5"><a xlink:href="l4_2sys_2types_8h.html" target="_top" xlink:title="Common L4 ABI Data Types.">
<polygon fill="white" stroke="black" points="239.54,-168.5 239.54,-187.5 323.54,-187.5 323.54,-168.5 239.54,-168.5"/>
<text text-anchor="middle" x="281.54" y="-175.5" font-family="Helvetica,sans-Serif" font-size="10.00">l4/sys/types.h</text>
</a>
</g>
</g>
<!-- Node4&#45;&gt;Node5 -->
<g id="edge4" class="edge">
<title>Node4&#45;&gt;Node5</title>
<path fill="none" stroke="midnightblue" d="M387.58,-224.44C366.94,-215.6 334.48,-201.69 310.91,-191.59"/>
<polygon fill="midnightblue" stroke="midnightblue" points="311.99,-188.24 301.42,-187.52 309.23,-194.67 311.99,-188.24"/>
</g>
<!-- Node6 -->
<g id="node6" class="node">
<title>Node6</title>
<g id="a_node6"><a xlink:href="l4_2sys_2l4int_8h.html" target="_top" xlink:title="Fixed sized integer types, generic version.">
<polygon fill="white" stroke="black" points="87.04,-56.5 87.04,-75.5 166.04,-75.5 166.04,-56.5 87.04,-56.5"/>
<text text-anchor="middle" x="126.54" y="-63.5" font-family="Helvetica,sans-Serif" font-size="10.00">l4/sys/l4int.h</text>
</a>
</g>
</g>
<!-- Node4&#45;&gt;Node6 -->
<g id="edge16" class="edge">
<title>Node4&#45;&gt;Node6</title>
<path fill="none" stroke="midnightblue" d="M407.41,-224.38C406.57,-202.05 401.05,-141.95 366.54,-112 338.77,-87.9 238.45,-75.8 176.64,-70.5"/>
<polygon fill="midnightblue" stroke="midnightblue" points="176.57,-66.98 166.32,-69.65 176,-73.96 176.57,-66.98"/>
</g>
<!-- Node7 -->
<g id="node7" class="node">
<title>Node7</title>
<g id="a_node7"><a xlink:href="compiler_8h.html" target="_top" xlink:title="L4 compiler related defines.">
<polygon fill="white" stroke="black" points="336.04,-56.5 336.04,-75.5 435.04,-75.5 435.04,-56.5 336.04,-56.5"/>
<text text-anchor="middle" x="385.54" y="-63.5" font-family="Helvetica,sans-Serif" font-size="10.00">l4/sys/compiler.h</text>
</a>
</g>
</g>
<!-- Node4&#45;&gt;Node7 -->
<g id="edge15" class="edge">
<title>Node4&#45;&gt;Node7</title>
<path fill="none" stroke="midnightblue" d="M415.76,-224.18C423.09,-215.66 433.3,-202.02 437.54,-188 447.33,-155.67 451.59,-142.72 437.54,-112 431.77,-99.36 420.49,-88.91 409.91,-81.27"/>
<polygon fill="midnightblue" stroke="midnightblue" points="411.59,-78.18 401.33,-75.53 407.7,-84 411.59,-78.18"/>
</g>
<!-- Node5&#45;&gt;Node6 -->
<g id="edge5" class="edge">
<title>Node5&#45;&gt;Node6</title>
<path fill="none" stroke="midnightblue" d="M239.32,-176.48C169.78,-174.64 35.91,-166.56 6.54,-132 -17.79,-103.36 34.12,-85.25 77.12,-75.62"/>
<polygon fill="midnightblue" stroke="midnightblue" points="77.91,-79.03 86.97,-73.53 76.46,-72.19 77.91,-79.03"/>
</g>
<!-- Node5&#45;&gt;Node7 -->
<g id="edge6" class="edge">
<title>Node5&#45;&gt;Node7</title>
<path fill="none" stroke="midnightblue" d="M310.2,-168.36C328.76,-161.37 352.09,-149.73 366.54,-132 377.33,-118.77 382,-99.64 384.01,-85.56"/>
<polygon fill="midnightblue" stroke="midnightblue" points="387.5,-85.88 385.13,-75.55 380.54,-85.11 387.5,-85.88"/>
</g>
<!-- Node9 -->
<g id="node9" class="node">
<title>Node9</title>
<g id="a_node9"><a xlink:href="l4_2sys_2consts_8h.html" target="_top" xlink:title="Common constants.">
<polygon fill="white" stroke="black" points="140.04,-112.5 140.04,-131.5 229.04,-131.5 229.04,-112.5 140.04,-112.5"/>
<text text-anchor="middle" x="184.54" y="-119.5" font-family="Helvetica,sans-Serif" font-size="10.00">l4/sys/consts.h</text>
</a>
</g>
</g>
<!-- Node5&#45;&gt;Node9 -->
<g id="edge8" class="edge">
<title>Node5&#45;&gt;Node9</title>
<path fill="none" stroke="midnightblue" d="M265.96,-168.32C250.55,-159.74 226.73,-146.49 208.84,-136.52"/>
<polygon fill="midnightblue" stroke="midnightblue" points="210.53,-133.46 200.09,-131.65 207.13,-139.58 210.53,-133.46"/>
</g>
<!-- Node10 -->
<g id="node10" class="node">
<title>Node10</title>
<g id="a_node10"><a xlink:href="____l4__fpage_8h_source.html" target="_top" xlink:title=" ">
<polygon fill="white" stroke="black" points="247.54,-112.5 247.54,-131.5 357.54,-131.5 357.54,-112.5 247.54,-112.5"/>
<text text-anchor="middle" x="302.54" y="-119.5" font-family="Helvetica,sans-Serif" font-size="10.00">l4/sys/__l4_fpage.h</text>
</a>
</g>
</g>
<!-- Node5&#45;&gt;Node10 -->
<g id="edge11" class="edge">
<title>Node5&#45;&gt;Node10</title>
<path fill="none" stroke="midnightblue" d="M285.01,-168.08C287.86,-160.77 291.97,-150.18 295.5,-141.1"/>
<polygon fill="midnightblue" stroke="midnightblue" points="298.78,-142.34 299.14,-131.75 292.26,-139.8 298.78,-142.34"/>
</g>
<!-- Node11 -->
<g id="node11" class="node">
<title>Node11</title>
<g id="a_node11"><a xlink:href="____timeout_8h_source.html" target="_top" xlink:title=" ">
<polygon fill="white" stroke="black" points="15.54,-112.5 15.54,-131.5 121.54,-131.5 121.54,-112.5 15.54,-112.5"/>
<text text-anchor="middle" x="68.54" y="-119.5" font-family="Helvetica,sans-Serif" font-size="10.00">l4/sys/__timeout.h</text>
</a>
</g>
</g>
<!-- Node5&#45;&gt;Node11 -->
<g id="edge13" class="edge">
<title>Node5&#45;&gt;Node11</title>
<path fill="none" stroke="midnightblue" d="M247.79,-168.44C211.03,-159.12 152.1,-144.18 111.92,-134"/>
<polygon fill="midnightblue" stroke="midnightblue" points="112.69,-130.58 102.14,-131.52 110.97,-137.37 112.69,-130.58"/>
</g>
<!-- Node8 -->
<g id="node8" class="node">
<title>Node8</title>
<g id="a_node8"><a xlink:title=" ">
<polygon fill="white" stroke="#bfbfbf" points="339.54,-0.5 339.54,-19.5 431.54,-19.5 431.54,-0.5 339.54,-0.5"/>
<text text-anchor="middle" x="385.54" y="-7.5" font-family="Helvetica,sans-Serif" font-size="10.00">l4/sys/linkage.h</text>
</a>
</g>
</g>
<!-- Node7&#45;&gt;Node8 -->
<g id="edge7" class="edge">
<title>Node7&#45;&gt;Node8</title>
<path fill="none" stroke="midnightblue" d="M385.54,-56.08C385.54,-49.01 385.54,-38.86 385.54,-29.99"/>
<polygon fill="midnightblue" stroke="midnightblue" points="389.04,-29.75 385.54,-19.75 382.04,-29.75 389.04,-29.75"/>
</g>
<!-- Node9&#45;&gt;Node6 -->
<g id="edge10" class="edge">
<title>Node9&#45;&gt;Node6</title>
<path fill="none" stroke="midnightblue" d="M175.23,-112.32C166.65,-104.34 153.73,-92.31 143.36,-82.65"/>
<polygon fill="midnightblue" stroke="midnightblue" points="145.74,-80.09 136.03,-75.83 140.97,-85.21 145.74,-80.09"/>
</g>
<!-- Node9&#45;&gt;Node7 -->
<g id="edge9" class="edge">
<title>Node9&#45;&gt;Node7</title>
<path fill="none" stroke="midnightblue" d="M216.39,-112.44C250.94,-103.16 306.23,-88.31 344.13,-78.13"/>
<polygon fill="midnightblue" stroke="midnightblue" points="345.1,-81.49 353.84,-75.52 343.28,-74.73 345.1,-81.49"/>
</g>
<!-- Node10&#45;&gt;Node7 -->
<g id="edge12" class="edge">
<title>Node10&#45;&gt;Node7</title>
<path fill="none" stroke="midnightblue" d="M315.88,-112.32C328.71,-103.98 348.33,-91.21 363.48,-81.35"/>
<polygon fill="midnightblue" stroke="midnightblue" points="365.77,-84.04 372.24,-75.65 361.95,-78.17 365.77,-84.04"/>
</g>
<!-- Node11&#45;&gt;Node6 -->
<g id="edge14" class="edge">
<title>Node11&#45;&gt;Node6</title>
<path fill="none" stroke="midnightblue" d="M77.86,-112.32C86.44,-104.34 99.36,-92.31 109.73,-82.65"/>
<polygon fill="midnightblue" stroke="midnightblue" points="112.12,-85.21 117.06,-75.83 107.35,-80.09 112.12,-85.21"/>
</g>
<!-- Node12&#45;&gt;Node7 -->
<g id="edge18" class="edge">
<title>Node12&#45;&gt;Node7</title>
<path fill="none" stroke="midnightblue" d="M498.26,-224.47C494.72,-203.34 483.1,-147.71 454.54,-112 443.88,-98.66 428.14,-87.97 414.39,-80.36"/>
<polygon fill="midnightblue" stroke="midnightblue" points="415.76,-77.13 405.28,-75.6 412.52,-83.33 415.76,-77.13"/>
</g>
<!-- Node13&#45;&gt;Node2 -->
<g id="edge31" class="edge">
<title>Node13&#45;&gt;Node2</title>
<path fill="none" stroke="midnightblue" d="M293.19,-448.44C328.59,-439.16 385.25,-424.31 424.1,-414.13"/>
<polygon fill="midnightblue" stroke="midnightblue" points="425.27,-417.44 434.06,-411.52 423.5,-410.67 425.27,-417.44"/>
</g>
<!-- Node13&#45;&gt;Node3 -->
<g id="edge30" class="edge">
<title>Node13&#45;&gt;Node3</title>
<path fill="none" stroke="midnightblue" d="M270.67,-448.37C292.52,-429.73 344.36,-385.53 371.8,-362.13"/>
<polygon fill="midnightblue" stroke="midnightblue" points="374.13,-364.74 379.47,-355.59 369.59,-359.42 374.13,-364.74"/>
</g>
<!-- Node14 -->
<g id="node14" class="node">
<title>Node14</title>
<g id="a_node14"><a xlink:href="capability_8h_source.html" target="_top" xlink:title=" ">
<polygon fill="white" stroke="black" points="224.54,-392.5 224.54,-411.5 296.54,-411.5 296.54,-392.5 224.54,-392.5"/>
<text text-anchor="middle" x="260.54" y="-399.5" font-family="Helvetica,sans-Serif" font-size="10.00">capability.h</text>
</a>
</g>
</g>
<!-- Node13&#45;&gt;Node14 -->
<g id="edge20" class="edge">
<title>Node13&#45;&gt;Node14</title>
<path fill="none" stroke="midnightblue" d="M260.54,-448.08C260.54,-441.01 260.54,-430.86 260.54,-421.99"/>
<polygon fill="midnightblue" stroke="midnightblue" points="264.04,-421.75 260.54,-411.75 257.04,-421.75 264.04,-421.75"/>
</g>
<!-- Node14&#45;&gt;Node5 -->
<g id="edge22" class="edge">
<title>Node14&#45;&gt;Node5</title>
<path fill="none" stroke="midnightblue" d="M260.57,-392.16C260.65,-379.64 261.03,-356.04 262.54,-336 266.33,-285.97 274.4,-227.37 278.7,-197.92"/>
<polygon fill="midnightblue" stroke="midnightblue" points="282.19,-198.23 280.19,-187.83 275.27,-197.2 282.19,-198.23"/>
</g>
<!-- Node14&#45;&gt;Node9 -->
<g id="edge21" class="edge">
<title>Node14&#45;&gt;Node9</title>
<path fill="none" stroke="midnightblue" d="M249.61,-392.3C229.47,-375.2 188.54,-335.05 188.54,-291 188.54,-291 188.54,-291 188.54,-233 188.54,-200.93 186.83,-163.63 185.64,-141.74"/>
<polygon fill="midnightblue" stroke="midnightblue" points="189.12,-141.34 185.07,-131.55 182.14,-141.73 189.12,-141.34"/>
</g>
<!-- Node15 -->
<g id="node15" class="node">
<title>Node15</title>
<g id="a_node15"><a xlink:href="l4_2sys_2task_8h.html" target="_top" xlink:title="Common task related definitions.">
<polygon fill="white" stroke="black" points="271.54,-336.5 271.54,-355.5 349.54,-355.5 349.54,-336.5 271.54,-336.5"/>
<text text-anchor="middle" x="310.54" y="-343.5" font-family="Helvetica,sans-Serif" font-size="10.00">l4/sys/task.h</text>
</a>
</g>
</g>
<!-- Node14&#45;&gt;Node15 -->
<g id="edge23" class="edge">
<title>Node14&#45;&gt;Node15</title>
<path fill="none" stroke="midnightblue" d="M268.8,-392.08C276.01,-384.3 286.65,-372.8 295.39,-363.37"/>
<polygon fill="midnightblue" stroke="midnightblue" points="298.22,-365.47 302.44,-355.75 293.08,-360.71 298.22,-365.47"/>
</g>
<!-- Node15&#45;&gt;Node4 -->
<g id="edge25" class="edge">
<title>Node15&#45;&gt;Node4</title>
<path fill="none" stroke="midnightblue" d="M336.92,-336.38C354.59,-329.3 377.01,-317.54 390.54,-300 400.79,-286.72 404.89,-267.86 406.51,-253.87"/>
<polygon fill="midnightblue" stroke="midnightblue" points="410.04,-253.76 407.38,-243.5 403.06,-253.17 410.04,-253.76"/>
</g>
<!-- Node15&#45;&gt;Node5 -->
<g id="edge24" class="edge">
<title>Node15&#45;&gt;Node5</title>
<path fill="none" stroke="midnightblue" d="M308.73,-336.39C306.85,-327.34 303.86,-312.7 301.54,-300 294.94,-263.82 288.14,-221.38 284.42,-197.59"/>
<polygon fill="midnightblue" stroke="midnightblue" points="287.85,-196.87 282.85,-187.53 280.93,-197.94 287.85,-196.87"/>
</g>
<!-- Node16 -->
<g id="node16" class="node">
<title>Node16</title>
<g id="a_node16"><a xlink:href="l4_2sys_2ipc_8h.html" target="_top" xlink:title="Common IPC interface.">
<polygon fill="white" stroke="black" points="310.04,-280.5 310.04,-299.5 381.04,-299.5 381.04,-280.5 310.04,-280.5"/>
<text text-anchor="middle" x="345.54" y="-287.5" font-family="Helvetica,sans-Serif" font-size="10.00">l4/sys/ipc.h</text>
</a>
</g>
</g>
<!-- Node15&#45;&gt;Node16 -->
<g id="edge26" class="edge">
<title>Node15&#45;&gt;Node16</title>
<path fill="none" stroke="midnightblue" d="M316.32,-336.08C321.22,-328.53 328.37,-317.49 334.38,-308.23"/>
<polygon fill="midnightblue" stroke="midnightblue" points="337.37,-310.05 339.87,-299.75 331.5,-306.24 337.37,-310.05"/>
</g>
<!-- Node16&#45;&gt;Node4 -->
<g id="edge28" class="edge">
<title>Node16&#45;&gt;Node4</title>
<path fill="none" stroke="midnightblue" d="M355.51,-280.32C364.67,-272.34 378.48,-260.31 389.57,-250.65"/>
<polygon fill="midnightblue" stroke="midnightblue" points="392.16,-253.04 397.4,-243.83 387.56,-247.76 392.16,-253.04"/>
</g>
<!-- Node16&#45;&gt;Node5 -->
<g id="edge27" class="edge">
<title>Node16&#45;&gt;Node5</title>
<path fill="none" stroke="midnightblue" d="M340.52,-280.37C330.01,-262.3 305.5,-220.18 291.61,-196.31"/>
<polygon fill="midnightblue" stroke="midnightblue" points="294.6,-194.47 286.54,-187.59 288.55,-198 294.6,-194.47"/>
</g>
<!-- Node16&#45;&gt;Node12 -->
<g id="edge29" class="edge">
<title>Node16&#45;&gt;Node12</title>
<path fill="none" stroke="midnightblue" d="M369.95,-280.44C395.74,-271.4 436.62,-257.06 465.56,-246.92"/>
<polygon fill="midnightblue" stroke="midnightblue" points="466.98,-250.13 475.26,-243.52 464.66,-243.52 466.98,-250.13"/>
</g>
<!-- Node17&#45;&gt;Node2 -->
<g id="edge34" class="edge">
<title>Node17&#45;&gt;Node2</title>
<path fill="none" stroke="midnightblue" d="M402.76,-448.32C414.32,-440.11 431.92,-427.6 445.71,-417.81"/>
<polygon fill="midnightblue" stroke="midnightblue" points="447.99,-420.48 454.11,-411.83 443.93,-414.77 447.99,-420.48"/>
</g>
<!-- Node17&#45;&gt;Node3 -->
<g id="edge33" class="edge">
<title>Node17&#45;&gt;Node3</title>
<path fill="none" stroke="midnightblue" d="M390.47,-448.37C390.3,-430.62 389.93,-389.67 389.71,-365.6"/>
<polygon fill="midnightblue" stroke="midnightblue" points="393.21,-365.56 389.62,-355.59 386.21,-365.62 393.21,-365.56"/>
</g>
<!-- Node17&#45;&gt;Node14 -->
<g id="edge35" class="edge">
<title>Node17&#45;&gt;Node14</title>
<path fill="none" stroke="midnightblue" d="M369.95,-448.44C348.55,-439.56 314.86,-425.56 290.52,-415.45"/>
<polygon fill="midnightblue" stroke="midnightblue" points="291.62,-412.12 281.05,-411.52 288.94,-418.58 291.62,-412.12"/>
</g>
</g>
</svg>
