<?xml version="1.0" encoding="UTF-8" standalone="no"?>
<!DOCTYPE svg PUBLIC "-//W3C//DTD SVG 1.1//EN"
 "http://www.w3.org/Graphics/SVG/1.1/DTD/svg11.dtd">
<!-- Generated by graphviz version 2.43.0 (0)
 -->
<!-- Title: l4/sys/cxx/ipc_types Pages: 1 -->
<svg width="565pt" height="476pt"
 viewBox="0.00 0.00 564.50 476.00" xmlns="http://www.w3.org/2000/svg" xmlns:xlink="http://www.w3.org/1999/xlink">
<g id="graph0" class="graph" transform="scale(1 1) rotate(0) translate(4 472)">
<title>l4/sys/cxx/ipc_types</title>
<polygon fill="white" stroke="transparent" points="-4,4 -4,-472 560.5,-472 560.5,4 -4,4"/>
<!-- Node1 -->
<g id="node1" class="node">
<title>Node1</title>
<g id="a_node1"><a xlink:title=" ">
<polygon fill="#bfbfbf" stroke="black" points="275,-448.5 275,-467.5 390,-467.5 390,-448.5 275,-448.5"/>
<text text-anchor="middle" x="332.5" y="-455.5" font-family="Helvetica,sans-Serif" font-size="10.00">l4/sys/cxx/ipc_types</text>
</a>
</g>
</g>
<!-- Node2 -->
<g id="node2" class="node">
<title>Node2</title>
<g id="a_node2"><a xlink:href="capability_8h_source.html" target="_top" xlink:title=" ">
<polygon fill="white" stroke="black" points="196.5,-392.5 196.5,-411.5 268.5,-411.5 268.5,-392.5 196.5,-392.5"/>
<text text-anchor="middle" x="232.5" y="-399.5" font-family="Helvetica,sans-Serif" font-size="10.00">capability.h</text>
</a>
</g>
</g>
<!-- Node1&#45;&gt;Node2 -->
<g id="edge1" class="edge">
<title>Node1&#45;&gt;Node2</title>
<path fill="none" stroke="midnightblue" d="M316.43,-448.32C300.54,-439.74 275.99,-426.49 257.54,-416.52"/>
<polygon fill="midnightblue" stroke="midnightblue" points="258.99,-413.33 248.53,-411.65 255.66,-419.49 258.99,-413.33"/>
</g>
<!-- Node14 -->
<g id="node14" class="node">
<title>Node14</title>
<g id="a_node14"><a xlink:href="types.html" target="_top" xlink:title=" ">
<polygon fill="white" stroke="black" points="322.5,-336.5 322.5,-355.5 366.5,-355.5 366.5,-336.5 322.5,-336.5"/>
<text text-anchor="middle" x="344.5" y="-343.5" font-family="Helvetica,sans-Serif" font-size="10.00">types</text>
</a>
</g>
</g>
<!-- Node1&#45;&gt;Node14 -->
<g id="edge25" class="edge">
<title>Node1&#45;&gt;Node14</title>
<path fill="none" stroke="midnightblue" d="M333.44,-448.37C335.38,-430.62 339.85,-389.67 342.47,-365.6"/>
<polygon fill="midnightblue" stroke="midnightblue" points="345.96,-365.91 343.56,-355.59 339,-365.15 345.96,-365.91"/>
</g>
<!-- Node15 -->
<g id="node15" class="node">
<title>Node15</title>
<g id="a_node15"><a xlink:href="ipc__basics_source.html" target="_top" xlink:title=" ">
<polygon fill="white" stroke="black" points="361,-392.5 361,-411.5 428,-411.5 428,-392.5 361,-392.5"/>
<text text-anchor="middle" x="394.5" y="-399.5" font-family="Helvetica,sans-Serif" font-size="10.00">ipc_basics</text>
</a>
</g>
</g>
<!-- Node1&#45;&gt;Node15 -->
<g id="edge26" class="edge">
<title>Node1&#45;&gt;Node15</title>
<path fill="none" stroke="midnightblue" d="M342.46,-448.32C351.63,-440.34 365.44,-428.31 376.53,-418.65"/>
<polygon fill="midnightblue" stroke="midnightblue" points="379.12,-421.04 384.36,-411.83 374.52,-415.76 379.12,-421.04"/>
</g>
<!-- Node3 -->
<g id="node3" class="node">
<title>Node3</title>
<g id="a_node3"><a xlink:href="l4_2sys_2consts_8h.html" target="_top" xlink:title="Common constants.">
<polygon fill="white" stroke="black" points="0,-112.5 0,-131.5 89,-131.5 89,-112.5 0,-112.5"/>
<text text-anchor="middle" x="44.5" y="-119.5" font-family="Helvetica,sans-Serif" font-size="10.00">l4/sys/consts.h</text>
</a>
</g>
</g>
<!-- Node2&#45;&gt;Node3 -->
<g id="edge2" class="edge">
<title>Node2&#45;&gt;Node3</title>
<path fill="none" stroke="midnightblue" d="M206.82,-392.47C168.93,-378.07 102.5,-345.1 102.5,-291 102.5,-291 102.5,-291 102.5,-233 102.5,-196.16 76.73,-159.57 59.55,-139.25"/>
<polygon fill="midnightblue" stroke="midnightblue" points="62.04,-136.79 52.81,-131.59 56.79,-141.41 62.04,-136.79"/>
</g>
<!-- Node7 -->
<g id="node7" class="node">
<title>Node7</title>
<g id="a_node7"><a xlink:href="l4_2sys_2types_8h.html" target="_top" xlink:title="Common L4 ABI Data Types.">
<polygon fill="white" stroke="black" points="223.5,-168.5 223.5,-187.5 307.5,-187.5 307.5,-168.5 223.5,-168.5"/>
<text text-anchor="middle" x="265.5" y="-175.5" font-family="Helvetica,sans-Serif" font-size="10.00">l4/sys/types.h</text>
</a>
</g>
</g>
<!-- Node2&#45;&gt;Node7 -->
<g id="edge6" class="edge">
<title>Node2&#45;&gt;Node7</title>
<path fill="none" stroke="midnightblue" d="M228.64,-392.25C224.94,-383.33 219.61,-369.01 217.5,-356 216.08,-347.23 216.19,-344.79 217.5,-336 225.23,-284.26 246.55,-226 258,-197.17"/>
<polygon fill="midnightblue" stroke="midnightblue" points="261.35,-198.22 261.86,-187.64 254.86,-195.6 261.35,-198.22"/>
</g>
<!-- Node10 -->
<g id="node10" class="node">
<title>Node10</title>
<g id="a_node10"><a xlink:href="l4_2sys_2task_8h.html" target="_top" xlink:title="Common task related definitions.">
<polygon fill="white" stroke="black" points="226.5,-336.5 226.5,-355.5 304.5,-355.5 304.5,-336.5 226.5,-336.5"/>
<text text-anchor="middle" x="265.5" y="-343.5" font-family="Helvetica,sans-Serif" font-size="10.00">l4/sys/task.h</text>
</a>
</g>
</g>
<!-- Node2&#45;&gt;Node10 -->
<g id="edge14" class="edge">
<title>Node2&#45;&gt;Node10</title>
<path fill="none" stroke="midnightblue" d="M237.95,-392.08C242.51,-384.61 249.17,-373.72 254.79,-364.52"/>
<polygon fill="midnightblue" stroke="midnightblue" points="257.92,-366.11 260.15,-355.75 251.95,-362.46 257.92,-366.11"/>
</g>
<!-- Node4 -->
<g id="node4" class="node">
<title>Node4</title>
<g id="a_node4"><a xlink:href="compiler_8h.html" target="_top" xlink:title="L4 compiler related defines.">
<polygon fill="white" stroke="black" points="313,-56.5 313,-75.5 412,-75.5 412,-56.5 313,-56.5"/>
<text text-anchor="middle" x="362.5" y="-63.5" font-family="Helvetica,sans-Serif" font-size="10.00">l4/sys/compiler.h</text>
</a>
</g>
</g>
<!-- Node3&#45;&gt;Node4 -->
<g id="edge3" class="edge">
<title>Node3&#45;&gt;Node4</title>
<path fill="none" stroke="midnightblue" d="M89.05,-113.43C144.83,-103.96 240.59,-87.7 302.71,-77.15"/>
<polygon fill="midnightblue" stroke="midnightblue" points="303.48,-80.57 312.76,-75.45 302.31,-73.67 303.48,-80.57"/>
</g>
<!-- Node6 -->
<g id="node6" class="node">
<title>Node6</title>
<g id="a_node6"><a xlink:href="l4_2sys_2l4int_8h.html" target="_top" xlink:title="Fixed sized integer types, generic version.">
<polygon fill="white" stroke="black" points="119,-56.5 119,-75.5 198,-75.5 198,-56.5 119,-56.5"/>
<text text-anchor="middle" x="158.5" y="-63.5" font-family="Helvetica,sans-Serif" font-size="10.00">l4/sys/l4int.h</text>
</a>
</g>
</g>
<!-- Node3&#45;&gt;Node6 -->
<g id="edge5" class="edge">
<title>Node3&#45;&gt;Node6</title>
<path fill="none" stroke="midnightblue" d="M62.56,-112.44C81.07,-103.68 110.08,-89.94 131.36,-79.86"/>
<polygon fill="midnightblue" stroke="midnightblue" points="132.98,-82.96 140.52,-75.52 129.99,-76.63 132.98,-82.96"/>
</g>
<!-- Node5 -->
<g id="node5" class="node">
<title>Node5</title>
<g id="a_node5"><a xlink:title=" ">
<polygon fill="white" stroke="#bfbfbf" points="316.5,-0.5 316.5,-19.5 408.5,-19.5 408.5,-0.5 316.5,-0.5"/>
<text text-anchor="middle" x="362.5" y="-7.5" font-family="Helvetica,sans-Serif" font-size="10.00">l4/sys/linkage.h</text>
</a>
</g>
</g>
<!-- Node4&#45;&gt;Node5 -->
<g id="edge4" class="edge">
<title>Node4&#45;&gt;Node5</title>
<path fill="none" stroke="midnightblue" d="M362.5,-56.08C362.5,-49.01 362.5,-38.86 362.5,-29.99"/>
<polygon fill="midnightblue" stroke="midnightblue" points="366,-29.75 362.5,-19.75 359,-29.75 366,-29.75"/>
</g>
<!-- Node7&#45;&gt;Node3 -->
<g id="edge9" class="edge">
<title>Node7&#45;&gt;Node3</title>
<path fill="none" stroke="midnightblue" d="M230.48,-168.44C192.25,-159.1 130.93,-144.12 89.24,-133.93"/>
<polygon fill="midnightblue" stroke="midnightblue" points="89.9,-130.49 79.35,-131.52 88.24,-137.29 89.9,-130.49"/>
</g>
<!-- Node7&#45;&gt;Node4 -->
<g id="edge8" class="edge">
<title>Node7&#45;&gt;Node4</title>
<path fill="none" stroke="midnightblue" d="M268.4,-168.21C273.1,-154.92 283.42,-129.41 298.5,-112 309.38,-99.44 324.47,-88.61 337.27,-80.73"/>
<polygon fill="midnightblue" stroke="midnightblue" points="339.25,-83.62 346.09,-75.52 335.7,-77.59 339.25,-83.62"/>
</g>
<!-- Node7&#45;&gt;Node6 -->
<g id="edge7" class="edge">
<title>Node7&#45;&gt;Node6</title>
<path fill="none" stroke="midnightblue" d="M223.45,-174.56C193.83,-170.38 156.07,-159.56 136.5,-132 126.2,-117.5 135.4,-97.8 144.85,-83.91"/>
<polygon fill="midnightblue" stroke="midnightblue" points="147.77,-85.84 150.9,-75.72 142.14,-81.68 147.77,-85.84"/>
</g>
<!-- Node8 -->
<g id="node8" class="node">
<title>Node8</title>
<g id="a_node8"><a xlink:href="____l4__fpage_8h_source.html" target="_top" xlink:title=" ">
<polygon fill="white" stroke="black" points="307.5,-112.5 307.5,-131.5 417.5,-131.5 417.5,-112.5 307.5,-112.5"/>
<text text-anchor="middle" x="362.5" y="-119.5" font-family="Helvetica,sans-Serif" font-size="10.00">l4/sys/__l4_fpage.h</text>
</a>
</g>
</g>
<!-- Node7&#45;&gt;Node8 -->
<g id="edge10" class="edge">
<title>Node7&#45;&gt;Node8</title>
<path fill="none" stroke="midnightblue" d="M281.08,-168.32C296.5,-159.74 320.31,-146.49 338.21,-136.52"/>
<polygon fill="midnightblue" stroke="midnightblue" points="339.92,-139.58 346.95,-131.65 336.51,-133.46 339.92,-139.58"/>
</g>
<!-- Node9 -->
<g id="node9" class="node">
<title>Node9</title>
<g id="a_node9"><a xlink:href="____timeout_8h_source.html" target="_top" xlink:title=" ">
<polygon fill="white" stroke="black" points="145.5,-112.5 145.5,-131.5 251.5,-131.5 251.5,-112.5 145.5,-112.5"/>
<text text-anchor="middle" x="198.5" y="-119.5" font-family="Helvetica,sans-Serif" font-size="10.00">l4/sys/__timeout.h</text>
</a>
</g>
</g>
<!-- Node7&#45;&gt;Node9 -->
<g id="edge12" class="edge">
<title>Node7&#45;&gt;Node9</title>
<path fill="none" stroke="midnightblue" d="M254.74,-168.32C244.73,-160.26 229.61,-148.08 217.57,-138.37"/>
<polygon fill="midnightblue" stroke="midnightblue" points="219.44,-135.38 209.46,-131.83 215.05,-140.83 219.44,-135.38"/>
</g>
<!-- Node8&#45;&gt;Node4 -->
<g id="edge11" class="edge">
<title>Node8&#45;&gt;Node4</title>
<path fill="none" stroke="midnightblue" d="M362.5,-112.08C362.5,-105.01 362.5,-94.86 362.5,-85.99"/>
<polygon fill="midnightblue" stroke="midnightblue" points="366,-85.75 362.5,-75.75 359,-85.75 366,-85.75"/>
</g>
<!-- Node9&#45;&gt;Node6 -->
<g id="edge13" class="edge">
<title>Node9&#45;&gt;Node6</title>
<path fill="none" stroke="midnightblue" d="M191.89,-112.08C186.24,-104.46 177.96,-93.26 171.05,-83.94"/>
<polygon fill="midnightblue" stroke="midnightblue" points="173.75,-81.7 164.98,-75.75 168.12,-85.87 173.75,-81.7"/>
</g>
<!-- Node10&#45;&gt;Node7 -->
<g id="edge15" class="edge">
<title>Node10&#45;&gt;Node7</title>
<path fill="none" stroke="midnightblue" d="M265.5,-336.08C265.5,-309.95 265.5,-233.21 265.5,-197.58"/>
<polygon fill="midnightblue" stroke="midnightblue" points="269,-197.57 265.5,-187.57 262,-197.57 269,-197.57"/>
</g>
<!-- Node11 -->
<g id="node11" class="node">
<title>Node11</title>
<g id="a_node11"><a xlink:href="l4_2sys_2utcb_8h.html" target="_top" xlink:title="UTCB definitions.">
<polygon fill="white" stroke="black" points="352.5,-224.5 352.5,-243.5 430.5,-243.5 430.5,-224.5 352.5,-224.5"/>
<text text-anchor="middle" x="391.5" y="-231.5" font-family="Helvetica,sans-Serif" font-size="10.00">l4/sys/utcb.h</text>
</a>
</g>
</g>
<!-- Node10&#45;&gt;Node11 -->
<g id="edge16" class="edge">
<title>Node10&#45;&gt;Node11</title>
<path fill="none" stroke="midnightblue" d="M275.39,-336.37C296.64,-317.81 346.93,-273.91 373.82,-250.44"/>
<polygon fill="midnightblue" stroke="midnightblue" points="376.43,-252.8 381.66,-243.59 371.82,-247.53 376.43,-252.8"/>
</g>
<!-- Node12 -->
<g id="node12" class="node">
<title>Node12</title>
<g id="a_node12"><a xlink:href="l4_2sys_2ipc_8h.html" target="_top" xlink:title="Common IPC interface.">
<polygon fill="white" stroke="black" points="423,-280.5 423,-299.5 494,-299.5 494,-280.5 423,-280.5"/>
<text text-anchor="middle" x="458.5" y="-287.5" font-family="Helvetica,sans-Serif" font-size="10.00">l4/sys/ipc.h</text>
</a>
</g>
</g>
<!-- Node10&#45;&gt;Node12 -->
<g id="edge20" class="edge">
<title>Node10&#45;&gt;Node12</title>
<path fill="none" stroke="midnightblue" d="M296.08,-336.44C329.11,-327.2 381.89,-312.44 418.27,-302.26"/>
<polygon fill="midnightblue" stroke="midnightblue" points="419.37,-305.58 428.06,-299.52 417.49,-298.84 419.37,-305.58"/>
</g>
<!-- Node11&#45;&gt;Node4 -->
<g id="edge18" class="edge">
<title>Node11&#45;&gt;Node4</title>
<path fill="none" stroke="midnightblue" d="M414.95,-224.41C430.66,-217.28 450.12,-205.46 459.5,-188 475.49,-158.25 477.68,-140.47 459.5,-112 449.3,-96.03 431.81,-85.64 414.46,-78.92"/>
<polygon fill="midnightblue" stroke="midnightblue" points="415.48,-75.56 404.89,-75.55 413.16,-82.17 415.48,-75.56"/>
</g>
<!-- Node11&#45;&gt;Node6 -->
<g id="edge19" class="edge">
<title>Node11&#45;&gt;Node6</title>
<path fill="none" stroke="midnightblue" d="M398.81,-224.27C415.98,-202.67 455.31,-146.06 426.5,-112 412.57,-95.53 281.75,-79.63 208.17,-71.88"/>
<polygon fill="midnightblue" stroke="midnightblue" points="208.5,-68.4 198.19,-70.85 207.77,-75.36 208.5,-68.4"/>
</g>
<!-- Node11&#45;&gt;Node7 -->
<g id="edge17" class="edge">
<title>Node11&#45;&gt;Node7</title>
<path fill="none" stroke="midnightblue" d="M371.53,-224.44C350.89,-215.6 318.44,-201.69 294.87,-191.59"/>
<polygon fill="midnightblue" stroke="midnightblue" points="295.94,-188.24 285.37,-187.52 293.18,-194.67 295.94,-188.24"/>
</g>
<!-- Node12&#45;&gt;Node7 -->
<g id="edge21" class="edge">
<title>Node12&#45;&gt;Node7</title>
<path fill="none" stroke="midnightblue" d="M458.54,-280.49C458.12,-266.64 455.2,-239.22 439.5,-224 407.21,-192.7 356.13,-182.38 317.65,-179.34"/>
<polygon fill="midnightblue" stroke="midnightblue" points="317.86,-175.85 307.66,-178.69 317.41,-182.83 317.86,-175.85"/>
</g>
<!-- Node12&#45;&gt;Node11 -->
<g id="edge22" class="edge">
<title>Node12&#45;&gt;Node11</title>
<path fill="none" stroke="midnightblue" d="M447.74,-280.32C437.73,-272.26 422.61,-260.08 410.57,-250.37"/>
<polygon fill="midnightblue" stroke="midnightblue" points="412.44,-247.38 402.46,-243.83 408.05,-252.83 412.44,-247.38"/>
</g>
<!-- Node13 -->
<g id="node13" class="node">
<title>Node13</title>
<g id="a_node13"><a xlink:href="err_8h.html" target="_top" xlink:title="Error codes.">
<polygon fill="white" stroke="black" points="486.5,-224.5 486.5,-243.5 556.5,-243.5 556.5,-224.5 486.5,-224.5"/>
<text text-anchor="middle" x="521.5" y="-231.5" font-family="Helvetica,sans-Serif" font-size="10.00">l4/sys/err.h</text>
</a>
</g>
</g>
<!-- Node12&#45;&gt;Node13 -->
<g id="edge23" class="edge">
<title>Node12&#45;&gt;Node13</title>
<path fill="none" stroke="midnightblue" d="M468.62,-280.32C478.03,-272.26 492.24,-260.08 503.57,-250.37"/>
<polygon fill="midnightblue" stroke="midnightblue" points="505.88,-253 511.19,-243.83 501.32,-247.68 505.88,-253"/>
</g>
<!-- Node13&#45;&gt;Node4 -->
<g id="edge24" class="edge">
<title>Node13&#45;&gt;Node4</title>
<path fill="none" stroke="midnightblue" d="M520.77,-224.41C518.47,-202.66 509.51,-144.79 477.5,-112 461.6,-95.71 439.1,-85.19 418.22,-78.46"/>
<polygon fill="midnightblue" stroke="midnightblue" points="419.04,-75.05 408.45,-75.54 417.03,-81.76 419.04,-75.05"/>
</g>
<!-- Node15&#45;&gt;Node11 -->
<g id="edge28" class="edge">
<title>Node15&#45;&gt;Node11</title>
<path fill="none" stroke="midnightblue" d="M394.34,-392.08C393.87,-365.95 392.48,-289.21 391.84,-253.58"/>
<polygon fill="midnightblue" stroke="midnightblue" points="395.34,-253.5 391.65,-243.57 388.34,-253.63 395.34,-253.5"/>
</g>
<!-- Node15&#45;&gt;Node13 -->
<g id="edge29" class="edge">
<title>Node15&#45;&gt;Node13</title>
<path fill="none" stroke="midnightblue" d="M407.78,-392.43C430.82,-376.85 478.15,-341.65 503.5,-300 512.16,-285.78 516.75,-267.3 519.12,-253.69"/>
<polygon fill="midnightblue" stroke="midnightblue" points="522.62,-254 520.64,-243.59 515.69,-252.96 522.62,-254"/>
</g>
<!-- Node15&#45;&gt;Node14 -->
<g id="edge27" class="edge">
<title>Node15&#45;&gt;Node14</title>
<path fill="none" stroke="midnightblue" d="M386.24,-392.08C379.04,-384.3 368.39,-372.8 359.65,-363.37"/>
<polygon fill="midnightblue" stroke="midnightblue" points="361.97,-360.71 352.6,-355.75 356.83,-365.47 361.97,-360.71"/>
</g>
</g>
</svg>
