<?xml version="1.0" encoding="UTF-8" standalone="no"?>
<!DOCTYPE svg PUBLIC "-//W3C//DTD SVG 1.1//EN"
 "http://www.w3.org/Graphics/SVG/1.1/DTD/svg11.dtd">
<!-- Generated by graphviz version 2.43.0 (0)
 -->
<!-- Title: l4/cxx/ipc_stream Pages: 1 -->
<svg width="244pt" height="84pt"
 viewBox="0.00 0.00 244.00 84.00" xmlns="http://www.w3.org/2000/svg" xmlns:xlink="http://www.w3.org/1999/xlink">
<g id="graph0" class="graph" transform="scale(1 1) rotate(0) translate(4 80)">
<title>l4/cxx/ipc_stream</title>
<polygon fill="white" stroke="transparent" points="-4,4 -4,-80 240,-80 240,4 -4,4"/>
<!-- Node1 -->
<g id="node1" class="node">
<title>Node1</title>
<g id="a_node1"><a xlink:title="IPC stream.">
<polygon fill="#bfbfbf" stroke="black" points="61,-56.5 61,-75.5 164,-75.5 164,-56.5 61,-56.5"/>
<text text-anchor="middle" x="112.5" y="-63.5" font-family="Helvetica,sans-Serif" font-size="10.00">l4/cxx/ipc_stream</text>
</a>
</g>
</g>
<!-- Node2 -->
<g id="node2" class="node">
<title>Node2</title>
<g id="a_node2"><a xlink:href="cxx_2ipc__server.html" target="_top" xlink:title="IPC server loop.">
<polygon fill="white" stroke="black" points="0,-0.5 0,-19.5 99,-19.5 99,-0.5 0,-0.5"/>
<text text-anchor="middle" x="49.5" y="-7.5" font-family="Helvetica,sans-Serif" font-size="10.00">l4/cxx/ipc_server</text>
</a>
</g>
</g>
<!-- Node1&#45;&gt;Node2 -->
<g id="edge1" class="edge">
<title>Node1&#45;&gt;Node2</title>
<path fill="none" stroke="midnightblue" d="M94.46,-49.54C83.23,-39.91 69.18,-27.87 59.81,-19.83"/>
<polygon fill="midnightblue" stroke="midnightblue" points="92.51,-52.47 102.38,-56.32 97.06,-47.16 92.51,-52.47"/>
</g>
<!-- Node3 -->
<g id="node3" class="node">
<title>Node3</title>
<g id="a_node3"><a xlink:href="vbus__generic_source.html" target="_top" xlink:title=" ">
<polygon fill="white" stroke="black" points="117,-0.5 117,-19.5 236,-19.5 236,-0.5 117,-0.5"/>
<text text-anchor="middle" x="176.5" y="-7.5" font-family="Helvetica,sans-Serif" font-size="10.00">l4/vbus/vbus_generic</text>
</a>
</g>
</g>
<!-- Node1&#45;&gt;Node3 -->
<g id="edge2" class="edge">
<title>Node1&#45;&gt;Node3</title>
<path fill="none" stroke="midnightblue" d="M130.49,-49.82C141.96,-40.15 156.41,-27.95 166.03,-19.83"/>
<polygon fill="midnightblue" stroke="midnightblue" points="128.17,-47.2 122.78,-56.32 132.68,-52.55 128.17,-47.2"/>
</g>
</g>
</svg>
