<?xml version="1.0" encoding="UTF-8" standalone="no"?>
<!DOCTYPE svg PUBLIC "-//W3C//DTD SVG 1.1//EN"
 "http://www.w3.org/Graphics/SVG/1.1/DTD/svg11.dtd">
<!-- Generated by graphviz version 2.43.0 (0)
 -->
<!-- Title: operator&gt;&gt; Pages: 1 -->
<svg width="412pt" height="66pt"
 viewBox="0.00 0.00 412.00 66.00" xmlns="http://www.w3.org/2000/svg" xmlns:xlink="http://www.w3.org/1999/xlink">
<g id="graph0" class="graph" transform="scale(1 1) rotate(0) translate(4 62)">
<title>operator&gt;&gt;</title>
<polygon fill="white" stroke="transparent" points="-4,4 -4,-62 408,-62 408,4 -4,4"/>
<!-- Node1 -->
<g id="node1" class="node">
<title>Node1</title>
<g id="a_node1"><a xlink:title="Extract an array of T elements from the stream s.">
<polygon fill="#bfbfbf" stroke="black" points="0,-19.5 0,-38.5 74,-38.5 74,-19.5 0,-19.5"/>
<text text-anchor="middle" x="37" y="-26.5" font-family="Helvetica,sans-Serif" font-size="10.00">operator&gt;&gt;</text>
</a>
</g>
</g>
<!-- Node2 -->
<g id="node2" class="node">
<title>Node2</title>
<g id="a_node2"><a xlink:href="classL4_1_1Ipc_1_1Istream.html#af4d28aa64235c822f624891154109a0c" target="_top" xlink:title="Copy out an array of type T with size elements.">
<polygon fill="white" stroke="black" points="126.5,-38.5 126.5,-57.5 239.5,-57.5 239.5,-38.5 126.5,-38.5"/>
<text text-anchor="middle" x="183" y="-45.5" font-family="Helvetica,sans-Serif" font-size="10.00">L4::Ipc::Istream::get</text>
</a>
</g>
</g>
<!-- Node1&#45;&gt;Node2 -->
<g id="edge1" class="edge">
<title>Node1&#45;&gt;Node2</title>
<path fill="none" stroke="midnightblue" d="M74.34,-33.79C87.13,-35.48 101.94,-37.44 116.39,-39.34"/>
<polygon fill="midnightblue" stroke="midnightblue" points="115.95,-42.81 126.32,-40.65 116.86,-35.88 115.95,-42.81"/>
</g>
<!-- Node3 -->
<g id="node3" class="node">
<title>Node3</title>
<g id="a_node3"><a xlink:href="classL4_1_1Ipc_1_1Istream.html#a8087f571b556efae9b7738741f6dc3e0" target="_top" xlink:title="Check whether a value of type T can be obtained from the stream.">
<polygon fill="white" stroke="black" points="110,-0.5 110,-19.5 256,-19.5 256,-0.5 110,-0.5"/>
<text text-anchor="middle" x="183" y="-7.5" font-family="Helvetica,sans-Serif" font-size="10.00">L4::Ipc::Istream::has_more</text>
</a>
</g>
</g>
<!-- Node1&#45;&gt;Node3 -->
<g id="edge2" class="edge">
<title>Node1&#45;&gt;Node3</title>
<path fill="none" stroke="midnightblue" d="M74.34,-24.21C82.21,-23.17 90.84,-22.03 99.68,-20.86"/>
<polygon fill="midnightblue" stroke="midnightblue" points="100.27,-24.31 109.72,-19.54 99.35,-17.37 100.27,-24.31"/>
</g>
<!-- Node4 -->
<g id="node4" class="node">
<title>Node4</title>
<g id="a_node4"><a xlink:href="structl4__msgtag__t.html#a98577ea730d9abcd938b89d5c7adb18c" target="_top" xlink:title="Get the number of untyped words.">
<polygon fill="white" stroke="black" points="292,-0.5 292,-19.5 404,-19.5 404,-0.5 292,-0.5"/>
<text text-anchor="middle" x="348" y="-7.5" font-family="Helvetica,sans-Serif" font-size="10.00">l4_msgtag_t::words</text>
</a>
</g>
</g>
<!-- Node3&#45;&gt;Node4 -->
<g id="edge3" class="edge">
<title>Node3&#45;&gt;Node4</title>
<path fill="none" stroke="midnightblue" d="M256.44,-10C264.91,-10 273.5,-10 281.86,-10"/>
<polygon fill="midnightblue" stroke="midnightblue" points="281.9,-13.5 291.9,-10 281.9,-6.5 281.9,-13.5"/>
</g>
</g>
</svg>
