<?xml version="1.0" encoding="UTF-8" standalone="no"?>
<!DOCTYPE svg PUBLIC "-//W3C//DTD SVG 1.1//EN"
 "http://www.w3.org/Graphics/SVG/1.1/DTD/svg11.dtd">
<!-- Generated by graphviz version 2.43.0 (0)
 -->
<!-- Title: l4/sys/irq Pages: 1 -->
<svg width="1338pt" height="397pt"
 viewBox="0.00 0.00 1338.39 397.00" xmlns="http://www.w3.org/2000/svg" xmlns:xlink="http://www.w3.org/1999/xlink">
<g id="graph0" class="graph" transform="scale(1 1) rotate(0) translate(4 393)">
<title>l4/sys/irq</title>
<polygon fill="white" stroke="transparent" points="-4,4 -4,-393 1334.39,-393 1334.39,4 -4,4"/>
<!-- Node1 -->
<g id="node1" class="node">
<title>Node1</title>
<g id="a_node1"><a xlink:title="C++ Irq interface.">
<polygon fill="#bfbfbf" stroke="black" points="467.59,-369.5 467.59,-388.5 528.59,-388.5 528.59,-369.5 467.59,-369.5"/>
<text text-anchor="middle" x="498.09" y="-376.5" font-family="Helvetica,sans-Serif" font-size="10.00">l4/sys/irq</text>
</a>
</g>
</g>
<!-- Node2 -->
<g id="node2" class="node">
<title>Node2</title>
<g id="a_node2"><a xlink:href="l4virtio_source.html" target="_top" xlink:title=" ">
<polygon fill="white" stroke="black" points="11.59,-140 11.59,-159 112.59,-159 112.59,-140 11.59,-140"/>
<text text-anchor="middle" x="62.09" y="-147" font-family="Helvetica,sans-Serif" font-size="10.00">l4/l4virtio/l4virtio</text>
</a>
</g>
</g>
<!-- Node1&#45;&gt;Node2 -->
<g id="edge1" class="edge">
<title>Node1&#45;&gt;Node2</title>
<path fill="none" stroke="midnightblue" d="M472.88,-364.84C392.74,-323.03 145.24,-193.88 78.7,-159.17"/>
<polygon fill="midnightblue" stroke="midnightblue" points="471.31,-367.97 481.8,-369.5 474.55,-361.77 471.31,-367.97"/>
</g>
<!-- Node6 -->
<g id="node6" class="node">
<title>Node6</title>
<g id="a_node6"><a xlink:href="icu.html" target="_top" xlink:title="Interrupt controller.">
<polygon fill="white" stroke="black" points="599.09,-313.5 599.09,-332.5 661.09,-332.5 661.09,-313.5 599.09,-313.5"/>
<text text-anchor="middle" x="630.09" y="-320.5" font-family="Helvetica,sans-Serif" font-size="10.00">l4/sys/icu</text>
</a>
</g>
</g>
<!-- Node1&#45;&gt;Node6 -->
<g id="edge5" class="edge">
<title>Node1&#45;&gt;Node6</title>
<path fill="none" stroke="midnightblue" d="M528.31,-365.64C553.08,-355.5 587.49,-341.43 609.27,-332.52"/>
<polygon fill="midnightblue" stroke="midnightblue" points="526.94,-362.42 519.01,-369.44 529.59,-368.9 526.94,-362.42"/>
</g>
<!-- Node29 -->
<g id="node29" class="node">
<title>Node29</title>
<g id="a_node29"><a xlink:href="semaphore.html" target="_top" xlink:title="Semaphore class definition.">
<polygon fill="white" stroke="black" points="305.59,-201.5 305.59,-220.5 408.59,-220.5 408.59,-201.5 305.59,-201.5"/>
<text text-anchor="middle" x="357.09" y="-208.5" font-family="Helvetica,sans-Serif" font-size="10.00">l4/sys/semaphore</text>
</a>
</g>
</g>
<!-- Node1&#45;&gt;Node29 -->
<g id="edge34" class="edge">
<title>Node1&#45;&gt;Node29</title>
<path fill="none" stroke="midnightblue" d="M483.83,-361.21C454.15,-326.26 386.64,-246.79 364.37,-220.57"/>
<polygon fill="midnightblue" stroke="midnightblue" points="481.37,-363.72 490.51,-369.08 486.7,-359.19 481.37,-363.72"/>
</g>
<!-- Node30 -->
<g id="node30" class="node">
<title>Node30</title>
<g id="a_node30"><a xlink:href="event_source.html" target="_top" xlink:title=" ">
<polygon fill="white" stroke="black" points="1157.59,-313.5 1157.59,-332.5 1226.59,-332.5 1226.59,-313.5 1157.59,-313.5"/>
<text text-anchor="middle" x="1192.09" y="-320.5" font-family="Helvetica,sans-Serif" font-size="10.00">l4/re/event</text>
</a>
</g>
</g>
<!-- Node1&#45;&gt;Node30 -->
<g id="edge37" class="edge">
<title>Node1&#45;&gt;Node30</title>
<path fill="none" stroke="midnightblue" d="M539.11,-374.81C664.42,-365.06 1040.73,-335.78 1157.29,-326.71"/>
<polygon fill="midnightblue" stroke="midnightblue" points="538.51,-371.34 528.81,-375.61 539.05,-378.32 538.51,-371.34"/>
</g>
<!-- Node3 -->
<g id="node3" class="node">
<title>Node3</title>
<g id="a_node3"><a xlink:href="client_2virtio-block_source.html" target="_top" xlink:title=" ">
<polygon fill="white" stroke="black" points="292.59,-0.5 292.59,-30.5 385.59,-30.5 385.59,-0.5 292.59,-0.5"/>
<text text-anchor="start" x="300.59" y="-18.5" font-family="Helvetica,sans-Serif" font-size="10.00">l4/l4virtio/client</text>
<text text-anchor="middle" x="339.09" y="-7.5" font-family="Helvetica,sans-Serif" font-size="10.00">/virtio&#45;block</text>
</a>
</g>
</g>
<!-- Node2&#45;&gt;Node3 -->
<g id="edge2" class="edge">
<title>Node2&#45;&gt;Node3</title>
<path fill="none" stroke="midnightblue" d="M40.32,-134.13C17.45,-117.29 -12.76,-88.93 6.09,-67 24.53,-45.55 205.35,-27.68 292.54,-20.23"/>
<polygon fill="midnightblue" stroke="midnightblue" points="38.42,-137.07 48.6,-139.97 42.45,-131.35 38.42,-137.07"/>
</g>
<!-- Node4 -->
<g id="node4" class="node">
<title>Node4</title>
<g id="a_node4"><a xlink:href="server_2l4virtio_source.html" target="_top" xlink:title=" ">
<polygon fill="white" stroke="black" points="15.59,-67.5 15.59,-97.5 112.59,-97.5 112.59,-67.5 15.59,-67.5"/>
<text text-anchor="start" x="23.59" y="-85.5" font-family="Helvetica,sans-Serif" font-size="10.00">l4/l4virtio/server</text>
<text text-anchor="middle" x="64.09" y="-74.5" font-family="Helvetica,sans-Serif" font-size="10.00">/l4virtio</text>
</a>
</g>
</g>
<!-- Node2&#45;&gt;Node4 -->
<g id="edge3" class="edge">
<title>Node2&#45;&gt;Node4</title>
<path fill="none" stroke="midnightblue" d="M62.68,-129.41C62.99,-119.22 63.37,-106.9 63.66,-97.59"/>
<polygon fill="midnightblue" stroke="midnightblue" points="59.17,-129.63 62.36,-139.73 66.17,-129.85 59.17,-129.63"/>
</g>
<!-- Node5 -->
<g id="node5" class="node">
<title>Node5</title>
<g id="a_node5"><a xlink:href="server_2virtio-block_source.html" target="_top" xlink:title=" ">
<polygon fill="white" stroke="black" points="15.59,-0.5 15.59,-30.5 112.59,-30.5 112.59,-0.5 15.59,-0.5"/>
<text text-anchor="start" x="23.59" y="-18.5" font-family="Helvetica,sans-Serif" font-size="10.00">l4/l4virtio/server</text>
<text text-anchor="middle" x="64.09" y="-7.5" font-family="Helvetica,sans-Serif" font-size="10.00">/virtio&#45;block</text>
</a>
</g>
</g>
<!-- Node4&#45;&gt;Node5 -->
<g id="edge4" class="edge">
<title>Node4&#45;&gt;Node5</title>
<path fill="none" stroke="midnightblue" d="M64.09,-57.11C64.09,-48.15 64.09,-38.32 64.09,-30.58"/>
<polygon fill="midnightblue" stroke="midnightblue" points="60.59,-57.4 64.09,-67.4 67.59,-57.4 60.59,-57.4"/>
</g>
<!-- Node7 -->
<g id="node7" class="node">
<title>Node7</title>
<g id="a_node7"><a xlink:href="scheduler.html" target="_top" xlink:title="Scheduler object functions.">
<polygon fill="white" stroke="black" points="633.59,-257.5 633.59,-276.5 728.59,-276.5 728.59,-257.5 633.59,-257.5"/>
<text text-anchor="middle" x="681.09" y="-264.5" font-family="Helvetica,sans-Serif" font-size="10.00">l4/sys/scheduler</text>
</a>
</g>
</g>
<!-- Node6&#45;&gt;Node7 -->
<g id="edge6" class="edge">
<title>Node6&#45;&gt;Node7</title>
<path fill="none" stroke="midnightblue" d="M645.47,-305.72C654.46,-296.2 665.45,-284.56 672.83,-276.75"/>
<polygon fill="midnightblue" stroke="midnightblue" points="642.84,-303.41 638.51,-313.08 647.92,-308.22 642.84,-303.41"/>
</g>
<!-- Node8 -->
<g id="node8" class="node">
<title>Node8</title>
<g id="a_node8"><a xlink:href="vcon.html" target="_top" xlink:title="Virtual console interface.">
<polygon fill="white" stroke="black" points="544.59,-257.5 544.59,-276.5 615.59,-276.5 615.59,-257.5 544.59,-257.5"/>
<text text-anchor="middle" x="580.09" y="-264.5" font-family="Helvetica,sans-Serif" font-size="10.00">l4/sys/vcon</text>
</a>
</g>
</g>
<!-- Node6&#45;&gt;Node8 -->
<g id="edge7" class="edge">
<title>Node6&#45;&gt;Node8</title>
<path fill="none" stroke="midnightblue" d="M615.02,-305.72C606.2,-296.2 595.43,-284.56 588.19,-276.75"/>
<polygon fill="midnightblue" stroke="midnightblue" points="612.47,-308.12 621.84,-313.08 617.61,-303.37 612.47,-308.12"/>
</g>
<!-- Node19 -->
<g id="node19" class="node">
<title>Node19</title>
<g id="a_node19"><a xlink:href="icu__svr_source.html" target="_top" xlink:title=" ">
<polygon fill="white" stroke="black" points="1100.59,-73 1100.59,-92 1195.59,-92 1195.59,-73 1100.59,-73"/>
<text text-anchor="middle" x="1148.09" y="-80" font-family="Helvetica,sans-Serif" font-size="10.00">l4/re/util/icu_svr</text>
</a>
</g>
</g>
<!-- Node6&#45;&gt;Node19 -->
<g id="edge29" class="edge">
<title>Node6&#45;&gt;Node19</title>
<path fill="none" stroke="midnightblue" d="M670.81,-310.85C692.31,-303.59 718.27,-292.55 738.09,-277 771.1,-251.1 760.14,-225.66 794.09,-201 821.44,-181.14 1039.57,-115.54 1119.16,-92"/>
<polygon fill="midnightblue" stroke="midnightblue" points="669.73,-307.52 661.29,-313.92 671.88,-314.18 669.73,-307.52"/>
</g>
<!-- Node24 -->
<g id="node24" class="node">
<title>Node24</title>
<g id="a_node24"><a xlink:href="random_source.html" target="_top" xlink:title=" ">
<polygon fill="white" stroke="black" points="447.59,-257.5 447.59,-276.5 526.59,-276.5 526.59,-257.5 447.59,-257.5"/>
<text text-anchor="middle" x="487.09" y="-264.5" font-family="Helvetica,sans-Serif" font-size="10.00">l4/re/random</text>
</a>
</g>
</g>
<!-- Node6&#45;&gt;Node24 -->
<g id="edge28" class="edge">
<title>Node6&#45;&gt;Node24</title>
<path fill="none" stroke="midnightblue" d="M598.06,-309.91C571.18,-299.75 533.45,-285.51 509.64,-276.52"/>
<polygon fill="midnightblue" stroke="midnightblue" points="596.84,-313.19 607.43,-313.44 599.31,-306.64 596.84,-313.19"/>
</g>
<!-- Node25 -->
<g id="node25" class="node">
<title>Node25</title>
<g id="a_node25"><a xlink:href="vbus_source.html" target="_top" xlink:title=" ">
<polygon fill="white" stroke="black" points="940.09,-257.5 940.09,-276.5 1018.09,-276.5 1018.09,-257.5 940.09,-257.5"/>
<text text-anchor="middle" x="979.09" y="-264.5" font-family="Helvetica,sans-Serif" font-size="10.00">l4/vbus/vbus</text>
</a>
</g>
</g>
<!-- Node6&#45;&gt;Node25 -->
<g id="edge30" class="edge">
<title>Node6&#45;&gt;Node25</title>
<path fill="none" stroke="midnightblue" d="M671.27,-315.63C739.08,-305.14 873.34,-284.36 939.86,-274.07"/>
<polygon fill="midnightblue" stroke="midnightblue" points="670.72,-312.17 661.37,-317.16 671.79,-319.09 670.72,-312.17"/>
</g>
<!-- Node9 -->
<g id="node9" class="node">
<title>Node9</title>
<g id="a_node9"><a xlink:href="vcon__stream_8h_source.html" target="_top" xlink:title=" ">
<polygon fill="white" stroke="black" points="297.59,-134.5 297.59,-164.5 416.59,-164.5 416.59,-134.5 297.59,-134.5"/>
<text text-anchor="start" x="305.59" y="-152.5" font-family="Helvetica,sans-Serif" font-size="10.00">l4/l4re_vfs/impl/vcon</text>
<text text-anchor="middle" x="357.09" y="-141.5" font-family="Helvetica,sans-Serif" font-size="10.00">_stream.h</text>
</a>
</g>
</g>
<!-- Node8&#45;&gt;Node9 -->
<g id="edge8" class="edge">
<title>Node8&#45;&gt;Node9</title>
<path fill="none" stroke="midnightblue" d="M554.19,-252.59C511.68,-230.57 427.5,-186.97 384.21,-164.55"/>
<polygon fill="midnightblue" stroke="midnightblue" points="552.84,-255.83 563.33,-257.32 556.06,-249.61 552.84,-255.83"/>
</g>
<!-- Node12 -->
<g id="node12" class="node">
<title>Node12</title>
<g id="a_node12"><a xlink:href="log.html" target="_top" xlink:title="Log interface.">
<polygon fill="white" stroke="black" points="649.09,-201.5 649.09,-220.5 705.09,-220.5 705.09,-201.5 649.09,-201.5"/>
<text text-anchor="middle" x="677.09" y="-208.5" font-family="Helvetica,sans-Serif" font-size="10.00">l4/re/log</text>
</a>
</g>
</g>
<!-- Node8&#45;&gt;Node12 -->
<g id="edge11" class="edge">
<title>Node8&#45;&gt;Node12</title>
<path fill="none" stroke="midnightblue" d="M604.43,-252.45C622.33,-242.48 646.15,-229.23 661.55,-220.65"/>
<polygon fill="midnightblue" stroke="midnightblue" points="602.71,-249.4 595.68,-257.32 606.12,-255.52 602.71,-249.4"/>
</g>
<!-- Node23 -->
<g id="node23" class="node">
<title>Node23</title>
<g id="a_node23"><a xlink:href="vcon__svr_source.html" target="_top" xlink:title=" ">
<polygon fill="white" stroke="black" points="527.09,-201.5 527.09,-220.5 631.09,-220.5 631.09,-201.5 527.09,-201.5"/>
<text text-anchor="middle" x="579.09" y="-208.5" font-family="Helvetica,sans-Serif" font-size="10.00">l4/re/util/vcon_svr</text>
</a>
</g>
</g>
<!-- Node8&#45;&gt;Node23 -->
<g id="edge27" class="edge">
<title>Node8&#45;&gt;Node23</title>
<path fill="none" stroke="midnightblue" d="M579.74,-246.8C579.57,-237.91 579.38,-227.78 579.25,-220.75"/>
<polygon fill="midnightblue" stroke="midnightblue" points="576.24,-247.15 579.93,-257.08 583.24,-247.02 576.24,-247.15"/>
</g>
<!-- Node10 -->
<g id="node10" class="node">
<title>Node10</title>
<g id="a_node10"><a xlink:href="vcon__stream__impl_8h_source.html" target="_top" xlink:title=" ">
<polygon fill="white" stroke="black" points="297.59,-67.5 297.59,-97.5 416.59,-97.5 416.59,-67.5 297.59,-67.5"/>
<text text-anchor="start" x="305.59" y="-85.5" font-family="Helvetica,sans-Serif" font-size="10.00">l4/l4re_vfs/impl/vcon</text>
<text text-anchor="middle" x="357.09" y="-74.5" font-family="Helvetica,sans-Serif" font-size="10.00">_stream_impl.h</text>
</a>
</g>
</g>
<!-- Node9&#45;&gt;Node10 -->
<g id="edge9" class="edge">
<title>Node9&#45;&gt;Node10</title>
<path fill="none" stroke="midnightblue" d="M357.09,-124.11C357.09,-115.15 357.09,-105.32 357.09,-97.58"/>
<polygon fill="midnightblue" stroke="midnightblue" points="353.59,-124.4 357.09,-134.4 360.59,-124.4 353.59,-124.4"/>
</g>
<!-- Node11 -->
<g id="node11" class="node">
<title>Node11</title>
<g id="a_node11"><a xlink:href="vfs__impl_8h_source.html" target="_top" xlink:title=" ">
<polygon fill="white" stroke="black" points="169.09,-67.5 169.09,-97.5 279.09,-97.5 279.09,-67.5 169.09,-67.5"/>
<text text-anchor="start" x="177.09" y="-85.5" font-family="Helvetica,sans-Serif" font-size="10.00">l4/l4re_vfs/impl/vfs</text>
<text text-anchor="middle" x="224.09" y="-74.5" font-family="Helvetica,sans-Serif" font-size="10.00">_impl.h</text>
</a>
</g>
</g>
<!-- Node9&#45;&gt;Node11 -->
<g id="edge10" class="edge">
<title>Node9&#45;&gt;Node11</title>
<path fill="none" stroke="midnightblue" d="M319.22,-129.99C298.14,-119.69 272.32,-107.07 252.89,-97.58"/>
<polygon fill="midnightblue" stroke="midnightblue" points="317.71,-133.15 328.23,-134.4 320.79,-126.86 317.71,-133.15"/>
</g>
<!-- Node13 -->
<g id="node13" class="node">
<title>Node13</title>
<g id="a_node13"><a xlink:href="env.html" target="_top" xlink:title="Environment interface.">
<polygon fill="white" stroke="black" points="647.59,-140 647.59,-159 706.59,-159 706.59,-140 647.59,-140"/>
<text text-anchor="middle" x="677.09" y="-147" font-family="Helvetica,sans-Serif" font-size="10.00">l4/re/env</text>
</a>
</g>
</g>
<!-- Node12&#45;&gt;Node13 -->
<g id="edge12" class="edge">
<title>Node12&#45;&gt;Node13</title>
<path fill="none" stroke="midnightblue" d="M677.09,-191.32C677.09,-180.5 677.09,-167.4 677.09,-159.01"/>
<polygon fill="midnightblue" stroke="midnightblue" points="673.59,-191.48 677.09,-201.48 680.59,-191.48 673.59,-191.48"/>
</g>
<!-- Node13&#45;&gt;Node3 -->
<g id="edge14" class="edge">
<title>Node13&#45;&gt;Node3</title>
<path fill="none" stroke="midnightblue" d="M658.76,-133.38C630.54,-110.13 579.43,-68.12 577.09,-67 514.99,-37.27 435.48,-24.93 385.91,-19.88"/>
<polygon fill="midnightblue" stroke="midnightblue" points="656.77,-136.27 666.71,-139.93 661.22,-130.87 656.77,-136.27"/>
</g>
<!-- Node13&#45;&gt;Node4 -->
<g id="edge15" class="edge">
<title>Node13&#45;&gt;Node4</title>
<path fill="none" stroke="midnightblue" d="M637.1,-145.31C550.16,-138.23 337.5,-120.05 160.09,-98 144.7,-96.09 127.98,-93.68 112.86,-91.37"/>
<polygon fill="midnightblue" stroke="midnightblue" points="637.06,-148.82 647.31,-146.14 637.62,-141.85 637.06,-148.82"/>
</g>
<!-- Node13&#45;&gt;Node10 -->
<g id="edge17" class="edge">
<title>Node13&#45;&gt;Node10</title>
<path fill="none" stroke="midnightblue" d="M637.59,-140.74C587.95,-130.95 500.15,-113.52 425.09,-98 422.37,-97.44 419.59,-96.86 416.79,-96.27"/>
<polygon fill="midnightblue" stroke="midnightblue" points="637.09,-144.21 647.58,-142.71 638.45,-137.34 637.09,-144.21"/>
</g>
<!-- Node13&#45;&gt;Node11 -->
<g id="edge18" class="edge">
<title>Node13&#45;&gt;Node11</title>
<path fill="none" stroke="midnightblue" d="M636.93,-144.54C566.14,-137.28 414.69,-120.51 288.09,-98 285.18,-97.48 282.19,-96.92 279.18,-96.33"/>
<polygon fill="midnightblue" stroke="midnightblue" points="636.87,-148.05 647.18,-145.58 637.58,-141.09 636.87,-148.05"/>
</g>
<!-- Node14 -->
<g id="node14" class="node">
<title>Node14</title>
<g id="a_node14"><a xlink:href="vcpu_source.html" target="_top" xlink:title=" ">
<polygon fill="white" stroke="black" points="891.09,-73 891.09,-92 969.09,-92 969.09,-73 891.09,-73"/>
<text text-anchor="middle" x="930.09" y="-80" font-family="Helvetica,sans-Serif" font-size="10.00">l4/vcpu/vcpu</text>
</a>
</g>
</g>
<!-- Node13&#45;&gt;Node14 -->
<g id="edge13" class="edge">
<title>Node13&#45;&gt;Node14</title>
<path fill="none" stroke="midnightblue" d="M716.71,-139.38C758.12,-129.71 824.9,-113.67 882.09,-98 888.81,-96.16 896.01,-94.05 902.75,-92.03"/>
<polygon fill="midnightblue" stroke="midnightblue" points="715.7,-136.03 706.75,-141.7 717.28,-142.84 715.7,-136.03"/>
</g>
<!-- Node15 -->
<g id="node15" class="node">
<title>Node15</title>
<g id="a_node15"><a xlink:href="ro__file__impl_8h_source.html" target="_top" xlink:title=" ">
<polygon fill="white" stroke="black" points="624.59,-67.5 624.59,-97.5 729.59,-97.5 729.59,-67.5 624.59,-67.5"/>
<text text-anchor="start" x="632.59" y="-85.5" font-family="Helvetica,sans-Serif" font-size="10.00">l4/l4re_vfs/impl/ro</text>
<text text-anchor="middle" x="677.09" y="-74.5" font-family="Helvetica,sans-Serif" font-size="10.00">_file_impl.h</text>
</a>
</g>
</g>
<!-- Node13&#45;&gt;Node15 -->
<g id="edge16" class="edge">
<title>Node13&#45;&gt;Node15</title>
<path fill="none" stroke="midnightblue" d="M677.09,-129.41C677.09,-119.22 677.09,-106.9 677.09,-97.59"/>
<polygon fill="midnightblue" stroke="midnightblue" points="673.59,-129.73 677.09,-139.73 680.59,-129.73 673.59,-129.73"/>
</g>
<!-- Node16 -->
<g id="node16" class="node">
<title>Node16</title>
<g id="a_node16"><a xlink:href="env__ns_source.html" target="_top" xlink:title=" ">
<polygon fill="white" stroke="black" points="987.59,-73 987.59,-92 1082.59,-92 1082.59,-73 987.59,-73"/>
<text text-anchor="middle" x="1035.09" y="-80" font-family="Helvetica,sans-Serif" font-size="10.00">l4/re/util/env_ns</text>
</a>
</g>
</g>
<!-- Node13&#45;&gt;Node16 -->
<g id="edge19" class="edge">
<title>Node13&#45;&gt;Node16</title>
<path fill="none" stroke="midnightblue" d="M716.66,-140.96C728.97,-138.66 742.58,-136.17 755.09,-134 854.01,-116.82 879.79,-118.4 978.09,-98 986.39,-96.28 995.3,-94.15 1003.55,-92.06"/>
<polygon fill="midnightblue" stroke="midnightblue" points="715.88,-137.54 706.69,-142.83 717.17,-144.42 715.88,-137.54"/>
</g>
<!-- Node18 -->
<g id="node18" class="node">
<title>Node18</title>
<g id="a_node18"><a xlink:href="util_2event.html" target="_top" xlink:title=" ">
<polygon fill="white" stroke="black" points="1214.09,-73 1214.09,-92 1302.09,-92 1302.09,-73 1214.09,-73"/>
<text text-anchor="middle" x="1258.09" y="-80" font-family="Helvetica,sans-Serif" font-size="10.00">l4/re/util/event</text>
</a>
</g>
</g>
<!-- Node13&#45;&gt;Node18 -->
<g id="edge21" class="edge">
<title>Node13&#45;&gt;Node18</title>
<path fill="none" stroke="midnightblue" d="M716.95,-147.02C805.43,-143.24 1024.7,-131.05 1205.09,-98 1213.44,-96.47 1222.39,-94.25 1230.52,-92.01"/>
<polygon fill="midnightblue" stroke="midnightblue" points="716.66,-143.53 706.82,-147.45 716.96,-150.53 716.66,-143.53"/>
</g>
<!-- Node13&#45;&gt;Node19 -->
<g id="edge22" class="edge">
<title>Node13&#45;&gt;Node19</title>
<path fill="none" stroke="midnightblue" d="M716.6,-140.54C728.9,-138.23 742.53,-135.84 755.09,-134 904.14,-112.22 943.89,-124.95 1092.09,-98 1100.69,-96.44 1109.91,-94.26 1118.34,-92.07"/>
<polygon fill="midnightblue" stroke="midnightblue" points="715.8,-137.13 706.63,-142.45 717.11,-144.01 715.8,-137.13"/>
</g>
<!-- Node21 -->
<g id="node21" class="node">
<title>Node21</title>
<g id="a_node21"><a xlink:href="kumem__alloc.html" target="_top" xlink:title="Kumem allocator helper.">
<polygon fill="white" stroke="black" points="747.59,-73 747.59,-92 872.59,-92 872.59,-73 747.59,-73"/>
<text text-anchor="middle" x="810.09" y="-80" font-family="Helvetica,sans-Serif" font-size="10.00">l4/re/util/kumem_alloc</text>
</a>
</g>
</g>
<!-- Node13&#45;&gt;Node21 -->
<g id="edge24" class="edge">
<title>Node13&#45;&gt;Node21</title>
<path fill="none" stroke="midnightblue" d="M703.81,-135.44C730.15,-122.57 769.67,-103.26 792.36,-92.17"/>
<polygon fill="midnightblue" stroke="midnightblue" points="702.2,-132.33 694.75,-139.87 705.27,-138.62 702.2,-132.33"/>
</g>
<!-- Node22 -->
<g id="node22" class="node">
<title>Node22</title>
<g id="a_node22"><a xlink:href="object__registry_source.html" target="_top" xlink:title=" ">
<polygon fill="white" stroke="black" points="434.59,-73 434.59,-92 567.59,-92 567.59,-73 434.59,-73"/>
<text text-anchor="middle" x="501.09" y="-80" font-family="Helvetica,sans-Serif" font-size="10.00">l4/re/util/object_registry</text>
</a>
</g>
</g>
<!-- Node13&#45;&gt;Node22 -->
<g id="edge25" class="edge">
<title>Node13&#45;&gt;Node22</title>
<path fill="none" stroke="midnightblue" d="M643.98,-136.27C609.05,-123.37 554.91,-103.38 524.28,-92.06"/>
<polygon fill="midnightblue" stroke="midnightblue" points="643.13,-139.69 653.72,-139.87 645.55,-133.12 643.13,-139.69"/>
</g>
<!-- Node17 -->
<g id="node17" class="node">
<title>Node17</title>
<g id="a_node17"><a xlink:href="ns__fs__impl_8h_source.html" target="_top" xlink:title=" ">
<polygon fill="white" stroke="black" points="981.59,-0.5 981.59,-30.5 1088.59,-30.5 1088.59,-0.5 981.59,-0.5"/>
<text text-anchor="start" x="989.59" y="-18.5" font-family="Helvetica,sans-Serif" font-size="10.00">l4/l4re_vfs/impl/ns</text>
<text text-anchor="middle" x="1035.09" y="-7.5" font-family="Helvetica,sans-Serif" font-size="10.00">_fs_impl.h</text>
</a>
</g>
</g>
<!-- Node16&#45;&gt;Node17 -->
<g id="edge20" class="edge">
<title>Node16&#45;&gt;Node17</title>
<path fill="none" stroke="midnightblue" d="M1035.09,-62.41C1035.09,-52.22 1035.09,-39.9 1035.09,-30.59"/>
<polygon fill="midnightblue" stroke="midnightblue" points="1031.59,-62.73 1035.09,-72.73 1038.59,-62.73 1031.59,-62.73"/>
</g>
<!-- Node20 -->
<g id="node20" class="node">
<title>Node20</title>
<g id="a_node20"><a xlink:href="event__svr_source.html" target="_top" xlink:title=" ">
<polygon fill="white" stroke="black" points="1191.09,-6 1191.09,-25 1299.09,-25 1299.09,-6 1191.09,-6"/>
<text text-anchor="middle" x="1245.09" y="-13" font-family="Helvetica,sans-Serif" font-size="10.00">l4/re/util/event_svr</text>
</a>
</g>
</g>
<!-- Node19&#45;&gt;Node20 -->
<g id="edge23" class="edge">
<title>Node19&#45;&gt;Node20</title>
<path fill="none" stroke="midnightblue" d="M1169.59,-67.09C1188.78,-54.24 1216.24,-35.83 1232.22,-25.13"/>
<polygon fill="midnightblue" stroke="midnightblue" points="1167.53,-64.26 1161.17,-72.73 1171.43,-70.07 1167.53,-64.26"/>
</g>
<!-- Node22&#45;&gt;Node3 -->
<g id="edge26" class="edge">
<title>Node22&#45;&gt;Node3</title>
<path fill="none" stroke="midnightblue" d="M470.08,-69.06C442.64,-58.05 402.63,-41.99 374.05,-30.53"/>
<polygon fill="midnightblue" stroke="midnightblue" points="469,-72.39 479.58,-72.87 471.6,-65.9 469,-72.39"/>
</g>
<!-- Node26 -->
<g id="node26" class="node">
<title>Node26</title>
<g id="a_node26"><a xlink:href="vbus__generic_source.html" target="_top" xlink:title=" ">
<polygon fill="white" stroke="black" points="919.59,-201.5 919.59,-220.5 1038.59,-220.5 1038.59,-201.5 919.59,-201.5"/>
<text text-anchor="middle" x="979.09" y="-208.5" font-family="Helvetica,sans-Serif" font-size="10.00">l4/vbus/vbus_generic</text>
</a>
</g>
</g>
<!-- Node25&#45;&gt;Node26 -->
<g id="edge31" class="edge">
<title>Node25&#45;&gt;Node26</title>
<path fill="none" stroke="midnightblue" d="M979.09,-246.8C979.09,-237.91 979.09,-227.78 979.09,-220.75"/>
<polygon fill="midnightblue" stroke="midnightblue" points="975.59,-247.08 979.09,-257.08 982.59,-247.08 975.59,-247.08"/>
</g>
<!-- Node27 -->
<g id="node27" class="node">
<title>Node27</title>
<g id="a_node27"><a xlink:href="vbus__gpio_source.html" target="_top" xlink:title=" ">
<polygon fill="white" stroke="black" points="1057.09,-201.5 1057.09,-220.5 1161.09,-220.5 1161.09,-201.5 1057.09,-201.5"/>
<text text-anchor="middle" x="1109.09" y="-208.5" font-family="Helvetica,sans-Serif" font-size="10.00">l4/vbus/vbus_gpio</text>
</a>
</g>
</g>
<!-- Node25&#45;&gt;Node27 -->
<g id="edge32" class="edge">
<title>Node25&#45;&gt;Node27</title>
<path fill="none" stroke="midnightblue" d="M1009.18,-253.5C1033.55,-243.38 1067.23,-229.39 1088.59,-220.52"/>
<polygon fill="midnightblue" stroke="midnightblue" points="1007.58,-250.38 999.69,-257.44 1010.27,-256.84 1007.58,-250.38"/>
</g>
<!-- Node28 -->
<g id="node28" class="node">
<title>Node28</title>
<g id="a_node28"><a xlink:href="vbus__pci_source.html" target="_top" xlink:title=" ">
<polygon fill="white" stroke="black" points="803.09,-201.5 803.09,-220.5 901.09,-220.5 901.09,-201.5 803.09,-201.5"/>
<text text-anchor="middle" x="852.09" y="-208.5" font-family="Helvetica,sans-Serif" font-size="10.00">l4/vbus/vbus_pci</text>
</a>
</g>
</g>
<!-- Node25&#45;&gt;Node28 -->
<g id="edge33" class="edge">
<title>Node25&#45;&gt;Node28</title>
<path fill="none" stroke="midnightblue" d="M949.7,-253.5C925.89,-243.38 892.99,-229.39 872.12,-220.52"/>
<polygon fill="midnightblue" stroke="midnightblue" points="948.4,-256.75 958.97,-257.44 951.14,-250.31 948.4,-256.75"/>
</g>
<!-- Node29&#45;&gt;Node3 -->
<g id="edge35" class="edge">
<title>Node29&#45;&gt;Node3</title>
<path fill="none" stroke="midnightblue" d="M311.49,-198.57C264.13,-183.99 192.51,-153.72 160.09,-98 129.27,-45.02 229.67,-26.27 292.43,-19.79"/>
<polygon fill="midnightblue" stroke="midnightblue" points="310.62,-201.96 321.2,-201.44 312.61,-195.25 310.62,-201.96"/>
</g>
<!-- Node29&#45;&gt;Node9 -->
<g id="edge36" class="edge">
<title>Node29&#45;&gt;Node9</title>
<path fill="none" stroke="midnightblue" d="M357.09,-191.23C357.09,-182.59 357.09,-172.5 357.09,-164.52"/>
<polygon fill="midnightblue" stroke="midnightblue" points="353.59,-191.48 357.09,-201.48 360.59,-191.48 353.59,-191.48"/>
</g>
<!-- Node30&#45;&gt;Node20 -->
<g id="edge41" class="edge">
<title>Node30&#45;&gt;Node20</title>
<path fill="none" stroke="midnightblue" d="M1236.55,-314.59C1260.95,-308.38 1290.02,-297.14 1309.09,-277 1329.96,-254.95 1330.09,-242.36 1330.09,-212 1330.09,-212 1330.09,-212 1330.09,-148.5 1330.09,-111.31 1331.27,-98.25 1311.09,-67 1298.96,-48.21 1277.32,-33.66 1262.14,-25.11"/>
<polygon fill="midnightblue" stroke="midnightblue" points="1235.71,-311.19 1226.77,-316.88 1237.3,-318.01 1235.71,-311.19"/>
</g>
<!-- Node30&#45;&gt;Node25 -->
<g id="edge42" class="edge">
<title>Node30&#45;&gt;Node25</title>
<path fill="none" stroke="midnightblue" d="M1148.54,-310.96C1108.31,-300.76 1049.39,-285.82 1012.68,-276.52"/>
<polygon fill="midnightblue" stroke="midnightblue" points="1147.79,-314.38 1158.34,-313.44 1149.51,-307.59 1147.79,-314.38"/>
</g>
<!-- Node31 -->
<g id="node31" class="node">
<title>Node31</title>
<g id="a_node31"><a xlink:href="console_source.html" target="_top" xlink:title=" ">
<polygon fill="white" stroke="black" points="1220.59,-257.5 1220.59,-276.5 1299.59,-276.5 1299.59,-257.5 1220.59,-257.5"/>
<text text-anchor="middle" x="1260.09" y="-264.5" font-family="Helvetica,sans-Serif" font-size="10.00">l4/re/console</text>
</a>
</g>
</g>
<!-- Node30&#45;&gt;Node31 -->
<g id="edge38" class="edge">
<title>Node30&#45;&gt;Node31</title>
<path fill="none" stroke="midnightblue" d="M1210.85,-307.1C1223.09,-297.38 1238.65,-285.03 1248.97,-276.83"/>
<polygon fill="midnightblue" stroke="midnightblue" points="1208.67,-304.36 1203.02,-313.32 1213.02,-309.85 1208.67,-304.36"/>
</g>
<!-- Node32 -->
<g id="node32" class="node">
<title>Node32</title>
<g id="a_node32"><a xlink:href="event__buffer_source.html" target="_top" xlink:title=" ">
<polygon fill="white" stroke="black" points="1155.09,-140 1155.09,-159 1277.09,-159 1277.09,-140 1155.09,-140"/>
<text text-anchor="middle" x="1216.09" y="-147" font-family="Helvetica,sans-Serif" font-size="10.00">l4/re/util/event_buffer</text>
</a>
</g>
</g>
<!-- Node30&#45;&gt;Node32 -->
<g id="edge39" class="edge">
<title>Node30&#45;&gt;Node32</title>
<path fill="none" stroke="midnightblue" d="M1194.7,-303.33C1199.87,-266.43 1211.2,-185.44 1214.9,-159.02"/>
<polygon fill="midnightblue" stroke="midnightblue" points="1191.23,-302.87 1193.32,-313.26 1198.17,-303.84 1191.23,-302.87"/>
</g>
<!-- Node32&#45;&gt;Node18 -->
<g id="edge40" class="edge">
<title>Node32&#45;&gt;Node18</title>
<path fill="none" stroke="midnightblue" d="M1227.38,-131.03C1235.51,-118.45 1246.13,-102.01 1252.52,-92.13"/>
<polygon fill="midnightblue" stroke="midnightblue" points="1224.24,-129.44 1221.76,-139.73 1230.12,-133.23 1224.24,-129.44"/>
</g>
</g>
</svg>
