<?xml version="1.0" encoding="UTF-8" standalone="no"?>
<!DOCTYPE svg PUBLIC "-//W3C//DTD SVG 1.1//EN"
 "http://www.w3.org/Graphics/SVG/1.1/DTD/svg11.dtd">
<!-- Generated by graphviz version 2.43.0 (0)
 -->
<!-- Title: l4/sys/kernel_object.h Pages: 1 -->
<svg width="562pt" height="431pt"
 viewBox="0.00 0.00 561.50 431.00" xmlns="http://www.w3.org/2000/svg" xmlns:xlink="http://www.w3.org/1999/xlink">
<g id="graph0" class="graph" transform="scale(1 1) rotate(0) translate(4 427)">
<title>l4/sys/kernel_object.h</title>
<polygon fill="white" stroke="transparent" points="-4,4 -4,-427 557.5,-427 557.5,4 -4,4"/>
<!-- Node1 -->
<g id="node1" class="node">
<title>Node1</title>
<g id="a_node1"><a xlink:title="Kernel object system calls.">
<polygon fill="#bfbfbf" stroke="black" points="364.5,-403.5 364.5,-422.5 486.5,-422.5 486.5,-403.5 364.5,-403.5"/>
<text text-anchor="middle" x="425.5" y="-410.5" font-family="Helvetica,sans-Serif" font-size="10.00">l4/sys/kernel_object.h</text>
</a>
</g>
</g>
<!-- Node2 -->
<g id="node2" class="node">
<title>Node2</title>
<g id="a_node2"><a xlink:href="l4_2sys_2types_8h.html" target="_top" xlink:title="Common L4 ABI Data Types.">
<polygon fill="white" stroke="black" points="264.5,-168.5 264.5,-187.5 348.5,-187.5 348.5,-168.5 264.5,-168.5"/>
<text text-anchor="middle" x="306.5" y="-175.5" font-family="Helvetica,sans-Serif" font-size="10.00">l4/sys/types.h</text>
</a>
</g>
</g>
<!-- Node1&#45;&gt;Node2 -->
<g id="edge1" class="edge">
<title>Node1&#45;&gt;Node2</title>
<path fill="none" stroke="midnightblue" d="M395.63,-403.37C377.03,-396.48 354.14,-384.95 340.5,-367 301.56,-315.77 302.11,-234.22 304.66,-197.72"/>
<polygon fill="midnightblue" stroke="midnightblue" points="308.17,-197.81 305.52,-187.55 301.19,-197.23 308.17,-197.81"/>
</g>
<!-- Node4 -->
<g id="node4" class="node">
<title>Node4</title>
<g id="a_node4"><a xlink:href="compiler_8h.html" target="_top" xlink:title="L4 compiler related defines.">
<polygon fill="white" stroke="black" points="366,-56.5 366,-75.5 465,-75.5 465,-56.5 366,-56.5"/>
<text text-anchor="middle" x="415.5" y="-63.5" font-family="Helvetica,sans-Serif" font-size="10.00">l4/sys/compiler.h</text>
</a>
</g>
</g>
<!-- Node1&#45;&gt;Node4 -->
<g id="edge12" class="edge">
<title>Node1&#45;&gt;Node4</title>
<path fill="none" stroke="midnightblue" d="M451.25,-403.4C470.04,-396.09 495.16,-384.04 512.5,-367 539.87,-340.1 553.5,-329.38 553.5,-291 553.5,-291 553.5,-291 553.5,-177 553.5,-125.66 494.37,-94.4 453.53,-78.93"/>
<polygon fill="midnightblue" stroke="midnightblue" points="454.69,-75.63 444.09,-75.51 452.3,-82.21 454.69,-75.63"/>
</g>
<!-- Node9 -->
<g id="node9" class="node">
<title>Node9</title>
<g id="a_node9"><a xlink:href="l4_2sys_2utcb_8h.html" target="_top" xlink:title="UTCB definitions.">
<polygon fill="white" stroke="black" points="322.5,-224.5 322.5,-243.5 400.5,-243.5 400.5,-224.5 322.5,-224.5"/>
<text text-anchor="middle" x="361.5" y="-231.5" font-family="Helvetica,sans-Serif" font-size="10.00">l4/sys/utcb.h</text>
</a>
</g>
</g>
<!-- Node1&#45;&gt;Node9 -->
<g id="edge13" class="edge">
<title>Node1&#45;&gt;Node9</title>
<path fill="none" stroke="midnightblue" d="M400.34,-403.38C384.08,-396.34 364.21,-384.65 354.5,-367 334.57,-330.77 346.16,-280.15 354.78,-253.35"/>
<polygon fill="midnightblue" stroke="midnightblue" points="358.14,-254.32 358.08,-243.72 351.52,-252.04 358.14,-254.32"/>
</g>
<!-- Node10 -->
<g id="node10" class="node">
<title>Node10</title>
<g id="a_node10"><a xlink:href="____kernel__object__impl_8h.html" target="_top" xlink:title="Low&#45;level kernel debugger functions.">
<polygon fill="white" stroke="black" points="363.5,-336.5 363.5,-366.5 487.5,-366.5 487.5,-336.5 363.5,-336.5"/>
<text text-anchor="start" x="371.5" y="-354.5" font-family="Helvetica,sans-Serif" font-size="10.00">l4/sys/__kernel_object</text>
<text text-anchor="middle" x="425.5" y="-343.5" font-family="Helvetica,sans-Serif" font-size="10.00">_impl.h</text>
</a>
</g>
</g>
<!-- Node1&#45;&gt;Node10 -->
<g id="edge17" class="edge">
<title>Node1&#45;&gt;Node10</title>
<path fill="none" stroke="midnightblue" d="M425.5,-403.48C425.5,-396.47 425.5,-386.19 425.5,-376.7"/>
<polygon fill="midnightblue" stroke="midnightblue" points="429,-376.52 425.5,-366.52 422,-376.52 429,-376.52"/>
</g>
<!-- Node11 -->
<g id="node11" class="node">
<title>Node11</title>
<g id="a_node11"><a xlink:href="l4_2sys_2ipc_8h.html" target="_top" xlink:title="Common IPC interface.">
<polygon fill="white" stroke="black" points="393,-280.5 393,-299.5 464,-299.5 464,-280.5 393,-280.5"/>
<text text-anchor="middle" x="428.5" y="-287.5" font-family="Helvetica,sans-Serif" font-size="10.00">l4/sys/ipc.h</text>
</a>
</g>
</g>
<!-- Node1&#45;&gt;Node11 -->
<g id="edge23" class="edge">
<title>Node1&#45;&gt;Node11</title>
<path fill="none" stroke="midnightblue" d="M450.66,-403.38C466.92,-396.34 486.79,-384.65 496.5,-367 503.14,-354.93 503.02,-348.14 496.5,-336 488.88,-321.82 474.6,-311.35 461.09,-304.1"/>
<polygon fill="midnightblue" stroke="midnightblue" points="462.47,-300.88 451.95,-299.59 459.37,-307.16 462.47,-300.88"/>
</g>
<!-- Node3 -->
<g id="node3" class="node">
<title>Node3</title>
<g id="a_node3"><a xlink:href="l4_2sys_2l4int_8h.html" target="_top" xlink:title="Fixed sized integer types, generic version.">
<polygon fill="white" stroke="black" points="0,-56.5 0,-75.5 79,-75.5 79,-56.5 0,-56.5"/>
<text text-anchor="middle" x="39.5" y="-63.5" font-family="Helvetica,sans-Serif" font-size="10.00">l4/sys/l4int.h</text>
</a>
</g>
</g>
<!-- Node2&#45;&gt;Node3 -->
<g id="edge2" class="edge">
<title>Node2&#45;&gt;Node3</title>
<path fill="none" stroke="midnightblue" d="M264.46,-176.87C192.11,-175.64 48.79,-168.54 17.5,-132 5.69,-118.21 15.74,-97.81 25.8,-83.55"/>
<polygon fill="midnightblue" stroke="midnightblue" points="28.6,-85.66 31.87,-75.58 23.03,-81.41 28.6,-85.66"/>
</g>
<!-- Node2&#45;&gt;Node4 -->
<g id="edge3" class="edge">
<title>Node2&#45;&gt;Node4</title>
<path fill="none" stroke="midnightblue" d="M325.12,-168.35C340.54,-160.5 362.3,-147.75 377.5,-132 390.66,-118.36 401.11,-99.31 407.69,-85.36"/>
<polygon fill="midnightblue" stroke="midnightblue" points="411.05,-86.42 411.95,-75.86 404.66,-83.55 411.05,-86.42"/>
</g>
<!-- Node6 -->
<g id="node6" class="node">
<title>Node6</title>
<g id="a_node6"><a xlink:href="l4_2sys_2consts_8h.html" target="_top" xlink:title="Common constants.">
<polygon fill="white" stroke="black" points="151,-112.5 151,-131.5 240,-131.5 240,-112.5 151,-112.5"/>
<text text-anchor="middle" x="195.5" y="-119.5" font-family="Helvetica,sans-Serif" font-size="10.00">l4/sys/consts.h</text>
</a>
</g>
</g>
<!-- Node2&#45;&gt;Node6 -->
<g id="edge5" class="edge">
<title>Node2&#45;&gt;Node6</title>
<path fill="none" stroke="midnightblue" d="M288.67,-168.32C270.78,-159.62 243.02,-146.12 222.45,-136.11"/>
<polygon fill="midnightblue" stroke="midnightblue" points="223.81,-132.88 213.29,-131.65 220.75,-139.18 223.81,-132.88"/>
</g>
<!-- Node7 -->
<g id="node7" class="node">
<title>Node7</title>
<g id="a_node7"><a xlink:href="____l4__fpage_8h_source.html" target="_top" xlink:title=" ">
<polygon fill="white" stroke="black" points="258.5,-112.5 258.5,-131.5 368.5,-131.5 368.5,-112.5 258.5,-112.5"/>
<text text-anchor="middle" x="313.5" y="-119.5" font-family="Helvetica,sans-Serif" font-size="10.00">l4/sys/__l4_fpage.h</text>
</a>
</g>
</g>
<!-- Node2&#45;&gt;Node7 -->
<g id="edge8" class="edge">
<title>Node2&#45;&gt;Node7</title>
<path fill="none" stroke="midnightblue" d="M307.66,-168.08C308.58,-160.93 309.92,-150.64 311.08,-141.69"/>
<polygon fill="midnightblue" stroke="midnightblue" points="314.55,-142.12 312.37,-131.75 307.61,-141.22 314.55,-142.12"/>
</g>
<!-- Node8 -->
<g id="node8" class="node">
<title>Node8</title>
<g id="a_node8"><a xlink:href="____timeout_8h_source.html" target="_top" xlink:title=" ">
<polygon fill="white" stroke="black" points="26.5,-112.5 26.5,-131.5 132.5,-131.5 132.5,-112.5 26.5,-112.5"/>
<text text-anchor="middle" x="79.5" y="-119.5" font-family="Helvetica,sans-Serif" font-size="10.00">l4/sys/__timeout.h</text>
</a>
</g>
</g>
<!-- Node2&#45;&gt;Node8 -->
<g id="edge10" class="edge">
<title>Node2&#45;&gt;Node8</title>
<path fill="none" stroke="midnightblue" d="M270.53,-168.44C231.18,-159.08 168.01,-144.06 125.19,-133.87"/>
<polygon fill="midnightblue" stroke="midnightblue" points="125.84,-130.43 115.3,-131.52 124.22,-137.24 125.84,-130.43"/>
</g>
<!-- Node5 -->
<g id="node5" class="node">
<title>Node5</title>
<g id="a_node5"><a xlink:title=" ">
<polygon fill="white" stroke="#bfbfbf" points="369.5,-0.5 369.5,-19.5 461.5,-19.5 461.5,-0.5 369.5,-0.5"/>
<text text-anchor="middle" x="415.5" y="-7.5" font-family="Helvetica,sans-Serif" font-size="10.00">l4/sys/linkage.h</text>
</a>
</g>
</g>
<!-- Node4&#45;&gt;Node5 -->
<g id="edge4" class="edge">
<title>Node4&#45;&gt;Node5</title>
<path fill="none" stroke="midnightblue" d="M415.5,-56.08C415.5,-49.01 415.5,-38.86 415.5,-29.99"/>
<polygon fill="midnightblue" stroke="midnightblue" points="419,-29.75 415.5,-19.75 412,-29.75 419,-29.75"/>
</g>
<!-- Node6&#45;&gt;Node3 -->
<g id="edge7" class="edge">
<title>Node6&#45;&gt;Node3</title>
<path fill="none" stroke="midnightblue" d="M170.78,-112.44C144.65,-103.4 103.24,-89.06 73.92,-78.92"/>
<polygon fill="midnightblue" stroke="midnightblue" points="74.7,-75.48 64.1,-75.52 72.41,-82.1 74.7,-75.48"/>
</g>
<!-- Node6&#45;&gt;Node4 -->
<g id="edge6" class="edge">
<title>Node6&#45;&gt;Node4</title>
<path fill="none" stroke="midnightblue" d="M230.36,-112.44C268.42,-103.1 329.46,-88.12 370.96,-77.93"/>
<polygon fill="midnightblue" stroke="midnightblue" points="371.93,-81.3 380.8,-75.52 370.26,-74.5 371.93,-81.3"/>
</g>
<!-- Node7&#45;&gt;Node4 -->
<g id="edge9" class="edge">
<title>Node7&#45;&gt;Node4</title>
<path fill="none" stroke="midnightblue" d="M329.89,-112.32C346.17,-103.7 371.37,-90.36 390.22,-80.39"/>
<polygon fill="midnightblue" stroke="midnightblue" points="391.95,-83.43 399.15,-75.65 388.68,-77.24 391.95,-83.43"/>
</g>
<!-- Node8&#45;&gt;Node3 -->
<g id="edge11" class="edge">
<title>Node8&#45;&gt;Node3</title>
<path fill="none" stroke="midnightblue" d="M72.89,-112.08C67.24,-104.46 58.96,-93.26 52.05,-83.94"/>
<polygon fill="midnightblue" stroke="midnightblue" points="54.75,-81.7 45.98,-75.75 49.12,-85.87 54.75,-81.7"/>
</g>
<!-- Node9&#45;&gt;Node2 -->
<g id="edge14" class="edge">
<title>Node9&#45;&gt;Node2</title>
<path fill="none" stroke="midnightblue" d="M352.42,-224.08C344.33,-216.14 332.3,-204.34 322.59,-194.8"/>
<polygon fill="midnightblue" stroke="midnightblue" points="325,-192.26 315.41,-187.75 320.1,-197.25 325,-192.26"/>
</g>
<!-- Node9&#45;&gt;Node3 -->
<g id="edge16" class="edge">
<title>Node9&#45;&gt;Node3</title>
<path fill="none" stroke="midnightblue" d="M322.47,-227.74C238.81,-215.58 46.68,-182.64 8.5,-132 -2.95,-116.81 10.16,-96.72 22.68,-82.92"/>
<polygon fill="midnightblue" stroke="midnightblue" points="25.33,-85.21 29.79,-75.6 20.31,-80.33 25.33,-85.21"/>
</g>
<!-- Node9&#45;&gt;Node4 -->
<g id="edge15" class="edge">
<title>Node9&#45;&gt;Node4</title>
<path fill="none" stroke="midnightblue" d="M364.95,-224.45C371.85,-207.16 387.62,-166.75 398.5,-132 403.3,-116.68 407.85,-99.03 411.04,-86"/>
<polygon fill="midnightblue" stroke="midnightblue" points="414.53,-86.45 413.46,-75.91 407.72,-84.82 414.53,-86.45"/>
</g>
<!-- Node10&#45;&gt;Node11 -->
<g id="edge18" class="edge">
<title>Node10&#45;&gt;Node11</title>
<path fill="none" stroke="midnightblue" d="M426.21,-336.4C426.61,-328.47 427.12,-318.46 427.55,-309.86"/>
<polygon fill="midnightblue" stroke="midnightblue" points="431.06,-309.82 428.06,-299.66 424.06,-309.47 431.06,-309.82"/>
</g>
<!-- Node11&#45;&gt;Node2 -->
<g id="edge19" class="edge">
<title>Node11&#45;&gt;Node2</title>
<path fill="none" stroke="midnightblue" d="M428.23,-280.32C427.35,-266.71 423.79,-240.24 409.5,-224 395.44,-208.02 374.66,-197.49 355.44,-190.66"/>
<polygon fill="midnightblue" stroke="midnightblue" points="356.47,-187.32 345.88,-187.51 354.28,-193.97 356.47,-187.32"/>
</g>
<!-- Node11&#45;&gt;Node9 -->
<g id="edge20" class="edge">
<title>Node11&#45;&gt;Node9</title>
<path fill="none" stroke="midnightblue" d="M417.74,-280.32C407.73,-272.26 392.61,-260.08 380.57,-250.37"/>
<polygon fill="midnightblue" stroke="midnightblue" points="382.44,-247.38 372.46,-243.83 378.05,-252.83 382.44,-247.38"/>
</g>
<!-- Node12 -->
<g id="node12" class="node">
<title>Node12</title>
<g id="a_node12"><a xlink:href="err_8h.html" target="_top" xlink:title="Error codes.">
<polygon fill="white" stroke="black" points="455.5,-168.5 455.5,-187.5 525.5,-187.5 525.5,-168.5 455.5,-168.5"/>
<text text-anchor="middle" x="490.5" y="-175.5" font-family="Helvetica,sans-Serif" font-size="10.00">l4/sys/err.h</text>
</a>
</g>
</g>
<!-- Node11&#45;&gt;Node12 -->
<g id="edge21" class="edge">
<title>Node11&#45;&gt;Node12</title>
<path fill="none" stroke="midnightblue" d="M433.37,-280.37C443.55,-262.3 467.29,-220.18 480.74,-196.31"/>
<polygon fill="midnightblue" stroke="midnightblue" points="483.8,-198.02 485.66,-187.59 477.7,-194.58 483.8,-198.02"/>
</g>
<!-- Node12&#45;&gt;Node4 -->
<g id="edge22" class="edge">
<title>Node12&#45;&gt;Node4</title>
<path fill="none" stroke="midnightblue" d="M485.22,-168.48C477.41,-155.96 462.22,-131.92 448.5,-112 441.96,-102.51 434.37,-92.12 428.12,-83.72"/>
<polygon fill="midnightblue" stroke="midnightblue" points="430.78,-81.42 421.98,-75.52 425.17,-85.62 430.78,-81.42"/>
</g>
</g>
</svg>
