<?xml version="1.0" encoding="UTF-8" standalone="no"?>
<!DOCTYPE svg PUBLIC "-//W3C//DTD SVG 1.1//EN"
 "http://www.w3.org/Graphics/SVG/1.1/DTD/svg11.dtd">
<!-- Generated by graphviz version 2.43.0 (0)
 -->
<!-- Title: l4/irq/irq.h Pages: 1 -->
<svg width="427pt" height="252pt"
 viewBox="0.00 0.00 427.00 252.00" xmlns="http://www.w3.org/2000/svg" xmlns:xlink="http://www.w3.org/1999/xlink">
<g id="graph0" class="graph" transform="scale(1 1) rotate(0) translate(4 248)">
<title>l4/irq/irq.h</title>
<polygon fill="white" stroke="transparent" points="-4,4 -4,-248 423,-248 423,4 -4,4"/>
<!-- Node1 -->
<g id="node1" class="node">
<title>Node1</title>
<g id="a_node1"><a xlink:title="IRQ handling routines.">
<polygon fill="#bfbfbf" stroke="black" points="0,-224.5 0,-243.5 66,-243.5 66,-224.5 0,-224.5"/>
<text text-anchor="middle" x="33" y="-231.5" font-family="Helvetica,sans-Serif" font-size="10.00">l4/irq/irq.h</text>
</a>
</g>
</g>
<!-- Node2 -->
<g id="node2" class="node">
<title>Node2</title>
<g id="a_node2"><a xlink:href="compiler_8h.html" target="_top" xlink:title="L4 compiler related defines.">
<polygon fill="white" stroke="black" points="3.5,-56.5 3.5,-75.5 102.5,-75.5 102.5,-56.5 3.5,-56.5"/>
<text text-anchor="middle" x="53" y="-63.5" font-family="Helvetica,sans-Serif" font-size="10.00">l4/sys/compiler.h</text>
</a>
</g>
</g>
<!-- Node1&#45;&gt;Node2 -->
<g id="edge1" class="edge">
<title>Node1&#45;&gt;Node2</title>
<path fill="none" stroke="midnightblue" d="M29.95,-224.25C23.37,-203.99 9.41,-152.48 22,-112 25.23,-101.62 31.78,-91.52 38.02,-83.53"/>
<polygon fill="midnightblue" stroke="midnightblue" points="40.79,-85.68 44.52,-75.77 35.42,-81.19 40.79,-85.68"/>
</g>
<!-- Node4 -->
<g id="node4" class="node">
<title>Node4</title>
<g id="a_node4"><a xlink:href="l4_2sys_2types_8h.html" target="_top" xlink:title="Common L4 ABI Data Types.">
<polygon fill="white" stroke="black" points="111,-168.5 111,-187.5 195,-187.5 195,-168.5 111,-168.5"/>
<text text-anchor="middle" x="153" y="-175.5" font-family="Helvetica,sans-Serif" font-size="10.00">l4/sys/types.h</text>
</a>
</g>
</g>
<!-- Node1&#45;&gt;Node4 -->
<g id="edge3" class="edge">
<title>Node1&#45;&gt;Node4</title>
<path fill="none" stroke="midnightblue" d="M52.01,-224.44C71.59,-215.64 102.31,-201.81 124.73,-191.72"/>
<polygon fill="midnightblue" stroke="midnightblue" points="126.39,-194.81 134.07,-187.52 123.52,-188.43 126.39,-194.81"/>
</g>
<!-- Node3 -->
<g id="node3" class="node">
<title>Node3</title>
<g id="a_node3"><a xlink:title=" ">
<polygon fill="white" stroke="#bfbfbf" points="7,-0.5 7,-19.5 99,-19.5 99,-0.5 7,-0.5"/>
<text text-anchor="middle" x="53" y="-7.5" font-family="Helvetica,sans-Serif" font-size="10.00">l4/sys/linkage.h</text>
</a>
</g>
</g>
<!-- Node2&#45;&gt;Node3 -->
<g id="edge2" class="edge">
<title>Node2&#45;&gt;Node3</title>
<path fill="none" stroke="midnightblue" d="M53,-56.08C53,-49.01 53,-38.86 53,-29.99"/>
<polygon fill="midnightblue" stroke="midnightblue" points="56.5,-29.75 53,-19.75 49.5,-29.75 56.5,-29.75"/>
</g>
<!-- Node4&#45;&gt;Node2 -->
<g id="edge5" class="edge">
<title>Node4&#45;&gt;Node2</title>
<path fill="none" stroke="midnightblue" d="M110.75,-173.63C82.81,-168.95 48.11,-157.91 30,-132 19.76,-117.35 29.29,-97.68 39.01,-83.83"/>
<polygon fill="midnightblue" stroke="midnightblue" points="41.94,-85.75 45.22,-75.68 36.37,-81.51 41.94,-85.75"/>
</g>
<!-- Node5 -->
<g id="node5" class="node">
<title>Node5</title>
<g id="a_node5"><a xlink:href="l4_2sys_2l4int_8h.html" target="_top" xlink:title="Fixed sized integer types, generic version.">
<polygon fill="white" stroke="black" points="245.5,-56.5 245.5,-75.5 324.5,-75.5 324.5,-56.5 245.5,-56.5"/>
<text text-anchor="middle" x="285" y="-63.5" font-family="Helvetica,sans-Serif" font-size="10.00">l4/sys/l4int.h</text>
</a>
</g>
</g>
<!-- Node4&#45;&gt;Node5 -->
<g id="edge4" class="edge">
<title>Node4&#45;&gt;Node5</title>
<path fill="none" stroke="midnightblue" d="M195.03,-169.71C218.9,-163.51 247.6,-152.23 266,-132 277.49,-119.37 282.05,-100.16 283.86,-85.9"/>
<polygon fill="midnightblue" stroke="midnightblue" points="287.36,-86.01 284.79,-75.74 280.39,-85.37 287.36,-86.01"/>
</g>
<!-- Node6 -->
<g id="node6" class="node">
<title>Node6</title>
<g id="a_node6"><a xlink:href="l4_2sys_2consts_8h.html" target="_top" xlink:title="Common constants.">
<polygon fill="white" stroke="black" points="167.5,-112.5 167.5,-131.5 256.5,-131.5 256.5,-112.5 167.5,-112.5"/>
<text text-anchor="middle" x="212" y="-119.5" font-family="Helvetica,sans-Serif" font-size="10.00">l4/sys/consts.h</text>
</a>
</g>
</g>
<!-- Node4&#45;&gt;Node6 -->
<g id="edge6" class="edge">
<title>Node4&#45;&gt;Node6</title>
<path fill="none" stroke="midnightblue" d="M162.48,-168.32C171.2,-160.34 184.34,-148.31 194.9,-138.65"/>
<polygon fill="midnightblue" stroke="midnightblue" points="197.33,-141.17 202.35,-131.83 192.61,-136 197.33,-141.17"/>
</g>
<!-- Node7 -->
<g id="node7" class="node">
<title>Node7</title>
<g id="a_node7"><a xlink:href="____l4__fpage_8h_source.html" target="_top" xlink:title=" ">
<polygon fill="white" stroke="black" points="39,-112.5 39,-131.5 149,-131.5 149,-112.5 39,-112.5"/>
<text text-anchor="middle" x="94" y="-119.5" font-family="Helvetica,sans-Serif" font-size="10.00">l4/sys/__l4_fpage.h</text>
</a>
</g>
</g>
<!-- Node4&#45;&gt;Node7 -->
<g id="edge9" class="edge">
<title>Node4&#45;&gt;Node7</title>
<path fill="none" stroke="midnightblue" d="M143.52,-168.32C134.8,-160.34 121.66,-148.31 111.1,-138.65"/>
<polygon fill="midnightblue" stroke="midnightblue" points="113.39,-136 103.65,-131.83 108.67,-141.17 113.39,-136"/>
</g>
<!-- Node8 -->
<g id="node8" class="node">
<title>Node8</title>
<g id="a_node8"><a xlink:href="____timeout_8h_source.html" target="_top" xlink:title=" ">
<polygon fill="white" stroke="black" points="313,-112.5 313,-131.5 419,-131.5 419,-112.5 313,-112.5"/>
<text text-anchor="middle" x="366" y="-119.5" font-family="Helvetica,sans-Serif" font-size="10.00">l4/sys/__timeout.h</text>
</a>
</g>
</g>
<!-- Node4&#45;&gt;Node8 -->
<g id="edge11" class="edge">
<title>Node4&#45;&gt;Node8</title>
<path fill="none" stroke="midnightblue" d="M186.75,-168.44C223.52,-159.12 282.45,-144.18 322.62,-134"/>
<polygon fill="midnightblue" stroke="midnightblue" points="323.57,-137.37 332.41,-131.52 321.85,-130.58 323.57,-137.37"/>
</g>
<!-- Node6&#45;&gt;Node2 -->
<g id="edge7" class="edge">
<title>Node6&#45;&gt;Node2</title>
<path fill="none" stroke="midnightblue" d="M186.81,-112.44C160.06,-103.36 117.6,-88.94 87.69,-78.78"/>
<polygon fill="midnightblue" stroke="midnightblue" points="88.67,-75.42 78.08,-75.52 86.42,-82.05 88.67,-75.42"/>
</g>
<!-- Node6&#45;&gt;Node5 -->
<g id="edge8" class="edge">
<title>Node6&#45;&gt;Node5</title>
<path fill="none" stroke="midnightblue" d="M223.73,-112.32C234.84,-104.11 251.74,-91.6 264.98,-81.81"/>
<polygon fill="midnightblue" stroke="midnightblue" points="267.1,-84.59 273.06,-75.83 262.94,-78.97 267.1,-84.59"/>
</g>
<!-- Node7&#45;&gt;Node2 -->
<g id="edge10" class="edge">
<title>Node7&#45;&gt;Node2</title>
<path fill="none" stroke="midnightblue" d="M87.23,-112.08C81.44,-104.46 72.94,-93.26 65.86,-83.94"/>
<polygon fill="midnightblue" stroke="midnightblue" points="68.48,-81.6 59.64,-75.75 62.9,-85.83 68.48,-81.6"/>
</g>
<!-- Node8&#45;&gt;Node5 -->
<g id="edge12" class="edge">
<title>Node8&#45;&gt;Node5</title>
<path fill="none" stroke="midnightblue" d="M352.99,-112.32C340.47,-103.98 321.32,-91.21 306.53,-81.35"/>
<polygon fill="midnightblue" stroke="midnightblue" points="308.24,-78.29 297.98,-75.65 304.36,-84.11 308.24,-78.29"/>
</g>
</g>
</svg>
