<?xml version="1.0" encoding="UTF-8" standalone="no"?>
<!DOCTYPE svg PUBLIC "-//W3C//DTD SVG 1.1//EN"
 "http://www.w3.org/Graphics/SVG/1.1/DTD/svg11.dtd">
<!-- Generated by graphviz version 2.43.0 (0)
 -->
<!-- Title: l4/sys/irq.h Pages: 1 -->
<svg width="1430pt" height="453pt"
 viewBox="0.00 0.00 1429.85 453.00" xmlns="http://www.w3.org/2000/svg" xmlns:xlink="http://www.w3.org/1999/xlink">
<g id="graph0" class="graph" transform="scale(1 1) rotate(0) translate(4 449)">
<title>l4/sys/irq.h</title>
<polygon fill="white" stroke="transparent" points="-4,4 -4,-449 1425.85,-449 1425.85,4 -4,4"/>
<!-- Node1 -->
<g id="node1" class="node">
<title>Node1</title>
<g id="a_node1"><a xlink:title="C Irq interface.">
<polygon fill="#bfbfbf" stroke="black" points="880.35,-425.5 880.35,-444.5 950.35,-444.5 950.35,-425.5 880.35,-425.5"/>
<text text-anchor="middle" x="915.35" y="-432.5" font-family="Helvetica,sans-Serif" font-size="10.00">l4/sys/irq.h</text>
</a>
</g>
</g>
<!-- Node2 -->
<g id="node2" class="node">
<title>Node2</title>
<g id="a_node2"><a xlink:href="irq.html" target="_top" xlink:title="C++ Irq interface.">
<polygon fill="white" stroke="black" points="832.85,-369.5 832.85,-388.5 893.85,-388.5 893.85,-369.5 832.85,-369.5"/>
<text text-anchor="middle" x="863.35" y="-376.5" font-family="Helvetica,sans-Serif" font-size="10.00">l4/sys/irq</text>
</a>
</g>
</g>
<!-- Node1&#45;&gt;Node2 -->
<g id="edge1" class="edge">
<title>Node1&#45;&gt;Node2</title>
<path fill="none" stroke="midnightblue" d="M899.67,-417.72C890.5,-408.2 879.29,-396.56 871.77,-388.75"/>
<polygon fill="midnightblue" stroke="midnightblue" points="897.3,-420.31 906.76,-425.08 902.34,-415.45 897.3,-420.31"/>
</g>
<!-- Node34 -->
<g id="node34" class="node">
<title>Node34</title>
<g id="a_node34"><a xlink:href="semaphore_8h_source.html" target="_top" xlink:title=" ">
<polygon fill="white" stroke="black" points="912.35,-369.5 912.35,-388.5 1024.35,-388.5 1024.35,-369.5 912.35,-369.5"/>
<text text-anchor="middle" x="968.35" y="-376.5" font-family="Helvetica,sans-Serif" font-size="10.00">l4/sys/semaphore.h</text>
</a>
</g>
</g>
<!-- Node1&#45;&gt;Node34 -->
<g id="edge44" class="edge">
<title>Node1&#45;&gt;Node34</title>
<path fill="none" stroke="midnightblue" d="M931.33,-417.72C940.67,-408.2 952.09,-396.56 959.76,-388.75"/>
<polygon fill="midnightblue" stroke="midnightblue" points="928.6,-415.49 924.1,-425.08 933.6,-420.4 928.6,-415.49"/>
</g>
<!-- Node3 -->
<g id="node3" class="node">
<title>Node3</title>
<g id="a_node3"><a xlink:href="l4virtio_source.html" target="_top" xlink:title=" ">
<polygon fill="white" stroke="black" points="1247.85,-140 1247.85,-159 1348.85,-159 1348.85,-140 1247.85,-140"/>
<text text-anchor="middle" x="1298.35" y="-147" font-family="Helvetica,sans-Serif" font-size="10.00">l4/l4virtio/l4virtio</text>
</a>
</g>
</g>
<!-- Node2&#45;&gt;Node3 -->
<g id="edge2" class="edge">
<title>Node2&#45;&gt;Node3</title>
<path fill="none" stroke="midnightblue" d="M871.95,-360.31C879.72,-345.9 892.39,-325.9 908.35,-313 1018.42,-223.98 1184.19,-176.83 1259.11,-159.01"/>
<polygon fill="midnightblue" stroke="midnightblue" points="868.82,-358.74 867.36,-369.24 875.04,-361.94 868.82,-358.74"/>
</g>
<!-- Node7 -->
<g id="node7" class="node">
<title>Node7</title>
<g id="a_node7"><a xlink:href="icu.html" target="_top" xlink:title="Interrupt controller.">
<polygon fill="white" stroke="black" points="630.35,-313.5 630.35,-332.5 692.35,-332.5 692.35,-313.5 630.35,-313.5"/>
<text text-anchor="middle" x="661.35" y="-320.5" font-family="Helvetica,sans-Serif" font-size="10.00">l4/sys/icu</text>
</a>
</g>
</g>
<!-- Node2&#45;&gt;Node7 -->
<g id="edge6" class="edge">
<title>Node2&#45;&gt;Node7</title>
<path fill="none" stroke="midnightblue" d="M822.85,-367.17C784.48,-356.92 727.66,-341.73 692.65,-332.37"/>
<polygon fill="midnightblue" stroke="midnightblue" points="822.1,-370.6 832.67,-369.8 823.91,-363.83 822.1,-370.6"/>
</g>
<!-- Node30 -->
<g id="node30" class="node">
<title>Node30</title>
<g id="a_node30"><a xlink:href="semaphore.html" target="_top" xlink:title="Semaphore class definition.">
<polygon fill="white" stroke="black" points="916.85,-313.5 916.85,-332.5 1019.85,-332.5 1019.85,-313.5 916.85,-313.5"/>
<text text-anchor="middle" x="968.35" y="-320.5" font-family="Helvetica,sans-Serif" font-size="10.00">l4/sys/semaphore</text>
</a>
</g>
</g>
<!-- Node2&#45;&gt;Node30 -->
<g id="edge35" class="edge">
<title>Node2&#45;&gt;Node30</title>
<path fill="none" stroke="midnightblue" d="M889.16,-364.73C908.6,-354.73 934.69,-341.31 951.52,-332.65"/>
<polygon fill="midnightblue" stroke="midnightblue" points="887.51,-361.64 880.22,-369.32 890.71,-367.86 887.51,-361.64"/>
</g>
<!-- Node31 -->
<g id="node31" class="node">
<title>Node31</title>
<g id="a_node31"><a xlink:href="event_source.html" target="_top" xlink:title=" ">
<polygon fill="white" stroke="black" points="101.85,-313.5 101.85,-332.5 170.85,-332.5 170.85,-313.5 101.85,-313.5"/>
<text text-anchor="middle" x="136.35" y="-320.5" font-family="Helvetica,sans-Serif" font-size="10.00">l4/re/event</text>
</a>
</g>
</g>
<!-- Node2&#45;&gt;Node31 -->
<g id="edge38" class="edge">
<title>Node2&#45;&gt;Node31</title>
<path fill="none" stroke="midnightblue" d="M822.26,-374.95C692.24,-365.29 291.27,-335.51 170.87,-326.56"/>
<polygon fill="midnightblue" stroke="midnightblue" points="822.34,-378.46 832.57,-375.71 822.86,-371.48 822.34,-378.46"/>
</g>
<!-- Node4 -->
<g id="node4" class="node">
<title>Node4</title>
<g id="a_node4"><a xlink:href="client_2virtio-block_source.html" target="_top" xlink:title=" ">
<polygon fill="white" stroke="black" points="1328.85,-0.5 1328.85,-30.5 1421.85,-30.5 1421.85,-0.5 1328.85,-0.5"/>
<text text-anchor="start" x="1336.85" y="-18.5" font-family="Helvetica,sans-Serif" font-size="10.00">l4/l4virtio/client</text>
<text text-anchor="middle" x="1375.35" y="-7.5" font-family="Helvetica,sans-Serif" font-size="10.00">/virtio&#45;block</text>
</a>
</g>
</g>
<!-- Node3&#45;&gt;Node4 -->
<g id="edge3" class="edge">
<title>Node3&#45;&gt;Node4</title>
<path fill="none" stroke="midnightblue" d="M1320.99,-134.05C1333.23,-125.1 1347.59,-112.54 1356.35,-98 1369.08,-76.84 1373.28,-47.84 1374.67,-30.75"/>
<polygon fill="midnightblue" stroke="midnightblue" points="1318.77,-131.33 1312.56,-139.91 1322.76,-137.08 1318.77,-131.33"/>
</g>
<!-- Node5 -->
<g id="node5" class="node">
<title>Node5</title>
<g id="a_node5"><a xlink:href="server_2l4virtio_source.html" target="_top" xlink:title=" ">
<polygon fill="white" stroke="black" points="1249.85,-67.5 1249.85,-97.5 1346.85,-97.5 1346.85,-67.5 1249.85,-67.5"/>
<text text-anchor="start" x="1257.85" y="-85.5" font-family="Helvetica,sans-Serif" font-size="10.00">l4/l4virtio/server</text>
<text text-anchor="middle" x="1298.35" y="-74.5" font-family="Helvetica,sans-Serif" font-size="10.00">/l4virtio</text>
</a>
</g>
</g>
<!-- Node3&#45;&gt;Node5 -->
<g id="edge4" class="edge">
<title>Node3&#45;&gt;Node5</title>
<path fill="none" stroke="midnightblue" d="M1298.35,-129.41C1298.35,-119.22 1298.35,-106.9 1298.35,-97.59"/>
<polygon fill="midnightblue" stroke="midnightblue" points="1294.85,-129.73 1298.35,-139.73 1301.85,-129.73 1294.85,-129.73"/>
</g>
<!-- Node6 -->
<g id="node6" class="node">
<title>Node6</title>
<g id="a_node6"><a xlink:href="server_2virtio-block_source.html" target="_top" xlink:title=" ">
<polygon fill="white" stroke="black" points="1213.85,-0.5 1213.85,-30.5 1310.85,-30.5 1310.85,-0.5 1213.85,-0.5"/>
<text text-anchor="start" x="1221.85" y="-18.5" font-family="Helvetica,sans-Serif" font-size="10.00">l4/l4virtio/server</text>
<text text-anchor="middle" x="1262.35" y="-7.5" font-family="Helvetica,sans-Serif" font-size="10.00">/virtio&#45;block</text>
</a>
</g>
</g>
<!-- Node5&#45;&gt;Node6 -->
<g id="edge5" class="edge">
<title>Node5&#45;&gt;Node6</title>
<path fill="none" stroke="midnightblue" d="M1285.65,-58.58C1280.48,-49.24 1274.67,-38.75 1270.14,-30.58"/>
<polygon fill="midnightblue" stroke="midnightblue" points="1282.63,-60.34 1290.53,-67.4 1288.75,-56.95 1282.63,-60.34"/>
</g>
<!-- Node8 -->
<g id="node8" class="node">
<title>Node8</title>
<g id="a_node8"><a xlink:href="scheduler.html" target="_top" xlink:title="Scheduler object functions.">
<polygon fill="white" stroke="black" points="764.85,-257.5 764.85,-276.5 859.85,-276.5 859.85,-257.5 764.85,-257.5"/>
<text text-anchor="middle" x="812.35" y="-264.5" font-family="Helvetica,sans-Serif" font-size="10.00">l4/sys/scheduler</text>
</a>
</g>
</g>
<!-- Node7&#45;&gt;Node8 -->
<g id="edge7" class="edge">
<title>Node7&#45;&gt;Node8</title>
<path fill="none" stroke="midnightblue" d="M694.79,-310.04C723.2,-299.88 763.28,-285.55 788.53,-276.52"/>
<polygon fill="midnightblue" stroke="midnightblue" points="693.51,-306.78 685.27,-313.44 695.87,-313.37 693.51,-306.78"/>
</g>
<!-- Node9 -->
<g id="node9" class="node">
<title>Node9</title>
<g id="a_node9"><a xlink:href="vcon.html" target="_top" xlink:title="Virtual console interface.">
<polygon fill="white" stroke="black" points="578.85,-257.5 578.85,-276.5 649.85,-276.5 649.85,-257.5 578.85,-257.5"/>
<text text-anchor="middle" x="614.35" y="-264.5" font-family="Helvetica,sans-Serif" font-size="10.00">l4/sys/vcon</text>
</a>
</g>
</g>
<!-- Node7&#45;&gt;Node9 -->
<g id="edge8" class="edge">
<title>Node7&#45;&gt;Node9</title>
<path fill="none" stroke="midnightblue" d="M646.93,-305.43C638.69,-295.97 628.69,-284.48 621.96,-276.75"/>
<polygon fill="midnightblue" stroke="midnightblue" points="644.38,-307.84 653.58,-313.08 649.66,-303.24 644.38,-307.84"/>
</g>
<!-- Node20 -->
<g id="node20" class="node">
<title>Node20</title>
<g id="a_node20"><a xlink:href="icu__svr_source.html" target="_top" xlink:title=" ">
<polygon fill="white" stroke="black" points="204.85,-73 204.85,-92 299.85,-92 299.85,-73 204.85,-73"/>
<text text-anchor="middle" x="252.35" y="-80" font-family="Helvetica,sans-Serif" font-size="10.00">l4/re/util/icu_svr</text>
</a>
</g>
</g>
<!-- Node7&#45;&gt;Node20 -->
<g id="edge30" class="edge">
<title>Node7&#45;&gt;Node20</title>
<path fill="none" stroke="midnightblue" d="M623.88,-309.77C605.99,-302.47 585.28,-291.72 570.35,-277 543.3,-250.35 559.19,-226.81 531.35,-201 492.32,-164.82 340.46,-112.36 278.7,-92.01"/>
<polygon fill="midnightblue" stroke="midnightblue" points="622.88,-313.14 633.47,-313.47 625.4,-306.61 622.88,-313.14"/>
</g>
<!-- Node25 -->
<g id="node25" class="node">
<title>Node25</title>
<g id="a_node25"><a xlink:href="random_source.html" target="_top" xlink:title=" ">
<polygon fill="white" stroke="black" points="667.85,-257.5 667.85,-276.5 746.85,-276.5 746.85,-257.5 667.85,-257.5"/>
<text text-anchor="middle" x="707.35" y="-264.5" font-family="Helvetica,sans-Serif" font-size="10.00">l4/re/random</text>
</a>
</g>
</g>
<!-- Node7&#45;&gt;Node25 -->
<g id="edge29" class="edge">
<title>Node7&#45;&gt;Node25</title>
<path fill="none" stroke="midnightblue" d="M675.46,-305.43C683.52,-295.97 693.31,-284.48 699.89,-276.75"/>
<polygon fill="midnightblue" stroke="midnightblue" points="672.76,-303.2 668.94,-313.08 678.09,-307.74 672.76,-303.2"/>
</g>
<!-- Node26 -->
<g id="node26" class="node">
<title>Node26</title>
<g id="a_node26"><a xlink:href="vbus_source.html" target="_top" xlink:title=" ">
<polygon fill="white" stroke="black" points="301.35,-257.5 301.35,-276.5 379.35,-276.5 379.35,-257.5 301.35,-257.5"/>
<text text-anchor="middle" x="340.35" y="-264.5" font-family="Helvetica,sans-Serif" font-size="10.00">l4/vbus/vbus</text>
</a>
</g>
</g>
<!-- Node7&#45;&gt;Node26 -->
<g id="edge31" class="edge">
<title>Node7&#45;&gt;Node26</title>
<path fill="none" stroke="midnightblue" d="M620.41,-315.11C558.15,-304.64 440.45,-284.84 379.35,-274.56"/>
<polygon fill="midnightblue" stroke="midnightblue" points="619.83,-318.57 630.28,-316.77 620.99,-311.66 619.83,-318.57"/>
</g>
<!-- Node10 -->
<g id="node10" class="node">
<title>Node10</title>
<g id="a_node10"><a xlink:href="vcon__stream_8h_source.html" target="_top" xlink:title=" ">
<polygon fill="white" stroke="black" points="578.85,-134.5 578.85,-164.5 697.85,-164.5 697.85,-134.5 578.85,-134.5"/>
<text text-anchor="start" x="586.85" y="-152.5" font-family="Helvetica,sans-Serif" font-size="10.00">l4/l4re_vfs/impl/vcon</text>
<text text-anchor="middle" x="638.35" y="-141.5" font-family="Helvetica,sans-Serif" font-size="10.00">_stream.h</text>
</a>
</g>
</g>
<!-- Node9&#45;&gt;Node10 -->
<g id="edge9" class="edge">
<title>Node9&#45;&gt;Node10</title>
<path fill="none" stroke="midnightblue" d="M608.72,-247.65C605.55,-234.46 603.01,-216.36 607.35,-201 611.15,-187.54 619.66,-174.12 626.8,-164.51"/>
<polygon fill="midnightblue" stroke="midnightblue" points="605.37,-248.69 611.39,-257.41 612.13,-246.84 605.37,-248.69"/>
</g>
<!-- Node13 -->
<g id="node13" class="node">
<title>Node13</title>
<g id="a_node13"><a xlink:href="log.html" target="_top" xlink:title="Log interface.">
<polygon fill="white" stroke="black" points="738.35,-201.5 738.35,-220.5 794.35,-220.5 794.35,-201.5 738.35,-201.5"/>
<text text-anchor="middle" x="766.35" y="-208.5" font-family="Helvetica,sans-Serif" font-size="10.00">l4/re/log</text>
</a>
</g>
</g>
<!-- Node9&#45;&gt;Node13 -->
<g id="edge12" class="edge">
<title>Node9&#45;&gt;Node13</title>
<path fill="none" stroke="midnightblue" d="M648.01,-254.04C676.61,-243.88 716.96,-229.55 742.37,-220.52"/>
<polygon fill="midnightblue" stroke="midnightblue" points="646.68,-250.8 638.43,-257.44 649.03,-257.39 646.68,-250.8"/>
</g>
<!-- Node24 -->
<g id="node24" class="node">
<title>Node24</title>
<g id="a_node24"><a xlink:href="vcon__svr_source.html" target="_top" xlink:title=" ">
<polygon fill="white" stroke="black" points="616.35,-201.5 616.35,-220.5 720.35,-220.5 720.35,-201.5 616.35,-201.5"/>
<text text-anchor="middle" x="668.35" y="-208.5" font-family="Helvetica,sans-Serif" font-size="10.00">l4/re/util/vcon_svr</text>
</a>
</g>
</g>
<!-- Node9&#45;&gt;Node24 -->
<g id="edge28" class="edge">
<title>Node9&#45;&gt;Node24</title>
<path fill="none" stroke="midnightblue" d="M630.34,-250C639.91,-240.43 651.71,-228.64 659.59,-220.75"/>
<polygon fill="midnightblue" stroke="midnightblue" points="627.86,-247.54 623.26,-257.08 632.81,-252.49 627.86,-247.54"/>
</g>
<!-- Node11 -->
<g id="node11" class="node">
<title>Node11</title>
<g id="a_node11"><a xlink:href="vcon__stream__impl_8h_source.html" target="_top" xlink:title=" ">
<polygon fill="white" stroke="black" points="317.85,-67.5 317.85,-97.5 436.85,-97.5 436.85,-67.5 317.85,-67.5"/>
<text text-anchor="start" x="325.85" y="-85.5" font-family="Helvetica,sans-Serif" font-size="10.00">l4/l4re_vfs/impl/vcon</text>
<text text-anchor="middle" x="377.35" y="-74.5" font-family="Helvetica,sans-Serif" font-size="10.00">_stream_impl.h</text>
</a>
</g>
</g>
<!-- Node10&#45;&gt;Node11 -->
<g id="edge10" class="edge">
<title>Node10&#45;&gt;Node11</title>
<path fill="none" stroke="midnightblue" d="M572.3,-132.05C529.63,-121.43 474.68,-107.74 434.01,-97.61"/>
<polygon fill="midnightblue" stroke="midnightblue" points="571.48,-135.46 582.03,-134.48 573.18,-128.66 571.48,-135.46"/>
</g>
<!-- Node12 -->
<g id="node12" class="node">
<title>Node12</title>
<g id="a_node12"><a xlink:href="vfs__impl_8h_source.html" target="_top" xlink:title=" ">
<polygon fill="white" stroke="black" points="455.35,-67.5 455.35,-97.5 565.35,-97.5 565.35,-67.5 455.35,-67.5"/>
<text text-anchor="start" x="463.35" y="-85.5" font-family="Helvetica,sans-Serif" font-size="10.00">l4/l4re_vfs/impl/vfs</text>
<text text-anchor="middle" x="510.35" y="-74.5" font-family="Helvetica,sans-Serif" font-size="10.00">_impl.h</text>
</a>
</g>
</g>
<!-- Node10&#45;&gt;Node12 -->
<g id="edge11" class="edge">
<title>Node10&#45;&gt;Node12</title>
<path fill="none" stroke="midnightblue" d="M601.63,-129.85C581.39,-119.58 556.67,-107.03 538.07,-97.58"/>
<polygon fill="midnightblue" stroke="midnightblue" points="600.07,-132.99 610.57,-134.4 603.24,-126.75 600.07,-132.99"/>
</g>
<!-- Node14 -->
<g id="node14" class="node">
<title>Node14</title>
<g id="a_node14"><a xlink:href="env.html" target="_top" xlink:title="Environment interface.">
<polygon fill="white" stroke="black" points="734.85,-140 734.85,-159 793.85,-159 793.85,-140 734.85,-140"/>
<text text-anchor="middle" x="764.35" y="-147" font-family="Helvetica,sans-Serif" font-size="10.00">l4/re/env</text>
</a>
</g>
</g>
<!-- Node13&#45;&gt;Node14 -->
<g id="edge13" class="edge">
<title>Node13&#45;&gt;Node14</title>
<path fill="none" stroke="midnightblue" d="M765.72,-191.32C765.35,-180.5 764.91,-167.4 764.63,-159.01"/>
<polygon fill="midnightblue" stroke="midnightblue" points="762.23,-191.6 766.06,-201.48 769.22,-191.36 762.23,-191.6"/>
</g>
<!-- Node14&#45;&gt;Node4 -->
<g id="edge15" class="edge">
<title>Node14&#45;&gt;Node4</title>
<path fill="none" stroke="midnightblue" d="M804.1,-146.71C897.93,-142.04 1130.69,-127.72 1202.35,-98 1222.8,-89.52 1222.09,-77.93 1241.35,-67 1268.92,-51.36 1302.26,-38.77 1328.79,-30.08"/>
<polygon fill="midnightblue" stroke="midnightblue" points="803.7,-143.22 793.88,-147.21 804.04,-150.22 803.7,-143.22"/>
</g>
<!-- Node14&#45;&gt;Node5 -->
<g id="edge16" class="edge">
<title>Node14&#45;&gt;Node5</title>
<path fill="none" stroke="midnightblue" d="M804.3,-145.83C885.77,-140.04 1076.81,-124.64 1235.35,-98 1239.99,-97.22 1244.81,-96.3 1249.62,-95.32"/>
<polygon fill="midnightblue" stroke="midnightblue" points="803.73,-142.37 794,-146.56 804.22,-149.35 803.73,-142.37"/>
</g>
<!-- Node14&#45;&gt;Node11 -->
<g id="edge18" class="edge">
<title>Node14&#45;&gt;Node11</title>
<path fill="none" stroke="midnightblue" d="M724.49,-137.76C718.76,-136.39 712.92,-135.09 707.35,-134 592.42,-111.53 561.71,-118.05 446.35,-98 443.33,-97.48 440.25,-96.92 437.14,-96.33"/>
<polygon fill="midnightblue" stroke="midnightblue" points="724.06,-141.26 734.61,-140.27 725.75,-134.46 724.06,-141.26"/>
</g>
<!-- Node14&#45;&gt;Node12 -->
<g id="edge19" class="edge">
<title>Node14&#45;&gt;Node12</title>
<path fill="none" stroke="midnightblue" d="M724.93,-138.41C682.06,-127.44 613.25,-109.83 565.14,-97.52"/>
<polygon fill="midnightblue" stroke="midnightblue" points="724.16,-141.83 734.71,-140.92 725.89,-135.05 724.16,-141.83"/>
</g>
<!-- Node15 -->
<g id="node15" class="node">
<title>Node15</title>
<g id="a_node15"><a xlink:href="vcpu_source.html" target="_top" xlink:title=" ">
<polygon fill="white" stroke="black" points="848.35,-73 848.35,-92 926.35,-92 926.35,-73 848.35,-73"/>
<text text-anchor="middle" x="887.35" y="-80" font-family="Helvetica,sans-Serif" font-size="10.00">l4/vcpu/vcpu</text>
</a>
</g>
</g>
<!-- Node14&#45;&gt;Node15 -->
<g id="edge14" class="edge">
<title>Node14&#45;&gt;Node15</title>
<path fill="none" stroke="midnightblue" d="M789.7,-135.1C814.06,-122.23 850.14,-103.16 870.94,-92.17"/>
<polygon fill="midnightblue" stroke="midnightblue" points="787.89,-132.1 780.68,-139.87 791.16,-138.29 787.89,-132.1"/>
</g>
<!-- Node16 -->
<g id="node16" class="node">
<title>Node16</title>
<g id="a_node16"><a xlink:href="ro__file__impl_8h_source.html" target="_top" xlink:title=" ">
<polygon fill="white" stroke="black" points="944.85,-67.5 944.85,-97.5 1049.85,-97.5 1049.85,-67.5 944.85,-67.5"/>
<text text-anchor="start" x="952.85" y="-85.5" font-family="Helvetica,sans-Serif" font-size="10.00">l4/l4re_vfs/impl/ro</text>
<text text-anchor="middle" x="997.35" y="-74.5" font-family="Helvetica,sans-Serif" font-size="10.00">_file_impl.h</text>
</a>
</g>
</g>
<!-- Node14&#45;&gt;Node16 -->
<g id="edge17" class="edge">
<title>Node14&#45;&gt;Node16</title>
<path fill="none" stroke="midnightblue" d="M803.63,-137.54C843.03,-126.55 903.87,-109.58 946.84,-97.59"/>
<polygon fill="midnightblue" stroke="midnightblue" points="802.55,-134.21 793.86,-140.27 804.43,-140.95 802.55,-134.21"/>
</g>
<!-- Node17 -->
<g id="node17" class="node">
<title>Node17</title>
<g id="a_node17"><a xlink:href="env__ns_source.html" target="_top" xlink:title=" ">
<polygon fill="white" stroke="black" points="583.85,-73 583.85,-92 678.85,-92 678.85,-73 583.85,-73"/>
<text text-anchor="middle" x="631.35" y="-80" font-family="Helvetica,sans-Serif" font-size="10.00">l4/re/util/env_ns</text>
</a>
</g>
</g>
<!-- Node14&#45;&gt;Node17 -->
<g id="edge20" class="edge">
<title>Node14&#45;&gt;Node17</title>
<path fill="none" stroke="midnightblue" d="M737.63,-135.44C711.29,-122.57 671.77,-103.26 649.08,-92.17"/>
<polygon fill="midnightblue" stroke="midnightblue" points="736.16,-138.62 746.68,-139.87 739.24,-132.33 736.16,-138.62"/>
</g>
<!-- Node19 -->
<g id="node19" class="node">
<title>Node19</title>
<g id="a_node19"><a xlink:href="util_2event.html" target="_top" xlink:title=" ">
<polygon fill="white" stroke="black" points="97.35,-73 97.35,-92 185.35,-92 185.35,-73 97.35,-73"/>
<text text-anchor="middle" x="141.35" y="-80" font-family="Helvetica,sans-Serif" font-size="10.00">l4/re/util/event</text>
</a>
</g>
</g>
<!-- Node14&#45;&gt;Node19 -->
<g id="edge22" class="edge">
<title>Node14&#45;&gt;Node19</title>
<path fill="none" stroke="midnightblue" d="M725.18,-137.56C719.24,-136.19 713.16,-134.94 707.35,-134 482.13,-97.74 420.32,-135.75 195.35,-98 186.73,-96.55 177.5,-94.33 169.15,-92.06"/>
<polygon fill="midnightblue" stroke="midnightblue" points="724.43,-140.98 734.97,-139.96 726.09,-134.18 724.43,-140.98"/>
</g>
<!-- Node14&#45;&gt;Node20 -->
<g id="edge23" class="edge">
<title>Node14&#45;&gt;Node20</title>
<path fill="none" stroke="midnightblue" d="M724.54,-137.52C718.8,-136.18 712.94,-134.96 707.35,-134 531.85,-103.96 483.78,-128.42 308.35,-98 299.54,-96.47 290.09,-94.26 281.5,-92.01"/>
<polygon fill="midnightblue" stroke="midnightblue" points="724.11,-141.02 734.66,-140 725.78,-134.22 724.11,-141.02"/>
</g>
<!-- Node22 -->
<g id="node22" class="node">
<title>Node22</title>
<g id="a_node22"><a xlink:href="kumem__alloc.html" target="_top" xlink:title="Kumem allocator helper.">
<polygon fill="white" stroke="black" points="1067.85,-73 1067.85,-92 1192.85,-92 1192.85,-73 1067.85,-73"/>
<text text-anchor="middle" x="1130.35" y="-80" font-family="Helvetica,sans-Serif" font-size="10.00">l4/re/util/kumem_alloc</text>
</a>
</g>
</g>
<!-- Node14&#45;&gt;Node22 -->
<g id="edge25" class="edge">
<title>Node14&#45;&gt;Node22</title>
<path fill="none" stroke="midnightblue" d="M804.12,-142.1C860.85,-132.89 968.24,-115.1 1059.35,-98 1069.24,-96.14 1079.88,-94.03 1089.84,-92"/>
<polygon fill="midnightblue" stroke="midnightblue" points="803.44,-138.67 794.13,-143.72 804.56,-145.58 803.44,-138.67"/>
</g>
<!-- Node23 -->
<g id="node23" class="node">
<title>Node23</title>
<g id="a_node23"><a xlink:href="object__registry_source.html" target="_top" xlink:title=" ">
<polygon fill="white" stroke="black" points="696.85,-73 696.85,-92 829.85,-92 829.85,-73 696.85,-73"/>
<text text-anchor="middle" x="763.35" y="-80" font-family="Helvetica,sans-Serif" font-size="10.00">l4/re/util/object_registry</text>
</a>
</g>
</g>
<!-- Node14&#45;&gt;Node23 -->
<g id="edge26" class="edge">
<title>Node14&#45;&gt;Node23</title>
<path fill="none" stroke="midnightblue" d="M764.05,-129.54C763.86,-117.17 763.62,-101.62 763.48,-92.13"/>
<polygon fill="midnightblue" stroke="midnightblue" points="760.56,-129.79 764.21,-139.73 767.56,-129.68 760.56,-129.79"/>
</g>
<!-- Node18 -->
<g id="node18" class="node">
<title>Node18</title>
<g id="a_node18"><a xlink:href="ns__fs__impl_8h_source.html" target="_top" xlink:title=" ">
<polygon fill="white" stroke="black" points="577.85,-0.5 577.85,-30.5 684.85,-30.5 684.85,-0.5 577.85,-0.5"/>
<text text-anchor="start" x="585.85" y="-18.5" font-family="Helvetica,sans-Serif" font-size="10.00">l4/l4re_vfs/impl/ns</text>
<text text-anchor="middle" x="631.35" y="-7.5" font-family="Helvetica,sans-Serif" font-size="10.00">_fs_impl.h</text>
</a>
</g>
</g>
<!-- Node17&#45;&gt;Node18 -->
<g id="edge21" class="edge">
<title>Node17&#45;&gt;Node18</title>
<path fill="none" stroke="midnightblue" d="M631.35,-62.41C631.35,-52.22 631.35,-39.9 631.35,-30.59"/>
<polygon fill="midnightblue" stroke="midnightblue" points="627.85,-62.73 631.35,-72.73 634.85,-62.73 627.85,-62.73"/>
</g>
<!-- Node21 -->
<g id="node21" class="node">
<title>Node21</title>
<g id="a_node21"><a xlink:href="event__svr_source.html" target="_top" xlink:title=" ">
<polygon fill="white" stroke="black" points="71.35,-6 71.35,-25 179.35,-25 179.35,-6 71.35,-6"/>
<text text-anchor="middle" x="125.35" y="-13" font-family="Helvetica,sans-Serif" font-size="10.00">l4/re/util/event_svr</text>
</a>
</g>
</g>
<!-- Node20&#45;&gt;Node21 -->
<g id="edge24" class="edge">
<title>Node20&#45;&gt;Node21</title>
<path fill="none" stroke="midnightblue" d="M226.5,-68.27C201.35,-55.4 163.85,-36.21 142.28,-25.17"/>
<polygon fill="midnightblue" stroke="midnightblue" points="224.98,-71.43 235.48,-72.87 228.17,-65.2 224.98,-71.43"/>
</g>
<!-- Node23&#45;&gt;Node4 -->
<g id="edge27" class="edge">
<title>Node23&#45;&gt;Node4</title>
<path fill="none" stroke="midnightblue" d="M813.4,-71.11C822.02,-69.56 830.92,-68.11 839.35,-67 1051.87,-38.87 1108.93,-66.47 1320.35,-31 1323.07,-30.54 1325.86,-30.01 1328.66,-29.43"/>
<polygon fill="midnightblue" stroke="midnightblue" points="812.63,-67.7 803.44,-72.97 813.91,-74.58 812.63,-67.7"/>
</g>
<!-- Node27 -->
<g id="node27" class="node">
<title>Node27</title>
<g id="a_node27"><a xlink:href="vbus__generic_source.html" target="_top" xlink:title=" ">
<polygon fill="white" stroke="black" points="280.85,-201.5 280.85,-220.5 399.85,-220.5 399.85,-201.5 280.85,-201.5"/>
<text text-anchor="middle" x="340.35" y="-208.5" font-family="Helvetica,sans-Serif" font-size="10.00">l4/vbus/vbus_generic</text>
</a>
</g>
</g>
<!-- Node26&#45;&gt;Node27 -->
<g id="edge32" class="edge">
<title>Node26&#45;&gt;Node27</title>
<path fill="none" stroke="midnightblue" d="M340.35,-246.8C340.35,-237.91 340.35,-227.78 340.35,-220.75"/>
<polygon fill="midnightblue" stroke="midnightblue" points="336.85,-247.08 340.35,-257.08 343.85,-247.08 336.85,-247.08"/>
</g>
<!-- Node28 -->
<g id="node28" class="node">
<title>Node28</title>
<g id="a_node28"><a xlink:href="vbus__gpio_source.html" target="_top" xlink:title=" ">
<polygon fill="white" stroke="black" points="418.35,-201.5 418.35,-220.5 522.35,-220.5 522.35,-201.5 418.35,-201.5"/>
<text text-anchor="middle" x="470.35" y="-208.5" font-family="Helvetica,sans-Serif" font-size="10.00">l4/vbus/vbus_gpio</text>
</a>
</g>
</g>
<!-- Node26&#45;&gt;Node28 -->
<g id="edge33" class="edge">
<title>Node26&#45;&gt;Node28</title>
<path fill="none" stroke="midnightblue" d="M370.43,-253.5C394.8,-243.38 428.49,-229.39 449.84,-220.52"/>
<polygon fill="midnightblue" stroke="midnightblue" points="368.84,-250.38 360.94,-257.44 371.52,-256.84 368.84,-250.38"/>
</g>
<!-- Node29 -->
<g id="node29" class="node">
<title>Node29</title>
<g id="a_node29"><a xlink:href="vbus__pci_source.html" target="_top" xlink:title=" ">
<polygon fill="white" stroke="black" points="164.35,-201.5 164.35,-220.5 262.35,-220.5 262.35,-201.5 164.35,-201.5"/>
<text text-anchor="middle" x="213.35" y="-208.5" font-family="Helvetica,sans-Serif" font-size="10.00">l4/vbus/vbus_pci</text>
</a>
</g>
</g>
<!-- Node26&#45;&gt;Node29 -->
<g id="edge34" class="edge">
<title>Node26&#45;&gt;Node29</title>
<path fill="none" stroke="midnightblue" d="M310.95,-253.5C287.15,-243.38 254.24,-229.39 233.38,-220.52"/>
<polygon fill="midnightblue" stroke="midnightblue" points="309.65,-256.75 320.22,-257.44 312.39,-250.31 309.65,-256.75"/>
</g>
<!-- Node30&#45;&gt;Node4 -->
<g id="edge36" class="edge">
<title>Node30&#45;&gt;Node4</title>
<path fill="none" stroke="midnightblue" d="M1030.61,-319.54C1153.04,-312.99 1413.35,-289.91 1413.35,-212 1413.35,-212 1413.35,-212 1413.35,-148.5 1413.35,-104.14 1393.29,-54.56 1382.32,-30.76"/>
<polygon fill="midnightblue" stroke="midnightblue" points="1030.07,-316.06 1020.26,-320.07 1030.43,-323.05 1030.07,-316.06"/>
</g>
<!-- Node30&#45;&gt;Node10 -->
<g id="edge37" class="edge">
<title>Node30&#45;&gt;Node10</title>
<path fill="none" stroke="midnightblue" d="M951.6,-306.69C923.12,-281.39 862.59,-230.71 803.35,-201 770.14,-184.35 730.39,-171.98 698.23,-163.65"/>
<polygon fill="midnightblue" stroke="midnightblue" points="949.28,-309.31 959.06,-313.39 953.96,-304.11 949.28,-309.31"/>
</g>
<!-- Node31&#45;&gt;Node21 -->
<g id="edge42" class="edge">
<title>Node31&#45;&gt;Node21</title>
<path fill="none" stroke="midnightblue" d="M91.93,-314.85C67.41,-308.73 38.19,-297.48 19.35,-277 -1.04,-254.86 0.35,-242.1 0.35,-212 0.35,-212 0.35,-212 0.35,-148.5 0.35,-87.11 72.5,-42.81 107.17,-25.07"/>
<polygon fill="midnightblue" stroke="midnightblue" points="91.23,-318.28 101.75,-317.11 92.79,-311.46 91.23,-318.28"/>
</g>
<!-- Node31&#45;&gt;Node26 -->
<g id="edge43" class="edge">
<title>Node31&#45;&gt;Node26</title>
<path fill="none" stroke="midnightblue" d="M178.55,-310.83C217.06,-300.63 273.17,-285.78 308.17,-276.52"/>
<polygon fill="midnightblue" stroke="midnightblue" points="177.44,-307.5 168.67,-313.44 179.23,-314.27 177.44,-307.5"/>
</g>
<!-- Node32 -->
<g id="node32" class="node">
<title>Node32</title>
<g id="a_node32"><a xlink:href="console_source.html" target="_top" xlink:title=" ">
<polygon fill="white" stroke="black" points="28.85,-257.5 28.85,-276.5 107.85,-276.5 107.85,-257.5 28.85,-257.5"/>
<text text-anchor="middle" x="68.35" y="-264.5" font-family="Helvetica,sans-Serif" font-size="10.00">l4/re/console</text>
</a>
</g>
</g>
<!-- Node31&#45;&gt;Node32 -->
<g id="edge39" class="edge">
<title>Node31&#45;&gt;Node32</title>
<path fill="none" stroke="midnightblue" d="M117.58,-307.1C105.35,-297.38 89.79,-285.03 79.47,-276.83"/>
<polygon fill="midnightblue" stroke="midnightblue" points="115.41,-309.85 125.42,-313.32 119.77,-304.36 115.41,-309.85"/>
</g>
<!-- Node33 -->
<g id="node33" class="node">
<title>Node33</title>
<g id="a_node33"><a xlink:href="event__buffer_source.html" target="_top" xlink:title=" ">
<polygon fill="white" stroke="black" points="79.35,-140 79.35,-159 201.35,-159 201.35,-140 79.35,-140"/>
<text text-anchor="middle" x="140.35" y="-147" font-family="Helvetica,sans-Serif" font-size="10.00">l4/re/util/event_buffer</text>
</a>
</g>
</g>
<!-- Node31&#45;&gt;Node33 -->
<g id="edge40" class="edge">
<title>Node31&#45;&gt;Node33</title>
<path fill="none" stroke="midnightblue" d="M136.79,-302.85C137.66,-265.73 139.53,-185.33 140.15,-159.02"/>
<polygon fill="midnightblue" stroke="midnightblue" points="133.28,-303.18 136.55,-313.26 140.28,-303.34 133.28,-303.18"/>
</g>
<!-- Node33&#45;&gt;Node19 -->
<g id="edge41" class="edge">
<title>Node33&#45;&gt;Node19</title>
<path fill="none" stroke="midnightblue" d="M140.64,-129.54C140.83,-117.17 141.07,-101.62 141.21,-92.13"/>
<polygon fill="midnightblue" stroke="midnightblue" points="137.14,-129.68 140.48,-139.73 144.13,-129.79 137.14,-129.68"/>
</g>
<!-- Node34&#45;&gt;Node30 -->
<g id="edge45" class="edge">
<title>Node34&#45;&gt;Node30</title>
<path fill="none" stroke="midnightblue" d="M968.35,-358.8C968.35,-349.91 968.35,-339.78 968.35,-332.75"/>
<polygon fill="midnightblue" stroke="midnightblue" points="964.85,-359.08 968.35,-369.08 971.85,-359.08 964.85,-359.08"/>
</g>
</g>
</svg>
