<?xml version="1.0" encoding="UTF-8" standalone="no"?>
<!DOCTYPE svg PUBLIC "-//W3C//DTD SVG 1.1//EN"
 "http://www.w3.org/Graphics/SVG/1.1/DTD/svg11.dtd">
<!-- Generated by graphviz version 2.43.0 (0)
 -->
<!-- Title: l4/sys/irq.h Pages: 1 -->
<svg width="587pt" height="487pt"
 viewBox="0.00 0.00 587.10 487.00" xmlns="http://www.w3.org/2000/svg" xmlns:xlink="http://www.w3.org/1999/xlink">
<g id="graph0" class="graph" transform="scale(1 1) rotate(0) translate(4 483)">
<title>l4/sys/irq.h</title>
<polygon fill="white" stroke="transparent" points="-4,4 -4,-483 583.1,-483 583.1,4 -4,4"/>
<!-- Node1 -->
<g id="node1" class="node">
<title>Node1</title>
<g id="a_node1"><a xlink:title="C Irq interface.">
<polygon fill="#bfbfbf" stroke="black" points="250.1,-459.5 250.1,-478.5 320.1,-478.5 320.1,-459.5 250.1,-459.5"/>
<text text-anchor="middle" x="285.1" y="-466.5" font-family="Helvetica,sans-Serif" font-size="10.00">l4/sys/irq.h</text>
</a>
</g>
</g>
<!-- Node2 -->
<g id="node2" class="node">
<title>Node2</title>
<g id="a_node2"><a xlink:href="kernel__object_8h.html" target="_top" xlink:title="Kernel object system calls.">
<polygon fill="white" stroke="black" points="397.1,-403.5 397.1,-422.5 519.1,-422.5 519.1,-403.5 397.1,-403.5"/>
<text text-anchor="middle" x="458.1" y="-410.5" font-family="Helvetica,sans-Serif" font-size="10.00">l4/sys/kernel_object.h</text>
</a>
</g>
</g>
<!-- Node1&#45;&gt;Node2 -->
<g id="edge1" class="edge">
<title>Node1&#45;&gt;Node2</title>
<path fill="none" stroke="midnightblue" d="M312.52,-459.44C341.87,-450.28 388.62,-435.69 421.2,-425.52"/>
<polygon fill="midnightblue" stroke="midnightblue" points="422.32,-428.84 430.82,-422.52 420.23,-422.16 422.32,-428.84"/>
</g>
<!-- Node12 -->
<g id="node12" class="node">
<title>Node12</title>
<g id="a_node12"><a xlink:href="l4_2sys_2ipc_8h.html" target="_top" xlink:title="Common IPC interface.">
<polygon fill="white" stroke="black" points="352.6,-280.5 352.6,-299.5 423.6,-299.5 423.6,-280.5 352.6,-280.5"/>
<text text-anchor="middle" x="388.1" y="-287.5" font-family="Helvetica,sans-Serif" font-size="10.00">l4/sys/ipc.h</text>
</a>
</g>
</g>
<!-- Node1&#45;&gt;Node12 -->
<g id="edge25" class="edge">
<title>Node1&#45;&gt;Node12</title>
<path fill="none" stroke="midnightblue" d="M287.54,-459.39C294.01,-437.45 313.12,-378.18 342.1,-336 349.66,-325 360.18,-314.47 369.25,-306.37"/>
<polygon fill="midnightblue" stroke="midnightblue" points="371.75,-308.83 377.05,-299.66 367.18,-303.53 371.75,-308.83"/>
</g>
<!-- Node14 -->
<g id="node14" class="node">
<title>Node14</title>
<g id="a_node14"><a xlink:href="rcv__endpoint_8h.html" target="_top" xlink:title="Receive endpoint C interface.">
<polygon fill="white" stroke="black" points="137.1,-342 137.1,-361 257.1,-361 257.1,-342 137.1,-342"/>
<text text-anchor="middle" x="197.1" y="-349" font-family="Helvetica,sans-Serif" font-size="10.00">l4/sys/rcv_endpoint.h</text>
</a>
</g>
</g>
<!-- Node1&#45;&gt;Node14 -->
<g id="edge26" class="edge">
<title>Node1&#45;&gt;Node14</title>
<path fill="none" stroke="midnightblue" d="M278.49,-459.32C263.96,-440.26 229.06,-394.45 210.02,-369.46"/>
<polygon fill="midnightblue" stroke="midnightblue" points="212.64,-367.12 203.79,-361.28 207.07,-371.36 212.64,-367.12"/>
</g>
<!-- Node3 -->
<g id="node3" class="node">
<title>Node3</title>
<g id="a_node3"><a xlink:href="l4_2sys_2types_8h.html" target="_top" xlink:title="Common L4 ABI Data Types.">
<polygon fill="white" stroke="black" points="279.1,-168.5 279.1,-187.5 363.1,-187.5 363.1,-168.5 279.1,-168.5"/>
<text text-anchor="middle" x="321.1" y="-175.5" font-family="Helvetica,sans-Serif" font-size="10.00">l4/sys/types.h</text>
</a>
</g>
</g>
<!-- Node2&#45;&gt;Node3 -->
<g id="edge2" class="edge">
<title>Node2&#45;&gt;Node3</title>
<path fill="none" stroke="midnightblue" d="M470.32,-403.24C480.46,-395.14 494.15,-382.11 500.1,-367 505.16,-354.18 505.4,-348.72 500.1,-336 470.68,-265.41 390.3,-214.85 347.98,-192.24"/>
<polygon fill="midnightblue" stroke="midnightblue" points="349.55,-189.11 339.07,-187.59 346.31,-195.32 349.55,-189.11"/>
</g>
<!-- Node5 -->
<g id="node5" class="node">
<title>Node5</title>
<g id="a_node5"><a xlink:href="compiler_8h.html" target="_top" xlink:title="L4 compiler related defines.">
<polygon fill="white" stroke="black" points="391.6,-56.5 391.6,-75.5 490.6,-75.5 490.6,-56.5 391.6,-56.5"/>
<text text-anchor="middle" x="441.1" y="-63.5" font-family="Helvetica,sans-Serif" font-size="10.00">l4/sys/compiler.h</text>
</a>
</g>
</g>
<!-- Node2&#45;&gt;Node5 -->
<g id="edge13" class="edge">
<title>Node2&#45;&gt;Node5</title>
<path fill="none" stroke="midnightblue" d="M477.81,-403.4C512.1,-386.96 579.1,-347.59 579.1,-291 579.1,-291 579.1,-291 579.1,-177 579.1,-125.66 519.98,-94.4 479.13,-78.93"/>
<polygon fill="midnightblue" stroke="midnightblue" points="480.29,-75.63 469.7,-75.51 477.91,-82.21 480.29,-75.63"/>
</g>
<!-- Node10 -->
<g id="node10" class="node">
<title>Node10</title>
<g id="a_node10"><a xlink:href="l4_2sys_2utcb_8h.html" target="_top" xlink:title="UTCB definitions.">
<polygon fill="white" stroke="black" points="282.1,-224.5 282.1,-243.5 360.1,-243.5 360.1,-224.5 282.1,-224.5"/>
<text text-anchor="middle" x="321.1" y="-231.5" font-family="Helvetica,sans-Serif" font-size="10.00">l4/sys/utcb.h</text>
</a>
</g>
</g>
<!-- Node2&#45;&gt;Node10 -->
<g id="edge14" class="edge">
<title>Node2&#45;&gt;Node10</title>
<path fill="none" stroke="midnightblue" d="M404.61,-403.42C382.05,-397.08 357.51,-386.08 342.1,-367 315.58,-334.15 316.15,-281.32 318.7,-253.51"/>
<polygon fill="midnightblue" stroke="midnightblue" points="322.18,-253.87 319.8,-243.55 315.22,-253.1 322.18,-253.87"/>
</g>
<!-- Node11 -->
<g id="node11" class="node">
<title>Node11</title>
<g id="a_node11"><a xlink:href="____kernel__object__impl_8h.html" target="_top" xlink:title="Low&#45;level kernel debugger functions.">
<polygon fill="white" stroke="black" points="351.1,-336.5 351.1,-366.5 475.1,-366.5 475.1,-336.5 351.1,-336.5"/>
<text text-anchor="start" x="359.1" y="-354.5" font-family="Helvetica,sans-Serif" font-size="10.00">l4/sys/__kernel_object</text>
<text text-anchor="middle" x="413.1" y="-343.5" font-family="Helvetica,sans-Serif" font-size="10.00">_impl.h</text>
</a>
</g>
</g>
<!-- Node2&#45;&gt;Node11 -->
<g id="edge18" class="edge">
<title>Node2&#45;&gt;Node11</title>
<path fill="none" stroke="midnightblue" d="M451.66,-403.48C445.96,-395.94 437.4,-384.63 429.79,-374.57"/>
<polygon fill="midnightblue" stroke="midnightblue" points="432.53,-372.39 423.71,-366.52 426.95,-376.61 432.53,-372.39"/>
</g>
<!-- Node2&#45;&gt;Node12 -->
<g id="edge24" class="edge">
<title>Node2&#45;&gt;Node12</title>
<path fill="none" stroke="midnightblue" d="M465.61,-403.45C477.55,-388.74 498.17,-358.13 484.1,-336 472.84,-318.27 452.54,-307.41 433.5,-300.81"/>
<polygon fill="midnightblue" stroke="midnightblue" points="434.3,-297.4 423.72,-297.74 432.21,-304.07 434.3,-297.4"/>
</g>
<!-- Node4 -->
<g id="node4" class="node">
<title>Node4</title>
<g id="a_node4"><a xlink:href="l4_2sys_2l4int_8h.html" target="_top" xlink:title="Fixed sized integer types, generic version.">
<polygon fill="white" stroke="black" points="68.6,-56.5 68.6,-75.5 147.6,-75.5 147.6,-56.5 68.6,-56.5"/>
<text text-anchor="middle" x="108.1" y="-63.5" font-family="Helvetica,sans-Serif" font-size="10.00">l4/sys/l4int.h</text>
</a>
</g>
</g>
<!-- Node3&#45;&gt;Node4 -->
<g id="edge3" class="edge">
<title>Node3&#45;&gt;Node4</title>
<path fill="none" stroke="midnightblue" d="M278.99,-170.9C246.76,-164.8 202.21,-153.18 168.1,-132 148.01,-119.52 130.37,-98.53 119.51,-83.78"/>
<polygon fill="midnightblue" stroke="midnightblue" points="122.31,-81.67 113.66,-75.54 116.6,-85.72 122.31,-81.67"/>
</g>
<!-- Node3&#45;&gt;Node5 -->
<g id="edge4" class="edge">
<title>Node3&#45;&gt;Node5</title>
<path fill="none" stroke="midnightblue" d="M344.1,-168.37C361.83,-160.85 386.11,-148.54 403.1,-132 416.84,-118.63 427.31,-99.25 433.74,-85.14"/>
<polygon fill="midnightblue" stroke="midnightblue" points="437.13,-86.12 437.87,-75.55 430.7,-83.35 437.13,-86.12"/>
</g>
<!-- Node7 -->
<g id="node7" class="node">
<title>Node7</title>
<g id="a_node7"><a xlink:href="l4_2sys_2consts_8h.html" target="_top" xlink:title="Common constants.">
<polygon fill="white" stroke="black" points="176.6,-112.5 176.6,-131.5 265.6,-131.5 265.6,-112.5 176.6,-112.5"/>
<text text-anchor="middle" x="221.1" y="-119.5" font-family="Helvetica,sans-Serif" font-size="10.00">l4/sys/consts.h</text>
</a>
</g>
</g>
<!-- Node3&#45;&gt;Node7 -->
<g id="edge6" class="edge">
<title>Node3&#45;&gt;Node7</title>
<path fill="none" stroke="midnightblue" d="M305.04,-168.32C289.15,-159.74 264.6,-146.49 246.14,-136.52"/>
<polygon fill="midnightblue" stroke="midnightblue" points="247.59,-133.33 237.13,-131.65 244.27,-139.49 247.59,-133.33"/>
</g>
<!-- Node8 -->
<g id="node8" class="node">
<title>Node8</title>
<g id="a_node8"><a xlink:href="____l4__fpage_8h_source.html" target="_top" xlink:title=" ">
<polygon fill="white" stroke="black" points="284.1,-112.5 284.1,-131.5 394.1,-131.5 394.1,-112.5 284.1,-112.5"/>
<text text-anchor="middle" x="339.1" y="-119.5" font-family="Helvetica,sans-Serif" font-size="10.00">l4/sys/__l4_fpage.h</text>
</a>
</g>
</g>
<!-- Node3&#45;&gt;Node8 -->
<g id="edge9" class="edge">
<title>Node3&#45;&gt;Node8</title>
<path fill="none" stroke="midnightblue" d="M324.08,-168.08C326.49,-160.85 329.97,-150.41 332.97,-141.4"/>
<polygon fill="midnightblue" stroke="midnightblue" points="336.34,-142.34 336.19,-131.75 329.7,-140.13 336.34,-142.34"/>
</g>
<!-- Node9 -->
<g id="node9" class="node">
<title>Node9</title>
<g id="a_node9"><a xlink:href="____timeout_8h_source.html" target="_top" xlink:title=" ">
<polygon fill="white" stroke="black" points="14.1,-112.5 14.1,-131.5 120.1,-131.5 120.1,-112.5 14.1,-112.5"/>
<text text-anchor="middle" x="67.1" y="-119.5" font-family="Helvetica,sans-Serif" font-size="10.00">l4/sys/__timeout.h</text>
</a>
</g>
</g>
<!-- Node3&#45;&gt;Node9 -->
<g id="edge11" class="edge">
<title>Node3&#45;&gt;Node9</title>
<path fill="none" stroke="midnightblue" d="M280.86,-168.44C236.45,-159 164.95,-143.8 117.01,-133.61"/>
<polygon fill="midnightblue" stroke="midnightblue" points="117.67,-130.17 107.16,-131.52 116.22,-137.02 117.67,-130.17"/>
</g>
<!-- Node6 -->
<g id="node6" class="node">
<title>Node6</title>
<g id="a_node6"><a xlink:title=" ">
<polygon fill="white" stroke="#bfbfbf" points="395.1,-0.5 395.1,-19.5 487.1,-19.5 487.1,-0.5 395.1,-0.5"/>
<text text-anchor="middle" x="441.1" y="-7.5" font-family="Helvetica,sans-Serif" font-size="10.00">l4/sys/linkage.h</text>
</a>
</g>
</g>
<!-- Node5&#45;&gt;Node6 -->
<g id="edge5" class="edge">
<title>Node5&#45;&gt;Node6</title>
<path fill="none" stroke="midnightblue" d="M441.1,-56.08C441.1,-49.01 441.1,-38.86 441.1,-29.99"/>
<polygon fill="midnightblue" stroke="midnightblue" points="444.6,-29.75 441.1,-19.75 437.6,-29.75 444.6,-29.75"/>
</g>
<!-- Node7&#45;&gt;Node4 -->
<g id="edge8" class="edge">
<title>Node7&#45;&gt;Node4</title>
<path fill="none" stroke="midnightblue" d="M203.2,-112.44C184.85,-103.68 156.1,-89.94 135.01,-79.86"/>
<polygon fill="midnightblue" stroke="midnightblue" points="136.46,-76.67 125.92,-75.52 133.44,-82.99 136.46,-76.67"/>
</g>
<!-- Node7&#45;&gt;Node5 -->
<g id="edge7" class="edge">
<title>Node7&#45;&gt;Node5</title>
<path fill="none" stroke="midnightblue" d="M255.96,-112.44C294.02,-103.1 355.06,-88.12 396.56,-77.93"/>
<polygon fill="midnightblue" stroke="midnightblue" points="397.53,-81.3 406.41,-75.52 395.86,-74.5 397.53,-81.3"/>
</g>
<!-- Node8&#45;&gt;Node5 -->
<g id="edge10" class="edge">
<title>Node8&#45;&gt;Node5</title>
<path fill="none" stroke="midnightblue" d="M355.49,-112.32C371.77,-103.7 396.97,-90.36 415.82,-80.39"/>
<polygon fill="midnightblue" stroke="midnightblue" points="417.56,-83.43 424.76,-75.65 414.28,-77.24 417.56,-83.43"/>
</g>
<!-- Node9&#45;&gt;Node4 -->
<g id="edge12" class="edge">
<title>Node9&#45;&gt;Node4</title>
<path fill="none" stroke="midnightblue" d="M73.87,-112.08C79.66,-104.46 88.16,-93.26 95.24,-83.94"/>
<polygon fill="midnightblue" stroke="midnightblue" points="98.2,-85.83 101.46,-75.75 92.62,-81.6 98.2,-85.83"/>
</g>
<!-- Node10&#45;&gt;Node3 -->
<g id="edge15" class="edge">
<title>Node10&#45;&gt;Node3</title>
<path fill="none" stroke="midnightblue" d="M321.1,-224.08C321.1,-217.01 321.1,-206.86 321.1,-197.99"/>
<polygon fill="midnightblue" stroke="midnightblue" points="324.6,-197.75 321.1,-187.75 317.6,-197.75 324.6,-197.75"/>
</g>
<!-- Node10&#45;&gt;Node4 -->
<g id="edge17" class="edge">
<title>Node10&#45;&gt;Node4</title>
<path fill="none" stroke="midnightblue" d="M282.06,-233.95C212.82,-233.24 69.72,-220.49 5.1,-132 -13.42,-106.64 24.23,-88.82 59.1,-78.34"/>
<polygon fill="midnightblue" stroke="midnightblue" points="60.15,-81.68 68.81,-75.57 58.23,-74.94 60.15,-81.68"/>
</g>
<!-- Node10&#45;&gt;Node5 -->
<g id="edge16" class="edge">
<title>Node10&#45;&gt;Node5</title>
<path fill="none" stroke="midnightblue" d="M333.89,-224.39C356.04,-208.77 401.32,-173.49 424.1,-132 432,-117.62 436.35,-99.43 438.67,-85.95"/>
<polygon fill="midnightblue" stroke="midnightblue" points="442.15,-86.33 440.17,-75.92 435.23,-85.29 442.15,-86.33"/>
</g>
<!-- Node11&#45;&gt;Node12 -->
<g id="edge19" class="edge">
<title>Node11&#45;&gt;Node12</title>
<path fill="none" stroke="midnightblue" d="M407.18,-336.4C403.73,-328.2 399.36,-317.78 395.66,-308.99"/>
<polygon fill="midnightblue" stroke="midnightblue" points="398.84,-307.52 391.74,-299.66 392.39,-310.23 398.84,-307.52"/>
</g>
<!-- Node12&#45;&gt;Node3 -->
<g id="edge20" class="edge">
<title>Node12&#45;&gt;Node3</title>
<path fill="none" stroke="midnightblue" d="M387.07,-280.42C385.18,-267.39 380.31,-242.23 369.1,-224 361.98,-212.41 351.09,-201.86 341.49,-193.9"/>
<polygon fill="midnightblue" stroke="midnightblue" points="343.52,-191.04 333.5,-187.6 339.19,-196.54 343.52,-191.04"/>
</g>
<!-- Node12&#45;&gt;Node10 -->
<g id="edge21" class="edge">
<title>Node12&#45;&gt;Node10</title>
<path fill="none" stroke="midnightblue" d="M377.34,-280.32C367.34,-272.26 352.22,-260.08 340.17,-250.37"/>
<polygon fill="midnightblue" stroke="midnightblue" points="342.05,-247.38 332.06,-243.83 337.65,-252.83 342.05,-247.38"/>
</g>
<!-- Node13 -->
<g id="node13" class="node">
<title>Node13</title>
<g id="a_node13"><a xlink:href="err_8h.html" target="_top" xlink:title="Error codes.">
<polygon fill="white" stroke="black" points="481.1,-168.5 481.1,-187.5 551.1,-187.5 551.1,-168.5 481.1,-168.5"/>
<text text-anchor="middle" x="516.1" y="-175.5" font-family="Helvetica,sans-Serif" font-size="10.00">l4/sys/err.h</text>
</a>
</g>
</g>
<!-- Node12&#45;&gt;Node13 -->
<g id="edge22" class="edge">
<title>Node12&#45;&gt;Node13</title>
<path fill="none" stroke="midnightblue" d="M398.15,-280.37C419.83,-261.73 471.27,-217.53 498.49,-194.13"/>
<polygon fill="midnightblue" stroke="midnightblue" points="500.8,-196.76 506.11,-187.59 496.24,-191.45 500.8,-196.76"/>
</g>
<!-- Node13&#45;&gt;Node5 -->
<g id="edge23" class="edge">
<title>Node13&#45;&gt;Node5</title>
<path fill="none" stroke="midnightblue" d="M510.82,-168.48C503.01,-155.96 487.82,-131.92 474.1,-112 467.56,-102.51 459.98,-92.12 453.73,-83.72"/>
<polygon fill="midnightblue" stroke="midnightblue" points="456.38,-81.42 447.58,-75.52 450.78,-85.62 456.38,-81.42"/>
</g>
<!-- Node14&#45;&gt;Node3 -->
<g id="edge28" class="edge">
<title>Node14&#45;&gt;Node3</title>
<path fill="none" stroke="midnightblue" d="M201.17,-342C211.5,-320.85 240.27,-264.66 273.1,-224 281.87,-213.14 293.21,-202.39 302.66,-194.13"/>
<polygon fill="midnightblue" stroke="midnightblue" points="305.03,-196.71 310.37,-187.56 300.49,-191.38 305.03,-196.71"/>
</g>
<!-- Node14&#45;&gt;Node10 -->
<g id="edge27" class="edge">
<title>Node14&#45;&gt;Node10</title>
<path fill="none" stroke="midnightblue" d="M206.42,-341.82C227.25,-322.42 277.8,-275.33 304.29,-250.66"/>
<polygon fill="midnightblue" stroke="midnightblue" points="306.74,-253.16 311.67,-243.78 301.97,-248.04 306.74,-253.16"/>
</g>
<!-- Node14&#45;&gt;Node12 -->
<g id="edge29" class="edge">
<title>Node14&#45;&gt;Node12</title>
<path fill="none" stroke="midnightblue" d="M224.47,-341.98C257.66,-331.64 313.75,-314.16 350.86,-302.6"/>
<polygon fill="midnightblue" stroke="midnightblue" points="352.28,-305.82 360.79,-299.51 350.2,-299.14 352.28,-305.82"/>
</g>
</g>
</svg>
