<?xml version="1.0" encoding="UTF-8" standalone="no"?>
<!DOCTYPE svg PUBLIC "-//W3C//DTD SVG 1.1//EN"
 "http://www.w3.org/Graphics/SVG/1.1/DTD/svg11.dtd">
<!-- Generated by graphviz version 2.43.0 (0)
 -->
<!-- Title: l4/util/atomic.h Pages: 1 -->
<svg width="375pt" height="151pt"
 viewBox="0.00 0.00 374.50 151.00" xmlns="http://www.w3.org/2000/svg" xmlns:xlink="http://www.w3.org/1999/xlink">
<g id="graph0" class="graph" transform="scale(1 1) rotate(0) translate(4 147)">
<title>l4/util/atomic.h</title>
<polygon fill="white" stroke="transparent" points="-4,4 -4,-147 370.5,-147 370.5,4 -4,4"/>
<!-- Node1 -->
<g id="node1" class="node">
<title>Node1</title>
<g id="a_node1"><a xlink:title="atomic operations header and generic implementations">
<polygon fill="#bfbfbf" stroke="black" points="122.5,-123.5 122.5,-142.5 212.5,-142.5 212.5,-123.5 122.5,-123.5"/>
<text text-anchor="middle" x="167.5" y="-130.5" font-family="Helvetica,sans-Serif" font-size="10.00">l4/util/atomic.h</text>
</a>
</g>
</g>
<!-- Node2 -->
<g id="node2" class="node">
<title>Node2</title>
<g id="a_node2"><a xlink:href="client_2virtio-block_source.html" target="_top" xlink:title=" ">
<polygon fill="white" stroke="black" points="0,-0.5 0,-30.5 93,-30.5 93,-0.5 0,-0.5"/>
<text text-anchor="start" x="8" y="-18.5" font-family="Helvetica,sans-Serif" font-size="10.00">l4/l4virtio/client</text>
<text text-anchor="middle" x="46.5" y="-7.5" font-family="Helvetica,sans-Serif" font-size="10.00">/virtio&#45;block</text>
</a>
</g>
</g>
<!-- Node1&#45;&gt;Node2 -->
<g id="edge1" class="edge">
<title>Node1&#45;&gt;Node2</title>
<path fill="none" stroke="midnightblue" d="M118.37,-120.2C99.45,-113.38 79.13,-102.88 65.5,-87 51.8,-71.03 47.87,-46.13 46.81,-30.59"/>
<polygon fill="midnightblue" stroke="midnightblue" points="117.5,-123.6 128.1,-123.45 119.72,-116.96 117.5,-123.6"/>
</g>
<!-- Node3 -->
<g id="node3" class="node">
<title>Node3</title>
<g id="a_node3"><a xlink:href="bitops_8h.html" target="_top" xlink:title="bit manipulation functions">
<polygon fill="white" stroke="black" points="74.5,-67.5 74.5,-86.5 160.5,-86.5 160.5,-67.5 74.5,-67.5"/>
<text text-anchor="middle" x="117.5" y="-74.5" font-family="Helvetica,sans-Serif" font-size="10.00">l4/util/bitops.h</text>
</a>
</g>
</g>
<!-- Node1&#45;&gt;Node3 -->
<g id="edge2" class="edge">
<title>Node1&#45;&gt;Node3</title>
<path fill="none" stroke="midnightblue" d="M152.42,-115.72C143.61,-106.2 132.83,-94.56 125.6,-86.75"/>
<polygon fill="midnightblue" stroke="midnightblue" points="149.88,-118.12 159.24,-123.08 155.02,-113.37 149.88,-118.12"/>
</g>
<!-- Node5 -->
<g id="node5" class="node">
<title>Node5</title>
<g id="a_node5"><a xlink:href="lock_8h.html" target="_top" xlink:title="Simple lock implementation.">
<polygon fill="white" stroke="black" points="179,-67.5 179,-86.5 256,-86.5 256,-67.5 179,-67.5"/>
<text text-anchor="middle" x="217.5" y="-74.5" font-family="Helvetica,sans-Serif" font-size="10.00">l4/util/lock.h</text>
</a>
</g>
</g>
<!-- Node1&#45;&gt;Node5 -->
<g id="edge5" class="edge">
<title>Node1&#45;&gt;Node5</title>
<path fill="none" stroke="midnightblue" d="M182.58,-115.72C191.39,-106.2 202.17,-94.56 209.4,-86.75"/>
<polygon fill="midnightblue" stroke="midnightblue" points="179.98,-113.37 175.76,-123.08 185.12,-118.12 179.98,-113.37"/>
</g>
<!-- Node6 -->
<g id="node6" class="node">
<title>Node6</title>
<g id="a_node6"><a xlink:href="l4_2cxx_2atomic_8h.html" target="_top" xlink:title="Atomic template.">
<polygon fill="white" stroke="black" points="274.5,-67.5 274.5,-86.5 366.5,-86.5 366.5,-67.5 274.5,-67.5"/>
<text text-anchor="middle" x="320.5" y="-74.5" font-family="Helvetica,sans-Serif" font-size="10.00">l4/cxx/atomic.h</text>
</a>
</g>
</g>
<!-- Node1&#45;&gt;Node6 -->
<g id="edge6" class="edge">
<title>Node1&#45;&gt;Node6</title>
<path fill="none" stroke="midnightblue" d="M201.39,-120.04C230.18,-109.88 270.79,-95.55 296.37,-86.52"/>
<polygon fill="midnightblue" stroke="midnightblue" points="200.01,-116.81 191.74,-123.44 202.34,-123.42 200.01,-116.81"/>
</g>
<!-- Node3&#45;&gt;Node2 -->
<g id="edge3" class="edge">
<title>Node3&#45;&gt;Node2</title>
<path fill="none" stroke="midnightblue" d="M99.51,-60.92C88.36,-51.58 74.14,-39.66 63.23,-30.52"/>
<polygon fill="midnightblue" stroke="midnightblue" points="97.41,-63.73 107.33,-67.48 101.91,-58.37 97.41,-63.73"/>
</g>
<!-- Node4 -->
<g id="node4" class="node">
<title>Node4</title>
<g id="a_node4"><a xlink:href="splitlog2_8h.html" target="_top" xlink:title="Split a range in log2 aligned and size&#45;aligned chunks.">
<polygon fill="white" stroke="black" points="111.5,-6 111.5,-25 209.5,-25 209.5,-6 111.5,-6"/>
<text text-anchor="middle" x="160.5" y="-13" font-family="Helvetica,sans-Serif" font-size="10.00">l4/util/splitlog2.h</text>
</a>
</g>
</g>
<!-- Node3&#45;&gt;Node4 -->
<g id="edge4" class="edge">
<title>Node3&#45;&gt;Node4</title>
<path fill="none" stroke="midnightblue" d="M129.54,-59.34C137.61,-48.17 147.91,-33.93 154.35,-25.01"/>
<polygon fill="midnightblue" stroke="midnightblue" points="126.68,-57.32 123.66,-67.48 132.36,-61.42 126.68,-57.32"/>
</g>
</g>
</svg>
