<?xml version="1.0" encoding="UTF-8" standalone="no"?>
<!DOCTYPE svg PUBLIC "-//W3C//DTD SVG 1.1//EN"
 "http://www.w3.org/Graphics/SVG/1.1/DTD/svg11.dtd">
<!-- Generated by graphviz version 2.43.0 (0)
 -->
<!-- Title: l4/sys/vm Pages: 1 -->
<svg width="825pt" height="823pt"
 viewBox="0.00 0.00 824.75 823.00" xmlns="http://www.w3.org/2000/svg" xmlns:xlink="http://www.w3.org/1999/xlink">
<g id="graph0" class="graph" transform="scale(1 1) rotate(0) translate(4 819)">
<title>l4/sys/vm</title>
<polygon fill="white" stroke="transparent" points="-4,4 -4,-819 820.75,-819 820.75,4 -4,4"/>
<!-- Node1 -->
<g id="node1" class="node">
<title>Node1</title>
<g id="a_node1"><a xlink:title="Virtualization interface.">
<polygon fill="#bfbfbf" stroke="black" points="48.5,-795.5 48.5,-814.5 112.5,-814.5 112.5,-795.5 48.5,-795.5"/>
<text text-anchor="middle" x="80.5" y="-802.5" font-family="Helvetica,sans-Serif" font-size="10.00">l4/sys/vm</text>
</a>
</g>
</g>
<!-- Node2 -->
<g id="node2" class="node">
<title>Node2</title>
<g id="a_node2"><a xlink:title=" ">
<polygon fill="white" stroke="#bfbfbf" points="0,-739.5 0,-758.5 73,-758.5 73,-739.5 0,-739.5"/>
<text text-anchor="middle" x="36.5" y="-746.5" font-family="Helvetica,sans-Serif" font-size="10.00">l4/sys/vm.h</text>
</a>
</g>
</g>
<!-- Node1&#45;&gt;Node2 -->
<g id="edge1" class="edge">
<title>Node1&#45;&gt;Node2</title>
<path fill="none" stroke="midnightblue" d="M73.23,-795.08C66.96,-787.38 57.71,-776.03 50.07,-766.65"/>
<polygon fill="midnightblue" stroke="midnightblue" points="52.66,-764.29 43.63,-758.75 47.23,-768.71 52.66,-764.29"/>
</g>
<!-- Node3 -->
<g id="node3" class="node">
<title>Node3</title>
<g id="a_node3"><a xlink:href="task.html" target="_top" xlink:title="Common task related definitions.">
<polygon fill="white" stroke="black" points="91,-739.5 91,-758.5 160,-758.5 160,-739.5 91,-739.5"/>
<text text-anchor="middle" x="125.5" y="-746.5" font-family="Helvetica,sans-Serif" font-size="10.00">l4/sys/task</text>
</a>
</g>
</g>
<!-- Node1&#45;&gt;Node3 -->
<g id="edge2" class="edge">
<title>Node1&#45;&gt;Node3</title>
<path fill="none" stroke="midnightblue" d="M87.93,-795.08C94.35,-787.38 103.81,-776.03 111.62,-766.65"/>
<polygon fill="midnightblue" stroke="midnightblue" points="114.49,-768.67 118.21,-758.75 109.12,-764.19 114.49,-768.67"/>
</g>
<!-- Node4 -->
<g id="node4" class="node">
<title>Node4</title>
<g id="a_node4"><a xlink:href="l4_2sys_2task_8h.html" target="_top" xlink:title="Common task related definitions.">
<polygon fill="white" stroke="black" points="229.5,-342 229.5,-361 307.5,-361 307.5,-342 229.5,-342"/>
<text text-anchor="middle" x="268.5" y="-349" font-family="Helvetica,sans-Serif" font-size="10.00">l4/sys/task.h</text>
</a>
</g>
</g>
<!-- Node3&#45;&gt;Node4 -->
<g id="edge3" class="edge">
<title>Node3&#45;&gt;Node4</title>
<path fill="none" stroke="midnightblue" d="M125.57,-739.28C126.03,-713.1 129.12,-633.18 149.5,-571 175.93,-490.37 231.87,-404.82 256.47,-369.38"/>
<polygon fill="midnightblue" stroke="midnightblue" points="259.39,-371.32 262.27,-361.12 253.66,-367.29 259.39,-371.32"/>
</g>
<!-- Node15 -->
<g id="node15" class="node">
<title>Node15</title>
<g id="a_node15"><a xlink:href="capability.html" target="_top" xlink:title="L4::Cap related definitions.">
<polygon fill="white" stroke="black" points="160.5,-683.5 160.5,-702.5 256.5,-702.5 256.5,-683.5 160.5,-683.5"/>
<text text-anchor="middle" x="208.5" y="-690.5" font-family="Helvetica,sans-Serif" font-size="10.00">l4/sys/capability</text>
</a>
</g>
</g>
<!-- Node3&#45;&gt;Node15 -->
<g id="edge24" class="edge">
<title>Node3&#45;&gt;Node15</title>
<path fill="none" stroke="midnightblue" d="M138.84,-739.32C151.66,-730.98 171.28,-718.21 186.44,-708.35"/>
<polygon fill="midnightblue" stroke="midnightblue" points="188.72,-711.04 195.2,-702.65 184.91,-705.17 188.72,-711.04"/>
</g>
<!-- Node5 -->
<g id="node5" class="node">
<title>Node5</title>
<g id="a_node5"><a xlink:href="l4_2sys_2types_8h.html" target="_top" xlink:title="Common L4 ABI Data Types.">
<polygon fill="white" stroke="black" points="201.5,-168.5 201.5,-187.5 285.5,-187.5 285.5,-168.5 201.5,-168.5"/>
<text text-anchor="middle" x="243.5" y="-175.5" font-family="Helvetica,sans-Serif" font-size="10.00">l4/sys/types.h</text>
</a>
</g>
</g>
<!-- Node4&#45;&gt;Node5 -->
<g id="edge4" class="edge">
<title>Node4&#45;&gt;Node5</title>
<path fill="none" stroke="midnightblue" d="M267.23,-341.76C263.35,-315.15 251.62,-234.71 246.25,-197.84"/>
<polygon fill="midnightblue" stroke="midnightblue" points="249.65,-196.91 244.74,-187.52 242.72,-197.92 249.65,-196.91"/>
</g>
<!-- Node12 -->
<g id="node12" class="node">
<title>Node12</title>
<g id="a_node12"><a xlink:href="l4_2sys_2utcb_8h.html" target="_top" xlink:title="UTCB definitions.">
<polygon fill="white" stroke="black" points="312.5,-224.5 312.5,-243.5 390.5,-243.5 390.5,-224.5 312.5,-224.5"/>
<text text-anchor="middle" x="351.5" y="-231.5" font-family="Helvetica,sans-Serif" font-size="10.00">l4/sys/utcb.h</text>
</a>
</g>
</g>
<!-- Node4&#45;&gt;Node12 -->
<g id="edge15" class="edge">
<title>Node4&#45;&gt;Node12</title>
<path fill="none" stroke="midnightblue" d="M274.74,-341.82C288.44,-322.76 321.36,-276.95 339.31,-251.96"/>
<polygon fill="midnightblue" stroke="midnightblue" points="342.2,-253.95 345.19,-243.78 336.51,-249.86 342.2,-253.95"/>
</g>
<!-- Node13 -->
<g id="node13" class="node">
<title>Node13</title>
<g id="a_node13"><a xlink:href="l4_2sys_2ipc_8h.html" target="_top" xlink:title="Common IPC interface.">
<polygon fill="white" stroke="black" points="377,-280.5 377,-299.5 448,-299.5 448,-280.5 377,-280.5"/>
<text text-anchor="middle" x="412.5" y="-287.5" font-family="Helvetica,sans-Serif" font-size="10.00">l4/sys/ipc.h</text>
</a>
</g>
</g>
<!-- Node4&#45;&gt;Node13 -->
<g id="edge19" class="edge">
<title>Node4&#45;&gt;Node13</title>
<path fill="none" stroke="midnightblue" d="M289.13,-341.98C313.62,-331.86 354.65,-314.9 382.61,-303.35"/>
<polygon fill="midnightblue" stroke="midnightblue" points="384,-306.56 391.91,-299.51 381.33,-300.09 384,-306.56"/>
</g>
<!-- Node6 -->
<g id="node6" class="node">
<title>Node6</title>
<g id="a_node6"><a xlink:href="l4_2sys_2l4int_8h.html" target="_top" xlink:title="Fixed sized integer types, generic version.">
<polygon fill="white" stroke="black" points="168,-56.5 168,-75.5 247,-75.5 247,-56.5 168,-56.5"/>
<text text-anchor="middle" x="207.5" y="-63.5" font-family="Helvetica,sans-Serif" font-size="10.00">l4/sys/l4int.h</text>
</a>
</g>
</g>
<!-- Node5&#45;&gt;Node6 -->
<g id="edge5" class="edge">
<title>Node5&#45;&gt;Node6</title>
<path fill="none" stroke="midnightblue" d="M226.87,-168.46C214.01,-160.84 197.16,-148.36 189.5,-132 182.31,-116.64 189.02,-97.85 196.2,-84.43"/>
<polygon fill="midnightblue" stroke="midnightblue" points="199.26,-86.13 201.32,-75.74 193.23,-82.58 199.26,-86.13"/>
</g>
<!-- Node7 -->
<g id="node7" class="node">
<title>Node7</title>
<g id="a_node7"><a xlink:href="compiler_8h.html" target="_top" xlink:title="L4 compiler related defines.">
<polygon fill="white" stroke="black" points="452,-56.5 452,-75.5 551,-75.5 551,-56.5 452,-56.5"/>
<text text-anchor="middle" x="501.5" y="-63.5" font-family="Helvetica,sans-Serif" font-size="10.00">l4/sys/compiler.h</text>
</a>
</g>
</g>
<!-- Node5&#45;&gt;Node7 -->
<g id="edge6" class="edge">
<title>Node5&#45;&gt;Node7</title>
<path fill="none" stroke="midnightblue" d="M285.88,-172.47C341.55,-165.84 435.53,-152.04 463.5,-132 479.4,-120.6 489.7,-100.32 495.51,-85.43"/>
<polygon fill="midnightblue" stroke="midnightblue" points="498.9,-86.34 498.96,-75.75 492.31,-83.99 498.9,-86.34"/>
</g>
<!-- Node9 -->
<g id="node9" class="node">
<title>Node9</title>
<g id="a_node9"><a xlink:href="l4_2sys_2consts_8h.html" target="_top" xlink:title="Common constants.">
<polygon fill="white" stroke="black" points="199,-112.5 199,-131.5 288,-131.5 288,-112.5 199,-112.5"/>
<text text-anchor="middle" x="243.5" y="-119.5" font-family="Helvetica,sans-Serif" font-size="10.00">l4/sys/consts.h</text>
</a>
</g>
</g>
<!-- Node5&#45;&gt;Node9 -->
<g id="edge8" class="edge">
<title>Node5&#45;&gt;Node9</title>
<path fill="none" stroke="midnightblue" d="M243.5,-168.08C243.5,-161.01 243.5,-150.86 243.5,-141.99"/>
<polygon fill="midnightblue" stroke="midnightblue" points="247,-141.75 243.5,-131.75 240,-141.75 247,-141.75"/>
</g>
<!-- Node10 -->
<g id="node10" class="node">
<title>Node10</title>
<g id="a_node10"><a xlink:href="____l4__fpage_8h_source.html" target="_top" xlink:title=" ">
<polygon fill="white" stroke="black" points="344.5,-112.5 344.5,-131.5 454.5,-131.5 454.5,-112.5 344.5,-112.5"/>
<text text-anchor="middle" x="399.5" y="-119.5" font-family="Helvetica,sans-Serif" font-size="10.00">l4/sys/__l4_fpage.h</text>
</a>
</g>
</g>
<!-- Node5&#45;&gt;Node10 -->
<g id="edge11" class="edge">
<title>Node5&#45;&gt;Node10</title>
<path fill="none" stroke="midnightblue" d="M268.22,-168.44C294.35,-159.4 335.76,-145.06 365.08,-134.92"/>
<polygon fill="midnightblue" stroke="midnightblue" points="366.59,-138.1 374.9,-131.52 364.3,-131.48 366.59,-138.1"/>
</g>
<!-- Node11 -->
<g id="node11" class="node">
<title>Node11</title>
<g id="a_node11"><a xlink:href="____timeout_8h_source.html" target="_top" xlink:title=" ">
<polygon fill="white" stroke="black" points="36.5,-112.5 36.5,-131.5 142.5,-131.5 142.5,-112.5 36.5,-112.5"/>
<text text-anchor="middle" x="89.5" y="-119.5" font-family="Helvetica,sans-Serif" font-size="10.00">l4/sys/__timeout.h</text>
</a>
</g>
</g>
<!-- Node5&#45;&gt;Node11 -->
<g id="edge13" class="edge">
<title>Node5&#45;&gt;Node11</title>
<path fill="none" stroke="midnightblue" d="M219.1,-168.44C193.3,-159.4 152.42,-145.06 123.48,-134.92"/>
<polygon fill="midnightblue" stroke="midnightblue" points="124.38,-131.52 113.79,-131.52 122.07,-138.13 124.38,-131.52"/>
</g>
<!-- Node8 -->
<g id="node8" class="node">
<title>Node8</title>
<g id="a_node8"><a xlink:title=" ">
<polygon fill="white" stroke="#bfbfbf" points="455.5,-0.5 455.5,-19.5 547.5,-19.5 547.5,-0.5 455.5,-0.5"/>
<text text-anchor="middle" x="501.5" y="-7.5" font-family="Helvetica,sans-Serif" font-size="10.00">l4/sys/linkage.h</text>
</a>
</g>
</g>
<!-- Node7&#45;&gt;Node8 -->
<g id="edge7" class="edge">
<title>Node7&#45;&gt;Node8</title>
<path fill="none" stroke="midnightblue" d="M501.5,-56.08C501.5,-49.01 501.5,-38.86 501.5,-29.99"/>
<polygon fill="midnightblue" stroke="midnightblue" points="505,-29.75 501.5,-19.75 498,-29.75 505,-29.75"/>
</g>
<!-- Node9&#45;&gt;Node6 -->
<g id="edge10" class="edge">
<title>Node9&#45;&gt;Node6</title>
<path fill="none" stroke="midnightblue" d="M237.56,-112.08C232.52,-104.53 225.16,-93.49 218.99,-84.23"/>
<polygon fill="midnightblue" stroke="midnightblue" points="221.79,-82.13 213.33,-75.75 215.97,-86.01 221.79,-82.13"/>
</g>
<!-- Node9&#45;&gt;Node7 -->
<g id="edge9" class="edge">
<title>Node9&#45;&gt;Node7</title>
<path fill="none" stroke="midnightblue" d="M284.38,-112.44C329.48,-103 402.11,-87.8 450.8,-77.61"/>
<polygon fill="midnightblue" stroke="midnightblue" points="451.74,-80.99 460.81,-75.52 450.31,-74.14 451.74,-80.99"/>
</g>
<!-- Node10&#45;&gt;Node7 -->
<g id="edge12" class="edge">
<title>Node10&#45;&gt;Node7</title>
<path fill="none" stroke="midnightblue" d="M415.89,-112.32C432.17,-103.7 457.37,-90.36 476.22,-80.39"/>
<polygon fill="midnightblue" stroke="midnightblue" points="477.95,-83.43 485.15,-75.65 474.68,-77.24 477.95,-83.43"/>
</g>
<!-- Node11&#45;&gt;Node6 -->
<g id="edge14" class="edge">
<title>Node11&#45;&gt;Node6</title>
<path fill="none" stroke="midnightblue" d="M108.2,-112.44C127.44,-103.64 157.65,-89.81 179.7,-79.72"/>
<polygon fill="midnightblue" stroke="midnightblue" points="181.25,-82.86 188.89,-75.52 178.34,-76.5 181.25,-82.86"/>
</g>
<!-- Node12&#45;&gt;Node5 -->
<g id="edge16" class="edge">
<title>Node12&#45;&gt;Node5</title>
<path fill="none" stroke="midnightblue" d="M334.15,-224.32C316.83,-215.66 289.98,-202.24 270,-192.25"/>
<polygon fill="midnightblue" stroke="midnightblue" points="271.32,-189 260.81,-187.65 268.19,-195.26 271.32,-189"/>
</g>
<!-- Node12&#45;&gt;Node6 -->
<g id="edge18" class="edge">
<title>Node12&#45;&gt;Node6</title>
<path fill="none" stroke="midnightblue" d="M349.65,-224.26C344.66,-202.64 329.09,-145.97 296.5,-112 282.34,-97.24 262.3,-86.52 244.82,-79.26"/>
<polygon fill="midnightblue" stroke="midnightblue" points="246.01,-75.96 235.42,-75.57 243.46,-82.48 246.01,-75.96"/>
</g>
<!-- Node12&#45;&gt;Node7 -->
<g id="edge17" class="edge">
<title>Node12&#45;&gt;Node7</title>
<path fill="none" stroke="midnightblue" d="M370.07,-224.47C399.6,-209.91 456.93,-177.37 486.5,-132 495.49,-118.2 499.12,-99.68 500.57,-85.94"/>
<polygon fill="midnightblue" stroke="midnightblue" points="504.08,-85.96 501.35,-75.73 497.1,-85.43 504.08,-85.96"/>
</g>
<!-- Node13&#45;&gt;Node5 -->
<g id="edge20" class="edge">
<title>Node13&#45;&gt;Node5</title>
<path fill="none" stroke="midnightblue" d="M382.06,-280.37C359.15,-272.98 327.69,-260.85 303.5,-244 284.3,-230.62 266.7,-210.14 255.6,-195.75"/>
<polygon fill="midnightblue" stroke="midnightblue" points="258.36,-193.61 249.57,-187.7 252.76,-197.8 258.36,-193.61"/>
</g>
<!-- Node13&#45;&gt;Node12 -->
<g id="edge21" class="edge">
<title>Node13&#45;&gt;Node12</title>
<path fill="none" stroke="midnightblue" d="M402.7,-280.32C393.68,-272.34 380.09,-260.31 369.18,-250.65"/>
<polygon fill="midnightblue" stroke="midnightblue" points="371.29,-247.84 361.48,-243.83 366.65,-253.08 371.29,-247.84"/>
</g>
<!-- Node14 -->
<g id="node14" class="node">
<title>Node14</title>
<g id="a_node14"><a xlink:href="err_8h.html" target="_top" xlink:title="Error codes.">
<polygon fill="white" stroke="black" points="657.5,-224.5 657.5,-243.5 727.5,-243.5 727.5,-224.5 657.5,-224.5"/>
<text text-anchor="middle" x="692.5" y="-231.5" font-family="Helvetica,sans-Serif" font-size="10.00">l4/sys/err.h</text>
</a>
</g>
</g>
<!-- Node13&#45;&gt;Node14 -->
<g id="edge22" class="edge">
<title>Node13&#45;&gt;Node14</title>
<path fill="none" stroke="midnightblue" d="M448.25,-282.11C499.04,-272.31 592.09,-254.37 647.51,-243.68"/>
<polygon fill="midnightblue" stroke="midnightblue" points="648.25,-247.1 657.41,-241.77 646.92,-240.23 648.25,-247.1"/>
</g>
<!-- Node14&#45;&gt;Node7 -->
<g id="edge23" class="edge">
<title>Node14&#45;&gt;Node7</title>
<path fill="none" stroke="midnightblue" d="M685.22,-224.43C667.34,-203.67 619.3,-149.64 572.5,-112 557.85,-100.22 539.97,-88.91 525.82,-80.57"/>
<polygon fill="midnightblue" stroke="midnightblue" points="527.54,-77.52 517.13,-75.54 524.04,-83.58 527.54,-77.52"/>
</g>
<!-- Node15&#45;&gt;Node4 -->
<g id="edge46" class="edge">
<title>Node15&#45;&gt;Node4</title>
<path fill="none" stroke="midnightblue" d="M214.9,-683.39C227.54,-665.5 254.5,-622.57 254.5,-582 254.5,-582 254.5,-582 254.5,-468 254.5,-433.61 260.69,-393.88 264.84,-371.13"/>
<polygon fill="midnightblue" stroke="midnightblue" points="268.31,-371.63 266.73,-361.15 261.43,-370.32 268.31,-371.63"/>
</g>
<!-- Node15&#45;&gt;Node5 -->
<g id="edge26" class="edge">
<title>Node15&#45;&gt;Node5</title>
<path fill="none" stroke="midnightblue" d="M202.24,-683.37C189.88,-665.44 163.5,-622.44 163.5,-582 163.5,-582 163.5,-582 163.5,-524 163.5,-445.93 125.5,-430.57 125.5,-352.5 125.5,-352.5 125.5,-352.5 125.5,-289 125.5,-241.51 177.27,-208.67 212.22,-191.91"/>
<polygon fill="midnightblue" stroke="midnightblue" points="213.96,-194.97 221.58,-187.61 211.03,-188.61 213.96,-194.97"/>
</g>
<!-- Node15&#45;&gt;Node9 -->
<g id="edge25" class="edge">
<title>Node15&#45;&gt;Node9</title>
<path fill="none" stroke="midnightblue" d="M199.41,-683.23C171.27,-655.09 87.5,-563.5 87.5,-470 87.5,-470 87.5,-470 87.5,-233 87.5,-178.82 151.13,-148.97 197.12,-134.48"/>
<polygon fill="midnightblue" stroke="midnightblue" points="198.35,-137.77 206.92,-131.54 196.34,-131.06 198.35,-137.77"/>
</g>
<!-- Node16 -->
<g id="node16" class="node">
<title>Node16</title>
<g id="a_node16"><a xlink:href="kobject_source.html" target="_top" xlink:title=" ">
<polygon fill="white" stroke="black" points="359,-515.5 359,-534.5 442,-534.5 442,-515.5 359,-515.5"/>
<text text-anchor="middle" x="400.5" y="-522.5" font-family="Helvetica,sans-Serif" font-size="10.00">l4/sys/kobject</text>
</a>
</g>
</g>
<!-- Node15&#45;&gt;Node16 -->
<g id="edge27" class="edge">
<title>Node15&#45;&gt;Node16</title>
<path fill="none" stroke="midnightblue" d="M220.72,-683.37C233.04,-674.56 252.47,-660.3 268.5,-647 311.92,-610.97 360.11,-565.21 384.49,-541.63"/>
<polygon fill="midnightblue" stroke="midnightblue" points="387.07,-544 391.81,-534.53 382.2,-538.98 387.07,-544"/>
</g>
<!-- Node23 -->
<g id="node23" class="node">
<title>Node23</title>
<g id="a_node23"><a xlink:href="sys_2meta.html" target="_top" xlink:title="Meta interface for getting dynamic type information about objects behind capabilities.">
<polygon fill="white" stroke="black" points="432.5,-627.5 432.5,-646.5 506.5,-646.5 506.5,-627.5 432.5,-627.5"/>
<text text-anchor="middle" x="469.5" y="-634.5" font-family="Helvetica,sans-Serif" font-size="10.00">l4/sys/meta</text>
</a>
</g>
</g>
<!-- Node15&#45;&gt;Node23 -->
<g id="edge47" class="edge">
<title>Node15&#45;&gt;Node23</title>
<path fill="none" stroke="midnightblue" d="M249.86,-683.44C296.69,-673.75 372.87,-657.99 422.07,-647.81"/>
<polygon fill="midnightblue" stroke="midnightblue" points="423.06,-651.18 432.14,-645.73 421.64,-644.33 423.06,-651.18"/>
</g>
<!-- Node16&#45;&gt;Node5 -->
<g id="edge35" class="edge">
<title>Node16&#45;&gt;Node5</title>
<path fill="none" stroke="midnightblue" d="M363.47,-515.49C296.81,-497.73 163.5,-450.01 163.5,-352.5 163.5,-352.5 163.5,-352.5 163.5,-289 163.5,-248.62 199.19,-213.11 222.9,-193.97"/>
<polygon fill="midnightblue" stroke="midnightblue" points="225.24,-196.58 231,-187.69 220.95,-191.05 225.24,-196.58"/>
</g>
<!-- Node17 -->
<g id="node17" class="node">
<title>Node17</title>
<g id="a_node17"><a xlink:href="kernel__object_8h.html" target="_top" xlink:title="Kernel object system calls.">
<polygon fill="white" stroke="black" points="363,-403.5 363,-422.5 454,-422.5 454,-403.5 363,-403.5"/>
<text text-anchor="middle" x="408.5" y="-410.5" font-family="Helvetica,sans-Serif" font-size="10.00">kernel_object.h</text>
</a>
</g>
</g>
<!-- Node16&#45;&gt;Node17 -->
<g id="edge28" class="edge">
<title>Node16&#45;&gt;Node17</title>
<path fill="none" stroke="midnightblue" d="M401.13,-515.37C402.42,-497.62 405.4,-456.67 407.15,-432.6"/>
<polygon fill="midnightblue" stroke="midnightblue" points="410.64,-432.82 407.88,-422.59 403.66,-432.31 410.64,-432.82"/>
</g>
<!-- Node19 -->
<g id="node19" class="node">
<title>Node19</title>
<g id="a_node19"><a xlink:href="____typeinfo_8h.html" target="_top" xlink:title="Type information handling.">
<polygon fill="white" stroke="black" points="429,-459.5 429,-478.5 506,-478.5 506,-459.5 429,-459.5"/>
<text text-anchor="middle" x="467.5" y="-466.5" font-family="Helvetica,sans-Serif" font-size="10.00">__typeinfo.h</text>
</a>
</g>
</g>
<!-- Node16&#45;&gt;Node19 -->
<g id="edge36" class="edge">
<title>Node16&#45;&gt;Node19</title>
<path fill="none" stroke="midnightblue" d="M411.26,-515.32C421.27,-507.26 436.39,-495.08 448.43,-485.37"/>
<polygon fill="midnightblue" stroke="midnightblue" points="450.95,-487.83 456.54,-478.83 446.56,-482.38 450.95,-487.83"/>
</g>
<!-- Node17&#45;&gt;Node5 -->
<g id="edge29" class="edge">
<title>Node17&#45;&gt;Node5</title>
<path fill="none" stroke="midnightblue" d="M362.87,-407.5C313.02,-401.52 237.91,-389.07 220.5,-367 180.48,-316.27 215.46,-232.63 233.87,-196.51"/>
<polygon fill="midnightblue" stroke="midnightblue" points="236.98,-198.13 238.55,-187.65 230.79,-194.86 236.98,-198.13"/>
</g>
<!-- Node17&#45;&gt;Node7 -->
<g id="edge30" class="edge">
<title>Node17&#45;&gt;Node7</title>
<path fill="none" stroke="midnightblue" d="M454.01,-404.45C475.91,-398.27 500.23,-387.12 513.5,-367 573.25,-276.39 527.86,-134.71 508.84,-84.98"/>
<polygon fill="midnightblue" stroke="midnightblue" points="512.06,-83.59 505.13,-75.58 505.55,-86.16 512.06,-83.59"/>
</g>
<!-- Node17&#45;&gt;Node12 -->
<g id="edge31" class="edge">
<title>Node17&#45;&gt;Node12</title>
<path fill="none" stroke="midnightblue" d="M391.97,-403.42C379.17,-395.77 362.35,-383.27 354.5,-367 336.64,-329.97 342.33,-280.02 347.34,-253.44"/>
<polygon fill="midnightblue" stroke="midnightblue" points="350.78,-254.09 349.38,-243.59 343.93,-252.68 350.78,-254.09"/>
</g>
<!-- Node17&#45;&gt;Node13 -->
<g id="edge34" class="edge">
<title>Node17&#45;&gt;Node13</title>
<path fill="none" stroke="midnightblue" d="M444.35,-403.4C463.38,-396.81 485.13,-385.59 496.5,-367 503.69,-355.25 503.58,-347.82 496.5,-336 487.35,-320.72 471.04,-310.33 455.21,-303.43"/>
<polygon fill="midnightblue" stroke="midnightblue" points="456.07,-300 445.49,-299.56 453.49,-306.51 456.07,-300"/>
</g>
<!-- Node18 -->
<g id="node18" class="node">
<title>Node18</title>
<g id="a_node18"><a xlink:href="____kernel__object__impl_8h.html" target="_top" xlink:title="Low&#45;level kernel debugger functions.">
<polygon fill="white" stroke="black" points="363.5,-336.5 363.5,-366.5 487.5,-366.5 487.5,-336.5 363.5,-336.5"/>
<text text-anchor="start" x="371.5" y="-354.5" font-family="Helvetica,sans-Serif" font-size="10.00">l4/sys/__kernel_object</text>
<text text-anchor="middle" x="425.5" y="-343.5" font-family="Helvetica,sans-Serif" font-size="10.00">_impl.h</text>
</a>
</g>
</g>
<!-- Node17&#45;&gt;Node18 -->
<g id="edge32" class="edge">
<title>Node17&#45;&gt;Node18</title>
<path fill="none" stroke="midnightblue" d="M410.94,-403.48C412.96,-396.4 415.94,-385.97 418.67,-376.39"/>
<polygon fill="midnightblue" stroke="midnightblue" points="422.11,-377.1 421.49,-366.52 415.38,-375.18 422.11,-377.1"/>
</g>
<!-- Node18&#45;&gt;Node13 -->
<g id="edge33" class="edge">
<title>Node18&#45;&gt;Node13</title>
<path fill="none" stroke="midnightblue" d="M422.42,-336.4C420.67,-328.38 418.45,-318.23 416.56,-309.57"/>
<polygon fill="midnightblue" stroke="midnightblue" points="419.95,-308.68 414.39,-299.66 413.11,-310.17 419.95,-308.68"/>
</g>
<!-- Node20 -->
<g id="node20" class="node">
<title>Node20</title>
<g id="a_node20"><a xlink:href="types.html" target="_top" xlink:title=" ">
<polygon fill="white" stroke="black" points="733.5,-342 733.5,-361 797.5,-361 797.5,-342 733.5,-342"/>
<text text-anchor="middle" x="765.5" y="-349" font-family="Helvetica,sans-Serif" font-size="10.00">cxx/types</text>
</a>
</g>
</g>
<!-- Node19&#45;&gt;Node20 -->
<g id="edge37" class="edge">
<title>Node19&#45;&gt;Node20</title>
<path fill="none" stroke="midnightblue" d="M491.36,-459.36C514.62,-450.75 550.87,-436.86 581.5,-423 599.25,-414.97 602.59,-410.67 620.5,-403 656.01,-387.8 697.78,-373.62 727.35,-364.19"/>
<polygon fill="midnightblue" stroke="midnightblue" points="728.78,-367.4 737.26,-361.05 726.67,-360.73 728.78,-367.4"/>
</g>
<!-- Node21 -->
<g id="node21" class="node">
<title>Node21</title>
<g id="a_node21"><a xlink:href="ipc__basics_source.html" target="_top" xlink:title=" ">
<polygon fill="white" stroke="black" points="629,-403.5 629,-422.5 716,-422.5 716,-403.5 629,-403.5"/>
<text text-anchor="middle" x="672.5" y="-410.5" font-family="Helvetica,sans-Serif" font-size="10.00">cxx/ipc_basics</text>
</a>
</g>
</g>
<!-- Node19&#45;&gt;Node21 -->
<g id="edge38" class="edge">
<title>Node19&#45;&gt;Node21</title>
<path fill="none" stroke="midnightblue" d="M499.98,-459.44C535.22,-450.16 591.6,-435.31 630.26,-425.13"/>
<polygon fill="midnightblue" stroke="midnightblue" points="631.39,-428.45 640.17,-422.52 629.61,-421.68 631.39,-428.45"/>
</g>
<!-- Node22 -->
<g id="node22" class="node">
<title>Node22</title>
<g id="a_node22"><a xlink:href="capability_8h_source.html" target="_top" xlink:title=" ">
<polygon fill="white" stroke="black" points="480.5,-403.5 480.5,-422.5 572.5,-422.5 572.5,-403.5 480.5,-403.5"/>
<text text-anchor="middle" x="526.5" y="-410.5" font-family="Helvetica,sans-Serif" font-size="10.00">cxx/capability.h</text>
</a>
</g>
</g>
<!-- Node19&#45;&gt;Node22 -->
<g id="edge42" class="edge">
<title>Node19&#45;&gt;Node22</title>
<path fill="none" stroke="midnightblue" d="M476.98,-459.32C485.7,-451.34 498.84,-439.31 509.4,-429.65"/>
<polygon fill="midnightblue" stroke="midnightblue" points="511.83,-432.17 516.85,-422.83 507.11,-427 511.83,-432.17"/>
</g>
<!-- Node21&#45;&gt;Node12 -->
<g id="edge40" class="edge">
<title>Node21&#45;&gt;Node12</title>
<path fill="none" stroke="midnightblue" d="M659.73,-403.29C626.9,-381.12 536.55,-321.34 456.5,-280 432.62,-267.67 404.59,-255.78 383.5,-247.32"/>
<polygon fill="midnightblue" stroke="midnightblue" points="384.64,-244.01 374.05,-243.57 382.06,-250.51 384.64,-244.01"/>
</g>
<!-- Node21&#45;&gt;Node14 -->
<g id="edge41" class="edge">
<title>Node21&#45;&gt;Node14</title>
<path fill="none" stroke="midnightblue" d="M674.52,-403.42C676.57,-394.41 679.7,-379.78 681.5,-367 687.16,-326.92 690.24,-279.54 691.61,-253.86"/>
<polygon fill="midnightblue" stroke="midnightblue" points="695.11,-253.85 692.12,-243.69 688.12,-253.5 695.11,-253.85"/>
</g>
<!-- Node21&#45;&gt;Node20 -->
<g id="edge39" class="edge">
<title>Node21&#45;&gt;Node20</title>
<path fill="none" stroke="midnightblue" d="M685.82,-403.48C700.88,-393.84 725.62,-378.02 743.54,-366.55"/>
<polygon fill="midnightblue" stroke="midnightblue" points="745.66,-369.35 752.2,-361.01 741.89,-363.45 745.66,-369.35"/>
</g>
<!-- Node22&#45;&gt;Node4 -->
<g id="edge45" class="edge">
<title>Node22&#45;&gt;Node4</title>
<path fill="none" stroke="midnightblue" d="M489.53,-403.48C443.65,-392.89 365.35,-374.84 315.32,-363.3"/>
<polygon fill="midnightblue" stroke="midnightblue" points="315.93,-359.85 305.4,-361.01 314.35,-366.67 315.93,-359.85"/>
</g>
<!-- Node22&#45;&gt;Node5 -->
<g id="edge44" class="edge">
<title>Node22&#45;&gt;Node5</title>
<path fill="none" stroke="midnightblue" d="M538.04,-403.49C547.98,-395.38 561.62,-382.18 567.5,-367 572.48,-354.15 574,-348.15 567.5,-336 525.16,-256.88 480.9,-261.77 399.5,-224 366.28,-208.58 326.59,-197.22 295.56,-189.77"/>
<polygon fill="midnightblue" stroke="midnightblue" points="296.34,-186.36 285.81,-187.49 294.75,-193.18 296.34,-186.36"/>
</g>
<!-- Node22&#45;&gt;Node9 -->
<g id="edge43" class="edge">
<title>Node22&#45;&gt;Node9</title>
<path fill="none" stroke="midnightblue" d="M544.58,-403.39C558.06,-395.87 575.47,-383.57 583.5,-367 601.82,-329.19 577.74,-308.1 546.5,-280 464.09,-205.88 340.31,-156.24 279.63,-134.89"/>
<polygon fill="midnightblue" stroke="midnightblue" points="280.7,-131.56 270.11,-131.59 278.41,-138.17 280.7,-131.56"/>
</g>
<!-- Node23&#45;&gt;Node16 -->
<g id="edge48" class="edge">
<title>Node23&#45;&gt;Node16</title>
<path fill="none" stroke="midnightblue" d="M464.09,-627.37C452.75,-609.3 426.33,-567.18 411.36,-543.31"/>
<polygon fill="midnightblue" stroke="midnightblue" points="414.17,-541.2 405.89,-534.59 408.24,-544.92 414.17,-541.2"/>
</g>
<!-- Node24 -->
<g id="node24" class="node">
<title>Node24</title>
<g id="a_node24"><a xlink:href="ipc__iface.html" target="_top" xlink:title="Interface Definition Language.">
<polygon fill="white" stroke="black" points="477.5,-515.5 477.5,-534.5 557.5,-534.5 557.5,-515.5 477.5,-515.5"/>
<text text-anchor="middle" x="517.5" y="-522.5" font-family="Helvetica,sans-Serif" font-size="10.00">cxx/ipc_iface</text>
</a>
</g>
</g>
<!-- Node23&#45;&gt;Node24 -->
<g id="edge49" class="edge">
<title>Node23&#45;&gt;Node24</title>
<path fill="none" stroke="midnightblue" d="M473.27,-627.37C481.08,-609.46 499.21,-567.92 509.67,-543.95"/>
<polygon fill="midnightblue" stroke="midnightblue" points="512.96,-545.16 513.75,-534.59 506.54,-542.36 512.96,-545.16"/>
</g>
<!-- Node26 -->
<g id="node26" class="node">
<title>Node26</title>
<g id="a_node26"><a xlink:href="ipc__string_source.html" target="_top" xlink:title=" ">
<polygon fill="white" stroke="black" points="693.5,-571.5 693.5,-590.5 777.5,-590.5 777.5,-571.5 693.5,-571.5"/>
<text text-anchor="middle" x="735.5" y="-578.5" font-family="Helvetica,sans-Serif" font-size="10.00">cxx/ipc_string</text>
</a>
</g>
</g>
<!-- Node23&#45;&gt;Node26 -->
<g id="edge56" class="edge">
<title>Node23&#45;&gt;Node26</title>
<path fill="none" stroke="midnightblue" d="M506.77,-628.43C552.74,-619.1 631.19,-603.18 683.19,-592.62"/>
<polygon fill="midnightblue" stroke="midnightblue" points="684.12,-596 693.22,-590.58 682.72,-589.14 684.12,-596"/>
</g>
<!-- Node24&#45;&gt;Node19 -->
<g id="edge55" class="edge">
<title>Node24&#45;&gt;Node19</title>
<path fill="none" stroke="midnightblue" d="M509.24,-515.08C502.04,-507.3 491.39,-495.8 482.65,-486.37"/>
<polygon fill="midnightblue" stroke="midnightblue" points="484.97,-483.71 475.6,-478.75 479.83,-488.47 484.97,-483.71"/>
</g>
<!-- Node24&#45;&gt;Node21 -->
<g id="edge50" class="edge">
<title>Node24&#45;&gt;Node21</title>
<path fill="none" stroke="midnightblue" d="M520.33,-515.16C525.18,-501.33 536.36,-474.55 554.5,-459 573.28,-442.9 598.42,-432.25 620.67,-425.38"/>
<polygon fill="midnightblue" stroke="midnightblue" points="621.7,-428.72 630.33,-422.57 619.75,-422 621.7,-428.72"/>
</g>
<!-- Node25 -->
<g id="node25" class="node">
<title>Node25</title>
<g id="a_node25"><a xlink:href="ipc__types.html" target="_top" xlink:title=" ">
<polygon fill="white" stroke="black" points="563,-459.5 563,-478.5 678,-478.5 678,-459.5 563,-459.5"/>
<text text-anchor="middle" x="620.5" y="-466.5" font-family="Helvetica,sans-Serif" font-size="10.00">l4/sys/cxx/ipc_types</text>
</a>
</g>
</g>
<!-- Node24&#45;&gt;Node25 -->
<g id="edge51" class="edge">
<title>Node24&#45;&gt;Node25</title>
<path fill="none" stroke="midnightblue" d="M534.05,-515.32C550.49,-506.7 575.93,-493.36 594.97,-483.39"/>
<polygon fill="midnightblue" stroke="midnightblue" points="596.76,-486.4 603.99,-478.65 593.51,-480.2 596.76,-486.4"/>
</g>
<!-- Node25&#45;&gt;Node20 -->
<g id="edge53" class="edge">
<title>Node25&#45;&gt;Node20</title>
<path fill="none" stroke="midnightblue" d="M654.83,-459.46C677.02,-452.56 705.4,-440.98 725.5,-423 741.52,-408.67 752.66,-386.34 759.05,-370.66"/>
<polygon fill="midnightblue" stroke="midnightblue" points="762.42,-371.64 762.71,-361.05 755.88,-369.15 762.42,-371.64"/>
</g>
<!-- Node25&#45;&gt;Node21 -->
<g id="edge54" class="edge">
<title>Node25&#45;&gt;Node21</title>
<path fill="none" stroke="midnightblue" d="M629.09,-459.08C636.66,-451.22 647.88,-439.57 657.01,-430.08"/>
<polygon fill="midnightblue" stroke="midnightblue" points="659.66,-432.38 664.07,-422.75 654.62,-427.53 659.66,-432.38"/>
</g>
<!-- Node25&#45;&gt;Node22 -->
<g id="edge52" class="edge">
<title>Node25&#45;&gt;Node22</title>
<path fill="none" stroke="midnightblue" d="M605.4,-459.32C590.6,-450.82 567.81,-437.73 550.52,-427.8"/>
<polygon fill="midnightblue" stroke="midnightblue" points="551.98,-424.6 541.57,-422.65 548.49,-430.67 551.98,-424.6"/>
</g>
<!-- Node26&#45;&gt;Node20 -->
<g id="edge57" class="edge">
<title>Node26&#45;&gt;Node20</title>
<path fill="none" stroke="midnightblue" d="M759.97,-571.44C776.07,-564.38 795.88,-552.63 805.5,-535 835.63,-479.81 797.19,-403.55 776.75,-369.78"/>
<polygon fill="midnightblue" stroke="midnightblue" points="779.58,-367.7 771.31,-361.08 773.65,-371.42 779.58,-367.7"/>
</g>
<!-- Node26&#45;&gt;Node21 -->
<g id="edge58" class="edge">
<title>Node26&#45;&gt;Node21</title>
<path fill="none" stroke="midnightblue" d="M732.11,-571.08C722.15,-544.83 692.82,-467.55 679.38,-432.12"/>
<polygon fill="midnightblue" stroke="midnightblue" points="682.57,-430.68 675.75,-422.57 676.03,-433.16 682.57,-430.68"/>
</g>
<!-- Node27 -->
<g id="node27" class="node">
<title>Node27</title>
<g id="a_node27"><a xlink:href="ipc__array_source.html" target="_top" xlink:title=" ">
<polygon fill="white" stroke="black" points="734.5,-515.5 734.5,-534.5 796.5,-534.5 796.5,-515.5 734.5,-515.5"/>
<text text-anchor="middle" x="765.5" y="-522.5" font-family="Helvetica,sans-Serif" font-size="10.00">ipc_array</text>
</a>
</g>
</g>
<!-- Node26&#45;&gt;Node27 -->
<g id="edge59" class="edge">
<title>Node26&#45;&gt;Node27</title>
<path fill="none" stroke="midnightblue" d="M740.45,-571.08C744.6,-563.61 750.65,-552.72 755.77,-543.52"/>
<polygon fill="midnightblue" stroke="midnightblue" points="758.84,-545.19 760.64,-534.75 752.72,-541.79 758.84,-545.19"/>
</g>
<!-- Node27&#45;&gt;Node20 -->
<g id="edge60" class="edge">
<title>Node27&#45;&gt;Node20</title>
<path fill="none" stroke="midnightblue" d="M765.5,-515.26C765.5,-488.65 765.5,-408.21 765.5,-371.34"/>
<polygon fill="midnightblue" stroke="midnightblue" points="769,-371.02 765.5,-361.02 762,-371.02 769,-371.02"/>
</g>
<!-- Node27&#45;&gt;Node21 -->
<g id="edge61" class="edge">
<title>Node27&#45;&gt;Node21</title>
<path fill="none" stroke="midnightblue" d="M760.22,-515.16C752.33,-502.24 736.63,-477.71 720.5,-459 711.38,-448.43 700.03,-437.7 690.66,-429.36"/>
<polygon fill="midnightblue" stroke="midnightblue" points="692.88,-426.65 683.04,-422.73 688.28,-431.93 692.88,-426.65"/>
</g>
<!-- Node27&#45;&gt;Node25 -->
<g id="edge62" class="edge">
<title>Node27&#45;&gt;Node25</title>
<path fill="none" stroke="midnightblue" d="M742.52,-515.44C718.34,-506.44 680.08,-492.19 652.85,-482.05"/>
<polygon fill="midnightblue" stroke="midnightblue" points="653.96,-478.73 643.37,-478.52 651.52,-485.29 653.96,-478.73"/>
</g>
</g>
</svg>
