<?xml version="1.0" encoding="UTF-8" standalone="no"?>
<!DOCTYPE svg PUBLIC "-//W3C//DTD SVG 1.1//EN"
 "http://www.w3.org/Graphics/SVG/1.1/DTD/svg11.dtd">
<!-- Generated by graphviz version 2.43.0 (0)
 -->
<!-- Title: l4/sys/thread.h Pages: 1 -->
<svg width="849pt" height="464pt"
 viewBox="0.00 0.00 848.50 464.00" xmlns="http://www.w3.org/2000/svg" xmlns:xlink="http://www.w3.org/1999/xlink">
<g id="graph0" class="graph" transform="scale(1 1) rotate(0) translate(4 460)">
<title>l4/sys/thread.h</title>
<polygon fill="white" stroke="transparent" points="-4,4 -4,-460 844.5,-460 844.5,4 -4,4"/>
<!-- Node1 -->
<g id="node1" class="node">
<title>Node1</title>
<g id="a_node1"><a xlink:title="Common thread related definitions.">
<polygon fill="#bfbfbf" stroke="black" points="444,-436.5 444,-455.5 533,-455.5 533,-436.5 444,-436.5"/>
<text text-anchor="middle" x="488.5" y="-443.5" font-family="Helvetica,sans-Serif" font-size="10.00">l4/sys/thread.h</text>
</a>
</g>
</g>
<!-- Node2 -->
<g id="node2" class="node">
<title>Node2</title>
<g id="a_node2"><a xlink:href="lock_8h.html" target="_top" xlink:title="Simple lock implementation.">
<polygon fill="white" stroke="black" points="271,-380.5 271,-399.5 348,-399.5 348,-380.5 271,-380.5"/>
<text text-anchor="middle" x="309.5" y="-387.5" font-family="Helvetica,sans-Serif" font-size="10.00">l4/util/lock.h</text>
</a>
</g>
</g>
<!-- Node1&#45;&gt;Node2 -->
<g id="edge1" class="edge">
<title>Node1&#45;&gt;Node2</title>
<path fill="none" stroke="midnightblue" d="M450.17,-433.44C416.42,-423.26 368.05,-408.66 337.73,-399.52"/>
<polygon fill="midnightblue" stroke="midnightblue" points="449.55,-436.91 460.14,-436.44 451.57,-430.2 449.55,-436.91"/>
</g>
<!-- Node3 -->
<g id="node3" class="node">
<title>Node3</title>
<g id="a_node3"><a xlink:href="sys_2assert_8h.html" target="_top" xlink:title="Low&#45;level assert implementation.">
<polygon fill="white" stroke="black" points="366,-380.5 366,-399.5 453,-399.5 453,-380.5 366,-380.5"/>
<text text-anchor="middle" x="409.5" y="-387.5" font-family="Helvetica,sans-Serif" font-size="10.00">l4/sys/assert.h</text>
</a>
</g>
</g>
<!-- Node1&#45;&gt;Node3 -->
<g id="edge2" class="edge">
<title>Node1&#45;&gt;Node3</title>
<path fill="none" stroke="midnightblue" d="M467.47,-430.62C453.03,-420.76 434.36,-407.99 422.16,-399.65"/>
<polygon fill="midnightblue" stroke="midnightblue" points="465.58,-433.57 475.81,-436.32 469.53,-427.79 465.58,-433.57"/>
</g>
<!-- Node20 -->
<g id="node20" class="node">
<title>Node20</title>
<g id="a_node20"><a xlink:href="sys_2thread.html" target="_top" xlink:title="Common thread related definitions.">
<polygon fill="white" stroke="black" points="599.5,-252 599.5,-271 679.5,-271 679.5,-252 599.5,-252"/>
<text text-anchor="middle" x="639.5" y="-259" font-family="Helvetica,sans-Serif" font-size="10.00">l4/sys/thread</text>
</a>
</g>
</g>
<!-- Node1&#45;&gt;Node20 -->
<g id="edge26" class="edge">
<title>Node1&#45;&gt;Node20</title>
<path fill="none" stroke="midnightblue" d="M491.48,-426.27C494.29,-412.63 499.45,-394.14 508.5,-380 540.44,-330.07 599.2,-288.34 625.79,-271.05"/>
<polygon fill="midnightblue" stroke="midnightblue" points="487.99,-425.92 489.64,-436.38 494.87,-427.17 487.99,-425.92"/>
</g>
<!-- Node21 -->
<g id="node21" class="node">
<title>Node21</title>
<g id="a_node21"><a xlink:href="amd64_2l4_2sys_2segment_8h.html" target="_top" xlink:title="Segment handling.">
<polygon fill="white" stroke="black" points="517,-380.5 517,-399.5 654,-399.5 654,-380.5 517,-380.5"/>
<text text-anchor="middle" x="585.5" y="-387.5" font-family="Helvetica,sans-Serif" font-size="10.00">amd64/l4/sys/segment.h</text>
</a>
</g>
</g>
<!-- Node1&#45;&gt;Node21 -->
<g id="edge28" class="edge">
<title>Node1&#45;&gt;Node21</title>
<path fill="none" stroke="midnightblue" d="M512.84,-431.45C530.74,-421.48 554.55,-408.23 569.95,-399.65"/>
<polygon fill="midnightblue" stroke="midnightblue" points="511.12,-428.4 504.08,-436.32 514.52,-434.52 511.12,-428.4"/>
</g>
<!-- Node22 -->
<g id="node22" class="node">
<title>Node22</title>
<g id="a_node22"><a xlink:href="x86_2l4_2sys_2segment_8h.html" target="_top" xlink:title="Segment handling.">
<polygon fill="white" stroke="black" points="672,-380.5 672,-399.5 793,-399.5 793,-380.5 672,-380.5"/>
<text text-anchor="middle" x="732.5" y="-387.5" font-family="Helvetica,sans-Serif" font-size="10.00">x86/l4/sys/segment.h</text>
</a>
</g>
</g>
<!-- Node1&#45;&gt;Node22 -->
<g id="edge29" class="edge">
<title>Node1&#45;&gt;Node22</title>
<path fill="none" stroke="midnightblue" d="M536.93,-434.28C583.04,-424.08 651.53,-408.92 694.02,-399.52"/>
<polygon fill="midnightblue" stroke="midnightblue" points="536.17,-430.87 527.16,-436.44 537.68,-437.7 536.17,-430.87"/>
</g>
<!-- Node4 -->
<g id="node4" class="node">
<title>Node4</title>
<g id="a_node4"><a xlink:href="namespace__impl_8h.html" target="_top" xlink:title="Namespace client stub implementation.">
<polygon fill="white" stroke="black" points="179.5,-313.5 179.5,-343.5 301.5,-343.5 301.5,-313.5 179.5,-313.5"/>
<text text-anchor="start" x="187.5" y="-331.5" font-family="Helvetica,sans-Serif" font-size="10.00">l4/re/impl/namespace</text>
<text text-anchor="middle" x="240.5" y="-320.5" font-family="Helvetica,sans-Serif" font-size="10.00">_impl.h</text>
</a>
</g>
</g>
<!-- Node3&#45;&gt;Node4 -->
<g id="edge3" class="edge">
<title>Node3&#45;&gt;Node4</title>
<path fill="none" stroke="midnightblue" d="M375.71,-377.1C348.21,-367.42 309.34,-353.74 280.33,-343.52"/>
<polygon fill="midnightblue" stroke="midnightblue" points="374.69,-380.46 385.29,-380.48 377.02,-373.85 374.69,-380.46"/>
</g>
<!-- Node5 -->
<g id="node5" class="node">
<title>Node5</title>
<g id="a_node5"><a xlink:href="br__manager_source.html" target="_top" xlink:title=" ">
<polygon fill="white" stroke="black" points="0,-134.5 0,-153.5 119,-153.5 119,-134.5 0,-134.5"/>
<text text-anchor="middle" x="59.5" y="-141.5" font-family="Helvetica,sans-Serif" font-size="10.00">l4/re/util/br_manager</text>
</a>
</g>
</g>
<!-- Node3&#45;&gt;Node5 -->
<g id="edge4" class="edge">
<title>Node3&#45;&gt;Node5</title>
<path fill="none" stroke="midnightblue" d="M389.69,-374.36C377.95,-365.63 362.8,-354.27 349.5,-344 331.97,-330.47 328.38,-326.06 310.5,-313 222.2,-248.52 111.24,-177.63 73.1,-153.55"/>
<polygon fill="midnightblue" stroke="midnightblue" points="387.81,-377.32 397.92,-380.47 391.98,-371.7 387.81,-377.32"/>
</g>
<!-- Node6 -->
<g id="node6" class="node">
<title>Node6</title>
<g id="a_node6"><a xlink:href="counting__cap__alloc.html" target="_top" xlink:title="Reference&#45;counting capability allocator.">
<polygon fill="white" stroke="black" points="358.5,-313.5 358.5,-343.5 460.5,-343.5 460.5,-313.5 358.5,-313.5"/>
<text text-anchor="start" x="366.5" y="-331.5" font-family="Helvetica,sans-Serif" font-size="10.00">l4/re/util/counting</text>
<text text-anchor="middle" x="409.5" y="-320.5" font-family="Helvetica,sans-Serif" font-size="10.00">_cap_alloc</text>
</a>
</g>
</g>
<!-- Node3&#45;&gt;Node6 -->
<g id="edge5" class="edge">
<title>Node3&#45;&gt;Node6</title>
<path fill="none" stroke="midnightblue" d="M409.5,-370.23C409.5,-361.59 409.5,-351.5 409.5,-343.52"/>
<polygon fill="midnightblue" stroke="midnightblue" points="406,-370.48 409.5,-380.48 413,-370.48 406,-370.48"/>
</g>
<!-- Node7 -->
<g id="node7" class="node">
<title>Node7</title>
<g id="a_node7"><a xlink:href="cap__alloc__impl_8h.html" target="_top" xlink:title="Capability allocator implementation.">
<polygon fill="white" stroke="black" points="357.5,-246.5 357.5,-276.5 463.5,-276.5 463.5,-246.5 357.5,-246.5"/>
<text text-anchor="start" x="365.5" y="-264.5" font-family="Helvetica,sans-Serif" font-size="10.00">l4/re/util/cap_alloc</text>
<text text-anchor="middle" x="410.5" y="-253.5" font-family="Helvetica,sans-Serif" font-size="10.00">_impl.h</text>
</a>
</g>
</g>
<!-- Node6&#45;&gt;Node7 -->
<g id="edge6" class="edge">
<title>Node6&#45;&gt;Node7</title>
<path fill="none" stroke="midnightblue" d="M409.88,-303.11C410.01,-294.15 410.16,-284.32 410.28,-276.58"/>
<polygon fill="midnightblue" stroke="midnightblue" points="406.37,-303.34 409.72,-313.4 413.37,-303.45 406.37,-303.34"/>
</g>
<!-- Node8 -->
<g id="node8" class="node">
<title>Node8</title>
<g id="a_node8"><a xlink:href="util_2cap__alloc.html" target="_top" xlink:title="Capability allocator.">
<polygon fill="white" stroke="black" points="357.5,-190.5 357.5,-209.5 463.5,-209.5 463.5,-190.5 357.5,-190.5"/>
<text text-anchor="middle" x="410.5" y="-197.5" font-family="Helvetica,sans-Serif" font-size="10.00">l4/re/util/cap_alloc</text>
</a>
</g>
</g>
<!-- Node7&#45;&gt;Node8 -->
<g id="edge7" class="edge">
<title>Node7&#45;&gt;Node8</title>
<path fill="none" stroke="midnightblue" d="M410.5,-236.29C410.5,-226.86 410.5,-216.65 410.5,-209.66"/>
<polygon fill="midnightblue" stroke="midnightblue" points="407,-236.4 410.5,-246.4 414,-236.4 407,-236.4"/>
</g>
<!-- Node8&#45;&gt;Node5 -->
<g id="edge10" class="edge">
<title>Node8&#45;&gt;Node5</title>
<path fill="none" stroke="midnightblue" d="M347.29,-189.27C281.01,-179.08 177.89,-163.21 114.76,-153.5"/>
<polygon fill="midnightblue" stroke="midnightblue" points="346.77,-192.74 357.19,-190.8 347.84,-185.82 346.77,-192.74"/>
</g>
<!-- Node9 -->
<g id="node9" class="node">
<title>Node9</title>
<g id="a_node9"><a xlink:href="server_2l4virtio_source.html" target="_top" xlink:title=" ">
<polygon fill="white" stroke="black" points="158,-67.5 158,-97.5 255,-97.5 255,-67.5 158,-67.5"/>
<text text-anchor="start" x="166" y="-85.5" font-family="Helvetica,sans-Serif" font-size="10.00">l4/l4virtio/server</text>
<text text-anchor="middle" x="206.5" y="-74.5" font-family="Helvetica,sans-Serif" font-size="10.00">/l4virtio</text>
</a>
</g>
</g>
<!-- Node8&#45;&gt;Node9 -->
<g id="edge8" class="edge">
<title>Node8&#45;&gt;Node9</title>
<path fill="none" stroke="midnightblue" d="M347.35,-189.4C277.02,-178.4 172.33,-161 166.5,-154 151.82,-136.37 172.05,-112.61 188.69,-97.67"/>
<polygon fill="midnightblue" stroke="midnightblue" points="347.05,-192.89 357.47,-190.97 348.12,-185.98 347.05,-192.89"/>
</g>
<!-- Node11 -->
<g id="node11" class="node">
<title>Node11</title>
<g id="a_node11"><a xlink:href="env__ns_source.html" target="_top" xlink:title=" ">
<polygon fill="white" stroke="black" points="520,-134.5 520,-153.5 615,-153.5 615,-134.5 520,-134.5"/>
<text text-anchor="middle" x="567.5" y="-141.5" font-family="Helvetica,sans-Serif" font-size="10.00">l4/re/util/env_ns</text>
</a>
</g>
</g>
<!-- Node8&#45;&gt;Node11 -->
<g id="edge11" class="edge">
<title>Node8&#45;&gt;Node11</title>
<path fill="none" stroke="midnightblue" d="M444.89,-187.17C474.45,-177 516.37,-162.59 542.74,-153.52"/>
<polygon fill="midnightblue" stroke="midnightblue" points="443.7,-183.88 435.38,-190.44 445.97,-190.5 443.7,-183.88"/>
</g>
<!-- Node13 -->
<g id="node13" class="node">
<title>Node13</title>
<g id="a_node13"><a xlink:href="util_2event.html" target="_top" xlink:title=" ">
<polygon fill="white" stroke="black" points="349.5,-73 349.5,-92 437.5,-92 437.5,-73 349.5,-73"/>
<text text-anchor="middle" x="393.5" y="-80" font-family="Helvetica,sans-Serif" font-size="10.00">l4/re/util/event</text>
</a>
</g>
</g>
<!-- Node8&#45;&gt;Node13 -->
<g id="edge13" class="edge">
<title>Node8&#45;&gt;Node13</title>
<path fill="none" stroke="midnightblue" d="M423.72,-181.73C432.06,-168.65 440.26,-150.24 434.5,-134 428.46,-116.97 413.95,-101.5 403.92,-92.29"/>
<polygon fill="midnightblue" stroke="midnightblue" points="420.67,-179.99 417.82,-190.19 426.41,-183.99 420.67,-179.99"/>
</g>
<!-- Node14 -->
<g id="node14" class="node">
<title>Node14</title>
<g id="a_node14"><a xlink:href="icu__svr_source.html" target="_top" xlink:title=" ">
<polygon fill="white" stroke="black" points="633,-134.5 633,-153.5 728,-153.5 728,-134.5 633,-134.5"/>
<text text-anchor="middle" x="680.5" y="-141.5" font-family="Helvetica,sans-Serif" font-size="10.00">l4/re/util/icu_svr</text>
</a>
</g>
</g>
<!-- Node8&#45;&gt;Node14 -->
<g id="edge14" class="edge">
<title>Node8&#45;&gt;Node14</title>
<path fill="none" stroke="midnightblue" d="M463.13,-188.47C514.16,-178.27 590.6,-162.98 637.92,-153.52"/>
<polygon fill="midnightblue" stroke="midnightblue" points="462.4,-185.05 453.28,-190.44 463.77,-191.91 462.4,-185.05"/>
</g>
<!-- Node16 -->
<g id="node16" class="node">
<title>Node16</title>
<g id="a_node16"><a xlink:href="object__registry_source.html" target="_top" xlink:title=" ">
<polygon fill="white" stroke="black" points="456,-73 456,-92 589,-92 589,-73 456,-73"/>
<text text-anchor="middle" x="522.5" y="-80" font-family="Helvetica,sans-Serif" font-size="10.00">l4/re/util/object_registry</text>
</a>
</g>
</g>
<!-- Node8&#45;&gt;Node16 -->
<g id="edge16" class="edge">
<title>Node8&#45;&gt;Node16</title>
<path fill="none" stroke="midnightblue" d="M426.19,-182.82C450.2,-158.06 495.24,-111.61 513.98,-92.28"/>
<polygon fill="midnightblue" stroke="midnightblue" points="423.37,-180.7 418.92,-190.32 428.39,-185.58 423.37,-180.7"/>
</g>
<!-- Node18 -->
<g id="node18" class="node">
<title>Node18</title>
<g id="a_node18"><a xlink:href="util_2shared__cap.html" target="_top" xlink:title="Shared_cap / Shared_del_cap.">
<polygon fill="white" stroke="black" points="175.5,-134.5 175.5,-153.5 291.5,-153.5 291.5,-134.5 175.5,-134.5"/>
<text text-anchor="middle" x="233.5" y="-141.5" font-family="Helvetica,sans-Serif" font-size="10.00">l4/re/util/shared_cap</text>
</a>
</g>
</g>
<!-- Node8&#45;&gt;Node18 -->
<g id="edge18" class="edge">
<title>Node8&#45;&gt;Node18</title>
<path fill="none" stroke="midnightblue" d="M372.6,-187.44C339.22,-177.26 291.4,-162.66 261.41,-153.52"/>
<polygon fill="midnightblue" stroke="midnightblue" points="371.87,-190.87 382.45,-190.44 373.91,-184.18 371.87,-190.87"/>
</g>
<!-- Node19 -->
<g id="node19" class="node">
<title>Node19</title>
<g id="a_node19"><a xlink:href="util_2unique__cap.html" target="_top" xlink:title="Unique_cap / Unique_del_cap.">
<polygon fill="white" stroke="black" points="309.5,-134.5 309.5,-153.5 425.5,-153.5 425.5,-134.5 309.5,-134.5"/>
<text text-anchor="middle" x="367.5" y="-141.5" font-family="Helvetica,sans-Serif" font-size="10.00">l4/re/util/unique_cap</text>
</a>
</g>
</g>
<!-- Node8&#45;&gt;Node19 -->
<g id="edge20" class="edge">
<title>Node8&#45;&gt;Node19</title>
<path fill="none" stroke="midnightblue" d="M397.08,-182.14C389.59,-172.74 380.56,-161.4 374.47,-153.75"/>
<polygon fill="midnightblue" stroke="midnightblue" points="394.43,-184.44 403.4,-190.08 399.91,-180.08 394.43,-184.44"/>
</g>
<!-- Node10 -->
<g id="node10" class="node">
<title>Node10</title>
<g id="a_node10"><a xlink:href="server_2virtio-block_source.html" target="_top" xlink:title=" ">
<polygon fill="white" stroke="black" points="197,-0.5 197,-30.5 294,-30.5 294,-0.5 197,-0.5"/>
<text text-anchor="start" x="205" y="-18.5" font-family="Helvetica,sans-Serif" font-size="10.00">l4/l4virtio/server</text>
<text text-anchor="middle" x="245.5" y="-7.5" font-family="Helvetica,sans-Serif" font-size="10.00">/virtio&#45;block</text>
</a>
</g>
</g>
<!-- Node9&#45;&gt;Node10 -->
<g id="edge9" class="edge">
<title>Node9&#45;&gt;Node10</title>
<path fill="none" stroke="midnightblue" d="M220.25,-58.58C225.86,-49.24 232.15,-38.75 237.05,-30.58"/>
<polygon fill="midnightblue" stroke="midnightblue" points="217.11,-57.02 214.96,-67.4 223.11,-60.62 217.11,-57.02"/>
</g>
<!-- Node12 -->
<g id="node12" class="node">
<title>Node12</title>
<g id="a_node12"><a xlink:href="ns__fs__impl_8h_source.html" target="_top" xlink:title=" ">
<polygon fill="white" stroke="black" points="607,-67.5 607,-97.5 714,-97.5 714,-67.5 607,-67.5"/>
<text text-anchor="start" x="615" y="-85.5" font-family="Helvetica,sans-Serif" font-size="10.00">l4/l4re_vfs/impl/ns</text>
<text text-anchor="middle" x="660.5" y="-74.5" font-family="Helvetica,sans-Serif" font-size="10.00">_fs_impl.h</text>
</a>
</g>
</g>
<!-- Node11&#45;&gt;Node12 -->
<g id="edge12" class="edge">
<title>Node11&#45;&gt;Node12</title>
<path fill="none" stroke="midnightblue" d="M589.37,-129.01C604.2,-119.52 623.74,-107.02 638.58,-97.52"/>
<polygon fill="midnightblue" stroke="midnightblue" points="587.36,-126.14 580.82,-134.48 591.13,-132.03 587.36,-126.14"/>
</g>
<!-- Node15 -->
<g id="node15" class="node">
<title>Node15</title>
<g id="a_node15"><a xlink:href="event__svr_source.html" target="_top" xlink:title=" ">
<polygon fill="white" stroke="black" points="732.5,-73 732.5,-92 840.5,-92 840.5,-73 732.5,-73"/>
<text text-anchor="middle" x="786.5" y="-80" font-family="Helvetica,sans-Serif" font-size="10.00">l4/re/util/event_svr</text>
</a>
</g>
</g>
<!-- Node14&#45;&gt;Node15 -->
<g id="edge15" class="edge">
<title>Node14&#45;&gt;Node15</title>
<path fill="none" stroke="midnightblue" d="M704.45,-129.56C724.96,-118.04 753.88,-101.81 771.34,-92.01"/>
<polygon fill="midnightblue" stroke="midnightblue" points="702.69,-126.53 695.69,-134.48 706.12,-132.63 702.69,-126.53"/>
</g>
<!-- Node17 -->
<g id="node17" class="node">
<title>Node17</title>
<g id="a_node17"><a xlink:href="client_2virtio-block_source.html" target="_top" xlink:title=" ">
<polygon fill="white" stroke="black" points="313,-0.5 313,-30.5 406,-30.5 406,-0.5 313,-0.5"/>
<text text-anchor="start" x="321" y="-18.5" font-family="Helvetica,sans-Serif" font-size="10.00">l4/l4virtio/client</text>
<text text-anchor="middle" x="359.5" y="-7.5" font-family="Helvetica,sans-Serif" font-size="10.00">/virtio&#45;block</text>
</a>
</g>
</g>
<!-- Node16&#45;&gt;Node17 -->
<g id="edge17" class="edge">
<title>Node16&#45;&gt;Node17</title>
<path fill="none" stroke="midnightblue" d="M491.3,-69.06C463.69,-58.05 423.43,-41.99 394.68,-30.53"/>
<polygon fill="midnightblue" stroke="midnightblue" points="490.27,-72.42 500.85,-72.87 492.86,-65.91 490.27,-72.42"/>
</g>
<!-- Node18&#45;&gt;Node9 -->
<g id="edge19" class="edge">
<title>Node18&#45;&gt;Node9</title>
<path fill="none" stroke="midnightblue" d="M225.38,-125.1C221.37,-116.27 216.6,-105.77 212.86,-97.52"/>
<polygon fill="midnightblue" stroke="midnightblue" points="222.31,-126.82 229.63,-134.48 228.69,-123.92 222.31,-126.82"/>
</g>
<!-- Node19&#45;&gt;Node9 -->
<g id="edge22" class="edge">
<title>Node19&#45;&gt;Node9</title>
<path fill="none" stroke="midnightblue" d="M334.96,-130.98C308.79,-121.3 271.96,-107.69 244.44,-97.52"/>
<polygon fill="midnightblue" stroke="midnightblue" points="333.84,-134.29 344.43,-134.48 336.27,-127.73 333.84,-134.29"/>
</g>
<!-- Node19&#45;&gt;Node10 -->
<g id="edge23" class="edge">
<title>Node19&#45;&gt;Node10</title>
<path fill="none" stroke="midnightblue" d="M351.86,-126.78C327.85,-101.89 282.28,-54.64 259.38,-30.89"/>
<polygon fill="midnightblue" stroke="midnightblue" points="349.65,-129.54 359.11,-134.31 354.69,-124.68 349.65,-129.54"/>
</g>
<!-- Node19&#45;&gt;Node13 -->
<g id="edge24" class="edge">
<title>Node19&#45;&gt;Node13</title>
<path fill="none" stroke="midnightblue" d="M375.37,-125C380.15,-114.05 386.04,-100.57 389.78,-92.01"/>
<polygon fill="midnightblue" stroke="midnightblue" points="372.02,-123.91 371.23,-134.48 378.44,-126.71 372.02,-123.91"/>
</g>
<!-- Node19&#45;&gt;Node16 -->
<g id="edge25" class="edge">
<title>Node19&#45;&gt;Node16</title>
<path fill="none" stroke="midnightblue" d="M399.33,-130.78C429.45,-119.22 473.88,-102.16 500.33,-92.01"/>
<polygon fill="midnightblue" stroke="midnightblue" points="397.79,-127.62 389.71,-134.48 400.3,-134.16 397.79,-127.62"/>
</g>
<!-- Node19&#45;&gt;Node17 -->
<g id="edge21" class="edge">
<title>Node19&#45;&gt;Node17</title>
<path fill="none" stroke="midnightblue" d="M354.47,-126.23C349.01,-118.17 343.29,-108.08 340.5,-98 334.02,-74.62 344.08,-47.06 351.86,-30.72"/>
<polygon fill="midnightblue" stroke="midnightblue" points="351.65,-128.31 360.35,-134.36 357.32,-124.21 351.65,-128.31"/>
</g>
<!-- Node20&#45;&gt;Node16 -->
<g id="edge27" class="edge">
<title>Node20&#45;&gt;Node16</title>
<path fill="none" stroke="midnightblue" d="M664.05,-246.76C702.59,-223.45 769.76,-174.72 737.5,-134 732.08,-127.16 625.7,-104.52 564.65,-92.01"/>
<polygon fill="midnightblue" stroke="midnightblue" points="662.23,-243.77 655.39,-251.86 665.79,-249.8 662.23,-243.77"/>
</g>
</g>
</svg>
