<?xml version="1.0" encoding="UTF-8" standalone="no"?>
<!DOCTYPE svg PUBLIC "-//W3C//DTD SVG 1.1//EN"
 "http://www.w3.org/Graphics/SVG/1.1/DTD/svg11.dtd">
<!-- Generated by graphviz version 2.43.0 (0)
 -->
<!-- Title: l4/cxx/l4iostream Pages: 1 -->
<svg width="856pt" height="767pt"
 viewBox="0.00 0.00 856.00 767.00" xmlns="http://www.w3.org/2000/svg" xmlns:xlink="http://www.w3.org/1999/xlink">
<g id="graph0" class="graph" transform="scale(1 1) rotate(0) translate(4 763)">
<title>l4/cxx/l4iostream</title>
<polygon fill="white" stroke="transparent" points="-4,4 -4,-763 852,-763 852,4 -4,4"/>
<!-- Node1 -->
<g id="node1" class="node">
<title>Node1</title>
<g id="a_node1"><a xlink:title="L4 IO stream.">
<polygon fill="#bfbfbf" stroke="black" points="97.5,-739.5 97.5,-758.5 198.5,-758.5 198.5,-739.5 97.5,-739.5"/>
<text text-anchor="middle" x="148" y="-746.5" font-family="Helvetica,sans-Serif" font-size="10.00">l4/cxx/l4iostream</text>
</a>
</g>
</g>
<!-- Node2 -->
<g id="node2" class="node">
<title>Node2</title>
<g id="a_node2"><a xlink:href="basic__ostream.html" target="_top" xlink:title="Basic IO stream.">
<polygon fill="white" stroke="black" points="0,-683.5 0,-702.5 120,-702.5 120,-683.5 0,-683.5"/>
<text text-anchor="middle" x="60" y="-690.5" font-family="Helvetica,sans-Serif" font-size="10.00">l4/cxx/basic_ostream</text>
</a>
</g>
</g>
<!-- Node1&#45;&gt;Node2 -->
<g id="edge1" class="edge">
<title>Node1&#45;&gt;Node2</title>
<path fill="none" stroke="midnightblue" d="M133.86,-739.32C120.13,-730.9 99.06,-717.97 82.94,-708.07"/>
<polygon fill="midnightblue" stroke="midnightblue" points="84.46,-704.9 74.1,-702.65 80.8,-710.87 84.46,-704.9"/>
</g>
<!-- Node3 -->
<g id="node3" class="node">
<title>Node3</title>
<g id="a_node3"><a xlink:href="l4_2sys_2types_8h.html" target="_top" xlink:title="Common L4 ABI Data Types.">
<polygon fill="white" stroke="black" points="437,-168.5 437,-187.5 521,-187.5 521,-168.5 437,-168.5"/>
<text text-anchor="middle" x="479" y="-175.5" font-family="Helvetica,sans-Serif" font-size="10.00">l4/sys/types.h</text>
</a>
</g>
</g>
<!-- Node1&#45;&gt;Node3 -->
<g id="edge2" class="edge">
<title>Node1&#45;&gt;Node3</title>
<path fill="none" stroke="midnightblue" d="M148,-739.44C148,-720.94 148,-675.81 148,-638 148,-638 148,-638 148,-412 148,-377.18 145.31,-363.24 167,-336 235.34,-250.17 288.83,-272.99 387,-224 408.85,-213.1 433.73,-200.94 452.1,-192.02"/>
<polygon fill="midnightblue" stroke="midnightblue" points="453.85,-195.06 461.32,-187.54 450.8,-188.76 453.85,-195.06"/>
</g>
<!-- Node10 -->
<g id="node10" class="node">
<title>Node10</title>
<g id="a_node10"><a xlink:href="capability.html" target="_top" xlink:title="L4::Cap related definitions.">
<polygon fill="white" stroke="black" points="528,-683.5 528,-702.5 624,-702.5 624,-683.5 528,-683.5"/>
<text text-anchor="middle" x="576" y="-690.5" font-family="Helvetica,sans-Serif" font-size="10.00">l4/sys/capability</text>
</a>
</g>
</g>
<!-- Node1&#45;&gt;Node10 -->
<g id="edge13" class="edge">
<title>Node1&#45;&gt;Node10</title>
<path fill="none" stroke="midnightblue" d="M198.78,-741.59C278.7,-731.51 433.41,-711.99 517.74,-701.35"/>
<polygon fill="midnightblue" stroke="midnightblue" points="518.43,-704.79 527.92,-700.07 517.56,-697.85 518.43,-704.79"/>
</g>
<!-- Node4 -->
<g id="node4" class="node">
<title>Node4</title>
<g id="a_node4"><a xlink:href="l4_2sys_2l4int_8h.html" target="_top" xlink:title="Fixed sized integer types, generic version.">
<polygon fill="white" stroke="black" points="322.5,-56.5 322.5,-75.5 401.5,-75.5 401.5,-56.5 322.5,-56.5"/>
<text text-anchor="middle" x="362" y="-63.5" font-family="Helvetica,sans-Serif" font-size="10.00">l4/sys/l4int.h</text>
</a>
</g>
</g>
<!-- Node3&#45;&gt;Node4 -->
<g id="edge3" class="edge">
<title>Node3&#45;&gt;Node4</title>
<path fill="none" stroke="midnightblue" d="M464.97,-168.23C451.9,-159.74 432.21,-146.12 417,-132 400.82,-116.99 384.81,-97.38 374.27,-83.64"/>
<polygon fill="midnightblue" stroke="midnightblue" points="377,-81.45 368.19,-75.57 371.41,-85.66 377,-81.45"/>
</g>
<!-- Node5 -->
<g id="node5" class="node">
<title>Node5</title>
<g id="a_node5"><a xlink:href="compiler_8h.html" target="_top" xlink:title="L4 compiler related defines.">
<polygon fill="white" stroke="black" points="657.5,-56.5 657.5,-75.5 756.5,-75.5 756.5,-56.5 657.5,-56.5"/>
<text text-anchor="middle" x="707" y="-63.5" font-family="Helvetica,sans-Serif" font-size="10.00">l4/sys/compiler.h</text>
</a>
</g>
</g>
<!-- Node3&#45;&gt;Node5 -->
<g id="edge4" class="edge">
<title>Node3&#45;&gt;Node5</title>
<path fill="none" stroke="midnightblue" d="M521.11,-176.35C562.48,-173.72 625.54,-164.17 669,-132 684.73,-120.36 695.05,-100.11 700.92,-85.3"/>
<polygon fill="midnightblue" stroke="midnightblue" points="704.29,-86.27 704.41,-75.68 697.71,-83.88 704.29,-86.27"/>
</g>
<!-- Node7 -->
<g id="node7" class="node">
<title>Node7</title>
<g id="a_node7"><a xlink:href="l4_2sys_2consts_8h.html" target="_top" xlink:title="Common constants.">
<polygon fill="white" stroke="black" points="280.5,-112.5 280.5,-131.5 369.5,-131.5 369.5,-112.5 280.5,-112.5"/>
<text text-anchor="middle" x="325" y="-119.5" font-family="Helvetica,sans-Serif" font-size="10.00">l4/sys/consts.h</text>
</a>
</g>
</g>
<!-- Node3&#45;&gt;Node7 -->
<g id="edge6" class="edge">
<title>Node3&#45;&gt;Node7</title>
<path fill="none" stroke="midnightblue" d="M454.6,-168.44C428.8,-159.4 387.92,-145.06 358.98,-134.92"/>
<polygon fill="midnightblue" stroke="midnightblue" points="359.88,-131.52 349.29,-131.52 357.57,-138.13 359.88,-131.52"/>
</g>
<!-- Node8 -->
<g id="node8" class="node">
<title>Node8</title>
<g id="a_node8"><a xlink:href="____l4__fpage_8h_source.html" target="_top" xlink:title=" ">
<polygon fill="white" stroke="black" points="550,-112.5 550,-131.5 660,-131.5 660,-112.5 550,-112.5"/>
<text text-anchor="middle" x="605" y="-119.5" font-family="Helvetica,sans-Serif" font-size="10.00">l4/sys/__l4_fpage.h</text>
</a>
</g>
</g>
<!-- Node3&#45;&gt;Node8 -->
<g id="edge9" class="edge">
<title>Node3&#45;&gt;Node8</title>
<path fill="none" stroke="midnightblue" d="M498.97,-168.44C519.61,-159.6 552.06,-145.69 575.63,-135.59"/>
<polygon fill="midnightblue" stroke="midnightblue" points="577.32,-138.67 585.13,-131.52 574.56,-132.24 577.32,-138.67"/>
</g>
<!-- Node9 -->
<g id="node9" class="node">
<title>Node9</title>
<g id="a_node9"><a xlink:href="____timeout_8h_source.html" target="_top" xlink:title=" ">
<polygon fill="white" stroke="black" points="426,-112.5 426,-131.5 532,-131.5 532,-112.5 426,-112.5"/>
<text text-anchor="middle" x="479" y="-119.5" font-family="Helvetica,sans-Serif" font-size="10.00">l4/sys/__timeout.h</text>
</a>
</g>
</g>
<!-- Node3&#45;&gt;Node9 -->
<g id="edge11" class="edge">
<title>Node3&#45;&gt;Node9</title>
<path fill="none" stroke="midnightblue" d="M479,-168.08C479,-161.01 479,-150.86 479,-141.99"/>
<polygon fill="midnightblue" stroke="midnightblue" points="482.5,-141.75 479,-131.75 475.5,-141.75 482.5,-141.75"/>
</g>
<!-- Node6 -->
<g id="node6" class="node">
<title>Node6</title>
<g id="a_node6"><a xlink:title=" ">
<polygon fill="white" stroke="#bfbfbf" points="661,-0.5 661,-19.5 753,-19.5 753,-0.5 661,-0.5"/>
<text text-anchor="middle" x="707" y="-7.5" font-family="Helvetica,sans-Serif" font-size="10.00">l4/sys/linkage.h</text>
</a>
</g>
</g>
<!-- Node5&#45;&gt;Node6 -->
<g id="edge5" class="edge">
<title>Node5&#45;&gt;Node6</title>
<path fill="none" stroke="midnightblue" d="M707,-56.08C707,-49.01 707,-38.86 707,-29.99"/>
<polygon fill="midnightblue" stroke="midnightblue" points="710.5,-29.75 707,-19.75 703.5,-29.75 710.5,-29.75"/>
</g>
<!-- Node7&#45;&gt;Node4 -->
<g id="edge8" class="edge">
<title>Node7&#45;&gt;Node4</title>
<path fill="none" stroke="midnightblue" d="M331.11,-112.08C336.28,-104.53 343.85,-93.49 350.19,-84.23"/>
<polygon fill="midnightblue" stroke="midnightblue" points="353.24,-85.98 356,-75.75 347.46,-82.02 353.24,-85.98"/>
</g>
<!-- Node7&#45;&gt;Node5 -->
<g id="edge7" class="edge">
<title>Node7&#45;&gt;Node5</title>
<path fill="none" stroke="midnightblue" d="M369.57,-114.7C438.32,-104.98 570.32,-86.32 647.27,-75.44"/>
<polygon fill="midnightblue" stroke="midnightblue" points="647.88,-78.89 657.29,-74.03 646.9,-71.96 647.88,-78.89"/>
</g>
<!-- Node8&#45;&gt;Node5 -->
<g id="edge10" class="edge">
<title>Node8&#45;&gt;Node5</title>
<path fill="none" stroke="midnightblue" d="M621.39,-112.32C637.67,-103.7 662.87,-90.36 681.72,-80.39"/>
<polygon fill="midnightblue" stroke="midnightblue" points="683.45,-83.43 690.65,-75.65 680.18,-77.24 683.45,-83.43"/>
</g>
<!-- Node9&#45;&gt;Node4 -->
<g id="edge12" class="edge">
<title>Node9&#45;&gt;Node4</title>
<path fill="none" stroke="midnightblue" d="M460.46,-112.44C441.38,-103.64 411.43,-89.81 389.56,-79.72"/>
<polygon fill="midnightblue" stroke="midnightblue" points="391,-76.53 380.45,-75.52 388.07,-82.88 391,-76.53"/>
</g>
<!-- Node10&#45;&gt;Node3 -->
<g id="edge15" class="edge">
<title>Node10&#45;&gt;Node3</title>
<path fill="none" stroke="midnightblue" d="M624.2,-690.15C692.7,-684.65 810,-663.36 810,-582 810,-582 810,-582 810,-289 810,-245.89 776.76,-242.88 738,-224 671.51,-191.62 585.41,-182.2 531.17,-179.65"/>
<polygon fill="midnightblue" stroke="midnightblue" points="531.23,-176.15 521.1,-179.24 530.95,-183.14 531.23,-176.15"/>
</g>
<!-- Node10&#45;&gt;Node7 -->
<g id="edge14" class="edge">
<title>Node10&#45;&gt;Node7</title>
<path fill="none" stroke="midnightblue" d="M527.88,-690.95C408.82,-685.55 110,-653.71 110,-470 110,-470 110,-470 110,-233 110,-161.11 206.44,-136.18 270.14,-127.55"/>
<polygon fill="midnightblue" stroke="midnightblue" points="270.97,-130.97 280.45,-126.25 270.09,-124.02 270.97,-130.97"/>
</g>
<!-- Node11 -->
<g id="node11" class="node">
<title>Node11</title>
<g id="a_node11"><a xlink:href="kobject_source.html" target="_top" xlink:title=" ">
<polygon fill="white" stroke="black" points="634.5,-515.5 634.5,-534.5 717.5,-534.5 717.5,-515.5 634.5,-515.5"/>
<text text-anchor="middle" x="676" y="-522.5" font-family="Helvetica,sans-Serif" font-size="10.00">l4/sys/kobject</text>
</a>
</g>
</g>
<!-- Node10&#45;&gt;Node11 -->
<g id="edge16" class="edge">
<title>Node10&#45;&gt;Node11</title>
<path fill="none" stroke="midnightblue" d="M586.47,-683.19C596.1,-674.67 610.32,-661.03 620,-647 643.13,-613.47 660.92,-568.87 669.78,-544.26"/>
<polygon fill="midnightblue" stroke="midnightblue" points="673.11,-545.34 673.12,-534.74 666.51,-543.02 673.11,-545.34"/>
</g>
<!-- Node21 -->
<g id="node21" class="node">
<title>Node21</title>
<g id="a_node21"><a xlink:href="l4_2sys_2task_8h.html" target="_top" xlink:title="Common task related definitions.">
<polygon fill="white" stroke="black" points="372,-342 372,-361 450,-361 450,-342 372,-342"/>
<text text-anchor="middle" x="411" y="-349" font-family="Helvetica,sans-Serif" font-size="10.00">l4/sys/task.h</text>
</a>
</g>
</g>
<!-- Node10&#45;&gt;Node21 -->
<g id="edge45" class="edge">
<title>Node10&#45;&gt;Node21</title>
<path fill="none" stroke="midnightblue" d="M580.05,-683.38C588.23,-665.11 606,-621 606,-582 606,-582 606,-582 606,-468 606,-400.44 518.29,-371.55 460.52,-359.85"/>
<polygon fill="midnightblue" stroke="midnightblue" points="460.94,-356.37 450.46,-357.92 459.62,-363.24 460.94,-356.37"/>
</g>
<!-- Node22 -->
<g id="node22" class="node">
<title>Node22</title>
<g id="a_node22"><a xlink:href="sys_2meta.html" target="_top" xlink:title="Meta interface for getting dynamic type information about objects behind capabilities.">
<polygon fill="white" stroke="black" points="494,-627.5 494,-646.5 568,-646.5 568,-627.5 494,-627.5"/>
<text text-anchor="middle" x="531" y="-634.5" font-family="Helvetica,sans-Serif" font-size="10.00">l4/sys/meta</text>
</a>
</g>
</g>
<!-- Node10&#45;&gt;Node22 -->
<g id="edge46" class="edge">
<title>Node10&#45;&gt;Node22</title>
<path fill="none" stroke="midnightblue" d="M568.57,-683.08C562.15,-675.38 552.69,-664.03 544.88,-654.65"/>
<polygon fill="midnightblue" stroke="midnightblue" points="547.38,-652.19 538.29,-646.75 542.01,-656.67 547.38,-652.19"/>
</g>
<!-- Node11&#45;&gt;Node3 -->
<g id="edge31" class="edge">
<title>Node11&#45;&gt;Node3</title>
<path fill="none" stroke="midnightblue" d="M691.85,-515.44C719.12,-499.43 772,-462.16 772,-414 772,-414 772,-414 772,-289 772,-246.87 740.43,-243.34 703,-224 648.66,-195.93 578.52,-185.35 531.33,-181.37"/>
<polygon fill="midnightblue" stroke="midnightblue" points="531.56,-177.88 521.32,-180.6 531.02,-184.86 531.56,-177.88"/>
</g>
<!-- Node12 -->
<g id="node12" class="node">
<title>Node12</title>
<g id="a_node12"><a xlink:href="kernel__object_8h.html" target="_top" xlink:title="Kernel object system calls.">
<polygon fill="white" stroke="black" points="634.5,-403.5 634.5,-422.5 725.5,-422.5 725.5,-403.5 634.5,-403.5"/>
<text text-anchor="middle" x="680" y="-410.5" font-family="Helvetica,sans-Serif" font-size="10.00">kernel_object.h</text>
</a>
</g>
</g>
<!-- Node11&#45;&gt;Node12 -->
<g id="edge17" class="edge">
<title>Node11&#45;&gt;Node12</title>
<path fill="none" stroke="midnightblue" d="M676.31,-515.37C676.96,-497.62 678.45,-456.67 679.32,-432.6"/>
<polygon fill="midnightblue" stroke="midnightblue" points="682.82,-432.71 679.69,-422.59 675.83,-432.46 682.82,-432.71"/>
</g>
<!-- Node17 -->
<g id="node17" class="node">
<title>Node17</title>
<g id="a_node17"><a xlink:href="____typeinfo_8h.html" target="_top" xlink:title="Type information handling.">
<polygon fill="white" stroke="black" points="500.5,-459.5 500.5,-478.5 577.5,-478.5 577.5,-459.5 500.5,-459.5"/>
<text text-anchor="middle" x="539" y="-466.5" font-family="Helvetica,sans-Serif" font-size="10.00">__typeinfo.h</text>
</a>
</g>
</g>
<!-- Node11&#45;&gt;Node17 -->
<g id="edge32" class="edge">
<title>Node11&#45;&gt;Node17</title>
<path fill="none" stroke="midnightblue" d="M654.29,-515.44C631.65,-506.52 595.93,-492.44 570.25,-482.32"/>
<polygon fill="midnightblue" stroke="midnightblue" points="571.19,-478.93 560.61,-478.52 568.63,-485.44 571.19,-478.93"/>
</g>
<!-- Node12&#45;&gt;Node3 -->
<g id="edge18" class="edge">
<title>Node12&#45;&gt;Node3</title>
<path fill="none" stroke="midnightblue" d="M641.25,-403.46C618.87,-396.79 591.57,-385.48 573,-367 524.02,-318.27 546.21,-284.03 512,-224 506.36,-214.11 498.95,-203.82 492.58,-195.58"/>
<polygon fill="midnightblue" stroke="midnightblue" points="495.16,-193.21 486.2,-187.56 489.68,-197.56 495.16,-193.21"/>
</g>
<!-- Node12&#45;&gt;Node5 -->
<g id="edge19" class="edge">
<title>Node12&#45;&gt;Node5</title>
<path fill="none" stroke="midnightblue" d="M715.63,-403.45C764.94,-389.24 848,-355.7 848,-291 848,-291 848,-291 848,-177 848,-125.26 788.26,-94.27 746.55,-78.94"/>
<polygon fill="midnightblue" stroke="midnightblue" points="747.5,-75.56 736.9,-75.55 745.18,-82.17 747.5,-75.56"/>
</g>
<!-- Node13 -->
<g id="node13" class="node">
<title>Node13</title>
<g id="a_node13"><a xlink:href="l4_2sys_2utcb_8h.html" target="_top" xlink:title="UTCB definitions.">
<polygon fill="white" stroke="black" points="425,-224.5 425,-243.5 503,-243.5 503,-224.5 425,-224.5"/>
<text text-anchor="middle" x="464" y="-231.5" font-family="Helvetica,sans-Serif" font-size="10.00">l4/sys/utcb.h</text>
</a>
</g>
</g>
<!-- Node12&#45;&gt;Node13 -->
<g id="edge20" class="edge">
<title>Node12&#45;&gt;Node13</title>
<path fill="none" stroke="midnightblue" d="M634.36,-405.99C604.83,-400.16 567,-388.82 540,-367 502.23,-336.48 479.54,-281.83 469.73,-253.37"/>
<polygon fill="midnightblue" stroke="midnightblue" points="472.95,-251.94 466.5,-243.54 466.3,-254.13 472.95,-251.94"/>
</g>
<!-- Node14 -->
<g id="node14" class="node">
<title>Node14</title>
<g id="a_node14"><a xlink:href="____kernel__object__impl_8h.html" target="_top" xlink:title="Low&#45;level kernel debugger functions.">
<polygon fill="white" stroke="black" points="582,-336.5 582,-366.5 706,-366.5 706,-336.5 582,-336.5"/>
<text text-anchor="start" x="590" y="-354.5" font-family="Helvetica,sans-Serif" font-size="10.00">l4/sys/__kernel_object</text>
<text text-anchor="middle" x="644" y="-343.5" font-family="Helvetica,sans-Serif" font-size="10.00">_impl.h</text>
</a>
</g>
</g>
<!-- Node12&#45;&gt;Node14 -->
<g id="edge24" class="edge">
<title>Node12&#45;&gt;Node14</title>
<path fill="none" stroke="midnightblue" d="M674.84,-403.48C670.38,-396.09 663.71,-385.08 657.72,-375.17"/>
<polygon fill="midnightblue" stroke="midnightblue" points="660.66,-373.27 652.48,-366.52 654.67,-376.89 660.66,-373.27"/>
</g>
<!-- Node15 -->
<g id="node15" class="node">
<title>Node15</title>
<g id="a_node15"><a xlink:href="l4_2sys_2ipc_8h.html" target="_top" xlink:title="Common IPC interface.">
<polygon fill="white" stroke="black" points="559.5,-280.5 559.5,-299.5 630.5,-299.5 630.5,-280.5 559.5,-280.5"/>
<text text-anchor="middle" x="595" y="-287.5" font-family="Helvetica,sans-Serif" font-size="10.00">l4/sys/ipc.h</text>
</a>
</g>
</g>
<!-- Node12&#45;&gt;Node15 -->
<g id="edge30" class="edge">
<title>Node12&#45;&gt;Node15</title>
<path fill="none" stroke="midnightblue" d="M689.87,-403.04C704.94,-388.26 730.39,-358.21 715,-336 698.31,-311.92 667.04,-300.71 640.61,-295.49"/>
<polygon fill="midnightblue" stroke="midnightblue" points="641.21,-292.04 630.75,-293.77 640,-298.94 641.21,-292.04"/>
</g>
<!-- Node13&#45;&gt;Node3 -->
<g id="edge21" class="edge">
<title>Node13&#45;&gt;Node3</title>
<path fill="none" stroke="midnightblue" d="M466.48,-224.08C468.49,-216.85 471.39,-206.41 473.89,-197.4"/>
<polygon fill="midnightblue" stroke="midnightblue" points="477.26,-198.32 476.57,-187.75 470.52,-196.45 477.26,-198.32"/>
</g>
<!-- Node13&#45;&gt;Node4 -->
<g id="edge23" class="edge">
<title>Node13&#45;&gt;Node4</title>
<path fill="none" stroke="midnightblue" d="M424.97,-225.19C378.91,-213.65 304.39,-187.16 271,-132 256.08,-107.35 289.05,-89.43 319.4,-78.73"/>
<polygon fill="midnightblue" stroke="midnightblue" points="320.71,-81.98 329.1,-75.5 318.5,-75.34 320.71,-81.98"/>
</g>
<!-- Node13&#45;&gt;Node5 -->
<g id="edge22" class="edge">
<title>Node13&#45;&gt;Node5</title>
<path fill="none" stroke="midnightblue" d="M503.1,-226.7C554.42,-216.31 643.62,-190.58 692,-132 702.71,-119.03 706.09,-99.87 707.02,-85.71"/>
<polygon fill="midnightblue" stroke="midnightblue" points="710.52,-85.74 707.33,-75.63 703.52,-85.52 710.52,-85.74"/>
</g>
<!-- Node14&#45;&gt;Node15 -->
<g id="edge25" class="edge">
<title>Node14&#45;&gt;Node15</title>
<path fill="none" stroke="midnightblue" d="M632.39,-336.4C625.27,-327.75 616.12,-316.64 608.65,-307.58"/>
<polygon fill="midnightblue" stroke="midnightblue" points="611.19,-305.15 602.13,-299.66 605.79,-309.6 611.19,-305.15"/>
</g>
<!-- Node15&#45;&gt;Node3 -->
<g id="edge26" class="edge">
<title>Node15&#45;&gt;Node3</title>
<path fill="none" stroke="midnightblue" d="M589.6,-280.31C581.16,-267.14 563.84,-241.79 545,-224 532.42,-212.12 516.44,-201.14 503.34,-192.99"/>
<polygon fill="midnightblue" stroke="midnightblue" points="504.78,-189.77 494.42,-187.59 501.16,-195.76 504.78,-189.77"/>
</g>
<!-- Node15&#45;&gt;Node13 -->
<g id="edge27" class="edge">
<title>Node15&#45;&gt;Node13</title>
<path fill="none" stroke="midnightblue" d="M574.24,-280.44C552.68,-271.56 518.74,-257.56 494.21,-247.45"/>
<polygon fill="midnightblue" stroke="midnightblue" points="495.24,-244.09 484.66,-243.52 492.57,-250.56 495.24,-244.09"/>
</g>
<!-- Node16 -->
<g id="node16" class="node">
<title>Node16</title>
<g id="a_node16"><a xlink:href="err_8h.html" target="_top" xlink:title="Error codes.">
<polygon fill="white" stroke="black" points="624,-224.5 624,-243.5 694,-243.5 694,-224.5 624,-224.5"/>
<text text-anchor="middle" x="659" y="-231.5" font-family="Helvetica,sans-Serif" font-size="10.00">l4/sys/err.h</text>
</a>
</g>
</g>
<!-- Node15&#45;&gt;Node16 -->
<g id="edge28" class="edge">
<title>Node15&#45;&gt;Node16</title>
<path fill="none" stroke="midnightblue" d="M605.28,-280.32C614.84,-272.26 629.28,-260.08 640.78,-250.37"/>
<polygon fill="midnightblue" stroke="midnightblue" points="643.14,-252.96 648.53,-243.83 638.63,-247.61 643.14,-252.96"/>
</g>
<!-- Node16&#45;&gt;Node5 -->
<g id="edge29" class="edge">
<title>Node16&#45;&gt;Node5</title>
<path fill="none" stroke="midnightblue" d="M690.02,-224.44C708.03,-217.69 729.23,-206.3 740,-188 757.13,-158.89 750.51,-144.1 740,-112 736.51,-101.34 729.43,-91.12 722.71,-83.12"/>
<polygon fill="midnightblue" stroke="midnightblue" points="725.3,-80.76 716.02,-75.66 720.1,-85.44 725.3,-80.76"/>
</g>
<!-- Node18 -->
<g id="node18" class="node">
<title>Node18</title>
<g id="a_node18"><a xlink:href="types.html" target="_top" xlink:title=" ">
<polygon fill="white" stroke="black" points="176,-342 176,-361 240,-361 240,-342 176,-342"/>
<text text-anchor="middle" x="208" y="-349" font-family="Helvetica,sans-Serif" font-size="10.00">cxx/types</text>
</a>
</g>
</g>
<!-- Node17&#45;&gt;Node18 -->
<g id="edge33" class="edge">
<title>Node17&#45;&gt;Node18</title>
<path fill="none" stroke="midnightblue" d="M535.84,-459.17C530.21,-444.86 517.05,-416.79 496,-403 456.22,-376.94 320.37,-361.97 250.41,-355.82"/>
<polygon fill="midnightblue" stroke="midnightblue" points="250.44,-352.31 240.18,-354.94 249.84,-359.29 250.44,-352.31"/>
</g>
<!-- Node19 -->
<g id="node19" class="node">
<title>Node19</title>
<g id="a_node19"><a xlink:href="ipc__basics_source.html" target="_top" xlink:title=" ">
<polygon fill="white" stroke="black" points="400.5,-403.5 400.5,-422.5 487.5,-422.5 487.5,-403.5 400.5,-403.5"/>
<text text-anchor="middle" x="444" y="-410.5" font-family="Helvetica,sans-Serif" font-size="10.00">cxx/ipc_basics</text>
</a>
</g>
</g>
<!-- Node17&#45;&gt;Node19 -->
<g id="edge34" class="edge">
<title>Node17&#45;&gt;Node19</title>
<path fill="none" stroke="midnightblue" d="M523.74,-459.32C508.78,-450.82 485.75,-437.73 468.27,-427.8"/>
<polygon fill="midnightblue" stroke="midnightblue" points="469.65,-424.55 459.23,-422.65 466.19,-430.64 469.65,-424.55"/>
</g>
<!-- Node20 -->
<g id="node20" class="node">
<title>Node20</title>
<g id="a_node20"><a xlink:href="capability_8h_source.html" target="_top" xlink:title=" ">
<polygon fill="white" stroke="black" points="290,-403.5 290,-422.5 382,-422.5 382,-403.5 290,-403.5"/>
<text text-anchor="middle" x="336" y="-410.5" font-family="Helvetica,sans-Serif" font-size="10.00">cxx/capability.h</text>
</a>
</g>
</g>
<!-- Node17&#45;&gt;Node20 -->
<g id="edge38" class="edge">
<title>Node17&#45;&gt;Node20</title>
<path fill="none" stroke="midnightblue" d="M506.83,-459.44C471.94,-450.16 416.11,-435.31 377.83,-425.13"/>
<polygon fill="midnightblue" stroke="midnightblue" points="378.58,-421.7 368.02,-422.52 376.78,-428.47 378.58,-421.7"/>
</g>
<!-- Node19&#45;&gt;Node13 -->
<g id="edge36" class="edge">
<title>Node19&#45;&gt;Node13</title>
<path fill="none" stroke="midnightblue" d="M412.98,-403.44C394.97,-396.69 373.77,-385.3 363,-367 356.01,-355.13 357.73,-348.73 363,-336 378.8,-297.84 416.79,-266.59 441.41,-249.4"/>
<polygon fill="midnightblue" stroke="midnightblue" points="443.49,-252.22 449.81,-243.72 439.57,-246.42 443.49,-252.22"/>
</g>
<!-- Node19&#45;&gt;Node16 -->
<g id="edge37" class="edge">
<title>Node19&#45;&gt;Node16</title>
<path fill="none" stroke="midnightblue" d="M458.23,-403.41C481.9,-389.16 530.94,-359.85 573,-336 602.06,-319.52 617.86,-325.88 639,-300 649.84,-286.72 654.82,-267.6 657.1,-253.53"/>
<polygon fill="midnightblue" stroke="midnightblue" points="660.58,-253.91 658.41,-243.54 653.64,-253 660.58,-253.91"/>
</g>
<!-- Node19&#45;&gt;Node18 -->
<g id="edge35" class="edge">
<title>Node19&#45;&gt;Node18</title>
<path fill="none" stroke="midnightblue" d="M410.19,-403.48C368,-392.84 295.87,-374.65 250.13,-363.12"/>
<polygon fill="midnightblue" stroke="midnightblue" points="250.79,-359.68 240.24,-360.63 249.08,-366.47 250.79,-359.68"/>
</g>
<!-- Node20&#45;&gt;Node3 -->
<g id="edge40" class="edge">
<title>Node20&#45;&gt;Node3</title>
<path fill="none" stroke="midnightblue" d="M336.94,-403.39C340.5,-374.57 355.59,-280.09 405,-224 416.99,-210.39 434.1,-199.62 448.85,-192.03"/>
<polygon fill="midnightblue" stroke="midnightblue" points="450.67,-195.04 458.12,-187.51 447.6,-188.75 450.67,-195.04"/>
</g>
<!-- Node20&#45;&gt;Node7 -->
<g id="edge39" class="edge">
<title>Node20&#45;&gt;Node7</title>
<path fill="none" stroke="midnightblue" d="M335.67,-403.35C334.16,-363.63 327.86,-198.25 325.72,-141.9"/>
<polygon fill="midnightblue" stroke="midnightblue" points="329.21,-141.48 325.33,-131.62 322.21,-141.74 329.21,-141.48"/>
</g>
<!-- Node20&#45;&gt;Node21 -->
<g id="edge41" class="edge">
<title>Node20&#45;&gt;Node21</title>
<path fill="none" stroke="midnightblue" d="M346.75,-403.48C358.55,-394.11 377.74,-378.88 392.08,-367.51"/>
<polygon fill="midnightblue" stroke="midnightblue" points="394.62,-369.97 400.27,-361.01 390.26,-364.48 394.62,-369.97"/>
</g>
<!-- Node21&#45;&gt;Node3 -->
<g id="edge42" class="edge">
<title>Node21&#45;&gt;Node3</title>
<path fill="none" stroke="midnightblue" d="M408.9,-341.85C404.17,-320.36 394.7,-263.45 416,-224 423.4,-210.29 437.01,-199.78 449.69,-192.37"/>
<polygon fill="midnightblue" stroke="midnightblue" points="451.52,-195.36 458.66,-187.52 448.19,-189.2 451.52,-195.36"/>
</g>
<!-- Node21&#45;&gt;Node13 -->
<g id="edge43" class="edge">
<title>Node21&#45;&gt;Node13</title>
<path fill="none" stroke="midnightblue" d="M414.98,-341.82C423.62,-323.01 444.2,-278.15 455.76,-252.96"/>
<polygon fill="midnightblue" stroke="midnightblue" points="458.98,-254.33 459.97,-243.78 452.62,-251.41 458.98,-254.33"/>
</g>
<!-- Node21&#45;&gt;Node15 -->
<g id="edge44" class="edge">
<title>Node21&#45;&gt;Node15</title>
<path fill="none" stroke="midnightblue" d="M437.36,-341.98C469.34,-331.64 523.38,-314.16 559.12,-302.6"/>
<polygon fill="midnightblue" stroke="midnightblue" points="560.25,-305.92 568.69,-299.51 558.09,-299.26 560.25,-305.92"/>
</g>
<!-- Node22&#45;&gt;Node11 -->
<g id="edge47" class="edge">
<title>Node22&#45;&gt;Node11</title>
<path fill="none" stroke="midnightblue" d="M542.38,-627.37C567.05,-608.65 625.71,-564.15 656.45,-540.83"/>
<polygon fill="midnightblue" stroke="midnightblue" points="658.82,-543.42 664.67,-534.59 654.59,-537.85 658.82,-543.42"/>
</g>
<!-- Node23 -->
<g id="node23" class="node">
<title>Node23</title>
<g id="a_node23"><a xlink:href="ipc__iface.html" target="_top" xlink:title="Interface Definition Language.">
<polygon fill="white" stroke="black" points="476,-515.5 476,-534.5 556,-534.5 556,-515.5 476,-515.5"/>
<text text-anchor="middle" x="516" y="-522.5" font-family="Helvetica,sans-Serif" font-size="10.00">cxx/ipc_iface</text>
</a>
</g>
</g>
<!-- Node22&#45;&gt;Node23 -->
<g id="edge48" class="edge">
<title>Node22&#45;&gt;Node23</title>
<path fill="none" stroke="midnightblue" d="M529.82,-627.37C527.4,-609.62 521.82,-568.67 518.54,-544.6"/>
<polygon fill="midnightblue" stroke="midnightblue" points="521.99,-544.03 517.17,-534.59 515.05,-544.97 521.99,-544.03"/>
</g>
<!-- Node25 -->
<g id="node25" class="node">
<title>Node25</title>
<g id="a_node25"><a xlink:href="ipc__string_source.html" target="_top" xlink:title=" ">
<polygon fill="white" stroke="black" points="346,-571.5 346,-590.5 430,-590.5 430,-571.5 346,-571.5"/>
<text text-anchor="middle" x="388" y="-578.5" font-family="Helvetica,sans-Serif" font-size="10.00">cxx/ipc_string</text>
</a>
</g>
</g>
<!-- Node22&#45;&gt;Node25 -->
<g id="edge55" class="edge">
<title>Node22&#45;&gt;Node25</title>
<path fill="none" stroke="midnightblue" d="M508.34,-627.44C484.6,-618.48 447.09,-604.31 420.26,-594.18"/>
<polygon fill="midnightblue" stroke="midnightblue" points="421.14,-590.77 410.55,-590.52 418.67,-597.32 421.14,-590.77"/>
</g>
<!-- Node23&#45;&gt;Node17 -->
<g id="edge54" class="edge">
<title>Node23&#45;&gt;Node17</title>
<path fill="none" stroke="midnightblue" d="M519.8,-515.08C522.91,-507.77 527.42,-497.18 531.29,-488.1"/>
<polygon fill="midnightblue" stroke="midnightblue" points="534.57,-489.32 535.27,-478.75 528.13,-486.58 534.57,-489.32"/>
</g>
<!-- Node23&#45;&gt;Node19 -->
<g id="edge49" class="edge">
<title>Node23&#45;&gt;Node19</title>
<path fill="none" stroke="midnightblue" d="M510.35,-515.37C498.47,-497.22 470.71,-454.8 455.12,-430.99"/>
<polygon fill="midnightblue" stroke="midnightblue" points="458.03,-429.04 449.62,-422.59 452.17,-432.88 458.03,-429.04"/>
</g>
<!-- Node24 -->
<g id="node24" class="node">
<title>Node24</title>
<g id="a_node24"><a xlink:href="ipc__types.html" target="_top" xlink:title=" ">
<polygon fill="white" stroke="black" points="252.5,-459.5 252.5,-478.5 367.5,-478.5 367.5,-459.5 252.5,-459.5"/>
<text text-anchor="middle" x="310" y="-466.5" font-family="Helvetica,sans-Serif" font-size="10.00">l4/sys/cxx/ipc_types</text>
</a>
</g>
</g>
<!-- Node23&#45;&gt;Node24 -->
<g id="edge50" class="edge">
<title>Node23&#45;&gt;Node24</title>
<path fill="none" stroke="midnightblue" d="M483.36,-515.44C447.95,-506.16 391.29,-491.31 352.45,-481.13"/>
<polygon fill="midnightblue" stroke="midnightblue" points="353.05,-477.67 342.49,-478.52 351.27,-484.44 353.05,-477.67"/>
</g>
<!-- Node24&#45;&gt;Node18 -->
<g id="edge52" class="edge">
<title>Node24&#45;&gt;Node18</title>
<path fill="none" stroke="midnightblue" d="M302.33,-459.32C285.35,-440.09 244.33,-393.64 222.4,-368.81"/>
<polygon fill="midnightblue" stroke="midnightblue" points="225,-366.46 215.76,-361.28 219.75,-371.09 225,-366.46"/>
</g>
<!-- Node24&#45;&gt;Node19 -->
<g id="edge53" class="edge">
<title>Node24&#45;&gt;Node19</title>
<path fill="none" stroke="midnightblue" d="M331.23,-459.44C353.38,-450.52 388.32,-436.44 413.44,-426.32"/>
<polygon fill="midnightblue" stroke="midnightblue" points="414.9,-429.5 422.87,-422.52 412.28,-423.01 414.9,-429.5"/>
</g>
<!-- Node24&#45;&gt;Node20 -->
<g id="edge51" class="edge">
<title>Node24&#45;&gt;Node20</title>
<path fill="none" stroke="midnightblue" d="M314.29,-459.08C317.85,-451.69 323.02,-440.95 327.42,-431.81"/>
<polygon fill="midnightblue" stroke="midnightblue" points="330.6,-433.28 331.79,-422.75 324.29,-430.24 330.6,-433.28"/>
</g>
<!-- Node25&#45;&gt;Node18 -->
<g id="edge56" class="edge">
<title>Node25&#45;&gt;Node18</title>
<path fill="none" stroke="midnightblue" d="M363.28,-571.47C327.46,-557.8 261.62,-527.47 227,-479 203.95,-446.73 203.81,-397.93 205.84,-371.36"/>
<polygon fill="midnightblue" stroke="midnightblue" points="209.35,-371.44 206.81,-361.15 202.38,-370.77 209.35,-371.44"/>
</g>
<!-- Node25&#45;&gt;Node19 -->
<g id="edge57" class="edge">
<title>Node25&#45;&gt;Node19</title>
<path fill="none" stroke="midnightblue" d="M391.01,-571.08C399.86,-544.83 425.94,-467.55 437.89,-432.12"/>
<polygon fill="midnightblue" stroke="midnightblue" points="441.23,-433.16 441.11,-422.57 434.6,-430.92 441.23,-433.16"/>
</g>
<!-- Node26 -->
<g id="node26" class="node">
<title>Node26</title>
<g id="a_node26"><a xlink:href="ipc__array_source.html" target="_top" xlink:title=" ">
<polygon fill="white" stroke="black" points="311,-515.5 311,-534.5 373,-534.5 373,-515.5 311,-515.5"/>
<text text-anchor="middle" x="342" y="-522.5" font-family="Helvetica,sans-Serif" font-size="10.00">ipc_array</text>
</a>
</g>
</g>
<!-- Node25&#45;&gt;Node26 -->
<g id="edge58" class="edge">
<title>Node25&#45;&gt;Node26</title>
<path fill="none" stroke="midnightblue" d="M380.4,-571.08C373.77,-563.3 363.98,-551.8 355.94,-542.37"/>
<polygon fill="midnightblue" stroke="midnightblue" points="358.6,-540.09 349.45,-534.75 353.27,-544.63 358.6,-540.09"/>
</g>
<!-- Node26&#45;&gt;Node18 -->
<g id="edge59" class="edge">
<title>Node26&#45;&gt;Node18</title>
<path fill="none" stroke="midnightblue" d="M310.95,-517.3C288.97,-511 260.42,-499.38 243,-479 216.44,-447.91 209.92,-398.25 208.39,-371.33"/>
<polygon fill="midnightblue" stroke="midnightblue" points="211.88,-370.87 207.99,-361.01 204.88,-371.13 211.88,-370.87"/>
</g>
<!-- Node26&#45;&gt;Node19 -->
<g id="edge60" class="edge">
<title>Node26&#45;&gt;Node19</title>
<path fill="none" stroke="midnightblue" d="M350,-515.37C367.06,-496.97 407.21,-453.67 429.12,-430.05"/>
<polygon fill="midnightblue" stroke="midnightblue" points="431.8,-432.3 436.03,-422.59 426.67,-427.54 431.8,-432.3"/>
</g>
<!-- Node26&#45;&gt;Node24 -->
<g id="edge61" class="edge">
<title>Node26&#45;&gt;Node24</title>
<path fill="none" stroke="midnightblue" d="M336.72,-515.08C332.29,-507.61 325.84,-496.72 320.38,-487.52"/>
<polygon fill="midnightblue" stroke="midnightblue" points="323.29,-485.57 315.19,-478.75 317.27,-489.14 323.29,-485.57"/>
</g>
</g>
</svg>
