<?xml version="1.0" encoding="UTF-8" standalone="no"?>
<!DOCTYPE svg PUBLIC "-//W3C//DTD SVG 1.1//EN"
 "http://www.w3.org/Graphics/SVG/1.1/DTD/svg11.dtd">
<!-- Generated by graphviz version 2.43.0 (0)
 -->
<!-- Title: l4/re/c/log.h Pages: 1 -->
<svg width="656pt" height="420pt"
 viewBox="0.00 0.00 655.50 420.00" xmlns="http://www.w3.org/2000/svg" xmlns:xlink="http://www.w3.org/1999/xlink">
<g id="graph0" class="graph" transform="scale(1 1) rotate(0) translate(4 416)">
<title>l4/re/c/log.h</title>
<polygon fill="white" stroke="transparent" points="-4,4 -4,-416 651.5,-416 651.5,4 -4,4"/>
<!-- Node1 -->
<g id="node1" class="node">
<title>Node1</title>
<g id="a_node1"><a xlink:title="Log C interface.">
<polygon fill="#bfbfbf" stroke="black" points="115,-392.5 115,-411.5 189,-411.5 189,-392.5 115,-392.5"/>
<text text-anchor="middle" x="152" y="-399.5" font-family="Helvetica,sans-Serif" font-size="10.00">l4/re/c/log.h</text>
</a>
</g>
</g>
<!-- Node2 -->
<g id="node2" class="node">
<title>Node2</title>
<g id="a_node2"><a xlink:href="env_8h.html" target="_top" xlink:title="Environment interface.">
<polygon fill="white" stroke="black" points="118,-336.5 118,-355.5 186,-355.5 186,-336.5 118,-336.5"/>
<text text-anchor="middle" x="152" y="-343.5" font-family="Helvetica,sans-Serif" font-size="10.00">l4/re/env.h</text>
</a>
</g>
</g>
<!-- Node1&#45;&gt;Node2 -->
<g id="edge1" class="edge">
<title>Node1&#45;&gt;Node2</title>
<path fill="none" stroke="midnightblue" d="M152,-392.08C152,-385.01 152,-374.86 152,-365.99"/>
<polygon fill="midnightblue" stroke="midnightblue" points="155.5,-365.75 152,-355.75 148.5,-365.75 155.5,-365.75"/>
</g>
<!-- Node3 -->
<g id="node3" class="node">
<title>Node3</title>
<g id="a_node3"><a xlink:href="l4_2sys_2consts_8h.html" target="_top" xlink:title="Common constants.">
<polygon fill="white" stroke="black" points="66.5,-112.5 66.5,-131.5 155.5,-131.5 155.5,-112.5 66.5,-112.5"/>
<text text-anchor="middle" x="111" y="-119.5" font-family="Helvetica,sans-Serif" font-size="10.00">l4/sys/consts.h</text>
</a>
</g>
</g>
<!-- Node2&#45;&gt;Node3 -->
<g id="edge2" class="edge">
<title>Node2&#45;&gt;Node3</title>
<path fill="none" stroke="midnightblue" d="M147.98,-336.4C137.35,-313.15 108.65,-246.76 99,-188 96.41,-172.25 100.18,-154.43 104.16,-141.44"/>
<polygon fill="midnightblue" stroke="midnightblue" points="107.52,-142.41 107.41,-131.81 100.89,-140.16 107.52,-142.41"/>
</g>
<!-- Node4 -->
<g id="node4" class="node">
<title>Node4</title>
<g id="a_node4"><a xlink:href="compiler_8h.html" target="_top" xlink:title="L4 compiler related defines.">
<polygon fill="white" stroke="black" points="61.5,-56.5 61.5,-75.5 160.5,-75.5 160.5,-56.5 61.5,-56.5"/>
<text text-anchor="middle" x="111" y="-63.5" font-family="Helvetica,sans-Serif" font-size="10.00">l4/sys/compiler.h</text>
</a>
</g>
</g>
<!-- Node2&#45;&gt;Node4 -->
<g id="edge20" class="edge">
<title>Node2&#45;&gt;Node4</title>
<path fill="none" stroke="midnightblue" d="M117.89,-336.62C73.07,-323.34 0,-292.82 0,-235 0,-235 0,-235 0,-177 0,-130.82 49.06,-97.43 81.95,-80.23"/>
<polygon fill="midnightblue" stroke="midnightblue" points="83.79,-83.22 91.16,-75.61 80.65,-76.96 83.79,-83.22"/>
</g>
<!-- Node7 -->
<g id="node7" class="node">
<title>Node7</title>
<g id="a_node7"><a xlink:href="l4_2sys_2types_8h.html" target="_top" xlink:title="Common L4 ABI Data Types.">
<polygon fill="white" stroke="black" points="251,-168.5 251,-187.5 335,-187.5 335,-168.5 251,-168.5"/>
<text text-anchor="middle" x="293" y="-175.5" font-family="Helvetica,sans-Serif" font-size="10.00">l4/sys/types.h</text>
</a>
</g>
</g>
<!-- Node2&#45;&gt;Node7 -->
<g id="edge6" class="edge">
<title>Node2&#45;&gt;Node7</title>
<path fill="none" stroke="midnightblue" d="M156.05,-336.29C166.13,-315.22 194.09,-260.56 229,-224 240.62,-211.83 255.99,-200.89 268.75,-192.85"/>
<polygon fill="midnightblue" stroke="midnightblue" points="270.77,-195.72 277.5,-187.53 267.13,-189.74 270.77,-195.72"/>
</g>
<!-- Node10 -->
<g id="node10" class="node">
<title>Node10</title>
<g id="a_node10"><a xlink:href="sys_2kip_8h.html" target="_top" xlink:title="Kernel Info Page access functions.">
<polygon fill="white" stroke="black" points="257,-280.5 257,-299.5 329,-299.5 329,-280.5 257,-280.5"/>
<text text-anchor="middle" x="293" y="-287.5" font-family="Helvetica,sans-Serif" font-size="10.00">l4/sys/kip.h</text>
</a>
</g>
</g>
<!-- Node2&#45;&gt;Node10 -->
<g id="edge14" class="edge">
<title>Node2&#45;&gt;Node10</title>
<path fill="none" stroke="midnightblue" d="M174.34,-336.44C197.75,-327.48 234.74,-313.31 261.19,-303.18"/>
<polygon fill="midnightblue" stroke="midnightblue" points="262.68,-306.36 270.76,-299.52 260.17,-299.82 262.68,-306.36"/>
</g>
<!-- Node13 -->
<g id="node13" class="node">
<title>Node13</title>
<g id="a_node13"><a xlink:href="l4_2re_2consts_8h.html" target="_top" xlink:title="Constants.">
<polygon fill="white" stroke="black" points="108,-168.5 108,-187.5 190,-187.5 190,-168.5 108,-168.5"/>
<text text-anchor="middle" x="149" y="-175.5" font-family="Helvetica,sans-Serif" font-size="10.00">l4/re/consts.h</text>
</a>
</g>
</g>
<!-- Node2&#45;&gt;Node13 -->
<g id="edge21" class="edge">
<title>Node2&#45;&gt;Node13</title>
<path fill="none" stroke="midnightblue" d="M151.84,-336.08C151.37,-309.95 149.98,-233.21 149.34,-197.58"/>
<polygon fill="midnightblue" stroke="midnightblue" points="152.84,-197.5 149.15,-187.57 145.84,-197.63 152.84,-197.5"/>
</g>
<!-- Node3&#45;&gt;Node4 -->
<g id="edge3" class="edge">
<title>Node3&#45;&gt;Node4</title>
<path fill="none" stroke="midnightblue" d="M111,-112.08C111,-105.01 111,-94.86 111,-85.99"/>
<polygon fill="midnightblue" stroke="midnightblue" points="114.5,-85.75 111,-75.75 107.5,-85.75 114.5,-85.75"/>
</g>
<!-- Node6 -->
<g id="node6" class="node">
<title>Node6</title>
<g id="a_node6"><a xlink:href="l4_2sys_2l4int_8h.html" target="_top" xlink:title="Fixed sized integer types, generic version.">
<polygon fill="white" stroke="black" points="393.5,-56.5 393.5,-75.5 472.5,-75.5 472.5,-56.5 393.5,-56.5"/>
<text text-anchor="middle" x="433" y="-63.5" font-family="Helvetica,sans-Serif" font-size="10.00">l4/sys/l4int.h</text>
</a>
</g>
</g>
<!-- Node3&#45;&gt;Node6 -->
<g id="edge5" class="edge">
<title>Node3&#45;&gt;Node6</title>
<path fill="none" stroke="midnightblue" d="M155.77,-113.49C215.52,-103.47 321,-85.78 383.19,-75.35"/>
<polygon fill="midnightblue" stroke="midnightblue" points="383.88,-78.79 393.16,-73.68 382.72,-71.88 383.88,-78.79"/>
</g>
<!-- Node5 -->
<g id="node5" class="node">
<title>Node5</title>
<g id="a_node5"><a xlink:title=" ">
<polygon fill="white" stroke="#bfbfbf" points="65,-0.5 65,-19.5 157,-19.5 157,-0.5 65,-0.5"/>
<text text-anchor="middle" x="111" y="-7.5" font-family="Helvetica,sans-Serif" font-size="10.00">l4/sys/linkage.h</text>
</a>
</g>
</g>
<!-- Node4&#45;&gt;Node5 -->
<g id="edge4" class="edge">
<title>Node4&#45;&gt;Node5</title>
<path fill="none" stroke="midnightblue" d="M111,-56.08C111,-49.01 111,-38.86 111,-29.99"/>
<polygon fill="midnightblue" stroke="midnightblue" points="114.5,-29.75 111,-19.75 107.5,-29.75 114.5,-29.75"/>
</g>
<!-- Node7&#45;&gt;Node3 -->
<g id="edge9" class="edge">
<title>Node7&#45;&gt;Node3</title>
<path fill="none" stroke="midnightblue" d="M264.16,-168.44C233.14,-159.24 183.67,-144.56 149.38,-134.39"/>
<polygon fill="midnightblue" stroke="midnightblue" points="150.29,-131.01 139.7,-131.52 148.29,-137.72 150.29,-131.01"/>
</g>
<!-- Node7&#45;&gt;Node4 -->
<g id="edge8" class="edge">
<title>Node7&#45;&gt;Node4</title>
<path fill="none" stroke="midnightblue" d="M296.04,-168.35C300.2,-154.78 305.8,-128.35 293,-112 277.95,-92.78 218.06,-80.63 171.04,-73.87"/>
<polygon fill="midnightblue" stroke="midnightblue" points="171.3,-70.37 160.92,-72.47 170.34,-77.31 171.3,-70.37"/>
</g>
<!-- Node7&#45;&gt;Node6 -->
<g id="edge7" class="edge">
<title>Node7&#45;&gt;Node6</title>
<path fill="none" stroke="midnightblue" d="M335.12,-171.13C378.1,-164.16 440.52,-151.06 455,-132 465.76,-117.84 456.49,-98.09 446.89,-84.08"/>
<polygon fill="midnightblue" stroke="midnightblue" points="449.52,-81.76 440.74,-75.83 443.91,-85.94 449.52,-81.76"/>
</g>
<!-- Node8 -->
<g id="node8" class="node">
<title>Node8</title>
<g id="a_node8"><a xlink:href="____l4__fpage_8h_source.html" target="_top" xlink:title=" ">
<polygon fill="white" stroke="black" points="174,-112.5 174,-131.5 284,-131.5 284,-112.5 174,-112.5"/>
<text text-anchor="middle" x="229" y="-119.5" font-family="Helvetica,sans-Serif" font-size="10.00">l4/sys/__l4_fpage.h</text>
</a>
</g>
</g>
<!-- Node7&#45;&gt;Node8 -->
<g id="edge10" class="edge">
<title>Node7&#45;&gt;Node8</title>
<path fill="none" stroke="midnightblue" d="M282.72,-168.32C273.16,-160.26 258.72,-148.08 247.22,-138.37"/>
<polygon fill="midnightblue" stroke="midnightblue" points="249.37,-135.61 239.47,-131.83 244.86,-140.96 249.37,-135.61"/>
</g>
<!-- Node9 -->
<g id="node9" class="node">
<title>Node9</title>
<g id="a_node9"><a xlink:href="____timeout_8h_source.html" target="_top" xlink:title=" ">
<polygon fill="white" stroke="black" points="340,-112.5 340,-131.5 446,-131.5 446,-112.5 340,-112.5"/>
<text text-anchor="middle" x="393" y="-119.5" font-family="Helvetica,sans-Serif" font-size="10.00">l4/sys/__timeout.h</text>
</a>
</g>
</g>
<!-- Node7&#45;&gt;Node9 -->
<g id="edge12" class="edge">
<title>Node7&#45;&gt;Node9</title>
<path fill="none" stroke="midnightblue" d="M309.07,-168.32C324.96,-159.74 349.51,-146.49 367.96,-136.52"/>
<polygon fill="midnightblue" stroke="midnightblue" points="369.84,-139.49 376.97,-131.65 366.51,-133.33 369.84,-139.49"/>
</g>
<!-- Node8&#45;&gt;Node4 -->
<g id="edge11" class="edge">
<title>Node8&#45;&gt;Node4</title>
<path fill="none" stroke="midnightblue" d="M210.3,-112.44C191.06,-103.64 160.85,-89.81 138.8,-79.72"/>
<polygon fill="midnightblue" stroke="midnightblue" points="140.16,-76.5 129.61,-75.52 137.25,-82.86 140.16,-76.5"/>
</g>
<!-- Node9&#45;&gt;Node6 -->
<g id="edge13" class="edge">
<title>Node9&#45;&gt;Node6</title>
<path fill="none" stroke="midnightblue" d="M399.61,-112.08C405.26,-104.46 413.54,-93.26 420.45,-83.94"/>
<polygon fill="midnightblue" stroke="midnightblue" points="423.38,-85.87 426.52,-75.75 417.75,-81.7 423.38,-85.87"/>
</g>
<!-- Node10&#45;&gt;Node4 -->
<g id="edge15" class="edge">
<title>Node10&#45;&gt;Node4</title>
<path fill="none" stroke="midnightblue" d="M268.87,-280.49C230.02,-265.96 152.56,-233.45 99,-188 69.57,-163.03 40.63,-146.95 57,-112 63.04,-99.09 74.81,-88.6 85.82,-81"/>
<polygon fill="midnightblue" stroke="midnightblue" points="87.83,-83.87 94.37,-75.54 84.06,-77.97 87.83,-83.87"/>
</g>
<!-- Node10&#45;&gt;Node6 -->
<g id="edge16" class="edge">
<title>Node10&#45;&gt;Node6</title>
<path fill="none" stroke="midnightblue" d="M310.85,-280.37C349.39,-260.57 439.45,-207.69 471,-132 478.4,-114.25 464.74,-95.43 451.79,-82.64"/>
<polygon fill="midnightblue" stroke="midnightblue" points="454.14,-80.04 444.41,-75.85 449.4,-85.2 454.14,-80.04"/>
</g>
<!-- Node11 -->
<g id="node11" class="node">
<title>Node11</title>
<g id="a_node11"><a xlink:title=" ">
<polygon fill="white" stroke="#bfbfbf" points="540.5,-224.5 540.5,-243.5 647.5,-243.5 647.5,-224.5 540.5,-224.5"/>
<text text-anchor="middle" x="594" y="-231.5" font-family="Helvetica,sans-Serif" font-size="10.00">l4/sys/__kip&#45;arch.h</text>
</a>
</g>
</g>
<!-- Node10&#45;&gt;Node11 -->
<g id="edge17" class="edge">
<title>Node10&#45;&gt;Node11</title>
<path fill="none" stroke="midnightblue" d="M329.01,-282.54C380.45,-273.31 475.5,-256.26 536.68,-245.28"/>
<polygon fill="midnightblue" stroke="midnightblue" points="537.34,-248.72 546.57,-243.51 536.11,-241.83 537.34,-248.72"/>
</g>
<!-- Node12 -->
<g id="node12" class="node">
<title>Node12</title>
<g id="a_node12"><a xlink:href="____kip-64bit_8h_source.html" target="_top" xlink:title=" ">
<polygon fill="white" stroke="black" points="237.5,-224.5 237.5,-243.5 348.5,-243.5 348.5,-224.5 237.5,-224.5"/>
<text text-anchor="middle" x="293" y="-231.5" font-family="Helvetica,sans-Serif" font-size="10.00">l4/sys/__kip&#45;64bit.h</text>
</a>
</g>
</g>
<!-- Node10&#45;&gt;Node12 -->
<g id="edge18" class="edge">
<title>Node10&#45;&gt;Node12</title>
<path fill="none" stroke="midnightblue" d="M293,-280.08C293,-273.01 293,-262.86 293,-253.99"/>
<polygon fill="midnightblue" stroke="midnightblue" points="296.5,-253.75 293,-243.75 289.5,-253.75 296.5,-253.75"/>
</g>
<!-- Node12&#45;&gt;Node7 -->
<g id="edge19" class="edge">
<title>Node12&#45;&gt;Node7</title>
<path fill="none" stroke="midnightblue" d="M293,-224.08C293,-217.01 293,-206.86 293,-197.99"/>
<polygon fill="midnightblue" stroke="midnightblue" points="296.5,-197.75 293,-187.75 289.5,-197.75 296.5,-197.75"/>
</g>
<!-- Node13&#45;&gt;Node3 -->
<g id="edge22" class="edge">
<title>Node13&#45;&gt;Node3</title>
<path fill="none" stroke="midnightblue" d="M142.73,-168.08C137.36,-160.46 129.48,-149.26 122.92,-139.94"/>
<polygon fill="midnightblue" stroke="midnightblue" points="125.78,-137.91 117.16,-131.75 120.05,-141.94 125.78,-137.91"/>
</g>
</g>
</svg>
