<?xml version="1.0" encoding="UTF-8" standalone="no"?>
<!DOCTYPE svg PUBLIC "-//W3C//DTD SVG 1.1//EN"
 "http://www.w3.org/Graphics/SVG/1.1/DTD/svg11.dtd">
<!-- Generated by graphviz version 2.43.0 (0)
 -->
<!-- Title: l4/re/c/mem_alloc.h Pages: 1 -->
<svg width="567pt" height="420pt"
 viewBox="0.00 0.00 566.81 420.00" xmlns="http://www.w3.org/2000/svg" xmlns:xlink="http://www.w3.org/1999/xlink">
<g id="graph0" class="graph" transform="scale(1 1) rotate(0) translate(4 416)">
<title>l4/re/c/mem_alloc.h</title>
<polygon fill="white" stroke="transparent" points="-4,4 -4,-416 562.81,-416 562.81,4 -4,4"/>
<!-- Node1 -->
<g id="node1" class="node">
<title>Node1</title>
<g id="a_node1"><a xlink:title="Memory allocator C interface.">
<polygon fill="#bfbfbf" stroke="black" points="157.5,-392.5 157.5,-411.5 270.5,-411.5 270.5,-392.5 157.5,-392.5"/>
<text text-anchor="middle" x="214" y="-399.5" font-family="Helvetica,sans-Serif" font-size="10.00">l4/re/c/mem_alloc.h</text>
</a>
</g>
</g>
<!-- Node2 -->
<g id="node2" class="node">
<title>Node2</title>
<g id="a_node2"><a xlink:href="env_8h.html" target="_top" xlink:title="Environment interface.">
<polygon fill="white" stroke="black" points="180,-336.5 180,-355.5 248,-355.5 248,-336.5 180,-336.5"/>
<text text-anchor="middle" x="214" y="-343.5" font-family="Helvetica,sans-Serif" font-size="10.00">l4/re/env.h</text>
</a>
</g>
</g>
<!-- Node1&#45;&gt;Node2 -->
<g id="edge1" class="edge">
<title>Node1&#45;&gt;Node2</title>
<path fill="none" stroke="midnightblue" d="M214,-392.08C214,-385.01 214,-374.86 214,-365.99"/>
<polygon fill="midnightblue" stroke="midnightblue" points="217.5,-365.75 214,-355.75 210.5,-365.75 217.5,-365.75"/>
</g>
<!-- Node3 -->
<g id="node3" class="node">
<title>Node3</title>
<g id="a_node3"><a xlink:href="l4_2sys_2consts_8h.html" target="_top" xlink:title="Common constants.">
<polygon fill="white" stroke="black" points="58.5,-112.5 58.5,-131.5 147.5,-131.5 147.5,-112.5 58.5,-112.5"/>
<text text-anchor="middle" x="103" y="-119.5" font-family="Helvetica,sans-Serif" font-size="10.00">l4/sys/consts.h</text>
</a>
</g>
</g>
<!-- Node1&#45;&gt;Node3 -->
<g id="edge23" class="edge">
<title>Node1&#45;&gt;Node3</title>
<path fill="none" stroke="midnightblue" d="M157.49,-396.1C94.09,-387.15 0,-361.91 0,-291 0,-291 0,-291 0,-233 0,-202.9 0.04,-191.37 19,-168 31.03,-153.18 49.27,-142.58 65.69,-135.4"/>
<polygon fill="midnightblue" stroke="midnightblue" points="67.15,-138.59 75.08,-131.57 64.5,-132.11 67.15,-138.59"/>
</g>
<!-- Node14 -->
<g id="node14" class="node">
<title>Node14</title>
<g id="a_node14"><a xlink:href="dataspace_8h.html" target="_top" xlink:title="Data space C interface.">
<polygon fill="white" stroke="black" points="378.5,-336.5 378.5,-355.5 487.5,-355.5 487.5,-336.5 378.5,-336.5"/>
<text text-anchor="middle" x="433" y="-343.5" font-family="Helvetica,sans-Serif" font-size="10.00">l4/re/c/dataspace.h</text>
</a>
</g>
</g>
<!-- Node1&#45;&gt;Node14 -->
<g id="edge24" class="edge">
<title>Node1&#45;&gt;Node14</title>
<path fill="none" stroke="midnightblue" d="M248.7,-392.44C286.58,-383.1 347.35,-368.12 388.66,-357.93"/>
<polygon fill="midnightblue" stroke="midnightblue" points="389.59,-361.31 398.46,-355.52 387.91,-354.51 389.59,-361.31"/>
</g>
<!-- Node2&#45;&gt;Node3 -->
<g id="edge2" class="edge">
<title>Node2&#45;&gt;Node3</title>
<path fill="none" stroke="midnightblue" d="M209.65,-336.3C193.21,-303.42 134.7,-186.39 112.05,-141.09"/>
<polygon fill="midnightblue" stroke="midnightblue" points="115.04,-139.26 107.44,-131.88 108.78,-142.39 115.04,-139.26"/>
</g>
<!-- Node4 -->
<g id="node4" class="node">
<title>Node4</title>
<g id="a_node4"><a xlink:href="compiler_8h.html" target="_top" xlink:title="L4 compiler related defines.">
<polygon fill="white" stroke="black" points="409.5,-56.5 409.5,-75.5 508.5,-75.5 508.5,-56.5 409.5,-56.5"/>
<text text-anchor="middle" x="459" y="-63.5" font-family="Helvetica,sans-Serif" font-size="10.00">l4/sys/compiler.h</text>
</a>
</g>
</g>
<!-- Node2&#45;&gt;Node4 -->
<g id="edge20" class="edge">
<title>Node2&#45;&gt;Node4</title>
<path fill="none" stroke="midnightblue" d="M248.19,-340.83C307.32,-332.11 430.13,-307.24 511,-244 558.39,-206.94 574.36,-162.06 541,-112 531.01,-97 514.27,-86.55 498.51,-79.53"/>
<polygon fill="midnightblue" stroke="midnightblue" points="499.48,-76.14 488.9,-75.58 496.82,-82.61 499.48,-76.14"/>
</g>
<!-- Node7 -->
<g id="node7" class="node">
<title>Node7</title>
<g id="a_node7"><a xlink:href="l4_2sys_2types_8h.html" target="_top" xlink:title="Common L4 ABI Data Types.">
<polygon fill="white" stroke="black" points="315,-168.5 315,-187.5 399,-187.5 399,-168.5 315,-168.5"/>
<text text-anchor="middle" x="357" y="-175.5" font-family="Helvetica,sans-Serif" font-size="10.00">l4/sys/types.h</text>
</a>
</g>
</g>
<!-- Node2&#45;&gt;Node7 -->
<g id="edge6" class="edge">
<title>Node2&#45;&gt;Node7</title>
<path fill="none" stroke="midnightblue" d="M212.71,-336.19C210.04,-314.42 206.29,-257.45 234,-224 251.55,-202.82 279.97,-191.61 305.07,-185.68"/>
<polygon fill="midnightblue" stroke="midnightblue" points="305.81,-189.1 314.86,-183.58 304.35,-182.25 305.81,-189.1"/>
</g>
<!-- Node10 -->
<g id="node10" class="node">
<title>Node10</title>
<g id="a_node10"><a xlink:href="sys_2kip_8h.html" target="_top" xlink:title="Kernel Info Page access functions.">
<polygon fill="white" stroke="black" points="260,-280.5 260,-299.5 332,-299.5 332,-280.5 260,-280.5"/>
<text text-anchor="middle" x="296" y="-287.5" font-family="Helvetica,sans-Serif" font-size="10.00">l4/sys/kip.h</text>
</a>
</g>
</g>
<!-- Node2&#45;&gt;Node10 -->
<g id="edge14" class="edge">
<title>Node2&#45;&gt;Node10</title>
<path fill="none" stroke="midnightblue" d="M227.17,-336.32C239.85,-327.98 259.23,-315.21 274.21,-305.35"/>
<polygon fill="midnightblue" stroke="midnightblue" points="276.43,-308.08 282.86,-299.65 272.58,-302.23 276.43,-308.08"/>
</g>
<!-- Node13 -->
<g id="node13" class="node">
<title>Node13</title>
<g id="a_node13"><a xlink:href="l4_2re_2consts_8h.html" target="_top" xlink:title="Constants.">
<polygon fill="white" stroke="black" points="28,-168.5 28,-187.5 110,-187.5 110,-168.5 28,-168.5"/>
<text text-anchor="middle" x="69" y="-175.5" font-family="Helvetica,sans-Serif" font-size="10.00">l4/re/consts.h</text>
</a>
</g>
</g>
<!-- Node2&#45;&gt;Node13 -->
<g id="edge21" class="edge">
<title>Node2&#45;&gt;Node13</title>
<path fill="none" stroke="midnightblue" d="M185.34,-336.35C165.93,-329.25 140.85,-317.49 124,-300 95.55,-270.47 80.09,-223.63 73.3,-197.75"/>
<polygon fill="midnightblue" stroke="midnightblue" points="76.63,-196.63 70.84,-187.75 69.83,-198.3 76.63,-196.63"/>
</g>
<!-- Node3&#45;&gt;Node4 -->
<g id="edge3" class="edge">
<title>Node3&#45;&gt;Node4</title>
<path fill="none" stroke="midnightblue" d="M147.73,-114.22C211.36,-104.56 328.16,-86.85 399.18,-76.07"/>
<polygon fill="midnightblue" stroke="midnightblue" points="399.95,-79.5 409.31,-74.54 398.9,-72.58 399.95,-79.5"/>
</g>
<!-- Node6 -->
<g id="node6" class="node">
<title>Node6</title>
<g id="a_node6"><a xlink:href="l4_2sys_2l4int_8h.html" target="_top" xlink:title="Fixed sized integer types, generic version.">
<polygon fill="white" stroke="black" points="177.5,-56.5 177.5,-75.5 256.5,-75.5 256.5,-56.5 177.5,-56.5"/>
<text text-anchor="middle" x="217" y="-63.5" font-family="Helvetica,sans-Serif" font-size="10.00">l4/sys/l4int.h</text>
</a>
</g>
</g>
<!-- Node3&#45;&gt;Node6 -->
<g id="edge5" class="edge">
<title>Node3&#45;&gt;Node6</title>
<path fill="none" stroke="midnightblue" d="M121.06,-112.44C139.57,-103.68 168.58,-89.94 189.86,-79.86"/>
<polygon fill="midnightblue" stroke="midnightblue" points="191.48,-82.96 199.02,-75.52 188.49,-76.63 191.48,-82.96"/>
</g>
<!-- Node5 -->
<g id="node5" class="node">
<title>Node5</title>
<g id="a_node5"><a xlink:title=" ">
<polygon fill="white" stroke="#bfbfbf" points="413,-0.5 413,-19.5 505,-19.5 505,-0.5 413,-0.5"/>
<text text-anchor="middle" x="459" y="-7.5" font-family="Helvetica,sans-Serif" font-size="10.00">l4/sys/linkage.h</text>
</a>
</g>
</g>
<!-- Node4&#45;&gt;Node5 -->
<g id="edge4" class="edge">
<title>Node4&#45;&gt;Node5</title>
<path fill="none" stroke="midnightblue" d="M459,-56.08C459,-49.01 459,-38.86 459,-29.99"/>
<polygon fill="midnightblue" stroke="midnightblue" points="462.5,-29.75 459,-19.75 455.5,-29.75 462.5,-29.75"/>
</g>
<!-- Node7&#45;&gt;Node3 -->
<g id="edge9" class="edge">
<title>Node7&#45;&gt;Node3</title>
<path fill="none" stroke="midnightblue" d="M316.75,-168.44C272.35,-159 200.85,-143.8 152.91,-133.61"/>
<polygon fill="midnightblue" stroke="midnightblue" points="153.57,-130.17 143.06,-131.52 152.11,-137.02 153.57,-130.17"/>
</g>
<!-- Node7&#45;&gt;Node4 -->
<g id="edge8" class="edge">
<title>Node7&#45;&gt;Node4</title>
<path fill="none" stroke="midnightblue" d="M360.65,-168.24C366.48,-154.98 378.9,-129.51 395,-112 406.32,-99.69 421.55,-88.81 434.32,-80.84"/>
<polygon fill="midnightblue" stroke="midnightblue" points="436.32,-83.72 443.09,-75.56 432.71,-77.72 436.32,-83.72"/>
</g>
<!-- Node7&#45;&gt;Node6 -->
<g id="edge7" class="edge">
<title>Node7&#45;&gt;Node6</title>
<path fill="none" stroke="midnightblue" d="M353.93,-168.27C348.72,-154.59 336.94,-128.01 319,-112 301.87,-96.72 278.73,-85.94 258.81,-78.77"/>
<polygon fill="midnightblue" stroke="midnightblue" points="259.93,-75.45 249.33,-75.53 257.67,-82.07 259.93,-75.45"/>
</g>
<!-- Node8 -->
<g id="node8" class="node">
<title>Node8</title>
<g id="a_node8"><a xlink:href="____l4__fpage_8h_source.html" target="_top" xlink:title=" ">
<polygon fill="white" stroke="black" points="404,-112.5 404,-131.5 514,-131.5 514,-112.5 404,-112.5"/>
<text text-anchor="middle" x="459" y="-119.5" font-family="Helvetica,sans-Serif" font-size="10.00">l4/sys/__l4_fpage.h</text>
</a>
</g>
</g>
<!-- Node7&#45;&gt;Node8 -->
<g id="edge10" class="edge">
<title>Node7&#45;&gt;Node8</title>
<path fill="none" stroke="midnightblue" d="M373.39,-168.32C389.67,-159.7 414.87,-146.36 433.72,-136.39"/>
<polygon fill="midnightblue" stroke="midnightblue" points="435.45,-139.43 442.65,-131.65 432.18,-133.24 435.45,-139.43"/>
</g>
<!-- Node9 -->
<g id="node9" class="node">
<title>Node9</title>
<g id="a_node9"><a xlink:href="____timeout_8h_source.html" target="_top" xlink:title=" ">
<polygon fill="white" stroke="black" points="204,-112.5 204,-131.5 310,-131.5 310,-112.5 204,-112.5"/>
<text text-anchor="middle" x="257" y="-119.5" font-family="Helvetica,sans-Serif" font-size="10.00">l4/sys/__timeout.h</text>
</a>
</g>
</g>
<!-- Node7&#45;&gt;Node9 -->
<g id="edge12" class="edge">
<title>Node7&#45;&gt;Node9</title>
<path fill="none" stroke="midnightblue" d="M340.93,-168.32C325.04,-159.74 300.49,-146.49 282.04,-136.52"/>
<polygon fill="midnightblue" stroke="midnightblue" points="283.49,-133.33 273.03,-131.65 280.16,-139.49 283.49,-133.33"/>
</g>
<!-- Node8&#45;&gt;Node4 -->
<g id="edge11" class="edge">
<title>Node8&#45;&gt;Node4</title>
<path fill="none" stroke="midnightblue" d="M459,-112.08C459,-105.01 459,-94.86 459,-85.99"/>
<polygon fill="midnightblue" stroke="midnightblue" points="462.5,-85.75 459,-75.75 455.5,-85.75 462.5,-85.75"/>
</g>
<!-- Node9&#45;&gt;Node6 -->
<g id="edge13" class="edge">
<title>Node9&#45;&gt;Node6</title>
<path fill="none" stroke="midnightblue" d="M250.39,-112.08C244.74,-104.46 236.46,-93.26 229.55,-83.94"/>
<polygon fill="midnightblue" stroke="midnightblue" points="232.25,-81.7 223.48,-75.75 226.62,-85.87 232.25,-81.7"/>
</g>
<!-- Node10&#45;&gt;Node4 -->
<g id="edge15" class="edge">
<title>Node10&#45;&gt;Node4</title>
<path fill="none" stroke="midnightblue" d="M332.4,-284.79C381.58,-278.4 465.69,-264.75 488,-244 532.45,-202.67 550.97,-165.86 523,-112 515.85,-98.23 502.33,-87.78 489.55,-80.44"/>
<polygon fill="midnightblue" stroke="midnightblue" points="490.96,-77.23 480.48,-75.64 487.68,-83.41 490.96,-77.23"/>
</g>
<!-- Node10&#45;&gt;Node6 -->
<g id="edge16" class="edge">
<title>Node10&#45;&gt;Node6</title>
<path fill="none" stroke="midnightblue" d="M279.03,-280.48C265.14,-272.71 245.9,-260.01 234,-244 197.52,-194.9 181.21,-171.6 195,-112 197.23,-102.36 201.82,-92.41 206.24,-84.31"/>
<polygon fill="midnightblue" stroke="midnightblue" points="209.35,-85.92 211.36,-75.52 203.3,-82.4 209.35,-85.92"/>
</g>
<!-- Node11 -->
<g id="node11" class="node">
<title>Node11</title>
<g id="a_node11"><a xlink:title=" ">
<polygon fill="white" stroke="#bfbfbf" points="242.5,-224.5 242.5,-243.5 349.5,-243.5 349.5,-224.5 242.5,-224.5"/>
<text text-anchor="middle" x="296" y="-231.5" font-family="Helvetica,sans-Serif" font-size="10.00">l4/sys/__kip&#45;arch.h</text>
</a>
</g>
</g>
<!-- Node10&#45;&gt;Node11 -->
<g id="edge17" class="edge">
<title>Node10&#45;&gt;Node11</title>
<path fill="none" stroke="midnightblue" d="M296,-280.08C296,-273.01 296,-262.86 296,-253.99"/>
<polygon fill="midnightblue" stroke="midnightblue" points="299.5,-253.75 296,-243.75 292.5,-253.75 299.5,-253.75"/>
</g>
<!-- Node12 -->
<g id="node12" class="node">
<title>Node12</title>
<g id="a_node12"><a xlink:href="____kip-64bit_8h_source.html" target="_top" xlink:title=" ">
<polygon fill="white" stroke="black" points="367.5,-224.5 367.5,-243.5 478.5,-243.5 478.5,-224.5 367.5,-224.5"/>
<text text-anchor="middle" x="423" y="-231.5" font-family="Helvetica,sans-Serif" font-size="10.00">l4/sys/__kip&#45;64bit.h</text>
</a>
</g>
</g>
<!-- Node10&#45;&gt;Node12 -->
<g id="edge18" class="edge">
<title>Node10&#45;&gt;Node12</title>
<path fill="none" stroke="midnightblue" d="M316.12,-280.44C337.02,-271.56 369.93,-257.56 393.72,-247.45"/>
<polygon fill="midnightblue" stroke="midnightblue" points="395.14,-250.65 402.97,-243.52 392.4,-244.21 395.14,-250.65"/>
</g>
<!-- Node12&#45;&gt;Node7 -->
<g id="edge19" class="edge">
<title>Node12&#45;&gt;Node7</title>
<path fill="none" stroke="midnightblue" d="M412.4,-224.32C402.54,-216.26 387.65,-204.08 375.78,-194.37"/>
<polygon fill="midnightblue" stroke="midnightblue" points="377.75,-191.46 367.8,-187.83 373.32,-196.88 377.75,-191.46"/>
</g>
<!-- Node13&#45;&gt;Node3 -->
<g id="edge22" class="edge">
<title>Node13&#45;&gt;Node3</title>
<path fill="none" stroke="midnightblue" d="M74.61,-168.08C79.37,-160.53 86.32,-149.49 92.15,-140.23"/>
<polygon fill="midnightblue" stroke="midnightblue" points="95.12,-142.08 97.49,-131.75 89.2,-138.35 95.12,-142.08"/>
</g>
<!-- Node14&#45;&gt;Node7 -->
<g id="edge25" class="edge">
<title>Node14&#45;&gt;Node7</title>
<path fill="none" stroke="midnightblue" d="M442.6,-336.49C464.69,-315.87 515.22,-262.13 488,-224 470.14,-198.99 437.47,-187.73 409.22,-182.73"/>
<polygon fill="midnightblue" stroke="midnightblue" points="409.46,-179.23 399.05,-181.16 408.39,-186.15 409.46,-179.23"/>
</g>
</g>
</svg>
