<?xml version="1.0" encoding="UTF-8" standalone="no"?>
<!DOCTYPE svg PUBLIC "-//W3C//DTD SVG 1.1//EN"
 "http://www.w3.org/Graphics/SVG/1.1/DTD/svg11.dtd">
<!-- Generated by graphviz version 2.43.0 (0)
 -->
<!-- Title: l4/re/mem_alloc Pages: 1 -->
<svg width="894pt" height="823pt"
 viewBox="0.00 0.00 893.66 823.00" xmlns="http://www.w3.org/2000/svg" xmlns:xlink="http://www.w3.org/1999/xlink">
<g id="graph0" class="graph" transform="scale(1 1) rotate(0) translate(4 819)">
<title>l4/re/mem_alloc</title>
<polygon fill="white" stroke="transparent" points="-4,4 -4,-819 889.66,-819 889.66,4 -4,4"/>
<!-- Node1 -->
<g id="node1" class="node">
<title>Node1</title>
<g id="a_node1"><a xlink:title="Memory allocator interface.">
<polygon fill="#bfbfbf" stroke="black" points="449.5,-795.5 449.5,-814.5 544.5,-814.5 544.5,-795.5 449.5,-795.5"/>
<text text-anchor="middle" x="497" y="-802.5" font-family="Helvetica,sans-Serif" font-size="10.00">l4/re/mem_alloc</text>
</a>
</g>
</g>
<!-- Node2 -->
<g id="node2" class="node">
<title>Node2</title>
<g id="a_node2"><a xlink:href="capability.html" target="_top" xlink:title="L4::Cap related definitions.">
<polygon fill="white" stroke="black" points="490,-683.5 490,-702.5 586,-702.5 586,-683.5 490,-683.5"/>
<text text-anchor="middle" x="538" y="-690.5" font-family="Helvetica,sans-Serif" font-size="10.00">l4/sys/capability</text>
</a>
</g>
</g>
<!-- Node1&#45;&gt;Node2 -->
<g id="edge1" class="edge">
<title>Node1&#45;&gt;Node2</title>
<path fill="none" stroke="midnightblue" d="M500.22,-795.37C506.86,-777.54 522.24,-736.3 531.19,-712.27"/>
<polygon fill="midnightblue" stroke="midnightblue" points="534.58,-713.18 534.8,-702.59 528.03,-710.74 534.58,-713.18"/>
</g>
<!-- Node26 -->
<g id="node26" class="node">
<title>Node26</title>
<g id="a_node26"><a xlink:href="factory.html" target="_top" xlink:title="Common factory related definitions.">
<polygon fill="white" stroke="black" points="420.5,-739.5 420.5,-758.5 503.5,-758.5 503.5,-739.5 420.5,-739.5"/>
<text text-anchor="middle" x="462" y="-746.5" font-family="Helvetica,sans-Serif" font-size="10.00">l4/sys/factory</text>
</a>
</g>
</g>
<!-- Node1&#45;&gt;Node26 -->
<g id="edge60" class="edge">
<title>Node1&#45;&gt;Node26</title>
<path fill="none" stroke="midnightblue" d="M491.22,-795.08C486.33,-787.53 479.17,-776.49 473.17,-767.23"/>
<polygon fill="midnightblue" stroke="midnightblue" points="476.05,-765.24 467.67,-758.75 470.17,-769.05 476.05,-765.24"/>
</g>
<!-- Node3 -->
<g id="node3" class="node">
<title>Node3</title>
<g id="a_node3"><a xlink:href="l4_2sys_2consts_8h.html" target="_top" xlink:title="Common constants.">
<polygon fill="white" stroke="black" points="438.5,-112.5 438.5,-131.5 527.5,-131.5 527.5,-112.5 438.5,-112.5"/>
<text text-anchor="middle" x="483" y="-119.5" font-family="Helvetica,sans-Serif" font-size="10.00">l4/sys/consts.h</text>
</a>
</g>
</g>
<!-- Node2&#45;&gt;Node3 -->
<g id="edge2" class="edge">
<title>Node2&#45;&gt;Node3</title>
<path fill="none" stroke="midnightblue" d="M489.78,-687.55C357.73,-674.04 0,-628.02 0,-526 0,-526 0,-526 0,-233 0,-146 301.66,-127.81 428.18,-124.01"/>
<polygon fill="midnightblue" stroke="midnightblue" points="428.53,-127.5 438.43,-123.72 428.33,-120.5 428.53,-127.5"/>
</g>
<!-- Node7 -->
<g id="node7" class="node">
<title>Node7</title>
<g id="a_node7"><a xlink:href="l4_2sys_2types_8h.html" target="_top" xlink:title="Common L4 ABI Data Types.">
<polygon fill="white" stroke="black" points="635,-168.5 635,-187.5 719,-187.5 719,-168.5 635,-168.5"/>
<text text-anchor="middle" x="677" y="-175.5" font-family="Helvetica,sans-Serif" font-size="10.00">l4/sys/types.h</text>
</a>
</g>
</g>
<!-- Node2&#45;&gt;Node7 -->
<g id="edge6" class="edge">
<title>Node2&#45;&gt;Node7</title>
<path fill="none" stroke="midnightblue" d="M586.22,-690.7C640.2,-687.69 729.23,-677.95 799,-647 841.83,-628 882,-628.85 882,-582 882,-582 882,-582 882,-289 882,-219.89 790.42,-194.02 729.68,-184.47"/>
<polygon fill="midnightblue" stroke="midnightblue" points="729.88,-180.96 719.48,-182.97 728.86,-187.88 729.88,-180.96"/>
</g>
<!-- Node10 -->
<g id="node10" class="node">
<title>Node10</title>
<g id="a_node10"><a xlink:href="kobject_source.html" target="_top" xlink:title=" ">
<polygon fill="white" stroke="black" points="578.5,-515.5 578.5,-534.5 661.5,-534.5 661.5,-515.5 578.5,-515.5"/>
<text text-anchor="middle" x="620" y="-522.5" font-family="Helvetica,sans-Serif" font-size="10.00">l4/sys/kobject</text>
</a>
</g>
</g>
<!-- Node2&#45;&gt;Node10 -->
<g id="edge14" class="edge">
<title>Node2&#45;&gt;Node10</title>
<path fill="none" stroke="midnightblue" d="M548.05,-683.27C557.23,-674.81 570.63,-661.2 579,-647 598.74,-613.53 610.66,-569.21 616.22,-544.56"/>
<polygon fill="midnightblue" stroke="midnightblue" points="619.66,-545.24 618.33,-534.73 612.81,-543.77 619.66,-545.24"/>
</g>
<!-- Node20 -->
<g id="node20" class="node">
<title>Node20</title>
<g id="a_node20"><a xlink:href="l4_2sys_2task_8h.html" target="_top" xlink:title="Common task related definitions.">
<polygon fill="white" stroke="black" points="662,-342 662,-361 740,-361 740,-342 662,-342"/>
<text text-anchor="middle" x="701" y="-349" font-family="Helvetica,sans-Serif" font-size="10.00">l4/sys/task.h</text>
</a>
</g>
</g>
<!-- Node2&#45;&gt;Node20 -->
<g id="edge43" class="edge">
<title>Node2&#45;&gt;Node20</title>
<path fill="none" stroke="midnightblue" d="M586.22,-692.83C663.38,-691.35 806,-675.93 806,-582 806,-582 806,-582 806,-468 806,-421.09 758,-384.81 726.9,-366.24"/>
<polygon fill="midnightblue" stroke="midnightblue" points="728.28,-362.99 717.87,-361.05 724.8,-369.06 728.28,-362.99"/>
</g>
<!-- Node21 -->
<g id="node21" class="node">
<title>Node21</title>
<g id="a_node21"><a xlink:href="sys_2meta.html" target="_top" xlink:title="Meta interface for getting dynamic type information about objects behind capabilities.">
<polygon fill="white" stroke="black" points="496,-627.5 496,-646.5 570,-646.5 570,-627.5 496,-627.5"/>
<text text-anchor="middle" x="533" y="-634.5" font-family="Helvetica,sans-Serif" font-size="10.00">l4/sys/meta</text>
</a>
</g>
</g>
<!-- Node2&#45;&gt;Node21 -->
<g id="edge44" class="edge">
<title>Node2&#45;&gt;Node21</title>
<path fill="none" stroke="midnightblue" d="M537.17,-683.08C536.52,-676.01 535.58,-665.86 534.76,-656.99"/>
<polygon fill="midnightblue" stroke="midnightblue" points="538.22,-656.39 533.81,-646.75 531.25,-657.03 538.22,-656.39"/>
</g>
<!-- Node4 -->
<g id="node4" class="node">
<title>Node4</title>
<g id="a_node4"><a xlink:href="compiler_8h.html" target="_top" xlink:title="L4 compiler related defines.">
<polygon fill="white" stroke="black" points="433.5,-56.5 433.5,-75.5 532.5,-75.5 532.5,-56.5 433.5,-56.5"/>
<text text-anchor="middle" x="483" y="-63.5" font-family="Helvetica,sans-Serif" font-size="10.00">l4/sys/compiler.h</text>
</a>
</g>
</g>
<!-- Node3&#45;&gt;Node4 -->
<g id="edge3" class="edge">
<title>Node3&#45;&gt;Node4</title>
<path fill="none" stroke="midnightblue" d="M483,-112.08C483,-105.01 483,-94.86 483,-85.99"/>
<polygon fill="midnightblue" stroke="midnightblue" points="486.5,-85.75 483,-75.75 479.5,-85.75 486.5,-85.75"/>
</g>
<!-- Node6 -->
<g id="node6" class="node">
<title>Node6</title>
<g id="a_node6"><a xlink:href="l4_2sys_2l4int_8h.html" target="_top" xlink:title="Fixed sized integer types, generic version.">
<polygon fill="white" stroke="black" points="803.5,-56.5 803.5,-75.5 882.5,-75.5 882.5,-56.5 803.5,-56.5"/>
<text text-anchor="middle" x="843" y="-63.5" font-family="Helvetica,sans-Serif" font-size="10.00">l4/sys/l4int.h</text>
</a>
</g>
</g>
<!-- Node3&#45;&gt;Node6 -->
<g id="edge5" class="edge">
<title>Node3&#45;&gt;Node6</title>
<path fill="none" stroke="midnightblue" d="M527.5,-114.32C595.01,-104.2 722.87,-85.02 793.32,-74.45"/>
<polygon fill="midnightblue" stroke="midnightblue" points="793.92,-77.9 803.29,-72.96 792.88,-70.98 793.92,-77.9"/>
</g>
<!-- Node5 -->
<g id="node5" class="node">
<title>Node5</title>
<g id="a_node5"><a xlink:title=" ">
<polygon fill="white" stroke="#bfbfbf" points="437,-0.5 437,-19.5 529,-19.5 529,-0.5 437,-0.5"/>
<text text-anchor="middle" x="483" y="-7.5" font-family="Helvetica,sans-Serif" font-size="10.00">l4/sys/linkage.h</text>
</a>
</g>
</g>
<!-- Node4&#45;&gt;Node5 -->
<g id="edge4" class="edge">
<title>Node4&#45;&gt;Node5</title>
<path fill="none" stroke="midnightblue" d="M483,-56.08C483,-49.01 483,-38.86 483,-29.99"/>
<polygon fill="midnightblue" stroke="midnightblue" points="486.5,-29.75 483,-19.75 479.5,-29.75 486.5,-29.75"/>
</g>
<!-- Node7&#45;&gt;Node3 -->
<g id="edge9" class="edge">
<title>Node7&#45;&gt;Node3</title>
<path fill="none" stroke="midnightblue" d="M646.26,-168.44C613.06,-159.2 560.01,-144.44 523.44,-134.26"/>
<polygon fill="midnightblue" stroke="midnightblue" points="524.17,-130.83 513.6,-131.52 522.29,-137.57 524.17,-130.83"/>
</g>
<!-- Node7&#45;&gt;Node4 -->
<g id="edge8" class="edge">
<title>Node7&#45;&gt;Node4</title>
<path fill="none" stroke="midnightblue" d="M663.66,-168.49C643.59,-155.78 604.3,-131.26 570,-112 549.98,-100.76 526.88,-88.86 509.52,-80.12"/>
<polygon fill="midnightblue" stroke="midnightblue" points="511.03,-76.96 500.52,-75.62 507.89,-83.22 511.03,-76.96"/>
</g>
<!-- Node7&#45;&gt;Node6 -->
<g id="edge7" class="edge">
<title>Node7&#45;&gt;Node6</title>
<path fill="none" stroke="midnightblue" d="M719.1,-172.91C768.86,-167.11 847.18,-154.59 865,-132 876.02,-118.04 866.7,-98.25 857.02,-84.19"/>
<polygon fill="midnightblue" stroke="midnightblue" points="859.61,-81.8 850.82,-75.89 854,-85.99 859.61,-81.8"/>
</g>
<!-- Node8 -->
<g id="node8" class="node">
<title>Node8</title>
<g id="a_node8"><a xlink:href="____l4__fpage_8h_source.html" target="_top" xlink:title=" ">
<polygon fill="white" stroke="black" points="622,-112.5 622,-131.5 732,-131.5 732,-112.5 622,-112.5"/>
<text text-anchor="middle" x="677" y="-119.5" font-family="Helvetica,sans-Serif" font-size="10.00">l4/sys/__l4_fpage.h</text>
</a>
</g>
</g>
<!-- Node7&#45;&gt;Node8 -->
<g id="edge10" class="edge">
<title>Node7&#45;&gt;Node8</title>
<path fill="none" stroke="midnightblue" d="M677,-168.08C677,-161.01 677,-150.86 677,-141.99"/>
<polygon fill="midnightblue" stroke="midnightblue" points="680.5,-141.75 677,-131.75 673.5,-141.75 680.5,-141.75"/>
</g>
<!-- Node9 -->
<g id="node9" class="node">
<title>Node9</title>
<g id="a_node9"><a xlink:href="____timeout_8h_source.html" target="_top" xlink:title=" ">
<polygon fill="white" stroke="black" points="750,-112.5 750,-131.5 856,-131.5 856,-112.5 750,-112.5"/>
<text text-anchor="middle" x="803" y="-119.5" font-family="Helvetica,sans-Serif" font-size="10.00">l4/sys/__timeout.h</text>
</a>
</g>
</g>
<!-- Node7&#45;&gt;Node9 -->
<g id="edge12" class="edge">
<title>Node7&#45;&gt;Node9</title>
<path fill="none" stroke="midnightblue" d="M696.97,-168.44C717.61,-159.6 750.06,-145.69 773.63,-135.59"/>
<polygon fill="midnightblue" stroke="midnightblue" points="775.32,-138.67 783.13,-131.52 772.56,-132.24 775.32,-138.67"/>
</g>
<!-- Node8&#45;&gt;Node4 -->
<g id="edge11" class="edge">
<title>Node8&#45;&gt;Node4</title>
<path fill="none" stroke="midnightblue" d="M646.26,-112.44C613.06,-103.2 560.01,-88.44 523.44,-78.26"/>
<polygon fill="midnightblue" stroke="midnightblue" points="524.17,-74.83 513.6,-75.52 522.29,-81.57 524.17,-74.83"/>
</g>
<!-- Node9&#45;&gt;Node6 -->
<g id="edge13" class="edge">
<title>Node9&#45;&gt;Node6</title>
<path fill="none" stroke="midnightblue" d="M809.61,-112.08C815.26,-104.46 823.54,-93.26 830.45,-83.94"/>
<polygon fill="midnightblue" stroke="midnightblue" points="833.38,-85.87 836.52,-75.75 827.75,-81.7 833.38,-85.87"/>
</g>
<!-- Node10&#45;&gt;Node7 -->
<g id="edge29" class="edge">
<title>Node10&#45;&gt;Node7</title>
<path fill="none" stroke="midnightblue" d="M653.05,-515.41C715.36,-497.01 844,-447.52 844,-352.5 844,-352.5 844,-352.5 844,-289 844,-233.13 778.02,-204.04 729,-190.13"/>
<polygon fill="midnightblue" stroke="midnightblue" points="729.71,-186.7 719.14,-187.47 727.88,-193.46 729.71,-186.7"/>
</g>
<!-- Node11 -->
<g id="node11" class="node">
<title>Node11</title>
<g id="a_node11"><a xlink:href="kernel__object_8h.html" target="_top" xlink:title="Kernel object system calls.">
<polygon fill="white" stroke="black" points="570.5,-403.5 570.5,-422.5 661.5,-422.5 661.5,-403.5 570.5,-403.5"/>
<text text-anchor="middle" x="616" y="-410.5" font-family="Helvetica,sans-Serif" font-size="10.00">kernel_object.h</text>
</a>
</g>
</g>
<!-- Node10&#45;&gt;Node11 -->
<g id="edge15" class="edge">
<title>Node10&#45;&gt;Node11</title>
<path fill="none" stroke="midnightblue" d="M619.69,-515.37C619.04,-497.62 617.55,-456.67 616.68,-432.6"/>
<polygon fill="midnightblue" stroke="midnightblue" points="620.17,-432.46 616.31,-422.59 613.18,-432.71 620.17,-432.46"/>
</g>
<!-- Node16 -->
<g id="node16" class="node">
<title>Node16</title>
<g id="a_node16"><a xlink:href="____typeinfo_8h.html" target="_top" xlink:title="Type information handling.">
<polygon fill="white" stroke="black" points="518.5,-459.5 518.5,-478.5 595.5,-478.5 595.5,-459.5 518.5,-459.5"/>
<text text-anchor="middle" x="557" y="-466.5" font-family="Helvetica,sans-Serif" font-size="10.00">__typeinfo.h</text>
</a>
</g>
</g>
<!-- Node10&#45;&gt;Node16 -->
<g id="edge30" class="edge">
<title>Node10&#45;&gt;Node16</title>
<path fill="none" stroke="midnightblue" d="M609.88,-515.32C600.47,-507.26 586.26,-495.08 574.93,-485.37"/>
<polygon fill="midnightblue" stroke="midnightblue" points="577.18,-482.68 567.31,-478.83 572.62,-488 577.18,-482.68"/>
</g>
<!-- Node11&#45;&gt;Node4 -->
<g id="edge17" class="edge">
<title>Node11&#45;&gt;Node4</title>
<path fill="none" stroke="midnightblue" d="M570.36,-403.79C547.03,-397.41 519.87,-386.26 502,-367 427.61,-286.83 445.41,-240.13 429,-132 427.67,-123.21 425.23,-120.05 429,-112 435.04,-99.09 446.81,-88.6 457.82,-81"/>
<polygon fill="midnightblue" stroke="midnightblue" points="459.83,-83.87 466.37,-75.54 456.06,-77.97 459.83,-83.87"/>
</g>
<!-- Node11&#45;&gt;Node7 -->
<g id="edge16" class="edge">
<title>Node11&#45;&gt;Node7</title>
<path fill="none" stroke="midnightblue" d="M661.68,-412.13C696.95,-409.51 743.71,-399.52 768,-367 791.96,-334.92 781.81,-289.69 737,-224 728.29,-211.23 714.75,-200.62 702.74,-192.92"/>
<polygon fill="midnightblue" stroke="midnightblue" points="704.32,-189.79 693.95,-187.61 700.7,-195.78 704.32,-189.79"/>
</g>
<!-- Node12 -->
<g id="node12" class="node">
<title>Node12</title>
<g id="a_node12"><a xlink:href="l4_2sys_2utcb_8h.html" target="_top" xlink:title="UTCB definitions.">
<polygon fill="white" stroke="black" points="633,-224.5 633,-243.5 711,-243.5 711,-224.5 633,-224.5"/>
<text text-anchor="middle" x="672" y="-231.5" font-family="Helvetica,sans-Serif" font-size="10.00">l4/sys/utcb.h</text>
</a>
</g>
</g>
<!-- Node11&#45;&gt;Node12 -->
<g id="edge18" class="edge">
<title>Node11&#45;&gt;Node12</title>
<path fill="none" stroke="midnightblue" d="M661.57,-409.65C691.74,-405.43 729.25,-394.53 749,-367 777.84,-326.8 723.81,-275.13 692.34,-250.03"/>
<polygon fill="midnightblue" stroke="midnightblue" points="694.19,-247.04 684.15,-243.68 689.91,-252.57 694.19,-247.04"/>
</g>
<!-- Node13 -->
<g id="node13" class="node">
<title>Node13</title>
<g id="a_node13"><a xlink:href="____kernel__object__impl_8h.html" target="_top" xlink:title="Low&#45;level kernel debugger functions.">
<polygon fill="white" stroke="black" points="520,-336.5 520,-366.5 644,-366.5 644,-336.5 520,-336.5"/>
<text text-anchor="start" x="528" y="-354.5" font-family="Helvetica,sans-Serif" font-size="10.00">l4/sys/__kernel_object</text>
<text text-anchor="middle" x="582" y="-343.5" font-family="Helvetica,sans-Serif" font-size="10.00">_impl.h</text>
</a>
</g>
</g>
<!-- Node11&#45;&gt;Node13 -->
<g id="edge22" class="edge">
<title>Node11&#45;&gt;Node13</title>
<path fill="none" stroke="midnightblue" d="M611.13,-403.48C606.95,-396.17 600.74,-385.3 595.13,-375.47"/>
<polygon fill="midnightblue" stroke="midnightblue" points="598.01,-373.47 590.01,-366.52 591.94,-376.94 598.01,-373.47"/>
</g>
<!-- Node14 -->
<g id="node14" class="node">
<title>Node14</title>
<g id="a_node14"><a xlink:href="l4_2sys_2ipc_8h.html" target="_top" xlink:title="Common IPC interface.">
<polygon fill="white" stroke="black" points="546.5,-280.5 546.5,-299.5 617.5,-299.5 617.5,-280.5 546.5,-280.5"/>
<text text-anchor="middle" x="582" y="-287.5" font-family="Helvetica,sans-Serif" font-size="10.00">l4/sys/ipc.h</text>
</a>
</g>
</g>
<!-- Node11&#45;&gt;Node14 -->
<g id="edge28" class="edge">
<title>Node11&#45;&gt;Node14</title>
<path fill="none" stroke="midnightblue" d="M570.49,-404.45C548.59,-398.27 524.27,-387.12 511,-367 503.42,-355.5 504.36,-348.07 511,-336 518.89,-321.66 533.49,-311.25 547.4,-304.08"/>
<polygon fill="midnightblue" stroke="midnightblue" points="549.29,-307.06 556.84,-299.62 546.3,-300.73 549.29,-307.06"/>
</g>
<!-- Node12&#45;&gt;Node4 -->
<g id="edge20" class="edge">
<title>Node12&#45;&gt;Node4</title>
<path fill="none" stroke="midnightblue" d="M662.5,-224.41C640.44,-204.5 583.94,-153.67 536,-112 524.47,-101.98 511.39,-90.87 501.1,-82.19"/>
<polygon fill="midnightblue" stroke="midnightblue" points="503.12,-79.32 493.22,-75.56 498.62,-84.67 503.12,-79.32"/>
</g>
<!-- Node12&#45;&gt;Node6 -->
<g id="edge21" class="edge">
<title>Node12&#45;&gt;Node6</title>
<path fill="none" stroke="midnightblue" d="M711.3,-226.89C760.98,-216.84 844.53,-191.59 882,-132 892.58,-115.17 877.1,-95.58 862.63,-82.34"/>
<polygon fill="midnightblue" stroke="midnightblue" points="864.74,-79.53 854.87,-75.69 860.19,-84.85 864.74,-79.53"/>
</g>
<!-- Node12&#45;&gt;Node7 -->
<g id="edge19" class="edge">
<title>Node12&#45;&gt;Node7</title>
<path fill="none" stroke="midnightblue" d="M672.83,-224.08C673.48,-217.01 674.42,-206.86 675.24,-197.99"/>
<polygon fill="midnightblue" stroke="midnightblue" points="678.75,-198.03 676.19,-187.75 671.78,-197.39 678.75,-198.03"/>
</g>
<!-- Node13&#45;&gt;Node14 -->
<g id="edge23" class="edge">
<title>Node13&#45;&gt;Node14</title>
<path fill="none" stroke="midnightblue" d="M582,-336.4C582,-328.47 582,-318.46 582,-309.86"/>
<polygon fill="midnightblue" stroke="midnightblue" points="585.5,-309.66 582,-299.66 578.5,-309.66 585.5,-309.66"/>
</g>
<!-- Node14&#45;&gt;Node7 -->
<g id="edge24" class="edge">
<title>Node14&#45;&gt;Node7</title>
<path fill="none" stroke="midnightblue" d="M586.46,-280.45C593.45,-267.48 607.87,-242.38 624,-224 633.7,-212.94 646.18,-202.21 656.59,-194.01"/>
<polygon fill="midnightblue" stroke="midnightblue" points="658.94,-196.62 664.74,-187.76 654.68,-191.06 658.94,-196.62"/>
</g>
<!-- Node14&#45;&gt;Node12 -->
<g id="edge25" class="edge">
<title>Node14&#45;&gt;Node12</title>
<path fill="none" stroke="midnightblue" d="M596.46,-280.32C610.5,-271.9 632.05,-258.97 648.54,-249.07"/>
<polygon fill="midnightblue" stroke="midnightblue" points="650.8,-251.8 657.58,-243.65 647.2,-245.8 650.8,-251.8"/>
</g>
<!-- Node15 -->
<g id="node15" class="node">
<title>Node15</title>
<g id="a_node15"><a xlink:href="err_8h.html" target="_top" xlink:title="Error codes.">
<polygon fill="white" stroke="black" points="280,-224.5 280,-243.5 350,-243.5 350,-224.5 280,-224.5"/>
<text text-anchor="middle" x="315" y="-231.5" font-family="Helvetica,sans-Serif" font-size="10.00">l4/sys/err.h</text>
</a>
</g>
</g>
<!-- Node14&#45;&gt;Node15 -->
<g id="edge26" class="edge">
<title>Node14&#45;&gt;Node15</title>
<path fill="none" stroke="midnightblue" d="M546.27,-281.77C498.18,-272.05 412.61,-254.74 360.13,-244.13"/>
<polygon fill="midnightblue" stroke="midnightblue" points="360.59,-240.65 350.1,-242.1 359.2,-247.51 360.59,-240.65"/>
</g>
<!-- Node15&#45;&gt;Node4 -->
<g id="edge27" class="edge">
<title>Node15&#45;&gt;Node4</title>
<path fill="none" stroke="midnightblue" d="M318.91,-224.3C328.94,-202.79 357.54,-146.36 396,-112 411.48,-98.17 431.97,-87.3 449.18,-79.71"/>
<polygon fill="midnightblue" stroke="midnightblue" points="451.02,-82.74 458.87,-75.62 448.3,-76.29 451.02,-82.74"/>
</g>
<!-- Node17 -->
<g id="node17" class="node">
<title>Node17</title>
<g id="a_node17"><a xlink:href="types.html" target="_top" xlink:title=" ">
<polygon fill="white" stroke="black" points="210,-342 210,-361 274,-361 274,-342 210,-342"/>
<text text-anchor="middle" x="242" y="-349" font-family="Helvetica,sans-Serif" font-size="10.00">cxx/types</text>
</a>
</g>
</g>
<!-- Node16&#45;&gt;Node17 -->
<g id="edge31" class="edge">
<title>Node16&#45;&gt;Node17</title>
<path fill="none" stroke="midnightblue" d="M533.14,-459.36C509.88,-450.75 473.63,-436.86 443,-423 425.25,-414.97 422.03,-410.37 404,-403 364.21,-386.74 317.15,-372.61 284.04,-363.46"/>
<polygon fill="midnightblue" stroke="midnightblue" points="284.8,-360.04 274.23,-360.79 282.96,-366.8 284.8,-360.04"/>
</g>
<!-- Node18 -->
<g id="node18" class="node">
<title>Node18</title>
<g id="a_node18"><a xlink:href="ipc__basics_source.html" target="_top" xlink:title=" ">
<polygon fill="white" stroke="black" points="308.5,-403.5 308.5,-422.5 395.5,-422.5 395.5,-403.5 308.5,-403.5"/>
<text text-anchor="middle" x="352" y="-410.5" font-family="Helvetica,sans-Serif" font-size="10.00">cxx/ipc_basics</text>
</a>
</g>
</g>
<!-- Node16&#45;&gt;Node18 -->
<g id="edge32" class="edge">
<title>Node16&#45;&gt;Node18</title>
<path fill="none" stroke="midnightblue" d="M524.52,-459.44C489.28,-450.16 432.9,-435.31 394.24,-425.13"/>
<polygon fill="midnightblue" stroke="midnightblue" points="394.89,-421.68 384.33,-422.52 393.11,-428.45 394.89,-421.68"/>
</g>
<!-- Node19 -->
<g id="node19" class="node">
<title>Node19</title>
<g id="a_node19"><a xlink:href="capability_8h_source.html" target="_top" xlink:title=" ">
<polygon fill="white" stroke="black" points="452,-403.5 452,-422.5 544,-422.5 544,-403.5 452,-403.5"/>
<text text-anchor="middle" x="498" y="-410.5" font-family="Helvetica,sans-Serif" font-size="10.00">cxx/capability.h</text>
</a>
</g>
</g>
<!-- Node16&#45;&gt;Node19 -->
<g id="edge36" class="edge">
<title>Node16&#45;&gt;Node19</title>
<path fill="none" stroke="midnightblue" d="M547.52,-459.32C538.8,-451.34 525.66,-439.31 515.1,-429.65"/>
<polygon fill="midnightblue" stroke="midnightblue" points="517.39,-427 507.65,-422.83 512.67,-432.17 517.39,-427"/>
</g>
<!-- Node18&#45;&gt;Node12 -->
<g id="edge34" class="edge">
<title>Node18&#45;&gt;Node12</title>
<path fill="none" stroke="midnightblue" d="M361.74,-403.41C388.18,-380.49 464.21,-317.04 537,-280 565.7,-265.39 600.17,-254 627.1,-246.33"/>
<polygon fill="midnightblue" stroke="midnightblue" points="628.32,-249.62 637.02,-243.57 626.45,-242.87 628.32,-249.62"/>
</g>
<!-- Node18&#45;&gt;Node15 -->
<g id="edge35" class="edge">
<title>Node18&#45;&gt;Node15</title>
<path fill="none" stroke="midnightblue" d="M345.36,-403.25C339.17,-394.56 330.26,-380.6 326,-367 313.84,-328.18 313.23,-279.98 314.02,-253.9"/>
<polygon fill="midnightblue" stroke="midnightblue" points="317.53,-253.72 314.44,-243.59 310.54,-253.43 317.53,-253.72"/>
</g>
<!-- Node18&#45;&gt;Node17 -->
<g id="edge33" class="edge">
<title>Node18&#45;&gt;Node17</title>
<path fill="none" stroke="midnightblue" d="M336.24,-403.48C318.02,-393.62 287.83,-377.29 266.53,-365.77"/>
<polygon fill="midnightblue" stroke="midnightblue" points="268.19,-362.69 257.73,-361.01 264.86,-368.85 268.19,-362.69"/>
</g>
<!-- Node19&#45;&gt;Node3 -->
<g id="edge37" class="edge">
<title>Node19&#45;&gt;Node3</title>
<path fill="none" stroke="midnightblue" d="M478.72,-403.49C444.8,-387.05 378,-347.51 378,-291 378,-291 378,-291 378,-233 378,-188.02 424.51,-154.19 455.62,-136.59"/>
<polygon fill="midnightblue" stroke="midnightblue" points="457.59,-139.5 464.71,-131.65 454.25,-133.35 457.59,-139.5"/>
</g>
<!-- Node19&#45;&gt;Node7 -->
<g id="edge38" class="edge">
<title>Node19&#45;&gt;Node7</title>
<path fill="none" stroke="midnightblue" d="M497.08,-403.32C495.84,-388.94 494.61,-359.44 502,-336 510.83,-308.01 517.56,-301.99 537,-280 570.67,-241.9 621.19,-209.95 651.45,-192.72"/>
<polygon fill="midnightblue" stroke="midnightblue" points="653.49,-195.59 660.51,-187.66 650.08,-189.48 653.49,-195.59"/>
</g>
<!-- Node19&#45;&gt;Node20 -->
<g id="edge39" class="edge">
<title>Node19&#45;&gt;Node20</title>
<path fill="none" stroke="midnightblue" d="M527.74,-403.47C558.97,-394.49 609.48,-379.89 653,-367 656.31,-366.02 659.75,-364.99 663.2,-363.96"/>
<polygon fill="midnightblue" stroke="midnightblue" points="664.27,-367.29 672.84,-361.06 662.26,-360.59 664.27,-367.29"/>
</g>
<!-- Node20&#45;&gt;Node7 -->
<g id="edge40" class="edge">
<title>Node20&#45;&gt;Node7</title>
<path fill="none" stroke="midnightblue" d="M705.26,-341.86C715,-320.87 736.78,-265.84 720,-224 715.32,-212.33 706.01,-201.97 697.24,-194.14"/>
<polygon fill="midnightblue" stroke="midnightblue" points="699.42,-191.4 689.5,-187.7 694.95,-196.78 699.42,-191.4"/>
</g>
<!-- Node20&#45;&gt;Node12 -->
<g id="edge41" class="edge">
<title>Node20&#45;&gt;Node12</title>
<path fill="none" stroke="midnightblue" d="M698.82,-341.82C694.14,-323.17 683.03,-278.94 676.68,-253.63"/>
<polygon fill="midnightblue" stroke="midnightblue" points="680.03,-252.63 674.21,-243.78 673.25,-254.33 680.03,-252.63"/>
</g>
<!-- Node20&#45;&gt;Node14 -->
<g id="edge42" class="edge">
<title>Node20&#45;&gt;Node14</title>
<path fill="none" stroke="midnightblue" d="M683.95,-341.98C664.16,-332.08 631.28,-315.64 608.23,-304.12"/>
<polygon fill="midnightblue" stroke="midnightblue" points="609.53,-300.85 599.02,-299.51 606.4,-307.11 609.53,-300.85"/>
</g>
<!-- Node21&#45;&gt;Node10 -->
<g id="edge45" class="edge">
<title>Node21&#45;&gt;Node10</title>
<path fill="none" stroke="midnightblue" d="M539.83,-627.37C554.25,-609.14 588.03,-566.43 606.81,-542.68"/>
<polygon fill="midnightblue" stroke="midnightblue" points="609.75,-544.61 613.2,-534.59 604.26,-540.26 609.75,-544.61"/>
</g>
<!-- Node22 -->
<g id="node22" class="node">
<title>Node22</title>
<g id="a_node22"><a xlink:href="ipc__iface.html" target="_top" xlink:title="Interface Definition Language.">
<polygon fill="white" stroke="black" points="480,-515.5 480,-534.5 560,-534.5 560,-515.5 480,-515.5"/>
<text text-anchor="middle" x="520" y="-522.5" font-family="Helvetica,sans-Serif" font-size="10.00">cxx/ipc_iface</text>
</a>
</g>
</g>
<!-- Node21&#45;&gt;Node22 -->
<g id="edge46" class="edge">
<title>Node21&#45;&gt;Node22</title>
<path fill="none" stroke="midnightblue" d="M531.98,-627.37C529.88,-609.62 525.04,-568.67 522.2,-544.6"/>
<polygon fill="midnightblue" stroke="midnightblue" points="525.66,-544.11 521.02,-534.59 518.71,-544.93 525.66,-544.11"/>
</g>
<!-- Node24 -->
<g id="node24" class="node">
<title>Node24</title>
<g id="a_node24"><a xlink:href="ipc__string_source.html" target="_top" xlink:title=" ">
<polygon fill="white" stroke="black" points="322,-571.5 322,-590.5 406,-590.5 406,-571.5 322,-571.5"/>
<text text-anchor="middle" x="364" y="-578.5" font-family="Helvetica,sans-Serif" font-size="10.00">cxx/ipc_string</text>
</a>
</g>
</g>
<!-- Node21&#45;&gt;Node24 -->
<g id="edge53" class="edge">
<title>Node21&#45;&gt;Node24</title>
<path fill="none" stroke="midnightblue" d="M506.22,-627.44C477.67,-618.32 432.27,-603.81 400.46,-593.65"/>
<polygon fill="midnightblue" stroke="midnightblue" points="401.24,-590.23 390.65,-590.52 399.11,-596.89 401.24,-590.23"/>
</g>
<!-- Node22&#45;&gt;Node16 -->
<g id="edge52" class="edge">
<title>Node22&#45;&gt;Node16</title>
<path fill="none" stroke="midnightblue" d="M526.11,-515.08C531.28,-507.53 538.85,-496.49 545.19,-487.23"/>
<polygon fill="midnightblue" stroke="midnightblue" points="548.24,-488.98 551,-478.75 542.46,-485.02 548.24,-488.98"/>
</g>
<!-- Node22&#45;&gt;Node18 -->
<g id="edge47" class="edge">
<title>Node22&#45;&gt;Node18</title>
<path fill="none" stroke="midnightblue" d="M514.78,-515.22C506.19,-501.49 487.86,-474.83 466,-459 444.91,-443.73 417.93,-432.77 395.51,-425.5"/>
<polygon fill="midnightblue" stroke="midnightblue" points="396.48,-422.13 385.89,-422.51 394.4,-428.82 396.48,-422.13"/>
</g>
<!-- Node23 -->
<g id="node23" class="node">
<title>Node23</title>
<g id="a_node23"><a xlink:href="ipc__types.html" target="_top" xlink:title=" ">
<polygon fill="white" stroke="black" points="308.5,-459.5 308.5,-478.5 423.5,-478.5 423.5,-459.5 308.5,-459.5"/>
<text text-anchor="middle" x="366" y="-466.5" font-family="Helvetica,sans-Serif" font-size="10.00">l4/sys/cxx/ipc_types</text>
</a>
</g>
</g>
<!-- Node22&#45;&gt;Node23 -->
<g id="edge48" class="edge">
<title>Node22&#45;&gt;Node23</title>
<path fill="none" stroke="midnightblue" d="M495.6,-515.44C469.8,-506.4 428.92,-492.06 399.98,-481.92"/>
<polygon fill="midnightblue" stroke="midnightblue" points="400.88,-478.52 390.29,-478.52 398.57,-485.13 400.88,-478.52"/>
</g>
<!-- Node23&#45;&gt;Node17 -->
<g id="edge50" class="edge">
<title>Node23&#45;&gt;Node17</title>
<path fill="none" stroke="midnightblue" d="M350.42,-459.36C336.2,-451.07 315.02,-437.66 299,-423 281.31,-406.81 264.48,-384.91 253.76,-369.84"/>
<polygon fill="midnightblue" stroke="midnightblue" points="256.51,-367.66 247.92,-361.45 250.76,-371.66 256.51,-367.66"/>
</g>
<!-- Node23&#45;&gt;Node18 -->
<g id="edge51" class="edge">
<title>Node23&#45;&gt;Node18</title>
<path fill="none" stroke="midnightblue" d="M363.69,-459.08C361.83,-451.93 359.16,-441.64 356.85,-432.69"/>
<polygon fill="midnightblue" stroke="midnightblue" points="360.17,-431.55 354.27,-422.75 353.39,-433.31 360.17,-431.55"/>
</g>
<!-- Node23&#45;&gt;Node19 -->
<g id="edge49" class="edge">
<title>Node23&#45;&gt;Node19</title>
<path fill="none" stroke="midnightblue" d="M386.92,-459.44C408.74,-450.52 443.15,-436.44 467.89,-426.32"/>
<polygon fill="midnightblue" stroke="midnightblue" points="469.25,-429.54 477.18,-422.52 466.6,-423.06 469.25,-429.54"/>
</g>
<!-- Node24&#45;&gt;Node17 -->
<g id="edge54" class="edge">
<title>Node24&#45;&gt;Node17</title>
<path fill="none" stroke="midnightblue" d="M325.55,-571.4C305.27,-564.84 281.79,-553.64 268,-535 231.24,-485.32 235.14,-406.75 239.28,-371.14"/>
<polygon fill="midnightblue" stroke="midnightblue" points="242.76,-371.55 240.58,-361.18 235.82,-370.64 242.76,-371.55"/>
</g>
<!-- Node24&#45;&gt;Node18 -->
<g id="edge55" class="edge">
<title>Node24&#45;&gt;Node18</title>
<path fill="none" stroke="midnightblue" d="M375.45,-571.43C400.59,-551.56 456.45,-500.81 432,-459 423.14,-443.85 407.09,-433.41 391.69,-426.42"/>
<polygon fill="midnightblue" stroke="midnightblue" points="392.83,-423.11 382.25,-422.51 390.15,-429.57 392.83,-423.11"/>
</g>
<!-- Node25 -->
<g id="node25" class="node">
<title>Node25</title>
<g id="a_node25"><a xlink:href="ipc__array_source.html" target="_top" xlink:title=" ">
<polygon fill="white" stroke="black" points="277,-515.5 277,-534.5 339,-534.5 339,-515.5 277,-515.5"/>
<text text-anchor="middle" x="308" y="-522.5" font-family="Helvetica,sans-Serif" font-size="10.00">ipc_array</text>
</a>
</g>
</g>
<!-- Node24&#45;&gt;Node25 -->
<g id="edge56" class="edge">
<title>Node24&#45;&gt;Node25</title>
<path fill="none" stroke="midnightblue" d="M355,-571.32C346.81,-563.42 334.49,-551.55 324.53,-541.94"/>
<polygon fill="midnightblue" stroke="midnightblue" points="326.79,-539.26 317.16,-534.83 321.93,-544.29 326.79,-539.26"/>
</g>
<!-- Node25&#45;&gt;Node17 -->
<g id="edge57" class="edge">
<title>Node25&#45;&gt;Node17</title>
<path fill="none" stroke="midnightblue" d="M304.64,-515.26C294.31,-488.42 262.9,-406.82 248.88,-370.39"/>
<polygon fill="midnightblue" stroke="midnightblue" points="252.14,-369.1 245.28,-361.02 245.6,-371.61 252.14,-369.1"/>
</g>
<!-- Node25&#45;&gt;Node18 -->
<g id="edge58" class="edge">
<title>Node25&#45;&gt;Node18</title>
<path fill="none" stroke="midnightblue" d="M303.81,-515.14C298.34,-502.18 290.39,-477.61 299,-459 304.92,-446.21 316.47,-435.72 327.28,-428.1"/>
<polygon fill="midnightblue" stroke="midnightblue" points="329.21,-431.02 335.67,-422.61 325.38,-425.16 329.21,-431.02"/>
</g>
<!-- Node25&#45;&gt;Node23 -->
<g id="edge59" class="edge">
<title>Node25&#45;&gt;Node23</title>
<path fill="none" stroke="midnightblue" d="M317.32,-515.32C325.89,-507.34 338.81,-495.31 349.19,-485.65"/>
<polygon fill="midnightblue" stroke="midnightblue" points="351.58,-488.21 356.51,-478.83 346.81,-483.09 351.58,-488.21"/>
</g>
<!-- Node26&#45;&gt;Node2 -->
<g id="edge66" class="edge">
<title>Node26&#45;&gt;Node2</title>
<path fill="none" stroke="midnightblue" d="M474.21,-739.32C485.78,-731.11 503.38,-718.6 517.16,-708.81"/>
<polygon fill="midnightblue" stroke="midnightblue" points="519.44,-711.48 525.57,-702.83 515.39,-705.77 519.44,-711.48"/>
</g>
<!-- Node26&#45;&gt;Node22 -->
<g id="edge67" class="edge">
<title>Node26&#45;&gt;Node22</title>
<path fill="none" stroke="midnightblue" d="M463.43,-739.41C466.83,-719.5 475.93,-668.67 487,-627 494.8,-597.67 506.2,-564.32 513.36,-544.23"/>
<polygon fill="midnightblue" stroke="midnightblue" points="516.75,-545.14 516.85,-534.55 510.16,-542.77 516.75,-545.14"/>
</g>
<!-- Node27 -->
<g id="node27" class="node">
<title>Node27</title>
<g id="a_node27"><a xlink:href="factory_8h.html" target="_top" xlink:title="Common factory related definitions.">
<polygon fill="white" stroke="black" points="102,-342 102,-361 192,-361 192,-342 102,-342"/>
<text text-anchor="middle" x="147" y="-349" font-family="Helvetica,sans-Serif" font-size="10.00">l4/sys/factory.h</text>
</a>
</g>
</g>
<!-- Node26&#45;&gt;Node27 -->
<g id="edge61" class="edge">
<title>Node26&#45;&gt;Node27</title>
<path fill="none" stroke="midnightblue" d="M420.33,-745.64C340.06,-740.61 167.15,-727.26 113,-703 72.74,-684.97 38,-682.11 38,-638 38,-638 38,-638 38,-468 38,-420.32 87.74,-384.35 120.02,-366.03"/>
<polygon fill="midnightblue" stroke="midnightblue" points="121.9,-368.99 129,-361.13 118.55,-362.85 121.9,-368.99"/>
</g>
<!-- Node28 -->
<g id="node28" class="node">
<title>Node28</title>
<g id="a_node28"><a xlink:href="ipc__varg_source.html" target="_top" xlink:title=" ">
<polygon fill="white" stroke="black" points="66,-459.5 66,-478.5 176,-478.5 176,-459.5 66,-459.5"/>
<text text-anchor="middle" x="121" y="-466.5" font-family="Helvetica,sans-Serif" font-size="10.00">l4/sys/cxx/ipc_varg</text>
</a>
</g>
</g>
<!-- Node26&#45;&gt;Node28 -->
<g id="edge68" class="edge">
<title>Node26&#45;&gt;Node28</title>
<path fill="none" stroke="midnightblue" d="M420.32,-745C320.51,-736.66 76,-708.99 76,-638 76,-638 76,-638 76,-580 76,-544.93 95.84,-507.94 109.17,-487.04"/>
<polygon fill="midnightblue" stroke="midnightblue" points="112.13,-488.9 114.74,-478.63 106.3,-485.03 112.13,-488.9"/>
</g>
<!-- Node27&#45;&gt;Node4 -->
<g id="edge62" class="edge">
<title>Node27&#45;&gt;Node4</title>
<path fill="none" stroke="midnightblue" d="M147.76,-341.81C149.37,-322.59 153,-274.96 153,-235 153,-235 153,-235 153,-177 153,-120.7 328.06,-88.06 423.17,-74.48"/>
<polygon fill="midnightblue" stroke="midnightblue" points="423.82,-77.92 433.24,-73.07 422.85,-70.99 423.82,-77.92"/>
</g>
<!-- Node27&#45;&gt;Node7 -->
<g id="edge63" class="edge">
<title>Node27&#45;&gt;Node7</title>
<path fill="none" stroke="midnightblue" d="M152.38,-341.78C167.57,-318.01 213.48,-251.99 271,-224 332.08,-194.28 529.1,-183.84 624.4,-180.47"/>
<polygon fill="midnightblue" stroke="midnightblue" points="624.8,-183.96 634.68,-180.12 624.56,-176.96 624.8,-183.96"/>
</g>
<!-- Node27&#45;&gt;Node12 -->
<g id="edge64" class="edge">
<title>Node27&#45;&gt;Node12</title>
<path fill="none" stroke="midnightblue" d="M164.8,-341.78C196.44,-326.67 264.87,-295.76 326,-280 429.42,-253.34 554.51,-242.06 622.36,-237.62"/>
<polygon fill="midnightblue" stroke="midnightblue" points="622.99,-241.08 632.75,-236.96 622.55,-234.1 622.99,-241.08"/>
</g>
<!-- Node27&#45;&gt;Node14 -->
<g id="edge65" class="edge">
<title>Node27&#45;&gt;Node14</title>
<path fill="none" stroke="midnightblue" d="M175.69,-341.97C183.81,-339.78 192.71,-337.59 201,-336 320.85,-312.96 464.33,-299.85 536.21,-294.25"/>
<polygon fill="midnightblue" stroke="midnightblue" points="536.58,-297.74 546.28,-293.48 536.04,-290.76 536.58,-297.74"/>
</g>
<!-- Node28&#45;&gt;Node17 -->
<g id="edge69" class="edge">
<title>Node28&#45;&gt;Node17</title>
<path fill="none" stroke="midnightblue" d="M130.09,-459.32C150.33,-440 199.32,-393.24 225.26,-368.48"/>
<polygon fill="midnightblue" stroke="midnightblue" points="227.98,-370.72 232.8,-361.28 223.15,-365.66 227.98,-370.72"/>
</g>
<!-- Node28&#45;&gt;Node18 -->
<g id="edge70" class="edge">
<title>Node28&#45;&gt;Node18</title>
<path fill="none" stroke="midnightblue" d="M157.6,-459.44C197.73,-450.06 262.2,-434.99 305.78,-424.8"/>
<polygon fill="midnightblue" stroke="midnightblue" points="306.63,-428.2 315.57,-422.52 305.03,-421.38 306.63,-428.2"/>
</g>
</g>
</svg>
