<?xml version="1.0" encoding="UTF-8" standalone="no"?>
<!DOCTYPE svg PUBLIC "-//W3C//DTD SVG 1.1//EN"
 "http://www.w3.org/Graphics/SVG/1.1/DTD/svg11.dtd">
<!-- Generated by graphviz version 2.43.0 (0)
 -->
<!-- Title: l4/re/mem_alloc Pages: 1 -->
<svg width="1261pt" height="229pt"
 viewBox="0.00 0.00 1261.00 229.00" xmlns="http://www.w3.org/2000/svg" xmlns:xlink="http://www.w3.org/1999/xlink">
<g id="graph0" class="graph" transform="scale(1 1) rotate(0) translate(4 225)">
<title>l4/re/mem_alloc</title>
<polygon fill="white" stroke="transparent" points="-4,4 -4,-225 1257,-225 1257,4 -4,4"/>
<!-- Node1 -->
<g id="node1" class="node">
<title>Node1</title>
<g id="a_node1"><a xlink:title="Memory allocator interface.">
<polygon fill="#bfbfbf" stroke="black" points="684.5,-201.5 684.5,-220.5 779.5,-220.5 779.5,-201.5 684.5,-201.5"/>
<text text-anchor="middle" x="732" y="-208.5" font-family="Helvetica,sans-Serif" font-size="10.00">l4/re/mem_alloc</text>
</a>
</g>
</g>
<!-- Node2 -->
<g id="node2" class="node">
<title>Node2</title>
<g id="a_node2"><a xlink:href="env.html" target="_top" xlink:title="Environment interface.">
<polygon fill="white" stroke="black" points="648.5,-140 648.5,-159 707.5,-159 707.5,-140 648.5,-140"/>
<text text-anchor="middle" x="678" y="-147" font-family="Helvetica,sans-Serif" font-size="10.00">l4/re/env</text>
</a>
</g>
</g>
<!-- Node1&#45;&gt;Node2 -->
<g id="edge1" class="edge">
<title>Node1&#45;&gt;Node2</title>
<path fill="none" stroke="midnightblue" d="M717.48,-194C707.26,-182.74 693.98,-168.1 685.72,-159.01"/>
<polygon fill="midnightblue" stroke="midnightblue" points="714.95,-196.42 724.26,-201.48 720.13,-191.72 714.95,-196.42"/>
</g>
<!-- Node17 -->
<g id="node17" class="node">
<title>Node17</title>
<g id="a_node17"><a xlink:href="mem__alloc__impl_8h.html" target="_top" xlink:title="Memory allocator client stub implementation.">
<polygon fill="white" stroke="black" points="726,-134.5 726,-164.5 846,-164.5 846,-134.5 726,-134.5"/>
<text text-anchor="start" x="734" y="-152.5" font-family="Helvetica,sans-Serif" font-size="10.00">l4/re/impl/mem_alloc</text>
<text text-anchor="middle" x="786" y="-141.5" font-family="Helvetica,sans-Serif" font-size="10.00">_impl.h</text>
</a>
</g>
</g>
<!-- Node1&#45;&gt;Node17 -->
<g id="edge17" class="edge">
<title>Node1&#45;&gt;Node17</title>
<path fill="none" stroke="midnightblue" d="M746.69,-193.81C755.01,-184.65 765.3,-173.3 773.27,-164.52"/>
<polygon fill="midnightblue" stroke="midnightblue" points="743.87,-191.72 739.74,-201.48 749.05,-196.42 743.87,-191.72"/>
</g>
<!-- Node3 -->
<g id="node3" class="node">
<title>Node3</title>
<g id="a_node3"><a xlink:href="vcpu_source.html" target="_top" xlink:title=" ">
<polygon fill="white" stroke="black" points="0,-73 0,-92 78,-92 78,-73 0,-73"/>
<text text-anchor="middle" x="39" y="-80" font-family="Helvetica,sans-Serif" font-size="10.00">l4/vcpu/vcpu</text>
</a>
</g>
</g>
<!-- Node2&#45;&gt;Node3 -->
<g id="edge2" class="edge">
<title>Node2&#45;&gt;Node3</title>
<path fill="none" stroke="midnightblue" d="M638.4,-147.95C542.77,-146.01 291.96,-137.27 87,-98 79.31,-96.53 71.09,-94.3 63.67,-92.02"/>
<polygon fill="midnightblue" stroke="midnightblue" points="638.43,-151.45 648.49,-148.14 638.56,-144.45 638.43,-151.45"/>
</g>
<!-- Node4 -->
<g id="node4" class="node">
<title>Node4</title>
<g id="a_node4"><a xlink:href="client_2virtio-block_source.html" target="_top" xlink:title=" ">
<polygon fill="white" stroke="black" points="472.5,-0.5 472.5,-30.5 565.5,-30.5 565.5,-0.5 472.5,-0.5"/>
<text text-anchor="start" x="480.5" y="-18.5" font-family="Helvetica,sans-Serif" font-size="10.00">l4/l4virtio/client</text>
<text text-anchor="middle" x="519" y="-7.5" font-family="Helvetica,sans-Serif" font-size="10.00">/virtio&#45;block</text>
</a>
</g>
</g>
<!-- Node2&#45;&gt;Node4 -->
<g id="edge3" class="edge">
<title>Node2&#45;&gt;Node4</title>
<path fill="none" stroke="midnightblue" d="M702.43,-134.44C727.63,-118.15 760.8,-90.54 742,-67 720.35,-39.9 624.35,-26.27 565.59,-20.34"/>
<polygon fill="midnightblue" stroke="midnightblue" points="700.27,-131.66 693.62,-139.9 703.96,-137.61 700.27,-131.66"/>
</g>
<!-- Node5 -->
<g id="node5" class="node">
<title>Node5</title>
<g id="a_node5"><a xlink:href="server_2l4virtio_source.html" target="_top" xlink:title=" ">
<polygon fill="white" stroke="black" points="96.5,-67.5 96.5,-97.5 193.5,-97.5 193.5,-67.5 96.5,-67.5"/>
<text text-anchor="start" x="104.5" y="-85.5" font-family="Helvetica,sans-Serif" font-size="10.00">l4/l4virtio/server</text>
<text text-anchor="middle" x="145" y="-74.5" font-family="Helvetica,sans-Serif" font-size="10.00">/l4virtio</text>
</a>
</g>
</g>
<!-- Node2&#45;&gt;Node5 -->
<g id="edge4" class="edge">
<title>Node2&#45;&gt;Node5</title>
<path fill="none" stroke="midnightblue" d="M638.13,-146.21C556,-141.06 362.25,-126.73 202,-98 199.29,-97.51 196.51,-96.97 193.72,-96.38"/>
<polygon fill="midnightblue" stroke="midnightblue" points="638.07,-149.71 648.27,-146.83 638.5,-142.72 638.07,-149.71"/>
</g>
<!-- Node7 -->
<g id="node7" class="node">
<title>Node7</title>
<g id="a_node7"><a xlink:href="ro__file__impl_8h_source.html" target="_top" xlink:title=" ">
<polygon fill="white" stroke="black" points="362.5,-67.5 362.5,-97.5 467.5,-97.5 467.5,-67.5 362.5,-67.5"/>
<text text-anchor="start" x="370.5" y="-85.5" font-family="Helvetica,sans-Serif" font-size="10.00">l4/l4re_vfs/impl/ro</text>
<text text-anchor="middle" x="415" y="-74.5" font-family="Helvetica,sans-Serif" font-size="10.00">_file_impl.h</text>
</a>
</g>
</g>
<!-- Node2&#45;&gt;Node7 -->
<g id="edge6" class="edge">
<title>Node2&#45;&gt;Node7</title>
<path fill="none" stroke="midnightblue" d="M638.55,-138.75C593.07,-127.51 518.11,-108.98 467.67,-96.52"/>
<polygon fill="midnightblue" stroke="midnightblue" points="637.79,-142.17 648.34,-141.17 639.47,-135.37 637.79,-142.17"/>
</g>
<!-- Node8 -->
<g id="node8" class="node">
<title>Node8</title>
<g id="a_node8"><a xlink:href="vcon__stream__impl_8h_source.html" target="_top" xlink:title=" ">
<polygon fill="white" stroke="black" points="485.5,-67.5 485.5,-97.5 604.5,-97.5 604.5,-67.5 485.5,-67.5"/>
<text text-anchor="start" x="493.5" y="-85.5" font-family="Helvetica,sans-Serif" font-size="10.00">l4/l4re_vfs/impl/vcon</text>
<text text-anchor="middle" x="545" y="-74.5" font-family="Helvetica,sans-Serif" font-size="10.00">_stream_impl.h</text>
</a>
</g>
</g>
<!-- Node2&#45;&gt;Node8 -->
<g id="edge7" class="edge">
<title>Node2&#45;&gt;Node8</title>
<path fill="none" stroke="midnightblue" d="M651.35,-135.47C628.86,-124.49 596.75,-108.79 573.7,-97.53"/>
<polygon fill="midnightblue" stroke="midnightblue" points="649.82,-138.62 660.34,-139.87 652.89,-132.33 649.82,-138.62"/>
</g>
<!-- Node9 -->
<g id="node9" class="node">
<title>Node9</title>
<g id="a_node9"><a xlink:href="vfs__impl_8h_source.html" target="_top" xlink:title=" ">
<polygon fill="white" stroke="black" points="623,-67.5 623,-97.5 733,-97.5 733,-67.5 623,-67.5"/>
<text text-anchor="start" x="631" y="-85.5" font-family="Helvetica,sans-Serif" font-size="10.00">l4/l4re_vfs/impl/vfs</text>
<text text-anchor="middle" x="678" y="-74.5" font-family="Helvetica,sans-Serif" font-size="10.00">_impl.h</text>
</a>
</g>
</g>
<!-- Node2&#45;&gt;Node9 -->
<g id="edge8" class="edge">
<title>Node2&#45;&gt;Node9</title>
<path fill="none" stroke="midnightblue" d="M678,-129.41C678,-119.22 678,-106.9 678,-97.59"/>
<polygon fill="midnightblue" stroke="midnightblue" points="674.5,-129.73 678,-139.73 681.5,-129.73 674.5,-129.73"/>
</g>
<!-- Node10 -->
<g id="node10" class="node">
<title>Node10</title>
<g id="a_node10"><a xlink:href="env__ns_source.html" target="_top" xlink:title=" ">
<polygon fill="white" stroke="black" points="895.5,-73 895.5,-92 990.5,-92 990.5,-73 895.5,-73"/>
<text text-anchor="middle" x="943" y="-80" font-family="Helvetica,sans-Serif" font-size="10.00">l4/re/util/env_ns</text>
</a>
</g>
</g>
<!-- Node2&#45;&gt;Node10 -->
<g id="edge9" class="edge">
<title>Node2&#45;&gt;Node10</title>
<path fill="none" stroke="midnightblue" d="M708.93,-136.54C711.64,-135.63 714.36,-134.77 717,-134 790.74,-112.56 811.22,-115.47 886,-98 893.95,-96.14 902.5,-94.03 910.5,-92"/>
<polygon fill="midnightblue" stroke="midnightblue" points="707.53,-133.32 699.27,-139.95 709.86,-139.92 707.53,-133.32"/>
</g>
<!-- Node12 -->
<g id="node12" class="node">
<title>Node12</title>
<g id="a_node12"><a xlink:href="util_2event.html" target="_top" xlink:title=" ">
<polygon fill="white" stroke="black" points="789,-73 789,-92 877,-92 877,-73 789,-73"/>
<text text-anchor="middle" x="833" y="-80" font-family="Helvetica,sans-Serif" font-size="10.00">l4/re/util/event</text>
</a>
</g>
</g>
<!-- Node2&#45;&gt;Node12 -->
<g id="edge11" class="edge">
<title>Node2&#45;&gt;Node12</title>
<path fill="none" stroke="midnightblue" d="M707.93,-135.95C738.62,-123.08 785.54,-103.4 812.33,-92.17"/>
<polygon fill="midnightblue" stroke="midnightblue" points="706.45,-132.77 698.58,-139.87 709.16,-139.23 706.45,-132.77"/>
</g>
<!-- Node13 -->
<g id="node13" class="node">
<title>Node13</title>
<g id="a_node13"><a xlink:href="icu__svr_source.html" target="_top" xlink:title=" ">
<polygon fill="white" stroke="black" points="1151.5,-73 1151.5,-92 1246.5,-92 1246.5,-73 1151.5,-73"/>
<text text-anchor="middle" x="1199" y="-80" font-family="Helvetica,sans-Serif" font-size="10.00">l4/re/util/icu_svr</text>
</a>
</g>
</g>
<!-- Node2&#45;&gt;Node13 -->
<g id="edge12" class="edge">
<title>Node2&#45;&gt;Node13</title>
<path fill="none" stroke="midnightblue" d="M707.65,-136.54C710.77,-135.56 713.93,-134.69 717,-134 902.42,-92.51 955.69,-129.93 1143,-98 1151.81,-96.5 1161.26,-94.29 1169.85,-92.04"/>
<polygon fill="midnightblue" stroke="midnightblue" points="706.23,-133.33 697.93,-139.91 708.52,-139.94 706.23,-133.33"/>
</g>
<!-- Node15 -->
<g id="node15" class="node">
<title>Node15</title>
<g id="a_node15"><a xlink:href="kumem__alloc.html" target="_top" xlink:title="Kumem allocator helper.">
<polygon fill="white" stroke="black" points="1008.5,-73 1008.5,-92 1133.5,-92 1133.5,-73 1008.5,-73"/>
<text text-anchor="middle" x="1071" y="-80" font-family="Helvetica,sans-Serif" font-size="10.00">l4/re/util/kumem_alloc</text>
</a>
</g>
</g>
<!-- Node2&#45;&gt;Node15 -->
<g id="edge14" class="edge">
<title>Node2&#45;&gt;Node15</title>
<path fill="none" stroke="midnightblue" d="M707.89,-136.61C710.93,-135.63 714.01,-134.74 717,-134 839.68,-103.79 874.32,-118.49 999,-98 1009.44,-96.28 1020.68,-94.16 1031.11,-92.06"/>
<polygon fill="midnightblue" stroke="midnightblue" points="706.66,-133.33 698.37,-139.93 708.96,-139.94 706.66,-133.33"/>
</g>
<!-- Node16 -->
<g id="node16" class="node">
<title>Node16</title>
<g id="a_node16"><a xlink:href="object__registry_source.html" target="_top" xlink:title=" ">
<polygon fill="white" stroke="black" points="211.5,-73 211.5,-92 344.5,-92 344.5,-73 211.5,-73"/>
<text text-anchor="middle" x="278" y="-80" font-family="Helvetica,sans-Serif" font-size="10.00">l4/re/util/object_registry</text>
</a>
</g>
</g>
<!-- Node2&#45;&gt;Node16 -->
<g id="edge15" class="edge">
<title>Node2&#45;&gt;Node16</title>
<path fill="none" stroke="midnightblue" d="M638.35,-142.82C577.05,-133.93 455.63,-115.89 353,-98 342.55,-96.18 331.3,-94.08 320.78,-92.05"/>
<polygon fill="midnightblue" stroke="midnightblue" points="637.97,-146.3 648.36,-144.27 638.97,-139.37 637.97,-146.3"/>
</g>
<!-- Node6 -->
<g id="node6" class="node">
<title>Node6</title>
<g id="a_node6"><a xlink:href="server_2virtio-block_source.html" target="_top" xlink:title=" ">
<polygon fill="white" stroke="black" points="96.5,-0.5 96.5,-30.5 193.5,-30.5 193.5,-0.5 96.5,-0.5"/>
<text text-anchor="start" x="104.5" y="-18.5" font-family="Helvetica,sans-Serif" font-size="10.00">l4/l4virtio/server</text>
<text text-anchor="middle" x="145" y="-7.5" font-family="Helvetica,sans-Serif" font-size="10.00">/virtio&#45;block</text>
</a>
</g>
</g>
<!-- Node5&#45;&gt;Node6 -->
<g id="edge5" class="edge">
<title>Node5&#45;&gt;Node6</title>
<path fill="none" stroke="midnightblue" d="M145,-57.11C145,-48.15 145,-38.32 145,-30.58"/>
<polygon fill="midnightblue" stroke="midnightblue" points="141.5,-57.4 145,-67.4 148.5,-57.4 141.5,-57.4"/>
</g>
<!-- Node11 -->
<g id="node11" class="node">
<title>Node11</title>
<g id="a_node11"><a xlink:href="ns__fs__impl_8h_source.html" target="_top" xlink:title=" ">
<polygon fill="white" stroke="black" points="889.5,-0.5 889.5,-30.5 996.5,-30.5 996.5,-0.5 889.5,-0.5"/>
<text text-anchor="start" x="897.5" y="-18.5" font-family="Helvetica,sans-Serif" font-size="10.00">l4/l4re_vfs/impl/ns</text>
<text text-anchor="middle" x="943" y="-7.5" font-family="Helvetica,sans-Serif" font-size="10.00">_fs_impl.h</text>
</a>
</g>
</g>
<!-- Node10&#45;&gt;Node11 -->
<g id="edge10" class="edge">
<title>Node10&#45;&gt;Node11</title>
<path fill="none" stroke="midnightblue" d="M943,-62.41C943,-52.22 943,-39.9 943,-30.59"/>
<polygon fill="midnightblue" stroke="midnightblue" points="939.5,-62.73 943,-72.73 946.5,-62.73 939.5,-62.73"/>
</g>
<!-- Node14 -->
<g id="node14" class="node">
<title>Node14</title>
<g id="a_node14"><a xlink:href="event__svr_source.html" target="_top" xlink:title=" ">
<polygon fill="white" stroke="black" points="1145,-6 1145,-25 1253,-25 1253,-6 1145,-6"/>
<text text-anchor="middle" x="1199" y="-13" font-family="Helvetica,sans-Serif" font-size="10.00">l4/re/util/event_svr</text>
</a>
</g>
</g>
<!-- Node13&#45;&gt;Node14 -->
<g id="edge13" class="edge">
<title>Node13&#45;&gt;Node14</title>
<path fill="none" stroke="midnightblue" d="M1199,-62.54C1199,-50.17 1199,-34.62 1199,-25.13"/>
<polygon fill="midnightblue" stroke="midnightblue" points="1195.5,-62.73 1199,-72.73 1202.5,-62.73 1195.5,-62.73"/>
</g>
<!-- Node16&#45;&gt;Node4 -->
<g id="edge16" class="edge">
<title>Node16&#45;&gt;Node4</title>
<path fill="none" stroke="midnightblue" d="M319.76,-70.24C362.31,-58.76 428.16,-41 472.38,-29.07"/>
<polygon fill="midnightblue" stroke="midnightblue" points="318.75,-66.89 310,-72.87 320.57,-73.64 318.75,-66.89"/>
</g>
</g>
</svg>
