<?xml version="1.0" encoding="UTF-8" standalone="no"?>
<!DOCTYPE svg PUBLIC "-//W3C//DTD SVG 1.1//EN"
 "http://www.w3.org/Graphics/SVG/1.1/DTD/svg11.dtd">
<!-- Generated by graphviz version 2.43.0 (0)
 -->
<!-- Title: L4::Ipc::make_cap_rw Pages: 1 -->
<svg width="457pt" height="274pt"
 viewBox="0.00 0.00 457.00 274.00" xmlns="http://www.w3.org/2000/svg" xmlns:xlink="http://www.w3.org/1999/xlink">
<g id="graph0" class="graph" transform="scale(1 1) rotate(0) translate(4 270)">
<title>L4::Ipc::make_cap_rw</title>
<polygon fill="white" stroke="transparent" points="-4,4 -4,-270 453,-270 453,4 -4,4"/>
<!-- Node1 -->
<g id="node1" class="node">
<title>Node1</title>
<g id="a_node1"><a xlink:title="Make an L4::Ipc::Cap&lt;T&gt; for the given capability with L4_CAP_FPAGE_RW rights.">
<polygon fill="#bfbfbf" stroke="black" points="328,-126 328,-145 449,-145 449,-126 328,-126"/>
<text text-anchor="middle" x="388.5" y="-133" font-family="Helvetica,sans-Serif" font-size="10.00">L4::Ipc::make_cap_rw</text>
</a>
</g>
</g>
<!-- Node2 -->
<g id="node2" class="node">
<title>Node2</title>
<g id="a_node2"><a xlink:href="classL4Re_1_1Util_1_1Event__buffer__t.html#a7ccb828618951c13cd1ccd7ebe1959e2" target="_top" xlink:title="Attach event buffer from address space.">
<polygon fill="white" stroke="black" points="161,-235.5 161,-265.5 292,-265.5 292,-235.5 161,-235.5"/>
<text text-anchor="start" x="169" y="-253.5" font-family="Helvetica,sans-Serif" font-size="10.00">L4Re::Util::Event_buffer</text>
<text text-anchor="middle" x="226.5" y="-242.5" font-family="Helvetica,sans-Serif" font-size="10.00">_t::attach</text>
</a>
</g>
</g>
<!-- Node1&#45;&gt;Node2 -->
<g id="edge1" class="edge">
<title>Node1&#45;&gt;Node2</title>
<path fill="none" stroke="midnightblue" d="M373.24,-152.82C355.88,-172.94 324.79,-206 292,-226.5 286.63,-229.86 280.72,-232.85 274.72,-235.49"/>
<polygon fill="midnightblue" stroke="midnightblue" points="376.02,-154.96 379.8,-145.06 370.67,-150.44 376.02,-154.96"/>
</g>
<!-- Node3 -->
<g id="node3" class="node">
<title>Node3</title>
<g id="a_node3"><a xlink:href="classL4virtio_1_1Driver_1_1Device.html#a4f8b3d73188c3b6664755b81b80e441c" target="_top" xlink:title="Contacts the device and starts the initial handshake.">
<polygon fill="white" stroke="black" points="162,-186.5 162,-216.5 291,-216.5 291,-186.5 162,-186.5"/>
<text text-anchor="start" x="170" y="-204.5" font-family="Helvetica,sans-Serif" font-size="10.00">L4virtio::Driver::Device</text>
<text text-anchor="middle" x="226.5" y="-193.5" font-family="Helvetica,sans-Serif" font-size="10.00">::driver_connect</text>
</a>
</g>
</g>
<!-- Node1&#45;&gt;Node3 -->
<g id="edge2" class="edge">
<title>Node1&#45;&gt;Node3</title>
<path fill="none" stroke="midnightblue" d="M354.71,-149.03C328.37,-159.89 291.42,-175.13 264.12,-186.39"/>
<polygon fill="midnightblue" stroke="midnightblue" points="356.32,-152.15 364.23,-145.1 353.66,-145.67 356.32,-152.15"/>
</g>
<!-- Node4 -->
<g id="node4" class="node">
<title>Node4</title>
<g id="a_node4"><a xlink:href="classL4virtio_1_1Driver_1_1Block__device.html#a688df51bdec4ba327a6c0b48a83a115a" target="_top" xlink:title="Setup a connection to a device and set up shared memory.">
<polygon fill="white" stroke="black" points="0,-142.5 0,-172.5 125,-172.5 125,-142.5 0,-142.5"/>
<text text-anchor="start" x="8" y="-160.5" font-family="Helvetica,sans-Serif" font-size="10.00">L4virtio::Driver::Block</text>
<text text-anchor="middle" x="62.5" y="-149.5" font-family="Helvetica,sans-Serif" font-size="10.00">_device::setup_device</text>
</a>
</g>
</g>
<!-- Node1&#45;&gt;Node4 -->
<g id="edge8" class="edge">
<title>Node1&#45;&gt;Node4</title>
<path fill="none" stroke="midnightblue" d="M317.64,-140.24C260.37,-144.13 180.07,-149.58 125.16,-153.31"/>
<polygon fill="midnightblue" stroke="midnightblue" points="317.96,-143.73 327.7,-139.56 317.48,-136.75 317.96,-143.73"/>
</g>
<!-- Node5 -->
<g id="node5" class="node">
<title>Node5</title>
<g id="a_node5"><a xlink:href="classL4Re_1_1Util_1_1Event__t.html#a6052908f83d35a7bb1ba9371cbfc9834" target="_top" xlink:title="Initialise an event object.">
<polygon fill="white" stroke="black" points="173,-98.5 173,-128.5 280,-128.5 280,-98.5 173,-98.5"/>
<text text-anchor="start" x="181" y="-116.5" font-family="Helvetica,sans-Serif" font-size="10.00">L4Re::Util::Event_t</text>
<text text-anchor="middle" x="226.5" y="-105.5" font-family="Helvetica,sans-Serif" font-size="10.00">::init</text>
</a>
</g>
</g>
<!-- Node1&#45;&gt;Node5 -->
<g id="edge4" class="edge">
<title>Node1&#45;&gt;Node5</title>
<path fill="none" stroke="midnightblue" d="M317.84,-125.92C305.15,-124.18 292.11,-122.38 280.02,-120.72"/>
<polygon fill="midnightblue" stroke="midnightblue" points="317.54,-129.41 327.92,-127.31 318.49,-122.48 317.54,-129.41"/>
</g>
<!-- Node6 -->
<g id="node6" class="node">
<title>Node6</title>
<g id="a_node6"><a xlink:href="classL4Re_1_1Util_1_1Event__t.html#a2161b185b3f69aa9ef597a03fdbde247" target="_top" xlink:title="Initialise an event object in polling mode.">
<polygon fill="white" stroke="black" points="173,-49.5 173,-79.5 280,-79.5 280,-49.5 173,-49.5"/>
<text text-anchor="start" x="181" y="-67.5" font-family="Helvetica,sans-Serif" font-size="10.00">L4Re::Util::Event_t</text>
<text text-anchor="middle" x="226.5" y="-56.5" font-family="Helvetica,sans-Serif" font-size="10.00">::init_poll</text>
</a>
</g>
</g>
<!-- Node1&#45;&gt;Node6 -->
<g id="edge5" class="edge">
<title>Node1&#45;&gt;Node6</title>
<path fill="none" stroke="midnightblue" d="M359.72,-121.4C340.81,-111.98 315.11,-99.52 292,-89.5 284.29,-86.15 275.97,-82.77 267.96,-79.62"/>
<polygon fill="midnightblue" stroke="midnightblue" points="358.17,-124.54 368.68,-125.89 361.31,-118.28 358.17,-124.54"/>
</g>
<!-- Node7 -->
<g id="node7" class="node">
<title>Node7</title>
<g id="a_node7"><a xlink:href="classL4virtio_1_1Driver_1_1Device.html#a7a5c440b8353e0bd030a552334e7e5a3" target="_top" xlink:title="Share a dataspace with the device.">
<polygon fill="white" stroke="black" points="162,-0.5 162,-30.5 291,-30.5 291,-0.5 162,-0.5"/>
<text text-anchor="start" x="170" y="-18.5" font-family="Helvetica,sans-Serif" font-size="10.00">L4virtio::Driver::Device</text>
<text text-anchor="middle" x="226.5" y="-7.5" font-family="Helvetica,sans-Serif" font-size="10.00">::register_ds</text>
</a>
</g>
</g>
<!-- Node1&#45;&gt;Node7 -->
<g id="edge6" class="edge">
<title>Node1&#45;&gt;Node7</title>
<path fill="none" stroke="midnightblue" d="M373.62,-117.78C356.42,-96.85 325.29,-62.13 292,-40.5 286.26,-36.77 279.88,-33.46 273.43,-30.57"/>
<polygon fill="midnightblue" stroke="midnightblue" points="371.1,-120.24 380.1,-125.83 376.56,-115.85 371.1,-120.24"/>
</g>
<!-- Node3&#45;&gt;Node4 -->
<g id="edge3" class="edge">
<title>Node3&#45;&gt;Node4</title>
<path fill="none" stroke="midnightblue" d="M160.32,-183.8C146.56,-180.06 132.18,-176.15 118.82,-172.53"/>
<polygon fill="midnightblue" stroke="midnightblue" points="159.63,-187.24 170.2,-186.48 161.47,-180.48 159.63,-187.24"/>
</g>
<!-- Node7&#45;&gt;Node4 -->
<g id="edge7" class="edge">
<title>Node7&#45;&gt;Node4</title>
<path fill="none" stroke="midnightblue" d="M169.32,-35.18C166.43,-36.84 163.63,-38.61 161,-40.5 121.06,-69.19 87.69,-117.95 72.42,-142.48"/>
<polygon fill="midnightblue" stroke="midnightblue" points="170.97,-38.27 178.24,-30.57 167.75,-32.06 170.97,-38.27"/>
</g>
</g>
</svg>
