<?xml version="1.0" encoding="UTF-8" standalone="no"?>
<!DOCTYPE svg PUBLIC "-//W3C//DTD SVG 1.1//EN"
 "http://www.w3.org/Graphics/SVG/1.1/DTD/svg11.dtd">
<!-- Generated by graphviz version 2.43.0 (0)
 -->
<!-- Title: L4Re::chksys Pages: 1 -->
<svg width="446pt" height="598pt"
 viewBox="0.00 0.00 446.00 598.00" xmlns="http://www.w3.org/2000/svg" xmlns:xlink="http://www.w3.org/1999/xlink">
<g id="graph0" class="graph" transform="scale(1 1) rotate(0) translate(4 594)">
<title>L4Re::chksys</title>
<polygon fill="white" stroke="transparent" points="-4,4 -4,-594 442,-594 442,4 -4,4"/>
<!-- Node1 -->
<g id="node1" class="node">
<title>Node1</title>
<g id="a_node1"><a xlink:title="Generate C++ exception on error.">
<polygon fill="#bfbfbf" stroke="black" points="358,-297 358,-316 438,-316 438,-297 358,-297"/>
<text text-anchor="middle" x="398" y="-304" font-family="Helvetica,sans-Serif" font-size="10.00">L4Re::chksys</text>
</a>
</g>
</g>
<!-- Node2 -->
<g id="node2" class="node">
<title>Node2</title>
<g id="a_node2"><a xlink:href="classL4virtio_1_1Svr_1_1Driver__mem__list__t.html#a6749bd65e419d7f814dd4c27e0567f28" target="_top" xlink:title="Add a new region to the list.">
<polygon fill="white" stroke="black" points="186,-559.5 186,-589.5 297,-589.5 297,-559.5 186,-559.5"/>
<text text-anchor="start" x="194" y="-577.5" font-family="Helvetica,sans-Serif" font-size="10.00">L4virtio::Svr::Driver</text>
<text text-anchor="middle" x="241.5" y="-566.5" font-family="Helvetica,sans-Serif" font-size="10.00">_mem_list_t::add</text>
</a>
</g>
</g>
<!-- Node1&#45;&gt;Node2 -->
<g id="edge1" class="edge">
<title>Node1&#45;&gt;Node2</title>
<path fill="none" stroke="midnightblue" d="M396.77,-326.64C395.12,-372.7 384.57,-486.59 322,-549.5 315.16,-556.37 306.46,-561.36 297.34,-564.98"/>
<polygon fill="midnightblue" stroke="midnightblue" points="400.27,-326.55 397.02,-316.46 393.27,-326.37 400.27,-326.55"/>
</g>
<!-- Node3 -->
<g id="node3" class="node">
<title>Node3</title>
<g id="a_node3"><a xlink:href="namespaceL4Re.html#ae21329b88c6ffc4917048e8d9564ea99" target="_top" xlink:title="Test a message tag for IPC errors.">
<polygon fill="white" stroke="black" points="202.5,-521 202.5,-540 280.5,-540 280.5,-521 202.5,-521"/>
<text text-anchor="middle" x="241.5" y="-528" font-family="Helvetica,sans-Serif" font-size="10.00">L4Re::chkipc</text>
</a>
</g>
</g>
<!-- Node1&#45;&gt;Node3 -->
<g id="edge2" class="edge">
<title>Node1&#45;&gt;Node3</title>
<path fill="none" stroke="midnightblue" d="M395.74,-326.54C392.05,-367.68 377.63,-461.98 322,-511.5 310.76,-521.5 295.2,-526.48 280.82,-528.88"/>
<polygon fill="midnightblue" stroke="midnightblue" points="399.25,-326.66 396.53,-316.42 392.27,-326.12 399.25,-326.66"/>
</g>
<!-- Node4 -->
<g id="node4" class="node">
<title>Node4</title>
<g id="a_node4"><a xlink:href="namespaceL4Re.html#ad17a205e6270588606dd85399b0f9b6c" target="_top" xlink:title="Generate C++ exception on error.">
<polygon fill="white" stroke="black" points="201.5,-483 201.5,-502 281.5,-502 281.5,-483 201.5,-483"/>
<text text-anchor="middle" x="241.5" y="-490" font-family="Helvetica,sans-Serif" font-size="10.00">L4Re::chksys</text>
</a>
</g>
</g>
<!-- Node1&#45;&gt;Node4 -->
<g id="edge3" class="edge">
<title>Node1&#45;&gt;Node4</title>
<path fill="none" stroke="midnightblue" d="M393.93,-326.18C387.37,-361.35 368.61,-434.9 322,-473.5 310.74,-482.82 295.67,-487.72 281.68,-490.24"/>
<polygon fill="midnightblue" stroke="midnightblue" points="397.4,-326.65 395.65,-316.2 390.5,-325.46 397.4,-326.65"/>
</g>
<!-- Node5 -->
<g id="node5" class="node">
<title>Node5</title>
<g id="a_node5"><a xlink:href="classL4virtio_1_1Svr_1_1Dev__config.html#a663b81f49e6ce03f9b7e136d6646bf89" target="_top" xlink:title="Create a L4&#45;Virtio config data space.">
<polygon fill="white" stroke="black" points="186,-433.5 186,-463.5 297,-463.5 297,-433.5 186,-433.5"/>
<text text-anchor="start" x="194" y="-451.5" font-family="Helvetica,sans-Serif" font-size="10.00">L4virtio::Svr::Dev</text>
<text text-anchor="middle" x="241.5" y="-440.5" font-family="Helvetica,sans-Serif" font-size="10.00">_config::Dev_config</text>
</a>
</g>
</g>
<!-- Node1&#45;&gt;Node5 -->
<g id="edge4" class="edge">
<title>Node1&#45;&gt;Node5</title>
<path fill="none" stroke="midnightblue" d="M389.86,-325.62C379.12,-351.78 356.34,-398.46 322,-424.5 314.65,-430.08 306,-434.36 297.17,-437.66"/>
<polygon fill="midnightblue" stroke="midnightblue" points="393.21,-326.67 393.61,-316.08 386.69,-324.11 393.21,-326.67"/>
</g>
<!-- Node6 -->
<g id="node6" class="node">
<title>Node6</title>
<g id="a_node6"><a xlink:href="classL4virtio_1_1Svr_1_1Device__t.html#ae602028544a9b03a349af6522035dcac" target="_top" xlink:title="callback to gather the device notification IRQ (old&#45;style)">
<polygon fill="white" stroke="black" points="184,-384.5 184,-414.5 299,-414.5 299,-384.5 184,-384.5"/>
<text text-anchor="start" x="192" y="-402.5" font-family="Helvetica,sans-Serif" font-size="10.00">L4virtio::Svr::Device</text>
<text text-anchor="middle" x="241.5" y="-391.5" font-family="Helvetica,sans-Serif" font-size="10.00">_t::device_notify_irq</text>
</a>
</g>
</g>
<!-- Node1&#45;&gt;Node6 -->
<g id="edge5" class="edge">
<title>Node1&#45;&gt;Node6</title>
<path fill="none" stroke="midnightblue" d="M381.92,-324.34C367.87,-339.9 345.6,-362.04 322,-375.5 314.99,-379.5 307.24,-382.9 299.41,-385.77"/>
<polygon fill="midnightblue" stroke="midnightblue" points="384.86,-326.29 388.83,-316.46 379.6,-321.67 384.86,-326.29"/>
</g>
<!-- Node8 -->
<g id="node8" class="node">
<title>Node8</title>
<g id="a_node8"><a xlink:href="classL4virtio_1_1Driver_1_1Device.html#af06d27e63124749456ddc8d959231741" target="_top" xlink:title="Finalize handshake with the device.">
<polygon fill="white" stroke="black" points="177,-335.5 177,-365.5 306,-365.5 306,-335.5 177,-335.5"/>
<text text-anchor="start" x="185" y="-353.5" font-family="Helvetica,sans-Serif" font-size="10.00">L4virtio::Driver::Device</text>
<text text-anchor="middle" x="241.5" y="-342.5" font-family="Helvetica,sans-Serif" font-size="10.00">::driver_acknowledge</text>
</a>
</g>
</g>
<!-- Node1&#45;&gt;Node8 -->
<g id="edge7" class="edge">
<title>Node1&#45;&gt;Node8</title>
<path fill="none" stroke="midnightblue" d="M353.77,-318.81C335.66,-323.97 314.43,-330.01 295.4,-335.43"/>
<polygon fill="midnightblue" stroke="midnightblue" points="354.82,-322.15 363.48,-316.05 352.9,-315.42 354.82,-322.15"/>
</g>
<!-- Node9 -->
<g id="node9" class="node">
<title>Node9</title>
<g id="a_node9"><a xlink:href="classL4virtio_1_1Driver_1_1Block__device.html#a688df51bdec4ba327a6c0b48a83a115a" target="_top" xlink:title="Setup a connection to a device and set up shared memory.">
<polygon fill="white" stroke="black" points="0,-291.5 0,-321.5 125,-321.5 125,-291.5 0,-291.5"/>
<text text-anchor="start" x="8" y="-309.5" font-family="Helvetica,sans-Serif" font-size="10.00">L4virtio::Driver::Block</text>
<text text-anchor="middle" x="62.5" y="-298.5" font-family="Helvetica,sans-Serif" font-size="10.00">_device::setup_device</text>
</a>
</g>
</g>
<!-- Node1&#45;&gt;Node9 -->
<g id="edge17" class="edge">
<title>Node1&#45;&gt;Node9</title>
<path fill="none" stroke="midnightblue" d="M347.56,-306.5C288.4,-306.5 189.35,-306.5 125.23,-306.5"/>
<polygon fill="midnightblue" stroke="midnightblue" points="347.76,-310 357.76,-306.5 347.76,-303 347.76,-310"/>
</g>
<!-- Node10 -->
<g id="node10" class="node">
<title>Node10</title>
<g id="a_node10"><a xlink:href="classL4virtio_1_1Driver_1_1Device.html#a4f8b3d73188c3b6664755b81b80e441c" target="_top" xlink:title="Contacts the device and starts the initial handshake.">
<polygon fill="white" stroke="black" points="177,-247.5 177,-277.5 306,-277.5 306,-247.5 177,-247.5"/>
<text text-anchor="start" x="185" y="-265.5" font-family="Helvetica,sans-Serif" font-size="10.00">L4virtio::Driver::Device</text>
<text text-anchor="middle" x="241.5" y="-254.5" font-family="Helvetica,sans-Serif" font-size="10.00">::driver_connect</text>
</a>
</g>
</g>
<!-- Node1&#45;&gt;Node10 -->
<g id="edge9" class="edge">
<title>Node1&#45;&gt;Node10</title>
<path fill="none" stroke="midnightblue" d="M353.77,-294.19C335.66,-289.03 314.43,-282.99 295.4,-277.57"/>
<polygon fill="midnightblue" stroke="midnightblue" points="352.9,-297.58 363.48,-296.95 354.82,-290.85 352.9,-297.58"/>
</g>
<!-- Node11 -->
<g id="node11" class="node">
<title>Node11</title>
<g id="a_node11"><a xlink:href="classL4virtio_1_1Svr_1_1Driver__mem__region__t.html#abdad88a18e5428fb2276148ceccf0434" target="_top" xlink:title="Make a local memory region for the given driver values.">
<polygon fill="white" stroke="black" points="177.5,-187 177.5,-228 305.5,-228 305.5,-187 177.5,-187"/>
<text text-anchor="start" x="185.5" y="-216" font-family="Helvetica,sans-Serif" font-size="10.00">L4virtio::Svr::Driver</text>
<text text-anchor="start" x="185.5" y="-205" font-family="Helvetica,sans-Serif" font-size="10.00">_mem_region_t::Driver</text>
<text text-anchor="middle" x="241.5" y="-194" font-family="Helvetica,sans-Serif" font-size="10.00">_mem_region_t</text>
</a>
</g>
</g>
<!-- Node1&#45;&gt;Node11 -->
<g id="edge11" class="edge">
<title>Node1&#45;&gt;Node11</title>
<path fill="none" stroke="midnightblue" d="M381.61,-289.37C367.35,-274.33 344.95,-252.7 322,-238.5 315.83,-234.68 309.11,-231.19 302.27,-228.04"/>
<polygon fill="midnightblue" stroke="midnightblue" points="379.28,-292 388.64,-296.96 384.41,-287.25 379.28,-292"/>
</g>
<!-- Node12 -->
<g id="node12" class="node">
<title>Node12</title>
<g id="a_node12"><a xlink:href="classL4virtio_1_1Driver_1_1Block__device.html#a9f1a7a08e90ca6c1441bd48abc8b574a" target="_top" xlink:title="Process and free all items in the used queue.">
<polygon fill="white" stroke="black" points="161,-137.5 161,-167.5 322,-167.5 322,-137.5 161,-137.5"/>
<text text-anchor="start" x="169" y="-155.5" font-family="Helvetica,sans-Serif" font-size="10.00">L4virtio::Driver::Block</text>
<text text-anchor="middle" x="241.5" y="-144.5" font-family="Helvetica,sans-Serif" font-size="10.00">_device::process_used_queue</text>
</a>
</g>
</g>
<!-- Node1&#45;&gt;Node12 -->
<g id="edge12" class="edge">
<title>Node1&#45;&gt;Node12</title>
<path fill="none" stroke="midnightblue" d="M390.87,-287.26C380.92,-259.08 358.6,-206.76 322,-177.5 317.14,-173.62 311.67,-170.33 305.93,-167.55"/>
<polygon fill="midnightblue" stroke="midnightblue" points="387.57,-288.42 394.08,-296.78 394.2,-286.19 387.57,-288.42"/>
</g>
<!-- Node13 -->
<g id="node13" class="node">
<title>Node13</title>
<g id="a_node13"><a xlink:href="classL4virtio_1_1Svr_1_1Device__t.html#a66d09e200e34ccad61e5843d2b5bb0a0" target="_top" xlink:title="Callback for registering an notification IRQ (multi IRQ).">
<polygon fill="white" stroke="black" points="2,-71.5 2,-101.5 123,-101.5 123,-71.5 2,-71.5"/>
<text text-anchor="start" x="10" y="-89.5" font-family="Helvetica,sans-Serif" font-size="10.00">L4virtio::Svr::Device</text>
<text text-anchor="middle" x="62.5" y="-78.5" font-family="Helvetica,sans-Serif" font-size="10.00">_t::register_driver_irq</text>
</a>
</g>
</g>
<!-- Node1&#45;&gt;Node13 -->
<g id="edge13" class="edge">
<title>Node1&#45;&gt;Node13</title>
<path fill="none" stroke="midnightblue" d="M394.85,-286.75C389.67,-249.39 372.88,-168.52 322,-128.5 291.94,-104.85 189.73,-94.15 123.2,-89.59"/>
<polygon fill="midnightblue" stroke="midnightblue" points="391.4,-287.37 396.11,-296.86 398.35,-286.5 391.4,-287.37"/>
</g>
<!-- Node14 -->
<g id="node14" class="node">
<title>Node14</title>
<g id="a_node14"><a xlink:href="classL4virtio_1_1Svr_1_1Device__t.html#a8047b37ac63d6b5f84bcb1886a06f1b2" target="_top" xlink:title="callback for registering a single guest IRQ for all queues (old&#45;style)">
<polygon fill="white" stroke="black" points="164,-49.5 164,-79.5 319,-79.5 319,-49.5 164,-49.5"/>
<text text-anchor="start" x="172" y="-67.5" font-family="Helvetica,sans-Serif" font-size="10.00">L4virtio::Svr::Device</text>
<text text-anchor="middle" x="241.5" y="-56.5" font-family="Helvetica,sans-Serif" font-size="10.00">_t::register_single_driver_irq</text>
</a>
</g>
</g>
<!-- Node1&#45;&gt;Node14 -->
<g id="edge14" class="edge">
<title>Node1&#45;&gt;Node14</title>
<path fill="none" stroke="midnightblue" d="M395.43,-286.36C391.14,-244.9 375.69,-149.31 322,-94.5 316.01,-88.39 308.66,-83.5 300.86,-79.61"/>
<polygon fill="midnightblue" stroke="midnightblue" points="391.96,-286.9 396.36,-296.54 398.94,-286.26 391.96,-286.9"/>
</g>
<!-- Node15 -->
<g id="node15" class="node">
<title>Node15</title>
<g id="a_node15"><a xlink:href="classL4virtio_1_1Svr_1_1Driver__mem__list__t.html#a36efa2f3d99ee6e3e7d07e1dec0343d8" target="_top" xlink:title="Remove the given region from the list.">
<polygon fill="white" stroke="black" points="181.5,-0.5 181.5,-30.5 301.5,-30.5 301.5,-0.5 181.5,-0.5"/>
<text text-anchor="start" x="189.5" y="-18.5" font-family="Helvetica,sans-Serif" font-size="10.00">L4virtio::Svr::Driver</text>
<text text-anchor="middle" x="241.5" y="-7.5" font-family="Helvetica,sans-Serif" font-size="10.00">_mem_list_t::remove</text>
</a>
</g>
</g>
<!-- Node1&#45;&gt;Node15 -->
<g id="edge16" class="edge">
<title>Node1&#45;&gt;Node15</title>
<path fill="none" stroke="midnightblue" d="M397.49,-286.7C397.58,-237.7 390.82,-109.67 322,-39.5 316.35,-33.74 309.36,-29.35 301.9,-26"/>
<polygon fill="midnightblue" stroke="midnightblue" points="393.98,-286.85 397.36,-296.89 400.98,-286.94 393.98,-286.85"/>
</g>
<!-- Node7 -->
<g id="node7" class="node">
<title>Node7</title>
<g id="a_node7"><a xlink:href="classL4virtio_1_1Svr_1_1Device__t.html#a6f19c5c3627951e871dcd868aec32aa1" target="_top" xlink:title="Callback to gather the device notification IRQ (multi IRQ).">
<polygon fill="white" stroke="black" points="5,-384.5 5,-414.5 120,-414.5 120,-384.5 5,-384.5"/>
<text text-anchor="start" x="13" y="-402.5" font-family="Helvetica,sans-Serif" font-size="10.00">L4virtio::Svr::Device</text>
<text text-anchor="middle" x="62.5" y="-391.5" font-family="Helvetica,sans-Serif" font-size="10.00">_t::device_notify_irq</text>
</a>
</g>
</g>
<!-- Node6&#45;&gt;Node7 -->
<g id="edge6" class="edge">
<title>Node6&#45;&gt;Node7</title>
<path fill="none" stroke="midnightblue" d="M173.34,-399.5C155.78,-399.5 137.02,-399.5 120.07,-399.5"/>
<polygon fill="midnightblue" stroke="midnightblue" points="173.52,-403 183.52,-399.5 173.52,-396 173.52,-403"/>
</g>
<!-- Node8&#45;&gt;Node9 -->
<g id="edge8" class="edge">
<title>Node8&#45;&gt;Node9</title>
<path fill="none" stroke="midnightblue" d="M170.16,-333.01C154.87,-329.21 138.82,-325.22 123.95,-321.53"/>
<polygon fill="midnightblue" stroke="midnightblue" points="169.53,-336.46 180.08,-335.48 171.22,-329.67 169.53,-336.46"/>
</g>
<!-- Node10&#45;&gt;Node9 -->
<g id="edge10" class="edge">
<title>Node10&#45;&gt;Node9</title>
<path fill="none" stroke="midnightblue" d="M170.16,-279.99C154.87,-283.79 138.82,-287.78 123.95,-291.47"/>
<polygon fill="midnightblue" stroke="midnightblue" points="171.22,-283.33 180.08,-277.52 169.53,-276.54 171.22,-283.33"/>
</g>
<!-- Node14&#45;&gt;Node13 -->
<g id="edge15" class="edge">
<title>Node14&#45;&gt;Node13</title>
<path fill="none" stroke="midnightblue" d="M153.94,-75.26C143.52,-76.55 133.06,-77.85 123.15,-79.09"/>
<polygon fill="midnightblue" stroke="midnightblue" points="154.4,-78.73 163.89,-74.02 153.54,-71.78 154.4,-78.73"/>
</g>
</g>
</svg>
