<?xml version="1.0" encoding="UTF-8" standalone="no"?>
<!DOCTYPE svg PUBLIC "-//W3C//DTD SVG 1.1//EN"
 "http://www.w3.org/Graphics/SVG/1.1/DTD/svg11.dtd">
<!-- Generated by graphviz version 2.43.0 (0)
 -->
<!-- Title: L4Re::chkcap Pages: 1 -->
<svg width="415pt" height="110pt"
 viewBox="0.00 0.00 415.00 110.00" xmlns="http://www.w3.org/2000/svg" xmlns:xlink="http://www.w3.org/1999/xlink">
<g id="graph0" class="graph" transform="scale(1 1) rotate(0) translate(4 106)">
<title>L4Re::chkcap</title>
<polygon fill="white" stroke="transparent" points="-4,4 -4,-106 411,-106 411,4 -4,4"/>
<!-- Node1 -->
<g id="node1" class="node">
<title>Node1</title>
<g id="a_node1"><a xlink:title="Check for valid capability or raise C++ exception.">
<polygon fill="#bfbfbf" stroke="black" points="326,-28 326,-47 407,-47 407,-28 326,-28"/>
<text text-anchor="middle" x="366.5" y="-35" font-family="Helvetica,sans-Serif" font-size="10.00">L4Re::chkcap</text>
</a>
</g>
</g>
<!-- Node2 -->
<g id="node2" class="node">
<title>Node2</title>
<g id="a_node2"><a xlink:href="classL4virtio_1_1Svr_1_1Dev__config.html#a663b81f49e6ce03f9b7e136d6646bf89" target="_top" xlink:title="Create a L4&#45;Virtio config data space.">
<polygon fill="white" stroke="black" points="170,-71.5 170,-101.5 281,-101.5 281,-71.5 170,-71.5"/>
<text text-anchor="start" x="178" y="-89.5" font-family="Helvetica,sans-Serif" font-size="10.00">L4virtio::Svr::Dev</text>
<text text-anchor="middle" x="225.5" y="-78.5" font-family="Helvetica,sans-Serif" font-size="10.00">_config::Dev_config</text>
</a>
</g>
</g>
<!-- Node1&#45;&gt;Node2 -->
<g id="edge1" class="edge">
<title>Node1&#45;&gt;Node2</title>
<path fill="none" stroke="midnightblue" d="M328.91,-50.4C310.57,-56.86 288.27,-64.73 269.16,-71.46"/>
<polygon fill="midnightblue" stroke="midnightblue" points="330.1,-53.69 338.37,-47.06 327.77,-47.09 330.1,-53.69"/>
</g>
<!-- Node3 -->
<g id="node3" class="node">
<title>Node3</title>
<g id="a_node3"><a xlink:href="classL4virtio_1_1Driver_1_1Device.html#a4f8b3d73188c3b6664755b81b80e441c" target="_top" xlink:title="Contacts the device and starts the initial handshake.">
<polygon fill="white" stroke="black" points="161,-22.5 161,-52.5 290,-52.5 290,-22.5 161,-22.5"/>
<text text-anchor="start" x="169" y="-40.5" font-family="Helvetica,sans-Serif" font-size="10.00">L4virtio::Driver::Device</text>
<text text-anchor="middle" x="225.5" y="-29.5" font-family="Helvetica,sans-Serif" font-size="10.00">::driver_connect</text>
</a>
</g>
</g>
<!-- Node1&#45;&gt;Node3 -->
<g id="edge2" class="edge">
<title>Node1&#45;&gt;Node3</title>
<path fill="none" stroke="midnightblue" d="M315.52,-37.5C307.31,-37.5 298.71,-37.5 290.22,-37.5"/>
<polygon fill="midnightblue" stroke="midnightblue" points="315.67,-41 325.67,-37.5 315.67,-34 315.67,-41"/>
</g>
<!-- Node4 -->
<g id="node4" class="node">
<title>Node4</title>
<g id="a_node4"><a xlink:href="classL4virtio_1_1Driver_1_1Block__device.html#a688df51bdec4ba327a6c0b48a83a115a" target="_top" xlink:title="Setup a connection to a device and set up shared memory.">
<polygon fill="white" stroke="black" points="0,-0.5 0,-30.5 125,-30.5 125,-0.5 0,-0.5"/>
<text text-anchor="start" x="8" y="-18.5" font-family="Helvetica,sans-Serif" font-size="10.00">L4virtio::Driver::Block</text>
<text text-anchor="middle" x="62.5" y="-7.5" font-family="Helvetica,sans-Serif" font-size="10.00">_device::setup_device</text>
</a>
</g>
</g>
<!-- Node1&#45;&gt;Node4 -->
<g id="edge4" class="edge">
<title>Node1&#45;&gt;Node4</title>
<path fill="none" stroke="midnightblue" d="M332.35,-24.53C319.36,-20.1 304.19,-15.7 290,-13.5 234.82,-4.94 171.17,-6.49 125.42,-9.57"/>
<polygon fill="midnightblue" stroke="midnightblue" points="331.22,-27.84 341.81,-27.9 333.56,-21.25 331.22,-27.84"/>
</g>
<!-- Node3&#45;&gt;Node4 -->
<g id="edge3" class="edge">
<title>Node3&#45;&gt;Node4</title>
<path fill="none" stroke="midnightblue" d="M150.84,-27.43C142.23,-26.26 133.51,-25.07 125.09,-23.92"/>
<polygon fill="midnightblue" stroke="midnightblue" points="150.49,-30.92 160.87,-28.81 151.43,-23.98 150.49,-30.92"/>
</g>
</g>
</svg>
