<?xml version="1.0" encoding="UTF-8" standalone="no"?>
<!DOCTYPE svg PUBLIC "-//W3C//DTD SVG 1.1//EN"
 "http://www.w3.org/Graphics/SVG/1.1/DTD/svg11.dtd">
<!-- Generated by graphviz version 2.43.0 (0)
 -->
<!-- Title: l4/re/namespace Pages: 1 -->
<svg width="777pt" height="767pt"
 viewBox="0.00 0.00 777.00 767.00" xmlns="http://www.w3.org/2000/svg" xmlns:xlink="http://www.w3.org/1999/xlink">
<g id="graph0" class="graph" transform="scale(1 1) rotate(0) translate(4 763)">
<title>l4/re/namespace</title>
<polygon fill="white" stroke="transparent" points="-4,4 -4,-763 773,-763 773,4 -4,4"/>
<!-- Node1 -->
<g id="node1" class="node">
<title>Node1</title>
<g id="a_node1"><a xlink:title="Namespace interface.">
<polygon fill="#bfbfbf" stroke="black" points="433,-739.5 433,-758.5 531,-758.5 531,-739.5 433,-739.5"/>
<text text-anchor="middle" x="482" y="-746.5" font-family="Helvetica,sans-Serif" font-size="10.00">l4/re/namespace</text>
</a>
</g>
</g>
<!-- Node2 -->
<g id="node2" class="node">
<title>Node2</title>
<g id="a_node2"><a xlink:href="capability.html" target="_top" xlink:title="L4::Cap related definitions.">
<polygon fill="white" stroke="black" points="166,-683.5 166,-702.5 262,-702.5 262,-683.5 166,-683.5"/>
<text text-anchor="middle" x="214" y="-690.5" font-family="Helvetica,sans-Serif" font-size="10.00">l4/sys/capability</text>
</a>
</g>
</g>
<!-- Node1&#45;&gt;Node2 -->
<g id="edge1" class="edge">
<title>Node1&#45;&gt;Node2</title>
<path fill="none" stroke="midnightblue" d="M439.53,-739.44C392.59,-729.98 316.92,-714.74 266.35,-704.55"/>
<polygon fill="midnightblue" stroke="midnightblue" points="266.76,-701.06 256.27,-702.52 265.38,-707.92 266.76,-701.06"/>
</g>
<!-- Node22 -->
<g id="node22" class="node">
<title>Node22</title>
<g id="a_node22"><a xlink:href="ipc__iface.html" target="_top" xlink:title="Interface Definition Language.">
<polygon fill="white" stroke="black" points="372,-515.5 372,-534.5 452,-534.5 452,-515.5 372,-515.5"/>
<text text-anchor="middle" x="412" y="-522.5" font-family="Helvetica,sans-Serif" font-size="10.00">cxx/ipc_iface</text>
</a>
</g>
</g>
<!-- Node1&#45;&gt;Node22 -->
<g id="edge61" class="edge">
<title>Node1&#45;&gt;Node22</title>
<path fill="none" stroke="midnightblue" d="M479.03,-739.18C471.04,-715.35 448.49,-647.69 431,-591 426.18,-575.38 420.99,-557.55 417.25,-544.52"/>
<polygon fill="midnightblue" stroke="midnightblue" points="420.61,-543.51 414.5,-534.86 413.88,-545.43 420.61,-543.51"/>
</g>
<!-- Node24 -->
<g id="node24" class="node">
<title>Node24</title>
<g id="a_node24"><a xlink:href="ipc__string_source.html" target="_top" xlink:title=" ">
<polygon fill="white" stroke="black" points="440,-571.5 440,-590.5 524,-590.5 524,-571.5 440,-571.5"/>
<text text-anchor="middle" x="482" y="-578.5" font-family="Helvetica,sans-Serif" font-size="10.00">cxx/ipc_string</text>
</a>
</g>
</g>
<!-- Node1&#45;&gt;Node24 -->
<g id="edge63" class="edge">
<title>Node1&#45;&gt;Node24</title>
<path fill="none" stroke="midnightblue" d="M482,-739.08C482,-712.95 482,-636.21 482,-600.58"/>
<polygon fill="midnightblue" stroke="midnightblue" points="485.5,-600.57 482,-590.57 478.5,-600.57 485.5,-600.57"/>
</g>
<!-- Node25 -->
<g id="node25" class="node">
<title>Node25</title>
<g id="a_node25"><a xlink:href="ipc__array_source.html" target="_top" xlink:title=" ">
<polygon fill="white" stroke="black" points="707,-515.5 707,-534.5 769,-534.5 769,-515.5 707,-515.5"/>
<text text-anchor="middle" x="738" y="-522.5" font-family="Helvetica,sans-Serif" font-size="10.00">ipc_array</text>
</a>
</g>
</g>
<!-- Node1&#45;&gt;Node25 -->
<g id="edge62" class="edge">
<title>Node1&#45;&gt;Node25</title>
<path fill="none" stroke="midnightblue" d="M492.04,-739.3C530.75,-705.73 670.68,-584.38 720.36,-541.3"/>
<polygon fill="midnightblue" stroke="midnightblue" points="722.77,-543.84 728.03,-534.64 718.19,-538.55 722.77,-543.84"/>
</g>
<!-- Node26 -->
<g id="node26" class="node">
<title>Node26</title>
<g id="a_node26"><a xlink:href="protocols_8h.html" target="_top" xlink:title="L4Re Protocol Constants (C version)">
<polygon fill="white" stroke="black" points="580.5,-683.5 580.5,-702.5 675.5,-702.5 675.5,-683.5 580.5,-683.5"/>
<text text-anchor="middle" x="628" y="-690.5" font-family="Helvetica,sans-Serif" font-size="10.00">l4/re/protocols.h</text>
</a>
</g>
</g>
<!-- Node1&#45;&gt;Node26 -->
<g id="edge60" class="edge">
<title>Node1&#45;&gt;Node26</title>
<path fill="none" stroke="midnightblue" d="M505.13,-739.44C529.48,-730.44 568.01,-716.19 595.42,-706.05"/>
<polygon fill="midnightblue" stroke="midnightblue" points="596.81,-709.27 604.97,-702.52 594.38,-702.7 596.81,-709.27"/>
</g>
<!-- Node3 -->
<g id="node3" class="node">
<title>Node3</title>
<g id="a_node3"><a xlink:href="l4_2sys_2consts_8h.html" target="_top" xlink:title="Common constants.">
<polygon fill="white" stroke="black" points="144.5,-112.5 144.5,-131.5 233.5,-131.5 233.5,-112.5 144.5,-112.5"/>
<text text-anchor="middle" x="189" y="-119.5" font-family="Helvetica,sans-Serif" font-size="10.00">l4/sys/consts.h</text>
</a>
</g>
</g>
<!-- Node2&#45;&gt;Node3 -->
<g id="edge2" class="edge">
<title>Node2&#45;&gt;Node3</title>
<path fill="none" stroke="midnightblue" d="M165.97,-688.23C102.88,-680.36 0,-656.15 0,-582 0,-582 0,-582 0,-233 0,-197.62 100.2,-155.44 154.68,-135.13"/>
<polygon fill="midnightblue" stroke="midnightblue" points="156.11,-138.33 164.29,-131.59 153.7,-131.76 156.11,-138.33"/>
</g>
<!-- Node7 -->
<g id="node7" class="node">
<title>Node7</title>
<g id="a_node7"><a xlink:href="l4_2sys_2types_8h.html" target="_top" xlink:title="Common L4 ABI Data Types.">
<polygon fill="white" stroke="black" points="130,-168.5 130,-187.5 214,-187.5 214,-168.5 130,-168.5"/>
<text text-anchor="middle" x="172" y="-175.5" font-family="Helvetica,sans-Serif" font-size="10.00">l4/sys/types.h</text>
</a>
</g>
</g>
<!-- Node2&#45;&gt;Node7 -->
<g id="edge6" class="edge">
<title>Node2&#45;&gt;Node7</title>
<path fill="none" stroke="midnightblue" d="M165.91,-683.4C113.8,-670.99 38,-642.53 38,-582 38,-582 38,-582 38,-289 38,-238.39 95.8,-206.81 135.48,-191.09"/>
<polygon fill="midnightblue" stroke="midnightblue" points="136.77,-194.35 144.88,-187.53 134.29,-187.8 136.77,-194.35"/>
</g>
<!-- Node10 -->
<g id="node10" class="node">
<title>Node10</title>
<g id="a_node10"><a xlink:href="kobject_source.html" target="_top" xlink:title=" ">
<polygon fill="white" stroke="black" points="244.5,-515.5 244.5,-534.5 327.5,-534.5 327.5,-515.5 244.5,-515.5"/>
<text text-anchor="middle" x="286" y="-522.5" font-family="Helvetica,sans-Serif" font-size="10.00">l4/sys/kobject</text>
</a>
</g>
</g>
<!-- Node2&#45;&gt;Node10 -->
<g id="edge14" class="edge">
<title>Node2&#45;&gt;Node10</title>
<path fill="none" stroke="midnightblue" d="M217.87,-683.08C229.25,-656.83 262.78,-579.55 278.14,-544.12"/>
<polygon fill="midnightblue" stroke="midnightblue" points="281.52,-545.14 282.28,-534.57 275.09,-542.35 281.52,-545.14"/>
</g>
<!-- Node20 -->
<g id="node20" class="node">
<title>Node20</title>
<g id="a_node20"><a xlink:href="l4_2sys_2task_8h.html" target="_top" xlink:title="Common task related definitions.">
<polygon fill="white" stroke="black" points="142,-342 142,-361 220,-361 220,-342 142,-342"/>
<text text-anchor="middle" x="181" y="-349" font-family="Helvetica,sans-Serif" font-size="10.00">l4/sys/task.h</text>
</a>
</g>
</g>
<!-- Node2&#45;&gt;Node20 -->
<g id="edge43" class="edge">
<title>Node2&#45;&gt;Node20</title>
<path fill="none" stroke="midnightblue" d="M211.57,-683.24C206.66,-664.71 196,-620.12 196,-582 196,-582 196,-582 196,-468 196,-433.58 189.37,-393.86 184.92,-371.11"/>
<polygon fill="midnightblue" stroke="midnightblue" points="188.32,-370.25 182.9,-361.14 181.46,-371.64 188.32,-370.25"/>
</g>
<!-- Node21 -->
<g id="node21" class="node">
<title>Node21</title>
<g id="a_node21"><a xlink:href="sys_2meta.html" target="_top" xlink:title="Meta interface for getting dynamic type information about objects behind capabilities.">
<polygon fill="white" stroke="black" points="305,-627.5 305,-646.5 379,-646.5 379,-627.5 305,-627.5"/>
<text text-anchor="middle" x="342" y="-634.5" font-family="Helvetica,sans-Serif" font-size="10.00">l4/sys/meta</text>
</a>
</g>
</g>
<!-- Node2&#45;&gt;Node21 -->
<g id="edge44" class="edge">
<title>Node2&#45;&gt;Node21</title>
<path fill="none" stroke="midnightblue" d="M234.28,-683.44C255.35,-674.56 288.52,-660.56 312.49,-650.45"/>
<polygon fill="midnightblue" stroke="midnightblue" points="313.96,-653.63 321.81,-646.52 311.24,-647.18 313.96,-653.63"/>
</g>
<!-- Node4 -->
<g id="node4" class="node">
<title>Node4</title>
<g id="a_node4"><a xlink:href="compiler_8h.html" target="_top" xlink:title="L4 compiler related defines.">
<polygon fill="white" stroke="black" points="397.5,-56.5 397.5,-75.5 496.5,-75.5 496.5,-56.5 397.5,-56.5"/>
<text text-anchor="middle" x="447" y="-63.5" font-family="Helvetica,sans-Serif" font-size="10.00">l4/sys/compiler.h</text>
</a>
</g>
</g>
<!-- Node3&#45;&gt;Node4 -->
<g id="edge3" class="edge">
<title>Node3&#45;&gt;Node4</title>
<path fill="none" stroke="midnightblue" d="M229.88,-112.44C274.98,-103 347.61,-87.8 396.3,-77.61"/>
<polygon fill="midnightblue" stroke="midnightblue" points="397.24,-80.99 406.31,-75.52 395.81,-74.14 397.24,-80.99"/>
</g>
<!-- Node6 -->
<g id="node6" class="node">
<title>Node6</title>
<g id="a_node6"><a xlink:href="l4_2sys_2l4int_8h.html" target="_top" xlink:title="Fixed sized integer types, generic version.">
<polygon fill="white" stroke="black" points="91.5,-56.5 91.5,-75.5 170.5,-75.5 170.5,-56.5 91.5,-56.5"/>
<text text-anchor="middle" x="131" y="-63.5" font-family="Helvetica,sans-Serif" font-size="10.00">l4/sys/l4int.h</text>
</a>
</g>
</g>
<!-- Node3&#45;&gt;Node6 -->
<g id="edge5" class="edge">
<title>Node3&#45;&gt;Node6</title>
<path fill="none" stroke="midnightblue" d="M179.68,-112.32C171.11,-104.34 158.19,-92.31 147.81,-82.65"/>
<polygon fill="midnightblue" stroke="midnightblue" points="150.19,-80.09 140.49,-75.83 145.42,-85.21 150.19,-80.09"/>
</g>
<!-- Node5 -->
<g id="node5" class="node">
<title>Node5</title>
<g id="a_node5"><a xlink:title=" ">
<polygon fill="white" stroke="#bfbfbf" points="401,-0.5 401,-19.5 493,-19.5 493,-0.5 401,-0.5"/>
<text text-anchor="middle" x="447" y="-7.5" font-family="Helvetica,sans-Serif" font-size="10.00">l4/sys/linkage.h</text>
</a>
</g>
</g>
<!-- Node4&#45;&gt;Node5 -->
<g id="edge4" class="edge">
<title>Node4&#45;&gt;Node5</title>
<path fill="none" stroke="midnightblue" d="M447,-56.08C447,-49.01 447,-38.86 447,-29.99"/>
<polygon fill="midnightblue" stroke="midnightblue" points="450.5,-29.75 447,-19.75 443.5,-29.75 450.5,-29.75"/>
</g>
<!-- Node7&#45;&gt;Node3 -->
<g id="edge9" class="edge">
<title>Node7&#45;&gt;Node3</title>
<path fill="none" stroke="midnightblue" d="M174.81,-168.08C177.08,-160.85 180.37,-150.41 183.21,-141.4"/>
<polygon fill="midnightblue" stroke="midnightblue" points="186.58,-142.34 186.25,-131.75 179.9,-140.24 186.58,-142.34"/>
</g>
<!-- Node7&#45;&gt;Node4 -->
<g id="edge8" class="edge">
<title>Node7&#45;&gt;Node4</title>
<path fill="none" stroke="midnightblue" d="M214.12,-173.2C273.55,-167.15 378.21,-153.74 409,-132 424.98,-120.72 435.27,-100.41 441.05,-85.49"/>
<polygon fill="midnightblue" stroke="midnightblue" points="444.45,-86.37 444.49,-75.78 437.85,-84.04 444.45,-86.37"/>
</g>
<!-- Node7&#45;&gt;Node6 -->
<g id="edge7" class="edge">
<title>Node7&#45;&gt;Node6</title>
<path fill="none" stroke="midnightblue" d="M129.75,-171.02C87.04,-164.01 25.34,-150.9 11,-132 -11.54,-102.29 38.99,-84.55 81.26,-75.28"/>
<polygon fill="midnightblue" stroke="midnightblue" points="82.15,-78.67 91.23,-73.21 80.73,-71.82 82.15,-78.67"/>
</g>
<!-- Node8 -->
<g id="node8" class="node">
<title>Node8</title>
<g id="a_node8"><a xlink:href="____l4__fpage_8h_source.html" target="_top" xlink:title=" ">
<polygon fill="white" stroke="black" points="290,-112.5 290,-131.5 400,-131.5 400,-112.5 290,-112.5"/>
<text text-anchor="middle" x="345" y="-119.5" font-family="Helvetica,sans-Serif" font-size="10.00">l4/sys/__l4_fpage.h</text>
</a>
</g>
</g>
<!-- Node7&#45;&gt;Node8 -->
<g id="edge10" class="edge">
<title>Node7&#45;&gt;Node8</title>
<path fill="none" stroke="midnightblue" d="M199.41,-168.44C228.77,-159.28 275.52,-144.69 308.1,-134.52"/>
<polygon fill="midnightblue" stroke="midnightblue" points="309.21,-137.84 317.72,-131.52 307.13,-131.16 309.21,-137.84"/>
</g>
<!-- Node9 -->
<g id="node9" class="node">
<title>Node9</title>
<g id="a_node9"><a xlink:href="____timeout_8h_source.html" target="_top" xlink:title=" ">
<polygon fill="white" stroke="black" points="20,-112.5 20,-131.5 126,-131.5 126,-112.5 20,-112.5"/>
<text text-anchor="middle" x="73" y="-119.5" font-family="Helvetica,sans-Serif" font-size="10.00">l4/sys/__timeout.h</text>
</a>
</g>
</g>
<!-- Node7&#45;&gt;Node9 -->
<g id="edge12" class="edge">
<title>Node7&#45;&gt;Node9</title>
<path fill="none" stroke="midnightblue" d="M156.09,-168.32C140.36,-159.74 116.06,-146.49 97.79,-136.52"/>
<polygon fill="midnightblue" stroke="midnightblue" points="99.32,-133.37 88.87,-131.65 95.97,-139.52 99.32,-133.37"/>
</g>
<!-- Node8&#45;&gt;Node4 -->
<g id="edge11" class="edge">
<title>Node8&#45;&gt;Node4</title>
<path fill="none" stroke="midnightblue" d="M361.39,-112.32C377.67,-103.7 402.87,-90.36 421.72,-80.39"/>
<polygon fill="midnightblue" stroke="midnightblue" points="423.45,-83.43 430.65,-75.65 420.18,-77.24 423.45,-83.43"/>
</g>
<!-- Node9&#45;&gt;Node6 -->
<g id="edge13" class="edge">
<title>Node9&#45;&gt;Node6</title>
<path fill="none" stroke="midnightblue" d="M82.32,-112.32C90.89,-104.34 103.81,-92.31 114.19,-82.65"/>
<polygon fill="midnightblue" stroke="midnightblue" points="116.58,-85.21 121.51,-75.83 111.81,-80.09 116.58,-85.21"/>
</g>
<!-- Node10&#45;&gt;Node7 -->
<g id="edge29" class="edge">
<title>Node10&#45;&gt;Node7</title>
<path fill="none" stroke="midnightblue" d="M244.26,-520.61C183.02,-513.1 76,-489.21 76,-414 76,-414 76,-414 76,-289 76,-245.54 119.06,-210.96 147.5,-192.85"/>
<polygon fill="midnightblue" stroke="midnightblue" points="149.44,-195.77 156.15,-187.56 145.79,-189.79 149.44,-195.77"/>
</g>
<!-- Node11 -->
<g id="node11" class="node">
<title>Node11</title>
<g id="a_node11"><a xlink:href="kernel__object_8h.html" target="_top" xlink:title="Kernel object system calls.">
<polygon fill="white" stroke="black" points="240.5,-403.5 240.5,-422.5 331.5,-422.5 331.5,-403.5 240.5,-403.5"/>
<text text-anchor="middle" x="286" y="-410.5" font-family="Helvetica,sans-Serif" font-size="10.00">kernel_object.h</text>
</a>
</g>
</g>
<!-- Node10&#45;&gt;Node11 -->
<g id="edge15" class="edge">
<title>Node10&#45;&gt;Node11</title>
<path fill="none" stroke="midnightblue" d="M286,-515.37C286,-497.62 286,-456.67 286,-432.6"/>
<polygon fill="midnightblue" stroke="midnightblue" points="289.5,-432.59 286,-422.59 282.5,-432.59 289.5,-432.59"/>
</g>
<!-- Node16 -->
<g id="node16" class="node">
<title>Node16</title>
<g id="a_node16"><a xlink:href="____typeinfo_8h.html" target="_top" xlink:title="Type information handling.">
<polygon fill="white" stroke="black" points="373.5,-459.5 373.5,-478.5 450.5,-478.5 450.5,-459.5 373.5,-459.5"/>
<text text-anchor="middle" x="412" y="-466.5" font-family="Helvetica,sans-Serif" font-size="10.00">__typeinfo.h</text>
</a>
</g>
</g>
<!-- Node10&#45;&gt;Node16 -->
<g id="edge30" class="edge">
<title>Node10&#45;&gt;Node16</title>
<path fill="none" stroke="midnightblue" d="M305.97,-515.44C326.61,-506.6 359.06,-492.69 382.63,-482.59"/>
<polygon fill="midnightblue" stroke="midnightblue" points="384.32,-485.67 392.13,-478.52 381.56,-479.24 384.32,-485.67"/>
</g>
<!-- Node11&#45;&gt;Node4 -->
<g id="edge17" class="edge">
<title>Node11&#45;&gt;Node4</title>
<path fill="none" stroke="midnightblue" d="M328.09,-403.46C369.01,-394.59 427.72,-380.19 447,-367 481.85,-343.16 504,-333.22 504,-291 504,-291 504,-291 504,-177 504,-140.3 478.68,-103.66 461.79,-83.3"/>
<polygon fill="midnightblue" stroke="midnightblue" points="464.35,-80.9 455.17,-75.62 459.05,-85.48 464.35,-80.9"/>
</g>
<!-- Node11&#45;&gt;Node7 -->
<g id="edge16" class="edge">
<title>Node11&#45;&gt;Node7</title>
<path fill="none" stroke="midnightblue" d="M240.12,-404.68C199.92,-397.22 145.94,-384.29 133,-367 93.75,-314.55 137.75,-231.84 160.31,-196.23"/>
<polygon fill="midnightblue" stroke="midnightblue" points="163.47,-197.79 166.02,-187.51 157.61,-193.96 163.47,-197.79"/>
</g>
<!-- Node12 -->
<g id="node12" class="node">
<title>Node12</title>
<g id="a_node12"><a xlink:href="l4_2sys_2utcb_8h.html" target="_top" xlink:title="UTCB definitions.">
<polygon fill="white" stroke="black" points="241,-224.5 241,-243.5 319,-243.5 319,-224.5 241,-224.5"/>
<text text-anchor="middle" x="280" y="-231.5" font-family="Helvetica,sans-Serif" font-size="10.00">l4/sys/utcb.h</text>
</a>
</g>
</g>
<!-- Node11&#45;&gt;Node12 -->
<g id="edge18" class="edge">
<title>Node11&#45;&gt;Node12</title>
<path fill="none" stroke="midnightblue" d="M283.22,-403.36C276.79,-382.28 261.9,-326.55 268,-280 269.16,-271.18 271.53,-261.63 273.87,-253.61"/>
<polygon fill="midnightblue" stroke="midnightblue" points="277.29,-254.42 276.91,-243.83 270.6,-252.34 277.29,-254.42"/>
</g>
<!-- Node13 -->
<g id="node13" class="node">
<title>Node13</title>
<g id="a_node13"><a xlink:href="____kernel__object__impl_8h.html" target="_top" xlink:title="Low&#45;level kernel debugger functions.">
<polygon fill="white" stroke="black" points="314,-336.5 314,-366.5 438,-366.5 438,-336.5 314,-336.5"/>
<text text-anchor="start" x="322" y="-354.5" font-family="Helvetica,sans-Serif" font-size="10.00">l4/sys/__kernel_object</text>
<text text-anchor="middle" x="376" y="-343.5" font-family="Helvetica,sans-Serif" font-size="10.00">_impl.h</text>
</a>
</g>
</g>
<!-- Node11&#45;&gt;Node13 -->
<g id="edge22" class="edge">
<title>Node11&#45;&gt;Node13</title>
<path fill="none" stroke="midnightblue" d="M298.89,-403.48C311.2,-395.34 330.18,-382.79 346.23,-372.18"/>
<polygon fill="midnightblue" stroke="midnightblue" points="348.38,-374.96 354.79,-366.52 344.52,-369.12 348.38,-374.96"/>
</g>
<!-- Node14 -->
<g id="node14" class="node">
<title>Node14</title>
<g id="a_node14"><a xlink:href="l4_2sys_2ipc_8h.html" target="_top" xlink:title="Common IPC interface.">
<polygon fill="white" stroke="black" points="276.5,-280.5 276.5,-299.5 347.5,-299.5 347.5,-280.5 276.5,-280.5"/>
<text text-anchor="middle" x="312" y="-287.5" font-family="Helvetica,sans-Serif" font-size="10.00">l4/sys/ipc.h</text>
</a>
</g>
</g>
<!-- Node11&#45;&gt;Node14 -->
<g id="edge28" class="edge">
<title>Node11&#45;&gt;Node14</title>
<path fill="none" stroke="midnightblue" d="M287.87,-403.3C292.07,-383.76 302.32,-336.06 308.01,-309.55"/>
<polygon fill="midnightblue" stroke="midnightblue" points="311.47,-310.14 310.15,-299.62 304.62,-308.66 311.47,-310.14"/>
</g>
<!-- Node12&#45;&gt;Node4 -->
<g id="edge20" class="edge">
<title>Node12&#45;&gt;Node4</title>
<path fill="none" stroke="midnightblue" d="M302.53,-224.45C336.2,-210.46 399.18,-179.41 432,-132 441.37,-118.46 444.96,-99.91 446.3,-86.09"/>
<polygon fill="midnightblue" stroke="midnightblue" points="449.81,-86.02 446.97,-75.81 442.83,-85.56 449.81,-86.02"/>
</g>
<!-- Node12&#45;&gt;Node6 -->
<g id="edge21" class="edge">
<title>Node12&#45;&gt;Node6</title>
<path fill="none" stroke="midnightblue" d="M279.81,-224.46C278.86,-202.81 273.46,-145.17 243,-112 226.65,-94.2 202.3,-83.3 180.48,-76.7"/>
<polygon fill="midnightblue" stroke="midnightblue" points="181.24,-73.28 170.67,-73.96 179.36,-80.02 181.24,-73.28"/>
</g>
<!-- Node12&#45;&gt;Node7 -->
<g id="edge19" class="edge">
<title>Node12&#45;&gt;Node7</title>
<path fill="none" stroke="midnightblue" d="M262.65,-224.32C245.33,-215.66 218.48,-202.24 198.5,-192.25"/>
<polygon fill="midnightblue" stroke="midnightblue" points="199.82,-189 189.31,-187.65 196.69,-195.26 199.82,-189"/>
</g>
<!-- Node13&#45;&gt;Node14 -->
<g id="edge23" class="edge">
<title>Node13&#45;&gt;Node14</title>
<path fill="none" stroke="midnightblue" d="M360.83,-336.4C351.25,-327.49 338.84,-315.95 328.93,-306.74"/>
<polygon fill="midnightblue" stroke="midnightblue" points="331.02,-303.9 321.31,-299.66 326.25,-309.03 331.02,-303.9"/>
</g>
<!-- Node14&#45;&gt;Node7 -->
<g id="edge24" class="edge">
<title>Node14&#45;&gt;Node7</title>
<path fill="none" stroke="midnightblue" d="M292.86,-280.35C275.97,-272.24 251.13,-259.12 232,-244 213.84,-229.65 196.27,-209.66 184.88,-195.66"/>
<polygon fill="midnightblue" stroke="midnightblue" points="187.61,-193.46 178.65,-187.81 182.13,-197.81 187.61,-193.46"/>
</g>
<!-- Node14&#45;&gt;Node12 -->
<g id="edge25" class="edge">
<title>Node14&#45;&gt;Node12</title>
<path fill="none" stroke="midnightblue" d="M306.72,-280.08C302.29,-272.61 295.84,-261.72 290.38,-252.52"/>
<polygon fill="midnightblue" stroke="midnightblue" points="293.29,-250.57 285.19,-243.75 287.27,-254.14 293.29,-250.57"/>
</g>
<!-- Node15 -->
<g id="node15" class="node">
<title>Node15</title>
<g id="a_node15"><a xlink:href="err_8h.html" target="_top" xlink:title="Error codes.">
<polygon fill="white" stroke="black" points="570,-224.5 570,-243.5 640,-243.5 640,-224.5 570,-224.5"/>
<text text-anchor="middle" x="605" y="-231.5" font-family="Helvetica,sans-Serif" font-size="10.00">l4/sys/err.h</text>
</a>
</g>
</g>
<!-- Node14&#45;&gt;Node15 -->
<g id="edge26" class="edge">
<title>Node14&#45;&gt;Node15</title>
<path fill="none" stroke="midnightblue" d="M347.63,-282.43C400.87,-272.62 501.13,-254.14 559.56,-243.37"/>
<polygon fill="midnightblue" stroke="midnightblue" points="560.41,-246.78 569.61,-241.52 559.14,-239.89 560.41,-246.78"/>
</g>
<!-- Node15&#45;&gt;Node4 -->
<g id="edge27" class="edge">
<title>Node15&#45;&gt;Node4</title>
<path fill="none" stroke="midnightblue" d="M600.27,-224.22C588.53,-203.01 556.21,-148.04 518,-112 504.68,-99.43 487.35,-88.37 473.15,-80.36"/>
<polygon fill="midnightblue" stroke="midnightblue" points="474.8,-77.27 464.34,-75.55 471.44,-83.42 474.8,-77.27"/>
</g>
<!-- Node17 -->
<g id="node17" class="node">
<title>Node17</title>
<g id="a_node17"><a xlink:href="types.html" target="_top" xlink:title=" ">
<polygon fill="white" stroke="black" points="570,-342 570,-361 634,-361 634,-342 570,-342"/>
<text text-anchor="middle" x="602" y="-349" font-family="Helvetica,sans-Serif" font-size="10.00">cxx/types</text>
</a>
</g>
</g>
<!-- Node16&#45;&gt;Node17 -->
<g id="edge31" class="edge">
<title>Node16&#45;&gt;Node17</title>
<path fill="none" stroke="midnightblue" d="M423.72,-459.35C441.38,-446.47 476.06,-421.73 507,-403 529.55,-389.35 556.12,-375.4 575.41,-365.63"/>
<polygon fill="midnightblue" stroke="midnightblue" points="577.15,-368.67 584.52,-361.06 574.01,-362.42 577.15,-368.67"/>
</g>
<!-- Node18 -->
<g id="node18" class="node">
<title>Node18</title>
<g id="a_node18"><a xlink:href="ipc__basics_source.html" target="_top" xlink:title=" ">
<polygon fill="white" stroke="black" points="612.5,-403.5 612.5,-422.5 699.5,-422.5 699.5,-403.5 612.5,-403.5"/>
<text text-anchor="middle" x="656" y="-410.5" font-family="Helvetica,sans-Serif" font-size="10.00">cxx/ipc_basics</text>
</a>
</g>
</g>
<!-- Node16&#45;&gt;Node18 -->
<g id="edge32" class="edge">
<title>Node16&#45;&gt;Node18</title>
<path fill="none" stroke="midnightblue" d="M450.66,-459.44C493.14,-450.04 561.43,-434.93 607.47,-424.74"/>
<polygon fill="midnightblue" stroke="midnightblue" points="608.51,-428.09 617.52,-422.52 607,-421.26 608.51,-428.09"/>
</g>
<!-- Node19 -->
<g id="node19" class="node">
<title>Node19</title>
<g id="a_node19"><a xlink:href="capability_8h_source.html" target="_top" xlink:title=" ">
<polygon fill="white" stroke="black" points="363,-403.5 363,-422.5 455,-422.5 455,-403.5 363,-403.5"/>
<text text-anchor="middle" x="409" y="-410.5" font-family="Helvetica,sans-Serif" font-size="10.00">cxx/capability.h</text>
</a>
</g>
</g>
<!-- Node16&#45;&gt;Node19 -->
<g id="edge36" class="edge">
<title>Node16&#45;&gt;Node19</title>
<path fill="none" stroke="midnightblue" d="M411.5,-459.08C411.11,-452.01 410.55,-441.86 410.05,-432.99"/>
<polygon fill="midnightblue" stroke="midnightblue" points="413.54,-432.54 409.49,-422.75 406.55,-432.93 413.54,-432.54"/>
</g>
<!-- Node18&#45;&gt;Node12 -->
<g id="edge34" class="edge">
<title>Node18&#45;&gt;Node12</title>
<path fill="none" stroke="midnightblue" d="M657.25,-403.21C658.95,-387.6 660.04,-354.88 643,-336 600.99,-289.47 418.42,-256 329.3,-242.12"/>
<polygon fill="midnightblue" stroke="midnightblue" points="329.58,-238.62 319.17,-240.56 328.52,-245.54 329.58,-238.62"/>
</g>
<!-- Node18&#45;&gt;Node15 -->
<g id="edge35" class="edge">
<title>Node18&#45;&gt;Node15</title>
<path fill="none" stroke="midnightblue" d="M661.39,-403.49C669.63,-389.35 683.65,-360.2 676,-336 665.24,-302 638.48,-269.53 621.06,-250.97"/>
<polygon fill="midnightblue" stroke="midnightblue" points="623.48,-248.44 614.02,-243.68 618.45,-253.3 623.48,-248.44"/>
</g>
<!-- Node18&#45;&gt;Node17 -->
<g id="edge33" class="edge">
<title>Node18&#45;&gt;Node17</title>
<path fill="none" stroke="midnightblue" d="M648.26,-403.48C640,-394.37 626.72,-379.74 616.51,-368.48"/>
<polygon fill="midnightblue" stroke="midnightblue" points="619.03,-366.06 609.72,-361.01 613.85,-370.77 619.03,-366.06"/>
</g>
<!-- Node19&#45;&gt;Node3 -->
<g id="edge37" class="edge">
<title>Node19&#45;&gt;Node3</title>
<path fill="none" stroke="midnightblue" d="M455.07,-405.2C478.08,-399.23 503.94,-388.01 518,-367 525.66,-355.55 524.36,-348.22 518,-336 457.75,-220.28 303.2,-158.42 229.4,-134.65"/>
<polygon fill="midnightblue" stroke="midnightblue" points="230.13,-131.21 219.54,-131.55 228.03,-137.89 230.13,-131.21"/>
</g>
<!-- Node19&#45;&gt;Node7 -->
<g id="edge38" class="edge">
<title>Node19&#45;&gt;Node7</title>
<path fill="none" stroke="midnightblue" d="M419.71,-403.3C428.94,-395.07 441.59,-381.79 447,-367 451.73,-354.06 452.46,-348.65 447,-336 418.19,-269.33 391.1,-259.96 328,-224 295.85,-205.68 255.64,-194.31 224.1,-187.59"/>
<polygon fill="midnightblue" stroke="midnightblue" points="224.68,-184.13 214.19,-185.56 223.29,-190.99 224.68,-184.13"/>
</g>
<!-- Node19&#45;&gt;Node20 -->
<g id="edge39" class="edge">
<title>Node19&#45;&gt;Node20</title>
<path fill="none" stroke="midnightblue" d="M376.33,-403.48C336.12,-392.98 267.74,-375.14 223.48,-363.59"/>
<polygon fill="midnightblue" stroke="midnightblue" points="224.17,-360.15 213.61,-361.01 222.4,-366.92 224.17,-360.15"/>
</g>
<!-- Node20&#45;&gt;Node7 -->
<g id="edge40" class="edge">
<title>Node20&#45;&gt;Node7</title>
<path fill="none" stroke="midnightblue" d="M180.54,-341.76C179.14,-315.15 174.92,-234.71 172.99,-197.84"/>
<polygon fill="midnightblue" stroke="midnightblue" points="176.47,-197.32 172.45,-187.52 169.48,-197.69 176.47,-197.32"/>
</g>
<!-- Node20&#45;&gt;Node12 -->
<g id="edge41" class="edge">
<title>Node20&#45;&gt;Node12</title>
<path fill="none" stroke="midnightblue" d="M186.81,-341.93C196.16,-328.33 215.41,-301.17 234,-280 243.03,-269.72 253.95,-258.97 262.88,-250.56"/>
<polygon fill="midnightblue" stroke="midnightblue" points="265.47,-252.94 270.42,-243.57 260.71,-247.8 265.47,-252.94"/>
</g>
<!-- Node20&#45;&gt;Node14 -->
<g id="edge42" class="edge">
<title>Node20&#45;&gt;Node14</title>
<path fill="none" stroke="midnightblue" d="M199.77,-341.98C221.85,-331.95 258.72,-315.2 284.14,-303.65"/>
<polygon fill="midnightblue" stroke="midnightblue" points="285.61,-306.83 293.27,-299.51 282.71,-300.46 285.61,-306.83"/>
</g>
<!-- Node21&#45;&gt;Node10 -->
<g id="edge45" class="edge">
<title>Node21&#45;&gt;Node10</title>
<path fill="none" stroke="midnightblue" d="M337.61,-627.37C328.45,-609.38 307.15,-567.55 294.97,-543.63"/>
<polygon fill="midnightblue" stroke="midnightblue" points="298.03,-541.92 290.37,-534.59 291.79,-545.09 298.03,-541.92"/>
</g>
<!-- Node21&#45;&gt;Node22 -->
<g id="edge46" class="edge">
<title>Node21&#45;&gt;Node22</title>
<path fill="none" stroke="midnightblue" d="M347.49,-627.37C358.99,-609.3 385.8,-567.18 400.99,-543.31"/>
<polygon fill="midnightblue" stroke="midnightblue" points="404.12,-544.91 406.53,-534.59 398.21,-541.15 404.12,-544.91"/>
</g>
<!-- Node21&#45;&gt;Node24 -->
<g id="edge53" class="edge">
<title>Node21&#45;&gt;Node24</title>
<path fill="none" stroke="midnightblue" d="M364.18,-627.44C387.43,-618.48 424.15,-604.31 450.42,-594.18"/>
<polygon fill="midnightblue" stroke="midnightblue" points="451.85,-597.38 459.92,-590.52 449.33,-590.85 451.85,-597.38"/>
</g>
<!-- Node22&#45;&gt;Node16 -->
<g id="edge52" class="edge">
<title>Node22&#45;&gt;Node16</title>
<path fill="none" stroke="midnightblue" d="M412,-515.08C412,-508.01 412,-497.86 412,-488.99"/>
<polygon fill="midnightblue" stroke="midnightblue" points="415.5,-488.75 412,-478.75 408.5,-488.75 415.5,-488.75"/>
</g>
<!-- Node22&#45;&gt;Node18 -->
<g id="edge47" class="edge">
<title>Node22&#45;&gt;Node18</title>
<path fill="none" stroke="midnightblue" d="M452.31,-520.52C508.5,-514.91 606.48,-502.06 633,-479 646.39,-467.36 651.98,-447.41 654.32,-432.67"/>
<polygon fill="midnightblue" stroke="midnightblue" points="657.81,-433 655.55,-422.64 650.86,-432.15 657.81,-433"/>
</g>
<!-- Node23 -->
<g id="node23" class="node">
<title>Node23</title>
<g id="a_node23"><a xlink:href="ipc__types.html" target="_top" xlink:title=" ">
<polygon fill="white" stroke="black" points="508.5,-459.5 508.5,-478.5 623.5,-478.5 623.5,-459.5 508.5,-459.5"/>
<text text-anchor="middle" x="566" y="-466.5" font-family="Helvetica,sans-Serif" font-size="10.00">l4/sys/cxx/ipc_types</text>
</a>
</g>
</g>
<!-- Node22&#45;&gt;Node23 -->
<g id="edge48" class="edge">
<title>Node22&#45;&gt;Node23</title>
<path fill="none" stroke="midnightblue" d="M436.4,-515.44C462.2,-506.4 503.08,-492.06 532.02,-481.92"/>
<polygon fill="midnightblue" stroke="midnightblue" points="533.43,-485.13 541.71,-478.52 531.12,-478.52 533.43,-485.13"/>
</g>
<!-- Node23&#45;&gt;Node17 -->
<g id="edge50" class="edge">
<title>Node23&#45;&gt;Node17</title>
<path fill="none" stroke="midnightblue" d="M568.71,-459.32C574.52,-440.67 588.3,-396.44 596.19,-371.13"/>
<polygon fill="midnightblue" stroke="midnightblue" points="599.63,-371.87 599.26,-361.28 592.95,-369.79 599.63,-371.87"/>
</g>
<!-- Node23&#45;&gt;Node18 -->
<g id="edge51" class="edge">
<title>Node23&#45;&gt;Node18</title>
<path fill="none" stroke="midnightblue" d="M580.46,-459.32C594.5,-450.9 616.05,-437.97 632.54,-428.07"/>
<polygon fill="midnightblue" stroke="midnightblue" points="634.8,-430.8 641.58,-422.65 631.2,-424.8 634.8,-430.8"/>
</g>
<!-- Node23&#45;&gt;Node19 -->
<g id="edge49" class="edge">
<title>Node23&#45;&gt;Node19</title>
<path fill="none" stroke="midnightblue" d="M541.12,-459.44C514.71,-450.36 472.78,-435.94 443.26,-425.78"/>
<polygon fill="midnightblue" stroke="midnightblue" points="444.36,-422.46 433.76,-422.52 442.08,-429.08 444.36,-422.46"/>
</g>
<!-- Node24&#45;&gt;Node17 -->
<g id="edge54" class="edge">
<title>Node24&#45;&gt;Node17</title>
<path fill="none" stroke="midnightblue" d="M481.54,-571.26C480.83,-550.59 481.12,-497.52 500,-459 519.17,-419.89 557.9,-385.73 581.73,-367.21"/>
<polygon fill="midnightblue" stroke="midnightblue" points="583.92,-369.95 589.77,-361.12 579.69,-364.37 583.92,-369.95"/>
</g>
<!-- Node24&#45;&gt;Node18 -->
<g id="edge55" class="edge">
<title>Node24&#45;&gt;Node18</title>
<path fill="none" stroke="midnightblue" d="M513.53,-571.48C553.8,-558.75 621.98,-530.55 653,-479 661.28,-465.24 661.29,-446.71 659.66,-432.96"/>
<polygon fill="midnightblue" stroke="midnightblue" points="663.06,-432.07 658.05,-422.74 656.15,-433.16 663.06,-432.07"/>
</g>
<!-- Node24&#45;&gt;Node25 -->
<g id="edge56" class="edge">
<title>Node24&#45;&gt;Node25</title>
<path fill="none" stroke="midnightblue" d="M522.56,-571.44C570.24,-561.39 648.93,-544.79 696.86,-534.68"/>
<polygon fill="midnightblue" stroke="midnightblue" points="697.82,-538.05 706.89,-532.56 696.38,-531.2 697.82,-538.05"/>
</g>
<!-- Node25&#45;&gt;Node17 -->
<g id="edge57" class="edge">
<title>Node25&#45;&gt;Node17</title>
<path fill="none" stroke="midnightblue" d="M738.39,-515.24C738.89,-493.58 737.25,-436.82 709,-403 692.37,-383.09 666.1,-370.53 643.76,-362.92"/>
<polygon fill="midnightblue" stroke="midnightblue" points="644.73,-359.55 634.14,-359.86 642.6,-366.22 644.73,-359.55"/>
</g>
<!-- Node25&#45;&gt;Node18 -->
<g id="edge58" class="edge">
<title>Node25&#45;&gt;Node18</title>
<path fill="none" stroke="midnightblue" d="M734.63,-515.47C729.29,-502.52 718.02,-477.45 704,-459 695.66,-448.03 684.52,-437.4 675.07,-429.23"/>
<polygon fill="midnightblue" stroke="midnightblue" points="677.23,-426.48 667.32,-422.74 672.74,-431.84 677.23,-426.48"/>
</g>
<!-- Node25&#45;&gt;Node23 -->
<g id="edge59" class="edge">
<title>Node25&#45;&gt;Node23</title>
<path fill="none" stroke="midnightblue" d="M710.75,-515.44C681.56,-506.28 635.08,-491.69 602.69,-481.52"/>
<polygon fill="midnightblue" stroke="midnightblue" points="603.72,-478.17 593.13,-478.52 601.62,-484.85 603.72,-478.17"/>
</g>
</g>
</svg>
