<?xml version="1.0" encoding="UTF-8" standalone="no"?>
<!DOCTYPE svg PUBLIC "-//W3C//DTD SVG 1.1//EN"
 "http://www.w3.org/Graphics/SVG/1.1/DTD/svg11.dtd">
<!-- Generated by graphviz version 2.43.0 (0)
 -->
<!-- Title: l4/re/impl/namespace_impl.h Pages: 1 -->
<svg width="1113pt" height="834pt"
 viewBox="0.00 0.00 1113.46 834.00" xmlns="http://www.w3.org/2000/svg" xmlns:xlink="http://www.w3.org/1999/xlink">
<g id="graph0" class="graph" transform="scale(1 1) rotate(0) translate(4 830)">
<title>l4/re/impl/namespace_impl.h</title>
<polygon fill="white" stroke="transparent" points="-4,4 -4,-830 1109.46,-830 1109.46,4 -4,4"/>
<!-- Node1 -->
<g id="node1" class="node">
<title>Node1</title>
<g id="a_node1"><a xlink:title="Namespace client stub implementation.">
<polygon fill="#bfbfbf" stroke="black" points="828,-795.5 828,-825.5 950,-825.5 950,-795.5 828,-795.5"/>
<text text-anchor="start" x="836" y="-813.5" font-family="Helvetica,sans-Serif" font-size="10.00">l4/re/impl/namespace</text>
<text text-anchor="middle" x="889" y="-802.5" font-family="Helvetica,sans-Serif" font-size="10.00">_impl.h</text>
</a>
</g>
</g>
<!-- Node2 -->
<g id="node2" class="node">
<title>Node2</title>
<g id="a_node2"><a xlink:href="namespace.html" target="_top" xlink:title="Namespace interface.">
<polygon fill="white" stroke="black" points="389,-739.5 389,-758.5 487,-758.5 487,-739.5 389,-739.5"/>
<text text-anchor="middle" x="438" y="-746.5" font-family="Helvetica,sans-Serif" font-size="10.00">l4/re/namespace</text>
</a>
</g>
</g>
<!-- Node1&#45;&gt;Node2 -->
<g id="edge1" class="edge">
<title>Node1&#45;&gt;Node2</title>
<path fill="none" stroke="midnightblue" d="M827.71,-801.41C740.8,-789.95 582.83,-769.11 497.13,-757.8"/>
<polygon fill="midnightblue" stroke="midnightblue" points="497.42,-754.31 487.04,-756.47 496.5,-761.25 497.42,-754.31"/>
</g>
<!-- Node28 -->
<g id="node28" class="node">
<title>Node28</title>
<g id="a_node28"><a xlink:href="l4_2util_2util_8h_source.html" target="_top" xlink:title=" ">
<polygon fill="white" stroke="black" points="1004,-342 1004,-361 1076,-361 1076,-342 1004,-342"/>
<text text-anchor="middle" x="1040" y="-349" font-family="Helvetica,sans-Serif" font-size="10.00">l4/util/util.h</text>
</a>
</g>
</g>
<!-- Node1&#45;&gt;Node28 -->
<g id="edge65" class="edge">
<title>Node1&#45;&gt;Node28</title>
<path fill="none" stroke="midnightblue" d="M905.34,-795.24C926.58,-775.03 961,-735.82 961,-694 961,-694 961,-694 961,-468 961,-426.02 996.99,-388.1 1020.38,-367.87"/>
<polygon fill="midnightblue" stroke="midnightblue" points="1022.9,-370.34 1028.34,-361.25 1018.42,-364.96 1022.9,-370.34"/>
</g>
<!-- Node29 -->
<g id="node29" class="node">
<title>Node29</title>
<g id="a_node29"><a xlink:href="ipc__client.html" target="_top" xlink:title=" ">
<polygon fill="white" stroke="black" points="162.5,-571.5 162.5,-590.5 277.5,-590.5 277.5,-571.5 162.5,-571.5"/>
<text text-anchor="middle" x="220" y="-578.5" font-family="Helvetica,sans-Serif" font-size="10.00">l4/sys/cxx/ipc_client</text>
</a>
</g>
</g>
<!-- Node1&#45;&gt;Node29 -->
<g id="edge69" class="edge">
<title>Node1&#45;&gt;Node29</title>
<path fill="none" stroke="midnightblue" d="M827.96,-808C731.7,-804.63 539.2,-793.75 380,-759 305.16,-742.66 261.5,-765.35 217,-703 195.21,-672.47 205.26,-625.69 213.35,-600.16"/>
<polygon fill="midnightblue" stroke="midnightblue" points="216.68,-601.22 216.6,-590.63 210.06,-598.97 216.68,-601.22"/>
</g>
<!-- Node30 -->
<g id="node30" class="node">
<title>Node30</title>
<g id="a_node30"><a xlink:href="sys_2assert_8h.html" target="_top" xlink:title="Low&#45;level assert implementation.">
<polygon fill="white" stroke="black" points="845.5,-403.5 845.5,-422.5 932.5,-422.5 932.5,-403.5 845.5,-403.5"/>
<text text-anchor="middle" x="889" y="-410.5" font-family="Helvetica,sans-Serif" font-size="10.00">l4/sys/assert.h</text>
</a>
</g>
</g>
<!-- Node1&#45;&gt;Node30 -->
<g id="edge75" class="edge">
<title>Node1&#45;&gt;Node30</title>
<path fill="none" stroke="midnightblue" d="M889,-795.28C889,-773.48 889,-730.49 889,-694 889,-694 889,-694 889,-524 889,-491.95 889,-454.64 889,-432.75"/>
<polygon fill="midnightblue" stroke="midnightblue" points="892.5,-432.56 889,-422.56 885.5,-432.56 892.5,-432.56"/>
</g>
<!-- Node33 -->
<g id="node33" class="node">
<title>Node33</title>
<g id="a_node33"><a xlink:title=" ">
<polygon fill="white" stroke="#bfbfbf" points="989,-739.5 989,-758.5 1039,-758.5 1039,-739.5 989,-739.5"/>
<text text-anchor="middle" x="1014" y="-746.5" font-family="Helvetica,sans-Serif" font-size="10.00">cstring</text>
</a>
</g>
</g>
<!-- Node1&#45;&gt;Node33 -->
<g id="edge83" class="edge">
<title>Node1&#45;&gt;Node33</title>
<path fill="none" stroke="midnightblue" d="M918.62,-795.4C939.22,-785.59 966.48,-772.62 986.58,-763.05"/>
<polygon fill="midnightblue" stroke="midnightblue" points="988.29,-766.12 995.81,-758.66 985.28,-759.8 988.29,-766.12"/>
</g>
<!-- Node3 -->
<g id="node3" class="node">
<title>Node3</title>
<g id="a_node3"><a xlink:href="capability.html" target="_top" xlink:title="L4::Cap related definitions.">
<polygon fill="white" stroke="black" points="42,-683.5 42,-702.5 138,-702.5 138,-683.5 42,-683.5"/>
<text text-anchor="middle" x="90" y="-690.5" font-family="Helvetica,sans-Serif" font-size="10.00">l4/sys/capability</text>
</a>
</g>
</g>
<!-- Node2&#45;&gt;Node3 -->
<g id="edge2" class="edge">
<title>Node2&#45;&gt;Node3</title>
<path fill="none" stroke="midnightblue" d="M388.88,-740.38C325.53,-730.55 215.49,-713.47 148.07,-703.01"/>
<polygon fill="midnightblue" stroke="midnightblue" points="148.45,-699.53 138.03,-701.45 147.38,-706.45 148.45,-699.53"/>
</g>
<!-- Node23 -->
<g id="node23" class="node">
<title>Node23</title>
<g id="a_node23"><a xlink:href="ipc__iface.html" target="_top" xlink:title="Interface Definition Language.">
<polygon fill="white" stroke="black" points="305,-515.5 305,-534.5 385,-534.5 385,-515.5 305,-515.5"/>
<text text-anchor="middle" x="345" y="-522.5" font-family="Helvetica,sans-Serif" font-size="10.00">cxx/ipc_iface</text>
</a>
</g>
</g>
<!-- Node2&#45;&gt;Node23 -->
<g id="edge62" class="edge">
<title>Node2&#45;&gt;Node23</title>
<path fill="none" stroke="midnightblue" d="M429.74,-739.37C414.47,-722.89 381.93,-685.15 366,-647 351.67,-612.69 347.12,-568.98 345.67,-544.59"/>
<polygon fill="midnightblue" stroke="midnightblue" points="349.17,-544.4 345.19,-534.58 342.18,-544.73 349.17,-544.4"/>
</g>
<!-- Node25 -->
<g id="node25" class="node">
<title>Node25</title>
<g id="a_node25"><a xlink:href="ipc__string_source.html" target="_top" xlink:title=" ">
<polygon fill="white" stroke="black" points="505,-571.5 505,-590.5 589,-590.5 589,-571.5 505,-571.5"/>
<text text-anchor="middle" x="547" y="-578.5" font-family="Helvetica,sans-Serif" font-size="10.00">cxx/ipc_string</text>
</a>
</g>
</g>
<!-- Node2&#45;&gt;Node25 -->
<g id="edge64" class="edge">
<title>Node2&#45;&gt;Node25</title>
<path fill="none" stroke="midnightblue" d="M443.86,-739.08C461.24,-712.61 512.72,-634.21 535.7,-599.21"/>
<polygon fill="midnightblue" stroke="midnightblue" points="538.81,-600.85 541.37,-590.57 532.96,-597.01 538.81,-600.85"/>
</g>
<!-- Node26 -->
<g id="node26" class="node">
<title>Node26</title>
<g id="a_node26"><a xlink:href="ipc__array_source.html" target="_top" xlink:title=" ">
<polygon fill="white" stroke="black" points="596,-515.5 596,-534.5 658,-534.5 658,-515.5 596,-515.5"/>
<text text-anchor="middle" x="627" y="-522.5" font-family="Helvetica,sans-Serif" font-size="10.00">ipc_array</text>
</a>
</g>
</g>
<!-- Node2&#45;&gt;Node26 -->
<g id="edge63" class="edge">
<title>Node2&#45;&gt;Node26</title>
<path fill="none" stroke="midnightblue" d="M449.57,-739.31C478.18,-717.31 553.15,-656.51 598,-591 608.02,-576.36 615.93,-557.69 620.94,-544.12"/>
<polygon fill="midnightblue" stroke="midnightblue" points="624.3,-545.1 624.32,-534.5 617.7,-542.77 624.3,-545.1"/>
</g>
<!-- Node27 -->
<g id="node27" class="node">
<title>Node27</title>
<g id="a_node27"><a xlink:href="protocols_8h.html" target="_top" xlink:title="L4Re Protocol Constants (C version)">
<polygon fill="white" stroke="black" points="225.5,-683.5 225.5,-702.5 320.5,-702.5 320.5,-683.5 225.5,-683.5"/>
<text text-anchor="middle" x="273" y="-690.5" font-family="Helvetica,sans-Serif" font-size="10.00">l4/re/protocols.h</text>
</a>
</g>
</g>
<!-- Node2&#45;&gt;Node27 -->
<g id="edge61" class="edge">
<title>Node2&#45;&gt;Node27</title>
<path fill="none" stroke="midnightblue" d="M411.86,-739.44C383.98,-730.32 339.65,-715.81 308.6,-705.65"/>
<polygon fill="midnightblue" stroke="midnightblue" points="309.62,-702.3 299.02,-702.52 307.44,-708.95 309.62,-702.3"/>
</g>
<!-- Node4 -->
<g id="node4" class="node">
<title>Node4</title>
<g id="a_node4"><a xlink:href="l4_2sys_2consts_8h.html" target="_top" xlink:title="Common constants.">
<polygon fill="white" stroke="black" points="127.5,-112.5 127.5,-131.5 216.5,-131.5 216.5,-112.5 127.5,-112.5"/>
<text text-anchor="middle" x="172" y="-119.5" font-family="Helvetica,sans-Serif" font-size="10.00">l4/sys/consts.h</text>
</a>
</g>
</g>
<!-- Node3&#45;&gt;Node4 -->
<g id="edge3" class="edge">
<title>Node3&#45;&gt;Node4</title>
<path fill="none" stroke="midnightblue" d="M75.54,-683.44C50.1,-667.16 0,-629.13 0,-582 0,-582 0,-582 0,-233 0,-176.34 67.06,-147.55 117.43,-133.92"/>
<polygon fill="midnightblue" stroke="midnightblue" points="118.45,-137.27 127.26,-131.39 116.7,-130.49 118.45,-137.27"/>
</g>
<!-- Node8 -->
<g id="node8" class="node">
<title>Node8</title>
<g id="a_node8"><a xlink:href="l4_2sys_2types_8h.html" target="_top" xlink:title="Common L4 ABI Data Types.">
<polygon fill="white" stroke="black" points="396,-168.5 396,-187.5 480,-187.5 480,-168.5 396,-168.5"/>
<text text-anchor="middle" x="438" y="-175.5" font-family="Helvetica,sans-Serif" font-size="10.00">l4/sys/types.h</text>
</a>
</g>
</g>
<!-- Node3&#45;&gt;Node8 -->
<g id="edge7" class="edge">
<title>Node3&#45;&gt;Node8</title>
<path fill="none" stroke="midnightblue" d="M82.55,-683.26C68.17,-665.45 38,-623.19 38,-582 38,-582 38,-582 38,-350.5 38,-200.81 277.55,-180.09 385.89,-178.38"/>
<polygon fill="midnightblue" stroke="midnightblue" points="385.99,-181.88 395.95,-178.27 385.91,-174.88 385.99,-181.88"/>
</g>
<!-- Node11 -->
<g id="node11" class="node">
<title>Node11</title>
<g id="a_node11"><a xlink:href="kobject_source.html" target="_top" xlink:title=" ">
<polygon fill="white" stroke="black" points="403.5,-515.5 403.5,-534.5 486.5,-534.5 486.5,-515.5 403.5,-515.5"/>
<text text-anchor="middle" x="445" y="-522.5" font-family="Helvetica,sans-Serif" font-size="10.00">l4/sys/kobject</text>
</a>
</g>
</g>
<!-- Node3&#45;&gt;Node11 -->
<g id="edge15" class="edge">
<title>Node3&#45;&gt;Node11</title>
<path fill="none" stroke="midnightblue" d="M138.33,-687.79C235.77,-679.07 447.51,-658.85 458,-647 483.34,-618.37 466.36,-569.75 454.22,-543.71"/>
<polygon fill="midnightblue" stroke="midnightblue" points="457.31,-542.06 449.76,-534.63 451.03,-545.15 457.31,-542.06"/>
</g>
<!-- Node21 -->
<g id="node21" class="node">
<title>Node21</title>
<g id="a_node21"><a xlink:href="l4_2sys_2task_8h.html" target="_top" xlink:title="Common task related definitions.">
<polygon fill="white" stroke="black" points="250,-342 250,-361 328,-361 328,-342 250,-342"/>
<text text-anchor="middle" x="289" y="-349" font-family="Helvetica,sans-Serif" font-size="10.00">l4/sys/task.h</text>
</a>
</g>
</g>
<!-- Node3&#45;&gt;Node21 -->
<g id="edge44" class="edge">
<title>Node3&#45;&gt;Node21</title>
<path fill="none" stroke="midnightblue" d="M90.69,-683.15C93.61,-650.54 107.27,-535.04 159,-459 173.6,-437.53 184.83,-439.35 205,-423 228.05,-404.32 254.16,-382.26 271.07,-367.85"/>
<polygon fill="midnightblue" stroke="midnightblue" points="273.67,-370.23 279.01,-361.08 269.13,-364.91 273.67,-370.23"/>
</g>
<!-- Node22 -->
<g id="node22" class="node">
<title>Node22</title>
<g id="a_node22"><a xlink:href="sys_2meta.html" target="_top" xlink:title="Meta interface for getting dynamic type information about objects behind capabilities.">
<polygon fill="white" stroke="black" points="375,-627.5 375,-646.5 449,-646.5 449,-627.5 375,-627.5"/>
<text text-anchor="middle" x="412" y="-634.5" font-family="Helvetica,sans-Serif" font-size="10.00">l4/sys/meta</text>
</a>
</g>
</g>
<!-- Node3&#45;&gt;Node22 -->
<g id="edge45" class="edge">
<title>Node3&#45;&gt;Node22</title>
<path fill="none" stroke="midnightblue" d="M138.21,-683.92C199.24,-673.68 303.73,-656.16 364.45,-645.97"/>
<polygon fill="midnightblue" stroke="midnightblue" points="365.25,-649.39 374.53,-644.28 364.09,-642.49 365.25,-649.39"/>
</g>
<!-- Node5 -->
<g id="node5" class="node">
<title>Node5</title>
<g id="a_node5"><a xlink:href="compiler_8h.html" target="_top" xlink:title="L4 compiler related defines.">
<polygon fill="white" stroke="black" points="556.5,-56.5 556.5,-75.5 655.5,-75.5 655.5,-56.5 556.5,-56.5"/>
<text text-anchor="middle" x="606" y="-63.5" font-family="Helvetica,sans-Serif" font-size="10.00">l4/sys/compiler.h</text>
</a>
</g>
</g>
<!-- Node4&#45;&gt;Node5 -->
<g id="edge4" class="edge">
<title>Node4&#45;&gt;Node5</title>
<path fill="none" stroke="midnightblue" d="M216.51,-113.27C219.38,-112.83 222.23,-112.4 225,-112 338.18,-95.72 470.9,-81.04 546.06,-73.13"/>
<polygon fill="midnightblue" stroke="midnightblue" points="546.69,-76.58 556.27,-72.06 545.96,-69.62 546.69,-76.58"/>
</g>
<!-- Node7 -->
<g id="node7" class="node">
<title>Node7</title>
<g id="a_node7"><a xlink:href="l4_2sys_2l4int_8h.html" target="_top" xlink:title="Fixed sized integer types, generic version.">
<polygon fill="white" stroke="black" points="307.5,-56.5 307.5,-75.5 386.5,-75.5 386.5,-56.5 307.5,-56.5"/>
<text text-anchor="middle" x="347" y="-63.5" font-family="Helvetica,sans-Serif" font-size="10.00">l4/sys/l4int.h</text>
</a>
</g>
</g>
<!-- Node4&#45;&gt;Node7 -->
<g id="edge6" class="edge">
<title>Node4&#45;&gt;Node7</title>
<path fill="none" stroke="midnightblue" d="M199.73,-112.44C229.43,-103.28 276.72,-88.69 309.67,-78.52"/>
<polygon fill="midnightblue" stroke="midnightblue" points="310.88,-81.81 319.4,-75.52 308.81,-75.12 310.88,-81.81"/>
</g>
<!-- Node6 -->
<g id="node6" class="node">
<title>Node6</title>
<g id="a_node6"><a xlink:title=" ">
<polygon fill="white" stroke="#bfbfbf" points="560,-0.5 560,-19.5 652,-19.5 652,-0.5 560,-0.5"/>
<text text-anchor="middle" x="606" y="-7.5" font-family="Helvetica,sans-Serif" font-size="10.00">l4/sys/linkage.h</text>
</a>
</g>
</g>
<!-- Node5&#45;&gt;Node6 -->
<g id="edge5" class="edge">
<title>Node5&#45;&gt;Node6</title>
<path fill="none" stroke="midnightblue" d="M606,-56.08C606,-49.01 606,-38.86 606,-29.99"/>
<polygon fill="midnightblue" stroke="midnightblue" points="609.5,-29.75 606,-19.75 602.5,-29.75 609.5,-29.75"/>
</g>
<!-- Node8&#45;&gt;Node4 -->
<g id="edge10" class="edge">
<title>Node8&#45;&gt;Node4</title>
<path fill="none" stroke="midnightblue" d="M395.85,-168.44C349.25,-158.98 274.16,-143.74 223.95,-133.55"/>
<polygon fill="midnightblue" stroke="midnightblue" points="224.45,-130.08 213.95,-131.52 223.06,-136.94 224.45,-130.08"/>
</g>
<!-- Node8&#45;&gt;Node5 -->
<g id="edge9" class="edge">
<title>Node8&#45;&gt;Node5</title>
<path fill="none" stroke="midnightblue" d="M444.5,-168.36C455.06,-154.8 477.18,-128.4 501,-112 521.73,-97.73 547.71,-86.55 568.64,-78.9"/>
<polygon fill="midnightblue" stroke="midnightblue" points="569.9,-82.17 578.16,-75.54 567.57,-75.57 569.9,-82.17"/>
</g>
<!-- Node8&#45;&gt;Node7 -->
<g id="edge8" class="edge">
<title>Node8&#45;&gt;Node7</title>
<path fill="none" stroke="midnightblue" d="M430.86,-168.37C415.71,-150.05 380.13,-107.05 360.54,-83.36"/>
<polygon fill="midnightblue" stroke="midnightblue" points="363.18,-81.07 354.11,-75.59 357.78,-85.53 363.18,-81.07"/>
</g>
<!-- Node9 -->
<g id="node9" class="node">
<title>Node9</title>
<g id="a_node9"><a xlink:href="____l4__fpage_8h_source.html" target="_top" xlink:title=" ">
<polygon fill="white" stroke="black" points="510,-112.5 510,-131.5 620,-131.5 620,-112.5 510,-112.5"/>
<text text-anchor="middle" x="565" y="-119.5" font-family="Helvetica,sans-Serif" font-size="10.00">l4/sys/__l4_fpage.h</text>
</a>
</g>
</g>
<!-- Node8&#45;&gt;Node9 -->
<g id="edge11" class="edge">
<title>Node8&#45;&gt;Node9</title>
<path fill="none" stroke="midnightblue" d="M458.12,-168.44C479.02,-159.56 511.93,-145.56 535.72,-135.45"/>
<polygon fill="midnightblue" stroke="midnightblue" points="537.14,-138.65 544.97,-131.52 534.4,-132.21 537.14,-138.65"/>
</g>
<!-- Node10 -->
<g id="node10" class="node">
<title>Node10</title>
<g id="a_node10"><a xlink:href="____timeout_8h_source.html" target="_top" xlink:title=" ">
<polygon fill="white" stroke="black" points="234,-112.5 234,-131.5 340,-131.5 340,-112.5 234,-112.5"/>
<text text-anchor="middle" x="287" y="-119.5" font-family="Helvetica,sans-Serif" font-size="10.00">l4/sys/__timeout.h</text>
</a>
</g>
</g>
<!-- Node8&#45;&gt;Node10 -->
<g id="edge13" class="edge">
<title>Node8&#45;&gt;Node10</title>
<path fill="none" stroke="midnightblue" d="M414.07,-168.44C388.78,-159.4 348.7,-145.06 320.32,-134.92"/>
<polygon fill="midnightblue" stroke="midnightblue" points="321.41,-131.59 310.81,-131.52 319.05,-138.18 321.41,-131.59"/>
</g>
<!-- Node9&#45;&gt;Node5 -->
<g id="edge12" class="edge">
<title>Node9&#45;&gt;Node5</title>
<path fill="none" stroke="midnightblue" d="M571.77,-112.08C577.56,-104.46 586.06,-93.26 593.14,-83.94"/>
<polygon fill="midnightblue" stroke="midnightblue" points="596.1,-85.83 599.36,-75.75 590.52,-81.6 596.1,-85.83"/>
</g>
<!-- Node10&#45;&gt;Node7 -->
<g id="edge14" class="edge">
<title>Node10&#45;&gt;Node7</title>
<path fill="none" stroke="midnightblue" d="M296.64,-112.32C305.51,-104.34 318.87,-92.31 329.61,-82.65"/>
<polygon fill="midnightblue" stroke="midnightblue" points="332.09,-85.13 337.18,-75.83 327.41,-79.92 332.09,-85.13"/>
</g>
<!-- Node11&#45;&gt;Node8 -->
<g id="edge30" class="edge">
<title>Node11&#45;&gt;Node8</title>
<path fill="none" stroke="midnightblue" d="M446.31,-515.38C450.2,-488.72 461.17,-405.21 457,-336 453.98,-285.92 445.59,-227.34 441.04,-197.91"/>
<polygon fill="midnightblue" stroke="midnightblue" points="444.46,-197.15 439.45,-187.82 437.54,-198.24 444.46,-197.15"/>
</g>
<!-- Node12 -->
<g id="node12" class="node">
<title>Node12</title>
<g id="a_node12"><a xlink:href="kernel__object_8h.html" target="_top" xlink:title="Kernel object system calls.">
<polygon fill="white" stroke="black" points="599.5,-403.5 599.5,-422.5 690.5,-422.5 690.5,-403.5 599.5,-403.5"/>
<text text-anchor="middle" x="645" y="-410.5" font-family="Helvetica,sans-Serif" font-size="10.00">kernel_object.h</text>
</a>
</g>
</g>
<!-- Node11&#45;&gt;Node12 -->
<g id="edge16" class="edge">
<title>Node11&#45;&gt;Node12</title>
<path fill="none" stroke="midnightblue" d="M467.41,-515.4C488.43,-507.03 520.51,-493.49 547,-479 575.14,-463.61 605.65,-442.62 625.03,-428.71"/>
<polygon fill="midnightblue" stroke="midnightblue" points="627.3,-431.39 633.34,-422.68 623.19,-425.72 627.3,-431.39"/>
</g>
<!-- Node17 -->
<g id="node17" class="node">
<title>Node17</title>
<g id="a_node17"><a xlink:href="____typeinfo_8h.html" target="_top" xlink:title="Type information handling.">
<polygon fill="white" stroke="black" points="313.5,-459.5 313.5,-478.5 390.5,-478.5 390.5,-459.5 313.5,-459.5"/>
<text text-anchor="middle" x="352" y="-466.5" font-family="Helvetica,sans-Serif" font-size="10.00">__typeinfo.h</text>
</a>
</g>
</g>
<!-- Node11&#45;&gt;Node17 -->
<g id="edge31" class="edge">
<title>Node11&#45;&gt;Node17</title>
<path fill="none" stroke="midnightblue" d="M430.06,-515.32C415.41,-506.82 392.87,-493.73 375.76,-483.8"/>
<polygon fill="midnightblue" stroke="midnightblue" points="377.31,-480.65 366.9,-478.65 373.8,-486.7 377.31,-480.65"/>
</g>
<!-- Node12&#45;&gt;Node5 -->
<g id="edge18" class="edge">
<title>Node12&#45;&gt;Node5</title>
<path fill="none" stroke="midnightblue" d="M641.36,-403.5C633.69,-385.07 616.09,-339.87 610,-300 608.66,-291.21 607.86,-288.63 610,-280 614.35,-262.44 623.57,-261.26 629,-244 644.06,-196.15 639.88,-182.07 643,-132 643.55,-123.13 646,-120.37 643,-112 639.06,-101 631.14,-90.77 623.64,-82.85"/>
<polygon fill="midnightblue" stroke="midnightblue" points="626.02,-80.28 616.44,-75.76 621.11,-85.27 626.02,-80.28"/>
</g>
<!-- Node12&#45;&gt;Node8 -->
<g id="edge17" class="edge">
<title>Node12&#45;&gt;Node8</title>
<path fill="none" stroke="midnightblue" d="M622.69,-403.49C604.83,-395.88 579.88,-383.4 562,-367 505.62,-315.28 462.98,-232.78 446.02,-196.78"/>
<polygon fill="midnightblue" stroke="midnightblue" points="449.13,-195.16 441.76,-187.55 442.77,-198.1 449.13,-195.16"/>
</g>
<!-- Node13 -->
<g id="node13" class="node">
<title>Node13</title>
<g id="a_node13"><a xlink:href="l4_2sys_2utcb_8h.html" target="_top" xlink:title="UTCB definitions.">
<polygon fill="white" stroke="black" points="542,-224.5 542,-243.5 620,-243.5 620,-224.5 542,-224.5"/>
<text text-anchor="middle" x="581" y="-231.5" font-family="Helvetica,sans-Serif" font-size="10.00">l4/sys/utcb.h</text>
</a>
</g>
</g>
<!-- Node12&#45;&gt;Node13 -->
<g id="edge19" class="edge">
<title>Node12&#45;&gt;Node13</title>
<path fill="none" stroke="midnightblue" d="M621.21,-403.5C605.28,-396.41 585.54,-384.61 576,-367 556.32,-330.67 566.82,-280.09 574.76,-253.32"/>
<polygon fill="midnightblue" stroke="midnightblue" points="578.13,-254.3 577.82,-243.71 571.45,-252.18 578.13,-254.3"/>
</g>
<!-- Node14 -->
<g id="node14" class="node">
<title>Node14</title>
<g id="a_node14"><a xlink:href="____kernel__object__impl_8h.html" target="_top" xlink:title="Low&#45;level kernel debugger functions.">
<polygon fill="white" stroke="black" points="656,-336.5 656,-366.5 780,-366.5 780,-336.5 656,-336.5"/>
<text text-anchor="start" x="664" y="-354.5" font-family="Helvetica,sans-Serif" font-size="10.00">l4/sys/__kernel_object</text>
<text text-anchor="middle" x="718" y="-343.5" font-family="Helvetica,sans-Serif" font-size="10.00">_impl.h</text>
</a>
</g>
</g>
<!-- Node12&#45;&gt;Node14 -->
<g id="edge23" class="edge">
<title>Node12&#45;&gt;Node14</title>
<path fill="none" stroke="midnightblue" d="M655.46,-403.48C665.16,-395.57 679.99,-383.48 692.77,-373.07"/>
<polygon fill="midnightblue" stroke="midnightblue" points="695.26,-375.55 700.8,-366.52 690.83,-370.13 695.26,-375.55"/>
</g>
<!-- Node15 -->
<g id="node15" class="node">
<title>Node15</title>
<g id="a_node15"><a xlink:href="l4_2sys_2ipc_8h.html" target="_top" xlink:title="Common IPC interface.">
<polygon fill="white" stroke="black" points="618.5,-280.5 618.5,-299.5 689.5,-299.5 689.5,-280.5 618.5,-280.5"/>
<text text-anchor="middle" x="654" y="-287.5" font-family="Helvetica,sans-Serif" font-size="10.00">l4/sys/ipc.h</text>
</a>
</g>
</g>
<!-- Node12&#45;&gt;Node15 -->
<g id="edge29" class="edge">
<title>Node12&#45;&gt;Node15</title>
<path fill="none" stroke="midnightblue" d="M644.87,-403.09C644.73,-388.87 644.81,-360.19 647,-336 647.79,-327.23 649.22,-317.57 650.58,-309.46"/>
<polygon fill="midnightblue" stroke="midnightblue" points="654.03,-310.04 652.33,-299.59 647.14,-308.82 654.03,-310.04"/>
</g>
<!-- Node13&#45;&gt;Node5 -->
<g id="edge21" class="edge">
<title>Node13&#45;&gt;Node5</title>
<path fill="none" stroke="midnightblue" d="M586.79,-224.3C597.66,-207.4 620.76,-168.55 629,-132 630.96,-123.33 631.08,-120.64 629,-112 626.69,-102.42 621.98,-92.58 617.42,-84.56"/>
<polygon fill="midnightblue" stroke="midnightblue" points="620.29,-82.54 612.1,-75.81 614.31,-86.17 620.29,-82.54"/>
</g>
<!-- Node13&#45;&gt;Node7 -->
<g id="edge22" class="edge">
<title>Node13&#45;&gt;Node7</title>
<path fill="none" stroke="midnightblue" d="M568.75,-224.31C530.76,-197.36 414.68,-115.01 367.38,-81.46"/>
<polygon fill="midnightblue" stroke="midnightblue" points="369.31,-78.54 359.13,-75.61 365.26,-84.25 369.31,-78.54"/>
</g>
<!-- Node13&#45;&gt;Node8 -->
<g id="edge20" class="edge">
<title>Node13&#45;&gt;Node8</title>
<path fill="none" stroke="midnightblue" d="M558.34,-224.44C534.6,-215.48 497.09,-201.31 470.26,-191.18"/>
<polygon fill="midnightblue" stroke="midnightblue" points="471.14,-187.77 460.55,-187.52 468.67,-194.32 471.14,-187.77"/>
</g>
<!-- Node14&#45;&gt;Node15 -->
<g id="edge24" class="edge">
<title>Node14&#45;&gt;Node15</title>
<path fill="none" stroke="midnightblue" d="M702.83,-336.4C693.25,-327.49 680.84,-315.95 670.93,-306.74"/>
<polygon fill="midnightblue" stroke="midnightblue" points="673.02,-303.9 663.31,-299.66 668.25,-309.03 673.02,-303.9"/>
</g>
<!-- Node15&#45;&gt;Node8 -->
<g id="edge25" class="edge">
<title>Node15&#45;&gt;Node8</title>
<path fill="none" stroke="midnightblue" d="M624.8,-280.36C599.75,-272.43 563.05,-259.57 533,-244 504.82,-229.4 475.03,-207.89 456.48,-193.67"/>
<polygon fill="midnightblue" stroke="midnightblue" points="458.61,-190.89 448.57,-187.52 454.32,-196.42 458.61,-190.89"/>
</g>
<!-- Node15&#45;&gt;Node13 -->
<g id="edge26" class="edge">
<title>Node15&#45;&gt;Node13</title>
<path fill="none" stroke="midnightblue" d="M642.27,-280.32C631.16,-272.11 614.26,-259.6 601.02,-249.81"/>
<polygon fill="midnightblue" stroke="midnightblue" points="603.06,-246.97 592.94,-243.83 598.9,-252.59 603.06,-246.97"/>
</g>
<!-- Node16 -->
<g id="node16" class="node">
<title>Node16</title>
<g id="a_node16"><a xlink:href="err_8h.html" target="_top" xlink:title="Error codes.">
<polygon fill="white" stroke="black" points="207,-224.5 207,-243.5 277,-243.5 277,-224.5 207,-224.5"/>
<text text-anchor="middle" x="242" y="-231.5" font-family="Helvetica,sans-Serif" font-size="10.00">l4/sys/err.h</text>
</a>
</g>
</g>
<!-- Node15&#45;&gt;Node16 -->
<g id="edge27" class="edge">
<title>Node15&#45;&gt;Node16</title>
<path fill="none" stroke="midnightblue" d="M618.16,-284.3C543.15,-274.47 369.78,-251.75 287.25,-240.93"/>
<polygon fill="midnightblue" stroke="midnightblue" points="287.54,-237.44 277.17,-239.61 286.63,-244.38 287.54,-237.44"/>
</g>
<!-- Node16&#45;&gt;Node5 -->
<g id="edge28" class="edge">
<title>Node16&#45;&gt;Node5</title>
<path fill="none" stroke="midnightblue" d="M256.55,-224.41C292.54,-203.39 389.02,-148.39 474,-112 504.69,-98.86 540.61,-86.82 567.23,-78.51"/>
<polygon fill="midnightblue" stroke="midnightblue" points="568.42,-81.8 576.94,-75.51 566.36,-75.11 568.42,-81.8"/>
</g>
<!-- Node18 -->
<g id="node18" class="node">
<title>Node18</title>
<g id="a_node18"><a xlink:href="types.html" target="_top" xlink:title=" ">
<polygon fill="white" stroke="black" points="384,-342 384,-361 448,-361 448,-342 384,-342"/>
<text text-anchor="middle" x="416" y="-349" font-family="Helvetica,sans-Serif" font-size="10.00">cxx/types</text>
</a>
</g>
</g>
<!-- Node17&#45;&gt;Node18 -->
<g id="edge32" class="edge">
<title>Node17&#45;&gt;Node18</title>
<path fill="none" stroke="midnightblue" d="M367.18,-459.37C379.47,-451.53 396.15,-438.79 405,-423 413.88,-407.16 416.2,-386.33 416.55,-371.43"/>
<polygon fill="midnightblue" stroke="midnightblue" points="420.05,-371.36 416.52,-361.37 413.05,-371.39 420.05,-371.36"/>
</g>
<!-- Node19 -->
<g id="node19" class="node">
<title>Node19</title>
<g id="a_node19"><a xlink:href="ipc__basics_source.html" target="_top" xlink:title=" ">
<polygon fill="white" stroke="black" points="308.5,-403.5 308.5,-422.5 395.5,-422.5 395.5,-403.5 308.5,-403.5"/>
<text text-anchor="middle" x="352" y="-410.5" font-family="Helvetica,sans-Serif" font-size="10.00">cxx/ipc_basics</text>
</a>
</g>
</g>
<!-- Node17&#45;&gt;Node19 -->
<g id="edge33" class="edge">
<title>Node17&#45;&gt;Node19</title>
<path fill="none" stroke="midnightblue" d="M352,-459.08C352,-452.01 352,-441.86 352,-432.99"/>
<polygon fill="midnightblue" stroke="midnightblue" points="355.5,-432.75 352,-422.75 348.5,-432.75 355.5,-432.75"/>
</g>
<!-- Node20 -->
<g id="node20" class="node">
<title>Node20</title>
<g id="a_node20"><a xlink:href="capability_8h_source.html" target="_top" xlink:title=" ">
<polygon fill="white" stroke="black" points="104,-403.5 104,-422.5 196,-422.5 196,-403.5 104,-403.5"/>
<text text-anchor="middle" x="150" y="-410.5" font-family="Helvetica,sans-Serif" font-size="10.00">cxx/capability.h</text>
</a>
</g>
</g>
<!-- Node17&#45;&gt;Node20 -->
<g id="edge37" class="edge">
<title>Node17&#45;&gt;Node20</title>
<path fill="none" stroke="midnightblue" d="M319.99,-459.44C285.27,-450.16 229.71,-435.31 191.62,-425.13"/>
<polygon fill="midnightblue" stroke="midnightblue" points="192.42,-421.72 181.86,-422.52 190.61,-428.48 192.42,-421.72"/>
</g>
<!-- Node19&#45;&gt;Node13 -->
<g id="edge35" class="edge">
<title>Node19&#45;&gt;Node13</title>
<path fill="none" stroke="midnightblue" d="M352.37,-403.39C353.46,-388.05 357.81,-355.76 375,-336 400.06,-307.2 418.64,-316.65 453,-300 488.8,-282.66 529.72,-261.67 555.45,-248.33"/>
<polygon fill="midnightblue" stroke="midnightblue" points="557.27,-251.33 564.53,-243.61 554.04,-245.12 557.27,-251.33"/>
</g>
<!-- Node19&#45;&gt;Node16 -->
<g id="edge36" class="edge">
<title>Node19&#45;&gt;Node16</title>
<path fill="none" stroke="midnightblue" d="M308.5,-406.26C284.27,-400.59 256.05,-389.33 241,-367 217.82,-332.59 227.93,-280.83 235.83,-253.47"/>
<polygon fill="midnightblue" stroke="midnightblue" points="239.26,-254.25 238.88,-243.66 232.57,-252.17 239.26,-254.25"/>
</g>
<!-- Node19&#45;&gt;Node18 -->
<g id="edge34" class="edge">
<title>Node19&#45;&gt;Node18</title>
<path fill="none" stroke="midnightblue" d="M361.17,-403.48C371.15,-394.2 387.31,-379.17 399.51,-367.83"/>
<polygon fill="midnightblue" stroke="midnightblue" points="401.91,-370.38 406.85,-361.01 397.14,-365.25 401.91,-370.38"/>
</g>
<!-- Node20&#45;&gt;Node4 -->
<g id="edge38" class="edge">
<title>Node20&#45;&gt;Node4</title>
<path fill="none" stroke="midnightblue" d="M148.51,-403.41C147.02,-394.38 144.85,-379.74 144,-367 143.09,-353.25 143.1,-349.75 144,-336 148.72,-263.82 162.36,-178.76 168.69,-141.76"/>
<polygon fill="midnightblue" stroke="midnightblue" points="172.15,-142.34 170.41,-131.89 165.25,-141.14 172.15,-142.34"/>
</g>
<!-- Node20&#45;&gt;Node8 -->
<g id="edge39" class="edge">
<title>Node20&#45;&gt;Node8</title>
<path fill="none" stroke="midnightblue" d="M149.26,-403.31C147.24,-373.39 144.91,-273.76 198,-224 224.59,-199.08 323.71,-187.33 385.95,-182.31"/>
<polygon fill="midnightblue" stroke="midnightblue" points="386.29,-185.79 395.98,-181.53 385.74,-178.81 386.29,-185.79"/>
</g>
<!-- Node20&#45;&gt;Node21 -->
<g id="edge40" class="edge">
<title>Node20&#45;&gt;Node21</title>
<path fill="none" stroke="midnightblue" d="M169.92,-403.48C193.45,-393.4 232.81,-376.55 259.79,-365"/>
<polygon fill="midnightblue" stroke="midnightblue" points="261.31,-368.16 269.12,-361.01 258.55,-361.73 261.31,-368.16"/>
</g>
<!-- Node21&#45;&gt;Node8 -->
<g id="edge41" class="edge">
<title>Node21&#45;&gt;Node8</title>
<path fill="none" stroke="midnightblue" d="M296.59,-341.76C320.21,-314.58 392.64,-231.21 423.66,-195.51"/>
<polygon fill="midnightblue" stroke="midnightblue" points="426.68,-197.36 430.6,-187.52 421.4,-192.77 426.68,-197.36"/>
</g>
<!-- Node21&#45;&gt;Node13 -->
<g id="edge42" class="edge">
<title>Node21&#45;&gt;Node13</title>
<path fill="none" stroke="midnightblue" d="M310.95,-341.82C362.23,-321.53 490.05,-270.97 549.58,-247.43"/>
<polygon fill="midnightblue" stroke="midnightblue" points="551.18,-250.56 559.2,-243.62 548.61,-244.05 551.18,-250.56"/>
</g>
<!-- Node21&#45;&gt;Node15 -->
<g id="edge43" class="edge">
<title>Node21&#45;&gt;Node15</title>
<path fill="none" stroke="midnightblue" d="M328.38,-343.8C343.01,-341.33 359.76,-338.51 375,-336 457.09,-322.46 552.84,-307.11 608.14,-298.29"/>
<polygon fill="midnightblue" stroke="midnightblue" points="608.99,-301.7 618.31,-296.67 607.89,-294.79 608.99,-301.7"/>
</g>
<!-- Node22&#45;&gt;Node11 -->
<g id="edge46" class="edge">
<title>Node22&#45;&gt;Node11</title>
<path fill="none" stroke="midnightblue" d="M414.59,-627.37C419.94,-609.54 432.31,-568.3 439.52,-544.27"/>
<polygon fill="midnightblue" stroke="midnightblue" points="442.9,-545.18 442.42,-534.59 436.2,-543.16 442.9,-545.18"/>
</g>
<!-- Node22&#45;&gt;Node23 -->
<g id="edge47" class="edge">
<title>Node22&#45;&gt;Node23</title>
<path fill="none" stroke="midnightblue" d="M406.74,-627.37C395.73,-609.3 370.08,-567.18 355.54,-543.31"/>
<polygon fill="midnightblue" stroke="midnightblue" points="358.42,-541.31 350.23,-534.59 352.45,-544.95 358.42,-541.31"/>
</g>
<!-- Node22&#45;&gt;Node25 -->
<g id="edge54" class="edge">
<title>Node22&#45;&gt;Node25</title>
<path fill="none" stroke="midnightblue" d="M433.39,-627.44C455.71,-618.52 490.9,-604.44 516.21,-594.32"/>
<polygon fill="midnightblue" stroke="midnightblue" points="517.72,-597.48 525.71,-590.52 515.12,-590.98 517.72,-597.48"/>
</g>
<!-- Node23&#45;&gt;Node17 -->
<g id="edge53" class="edge">
<title>Node23&#45;&gt;Node17</title>
<path fill="none" stroke="midnightblue" d="M346.16,-515.08C347.08,-507.93 348.42,-497.64 349.58,-488.69"/>
<polygon fill="midnightblue" stroke="midnightblue" points="353.05,-489.12 350.87,-478.75 346.11,-488.22 353.05,-489.12"/>
</g>
<!-- Node23&#45;&gt;Node19 -->
<g id="edge48" class="edge">
<title>Node23&#45;&gt;Node19</title>
<path fill="none" stroke="midnightblue" d="M362.2,-515.39C375.25,-507.79 392.23,-495.39 400,-479 409,-460 391.01,-440.97 374.55,-428.45"/>
<polygon fill="midnightblue" stroke="midnightblue" points="376.41,-425.48 366.23,-422.54 372.35,-431.19 376.41,-425.48"/>
</g>
<!-- Node24 -->
<g id="node24" class="node">
<title>Node24</title>
<g id="a_node24"><a xlink:href="ipc__types.html" target="_top" xlink:title=" ">
<polygon fill="white" stroke="black" points="180.5,-459.5 180.5,-478.5 295.5,-478.5 295.5,-459.5 180.5,-459.5"/>
<text text-anchor="middle" x="238" y="-466.5" font-family="Helvetica,sans-Serif" font-size="10.00">l4/sys/cxx/ipc_types</text>
</a>
</g>
</g>
<!-- Node23&#45;&gt;Node24 -->
<g id="edge49" class="edge">
<title>Node23&#45;&gt;Node24</title>
<path fill="none" stroke="midnightblue" d="M327.81,-515.32C310.65,-506.66 284.05,-493.24 264.25,-483.25"/>
<polygon fill="midnightblue" stroke="midnightblue" points="265.65,-480.04 255.15,-478.65 262.5,-486.28 265.65,-480.04"/>
</g>
<!-- Node24&#45;&gt;Node18 -->
<g id="edge51" class="edge">
<title>Node24&#45;&gt;Node18</title>
<path fill="none" stroke="midnightblue" d="M244.37,-459.37C254.74,-445.82 276.48,-419.43 300,-403 324.11,-386.16 354.72,-373.12 378.45,-364.52"/>
<polygon fill="midnightblue" stroke="midnightblue" points="379.88,-367.72 388.15,-361.1 377.56,-361.12 379.88,-367.72"/>
</g>
<!-- Node24&#45;&gt;Node19 -->
<g id="edge52" class="edge">
<title>Node24&#45;&gt;Node19</title>
<path fill="none" stroke="midnightblue" d="M256.06,-459.44C274.57,-450.68 303.58,-436.94 324.86,-426.86"/>
<polygon fill="midnightblue" stroke="midnightblue" points="326.48,-429.96 334.02,-422.52 323.49,-423.63 326.48,-429.96"/>
</g>
<!-- Node24&#45;&gt;Node20 -->
<g id="edge50" class="edge">
<title>Node24&#45;&gt;Node20</title>
<path fill="none" stroke="midnightblue" d="M223.86,-459.32C210.13,-450.9 189.06,-437.97 172.94,-428.07"/>
<polygon fill="midnightblue" stroke="midnightblue" points="174.46,-424.9 164.1,-422.65 170.8,-430.87 174.46,-424.9"/>
</g>
<!-- Node25&#45;&gt;Node18 -->
<g id="edge55" class="edge">
<title>Node25&#45;&gt;Node18</title>
<path fill="none" stroke="midnightblue" d="M543.62,-571.4C538.55,-558.79 528.47,-534.62 518,-515 488.7,-460.08 447.82,-398.75 427.89,-369.63"/>
<polygon fill="midnightblue" stroke="midnightblue" points="430.53,-367.3 421.97,-361.05 424.76,-371.27 430.53,-367.3"/>
</g>
<!-- Node25&#45;&gt;Node19 -->
<g id="edge56" class="edge">
<title>Node25&#45;&gt;Node19</title>
<path fill="none" stroke="midnightblue" d="M541.43,-571.35C532.73,-558.23 514.95,-532.96 496,-515 458,-478.99 406.31,-445.91 376.31,-427.99"/>
<polygon fill="midnightblue" stroke="midnightblue" points="377.77,-424.79 367.38,-422.72 374.22,-430.82 377.77,-424.79"/>
</g>
<!-- Node25&#45;&gt;Node26 -->
<g id="edge57" class="edge">
<title>Node25&#45;&gt;Node26</title>
<path fill="none" stroke="midnightblue" d="M559.85,-571.32C572.22,-562.98 591.13,-550.21 605.74,-540.35"/>
<polygon fill="midnightblue" stroke="midnightblue" points="607.85,-543.15 614.18,-534.65 603.93,-537.35 607.85,-543.15"/>
</g>
<!-- Node26&#45;&gt;Node18 -->
<g id="edge58" class="edge">
<title>Node26&#45;&gt;Node18</title>
<path fill="none" stroke="midnightblue" d="M622.7,-515.31C615.91,-502.15 601.75,-476.81 585,-459 544.11,-415.52 481.81,-382.36 445.37,-365.3"/>
<polygon fill="midnightblue" stroke="midnightblue" points="446.8,-362.11 436.26,-361.12 443.88,-368.47 446.8,-362.11"/>
</g>
<!-- Node26&#45;&gt;Node19 -->
<g id="edge59" class="edge">
<title>Node26&#45;&gt;Node19</title>
<path fill="none" stroke="midnightblue" d="M606.89,-515.37C577.27,-502.71 520.08,-478.5 471,-459 442.08,-447.51 408.96,-435.04 385.01,-426.15"/>
<polygon fill="midnightblue" stroke="midnightblue" points="385.94,-422.76 375.35,-422.57 383.51,-429.32 385.94,-422.76"/>
</g>
<!-- Node26&#45;&gt;Node24 -->
<g id="edge60" class="edge">
<title>Node26&#45;&gt;Node24</title>
<path fill="none" stroke="midnightblue" d="M595.82,-519.67C533.2,-510.98 390.83,-491.22 305.76,-479.41"/>
<polygon fill="midnightblue" stroke="midnightblue" points="306.07,-475.92 295.68,-478.01 305.11,-482.85 306.07,-475.92"/>
</g>
<!-- Node28&#45;&gt;Node5 -->
<g id="edge67" class="edge">
<title>Node28&#45;&gt;Node5</title>
<path fill="none" stroke="midnightblue" d="M1032.99,-341.83C1018.79,-323.37 988,-278.32 988,-235 988,-235 988,-235 988,-177 988,-110.73 773,-81.98 665.6,-71.76"/>
<polygon fill="midnightblue" stroke="midnightblue" points="665.83,-68.26 655.55,-70.82 665.18,-75.23 665.83,-68.26"/>
</g>
<!-- Node28&#45;&gt;Node8 -->
<g id="edge66" class="edge">
<title>Node28&#45;&gt;Node8</title>
<path fill="none" stroke="midnightblue" d="M1018.22,-341.87C961.6,-319.69 804.8,-259.93 670,-224 609.06,-207.76 537.65,-194.79 490.32,-187.03"/>
<polygon fill="midnightblue" stroke="midnightblue" points="490.74,-183.55 480.31,-185.41 489.62,-190.46 490.74,-183.55"/>
</g>
<!-- Node28&#45;&gt;Node15 -->
<g id="edge68" class="edge">
<title>Node28&#45;&gt;Node15</title>
<path fill="none" stroke="midnightblue" d="M1015.93,-341.86C1009.22,-339.7 1001.89,-337.55 995,-336 890.76,-312.53 765.65,-299.89 699.77,-294.4"/>
<polygon fill="midnightblue" stroke="midnightblue" points="699.97,-290.9 689.72,-293.58 699.4,-297.88 699.97,-290.9"/>
</g>
<!-- Node29&#45;&gt;Node16 -->
<g id="edge74" class="edge">
<title>Node29&#45;&gt;Node16</title>
<path fill="none" stroke="midnightblue" d="M205.56,-571.39C167.2,-547.32 67.48,-476.25 95,-403 120.53,-335.06 187.37,-276.62 221.42,-250.14"/>
<polygon fill="midnightblue" stroke="midnightblue" points="223.88,-252.66 229.71,-243.82 219.64,-247.1 223.88,-252.66"/>
</g>
<!-- Node29&#45;&gt;Node17 -->
<g id="edge73" class="edge">
<title>Node29&#45;&gt;Node17</title>
<path fill="none" stroke="midnightblue" d="M229.76,-571.49C244.14,-558.98 271.94,-534.95 296,-515 308.27,-504.82 322.25,-493.59 333.17,-484.89"/>
<polygon fill="midnightblue" stroke="midnightblue" points="335.53,-487.49 341.19,-478.53 331.18,-482.01 335.53,-487.49"/>
</g>
<!-- Node29&#45;&gt;Node19 -->
<g id="edge70" class="edge">
<title>Node29&#45;&gt;Node19</title>
<path fill="none" stroke="midnightblue" d="M211.05,-571.24C190.49,-550.06 143.77,-495.16 172,-459 187.47,-439.19 250.96,-426.81 298.18,-420.16"/>
<polygon fill="midnightblue" stroke="midnightblue" points="298.85,-423.6 308.29,-418.79 297.91,-416.67 298.85,-423.6"/>
</g>
<!-- Node29&#45;&gt;Node23 -->
<g id="edge72" class="edge">
<title>Node29&#45;&gt;Node23</title>
<path fill="none" stroke="midnightblue" d="M239.81,-571.44C260.29,-562.6 292.48,-548.69 315.86,-538.59"/>
<polygon fill="midnightblue" stroke="midnightblue" points="317.49,-541.7 325.29,-534.52 314.72,-535.27 317.49,-541.7"/>
</g>
<!-- Node29&#45;&gt;Node24 -->
<g id="edge71" class="edge">
<title>Node29&#45;&gt;Node24</title>
<path fill="none" stroke="midnightblue" d="M221.41,-571.37C224.32,-553.62 231.02,-512.67 234.96,-488.6"/>
<polygon fill="midnightblue" stroke="midnightblue" points="238.43,-489.03 236.59,-478.59 231.53,-487.89 238.43,-489.03"/>
</g>
<!-- Node30&#45;&gt;Node5 -->
<g id="edge76" class="edge">
<title>Node30&#45;&gt;Node5</title>
<path fill="none" stroke="midnightblue" d="M932.87,-407.27C983.87,-400.88 1063.75,-387.84 1085,-367 1109.86,-342.62 1104,-325.82 1104,-291 1104,-291 1104,-291 1104,-177 1104,-88.21 798.31,-71.03 665.94,-67.75"/>
<polygon fill="midnightblue" stroke="midnightblue" points="665.65,-64.24 655.57,-67.51 665.49,-71.24 665.65,-64.24"/>
</g>
<!-- Node31 -->
<g id="node31" class="node">
<title>Node31</title>
<g id="a_node31"><a xlink:href="l4_2sys_2thread_8h.html" target="_top" xlink:title="Common thread related definitions.">
<polygon fill="white" stroke="black" points="896.5,-342 896.5,-361 985.5,-361 985.5,-342 896.5,-342"/>
<text text-anchor="middle" x="941" y="-349" font-family="Helvetica,sans-Serif" font-size="10.00">l4/sys/thread.h</text>
</a>
</g>
</g>
<!-- Node30&#45;&gt;Node31 -->
<g id="edge77" class="edge">
<title>Node30&#45;&gt;Node31</title>
<path fill="none" stroke="midnightblue" d="M896.45,-403.48C904.33,-394.46 916.94,-380.02 926.74,-368.81"/>
<polygon fill="midnightblue" stroke="midnightblue" points="929.62,-370.84 933.56,-361.01 924.35,-366.24 929.62,-370.84"/>
</g>
<!-- Node32 -->
<g id="node32" class="node">
<title>Node32</title>
<g id="a_node32"><a xlink:href="vcon_8h.html" target="_top" xlink:title="Virtual console interface.">
<polygon fill="white" stroke="black" points="798,-342 798,-361 878,-361 878,-342 798,-342"/>
<text text-anchor="middle" x="838" y="-349" font-family="Helvetica,sans-Serif" font-size="10.00">l4/sys/vcon.h</text>
</a>
</g>
</g>
<!-- Node30&#45;&gt;Node32 -->
<g id="edge81" class="edge">
<title>Node30&#45;&gt;Node32</title>
<path fill="none" stroke="midnightblue" d="M881.69,-403.48C873.97,-394.46 861.59,-380.02 851.98,-368.81"/>
<polygon fill="midnightblue" stroke="midnightblue" points="854.46,-366.32 845.29,-361.01 849.14,-370.88 854.46,-366.32"/>
</g>
<!-- Node31&#45;&gt;Node8 -->
<g id="edge78" class="edge">
<title>Node31&#45;&gt;Node8</title>
<path fill="none" stroke="midnightblue" d="M922.73,-341.93C875.2,-319.89 743.45,-260.45 629,-224 582.81,-209.29 528.96,-197.03 490.24,-189.04"/>
<polygon fill="midnightblue" stroke="midnightblue" points="490.73,-185.57 480.24,-187 489.34,-192.43 490.73,-185.57"/>
</g>
<!-- Node31&#45;&gt;Node13 -->
<g id="edge79" class="edge">
<title>Node31&#45;&gt;Node13</title>
<path fill="none" stroke="midnightblue" d="M909.62,-341.97C902.21,-339.98 894.33,-337.89 887,-336 822.71,-319.39 804.61,-322.1 742,-300 722.12,-292.98 718.41,-288.2 699,-280 670.9,-268.13 638.49,-255.87 614.76,-247.15"/>
<polygon fill="midnightblue" stroke="midnightblue" points="615.75,-243.78 605.15,-243.64 613.35,-250.36 615.75,-243.78"/>
</g>
<!-- Node31&#45;&gt;Node15 -->
<g id="edge80" class="edge">
<title>Node31&#45;&gt;Node15</title>
<path fill="none" stroke="midnightblue" d="M910.82,-341.99C903.08,-339.92 894.76,-337.79 887,-336 852.06,-327.95 756.93,-310.04 699.6,-299.41"/>
<polygon fill="midnightblue" stroke="midnightblue" points="700.18,-295.95 689.71,-297.57 698.9,-302.84 700.18,-295.95"/>
</g>
<!-- Node32&#45;&gt;Node15 -->
<g id="edge82" class="edge">
<title>Node32&#45;&gt;Node15</title>
<path fill="none" stroke="midnightblue" d="M811.64,-341.98C779.66,-331.64 725.62,-314.16 689.88,-302.6"/>
<polygon fill="midnightblue" stroke="midnightblue" points="690.91,-299.26 680.31,-299.51 688.75,-305.92 690.91,-299.26"/>
</g>
</g>
</svg>
