<?xml version="1.0" encoding="UTF-8" standalone="no"?>
<!DOCTYPE svg PUBLIC "-//W3C//DTD SVG 1.1//EN"
 "http://www.w3.org/Graphics/SVG/1.1/DTD/svg11.dtd">
<!-- Generated by graphviz version 2.43.0 (0)
 -->
<!-- Title: L4Re::chkipc Pages: 1 -->
<svg width="389pt" height="66pt"
 viewBox="0.00 0.00 389.00 66.00" xmlns="http://www.w3.org/2000/svg" xmlns:xlink="http://www.w3.org/1999/xlink">
<g id="graph0" class="graph" transform="scale(1 1) rotate(0) translate(4 62)">
<title>L4Re::chkipc</title>
<polygon fill="white" stroke="transparent" points="-4,4 -4,-62 385,-62 385,4 -4,4"/>
<!-- Node1 -->
<g id="node1" class="node">
<title>Node1</title>
<g id="a_node1"><a xlink:title="Test a message tag for IPC errors.">
<polygon fill="#bfbfbf" stroke="black" points="0,-19.5 0,-38.5 78,-38.5 78,-19.5 0,-19.5"/>
<text text-anchor="middle" x="39" y="-26.5" font-family="Helvetica,sans-Serif" font-size="10.00">L4Re::chkipc</text>
</a>
</g>
</g>
<!-- Node2 -->
<g id="node2" class="node">
<title>Node2</title>
<g id="a_node2"><a xlink:href="namespaceL4Re.html#a3f17984019f06676a7e3eecb41bbb0bb" target="_top" xlink:title="Generate C++ exception on error.">
<polygon fill="white" stroke="black" points="138,-38.5 138,-57.5 218,-57.5 218,-38.5 138,-38.5"/>
<text text-anchor="middle" x="178" y="-45.5" font-family="Helvetica,sans-Serif" font-size="10.00">L4Re::chksys</text>
</a>
</g>
</g>
<!-- Node1&#45;&gt;Node2 -->
<g id="edge1" class="edge">
<title>Node1&#45;&gt;Node2</title>
<path fill="none" stroke="midnightblue" d="M78.16,-34.29C93.5,-36.42 111.39,-38.9 127.7,-41.16"/>
<polygon fill="midnightblue" stroke="midnightblue" points="127.23,-44.63 137.61,-42.54 128.19,-37.7 127.23,-44.63"/>
</g>
<!-- Node4 -->
<g id="node4" class="node">
<title>Node4</title>
<g id="a_node4"><a xlink:href="structl4__msgtag__t.html#a09c8212b870e6c144fd072dbde5b5262" target="_top" xlink:title="Test if flags indicate an error.">
<polygon fill="white" stroke="black" points="114,-0.5 114,-19.5 242,-19.5 242,-0.5 114,-0.5"/>
<text text-anchor="middle" x="178" y="-7.5" font-family="Helvetica,sans-Serif" font-size="10.00">l4_msgtag_t::has_error</text>
</a>
</g>
</g>
<!-- Node1&#45;&gt;Node4 -->
<g id="edge3" class="edge">
<title>Node1&#45;&gt;Node4</title>
<path fill="none" stroke="midnightblue" d="M78.16,-23.71C86.22,-22.59 94.97,-21.38 103.83,-20.15"/>
<polygon fill="midnightblue" stroke="midnightblue" points="104.42,-23.6 113.84,-18.76 103.46,-16.67 104.42,-23.6"/>
</g>
<!-- Node3 -->
<g id="node3" class="node">
<title>Node3</title>
<g id="a_node3"><a xlink:href="namespaceL4Re.html#ae27ac6f274f4ad1267d0d1c0c033c00b" target="_top" xlink:title="Generate C++ exception.">
<polygon fill="white" stroke="black" points="278,-38.5 278,-57.5 381,-57.5 381,-38.5 278,-38.5"/>
<text text-anchor="middle" x="329.5" y="-45.5" font-family="Helvetica,sans-Serif" font-size="10.00">L4Re::throw_error</text>
</a>
</g>
</g>
<!-- Node2&#45;&gt;Node3 -->
<g id="edge2" class="edge">
<title>Node2&#45;&gt;Node3</title>
<path fill="none" stroke="midnightblue" d="M218.28,-48C233.4,-48 251.03,-48 267.71,-48"/>
<polygon fill="midnightblue" stroke="midnightblue" points="267.94,-51.5 277.93,-48 267.93,-44.5 267.94,-51.5"/>
</g>
</g>
</svg>
