<?xml version="1.0" encoding="UTF-8" standalone="no"?>
<!DOCTYPE svg PUBLIC "-//W3C//DTD SVG 1.1//EN"
 "http://www.w3.org/Graphics/SVG/1.1/DTD/svg11.dtd">
<!-- Generated by graphviz version 2.43.0 (0)
 -->
<!-- Title: l4/re/parent Pages: 1 -->
<svg width="748pt" height="767pt"
 viewBox="0.00 0.00 747.57 767.00" xmlns="http://www.w3.org/2000/svg" xmlns:xlink="http://www.w3.org/1999/xlink">
<g id="graph0" class="graph" transform="scale(1 1) rotate(0) translate(4 763)">
<title>l4/re/parent</title>
<polygon fill="white" stroke="transparent" points="-4,4 -4,-763 743.57,-763 743.57,4 -4,4"/>
<!-- Node1 -->
<g id="node1" class="node">
<title>Node1</title>
<g id="a_node1"><a xlink:title="Parent interface.">
<polygon fill="#bfbfbf" stroke="black" points="351.53,-739.5 351.53,-758.5 424.53,-758.5 424.53,-739.5 351.53,-739.5"/>
<text text-anchor="middle" x="388.03" y="-746.5" font-family="Helvetica,sans-Serif" font-size="10.00">l4/re/parent</text>
</a>
</g>
</g>
<!-- Node2 -->
<g id="node2" class="node">
<title>Node2</title>
<g id="a_node2"><a xlink:href="capability.html" target="_top" xlink:title="L4::Cap related definitions.">
<polygon fill="white" stroke="black" points="188.03,-683.5 188.03,-702.5 284.03,-702.5 284.03,-683.5 188.03,-683.5"/>
<text text-anchor="middle" x="236.03" y="-690.5" font-family="Helvetica,sans-Serif" font-size="10.00">l4/sys/capability</text>
</a>
</g>
</g>
<!-- Node1&#45;&gt;Node2 -->
<g id="edge1" class="edge">
<title>Node1&#45;&gt;Node2</title>
<path fill="none" stroke="midnightblue" d="M363.95,-739.44C338.49,-730.4 298.14,-716.06 269.57,-705.92"/>
<polygon fill="midnightblue" stroke="midnightblue" points="270.6,-702.57 260,-702.52 268.26,-709.16 270.6,-702.57"/>
</g>
<!-- Node22 -->
<g id="node22" class="node">
<title>Node22</title>
<g id="a_node22"><a xlink:href="ipc__iface.html" target="_top" xlink:title="Interface Definition Language.">
<polygon fill="white" stroke="black" points="352.03,-515.5 352.03,-534.5 432.03,-534.5 432.03,-515.5 352.03,-515.5"/>
<text text-anchor="middle" x="392.03" y="-522.5" font-family="Helvetica,sans-Serif" font-size="10.00">cxx/ipc_iface</text>
</a>
</g>
</g>
<!-- Node1&#45;&gt;Node22 -->
<g id="edge61" class="edge">
<title>Node1&#45;&gt;Node22</title>
<path fill="none" stroke="midnightblue" d="M388.19,-739.3C388.78,-706.63 390.86,-590.87 391.69,-544.96"/>
<polygon fill="midnightblue" stroke="midnightblue" points="395.19,-544.95 391.87,-534.88 388.19,-544.82 395.19,-544.95"/>
</g>
<!-- Node26 -->
<g id="node26" class="node">
<title>Node26</title>
<g id="a_node26"><a xlink:href="protocols_8h.html" target="_top" xlink:title="L4Re Protocol Constants (C version)">
<polygon fill="white" stroke="black" points="416.53,-683.5 416.53,-702.5 511.53,-702.5 511.53,-683.5 416.53,-683.5"/>
<text text-anchor="middle" x="464.03" y="-690.5" font-family="Helvetica,sans-Serif" font-size="10.00">l4/re/protocols.h</text>
</a>
</g>
</g>
<!-- Node1&#45;&gt;Node26 -->
<g id="edge60" class="edge">
<title>Node1&#45;&gt;Node26</title>
<path fill="none" stroke="midnightblue" d="M400.24,-739.32C411.81,-731.11 429.41,-718.6 443.19,-708.81"/>
<polygon fill="midnightblue" stroke="midnightblue" points="445.48,-711.48 451.6,-702.83 441.42,-705.77 445.48,-711.48"/>
</g>
<!-- Node3 -->
<g id="node3" class="node">
<title>Node3</title>
<g id="a_node3"><a xlink:href="l4_2sys_2consts_8h.html" target="_top" xlink:title="Common constants.">
<polygon fill="white" stroke="black" points="139.53,-112.5 139.53,-131.5 228.53,-131.5 228.53,-112.5 139.53,-112.5"/>
<text text-anchor="middle" x="184.03" y="-119.5" font-family="Helvetica,sans-Serif" font-size="10.00">l4/sys/consts.h</text>
</a>
</g>
</g>
<!-- Node2&#45;&gt;Node3 -->
<g id="edge2" class="edge">
<title>Node2&#45;&gt;Node3</title>
<path fill="none" stroke="midnightblue" d="M187.79,-687.55C126.35,-678.93 28.03,-653.9 28.03,-582 28.03,-582 28.03,-582 28.03,-233 28.03,-178.82 91.67,-148.97 137.65,-134.48"/>
<polygon fill="midnightblue" stroke="midnightblue" points="138.89,-137.77 147.46,-131.54 136.87,-131.06 138.89,-137.77"/>
</g>
<!-- Node7 -->
<g id="node7" class="node">
<title>Node7</title>
<g id="a_node7"><a xlink:href="l4_2sys_2types_8h.html" target="_top" xlink:title="Common L4 ABI Data Types.">
<polygon fill="white" stroke="black" points="142.03,-168.5 142.03,-187.5 226.03,-187.5 226.03,-168.5 142.03,-168.5"/>
<text text-anchor="middle" x="184.03" y="-175.5" font-family="Helvetica,sans-Serif" font-size="10.00">l4/sys/types.h</text>
</a>
</g>
</g>
<!-- Node2&#45;&gt;Node7 -->
<g id="edge6" class="edge">
<title>Node2&#45;&gt;Node7</title>
<path fill="none" stroke="midnightblue" d="M191.81,-683.44C141.44,-670.83 66.03,-641.94 66.03,-582 66.03,-582 66.03,-582 66.03,-289 66.03,-241.51 117.8,-208.67 152.76,-191.91"/>
<polygon fill="midnightblue" stroke="midnightblue" points="154.49,-194.97 162.11,-187.61 151.57,-188.61 154.49,-194.97"/>
</g>
<!-- Node10 -->
<g id="node10" class="node">
<title>Node10</title>
<g id="a_node10"><a xlink:href="kobject_source.html" target="_top" xlink:title=" ">
<polygon fill="white" stroke="black" points="250.53,-515.5 250.53,-534.5 333.53,-534.5 333.53,-515.5 250.53,-515.5"/>
<text text-anchor="middle" x="292.03" y="-522.5" font-family="Helvetica,sans-Serif" font-size="10.00">l4/sys/kobject</text>
</a>
</g>
</g>
<!-- Node2&#45;&gt;Node10 -->
<g id="edge14" class="edge">
<title>Node2&#45;&gt;Node10</title>
<path fill="none" stroke="midnightblue" d="M239.04,-683.08C247.9,-656.83 273.97,-579.55 285.92,-544.12"/>
<polygon fill="midnightblue" stroke="midnightblue" points="289.26,-545.16 289.14,-534.57 282.63,-542.92 289.26,-545.16"/>
</g>
<!-- Node20 -->
<g id="node20" class="node">
<title>Node20</title>
<g id="a_node20"><a xlink:href="l4_2sys_2task_8h.html" target="_top" xlink:title="Common task related definitions.">
<polygon fill="white" stroke="black" points="170.03,-342 170.03,-361 248.03,-361 248.03,-342 170.03,-342"/>
<text text-anchor="middle" x="209.03" y="-349" font-family="Helvetica,sans-Serif" font-size="10.00">l4/sys/task.h</text>
</a>
</g>
</g>
<!-- Node2&#45;&gt;Node20 -->
<g id="edge43" class="edge">
<title>Node2&#45;&gt;Node20</title>
<path fill="none" stroke="midnightblue" d="M232.8,-683.3C226.25,-664.89 212.03,-620.51 212.03,-582 212.03,-582 212.03,-582 212.03,-468 212.03,-433.85 210.71,-394.04 209.82,-371.21"/>
<polygon fill="midnightblue" stroke="midnightblue" points="213.31,-371.04 209.41,-361.19 206.32,-371.32 213.31,-371.04"/>
</g>
<!-- Node21 -->
<g id="node21" class="node">
<title>Node21</title>
<g id="a_node21"><a xlink:href="sys_2meta.html" target="_top" xlink:title="Meta interface for getting dynamic type information about objects behind capabilities.">
<polygon fill="white" stroke="black" points="285.03,-627.5 285.03,-646.5 359.03,-646.5 359.03,-627.5 285.03,-627.5"/>
<text text-anchor="middle" x="322.03" y="-634.5" font-family="Helvetica,sans-Serif" font-size="10.00">l4/sys/meta</text>
</a>
</g>
</g>
<!-- Node2&#45;&gt;Node21 -->
<g id="edge44" class="edge">
<title>Node2&#45;&gt;Node21</title>
<path fill="none" stroke="midnightblue" d="M249.85,-683.32C263.27,-674.9 283.86,-661.97 299.62,-652.07"/>
<polygon fill="midnightblue" stroke="midnightblue" points="301.64,-654.94 308.25,-646.65 297.92,-649.01 301.64,-654.94"/>
</g>
<!-- Node4 -->
<g id="node4" class="node">
<title>Node4</title>
<g id="a_node4"><a xlink:href="compiler_8h.html" target="_top" xlink:title="L4 compiler related defines.">
<polygon fill="white" stroke="black" points="369.53,-56.5 369.53,-75.5 468.53,-75.5 468.53,-56.5 369.53,-56.5"/>
<text text-anchor="middle" x="419.03" y="-63.5" font-family="Helvetica,sans-Serif" font-size="10.00">l4/sys/compiler.h</text>
</a>
</g>
</g>
<!-- Node3&#45;&gt;Node4 -->
<g id="edge3" class="edge">
<title>Node3&#45;&gt;Node4</title>
<path fill="none" stroke="midnightblue" d="M221.27,-112.44C262.09,-103.06 327.68,-87.99 372.02,-77.8"/>
<polygon fill="midnightblue" stroke="midnightblue" points="373.01,-81.17 381.97,-75.52 371.44,-74.34 373.01,-81.17"/>
</g>
<!-- Node6 -->
<g id="node6" class="node">
<title>Node6</title>
<g id="a_node6"><a xlink:href="l4_2sys_2l4int_8h.html" target="_top" xlink:title="Fixed sized integer types, generic version.">
<polygon fill="white" stroke="black" points="86.53,-56.5 86.53,-75.5 165.53,-75.5 165.53,-56.5 86.53,-56.5"/>
<text text-anchor="middle" x="126.03" y="-63.5" font-family="Helvetica,sans-Serif" font-size="10.00">l4/sys/l4int.h</text>
</a>
</g>
</g>
<!-- Node3&#45;&gt;Node6 -->
<g id="edge5" class="edge">
<title>Node3&#45;&gt;Node6</title>
<path fill="none" stroke="midnightblue" d="M174.71,-112.32C166.14,-104.34 153.22,-92.31 142.85,-82.65"/>
<polygon fill="midnightblue" stroke="midnightblue" points="145.22,-80.09 135.52,-75.83 140.45,-85.21 145.22,-80.09"/>
</g>
<!-- Node5 -->
<g id="node5" class="node">
<title>Node5</title>
<g id="a_node5"><a xlink:title=" ">
<polygon fill="white" stroke="#bfbfbf" points="373.03,-0.5 373.03,-19.5 465.03,-19.5 465.03,-0.5 373.03,-0.5"/>
<text text-anchor="middle" x="419.03" y="-7.5" font-family="Helvetica,sans-Serif" font-size="10.00">l4/sys/linkage.h</text>
</a>
</g>
</g>
<!-- Node4&#45;&gt;Node5 -->
<g id="edge4" class="edge">
<title>Node4&#45;&gt;Node5</title>
<path fill="none" stroke="midnightblue" d="M419.03,-56.08C419.03,-49.01 419.03,-38.86 419.03,-29.99"/>
<polygon fill="midnightblue" stroke="midnightblue" points="422.53,-29.75 419.03,-19.75 415.53,-29.75 422.53,-29.75"/>
</g>
<!-- Node7&#45;&gt;Node3 -->
<g id="edge9" class="edge">
<title>Node7&#45;&gt;Node3</title>
<path fill="none" stroke="midnightblue" d="M184.03,-168.08C184.03,-161.01 184.03,-150.86 184.03,-141.99"/>
<polygon fill="midnightblue" stroke="midnightblue" points="187.53,-141.75 184.03,-131.75 180.53,-141.75 187.53,-141.75"/>
</g>
<!-- Node7&#45;&gt;Node4 -->
<g id="edge8" class="edge">
<title>Node7&#45;&gt;Node4</title>
<path fill="none" stroke="midnightblue" d="M200.3,-168.48C224.77,-155.75 272.6,-131.22 314.03,-112 338.88,-100.47 367.49,-88.29 388.56,-79.5"/>
<polygon fill="midnightblue" stroke="midnightblue" points="390.06,-82.67 397.95,-75.61 387.38,-76.2 390.06,-82.67"/>
</g>
<!-- Node7&#45;&gt;Node6 -->
<g id="edge7" class="edge">
<title>Node7&#45;&gt;Node6</title>
<path fill="none" stroke="midnightblue" d="M141.65,-172.25C94.43,-165.98 22.53,-153.19 6.03,-132 -16.94,-102.49 34.03,-84.66 76.5,-75.33"/>
<polygon fill="midnightblue" stroke="midnightblue" points="77.44,-78.71 86.51,-73.24 76.01,-71.85 77.44,-78.71"/>
</g>
<!-- Node8 -->
<g id="node8" class="node">
<title>Node8</title>
<g id="a_node8"><a xlink:href="____l4__fpage_8h_source.html" target="_top" xlink:title=" ">
<polygon fill="white" stroke="black" points="323.03,-112.5 323.03,-131.5 433.03,-131.5 433.03,-112.5 323.03,-112.5"/>
<text text-anchor="middle" x="378.03" y="-119.5" font-family="Helvetica,sans-Serif" font-size="10.00">l4/sys/__l4_fpage.h</text>
</a>
</g>
</g>
<!-- Node7&#45;&gt;Node8 -->
<g id="edge10" class="edge">
<title>Node7&#45;&gt;Node8</title>
<path fill="none" stroke="midnightblue" d="M214.77,-168.44C247.98,-159.2 301.02,-144.44 337.59,-134.26"/>
<polygon fill="midnightblue" stroke="midnightblue" points="338.74,-137.57 347.44,-131.52 336.86,-130.83 338.74,-137.57"/>
</g>
<!-- Node9 -->
<g id="node9" class="node">
<title>Node9</title>
<g id="a_node9"><a xlink:href="____timeout_8h_source.html" target="_top" xlink:title=" ">
<polygon fill="white" stroke="black" points="15.03,-112.5 15.03,-131.5 121.03,-131.5 121.03,-112.5 15.03,-112.5"/>
<text text-anchor="middle" x="68.03" y="-119.5" font-family="Helvetica,sans-Serif" font-size="10.00">l4/sys/__timeout.h</text>
</a>
</g>
</g>
<!-- Node7&#45;&gt;Node9 -->
<g id="edge12" class="edge">
<title>Node7&#45;&gt;Node9</title>
<path fill="none" stroke="midnightblue" d="M165.65,-168.44C146.82,-159.68 117.3,-145.94 95.65,-135.86"/>
<polygon fill="midnightblue" stroke="midnightblue" points="96.87,-132.56 86.33,-131.52 93.92,-138.91 96.87,-132.56"/>
</g>
<!-- Node8&#45;&gt;Node4 -->
<g id="edge11" class="edge">
<title>Node8&#45;&gt;Node4</title>
<path fill="none" stroke="midnightblue" d="M384.8,-112.08C390.59,-104.46 399.09,-93.26 406.17,-83.94"/>
<polygon fill="midnightblue" stroke="midnightblue" points="409.13,-85.83 412.39,-75.75 403.55,-81.6 409.13,-85.83"/>
</g>
<!-- Node9&#45;&gt;Node6 -->
<g id="edge13" class="edge">
<title>Node9&#45;&gt;Node6</title>
<path fill="none" stroke="midnightblue" d="M77.35,-112.32C85.93,-104.34 98.84,-92.31 109.22,-82.65"/>
<polygon fill="midnightblue" stroke="midnightblue" points="111.61,-85.21 116.54,-75.83 106.84,-80.09 111.61,-85.21"/>
</g>
<!-- Node10&#45;&gt;Node7 -->
<g id="edge29" class="edge">
<title>Node10&#45;&gt;Node7</title>
<path fill="none" stroke="midnightblue" d="M250.31,-518.33C194.92,-508.2 104.03,-481.31 104.03,-414 104.03,-414 104.03,-414 104.03,-289 104.03,-248.62 139.73,-213.11 163.43,-193.97"/>
<polygon fill="midnightblue" stroke="midnightblue" points="165.78,-196.58 171.53,-187.69 161.49,-191.05 165.78,-196.58"/>
</g>
<!-- Node11 -->
<g id="node11" class="node">
<title>Node11</title>
<g id="a_node11"><a xlink:href="kernel__object_8h.html" target="_top" xlink:title="Kernel object system calls.">
<polygon fill="white" stroke="black" points="263.53,-403.5 263.53,-422.5 354.53,-422.5 354.53,-403.5 263.53,-403.5"/>
<text text-anchor="middle" x="309.03" y="-410.5" font-family="Helvetica,sans-Serif" font-size="10.00">kernel_object.h</text>
</a>
</g>
</g>
<!-- Node10&#45;&gt;Node11 -->
<g id="edge15" class="edge">
<title>Node10&#45;&gt;Node11</title>
<path fill="none" stroke="midnightblue" d="M293.37,-515.37C296.11,-497.62 302.44,-456.67 306.16,-432.6"/>
<polygon fill="midnightblue" stroke="midnightblue" points="309.64,-433.01 307.7,-422.59 302.72,-431.94 309.64,-433.01"/>
</g>
<!-- Node16 -->
<g id="node16" class="node">
<title>Node16</title>
<g id="a_node16"><a xlink:href="____typeinfo_8h.html" target="_top" xlink:title="Type information handling.">
<polygon fill="white" stroke="black" points="349.53,-459.5 349.53,-478.5 426.53,-478.5 426.53,-459.5 349.53,-459.5"/>
<text text-anchor="middle" x="388.03" y="-466.5" font-family="Helvetica,sans-Serif" font-size="10.00">__typeinfo.h</text>
</a>
</g>
</g>
<!-- Node10&#45;&gt;Node16 -->
<g id="edge30" class="edge">
<title>Node10&#45;&gt;Node16</title>
<path fill="none" stroke="midnightblue" d="M307.46,-515.32C322.57,-506.82 345.85,-493.73 363.5,-483.8"/>
<polygon fill="midnightblue" stroke="midnightblue" points="365.65,-486.61 372.65,-478.65 362.22,-480.51 365.65,-486.61"/>
</g>
<!-- Node11&#45;&gt;Node4 -->
<g id="edge17" class="edge">
<title>Node11&#45;&gt;Node4</title>
<path fill="none" stroke="midnightblue" d="M354.61,-405.9C398.54,-398.97 460.43,-386.09 475.03,-367 489.29,-348.36 547.85,-332.49 457.03,-112 452.53,-101.08 444.36,-90.85 436.74,-82.92"/>
<polygon fill="midnightblue" stroke="midnightblue" points="439.06,-80.29 429.47,-75.8 434.17,-85.3 439.06,-80.29"/>
</g>
<!-- Node11&#45;&gt;Node7 -->
<g id="edge16" class="edge">
<title>Node11&#45;&gt;Node7</title>
<path fill="none" stroke="midnightblue" d="M263.47,-411.66C229.23,-408.71 184.38,-398.5 161.03,-367 122.72,-315.31 156.42,-232.79 174.42,-196.78"/>
<polygon fill="midnightblue" stroke="midnightblue" points="177.71,-198.04 179.21,-187.55 171.5,-194.82 177.71,-198.04"/>
</g>
<!-- Node12 -->
<g id="node12" class="node">
<title>Node12</title>
<g id="a_node12"><a xlink:href="l4_2sys_2utcb_8h.html" target="_top" xlink:title="UTCB definitions.">
<polygon fill="white" stroke="black" points="253.03,-224.5 253.03,-243.5 331.03,-243.5 331.03,-224.5 253.03,-224.5"/>
<text text-anchor="middle" x="292.03" y="-231.5" font-family="Helvetica,sans-Serif" font-size="10.00">l4/sys/utcb.h</text>
</a>
</g>
</g>
<!-- Node11&#45;&gt;Node12 -->
<g id="edge18" class="edge">
<title>Node11&#45;&gt;Node12</title>
<path fill="none" stroke="midnightblue" d="M307.86,-403.3C305.36,-384.49 299.46,-338.61 296.03,-300 294.66,-284.5 293.6,-266.87 292.92,-253.89"/>
<polygon fill="midnightblue" stroke="midnightblue" points="296.42,-253.66 292.43,-243.84 289.43,-254 296.42,-253.66"/>
</g>
<!-- Node13 -->
<g id="node13" class="node">
<title>Node13</title>
<g id="a_node13"><a xlink:href="____kernel__object__impl_8h.html" target="_top" xlink:title="Low&#45;level kernel debugger functions.">
<polygon fill="white" stroke="black" points="342.03,-336.5 342.03,-366.5 466.03,-366.5 466.03,-336.5 342.03,-336.5"/>
<text text-anchor="start" x="350.03" y="-354.5" font-family="Helvetica,sans-Serif" font-size="10.00">l4/sys/__kernel_object</text>
<text text-anchor="middle" x="404.03" y="-343.5" font-family="Helvetica,sans-Serif" font-size="10.00">_impl.h</text>
</a>
</g>
</g>
<!-- Node11&#45;&gt;Node13 -->
<g id="edge22" class="edge">
<title>Node11&#45;&gt;Node13</title>
<path fill="none" stroke="midnightblue" d="M322.64,-403.48C335.75,-395.27 356.04,-382.56 373.08,-371.88"/>
<polygon fill="midnightblue" stroke="midnightblue" points="375.03,-374.8 381.64,-366.52 371.31,-368.86 375.03,-374.8"/>
</g>
<!-- Node14 -->
<g id="node14" class="node">
<title>Node14</title>
<g id="a_node14"><a xlink:href="l4_2sys_2ipc_8h.html" target="_top" xlink:title="Common IPC interface.">
<polygon fill="white" stroke="black" points="304.53,-280.5 304.53,-299.5 375.53,-299.5 375.53,-280.5 304.53,-280.5"/>
<text text-anchor="middle" x="340.03" y="-287.5" font-family="Helvetica,sans-Serif" font-size="10.00">l4/sys/ipc.h</text>
</a>
</g>
</g>
<!-- Node11&#45;&gt;Node14 -->
<g id="edge28" class="edge">
<title>Node11&#45;&gt;Node14</title>
<path fill="none" stroke="midnightblue" d="M311.26,-403.3C316.27,-383.76 328.49,-336.06 335.28,-309.55"/>
<polygon fill="midnightblue" stroke="midnightblue" points="338.73,-310.18 337.82,-299.62 331.95,-308.44 338.73,-310.18"/>
</g>
<!-- Node12&#45;&gt;Node4 -->
<g id="edge20" class="edge">
<title>Node12&#45;&gt;Node4</title>
<path fill="none" stroke="midnightblue" d="M317.71,-224.44C353.16,-211.06 415.7,-181.47 442.03,-132 450.26,-116.55 441.58,-97.54 432.63,-84.08"/>
<polygon fill="midnightblue" stroke="midnightblue" points="435.29,-81.79 426.59,-75.76 429.63,-85.9 435.29,-81.79"/>
</g>
<!-- Node12&#45;&gt;Node6 -->
<g id="edge21" class="edge">
<title>Node12&#45;&gt;Node6</title>
<path fill="none" stroke="midnightblue" d="M290.5,-224.4C286.19,-202.62 272,-144.71 238.03,-112 220.82,-95.42 196.72,-84.69 175.28,-77.88"/>
<polygon fill="midnightblue" stroke="midnightblue" points="176.24,-74.51 165.65,-75.01 174.24,-81.22 176.24,-74.51"/>
</g>
<!-- Node12&#45;&gt;Node7 -->
<g id="edge19" class="edge">
<title>Node12&#45;&gt;Node7</title>
<path fill="none" stroke="midnightblue" d="M274.68,-224.32C257.36,-215.66 230.52,-202.24 210.53,-192.25"/>
<polygon fill="midnightblue" stroke="midnightblue" points="211.85,-189 201.34,-187.65 208.72,-195.26 211.85,-189"/>
</g>
<!-- Node13&#45;&gt;Node14 -->
<g id="edge23" class="edge">
<title>Node13&#45;&gt;Node14</title>
<path fill="none" stroke="midnightblue" d="M388.87,-336.4C379.28,-327.49 366.87,-315.95 356.96,-306.74"/>
<polygon fill="midnightblue" stroke="midnightblue" points="359.05,-303.9 349.35,-299.66 354.29,-309.03 359.05,-303.9"/>
</g>
<!-- Node14&#45;&gt;Node7 -->
<g id="edge24" class="edge">
<title>Node14&#45;&gt;Node7</title>
<path fill="none" stroke="midnightblue" d="M315.34,-280.48C295.05,-272.79 266.16,-260.2 244.03,-244 225.15,-230.18 207.49,-209.78 196.28,-195.53"/>
<polygon fill="midnightblue" stroke="midnightblue" points="199.05,-193.39 190.19,-187.57 193.49,-197.64 199.05,-193.39"/>
</g>
<!-- Node14&#45;&gt;Node12 -->
<g id="edge25" class="edge">
<title>Node14&#45;&gt;Node12</title>
<path fill="none" stroke="midnightblue" d="M332.11,-280.08C325.19,-272.3 314.97,-260.8 306.58,-251.37"/>
<polygon fill="midnightblue" stroke="midnightblue" points="309.07,-248.9 299.81,-243.75 303.84,-253.55 309.07,-248.9"/>
</g>
<!-- Node15 -->
<g id="node15" class="node">
<title>Node15</title>
<g id="a_node15"><a xlink:href="err_8h.html" target="_top" xlink:title="Error codes.">
<polygon fill="white" stroke="black" points="598.03,-224.5 598.03,-243.5 668.03,-243.5 668.03,-224.5 598.03,-224.5"/>
<text text-anchor="middle" x="633.03" y="-231.5" font-family="Helvetica,sans-Serif" font-size="10.00">l4/sys/err.h</text>
</a>
</g>
</g>
<!-- Node14&#45;&gt;Node15 -->
<g id="edge26" class="edge">
<title>Node14&#45;&gt;Node15</title>
<path fill="none" stroke="midnightblue" d="M375.67,-282.43C428.9,-272.62 529.16,-254.14 587.59,-243.37"/>
<polygon fill="midnightblue" stroke="midnightblue" points="588.45,-246.78 597.65,-241.52 587.18,-239.89 588.45,-246.78"/>
</g>
<!-- Node15&#45;&gt;Node4 -->
<g id="edge27" class="edge">
<title>Node15&#45;&gt;Node4</title>
<path fill="none" stroke="midnightblue" d="M626.28,-224.38C609.22,-203.04 562.22,-146.97 513.03,-112 494.07,-98.52 470.44,-87.23 451.62,-79.33"/>
<polygon fill="midnightblue" stroke="midnightblue" points="452.84,-76.05 442.26,-75.51 450.2,-82.53 452.84,-76.05"/>
</g>
<!-- Node17 -->
<g id="node17" class="node">
<title>Node17</title>
<g id="a_node17"><a xlink:href="types.html" target="_top" xlink:title=" ">
<polygon fill="white" stroke="black" points="674.03,-342 674.03,-361 738.03,-361 738.03,-342 674.03,-342"/>
<text text-anchor="middle" x="706.03" y="-349" font-family="Helvetica,sans-Serif" font-size="10.00">cxx/types</text>
</a>
</g>
</g>
<!-- Node16&#45;&gt;Node17 -->
<g id="edge31" class="edge">
<title>Node16&#45;&gt;Node17</title>
<path fill="none" stroke="midnightblue" d="M412.54,-459.44C436.43,-450.89 473.64,-437.04 505.03,-423 522.82,-415.05 526,-410.37 544.03,-403 583.82,-386.74 630.88,-372.61 663.99,-363.46"/>
<polygon fill="midnightblue" stroke="midnightblue" points="665.07,-366.8 673.8,-360.79 663.23,-360.04 665.07,-366.8"/>
</g>
<!-- Node18 -->
<g id="node18" class="node">
<title>Node18</title>
<g id="a_node18"><a xlink:href="ipc__basics_source.html" target="_top" xlink:title=" ">
<polygon fill="white" stroke="black" points="552.53,-403.5 552.53,-422.5 639.53,-422.5 639.53,-403.5 552.53,-403.5"/>
<text text-anchor="middle" x="596.03" y="-410.5" font-family="Helvetica,sans-Serif" font-size="10.00">cxx/ipc_basics</text>
</a>
</g>
</g>
<!-- Node16&#45;&gt;Node18 -->
<g id="edge32" class="edge">
<title>Node16&#45;&gt;Node18</title>
<path fill="none" stroke="midnightblue" d="M420.99,-459.44C456.82,-450.14 514.2,-435.25 553.42,-425.06"/>
<polygon fill="midnightblue" stroke="midnightblue" points="554.43,-428.42 563.23,-422.52 552.67,-421.64 554.43,-428.42"/>
</g>
<!-- Node19 -->
<g id="node19" class="node">
<title>Node19</title>
<g id="a_node19"><a xlink:href="capability_8h_source.html" target="_top" xlink:title=" ">
<polygon fill="white" stroke="black" points="404.03,-403.5 404.03,-422.5 496.03,-422.5 496.03,-403.5 404.03,-403.5"/>
<text text-anchor="middle" x="450.03" y="-410.5" font-family="Helvetica,sans-Serif" font-size="10.00">cxx/capability.h</text>
</a>
</g>
</g>
<!-- Node16&#45;&gt;Node19 -->
<g id="edge36" class="edge">
<title>Node16&#45;&gt;Node19</title>
<path fill="none" stroke="midnightblue" d="M397.99,-459.32C407.16,-451.34 420.97,-439.31 432.06,-429.65"/>
<polygon fill="midnightblue" stroke="midnightblue" points="434.65,-432.04 439.89,-422.83 430.05,-426.76 434.65,-432.04"/>
</g>
<!-- Node18&#45;&gt;Node12 -->
<g id="edge34" class="edge">
<title>Node18&#45;&gt;Node12</title>
<path fill="none" stroke="midnightblue" d="M583.48,-403.46C551.25,-381.68 462.61,-322.75 385.03,-280 363.76,-268.28 338.98,-256.37 320.34,-247.75"/>
<polygon fill="midnightblue" stroke="midnightblue" points="321.76,-244.55 311.21,-243.56 318.84,-250.91 321.76,-244.55"/>
</g>
<!-- Node18&#45;&gt;Node15 -->
<g id="edge35" class="edge">
<title>Node18&#45;&gt;Node15</title>
<path fill="none" stroke="midnightblue" d="M602.67,-403.25C608.87,-394.56 617.77,-380.6 622.03,-367 634.19,-328.18 634.8,-279.98 634.01,-253.9"/>
<polygon fill="midnightblue" stroke="midnightblue" points="637.5,-253.43 633.59,-243.59 630.5,-253.72 637.5,-253.43"/>
</g>
<!-- Node18&#45;&gt;Node17 -->
<g id="edge33" class="edge">
<title>Node18&#45;&gt;Node17</title>
<path fill="none" stroke="midnightblue" d="M611.79,-403.48C630.01,-393.62 660.21,-377.29 681.5,-365.77"/>
<polygon fill="midnightblue" stroke="midnightblue" points="683.17,-368.85 690.3,-361.01 679.84,-362.69 683.17,-368.85"/>
</g>
<!-- Node19&#45;&gt;Node3 -->
<g id="edge37" class="edge">
<title>Node19&#45;&gt;Node3</title>
<path fill="none" stroke="midnightblue" d="M476.96,-403.36C493.75,-396.41 514.01,-384.82 524.03,-367 544.63,-330.37 518.27,-308.1 487.03,-280 404.62,-205.88 280.84,-156.24 220.17,-134.89"/>
<polygon fill="midnightblue" stroke="midnightblue" points="221.23,-131.56 210.64,-131.59 218.94,-138.17 221.23,-131.56"/>
</g>
<!-- Node19&#45;&gt;Node7 -->
<g id="edge38" class="edge">
<title>Node19&#45;&gt;Node7</title>
<path fill="none" stroke="midnightblue" d="M468.42,-403.47C482.13,-396 499.85,-383.71 508.03,-367 514.09,-354.63 514.53,-348.15 508.03,-336 465.69,-256.88 421.44,-261.77 340.03,-224 306.81,-208.58 267.12,-197.22 236.09,-189.77"/>
<polygon fill="midnightblue" stroke="midnightblue" points="236.88,-186.36 226.34,-187.49 235.28,-193.18 236.88,-186.36"/>
</g>
<!-- Node19&#45;&gt;Node20 -->
<g id="edge39" class="edge">
<title>Node19&#45;&gt;Node20</title>
<path fill="none" stroke="midnightblue" d="M415.5,-403.48C372.82,-392.94 300.11,-374.99 253.35,-363.44"/>
<polygon fill="midnightblue" stroke="midnightblue" points="254.05,-360.01 243.5,-361.01 252.37,-366.8 254.05,-360.01"/>
</g>
<!-- Node20&#45;&gt;Node7 -->
<g id="edge40" class="edge">
<title>Node20&#45;&gt;Node7</title>
<path fill="none" stroke="midnightblue" d="M207.76,-341.76C203.88,-315.15 192.15,-234.71 186.78,-197.84"/>
<polygon fill="midnightblue" stroke="midnightblue" points="190.18,-196.91 185.27,-187.52 183.25,-197.92 190.18,-196.91"/>
</g>
<!-- Node20&#45;&gt;Node12 -->
<g id="edge41" class="edge">
<title>Node20&#45;&gt;Node12</title>
<path fill="none" stroke="midnightblue" d="M215.27,-341.82C228.97,-322.76 261.89,-276.95 279.85,-251.96"/>
<polygon fill="midnightblue" stroke="midnightblue" points="282.73,-253.95 285.72,-243.78 277.04,-249.86 282.73,-253.95"/>
</g>
<!-- Node20&#45;&gt;Node14 -->
<g id="edge42" class="edge">
<title>Node20&#45;&gt;Node14</title>
<path fill="none" stroke="midnightblue" d="M227.8,-341.98C249.88,-331.95 286.75,-315.2 312.17,-303.65"/>
<polygon fill="midnightblue" stroke="midnightblue" points="313.64,-306.83 321.3,-299.51 310.75,-300.46 313.64,-306.83"/>
</g>
<!-- Node21&#45;&gt;Node10 -->
<g id="edge45" class="edge">
<title>Node21&#45;&gt;Node10</title>
<path fill="none" stroke="midnightblue" d="M319.68,-627.37C314.82,-609.54 303.57,-568.3 297.02,-544.27"/>
<polygon fill="midnightblue" stroke="midnightblue" points="300.38,-543.32 294.38,-534.59 293.63,-545.16 300.38,-543.32"/>
</g>
<!-- Node21&#45;&gt;Node22 -->
<g id="edge46" class="edge">
<title>Node21&#45;&gt;Node22</title>
<path fill="none" stroke="midnightblue" d="M327.53,-627.37C339.03,-609.3 365.83,-567.18 381.02,-543.31"/>
<polygon fill="midnightblue" stroke="midnightblue" points="384.15,-544.91 386.57,-534.59 378.24,-541.15 384.15,-544.91"/>
</g>
<!-- Node24 -->
<g id="node24" class="node">
<title>Node24</title>
<g id="a_node24"><a xlink:href="ipc__string_source.html" target="_top" xlink:title=" ">
<polygon fill="white" stroke="black" points="614.03,-571.5 614.03,-590.5 698.03,-590.5 698.03,-571.5 614.03,-571.5"/>
<text text-anchor="middle" x="656.03" y="-578.5" font-family="Helvetica,sans-Serif" font-size="10.00">cxx/ipc_string</text>
</a>
</g>
</g>
<!-- Node21&#45;&gt;Node24 -->
<g id="edge53" class="edge">
<title>Node21&#45;&gt;Node24</title>
<path fill="none" stroke="midnightblue" d="M359.05,-630.01C418.58,-620.39 535.79,-601.44 603.8,-590.44"/>
<polygon fill="midnightblue" stroke="midnightblue" points="604.56,-593.87 613.87,-588.82 603.44,-586.96 604.56,-593.87"/>
</g>
<!-- Node22&#45;&gt;Node16 -->
<g id="edge52" class="edge">
<title>Node22&#45;&gt;Node16</title>
<path fill="none" stroke="midnightblue" d="M391.37,-515.08C390.85,-508.01 390.1,-497.86 389.44,-488.99"/>
<polygon fill="midnightblue" stroke="midnightblue" points="392.91,-488.47 388.68,-478.75 385.93,-488.98 392.91,-488.47"/>
</g>
<!-- Node22&#45;&gt;Node18 -->
<g id="edge47" class="edge">
<title>Node22&#45;&gt;Node18</title>
<path fill="none" stroke="midnightblue" d="M401.06,-515.37C415.62,-501.83 445.64,-475.45 475.03,-459 500.56,-444.71 531.51,-433.3 555.72,-425.54"/>
<polygon fill="midnightblue" stroke="midnightblue" points="556.81,-428.87 565.31,-422.54 554.72,-422.18 556.81,-428.87"/>
</g>
<!-- Node23 -->
<g id="node23" class="node">
<title>Node23</title>
<g id="a_node23"><a xlink:href="ipc__types.html" target="_top" xlink:title=" ">
<polygon fill="white" stroke="black" points="483.53,-459.5 483.53,-478.5 598.53,-478.5 598.53,-459.5 483.53,-459.5"/>
<text text-anchor="middle" x="541.03" y="-466.5" font-family="Helvetica,sans-Serif" font-size="10.00">l4/sys/cxx/ipc_types</text>
</a>
</g>
</g>
<!-- Node22&#45;&gt;Node23 -->
<g id="edge48" class="edge">
<title>Node22&#45;&gt;Node23</title>
<path fill="none" stroke="midnightblue" d="M415.64,-515.44C440.49,-506.44 479.81,-492.19 507.79,-482.05"/>
<polygon fill="midnightblue" stroke="midnightblue" points="509.32,-485.21 517.53,-478.52 506.94,-478.63 509.32,-485.21"/>
</g>
<!-- Node23&#45;&gt;Node17 -->
<g id="edge50" class="edge">
<title>Node23&#45;&gt;Node17</title>
<path fill="none" stroke="midnightblue" d="M572.47,-459.46C595.24,-452.25 625.95,-440.29 649.03,-423 668.65,-408.31 685.49,-385.41 695.67,-369.72"/>
<polygon fill="midnightblue" stroke="midnightblue" points="698.78,-371.36 701.12,-361.03 692.84,-367.64 698.78,-371.36"/>
</g>
<!-- Node23&#45;&gt;Node18 -->
<g id="edge51" class="edge">
<title>Node23&#45;&gt;Node18</title>
<path fill="none" stroke="midnightblue" d="M550.11,-459.08C558.2,-451.14 570.23,-439.34 579.94,-429.8"/>
<polygon fill="midnightblue" stroke="midnightblue" points="582.44,-432.25 587.12,-422.75 577.53,-427.26 582.44,-432.25"/>
</g>
<!-- Node23&#45;&gt;Node19 -->
<g id="edge49" class="edge">
<title>Node23&#45;&gt;Node19</title>
<path fill="none" stroke="midnightblue" d="M526.41,-459.32C512.08,-450.82 490.02,-437.73 473.28,-427.8"/>
<polygon fill="midnightblue" stroke="midnightblue" points="475,-424.75 464.62,-422.65 471.43,-430.77 475,-424.75"/>
</g>
<!-- Node24&#45;&gt;Node17 -->
<g id="edge54" class="edge">
<title>Node24&#45;&gt;Node17</title>
<path fill="none" stroke="midnightblue" d="M680.5,-571.44C696.6,-564.38 716.41,-552.63 726.03,-535 755.52,-481 729.17,-404.67 714.42,-370.39"/>
<polygon fill="midnightblue" stroke="midnightblue" points="717.57,-368.87 710.29,-361.17 711.18,-371.73 717.57,-368.87"/>
</g>
<!-- Node24&#45;&gt;Node18 -->
<g id="edge55" class="edge">
<title>Node24&#45;&gt;Node18</title>
<path fill="none" stroke="midnightblue" d="M652.81,-571.08C643.32,-544.83 615.39,-467.55 602.58,-432.12"/>
<polygon fill="midnightblue" stroke="midnightblue" points="605.82,-430.78 599.13,-422.57 599.24,-433.16 605.82,-430.78"/>
</g>
<!-- Node25 -->
<g id="node25" class="node">
<title>Node25</title>
<g id="a_node25"><a xlink:href="ipc__array_source.html" target="_top" xlink:title=" ">
<polygon fill="white" stroke="black" points="655.03,-515.5 655.03,-534.5 717.03,-534.5 717.03,-515.5 655.03,-515.5"/>
<text text-anchor="middle" x="686.03" y="-522.5" font-family="Helvetica,sans-Serif" font-size="10.00">ipc_array</text>
</a>
</g>
</g>
<!-- Node24&#45;&gt;Node25 -->
<g id="edge56" class="edge">
<title>Node24&#45;&gt;Node25</title>
<path fill="none" stroke="midnightblue" d="M660.99,-571.08C665.14,-563.61 671.19,-552.72 676.3,-543.52"/>
<polygon fill="midnightblue" stroke="midnightblue" points="679.37,-545.19 681.17,-534.75 673.25,-541.79 679.37,-545.19"/>
</g>
<!-- Node25&#45;&gt;Node17 -->
<g id="edge57" class="edge">
<title>Node25&#45;&gt;Node17</title>
<path fill="none" stroke="midnightblue" d="M687.05,-515.26C690.16,-488.65 699.54,-408.21 703.84,-371.34"/>
<polygon fill="midnightblue" stroke="midnightblue" points="707.36,-371.36 705.04,-361.02 700.4,-370.55 707.36,-371.36"/>
</g>
<!-- Node25&#45;&gt;Node18 -->
<g id="edge58" class="edge">
<title>Node25&#45;&gt;Node18</title>
<path fill="none" stroke="midnightblue" d="M680.67,-515.23C672.68,-502.4 656.86,-477.97 641.03,-459 632.36,-448.61 621.68,-437.86 612.91,-429.47"/>
<polygon fill="midnightblue" stroke="midnightblue" points="615.18,-426.8 605.49,-422.51 610.39,-431.91 615.18,-426.8"/>
</g>
<!-- Node25&#45;&gt;Node23 -->
<g id="edge59" class="edge">
<title>Node25&#45;&gt;Node23</title>
<path fill="none" stroke="midnightblue" d="M663.06,-515.44C638.88,-506.44 600.61,-492.19 573.39,-482.05"/>
<polygon fill="midnightblue" stroke="midnightblue" points="574.49,-478.73 563.9,-478.52 572.05,-485.29 574.49,-478.73"/>
</g>
</g>
</svg>
