<?xml version="1.0" encoding="UTF-8" standalone="no"?>
<!DOCTYPE svg PUBLIC "-//W3C//DTD SVG 1.1//EN"
 "http://www.w3.org/Graphics/SVG/1.1/DTD/svg11.dtd">
<!-- Generated by graphviz version 2.43.0 (0)
 -->
<!-- Title: l4/sys/platform_control Pages: 1 -->
<svg width="900pt" height="767pt"
 viewBox="0.00 0.00 900.00 767.00" xmlns="http://www.w3.org/2000/svg" xmlns:xlink="http://www.w3.org/1999/xlink">
<g id="graph0" class="graph" transform="scale(1 1) rotate(0) translate(4 763)">
<title>l4/sys/platform_control</title>
<polygon fill="white" stroke="transparent" points="-4,4 -4,-763 896,-763 896,4 -4,4"/>
<!-- Node1 -->
<g id="node1" class="node">
<title>Node1</title>
<g id="a_node1"><a xlink:title="Platform control object.">
<polygon fill="#bfbfbf" stroke="black" points="369.5,-739.5 369.5,-758.5 498.5,-758.5 498.5,-739.5 369.5,-739.5"/>
<text text-anchor="middle" x="434" y="-746.5" font-family="Helvetica,sans-Serif" font-size="10.00">l4/sys/platform_control</text>
</a>
</g>
</g>
<!-- Node2 -->
<g id="node2" class="node">
<title>Node2</title>
<g id="a_node2"><a xlink:href="capability.html" target="_top" xlink:title="L4::Cap related definitions.">
<polygon fill="white" stroke="black" points="386,-683.5 386,-702.5 482,-702.5 482,-683.5 386,-683.5"/>
<text text-anchor="middle" x="434" y="-690.5" font-family="Helvetica,sans-Serif" font-size="10.00">l4/sys/capability</text>
</a>
</g>
</g>
<!-- Node1&#45;&gt;Node2 -->
<g id="edge1" class="edge">
<title>Node1&#45;&gt;Node2</title>
<path fill="none" stroke="midnightblue" d="M434,-739.08C434,-732.01 434,-721.86 434,-712.99"/>
<polygon fill="midnightblue" stroke="midnightblue" points="437.5,-712.75 434,-702.75 430.5,-712.75 437.5,-712.75"/>
</g>
<!-- Node22 -->
<g id="node22" class="node">
<title>Node22</title>
<g id="a_node22"><a xlink:href="ipc__iface.html" target="_top" xlink:title="Interface Definition Language.">
<polygon fill="white" stroke="black" points="498,-515.5 498,-534.5 578,-534.5 578,-515.5 498,-515.5"/>
<text text-anchor="middle" x="538" y="-522.5" font-family="Helvetica,sans-Serif" font-size="10.00">cxx/ipc_iface</text>
</a>
</g>
</g>
<!-- Node1&#45;&gt;Node22 -->
<g id="edge64" class="edge">
<title>Node1&#45;&gt;Node22</title>
<path fill="none" stroke="midnightblue" d="M453.25,-739.27C482.36,-724.86 536.48,-693.03 558,-647 573.94,-612.91 558.33,-568.21 547.15,-543.81"/>
<polygon fill="midnightblue" stroke="midnightblue" points="550.23,-542.15 542.73,-534.68 543.93,-545.21 550.23,-542.15"/>
</g>
<!-- Node26 -->
<g id="node26" class="node">
<title>Node26</title>
<g id="a_node26"><a xlink:href="platform__control_8h.html" target="_top" xlink:title="Platform control object.">
<polygon fill="white" stroke="black" points="142,-342 142,-361 280,-361 280,-342 142,-342"/>
<text text-anchor="middle" x="211" y="-349" font-family="Helvetica,sans-Serif" font-size="10.00">l4/sys/platform_control.h</text>
</a>
</g>
</g>
<!-- Node1&#45;&gt;Node26 -->
<g id="edge60" class="edge">
<title>Node1&#45;&gt;Node26</title>
<path fill="none" stroke="midnightblue" d="M369.49,-743.43C257.28,-733.69 38,-705.96 38,-638 38,-638 38,-638 38,-524 38,-444.31 131.73,-389.01 181.21,-365.38"/>
<polygon fill="midnightblue" stroke="midnightblue" points="182.88,-368.46 190.48,-361.08 179.93,-362.11 182.88,-368.46"/>
</g>
<!-- Node3 -->
<g id="node3" class="node">
<title>Node3</title>
<g id="a_node3"><a xlink:href="l4_2sys_2consts_8h.html" target="_top" xlink:title="Common constants.">
<polygon fill="white" stroke="black" points="719.5,-112.5 719.5,-131.5 808.5,-131.5 808.5,-112.5 719.5,-112.5"/>
<text text-anchor="middle" x="764" y="-119.5" font-family="Helvetica,sans-Serif" font-size="10.00">l4/sys/consts.h</text>
</a>
</g>
</g>
<!-- Node2&#45;&gt;Node3 -->
<g id="edge2" class="edge">
<title>Node2&#45;&gt;Node3</title>
<path fill="none" stroke="midnightblue" d="M482.15,-690.6C599.74,-684.37 892,-650.7 892,-470 892,-470 892,-470 892,-233 892,-183.64 836.58,-151.61 798.67,-135.48"/>
<polygon fill="midnightblue" stroke="midnightblue" points="799.57,-132.06 788.98,-131.53 796.93,-138.55 799.57,-132.06"/>
</g>
<!-- Node7 -->
<g id="node7" class="node">
<title>Node7</title>
<g id="a_node7"><a xlink:href="l4_2sys_2types_8h.html" target="_top" xlink:title="Common L4 ABI Data Types.">
<polygon fill="white" stroke="black" points="379,-168.5 379,-187.5 463,-187.5 463,-168.5 379,-168.5"/>
<text text-anchor="middle" x="421" y="-175.5" font-family="Helvetica,sans-Serif" font-size="10.00">l4/sys/types.h</text>
</a>
</g>
</g>
<!-- Node2&#45;&gt;Node7 -->
<g id="edge6" class="edge">
<title>Node2&#45;&gt;Node7</title>
<path fill="none" stroke="midnightblue" d="M385.9,-684.13C272.9,-664.28 0,-607.88 0,-526 0,-526 0,-526 0,-289 0,-245.56 33.48,-242.03 73,-224 124.54,-200.48 284.88,-187.38 368.72,-181.98"/>
<polygon fill="midnightblue" stroke="midnightblue" points="369.04,-185.47 378.8,-181.34 368.6,-178.48 369.04,-185.47"/>
</g>
<!-- Node10 -->
<g id="node10" class="node">
<title>Node10</title>
<g id="a_node10"><a xlink:href="kobject_source.html" target="_top" xlink:title=" ">
<polygon fill="white" stroke="black" points="322.5,-515.5 322.5,-534.5 405.5,-534.5 405.5,-515.5 322.5,-515.5"/>
<text text-anchor="middle" x="364" y="-522.5" font-family="Helvetica,sans-Serif" font-size="10.00">l4/sys/kobject</text>
</a>
</g>
</g>
<!-- Node2&#45;&gt;Node10 -->
<g id="edge14" class="edge">
<title>Node2&#45;&gt;Node10</title>
<path fill="none" stroke="midnightblue" d="M430.24,-683.08C419.17,-656.83 386.58,-579.55 371.64,-544.12"/>
<polygon fill="midnightblue" stroke="midnightblue" points="374.72,-542.42 367.61,-534.57 368.27,-545.14 374.72,-542.42"/>
</g>
<!-- Node20 -->
<g id="node20" class="node">
<title>Node20</title>
<g id="a_node20"><a xlink:href="l4_2sys_2task_8h.html" target="_top" xlink:title="Common task related definitions.">
<polygon fill="white" stroke="black" points="516,-342 516,-361 594,-361 594,-342 516,-342"/>
<text text-anchor="middle" x="555" y="-349" font-family="Helvetica,sans-Serif" font-size="10.00">l4/sys/task.h</text>
</a>
</g>
</g>
<!-- Node2&#45;&gt;Node20 -->
<g id="edge43" class="edge">
<title>Node2&#45;&gt;Node20</title>
<path fill="none" stroke="midnightblue" d="M434,-683.44C434,-664.94 434,-619.81 434,-582 434,-582 434,-582 434,-468 434,-417.88 488.99,-382.85 524.83,-365.34"/>
<polygon fill="midnightblue" stroke="midnightblue" points="526.36,-368.48 533.92,-361.06 523.38,-362.15 526.36,-368.48"/>
</g>
<!-- Node21 -->
<g id="node21" class="node">
<title>Node21</title>
<g id="a_node21"><a xlink:href="sys_2meta.html" target="_top" xlink:title="Meta interface for getting dynamic type information about objects behind capabilities.">
<polygon fill="white" stroke="black" points="475,-627.5 475,-646.5 549,-646.5 549,-627.5 475,-627.5"/>
<text text-anchor="middle" x="512" y="-634.5" font-family="Helvetica,sans-Serif" font-size="10.00">l4/sys/meta</text>
</a>
</g>
</g>
<!-- Node2&#45;&gt;Node21 -->
<g id="edge44" class="edge">
<title>Node2&#45;&gt;Node21</title>
<path fill="none" stroke="midnightblue" d="M446.53,-683.32C458.59,-674.98 477.03,-662.21 491.27,-652.35"/>
<polygon fill="midnightblue" stroke="midnightblue" points="493.27,-655.22 499.5,-646.65 489.28,-649.47 493.27,-655.22"/>
</g>
<!-- Node4 -->
<g id="node4" class="node">
<title>Node4</title>
<g id="a_node4"><a xlink:href="compiler_8h.html" target="_top" xlink:title="L4 compiler related defines.">
<polygon fill="white" stroke="black" points="400.5,-56.5 400.5,-75.5 499.5,-75.5 499.5,-56.5 400.5,-56.5"/>
<text text-anchor="middle" x="450" y="-63.5" font-family="Helvetica,sans-Serif" font-size="10.00">l4/sys/compiler.h</text>
</a>
</g>
</g>
<!-- Node3&#45;&gt;Node4 -->
<g id="edge3" class="edge">
<title>Node3&#45;&gt;Node4</title>
<path fill="none" stroke="midnightblue" d="M719.34,-113.32C664.33,-103.86 570.67,-87.75 509.57,-77.24"/>
<polygon fill="midnightblue" stroke="midnightblue" points="510.13,-73.79 499.68,-75.54 508.94,-80.69 510.13,-73.79"/>
</g>
<!-- Node6 -->
<g id="node6" class="node">
<title>Node6</title>
<g id="a_node6"><a xlink:href="l4_2sys_2l4int_8h.html" target="_top" xlink:title="Fixed sized integer types, generic version.">
<polygon fill="white" stroke="black" points="647.5,-56.5 647.5,-75.5 726.5,-75.5 726.5,-56.5 647.5,-56.5"/>
<text text-anchor="middle" x="687" y="-63.5" font-family="Helvetica,sans-Serif" font-size="10.00">l4/sys/l4int.h</text>
</a>
</g>
</g>
<!-- Node3&#45;&gt;Node6 -->
<g id="edge5" class="edge">
<title>Node3&#45;&gt;Node6</title>
<path fill="none" stroke="midnightblue" d="M751.63,-112.32C739.84,-104.06 721.87,-91.45 707.86,-81.63"/>
<polygon fill="midnightblue" stroke="midnightblue" points="709.54,-78.53 699.34,-75.65 705.52,-84.26 709.54,-78.53"/>
</g>
<!-- Node5 -->
<g id="node5" class="node">
<title>Node5</title>
<g id="a_node5"><a xlink:title=" ">
<polygon fill="white" stroke="#bfbfbf" points="404,-0.5 404,-19.5 496,-19.5 496,-0.5 404,-0.5"/>
<text text-anchor="middle" x="450" y="-7.5" font-family="Helvetica,sans-Serif" font-size="10.00">l4/sys/linkage.h</text>
</a>
</g>
</g>
<!-- Node4&#45;&gt;Node5 -->
<g id="edge4" class="edge">
<title>Node4&#45;&gt;Node5</title>
<path fill="none" stroke="midnightblue" d="M450,-56.08C450,-49.01 450,-38.86 450,-29.99"/>
<polygon fill="midnightblue" stroke="midnightblue" points="453.5,-29.75 450,-19.75 446.5,-29.75 453.5,-29.75"/>
</g>
<!-- Node7&#45;&gt;Node3 -->
<g id="edge9" class="edge">
<title>Node7&#45;&gt;Node3</title>
<path fill="none" stroke="midnightblue" d="M463.06,-170.38C524.99,-160.63 640.78,-142.4 709.26,-131.62"/>
<polygon fill="midnightblue" stroke="midnightblue" points="710.09,-135.03 719.42,-130.02 709,-128.12 710.09,-135.03"/>
</g>
<!-- Node7&#45;&gt;Node4 -->
<g id="edge8" class="edge">
<title>Node7&#45;&gt;Node4</title>
<path fill="none" stroke="midnightblue" d="M395.21,-168.32C366.93,-157.33 327.59,-136.8 344,-112 354.66,-95.89 372.37,-85.53 390.29,-78.88"/>
<polygon fill="midnightblue" stroke="midnightblue" points="391.86,-82.05 400.23,-75.55 389.63,-75.41 391.86,-82.05"/>
</g>
<!-- Node7&#45;&gt;Node6 -->
<g id="edge7" class="edge">
<title>Node7&#45;&gt;Node6</title>
<path fill="none" stroke="midnightblue" d="M435.88,-168.39C459.22,-155.12 506.13,-129.36 548,-112 580.24,-98.63 617.98,-86.63 645.99,-78.39"/>
<polygon fill="midnightblue" stroke="midnightblue" points="647.22,-81.68 655.85,-75.53 645.27,-74.96 647.22,-81.68"/>
</g>
<!-- Node8 -->
<g id="node8" class="node">
<title>Node8</title>
<g id="a_node8"><a xlink:href="____l4__fpage_8h_source.html" target="_top" xlink:title=" ">
<polygon fill="white" stroke="black" points="353,-112.5 353,-131.5 463,-131.5 463,-112.5 353,-112.5"/>
<text text-anchor="middle" x="408" y="-119.5" font-family="Helvetica,sans-Serif" font-size="10.00">l4/sys/__l4_fpage.h</text>
</a>
</g>
</g>
<!-- Node7&#45;&gt;Node8 -->
<g id="edge10" class="edge">
<title>Node7&#45;&gt;Node8</title>
<path fill="none" stroke="midnightblue" d="M418.85,-168.08C417.13,-160.93 414.65,-150.64 412.5,-141.69"/>
<polygon fill="midnightblue" stroke="midnightblue" points="415.85,-140.65 410.11,-131.75 409.04,-142.29 415.85,-140.65"/>
</g>
<!-- Node9 -->
<g id="node9" class="node">
<title>Node9</title>
<g id="a_node9"><a xlink:href="____timeout_8h_source.html" target="_top" xlink:title=" ">
<polygon fill="white" stroke="black" points="557,-112.5 557,-131.5 663,-131.5 663,-112.5 557,-112.5"/>
<text text-anchor="middle" x="610" y="-119.5" font-family="Helvetica,sans-Serif" font-size="10.00">l4/sys/__timeout.h</text>
</a>
</g>
</g>
<!-- Node7&#45;&gt;Node9 -->
<g id="edge12" class="edge">
<title>Node7&#45;&gt;Node9</title>
<path fill="none" stroke="midnightblue" d="M450.95,-168.44C483.16,-159.24 534.53,-144.56 570.14,-134.39"/>
<polygon fill="midnightblue" stroke="midnightblue" points="571.54,-137.63 580.19,-131.52 569.62,-130.9 571.54,-137.63"/>
</g>
<!-- Node8&#45;&gt;Node4 -->
<g id="edge11" class="edge">
<title>Node8&#45;&gt;Node4</title>
<path fill="none" stroke="midnightblue" d="M414.94,-112.08C420.93,-104.38 429.75,-93.03 437.05,-83.65"/>
<polygon fill="midnightblue" stroke="midnightblue" points="439.82,-85.79 443.19,-75.75 434.29,-81.5 439.82,-85.79"/>
</g>
<!-- Node9&#45;&gt;Node6 -->
<g id="edge13" class="edge">
<title>Node9&#45;&gt;Node6</title>
<path fill="none" stroke="midnightblue" d="M622.37,-112.32C634.16,-104.06 652.13,-91.45 666.14,-81.63"/>
<polygon fill="midnightblue" stroke="midnightblue" points="668.48,-84.26 674.66,-75.65 664.46,-78.53 668.48,-84.26"/>
</g>
<!-- Node10&#45;&gt;Node7 -->
<g id="edge29" class="edge">
<title>Node10&#45;&gt;Node7</title>
<path fill="none" stroke="midnightblue" d="M322.38,-521.18C234.5,-512.72 38,-479.6 38,-352.5 38,-352.5 38,-352.5 38,-289 38,-220.96 264.11,-192.54 368.87,-183.02"/>
<polygon fill="midnightblue" stroke="midnightblue" points="369.26,-186.5 378.92,-182.13 368.65,-179.53 369.26,-186.5"/>
</g>
<!-- Node11 -->
<g id="node11" class="node">
<title>Node11</title>
<g id="a_node11"><a xlink:href="kernel__object_8h.html" target="_top" xlink:title="Kernel object system calls.">
<polygon fill="white" stroke="black" points="314.5,-403.5 314.5,-422.5 405.5,-422.5 405.5,-403.5 314.5,-403.5"/>
<text text-anchor="middle" x="360" y="-410.5" font-family="Helvetica,sans-Serif" font-size="10.00">kernel_object.h</text>
</a>
</g>
</g>
<!-- Node10&#45;&gt;Node11 -->
<g id="edge15" class="edge">
<title>Node10&#45;&gt;Node11</title>
<path fill="none" stroke="midnightblue" d="M363.69,-515.37C363.04,-497.62 361.55,-456.67 360.68,-432.6"/>
<polygon fill="midnightblue" stroke="midnightblue" points="364.17,-432.46 360.31,-422.59 357.18,-432.71 364.17,-432.46"/>
</g>
<!-- Node16 -->
<g id="node16" class="node">
<title>Node16</title>
<g id="a_node16"><a xlink:href="____typeinfo_8h.html" target="_top" xlink:title="Type information handling.">
<polygon fill="white" stroke="black" points="462.5,-459.5 462.5,-478.5 539.5,-478.5 539.5,-459.5 462.5,-459.5"/>
<text text-anchor="middle" x="501" y="-466.5" font-family="Helvetica,sans-Serif" font-size="10.00">__typeinfo.h</text>
</a>
</g>
</g>
<!-- Node10&#45;&gt;Node16 -->
<g id="edge30" class="edge">
<title>Node10&#45;&gt;Node16</title>
<path fill="none" stroke="midnightblue" d="M385.71,-515.44C408.35,-506.52 444.07,-492.44 469.75,-482.32"/>
<polygon fill="midnightblue" stroke="midnightblue" points="471.37,-485.44 479.39,-478.52 468.81,-478.93 471.37,-485.44"/>
</g>
<!-- Node11&#45;&gt;Node4 -->
<g id="edge17" class="edge">
<title>Node11&#45;&gt;Node4</title>
<path fill="none" stroke="midnightblue" d="M314.37,-412.36C234.09,-410.34 76,-393.36 76,-291 76,-291 76,-291 76,-177 76,-112.32 284.48,-82.9 390.13,-72.15"/>
<polygon fill="midnightblue" stroke="midnightblue" points="390.73,-75.61 400.34,-71.14 390.04,-68.64 390.73,-75.61"/>
</g>
<!-- Node11&#45;&gt;Node7 -->
<g id="edge16" class="edge">
<title>Node11&#45;&gt;Node7</title>
<path fill="none" stroke="midnightblue" d="M314.48,-412.99C237.27,-412.88 92.72,-403.91 133,-336 184.19,-249.7 301.35,-207.82 369.42,-190.1"/>
<polygon fill="midnightblue" stroke="midnightblue" points="370.66,-193.39 379.5,-187.56 368.95,-186.61 370.66,-193.39"/>
</g>
<!-- Node12 -->
<g id="node12" class="node">
<title>Node12</title>
<g id="a_node12"><a xlink:href="l4_2sys_2utcb_8h.html" target="_top" xlink:title="UTCB definitions.">
<polygon fill="white" stroke="black" points="451,-224.5 451,-243.5 529,-243.5 529,-224.5 451,-224.5"/>
<text text-anchor="middle" x="490" y="-231.5" font-family="Helvetica,sans-Serif" font-size="10.00">l4/sys/utcb.h</text>
</a>
</g>
</g>
<!-- Node11&#45;&gt;Node12 -->
<g id="edge18" class="edge">
<title>Node11&#45;&gt;Node12</title>
<path fill="none" stroke="midnightblue" d="M389.13,-403.37C408.04,-396.38 431.9,-384.74 447,-367 475.29,-333.78 485.07,-281.52 488.38,-253.77"/>
<polygon fill="midnightblue" stroke="midnightblue" points="491.86,-254.12 489.4,-243.81 484.9,-253.4 491.86,-254.12"/>
</g>
<!-- Node13 -->
<g id="node13" class="node">
<title>Node13</title>
<g id="a_node13"><a xlink:href="____kernel__object__impl_8h.html" target="_top" xlink:title="Low&#45;level kernel debugger functions.">
<polygon fill="white" stroke="black" points="298,-336.5 298,-366.5 422,-366.5 422,-336.5 298,-336.5"/>
<text text-anchor="start" x="306" y="-354.5" font-family="Helvetica,sans-Serif" font-size="10.00">l4/sys/__kernel_object</text>
<text text-anchor="middle" x="360" y="-343.5" font-family="Helvetica,sans-Serif" font-size="10.00">_impl.h</text>
</a>
</g>
</g>
<!-- Node11&#45;&gt;Node13 -->
<g id="edge22" class="edge">
<title>Node11&#45;&gt;Node13</title>
<path fill="none" stroke="midnightblue" d="M360,-403.48C360,-396.47 360,-386.19 360,-376.7"/>
<polygon fill="midnightblue" stroke="midnightblue" points="363.5,-376.52 360,-366.52 356.5,-376.52 363.5,-376.52"/>
</g>
<!-- Node14 -->
<g id="node14" class="node">
<title>Node14</title>
<g id="a_node14"><a xlink:href="l4_2sys_2ipc_8h.html" target="_top" xlink:title="Common IPC interface.">
<polygon fill="white" stroke="black" points="388.5,-280.5 388.5,-299.5 459.5,-299.5 459.5,-280.5 388.5,-280.5"/>
<text text-anchor="middle" x="424" y="-287.5" font-family="Helvetica,sans-Serif" font-size="10.00">l4/sys/ipc.h</text>
</a>
</g>
</g>
<!-- Node11&#45;&gt;Node14 -->
<g id="edge28" class="edge">
<title>Node11&#45;&gt;Node14</title>
<path fill="none" stroke="midnightblue" d="M385.16,-403.38C401.42,-396.34 421.29,-384.65 431,-367 440.76,-349.27 436.38,-325.64 431.26,-309.46"/>
<polygon fill="midnightblue" stroke="midnightblue" points="434.41,-307.87 427.76,-299.62 427.81,-310.21 434.41,-307.87"/>
</g>
<!-- Node12&#45;&gt;Node4 -->
<g id="edge20" class="edge">
<title>Node12&#45;&gt;Node4</title>
<path fill="none" stroke="midnightblue" d="M489.62,-224.29C488.54,-204.11 484.66,-152.77 472,-112 469.07,-102.55 464.4,-92.62 460.11,-84.49"/>
<polygon fill="midnightblue" stroke="midnightblue" points="463.12,-82.7 455.22,-75.63 456.99,-86.08 463.12,-82.7"/>
</g>
<!-- Node12&#45;&gt;Node6 -->
<g id="edge21" class="edge">
<title>Node12&#45;&gt;Node6</title>
<path fill="none" stroke="midnightblue" d="M529.28,-226.8C608.59,-213.4 783.23,-179.09 818,-132 842.45,-98.89 783.41,-81.65 736.81,-73.46"/>
<polygon fill="midnightblue" stroke="midnightblue" points="737.23,-69.98 726.79,-71.8 736.08,-76.88 737.23,-69.98"/>
</g>
<!-- Node12&#45;&gt;Node7 -->
<g id="edge19" class="edge">
<title>Node12&#45;&gt;Node7</title>
<path fill="none" stroke="midnightblue" d="M478.91,-224.32C468.51,-216.18 452.74,-203.84 440.28,-194.09"/>
<polygon fill="midnightblue" stroke="midnightblue" points="442.32,-191.24 432.29,-187.83 438.01,-196.75 442.32,-191.24"/>
</g>
<!-- Node13&#45;&gt;Node14 -->
<g id="edge23" class="edge">
<title>Node13&#45;&gt;Node14</title>
<path fill="none" stroke="midnightblue" d="M375.17,-336.4C384.75,-327.49 397.16,-315.95 407.07,-306.74"/>
<polygon fill="midnightblue" stroke="midnightblue" points="409.75,-309.03 414.69,-299.66 404.98,-303.9 409.75,-309.03"/>
</g>
<!-- Node14&#45;&gt;Node7 -->
<g id="edge24" class="edge">
<title>Node14&#45;&gt;Node7</title>
<path fill="none" stroke="midnightblue" d="M423.76,-280.37C423.28,-262.62 422.16,-221.67 421.51,-197.6"/>
<polygon fill="midnightblue" stroke="midnightblue" points="425.01,-197.49 421.23,-187.59 418.01,-197.68 425.01,-197.49"/>
</g>
<!-- Node14&#45;&gt;Node12 -->
<g id="edge25" class="edge">
<title>Node14&#45;&gt;Node12</title>
<path fill="none" stroke="midnightblue" d="M434.6,-280.32C444.46,-272.26 459.35,-260.08 471.22,-250.37"/>
<polygon fill="midnightblue" stroke="midnightblue" points="473.68,-252.88 479.2,-243.83 469.25,-247.46 473.68,-252.88"/>
</g>
<!-- Node15 -->
<g id="node15" class="node">
<title>Node15</title>
<g id="a_node15"><a xlink:href="err_8h.html" target="_top" xlink:title="Error codes.">
<polygon fill="white" stroke="black" points="667,-224.5 667,-243.5 737,-243.5 737,-224.5 667,-224.5"/>
<text text-anchor="middle" x="702" y="-231.5" font-family="Helvetica,sans-Serif" font-size="10.00">l4/sys/err.h</text>
</a>
</g>
</g>
<!-- Node14&#45;&gt;Node15 -->
<g id="edge26" class="edge">
<title>Node14&#45;&gt;Node15</title>
<path fill="none" stroke="midnightblue" d="M459.77,-282.05C510.06,-272.28 601.64,-254.5 656.64,-243.81"/>
<polygon fill="midnightblue" stroke="midnightblue" points="657.65,-247.18 666.8,-241.84 656.32,-240.31 657.65,-247.18"/>
</g>
<!-- Node15&#45;&gt;Node4 -->
<g id="edge27" class="edge">
<title>Node15&#45;&gt;Node4</title>
<path fill="none" stroke="midnightblue" d="M702.7,-224.49C704,-202.4 704.2,-142.84 672,-112 649.16,-90.12 567.39,-77.97 509.75,-71.96"/>
<polygon fill="midnightblue" stroke="midnightblue" points="509.95,-68.46 499.65,-70.95 509.25,-75.43 509.95,-68.46"/>
</g>
<!-- Node17 -->
<g id="node17" class="node">
<title>Node17</title>
<g id="a_node17"><a xlink:href="types.html" target="_top" xlink:title=" ">
<polygon fill="white" stroke="black" points="774,-342 774,-361 838,-361 838,-342 774,-342"/>
<text text-anchor="middle" x="806" y="-349" font-family="Helvetica,sans-Serif" font-size="10.00">cxx/types</text>
</a>
</g>
</g>
<!-- Node16&#45;&gt;Node17 -->
<g id="edge31" class="edge">
<title>Node16&#45;&gt;Node17</title>
<path fill="none" stroke="midnightblue" d="M523.36,-459.39C545.56,-450.7 580.45,-436.65 610,-423 627.68,-414.83 631,-410.45 649,-403 687.31,-387.14 732.52,-373.06 764.57,-363.83"/>
<polygon fill="midnightblue" stroke="midnightblue" points="765.82,-367.11 774.48,-361 763.91,-360.37 765.82,-367.11"/>
</g>
<!-- Node18 -->
<g id="node18" class="node">
<title>Node18</title>
<g id="a_node18"><a xlink:href="ipc__basics_source.html" target="_top" xlink:title=" ">
<polygon fill="white" stroke="black" points="657.5,-403.5 657.5,-422.5 744.5,-422.5 744.5,-403.5 657.5,-403.5"/>
<text text-anchor="middle" x="701" y="-410.5" font-family="Helvetica,sans-Serif" font-size="10.00">cxx/ipc_basics</text>
</a>
</g>
</g>
<!-- Node16&#45;&gt;Node18 -->
<g id="edge32" class="edge">
<title>Node16&#45;&gt;Node18</title>
<path fill="none" stroke="midnightblue" d="M532.69,-459.44C567.07,-450.16 622.08,-435.31 659.79,-425.13"/>
<polygon fill="midnightblue" stroke="midnightblue" points="660.72,-428.5 669.46,-422.52 658.89,-421.74 660.72,-428.5"/>
</g>
<!-- Node19 -->
<g id="node19" class="node">
<title>Node19</title>
<g id="a_node19"><a xlink:href="capability_8h_source.html" target="_top" xlink:title=" ">
<polygon fill="white" stroke="black" points="509,-403.5 509,-422.5 601,-422.5 601,-403.5 509,-403.5"/>
<text text-anchor="middle" x="555" y="-410.5" font-family="Helvetica,sans-Serif" font-size="10.00">cxx/capability.h</text>
</a>
</g>
</g>
<!-- Node16&#45;&gt;Node19 -->
<g id="edge36" class="edge">
<title>Node16&#45;&gt;Node19</title>
<path fill="none" stroke="midnightblue" d="M509.92,-459.08C517.78,-451.22 529.43,-439.57 538.92,-430.08"/>
<polygon fill="midnightblue" stroke="midnightblue" points="541.65,-432.3 546.25,-422.75 536.7,-427.35 541.65,-432.3"/>
</g>
<!-- Node18&#45;&gt;Node12 -->
<g id="edge34" class="edge">
<title>Node18&#45;&gt;Node12</title>
<path fill="none" stroke="midnightblue" d="M690.82,-403.46C657.48,-375.5 551.23,-286.37 508.28,-250.33"/>
<polygon fill="midnightblue" stroke="midnightblue" points="510.48,-247.61 500.57,-243.87 505.98,-252.98 510.48,-247.61"/>
</g>
<!-- Node18&#45;&gt;Node15 -->
<g id="edge35" class="edge">
<title>Node18&#45;&gt;Node15</title>
<path fill="none" stroke="midnightblue" d="M701.05,-403.46C701.2,-376.43 701.68,-292.24 701.89,-254.11"/>
<polygon fill="midnightblue" stroke="midnightblue" points="705.39,-253.89 701.95,-243.87 698.39,-253.85 705.39,-253.89"/>
</g>
<!-- Node18&#45;&gt;Node17 -->
<g id="edge33" class="edge">
<title>Node18&#45;&gt;Node17</title>
<path fill="none" stroke="midnightblue" d="M716.04,-403.48C733.28,-393.71 761.74,-377.58 782.03,-366.08"/>
<polygon fill="midnightblue" stroke="midnightblue" points="784.01,-368.98 790.98,-361.01 780.56,-362.89 784.01,-368.98"/>
</g>
<!-- Node19&#45;&gt;Node3 -->
<g id="edge37" class="edge">
<title>Node19&#45;&gt;Node3</title>
<path fill="none" stroke="midnightblue" d="M571.18,-403.48C609.41,-382.37 705.14,-323.55 746,-244 762.92,-211.06 765.14,-166.85 764.84,-142.01"/>
<polygon fill="midnightblue" stroke="midnightblue" points="768.33,-141.68 764.55,-131.79 761.33,-141.88 768.33,-141.68"/>
</g>
<!-- Node19&#45;&gt;Node7 -->
<g id="edge38" class="edge">
<title>Node19&#45;&gt;Node7</title>
<path fill="none" stroke="midnightblue" d="M569.37,-403.33C580.88,-395.47 596.19,-382.72 603,-367 624.46,-317.47 574.25,-240.08 557,-224 534.16,-202.7 501,-191.47 473.14,-185.56"/>
<polygon fill="midnightblue" stroke="midnightblue" points="473.63,-182.09 463.15,-183.61 472.29,-188.96 473.63,-182.09"/>
</g>
<!-- Node19&#45;&gt;Node20 -->
<g id="edge39" class="edge">
<title>Node19&#45;&gt;Node20</title>
<path fill="none" stroke="midnightblue" d="M555,-403.48C555,-395.08 555,-381.98 555,-371.16"/>
<polygon fill="midnightblue" stroke="midnightblue" points="558.5,-371.01 555,-361.01 551.5,-371.01 558.5,-371.01"/>
</g>
<!-- Node20&#45;&gt;Node7 -->
<g id="edge40" class="edge">
<title>Node20&#45;&gt;Node7</title>
<path fill="none" stroke="midnightblue" d="M556.6,-341.68C560.12,-319.32 566.16,-259.65 538,-224 522.18,-203.98 496.31,-192.86 472.91,-186.68"/>
<polygon fill="midnightblue" stroke="midnightblue" points="473.61,-183.25 463.07,-184.33 471.98,-190.06 473.61,-183.25"/>
</g>
<!-- Node20&#45;&gt;Node12 -->
<g id="edge41" class="edge">
<title>Node20&#45;&gt;Node12</title>
<path fill="none" stroke="midnightblue" d="M550.11,-341.82C539.48,-322.92 514.06,-277.75 499.92,-252.62"/>
<polygon fill="midnightblue" stroke="midnightblue" points="502.9,-250.78 494.94,-243.78 496.8,-254.21 502.9,-250.78"/>
</g>
<!-- Node20&#45;&gt;Node14 -->
<g id="edge42" class="edge">
<title>Node20&#45;&gt;Node14</title>
<path fill="none" stroke="midnightblue" d="M536.23,-341.98C514.15,-331.95 477.28,-315.2 451.86,-303.65"/>
<polygon fill="midnightblue" stroke="midnightblue" points="453.29,-300.46 442.73,-299.51 450.39,-306.83 453.29,-300.46"/>
</g>
<!-- Node21&#45;&gt;Node10 -->
<g id="edge45" class="edge">
<title>Node21&#45;&gt;Node10</title>
<path fill="none" stroke="midnightblue" d="M500.39,-627.37C475.21,-608.65 415.33,-564.15 383.96,-540.83"/>
<polygon fill="midnightblue" stroke="midnightblue" points="385.67,-537.75 375.56,-534.59 381.5,-543.37 385.67,-537.75"/>
</g>
<!-- Node21&#45;&gt;Node22 -->
<g id="edge46" class="edge">
<title>Node21&#45;&gt;Node22</title>
<path fill="none" stroke="midnightblue" d="M514.04,-627.37C518.24,-609.62 527.92,-568.67 533.6,-544.6"/>
<polygon fill="midnightblue" stroke="midnightblue" points="537.08,-545.13 535.97,-534.59 530.26,-543.52 537.08,-545.13"/>
</g>
<!-- Node24 -->
<g id="node24" class="node">
<title>Node24</title>
<g id="a_node24"><a xlink:href="ipc__string_source.html" target="_top" xlink:title=" ">
<polygon fill="white" stroke="black" points="736,-571.5 736,-590.5 820,-590.5 820,-571.5 736,-571.5"/>
<text text-anchor="middle" x="778" y="-578.5" font-family="Helvetica,sans-Serif" font-size="10.00">cxx/ipc_string</text>
</a>
</g>
</g>
<!-- Node21&#45;&gt;Node24 -->
<g id="edge53" class="edge">
<title>Node21&#45;&gt;Node24</title>
<path fill="none" stroke="midnightblue" d="M549.27,-628.43C595.24,-619.1 673.69,-603.18 725.69,-592.62"/>
<polygon fill="midnightblue" stroke="midnightblue" points="726.62,-596 735.72,-590.58 725.22,-589.14 726.62,-596"/>
</g>
<!-- Node22&#45;&gt;Node16 -->
<g id="edge52" class="edge">
<title>Node22&#45;&gt;Node16</title>
<path fill="none" stroke="midnightblue" d="M531.89,-515.08C526.72,-507.53 519.15,-496.49 512.81,-487.23"/>
<polygon fill="midnightblue" stroke="midnightblue" points="515.54,-485.02 507,-478.75 509.76,-488.98 515.54,-485.02"/>
</g>
<!-- Node22&#45;&gt;Node18 -->
<g id="edge47" class="edge">
<title>Node22&#45;&gt;Node18</title>
<path fill="none" stroke="midnightblue" d="M543.25,-515.26C551.87,-501.58 570.26,-475 592,-459 612.3,-444.05 638.29,-433.08 659.8,-425.7"/>
<polygon fill="midnightblue" stroke="midnightblue" points="660.93,-429.02 669.33,-422.57 658.74,-422.37 660.93,-429.02"/>
</g>
<!-- Node23 -->
<g id="node23" class="node">
<title>Node23</title>
<g id="a_node23"><a xlink:href="ipc__types.html" target="_top" xlink:title=" ">
<polygon fill="white" stroke="black" points="634.5,-459.5 634.5,-478.5 749.5,-478.5 749.5,-459.5 634.5,-459.5"/>
<text text-anchor="middle" x="692" y="-466.5" font-family="Helvetica,sans-Serif" font-size="10.00">l4/sys/cxx/ipc_types</text>
</a>
</g>
</g>
<!-- Node22&#45;&gt;Node23 -->
<g id="edge48" class="edge">
<title>Node22&#45;&gt;Node23</title>
<path fill="none" stroke="midnightblue" d="M562.4,-515.44C588.2,-506.4 629.08,-492.06 658.02,-481.92"/>
<polygon fill="midnightblue" stroke="midnightblue" points="659.43,-485.13 667.71,-478.52 657.12,-478.52 659.43,-485.13"/>
</g>
<!-- Node23&#45;&gt;Node17 -->
<g id="edge50" class="edge">
<title>Node23&#45;&gt;Node17</title>
<path fill="none" stroke="midnightblue" d="M706.25,-459.46C719.47,-451.13 739.27,-437.61 754,-423 770.29,-406.83 785.45,-385.22 795.15,-370.21"/>
<polygon fill="midnightblue" stroke="midnightblue" points="798.32,-371.74 800.69,-361.42 792.39,-368.01 798.32,-371.74"/>
</g>
<!-- Node23&#45;&gt;Node18 -->
<g id="edge51" class="edge">
<title>Node23&#45;&gt;Node18</title>
<path fill="none" stroke="midnightblue" d="M693.49,-459.08C694.68,-451.93 696.39,-441.64 697.88,-432.69"/>
<polygon fill="midnightblue" stroke="midnightblue" points="701.35,-433.19 699.54,-422.75 694.45,-432.04 701.35,-433.19"/>
</g>
<!-- Node23&#45;&gt;Node19 -->
<g id="edge49" class="edge">
<title>Node23&#45;&gt;Node19</title>
<path fill="none" stroke="midnightblue" d="M670.29,-459.44C647.65,-450.52 611.93,-436.44 586.25,-426.32"/>
<polygon fill="midnightblue" stroke="midnightblue" points="587.19,-422.93 576.61,-422.52 584.63,-429.44 587.19,-422.93"/>
</g>
<!-- Node24&#45;&gt;Node17 -->
<g id="edge54" class="edge">
<title>Node24&#45;&gt;Node17</title>
<path fill="none" stroke="midnightblue" d="M789.27,-571.43C798.97,-563.27 812.28,-550.05 818,-535 839.49,-478.47 822.36,-405.03 812.18,-371.14"/>
<polygon fill="midnightblue" stroke="midnightblue" points="815.41,-369.73 809.06,-361.24 808.73,-371.83 815.41,-369.73"/>
</g>
<!-- Node24&#45;&gt;Node18 -->
<g id="edge55" class="edge">
<title>Node24&#45;&gt;Node18</title>
<path fill="none" stroke="midnightblue" d="M751.69,-571.43C715.73,-558.12 652.65,-528.7 626,-479 613.8,-456.24 641.58,-437.86 666.72,-426.52"/>
<polygon fill="midnightblue" stroke="midnightblue" points="668.29,-429.65 676.13,-422.53 665.56,-423.21 668.29,-429.65"/>
</g>
<!-- Node25 -->
<g id="node25" class="node">
<title>Node25</title>
<g id="a_node25"><a xlink:href="ipc__array_source.html" target="_top" xlink:title=" ">
<polygon fill="white" stroke="black" points="747,-515.5 747,-534.5 809,-534.5 809,-515.5 747,-515.5"/>
<text text-anchor="middle" x="778" y="-522.5" font-family="Helvetica,sans-Serif" font-size="10.00">ipc_array</text>
</a>
</g>
</g>
<!-- Node24&#45;&gt;Node25 -->
<g id="edge56" class="edge">
<title>Node24&#45;&gt;Node25</title>
<path fill="none" stroke="midnightblue" d="M778,-571.08C778,-564.01 778,-553.86 778,-544.99"/>
<polygon fill="midnightblue" stroke="midnightblue" points="781.5,-544.75 778,-534.75 774.5,-544.75 781.5,-544.75"/>
</g>
<!-- Node25&#45;&gt;Node17 -->
<g id="edge57" class="edge">
<title>Node25&#45;&gt;Node17</title>
<path fill="none" stroke="midnightblue" d="M779.43,-515.26C783.77,-488.65 796.9,-408.21 802.92,-371.34"/>
<polygon fill="midnightblue" stroke="midnightblue" points="806.45,-371.45 804.61,-361.02 799.54,-370.32 806.45,-371.45"/>
</g>
<!-- Node25&#45;&gt;Node18 -->
<g id="edge58" class="edge">
<title>Node25&#45;&gt;Node18</title>
<path fill="none" stroke="midnightblue" d="M777.17,-515.28C775.56,-502.08 771.04,-476.69 759,-459 750.43,-446.41 737.22,-435.76 725.57,-427.99"/>
<polygon fill="midnightblue" stroke="midnightblue" points="727.39,-425.01 717.06,-422.63 723.65,-430.93 727.39,-425.01"/>
</g>
<!-- Node25&#45;&gt;Node23 -->
<g id="edge59" class="edge">
<title>Node25&#45;&gt;Node23</title>
<path fill="none" stroke="midnightblue" d="M764.18,-515.32C750.77,-506.9 730.18,-493.97 714.41,-484.07"/>
<polygon fill="midnightblue" stroke="midnightblue" points="716.11,-481.01 705.78,-478.65 712.39,-486.94 716.11,-481.01"/>
</g>
<!-- Node26&#45;&gt;Node7 -->
<g id="edge61" class="edge">
<title>Node26&#45;&gt;Node7</title>
<path fill="none" stroke="midnightblue" d="M221.41,-342C254.86,-314.68 359.87,-228.93 402.62,-194.01"/>
<polygon fill="midnightblue" stroke="midnightblue" points="404.99,-196.59 410.52,-187.56 400.56,-191.17 404.99,-196.59"/>
</g>
<!-- Node26&#45;&gt;Node12 -->
<g id="edge62" class="edge">
<title>Node26&#45;&gt;Node12</title>
<path fill="none" stroke="midnightblue" d="M231.27,-341.99C262.98,-328.69 326.23,-302.21 380,-280 406.79,-268.93 437.3,-256.46 459.39,-247.46"/>
<polygon fill="midnightblue" stroke="midnightblue" points="460.95,-250.6 468.89,-243.58 458.31,-244.12 460.95,-250.6"/>
</g>
<!-- Node26&#45;&gt;Node14 -->
<g id="edge63" class="edge">
<title>Node26&#45;&gt;Node14</title>
<path fill="none" stroke="midnightblue" d="M241.52,-341.98C278.92,-331.53 342.43,-313.79 383.79,-302.23"/>
<polygon fill="midnightblue" stroke="midnightblue" points="384.85,-305.57 393.54,-299.51 382.97,-298.83 384.85,-305.57"/>
</g>
</g>
</svg>
