<?xml version="1.0" encoding="UTF-8" standalone="no"?>
<!DOCTYPE svg PUBLIC "-//W3C//DTD SVG 1.1//EN"
 "http://www.w3.org/Graphics/SVG/1.1/DTD/svg11.dtd">
<!-- Generated by graphviz version 2.43.0 (0)
 -->
<!-- Title: l4/sys/rcv_endpoint Pages: 1 -->
<svg width="1389pt" height="453pt"
 viewBox="0.00 0.00 1389.35 453.00" xmlns="http://www.w3.org/2000/svg" xmlns:xlink="http://www.w3.org/1999/xlink">
<g id="graph0" class="graph" transform="scale(1 1) rotate(0) translate(4 449)">
<title>l4/sys/rcv_endpoint</title>
<polygon fill="white" stroke="transparent" points="-4,4 -4,-449 1385.35,-449 1385.35,4 -4,4"/>
<!-- Node1 -->
<g id="node1" class="node">
<title>Node1</title>
<g id="a_node1"><a xlink:title="The C++ Receive endpoint interface.">
<polygon fill="#bfbfbf" stroke="black" points="142.5,-425.5 142.5,-444.5 253.5,-444.5 253.5,-425.5 142.5,-425.5"/>
<text text-anchor="middle" x="198" y="-432.5" font-family="Helvetica,sans-Serif" font-size="10.00">l4/sys/rcv_endpoint</text>
</a>
</g>
</g>
<!-- Node2 -->
<g id="node2" class="node">
<title>Node2</title>
<g id="a_node2"><a xlink:href="ipc__gate.html" target="_top" xlink:title="The C++ IPC gate interface.">
<polygon fill="white" stroke="black" points="107.5,-369.5 107.5,-388.5 196.5,-388.5 196.5,-369.5 107.5,-369.5"/>
<text text-anchor="middle" x="152" y="-376.5" font-family="Helvetica,sans-Serif" font-size="10.00">l4/sys/ipc_gate</text>
</a>
</g>
</g>
<!-- Node1&#45;&gt;Node2 -->
<g id="edge1" class="edge">
<title>Node1&#45;&gt;Node2</title>
<path fill="none" stroke="midnightblue" d="M183.89,-417.43C175.82,-407.97 166.04,-396.48 159.45,-388.75"/>
<polygon fill="midnightblue" stroke="midnightblue" points="181.25,-419.74 190.4,-425.08 186.58,-415.2 181.25,-419.74"/>
</g>
<!-- Node5 -->
<g id="node5" class="node">
<title>Node5</title>
<g id="a_node5"><a xlink:href="irq.html" target="_top" xlink:title="C++ Irq interface.">
<polygon fill="white" stroke="black" points="320.5,-369.5 320.5,-388.5 381.5,-388.5 381.5,-369.5 320.5,-369.5"/>
<text text-anchor="middle" x="351" y="-376.5" font-family="Helvetica,sans-Serif" font-size="10.00">l4/sys/irq</text>
</a>
</g>
</g>
<!-- Node1&#45;&gt;Node5 -->
<g id="edge4" class="edge">
<title>Node1&#45;&gt;Node5</title>
<path fill="none" stroke="midnightblue" d="M231.89,-422.04C260.68,-411.88 301.29,-397.55 326.87,-388.52"/>
<polygon fill="midnightblue" stroke="midnightblue" points="230.51,-418.81 222.24,-425.44 232.84,-425.42 230.51,-418.81"/>
</g>
<!-- Node3 -->
<g id="node3" class="node">
<title>Node3</title>
<g id="a_node3"><a xlink:href="object__registry_source.html" target="_top" xlink:title=" ">
<polygon fill="white" stroke="black" points="66.5,-73 66.5,-92 199.5,-92 199.5,-73 66.5,-73"/>
<text text-anchor="middle" x="133" y="-80" font-family="Helvetica,sans-Serif" font-size="10.00">l4/re/util/object_registry</text>
</a>
</g>
</g>
<!-- Node2&#45;&gt;Node3 -->
<g id="edge2" class="edge">
<title>Node2&#45;&gt;Node3</title>
<path fill="none" stroke="midnightblue" d="M107.57,-366.41C62.71,-351.7 0,-321.56 0,-268 0,-268 0,-268 0,-210 0,-149.13 74.04,-108.67 111.63,-92.05"/>
<polygon fill="midnightblue" stroke="midnightblue" points="106.54,-369.75 117.13,-369.4 108.63,-363.07 106.54,-369.75"/>
</g>
<!-- Node4 -->
<g id="node4" class="node">
<title>Node4</title>
<g id="a_node4"><a xlink:href="client_2virtio-block_source.html" target="_top" xlink:title=" ">
<polygon fill="white" stroke="black" points="116.5,-0.5 116.5,-30.5 209.5,-30.5 209.5,-0.5 116.5,-0.5"/>
<text text-anchor="start" x="124.5" y="-18.5" font-family="Helvetica,sans-Serif" font-size="10.00">l4/l4virtio/client</text>
<text text-anchor="middle" x="163" y="-7.5" font-family="Helvetica,sans-Serif" font-size="10.00">/virtio&#45;block</text>
</a>
</g>
</g>
<!-- Node3&#45;&gt;Node4 -->
<g id="edge3" class="edge">
<title>Node3&#45;&gt;Node4</title>
<path fill="none" stroke="midnightblue" d="M141.36,-63.39C146.14,-53.02 152.06,-40.2 156.5,-30.59"/>
<polygon fill="midnightblue" stroke="midnightblue" points="138.06,-62.19 137.05,-72.73 144.41,-65.12 138.06,-62.19"/>
</g>
<!-- Node6 -->
<g id="node6" class="node">
<title>Node6</title>
<g id="a_node6"><a xlink:href="l4virtio_source.html" target="_top" xlink:title=" ">
<polygon fill="white" stroke="black" points="254.5,-140 254.5,-159 355.5,-159 355.5,-140 254.5,-140"/>
<text text-anchor="middle" x="305" y="-147" font-family="Helvetica,sans-Serif" font-size="10.00">l4/l4virtio/l4virtio</text>
</a>
</g>
</g>
<!-- Node5&#45;&gt;Node6 -->
<g id="edge5" class="edge">
<title>Node5&#45;&gt;Node6</title>
<path fill="none" stroke="midnightblue" d="M351.08,-358.91C350.73,-325.96 347.84,-256.62 331,-201 326.26,-185.33 316.73,-168.75 310.62,-159.03"/>
<polygon fill="midnightblue" stroke="midnightblue" points="347.58,-359.32 351.12,-369.3 354.58,-359.29 347.58,-359.32"/>
</g>
<!-- Node9 -->
<g id="node9" class="node">
<title>Node9</title>
<g id="a_node9"><a xlink:href="icu.html" target="_top" xlink:title="Interrupt controller.">
<polygon fill="white" stroke="black" points="671,-313.5 671,-332.5 733,-332.5 733,-313.5 671,-313.5"/>
<text text-anchor="middle" x="702" y="-320.5" font-family="Helvetica,sans-Serif" font-size="10.00">l4/sys/icu</text>
</a>
</g>
</g>
<!-- Node5&#45;&gt;Node9 -->
<g id="edge9" class="edge">
<title>Node5&#45;&gt;Node9</title>
<path fill="none" stroke="midnightblue" d="M391.42,-371.78C462.2,-360.89 607.09,-338.6 670.78,-328.8"/>
<polygon fill="midnightblue" stroke="midnightblue" points="390.89,-368.32 381.53,-373.3 391.95,-375.24 390.89,-368.32"/>
</g>
<!-- Node31 -->
<g id="node31" class="node">
<title>Node31</title>
<g id="a_node31"><a xlink:href="semaphore.html" target="_top" xlink:title="Semaphore class definition.">
<polygon fill="white" stroke="black" points="219.5,-201.5 219.5,-220.5 322.5,-220.5 322.5,-201.5 219.5,-201.5"/>
<text text-anchor="middle" x="271" y="-208.5" font-family="Helvetica,sans-Serif" font-size="10.00">l4/sys/semaphore</text>
</a>
</g>
</g>
<!-- Node5&#45;&gt;Node31 -->
<g id="edge37" class="edge">
<title>Node5&#45;&gt;Node31</title>
<path fill="none" stroke="midnightblue" d="M342.26,-359.86C325.1,-324.25 287.6,-246.45 275.13,-220.57"/>
<polygon fill="midnightblue" stroke="midnightblue" points="339.2,-361.59 346.7,-369.08 345.51,-358.55 339.2,-361.59"/>
</g>
<!-- Node32 -->
<g id="node32" class="node">
<title>Node32</title>
<g id="a_node32"><a xlink:href="event_source.html" target="_top" xlink:title=" ">
<polygon fill="white" stroke="black" points="1210.5,-313.5 1210.5,-332.5 1279.5,-332.5 1279.5,-313.5 1210.5,-313.5"/>
<text text-anchor="middle" x="1245" y="-320.5" font-family="Helvetica,sans-Serif" font-size="10.00">l4/re/event</text>
</a>
</g>
</g>
<!-- Node5&#45;&gt;Node32 -->
<g id="edge40" class="edge">
<title>Node5&#45;&gt;Node32</title>
<path fill="none" stroke="midnightblue" d="M391.73,-375.54C542.72,-366.42 1069.11,-334.62 1210.06,-326.11"/>
<polygon fill="midnightblue" stroke="midnightblue" points="391.29,-372.06 381.51,-376.16 391.71,-379.05 391.29,-372.06"/>
</g>
<!-- Node6&#45;&gt;Node4 -->
<g id="edge6" class="edge">
<title>Node6&#45;&gt;Node4</title>
<path fill="none" stroke="midnightblue" d="M286.9,-133.18C275.35,-123.29 260.13,-110.07 247,-98 221.87,-74.9 193.55,-47.02 177.04,-30.58"/>
<polygon fill="midnightblue" stroke="midnightblue" points="284.7,-135.9 294.58,-139.73 289.24,-130.58 284.7,-135.9"/>
</g>
<!-- Node7 -->
<g id="node7" class="node">
<title>Node7</title>
<g id="a_node7"><a xlink:href="server_2l4virtio_source.html" target="_top" xlink:title=" ">
<polygon fill="white" stroke="black" points="256.5,-67.5 256.5,-97.5 353.5,-97.5 353.5,-67.5 256.5,-67.5"/>
<text text-anchor="start" x="264.5" y="-85.5" font-family="Helvetica,sans-Serif" font-size="10.00">l4/l4virtio/server</text>
<text text-anchor="middle" x="305" y="-74.5" font-family="Helvetica,sans-Serif" font-size="10.00">/l4virtio</text>
</a>
</g>
</g>
<!-- Node6&#45;&gt;Node7 -->
<g id="edge7" class="edge">
<title>Node6&#45;&gt;Node7</title>
<path fill="none" stroke="midnightblue" d="M305,-129.41C305,-119.22 305,-106.9 305,-97.59"/>
<polygon fill="midnightblue" stroke="midnightblue" points="301.5,-129.73 305,-139.73 308.5,-129.73 301.5,-129.73"/>
</g>
<!-- Node8 -->
<g id="node8" class="node">
<title>Node8</title>
<g id="a_node8"><a xlink:href="server_2virtio-block_source.html" target="_top" xlink:title=" ">
<polygon fill="white" stroke="black" points="256.5,-0.5 256.5,-30.5 353.5,-30.5 353.5,-0.5 256.5,-0.5"/>
<text text-anchor="start" x="264.5" y="-18.5" font-family="Helvetica,sans-Serif" font-size="10.00">l4/l4virtio/server</text>
<text text-anchor="middle" x="305" y="-7.5" font-family="Helvetica,sans-Serif" font-size="10.00">/virtio&#45;block</text>
</a>
</g>
</g>
<!-- Node7&#45;&gt;Node8 -->
<g id="edge8" class="edge">
<title>Node7&#45;&gt;Node8</title>
<path fill="none" stroke="midnightblue" d="M305,-57.11C305,-48.15 305,-38.32 305,-30.58"/>
<polygon fill="midnightblue" stroke="midnightblue" points="301.5,-57.4 305,-67.4 308.5,-57.4 301.5,-57.4"/>
</g>
<!-- Node10 -->
<g id="node10" class="node">
<title>Node10</title>
<g id="a_node10"><a xlink:href="scheduler.html" target="_top" xlink:title="Scheduler object functions.">
<polygon fill="white" stroke="black" points="707.5,-257.5 707.5,-276.5 802.5,-276.5 802.5,-257.5 707.5,-257.5"/>
<text text-anchor="middle" x="755" y="-264.5" font-family="Helvetica,sans-Serif" font-size="10.00">l4/sys/scheduler</text>
</a>
</g>
</g>
<!-- Node9&#45;&gt;Node10 -->
<g id="edge10" class="edge">
<title>Node9&#45;&gt;Node10</title>
<path fill="none" stroke="midnightblue" d="M717.98,-305.72C727.32,-296.2 738.75,-284.56 746.41,-276.75"/>
<polygon fill="midnightblue" stroke="midnightblue" points="715.26,-303.49 710.75,-313.08 720.25,-308.4 715.26,-303.49"/>
</g>
<!-- Node11 -->
<g id="node11" class="node">
<title>Node11</title>
<g id="a_node11"><a xlink:href="vcon.html" target="_top" xlink:title="Virtual console interface.">
<polygon fill="white" stroke="black" points="521.5,-257.5 521.5,-276.5 592.5,-276.5 592.5,-257.5 521.5,-257.5"/>
<text text-anchor="middle" x="557" y="-264.5" font-family="Helvetica,sans-Serif" font-size="10.00">l4/sys/vcon</text>
</a>
</g>
</g>
<!-- Node9&#45;&gt;Node11 -->
<g id="edge11" class="edge">
<title>Node9&#45;&gt;Node11</title>
<path fill="none" stroke="midnightblue" d="M669.52,-309.91C642.26,-299.75 604.01,-285.51 579.87,-276.52"/>
<polygon fill="midnightblue" stroke="midnightblue" points="668.43,-313.23 679.02,-313.44 670.87,-306.67 668.43,-313.23"/>
</g>
<!-- Node22 -->
<g id="node22" class="node">
<title>Node22</title>
<g id="a_node22"><a xlink:href="icu__svr_source.html" target="_top" xlink:title=" ">
<polygon fill="white" stroke="black" points="1151.5,-73 1151.5,-92 1246.5,-92 1246.5,-73 1151.5,-73"/>
<text text-anchor="middle" x="1199" y="-80" font-family="Helvetica,sans-Serif" font-size="10.00">l4/re/util/icu_svr</text>
</a>
</g>
</g>
<!-- Node9&#45;&gt;Node22 -->
<g id="edge32" class="edge">
<title>Node9&#45;&gt;Node22</title>
<path fill="none" stroke="midnightblue" d="M743.23,-312.45C765.43,-305.6 792.06,-294.44 811,-277 838.93,-251.29 821.23,-225.77 850,-201 875.2,-179.31 1089.84,-115.3 1169.45,-92.06"/>
<polygon fill="midnightblue" stroke="midnightblue" points="742.02,-309.15 733.39,-315.3 743.97,-315.88 742.02,-309.15"/>
</g>
<!-- Node26 -->
<g id="node26" class="node">
<title>Node26</title>
<g id="a_node26"><a xlink:href="random_source.html" target="_top" xlink:title=" ">
<polygon fill="white" stroke="black" points="610.5,-257.5 610.5,-276.5 689.5,-276.5 689.5,-257.5 610.5,-257.5"/>
<text text-anchor="middle" x="650" y="-264.5" font-family="Helvetica,sans-Serif" font-size="10.00">l4/re/random</text>
</a>
</g>
</g>
<!-- Node9&#45;&gt;Node26 -->
<g id="edge31" class="edge">
<title>Node9&#45;&gt;Node26</title>
<path fill="none" stroke="midnightblue" d="M686.32,-305.72C677.16,-296.2 665.95,-284.56 658.43,-276.75"/>
<polygon fill="midnightblue" stroke="midnightblue" points="683.96,-308.31 693.41,-313.08 689,-303.45 683.96,-308.31"/>
</g>
<!-- Node27 -->
<g id="node27" class="node">
<title>Node27</title>
<g id="a_node27"><a xlink:href="vbus_source.html" target="_top" xlink:title=" ">
<polygon fill="white" stroke="black" points="991,-257.5 991,-276.5 1069,-276.5 1069,-257.5 991,-257.5"/>
<text text-anchor="middle" x="1030" y="-264.5" font-family="Helvetica,sans-Serif" font-size="10.00">l4/vbus/vbus</text>
</a>
</g>
</g>
<!-- Node9&#45;&gt;Node27 -->
<g id="edge33" class="edge">
<title>Node9&#45;&gt;Node27</title>
<path fill="none" stroke="midnightblue" d="M743.23,-315.21C806.9,-304.73 928.31,-284.74 990.76,-274.46"/>
<polygon fill="midnightblue" stroke="midnightblue" points="742.45,-311.79 733.15,-316.87 743.59,-318.7 742.45,-311.79"/>
</g>
<!-- Node12 -->
<g id="node12" class="node">
<title>Node12</title>
<g id="a_node12"><a xlink:href="vcon__stream_8h_source.html" target="_top" xlink:title=" ">
<polygon fill="white" stroke="black" points="435.5,-134.5 435.5,-164.5 554.5,-164.5 554.5,-134.5 435.5,-134.5"/>
<text text-anchor="start" x="443.5" y="-152.5" font-family="Helvetica,sans-Serif" font-size="10.00">l4/l4re_vfs/impl/vcon</text>
<text text-anchor="middle" x="495" y="-141.5" font-family="Helvetica,sans-Serif" font-size="10.00">_stream.h</text>
</a>
</g>
</g>
<!-- Node11&#45;&gt;Node12 -->
<g id="edge12" class="edge">
<title>Node11&#45;&gt;Node12</title>
<path fill="none" stroke="midnightblue" d="M553.69,-247.16C550.81,-233.73 545.85,-215.55 538,-201 530.67,-187.42 519.23,-174.22 510,-164.72"/>
<polygon fill="midnightblue" stroke="midnightblue" points="550.28,-247.99 555.63,-257.14 557.15,-246.65 550.28,-247.99"/>
</g>
<!-- Node15 -->
<g id="node15" class="node">
<title>Node15</title>
<g id="a_node15"><a xlink:href="log.html" target="_top" xlink:title="Log interface.">
<polygon fill="white" stroke="black" points="642,-201.5 642,-220.5 698,-220.5 698,-201.5 642,-201.5"/>
<text text-anchor="middle" x="670" y="-208.5" font-family="Helvetica,sans-Serif" font-size="10.00">l4/re/log</text>
</a>
</g>
</g>
<!-- Node11&#45;&gt;Node15 -->
<g id="edge15" class="edge">
<title>Node11&#45;&gt;Node15</title>
<path fill="none" stroke="midnightblue" d="M584,-253.1C605.11,-243.01 633.86,-229.27 652.18,-220.52"/>
<polygon fill="midnightblue" stroke="midnightblue" points="582.42,-249.97 574.91,-257.44 585.44,-256.29 582.42,-249.97"/>
</g>
<!-- Node25 -->
<g id="node25" class="node">
<title>Node25</title>
<g id="a_node25"><a xlink:href="vcon__svr_source.html" target="_top" xlink:title=" ">
<polygon fill="white" stroke="black" points="425,-201.5 425,-220.5 529,-220.5 529,-201.5 425,-201.5"/>
<text text-anchor="middle" x="477" y="-208.5" font-family="Helvetica,sans-Serif" font-size="10.00">l4/re/util/vcon_svr</text>
</a>
</g>
</g>
<!-- Node11&#45;&gt;Node25 -->
<g id="edge30" class="edge">
<title>Node11&#45;&gt;Node25</title>
<path fill="none" stroke="midnightblue" d="M535.7,-251.62C521.08,-241.76 502.17,-228.99 489.82,-220.65"/>
<polygon fill="midnightblue" stroke="midnightblue" points="533.9,-254.63 544.15,-257.32 537.82,-248.83 533.9,-254.63"/>
</g>
<!-- Node13 -->
<g id="node13" class="node">
<title>Node13</title>
<g id="a_node13"><a xlink:href="vcon__stream__impl_8h_source.html" target="_top" xlink:title=" ">
<polygon fill="white" stroke="black" points="371.5,-67.5 371.5,-97.5 490.5,-97.5 490.5,-67.5 371.5,-67.5"/>
<text text-anchor="start" x="379.5" y="-85.5" font-family="Helvetica,sans-Serif" font-size="10.00">l4/l4re_vfs/impl/vcon</text>
<text text-anchor="middle" x="431" y="-74.5" font-family="Helvetica,sans-Serif" font-size="10.00">_stream_impl.h</text>
</a>
</g>
</g>
<!-- Node12&#45;&gt;Node13 -->
<g id="edge13" class="edge">
<title>Node12&#45;&gt;Node13</title>
<path fill="none" stroke="midnightblue" d="M473.85,-127.02C464.32,-117.34 453.33,-106.17 444.86,-97.58"/>
<polygon fill="midnightblue" stroke="midnightblue" points="471.6,-129.73 481.11,-134.4 476.59,-124.81 471.6,-129.73"/>
</g>
<!-- Node14 -->
<g id="node14" class="node">
<title>Node14</title>
<g id="a_node14"><a xlink:href="vfs__impl_8h_source.html" target="_top" xlink:title=" ">
<polygon fill="white" stroke="black" points="509,-67.5 509,-97.5 619,-97.5 619,-67.5 509,-67.5"/>
<text text-anchor="start" x="517" y="-85.5" font-family="Helvetica,sans-Serif" font-size="10.00">l4/l4re_vfs/impl/vfs</text>
<text text-anchor="middle" x="564" y="-74.5" font-family="Helvetica,sans-Serif" font-size="10.00">_impl.h</text>
</a>
</g>
</g>
<!-- Node12&#45;&gt;Node14 -->
<g id="edge14" class="edge">
<title>Node12&#45;&gt;Node14</title>
<path fill="none" stroke="midnightblue" d="M517.49,-127.31C527.84,-117.56 539.84,-106.26 549.06,-97.58"/>
<polygon fill="midnightblue" stroke="midnightblue" points="514.85,-124.99 509.97,-134.4 519.65,-130.09 514.85,-124.99"/>
</g>
<!-- Node16 -->
<g id="node16" class="node">
<title>Node16</title>
<g id="a_node16"><a xlink:href="env.html" target="_top" xlink:title="Environment interface.">
<polygon fill="white" stroke="black" points="657.5,-140 657.5,-159 716.5,-159 716.5,-140 657.5,-140"/>
<text text-anchor="middle" x="687" y="-147" font-family="Helvetica,sans-Serif" font-size="10.00">l4/re/env</text>
</a>
</g>
</g>
<!-- Node15&#45;&gt;Node16 -->
<g id="edge16" class="edge">
<title>Node15&#45;&gt;Node16</title>
<path fill="none" stroke="midnightblue" d="M675.24,-191.66C678.35,-180.77 682.15,-167.49 684.57,-159.01"/>
<polygon fill="midnightblue" stroke="midnightblue" points="671.82,-190.9 672.44,-201.48 678.55,-192.82 671.82,-190.9"/>
</g>
<!-- Node16&#45;&gt;Node3 -->
<g id="edge29" class="edge">
<title>Node16&#45;&gt;Node3</title>
<path fill="none" stroke="midnightblue" d="M647.49,-143.85C623.14,-140.99 591.26,-137.26 563,-134 422.58,-117.79 387.34,-114.92 247,-98 231.35,-96.11 214.51,-94.01 198.69,-92"/>
<polygon fill="midnightblue" stroke="midnightblue" points="647.1,-147.33 657.44,-145.02 647.92,-140.38 647.1,-147.33"/>
</g>
<!-- Node16&#45;&gt;Node4 -->
<g id="edge18" class="edge">
<title>Node16&#45;&gt;Node4</title>
<path fill="none" stroke="midnightblue" d="M679.61,-130.75C670.54,-111.44 653.2,-81.4 628,-67 554.16,-24.8 331.3,-42.24 247,-31 234.82,-29.38 221.71,-27.28 209.56,-25.19"/>
<polygon fill="midnightblue" stroke="midnightblue" points="676.44,-132.24 683.69,-139.97 682.84,-129.41 676.44,-132.24"/>
</g>
<!-- Node16&#45;&gt;Node7 -->
<g id="edge19" class="edge">
<title>Node16&#45;&gt;Node7</title>
<path fill="none" stroke="midnightblue" d="M647.21,-143.56C585.72,-135.64 464.07,-118.86 362,-98 359.3,-97.45 356.53,-96.85 353.75,-96.22"/>
<polygon fill="midnightblue" stroke="midnightblue" points="646.89,-147.04 657.26,-144.84 647.78,-140.1 646.89,-147.04"/>
</g>
<!-- Node16&#45;&gt;Node13 -->
<g id="edge21" class="edge">
<title>Node16&#45;&gt;Node13</title>
<path fill="none" stroke="midnightblue" d="M647.54,-138.48C604.39,-127.52 534.93,-109.89 486.34,-97.55"/>
<polygon fill="midnightblue" stroke="midnightblue" points="646.83,-141.91 657.38,-140.98 648.55,-135.13 646.83,-141.91"/>
</g>
<!-- Node16&#45;&gt;Node14 -->
<g id="edge22" class="edge">
<title>Node16&#45;&gt;Node14</title>
<path fill="none" stroke="midnightblue" d="M661.82,-135.19C641.13,-124.26 611.89,-108.81 590.78,-97.65"/>
<polygon fill="midnightblue" stroke="midnightblue" points="660.19,-138.29 670.67,-139.87 663.46,-132.1 660.19,-138.29"/>
</g>
<!-- Node17 -->
<g id="node17" class="node">
<title>Node17</title>
<g id="a_node17"><a xlink:href="vcpu_source.html" target="_top" xlink:title=" ">
<polygon fill="white" stroke="black" points="942,-73 942,-92 1020,-92 1020,-73 942,-73"/>
<text text-anchor="middle" x="981" y="-80" font-family="Helvetica,sans-Serif" font-size="10.00">l4/vcpu/vcpu</text>
</a>
</g>
</g>
<!-- Node16&#45;&gt;Node17 -->
<g id="edge17" class="edge">
<title>Node16&#45;&gt;Node17</title>
<path fill="none" stroke="midnightblue" d="M726.58,-141.52C775.4,-132.65 860.79,-116.28 933,-98 939.92,-96.25 947.33,-94.13 954.21,-92.06"/>
<polygon fill="midnightblue" stroke="midnightblue" points="725.95,-138.08 716.73,-143.3 727.2,-144.97 725.95,-138.08"/>
</g>
<!-- Node18 -->
<g id="node18" class="node">
<title>Node18</title>
<g id="a_node18"><a xlink:href="ro__file__impl_8h_source.html" target="_top" xlink:title=" ">
<polygon fill="white" stroke="black" points="675.5,-67.5 675.5,-97.5 780.5,-97.5 780.5,-67.5 675.5,-67.5"/>
<text text-anchor="start" x="683.5" y="-85.5" font-family="Helvetica,sans-Serif" font-size="10.00">l4/l4re_vfs/impl/ro</text>
<text text-anchor="middle" x="728" y="-74.5" font-family="Helvetica,sans-Serif" font-size="10.00">_file_impl.h</text>
</a>
</g>
</g>
<!-- Node16&#45;&gt;Node18 -->
<g id="edge20" class="edge">
<title>Node16&#45;&gt;Node18</title>
<path fill="none" stroke="midnightblue" d="M698.02,-131.03C704.63,-120.56 712.92,-107.4 719.11,-97.59"/>
<polygon fill="midnightblue" stroke="midnightblue" points="694.9,-129.41 692.53,-139.73 700.82,-133.14 694.9,-129.41"/>
</g>
<!-- Node19 -->
<g id="node19" class="node">
<title>Node19</title>
<g id="a_node19"><a xlink:href="env__ns_source.html" target="_top" xlink:title=" ">
<polygon fill="white" stroke="black" points="1038.5,-73 1038.5,-92 1133.5,-92 1133.5,-73 1038.5,-73"/>
<text text-anchor="middle" x="1086" y="-80" font-family="Helvetica,sans-Serif" font-size="10.00">l4/re/util/env_ns</text>
</a>
</g>
</g>
<!-- Node16&#45;&gt;Node19 -->
<g id="edge23" class="edge">
<title>Node16&#45;&gt;Node19</title>
<path fill="none" stroke="midnightblue" d="M726.99,-143.94C791.07,-136.34 920.58,-119.74 1029,-98 1037.41,-96.31 1046.44,-94.17 1054.77,-92.06"/>
<polygon fill="midnightblue" stroke="midnightblue" points="726.44,-140.49 716.91,-145.13 727.25,-147.44 726.44,-140.49"/>
</g>
<!-- Node21 -->
<g id="node21" class="node">
<title>Node21</title>
<g id="a_node21"><a xlink:href="util_2event.html" target="_top" xlink:title=" ">
<polygon fill="white" stroke="black" points="1265,-73 1265,-92 1353,-92 1353,-73 1265,-73"/>
<text text-anchor="middle" x="1309" y="-80" font-family="Helvetica,sans-Serif" font-size="10.00">l4/re/util/event</text>
</a>
</g>
</g>
<!-- Node16&#45;&gt;Node21 -->
<g id="edge25" class="edge">
<title>Node16&#45;&gt;Node21</title>
<path fill="none" stroke="midnightblue" d="M726.66,-147.41C819.77,-144.33 1059.33,-133.34 1256,-98 1264.36,-96.5 1273.31,-94.29 1281.43,-92.04"/>
<polygon fill="midnightblue" stroke="midnightblue" points="726.45,-143.92 716.56,-147.73 726.67,-150.91 726.45,-143.92"/>
</g>
<!-- Node16&#45;&gt;Node22 -->
<g id="edge26" class="edge">
<title>Node16&#45;&gt;Node22</title>
<path fill="none" stroke="midnightblue" d="M726.81,-144.05C752.54,-141.17 786.75,-137.36 817,-134 961.88,-117.92 999.63,-124.34 1143,-98 1151.59,-96.42 1160.81,-94.24 1169.24,-92.05"/>
<polygon fill="midnightblue" stroke="midnightblue" points="726.24,-140.59 716.69,-145.18 727.01,-147.55 726.24,-140.59"/>
</g>
<!-- Node24 -->
<g id="node24" class="node">
<title>Node24</title>
<g id="a_node24"><a xlink:href="kumem__alloc.html" target="_top" xlink:title="Kumem allocator helper.">
<polygon fill="white" stroke="black" points="798.5,-73 798.5,-92 923.5,-92 923.5,-73 798.5,-73"/>
<text text-anchor="middle" x="861" y="-80" font-family="Helvetica,sans-Serif" font-size="10.00">l4/re/util/kumem_alloc</text>
</a>
</g>
</g>
<!-- Node16&#45;&gt;Node24 -->
<g id="edge28" class="edge">
<title>Node16&#45;&gt;Node24</title>
<path fill="none" stroke="midnightblue" d="M719.74,-136.27C754.27,-123.37 807.79,-103.38 838.08,-92.06"/>
<polygon fill="midnightblue" stroke="midnightblue" points="718.25,-133.09 710.11,-139.87 720.7,-139.65 718.25,-133.09"/>
</g>
<!-- Node20 -->
<g id="node20" class="node">
<title>Node20</title>
<g id="a_node20"><a xlink:href="ns__fs__impl_8h_source.html" target="_top" xlink:title=" ">
<polygon fill="white" stroke="black" points="1032.5,-0.5 1032.5,-30.5 1139.5,-30.5 1139.5,-0.5 1032.5,-0.5"/>
<text text-anchor="start" x="1040.5" y="-18.5" font-family="Helvetica,sans-Serif" font-size="10.00">l4/l4re_vfs/impl/ns</text>
<text text-anchor="middle" x="1086" y="-7.5" font-family="Helvetica,sans-Serif" font-size="10.00">_fs_impl.h</text>
</a>
</g>
</g>
<!-- Node19&#45;&gt;Node20 -->
<g id="edge24" class="edge">
<title>Node19&#45;&gt;Node20</title>
<path fill="none" stroke="midnightblue" d="M1086,-62.41C1086,-52.22 1086,-39.9 1086,-30.59"/>
<polygon fill="midnightblue" stroke="midnightblue" points="1082.5,-62.73 1086,-72.73 1089.5,-62.73 1082.5,-62.73"/>
</g>
<!-- Node23 -->
<g id="node23" class="node">
<title>Node23</title>
<g id="a_node23"><a xlink:href="event__svr_source.html" target="_top" xlink:title=" ">
<polygon fill="white" stroke="black" points="1242,-6 1242,-25 1350,-25 1350,-6 1242,-6"/>
<text text-anchor="middle" x="1296" y="-13" font-family="Helvetica,sans-Serif" font-size="10.00">l4/re/util/event_svr</text>
</a>
</g>
</g>
<!-- Node22&#45;&gt;Node23 -->
<g id="edge27" class="edge">
<title>Node22&#45;&gt;Node23</title>
<path fill="none" stroke="midnightblue" d="M1220.5,-67.09C1239.69,-54.24 1267.15,-35.83 1283.13,-25.13"/>
<polygon fill="midnightblue" stroke="midnightblue" points="1218.44,-64.26 1212.08,-72.73 1222.34,-70.07 1218.44,-64.26"/>
</g>
<!-- Node28 -->
<g id="node28" class="node">
<title>Node28</title>
<g id="a_node28"><a xlink:href="vbus__generic_source.html" target="_top" xlink:title=" ">
<polygon fill="white" stroke="black" points="1097.5,-201.5 1097.5,-220.5 1216.5,-220.5 1216.5,-201.5 1097.5,-201.5"/>
<text text-anchor="middle" x="1157" y="-208.5" font-family="Helvetica,sans-Serif" font-size="10.00">l4/vbus/vbus_generic</text>
</a>
</g>
</g>
<!-- Node27&#45;&gt;Node28 -->
<g id="edge34" class="edge">
<title>Node27&#45;&gt;Node28</title>
<path fill="none" stroke="midnightblue" d="M1059.39,-253.5C1083.2,-243.38 1116.11,-229.39 1136.97,-220.52"/>
<polygon fill="midnightblue" stroke="midnightblue" points="1057.96,-250.31 1050.12,-257.44 1060.7,-256.75 1057.96,-250.31"/>
</g>
<!-- Node29 -->
<g id="node29" class="node">
<title>Node29</title>
<g id="a_node29"><a xlink:href="vbus__gpio_source.html" target="_top" xlink:title=" ">
<polygon fill="white" stroke="black" points="859,-201.5 859,-220.5 963,-220.5 963,-201.5 859,-201.5"/>
<text text-anchor="middle" x="911" y="-208.5" font-family="Helvetica,sans-Serif" font-size="10.00">l4/vbus/vbus_gpio</text>
</a>
</g>
</g>
<!-- Node27&#45;&gt;Node29 -->
<g id="edge35" class="edge">
<title>Node27&#45;&gt;Node29</title>
<path fill="none" stroke="midnightblue" d="M1001.86,-253.23C979.6,-243.13 949.14,-229.31 929.77,-220.52"/>
<polygon fill="midnightblue" stroke="midnightblue" points="1000.59,-256.5 1011.14,-257.44 1003.48,-250.12 1000.59,-256.5"/>
</g>
<!-- Node30 -->
<g id="node30" class="node">
<title>Node30</title>
<g id="a_node30"><a xlink:href="vbus__pci_source.html" target="_top" xlink:title=" ">
<polygon fill="white" stroke="black" points="981,-201.5 981,-220.5 1079,-220.5 1079,-201.5 981,-201.5"/>
<text text-anchor="middle" x="1030" y="-208.5" font-family="Helvetica,sans-Serif" font-size="10.00">l4/vbus/vbus_pci</text>
</a>
</g>
</g>
<!-- Node27&#45;&gt;Node30 -->
<g id="edge36" class="edge">
<title>Node27&#45;&gt;Node30</title>
<path fill="none" stroke="midnightblue" d="M1030,-246.8C1030,-237.91 1030,-227.78 1030,-220.75"/>
<polygon fill="midnightblue" stroke="midnightblue" points="1026.5,-247.08 1030,-257.08 1033.5,-247.08 1026.5,-247.08"/>
</g>
<!-- Node31&#45;&gt;Node4 -->
<g id="edge38" class="edge">
<title>Node31&#45;&gt;Node4</title>
<path fill="none" stroke="midnightblue" d="M218.25,-198.86C166.94,-184.91 91.81,-155.51 57,-98 49.87,-86.21 49.65,-78.65 57,-67 70.11,-46.23 94.37,-33.82 116.37,-26.51"/>
<polygon fill="midnightblue" stroke="midnightblue" points="217.61,-202.31 228.17,-201.45 219.38,-195.54 217.61,-202.31"/>
</g>
<!-- Node31&#45;&gt;Node12 -->
<g id="edge39" class="edge">
<title>Node31&#45;&gt;Node12</title>
<path fill="none" stroke="midnightblue" d="M312.94,-198.86C349.52,-189.14 402.74,-175.01 442.21,-164.52"/>
<polygon fill="midnightblue" stroke="midnightblue" points="311.86,-195.53 303.09,-201.48 313.66,-202.29 311.86,-195.53"/>
</g>
<!-- Node32&#45;&gt;Node23 -->
<g id="edge44" class="edge">
<title>Node32&#45;&gt;Node23</title>
<path fill="none" stroke="midnightblue" d="M1289.42,-314.85C1313.94,-308.73 1343.15,-297.48 1362,-277 1382.38,-254.86 1381,-242.1 1381,-212 1381,-212 1381,-212 1381,-148.5 1381,-111.31 1382.18,-98.25 1362,-67 1349.87,-48.21 1328.23,-33.66 1313.05,-25.11"/>
<polygon fill="midnightblue" stroke="midnightblue" points="1288.56,-311.46 1279.59,-317.11 1290.12,-318.28 1288.56,-311.46"/>
</g>
<!-- Node32&#45;&gt;Node27 -->
<g id="edge45" class="edge">
<title>Node32&#45;&gt;Node27</title>
<path fill="none" stroke="midnightblue" d="M1201.04,-310.96C1160.43,-300.76 1100.96,-285.82 1063.91,-276.52"/>
<polygon fill="midnightblue" stroke="midnightblue" points="1200.38,-314.4 1210.93,-313.44 1202.09,-307.61 1200.38,-314.4"/>
</g>
<!-- Node33 -->
<g id="node33" class="node">
<title>Node33</title>
<g id="a_node33"><a xlink:href="console_source.html" target="_top" xlink:title=" ">
<polygon fill="white" stroke="black" points="1273.5,-257.5 1273.5,-276.5 1352.5,-276.5 1352.5,-257.5 1273.5,-257.5"/>
<text text-anchor="middle" x="1313" y="-264.5" font-family="Helvetica,sans-Serif" font-size="10.00">l4/re/console</text>
</a>
</g>
</g>
<!-- Node32&#45;&gt;Node33 -->
<g id="edge41" class="edge">
<title>Node32&#45;&gt;Node33</title>
<path fill="none" stroke="midnightblue" d="M1263.76,-307.1C1276,-297.38 1291.56,-285.03 1301.88,-276.83"/>
<polygon fill="midnightblue" stroke="midnightblue" points="1261.58,-304.36 1255.93,-313.32 1265.93,-309.85 1261.58,-304.36"/>
</g>
<!-- Node34 -->
<g id="node34" class="node">
<title>Node34</title>
<g id="a_node34"><a xlink:href="event__buffer_source.html" target="_top" xlink:title=" ">
<polygon fill="white" stroke="black" points="1207,-140 1207,-159 1329,-159 1329,-140 1207,-140"/>
<text text-anchor="middle" x="1268" y="-147" font-family="Helvetica,sans-Serif" font-size="10.00">l4/re/util/event_buffer</text>
</a>
</g>
</g>
<!-- Node32&#45;&gt;Node34 -->
<g id="edge42" class="edge">
<title>Node32&#45;&gt;Node34</title>
<path fill="none" stroke="midnightblue" d="M1247.5,-303.33C1252.45,-266.43 1263.31,-185.44 1266.86,-159.02"/>
<polygon fill="midnightblue" stroke="midnightblue" points="1244.03,-302.88 1246.17,-313.26 1250.97,-303.81 1244.03,-302.88"/>
</g>
<!-- Node34&#45;&gt;Node21 -->
<g id="edge43" class="edge">
<title>Node34&#45;&gt;Node21</title>
<path fill="none" stroke="midnightblue" d="M1279.02,-131.03C1286.95,-118.45 1297.33,-102.01 1303.56,-92.13"/>
<polygon fill="midnightblue" stroke="midnightblue" points="1275.9,-129.41 1273.53,-139.73 1281.82,-133.14 1275.9,-129.41"/>
</g>
</g>
</svg>
