<?xml version="1.0" encoding="UTF-8" standalone="no"?>
<!DOCTYPE svg PUBLIC "-//W3C//DTD SVG 1.1//EN"
 "http://www.w3.org/Graphics/SVG/1.1/DTD/svg11.dtd">
<!-- Generated by graphviz version 2.43.0 (0)
 -->
<!-- Title: l4/sys/rcv_endpoint.h Pages: 1 -->
<svg width="566pt" height="364pt"
 viewBox="0.00 0.00 565.95 364.00" xmlns="http://www.w3.org/2000/svg" xmlns:xlink="http://www.w3.org/1999/xlink">
<g id="graph0" class="graph" transform="scale(1 1) rotate(0) translate(4 360)">
<title>l4/sys/rcv_endpoint.h</title>
<polygon fill="white" stroke="transparent" points="-4,4 -4,-360 561.95,-360 561.95,4 -4,4"/>
<!-- Node1 -->
<g id="node1" class="node">
<title>Node1</title>
<g id="a_node1"><a xlink:title="Receive endpoint C interface.">
<polygon fill="#bfbfbf" stroke="black" points="206,-336.5 206,-355.5 326,-355.5 326,-336.5 206,-336.5"/>
<text text-anchor="middle" x="266" y="-343.5" font-family="Helvetica,sans-Serif" font-size="10.00">l4/sys/rcv_endpoint.h</text>
</a>
</g>
</g>
<!-- Node2 -->
<g id="node2" class="node">
<title>Node2</title>
<g id="a_node2"><a xlink:href="l4_2sys_2utcb_8h.html" target="_top" xlink:title="UTCB definitions.">
<polygon fill="white" stroke="black" points="227,-224.5 227,-243.5 305,-243.5 305,-224.5 227,-224.5"/>
<text text-anchor="middle" x="266" y="-231.5" font-family="Helvetica,sans-Serif" font-size="10.00">l4/sys/utcb.h</text>
</a>
</g>
</g>
<!-- Node1&#45;&gt;Node2 -->
<g id="edge1" class="edge">
<title>Node1&#45;&gt;Node2</title>
<path fill="none" stroke="midnightblue" d="M266,-336.37C266,-318.62 266,-277.67 266,-253.6"/>
<polygon fill="midnightblue" stroke="midnightblue" points="269.5,-253.59 266,-243.59 262.5,-253.59 269.5,-253.59"/>
</g>
<!-- Node3 -->
<g id="node3" class="node">
<title>Node3</title>
<g id="a_node3"><a xlink:href="l4_2sys_2types_8h.html" target="_top" xlink:title="Common L4 ABI Data Types.">
<polygon fill="white" stroke="black" points="258,-168.5 258,-187.5 342,-187.5 342,-168.5 258,-168.5"/>
<text text-anchor="middle" x="300" y="-175.5" font-family="Helvetica,sans-Serif" font-size="10.00">l4/sys/types.h</text>
</a>
</g>
</g>
<!-- Node1&#45;&gt;Node3 -->
<g id="edge15" class="edge">
<title>Node1&#45;&gt;Node3</title>
<path fill="none" stroke="midnightblue" d="M271.79,-336.3C282.66,-319.4 305.76,-280.55 314,-244 317.57,-228.18 313.01,-210.16 308.16,-197.11"/>
<polygon fill="midnightblue" stroke="midnightblue" points="311.4,-195.77 304.37,-187.84 304.92,-198.42 311.4,-195.77"/>
</g>
<!-- Node10 -->
<g id="node10" class="node">
<title>Node10</title>
<g id="a_node10"><a xlink:href="l4_2sys_2ipc_8h.html" target="_top" xlink:title="Common IPC interface.">
<polygon fill="white" stroke="black" points="165.5,-280.5 165.5,-299.5 236.5,-299.5 236.5,-280.5 165.5,-280.5"/>
<text text-anchor="middle" x="201" y="-287.5" font-family="Helvetica,sans-Serif" font-size="10.00">l4/sys/ipc.h</text>
</a>
</g>
</g>
<!-- Node1&#45;&gt;Node10 -->
<g id="edge16" class="edge">
<title>Node1&#45;&gt;Node10</title>
<path fill="none" stroke="midnightblue" d="M255.56,-336.32C245.85,-328.26 231.18,-316.08 219.5,-306.37"/>
<polygon fill="midnightblue" stroke="midnightblue" points="221.56,-303.53 211.63,-299.83 217.09,-308.92 221.56,-303.53"/>
</g>
<!-- Node2&#45;&gt;Node3 -->
<g id="edge2" class="edge">
<title>Node2&#45;&gt;Node3</title>
<path fill="none" stroke="midnightblue" d="M271.61,-224.08C276.37,-216.53 283.32,-205.49 289.15,-196.23"/>
<polygon fill="midnightblue" stroke="midnightblue" points="292.12,-198.08 294.49,-187.75 286.2,-194.35 292.12,-198.08"/>
</g>
<!-- Node4 -->
<g id="node4" class="node">
<title>Node4</title>
<g id="a_node4"><a xlink:href="l4_2sys_2l4int_8h.html" target="_top" xlink:title="Fixed sized integer types, generic version.">
<polygon fill="white" stroke="black" points="410.5,-56.5 410.5,-75.5 489.5,-75.5 489.5,-56.5 410.5,-56.5"/>
<text text-anchor="middle" x="450" y="-63.5" font-family="Helvetica,sans-Serif" font-size="10.00">l4/sys/l4int.h</text>
</a>
</g>
</g>
<!-- Node2&#45;&gt;Node4 -->
<g id="edge14" class="edge">
<title>Node2&#45;&gt;Node4</title>
<path fill="none" stroke="midnightblue" d="M305.13,-232.5C369.43,-229.3 495.99,-212.5 553,-132 571.1,-106.45 533.8,-88.71 499.13,-78.29"/>
<polygon fill="midnightblue" stroke="midnightblue" points="500.05,-74.91 489.47,-75.55 498.13,-81.65 500.05,-74.91"/>
</g>
<!-- Node5 -->
<g id="node5" class="node">
<title>Node5</title>
<g id="a_node5"><a xlink:href="compiler_8h.html" target="_top" xlink:title="L4 compiler related defines.">
<polygon fill="white" stroke="black" points="131.5,-56.5 131.5,-75.5 230.5,-75.5 230.5,-56.5 131.5,-56.5"/>
<text text-anchor="middle" x="181" y="-63.5" font-family="Helvetica,sans-Serif" font-size="10.00">l4/sys/compiler.h</text>
</a>
</g>
</g>
<!-- Node2&#45;&gt;Node5 -->
<g id="edge13" class="edge">
<title>Node2&#45;&gt;Node5</title>
<path fill="none" stroke="midnightblue" d="M240.78,-224.5C205.61,-211.11 143.21,-181.42 117,-132 105.83,-110.94 129.92,-92.18 151.66,-80.29"/>
<polygon fill="midnightblue" stroke="midnightblue" points="153.44,-83.31 160.73,-75.63 150.23,-77.09 153.44,-83.31"/>
</g>
<!-- Node3&#45;&gt;Node4 -->
<g id="edge3" class="edge">
<title>Node3&#45;&gt;Node4</title>
<path fill="none" stroke="midnightblue" d="M322.36,-168.5C341.39,-160.66 368.91,-147.85 390,-132 408.71,-117.94 426.4,-97.59 437.66,-83.42"/>
<polygon fill="midnightblue" stroke="midnightblue" points="440.43,-85.55 443.79,-75.5 434.9,-81.27 440.43,-85.55"/>
</g>
<!-- Node3&#45;&gt;Node5 -->
<g id="edge4" class="edge">
<title>Node3&#45;&gt;Node5</title>
<path fill="none" stroke="midnightblue" d="M293.85,-168.4C284.28,-155.35 264.86,-130.15 245,-112 232.34,-100.42 216.58,-89.31 203.88,-81.03"/>
<polygon fill="midnightblue" stroke="midnightblue" points="205.56,-77.95 195.25,-75.53 201.8,-83.85 205.56,-77.95"/>
</g>
<!-- Node7 -->
<g id="node7" class="node">
<title>Node7</title>
<g id="a_node7"><a xlink:href="l4_2sys_2consts_8h.html" target="_top" xlink:title="Common constants.">
<polygon fill="white" stroke="black" points="292.5,-112.5 292.5,-131.5 381.5,-131.5 381.5,-112.5 292.5,-112.5"/>
<text text-anchor="middle" x="337" y="-119.5" font-family="Helvetica,sans-Serif" font-size="10.00">l4/sys/consts.h</text>
</a>
</g>
</g>
<!-- Node3&#45;&gt;Node7 -->
<g id="edge6" class="edge">
<title>Node3&#45;&gt;Node7</title>
<path fill="none" stroke="midnightblue" d="M306.11,-168.08C311.28,-160.53 318.85,-149.49 325.19,-140.23"/>
<polygon fill="midnightblue" stroke="midnightblue" points="328.24,-141.98 331,-131.75 322.46,-138.02 328.24,-141.98"/>
</g>
<!-- Node8 -->
<g id="node8" class="node">
<title>Node8</title>
<g id="a_node8"><a xlink:href="____l4__fpage_8h_source.html" target="_top" xlink:title=" ">
<polygon fill="white" stroke="black" points="126,-112.5 126,-131.5 236,-131.5 236,-112.5 126,-112.5"/>
<text text-anchor="middle" x="181" y="-119.5" font-family="Helvetica,sans-Serif" font-size="10.00">l4/sys/__l4_fpage.h</text>
</a>
</g>
</g>
<!-- Node3&#45;&gt;Node8 -->
<g id="edge9" class="edge">
<title>Node3&#45;&gt;Node8</title>
<path fill="none" stroke="midnightblue" d="M281.14,-168.44C261.73,-159.64 231.27,-145.81 209.04,-135.72"/>
<polygon fill="midnightblue" stroke="midnightblue" points="210.32,-132.46 199.77,-131.52 207.43,-138.84 210.32,-132.46"/>
</g>
<!-- Node9 -->
<g id="node9" class="node">
<title>Node9</title>
<g id="a_node9"><a xlink:href="____timeout_8h_source.html" target="_top" xlink:title=" ">
<polygon fill="white" stroke="black" points="438,-112.5 438,-131.5 544,-131.5 544,-112.5 438,-112.5"/>
<text text-anchor="middle" x="491" y="-119.5" font-family="Helvetica,sans-Serif" font-size="10.00">l4/sys/__timeout.h</text>
</a>
</g>
</g>
<!-- Node3&#45;&gt;Node9 -->
<g id="edge11" class="edge">
<title>Node3&#45;&gt;Node9</title>
<path fill="none" stroke="midnightblue" d="M330.26,-168.44C362.96,-159.2 415.18,-144.44 451.18,-134.26"/>
<polygon fill="midnightblue" stroke="midnightblue" points="452.21,-137.61 460.88,-131.52 450.3,-130.87 452.21,-137.61"/>
</g>
<!-- Node6 -->
<g id="node6" class="node">
<title>Node6</title>
<g id="a_node6"><a xlink:title=" ">
<polygon fill="white" stroke="#bfbfbf" points="135,-0.5 135,-19.5 227,-19.5 227,-0.5 135,-0.5"/>
<text text-anchor="middle" x="181" y="-7.5" font-family="Helvetica,sans-Serif" font-size="10.00">l4/sys/linkage.h</text>
</a>
</g>
</g>
<!-- Node5&#45;&gt;Node6 -->
<g id="edge5" class="edge">
<title>Node5&#45;&gt;Node6</title>
<path fill="none" stroke="midnightblue" d="M181,-56.08C181,-49.01 181,-38.86 181,-29.99"/>
<polygon fill="midnightblue" stroke="midnightblue" points="184.5,-29.75 181,-19.75 177.5,-29.75 184.5,-29.75"/>
</g>
<!-- Node7&#45;&gt;Node4 -->
<g id="edge8" class="edge">
<title>Node7&#45;&gt;Node4</title>
<path fill="none" stroke="midnightblue" d="M354.91,-112.44C373.25,-103.68 402.01,-89.94 423.09,-79.86"/>
<polygon fill="midnightblue" stroke="midnightblue" points="424.67,-82.99 432.18,-75.52 421.65,-76.67 424.67,-82.99"/>
</g>
<!-- Node7&#45;&gt;Node5 -->
<g id="edge7" class="edge">
<title>Node7&#45;&gt;Node5</title>
<path fill="none" stroke="midnightblue" d="M312.28,-112.44C286.15,-103.4 244.74,-89.06 215.42,-78.92"/>
<polygon fill="midnightblue" stroke="midnightblue" points="216.2,-75.48 205.6,-75.52 213.91,-82.1 216.2,-75.48"/>
</g>
<!-- Node8&#45;&gt;Node5 -->
<g id="edge10" class="edge">
<title>Node8&#45;&gt;Node5</title>
<path fill="none" stroke="midnightblue" d="M181,-112.08C181,-105.01 181,-94.86 181,-85.99"/>
<polygon fill="midnightblue" stroke="midnightblue" points="184.5,-85.75 181,-75.75 177.5,-85.75 184.5,-85.75"/>
</g>
<!-- Node9&#45;&gt;Node4 -->
<g id="edge12" class="edge">
<title>Node9&#45;&gt;Node4</title>
<path fill="none" stroke="midnightblue" d="M484.23,-112.08C478.44,-104.46 469.94,-93.26 462.86,-83.94"/>
<polygon fill="midnightblue" stroke="midnightblue" points="465.48,-81.6 456.64,-75.75 459.9,-85.83 465.48,-81.6"/>
</g>
<!-- Node10&#45;&gt;Node2 -->
<g id="edge18" class="edge">
<title>Node10&#45;&gt;Node2</title>
<path fill="none" stroke="midnightblue" d="M211.44,-280.32C221.15,-272.26 235.82,-260.08 247.5,-250.37"/>
<polygon fill="midnightblue" stroke="midnightblue" points="249.91,-252.92 255.37,-243.83 245.44,-247.53 249.91,-252.92"/>
</g>
<!-- Node10&#45;&gt;Node3 -->
<g id="edge17" class="edge">
<title>Node10&#45;&gt;Node3</title>
<path fill="none" stroke="midnightblue" d="M201.15,-280.48C201.79,-267.1 204.8,-240.92 218,-224 229.41,-209.37 246.98,-198.83 262.93,-191.65"/>
<polygon fill="midnightblue" stroke="midnightblue" points="264.71,-194.7 272.58,-187.61 262,-188.24 264.71,-194.7"/>
</g>
<!-- Node11 -->
<g id="node11" class="node">
<title>Node11</title>
<g id="a_node11"><a xlink:href="err_8h.html" target="_top" xlink:title="Error codes.">
<polygon fill="white" stroke="black" points="0,-168.5 0,-187.5 70,-187.5 70,-168.5 0,-168.5"/>
<text text-anchor="middle" x="35" y="-175.5" font-family="Helvetica,sans-Serif" font-size="10.00">l4/sys/err.h</text>
</a>
</g>
</g>
<!-- Node10&#45;&gt;Node11 -->
<g id="edge19" class="edge">
<title>Node10&#45;&gt;Node11</title>
<path fill="none" stroke="midnightblue" d="M187.97,-280.37C159.49,-261.49 91.42,-216.38 56.48,-193.24"/>
<polygon fill="midnightblue" stroke="midnightblue" points="58.23,-190.2 47.97,-187.59 54.37,-196.03 58.23,-190.2"/>
</g>
<!-- Node11&#45;&gt;Node5 -->
<g id="edge20" class="edge">
<title>Node11&#45;&gt;Node5</title>
<path fill="none" stroke="midnightblue" d="M39.65,-168.35C47.31,-154.77 63.77,-128.34 84,-112 101.91,-97.53 125.24,-86.51 144.53,-79.01"/>
<polygon fill="midnightblue" stroke="midnightblue" points="145.77,-82.28 153.91,-75.5 143.32,-75.72 145.77,-82.28"/>
</g>
</g>
</svg>
