<?xml version="1.0" encoding="UTF-8" standalone="no"?>
<!DOCTYPE svg PUBLIC "-//W3C//DTD SVG 1.1//EN"
 "http://www.w3.org/Graphics/SVG/1.1/DTD/svg11.dtd">
<!-- Generated by graphviz version 2.43.0 (0)
 -->
<!-- Title: l4/sys/rcv_endpoint.h Pages: 1 -->
<svg width="1339pt" height="509pt"
 viewBox="0.00 0.00 1338.60 509.00" xmlns="http://www.w3.org/2000/svg" xmlns:xlink="http://www.w3.org/1999/xlink">
<g id="graph0" class="graph" transform="scale(1 1) rotate(0) translate(4 505)">
<title>l4/sys/rcv_endpoint.h</title>
<polygon fill="white" stroke="transparent" points="-4,4 -4,-505 1334.6,-505 1334.6,4 -4,4"/>
<!-- Node1 -->
<g id="node1" class="node">
<title>Node1</title>
<g id="a_node1"><a xlink:title="Receive endpoint C interface.">
<polygon fill="#bfbfbf" stroke="black" points="423.24,-481.5 423.24,-500.5 543.24,-500.5 543.24,-481.5 423.24,-481.5"/>
<text text-anchor="middle" x="483.24" y="-488.5" font-family="Helvetica,sans-Serif" font-size="10.00">l4/sys/rcv_endpoint.h</text>
</a>
</g>
</g>
<!-- Node2 -->
<g id="node2" class="node">
<title>Node2</title>
<g id="a_node2"><a xlink:href="ipc__gate_8h.html" target="_top" xlink:title="The C IPC gate interface.">
<polygon fill="white" stroke="black" points="557.24,-425.5 557.24,-444.5 655.24,-444.5 655.24,-425.5 557.24,-425.5"/>
<text text-anchor="middle" x="606.24" y="-432.5" font-family="Helvetica,sans-Serif" font-size="10.00">l4/sys/ipc_gate.h</text>
</a>
</g>
</g>
<!-- Node1&#45;&gt;Node2 -->
<g id="edge1" class="edge">
<title>Node1&#45;&gt;Node2</title>
<path fill="none" stroke="midnightblue" d="M512.01,-477.37C535.04,-467.26 566.72,-453.35 586.84,-444.52"/>
<polygon fill="midnightblue" stroke="midnightblue" points="510.48,-474.22 502.73,-481.44 513.29,-480.63 510.48,-474.22"/>
</g>
<!-- Node6 -->
<g id="node6" class="node">
<title>Node6</title>
<g id="a_node6"><a xlink:href="l4_2sys_2irq_8h.html" target="_top" xlink:title="C Irq interface.">
<polygon fill="white" stroke="black" points="339.24,-425.5 339.24,-444.5 409.24,-444.5 409.24,-425.5 339.24,-425.5"/>
<text text-anchor="middle" x="374.24" y="-432.5" font-family="Helvetica,sans-Serif" font-size="10.00">l4/sys/irq.h</text>
</a>
</g>
</g>
<!-- Node1&#45;&gt;Node6 -->
<g id="edge5" class="edge">
<title>Node1&#45;&gt;Node6</title>
<path fill="none" stroke="midnightblue" d="M456.72,-476.86C436.51,-466.85 409.25,-453.35 391.71,-444.65"/>
<polygon fill="midnightblue" stroke="midnightblue" points="455.21,-480.02 465.72,-481.32 458.32,-473.75 455.21,-480.02"/>
</g>
<!-- Node38 -->
<g id="node38" class="node">
<title>Node38</title>
<g id="a_node38"><a xlink:href="rcv__endpoint.html" target="_top" xlink:title="The C++ Receive endpoint interface.">
<polygon fill="white" stroke="black" points="427.74,-425.5 427.74,-444.5 538.74,-444.5 538.74,-425.5 427.74,-425.5"/>
<text text-anchor="middle" x="483.24" y="-432.5" font-family="Helvetica,sans-Serif" font-size="10.00">l4/sys/rcv_endpoint</text>
</a>
</g>
</g>
<!-- Node1&#45;&gt;Node38 -->
<g id="edge50" class="edge">
<title>Node1&#45;&gt;Node38</title>
<path fill="none" stroke="midnightblue" d="M483.24,-470.8C483.24,-461.91 483.24,-451.78 483.24,-444.75"/>
<polygon fill="midnightblue" stroke="midnightblue" points="479.74,-471.08 483.24,-481.08 486.74,-471.08 479.74,-471.08"/>
</g>
<!-- Node3 -->
<g id="node3" class="node">
<title>Node3</title>
<g id="a_node3"><a xlink:href="ipc__gate.html" target="_top" xlink:title="The C++ IPC gate interface.">
<polygon fill="white" stroke="black" points="561.74,-369.5 561.74,-388.5 650.74,-388.5 650.74,-369.5 561.74,-369.5"/>
<text text-anchor="middle" x="606.24" y="-376.5" font-family="Helvetica,sans-Serif" font-size="10.00">l4/sys/ipc_gate</text>
</a>
</g>
</g>
<!-- Node2&#45;&gt;Node3 -->
<g id="edge2" class="edge">
<title>Node2&#45;&gt;Node3</title>
<path fill="none" stroke="midnightblue" d="M606.24,-414.8C606.24,-405.91 606.24,-395.78 606.24,-388.75"/>
<polygon fill="midnightblue" stroke="midnightblue" points="602.74,-415.08 606.24,-425.08 609.74,-415.08 602.74,-415.08"/>
</g>
<!-- Node4 -->
<g id="node4" class="node">
<title>Node4</title>
<g id="a_node4"><a xlink:href="object__registry_source.html" target="_top" xlink:title=" ">
<polygon fill="white" stroke="black" points="1183.74,-73 1183.74,-92 1316.74,-92 1316.74,-73 1183.74,-73"/>
<text text-anchor="middle" x="1250.24" y="-80" font-family="Helvetica,sans-Serif" font-size="10.00">l4/re/util/object_registry</text>
</a>
</g>
</g>
<!-- Node3&#45;&gt;Node4 -->
<g id="edge3" class="edge">
<title>Node3&#45;&gt;Node4</title>
<path fill="none" stroke="midnightblue" d="M661.29,-376.35C784.89,-372.2 1081.12,-359.72 1177.24,-333 1239.47,-315.7 1307.24,-332.6 1307.24,-268 1307.24,-268 1307.24,-268 1307.24,-210 1307.24,-161.82 1272.45,-111.71 1257.23,-92.1"/>
<polygon fill="midnightblue" stroke="midnightblue" points="660.81,-372.86 650.93,-376.69 661.04,-379.86 660.81,-372.86"/>
</g>
<!-- Node5 -->
<g id="node5" class="node">
<title>Node5</title>
<g id="a_node5"><a xlink:href="client_2virtio-block_source.html" target="_top" xlink:title=" ">
<polygon fill="white" stroke="black" points="390.74,-0.5 390.74,-30.5 483.74,-30.5 483.74,-0.5 390.74,-0.5"/>
<text text-anchor="start" x="398.74" y="-18.5" font-family="Helvetica,sans-Serif" font-size="10.00">l4/l4virtio/client</text>
<text text-anchor="middle" x="437.24" y="-7.5" font-family="Helvetica,sans-Serif" font-size="10.00">/virtio&#45;block</text>
</a>
</g>
</g>
<!-- Node4&#45;&gt;Node5 -->
<g id="edge4" class="edge">
<title>Node4&#45;&gt;Node5</title>
<path fill="none" stroke="midnightblue" d="M1201.08,-71.11C1192.18,-69.52 1182.96,-68.06 1174.24,-67 873.35,-30.52 792.78,-77.22 493.24,-31 490.16,-30.53 487.01,-29.95 483.84,-29.31"/>
<polygon fill="midnightblue" stroke="midnightblue" points="1200.48,-74.56 1210.95,-72.95 1201.76,-67.68 1200.48,-74.56"/>
</g>
<!-- Node7 -->
<g id="node7" class="node">
<title>Node7</title>
<g id="a_node7"><a xlink:href="irq.html" target="_top" xlink:title="C++ Irq interface.">
<polygon fill="white" stroke="black" points="418.74,-369.5 418.74,-388.5 479.74,-388.5 479.74,-369.5 418.74,-369.5"/>
<text text-anchor="middle" x="449.24" y="-376.5" font-family="Helvetica,sans-Serif" font-size="10.00">l4/sys/irq</text>
</a>
</g>
</g>
<!-- Node6&#45;&gt;Node7 -->
<g id="edge6" class="edge">
<title>Node6&#45;&gt;Node7</title>
<path fill="none" stroke="midnightblue" d="M394.54,-419.38C408.1,-409.62 425.48,-397.11 436.97,-388.83"/>
<polygon fill="midnightblue" stroke="midnightblue" points="392.36,-416.64 386.29,-425.32 396.45,-422.32 392.36,-416.64"/>
</g>
<!-- Node37 -->
<g id="node37" class="node">
<title>Node37</title>
<g id="a_node37"><a xlink:href="semaphore_8h_source.html" target="_top" xlink:title=" ">
<polygon fill="white" stroke="black" points="254.24,-369.5 254.24,-388.5 366.24,-388.5 366.24,-369.5 254.24,-369.5"/>
<text text-anchor="middle" x="310.24" y="-376.5" font-family="Helvetica,sans-Serif" font-size="10.00">l4/sys/semaphore.h</text>
</a>
</g>
</g>
<!-- Node6&#45;&gt;Node37 -->
<g id="edge48" class="edge">
<title>Node6&#45;&gt;Node37</title>
<path fill="none" stroke="midnightblue" d="M356.25,-418.82C344.78,-409.15 330.32,-396.95 320.71,-388.83"/>
<polygon fill="midnightblue" stroke="midnightblue" points="354.05,-421.55 363.95,-425.32 358.57,-416.2 354.05,-421.55"/>
</g>
<!-- Node8 -->
<g id="node8" class="node">
<title>Node8</title>
<g id="a_node8"><a xlink:href="l4virtio_source.html" target="_top" xlink:title=" ">
<polygon fill="white" stroke="black" points="332.74,-140 332.74,-159 433.74,-159 433.74,-140 332.74,-140"/>
<text text-anchor="middle" x="383.24" y="-147" font-family="Helvetica,sans-Serif" font-size="10.00">l4/l4virtio/l4virtio</text>
</a>
</g>
</g>
<!-- Node7&#45;&gt;Node8 -->
<g id="edge7" class="edge">
<title>Node7&#45;&gt;Node8</title>
<path fill="none" stroke="midnightblue" d="M439.05,-360.76C427.95,-341.15 410.53,-307.85 401.24,-277 388.32,-234.09 384.58,-180.14 383.58,-159.28"/>
<polygon fill="midnightblue" stroke="midnightblue" points="436.03,-362.53 444.07,-369.44 442.1,-359.03 436.03,-362.53"/>
</g>
<!-- Node11 -->
<g id="node11" class="node">
<title>Node11</title>
<g id="a_node11"><a xlink:href="icu.html" target="_top" xlink:title="Interrupt controller.">
<polygon fill="white" stroke="black" points="559.24,-313.5 559.24,-332.5 621.24,-332.5 621.24,-313.5 559.24,-313.5"/>
<text text-anchor="middle" x="590.24" y="-320.5" font-family="Helvetica,sans-Serif" font-size="10.00">l4/sys/icu</text>
</a>
</g>
</g>
<!-- Node7&#45;&gt;Node11 -->
<g id="edge11" class="edge">
<title>Node7&#45;&gt;Node11</title>
<path fill="none" stroke="midnightblue" d="M481.17,-365.77C507.65,-355.63 544.63,-341.47 568,-332.52"/>
<polygon fill="midnightblue" stroke="midnightblue" points="479.67,-362.6 471.58,-369.44 482.17,-369.14 479.67,-362.6"/>
</g>
<!-- Node33 -->
<g id="node33" class="node">
<title>Node33</title>
<g id="a_node33"><a xlink:href="semaphore.html" target="_top" xlink:title="Semaphore class definition.">
<polygon fill="white" stroke="black" points="226.74,-313.5 226.74,-332.5 329.74,-332.5 329.74,-313.5 226.74,-313.5"/>
<text text-anchor="middle" x="278.24" y="-320.5" font-family="Helvetica,sans-Serif" font-size="10.00">l4/sys/semaphore</text>
</a>
</g>
</g>
<!-- Node7&#45;&gt;Node33 -->
<g id="edge39" class="edge">
<title>Node7&#45;&gt;Node33</title>
<path fill="none" stroke="midnightblue" d="M412.2,-366.3C379.98,-356.13 334.05,-341.62 305.21,-332.52"/>
<polygon fill="midnightblue" stroke="midnightblue" points="411.55,-369.77 422.14,-369.44 413.66,-363.09 411.55,-369.77"/>
</g>
<!-- Node34 -->
<g id="node34" class="node">
<title>Node34</title>
<g id="a_node34"><a xlink:href="event_source.html" target="_top" xlink:title=" ">
<polygon fill="white" stroke="black" points="1098.74,-313.5 1098.74,-332.5 1167.74,-332.5 1167.74,-313.5 1098.74,-313.5"/>
<text text-anchor="middle" x="1133.24" y="-320.5" font-family="Helvetica,sans-Serif" font-size="10.00">l4/re/event</text>
</a>
</g>
</g>
<!-- Node7&#45;&gt;Node34 -->
<g id="edge42" class="edge">
<title>Node7&#45;&gt;Node34</title>
<path fill="none" stroke="midnightblue" d="M490.35,-374.36C509.47,-372.69 532.51,-370.7 553.24,-369 760.09,-352.03 1008.59,-333.31 1098.58,-326.58"/>
<polygon fill="midnightblue" stroke="midnightblue" points="489.83,-370.89 480.18,-375.25 490.44,-377.86 489.83,-370.89"/>
</g>
<!-- Node8&#45;&gt;Node5 -->
<g id="edge8" class="edge">
<title>Node8&#45;&gt;Node5</title>
<path fill="none" stroke="midnightblue" d="M339.92,-137.43C285.66,-123.46 199.46,-100.91 197.24,-98 188.87,-87.06 188.47,-77.63 197.24,-67 250.51,-2.36 300.58,-49.69 382.24,-31 384.93,-30.38 387.7,-29.73 390.48,-29.05"/>
<polygon fill="midnightblue" stroke="midnightblue" points="339.1,-140.83 349.65,-139.93 340.84,-134.05 339.1,-140.83"/>
</g>
<!-- Node9 -->
<g id="node9" class="node">
<title>Node9</title>
<g id="a_node9"><a xlink:href="server_2l4virtio_source.html" target="_top" xlink:title=" ">
<polygon fill="white" stroke="black" points="334.74,-67.5 334.74,-97.5 431.74,-97.5 431.74,-67.5 334.74,-67.5"/>
<text text-anchor="start" x="342.74" y="-85.5" font-family="Helvetica,sans-Serif" font-size="10.00">l4/l4virtio/server</text>
<text text-anchor="middle" x="383.24" y="-74.5" font-family="Helvetica,sans-Serif" font-size="10.00">/l4virtio</text>
</a>
</g>
</g>
<!-- Node8&#45;&gt;Node9 -->
<g id="edge9" class="edge">
<title>Node8&#45;&gt;Node9</title>
<path fill="none" stroke="midnightblue" d="M383.24,-129.41C383.24,-119.22 383.24,-106.9 383.24,-97.59"/>
<polygon fill="midnightblue" stroke="midnightblue" points="379.74,-129.73 383.24,-139.73 386.74,-129.73 379.74,-129.73"/>
</g>
<!-- Node10 -->
<g id="node10" class="node">
<title>Node10</title>
<g id="a_node10"><a xlink:href="server_2virtio-block_source.html" target="_top" xlink:title=" ">
<polygon fill="white" stroke="black" points="275.74,-0.5 275.74,-30.5 372.74,-30.5 372.74,-0.5 275.74,-0.5"/>
<text text-anchor="start" x="283.74" y="-18.5" font-family="Helvetica,sans-Serif" font-size="10.00">l4/l4virtio/server</text>
<text text-anchor="middle" x="324.24" y="-7.5" font-family="Helvetica,sans-Serif" font-size="10.00">/virtio&#45;block</text>
</a>
</g>
</g>
<!-- Node9&#45;&gt;Node10 -->
<g id="edge10" class="edge">
<title>Node9&#45;&gt;Node10</title>
<path fill="none" stroke="midnightblue" d="M363.48,-59.74C354.75,-50.12 344.74,-39.09 337.01,-30.58"/>
<polygon fill="midnightblue" stroke="midnightblue" points="361.12,-62.34 370.43,-67.4 366.31,-57.64 361.12,-62.34"/>
</g>
<!-- Node12 -->
<g id="node12" class="node">
<title>Node12</title>
<g id="a_node12"><a xlink:href="scheduler.html" target="_top" xlink:title="Scheduler object functions.">
<polygon fill="white" stroke="black" points="595.74,-257.5 595.74,-276.5 690.74,-276.5 690.74,-257.5 595.74,-257.5"/>
<text text-anchor="middle" x="643.24" y="-264.5" font-family="Helvetica,sans-Serif" font-size="10.00">l4/sys/scheduler</text>
</a>
</g>
</g>
<!-- Node11&#45;&gt;Node12 -->
<g id="edge12" class="edge">
<title>Node11&#45;&gt;Node12</title>
<path fill="none" stroke="midnightblue" d="M606.22,-305.72C615.56,-296.2 626.98,-284.56 634.65,-276.75"/>
<polygon fill="midnightblue" stroke="midnightblue" points="603.5,-303.49 598.99,-313.08 608.49,-308.4 603.5,-303.49"/>
</g>
<!-- Node13 -->
<g id="node13" class="node">
<title>Node13</title>
<g id="a_node13"><a xlink:href="vcon.html" target="_top" xlink:title="Virtual console interface.">
<polygon fill="white" stroke="black" points="409.74,-257.5 409.74,-276.5 480.74,-276.5 480.74,-257.5 409.74,-257.5"/>
<text text-anchor="middle" x="445.24" y="-264.5" font-family="Helvetica,sans-Serif" font-size="10.00">l4/sys/vcon</text>
</a>
</g>
</g>
<!-- Node11&#45;&gt;Node13 -->
<g id="edge13" class="edge">
<title>Node11&#45;&gt;Node13</title>
<path fill="none" stroke="midnightblue" d="M557.76,-309.91C530.5,-299.75 492.24,-285.51 468.11,-276.52"/>
<polygon fill="midnightblue" stroke="midnightblue" points="556.67,-313.23 567.26,-313.44 559.11,-306.67 556.67,-313.23"/>
</g>
<!-- Node24 -->
<g id="node24" class="node">
<title>Node24</title>
<g id="a_node24"><a xlink:href="icu__svr_source.html" target="_top" xlink:title=" ">
<polygon fill="white" stroke="black" points="963.74,-73 963.74,-92 1058.74,-92 1058.74,-73 963.74,-73"/>
<text text-anchor="middle" x="1011.24" y="-80" font-family="Helvetica,sans-Serif" font-size="10.00">l4/re/util/icu_svr</text>
</a>
</g>
</g>
<!-- Node11&#45;&gt;Node24 -->
<g id="edge34" class="edge">
<title>Node11&#45;&gt;Node24</title>
<path fill="none" stroke="midnightblue" d="M631.15,-312.84C653.72,-306.06 681,-294.84 700.24,-277 727.93,-251.32 710.78,-226.93 738.24,-201 805.01,-137.94 910.91,-105.77 969.25,-92.01"/>
<polygon fill="midnightblue" stroke="midnightblue" points="630.15,-309.48 621.48,-315.56 632.05,-316.22 630.15,-309.48"/>
</g>
<!-- Node28 -->
<g id="node28" class="node">
<title>Node28</title>
<g id="a_node28"><a xlink:href="random_source.html" target="_top" xlink:title=" ">
<polygon fill="white" stroke="black" points="498.74,-257.5 498.74,-276.5 577.74,-276.5 577.74,-257.5 498.74,-257.5"/>
<text text-anchor="middle" x="538.24" y="-264.5" font-family="Helvetica,sans-Serif" font-size="10.00">l4/re/random</text>
</a>
</g>
</g>
<!-- Node11&#45;&gt;Node28 -->
<g id="edge33" class="edge">
<title>Node11&#45;&gt;Node28</title>
<path fill="none" stroke="midnightblue" d="M574.56,-305.72C565.39,-296.2 554.18,-284.56 546.66,-276.75"/>
<polygon fill="midnightblue" stroke="midnightblue" points="572.19,-308.31 581.65,-313.08 577.23,-303.45 572.19,-308.31"/>
</g>
<!-- Node29 -->
<g id="node29" class="node">
<title>Node29</title>
<g id="a_node29"><a xlink:href="vbus_source.html" target="_top" xlink:title=" ">
<polygon fill="white" stroke="black" points="884.24,-257.5 884.24,-276.5 962.24,-276.5 962.24,-257.5 884.24,-257.5"/>
<text text-anchor="middle" x="923.24" y="-264.5" font-family="Helvetica,sans-Serif" font-size="10.00">l4/vbus/vbus</text>
</a>
</g>
</g>
<!-- Node11&#45;&gt;Node29 -->
<g id="edge35" class="edge">
<title>Node11&#45;&gt;Node29</title>
<path fill="none" stroke="midnightblue" d="M631.49,-315.31C696.18,-304.82 820.62,-284.64 884.02,-274.36"/>
<polygon fill="midnightblue" stroke="midnightblue" points="630.58,-311.91 621.27,-316.97 631.7,-318.82 630.58,-311.91"/>
</g>
<!-- Node14 -->
<g id="node14" class="node">
<title>Node14</title>
<g id="a_node14"><a xlink:href="vcon__stream_8h_source.html" target="_top" xlink:title=" ">
<polygon fill="white" stroke="black" points="195.74,-134.5 195.74,-164.5 314.74,-164.5 314.74,-134.5 195.74,-134.5"/>
<text text-anchor="start" x="203.74" y="-152.5" font-family="Helvetica,sans-Serif" font-size="10.00">l4/l4re_vfs/impl/vcon</text>
<text text-anchor="middle" x="255.24" y="-141.5" font-family="Helvetica,sans-Serif" font-size="10.00">_stream.h</text>
</a>
</g>
</g>
<!-- Node13&#45;&gt;Node14 -->
<g id="edge14" class="edge">
<title>Node13&#45;&gt;Node14</title>
<path fill="none" stroke="midnightblue" d="M422.02,-251.88C385.44,-229.65 314.84,-186.73 278.34,-164.55"/>
<polygon fill="midnightblue" stroke="midnightblue" points="420.59,-255.11 430.96,-257.32 424.23,-249.13 420.59,-255.11"/>
</g>
<!-- Node17 -->
<g id="node17" class="node">
<title>Node17</title>
<g id="a_node17"><a xlink:href="log.html" target="_top" xlink:title="Log interface.">
<polygon fill="white" stroke="black" points="559.24,-201.5 559.24,-220.5 615.24,-220.5 615.24,-201.5 559.24,-201.5"/>
<text text-anchor="middle" x="587.24" y="-208.5" font-family="Helvetica,sans-Serif" font-size="10.00">l4/re/log</text>
</a>
</g>
</g>
<!-- Node13&#45;&gt;Node17 -->
<g id="edge17" class="edge">
<title>Node13&#45;&gt;Node17</title>
<path fill="none" stroke="midnightblue" d="M477.39,-253.77C504.07,-243.63 541.31,-229.47 564.84,-220.52"/>
<polygon fill="midnightblue" stroke="midnightblue" points="475.84,-250.62 467.74,-257.44 478.33,-257.16 475.84,-250.62"/>
</g>
<!-- Node27 -->
<g id="node27" class="node">
<title>Node27</title>
<g id="a_node27"><a xlink:href="vcon__svr_source.html" target="_top" xlink:title=" ">
<polygon fill="white" stroke="black" points="409.24,-201.5 409.24,-220.5 513.24,-220.5 513.24,-201.5 409.24,-201.5"/>
<text text-anchor="middle" x="461.24" y="-208.5" font-family="Helvetica,sans-Serif" font-size="10.00">l4/re/util/vcon_svr</text>
</a>
</g>
</g>
<!-- Node13&#45;&gt;Node27 -->
<g id="edge32" class="edge">
<title>Node13&#45;&gt;Node27</title>
<path fill="none" stroke="midnightblue" d="M450.75,-247.4C453.43,-238.36 456.52,-227.94 458.64,-220.75"/>
<polygon fill="midnightblue" stroke="midnightblue" points="447.36,-246.5 447.88,-257.08 454.08,-248.49 447.36,-246.5"/>
</g>
<!-- Node15 -->
<g id="node15" class="node">
<title>Node15</title>
<g id="a_node15"><a xlink:href="vcon__stream__impl_8h_source.html" target="_top" xlink:title=" ">
<polygon fill="white" stroke="black" points="30.74,-67.5 30.74,-97.5 149.74,-97.5 149.74,-67.5 30.74,-67.5"/>
<text text-anchor="start" x="38.74" y="-85.5" font-family="Helvetica,sans-Serif" font-size="10.00">l4/l4re_vfs/impl/vcon</text>
<text text-anchor="middle" x="90.24" y="-74.5" font-family="Helvetica,sans-Serif" font-size="10.00">_stream_impl.h</text>
</a>
</g>
</g>
<!-- Node14&#45;&gt;Node15 -->
<g id="edge15" class="edge">
<title>Node14&#45;&gt;Node15</title>
<path fill="none" stroke="midnightblue" d="M210.01,-130.68C183.54,-120.26 150.6,-107.28 125.97,-97.58"/>
<polygon fill="midnightblue" stroke="midnightblue" points="208.85,-133.99 219.43,-134.4 211.41,-127.47 208.85,-133.99"/>
</g>
<!-- Node16 -->
<g id="node16" class="node">
<title>Node16</title>
<g id="a_node16"><a xlink:href="vfs__impl_8h_source.html" target="_top" xlink:title=" ">
<polygon fill="white" stroke="black" points="206.24,-67.5 206.24,-97.5 316.24,-97.5 316.24,-67.5 206.24,-67.5"/>
<text text-anchor="start" x="214.24" y="-85.5" font-family="Helvetica,sans-Serif" font-size="10.00">l4/l4re_vfs/impl/vfs</text>
<text text-anchor="middle" x="261.24" y="-74.5" font-family="Helvetica,sans-Serif" font-size="10.00">_impl.h</text>
</a>
</g>
</g>
<!-- Node14&#45;&gt;Node16 -->
<g id="edge16" class="edge">
<title>Node14&#45;&gt;Node16</title>
<path fill="none" stroke="midnightblue" d="M257.46,-124.4C258.3,-115.37 259.21,-105.41 259.94,-97.58"/>
<polygon fill="midnightblue" stroke="midnightblue" points="253.97,-124.12 256.54,-134.4 260.94,-124.76 253.97,-124.12"/>
</g>
<!-- Node18 -->
<g id="node18" class="node">
<title>Node18</title>
<g id="a_node18"><a xlink:href="env.html" target="_top" xlink:title="Environment interface.">
<polygon fill="white" stroke="black" points="608.74,-140 608.74,-159 667.74,-159 667.74,-140 608.74,-140"/>
<text text-anchor="middle" x="638.24" y="-147" font-family="Helvetica,sans-Serif" font-size="10.00">l4/re/env</text>
</a>
</g>
</g>
<!-- Node17&#45;&gt;Node18 -->
<g id="edge18" class="edge">
<title>Node17&#45;&gt;Node18</title>
<path fill="none" stroke="midnightblue" d="M601.24,-193.67C610.85,-182.45 623.22,-168.02 630.94,-159.01"/>
<polygon fill="midnightblue" stroke="midnightblue" points="598.39,-191.6 594.54,-201.48 603.71,-196.16 598.39,-191.6"/>
</g>
<!-- Node18&#45;&gt;Node4 -->
<g id="edge31" class="edge">
<title>Node18&#45;&gt;Node4</title>
<path fill="none" stroke="midnightblue" d="M678.2,-146.03C767.47,-140.24 989.72,-124.23 1174.24,-98 1185.67,-96.37 1198,-94.2 1209.34,-92.04"/>
<polygon fill="midnightblue" stroke="midnightblue" points="677.74,-142.55 667.99,-146.69 678.19,-149.54 677.74,-142.55"/>
</g>
<!-- Node18&#45;&gt;Node5 -->
<g id="edge20" class="edge">
<title>Node18&#45;&gt;Node5</title>
<path fill="none" stroke="midnightblue" d="M677.75,-139.64C686.77,-137.71 696.32,-135.72 705.24,-134 801.84,-115.32 982.8,-139.46 916.24,-67 884.33,-32.26 539.73,-38.94 493.24,-31 490.17,-30.48 487.02,-29.87 483.86,-29.2"/>
<polygon fill="midnightblue" stroke="midnightblue" points="676.89,-136.25 667.86,-141.79 678.38,-143.09 676.89,-136.25"/>
</g>
<!-- Node18&#45;&gt;Node9 -->
<g id="edge21" class="edge">
<title>Node18&#45;&gt;Node9</title>
<path fill="none" stroke="midnightblue" d="M598.79,-138.44C553.89,-127 480.53,-108.3 432.06,-95.95"/>
<polygon fill="midnightblue" stroke="midnightblue" points="598.18,-141.9 608.74,-140.98 599.91,-135.12 598.18,-141.9"/>
</g>
<!-- Node18&#45;&gt;Node15 -->
<g id="edge23" class="edge">
<title>Node18&#45;&gt;Node15</title>
<path fill="none" stroke="midnightblue" d="M598.27,-144.2C520.83,-135.82 344.95,-116.46 197.24,-98 181.89,-96.08 165.32,-93.89 149.92,-91.81"/>
<polygon fill="midnightblue" stroke="midnightblue" points="598.21,-147.72 608.53,-145.31 598.97,-140.76 598.21,-147.72"/>
</g>
<!-- Node18&#45;&gt;Node16 -->
<g id="edge24" class="edge">
<title>Node18&#45;&gt;Node16</title>
<path fill="none" stroke="midnightblue" d="M598.36,-142.82C538.91,-134.17 423.58,-116.72 326.24,-98 323.06,-97.39 319.8,-96.74 316.51,-96.06"/>
<polygon fill="midnightblue" stroke="midnightblue" points="598.05,-146.31 608.45,-144.28 599.06,-139.38 598.05,-146.31"/>
</g>
<!-- Node19 -->
<g id="node19" class="node">
<title>Node19</title>
<g id="a_node19"><a xlink:href="vcpu_source.html" target="_top" xlink:title=" ">
<polygon fill="white" stroke="black" points="829.24,-73 829.24,-92 907.24,-92 907.24,-73 829.24,-73"/>
<text text-anchor="middle" x="868.24" y="-80" font-family="Helvetica,sans-Serif" font-size="10.00">l4/vcpu/vcpu</text>
</a>
</g>
</g>
<!-- Node18&#45;&gt;Node19 -->
<g id="edge19" class="edge">
<title>Node18&#45;&gt;Node19</title>
<path fill="none" stroke="midnightblue" d="M677.8,-137.8C714.71,-127.75 771.3,-112.18 820.24,-98 826.76,-96.11 833.76,-94.03 840.35,-92.04"/>
<polygon fill="midnightblue" stroke="midnightblue" points="676.66,-134.48 667.93,-140.48 678.5,-141.24 676.66,-134.48"/>
</g>
<!-- Node20 -->
<g id="node20" class="node">
<title>Node20</title>
<g id="a_node20"><a xlink:href="ro__file__impl_8h_source.html" target="_top" xlink:title=" ">
<polygon fill="white" stroke="black" points="562.74,-67.5 562.74,-97.5 667.74,-97.5 667.74,-67.5 562.74,-67.5"/>
<text text-anchor="start" x="570.74" y="-85.5" font-family="Helvetica,sans-Serif" font-size="10.00">l4/l4re_vfs/impl/ro</text>
<text text-anchor="middle" x="615.24" y="-74.5" font-family="Helvetica,sans-Serif" font-size="10.00">_file_impl.h</text>
</a>
</g>
</g>
<!-- Node18&#45;&gt;Node20 -->
<g id="edge22" class="edge">
<title>Node18&#45;&gt;Node20</title>
<path fill="none" stroke="midnightblue" d="M631.71,-130.06C628.07,-119.75 623.59,-107.1 620.22,-97.59"/>
<polygon fill="midnightblue" stroke="midnightblue" points="628.5,-131.47 635.14,-139.73 635.1,-129.14 628.5,-131.47"/>
</g>
<!-- Node21 -->
<g id="node21" class="node">
<title>Node21</title>
<g id="a_node21"><a xlink:href="env__ns_source.html" target="_top" xlink:title=" ">
<polygon fill="white" stroke="black" points="449.74,-73 449.74,-92 544.74,-92 544.74,-73 449.74,-73"/>
<text text-anchor="middle" x="497.24" y="-80" font-family="Helvetica,sans-Serif" font-size="10.00">l4/re/util/env_ns</text>
</a>
</g>
</g>
<!-- Node18&#45;&gt;Node21 -->
<g id="edge25" class="edge">
<title>Node18&#45;&gt;Node21</title>
<path fill="none" stroke="midnightblue" d="M610.28,-135.61C582.35,-122.74 540.2,-103.31 516.04,-92.17"/>
<polygon fill="midnightblue" stroke="midnightblue" points="608.97,-138.86 619.51,-139.87 611.9,-132.5 608.97,-138.86"/>
</g>
<!-- Node23 -->
<g id="node23" class="node">
<title>Node23</title>
<g id="a_node23"><a xlink:href="util_2event.html" target="_top" xlink:title=" ">
<polygon fill="white" stroke="black" points="1077.24,-73 1077.24,-92 1165.24,-92 1165.24,-73 1077.24,-73"/>
<text text-anchor="middle" x="1121.24" y="-80" font-family="Helvetica,sans-Serif" font-size="10.00">l4/re/util/event</text>
</a>
</g>
</g>
<!-- Node18&#45;&gt;Node23 -->
<g id="edge27" class="edge">
<title>Node18&#45;&gt;Node23</title>
<path fill="none" stroke="midnightblue" d="M678.04,-145.83C754.3,-140.28 926.06,-125.63 1068.24,-98 1076.38,-96.42 1085.11,-94.23 1093.09,-92.04"/>
<polygon fill="midnightblue" stroke="midnightblue" points="677.65,-142.35 667.93,-146.56 678.15,-149.33 677.65,-142.35"/>
</g>
<!-- Node18&#45;&gt;Node24 -->
<g id="edge28" class="edge">
<title>Node18&#45;&gt;Node24</title>
<path fill="none" stroke="midnightblue" d="M677.73,-139.5C686.75,-137.57 696.3,-135.62 705.24,-134 813.09,-114.4 841.55,-118.5 949.24,-98 958.25,-96.28 967.94,-94.16 976.91,-92.07"/>
<polygon fill="midnightblue" stroke="midnightblue" points="676.86,-136.1 667.84,-141.65 678.35,-142.94 676.86,-136.1"/>
</g>
<!-- Node26 -->
<g id="node26" class="node">
<title>Node26</title>
<g id="a_node26"><a xlink:href="kumem__alloc.html" target="_top" xlink:title="Kumem allocator helper.">
<polygon fill="white" stroke="black" points="685.74,-73 685.74,-92 810.74,-92 810.74,-73 685.74,-73"/>
<text text-anchor="middle" x="748.24" y="-80" font-family="Helvetica,sans-Serif" font-size="10.00">l4/re/util/kumem_alloc</text>
</a>
</g>
</g>
<!-- Node18&#45;&gt;Node26 -->
<g id="edge30" class="edge">
<title>Node18&#45;&gt;Node26</title>
<path fill="none" stroke="midnightblue" d="M661.73,-134.62C683.53,-121.74 715.28,-102.98 733.64,-92.13"/>
<polygon fill="midnightblue" stroke="midnightblue" points="659.9,-131.63 653.07,-139.73 663.46,-137.66 659.9,-131.63"/>
</g>
<!-- Node22 -->
<g id="node22" class="node">
<title>Node22</title>
<g id="a_node22"><a xlink:href="ns__fs__impl_8h_source.html" target="_top" xlink:title=" ">
<polygon fill="white" stroke="black" points="501.74,-0.5 501.74,-30.5 608.74,-30.5 608.74,-0.5 501.74,-0.5"/>
<text text-anchor="start" x="509.74" y="-18.5" font-family="Helvetica,sans-Serif" font-size="10.00">l4/l4re_vfs/impl/ns</text>
<text text-anchor="middle" x="555.24" y="-7.5" font-family="Helvetica,sans-Serif" font-size="10.00">_fs_impl.h</text>
</a>
</g>
</g>
<!-- Node21&#45;&gt;Node22 -->
<g id="edge26" class="edge">
<title>Node21&#45;&gt;Node22</title>
<path fill="none" stroke="midnightblue" d="M511.97,-64.99C521.45,-54.36 533.64,-40.7 542.67,-30.59"/>
<polygon fill="midnightblue" stroke="midnightblue" points="509.11,-62.94 505.06,-72.73 514.33,-67.6 509.11,-62.94"/>
</g>
<!-- Node25 -->
<g id="node25" class="node">
<title>Node25</title>
<g id="a_node25"><a xlink:href="event__svr_source.html" target="_top" xlink:title=" ">
<polygon fill="white" stroke="black" points="1124.24,-6 1124.24,-25 1232.24,-25 1232.24,-6 1124.24,-6"/>
<text text-anchor="middle" x="1178.24" y="-13" font-family="Helvetica,sans-Serif" font-size="10.00">l4/re/util/event_svr</text>
</a>
</g>
</g>
<!-- Node24&#45;&gt;Node25 -->
<g id="edge29" class="edge">
<title>Node24&#45;&gt;Node25</title>
<path fill="none" stroke="midnightblue" d="M1043.08,-69.1C1076.24,-56.2 1127.3,-36.33 1156.23,-25.06"/>
<polygon fill="midnightblue" stroke="midnightblue" points="1041.46,-65.98 1033.41,-72.87 1044,-72.5 1041.46,-65.98"/>
</g>
<!-- Node30 -->
<g id="node30" class="node">
<title>Node30</title>
<g id="a_node30"><a xlink:href="vbus__generic_source.html" target="_top" xlink:title=" ">
<polygon fill="white" stroke="black" points="863.74,-201.5 863.74,-220.5 982.74,-220.5 982.74,-201.5 863.74,-201.5"/>
<text text-anchor="middle" x="923.24" y="-208.5" font-family="Helvetica,sans-Serif" font-size="10.00">l4/vbus/vbus_generic</text>
</a>
</g>
</g>
<!-- Node29&#45;&gt;Node30 -->
<g id="edge36" class="edge">
<title>Node29&#45;&gt;Node30</title>
<path fill="none" stroke="midnightblue" d="M923.24,-246.8C923.24,-237.91 923.24,-227.78 923.24,-220.75"/>
<polygon fill="midnightblue" stroke="midnightblue" points="919.74,-247.08 923.24,-257.08 926.74,-247.08 919.74,-247.08"/>
</g>
<!-- Node31 -->
<g id="node31" class="node">
<title>Node31</title>
<g id="a_node31"><a xlink:href="vbus__gpio_source.html" target="_top" xlink:title=" ">
<polygon fill="white" stroke="black" points="1001.24,-201.5 1001.24,-220.5 1105.24,-220.5 1105.24,-201.5 1001.24,-201.5"/>
<text text-anchor="middle" x="1053.24" y="-208.5" font-family="Helvetica,sans-Serif" font-size="10.00">l4/vbus/vbus_gpio</text>
</a>
</g>
</g>
<!-- Node29&#45;&gt;Node31 -->
<g id="edge37" class="edge">
<title>Node29&#45;&gt;Node31</title>
<path fill="none" stroke="midnightblue" d="M953.32,-253.5C977.69,-243.38 1011.38,-229.39 1032.73,-220.52"/>
<polygon fill="midnightblue" stroke="midnightblue" points="951.73,-250.38 943.84,-257.44 954.41,-256.84 951.73,-250.38"/>
</g>
<!-- Node32 -->
<g id="node32" class="node">
<title>Node32</title>
<g id="a_node32"><a xlink:href="vbus__pci_source.html" target="_top" xlink:title=" ">
<polygon fill="white" stroke="black" points="747.24,-201.5 747.24,-220.5 845.24,-220.5 845.24,-201.5 747.24,-201.5"/>
<text text-anchor="middle" x="796.24" y="-208.5" font-family="Helvetica,sans-Serif" font-size="10.00">l4/vbus/vbus_pci</text>
</a>
</g>
</g>
<!-- Node29&#45;&gt;Node32 -->
<g id="edge38" class="edge">
<title>Node29&#45;&gt;Node32</title>
<path fill="none" stroke="midnightblue" d="M893.85,-253.5C870.04,-243.38 837.13,-229.39 816.27,-220.52"/>
<polygon fill="midnightblue" stroke="midnightblue" points="892.54,-256.75 903.11,-257.44 895.28,-250.31 892.54,-256.75"/>
</g>
<!-- Node33&#45;&gt;Node5 -->
<g id="edge40" class="edge">
<title>Node33&#45;&gt;Node5</title>
<path fill="none" stroke="midnightblue" d="M222.02,-311.43C141.32,-294.63 2.24,-258.87 2.24,-212 2.24,-212 2.24,-212 2.24,-148.5 2.24,-111.31 -6.71,-91.54 21.24,-67 81.82,-13.81 302.9,-45.32 382.24,-31 384.96,-30.51 387.74,-29.95 390.54,-29.35"/>
<polygon fill="midnightblue" stroke="midnightblue" points="221.54,-314.91 232.04,-313.48 222.95,-308.05 221.54,-314.91"/>
</g>
<!-- Node33&#45;&gt;Node14 -->
<g id="edge41" class="edge">
<title>Node33&#45;&gt;Node14</title>
<path fill="none" stroke="midnightblue" d="M275.7,-303.1C271.06,-268.45 261.28,-195.53 257.14,-164.72"/>
<polygon fill="midnightblue" stroke="midnightblue" points="272.27,-303.81 277.06,-313.26 279.2,-302.88 272.27,-303.81"/>
</g>
<!-- Node34&#45;&gt;Node25 -->
<g id="edge46" class="edge">
<title>Node34&#45;&gt;Node25</title>
<path fill="none" stroke="midnightblue" d="M1177.85,-313.71C1201.87,-307.25 1230.52,-296.05 1250.24,-277 1312.39,-216.94 1309,-182.69 1326.24,-98 1328.98,-84.5 1334.25,-78.21 1326.24,-67 1304.99,-37.3 1265.22,-24.87 1232.25,-19.76"/>
<polygon fill="midnightblue" stroke="midnightblue" points="1176.74,-310.38 1167.88,-316.2 1178.43,-317.18 1176.74,-310.38"/>
</g>
<!-- Node34&#45;&gt;Node29 -->
<g id="edge47" class="edge">
<title>Node34&#45;&gt;Node29</title>
<path fill="none" stroke="midnightblue" d="M1090.05,-310.89C1050.39,-300.7 992.47,-285.8 956.36,-276.52"/>
<polygon fill="midnightblue" stroke="midnightblue" points="1089.41,-314.34 1099.96,-313.44 1091.15,-307.56 1089.41,-314.34"/>
</g>
<!-- Node35 -->
<g id="node35" class="node">
<title>Node35</title>
<g id="a_node35"><a xlink:href="console_source.html" target="_top" xlink:title=" ">
<polygon fill="white" stroke="black" points="1161.74,-257.5 1161.74,-276.5 1240.74,-276.5 1240.74,-257.5 1161.74,-257.5"/>
<text text-anchor="middle" x="1201.24" y="-264.5" font-family="Helvetica,sans-Serif" font-size="10.00">l4/re/console</text>
</a>
</g>
</g>
<!-- Node34&#45;&gt;Node35 -->
<g id="edge43" class="edge">
<title>Node34&#45;&gt;Node35</title>
<path fill="none" stroke="midnightblue" d="M1152,-307.1C1164.24,-297.38 1179.8,-285.03 1190.11,-276.83"/>
<polygon fill="midnightblue" stroke="midnightblue" points="1149.82,-304.36 1144.16,-313.32 1154.17,-309.85 1149.82,-304.36"/>
</g>
<!-- Node36 -->
<g id="node36" class="node">
<title>Node36</title>
<g id="a_node36"><a xlink:href="event__buffer_source.html" target="_top" xlink:title=" ">
<polygon fill="white" stroke="black" points="1066.24,-140 1066.24,-159 1188.24,-159 1188.24,-140 1066.24,-140"/>
<text text-anchor="middle" x="1127.24" y="-147" font-family="Helvetica,sans-Serif" font-size="10.00">l4/re/util/event_buffer</text>
</a>
</g>
</g>
<!-- Node34&#45;&gt;Node36 -->
<g id="edge44" class="edge">
<title>Node34&#45;&gt;Node36</title>
<path fill="none" stroke="midnightblue" d="M1132.57,-302.85C1131.27,-265.73 1128.46,-185.33 1127.54,-159.02"/>
<polygon fill="midnightblue" stroke="midnightblue" points="1129.08,-303.39 1132.93,-313.26 1136.08,-303.14 1129.08,-303.39"/>
</g>
<!-- Node36&#45;&gt;Node23 -->
<g id="edge45" class="edge">
<title>Node36&#45;&gt;Node23</title>
<path fill="none" stroke="midnightblue" d="M1125.49,-129.54C1124.35,-117.17 1122.91,-101.62 1122.03,-92.13"/>
<polygon fill="midnightblue" stroke="midnightblue" points="1122.02,-130.1 1126.43,-139.73 1128.99,-129.45 1122.02,-130.1"/>
</g>
<!-- Node37&#45;&gt;Node33 -->
<g id="edge49" class="edge">
<title>Node37&#45;&gt;Node33</title>
<path fill="none" stroke="midnightblue" d="M299.73,-360.27C294.26,-351.05 287.82,-340.17 283.42,-332.75"/>
<polygon fill="midnightblue" stroke="midnightblue" points="296.84,-362.26 304.95,-369.08 302.87,-358.7 296.84,-362.26"/>
</g>
<!-- Node38&#45;&gt;Node3 -->
<g id="edge51" class="edge">
<title>Node38&#45;&gt;Node3</title>
<path fill="none" stroke="midnightblue" d="M512.01,-421.37C535.04,-411.26 566.72,-397.35 586.84,-388.52"/>
<polygon fill="midnightblue" stroke="midnightblue" points="510.48,-418.22 502.73,-425.44 513.29,-424.63 510.48,-418.22"/>
</g>
<!-- Node38&#45;&gt;Node7 -->
<g id="edge52" class="edge">
<title>Node38&#45;&gt;Node7</title>
<path fill="none" stroke="midnightblue" d="M472.26,-416.57C466.41,-407.27 459.47,-396.25 454.75,-388.75"/>
<polygon fill="midnightblue" stroke="midnightblue" points="469.33,-418.49 477.62,-425.08 475.26,-414.76 469.33,-418.49"/>
</g>
</g>
</svg>
