<?xml version="1.0" encoding="UTF-8" standalone="no"?>
<!DOCTYPE svg PUBLIC "-//W3C//DTD SVG 1.1//EN"
 "http://www.w3.org/Graphics/SVG/1.1/DTD/svg11.dtd">
<!-- Generated by graphviz version 2.43.0 (0)
 -->
<!-- Title: l4/re/c/rm.h Pages: 1 -->
<svg width="547pt" height="420pt"
 viewBox="0.00 0.00 546.62 420.00" xmlns="http://www.w3.org/2000/svg" xmlns:xlink="http://www.w3.org/1999/xlink">
<g id="graph0" class="graph" transform="scale(1 1) rotate(0) translate(4 416)">
<title>l4/re/c/rm.h</title>
<polygon fill="white" stroke="transparent" points="-4,4 -4,-416 542.62,-416 542.62,4 -4,4"/>
<!-- Node1 -->
<g id="node1" class="node">
<title>Node1</title>
<g id="a_node1"><a xlink:title="Region map interface, C interface.">
<polygon fill="#bfbfbf" stroke="black" points="195.62,-392.5 195.62,-411.5 267.62,-411.5 267.62,-392.5 195.62,-392.5"/>
<text text-anchor="middle" x="231.62" y="-399.5" font-family="Helvetica,sans-Serif" font-size="10.00">l4/re/c/rm.h</text>
</a>
</g>
</g>
<!-- Node2 -->
<g id="node2" class="node">
<title>Node2</title>
<g id="a_node2"><a xlink:href="env_8h.html" target="_top" xlink:title="Environment interface.">
<polygon fill="white" stroke="black" points="344.62,-336.5 344.62,-355.5 412.62,-355.5 412.62,-336.5 344.62,-336.5"/>
<text text-anchor="middle" x="378.62" y="-343.5" font-family="Helvetica,sans-Serif" font-size="10.00">l4/re/env.h</text>
</a>
</g>
</g>
<!-- Node1&#45;&gt;Node2 -->
<g id="edge1" class="edge">
<title>Node1&#45;&gt;Node2</title>
<path fill="none" stroke="midnightblue" d="M254.91,-392.44C279.43,-383.44 318.21,-369.19 345.82,-359.05"/>
<polygon fill="midnightblue" stroke="midnightblue" points="347.25,-362.25 355.43,-355.52 344.84,-355.68 347.25,-362.25"/>
</g>
<!-- Node14 -->
<g id="node14" class="node">
<title>Node14</title>
<g id="a_node14"><a xlink:href="dataspace_8h.html" target="_top" xlink:title="Data space C interface.">
<polygon fill="white" stroke="black" points="124.12,-336.5 124.12,-355.5 233.12,-355.5 233.12,-336.5 124.12,-336.5"/>
<text text-anchor="middle" x="178.62" y="-343.5" font-family="Helvetica,sans-Serif" font-size="10.00">l4/re/c/dataspace.h</text>
</a>
</g>
</g>
<!-- Node1&#45;&gt;Node14 -->
<g id="edge23" class="edge">
<title>Node1&#45;&gt;Node14</title>
<path fill="none" stroke="midnightblue" d="M222.87,-392.08C215.15,-384.22 203.71,-372.57 194.4,-363.08"/>
<polygon fill="midnightblue" stroke="midnightblue" points="196.71,-360.44 187.21,-355.75 191.71,-365.34 196.71,-360.44"/>
</g>
<!-- Node3 -->
<g id="node3" class="node">
<title>Node3</title>
<g id="a_node3"><a xlink:href="l4_2sys_2consts_8h.html" target="_top" xlink:title="Common constants.">
<polygon fill="white" stroke="black" points="391.12,-112.5 391.12,-131.5 480.12,-131.5 480.12,-112.5 391.12,-112.5"/>
<text text-anchor="middle" x="435.62" y="-119.5" font-family="Helvetica,sans-Serif" font-size="10.00">l4/sys/consts.h</text>
</a>
</g>
</g>
<!-- Node2&#45;&gt;Node3 -->
<g id="edge2" class="edge">
<title>Node2&#45;&gt;Node3</title>
<path fill="none" stroke="midnightblue" d="M387.04,-336.43C408.15,-314.25 462.99,-252.18 481.62,-188 484.1,-179.46 485.07,-176.19 481.62,-168 476.59,-156.05 466.67,-145.69 457.33,-137.93"/>
<polygon fill="midnightblue" stroke="midnightblue" points="459.46,-135.15 449.4,-131.81 455.18,-140.69 459.46,-135.15"/>
</g>
<!-- Node4 -->
<g id="node4" class="node">
<title>Node4</title>
<g id="a_node4"><a xlink:href="compiler_8h.html" target="_top" xlink:title="L4 compiler related defines.">
<polygon fill="white" stroke="black" points="313.12,-56.5 313.12,-75.5 412.12,-75.5 412.12,-56.5 313.12,-56.5"/>
<text text-anchor="middle" x="362.62" y="-63.5" font-family="Helvetica,sans-Serif" font-size="10.00">l4/sys/compiler.h</text>
</a>
</g>
</g>
<!-- Node2&#45;&gt;Node4 -->
<g id="edge20" class="edge">
<title>Node2&#45;&gt;Node4</title>
<path fill="none" stroke="midnightblue" d="M412.94,-337.61C459.96,-325.24 538.62,-295.51 538.62,-235 538.62,-235 538.62,-235 538.62,-177 538.62,-120.13 471.72,-91.57 420.41,-78.03"/>
<polygon fill="midnightblue" stroke="midnightblue" points="421.26,-74.64 410.71,-75.6 419.56,-81.43 421.26,-74.64"/>
</g>
<!-- Node7 -->
<g id="node7" class="node">
<title>Node7</title>
<g id="a_node7"><a xlink:href="l4_2sys_2types_8h.html" target="_top" xlink:title="Common L4 ABI Data Types.">
<polygon fill="white" stroke="black" points="199.62,-168.5 199.62,-187.5 283.62,-187.5 283.62,-168.5 199.62,-168.5"/>
<text text-anchor="middle" x="241.62" y="-175.5" font-family="Helvetica,sans-Serif" font-size="10.00">l4/sys/types.h</text>
</a>
</g>
</g>
<!-- Node2&#45;&gt;Node7 -->
<g id="edge6" class="edge">
<title>Node2&#45;&gt;Node7</title>
<path fill="none" stroke="midnightblue" d="M374.89,-336.27C365.58,-315.17 339.58,-260.43 305.62,-224 294.21,-211.77 278.98,-200.89 266.23,-192.9"/>
<polygon fill="midnightblue" stroke="midnightblue" points="267.85,-189.79 257.48,-187.61 264.23,-195.78 267.85,-189.79"/>
</g>
<!-- Node10 -->
<g id="node10" class="node">
<title>Node10</title>
<g id="a_node10"><a xlink:href="sys_2kip_8h.html" target="_top" xlink:title="Kernel Info Page access functions.">
<polygon fill="white" stroke="black" points="205.62,-280.5 205.62,-299.5 277.62,-299.5 277.62,-280.5 205.62,-280.5"/>
<text text-anchor="middle" x="241.62" y="-287.5" font-family="Helvetica,sans-Serif" font-size="10.00">l4/sys/kip.h</text>
</a>
</g>
</g>
<!-- Node2&#45;&gt;Node10 -->
<g id="edge14" class="edge">
<title>Node2&#45;&gt;Node10</title>
<path fill="none" stroke="midnightblue" d="M356.91,-336.44C334.26,-327.52 298.55,-313.44 272.87,-303.32"/>
<polygon fill="midnightblue" stroke="midnightblue" points="273.81,-299.93 263.22,-299.52 271.24,-306.44 273.81,-299.93"/>
</g>
<!-- Node13 -->
<g id="node13" class="node">
<title>Node13</title>
<g id="a_node13"><a xlink:href="l4_2re_2consts_8h.html" target="_top" xlink:title="Constants.">
<polygon fill="white" stroke="black" points="390.62,-168.5 390.62,-187.5 472.62,-187.5 472.62,-168.5 390.62,-168.5"/>
<text text-anchor="middle" x="431.62" y="-175.5" font-family="Helvetica,sans-Serif" font-size="10.00">l4/re/consts.h</text>
</a>
</g>
</g>
<!-- Node2&#45;&gt;Node13 -->
<g id="edge21" class="edge">
<title>Node2&#45;&gt;Node13</title>
<path fill="none" stroke="midnightblue" d="M381.47,-336.08C389.85,-309.83 414.52,-232.55 425.83,-197.12"/>
<polygon fill="midnightblue" stroke="midnightblue" points="429.18,-198.16 428.88,-187.57 422.51,-196.03 429.18,-198.16"/>
</g>
<!-- Node3&#45;&gt;Node4 -->
<g id="edge3" class="edge">
<title>Node3&#45;&gt;Node4</title>
<path fill="none" stroke="midnightblue" d="M423.89,-112.32C412.78,-104.11 395.88,-91.6 382.63,-81.81"/>
<polygon fill="midnightblue" stroke="midnightblue" points="384.68,-78.97 374.56,-75.83 380.52,-84.59 384.68,-78.97"/>
</g>
<!-- Node6 -->
<g id="node6" class="node">
<title>Node6</title>
<g id="a_node6"><a xlink:href="l4_2sys_2l4int_8h.html" target="_top" xlink:title="Fixed sized integer types, generic version.">
<polygon fill="white" stroke="black" points="79.12,-56.5 79.12,-75.5 158.12,-75.5 158.12,-56.5 79.12,-56.5"/>
<text text-anchor="middle" x="118.62" y="-63.5" font-family="Helvetica,sans-Serif" font-size="10.00">l4/sys/l4int.h</text>
</a>
</g>
</g>
<!-- Node3&#45;&gt;Node6 -->
<g id="edge5" class="edge">
<title>Node3&#45;&gt;Node6</title>
<path fill="none" stroke="midnightblue" d="M390.87,-113.38C332.15,-103.37 229.39,-85.87 168.31,-75.46"/>
<polygon fill="midnightblue" stroke="midnightblue" points="168.59,-71.96 158.14,-73.73 167.41,-78.86 168.59,-71.96"/>
</g>
<!-- Node5 -->
<g id="node5" class="node">
<title>Node5</title>
<g id="a_node5"><a xlink:title=" ">
<polygon fill="white" stroke="#bfbfbf" points="316.62,-0.5 316.62,-19.5 408.62,-19.5 408.62,-0.5 316.62,-0.5"/>
<text text-anchor="middle" x="362.62" y="-7.5" font-family="Helvetica,sans-Serif" font-size="10.00">l4/sys/linkage.h</text>
</a>
</g>
</g>
<!-- Node4&#45;&gt;Node5 -->
<g id="edge4" class="edge">
<title>Node4&#45;&gt;Node5</title>
<path fill="none" stroke="midnightblue" d="M362.62,-56.08C362.62,-49.01 362.62,-38.86 362.62,-29.99"/>
<polygon fill="midnightblue" stroke="midnightblue" points="366.12,-29.75 362.62,-19.75 359.12,-29.75 366.12,-29.75"/>
</g>
<!-- Node7&#45;&gt;Node3 -->
<g id="edge9" class="edge">
<title>Node7&#45;&gt;Node3</title>
<path fill="none" stroke="midnightblue" d="M272.36,-168.44C305.56,-159.2 358.61,-144.44 395.18,-134.26"/>
<polygon fill="midnightblue" stroke="midnightblue" points="396.33,-137.57 405.02,-131.52 394.45,-130.83 396.33,-137.57"/>
</g>
<!-- Node7&#45;&gt;Node4 -->
<g id="edge8" class="edge">
<title>Node7&#45;&gt;Node4</title>
<path fill="none" stroke="midnightblue" d="M255.81,-168.41C269.28,-159.95 289.75,-146.25 305.62,-132 322.29,-117.03 338.9,-97.41 349.85,-83.66"/>
<polygon fill="midnightblue" stroke="midnightblue" points="352.77,-85.61 356.18,-75.58 347.26,-81.3 352.77,-85.61"/>
</g>
<!-- Node7&#45;&gt;Node6 -->
<g id="edge7" class="edge">
<title>Node7&#45;&gt;Node6</title>
<path fill="none" stroke="midnightblue" d="M227.48,-168.35C214.05,-159.84 193.6,-146.11 177.62,-132 160.56,-116.94 143.33,-97.34 131.93,-83.62"/>
<polygon fill="midnightblue" stroke="midnightblue" points="134.38,-81.08 125.35,-75.55 128.96,-85.51 134.38,-81.08"/>
</g>
<!-- Node8 -->
<g id="node8" class="node">
<title>Node8</title>
<g id="a_node8"><a xlink:href="____l4__fpage_8h_source.html" target="_top" xlink:title=" ">
<polygon fill="white" stroke="black" points="186.62,-112.5 186.62,-131.5 296.62,-131.5 296.62,-112.5 186.62,-112.5"/>
<text text-anchor="middle" x="241.62" y="-119.5" font-family="Helvetica,sans-Serif" font-size="10.00">l4/sys/__l4_fpage.h</text>
</a>
</g>
</g>
<!-- Node7&#45;&gt;Node8 -->
<g id="edge10" class="edge">
<title>Node7&#45;&gt;Node8</title>
<path fill="none" stroke="midnightblue" d="M241.62,-168.08C241.62,-161.01 241.62,-150.86 241.62,-141.99"/>
<polygon fill="midnightblue" stroke="midnightblue" points="245.12,-141.75 241.62,-131.75 238.12,-141.75 245.12,-141.75"/>
</g>
<!-- Node9 -->
<g id="node9" class="node">
<title>Node9</title>
<g id="a_node9"><a xlink:href="____timeout_8h_source.html" target="_top" xlink:title=" ">
<polygon fill="white" stroke="black" points="24.62,-112.5 24.62,-131.5 130.62,-131.5 130.62,-112.5 24.62,-112.5"/>
<text text-anchor="middle" x="77.62" y="-119.5" font-family="Helvetica,sans-Serif" font-size="10.00">l4/sys/__timeout.h</text>
</a>
</g>
</g>
<!-- Node7&#45;&gt;Node9 -->
<g id="edge12" class="edge">
<title>Node7&#45;&gt;Node9</title>
<path fill="none" stroke="midnightblue" d="M215.63,-168.44C187.92,-159.32 143.87,-144.81 113,-134.65"/>
<polygon fill="midnightblue" stroke="midnightblue" points="114.08,-131.32 103.48,-131.52 111.89,-137.97 114.08,-131.32"/>
</g>
<!-- Node8&#45;&gt;Node4 -->
<g id="edge11" class="edge">
<title>Node8&#45;&gt;Node4</title>
<path fill="none" stroke="midnightblue" d="M260.79,-112.44C280.53,-103.64 311.5,-89.81 334.11,-79.72"/>
<polygon fill="midnightblue" stroke="midnightblue" points="335.83,-82.79 343.54,-75.52 332.98,-76.4 335.83,-82.79"/>
</g>
<!-- Node9&#45;&gt;Node6 -->
<g id="edge13" class="edge">
<title>Node9&#45;&gt;Node6</title>
<path fill="none" stroke="midnightblue" d="M84.39,-112.08C90.18,-104.46 98.68,-93.26 105.76,-83.94"/>
<polygon fill="midnightblue" stroke="midnightblue" points="108.71,-85.83 111.97,-75.75 103.14,-81.6 108.71,-85.83"/>
</g>
<!-- Node10&#45;&gt;Node4 -->
<g id="edge15" class="edge">
<title>Node10&#45;&gt;Node4</title>
<path fill="none" stroke="midnightblue" d="M259.81,-280.37C274.17,-272.7 293.7,-260.19 305.62,-244 342.25,-194.25 355.97,-119.97 360.56,-85.64"/>
<polygon fill="midnightblue" stroke="midnightblue" points="364.04,-85.97 361.79,-75.62 357.1,-85.12 364.04,-85.97"/>
</g>
<!-- Node10&#45;&gt;Node6 -->
<g id="edge16" class="edge">
<title>Node10&#45;&gt;Node6</title>
<path fill="none" stroke="midnightblue" d="M205.21,-284.66C156.51,-278.16 73.71,-264.42 51.62,-244 6.97,-202.72 -17.68,-162.88 15.62,-112 27.65,-93.62 49.02,-82.7 69.18,-76.24"/>
<polygon fill="midnightblue" stroke="midnightblue" points="70.31,-79.55 78.94,-73.41 68.36,-72.83 70.31,-79.55"/>
</g>
<!-- Node11 -->
<g id="node11" class="node">
<title>Node11</title>
<g id="a_node11"><a xlink:title=" ">
<polygon fill="white" stroke="#bfbfbf" points="61.12,-224.5 61.12,-243.5 168.12,-243.5 168.12,-224.5 61.12,-224.5"/>
<text text-anchor="middle" x="114.62" y="-231.5" font-family="Helvetica,sans-Serif" font-size="10.00">l4/sys/__kip&#45;arch.h</text>
</a>
</g>
</g>
<!-- Node10&#45;&gt;Node11 -->
<g id="edge17" class="edge">
<title>Node10&#45;&gt;Node11</title>
<path fill="none" stroke="midnightblue" d="M221.49,-280.44C200.59,-271.56 167.68,-257.56 143.9,-247.45"/>
<polygon fill="midnightblue" stroke="midnightblue" points="145.22,-244.21 134.65,-243.52 142.48,-250.65 145.22,-244.21"/>
</g>
<!-- Node12 -->
<g id="node12" class="node">
<title>Node12</title>
<g id="a_node12"><a xlink:href="____kip-64bit_8h_source.html" target="_top" xlink:title=" ">
<polygon fill="white" stroke="black" points="186.12,-224.5 186.12,-243.5 297.12,-243.5 297.12,-224.5 186.12,-224.5"/>
<text text-anchor="middle" x="241.62" y="-231.5" font-family="Helvetica,sans-Serif" font-size="10.00">l4/sys/__kip&#45;64bit.h</text>
</a>
</g>
</g>
<!-- Node10&#45;&gt;Node12 -->
<g id="edge18" class="edge">
<title>Node10&#45;&gt;Node12</title>
<path fill="none" stroke="midnightblue" d="M241.62,-280.08C241.62,-273.01 241.62,-262.86 241.62,-253.99"/>
<polygon fill="midnightblue" stroke="midnightblue" points="245.12,-253.75 241.62,-243.75 238.12,-253.75 245.12,-253.75"/>
</g>
<!-- Node12&#45;&gt;Node7 -->
<g id="edge19" class="edge">
<title>Node12&#45;&gt;Node7</title>
<path fill="none" stroke="midnightblue" d="M241.62,-224.08C241.62,-217.01 241.62,-206.86 241.62,-197.99"/>
<polygon fill="midnightblue" stroke="midnightblue" points="245.12,-197.75 241.62,-187.75 238.12,-197.75 245.12,-197.75"/>
</g>
<!-- Node13&#45;&gt;Node3 -->
<g id="edge22" class="edge">
<title>Node13&#45;&gt;Node3</title>
<path fill="none" stroke="midnightblue" d="M432.28,-168.08C432.8,-161.01 433.55,-150.86 434.21,-141.99"/>
<polygon fill="midnightblue" stroke="midnightblue" points="437.72,-141.98 434.97,-131.75 430.74,-141.47 437.72,-141.98"/>
</g>
<!-- Node14&#45;&gt;Node7 -->
<g id="edge24" class="edge">
<title>Node14&#45;&gt;Node7</title>
<path fill="none" stroke="midnightblue" d="M156.26,-336.46C110.64,-317.81 14.22,-271.3 51.62,-224 68.54,-202.61 139.26,-190.33 189.46,-184.16"/>
<polygon fill="midnightblue" stroke="midnightblue" points="189.99,-187.62 199.51,-182.97 189.17,-180.67 189.99,-187.62"/>
</g>
</g>
</svg>
