<?xml version="1.0" encoding="UTF-8" standalone="no"?>
<!DOCTYPE svg PUBLIC "-//W3C//DTD SVG 1.1//EN"
 "http://www.w3.org/Graphics/SVG/1.1/DTD/svg11.dtd">
<!-- Generated by graphviz version 2.43.0 (0)
 -->
<!-- Title: l4/re/rm Pages: 1 -->
<svg width="1453pt" height="834pt"
 viewBox="0.00 0.00 1453.00 834.00" xmlns="http://www.w3.org/2000/svg" xmlns:xlink="http://www.w3.org/1999/xlink">
<g id="graph0" class="graph" transform="scale(1 1) rotate(0) translate(4 830)">
<title>l4/re/rm</title>
<polygon fill="white" stroke="transparent" points="-4,4 -4,-830 1449,-830 1449,4 -4,4"/>
<!-- Node1 -->
<g id="node1" class="node">
<title>Node1</title>
<g id="a_node1"><a xlink:title="Region mapper interface.">
<polygon fill="#bfbfbf" stroke="black" points="451.5,-806.5 451.5,-825.5 506.5,-825.5 506.5,-806.5 451.5,-806.5"/>
<text text-anchor="middle" x="479" y="-813.5" font-family="Helvetica,sans-Serif" font-size="10.00">l4/re/rm</text>
</a>
</g>
</g>
<!-- Node2 -->
<g id="node2" class="node">
<title>Node2</title>
<g id="a_node2"><a xlink:href="l4_2sys_2types_8h.html" target="_top" xlink:title="Common L4 ABI Data Types.">
<polygon fill="white" stroke="black" points="690,-168.5 690,-187.5 774,-187.5 774,-168.5 690,-168.5"/>
<text text-anchor="middle" x="732" y="-175.5" font-family="Helvetica,sans-Serif" font-size="10.00">l4/sys/types.h</text>
</a>
</g>
</g>
<!-- Node1&#45;&gt;Node2 -->
<g id="edge1" class="edge">
<title>Node1&#45;&gt;Node2</title>
<path fill="none" stroke="midnightblue" d="M451.18,-814.61C348.95,-812.44 0,-798.22 0,-705 0,-705 0,-705 0,-289 0,-220.2 512.19,-189.53 679.69,-181.34"/>
<polygon fill="midnightblue" stroke="midnightblue" points="679.93,-184.84 689.75,-180.86 679.59,-177.84 679.93,-184.84"/>
</g>
<!-- Node3 -->
<g id="node3" class="node">
<title>Node3</title>
<g id="a_node3"><a xlink:href="l4_2sys_2l4int_8h.html" target="_top" xlink:title="Fixed sized integer types, generic version.">
<polygon fill="white" stroke="black" points="1086.5,-56.5 1086.5,-75.5 1165.5,-75.5 1165.5,-56.5 1086.5,-56.5"/>
<text text-anchor="middle" x="1126" y="-63.5" font-family="Helvetica,sans-Serif" font-size="10.00">l4/sys/l4int.h</text>
</a>
</g>
</g>
<!-- Node1&#45;&gt;Node3 -->
<g id="edge12" class="edge">
<title>Node1&#45;&gt;Node3</title>
<path fill="none" stroke="midnightblue" d="M506.61,-814.83C664.41,-813.52 1445,-802.11 1445,-705 1445,-705 1445,-705 1445,-177 1445,-120.73 1265.38,-86.97 1175.71,-73.62"/>
<polygon fill="midnightblue" stroke="midnightblue" points="1176.16,-70.15 1165.76,-72.17 1175.15,-77.08 1176.16,-70.15"/>
</g>
<!-- Node9 -->
<g id="node9" class="node">
<title>Node9</title>
<g id="a_node9"><a xlink:href="capability.html" target="_top" xlink:title="L4::Cap related definitions.">
<polygon fill="white" stroke="black" points="720,-694.5 720,-713.5 816,-713.5 816,-694.5 720,-694.5"/>
<text text-anchor="middle" x="768" y="-701.5" font-family="Helvetica,sans-Serif" font-size="10.00">l4/sys/capability</text>
</a>
</g>
</g>
<!-- Node1&#45;&gt;Node9 -->
<g id="edge13" class="edge">
<title>Node1&#45;&gt;Node9</title>
<path fill="none" stroke="midnightblue" d="M506.64,-807.01C535.09,-798.58 580.55,-784.53 619,-770 662.17,-753.69 710.98,-731.7 740.61,-717.94"/>
<polygon fill="midnightblue" stroke="midnightblue" points="742.31,-721.01 749.89,-713.6 739.35,-714.66 742.31,-721.01"/>
</g>
<!-- Node17 -->
<g id="node17" class="node">
<title>Node17</title>
<g id="a_node17"><a xlink:href="types.html" target="_top" xlink:title=" ">
<polygon fill="white" stroke="black" points="208,-342 208,-361 272,-361 272,-342 208,-342"/>
<text text-anchor="middle" x="240" y="-349" font-family="Helvetica,sans-Serif" font-size="10.00">cxx/types</text>
</a>
</g>
</g>
<!-- Node1&#45;&gt;Node17 -->
<g id="edge72" class="edge">
<title>Node1&#45;&gt;Node17</title>
<path fill="none" stroke="midnightblue" d="M451.49,-813.07C383.47,-808.01 209.09,-793.1 156,-770 113.99,-751.72 76,-750.81 76,-705 76,-705 76,-705 76,-473.5 76,-412.76 149.75,-379.07 198.34,-363.47"/>
<polygon fill="midnightblue" stroke="midnightblue" points="199.46,-366.78 207.99,-360.49 197.4,-360.09 199.46,-366.78"/>
</g>
<!-- Node22 -->
<g id="node22" class="node">
<title>Node22</title>
<g id="a_node22"><a xlink:href="ipc__iface.html" target="_top" xlink:title="Interface Definition Language.">
<polygon fill="white" stroke="black" points="366,-582.5 366,-601.5 446,-601.5 446,-582.5 366,-582.5"/>
<text text-anchor="middle" x="406" y="-589.5" font-family="Helvetica,sans-Serif" font-size="10.00">cxx/ipc_iface</text>
</a>
</g>
</g>
<!-- Node1&#45;&gt;Node22 -->
<g id="edge68" class="edge">
<title>Node1&#45;&gt;Node22</title>
<path fill="none" stroke="midnightblue" d="M476.14,-806.3C465.37,-773.56 427.17,-657.38 412.14,-611.67"/>
<polygon fill="midnightblue" stroke="midnightblue" points="415.37,-610.29 408.92,-601.88 408.72,-612.48 415.37,-610.29"/>
</g>
<!-- Node26 -->
<g id="node26" class="node">
<title>Node26</title>
<g id="a_node26"><a xlink:href="protocols_8h.html" target="_top" xlink:title="L4Re Protocol Constants (C version)">
<polygon fill="white" stroke="black" points="1093.5,-694.5 1093.5,-713.5 1188.5,-713.5 1188.5,-694.5 1093.5,-694.5"/>
<text text-anchor="middle" x="1141" y="-701.5" font-family="Helvetica,sans-Serif" font-size="10.00">l4/re/protocols.h</text>
</a>
</g>
</g>
<!-- Node1&#45;&gt;Node26 -->
<g id="edge62" class="edge">
<title>Node1&#45;&gt;Node26</title>
<path fill="none" stroke="midnightblue" d="M506.6,-810.41C605.91,-793.91 946.39,-737.34 1083.3,-714.59"/>
<polygon fill="midnightblue" stroke="midnightblue" points="1083.9,-718.04 1093.19,-712.94 1082.75,-711.13 1083.9,-718.04"/>
</g>
<!-- Node27 -->
<g id="node27" class="node">
<title>Node27</title>
<g id="a_node27"><a xlink:href="pager.html" target="_top" xlink:title="Pager and Io_pager C++ interface.">
<polygon fill="white" stroke="black" points="297,-750.5 297,-769.5 373,-769.5 373,-750.5 297,-750.5"/>
<text text-anchor="middle" x="335" y="-757.5" font-family="Helvetica,sans-Serif" font-size="10.00">l4/sys/pager</text>
</a>
</g>
</g>
<!-- Node1&#45;&gt;Node27 -->
<g id="edge63" class="edge">
<title>Node1&#45;&gt;Node27</title>
<path fill="none" stroke="midnightblue" d="M456.18,-806.44C432.17,-797.44 394.17,-783.19 367.13,-773.05"/>
<polygon fill="midnightblue" stroke="midnightblue" points="368.3,-769.75 357.71,-769.52 365.84,-776.3 368.3,-769.75"/>
</g>
<!-- Node28 -->
<g id="node28" class="node">
<title>Node28</title>
<g id="a_node28"><a xlink:href="ipc__ret__array_source.html" target="_top" xlink:title=" ">
<polygon fill="white" stroke="black" points="104.5,-459.5 104.5,-489.5 205.5,-489.5 205.5,-459.5 104.5,-459.5"/>
<text text-anchor="start" x="112.5" y="-477.5" font-family="Helvetica,sans-Serif" font-size="10.00">l4/sys/cxx/ipc_ret</text>
<text text-anchor="middle" x="155" y="-466.5" font-family="Helvetica,sans-Serif" font-size="10.00">_array</text>
</a>
</g>
</g>
<!-- Node1&#45;&gt;Node28 -->
<g id="edge69" class="edge">
<title>Node1&#45;&gt;Node28</title>
<path fill="none" stroke="midnightblue" d="M451.27,-812.67C366.09,-804.76 114,-775.4 114,-705 114,-705 114,-705 114,-591 114,-557.3 129.69,-521.09 141.66,-498.38"/>
<polygon fill="midnightblue" stroke="midnightblue" points="144.78,-499.97 146.5,-489.51 138.64,-496.61 144.78,-499.97"/>
</g>
<!-- Node29 -->
<g id="node29" class="node">
<title>Node29</title>
<g id="a_node29"><a xlink:href="re_2consts.html" target="_top" xlink:title="Constants.">
<polygon fill="white" stroke="black" points="1092.5,-750.5 1092.5,-769.5 1165.5,-769.5 1165.5,-750.5 1092.5,-750.5"/>
<text text-anchor="middle" x="1129" y="-757.5" font-family="Helvetica,sans-Serif" font-size="10.00">l4/re/consts</text>
</a>
</g>
</g>
<!-- Node1&#45;&gt;Node29 -->
<g id="edge73" class="edge">
<title>Node1&#45;&gt;Node29</title>
<path fill="none" stroke="midnightblue" d="M506.51,-812.71C606.99,-804.37 954.83,-775.47 1081.98,-764.91"/>
<polygon fill="midnightblue" stroke="midnightblue" points="1082.5,-768.38 1092.17,-764.06 1081.92,-761.4 1082.5,-768.38"/>
</g>
<!-- Node35 -->
<g id="node35" class="node">
<title>Node35</title>
<g id="a_node35"><a xlink:href="dataspace.html" target="_top" xlink:title="Dataspace interface.">
<polygon fill="white" stroke="black" points="518,-750.5 518,-769.5 610,-769.5 610,-750.5 518,-750.5"/>
<text text-anchor="middle" x="564" y="-757.5" font-family="Helvetica,sans-Serif" font-size="10.00">l4/re/dataspace</text>
</a>
</g>
</g>
<!-- Node1&#45;&gt;Node35 -->
<g id="edge88" class="edge">
<title>Node1&#45;&gt;Node35</title>
<path fill="none" stroke="midnightblue" d="M492.66,-806.32C505.92,-797.9 526.27,-784.97 541.85,-775.07"/>
<polygon fill="midnightblue" stroke="midnightblue" points="543.81,-777.97 550.38,-769.65 540.06,-772.06 543.81,-777.97"/>
</g>
<!-- Node2&#45;&gt;Node3 -->
<g id="edge2" class="edge">
<title>Node2&#45;&gt;Node3</title>
<path fill="none" stroke="midnightblue" d="M771.09,-168.49C809.26,-159.98 868.9,-146.16 920,-132 980.64,-115.2 1050.28,-92.5 1091.07,-78.85"/>
<polygon fill="midnightblue" stroke="midnightblue" points="1092.43,-82.09 1100.8,-75.59 1090.21,-75.45 1092.43,-82.09"/>
</g>
<!-- Node4 -->
<g id="node4" class="node">
<title>Node4</title>
<g id="a_node4"><a xlink:href="compiler_8h.html" target="_top" xlink:title="L4 compiler related defines.">
<polygon fill="white" stroke="black" points="641.5,-56.5 641.5,-75.5 740.5,-75.5 740.5,-56.5 641.5,-56.5"/>
<text text-anchor="middle" x="691" y="-63.5" font-family="Helvetica,sans-Serif" font-size="10.00">l4/sys/compiler.h</text>
</a>
</g>
</g>
<!-- Node2&#45;&gt;Node4 -->
<g id="edge3" class="edge">
<title>Node2&#45;&gt;Node4</title>
<path fill="none" stroke="midnightblue" d="M710.52,-168.36C695.61,-161.09 676.89,-149.12 668,-132 659.93,-116.46 668.59,-97.46 677.49,-84.03"/>
<polygon fill="midnightblue" stroke="midnightblue" points="680.47,-85.88 683.5,-75.73 674.8,-81.78 680.47,-85.88"/>
</g>
<!-- Node6 -->
<g id="node6" class="node">
<title>Node6</title>
<g id="a_node6"><a xlink:href="l4_2sys_2consts_8h.html" target="_top" xlink:title="Common constants.">
<polygon fill="white" stroke="black" points="1081.5,-112.5 1081.5,-131.5 1170.5,-131.5 1170.5,-112.5 1081.5,-112.5"/>
<text text-anchor="middle" x="1126" y="-119.5" font-family="Helvetica,sans-Serif" font-size="10.00">l4/sys/consts.h</text>
</a>
</g>
</g>
<!-- Node2&#45;&gt;Node6 -->
<g id="edge5" class="edge">
<title>Node2&#45;&gt;Node6</title>
<path fill="none" stroke="midnightblue" d="M774.16,-171.22C845.89,-161.39 991.57,-141.42 1071.13,-130.52"/>
<polygon fill="midnightblue" stroke="midnightblue" points="1072,-133.93 1081.43,-129.11 1071.05,-127 1072,-133.93"/>
</g>
<!-- Node7 -->
<g id="node7" class="node">
<title>Node7</title>
<g id="a_node7"><a xlink:href="____l4__fpage_8h_source.html" target="_top" xlink:title=" ">
<polygon fill="white" stroke="black" points="677,-112.5 677,-131.5 787,-131.5 787,-112.5 677,-112.5"/>
<text text-anchor="middle" x="732" y="-119.5" font-family="Helvetica,sans-Serif" font-size="10.00">l4/sys/__l4_fpage.h</text>
</a>
</g>
</g>
<!-- Node2&#45;&gt;Node7 -->
<g id="edge8" class="edge">
<title>Node2&#45;&gt;Node7</title>
<path fill="none" stroke="midnightblue" d="M732,-168.08C732,-161.01 732,-150.86 732,-141.99"/>
<polygon fill="midnightblue" stroke="midnightblue" points="735.5,-141.75 732,-131.75 728.5,-141.75 735.5,-141.75"/>
</g>
<!-- Node8 -->
<g id="node8" class="node">
<title>Node8</title>
<g id="a_node8"><a xlink:href="____timeout_8h_source.html" target="_top" xlink:title=" ">
<polygon fill="white" stroke="black" points="805,-112.5 805,-131.5 911,-131.5 911,-112.5 805,-112.5"/>
<text text-anchor="middle" x="858" y="-119.5" font-family="Helvetica,sans-Serif" font-size="10.00">l4/sys/__timeout.h</text>
</a>
</g>
</g>
<!-- Node2&#45;&gt;Node8 -->
<g id="edge10" class="edge">
<title>Node2&#45;&gt;Node8</title>
<path fill="none" stroke="midnightblue" d="M751.97,-168.44C772.61,-159.6 805.06,-145.69 828.63,-135.59"/>
<polygon fill="midnightblue" stroke="midnightblue" points="830.32,-138.67 838.13,-131.52 827.56,-132.24 830.32,-138.67"/>
</g>
<!-- Node5 -->
<g id="node5" class="node">
<title>Node5</title>
<g id="a_node5"><a xlink:title=" ">
<polygon fill="white" stroke="#bfbfbf" points="645,-0.5 645,-19.5 737,-19.5 737,-0.5 645,-0.5"/>
<text text-anchor="middle" x="691" y="-7.5" font-family="Helvetica,sans-Serif" font-size="10.00">l4/sys/linkage.h</text>
</a>
</g>
</g>
<!-- Node4&#45;&gt;Node5 -->
<g id="edge4" class="edge">
<title>Node4&#45;&gt;Node5</title>
<path fill="none" stroke="midnightblue" d="M691,-56.08C691,-49.01 691,-38.86 691,-29.99"/>
<polygon fill="midnightblue" stroke="midnightblue" points="694.5,-29.75 691,-19.75 687.5,-29.75 694.5,-29.75"/>
</g>
<!-- Node6&#45;&gt;Node3 -->
<g id="edge7" class="edge">
<title>Node6&#45;&gt;Node3</title>
<path fill="none" stroke="midnightblue" d="M1126,-112.08C1126,-105.01 1126,-94.86 1126,-85.99"/>
<polygon fill="midnightblue" stroke="midnightblue" points="1129.5,-85.75 1126,-75.75 1122.5,-85.75 1129.5,-85.75"/>
</g>
<!-- Node6&#45;&gt;Node4 -->
<g id="edge6" class="edge">
<title>Node6&#45;&gt;Node4</title>
<path fill="none" stroke="midnightblue" d="M1081.49,-115.47C1002.86,-105.71 839.35,-85.42 750.9,-74.44"/>
<polygon fill="midnightblue" stroke="midnightblue" points="751.12,-70.94 740.76,-73.18 750.25,-77.88 751.12,-70.94"/>
</g>
<!-- Node7&#45;&gt;Node4 -->
<g id="edge9" class="edge">
<title>Node7&#45;&gt;Node4</title>
<path fill="none" stroke="midnightblue" d="M725.23,-112.08C719.44,-104.46 710.94,-93.26 703.86,-83.94"/>
<polygon fill="midnightblue" stroke="midnightblue" points="706.48,-81.6 697.64,-75.75 700.9,-85.83 706.48,-81.6"/>
</g>
<!-- Node8&#45;&gt;Node3 -->
<g id="edge11" class="edge">
<title>Node8&#45;&gt;Node3</title>
<path fill="none" stroke="midnightblue" d="M900.47,-112.44C948.24,-102.82 1025.76,-87.2 1076.31,-77.01"/>
<polygon fill="midnightblue" stroke="midnightblue" points="1077.24,-80.39 1086.35,-74.99 1075.86,-73.53 1077.24,-80.39"/>
</g>
<!-- Node9&#45;&gt;Node2 -->
<g id="edge15" class="edge">
<title>Node9&#45;&gt;Node2</title>
<path fill="none" stroke="midnightblue" d="M801.66,-694.48C845.89,-681.04 918,-650.32 918,-593 918,-593 918,-593 918,-350.5 918,-306.35 803.29,-225.77 754.04,-193.21"/>
<polygon fill="midnightblue" stroke="midnightblue" points="755.66,-190.09 745.38,-187.54 751.82,-195.95 755.66,-190.09"/>
</g>
<!-- Node9&#45;&gt;Node6 -->
<g id="edge14" class="edge">
<title>Node9&#45;&gt;Node6</title>
<path fill="none" stroke="midnightblue" d="M816.21,-702.26C888.09,-698.31 1015,-679.14 1015,-593 1015,-593 1015,-593 1015,-233 1015,-186.82 1064.06,-153.43 1096.95,-136.23"/>
<polygon fill="midnightblue" stroke="midnightblue" points="1098.79,-139.22 1106.16,-131.61 1095.65,-132.96 1098.79,-139.22"/>
</g>
<!-- Node10 -->
<g id="node10" class="node">
<title>Node10</title>
<g id="a_node10"><a xlink:href="kobject_source.html" target="_top" xlink:title=" ">
<polygon fill="white" stroke="black" points="762.5,-526.5 762.5,-545.5 845.5,-545.5 845.5,-526.5 762.5,-526.5"/>
<text text-anchor="middle" x="804" y="-533.5" font-family="Helvetica,sans-Serif" font-size="10.00">l4/sys/kobject</text>
</a>
</g>
</g>
<!-- Node9&#45;&gt;Node10 -->
<g id="edge16" class="edge">
<title>Node9&#45;&gt;Node10</title>
<path fill="none" stroke="midnightblue" d="M769.94,-694.08C775.6,-667.95 792.24,-591.21 799.97,-555.58"/>
<polygon fill="midnightblue" stroke="midnightblue" points="803.44,-556.08 802.14,-545.57 796.6,-554.6 803.44,-556.08"/>
</g>
<!-- Node20 -->
<g id="node20" class="node">
<title>Node20</title>
<g id="a_node20"><a xlink:href="l4_2sys_2task_8h.html" target="_top" xlink:title="Common task related definitions.">
<polygon fill="white" stroke="black" points="518,-342 518,-361 596,-361 596,-342 518,-342"/>
<text text-anchor="middle" x="557" y="-349" font-family="Helvetica,sans-Serif" font-size="10.00">l4/sys/task.h</text>
</a>
</g>
</g>
<!-- Node9&#45;&gt;Node20 -->
<g id="edge45" class="edge">
<title>Node9&#45;&gt;Node20</title>
<path fill="none" stroke="midnightblue" d="M762.72,-694.23C752.27,-676.04 730,-632.6 730,-593 730,-593 730,-593 730,-473.5 730,-440.4 729.42,-426.39 706,-403 691.36,-388.38 641.89,-373.38 603.92,-363.57"/>
<polygon fill="midnightblue" stroke="midnightblue" points="604.61,-360.14 594.05,-361.07 602.89,-366.92 604.61,-360.14"/>
</g>
<!-- Node21 -->
<g id="node21" class="node">
<title>Node21</title>
<g id="a_node21"><a xlink:href="sys_2meta.html" target="_top" xlink:title="Meta interface for getting dynamic type information about objects behind capabilities.">
<polygon fill="white" stroke="black" points="569,-638.5 569,-657.5 643,-657.5 643,-638.5 569,-638.5"/>
<text text-anchor="middle" x="606" y="-645.5" font-family="Helvetica,sans-Serif" font-size="10.00">l4/sys/meta</text>
</a>
</g>
</g>
<!-- Node9&#45;&gt;Node21 -->
<g id="edge46" class="edge">
<title>Node9&#45;&gt;Node21</title>
<path fill="none" stroke="midnightblue" d="M742.33,-694.44C715.08,-685.36 671.82,-670.94 641.35,-660.78"/>
<polygon fill="midnightblue" stroke="midnightblue" points="642.14,-657.36 631.55,-657.52 639.93,-664 642.14,-657.36"/>
</g>
<!-- Node10&#45;&gt;Node2 -->
<g id="edge31" class="edge">
<title>Node10&#45;&gt;Node2</title>
<path fill="none" stroke="midnightblue" d="M814.25,-526.47C834.99,-508.18 880,-462.87 880,-414 880,-414 880,-414 880,-350.5 880,-340.38 784.33,-235.68 746.83,-195.02"/>
<polygon fill="midnightblue" stroke="midnightblue" points="749.31,-192.55 739.96,-187.58 744.17,-197.3 749.31,-192.55"/>
</g>
<!-- Node11 -->
<g id="node11" class="node">
<title>Node11</title>
<g id="a_node11"><a xlink:href="kernel__object_8h.html" target="_top" xlink:title="Kernel object system calls.">
<polygon fill="white" stroke="black" points="758.5,-403.5 758.5,-422.5 849.5,-422.5 849.5,-403.5 758.5,-403.5"/>
<text text-anchor="middle" x="804" y="-410.5" font-family="Helvetica,sans-Serif" font-size="10.00">kernel_object.h</text>
</a>
</g>
</g>
<!-- Node10&#45;&gt;Node11 -->
<g id="edge17" class="edge">
<title>Node10&#45;&gt;Node11</title>
<path fill="none" stroke="midnightblue" d="M804,-526.3C804,-506.85 804,-459.49 804,-432.9"/>
<polygon fill="midnightblue" stroke="midnightblue" points="807.5,-432.62 804,-422.62 800.5,-432.62 807.5,-432.62"/>
</g>
<!-- Node16 -->
<g id="node16" class="node">
<title>Node16</title>
<g id="a_node16"><a xlink:href="____typeinfo_8h.html" target="_top" xlink:title="Type information handling.">
<polygon fill="white" stroke="black" points="548.5,-465 548.5,-484 625.5,-484 625.5,-465 548.5,-465"/>
<text text-anchor="middle" x="587" y="-472" font-family="Helvetica,sans-Serif" font-size="10.00">__typeinfo.h</text>
</a>
</g>
</g>
<!-- Node10&#45;&gt;Node16 -->
<g id="edge32" class="edge">
<title>Node10&#45;&gt;Node16</title>
<path fill="none" stroke="midnightblue" d="M772.91,-526.48C734.72,-516 669.83,-498.21 627.7,-486.66"/>
<polygon fill="midnightblue" stroke="midnightblue" points="628.6,-483.28 618.03,-484.01 626.75,-490.03 628.6,-483.28"/>
</g>
<!-- Node11&#45;&gt;Node2 -->
<g id="edge18" class="edge">
<title>Node11&#45;&gt;Node2</title>
<path fill="none" stroke="midnightblue" d="M805.91,-403.4C808.73,-389.14 813.05,-359.8 807,-336 795.54,-290.9 776.51,-286.25 757,-244 749.87,-228.56 743.03,-210.47 738.31,-197.3"/>
<polygon fill="midnightblue" stroke="midnightblue" points="741.51,-195.83 734.89,-187.56 734.9,-198.16 741.51,-195.83"/>
</g>
<!-- Node11&#45;&gt;Node4 -->
<g id="edge19" class="edge">
<title>Node11&#45;&gt;Node4</title>
<path fill="none" stroke="midnightblue" d="M758.5,-407.96C680.19,-400.59 526.62,-384.13 509,-367 466.24,-325.44 485,-294.63 485,-235 485,-235 485,-235 485,-177 485,-110.08 570.64,-83.73 631.48,-73.45"/>
<polygon fill="midnightblue" stroke="midnightblue" points="632.07,-76.9 641.4,-71.88 630.97,-69.98 632.07,-76.9"/>
</g>
<!-- Node12 -->
<g id="node12" class="node">
<title>Node12</title>
<g id="a_node12"><a xlink:href="l4_2sys_2utcb_8h.html" target="_top" xlink:title="UTCB definitions.">
<polygon fill="white" stroke="black" points="589,-224.5 589,-243.5 667,-243.5 667,-224.5 589,-224.5"/>
<text text-anchor="middle" x="628" y="-231.5" font-family="Helvetica,sans-Serif" font-size="10.00">l4/sys/utcb.h</text>
</a>
</g>
</g>
<!-- Node11&#45;&gt;Node12 -->
<g id="edge20" class="edge">
<title>Node11&#45;&gt;Node12</title>
<path fill="none" stroke="midnightblue" d="M758.22,-405.01C716.08,-397.59 657.92,-384.51 643,-367 615.79,-335.06 619.68,-281.85 624.21,-253.73"/>
<polygon fill="midnightblue" stroke="midnightblue" points="627.69,-254.13 626.03,-243.66 620.8,-252.88 627.69,-254.13"/>
</g>
<!-- Node13 -->
<g id="node13" class="node">
<title>Node13</title>
<g id="a_node13"><a xlink:href="____kernel__object__impl_8h.html" target="_top" xlink:title="Low&#45;level kernel debugger functions.">
<polygon fill="white" stroke="black" points="652,-336.5 652,-366.5 776,-366.5 776,-336.5 652,-336.5"/>
<text text-anchor="start" x="660" y="-354.5" font-family="Helvetica,sans-Serif" font-size="10.00">l4/sys/__kernel_object</text>
<text text-anchor="middle" x="714" y="-343.5" font-family="Helvetica,sans-Serif" font-size="10.00">_impl.h</text>
</a>
</g>
</g>
<!-- Node11&#45;&gt;Node13 -->
<g id="edge24" class="edge">
<title>Node11&#45;&gt;Node13</title>
<path fill="none" stroke="midnightblue" d="M791.11,-403.48C778.8,-395.34 759.82,-382.79 743.77,-372.18"/>
<polygon fill="midnightblue" stroke="midnightblue" points="745.48,-369.12 735.21,-366.52 741.62,-374.96 745.48,-369.12"/>
</g>
<!-- Node14 -->
<g id="node14" class="node">
<title>Node14</title>
<g id="a_node14"><a xlink:href="l4_2sys_2ipc_8h.html" target="_top" xlink:title="Common IPC interface.">
<polygon fill="white" stroke="black" points="665.5,-280.5 665.5,-299.5 736.5,-299.5 736.5,-280.5 665.5,-280.5"/>
<text text-anchor="middle" x="701" y="-287.5" font-family="Helvetica,sans-Serif" font-size="10.00">l4/sys/ipc.h</text>
</a>
</g>
</g>
<!-- Node11&#45;&gt;Node14 -->
<g id="edge30" class="edge">
<title>Node11&#45;&gt;Node14</title>
<path fill="none" stroke="midnightblue" d="M804.02,-403.03C803.6,-387.7 800.72,-356.17 785,-336 773.35,-321.06 755.32,-310.48 738.94,-303.35"/>
<polygon fill="midnightblue" stroke="midnightblue" points="740.13,-300.05 729.55,-299.54 737.5,-306.54 740.13,-300.05"/>
</g>
<!-- Node12&#45;&gt;Node2 -->
<g id="edge21" class="edge">
<title>Node12&#45;&gt;Node2</title>
<path fill="none" stroke="midnightblue" d="M644.71,-224.32C661.31,-215.7 687,-202.36 706.22,-192.39"/>
<polygon fill="midnightblue" stroke="midnightblue" points="708.07,-195.37 715.33,-187.65 704.84,-189.16 708.07,-195.37"/>
</g>
<!-- Node12&#45;&gt;Node3 -->
<g id="edge23" class="edge">
<title>Node12&#45;&gt;Node3</title>
<path fill="none" stroke="midnightblue" d="M658.04,-224.42C689.3,-215.46 739.63,-200.93 783,-188 864.51,-163.7 885.85,-160.48 966,-132 1012.4,-115.51 1065.11,-93.43 1096.94,-79.71"/>
<polygon fill="midnightblue" stroke="midnightblue" points="1098.72,-82.76 1106.51,-75.57 1095.94,-76.33 1098.72,-82.76"/>
</g>
<!-- Node12&#45;&gt;Node4 -->
<g id="edge22" class="edge">
<title>Node12&#45;&gt;Node4</title>
<path fill="none" stroke="midnightblue" d="M629.35,-224.46C632.77,-204.23 642.78,-152.03 661,-112 665.47,-102.19 671.96,-92.13 677.76,-84.01"/>
<polygon fill="midnightblue" stroke="midnightblue" points="680.72,-85.91 683.88,-75.8 675.1,-81.73 680.72,-85.91"/>
</g>
<!-- Node13&#45;&gt;Node14 -->
<g id="edge25" class="edge">
<title>Node13&#45;&gt;Node14</title>
<path fill="none" stroke="midnightblue" d="M710.92,-336.4C709.17,-328.38 706.95,-318.23 705.06,-309.57"/>
<polygon fill="midnightblue" stroke="midnightblue" points="708.45,-308.68 702.89,-299.66 701.61,-310.17 708.45,-308.68"/>
</g>
<!-- Node14&#45;&gt;Node2 -->
<g id="edge26" class="edge">
<title>Node14&#45;&gt;Node2</title>
<path fill="none" stroke="midnightblue" d="M703.41,-280.16C706.84,-267.65 713.33,-244.06 719,-224 721.49,-215.19 724.31,-205.42 726.68,-197.24"/>
<polygon fill="midnightblue" stroke="midnightblue" points="730.05,-198.2 729.48,-187.62 723.33,-196.24 730.05,-198.2"/>
</g>
<!-- Node14&#45;&gt;Node12 -->
<g id="edge27" class="edge">
<title>Node14&#45;&gt;Node12</title>
<path fill="none" stroke="midnightblue" d="M689.27,-280.32C678.16,-272.11 661.26,-259.6 648.02,-249.81"/>
<polygon fill="midnightblue" stroke="midnightblue" points="650.06,-246.97 639.94,-243.83 645.9,-252.59 650.06,-246.97"/>
</g>
<!-- Node15 -->
<g id="node15" class="node">
<title>Node15</title>
<g id="a_node15"><a xlink:href="err_8h.html" target="_top" xlink:title="Error codes.">
<polygon fill="white" stroke="black" points="235,-224.5 235,-243.5 305,-243.5 305,-224.5 235,-224.5"/>
<text text-anchor="middle" x="270" y="-231.5" font-family="Helvetica,sans-Serif" font-size="10.00">l4/sys/err.h</text>
</a>
</g>
</g>
<!-- Node14&#45;&gt;Node15 -->
<g id="edge28" class="edge">
<title>Node14&#45;&gt;Node15</title>
<path fill="none" stroke="midnightblue" d="M665.36,-284.54C587.26,-274.75 401.12,-251.43 315.06,-240.65"/>
<polygon fill="midnightblue" stroke="midnightblue" points="315.43,-237.17 305.08,-239.39 314.56,-244.11 315.43,-237.17"/>
</g>
<!-- Node15&#45;&gt;Node4 -->
<g id="edge29" class="edge">
<title>Node15&#45;&gt;Node4</title>
<path fill="none" stroke="midnightblue" d="M274.49,-224.15C281.95,-210.3 298.13,-183.51 319,-168 413.08,-98.11 552.54,-76.58 631.26,-69.95"/>
<polygon fill="midnightblue" stroke="midnightblue" points="631.79,-73.41 641.49,-69.14 631.24,-66.44 631.79,-73.41"/>
</g>
<!-- Node16&#45;&gt;Node17 -->
<g id="edge33" class="edge">
<title>Node16&#45;&gt;Node17</title>
<path fill="none" stroke="midnightblue" d="M577.05,-464.85C559.25,-449.86 520.25,-419.1 482,-403 415.34,-374.93 331.58,-361.94 282.12,-356.33"/>
<polygon fill="midnightblue" stroke="midnightblue" points="282.42,-352.84 272.1,-355.24 281.66,-359.8 282.42,-352.84"/>
</g>
<!-- Node18 -->
<g id="node18" class="node">
<title>Node18</title>
<g id="a_node18"><a xlink:href="ipc__basics_source.html" target="_top" xlink:title=" ">
<polygon fill="white" stroke="black" points="300.5,-403.5 300.5,-422.5 387.5,-422.5 387.5,-403.5 300.5,-403.5"/>
<text text-anchor="middle" x="344" y="-410.5" font-family="Helvetica,sans-Serif" font-size="10.00">cxx/ipc_basics</text>
</a>
</g>
</g>
<!-- Node16&#45;&gt;Node18 -->
<g id="edge34" class="edge">
<title>Node16&#45;&gt;Node18</title>
<path fill="none" stroke="midnightblue" d="M552.18,-464.98C509.15,-454.44 435.83,-436.49 388.69,-424.94"/>
<polygon fill="midnightblue" stroke="midnightblue" points="389.3,-421.49 378.75,-422.51 387.63,-428.29 389.3,-421.49"/>
</g>
<!-- Node19 -->
<g id="node19" class="node">
<title>Node19</title>
<g id="a_node19"><a xlink:href="capability_8h_source.html" target="_top" xlink:title=" ">
<polygon fill="white" stroke="black" points="572,-403.5 572,-422.5 664,-422.5 664,-403.5 572,-403.5"/>
<text text-anchor="middle" x="618" y="-410.5" font-family="Helvetica,sans-Serif" font-size="10.00">cxx/capability.h</text>
</a>
</g>
</g>
<!-- Node16&#45;&gt;Node19 -->
<g id="edge38" class="edge">
<title>Node16&#45;&gt;Node19</title>
<path fill="none" stroke="midnightblue" d="M591.44,-464.98C595.95,-456.32 603.07,-442.65 608.81,-431.65"/>
<polygon fill="midnightblue" stroke="midnightblue" points="612.05,-432.99 613.57,-422.51 605.84,-429.76 612.05,-432.99"/>
</g>
<!-- Node18&#45;&gt;Node12 -->
<g id="edge36" class="edge">
<title>Node18&#45;&gt;Node12</title>
<path fill="none" stroke="midnightblue" d="M357.7,-403.46C403.14,-375.14 549.25,-284.08 605.57,-248.98"/>
<polygon fill="midnightblue" stroke="midnightblue" points="607.47,-251.92 614.11,-243.66 603.77,-245.98 607.47,-251.92"/>
</g>
<!-- Node18&#45;&gt;Node15 -->
<g id="edge37" class="edge">
<title>Node18&#45;&gt;Node15</title>
<path fill="none" stroke="midnightblue" d="M340.09,-403.41C336,-394.38 329.44,-379.74 324,-367 306.74,-326.55 287.44,-278.68 277.23,-253.17"/>
<polygon fill="midnightblue" stroke="midnightblue" points="280.41,-251.68 273.45,-243.69 273.9,-254.27 280.41,-251.68"/>
</g>
<!-- Node18&#45;&gt;Node17 -->
<g id="edge35" class="edge">
<title>Node18&#45;&gt;Node17</title>
<path fill="none" stroke="midnightblue" d="M329.1,-403.48C312.03,-393.71 283.84,-377.58 263.74,-366.08"/>
<polygon fill="midnightblue" stroke="midnightblue" points="265.29,-362.94 254.87,-361.01 261.81,-369.01 265.29,-362.94"/>
</g>
<!-- Node19&#45;&gt;Node2 -->
<g id="edge40" class="edge">
<title>Node19&#45;&gt;Node2</title>
<path fill="none" stroke="midnightblue" d="M571.75,-403.45C534.87,-395.58 487.53,-382.75 476,-367 467.86,-355.88 471.5,-349.02 476,-336 496.69,-276.17 511.16,-258.87 564,-224 598.75,-201.07 644.81,-189.79 679.91,-184.25"/>
<polygon fill="midnightblue" stroke="midnightblue" points="680.57,-187.69 689.96,-182.78 679.56,-180.77 680.57,-187.69"/>
</g>
<!-- Node19&#45;&gt;Node6 -->
<g id="edge39" class="edge">
<title>Node19&#45;&gt;Node6</title>
<path fill="none" stroke="midnightblue" d="M571.89,-403.8C541.06,-397 500.38,-385.41 468,-367 405.97,-331.73 349.65,-279.09 395,-224 438.02,-171.73 908.29,-136.93 1070.99,-126.37"/>
<polygon fill="midnightblue" stroke="midnightblue" points="1071.5,-129.85 1081.26,-125.71 1071.05,-122.86 1071.5,-129.85"/>
</g>
<!-- Node19&#45;&gt;Node20 -->
<g id="edge41" class="edge">
<title>Node19&#45;&gt;Node20</title>
<path fill="none" stroke="midnightblue" d="M609.26,-403.48C599.84,-394.28 584.64,-379.46 573.05,-368.16"/>
<polygon fill="midnightblue" stroke="midnightblue" points="575.33,-365.49 565.72,-361.01 570.44,-370.5 575.33,-365.49"/>
</g>
<!-- Node20&#45;&gt;Node2 -->
<g id="edge42" class="edge">
<title>Node20&#45;&gt;Node2</title>
<path fill="none" stroke="midnightblue" d="M555.77,-341.82C553.11,-319.28 549.29,-258.22 580,-224 605.07,-196.06 646.57,-185.12 679.88,-181"/>
<polygon fill="midnightblue" stroke="midnightblue" points="680.36,-184.47 689.93,-179.92 679.61,-177.5 680.36,-184.47"/>
</g>
<!-- Node20&#45;&gt;Node12 -->
<g id="edge43" class="edge">
<title>Node20&#45;&gt;Node12</title>
<path fill="none" stroke="midnightblue" d="M562.34,-341.82C573.95,-322.92 601.72,-277.75 617.17,-252.62"/>
<polygon fill="midnightblue" stroke="midnightblue" points="620.35,-254.13 622.6,-243.78 614.38,-250.47 620.35,-254.13"/>
</g>
<!-- Node20&#45;&gt;Node14 -->
<g id="edge44" class="edge">
<title>Node20&#45;&gt;Node14</title>
<path fill="none" stroke="midnightblue" d="M577.63,-341.98C602.12,-331.86 643.15,-314.9 671.11,-303.35"/>
<polygon fill="midnightblue" stroke="midnightblue" points="672.5,-306.56 680.41,-299.51 669.83,-300.09 672.5,-306.56"/>
</g>
<!-- Node21&#45;&gt;Node10 -->
<g id="edge47" class="edge">
<title>Node21&#45;&gt;Node10</title>
<path fill="none" stroke="midnightblue" d="M621.54,-638.37C655.88,-619.29 738.44,-573.42 779.69,-550.51"/>
<polygon fill="midnightblue" stroke="midnightblue" points="781.49,-553.51 788.54,-545.59 778.09,-547.39 781.49,-553.51"/>
</g>
<!-- Node21&#45;&gt;Node22 -->
<g id="edge48" class="edge">
<title>Node21&#45;&gt;Node22</title>
<path fill="none" stroke="midnightblue" d="M574.31,-638.44C539.93,-629.16 484.92,-614.31 447.21,-604.13"/>
<polygon fill="midnightblue" stroke="midnightblue" points="448.11,-600.74 437.54,-601.52 446.28,-607.5 448.11,-600.74"/>
</g>
<!-- Node24 -->
<g id="node24" class="node">
<title>Node24</title>
<g id="a_node24"><a xlink:href="ipc__string_source.html" target="_top" xlink:title=" ">
<polygon fill="white" stroke="black" points="517,-582.5 517,-601.5 601,-601.5 601,-582.5 517,-582.5"/>
<text text-anchor="middle" x="559" y="-589.5" font-family="Helvetica,sans-Serif" font-size="10.00">cxx/ipc_string</text>
</a>
</g>
</g>
<!-- Node21&#45;&gt;Node24 -->
<g id="edge55" class="edge">
<title>Node21&#45;&gt;Node24</title>
<path fill="none" stroke="midnightblue" d="M598.24,-638.08C591.46,-630.3 581.46,-618.8 573.24,-609.37"/>
<polygon fill="midnightblue" stroke="midnightblue" points="575.82,-607 566.62,-601.75 570.54,-611.59 575.82,-607"/>
</g>
<!-- Node22&#45;&gt;Node16 -->
<g id="edge54" class="edge">
<title>Node22&#45;&gt;Node16</title>
<path fill="none" stroke="midnightblue" d="M446.08,-587.51C478.28,-582.82 522.92,-571.81 553,-546 568.75,-532.48 577.81,-510 582.56,-494.06"/>
<polygon fill="midnightblue" stroke="midnightblue" points="585.97,-494.82 585.18,-484.26 579.21,-493.01 585.97,-494.82"/>
</g>
<!-- Node22&#45;&gt;Node18 -->
<g id="edge49" class="edge">
<title>Node22&#45;&gt;Node18</title>
<path fill="none" stroke="midnightblue" d="M406.4,-582.46C407.07,-560.69 406.7,-501.77 386,-459 380.57,-447.77 371.36,-437.43 362.95,-429.5"/>
<polygon fill="midnightblue" stroke="midnightblue" points="365.08,-426.71 355.28,-422.68 360.43,-431.94 365.08,-426.71"/>
</g>
<!-- Node23 -->
<g id="node23" class="node">
<title>Node23</title>
<g id="a_node23"><a xlink:href="ipc__types.html" target="_top" xlink:title=" ">
<polygon fill="white" stroke="black" points="262.5,-465 262.5,-484 377.5,-484 377.5,-465 262.5,-465"/>
<text text-anchor="middle" x="320" y="-472" font-family="Helvetica,sans-Serif" font-size="10.00">l4/sys/cxx/ipc_types</text>
</a>
</g>
</g>
<!-- Node22&#45;&gt;Node23 -->
<g id="edge50" class="edge">
<title>Node22&#45;&gt;Node23</title>
<path fill="none" stroke="midnightblue" d="M399.54,-582.32C385.34,-563.26 351.23,-517.45 332.63,-492.46"/>
<polygon fill="midnightblue" stroke="midnightblue" points="335.32,-490.21 326.54,-484.28 329.7,-494.39 335.32,-490.21"/>
</g>
<!-- Node23&#45;&gt;Node17 -->
<g id="edge52" class="edge">
<title>Node23&#45;&gt;Node17</title>
<path fill="none" stroke="midnightblue" d="M314.25,-464.8C301.1,-444.91 268.66,-395.85 251.34,-369.65"/>
<polygon fill="midnightblue" stroke="midnightblue" points="254.14,-367.53 245.7,-361.12 248.3,-371.4 254.14,-367.53"/>
</g>
<!-- Node23&#45;&gt;Node18 -->
<g id="edge53" class="edge">
<title>Node23&#45;&gt;Node18</title>
<path fill="none" stroke="midnightblue" d="M323.44,-464.98C326.9,-456.4 332.33,-442.93 336.75,-431.98"/>
<polygon fill="midnightblue" stroke="midnightblue" points="340.07,-433.09 340.57,-422.51 333.58,-430.47 340.07,-433.09"/>
</g>
<!-- Node23&#45;&gt;Node19 -->
<g id="edge51" class="edge">
<title>Node23&#45;&gt;Node19</title>
<path fill="none" stroke="midnightblue" d="M362.7,-464.98C416.14,-454.3 507.65,-436.03 565.37,-424.51"/>
<polygon fill="midnightblue" stroke="midnightblue" points="566.26,-427.9 575.38,-422.51 564.89,-421.03 566.26,-427.9"/>
</g>
<!-- Node24&#45;&gt;Node17 -->
<g id="edge56" class="edge">
<title>Node24&#45;&gt;Node17</title>
<path fill="none" stroke="midnightblue" d="M570.59,-582.49C598.08,-561.26 662.81,-504.4 634,-459 630.09,-452.83 521.96,-405.23 515,-403 434.89,-377.28 337.2,-363.24 282.45,-356.85"/>
<polygon fill="midnightblue" stroke="midnightblue" points="282.75,-353.36 272.42,-355.71 281.96,-360.32 282.75,-353.36"/>
</g>
<!-- Node24&#45;&gt;Node18 -->
<g id="edge57" class="edge">
<title>Node24&#45;&gt;Node18</title>
<path fill="none" stroke="midnightblue" d="M536.57,-582.45C518.21,-574.74 492.23,-562.14 473,-546 435.62,-514.62 441,-493.02 406,-459 394.03,-447.36 378.89,-436.32 366.57,-428.08"/>
<polygon fill="midnightblue" stroke="midnightblue" points="368.47,-425.14 358.18,-422.62 364.65,-431.01 368.47,-425.14"/>
</g>
<!-- Node25 -->
<g id="node25" class="node">
<title>Node25</title>
<g id="a_node25"><a xlink:href="ipc__array_source.html" target="_top" xlink:title=" ">
<polygon fill="white" stroke="black" points="482,-526.5 482,-545.5 544,-545.5 544,-526.5 482,-526.5"/>
<text text-anchor="middle" x="513" y="-533.5" font-family="Helvetica,sans-Serif" font-size="10.00">ipc_array</text>
</a>
</g>
</g>
<!-- Node24&#45;&gt;Node25 -->
<g id="edge58" class="edge">
<title>Node24&#45;&gt;Node25</title>
<path fill="none" stroke="midnightblue" d="M551.4,-582.08C544.77,-574.3 534.98,-562.8 526.94,-553.37"/>
<polygon fill="midnightblue" stroke="midnightblue" points="529.6,-551.09 520.45,-545.75 524.27,-555.63 529.6,-551.09"/>
</g>
<!-- Node25&#45;&gt;Node17 -->
<g id="edge59" class="edge">
<title>Node25&#45;&gt;Node17</title>
<path fill="none" stroke="midnightblue" d="M511.79,-526.1C509.33,-510.88 502.51,-479.51 486,-459 434.63,-395.18 337.58,-368.77 281.97,-358.5"/>
<polygon fill="midnightblue" stroke="midnightblue" points="282.54,-355.05 272.09,-356.77 281.33,-361.94 282.54,-355.05"/>
</g>
<!-- Node25&#45;&gt;Node18 -->
<g id="edge60" class="edge">
<title>Node25&#45;&gt;Node18</title>
<path fill="none" stroke="midnightblue" d="M508.79,-526.23C500.9,-510.65 482.44,-477.98 458,-459 438.03,-443.5 412.05,-432.69 389.93,-425.56"/>
<polygon fill="midnightblue" stroke="midnightblue" points="390.66,-422.13 380.07,-422.54 388.61,-428.82 390.66,-422.13"/>
</g>
<!-- Node25&#45;&gt;Node23 -->
<g id="edge61" class="edge">
<title>Node25&#45;&gt;Node23</title>
<path fill="none" stroke="midnightblue" d="M485.35,-526.48C451.81,-516.14 395.13,-498.66 357.63,-487.1"/>
<polygon fill="midnightblue" stroke="midnightblue" points="358.19,-483.61 347.6,-484.01 356.13,-490.3 358.19,-483.61"/>
</g>
<!-- Node27&#45;&gt;Node2 -->
<g id="edge65" class="edge">
<title>Node27&#45;&gt;Node2</title>
<path fill="none" stroke="midnightblue" d="M296.78,-755.38C216.57,-745.48 38,-710.25 38,-593 38,-593 38,-593 38,-473.5 38,-334.14 518.21,-222.85 679.72,-189.36"/>
<polygon fill="midnightblue" stroke="midnightblue" points="680.8,-192.71 689.89,-187.27 679.39,-185.86 680.8,-192.71"/>
</g>
<!-- Node27&#45;&gt;Node9 -->
<g id="edge64" class="edge">
<title>Node27&#45;&gt;Node9</title>
<path fill="none" stroke="midnightblue" d="M373.05,-754.26C448.95,-744.79 619.63,-723.5 709.74,-712.27"/>
<polygon fill="midnightblue" stroke="midnightblue" points="710.3,-715.72 719.79,-711.01 709.43,-708.78 710.3,-715.72"/>
</g>
<!-- Node27&#45;&gt;Node22 -->
<g id="edge67" class="edge">
<title>Node27&#45;&gt;Node22</title>
<path fill="none" stroke="midnightblue" d="M338.82,-750.08C350.04,-723.83 383.1,-646.55 398.25,-611.12"/>
<polygon fill="midnightblue" stroke="midnightblue" points="401.62,-612.14 402.34,-601.57 395.18,-609.39 401.62,-612.14"/>
</g>
<!-- Node27&#45;&gt;Node23 -->
<g id="edge66" class="edge">
<title>Node27&#45;&gt;Node23</title>
<path fill="none" stroke="midnightblue" d="M325.7,-750.28C308.18,-732.85 272,-691.69 272,-649 272,-649 272,-649 272,-591 272,-553.74 293.57,-514.53 307.79,-492.73"/>
<polygon fill="midnightblue" stroke="midnightblue" points="310.82,-494.5 313.53,-484.26 305.02,-490.58 310.82,-494.5"/>
</g>
<!-- Node28&#45;&gt;Node17 -->
<g id="edge70" class="edge">
<title>Node28&#45;&gt;Node17</title>
<path fill="none" stroke="midnightblue" d="M165.08,-459.14C180.85,-436.71 211.25,-393.42 228.08,-369.47"/>
<polygon fill="midnightblue" stroke="midnightblue" points="231.11,-371.25 233.99,-361.05 225.38,-367.22 231.11,-371.25"/>
</g>
<!-- Node28&#45;&gt;Node18 -->
<g id="edge71" class="edge">
<title>Node28&#45;&gt;Node18</title>
<path fill="none" stroke="midnightblue" d="M199.79,-459.4C232.45,-449.12 276.18,-435.35 306.89,-425.68"/>
<polygon fill="midnightblue" stroke="midnightblue" points="308.29,-428.91 316.77,-422.57 306.19,-422.24 308.29,-428.91"/>
</g>
<!-- Node29&#45;&gt;Node6 -->
<g id="edge75" class="edge">
<title>Node29&#45;&gt;Node6</title>
<path fill="none" stroke="midnightblue" d="M1165.58,-755.55C1223.79,-747.82 1331,-723.47 1331,-649 1331,-649 1331,-649 1331,-233 1331,-195.49 1223.07,-154.5 1163.84,-134.83"/>
<polygon fill="midnightblue" stroke="midnightblue" points="1164.67,-131.42 1154.07,-131.63 1162.49,-138.07 1164.67,-131.42"/>
</g>
<!-- Node29&#45;&gt;Node9 -->
<g id="edge74" class="edge">
<title>Node29&#45;&gt;Node9</title>
<path fill="none" stroke="midnightblue" d="M1092.4,-753.53C1029.74,-744.15 901.43,-724.96 826.32,-713.72"/>
<polygon fill="midnightblue" stroke="midnightblue" points="826.49,-710.21 816.09,-712.19 825.46,-717.13 826.49,-710.21"/>
</g>
<!-- Node30 -->
<g id="node30" class="node">
<title>Node30</title>
<g id="a_node30"><a xlink:href="env_8h.html" target="_top" xlink:title="Environment interface.">
<polygon fill="white" stroke="black" points="1183,-342 1183,-361 1251,-361 1251,-342 1183,-342"/>
<text text-anchor="middle" x="1217" y="-349" font-family="Helvetica,sans-Serif" font-size="10.00">l4/re/env.h</text>
</a>
</g>
</g>
<!-- Node29&#45;&gt;Node30 -->
<g id="edge76" class="edge">
<title>Node29&#45;&gt;Node30</title>
<path fill="none" stroke="midnightblue" d="M1149.7,-750.35C1165.14,-742.88 1185.64,-730.65 1198,-714 1215.94,-689.83 1217,-679.1 1217,-649 1217,-649 1217,-649 1217,-473.5 1217,-437.21 1217,-394.81 1217,-371.06"/>
<polygon fill="midnightblue" stroke="midnightblue" points="1220.5,-371.01 1217,-361.01 1213.5,-371.01 1220.5,-371.01"/>
</g>
<!-- Node30&#45;&gt;Node2 -->
<g id="edge78" class="edge">
<title>Node30&#45;&gt;Node2</title>
<path fill="none" stroke="midnightblue" d="M1218.77,-341.84C1222.91,-318.79 1230.51,-255.55 1197,-224 1167.44,-196.17 899.6,-184.34 784.35,-180.51"/>
<polygon fill="midnightblue" stroke="midnightblue" points="784.12,-177 774.01,-180.18 783.89,-184 784.12,-177"/>
</g>
<!-- Node30&#45;&gt;Node4 -->
<g id="edge85" class="edge">
<title>Node30&#45;&gt;Node4</title>
<path fill="none" stroke="midnightblue" d="M1184.21,-341.98C1157.3,-333.97 1119.04,-320.17 1090,-300 997.48,-235.74 1018.05,-167.47 920,-112 867.65,-82.39 799.02,-71.98 750.58,-68.47"/>
<polygon fill="midnightblue" stroke="midnightblue" points="750.77,-64.98 740.57,-67.82 750.32,-71.96 750.77,-64.98"/>
</g>
<!-- Node30&#45;&gt;Node6 -->
<g id="edge77" class="edge">
<title>Node30&#45;&gt;Node6</title>
<path fill="none" stroke="midnightblue" d="M1224.82,-342C1232.93,-332.56 1245.1,-316.46 1250,-300 1253.34,-288.78 1254.37,-253.51 1248,-224 1242.32,-197.7 1243.67,-187.37 1225,-168 1210.05,-152.49 1188.76,-141.86 1169.75,-134.85"/>
<polygon fill="midnightblue" stroke="midnightblue" points="1170.66,-131.46 1160.06,-131.51 1168.37,-138.08 1170.66,-131.46"/>
</g>
<!-- Node31 -->
<g id="node31" class="node">
<title>Node31</title>
<g id="a_node31"><a xlink:href="sys_2kip_8h.html" target="_top" xlink:title="Kernel Info Page access functions.">
<polygon fill="white" stroke="black" points="1099,-280.5 1099,-299.5 1171,-299.5 1171,-280.5 1099,-280.5"/>
<text text-anchor="middle" x="1135" y="-287.5" font-family="Helvetica,sans-Serif" font-size="10.00">l4/sys/kip.h</text>
</a>
</g>
</g>
<!-- Node30&#45;&gt;Node31 -->
<g id="edge79" class="edge">
<title>Node30&#45;&gt;Node31</title>
<path fill="none" stroke="midnightblue" d="M1205.25,-341.98C1192.22,-332.52 1170.96,-317.1 1155.24,-305.69"/>
<polygon fill="midnightblue" stroke="midnightblue" points="1156.88,-302.55 1146.73,-299.51 1152.77,-308.21 1156.88,-302.55"/>
</g>
<!-- Node34 -->
<g id="node34" class="node">
<title>Node34</title>
<g id="a_node34"><a xlink:href="l4_2re_2consts_8h.html" target="_top" xlink:title="Constants.">
<polygon fill="white" stroke="black" points="1134,-168.5 1134,-187.5 1216,-187.5 1216,-168.5 1134,-168.5"/>
<text text-anchor="middle" x="1175" y="-175.5" font-family="Helvetica,sans-Serif" font-size="10.00">l4/re/consts.h</text>
</a>
</g>
</g>
<!-- Node30&#45;&gt;Node34 -->
<g id="edge86" class="edge">
<title>Node30&#45;&gt;Node34</title>
<path fill="none" stroke="midnightblue" d="M1220.91,-341.99C1230.02,-320.84 1250.48,-264.65 1231,-224 1224.75,-210.95 1212.66,-200.49 1201.32,-192.95"/>
<polygon fill="midnightblue" stroke="midnightblue" points="1202.85,-189.79 1192.5,-187.54 1199.19,-195.75 1202.85,-189.79"/>
</g>
<!-- Node31&#45;&gt;Node3 -->
<g id="edge81" class="edge">
<title>Node31&#45;&gt;Node3</title>
<path fill="none" stroke="midnightblue" d="M1149.91,-280.42C1179.72,-262.04 1242.39,-216.56 1225,-168 1211.21,-129.5 1173.46,-98.35 1148.77,-81.28"/>
<polygon fill="midnightblue" stroke="midnightblue" points="1150.59,-78.28 1140.33,-75.64 1146.7,-84.1 1150.59,-78.28"/>
</g>
<!-- Node31&#45;&gt;Node4 -->
<g id="edge80" class="edge">
<title>Node31&#45;&gt;Node4</title>
<path fill="none" stroke="midnightblue" d="M1121.34,-280.48C1108.13,-271.97 1087.84,-258.14 1072,-244 1013.07,-191.4 1022.18,-150.12 953,-112 919.09,-93.32 817.1,-79.79 750.82,-72.69"/>
<polygon fill="midnightblue" stroke="midnightblue" points="750.82,-69.17 740.51,-71.61 750.09,-76.13 750.82,-69.17"/>
</g>
<!-- Node32 -->
<g id="node32" class="node">
<title>Node32</title>
<g id="a_node32"><a xlink:title=" ">
<polygon fill="white" stroke="#bfbfbf" points="1081.5,-224.5 1081.5,-243.5 1188.5,-243.5 1188.5,-224.5 1081.5,-224.5"/>
<text text-anchor="middle" x="1135" y="-231.5" font-family="Helvetica,sans-Serif" font-size="10.00">l4/sys/__kip&#45;arch.h</text>
</a>
</g>
</g>
<!-- Node31&#45;&gt;Node32 -->
<g id="edge82" class="edge">
<title>Node31&#45;&gt;Node32</title>
<path fill="none" stroke="midnightblue" d="M1135,-280.08C1135,-273.01 1135,-262.86 1135,-253.99"/>
<polygon fill="midnightblue" stroke="midnightblue" points="1138.5,-253.75 1135,-243.75 1131.5,-253.75 1138.5,-253.75"/>
</g>
<!-- Node33 -->
<g id="node33" class="node">
<title>Node33</title>
<g id="a_node33"><a xlink:href="____kip-64bit_8h_source.html" target="_top" xlink:title=" ">
<polygon fill="white" stroke="black" points="837.5,-224.5 837.5,-243.5 948.5,-243.5 948.5,-224.5 837.5,-224.5"/>
<text text-anchor="middle" x="893" y="-231.5" font-family="Helvetica,sans-Serif" font-size="10.00">l4/sys/__kip&#45;64bit.h</text>
</a>
</g>
</g>
<!-- Node31&#45;&gt;Node33 -->
<g id="edge83" class="edge">
<title>Node31&#45;&gt;Node33</title>
<path fill="none" stroke="midnightblue" d="M1098.77,-280.92C1056.88,-271.57 987.75,-256.14 941.32,-245.78"/>
<polygon fill="midnightblue" stroke="midnightblue" points="942,-242.35 931.48,-243.59 940.48,-249.18 942,-242.35"/>
</g>
<!-- Node33&#45;&gt;Node2 -->
<g id="edge84" class="edge">
<title>Node33&#45;&gt;Node2</title>
<path fill="none" stroke="midnightblue" d="M867.49,-224.44C840.4,-215.36 797.41,-200.94 767.13,-190.78"/>
<polygon fill="midnightblue" stroke="midnightblue" points="767.99,-187.38 757.39,-187.52 765.76,-194.01 767.99,-187.38"/>
</g>
<!-- Node34&#45;&gt;Node6 -->
<g id="edge87" class="edge">
<title>Node34&#45;&gt;Node6</title>
<path fill="none" stroke="midnightblue" d="M1166.91,-168.08C1159.84,-160.3 1149.41,-148.8 1140.85,-139.37"/>
<polygon fill="midnightblue" stroke="midnightblue" points="1143.25,-136.8 1133.94,-131.75 1138.07,-141.51 1143.25,-136.8"/>
</g>
<!-- Node35&#45;&gt;Node2 -->
<g id="edge89" class="edge">
<title>Node35&#45;&gt;Node2</title>
<path fill="none" stroke="midnightblue" d="M588.98,-750.47C626.23,-735.97 692,-702.77 692,-649 692,-649 692,-649 692,-473.5 692,-441.05 696.8,-425.06 673,-403 609.96,-344.58 537.83,-433.19 483,-367 474.21,-356.39 478.76,-349.11 483,-336 501.92,-277.55 513.41,-258.85 564,-224 598.29,-200.38 644.38,-189.15 679.61,-183.82"/>
<polygon fill="midnightblue" stroke="midnightblue" points="680.29,-187.25 689.71,-182.4 679.32,-180.32 680.29,-187.25"/>
</g>
<!-- Node35&#45;&gt;Node3 -->
<g id="edge90" class="edge">
<title>Node35&#45;&gt;Node3</title>
<path fill="none" stroke="midnightblue" d="M610.1,-752.89C662.54,-745.52 750.55,-731.86 825,-714 1025.4,-665.94 1092.81,-642.89 1231,-490 1302.21,-411.21 1380.44,-380.11 1345,-280 1312.94,-189.44 1282.87,-173.41 1209,-112 1193.09,-98.77 1172.69,-87.65 1156.1,-79.77"/>
<polygon fill="midnightblue" stroke="midnightblue" points="1157.38,-76.51 1146.83,-75.52 1154.46,-82.87 1157.38,-76.51"/>
</g>
<!-- Node35&#45;&gt;Node9 -->
<g id="edge91" class="edge">
<title>Node35&#45;&gt;Node9</title>
<path fill="none" stroke="midnightblue" d="M596.32,-750.44C631.39,-741.16 687.5,-726.31 725.96,-716.13"/>
<polygon fill="midnightblue" stroke="midnightblue" points="727.06,-719.46 735.83,-713.52 725.26,-712.69 727.06,-719.46"/>
</g>
<!-- Node35&#45;&gt;Node17 -->
<g id="edge95" class="edge">
<title>Node35&#45;&gt;Node17</title>
<path fill="none" stroke="midnightblue" d="M518.11,-750.43C427.44,-730.57 234,-672.34 234,-537 234,-537 234,-537 234,-473.5 234,-437.17 236.73,-394.78 238.51,-371.04"/>
<polygon fill="midnightblue" stroke="midnightblue" points="242,-371.24 239.29,-361 235.02,-370.7 242,-371.24"/>
</g>
<!-- Node35&#45;&gt;Node22 -->
<g id="edge94" class="edge">
<title>Node35&#45;&gt;Node22</title>
<path fill="none" stroke="midnightblue" d="M556.38,-750.31C538.65,-730.19 493.08,-678.95 453,-638 443.22,-628.01 431.91,-617.16 422.84,-608.62"/>
<polygon fill="midnightblue" stroke="midnightblue" points="425.23,-606.07 415.54,-601.79 420.45,-611.18 425.23,-606.07"/>
</g>
<!-- Node35&#45;&gt;Node23 -->
<g id="edge93" class="edge">
<title>Node35&#45;&gt;Node23</title>
<path fill="none" stroke="midnightblue" d="M545.92,-750.45C505.59,-730.42 407.85,-676.51 357,-602 334.08,-568.41 325.15,-520.5 321.83,-494.34"/>
<polygon fill="midnightblue" stroke="midnightblue" points="325.3,-493.81 320.7,-484.27 318.34,-494.59 325.3,-493.81"/>
</g>
<!-- Node35&#45;&gt;Node26 -->
<g id="edge92" class="edge">
<title>Node35&#45;&gt;Node26</title>
<path fill="none" stroke="midnightblue" d="M610.25,-755.85C700.54,-749.5 906.49,-734.04 1079,-714 1080.31,-713.85 1081.63,-713.69 1082.96,-713.53"/>
<polygon fill="midnightblue" stroke="midnightblue" points="1083.83,-716.94 1093.31,-712.2 1082.94,-710 1083.83,-716.94"/>
</g>
</g>
</svg>
