<?xml version="1.0" encoding="UTF-8" standalone="no"?>
<!DOCTYPE svg PUBLIC "-//W3C//DTD SVG 1.1//EN"
 "http://www.w3.org/Graphics/SVG/1.1/DTD/svg11.dtd">
<!-- Generated by graphviz version 2.43.0 (0)
 -->
<!-- Title: l4/re/rm Pages: 1 -->
<svg width="1413pt" height="218pt"
 viewBox="0.00 0.00 1413.00 218.00" xmlns="http://www.w3.org/2000/svg" xmlns:xlink="http://www.w3.org/1999/xlink">
<g id="graph0" class="graph" transform="scale(1 1) rotate(0) translate(4 214)">
<title>l4/re/rm</title>
<polygon fill="white" stroke="transparent" points="-4,4 -4,-214 1409,-214 1409,4 -4,4"/>
<!-- Node1 -->
<g id="node1" class="node">
<title>Node1</title>
<g id="a_node1"><a xlink:title="Region mapper interface.">
<polygon fill="#bfbfbf" stroke="black" points="942,-190.5 942,-209.5 997,-209.5 997,-190.5 942,-190.5"/>
<text text-anchor="middle" x="969.5" y="-197.5" font-family="Helvetica,sans-Serif" font-size="10.00">l4/re/rm</text>
</a>
</g>
</g>
<!-- Node2 -->
<g id="node2" class="node">
<title>Node2</title>
<g id="a_node2"><a xlink:href="server_2l4virtio_source.html" target="_top" xlink:title=" ">
<polygon fill="white" stroke="black" points="0,-67.5 0,-97.5 97,-97.5 97,-67.5 0,-67.5"/>
<text text-anchor="start" x="8" y="-85.5" font-family="Helvetica,sans-Serif" font-size="10.00">l4/l4virtio/server</text>
<text text-anchor="middle" x="48.5" y="-74.5" font-family="Helvetica,sans-Serif" font-size="10.00">/l4virtio</text>
</a>
</g>
</g>
<!-- Node1&#45;&gt;Node2 -->
<g id="edge1" class="edge">
<title>Node1&#45;&gt;Node2</title>
<path fill="none" stroke="midnightblue" d="M931.97,-196.68C846.61,-191.21 631.45,-176.24 452.5,-154 297.91,-134.79 259.09,-129.36 106.5,-98 103.45,-97.37 100.32,-96.69 97.17,-95.98"/>
<polygon fill="midnightblue" stroke="midnightblue" points="931.76,-200.18 941.96,-197.32 932.2,-193.19 931.76,-200.18"/>
</g>
<!-- Node4 -->
<g id="node4" class="node">
<title>Node4</title>
<g id="a_node4"><a xlink:href="vfs__impl_8h_source.html" target="_top" xlink:title=" ">
<polygon fill="white" stroke="black" points="115.5,-67.5 115.5,-97.5 225.5,-97.5 225.5,-67.5 115.5,-67.5"/>
<text text-anchor="start" x="123.5" y="-85.5" font-family="Helvetica,sans-Serif" font-size="10.00">l4/l4re_vfs/impl/vfs</text>
<text text-anchor="middle" x="170.5" y="-74.5" font-family="Helvetica,sans-Serif" font-size="10.00">_impl.h</text>
</a>
</g>
</g>
<!-- Node1&#45;&gt;Node4 -->
<g id="edge3" class="edge">
<title>Node1&#45;&gt;Node4</title>
<path fill="none" stroke="midnightblue" d="M931.5,-194.95C822.51,-183.08 499.72,-146.17 234.5,-98 231.59,-97.47 228.6,-96.9 225.6,-96.3"/>
<polygon fill="midnightblue" stroke="midnightblue" points="931.34,-198.45 941.66,-196.05 932.1,-191.49 931.34,-198.45"/>
</g>
<!-- Node5 -->
<g id="node5" class="node">
<title>Node5</title>
<g id="a_node5"><a xlink:href="env.html" target="_top" xlink:title="Environment interface.">
<polygon fill="white" stroke="black" points="700,-134.5 700,-153.5 759,-153.5 759,-134.5 700,-134.5"/>
<text text-anchor="middle" x="729.5" y="-141.5" font-family="Helvetica,sans-Serif" font-size="10.00">l4/re/env</text>
</a>
</g>
</g>
<!-- Node1&#45;&gt;Node5 -->
<g id="edge4" class="edge">
<title>Node1&#45;&gt;Node5</title>
<path fill="none" stroke="midnightblue" d="M932.05,-190.57C884.39,-179.85 803.03,-161.54 759.33,-151.71"/>
<polygon fill="midnightblue" stroke="midnightblue" points="931.44,-194.02 941.97,-192.81 932.98,-187.2 931.44,-194.02"/>
</g>
<!-- Node12 -->
<g id="node12" class="node">
<title>Node12</title>
<g id="a_node12"><a xlink:href="util_2event.html" target="_top" xlink:title=" ">
<polygon fill="white" stroke="black" points="1159.5,-73 1159.5,-92 1247.5,-92 1247.5,-73 1159.5,-73"/>
<text text-anchor="middle" x="1203.5" y="-80" font-family="Helvetica,sans-Serif" font-size="10.00">l4/re/util/event</text>
</a>
</g>
</g>
<!-- Node1&#45;&gt;Node12 -->
<g id="edge20" class="edge">
<title>Node1&#45;&gt;Node12</title>
<path fill="none" stroke="midnightblue" d="M954.35,-182.14C943.53,-168.01 932.78,-147.96 944.5,-134 974.24,-98.58 1104.34,-108.01 1149.5,-98 1157.37,-96.26 1165.81,-94.12 1173.63,-92.03"/>
<polygon fill="midnightblue" stroke="midnightblue" points="951.83,-184.59 960.89,-190.07 957.23,-180.13 951.83,-184.59"/>
</g>
<!-- Node17 -->
<g id="node17" class="node">
<title>Node17</title>
<g id="a_node17"><a xlink:href="rm__impl_8h.html" target="_top" xlink:title="Region map client stub implementation.">
<polygon fill="white" stroke="black" points="1093.5,-134.5 1093.5,-153.5 1209.5,-153.5 1209.5,-134.5 1093.5,-134.5"/>
<text text-anchor="middle" x="1151.5" y="-141.5" font-family="Helvetica,sans-Serif" font-size="10.00">l4/re/impl/rm_impl.h</text>
</a>
</g>
</g>
<!-- Node1&#45;&gt;Node17 -->
<g id="edge19" class="edge">
<title>Node1&#45;&gt;Node17</title>
<path fill="none" stroke="midnightblue" d="M1006.81,-187.93C1041.15,-177.74 1091.36,-162.85 1122.69,-153.55"/>
<polygon fill="midnightblue" stroke="midnightblue" points="1005.73,-184.6 997.14,-190.8 1007.72,-191.31 1005.73,-184.6"/>
</g>
<!-- Node18 -->
<g id="node18" class="node">
<title>Node18</title>
<g id="a_node18"><a xlink:href="event__buffer_source.html" target="_top" xlink:title=" ">
<polygon fill="white" stroke="black" points="953.5,-134.5 953.5,-153.5 1075.5,-153.5 1075.5,-134.5 953.5,-134.5"/>
<text text-anchor="middle" x="1014.5" y="-141.5" font-family="Helvetica,sans-Serif" font-size="10.00">l4/re/util/event_buffer</text>
</a>
</g>
</g>
<!-- Node1&#45;&gt;Node18 -->
<g id="edge21" class="edge">
<title>Node1&#45;&gt;Node18</title>
<path fill="none" stroke="midnightblue" d="M983.55,-182.14C991.39,-172.74 1000.83,-161.4 1007.21,-153.75"/>
<polygon fill="midnightblue" stroke="midnightblue" points="980.64,-180.16 976.93,-190.08 986.02,-184.64 980.64,-180.16"/>
</g>
<!-- Node19 -->
<g id="node19" class="node">
<title>Node19</title>
<g id="a_node19"><a xlink:href="region__mapping.html" target="_top" xlink:title="Region handling.">
<polygon fill="white" stroke="black" points="1266,-134.5 1266,-153.5 1405,-153.5 1405,-134.5 1266,-134.5"/>
<text text-anchor="middle" x="1335.5" y="-141.5" font-family="Helvetica,sans-Serif" font-size="10.00">l4/re/util/region_mapping</text>
</a>
</g>
</g>
<!-- Node1&#45;&gt;Node19 -->
<g id="edge23" class="edge">
<title>Node1&#45;&gt;Node19</title>
<path fill="none" stroke="midnightblue" d="M1007.08,-193.46C1071.19,-184 1202.12,-164.68 1277.87,-153.5"/>
<polygon fill="midnightblue" stroke="midnightblue" points="1006.39,-190.02 997.01,-194.94 1007.41,-196.94 1006.39,-190.02"/>
</g>
<!-- Node20 -->
<g id="node20" class="node">
<title>Node20</title>
<g id="a_node20"><a xlink:href="region__mapping__svr__2_source.html" target="_top" xlink:title=" ">
<polygon fill="white" stroke="black" points="1266,-67.5 1266,-97.5 1405,-97.5 1405,-67.5 1266,-67.5"/>
<text text-anchor="start" x="1274" y="-85.5" font-family="Helvetica,sans-Serif" font-size="10.00">l4/re/util/region_mapping</text>
<text text-anchor="middle" x="1335.5" y="-74.5" font-family="Helvetica,sans-Serif" font-size="10.00">_svr_2</text>
</a>
</g>
</g>
<!-- Node1&#45;&gt;Node20 -->
<g id="edge25" class="edge">
<title>Node1&#45;&gt;Node20</title>
<path fill="none" stroke="midnightblue" d="M1007.26,-196.45C1057.05,-192.14 1146.74,-181.06 1218.5,-154 1238.03,-146.64 1286.01,-116.08 1314.08,-97.69"/>
<polygon fill="midnightblue" stroke="midnightblue" points="1006.94,-192.96 997.26,-197.27 1007.52,-199.94 1006.94,-192.96"/>
</g>
<!-- Node3 -->
<g id="node3" class="node">
<title>Node3</title>
<g id="a_node3"><a xlink:href="server_2virtio-block_source.html" target="_top" xlink:title=" ">
<polygon fill="white" stroke="black" points="0,-0.5 0,-30.5 97,-30.5 97,-0.5 0,-0.5"/>
<text text-anchor="start" x="8" y="-18.5" font-family="Helvetica,sans-Serif" font-size="10.00">l4/l4virtio/server</text>
<text text-anchor="middle" x="48.5" y="-7.5" font-family="Helvetica,sans-Serif" font-size="10.00">/virtio&#45;block</text>
</a>
</g>
</g>
<!-- Node2&#45;&gt;Node3 -->
<g id="edge2" class="edge">
<title>Node2&#45;&gt;Node3</title>
<path fill="none" stroke="midnightblue" d="M48.5,-57.11C48.5,-48.15 48.5,-38.32 48.5,-30.58"/>
<polygon fill="midnightblue" stroke="midnightblue" points="45,-57.4 48.5,-67.4 52,-57.4 45,-57.4"/>
</g>
<!-- Node5&#45;&gt;Node2 -->
<g id="edge7" class="edge">
<title>Node5&#45;&gt;Node2</title>
<path fill="none" stroke="midnightblue" d="M689.61,-142.5C590.39,-140.75 324.76,-132.9 106.5,-98 103.43,-97.51 100.27,-96.93 97.11,-96.3"/>
<polygon fill="midnightblue" stroke="midnightblue" points="689.73,-146.01 699.78,-142.67 689.84,-139.01 689.73,-146.01"/>
</g>
<!-- Node5&#45;&gt;Node4 -->
<g id="edge10" class="edge">
<title>Node5&#45;&gt;Node4</title>
<path fill="none" stroke="midnightblue" d="M689.59,-141.16C605.17,-136.89 402.47,-124.54 234.5,-98 231.57,-97.54 228.58,-97.02 225.57,-96.46"/>
<polygon fill="midnightblue" stroke="midnightblue" points="689.6,-144.67 699.76,-141.67 689.95,-137.68 689.6,-144.67"/>
</g>
<!-- Node6 -->
<g id="node6" class="node">
<title>Node6</title>
<g id="a_node6"><a xlink:href="vcpu_source.html" target="_top" xlink:title=" ">
<polygon fill="white" stroke="black" points="750.5,-73 750.5,-92 828.5,-92 828.5,-73 750.5,-73"/>
<text text-anchor="middle" x="789.5" y="-80" font-family="Helvetica,sans-Serif" font-size="10.00">l4/vcpu/vcpu</text>
</a>
</g>
</g>
<!-- Node5&#45;&gt;Node6 -->
<g id="edge5" class="edge">
<title>Node5&#45;&gt;Node6</title>
<path fill="none" stroke="midnightblue" d="M745.31,-127.32C756.71,-116.02 771.66,-101.19 780.92,-92.01"/>
<polygon fill="midnightblue" stroke="midnightblue" points="742.73,-124.95 738.1,-134.48 747.66,-129.92 742.73,-124.95"/>
</g>
<!-- Node7 -->
<g id="node7" class="node">
<title>Node7</title>
<g id="a_node7"><a xlink:href="client_2virtio-block_source.html" target="_top" xlink:title=" ">
<polygon fill="white" stroke="black" points="857,-0.5 857,-30.5 950,-30.5 950,-0.5 857,-0.5"/>
<text text-anchor="start" x="865" y="-18.5" font-family="Helvetica,sans-Serif" font-size="10.00">l4/l4virtio/client</text>
<text text-anchor="middle" x="903.5" y="-7.5" font-family="Helvetica,sans-Serif" font-size="10.00">/virtio&#45;block</text>
</a>
</g>
</g>
<!-- Node5&#45;&gt;Node7 -->
<g id="edge6" class="edge">
<title>Node5&#45;&gt;Node7</title>
<path fill="none" stroke="midnightblue" d="M768.6,-131.94C790.27,-124.58 816.91,-113.41 837.5,-98 862.72,-79.13 883.99,-48.54 895.14,-30.69"/>
<polygon fill="midnightblue" stroke="midnightblue" points="767.46,-128.63 759.03,-135.06 769.63,-135.29 767.46,-128.63"/>
</g>
<!-- Node8 -->
<g id="node8" class="node">
<title>Node8</title>
<g id="a_node8"><a xlink:href="ro__file__impl_8h_source.html" target="_top" xlink:title=" ">
<polygon fill="white" stroke="black" points="1036,-67.5 1036,-97.5 1141,-97.5 1141,-67.5 1036,-67.5"/>
<text text-anchor="start" x="1044" y="-85.5" font-family="Helvetica,sans-Serif" font-size="10.00">l4/l4re_vfs/impl/ro</text>
<text text-anchor="middle" x="1088.5" y="-74.5" font-family="Helvetica,sans-Serif" font-size="10.00">_file_impl.h</text>
</a>
</g>
</g>
<!-- Node5&#45;&gt;Node8 -->
<g id="edge8" class="edge">
<title>Node5&#45;&gt;Node8</title>
<path fill="none" stroke="midnightblue" d="M769.19,-138.01C826.31,-130.59 934.9,-115.62 1026.5,-98 1029.54,-97.42 1032.66,-96.78 1035.8,-96.13"/>
<polygon fill="midnightblue" stroke="midnightblue" points="768.61,-134.55 759.14,-139.3 769.51,-141.49 768.61,-134.55"/>
</g>
<!-- Node9 -->
<g id="node9" class="node">
<title>Node9</title>
<g id="a_node9"><a xlink:href="vcon__stream__impl_8h_source.html" target="_top" xlink:title=" ">
<polygon fill="white" stroke="black" points="244,-67.5 244,-97.5 363,-97.5 363,-67.5 244,-67.5"/>
<text text-anchor="start" x="252" y="-85.5" font-family="Helvetica,sans-Serif" font-size="10.00">l4/l4re_vfs/impl/vcon</text>
<text text-anchor="middle" x="303.5" y="-74.5" font-family="Helvetica,sans-Serif" font-size="10.00">_stream_impl.h</text>
</a>
</g>
</g>
<!-- Node5&#45;&gt;Node9 -->
<g id="edge9" class="edge">
<title>Node5&#45;&gt;Node9</title>
<path fill="none" stroke="midnightblue" d="M689.66,-139.11C623.38,-132.39 486.41,-117.44 371.5,-98 368.76,-97.54 365.97,-97.04 363.15,-96.52"/>
<polygon fill="midnightblue" stroke="midnightblue" points="689.37,-142.6 699.67,-140.12 690.07,-135.63 689.37,-142.6"/>
</g>
<!-- Node10 -->
<g id="node10" class="node">
<title>Node10</title>
<g id="a_node10"><a xlink:href="env__ns_source.html" target="_top" xlink:title=" ">
<polygon fill="white" stroke="black" points="381,-73 381,-92 476,-92 476,-73 381,-73"/>
<text text-anchor="middle" x="428.5" y="-80" font-family="Helvetica,sans-Serif" font-size="10.00">l4/re/util/env_ns</text>
</a>
</g>
</g>
<!-- Node5&#45;&gt;Node10 -->
<g id="edge11" class="edge">
<title>Node5&#45;&gt;Node10</title>
<path fill="none" stroke="midnightblue" d="M689.85,-136.62C641.26,-128.59 556.49,-113.91 484.5,-98 476.46,-96.22 467.82,-94.1 459.8,-92.03"/>
<polygon fill="midnightblue" stroke="midnightblue" points="689.51,-140.11 699.95,-138.28 690.65,-133.2 689.51,-140.11"/>
</g>
<!-- Node5&#45;&gt;Node12 -->
<g id="edge13" class="edge">
<title>Node5&#45;&gt;Node12</title>
<path fill="none" stroke="midnightblue" d="M769.39,-140.8C844.36,-136.21 1011.22,-123.81 1149.5,-98 1157.9,-96.43 1166.9,-94.23 1175.1,-92.01"/>
<polygon fill="midnightblue" stroke="midnightblue" points="768.78,-137.33 759.01,-141.42 769.2,-144.32 768.78,-137.33"/>
</g>
<!-- Node13 -->
<g id="node13" class="node">
<title>Node13</title>
<g id="a_node13"><a xlink:href="icu__svr_source.html" target="_top" xlink:title=" ">
<polygon fill="white" stroke="black" points="494,-73 494,-92 589,-92 589,-73 494,-73"/>
<text text-anchor="middle" x="541.5" y="-80" font-family="Helvetica,sans-Serif" font-size="10.00">l4/re/util/icu_svr</text>
</a>
</g>
</g>
<!-- Node5&#45;&gt;Node13 -->
<g id="edge14" class="edge">
<title>Node5&#45;&gt;Node13</title>
<path fill="none" stroke="midnightblue" d="M692.79,-131.38C656.24,-119.82 601.03,-102.34 568.39,-92.01"/>
<polygon fill="midnightblue" stroke="midnightblue" points="691.97,-134.79 702.56,-134.48 694.09,-128.12 691.97,-134.79"/>
</g>
<!-- Node15 -->
<g id="node15" class="node">
<title>Node15</title>
<g id="a_node15"><a xlink:href="kumem__alloc.html" target="_top" xlink:title="Kumem allocator helper.">
<polygon fill="white" stroke="black" points="607,-73 607,-92 732,-92 732,-73 607,-73"/>
<text text-anchor="middle" x="669.5" y="-80" font-family="Helvetica,sans-Serif" font-size="10.00">l4/re/util/kumem_alloc</text>
</a>
</g>
</g>
<!-- Node5&#45;&gt;Node15 -->
<g id="edge16" class="edge">
<title>Node5&#45;&gt;Node15</title>
<path fill="none" stroke="midnightblue" d="M713.69,-127.32C702.29,-116.02 687.34,-101.19 678.08,-92.01"/>
<polygon fill="midnightblue" stroke="midnightblue" points="711.34,-129.92 720.9,-134.48 716.27,-124.95 711.34,-129.92"/>
</g>
<!-- Node16 -->
<g id="node16" class="node">
<title>Node16</title>
<g id="a_node16"><a xlink:href="object__registry_source.html" target="_top" xlink:title=" ">
<polygon fill="white" stroke="black" points="885,-73 885,-92 1018,-92 1018,-73 885,-73"/>
<text text-anchor="middle" x="951.5" y="-80" font-family="Helvetica,sans-Serif" font-size="10.00">l4/re/util/object_registry</text>
</a>
</g>
</g>
<!-- Node5&#45;&gt;Node16 -->
<g id="edge17" class="edge">
<title>Node5&#45;&gt;Node16</title>
<path fill="none" stroke="midnightblue" d="M769.27,-132.34C812.24,-120.82 879.86,-102.7 919.52,-92.07"/>
<polygon fill="midnightblue" stroke="midnightblue" points="768.19,-129.01 759.44,-134.98 770.01,-135.77 768.19,-129.01"/>
</g>
<!-- Node11 -->
<g id="node11" class="node">
<title>Node11</title>
<g id="a_node11"><a xlink:href="ns__fs__impl_8h_source.html" target="_top" xlink:title=" ">
<polygon fill="white" stroke="black" points="368,-0.5 368,-30.5 475,-30.5 475,-0.5 368,-0.5"/>
<text text-anchor="start" x="376" y="-18.5" font-family="Helvetica,sans-Serif" font-size="10.00">l4/l4re_vfs/impl/ns</text>
<text text-anchor="middle" x="421.5" y="-7.5" font-family="Helvetica,sans-Serif" font-size="10.00">_fs_impl.h</text>
</a>
</g>
</g>
<!-- Node10&#45;&gt;Node11 -->
<g id="edge12" class="edge">
<title>Node10&#45;&gt;Node11</title>
<path fill="none" stroke="midnightblue" d="M426.48,-62.74C425.38,-52.49 424.03,-40 423.02,-30.59"/>
<polygon fill="midnightblue" stroke="midnightblue" points="423.01,-63.17 427.56,-72.73 429.97,-62.42 423.01,-63.17"/>
</g>
<!-- Node14 -->
<g id="node14" class="node">
<title>Node14</title>
<g id="a_node14"><a xlink:href="event__svr_source.html" target="_top" xlink:title=" ">
<polygon fill="white" stroke="black" points="493.5,-6 493.5,-25 601.5,-25 601.5,-6 493.5,-6"/>
<text text-anchor="middle" x="547.5" y="-13" font-family="Helvetica,sans-Serif" font-size="10.00">l4/re/util/event_svr</text>
</a>
</g>
</g>
<!-- Node13&#45;&gt;Node14 -->
<g id="edge15" class="edge">
<title>Node13&#45;&gt;Node14</title>
<path fill="none" stroke="midnightblue" d="M543.25,-62.54C544.39,-50.17 545.83,-34.62 546.7,-25.13"/>
<polygon fill="midnightblue" stroke="midnightblue" points="539.74,-62.45 542.31,-72.73 546.71,-63.1 539.74,-62.45"/>
</g>
<!-- Node16&#45;&gt;Node7 -->
<g id="edge18" class="edge">
<title>Node16&#45;&gt;Node7</title>
<path fill="none" stroke="midnightblue" d="M939.07,-64.67C931.26,-54.09 921.3,-40.6 913.9,-30.59"/>
<polygon fill="midnightblue" stroke="midnightblue" points="936.27,-66.77 945.03,-72.73 941.9,-62.61 936.27,-66.77"/>
</g>
<!-- Node18&#45;&gt;Node12 -->
<g id="edge22" class="edge">
<title>Node18&#45;&gt;Node12</title>
<path fill="none" stroke="midnightblue" d="M1051.41,-131.38C1088.15,-119.82 1143.65,-102.34 1176.47,-92.01"/>
<polygon fill="midnightblue" stroke="midnightblue" points="1050.07,-128.13 1041.58,-134.48 1052.17,-134.81 1050.07,-128.13"/>
</g>
<!-- Node19&#45;&gt;Node20 -->
<g id="edge24" class="edge">
<title>Node19&#45;&gt;Node20</title>
<path fill="none" stroke="midnightblue" d="M1335.5,-124.23C1335.5,-115.59 1335.5,-105.5 1335.5,-97.52"/>
<polygon fill="midnightblue" stroke="midnightblue" points="1332,-124.48 1335.5,-134.48 1339,-124.48 1332,-124.48"/>
</g>
</g>
</svg>
