<?xml version="1.0" encoding="UTF-8" standalone="no"?>
<!DOCTYPE svg PUBLIC "-//W3C//DTD SVG 1.1//EN"
 "http://www.w3.org/Graphics/SVG/1.1/DTD/svg11.dtd">
<!-- Generated by graphviz version 2.43.0 (0)
 -->
<!-- Title: l4/sys/scheduler Pages: 1 -->
<svg width="1064pt" height="935pt"
 viewBox="0.00 0.00 1064.00 935.00" xmlns="http://www.w3.org/2000/svg" xmlns:xlink="http://www.w3.org/1999/xlink">
<g id="graph0" class="graph" transform="scale(1 1) rotate(0) translate(4 931)">
<title>l4/sys/scheduler</title>
<polygon fill="white" stroke="transparent" points="-4,4 -4,-931 1060,-931 1060,4 -4,4"/>
<!-- Node1 -->
<g id="node1" class="node">
<title>Node1</title>
<g id="a_node1"><a xlink:title="Scheduler object functions.">
<polygon fill="#bfbfbf" stroke="black" points="294.5,-907.5 294.5,-926.5 389.5,-926.5 389.5,-907.5 294.5,-907.5"/>
<text text-anchor="middle" x="342" y="-914.5" font-family="Helvetica,sans-Serif" font-size="10.00">l4/sys/scheduler</text>
</a>
</g>
</g>
<!-- Node2 -->
<g id="node2" class="node">
<title>Node2</title>
<g id="a_node2"><a xlink:href="icu.html" target="_top" xlink:title="Interrupt controller.">
<polygon fill="white" stroke="black" points="370,-851.5 370,-870.5 432,-870.5 432,-851.5 370,-851.5"/>
<text text-anchor="middle" x="401" y="-858.5" font-family="Helvetica,sans-Serif" font-size="10.00">l4/sys/icu</text>
</a>
</g>
</g>
<!-- Node1&#45;&gt;Node2 -->
<g id="edge1" class="edge">
<title>Node1&#45;&gt;Node2</title>
<path fill="none" stroke="midnightblue" d="M351.48,-907.32C360.2,-899.34 373.34,-887.31 383.9,-877.65"/>
<polygon fill="midnightblue" stroke="midnightblue" points="386.33,-880.17 391.35,-870.83 381.61,-875 386.33,-880.17"/>
</g>
<!-- Node19 -->
<g id="node19" class="node">
<title>Node19</title>
<g id="a_node19"><a xlink:href="capability.html" target="_top" xlink:title="L4::Cap related definitions.">
<polygon fill="white" stroke="black" points="295,-683.5 295,-702.5 391,-702.5 391,-683.5 295,-683.5"/>
<text text-anchor="middle" x="343" y="-690.5" font-family="Helvetica,sans-Serif" font-size="10.00">l4/sys/capability</text>
</a>
</g>
</g>
<!-- Node1&#45;&gt;Node19 -->
<g id="edge82" class="edge">
<title>Node1&#45;&gt;Node19</title>
<path fill="none" stroke="midnightblue" d="M342.04,-907.3C342.19,-874.63 342.71,-758.87 342.91,-712.96"/>
<polygon fill="midnightblue" stroke="midnightblue" points="346.41,-712.9 342.96,-702.88 339.41,-712.87 346.41,-712.9"/>
</g>
<!-- Node27 -->
<g id="node27" class="node">
<title>Node27</title>
<g id="a_node27"><a xlink:href="ipc__iface.html" target="_top" xlink:title="Interface Definition Language.">
<polygon fill="white" stroke="black" points="282,-571.5 282,-590.5 362,-590.5 362,-571.5 282,-571.5"/>
<text text-anchor="middle" x="322" y="-578.5" font-family="Helvetica,sans-Serif" font-size="10.00">cxx/ipc_iface</text>
</a>
</g>
</g>
<!-- Node1&#45;&gt;Node27 -->
<g id="edge83" class="edge">
<title>Node1&#45;&gt;Node27</title>
<path fill="none" stroke="midnightblue" d="M307.13,-907.4C262.25,-894 190,-863.49 190,-806 190,-806 190,-806 190,-692 190,-641.81 247.01,-610.08 286.1,-594.22"/>
<polygon fill="midnightblue" stroke="midnightblue" points="287.55,-597.42 295.61,-590.53 285.02,-590.89 287.55,-597.42"/>
</g>
<!-- Node32 -->
<g id="node32" class="node">
<title>Node32</title>
<g id="a_node32"><a xlink:href="scheduler_8h.html" target="_top" xlink:title="Scheduler object functions.">
<polygon fill="white" stroke="black" points="865,-459.5 865,-478.5 969,-478.5 969,-459.5 865,-459.5"/>
<text text-anchor="middle" x="917" y="-466.5" font-family="Helvetica,sans-Serif" font-size="10.00">l4/sys/scheduler.h</text>
</a>
</g>
</g>
<!-- Node1&#45;&gt;Node32 -->
<g id="edge79" class="edge">
<title>Node1&#45;&gt;Node32</title>
<path fill="none" stroke="midnightblue" d="M389.67,-916.49C523,-916.59 890,-907.65 890,-806 890,-806 890,-806 890,-580 890,-546.86 901.7,-509.68 909.7,-488.14"/>
<polygon fill="midnightblue" stroke="midnightblue" points="913.02,-489.25 913.36,-478.66 906.49,-486.73 913.02,-489.25"/>
</g>
<!-- Node3 -->
<g id="node3" class="node">
<title>Node3</title>
<g id="a_node3"><a xlink:href="irq.html" target="_top" xlink:title="C++ Irq interface.">
<polygon fill="white" stroke="black" points="427.5,-795.5 427.5,-814.5 488.5,-814.5 488.5,-795.5 427.5,-795.5"/>
<text text-anchor="middle" x="458" y="-802.5" font-family="Helvetica,sans-Serif" font-size="10.00">l4/sys/irq</text>
</a>
</g>
</g>
<!-- Node2&#45;&gt;Node3 -->
<g id="edge2" class="edge">
<title>Node2&#45;&gt;Node3</title>
<path fill="none" stroke="midnightblue" d="M410.16,-851.32C418.5,-843.42 431.03,-831.55 441.18,-821.94"/>
<polygon fill="midnightblue" stroke="midnightblue" points="443.82,-824.25 448.68,-814.83 439.01,-819.17 443.82,-824.25"/>
</g>
<!-- Node4 -->
<g id="node4" class="node">
<title>Node4</title>
<g id="a_node4"><a xlink:href="icu_8h.html" target="_top" xlink:title="Interrupt controller.">
<polygon fill="white" stroke="black" points="775.5,-459.5 775.5,-478.5 846.5,-478.5 846.5,-459.5 775.5,-459.5"/>
<text text-anchor="middle" x="811" y="-466.5" font-family="Helvetica,sans-Serif" font-size="10.00">l4/sys/icu.h</text>
</a>
</g>
</g>
<!-- Node3&#45;&gt;Node4 -->
<g id="edge3" class="edge">
<title>Node3&#45;&gt;Node4</title>
<path fill="none" stroke="midnightblue" d="M488.56,-799.33C564.19,-786.93 754,-750.19 754,-694 754,-694 754,-694 754,-580 754,-543.3 779.32,-506.66 796.21,-486.3"/>
<polygon fill="midnightblue" stroke="midnightblue" points="798.95,-488.48 802.83,-478.62 793.65,-483.9 798.95,-488.48"/>
</g>
<!-- Node17 -->
<g id="node17" class="node">
<title>Node17</title>
<g id="a_node17"><a xlink:href="l4_2sys_2irq_8h.html" target="_top" xlink:title="C Irq interface.">
<polygon fill="white" stroke="black" points="645,-459.5 645,-478.5 715,-478.5 715,-459.5 645,-459.5"/>
<text text-anchor="middle" x="680" y="-466.5" font-family="Helvetica,sans-Serif" font-size="10.00">l4/sys/irq.h</text>
</a>
</g>
</g>
<!-- Node3&#45;&gt;Node17 -->
<g id="edge29" class="edge">
<title>Node3&#45;&gt;Node17</title>
<path fill="none" stroke="midnightblue" d="M488.84,-801.77C546.98,-795.7 667,-773.55 667,-694 667,-694 667,-694 667,-580 667,-547.58 672.64,-510.15 676.49,-488.37"/>
<polygon fill="midnightblue" stroke="midnightblue" points="679.93,-488.99 678.3,-478.52 673.05,-487.72 679.93,-488.99"/>
</g>
<!-- Node3&#45;&gt;Node19 -->
<g id="edge36" class="edge">
<title>Node3&#45;&gt;Node19</title>
<path fill="none" stroke="midnightblue" d="M448.98,-795.37C429.66,-776.89 384.08,-733.29 359.46,-709.74"/>
<polygon fill="midnightblue" stroke="midnightblue" points="361.63,-706.97 351.98,-702.59 356.79,-712.03 361.63,-706.97"/>
</g>
<!-- Node3&#45;&gt;Node27 -->
<g id="edge77" class="edge">
<title>Node3&#45;&gt;Node27</title>
<path fill="none" stroke="midnightblue" d="M455.36,-795.18C446.94,-768.04 418.7,-684.16 375,-627 366.18,-615.46 353.94,-604.83 343.45,-596.8"/>
<polygon fill="midnightblue" stroke="midnightblue" points="345.29,-593.81 335.16,-590.71 341.14,-599.45 345.29,-593.81"/>
</g>
<!-- Node28 -->
<g id="node28" class="node">
<title>Node28</title>
<g id="a_node28"><a xlink:href="ipc__types.html" target="_top" xlink:title=" ">
<polygon fill="white" stroke="black" points="142.5,-459.5 142.5,-478.5 257.5,-478.5 257.5,-459.5 142.5,-459.5"/>
<text text-anchor="middle" x="200" y="-466.5" font-family="Helvetica,sans-Serif" font-size="10.00">l4/sys/cxx/ipc_types</text>
</a>
</g>
</g>
<!-- Node3&#45;&gt;Node28 -->
<g id="edge78" class="edge">
<title>Node3&#45;&gt;Node28</title>
<path fill="none" stroke="midnightblue" d="M434.57,-795.46C376.47,-772.83 226.5,-705.11 171,-591 156.18,-560.53 154,-547.05 165,-515 168.72,-504.16 176.23,-493.92 183.35,-485.96"/>
<polygon fill="midnightblue" stroke="midnightblue" points="186.05,-488.19 190.44,-478.55 181,-483.35 186.05,-488.19"/>
</g>
<!-- Node31 -->
<g id="node31" class="node">
<title>Node31</title>
<g id="a_node31"><a xlink:href="rcv__endpoint.html" target="_top" xlink:title="The C++ Receive endpoint interface.">
<polygon fill="white" stroke="black" points="486.5,-739.5 486.5,-758.5 597.5,-758.5 597.5,-739.5 486.5,-739.5"/>
<text text-anchor="middle" x="542" y="-746.5" font-family="Helvetica,sans-Serif" font-size="10.00">l4/sys/rcv_endpoint</text>
</a>
</g>
</g>
<!-- Node3&#45;&gt;Node31 -->
<g id="edge72" class="edge">
<title>Node3&#45;&gt;Node31</title>
<path fill="none" stroke="midnightblue" d="M471.5,-795.32C484.6,-786.9 504.71,-773.97 520.11,-764.07"/>
<polygon fill="midnightblue" stroke="midnightblue" points="522.02,-767.01 528.54,-758.65 518.23,-761.12 522.02,-767.01"/>
</g>
<!-- Node5 -->
<g id="node5" class="node">
<title>Node5</title>
<g id="a_node5"><a xlink:href="kernel__object_8h.html" target="_top" xlink:title="Kernel object system calls.">
<polygon fill="white" stroke="black" points="753,-403.5 753,-422.5 875,-422.5 875,-403.5 753,-403.5"/>
<text text-anchor="middle" x="814" y="-410.5" font-family="Helvetica,sans-Serif" font-size="10.00">l4/sys/kernel_object.h</text>
</a>
</g>
</g>
<!-- Node4&#45;&gt;Node5 -->
<g id="edge4" class="edge">
<title>Node4&#45;&gt;Node5</title>
<path fill="none" stroke="midnightblue" d="M811.5,-459.08C811.89,-452.01 812.45,-441.86 812.95,-432.99"/>
<polygon fill="midnightblue" stroke="midnightblue" points="816.45,-432.93 813.51,-422.75 809.46,-432.54 816.45,-432.93"/>
</g>
<!-- Node15 -->
<g id="node15" class="node">
<title>Node15</title>
<g id="a_node15"><a xlink:href="l4_2sys_2ipc_8h.html" target="_top" xlink:title="Common IPC interface.">
<polygon fill="white" stroke="black" points="752.5,-280.5 752.5,-299.5 823.5,-299.5 823.5,-280.5 752.5,-280.5"/>
<text text-anchor="middle" x="788" y="-287.5" font-family="Helvetica,sans-Serif" font-size="10.00">l4/sys/ipc.h</text>
</a>
</g>
</g>
<!-- Node4&#45;&gt;Node15 -->
<g id="edge28" class="edge">
<title>Node4&#45;&gt;Node15</title>
<path fill="none" stroke="midnightblue" d="M833.18,-459.45C849.45,-452.1 870.91,-439.98 884,-423 908.05,-391.79 923.11,-368.61 901,-336 885.9,-313.73 857.83,-302.48 833.44,-296.8"/>
<polygon fill="midnightblue" stroke="midnightblue" points="834.12,-293.36 823.62,-294.75 832.69,-300.22 834.12,-293.36"/>
</g>
<!-- Node6 -->
<g id="node6" class="node">
<title>Node6</title>
<g id="a_node6"><a xlink:href="l4_2sys_2types_8h.html" target="_top" xlink:title="Common L4 ABI Data Types.">
<polygon fill="white" stroke="black" points="408,-168.5 408,-187.5 492,-187.5 492,-168.5 408,-168.5"/>
<text text-anchor="middle" x="450" y="-175.5" font-family="Helvetica,sans-Serif" font-size="10.00">l4/sys/types.h</text>
</a>
</g>
</g>
<!-- Node5&#45;&gt;Node6 -->
<g id="edge5" class="edge">
<title>Node5&#45;&gt;Node6</title>
<path fill="none" stroke="midnightblue" d="M849.01,-403.45C867.93,-396.84 889.68,-385.59 901,-367 908.16,-355.23 906.88,-348.46 901,-336 866.1,-262.04 830.81,-254.68 755,-224 671.05,-190.02 564.82,-181.3 502.45,-179.29"/>
<polygon fill="midnightblue" stroke="midnightblue" points="502.17,-175.78 492.08,-179.01 501.98,-182.78 502.17,-175.78"/>
</g>
<!-- Node8 -->
<g id="node8" class="node">
<title>Node8</title>
<g id="a_node8"><a xlink:href="compiler_8h.html" target="_top" xlink:title="L4 compiler related defines.">
<polygon fill="white" stroke="black" points="555.5,-56.5 555.5,-75.5 654.5,-75.5 654.5,-56.5 555.5,-56.5"/>
<text text-anchor="middle" x="605" y="-63.5" font-family="Helvetica,sans-Serif" font-size="10.00">l4/sys/compiler.h</text>
</a>
</g>
</g>
<!-- Node5&#45;&gt;Node8 -->
<g id="edge16" class="edge">
<title>Node5&#45;&gt;Node8</title>
<path fill="none" stroke="midnightblue" d="M875.07,-407.56C946.76,-398.64 1056,-371.79 1056,-291 1056,-291 1056,-291 1056,-177 1056,-97.42 787.59,-75.16 664.9,-69.14"/>
<polygon fill="midnightblue" stroke="midnightblue" points="664.71,-65.63 654.55,-68.65 664.38,-72.62 664.71,-65.63"/>
</g>
<!-- Node13 -->
<g id="node13" class="node">
<title>Node13</title>
<g id="a_node13"><a xlink:href="l4_2sys_2utcb_8h.html" target="_top" xlink:title="UTCB definitions.">
<polygon fill="white" stroke="black" points="437,-224.5 437,-243.5 515,-243.5 515,-224.5 437,-224.5"/>
<text text-anchor="middle" x="476" y="-231.5" font-family="Helvetica,sans-Serif" font-size="10.00">l4/sys/utcb.h</text>
</a>
</g>
</g>
<!-- Node5&#45;&gt;Node13 -->
<g id="edge17" class="edge">
<title>Node5&#45;&gt;Node13</title>
<path fill="none" stroke="midnightblue" d="M797.7,-403.46C743.27,-374.96 567.57,-282.95 501.47,-248.34"/>
<polygon fill="midnightblue" stroke="midnightblue" points="503.02,-245.2 492.53,-243.66 499.77,-251.4 503.02,-245.2"/>
</g>
<!-- Node14 -->
<g id="node14" class="node">
<title>Node14</title>
<g id="a_node14"><a xlink:href="____kernel__object__impl_8h.html" target="_top" xlink:title="Low&#45;level kernel debugger functions.">
<polygon fill="white" stroke="black" points="752,-336.5 752,-366.5 876,-366.5 876,-336.5 752,-336.5"/>
<text text-anchor="start" x="760" y="-354.5" font-family="Helvetica,sans-Serif" font-size="10.00">l4/sys/__kernel_object</text>
<text text-anchor="middle" x="814" y="-343.5" font-family="Helvetica,sans-Serif" font-size="10.00">_impl.h</text>
</a>
</g>
</g>
<!-- Node5&#45;&gt;Node14 -->
<g id="edge21" class="edge">
<title>Node5&#45;&gt;Node14</title>
<path fill="none" stroke="midnightblue" d="M814,-403.48C814,-396.47 814,-386.19 814,-376.7"/>
<polygon fill="midnightblue" stroke="midnightblue" points="817.5,-376.52 814,-366.52 810.5,-376.52 817.5,-376.52"/>
</g>
<!-- Node5&#45;&gt;Node15 -->
<g id="edge27" class="edge">
<title>Node5&#45;&gt;Node15</title>
<path fill="none" stroke="midnightblue" d="M839.16,-403.38C855.42,-396.34 875.29,-384.65 885,-367 891.64,-354.93 892.41,-347.61 885,-336 873.55,-318.06 852.9,-307.17 833.59,-300.6"/>
<polygon fill="midnightblue" stroke="midnightblue" points="834.56,-297.24 823.97,-297.63 832.49,-303.93 834.56,-297.24"/>
</g>
<!-- Node7 -->
<g id="node7" class="node">
<title>Node7</title>
<g id="a_node7"><a xlink:href="l4_2sys_2l4int_8h.html" target="_top" xlink:title="Fixed sized integer types, generic version.">
<polygon fill="white" stroke="black" points="242.5,-56.5 242.5,-75.5 321.5,-75.5 321.5,-56.5 242.5,-56.5"/>
<text text-anchor="middle" x="282" y="-63.5" font-family="Helvetica,sans-Serif" font-size="10.00">l4/sys/l4int.h</text>
</a>
</g>
</g>
<!-- Node6&#45;&gt;Node7 -->
<g id="edge6" class="edge">
<title>Node6&#45;&gt;Node7</title>
<path fill="none" stroke="midnightblue" d="M445.49,-168.17C438.02,-154.35 421.81,-127.6 401,-112 379.97,-96.24 352.78,-85.4 329.69,-78.33"/>
<polygon fill="midnightblue" stroke="midnightblue" points="330.66,-74.96 320.08,-75.52 328.7,-81.68 330.66,-74.96"/>
</g>
<!-- Node6&#45;&gt;Node8 -->
<g id="edge7" class="edge">
<title>Node6&#45;&gt;Node8</title>
<path fill="none" stroke="midnightblue" d="M490.91,-168.5C515.15,-161.81 545.28,-150.46 567,-132 581.75,-119.47 592.15,-99.69 598.3,-85.24"/>
<polygon fill="midnightblue" stroke="midnightblue" points="601.59,-86.42 602.02,-75.84 595.08,-83.84 601.59,-86.42"/>
</g>
<!-- Node10 -->
<g id="node10" class="node">
<title>Node10</title>
<g id="a_node10"><a xlink:href="l4_2sys_2consts_8h.html" target="_top" xlink:title="Common constants.">
<polygon fill="white" stroke="black" points="179.5,-112.5 179.5,-131.5 268.5,-131.5 268.5,-112.5 179.5,-112.5"/>
<text text-anchor="middle" x="224" y="-119.5" font-family="Helvetica,sans-Serif" font-size="10.00">l4/sys/consts.h</text>
</a>
</g>
</g>
<!-- Node6&#45;&gt;Node10 -->
<g id="edge9" class="edge">
<title>Node6&#45;&gt;Node10</title>
<path fill="none" stroke="midnightblue" d="M414.19,-168.44C375.01,-159.08 312.12,-144.06 269.48,-133.87"/>
<polygon fill="midnightblue" stroke="midnightblue" points="270.18,-130.44 259.64,-131.52 268.56,-137.24 270.18,-130.44"/>
</g>
<!-- Node11 -->
<g id="node11" class="node">
<title>Node11</title>
<g id="a_node11"><a xlink:href="____l4__fpage_8h_source.html" target="_top" xlink:title=" ">
<polygon fill="white" stroke="black" points="448,-112.5 448,-131.5 558,-131.5 558,-112.5 448,-112.5"/>
<text text-anchor="middle" x="503" y="-119.5" font-family="Helvetica,sans-Serif" font-size="10.00">l4/sys/__l4_fpage.h</text>
</a>
</g>
</g>
<!-- Node6&#45;&gt;Node11 -->
<g id="edge12" class="edge">
<title>Node6&#45;&gt;Node11</title>
<path fill="none" stroke="midnightblue" d="M458.75,-168.08C466.47,-160.22 477.9,-148.57 487.22,-139.08"/>
<polygon fill="midnightblue" stroke="midnightblue" points="489.9,-141.34 494.41,-131.75 484.91,-136.44 489.9,-141.34"/>
</g>
<!-- Node12 -->
<g id="node12" class="node">
<title>Node12</title>
<g id="a_node12"><a xlink:href="____timeout_8h_source.html" target="_top" xlink:title=" ">
<polygon fill="white" stroke="black" points="286,-112.5 286,-131.5 392,-131.5 392,-112.5 286,-112.5"/>
<text text-anchor="middle" x="339" y="-119.5" font-family="Helvetica,sans-Serif" font-size="10.00">l4/sys/__timeout.h</text>
</a>
</g>
</g>
<!-- Node6&#45;&gt;Node12 -->
<g id="edge14" class="edge">
<title>Node6&#45;&gt;Node12</title>
<path fill="none" stroke="midnightblue" d="M432.17,-168.32C414.28,-159.62 386.52,-146.12 365.95,-136.11"/>
<polygon fill="midnightblue" stroke="midnightblue" points="367.31,-132.88 356.79,-131.65 364.25,-139.18 367.31,-132.88"/>
</g>
<!-- Node9 -->
<g id="node9" class="node">
<title>Node9</title>
<g id="a_node9"><a xlink:title=" ">
<polygon fill="white" stroke="#bfbfbf" points="559,-0.5 559,-19.5 651,-19.5 651,-0.5 559,-0.5"/>
<text text-anchor="middle" x="605" y="-7.5" font-family="Helvetica,sans-Serif" font-size="10.00">l4/sys/linkage.h</text>
</a>
</g>
</g>
<!-- Node8&#45;&gt;Node9 -->
<g id="edge8" class="edge">
<title>Node8&#45;&gt;Node9</title>
<path fill="none" stroke="midnightblue" d="M605,-56.08C605,-49.01 605,-38.86 605,-29.99"/>
<polygon fill="midnightblue" stroke="midnightblue" points="608.5,-29.75 605,-19.75 601.5,-29.75 608.5,-29.75"/>
</g>
<!-- Node10&#45;&gt;Node7 -->
<g id="edge11" class="edge">
<title>Node10&#45;&gt;Node7</title>
<path fill="none" stroke="midnightblue" d="M233.32,-112.32C241.89,-104.34 254.81,-92.31 265.19,-82.65"/>
<polygon fill="midnightblue" stroke="midnightblue" points="267.58,-85.21 272.51,-75.83 262.81,-80.09 267.58,-85.21"/>
</g>
<!-- Node10&#45;&gt;Node8 -->
<g id="edge10" class="edge">
<title>Node10&#45;&gt;Node8</title>
<path fill="none" stroke="midnightblue" d="M268.52,-113.33C271.39,-112.87 274.23,-112.42 277,-112 370.56,-97.64 479.49,-83.13 545.29,-74.61"/>
<polygon fill="midnightblue" stroke="midnightblue" points="546,-78.05 555.47,-73.3 545.11,-71.11 546,-78.05"/>
</g>
<!-- Node11&#45;&gt;Node8 -->
<g id="edge13" class="edge">
<title>Node11&#45;&gt;Node8</title>
<path fill="none" stroke="midnightblue" d="M519.39,-112.32C535.67,-103.7 560.87,-90.36 579.72,-80.39"/>
<polygon fill="midnightblue" stroke="midnightblue" points="581.45,-83.43 588.65,-75.65 578.18,-77.24 581.45,-83.43"/>
</g>
<!-- Node12&#45;&gt;Node7 -->
<g id="edge15" class="edge">
<title>Node12&#45;&gt;Node7</title>
<path fill="none" stroke="midnightblue" d="M329.84,-112.32C321.5,-104.42 308.97,-92.55 298.82,-82.94"/>
<polygon fill="midnightblue" stroke="midnightblue" points="300.99,-80.17 291.32,-75.83 296.18,-85.25 300.99,-80.17"/>
</g>
<!-- Node13&#45;&gt;Node6 -->
<g id="edge18" class="edge">
<title>Node13&#45;&gt;Node6</title>
<path fill="none" stroke="midnightblue" d="M471.71,-224.08C468.15,-216.69 462.98,-205.95 458.58,-196.81"/>
<polygon fill="midnightblue" stroke="midnightblue" points="461.71,-195.24 454.21,-187.75 455.4,-198.28 461.71,-195.24"/>
</g>
<!-- Node13&#45;&gt;Node7 -->
<g id="edge20" class="edge">
<title>Node13&#45;&gt;Node7</title>
<path fill="none" stroke="midnightblue" d="M436.82,-233.47C369.22,-231.9 231.95,-217.68 170,-132 149.87,-104.15 193.7,-86.39 232.29,-76.59"/>
<polygon fill="midnightblue" stroke="midnightblue" points="233.55,-79.89 242.46,-74.16 231.92,-73.08 233.55,-79.89"/>
</g>
<!-- Node13&#45;&gt;Node8 -->
<g id="edge19" class="edge">
<title>Node13&#45;&gt;Node8</title>
<path fill="none" stroke="midnightblue" d="M490.29,-224.38C514.52,-208.99 563.51,-174.39 589,-132 597.52,-117.84 601.51,-99.36 603.37,-85.72"/>
<polygon fill="midnightblue" stroke="midnightblue" points="606.87,-85.93 604.49,-75.61 599.91,-85.16 606.87,-85.93"/>
</g>
<!-- Node14&#45;&gt;Node15 -->
<g id="edge22" class="edge">
<title>Node14&#45;&gt;Node15</title>
<path fill="none" stroke="midnightblue" d="M807.84,-336.4C804.26,-328.2 799.7,-317.78 795.86,-308.99"/>
<polygon fill="midnightblue" stroke="midnightblue" points="798.99,-307.42 791.78,-299.66 792.58,-310.22 798.99,-307.42"/>
</g>
<!-- Node15&#45;&gt;Node6 -->
<g id="edge23" class="edge">
<title>Node15&#45;&gt;Node6</title>
<path fill="none" stroke="midnightblue" d="M763.21,-280.43C738.6,-271.77 699.88,-257.74 667,-244 647.55,-235.88 643.84,-231.11 624,-224 583.77,-209.58 536.77,-197.71 501.77,-189.78"/>
<polygon fill="midnightblue" stroke="midnightblue" points="502.3,-186.31 491.77,-187.55 500.77,-193.15 502.3,-186.31"/>
</g>
<!-- Node15&#45;&gt;Node13 -->
<g id="edge24" class="edge">
<title>Node15&#45;&gt;Node13</title>
<path fill="none" stroke="midnightblue" d="M752.5,-282.57C747.63,-281.7 742.69,-280.83 738,-280 663.85,-266.96 577.82,-252.27 525.15,-243.32"/>
<polygon fill="midnightblue" stroke="midnightblue" points="525.52,-239.83 515.08,-241.61 524.35,-246.74 525.52,-239.83"/>
</g>
<!-- Node16 -->
<g id="node16" class="node">
<title>Node16</title>
<g id="a_node16"><a xlink:href="err_8h.html" target="_top" xlink:title="Error codes.">
<polygon fill="white" stroke="black" points="676,-224.5 676,-243.5 746,-243.5 746,-224.5 676,-224.5"/>
<text text-anchor="middle" x="711" y="-231.5" font-family="Helvetica,sans-Serif" font-size="10.00">l4/sys/err.h</text>
</a>
</g>
</g>
<!-- Node15&#45;&gt;Node16 -->
<g id="edge25" class="edge">
<title>Node15&#45;&gt;Node16</title>
<path fill="none" stroke="midnightblue" d="M775.63,-280.32C763.84,-272.06 745.87,-259.45 731.86,-249.63"/>
<polygon fill="midnightblue" stroke="midnightblue" points="733.54,-246.53 723.34,-243.65 729.52,-252.26 733.54,-246.53"/>
</g>
<!-- Node16&#45;&gt;Node8 -->
<g id="edge26" class="edge">
<title>Node16&#45;&gt;Node8</title>
<path fill="none" stroke="midnightblue" d="M706.13,-224.33C694.75,-204.23 665.35,-153.04 638,-112 631.69,-102.53 624.22,-92.27 617.98,-83.94"/>
<polygon fill="midnightblue" stroke="midnightblue" points="620.64,-81.66 611.82,-75.8 615.06,-85.88 620.64,-81.66"/>
</g>
<!-- Node17&#45;&gt;Node5 -->
<g id="edge30" class="edge">
<title>Node17&#45;&gt;Node5</title>
<path fill="none" stroke="midnightblue" d="M701.23,-459.44C723.38,-450.52 758.32,-436.44 783.44,-426.32"/>
<polygon fill="midnightblue" stroke="midnightblue" points="784.9,-429.5 792.87,-422.52 782.28,-423.01 784.9,-429.5"/>
</g>
<!-- Node17&#45;&gt;Node15 -->
<g id="edge31" class="edge">
<title>Node17&#45;&gt;Node15</title>
<path fill="none" stroke="midnightblue" d="M682.93,-459.43C690.63,-437.58 712.95,-378.51 743,-336 750.62,-325.22 760.92,-314.71 769.75,-306.56"/>
<polygon fill="midnightblue" stroke="midnightblue" points="772.19,-309.06 777.32,-299.79 767.53,-303.84 772.19,-309.06"/>
</g>
<!-- Node18 -->
<g id="node18" class="node">
<title>Node18</title>
<g id="a_node18"><a xlink:href="rcv__endpoint_8h.html" target="_top" xlink:title="Receive endpoint C interface.">
<polygon fill="white" stroke="black" points="462,-342 462,-361 582,-361 582,-342 462,-342"/>
<text text-anchor="middle" x="522" y="-349" font-family="Helvetica,sans-Serif" font-size="10.00">l4/sys/rcv_endpoint.h</text>
</a>
</g>
</g>
<!-- Node17&#45;&gt;Node18 -->
<g id="edge32" class="edge">
<title>Node17&#45;&gt;Node18</title>
<path fill="none" stroke="midnightblue" d="M668.12,-459.32C641.25,-439.67 575.5,-391.61 542.13,-367.22"/>
<polygon fill="midnightblue" stroke="midnightblue" points="544.15,-364.36 534.01,-361.28 540.02,-370.01 544.15,-364.36"/>
</g>
<!-- Node18&#45;&gt;Node6 -->
<g id="edge34" class="edge">
<title>Node18&#45;&gt;Node6</title>
<path fill="none" stroke="midnightblue" d="M524.93,-341.8C531.65,-320.2 545.96,-263.06 524,-224 515.78,-209.38 500.67,-198.95 486.24,-191.85"/>
<polygon fill="midnightblue" stroke="midnightblue" points="487.48,-188.57 476.93,-187.64 484.6,-194.95 487.48,-188.57"/>
</g>
<!-- Node18&#45;&gt;Node13 -->
<g id="edge33" class="edge">
<title>Node18&#45;&gt;Node13</title>
<path fill="none" stroke="midnightblue" d="M518.54,-341.82C511.08,-323.09 493.34,-278.55 483.29,-253.29"/>
<polygon fill="midnightblue" stroke="midnightblue" points="486.45,-251.78 479.5,-243.78 479.95,-254.37 486.45,-251.78"/>
</g>
<!-- Node18&#45;&gt;Node15 -->
<g id="edge35" class="edge">
<title>Node18&#45;&gt;Node15</title>
<path fill="none" stroke="midnightblue" d="M560.11,-341.98C608.19,-331.22 690.79,-312.74 742.24,-301.24"/>
<polygon fill="midnightblue" stroke="midnightblue" points="743.09,-304.63 752.09,-299.03 741.57,-297.8 743.09,-304.63"/>
</g>
<!-- Node19&#45;&gt;Node6 -->
<g id="edge38" class="edge">
<title>Node19&#45;&gt;Node6</title>
<path fill="none" stroke="midnightblue" d="M324.83,-683.5C259.17,-652.18 38,-541.39 38,-470 38,-470 38,-470 38,-289 38,-215.4 286.55,-189.77 397.55,-182"/>
<polygon fill="midnightblue" stroke="midnightblue" points="398.1,-185.47 407.84,-181.3 397.63,-178.48 398.1,-185.47"/>
</g>
<!-- Node19&#45;&gt;Node10 -->
<g id="edge37" class="edge">
<title>Node19&#45;&gt;Node10</title>
<path fill="none" stroke="midnightblue" d="M294.95,-683.97C200.55,-665.16 0,-608.85 0,-470 0,-470 0,-470 0,-233 0,-157.84 102.85,-134.03 169.17,-126.49"/>
<polygon fill="midnightblue" stroke="midnightblue" points="169.89,-129.94 179.48,-125.42 169.17,-122.97 169.89,-129.94"/>
</g>
<!-- Node20 -->
<g id="node20" class="node">
<title>Node20</title>
<g id="a_node20"><a xlink:href="kobject_source.html" target="_top" xlink:title=" ">
<polygon fill="white" stroke="black" points="422.5,-515.5 422.5,-534.5 505.5,-534.5 505.5,-515.5 422.5,-515.5"/>
<text text-anchor="middle" x="464" y="-522.5" font-family="Helvetica,sans-Serif" font-size="10.00">l4/sys/kobject</text>
</a>
</g>
</g>
<!-- Node19&#45;&gt;Node20 -->
<g id="edge39" class="edge">
<title>Node19&#45;&gt;Node20</title>
<path fill="none" stroke="midnightblue" d="M349.51,-683.08C368.88,-656.49 426.43,-577.54 451.78,-542.76"/>
<polygon fill="midnightblue" stroke="midnightblue" points="454.69,-544.71 457.75,-534.57 449.04,-540.59 454.69,-544.71"/>
</g>
<!-- Node25 -->
<g id="node25" class="node">
<title>Node25</title>
<g id="a_node25"><a xlink:href="l4_2sys_2task_8h.html" target="_top" xlink:title="Common task related definitions.">
<polygon fill="white" stroke="black" points="366,-342 366,-361 444,-361 444,-342 366,-342"/>
<text text-anchor="middle" x="405" y="-349" font-family="Helvetica,sans-Serif" font-size="10.00">l4/sys/task.h</text>
</a>
</g>
</g>
<!-- Node19&#45;&gt;Node25 -->
<g id="edge55" class="edge">
<title>Node19&#45;&gt;Node25</title>
<path fill="none" stroke="midnightblue" d="M391.2,-685.5C447.78,-674.85 534,-647.82 534,-582 534,-582 534,-582 534,-468 534,-416.32 475.81,-381.96 437.6,-364.97"/>
<polygon fill="midnightblue" stroke="midnightblue" points="438.93,-361.73 428.36,-361.02 436.18,-368.17 438.93,-361.73"/>
</g>
<!-- Node26 -->
<g id="node26" class="node">
<title>Node26</title>
<g id="a_node26"><a xlink:href="sys_2meta.html" target="_top" xlink:title="Meta interface for getting dynamic type information about objects behind capabilities.">
<polygon fill="white" stroke="black" points="292,-627.5 292,-646.5 366,-646.5 366,-627.5 292,-627.5"/>
<text text-anchor="middle" x="329" y="-634.5" font-family="Helvetica,sans-Serif" font-size="10.00">l4/sys/meta</text>
</a>
</g>
</g>
<!-- Node19&#45;&gt;Node26 -->
<g id="edge56" class="edge">
<title>Node19&#45;&gt;Node26</title>
<path fill="none" stroke="midnightblue" d="M340.69,-683.08C338.83,-675.93 336.16,-665.64 333.85,-656.69"/>
<polygon fill="midnightblue" stroke="midnightblue" points="337.17,-655.55 331.27,-646.75 330.39,-657.31 337.17,-655.55"/>
</g>
<!-- Node20&#45;&gt;Node5 -->
<g id="edge40" class="edge">
<title>Node20&#45;&gt;Node5</title>
<path fill="none" stroke="midnightblue" d="M505.69,-522.55C558.44,-519.43 651.17,-509.66 724,-479 752.4,-467.05 780.42,-444.68 797.46,-429.56"/>
<polygon fill="midnightblue" stroke="midnightblue" points="799.86,-432.12 804.9,-422.8 795.15,-426.94 799.86,-432.12"/>
</g>
<!-- Node20&#45;&gt;Node6 -->
<g id="edge41" class="edge">
<title>Node20&#45;&gt;Node6</title>
<path fill="none" stroke="midnightblue" d="M464.07,-515.2C463.78,-493.47 460.11,-436.56 431,-403 407.03,-375.37 376.4,-398.01 357,-367 318.76,-305.87 395.32,-226.82 431.97,-194.15"/>
<polygon fill="midnightblue" stroke="midnightblue" points="434.29,-196.77 439.53,-187.56 429.69,-191.5 434.29,-196.77"/>
</g>
<!-- Node21 -->
<g id="node21" class="node">
<title>Node21</title>
<g id="a_node21"><a xlink:href="____typeinfo_8h.html" target="_top" xlink:title="Type information handling.">
<polygon fill="white" stroke="black" points="275.5,-459.5 275.5,-478.5 352.5,-478.5 352.5,-459.5 275.5,-459.5"/>
<text text-anchor="middle" x="314" y="-466.5" font-family="Helvetica,sans-Serif" font-size="10.00">__typeinfo.h</text>
</a>
</g>
</g>
<!-- Node20&#45;&gt;Node21 -->
<g id="edge42" class="edge">
<title>Node20&#45;&gt;Node21</title>
<path fill="none" stroke="midnightblue" d="M440.23,-515.44C415.11,-506.4 375.29,-492.06 347.1,-481.92"/>
<polygon fill="midnightblue" stroke="midnightblue" points="348.25,-478.61 337.66,-478.52 345.88,-485.2 348.25,-478.61"/>
</g>
<!-- Node22 -->
<g id="node22" class="node">
<title>Node22</title>
<g id="a_node22"><a xlink:href="types.html" target="_top" xlink:title=" ">
<polygon fill="white" stroke="black" points="124,-342 124,-361 188,-361 188,-342 124,-342"/>
<text text-anchor="middle" x="156" y="-349" font-family="Helvetica,sans-Serif" font-size="10.00">cxx/types</text>
</a>
</g>
</g>
<!-- Node21&#45;&gt;Node22 -->
<g id="edge43" class="edge">
<title>Node21&#45;&gt;Node22</title>
<path fill="none" stroke="midnightblue" d="M285.51,-459.37C264.14,-451.97 234.92,-439.84 213,-423 193.77,-408.23 177.05,-385.71 166.77,-370.12"/>
<polygon fill="midnightblue" stroke="midnightblue" points="169.57,-367.99 161.25,-361.43 163.66,-371.75 169.57,-367.99"/>
</g>
<!-- Node23 -->
<g id="node23" class="node">
<title>Node23</title>
<g id="a_node23"><a xlink:href="ipc__basics_source.html" target="_top" xlink:title=" ">
<polygon fill="white" stroke="black" points="335.5,-403.5 335.5,-422.5 422.5,-422.5 422.5,-403.5 335.5,-403.5"/>
<text text-anchor="middle" x="379" y="-410.5" font-family="Helvetica,sans-Serif" font-size="10.00">cxx/ipc_basics</text>
</a>
</g>
</g>
<!-- Node21&#45;&gt;Node23 -->
<g id="edge44" class="edge">
<title>Node21&#45;&gt;Node23</title>
<path fill="none" stroke="midnightblue" d="M324.44,-459.32C334.15,-451.26 348.82,-439.08 360.5,-429.37"/>
<polygon fill="midnightblue" stroke="midnightblue" points="362.91,-431.92 368.37,-422.83 358.44,-426.53 362.91,-431.92"/>
</g>
<!-- Node24 -->
<g id="node24" class="node">
<title>Node24</title>
<g id="a_node24"><a xlink:href="capability_8h_source.html" target="_top" xlink:title=" ">
<polygon fill="white" stroke="black" points="222,-403.5 222,-422.5 314,-422.5 314,-403.5 222,-403.5"/>
<text text-anchor="middle" x="268" y="-410.5" font-family="Helvetica,sans-Serif" font-size="10.00">cxx/capability.h</text>
</a>
</g>
</g>
<!-- Node21&#45;&gt;Node24 -->
<g id="edge48" class="edge">
<title>Node21&#45;&gt;Node24</title>
<path fill="none" stroke="midnightblue" d="M306.4,-459.08C299.77,-451.3 289.98,-439.8 281.94,-430.37"/>
<polygon fill="midnightblue" stroke="midnightblue" points="284.6,-428.09 275.45,-422.75 279.27,-432.63 284.6,-428.09"/>
</g>
<!-- Node23&#45;&gt;Node13 -->
<g id="edge46" class="edge">
<title>Node23&#45;&gt;Node13</title>
<path fill="none" stroke="midnightblue" d="M372.56,-403.26C362.74,-388.8 346.27,-359.19 357,-336 375.9,-295.17 420.34,-264.82 449.24,-248.53"/>
<polygon fill="midnightblue" stroke="midnightblue" points="450.92,-251.6 458.03,-243.74 447.57,-245.45 450.92,-251.6"/>
</g>
<!-- Node23&#45;&gt;Node16 -->
<g id="edge47" class="edge">
<title>Node23&#45;&gt;Node16</title>
<path fill="none" stroke="midnightblue" d="M422.79,-410.5C467.72,-407.24 538.3,-397.25 591,-367 641.2,-338.19 682.05,-281.1 700.46,-252.37"/>
<polygon fill="midnightblue" stroke="midnightblue" points="703.48,-254.13 705.82,-243.8 697.55,-250.42 703.48,-254.13"/>
</g>
<!-- Node23&#45;&gt;Node22 -->
<g id="edge45" class="edge">
<title>Node23&#45;&gt;Node22</title>
<path fill="none" stroke="midnightblue" d="M347.05,-403.48C307.8,-393 241.12,-375.21 197.83,-363.66"/>
<polygon fill="midnightblue" stroke="midnightblue" points="198.46,-360.21 187.89,-361.01 196.65,-366.97 198.46,-360.21"/>
</g>
<!-- Node24&#45;&gt;Node6 -->
<g id="edge50" class="edge">
<title>Node24&#45;&gt;Node6</title>
<path fill="none" stroke="midnightblue" d="M267.68,-403.16C267.11,-373.61 269.31,-277.08 319,-224 339.4,-202.21 370.82,-190.97 397.78,-185.17"/>
<polygon fill="midnightblue" stroke="midnightblue" points="398.71,-188.56 407.86,-183.21 397.37,-181.68 398.71,-188.56"/>
</g>
<!-- Node24&#45;&gt;Node10 -->
<g id="edge49" class="edge">
<title>Node24&#45;&gt;Node10</title>
<path fill="none" stroke="midnightblue" d="M262.43,-403.29C250.59,-383.92 224,-335.48 224,-291 224,-291 224,-291 224,-233 224,-200.95 224,-163.64 224,-141.75"/>
<polygon fill="midnightblue" stroke="midnightblue" points="227.5,-141.56 224,-131.56 220.5,-141.56 227.5,-141.56"/>
</g>
<!-- Node24&#45;&gt;Node25 -->
<g id="edge51" class="edge">
<title>Node24&#45;&gt;Node25</title>
<path fill="none" stroke="midnightblue" d="M287.63,-403.48C310.82,-393.4 349.62,-376.55 376.21,-365"/>
<polygon fill="midnightblue" stroke="midnightblue" points="377.63,-368.2 385.41,-361.01 374.84,-361.78 377.63,-368.2"/>
</g>
<!-- Node25&#45;&gt;Node6 -->
<g id="edge52" class="edge">
<title>Node25&#45;&gt;Node6</title>
<path fill="none" stroke="midnightblue" d="M405.76,-341.71C407.74,-320.83 413.93,-266.84 428,-224 431.09,-214.6 435.77,-204.67 440.03,-196.54"/>
<polygon fill="midnightblue" stroke="midnightblue" points="443.15,-198.12 444.87,-187.66 437.01,-194.76 443.15,-198.12"/>
</g>
<!-- Node25&#45;&gt;Node13 -->
<g id="edge53" class="edge">
<title>Node25&#45;&gt;Node13</title>
<path fill="none" stroke="midnightblue" d="M410.34,-341.82C421.95,-322.92 449.72,-277.75 465.17,-252.62"/>
<polygon fill="midnightblue" stroke="midnightblue" points="468.35,-254.13 470.6,-243.78 462.38,-250.47 468.35,-254.13"/>
</g>
<!-- Node25&#45;&gt;Node15 -->
<g id="edge54" class="edge">
<title>Node25&#45;&gt;Node15</title>
<path fill="none" stroke="midnightblue" d="M430.46,-341.98C437.68,-339.79 445.6,-337.6 453,-336 555.13,-313.86 677.28,-300.75 742.18,-294.82"/>
<polygon fill="midnightblue" stroke="midnightblue" points="742.82,-298.27 752.47,-293.89 742.2,-291.3 742.82,-298.27"/>
</g>
<!-- Node26&#45;&gt;Node20 -->
<g id="edge57" class="edge">
<title>Node26&#45;&gt;Node20</title>
<path fill="none" stroke="midnightblue" d="M339.59,-627.37C362.46,-608.73 416.71,-564.53 445.43,-541.13"/>
<polygon fill="midnightblue" stroke="midnightblue" points="447.91,-543.62 453.46,-534.59 443.49,-538.19 447.91,-543.62"/>
</g>
<!-- Node26&#45;&gt;Node27 -->
<g id="edge58" class="edge">
<title>Node26&#45;&gt;Node27</title>
<path fill="none" stroke="midnightblue" d="M327.84,-627.08C326.92,-619.93 325.58,-609.64 324.42,-600.69"/>
<polygon fill="midnightblue" stroke="midnightblue" points="327.89,-600.22 323.13,-590.75 320.95,-601.12 327.89,-600.22"/>
</g>
<!-- Node29 -->
<g id="node29" class="node">
<title>Node29</title>
<g id="a_node29"><a xlink:href="ipc__string_source.html" target="_top" xlink:title=" ">
<polygon fill="white" stroke="black" points="180,-571.5 180,-590.5 264,-590.5 264,-571.5 180,-571.5"/>
<text text-anchor="middle" x="222" y="-578.5" font-family="Helvetica,sans-Serif" font-size="10.00">cxx/ipc_string</text>
</a>
</g>
</g>
<!-- Node26&#45;&gt;Node29 -->
<g id="edge65" class="edge">
<title>Node26&#45;&gt;Node29</title>
<path fill="none" stroke="midnightblue" d="M311.81,-627.32C294.65,-618.66 268.05,-605.24 248.25,-595.25"/>
<polygon fill="midnightblue" stroke="midnightblue" points="249.65,-592.04 239.15,-590.65 246.5,-598.28 249.65,-592.04"/>
</g>
<!-- Node27&#45;&gt;Node21 -->
<g id="edge64" class="edge">
<title>Node27&#45;&gt;Node21</title>
<path fill="none" stroke="midnightblue" d="M321.37,-571.37C320.08,-553.62 317.1,-512.67 315.35,-488.6"/>
<polygon fill="midnightblue" stroke="midnightblue" points="318.84,-488.31 314.62,-478.59 311.86,-488.82 318.84,-488.31"/>
</g>
<!-- Node27&#45;&gt;Node23 -->
<g id="edge59" class="edge">
<title>Node27&#45;&gt;Node23</title>
<path fill="none" stroke="midnightblue" d="M337.96,-571.42C363.69,-556.56 413.4,-523.32 433,-479 441.87,-458.94 421.95,-440.13 403.85,-427.97"/>
<polygon fill="midnightblue" stroke="midnightblue" points="405.58,-424.91 395.25,-422.55 401.85,-430.84 405.58,-424.91"/>
</g>
<!-- Node27&#45;&gt;Node28 -->
<g id="edge60" class="edge">
<title>Node27&#45;&gt;Node28</title>
<path fill="none" stroke="midnightblue" d="M312.43,-571.37C291.85,-552.81 243.16,-508.91 217.12,-485.44"/>
<polygon fill="midnightblue" stroke="midnightblue" points="219.3,-482.69 209.53,-478.59 214.61,-487.89 219.3,-482.69"/>
</g>
<!-- Node28&#45;&gt;Node22 -->
<g id="edge62" class="edge">
<title>Node28&#45;&gt;Node22</title>
<path fill="none" stroke="midnightblue" d="M195.93,-459.47C191.72,-450.49 185.05,-435.9 180,-423 173.16,-405.54 166.37,-385.23 161.77,-370.91"/>
<polygon fill="midnightblue" stroke="midnightblue" points="165.07,-369.75 158.71,-361.27 158.4,-371.86 165.07,-369.75"/>
</g>
<!-- Node28&#45;&gt;Node23 -->
<g id="edge63" class="edge">
<title>Node28&#45;&gt;Node23</title>
<path fill="none" stroke="midnightblue" d="M228.36,-459.44C258.74,-450.28 307.11,-435.69 340.82,-425.52"/>
<polygon fill="midnightblue" stroke="midnightblue" points="342.21,-428.76 350.77,-422.52 340.18,-422.05 342.21,-428.76"/>
</g>
<!-- Node28&#45;&gt;Node24 -->
<g id="edge61" class="edge">
<title>Node28&#45;&gt;Node24</title>
<path fill="none" stroke="midnightblue" d="M210.93,-459.32C221.17,-451.18 236.72,-438.84 249,-429.09"/>
<polygon fill="midnightblue" stroke="midnightblue" points="251.22,-431.79 256.88,-422.83 246.87,-426.31 251.22,-431.79"/>
</g>
<!-- Node29&#45;&gt;Node22 -->
<g id="edge66" class="edge">
<title>Node29&#45;&gt;Node22</title>
<path fill="none" stroke="midnightblue" d="M207.47,-571.44C183.65,-556.37 137.52,-522.56 123,-479 112.32,-446.96 113.36,-435.37 123,-403 126.71,-390.52 134.6,-378.26 141.73,-368.94"/>
<polygon fill="midnightblue" stroke="midnightblue" points="144.59,-370.97 148.18,-361 139.16,-366.56 144.59,-370.97"/>
</g>
<!-- Node29&#45;&gt;Node23 -->
<g id="edge67" class="edge">
<title>Node29&#45;&gt;Node23</title>
<path fill="none" stroke="midnightblue" d="M250.93,-571.41C288.93,-558.38 354.09,-529.63 382,-479 389.83,-464.79 387.93,-446.07 384.76,-432.37"/>
<polygon fill="midnightblue" stroke="midnightblue" points="388.11,-431.36 382.1,-422.64 381.36,-433.21 388.11,-431.36"/>
</g>
<!-- Node30 -->
<g id="node30" class="node">
<title>Node30</title>
<g id="a_node30"><a xlink:href="ipc__array_source.html" target="_top" xlink:title=" ">
<polygon fill="white" stroke="black" points="174,-515.5 174,-534.5 236,-534.5 236,-515.5 174,-515.5"/>
<text text-anchor="middle" x="205" y="-522.5" font-family="Helvetica,sans-Serif" font-size="10.00">ipc_array</text>
</a>
</g>
</g>
<!-- Node29&#45;&gt;Node30 -->
<g id="edge68" class="edge">
<title>Node29&#45;&gt;Node30</title>
<path fill="none" stroke="midnightblue" d="M219.19,-571.08C216.92,-563.85 213.63,-553.41 210.79,-544.4"/>
<polygon fill="midnightblue" stroke="midnightblue" points="214.1,-543.24 207.75,-534.75 207.42,-545.34 214.1,-543.24"/>
</g>
<!-- Node30&#45;&gt;Node22 -->
<g id="edge69" class="edge">
<title>Node30&#45;&gt;Node22</title>
<path fill="none" stroke="midnightblue" d="M179.5,-515.47C163.01,-508.48 142.86,-496.79 133,-479 113.51,-443.84 132.83,-395.54 145.99,-370"/>
<polygon fill="midnightblue" stroke="midnightblue" points="149.12,-371.57 150.81,-361.11 142.97,-368.23 149.12,-371.57"/>
</g>
<!-- Node30&#45;&gt;Node23 -->
<g id="edge70" class="edge">
<title>Node30&#45;&gt;Node23</title>
<path fill="none" stroke="midnightblue" d="M236.13,-523.62C271.26,-521.47 327.79,-512.56 361,-479 372.96,-466.91 377.14,-447.63 378.52,-433.2"/>
<polygon fill="midnightblue" stroke="midnightblue" points="382.04,-433.09 379.13,-422.9 375.05,-432.68 382.04,-433.09"/>
</g>
<!-- Node30&#45;&gt;Node28 -->
<g id="edge71" class="edge">
<title>Node30&#45;&gt;Node28</title>
<path fill="none" stroke="midnightblue" d="M204.17,-515.08C203.52,-508.01 202.58,-497.86 201.76,-488.99"/>
<polygon fill="midnightblue" stroke="midnightblue" points="205.22,-488.39 200.81,-478.75 198.25,-489.03 205.22,-488.39"/>
</g>
<!-- Node31&#45;&gt;Node6 -->
<g id="edge74" class="edge">
<title>Node31&#45;&gt;Node6</title>
<path fill="none" stroke="midnightblue" d="M552.03,-739.43C570.95,-722.27 610,-681.56 610,-638 610,-638 610,-638 610,-289 610,-234.24 545.58,-204.68 498.49,-190.4"/>
<polygon fill="midnightblue" stroke="midnightblue" points="499.31,-186.99 488.73,-187.57 497.37,-193.71 499.31,-186.99"/>
</g>
<!-- Node31&#45;&gt;Node18 -->
<g id="edge73" class="edge">
<title>Node31&#45;&gt;Node18</title>
<path fill="none" stroke="midnightblue" d="M546.05,-739.38C554.23,-721.11 572,-677 572,-638 572,-638 572,-638 572,-468 572,-430.5 549.53,-391.38 534.72,-369.66"/>
<polygon fill="midnightblue" stroke="midnightblue" points="537.38,-367.36 528.74,-361.22 531.67,-371.4 537.38,-367.36"/>
</g>
<!-- Node31&#45;&gt;Node19 -->
<g id="edge75" class="edge">
<title>Node31&#45;&gt;Node19</title>
<path fill="none" stroke="midnightblue" d="M510.47,-739.44C476.41,-730.2 421.99,-715.44 384.48,-705.26"/>
<polygon fill="midnightblue" stroke="midnightblue" points="384.95,-701.76 374.38,-702.52 383.12,-708.51 384.95,-701.76"/>
</g>
<!-- Node31&#45;&gt;Node27 -->
<g id="edge76" class="edge">
<title>Node31&#45;&gt;Node27</title>
<path fill="none" stroke="midnightblue" d="M539.42,-739.18C532.44,-716.88 511.03,-657.85 472,-627 443.32,-604.33 403.39,-593.06 371.94,-587.47"/>
<polygon fill="midnightblue" stroke="midnightblue" points="372.49,-584.01 362.05,-585.85 371.35,-590.92 372.49,-584.01"/>
</g>
<!-- Node32&#45;&gt;Node5 -->
<g id="edge80" class="edge">
<title>Node32&#45;&gt;Node5</title>
<path fill="none" stroke="midnightblue" d="M900.45,-459.32C884.01,-450.7 858.57,-437.36 839.53,-427.39"/>
<polygon fill="midnightblue" stroke="midnightblue" points="840.99,-424.2 830.51,-422.65 837.74,-430.4 840.99,-424.2"/>
</g>
<!-- Node32&#45;&gt;Node15 -->
<g id="edge81" class="edge">
<title>Node32&#45;&gt;Node15</title>
<path fill="none" stroke="midnightblue" d="M920.44,-459.26C928.79,-436.47 947.48,-374.4 920,-336 900.53,-308.79 863.61,-297.84 833.75,-293.53"/>
<polygon fill="midnightblue" stroke="midnightblue" points="833.88,-290.02 823.53,-292.27 833.03,-296.97 833.88,-290.02"/>
</g>
</g>
</svg>
