<?xml version="1.0" encoding="UTF-8" standalone="no"?>
<!DOCTYPE svg PUBLIC "-//W3C//DTD SVG 1.1//EN"
 "http://www.w3.org/Graphics/SVG/1.1/DTD/svg11.dtd">
<!-- Generated by graphviz version 2.43.0 (0)
 -->
<!-- Title: l4/shmc/shmc.h Pages: 1 -->
<svg width="512pt" height="252pt"
 viewBox="0.00 0.00 512.49 252.00" xmlns="http://www.w3.org/2000/svg" xmlns:xlink="http://www.w3.org/1999/xlink">
<g id="graph0" class="graph" transform="scale(1 1) rotate(0) translate(4 248)">
<title>l4/shmc/shmc.h</title>
<polygon fill="white" stroke="transparent" points="-4,4 -4,-248 508.49,-248 508.49,4 -4,4"/>
<!-- Node1 -->
<g id="node1" class="node">
<title>Node1</title>
<g id="a_node1"><a xlink:title="Shared memory library header file.">
<polygon fill="#bfbfbf" stroke="black" points="213.99,-224.5 213.99,-243.5 306.99,-243.5 306.99,-224.5 213.99,-224.5"/>
<text text-anchor="middle" x="260.49" y="-231.5" font-family="Helvetica,sans-Serif" font-size="10.00">l4/shmc/shmc.h</text>
</a>
</g>
</g>
<!-- Node2 -->
<g id="node2" class="node">
<title>Node2</title>
<g id="a_node2"><a xlink:title=" ">
<polygon fill="white" stroke="#bfbfbf" points="63.49,-0.5 63.49,-19.5 155.49,-19.5 155.49,-0.5 63.49,-0.5"/>
<text text-anchor="middle" x="109.49" y="-7.5" font-family="Helvetica,sans-Serif" font-size="10.00">l4/sys/linkage.h</text>
</a>
</g>
</g>
<!-- Node1&#45;&gt;Node2 -->
<g id="edge1" class="edge">
<title>Node1&#45;&gt;Node2</title>
<path fill="none" stroke="midnightblue" d="M213.76,-229.95C153.5,-223.2 50.92,-201.53 4.49,-132 -9.68,-110.79 14.26,-68.83 25.49,-56 38.24,-41.43 56.88,-30.78 73.37,-23.5"/>
<polygon fill="midnightblue" stroke="midnightblue" points="74.87,-26.67 82.77,-19.61 72.19,-20.2 74.87,-26.67"/>
</g>
<!-- Node3 -->
<g id="node3" class="node">
<title>Node3</title>
<g id="a_node3"><a xlink:href="l4_2sys_2types_8h.html" target="_top" xlink:title="Common L4 ABI Data Types.">
<polygon fill="white" stroke="black" points="148.49,-168.5 148.49,-187.5 232.49,-187.5 232.49,-168.5 148.49,-168.5"/>
<text text-anchor="middle" x="190.49" y="-175.5" font-family="Helvetica,sans-Serif" font-size="10.00">l4/sys/types.h</text>
</a>
</g>
</g>
<!-- Node1&#45;&gt;Node3 -->
<g id="edge2" class="edge">
<title>Node1&#45;&gt;Node3</title>
<path fill="none" stroke="midnightblue" d="M249.24,-224.32C238.69,-216.18 222.69,-203.84 210.04,-194.09"/>
<polygon fill="midnightblue" stroke="midnightblue" points="211.99,-191.17 201.94,-187.83 207.72,-196.71 211.99,-191.17"/>
</g>
<!-- Node9 -->
<g id="node9" class="node">
<title>Node9</title>
<g id="a_node9"><a xlink:href="err_8h.html" target="_top" xlink:title="Error codes.">
<polygon fill="white" stroke="black" points="419.49,-112.5 419.49,-131.5 489.49,-131.5 489.49,-112.5 419.49,-112.5"/>
<text text-anchor="middle" x="454.49" y="-119.5" font-family="Helvetica,sans-Serif" font-size="10.00">l4/sys/err.h</text>
</a>
</g>
</g>
<!-- Node1&#45;&gt;Node9 -->
<g id="edge13" class="edge">
<title>Node1&#45;&gt;Node9</title>
<path fill="none" stroke="midnightblue" d="M260.45,-224.49C260.86,-210.63 263.77,-183.21 279.49,-168 284.24,-163.39 358.87,-145.28 409.12,-133.49"/>
<polygon fill="midnightblue" stroke="midnightblue" points="410.19,-136.84 419.13,-131.15 408.59,-130.02 410.19,-136.84"/>
</g>
<!-- Node10 -->
<g id="node10" class="node">
<title>Node10</title>
<g id="a_node10"><a xlink:title=" ">
<polygon fill="white" stroke="#bfbfbf" points="288.49,-168.5 288.49,-187.5 382.49,-187.5 382.49,-168.5 288.49,-168.5"/>
<text text-anchor="middle" x="335.49" y="-175.5" font-family="Helvetica,sans-Serif" font-size="10.00">l4/shmc/types.h</text>
</a>
</g>
</g>
<!-- Node1&#45;&gt;Node10 -->
<g id="edge15" class="edge">
<title>Node1&#45;&gt;Node10</title>
<path fill="none" stroke="midnightblue" d="M272.54,-224.32C283.95,-216.11 301.32,-203.6 314.92,-193.81"/>
<polygon fill="midnightblue" stroke="midnightblue" points="317.15,-196.52 323.22,-187.83 313.06,-190.84 317.15,-196.52"/>
</g>
<!-- Node11 -->
<g id="node11" class="node">
<title>Node11</title>
<g id="a_node11"><a xlink:title=" ">
<polygon fill="white" stroke="#bfbfbf" points="400.49,-168.5 400.49,-187.5 504.49,-187.5 504.49,-168.5 400.49,-168.5"/>
<text text-anchor="middle" x="452.49" y="-175.5" font-family="Helvetica,sans-Serif" font-size="10.00">l4/shmc/internal.h</text>
</a>
</g>
</g>
<!-- Node1&#45;&gt;Node11 -->
<g id="edge16" class="edge">
<title>Node1&#45;&gt;Node11</title>
<path fill="none" stroke="midnightblue" d="M290.91,-224.44C323.77,-215.2 376.27,-200.44 412.46,-190.26"/>
<polygon fill="midnightblue" stroke="midnightblue" points="413.53,-193.59 422.21,-187.52 411.63,-186.85 413.53,-193.59"/>
</g>
<!-- Node4 -->
<g id="node4" class="node">
<title>Node4</title>
<g id="a_node4"><a xlink:href="l4_2sys_2l4int_8h.html" target="_top" xlink:title="Fixed sized integer types, generic version.">
<polygon fill="white" stroke="black" points="34.99,-56.5 34.99,-75.5 113.99,-75.5 113.99,-56.5 34.99,-56.5"/>
<text text-anchor="middle" x="74.49" y="-63.5" font-family="Helvetica,sans-Serif" font-size="10.00">l4/sys/l4int.h</text>
</a>
</g>
</g>
<!-- Node3&#45;&gt;Node4 -->
<g id="edge3" class="edge">
<title>Node3&#45;&gt;Node4</title>
<path fill="none" stroke="midnightblue" d="M148.1,-172.25C100.88,-165.98 28.98,-153.19 12.49,-132 -2.42,-112.86 23.69,-92.98 46.46,-80.32"/>
<polygon fill="midnightblue" stroke="midnightblue" points="48.36,-83.28 55.57,-75.53 45.09,-77.09 48.36,-83.28"/>
</g>
<!-- Node5 -->
<g id="node5" class="node">
<title>Node5</title>
<g id="a_node5"><a xlink:href="compiler_8h.html" target="_top" xlink:title="L4 compiler related defines.">
<polygon fill="white" stroke="black" points="213.99,-56.5 213.99,-75.5 312.99,-75.5 312.99,-56.5 213.99,-56.5"/>
<text text-anchor="middle" x="263.49" y="-63.5" font-family="Helvetica,sans-Serif" font-size="10.00">l4/sys/compiler.h</text>
</a>
</g>
</g>
<!-- Node3&#45;&gt;Node5 -->
<g id="edge4" class="edge">
<title>Node3&#45;&gt;Node5</title>
<path fill="none" stroke="midnightblue" d="M204.62,-168.34C216.6,-160.31 233.39,-147.32 243.49,-132 252.72,-117.98 257.87,-99.48 260.62,-85.81"/>
<polygon fill="midnightblue" stroke="midnightblue" points="264.12,-86.11 262.4,-75.66 257.22,-84.9 264.12,-86.11"/>
</g>
<!-- Node6 -->
<g id="node6" class="node">
<title>Node6</title>
<g id="a_node6"><a xlink:href="l4_2sys_2consts_8h.html" target="_top" xlink:title="Common constants.">
<polygon fill="white" stroke="black" points="145.99,-112.5 145.99,-131.5 234.99,-131.5 234.99,-112.5 145.99,-112.5"/>
<text text-anchor="middle" x="190.49" y="-119.5" font-family="Helvetica,sans-Serif" font-size="10.00">l4/sys/consts.h</text>
</a>
</g>
</g>
<!-- Node3&#45;&gt;Node6 -->
<g id="edge6" class="edge">
<title>Node3&#45;&gt;Node6</title>
<path fill="none" stroke="midnightblue" d="M190.49,-168.08C190.49,-161.01 190.49,-150.86 190.49,-141.99"/>
<polygon fill="midnightblue" stroke="midnightblue" points="193.99,-141.75 190.49,-131.75 186.99,-141.75 193.99,-141.75"/>
</g>
<!-- Node7 -->
<g id="node7" class="node">
<title>Node7</title>
<g id="a_node7"><a xlink:href="____l4__fpage_8h_source.html" target="_top" xlink:title=" ">
<polygon fill="white" stroke="black" points="291.49,-112.5 291.49,-131.5 401.49,-131.5 401.49,-112.5 291.49,-112.5"/>
<text text-anchor="middle" x="346.49" y="-119.5" font-family="Helvetica,sans-Serif" font-size="10.00">l4/sys/__l4_fpage.h</text>
</a>
</g>
</g>
<!-- Node3&#45;&gt;Node7 -->
<g id="edge9" class="edge">
<title>Node3&#45;&gt;Node7</title>
<path fill="none" stroke="midnightblue" d="M215.2,-168.44C241.33,-159.4 282.75,-145.06 312.06,-134.92"/>
<polygon fill="midnightblue" stroke="midnightblue" points="313.58,-138.1 321.88,-131.52 311.29,-131.48 313.58,-138.1"/>
</g>
<!-- Node8 -->
<g id="node8" class="node">
<title>Node8</title>
<g id="a_node8"><a xlink:href="____timeout_8h_source.html" target="_top" xlink:title=" ">
<polygon fill="white" stroke="black" points="21.49,-112.5 21.49,-131.5 127.49,-131.5 127.49,-112.5 21.49,-112.5"/>
<text text-anchor="middle" x="74.49" y="-119.5" font-family="Helvetica,sans-Serif" font-size="10.00">l4/sys/__timeout.h</text>
</a>
</g>
</g>
<!-- Node3&#45;&gt;Node8 -->
<g id="edge11" class="edge">
<title>Node3&#45;&gt;Node8</title>
<path fill="none" stroke="midnightblue" d="M172.11,-168.44C153.27,-159.68 123.75,-145.94 102.11,-135.86"/>
<polygon fill="midnightblue" stroke="midnightblue" points="103.32,-132.56 92.78,-131.52 100.37,-138.91 103.32,-132.56"/>
</g>
<!-- Node5&#45;&gt;Node2 -->
<g id="edge5" class="edge">
<title>Node5&#45;&gt;Node2</title>
<path fill="none" stroke="midnightblue" d="M239.08,-56.44C213.29,-47.4 172.41,-33.06 143.47,-22.92"/>
<polygon fill="midnightblue" stroke="midnightblue" points="144.37,-19.52 133.77,-19.52 142.05,-26.13 144.37,-19.52"/>
</g>
<!-- Node6&#45;&gt;Node4 -->
<g id="edge8" class="edge">
<title>Node6&#45;&gt;Node4</title>
<path fill="none" stroke="midnightblue" d="M172.11,-112.44C153.27,-103.68 123.75,-89.94 102.11,-79.86"/>
<polygon fill="midnightblue" stroke="midnightblue" points="103.32,-76.56 92.78,-75.52 100.37,-82.91 103.32,-76.56"/>
</g>
<!-- Node6&#45;&gt;Node5 -->
<g id="edge7" class="edge">
<title>Node6&#45;&gt;Node5</title>
<path fill="none" stroke="midnightblue" d="M202.21,-112.32C213.32,-104.11 230.23,-91.6 243.47,-81.81"/>
<polygon fill="midnightblue" stroke="midnightblue" points="245.59,-84.59 251.54,-75.83 241.42,-78.97 245.59,-84.59"/>
</g>
<!-- Node7&#45;&gt;Node5 -->
<g id="edge10" class="edge">
<title>Node7&#45;&gt;Node5</title>
<path fill="none" stroke="midnightblue" d="M333.15,-112.32C320.32,-103.98 300.7,-91.21 285.55,-81.35"/>
<polygon fill="midnightblue" stroke="midnightblue" points="287.08,-78.17 276.79,-75.65 283.26,-84.04 287.08,-78.17"/>
</g>
<!-- Node8&#45;&gt;Node4 -->
<g id="edge12" class="edge">
<title>Node8&#45;&gt;Node4</title>
<path fill="none" stroke="midnightblue" d="M74.49,-112.08C74.49,-105.01 74.49,-94.86 74.49,-85.99"/>
<polygon fill="midnightblue" stroke="midnightblue" points="77.99,-85.75 74.49,-75.75 70.99,-85.75 77.99,-85.75"/>
</g>
<!-- Node9&#45;&gt;Node5 -->
<g id="edge14" class="edge">
<title>Node9&#45;&gt;Node5</title>
<path fill="none" stroke="midnightblue" d="M424.22,-112.44C391.53,-103.2 339.3,-88.44 303.3,-78.26"/>
<polygon fill="midnightblue" stroke="midnightblue" points="304.18,-74.87 293.61,-75.52 302.28,-81.61 304.18,-74.87"/>
</g>
</g>
</svg>
