<?xml version="1.0" encoding="UTF-8" standalone="no"?>
<!DOCTYPE svg PUBLIC "-//W3C//DTD SVG 1.1//EN"
 "http://www.w3.org/Graphics/SVG/1.1/DTD/svg11.dtd">
<!-- Generated by graphviz version 2.43.0 (0)
 -->
<!-- Title: l4/sys/cxx/smart_capability_1x Pages: 1 -->
<svg width="704pt" height="218pt"
 viewBox="0.00 0.00 703.50 218.00" xmlns="http://www.w3.org/2000/svg" xmlns:xlink="http://www.w3.org/1999/xlink">
<g id="graph0" class="graph" transform="scale(1 1) rotate(0) translate(4 214)">
<title>l4/sys/cxx/smart_capability_1x</title>
<polygon fill="white" stroke="transparent" points="-4,4 -4,-214 699.5,-214 699.5,4 -4,4"/>
<!-- Node1 -->
<g id="node1" class="node">
<title>Node1</title>
<g id="a_node1"><a xlink:title=" ">
<polygon fill="#bfbfbf" stroke="black" points="147.5,-190.5 147.5,-209.5 314.5,-209.5 314.5,-190.5 147.5,-190.5"/>
<text text-anchor="middle" x="231" y="-197.5" font-family="Helvetica,sans-Serif" font-size="10.00">l4/sys/cxx/smart_capability_1x</text>
</a>
</g>
</g>
<!-- Node2 -->
<g id="node2" class="node">
<title>Node2</title>
<g id="a_node2"><a xlink:href="shared__cap.html" target="_top" xlink:title="Shared_cap / Shared_del_cap.">
<polygon fill="white" stroke="black" points="3.5,-134.5 3.5,-153.5 100.5,-153.5 100.5,-134.5 3.5,-134.5"/>
<text text-anchor="middle" x="52" y="-141.5" font-family="Helvetica,sans-Serif" font-size="10.00">l4/re/shared_cap</text>
</a>
</g>
</g>
<!-- Node1&#45;&gt;Node2 -->
<g id="edge1" class="edge">
<title>Node1&#45;&gt;Node2</title>
<path fill="none" stroke="midnightblue" d="M192.67,-187.44C158.92,-177.26 110.55,-162.66 80.23,-153.52"/>
<polygon fill="midnightblue" stroke="midnightblue" points="192.05,-190.91 202.64,-190.44 194.07,-184.2 192.05,-190.91"/>
</g>
<!-- Node4 -->
<g id="node4" class="node">
<title>Node4</title>
<g id="a_node4"><a xlink:href="unique__cap.html" target="_top" xlink:title="Unique_cap / Unique_del_cap.">
<polygon fill="white" stroke="black" points="120.5,-134.5 120.5,-153.5 217.5,-153.5 217.5,-134.5 120.5,-134.5"/>
<text text-anchor="middle" x="169" y="-141.5" font-family="Helvetica,sans-Serif" font-size="10.00">l4/re/unique_cap</text>
</a>
</g>
</g>
<!-- Node1&#45;&gt;Node4 -->
<g id="edge3" class="edge">
<title>Node1&#45;&gt;Node4</title>
<path fill="none" stroke="midnightblue" d="M213.25,-183.54C202.19,-173.91 188.37,-161.87 179.14,-153.83"/>
<polygon fill="midnightblue" stroke="midnightblue" points="211.2,-186.4 221.04,-190.32 215.8,-181.12 211.2,-186.4"/>
</g>
<!-- Node7 -->
<g id="node7" class="node">
<title>Node7</title>
<g id="a_node7"><a xlink:href="util_2shared__cap.html" target="_top" xlink:title="Shared_cap / Shared_del_cap.">
<polygon fill="white" stroke="black" points="236,-134.5 236,-153.5 352,-153.5 352,-134.5 236,-134.5"/>
<text text-anchor="middle" x="294" y="-141.5" font-family="Helvetica,sans-Serif" font-size="10.00">l4/re/util/shared_cap</text>
</a>
</g>
</g>
<!-- Node1&#45;&gt;Node7 -->
<g id="edge8" class="edge">
<title>Node1&#45;&gt;Node7</title>
<path fill="none" stroke="midnightblue" d="M249.04,-183.54C260.27,-173.91 274.32,-161.87 283.69,-153.83"/>
<polygon fill="midnightblue" stroke="midnightblue" points="246.44,-181.16 241.12,-190.32 250.99,-186.47 246.44,-181.16"/>
</g>
<!-- Node10 -->
<g id="node10" class="node">
<title>Node10</title>
<g id="a_node10"><a xlink:href="util_2unique__cap.html" target="_top" xlink:title="Unique_cap / Unique_del_cap.">
<polygon fill="white" stroke="black" points="370,-134.5 370,-153.5 486,-153.5 486,-134.5 370,-134.5"/>
<text text-anchor="middle" x="428" y="-141.5" font-family="Helvetica,sans-Serif" font-size="10.00">l4/re/util/unique_cap</text>
</a>
</g>
</g>
<!-- Node1&#45;&gt;Node10 -->
<g id="edge11" class="edge">
<title>Node1&#45;&gt;Node10</title>
<path fill="none" stroke="midnightblue" d="M272.23,-187.7C309.41,-177.51 363.27,-162.74 396.93,-153.52"/>
<polygon fill="midnightblue" stroke="midnightblue" points="270.93,-184.42 262.22,-190.44 272.78,-191.18 270.93,-184.42"/>
</g>
<!-- Node3 -->
<g id="node3" class="node">
<title>Node3</title>
<g id="a_node3"><a xlink:href="vfs__impl_8h_source.html" target="_top" xlink:title=" ">
<polygon fill="white" stroke="black" points="0,-0.5 0,-30.5 110,-30.5 110,-0.5 0,-0.5"/>
<text text-anchor="start" x="8" y="-18.5" font-family="Helvetica,sans-Serif" font-size="10.00">l4/l4re_vfs/impl/vfs</text>
<text text-anchor="middle" x="55" y="-7.5" font-family="Helvetica,sans-Serif" font-size="10.00">_impl.h</text>
</a>
</g>
</g>
<!-- Node2&#45;&gt;Node3 -->
<g id="edge2" class="edge">
<title>Node2&#45;&gt;Node3</title>
<path fill="none" stroke="midnightblue" d="M52.45,-124.11C53.05,-98.63 54.12,-53.81 54.66,-30.89"/>
<polygon fill="midnightblue" stroke="midnightblue" points="48.94,-124.22 52.21,-134.31 55.94,-124.39 48.94,-124.22"/>
</g>
<!-- Node5 -->
<g id="node5" class="node">
<title>Node5</title>
<g id="a_node5"><a xlink:href="ns__fs_8h_source.html" target="_top" xlink:title=" ">
<polygon fill="white" stroke="black" points="78,-73 78,-92 208,-92 208,-73 78,-73"/>
<text text-anchor="middle" x="143" y="-80" font-family="Helvetica,sans-Serif" font-size="10.00">l4/l4re_vfs/impl/ns_fs.h</text>
</a>
</g>
</g>
<!-- Node4&#45;&gt;Node5 -->
<g id="edge4" class="edge">
<title>Node4&#45;&gt;Node5</title>
<path fill="none" stroke="midnightblue" d="M161.13,-125C156.35,-114.05 150.46,-100.57 146.72,-92.01"/>
<polygon fill="midnightblue" stroke="midnightblue" points="158.06,-126.71 165.27,-134.48 164.48,-123.91 158.06,-126.71"/>
</g>
<!-- Node6 -->
<g id="node6" class="node">
<title>Node6</title>
<g id="a_node6"><a xlink:href="ns__fs__impl_8h_source.html" target="_top" xlink:title=" ">
<polygon fill="white" stroke="black" points="136.5,-0.5 136.5,-30.5 243.5,-30.5 243.5,-0.5 136.5,-0.5"/>
<text text-anchor="start" x="144.5" y="-18.5" font-family="Helvetica,sans-Serif" font-size="10.00">l4/l4re_vfs/impl/ns</text>
<text text-anchor="middle" x="190" y="-7.5" font-family="Helvetica,sans-Serif" font-size="10.00">_fs_impl.h</text>
</a>
</g>
</g>
<!-- Node4&#45;&gt;Node6 -->
<g id="edge7" class="edge">
<title>Node4&#45;&gt;Node6</title>
<path fill="none" stroke="midnightblue" d="M191.64,-128.26C201.38,-120.54 211.73,-110.16 217,-98 226.95,-75.02 212.22,-47.1 200.91,-30.62"/>
<polygon fill="midnightblue" stroke="midnightblue" points="189.36,-125.59 183.37,-134.33 193.5,-131.23 189.36,-125.59"/>
</g>
<!-- Node5&#45;&gt;Node3 -->
<g id="edge6" class="edge">
<title>Node5&#45;&gt;Node3</title>
<path fill="none" stroke="midnightblue" d="M122.75,-66.54C108.11,-55.73 88.44,-41.2 74.07,-30.59"/>
<polygon fill="midnightblue" stroke="midnightblue" points="121.01,-69.61 131.13,-72.73 125.17,-63.98 121.01,-69.61"/>
</g>
<!-- Node5&#45;&gt;Node6 -->
<g id="edge5" class="edge">
<title>Node5&#45;&gt;Node6</title>
<path fill="none" stroke="midnightblue" d="M155.4,-64.35C163.01,-53.82 172.64,-40.5 179.81,-30.59"/>
<polygon fill="midnightblue" stroke="midnightblue" points="152.36,-62.58 149.34,-72.73 158.03,-66.68 152.36,-62.58"/>
</g>
<!-- Node8 -->
<g id="node8" class="node">
<title>Node8</title>
<g id="a_node8"><a xlink:href="server_2l4virtio_source.html" target="_top" xlink:title=" ">
<polygon fill="white" stroke="black" points="264.5,-67.5 264.5,-97.5 361.5,-97.5 361.5,-67.5 264.5,-67.5"/>
<text text-anchor="start" x="272.5" y="-85.5" font-family="Helvetica,sans-Serif" font-size="10.00">l4/l4virtio/server</text>
<text text-anchor="middle" x="313" y="-74.5" font-family="Helvetica,sans-Serif" font-size="10.00">/l4virtio</text>
</a>
</g>
</g>
<!-- Node7&#45;&gt;Node8 -->
<g id="edge9" class="edge">
<title>Node7&#45;&gt;Node8</title>
<path fill="none" stroke="midnightblue" d="M299.81,-124.82C302.61,-116.04 305.92,-105.68 308.52,-97.52"/>
<polygon fill="midnightblue" stroke="midnightblue" points="296.43,-123.88 296.72,-134.48 303.1,-126.01 296.43,-123.88"/>
</g>
<!-- Node9 -->
<g id="node9" class="node">
<title>Node9</title>
<g id="a_node9"><a xlink:href="server_2virtio-block_source.html" target="_top" xlink:title=" ">
<polygon fill="white" stroke="black" points="265.5,-0.5 265.5,-30.5 362.5,-30.5 362.5,-0.5 265.5,-0.5"/>
<text text-anchor="start" x="273.5" y="-18.5" font-family="Helvetica,sans-Serif" font-size="10.00">l4/l4virtio/server</text>
<text text-anchor="middle" x="314" y="-7.5" font-family="Helvetica,sans-Serif" font-size="10.00">/virtio&#45;block</text>
</a>
</g>
</g>
<!-- Node8&#45;&gt;Node9 -->
<g id="edge10" class="edge">
<title>Node8&#45;&gt;Node9</title>
<path fill="none" stroke="midnightblue" d="M313.38,-57.11C313.51,-48.15 313.66,-38.32 313.78,-30.58"/>
<polygon fill="midnightblue" stroke="midnightblue" points="309.87,-57.34 313.22,-67.4 316.87,-57.45 309.87,-57.34"/>
</g>
<!-- Node10&#45;&gt;Node8 -->
<g id="edge13" class="edge">
<title>Node10&#45;&gt;Node8</title>
<path fill="none" stroke="midnightblue" d="M402.5,-129.81C383.99,-120.23 358.98,-107.29 340.1,-97.52"/>
<polygon fill="midnightblue" stroke="midnightblue" points="401.03,-132.99 411.52,-134.48 404.25,-126.77 401.03,-132.99"/>
</g>
<!-- Node10&#45;&gt;Node9 -->
<g id="edge14" class="edge">
<title>Node10&#45;&gt;Node9</title>
<path fill="none" stroke="midnightblue" d="M416.28,-125.83C405.13,-109.94 387.49,-85.98 370,-67 357.94,-53.91 342.89,-40.47 331.43,-30.75"/>
<polygon fill="midnightblue" stroke="midnightblue" points="413.48,-127.93 422.05,-134.15 419.23,-123.94 413.48,-127.93"/>
</g>
<!-- Node11 -->
<g id="node11" class="node">
<title>Node11</title>
<g id="a_node11"><a xlink:href="client_2virtio-block_source.html" target="_top" xlink:title=" ">
<polygon fill="white" stroke="black" points="481.5,-0.5 481.5,-30.5 574.5,-30.5 574.5,-0.5 481.5,-0.5"/>
<text text-anchor="start" x="489.5" y="-18.5" font-family="Helvetica,sans-Serif" font-size="10.00">l4/l4virtio/client</text>
<text text-anchor="middle" x="528" y="-7.5" font-family="Helvetica,sans-Serif" font-size="10.00">/virtio&#45;block</text>
</a>
</g>
</g>
<!-- Node10&#45;&gt;Node11 -->
<g id="edge12" class="edge">
<title>Node10&#45;&gt;Node11</title>
<path fill="none" stroke="midnightblue" d="M428.81,-124.08C430.37,-107.61 434.78,-83.8 447,-67 458.7,-50.92 477.23,-38.82 493.62,-30.5"/>
<polygon fill="midnightblue" stroke="midnightblue" points="425.32,-123.92 428.12,-134.14 432.3,-124.4 425.32,-123.92"/>
</g>
<!-- Node12 -->
<g id="node12" class="node">
<title>Node12</title>
<g id="a_node12"><a xlink:href="util_2event.html" target="_top" xlink:title=" ">
<polygon fill="white" stroke="black" points="456,-73 456,-92 544,-92 544,-73 456,-73"/>
<text text-anchor="middle" x="500" y="-80" font-family="Helvetica,sans-Serif" font-size="10.00">l4/re/util/event</text>
</a>
</g>
</g>
<!-- Node10&#45;&gt;Node12 -->
<g id="edge15" class="edge">
<title>Node10&#45;&gt;Node12</title>
<path fill="none" stroke="midnightblue" d="M446.18,-127.97C459.96,-116.59 478.38,-101.37 489.7,-92.01"/>
<polygon fill="midnightblue" stroke="midnightblue" points="443.79,-125.41 438.32,-134.48 448.25,-130.8 443.79,-125.41"/>
</g>
<!-- Node13 -->
<g id="node13" class="node">
<title>Node13</title>
<g id="a_node13"><a xlink:href="object__registry_source.html" target="_top" xlink:title=" ">
<polygon fill="white" stroke="black" points="562.5,-73 562.5,-92 695.5,-92 695.5,-73 562.5,-73"/>
<text text-anchor="middle" x="629" y="-80" font-family="Helvetica,sans-Serif" font-size="10.00">l4/re/util/object_registry</text>
</a>
</g>
</g>
<!-- Node10&#45;&gt;Node13 -->
<g id="edge16" class="edge">
<title>Node10&#45;&gt;Node13</title>
<path fill="none" stroke="midnightblue" d="M466.75,-131.53C505.82,-119.96 565.2,-102.38 600.26,-92.01"/>
<polygon fill="midnightblue" stroke="midnightblue" points="465.39,-128.28 456.8,-134.48 467.38,-134.99 465.39,-128.28"/>
</g>
<!-- Node13&#45;&gt;Node11 -->
<g id="edge17" class="edge">
<title>Node13&#45;&gt;Node11</title>
<path fill="none" stroke="midnightblue" d="M606.71,-67.15C589.8,-56.27 566.7,-41.4 549.89,-30.59"/>
<polygon fill="midnightblue" stroke="midnightblue" points="605.08,-70.27 615.38,-72.73 608.86,-64.38 605.08,-70.27"/>
</g>
</g>
</svg>
