<?xml version="1.0" encoding="UTF-8" standalone="no"?>
<!DOCTYPE svg PUBLIC "-//W3C//DTD SVG 1.1//EN"
 "http://www.w3.org/Graphics/SVG/1.1/DTD/svg11.dtd">
<!-- Generated by graphviz version 2.43.0 (0)
 -->
<!-- Title: l4/sys/smart_capability Pages: 1 -->
<svg width="1503pt" height="341pt"
 viewBox="0.00 0.00 1502.50 341.00" xmlns="http://www.w3.org/2000/svg" xmlns:xlink="http://www.w3.org/1999/xlink">
<g id="graph0" class="graph" transform="scale(1 1) rotate(0) translate(4 337)">
<title>l4/sys/smart_capability</title>
<polygon fill="white" stroke="transparent" points="-4,4 -4,-337 1498.5,-337 1498.5,4 -4,4"/>
<!-- Node1 -->
<g id="node1" class="node">
<title>Node1</title>
<g id="a_node1"><a xlink:title="L4::Capability class.">
<polygon fill="#bfbfbf" stroke="black" points="784.5,-313.5 784.5,-332.5 914.5,-332.5 914.5,-313.5 784.5,-313.5"/>
<text text-anchor="middle" x="849.5" y="-320.5" font-family="Helvetica,sans-Serif" font-size="10.00">l4/sys/smart_capability</text>
</a>
</g>
</g>
<!-- Node2 -->
<g id="node2" class="node">
<title>Node2</title>
<g id="a_node2"><a xlink:href="cap__alloc.html" target="_top" xlink:title="Abstract capability&#45;allocator interface.">
<polygon fill="white" stroke="black" points="687,-257.5 687,-276.5 774,-276.5 774,-257.5 687,-257.5"/>
<text text-anchor="middle" x="730.5" y="-264.5" font-family="Helvetica,sans-Serif" font-size="10.00">l4/re/cap_alloc</text>
</a>
</g>
</g>
<!-- Node1&#45;&gt;Node2 -->
<g id="edge1" class="edge">
<title>Node1&#45;&gt;Node2</title>
<path fill="none" stroke="midnightblue" d="M821.36,-309.23C799.1,-299.13 768.64,-285.31 749.27,-276.52"/>
<polygon fill="midnightblue" stroke="midnightblue" points="820.09,-312.5 830.64,-313.44 822.98,-306.12 820.09,-312.5"/>
</g>
<!-- Node18 -->
<g id="node18" class="node">
<title>Node18</title>
<g id="a_node18"><a xlink:href="util_2cap__alloc.html" target="_top" xlink:title="Capability allocator.">
<polygon fill="white" stroke="black" points="953.5,-257.5 953.5,-276.5 1059.5,-276.5 1059.5,-257.5 953.5,-257.5"/>
<text text-anchor="middle" x="1006.5" y="-264.5" font-family="Helvetica,sans-Serif" font-size="10.00">l4/re/util/cap_alloc</text>
</a>
</g>
</g>
<!-- Node1&#45;&gt;Node18 -->
<g id="edge24" class="edge">
<title>Node1&#45;&gt;Node18</title>
<path fill="none" stroke="midnightblue" d="M883.89,-310.17C913.45,-300 955.37,-285.59 981.74,-276.52"/>
<polygon fill="midnightblue" stroke="midnightblue" points="882.7,-306.88 874.38,-313.44 884.97,-313.5 882.7,-306.88"/>
</g>
<!-- Node3 -->
<g id="node3" class="node">
<title>Node3</title>
<g id="a_node3"><a xlink:href="vfs_8h_source.html" target="_top" xlink:title=" ">
<polygon fill="white" stroke="black" points="393,-201.5 393,-220.5 488,-220.5 488,-201.5 393,-201.5"/>
<text text-anchor="middle" x="440.5" y="-208.5" font-family="Helvetica,sans-Serif" font-size="10.00">l4/l4re_vfs/vfs.h</text>
</a>
</g>
</g>
<!-- Node2&#45;&gt;Node3 -->
<g id="edge2" class="edge">
<title>Node2&#45;&gt;Node3</title>
<path fill="none" stroke="midnightblue" d="M676.92,-256.02C622.24,-245.84 538.27,-230.2 486.51,-220.57"/>
<polygon fill="midnightblue" stroke="midnightblue" points="676.3,-259.47 686.77,-257.86 677.58,-252.59 676.3,-259.47"/>
</g>
<!-- Node14 -->
<g id="node14" class="node">
<title>Node14</title>
<g id="a_node14"><a xlink:href="shared__cap.html" target="_top" xlink:title="Shared_cap / Shared_del_cap.">
<polygon fill="white" stroke="black" points="0,-73 0,-92 97,-92 97,-73 0,-73"/>
<text text-anchor="middle" x="48.5" y="-80" font-family="Helvetica,sans-Serif" font-size="10.00">l4/re/shared_cap</text>
</a>
</g>
</g>
<!-- Node2&#45;&gt;Node14 -->
<g id="edge16" class="edge">
<title>Node2&#45;&gt;Node14</title>
<path fill="none" stroke="midnightblue" d="M676.38,-266.95C568.99,-266.7 323.85,-255.33 144.5,-165 106.62,-145.92 71.02,-108.96 56,-92.17"/>
<polygon fill="midnightblue" stroke="midnightblue" points="676.64,-270.45 686.64,-266.94 676.64,-263.45 676.64,-270.45"/>
</g>
<!-- Node15 -->
<g id="node15" class="node">
<title>Node15</title>
<g id="a_node15"><a xlink:href="unique__cap.html" target="_top" xlink:title="Unique_cap / Unique_del_cap.">
<polygon fill="white" stroke="black" points="644,-140 644,-159 741,-159 741,-140 644,-140"/>
<text text-anchor="middle" x="692.5" y="-147" font-family="Helvetica,sans-Serif" font-size="10.00">l4/re/unique_cap</text>
</a>
</g>
</g>
<!-- Node2&#45;&gt;Node15 -->
<g id="edge18" class="edge">
<title>Node2&#45;&gt;Node15</title>
<path fill="none" stroke="midnightblue" d="M722.88,-248.18C719.5,-239.98 715.59,-230.07 712.5,-221 705.03,-199.08 698.07,-172.7 694.67,-159.27"/>
<polygon fill="midnightblue" stroke="midnightblue" points="719.68,-249.61 726.78,-257.47 726.13,-246.9 719.68,-249.61"/>
</g>
<!-- Node16 -->
<g id="node16" class="node">
<title>Node16</title>
<g id="a_node16"><a xlink:href="env__ns_source.html" target="_top" xlink:title=" ">
<polygon fill="white" stroke="black" points="721,-201.5 721,-220.5 816,-220.5 816,-201.5 721,-201.5"/>
<text text-anchor="middle" x="768.5" y="-208.5" font-family="Helvetica,sans-Serif" font-size="10.00">l4/re/util/env_ns</text>
</a>
</g>
</g>
<!-- Node2&#45;&gt;Node16 -->
<g id="edge21" class="edge">
<title>Node2&#45;&gt;Node16</title>
<path fill="none" stroke="midnightblue" d="M742.56,-248.86C749.14,-239.5 757.01,-228.33 762.34,-220.75"/>
<polygon fill="midnightblue" stroke="midnightblue" points="739.67,-246.89 736.77,-257.08 745.39,-250.92 739.67,-246.89"/>
</g>
<!-- Node17 -->
<g id="node17" class="node">
<title>Node17</title>
<g id="a_node17"><a xlink:href="util_2event.html" target="_top" xlink:title=" ">
<polygon fill="white" stroke="black" points="800.5,-140 800.5,-159 888.5,-159 888.5,-140 800.5,-140"/>
<text text-anchor="middle" x="844.5" y="-147" font-family="Helvetica,sans-Serif" font-size="10.00">l4/re/util/event</text>
</a>
</g>
</g>
<!-- Node2&#45;&gt;Node17 -->
<g id="edge23" class="edge">
<title>Node2&#45;&gt;Node17</title>
<path fill="none" stroke="midnightblue" d="M775.14,-253.92C793.09,-246.98 812.57,-236.48 825.5,-221 840.61,-202.9 843.8,-173.89 844.41,-159.37"/>
<polygon fill="midnightblue" stroke="midnightblue" points="773.61,-250.75 765.37,-257.42 775.96,-257.34 773.61,-250.75"/>
</g>
<!-- Node4 -->
<g id="node4" class="node">
<title>Node4</title>
<g id="a_node4"><a xlink:href="backend_source.html" target="_top" xlink:title=" ">
<polygon fill="white" stroke="black" points="385,-140 385,-159 496,-159 496,-140 385,-140"/>
<text text-anchor="middle" x="440.5" y="-147" font-family="Helvetica,sans-Serif" font-size="10.00">l4/l4re_vfs/backend</text>
</a>
</g>
</g>
<!-- Node3&#45;&gt;Node4 -->
<g id="edge3" class="edge">
<title>Node3&#45;&gt;Node4</title>
<path fill="none" stroke="midnightblue" d="M440.5,-191.32C440.5,-180.5 440.5,-167.4 440.5,-159.01"/>
<polygon fill="midnightblue" stroke="midnightblue" points="437,-191.48 440.5,-201.48 444,-191.48 437,-191.48"/>
</g>
<!-- Node12 -->
<g id="node12" class="node">
<title>Node12</title>
<g id="a_node12"><a xlink:href="fd__store_8h_source.html" target="_top" xlink:title=" ">
<polygon fill="white" stroke="black" points="154,-134.5 154,-164.5 259,-164.5 259,-134.5 154,-134.5"/>
<text text-anchor="start" x="162" y="-152.5" font-family="Helvetica,sans-Serif" font-size="10.00">l4/l4re_vfs/impl/fd</text>
<text text-anchor="middle" x="206.5" y="-141.5" font-family="Helvetica,sans-Serif" font-size="10.00">_store.h</text>
</a>
</g>
</g>
<!-- Node3&#45;&gt;Node12 -->
<g id="edge13" class="edge">
<title>Node3&#45;&gt;Node12</title>
<path fill="none" stroke="midnightblue" d="M397,-198.94C358.09,-189.05 300.95,-174.52 259.41,-163.95"/>
<polygon fill="midnightblue" stroke="midnightblue" points="396.42,-202.4 406.97,-201.48 398.14,-195.62 396.42,-202.4"/>
</g>
<!-- Node5 -->
<g id="node5" class="node">
<title>Node5</title>
<g id="a_node5"><a xlink:href="ns__fs_8h_source.html" target="_top" xlink:title=" ">
<polygon fill="white" stroke="black" points="576.5,-73 576.5,-92 706.5,-92 706.5,-73 576.5,-73"/>
<text text-anchor="middle" x="641.5" y="-80" font-family="Helvetica,sans-Serif" font-size="10.00">l4/l4re_vfs/impl/ns_fs.h</text>
</a>
</g>
</g>
<!-- Node4&#45;&gt;Node5 -->
<g id="edge4" class="edge">
<title>Node4&#45;&gt;Node5</title>
<path fill="none" stroke="midnightblue" d="M476.79,-136.77C516.61,-123.89 579.59,-103.52 615.02,-92.06"/>
<polygon fill="midnightblue" stroke="midnightblue" points="475.63,-133.46 467.19,-139.87 477.78,-140.12 475.63,-133.46"/>
</g>
<!-- Node7 -->
<g id="node7" class="node">
<title>Node7</title>
<g id="a_node7"><a xlink:href="vfs__impl_8h_source.html" target="_top" xlink:title=" ">
<polygon fill="white" stroke="black" points="187.5,-0.5 187.5,-30.5 297.5,-30.5 297.5,-0.5 187.5,-0.5"/>
<text text-anchor="start" x="195.5" y="-18.5" font-family="Helvetica,sans-Serif" font-size="10.00">l4/l4re_vfs/impl/vfs</text>
<text text-anchor="middle" x="242.5" y="-7.5" font-family="Helvetica,sans-Serif" font-size="10.00">_impl.h</text>
</a>
</g>
</g>
<!-- Node4&#45;&gt;Node7 -->
<g id="edge12" class="edge">
<title>Node4&#45;&gt;Node7</title>
<path fill="none" stroke="midnightblue" d="M392.96,-137.16C366.13,-129.19 332.98,-116.59 307.5,-98 282.06,-79.44 261.17,-48.46 250.4,-30.52"/>
<polygon fill="midnightblue" stroke="midnightblue" points="392.33,-140.62 402.9,-140 394.24,-133.89 392.33,-140.62"/>
</g>
<!-- Node8 -->
<g id="node8" class="node">
<title>Node8</title>
<g id="a_node8"><a xlink:href="ro__file_8h_source.html" target="_top" xlink:title=" ">
<polygon fill="white" stroke="black" points="453,-67.5 453,-97.5 558,-97.5 558,-67.5 453,-67.5"/>
<text text-anchor="start" x="461" y="-85.5" font-family="Helvetica,sans-Serif" font-size="10.00">l4/l4re_vfs/impl/ro</text>
<text text-anchor="middle" x="505.5" y="-74.5" font-family="Helvetica,sans-Serif" font-size="10.00">_file.h</text>
</a>
</g>
</g>
<!-- Node4&#45;&gt;Node8 -->
<g id="edge7" class="edge">
<title>Node4&#45;&gt;Node8</title>
<path fill="none" stroke="midnightblue" d="M456.38,-132.62C467.09,-121.91 481.1,-107.9 491.41,-97.59"/>
<polygon fill="midnightblue" stroke="midnightblue" points="453.86,-130.19 449.27,-139.73 458.81,-135.14 453.86,-130.19"/>
</g>
<!-- Node10 -->
<g id="node10" class="node">
<title>Node10</title>
<g id="a_node10"><a xlink:href="vcon__stream_8h_source.html" target="_top" xlink:title=" ">
<polygon fill="white" stroke="black" points="316,-67.5 316,-97.5 435,-97.5 435,-67.5 316,-67.5"/>
<text text-anchor="start" x="324" y="-85.5" font-family="Helvetica,sans-Serif" font-size="10.00">l4/l4re_vfs/impl/vcon</text>
<text text-anchor="middle" x="375.5" y="-74.5" font-family="Helvetica,sans-Serif" font-size="10.00">_stream.h</text>
</a>
</g>
</g>
<!-- Node4&#45;&gt;Node10 -->
<g id="edge9" class="edge">
<title>Node4&#45;&gt;Node10</title>
<path fill="none" stroke="midnightblue" d="M424.62,-132.62C413.91,-121.91 399.9,-107.9 389.59,-97.59"/>
<polygon fill="midnightblue" stroke="midnightblue" points="422.19,-135.14 431.73,-139.73 427.14,-130.19 422.19,-135.14"/>
</g>
<!-- Node6 -->
<g id="node6" class="node">
<title>Node6</title>
<g id="a_node6"><a xlink:href="ns__fs__impl_8h_source.html" target="_top" xlink:title=" ">
<polygon fill="white" stroke="black" points="681,-0.5 681,-30.5 788,-30.5 788,-0.5 681,-0.5"/>
<text text-anchor="start" x="689" y="-18.5" font-family="Helvetica,sans-Serif" font-size="10.00">l4/l4re_vfs/impl/ns</text>
<text text-anchor="middle" x="734.5" y="-7.5" font-family="Helvetica,sans-Serif" font-size="10.00">_fs_impl.h</text>
</a>
</g>
</g>
<!-- Node5&#45;&gt;Node6 -->
<g id="edge5" class="edge">
<title>Node5&#45;&gt;Node6</title>
<path fill="none" stroke="midnightblue" d="M662.46,-66.85C677.98,-56 699.01,-41.3 714.34,-30.59"/>
<polygon fill="midnightblue" stroke="midnightblue" points="660.23,-64.14 654.04,-72.73 664.24,-69.87 660.23,-64.14"/>
</g>
<!-- Node5&#45;&gt;Node7 -->
<g id="edge6" class="edge">
<title>Node5&#45;&gt;Node7</title>
<path fill="none" stroke="midnightblue" d="M590.22,-71.07C582.62,-69.63 574.86,-68.23 567.5,-67 452.44,-47.78 422.3,-51.72 307.5,-31 304.31,-30.43 301.05,-29.8 297.76,-29.15"/>
<polygon fill="midnightblue" stroke="midnightblue" points="589.61,-74.51 600.09,-72.96 590.93,-67.64 589.61,-74.51"/>
</g>
<!-- Node9 -->
<g id="node9" class="node">
<title>Node9</title>
<g id="a_node9"><a xlink:href="ro__file__impl_8h_source.html" target="_top" xlink:title=" ">
<polygon fill="white" stroke="black" points="453,-0.5 453,-30.5 558,-30.5 558,-0.5 453,-0.5"/>
<text text-anchor="start" x="461" y="-18.5" font-family="Helvetica,sans-Serif" font-size="10.00">l4/l4re_vfs/impl/ro</text>
<text text-anchor="middle" x="505.5" y="-7.5" font-family="Helvetica,sans-Serif" font-size="10.00">_file_impl.h</text>
</a>
</g>
</g>
<!-- Node8&#45;&gt;Node9 -->
<g id="edge8" class="edge">
<title>Node8&#45;&gt;Node9</title>
<path fill="none" stroke="midnightblue" d="M505.5,-57.11C505.5,-48.15 505.5,-38.32 505.5,-30.58"/>
<polygon fill="midnightblue" stroke="midnightblue" points="502,-57.4 505.5,-67.4 509,-57.4 502,-57.4"/>
</g>
<!-- Node10&#45;&gt;Node7 -->
<g id="edge11" class="edge">
<title>Node10&#45;&gt;Node7</title>
<path fill="none" stroke="midnightblue" d="M337.63,-62.99C316.55,-52.69 290.72,-40.07 271.3,-30.58"/>
<polygon fill="midnightblue" stroke="midnightblue" points="336.12,-66.15 346.64,-67.4 339.19,-59.86 336.12,-66.15"/>
</g>
<!-- Node11 -->
<g id="node11" class="node">
<title>Node11</title>
<g id="a_node11"><a xlink:href="vcon__stream__impl_8h_source.html" target="_top" xlink:title=" ">
<polygon fill="white" stroke="black" points="316,-0.5 316,-30.5 435,-30.5 435,-0.5 316,-0.5"/>
<text text-anchor="start" x="324" y="-18.5" font-family="Helvetica,sans-Serif" font-size="10.00">l4/l4re_vfs/impl/vcon</text>
<text text-anchor="middle" x="375.5" y="-7.5" font-family="Helvetica,sans-Serif" font-size="10.00">_stream_impl.h</text>
</a>
</g>
</g>
<!-- Node10&#45;&gt;Node11 -->
<g id="edge10" class="edge">
<title>Node10&#45;&gt;Node11</title>
<path fill="none" stroke="midnightblue" d="M375.5,-57.11C375.5,-48.15 375.5,-38.32 375.5,-30.58"/>
<polygon fill="midnightblue" stroke="midnightblue" points="372,-57.4 375.5,-67.4 379,-57.4 372,-57.4"/>
</g>
<!-- Node12&#45;&gt;Node7 -->
<g id="edge15" class="edge">
<title>Node12&#45;&gt;Node7</title>
<path fill="none" stroke="midnightblue" d="M171.42,-128.54C160.76,-120.54 150.33,-110.27 144.5,-98 138.59,-85.56 137.33,-78.76 144.5,-67 154.96,-49.84 173.33,-38.26 191.35,-30.57"/>
<polygon fill="midnightblue" stroke="midnightblue" points="169.73,-131.63 179.94,-134.47 173.73,-125.88 169.73,-131.63"/>
</g>
<!-- Node13 -->
<g id="node13" class="node">
<title>Node13</title>
<g id="a_node13"><a xlink:href="fd__store__impl_8h_source.html" target="_top" xlink:title=" ">
<polygon fill="white" stroke="black" points="154,-67.5 154,-97.5 259,-97.5 259,-67.5 154,-67.5"/>
<text text-anchor="start" x="162" y="-85.5" font-family="Helvetica,sans-Serif" font-size="10.00">l4/l4re_vfs/impl/fd</text>
<text text-anchor="middle" x="206.5" y="-74.5" font-family="Helvetica,sans-Serif" font-size="10.00">_store_impl.h</text>
</a>
</g>
</g>
<!-- Node12&#45;&gt;Node13 -->
<g id="edge14" class="edge">
<title>Node12&#45;&gt;Node13</title>
<path fill="none" stroke="midnightblue" d="M206.5,-124.11C206.5,-115.15 206.5,-105.32 206.5,-97.58"/>
<polygon fill="midnightblue" stroke="midnightblue" points="203,-124.4 206.5,-134.4 210,-124.4 203,-124.4"/>
</g>
<!-- Node14&#45;&gt;Node7 -->
<g id="edge17" class="edge">
<title>Node14&#45;&gt;Node7</title>
<path fill="none" stroke="midnightblue" d="M83.92,-69.63C116.81,-58.61 165.82,-42.19 200.63,-30.53"/>
<polygon fill="midnightblue" stroke="midnightblue" points="82.63,-66.37 74.26,-72.87 84.86,-73.01 82.63,-66.37"/>
</g>
<!-- Node15&#45;&gt;Node5 -->
<g id="edge19" class="edge">
<title>Node15&#45;&gt;Node5</title>
<path fill="none" stroke="midnightblue" d="M679.37,-131.77C669.43,-119.1 656.17,-102.2 648.27,-92.13"/>
<polygon fill="midnightblue" stroke="midnightblue" points="676.7,-134.03 685.62,-139.73 682.2,-129.71 676.7,-134.03"/>
</g>
<!-- Node15&#45;&gt;Node6 -->
<g id="edge20" class="edge">
<title>Node15&#45;&gt;Node6</title>
<path fill="none" stroke="midnightblue" d="M701.7,-130.6C706.32,-121.1 711.71,-109.12 715.5,-98 723.37,-74.89 729.09,-47.02 732.1,-30.58"/>
<polygon fill="midnightblue" stroke="midnightblue" points="698.46,-129.27 697.12,-139.78 704.72,-132.4 698.46,-129.27"/>
</g>
<!-- Node16&#45;&gt;Node6 -->
<g id="edge22" class="edge">
<title>Node16&#45;&gt;Node6</title>
<path fill="none" stroke="midnightblue" d="M765.18,-191.11C758.38,-152.41 743,-64.89 736.98,-30.63"/>
<polygon fill="midnightblue" stroke="midnightblue" points="761.82,-192.19 767,-201.44 768.71,-190.98 761.82,-192.19"/>
</g>
<!-- Node18&#45;&gt;Node16 -->
<g id="edge28" class="edge">
<title>Node18&#45;&gt;Node16</title>
<path fill="none" stroke="midnightblue" d="M958.98,-255.22C914,-245.01 847.4,-229.9 806.04,-220.52"/>
<polygon fill="midnightblue" stroke="midnightblue" points="958.26,-258.64 968.79,-257.44 959.81,-251.82 958.26,-258.64"/>
</g>
<!-- Node18&#45;&gt;Node17 -->
<g id="edge29" class="edge">
<title>Node18&#45;&gt;Node17</title>
<path fill="none" stroke="midnightblue" d="M981.78,-252.34C966.89,-243.82 947.73,-232.36 931.5,-221 902.2,-200.49 870.07,-173.04 854.32,-159.23"/>
<polygon fill="midnightblue" stroke="midnightblue" points="980.45,-255.61 990.88,-257.48 983.89,-249.51 980.45,-255.61"/>
</g>
<!-- Node19 -->
<g id="node19" class="node">
<title>Node19</title>
<g id="a_node19"><a xlink:href="server_2l4virtio_source.html" target="_top" xlink:title=" ">
<polygon fill="white" stroke="black" points="1135,-134.5 1135,-164.5 1232,-164.5 1232,-134.5 1135,-134.5"/>
<text text-anchor="start" x="1143" y="-152.5" font-family="Helvetica,sans-Serif" font-size="10.00">l4/l4virtio/server</text>
<text text-anchor="middle" x="1183.5" y="-141.5" font-family="Helvetica,sans-Serif" font-size="10.00">/l4virtio</text>
</a>
</g>
</g>
<!-- Node18&#45;&gt;Node19 -->
<g id="edge25" class="edge">
<title>Node18&#45;&gt;Node19</title>
<path fill="none" stroke="midnightblue" d="M1028.57,-251.6C1062.76,-229.29 1128.12,-186.64 1161.98,-164.55"/>
<polygon fill="midnightblue" stroke="midnightblue" points="1026.27,-248.92 1019.8,-257.32 1030.09,-254.78 1026.27,-248.92"/>
</g>
<!-- Node21 -->
<g id="node21" class="node">
<title>Node21</title>
<g id="a_node21"><a xlink:href="br__manager_source.html" target="_top" xlink:title=" ">
<polygon fill="white" stroke="black" points="1121,-201.5 1121,-220.5 1240,-220.5 1240,-201.5 1121,-201.5"/>
<text text-anchor="middle" x="1180.5" y="-208.5" font-family="Helvetica,sans-Serif" font-size="10.00">l4/re/util/br_manager</text>
</a>
</g>
</g>
<!-- Node18&#45;&gt;Node21 -->
<g id="edge27" class="edge">
<title>Node18&#45;&gt;Node21</title>
<path fill="none" stroke="midnightblue" d="M1043.76,-254.44C1076.57,-244.26 1123.58,-229.66 1153.06,-220.52"/>
<polygon fill="midnightblue" stroke="midnightblue" points="1042.58,-251.14 1034.07,-257.44 1044.66,-257.82 1042.58,-251.14"/>
</g>
<!-- Node22 -->
<g id="node22" class="node">
<title>Node22</title>
<g id="a_node22"><a xlink:href="icu__svr_source.html" target="_top" xlink:title=" ">
<polygon fill="white" stroke="black" points="1393,-201.5 1393,-220.5 1488,-220.5 1488,-201.5 1393,-201.5"/>
<text text-anchor="middle" x="1440.5" y="-208.5" font-family="Helvetica,sans-Serif" font-size="10.00">l4/re/util/icu_svr</text>
</a>
</g>
</g>
<!-- Node18&#45;&gt;Node22 -->
<g id="edge30" class="edge">
<title>Node18&#45;&gt;Node22</title>
<path fill="none" stroke="midnightblue" d="M1069.87,-259.18C1144.86,-250.93 1273.44,-236.25 1383.5,-221 1386.58,-220.57 1389.74,-220.12 1392.93,-219.65"/>
<polygon fill="midnightblue" stroke="midnightblue" points="1069.21,-255.73 1059.65,-260.3 1069.97,-262.69 1069.21,-255.73"/>
</g>
<!-- Node24 -->
<g id="node24" class="node">
<title>Node24</title>
<g id="a_node24"><a xlink:href="object__registry_source.html" target="_top" xlink:title=" ">
<polygon fill="white" stroke="black" points="907,-140 907,-159 1040,-159 1040,-140 907,-140"/>
<text text-anchor="middle" x="973.5" y="-147" font-family="Helvetica,sans-Serif" font-size="10.00">l4/re/util/object_registry</text>
</a>
</g>
</g>
<!-- Node18&#45;&gt;Node24 -->
<g id="edge32" class="edge">
<title>Node18&#45;&gt;Node24</title>
<path fill="none" stroke="midnightblue" d="M974.66,-252.94C961.26,-245.67 947.05,-235.17 939.5,-221 927.87,-199.18 949.96,-172.75 963.7,-159.3"/>
<polygon fill="midnightblue" stroke="midnightblue" points="973.2,-256.13 983.71,-257.47 976.33,-249.87 973.2,-256.13"/>
</g>
<!-- Node26 -->
<g id="node26" class="node">
<title>Node26</title>
<g id="a_node26"><a xlink:href="util_2shared__cap.html" target="_top" xlink:title="Shared_cap / Shared_del_cap.">
<polygon fill="white" stroke="black" points="1258.5,-201.5 1258.5,-220.5 1374.5,-220.5 1374.5,-201.5 1258.5,-201.5"/>
<text text-anchor="middle" x="1316.5" y="-208.5" font-family="Helvetica,sans-Serif" font-size="10.00">l4/re/util/shared_cap</text>
</a>
</g>
</g>
<!-- Node18&#45;&gt;Node26 -->
<g id="edge34" class="edge">
<title>Node18&#45;&gt;Node26</title>
<path fill="none" stroke="midnightblue" d="M1065.84,-255.66C1124.42,-245.46 1212.95,-230.04 1267.61,-220.52"/>
<polygon fill="midnightblue" stroke="midnightblue" points="1064.87,-252.28 1055.62,-257.44 1066.07,-259.18 1064.87,-252.28"/>
</g>
<!-- Node27 -->
<g id="node27" class="node">
<title>Node27</title>
<g id="a_node27"><a xlink:href="util_2unique__cap.html" target="_top" xlink:title="Unique_cap / Unique_del_cap.">
<polygon fill="white" stroke="black" points="948.5,-201.5 948.5,-220.5 1064.5,-220.5 1064.5,-201.5 948.5,-201.5"/>
<text text-anchor="middle" x="1006.5" y="-208.5" font-family="Helvetica,sans-Serif" font-size="10.00">l4/re/util/unique_cap</text>
</a>
</g>
</g>
<!-- Node18&#45;&gt;Node27 -->
<g id="edge36" class="edge">
<title>Node18&#45;&gt;Node27</title>
<path fill="none" stroke="midnightblue" d="M1006.5,-246.8C1006.5,-237.91 1006.5,-227.78 1006.5,-220.75"/>
<polygon fill="midnightblue" stroke="midnightblue" points="1003,-247.08 1006.5,-257.08 1010,-247.08 1003,-247.08"/>
</g>
<!-- Node20 -->
<g id="node20" class="node">
<title>Node20</title>
<g id="a_node20"><a xlink:href="server_2virtio-block_source.html" target="_top" xlink:title=" ">
<polygon fill="white" stroke="black" points="1134,-67.5 1134,-97.5 1231,-97.5 1231,-67.5 1134,-67.5"/>
<text text-anchor="start" x="1142" y="-85.5" font-family="Helvetica,sans-Serif" font-size="10.00">l4/l4virtio/server</text>
<text text-anchor="middle" x="1182.5" y="-74.5" font-family="Helvetica,sans-Serif" font-size="10.00">/virtio&#45;block</text>
</a>
</g>
</g>
<!-- Node19&#45;&gt;Node20 -->
<g id="edge26" class="edge">
<title>Node19&#45;&gt;Node20</title>
<path fill="none" stroke="midnightblue" d="M1183.12,-124.11C1182.99,-115.15 1182.84,-105.32 1182.72,-97.58"/>
<polygon fill="midnightblue" stroke="midnightblue" points="1179.63,-124.45 1183.28,-134.4 1186.63,-124.34 1179.63,-124.45"/>
</g>
<!-- Node23 -->
<g id="node23" class="node">
<title>Node23</title>
<g id="a_node23"><a xlink:href="event__svr_source.html" target="_top" xlink:title=" ">
<polygon fill="white" stroke="black" points="1386.5,-140 1386.5,-159 1494.5,-159 1494.5,-140 1386.5,-140"/>
<text text-anchor="middle" x="1440.5" y="-147" font-family="Helvetica,sans-Serif" font-size="10.00">l4/re/util/event_svr</text>
</a>
</g>
</g>
<!-- Node22&#45;&gt;Node23 -->
<g id="edge31" class="edge">
<title>Node22&#45;&gt;Node23</title>
<path fill="none" stroke="midnightblue" d="M1440.5,-191.32C1440.5,-180.5 1440.5,-167.4 1440.5,-159.01"/>
<polygon fill="midnightblue" stroke="midnightblue" points="1437,-191.48 1440.5,-201.48 1444,-191.48 1437,-191.48"/>
</g>
<!-- Node25 -->
<g id="node25" class="node">
<title>Node25</title>
<g id="a_node25"><a xlink:href="client_2virtio-block_source.html" target="_top" xlink:title=" ">
<polygon fill="white" stroke="black" points="975,-67.5 975,-97.5 1068,-97.5 1068,-67.5 975,-67.5"/>
<text text-anchor="start" x="983" y="-85.5" font-family="Helvetica,sans-Serif" font-size="10.00">l4/l4virtio/client</text>
<text text-anchor="middle" x="1021.5" y="-74.5" font-family="Helvetica,sans-Serif" font-size="10.00">/virtio&#45;block</text>
</a>
</g>
</g>
<!-- Node24&#45;&gt;Node25 -->
<g id="edge33" class="edge">
<title>Node24&#45;&gt;Node25</title>
<path fill="none" stroke="midnightblue" d="M985.93,-131.67C993.74,-121.09 1003.7,-107.6 1011.1,-97.59"/>
<polygon fill="midnightblue" stroke="midnightblue" points="983.1,-129.61 979.97,-139.73 988.73,-133.77 983.1,-129.61"/>
</g>
<!-- Node26&#45;&gt;Node19 -->
<g id="edge35" class="edge">
<title>Node26&#45;&gt;Node19</title>
<path fill="none" stroke="midnightblue" d="M1288.18,-197.33C1266.66,-187.7 1237.08,-174.47 1214.85,-164.52"/>
<polygon fill="midnightblue" stroke="midnightblue" points="1286.89,-200.59 1297.44,-201.48 1289.75,-194.2 1286.89,-200.59"/>
</g>
<!-- Node27&#45;&gt;Node17 -->
<g id="edge40" class="edge">
<title>Node27&#45;&gt;Node17</title>
<path fill="none" stroke="midnightblue" d="M973.65,-197.93C942.16,-186.37 895.44,-169.21 867.67,-159.01"/>
<polygon fill="midnightblue" stroke="midnightblue" points="972.7,-201.31 983.29,-201.48 975.11,-194.74 972.7,-201.31"/>
</g>
<!-- Node27&#45;&gt;Node19 -->
<g id="edge38" class="edge">
<title>Node27&#45;&gt;Node19</title>
<path fill="none" stroke="midnightblue" d="M1041.51,-198.23C1070.33,-188.54 1111.27,-174.78 1141.78,-164.52"/>
<polygon fill="midnightblue" stroke="midnightblue" points="1040.22,-194.97 1031.86,-201.48 1042.45,-201.61 1040.22,-194.97"/>
</g>
<!-- Node27&#45;&gt;Node20 -->
<g id="edge39" class="edge">
<title>Node27&#45;&gt;Node20</title>
<path fill="none" stroke="midnightblue" d="M1026.87,-195.36C1060.95,-170.86 1129.11,-121.87 1162.77,-97.68"/>
<polygon fill="midnightblue" stroke="midnightblue" points="1024.67,-192.63 1018.6,-201.31 1028.76,-198.31 1024.67,-192.63"/>
</g>
<!-- Node27&#45;&gt;Node24 -->
<g id="edge41" class="edge">
<title>Node27&#45;&gt;Node24</title>
<path fill="none" stroke="midnightblue" d="M996.89,-192.67C990.75,-181.61 983.07,-167.75 978.22,-159.01"/>
<polygon fill="midnightblue" stroke="midnightblue" points="993.86,-194.43 1001.77,-201.48 999.98,-191.03 993.86,-194.43"/>
</g>
<!-- Node27&#45;&gt;Node25 -->
<g id="edge37" class="edge">
<title>Node27&#45;&gt;Node25</title>
<path fill="none" stroke="midnightblue" d="M1026.74,-194.86C1035.51,-187.03 1044.82,-176.67 1049.5,-165 1058.85,-141.67 1043.87,-113.86 1032.47,-97.5"/>
<polygon fill="midnightblue" stroke="midnightblue" points="1024.45,-192.22 1019,-201.3 1028.92,-197.6 1024.45,-192.22"/>
</g>
</g>
</svg>
