<?xml version="1.0" encoding="UTF-8" standalone="no"?>
<!DOCTYPE svg PUBLIC "-//W3C//DTD SVG 1.1//EN"
 "http://www.w3.org/Graphics/SVG/1.1/DTD/svg11.dtd">
<!-- Generated by graphviz version 2.43.0 (0)
 -->
<!-- Title: l4/util/splitlog2.h Pages: 1 -->
<svg width="351pt" height="252pt"
 viewBox="0.00 0.00 350.50 252.00" xmlns="http://www.w3.org/2000/svg" xmlns:xlink="http://www.w3.org/1999/xlink">
<g id="graph0" class="graph" transform="scale(1 1) rotate(0) translate(4 248)">
<title>l4/util/splitlog2.h</title>
<polygon fill="white" stroke="transparent" points="-4,4 -4,-248 346.5,-248 346.5,4 -4,4"/>
<!-- Node1 -->
<g id="node1" class="node">
<title>Node1</title>
<g id="a_node1"><a xlink:title="Split a range in log2 aligned and size&#45;aligned chunks.">
<polygon fill="#bfbfbf" stroke="black" points="0,-224.5 0,-243.5 98,-243.5 98,-224.5 0,-224.5"/>
<text text-anchor="middle" x="49" y="-231.5" font-family="Helvetica,sans-Serif" font-size="10.00">l4/util/splitlog2.h</text>
</a>
</g>
</g>
<!-- Node2 -->
<g id="node2" class="node">
<title>Node2</title>
<g id="a_node2"><a xlink:title=" ">
<polygon fill="white" stroke="#bfbfbf" points="27,-0.5 27,-19.5 119,-19.5 119,-0.5 27,-0.5"/>
<text text-anchor="middle" x="73" y="-7.5" font-family="Helvetica,sans-Serif" font-size="10.00">l4/sys/linkage.h</text>
</a>
</g>
</g>
<!-- Node1&#45;&gt;Node2 -->
<g id="edge1" class="edge">
<title>Node1&#45;&gt;Node2</title>
<path fill="none" stroke="midnightblue" d="M36.22,-224.37C25.61,-216.36 11.27,-203.38 5,-188 1.64,-179.77 3.2,-176.7 5,-168 16.11,-114.4 46.46,-56.62 62.59,-28.45"/>
<polygon fill="midnightblue" stroke="midnightblue" points="65.64,-30.17 67.65,-19.77 59.59,-26.65 65.64,-30.17"/>
</g>
<!-- Node3 -->
<g id="node3" class="node">
<title>Node3</title>
<g id="a_node3"><a xlink:href="err_8h.html" target="_top" xlink:title="Error codes.">
<polygon fill="white" stroke="black" points="14,-168.5 14,-187.5 84,-187.5 84,-168.5 14,-168.5"/>
<text text-anchor="middle" x="49" y="-175.5" font-family="Helvetica,sans-Serif" font-size="10.00">l4/sys/err.h</text>
</a>
</g>
</g>
<!-- Node1&#45;&gt;Node3 -->
<g id="edge2" class="edge">
<title>Node1&#45;&gt;Node3</title>
<path fill="none" stroke="midnightblue" d="M49,-224.08C49,-217.01 49,-206.86 49,-197.99"/>
<polygon fill="midnightblue" stroke="midnightblue" points="52.5,-197.75 49,-187.75 45.5,-197.75 52.5,-197.75"/>
</g>
<!-- Node5 -->
<g id="node5" class="node">
<title>Node5</title>
<g id="a_node5"><a xlink:href="bitops_8h.html" target="_top" xlink:title="bit manipulation functions">
<polygon fill="white" stroke="black" points="151,-168.5 151,-187.5 237,-187.5 237,-168.5 151,-168.5"/>
<text text-anchor="middle" x="194" y="-175.5" font-family="Helvetica,sans-Serif" font-size="10.00">l4/util/bitops.h</text>
</a>
</g>
</g>
<!-- Node1&#45;&gt;Node5 -->
<g id="edge5" class="edge">
<title>Node1&#45;&gt;Node5</title>
<path fill="none" stroke="midnightblue" d="M71.98,-224.44C96.16,-215.44 134.42,-201.19 161.65,-191.05"/>
<polygon fill="midnightblue" stroke="midnightblue" points="162.98,-194.29 171.13,-187.52 160.54,-187.73 162.98,-194.29"/>
</g>
<!-- Node4 -->
<g id="node4" class="node">
<title>Node4</title>
<g id="a_node4"><a xlink:href="compiler_8h.html" target="_top" xlink:title="L4 compiler related defines.">
<polygon fill="white" stroke="black" points="103.5,-56.5 103.5,-75.5 202.5,-75.5 202.5,-56.5 103.5,-56.5"/>
<text text-anchor="middle" x="153" y="-63.5" font-family="Helvetica,sans-Serif" font-size="10.00">l4/sys/compiler.h</text>
</a>
</g>
</g>
<!-- Node3&#45;&gt;Node4 -->
<g id="edge3" class="edge">
<title>Node3&#45;&gt;Node4</title>
<path fill="none" stroke="midnightblue" d="M44.9,-168.14C39.39,-154.75 31.5,-129.12 43,-112 54.61,-94.71 74.17,-84.06 93.6,-77.5"/>
<polygon fill="midnightblue" stroke="midnightblue" points="94.85,-80.77 103.4,-74.51 92.81,-74.08 94.85,-80.77"/>
</g>
<!-- Node4&#45;&gt;Node2 -->
<g id="edge4" class="edge">
<title>Node4&#45;&gt;Node2</title>
<path fill="none" stroke="midnightblue" d="M140.15,-56.32C127.78,-47.98 108.87,-35.21 94.26,-25.35"/>
<polygon fill="midnightblue" stroke="midnightblue" points="96.07,-22.35 85.82,-19.65 92.15,-28.15 96.07,-22.35"/>
</g>
<!-- Node5&#45;&gt;Node4 -->
<g id="edge7" class="edge">
<title>Node5&#45;&gt;Node4</title>
<path fill="none" stroke="midnightblue" d="M191.99,-168.43C188.93,-155.85 182.64,-131.73 175,-112 171.43,-102.78 166.69,-92.86 162.52,-84.7"/>
<polygon fill="midnightblue" stroke="midnightblue" points="165.58,-83 157.84,-75.76 159.38,-86.25 165.58,-83"/>
</g>
<!-- Node6 -->
<g id="node6" class="node">
<title>Node6</title>
<g id="a_node6"><a xlink:href="l4_2sys_2l4int_8h.html" target="_top" xlink:title="Fixed sized integer types, generic version.">
<polygon fill="white" stroke="black" points="263.5,-56.5 263.5,-75.5 342.5,-75.5 342.5,-56.5 263.5,-56.5"/>
<text text-anchor="middle" x="303" y="-63.5" font-family="Helvetica,sans-Serif" font-size="10.00">l4/sys/l4int.h</text>
</a>
</g>
</g>
<!-- Node5&#45;&gt;Node6 -->
<g id="edge6" class="edge">
<title>Node5&#45;&gt;Node6</title>
<path fill="none" stroke="midnightblue" d="M237.27,-174.08C266.15,-169.62 302.17,-158.65 321,-132 330.99,-117.86 323.43,-98.37 315.27,-84.42"/>
<polygon fill="midnightblue" stroke="midnightblue" points="318.07,-82.31 309.73,-75.79 312.18,-86.1 318.07,-82.31"/>
</g>
<!-- Node7 -->
<g id="node7" class="node">
<title>Node7</title>
<g id="a_node7"><a xlink:title=" ">
<polygon fill="white" stroke="#bfbfbf" points="52.5,-112.5 52.5,-131.5 165.5,-131.5 165.5,-112.5 52.5,-112.5"/>
<text text-anchor="middle" x="109" y="-119.5" font-family="Helvetica,sans-Serif" font-size="10.00">l4/util/bitops_arch.h</text>
</a>
</g>
</g>
<!-- Node5&#45;&gt;Node7 -->
<g id="edge8" class="edge">
<title>Node5&#45;&gt;Node7</title>
<path fill="none" stroke="midnightblue" d="M180.34,-168.32C167.08,-159.9 146.73,-146.97 131.15,-137.07"/>
<polygon fill="midnightblue" stroke="midnightblue" points="132.94,-134.06 122.62,-131.65 129.19,-139.97 132.94,-134.06"/>
</g>
<!-- Node8 -->
<g id="node8" class="node">
<title>Node8</title>
<g id="a_node8"><a xlink:href="l4_2util_2atomic_8h.html" target="_top" xlink:title="atomic operations header and generic implementations">
<polygon fill="white" stroke="black" points="222,-112.5 222,-131.5 312,-131.5 312,-112.5 222,-112.5"/>
<text text-anchor="middle" x="267" y="-119.5" font-family="Helvetica,sans-Serif" font-size="10.00">l4/util/atomic.h</text>
</a>
</g>
</g>
<!-- Node5&#45;&gt;Node8 -->
<g id="edge9" class="edge">
<title>Node5&#45;&gt;Node8</title>
<path fill="none" stroke="midnightblue" d="M205.73,-168.32C216.84,-160.11 233.74,-147.6 246.98,-137.81"/>
<polygon fill="midnightblue" stroke="midnightblue" points="249.1,-140.59 255.06,-131.83 244.94,-134.97 249.1,-140.59"/>
</g>
<!-- Node8&#45;&gt;Node4 -->
<g id="edge11" class="edge">
<title>Node8&#45;&gt;Node4</title>
<path fill="none" stroke="midnightblue" d="M248.94,-112.44C230.43,-103.68 201.42,-89.94 180.14,-79.86"/>
<polygon fill="midnightblue" stroke="midnightblue" points="181.51,-76.63 170.98,-75.52 178.52,-82.96 181.51,-76.63"/>
</g>
<!-- Node8&#45;&gt;Node6 -->
<g id="edge10" class="edge">
<title>Node8&#45;&gt;Node6</title>
<path fill="none" stroke="midnightblue" d="M272.94,-112.08C277.98,-104.53 285.34,-93.49 291.51,-84.23"/>
<polygon fill="midnightblue" stroke="midnightblue" points="294.53,-86.01 297.17,-75.75 288.71,-82.13 294.53,-86.01"/>
</g>
</g>
</svg>
