<?xml version="1.0" encoding="UTF-8" standalone="no"?>
<!DOCTYPE svg PUBLIC "-//W3C//DTD SVG 1.1//EN"
 "http://www.w3.org/Graphics/SVG/1.1/DTD/svg11.dtd">
<!-- Generated by graphviz version 2.43.0 (0)
 -->
<!-- Title: l4/cxx/std_exc_io Pages: 1 -->
<svg width="996pt" height="823pt"
 viewBox="0.00 0.00 996.00 823.00" xmlns="http://www.w3.org/2000/svg" xmlns:xlink="http://www.w3.org/1999/xlink">
<g id="graph0" class="graph" transform="scale(1 1) rotate(0) translate(4 819)">
<title>l4/cxx/std_exc_io</title>
<polygon fill="white" stroke="transparent" points="-4,4 -4,-819 992,-819 992,4 -4,4"/>
<!-- Node1 -->
<g id="node1" class="node">
<title>Node1</title>
<g id="a_node1"><a xlink:title="Base exceptions std stream operator.">
<polygon fill="#bfbfbf" stroke="black" points="779.5,-795.5 779.5,-814.5 880.5,-814.5 880.5,-795.5 779.5,-795.5"/>
<text text-anchor="middle" x="830" y="-802.5" font-family="Helvetica,sans-Serif" font-size="10.00">l4/cxx/std_exc_io</text>
</a>
</g>
</g>
<!-- Node2 -->
<g id="node2" class="node">
<title>Node2</title>
<g id="a_node2"><a xlink:href="exceptions.html" target="_top" xlink:title="Base exceptions.">
<polygon fill="white" stroke="black" points="730,-739.5 730,-758.5 832,-758.5 832,-739.5 730,-739.5"/>
<text text-anchor="middle" x="781" y="-746.5" font-family="Helvetica,sans-Serif" font-size="10.00">l4/cxx/exceptions</text>
</a>
</g>
</g>
<!-- Node1&#45;&gt;Node2 -->
<g id="edge1" class="edge">
<title>Node1&#45;&gt;Node2</title>
<path fill="none" stroke="midnightblue" d="M821.91,-795.08C814.84,-787.3 804.41,-775.8 795.85,-766.37"/>
<polygon fill="midnightblue" stroke="midnightblue" points="798.25,-763.8 788.94,-758.75 793.07,-768.51 798.25,-763.8"/>
</g>
<!-- Node31 -->
<g id="node31" class="node">
<title>Node31</title>
<g id="a_node31"><a xlink:href="iostream.html" target="_top" xlink:title="IO Stream.">
<polygon fill="white" stroke="black" points="886,-739.5 886,-758.5 946,-758.5 946,-739.5 886,-739.5"/>
<text text-anchor="middle" x="916" y="-746.5" font-family="Helvetica,sans-Serif" font-size="10.00">iostream</text>
</a>
</g>
</g>
<!-- Node1&#45;&gt;Node31 -->
<g id="edge68" class="edge">
<title>Node1&#45;&gt;Node31</title>
<path fill="none" stroke="midnightblue" d="M843.82,-795.32C857.23,-786.9 877.82,-773.97 893.59,-764.07"/>
<polygon fill="midnightblue" stroke="midnightblue" points="895.61,-766.94 902.22,-758.65 891.89,-761.01 895.61,-766.94"/>
</g>
<!-- Node3 -->
<g id="node3" class="node">
<title>Node3</title>
<g id="a_node3"><a xlink:href="l4types_8h.html" target="_top" xlink:title="L4 Types.">
<polygon fill="white" stroke="black" points="793,-683.5 793,-702.5 887,-702.5 887,-683.5 793,-683.5"/>
<text text-anchor="middle" x="840" y="-690.5" font-family="Helvetica,sans-Serif" font-size="10.00">l4/cxx/l4types.h</text>
</a>
</g>
</g>
<!-- Node2&#45;&gt;Node3 -->
<g id="edge2" class="edge">
<title>Node2&#45;&gt;Node3</title>
<path fill="none" stroke="midnightblue" d="M790.48,-739.32C799.2,-731.34 812.34,-719.31 822.9,-709.65"/>
<polygon fill="midnightblue" stroke="midnightblue" points="825.33,-712.17 830.35,-702.83 820.61,-707 825.33,-712.17"/>
</g>
<!-- Node11 -->
<g id="node11" class="node">
<title>Node11</title>
<g id="a_node11"><a xlink:href="basic__ostream.html" target="_top" xlink:title="Basic IO stream.">
<polygon fill="white" stroke="black" points="868,-627.5 868,-646.5 988,-646.5 988,-627.5 868,-627.5"/>
<text text-anchor="middle" x="928" y="-634.5" font-family="Helvetica,sans-Serif" font-size="10.00">l4/cxx/basic_ostream</text>
</a>
</g>
</g>
<!-- Node2&#45;&gt;Node11 -->
<g id="edge15" class="edge">
<title>Node2&#45;&gt;Node11</title>
<path fill="none" stroke="midnightblue" d="M823.34,-739.43C847.04,-732.82 875.79,-721.57 896,-703 909.58,-690.52 918.1,-671.01 922.9,-656.62"/>
<polygon fill="midnightblue" stroke="midnightblue" points="926.33,-657.4 925.87,-646.82 919.63,-655.37 926.33,-657.4"/>
</g>
<!-- Node12 -->
<g id="node12" class="node">
<title>Node12</title>
<g id="a_node12"><a xlink:href="err_8h.html" target="_top" xlink:title="Error codes.">
<polygon fill="white" stroke="black" points="129,-224.5 129,-243.5 199,-243.5 199,-224.5 129,-224.5"/>
<text text-anchor="middle" x="164" y="-231.5" font-family="Helvetica,sans-Serif" font-size="10.00">l4/sys/err.h</text>
</a>
</g>
</g>
<!-- Node2&#45;&gt;Node12 -->
<g id="edge16" class="edge">
<title>Node2&#45;&gt;Node12</title>
<path fill="none" stroke="midnightblue" d="M729.87,-745.44C567.47,-736.64 74,-704.42 74,-638 74,-638 74,-638 74,-468 74,-382.41 127.49,-290.31 152,-252.6"/>
<polygon fill="midnightblue" stroke="midnightblue" points="155.2,-254.11 157.81,-243.84 149.37,-250.24 155.2,-254.11"/>
</g>
<!-- Node13 -->
<g id="node13" class="node">
<title>Node13</title>
<g id="a_node13"><a xlink:href="capability.html" target="_top" xlink:title="L4::Cap related definitions.">
<polygon fill="white" stroke="black" points="502,-683.5 502,-702.5 598,-702.5 598,-683.5 502,-683.5"/>
<text text-anchor="middle" x="550" y="-690.5" font-family="Helvetica,sans-Serif" font-size="10.00">l4/sys/capability</text>
</a>
</g>
</g>
<!-- Node2&#45;&gt;Node13 -->
<g id="edge18" class="edge">
<title>Node2&#45;&gt;Node13</title>
<path fill="none" stroke="midnightblue" d="M744.4,-739.44C704.27,-730.06 639.8,-714.99 596.22,-704.8"/>
<polygon fill="midnightblue" stroke="midnightblue" points="596.97,-701.38 586.43,-702.52 595.37,-708.2 596.97,-701.38"/>
</g>
<!-- Node29 -->
<g id="node29" class="node">
<title>Node29</title>
<g id="a_node29"><a xlink:href="backtrace_8h.html" target="_top" xlink:title="Backtrace.">
<polygon fill="white" stroke="black" points="671,-683.5 671,-702.5 775,-702.5 775,-683.5 671,-683.5"/>
<text text-anchor="middle" x="723" y="-690.5" font-family="Helvetica,sans-Serif" font-size="10.00">l4/util/backtrace.h</text>
</a>
</g>
</g>
<!-- Node2&#45;&gt;Node29 -->
<g id="edge66" class="edge">
<title>Node2&#45;&gt;Node29</title>
<path fill="none" stroke="midnightblue" d="M771.68,-739.32C763.11,-731.34 750.19,-719.31 739.81,-709.65"/>
<polygon fill="midnightblue" stroke="midnightblue" points="742.19,-707.09 732.49,-702.83 737.42,-712.21 742.19,-707.09"/>
</g>
<!-- Node4 -->
<g id="node4" class="node">
<title>Node4</title>
<g id="a_node4"><a xlink:href="l4_2sys_2types_8h.html" target="_top" xlink:title="Common L4 ABI Data Types.">
<polygon fill="white" stroke="black" points="366,-168.5 366,-187.5 450,-187.5 450,-168.5 366,-168.5"/>
<text text-anchor="middle" x="408" y="-175.5" font-family="Helvetica,sans-Serif" font-size="10.00">l4/sys/types.h</text>
</a>
</g>
</g>
<!-- Node3&#45;&gt;Node4 -->
<g id="edge3" class="edge">
<title>Node3&#45;&gt;Node4</title>
<path fill="none" stroke="midnightblue" d="M837.45,-683.13C827.26,-647.38 790,-513.66 790,-470 790,-470 790,-470 790,-412 790,-259.39 565.03,-203.79 460.38,-186.18"/>
<polygon fill="midnightblue" stroke="midnightblue" points="460.77,-182.7 450.34,-184.55 459.65,-189.61 460.77,-182.7"/>
</g>
<!-- Node3&#45;&gt;Node11 -->
<g id="edge14" class="edge">
<title>Node3&#45;&gt;Node11</title>
<path fill="none" stroke="midnightblue" d="M854.14,-683.32C867.87,-674.9 888.94,-661.97 905.06,-652.07"/>
<polygon fill="midnightblue" stroke="midnightblue" points="907.2,-654.87 913.9,-646.65 903.54,-648.9 907.2,-654.87"/>
</g>
<!-- Node5 -->
<g id="node5" class="node">
<title>Node5</title>
<g id="a_node5"><a xlink:href="l4_2sys_2l4int_8h.html" target="_top" xlink:title="Fixed sized integer types, generic version.">
<polygon fill="white" stroke="black" points="503.5,-56.5 503.5,-75.5 582.5,-75.5 582.5,-56.5 503.5,-56.5"/>
<text text-anchor="middle" x="543" y="-63.5" font-family="Helvetica,sans-Serif" font-size="10.00">l4/sys/l4int.h</text>
</a>
</g>
</g>
<!-- Node4&#45;&gt;Node5 -->
<g id="edge4" class="edge">
<title>Node4&#45;&gt;Node5</title>
<path fill="none" stroke="midnightblue" d="M450.37,-170.67C491.98,-163.49 551.18,-150.34 565,-132 575.71,-117.8 566.44,-98.05 556.86,-84.06"/>
<polygon fill="midnightblue" stroke="midnightblue" points="559.5,-81.75 550.72,-75.81 553.88,-85.93 559.5,-81.75"/>
</g>
<!-- Node6 -->
<g id="node6" class="node">
<title>Node6</title>
<g id="a_node6"><a xlink:href="compiler_8h.html" target="_top" xlink:title="L4 compiler related defines.">
<polygon fill="white" stroke="black" points="187.5,-56.5 187.5,-75.5 286.5,-75.5 286.5,-56.5 187.5,-56.5"/>
<text text-anchor="middle" x="237" y="-63.5" font-family="Helvetica,sans-Serif" font-size="10.00">l4/sys/compiler.h</text>
</a>
</g>
</g>
<!-- Node4&#45;&gt;Node6 -->
<g id="edge5" class="edge">
<title>Node4&#45;&gt;Node6</title>
<path fill="none" stroke="midnightblue" d="M385.62,-168.38C365.79,-160.29 336.43,-147.18 313,-132 290.63,-117.5 267.75,-97.01 253.02,-82.93"/>
<polygon fill="midnightblue" stroke="midnightblue" points="255.34,-80.31 245.73,-75.85 250.46,-85.33 255.34,-80.31"/>
</g>
<!-- Node8 -->
<g id="node8" class="node">
<title>Node8</title>
<g id="a_node8"><a xlink:href="l4_2sys_2consts_8h.html" target="_top" xlink:title="Common constants.">
<polygon fill="white" stroke="black" points="612.5,-112.5 612.5,-131.5 701.5,-131.5 701.5,-112.5 612.5,-112.5"/>
<text text-anchor="middle" x="657" y="-119.5" font-family="Helvetica,sans-Serif" font-size="10.00">l4/sys/consts.h</text>
</a>
</g>
</g>
<!-- Node4&#45;&gt;Node8 -->
<g id="edge7" class="edge">
<title>Node4&#45;&gt;Node8</title>
<path fill="none" stroke="midnightblue" d="M447.45,-168.44C490.89,-159.02 560.79,-143.87 607.78,-133.68"/>
<polygon fill="midnightblue" stroke="midnightblue" points="608.7,-137.06 617.73,-131.52 607.22,-130.22 608.7,-137.06"/>
</g>
<!-- Node9 -->
<g id="node9" class="node">
<title>Node9</title>
<g id="a_node9"><a xlink:href="____l4__fpage_8h_source.html" target="_top" xlink:title=" ">
<polygon fill="white" stroke="black" points="322,-112.5 322,-131.5 432,-131.5 432,-112.5 322,-112.5"/>
<text text-anchor="middle" x="377" y="-119.5" font-family="Helvetica,sans-Serif" font-size="10.00">l4/sys/__l4_fpage.h</text>
</a>
</g>
</g>
<!-- Node4&#45;&gt;Node9 -->
<g id="edge10" class="edge">
<title>Node4&#45;&gt;Node9</title>
<path fill="none" stroke="midnightblue" d="M402.88,-168.08C398.59,-160.61 392.34,-149.72 387.06,-140.52"/>
<polygon fill="midnightblue" stroke="midnightblue" points="390.04,-138.68 382.02,-131.75 383.97,-142.17 390.04,-138.68"/>
</g>
<!-- Node10 -->
<g id="node10" class="node">
<title>Node10</title>
<g id="a_node10"><a xlink:href="____timeout_8h_source.html" target="_top" xlink:title=" ">
<polygon fill="white" stroke="black" points="450,-112.5 450,-131.5 556,-131.5 556,-112.5 450,-112.5"/>
<text text-anchor="middle" x="503" y="-119.5" font-family="Helvetica,sans-Serif" font-size="10.00">l4/sys/__timeout.h</text>
</a>
</g>
</g>
<!-- Node4&#45;&gt;Node10 -->
<g id="edge12" class="edge">
<title>Node4&#45;&gt;Node10</title>
<path fill="none" stroke="midnightblue" d="M423.26,-168.32C438.22,-159.82 461.25,-146.73 478.73,-136.8"/>
<polygon fill="midnightblue" stroke="midnightblue" points="480.81,-139.64 487.77,-131.65 477.35,-133.55 480.81,-139.64"/>
</g>
<!-- Node7 -->
<g id="node7" class="node">
<title>Node7</title>
<g id="a_node7"><a xlink:title=" ">
<polygon fill="white" stroke="#bfbfbf" points="191,-0.5 191,-19.5 283,-19.5 283,-0.5 191,-0.5"/>
<text text-anchor="middle" x="237" y="-7.5" font-family="Helvetica,sans-Serif" font-size="10.00">l4/sys/linkage.h</text>
</a>
</g>
</g>
<!-- Node6&#45;&gt;Node7 -->
<g id="edge6" class="edge">
<title>Node6&#45;&gt;Node7</title>
<path fill="none" stroke="midnightblue" d="M237,-56.08C237,-49.01 237,-38.86 237,-29.99"/>
<polygon fill="midnightblue" stroke="midnightblue" points="240.5,-29.75 237,-19.75 233.5,-29.75 240.5,-29.75"/>
</g>
<!-- Node8&#45;&gt;Node5 -->
<g id="edge9" class="edge">
<title>Node8&#45;&gt;Node5</title>
<path fill="none" stroke="midnightblue" d="M638.94,-112.44C620.43,-103.68 591.42,-89.94 570.14,-79.86"/>
<polygon fill="midnightblue" stroke="midnightblue" points="571.51,-76.63 560.98,-75.52 568.52,-82.96 571.51,-76.63"/>
</g>
<!-- Node8&#45;&gt;Node6 -->
<g id="edge8" class="edge">
<title>Node8&#45;&gt;Node6</title>
<path fill="none" stroke="midnightblue" d="M612.45,-115.27C536.48,-105.5 381.82,-85.62 296.62,-74.67"/>
<polygon fill="midnightblue" stroke="midnightblue" points="296.95,-71.18 286.58,-73.38 296.06,-78.12 296.95,-71.18"/>
</g>
<!-- Node9&#45;&gt;Node6 -->
<g id="edge11" class="edge">
<title>Node9&#45;&gt;Node6</title>
<path fill="none" stroke="midnightblue" d="M354.82,-112.44C331.57,-103.48 294.85,-89.31 268.58,-79.18"/>
<polygon fill="midnightblue" stroke="midnightblue" points="269.67,-75.85 259.08,-75.52 267.15,-82.38 269.67,-75.85"/>
</g>
<!-- Node10&#45;&gt;Node5 -->
<g id="edge13" class="edge">
<title>Node10&#45;&gt;Node5</title>
<path fill="none" stroke="midnightblue" d="M509.61,-112.08C515.26,-104.46 523.54,-93.26 530.45,-83.94"/>
<polygon fill="midnightblue" stroke="midnightblue" points="533.38,-85.87 536.52,-75.75 527.75,-81.7 533.38,-85.87"/>
</g>
<!-- Node12&#45;&gt;Node6 -->
<g id="edge17" class="edge">
<title>Node12&#45;&gt;Node6</title>
<path fill="none" stroke="midnightblue" d="M167.92,-224.08C179.47,-197.83 213.45,-120.55 229.03,-85.12"/>
<polygon fill="midnightblue" stroke="midnightblue" points="232.41,-86.13 233.23,-75.57 226,-83.31 232.41,-86.13"/>
</g>
<!-- Node13&#45;&gt;Node4 -->
<g id="edge20" class="edge">
<title>Node13&#45;&gt;Node4</title>
<path fill="none" stroke="midnightblue" d="M558.94,-683.27C599.92,-642.18 764.55,-464.76 689,-336 638.83,-250.5 523.26,-208.11 457.02,-190.13"/>
<polygon fill="midnightblue" stroke="midnightblue" points="457.79,-186.72 447.22,-187.56 456,-193.49 457.79,-186.72"/>
</g>
<!-- Node13&#45;&gt;Node8 -->
<g id="edge19" class="edge">
<title>Node13&#45;&gt;Node8</title>
<path fill="none" stroke="midnightblue" d="M567.57,-683.49C616.72,-658.33 752,-579.17 752,-470 752,-470 752,-470 752,-233 752,-189.74 709.39,-155.09 681.25,-136.91"/>
<polygon fill="midnightblue" stroke="midnightblue" points="683.03,-133.9 672.69,-131.6 679.34,-139.85 683.03,-133.9"/>
</g>
<!-- Node14 -->
<g id="node14" class="node">
<title>Node14</title>
<g id="a_node14"><a xlink:href="kobject_source.html" target="_top" xlink:title=" ">
<polygon fill="white" stroke="black" points="144.5,-515.5 144.5,-534.5 227.5,-534.5 227.5,-515.5 144.5,-515.5"/>
<text text-anchor="middle" x="186" y="-522.5" font-family="Helvetica,sans-Serif" font-size="10.00">l4/sys/kobject</text>
</a>
</g>
</g>
<!-- Node13&#45;&gt;Node14 -->
<g id="edge21" class="edge">
<title>Node13&#45;&gt;Node14</title>
<path fill="none" stroke="midnightblue" d="M501.93,-690.46C425.84,-687.14 282.17,-676.98 242,-647 208.56,-622.04 194.45,-572.24 189.03,-544.96"/>
<polygon fill="midnightblue" stroke="midnightblue" points="192.41,-544.01 187.2,-534.78 185.52,-545.24 192.41,-544.01"/>
</g>
<!-- Node23 -->
<g id="node23" class="node">
<title>Node23</title>
<g id="a_node23"><a xlink:href="l4_2sys_2task_8h.html" target="_top" xlink:title="Common task related definitions.">
<polygon fill="white" stroke="black" points="360,-342 360,-361 438,-361 438,-342 360,-342"/>
<text text-anchor="middle" x="399" y="-349" font-family="Helvetica,sans-Serif" font-size="10.00">l4/sys/task.h</text>
</a>
</g>
</g>
<!-- Node13&#45;&gt;Node23 -->
<g id="edge49" class="edge">
<title>Node13&#45;&gt;Node23</title>
<path fill="none" stroke="midnightblue" d="M501.78,-684.22C418.37,-669.38 256,-633.84 256,-582 256,-582 256,-582 256,-524 256,-461.65 280,-443.98 327,-403 342.63,-389.37 361.94,-375.99 376.63,-366.43"/>
<polygon fill="midnightblue" stroke="midnightblue" points="378.57,-369.34 385.1,-361 374.79,-363.45 378.57,-369.34"/>
</g>
<!-- Node24 -->
<g id="node24" class="node">
<title>Node24</title>
<g id="a_node24"><a xlink:href="sys_2meta.html" target="_top" xlink:title="Meta interface for getting dynamic type information about objects behind capabilities.">
<polygon fill="white" stroke="black" points="447,-627.5 447,-646.5 521,-646.5 521,-627.5 447,-627.5"/>
<text text-anchor="middle" x="484" y="-634.5" font-family="Helvetica,sans-Serif" font-size="10.00">l4/sys/meta</text>
</a>
</g>
</g>
<!-- Node13&#45;&gt;Node24 -->
<g id="edge50" class="edge">
<title>Node13&#45;&gt;Node24</title>
<path fill="none" stroke="midnightblue" d="M539.4,-683.32C529.54,-675.26 514.65,-663.08 502.78,-653.37"/>
<polygon fill="midnightblue" stroke="midnightblue" points="504.75,-650.46 494.8,-646.83 500.32,-655.88 504.75,-650.46"/>
</g>
<!-- Node14&#45;&gt;Node4 -->
<g id="edge35" class="edge">
<title>Node14&#45;&gt;Node4</title>
<path fill="none" stroke="midnightblue" d="M179.52,-515.36C151.11,-476.38 42.32,-314.75 120,-224 149.74,-189.25 281.05,-181.14 355.68,-179.37"/>
<polygon fill="midnightblue" stroke="midnightblue" points="355.9,-182.87 365.82,-179.16 355.75,-175.87 355.9,-182.87"/>
</g>
<!-- Node15 -->
<g id="node15" class="node">
<title>Node15</title>
<g id="a_node15"><a xlink:href="kernel__object_8h.html" target="_top" xlink:title="Kernel object system calls.">
<polygon fill="white" stroke="black" points="140.5,-403.5 140.5,-422.5 231.5,-422.5 231.5,-403.5 140.5,-403.5"/>
<text text-anchor="middle" x="186" y="-410.5" font-family="Helvetica,sans-Serif" font-size="10.00">kernel_object.h</text>
</a>
</g>
</g>
<!-- Node14&#45;&gt;Node15 -->
<g id="edge22" class="edge">
<title>Node14&#45;&gt;Node15</title>
<path fill="none" stroke="midnightblue" d="M186,-515.37C186,-497.62 186,-456.67 186,-432.6"/>
<polygon fill="midnightblue" stroke="midnightblue" points="189.5,-432.59 186,-422.59 182.5,-432.59 189.5,-432.59"/>
</g>
<!-- Node19 -->
<g id="node19" class="node">
<title>Node19</title>
<g id="a_node19"><a xlink:href="____typeinfo_8h.html" target="_top" xlink:title="Type information handling.">
<polygon fill="white" stroke="black" points="284.5,-459.5 284.5,-478.5 361.5,-478.5 361.5,-459.5 284.5,-459.5"/>
<text text-anchor="middle" x="323" y="-466.5" font-family="Helvetica,sans-Serif" font-size="10.00">__typeinfo.h</text>
</a>
</g>
</g>
<!-- Node14&#45;&gt;Node19 -->
<g id="edge36" class="edge">
<title>Node14&#45;&gt;Node19</title>
<path fill="none" stroke="midnightblue" d="M207.71,-515.44C230.35,-506.52 266.07,-492.44 291.75,-482.32"/>
<polygon fill="midnightblue" stroke="midnightblue" points="293.37,-485.44 301.39,-478.52 290.81,-478.93 293.37,-485.44"/>
</g>
<!-- Node15&#45;&gt;Node4 -->
<g id="edge23" class="edge">
<title>Node15&#45;&gt;Node4</title>
<path fill="none" stroke="midnightblue" d="M223.22,-403.47C246.47,-396.67 275.89,-385.19 297,-367 353.19,-318.58 388.33,-234.34 401.77,-197.33"/>
<polygon fill="midnightblue" stroke="midnightblue" points="405.1,-198.42 405.12,-187.83 398.5,-196.1 405.1,-198.42"/>
</g>
<!-- Node15&#45;&gt;Node6 -->
<g id="edge24" class="edge">
<title>Node15&#45;&gt;Node6</title>
<path fill="none" stroke="midnightblue" d="M163.93,-403.41C114.66,-382.61 0,-324.6 0,-235 0,-235 0,-235 0,-177 0,-98.96 107.03,-76.13 177.24,-69.55"/>
<polygon fill="midnightblue" stroke="midnightblue" points="177.65,-73.03 187.32,-68.69 177.06,-66.06 177.65,-73.03"/>
</g>
<!-- Node16 -->
<g id="node16" class="node">
<title>Node16</title>
<g id="a_node16"><a xlink:href="l4_2sys_2utcb_8h.html" target="_top" xlink:title="UTCB definitions.">
<polygon fill="white" stroke="black" points="255,-224.5 255,-243.5 333,-243.5 333,-224.5 255,-224.5"/>
<text text-anchor="middle" x="294" y="-231.5" font-family="Helvetica,sans-Serif" font-size="10.00">l4/sys/utcb.h</text>
</a>
</g>
</g>
<!-- Node15&#45;&gt;Node16 -->
<g id="edge25" class="edge">
<title>Node15&#45;&gt;Node16</title>
<path fill="none" stroke="midnightblue" d="M219.47,-403.47C238.77,-396.77 261.77,-385.42 275,-367 299.34,-333.1 298.83,-281.5 296.39,-253.93"/>
<polygon fill="midnightblue" stroke="midnightblue" points="299.84,-253.28 295.29,-243.71 292.88,-254.02 299.84,-253.28"/>
</g>
<!-- Node17 -->
<g id="node17" class="node">
<title>Node17</title>
<g id="a_node17"><a xlink:href="____kernel__object__impl_8h.html" target="_top" xlink:title="Low&#45;level kernel debugger functions.">
<polygon fill="white" stroke="black" points="142,-336.5 142,-366.5 266,-366.5 266,-336.5 142,-336.5"/>
<text text-anchor="start" x="150" y="-354.5" font-family="Helvetica,sans-Serif" font-size="10.00">l4/sys/__kernel_object</text>
<text text-anchor="middle" x="204" y="-343.5" font-family="Helvetica,sans-Serif" font-size="10.00">_impl.h</text>
</a>
</g>
</g>
<!-- Node15&#45;&gt;Node17 -->
<g id="edge29" class="edge">
<title>Node15&#45;&gt;Node17</title>
<path fill="none" stroke="midnightblue" d="M188.58,-403.48C190.72,-396.4 193.87,-385.97 196.77,-376.39"/>
<polygon fill="midnightblue" stroke="midnightblue" points="200.21,-377.11 199.76,-366.52 193.51,-375.08 200.21,-377.11"/>
</g>
<!-- Node18 -->
<g id="node18" class="node">
<title>Node18</title>
<g id="a_node18"><a xlink:href="l4_2sys_2ipc_8h.html" target="_top" xlink:title="Common IPC interface.">
<polygon fill="white" stroke="black" points="180.5,-280.5 180.5,-299.5 251.5,-299.5 251.5,-280.5 180.5,-280.5"/>
<text text-anchor="middle" x="216" y="-287.5" font-family="Helvetica,sans-Serif" font-size="10.00">l4/sys/ipc.h</text>
</a>
</g>
</g>
<!-- Node15&#45;&gt;Node18 -->
<g id="edge34" class="edge">
<title>Node15&#45;&gt;Node18</title>
<path fill="none" stroke="midnightblue" d="M169.67,-403.39C157.04,-395.72 140.5,-383.21 133,-367 127.21,-354.5 125.95,-347.84 133,-336 142.1,-320.72 158.39,-310.31 174.14,-303.39"/>
<polygon fill="midnightblue" stroke="midnightblue" points="175.83,-306.48 183.82,-299.51 173.23,-299.98 175.83,-306.48"/>
</g>
<!-- Node16&#45;&gt;Node4 -->
<g id="edge26" class="edge">
<title>Node16&#45;&gt;Node4</title>
<path fill="none" stroke="midnightblue" d="M312.06,-224.44C330.57,-215.68 359.58,-201.94 380.86,-191.86"/>
<polygon fill="midnightblue" stroke="midnightblue" points="382.48,-194.96 390.02,-187.52 379.49,-188.63 382.48,-194.96"/>
</g>
<!-- Node16&#45;&gt;Node5 -->
<g id="edge28" class="edge">
<title>Node16&#45;&gt;Node5</title>
<path fill="none" stroke="midnightblue" d="M292.36,-224.24C288.77,-202.1 282.76,-143.4 313,-112 337.35,-86.72 433.33,-75.08 493.35,-70.17"/>
<polygon fill="midnightblue" stroke="midnightblue" points="493.68,-73.66 503.38,-69.39 493.14,-66.68 493.68,-73.66"/>
</g>
<!-- Node16&#45;&gt;Node6 -->
<g id="edge27" class="edge">
<title>Node16&#45;&gt;Node6</title>
<path fill="none" stroke="midnightblue" d="M290.94,-224.08C281.92,-197.83 255.39,-120.55 243.22,-85.12"/>
<polygon fill="midnightblue" stroke="midnightblue" points="246.5,-83.89 239.94,-75.57 239.88,-86.16 246.5,-83.89"/>
</g>
<!-- Node17&#45;&gt;Node18 -->
<g id="edge30" class="edge">
<title>Node17&#45;&gt;Node18</title>
<path fill="none" stroke="midnightblue" d="M206.84,-336.4C208.46,-328.38 210.51,-318.23 212.25,-309.57"/>
<polygon fill="midnightblue" stroke="midnightblue" points="215.71,-310.15 214.25,-299.66 208.85,-308.77 215.71,-310.15"/>
</g>
<!-- Node18&#45;&gt;Node4 -->
<g id="edge31" class="edge">
<title>Node18&#45;&gt;Node4</title>
<path fill="none" stroke="midnightblue" d="M217.55,-280.44C220.53,-266.5 228.39,-238.97 246,-224 276.66,-197.93 321.29,-186.89 355.95,-182.25"/>
<polygon fill="midnightblue" stroke="midnightblue" points="356.39,-185.72 365.9,-181.05 355.55,-178.77 356.39,-185.72"/>
</g>
<!-- Node18&#45;&gt;Node12 -->
<g id="edge33" class="edge">
<title>Node18&#45;&gt;Node12</title>
<path fill="none" stroke="midnightblue" d="M207.41,-280.08C199.84,-272.22 188.62,-260.57 179.49,-251.08"/>
<polygon fill="midnightblue" stroke="midnightblue" points="181.88,-248.53 172.43,-243.75 176.84,-253.38 181.88,-248.53"/>
</g>
<!-- Node18&#45;&gt;Node16 -->
<g id="edge32" class="edge">
<title>Node18&#45;&gt;Node16</title>
<path fill="none" stroke="midnightblue" d="M228.53,-280.32C240.59,-271.98 259.03,-259.21 273.27,-249.35"/>
<polygon fill="midnightblue" stroke="midnightblue" points="275.27,-252.22 281.5,-243.65 271.28,-246.47 275.27,-252.22"/>
</g>
<!-- Node20 -->
<g id="node20" class="node">
<title>Node20</title>
<g id="a_node20"><a xlink:href="types.html" target="_top" xlink:title=" ">
<polygon fill="white" stroke="black" points="616,-342 616,-361 680,-361 680,-342 616,-342"/>
<text text-anchor="middle" x="648" y="-349" font-family="Helvetica,sans-Serif" font-size="10.00">cxx/types</text>
</a>
</g>
</g>
<!-- Node19&#45;&gt;Node20 -->
<g id="edge37" class="edge">
<title>Node19&#45;&gt;Node20</title>
<path fill="none" stroke="midnightblue" d="M346.89,-459.43C370.18,-450.88 406.44,-437.02 437,-423 454.35,-415.04 457.28,-410.09 475,-403 529.48,-381.22 545.79,-383.82 602,-367 605.13,-366.06 608.37,-365.08 611.62,-364.07"/>
<polygon fill="midnightblue" stroke="midnightblue" points="612.78,-367.38 621.28,-361.07 610.7,-360.7 612.78,-367.38"/>
</g>
<!-- Node21 -->
<g id="node21" class="node">
<title>Node21</title>
<g id="a_node21"><a xlink:href="ipc__basics_source.html" target="_top" xlink:title=" ">
<polygon fill="white" stroke="black" points="484.5,-403.5 484.5,-422.5 571.5,-422.5 571.5,-403.5 484.5,-403.5"/>
<text text-anchor="middle" x="528" y="-410.5" font-family="Helvetica,sans-Serif" font-size="10.00">cxx/ipc_basics</text>
</a>
</g>
</g>
<!-- Node19&#45;&gt;Node21 -->
<g id="edge38" class="edge">
<title>Node19&#45;&gt;Node21</title>
<path fill="none" stroke="midnightblue" d="M355.48,-459.44C390.72,-450.16 447.1,-435.31 485.76,-425.13"/>
<polygon fill="midnightblue" stroke="midnightblue" points="486.89,-428.45 495.67,-422.52 485.11,-421.68 486.89,-428.45"/>
</g>
<!-- Node22 -->
<g id="node22" class="node">
<title>Node22</title>
<g id="a_node22"><a xlink:href="capability_8h_source.html" target="_top" xlink:title=" ">
<polygon fill="white" stroke="black" points="336,-403.5 336,-422.5 428,-422.5 428,-403.5 336,-403.5"/>
<text text-anchor="middle" x="382" y="-410.5" font-family="Helvetica,sans-Serif" font-size="10.00">cxx/capability.h</text>
</a>
</g>
</g>
<!-- Node19&#45;&gt;Node22 -->
<g id="edge42" class="edge">
<title>Node19&#45;&gt;Node22</title>
<path fill="none" stroke="midnightblue" d="M332.48,-459.32C341.2,-451.34 354.34,-439.31 364.9,-429.65"/>
<polygon fill="midnightblue" stroke="midnightblue" points="367.33,-432.17 372.35,-422.83 362.61,-427 367.33,-432.17"/>
</g>
<!-- Node21&#45;&gt;Node12 -->
<g id="edge41" class="edge">
<title>Node21&#45;&gt;Node12</title>
<path fill="none" stroke="midnightblue" d="M520.86,-403.26C507.74,-387.71 478.27,-355.09 447,-336 369.72,-288.81 267.13,-259.18 209.08,-244.99"/>
<polygon fill="midnightblue" stroke="midnightblue" points="209.67,-241.53 199.12,-242.6 208.03,-248.34 209.67,-241.53"/>
</g>
<!-- Node21&#45;&gt;Node16 -->
<g id="edge40" class="edge">
<title>Node21&#45;&gt;Node16</title>
<path fill="none" stroke="midnightblue" d="M530.5,-403.26C536.6,-379.95 549.51,-315.64 518,-280 495.44,-254.49 402.39,-242.96 343.54,-238.13"/>
<polygon fill="midnightblue" stroke="midnightblue" points="343.58,-234.62 333.34,-237.33 343.03,-241.6 343.58,-234.62"/>
</g>
<!-- Node21&#45;&gt;Node20 -->
<g id="edge39" class="edge">
<title>Node21&#45;&gt;Node20</title>
<path fill="none" stroke="midnightblue" d="M545.19,-403.48C565.24,-393.53 598.6,-376.99 621.86,-365.46"/>
<polygon fill="midnightblue" stroke="midnightblue" points="623.43,-368.59 630.84,-361.01 620.32,-362.32 623.43,-368.59"/>
</g>
<!-- Node22&#45;&gt;Node4 -->
<g id="edge44" class="edge">
<title>Node22&#45;&gt;Node4</title>
<path fill="none" stroke="midnightblue" d="M403.81,-403.45C418.94,-396.22 437.95,-384.26 447,-367 476.99,-309.76 439.19,-231.4 419.08,-196.73"/>
<polygon fill="midnightblue" stroke="midnightblue" points="421.87,-194.58 413.72,-187.81 415.87,-198.18 421.87,-194.58"/>
</g>
<!-- Node22&#45;&gt;Node8 -->
<g id="edge43" class="edge">
<title>Node22&#45;&gt;Node8</title>
<path fill="none" stroke="midnightblue" d="M403.51,-403.46C421.43,-395.68 447.01,-382.97 466,-367 550.03,-296.33 621.48,-183.25 646.99,-140.31"/>
<polygon fill="midnightblue" stroke="midnightblue" points="650.06,-142 652.1,-131.6 644.02,-138.45 650.06,-142"/>
</g>
<!-- Node22&#45;&gt;Node23 -->
<g id="edge45" class="edge">
<title>Node22&#45;&gt;Node23</title>
<path fill="none" stroke="midnightblue" d="M384.44,-403.48C386.86,-394.99 390.66,-381.7 393.77,-370.82"/>
<polygon fill="midnightblue" stroke="midnightblue" points="397.19,-371.59 396.57,-361.01 390.46,-369.66 397.19,-371.59"/>
</g>
<!-- Node23&#45;&gt;Node4 -->
<g id="edge46" class="edge">
<title>Node23&#45;&gt;Node4</title>
<path fill="none" stroke="midnightblue" d="M399.46,-341.76C400.86,-315.15 405.08,-234.71 407.01,-197.84"/>
<polygon fill="midnightblue" stroke="midnightblue" points="410.52,-197.69 407.55,-187.52 403.53,-197.32 410.52,-197.69"/>
</g>
<!-- Node23&#45;&gt;Node16 -->
<g id="edge47" class="edge">
<title>Node23&#45;&gt;Node16</title>
<path fill="none" stroke="midnightblue" d="M391.11,-341.82C373.63,-322.59 331.4,-276.14 308.82,-251.31"/>
<polygon fill="midnightblue" stroke="midnightblue" points="311.3,-248.83 301.98,-243.78 306.12,-253.54 311.3,-248.83"/>
</g>
<!-- Node23&#45;&gt;Node18 -->
<g id="edge48" class="edge">
<title>Node23&#45;&gt;Node18</title>
<path fill="none" stroke="midnightblue" d="M372.78,-341.98C340.98,-331.64 287.23,-314.16 251.68,-302.6"/>
<polygon fill="midnightblue" stroke="midnightblue" points="252.76,-299.27 242.17,-299.51 250.6,-305.93 252.76,-299.27"/>
</g>
<!-- Node24&#45;&gt;Node14 -->
<g id="edge51" class="edge">
<title>Node24&#45;&gt;Node14</title>
<path fill="none" stroke="midnightblue" d="M460.62,-627.37C407.85,-607.89 279.41,-560.48 218.75,-538.09"/>
<polygon fill="midnightblue" stroke="midnightblue" points="219.87,-534.77 209.27,-534.59 217.44,-541.34 219.87,-534.77"/>
</g>
<!-- Node25 -->
<g id="node25" class="node">
<title>Node25</title>
<g id="a_node25"><a xlink:href="ipc__iface.html" target="_top" xlink:title="Interface Definition Language.">
<polygon fill="white" stroke="black" points="320,-515.5 320,-534.5 400,-534.5 400,-515.5 320,-515.5"/>
<text text-anchor="middle" x="360" y="-522.5" font-family="Helvetica,sans-Serif" font-size="10.00">cxx/ipc_iface</text>
</a>
</g>
</g>
<!-- Node24&#45;&gt;Node25 -->
<g id="edge52" class="edge">
<title>Node24&#45;&gt;Node25</title>
<path fill="none" stroke="midnightblue" d="M474.27,-627.37C453.35,-608.81 403.87,-564.91 377.4,-541.44"/>
<polygon fill="midnightblue" stroke="midnightblue" points="379.49,-538.61 369.68,-534.59 374.84,-543.85 379.49,-538.61"/>
</g>
<!-- Node27 -->
<g id="node27" class="node">
<title>Node27</title>
<g id="a_node27"><a xlink:href="ipc__string_source.html" target="_top" xlink:title=" ">
<polygon fill="white" stroke="black" points="498,-571.5 498,-590.5 582,-590.5 582,-571.5 498,-571.5"/>
<text text-anchor="middle" x="540" y="-578.5" font-family="Helvetica,sans-Serif" font-size="10.00">cxx/ipc_string</text>
</a>
</g>
</g>
<!-- Node24&#45;&gt;Node27 -->
<g id="edge59" class="edge">
<title>Node24&#45;&gt;Node27</title>
<path fill="none" stroke="midnightblue" d="M493,-627.32C501.19,-619.42 513.51,-607.55 523.47,-597.94"/>
<polygon fill="midnightblue" stroke="midnightblue" points="526.07,-600.29 530.84,-590.83 521.21,-595.26 526.07,-600.29"/>
</g>
<!-- Node25&#45;&gt;Node19 -->
<g id="edge58" class="edge">
<title>Node25&#45;&gt;Node19</title>
<path fill="none" stroke="midnightblue" d="M353.89,-515.08C348.72,-507.53 341.15,-496.49 334.81,-487.23"/>
<polygon fill="midnightblue" stroke="midnightblue" points="337.54,-485.02 329,-478.75 331.76,-488.98 337.54,-485.02"/>
</g>
<!-- Node25&#45;&gt;Node21 -->
<g id="edge53" class="edge">
<title>Node25&#45;&gt;Node21</title>
<path fill="none" stroke="midnightblue" d="M365.22,-515.22C373.81,-501.49 392.14,-474.83 414,-459 435.09,-443.73 462.07,-432.77 484.49,-425.5"/>
<polygon fill="midnightblue" stroke="midnightblue" points="485.6,-428.82 494.11,-422.51 483.52,-422.13 485.6,-428.82"/>
</g>
<!-- Node26 -->
<g id="node26" class="node">
<title>Node26</title>
<g id="a_node26"><a xlink:href="ipc__types.html" target="_top" xlink:title=" ">
<polygon fill="white" stroke="black" points="456.5,-459.5 456.5,-478.5 571.5,-478.5 571.5,-459.5 456.5,-459.5"/>
<text text-anchor="middle" x="514" y="-466.5" font-family="Helvetica,sans-Serif" font-size="10.00">l4/sys/cxx/ipc_types</text>
</a>
</g>
</g>
<!-- Node25&#45;&gt;Node26 -->
<g id="edge54" class="edge">
<title>Node25&#45;&gt;Node26</title>
<path fill="none" stroke="midnightblue" d="M384.4,-515.44C410.2,-506.4 451.08,-492.06 480.02,-481.92"/>
<polygon fill="midnightblue" stroke="midnightblue" points="481.43,-485.13 489.71,-478.52 479.12,-478.52 481.43,-485.13"/>
</g>
<!-- Node26&#45;&gt;Node20 -->
<g id="edge56" class="edge">
<title>Node26&#45;&gt;Node20</title>
<path fill="none" stroke="midnightblue" d="M528.25,-459.48C542.04,-450.96 563.25,-437.13 580,-423 599.99,-406.13 620.51,-384.08 633.7,-369.17"/>
<polygon fill="midnightblue" stroke="midnightblue" points="636.63,-371.14 640.56,-361.3 631.35,-366.54 636.63,-371.14"/>
</g>
<!-- Node26&#45;&gt;Node21 -->
<g id="edge57" class="edge">
<title>Node26&#45;&gt;Node21</title>
<path fill="none" stroke="midnightblue" d="M516.31,-459.08C518.17,-451.93 520.84,-441.64 523.15,-432.69"/>
<polygon fill="midnightblue" stroke="midnightblue" points="526.61,-433.31 525.73,-422.75 519.83,-431.55 526.61,-433.31"/>
</g>
<!-- Node26&#45;&gt;Node22 -->
<g id="edge55" class="edge">
<title>Node26&#45;&gt;Node22</title>
<path fill="none" stroke="midnightblue" d="M493.08,-459.44C471.26,-450.52 436.85,-436.44 412.11,-426.32"/>
<polygon fill="midnightblue" stroke="midnightblue" points="413.4,-423.06 402.82,-422.52 410.75,-429.54 413.4,-423.06"/>
</g>
<!-- Node27&#45;&gt;Node20 -->
<g id="edge60" class="edge">
<title>Node27&#45;&gt;Node20</title>
<path fill="none" stroke="midnightblue" d="M554.92,-571.37C567.63,-563.37 585.58,-550.39 597,-535 628.87,-492.05 628.46,-474.99 641,-423 645.14,-405.83 646.84,-385.74 647.53,-371.4"/>
<polygon fill="midnightblue" stroke="midnightblue" points="651.03,-371.43 647.9,-361.31 644.04,-371.18 651.03,-371.43"/>
</g>
<!-- Node27&#45;&gt;Node21 -->
<g id="edge61" class="edge">
<title>Node27&#45;&gt;Node21</title>
<path fill="none" stroke="midnightblue" d="M527.59,-571.49C506.26,-556.02 463.38,-520.97 447,-479 443.77,-470.72 442.49,-466.66 447,-459 455.92,-443.84 471.99,-433.43 487.48,-426.46"/>
<polygon fill="midnightblue" stroke="midnightblue" points="489.06,-429.6 496.98,-422.56 486.4,-423.12 489.06,-429.6"/>
</g>
<!-- Node28 -->
<g id="node28" class="node">
<title>Node28</title>
<g id="a_node28"><a xlink:href="ipc__array_source.html" target="_top" xlink:title=" ">
<polygon fill="white" stroke="black" points="526,-515.5 526,-534.5 588,-534.5 588,-515.5 526,-515.5"/>
<text text-anchor="middle" x="557" y="-522.5" font-family="Helvetica,sans-Serif" font-size="10.00">ipc_array</text>
</a>
</g>
</g>
<!-- Node27&#45;&gt;Node28 -->
<g id="edge62" class="edge">
<title>Node27&#45;&gt;Node28</title>
<path fill="none" stroke="midnightblue" d="M542.81,-571.08C545.08,-563.85 548.37,-553.41 551.21,-544.4"/>
<polygon fill="midnightblue" stroke="midnightblue" points="554.58,-545.34 554.25,-534.75 547.9,-543.24 554.58,-545.34"/>
</g>
<!-- Node28&#45;&gt;Node20 -->
<g id="edge63" class="edge">
<title>Node28&#45;&gt;Node20</title>
<path fill="none" stroke="midnightblue" d="M566,-515.38C574.59,-506.79 587.43,-492.91 596,-479 618.02,-443.25 634.43,-396.53 642.47,-371.05"/>
<polygon fill="midnightblue" stroke="midnightblue" points="645.9,-371.83 645.49,-361.24 639.21,-369.78 645.9,-371.83"/>
</g>
<!-- Node28&#45;&gt;Node21 -->
<g id="edge64" class="edge">
<title>Node28&#45;&gt;Node21</title>
<path fill="none" stroke="midnightblue" d="M564.25,-515.4C573.95,-502.77 588.96,-478.6 580,-459 574.22,-446.36 562.95,-435.91 552.37,-428.27"/>
<polygon fill="midnightblue" stroke="midnightblue" points="554.04,-425.18 543.78,-422.53 550.15,-431 554.04,-425.18"/>
</g>
<!-- Node28&#45;&gt;Node26 -->
<g id="edge65" class="edge">
<title>Node28&#45;&gt;Node26</title>
<path fill="none" stroke="midnightblue" d="M549.9,-515.08C543.76,-507.38 534.73,-496.03 527.26,-486.65"/>
<polygon fill="midnightblue" stroke="midnightblue" points="529.94,-484.39 520.97,-478.75 524.46,-488.75 529.94,-484.39"/>
</g>
<!-- Node30 -->
<g id="node30" class="node">
<title>Node30</title>
<g id="a_node30"><a xlink:title=" ">
<polygon fill="white" stroke="#bfbfbf" points="740.5,-627.5 740.5,-646.5 811.5,-646.5 811.5,-627.5 740.5,-627.5"/>
<text text-anchor="middle" x="776" y="-634.5" font-family="Helvetica,sans-Serif" font-size="10.00">sys/cdefs.h</text>
</a>
</g>
</g>
<!-- Node29&#45;&gt;Node30 -->
<g id="edge67" class="edge">
<title>Node29&#45;&gt;Node30</title>
<path fill="none" stroke="midnightblue" d="M731.75,-683.08C739.47,-675.22 750.9,-663.57 760.22,-654.08"/>
<polygon fill="midnightblue" stroke="midnightblue" points="762.9,-656.34 767.41,-646.75 757.91,-651.44 762.9,-656.34"/>
</g>
<!-- Node31&#45;&gt;Node11 -->
<g id="edge69" class="edge">
<title>Node31&#45;&gt;Node11</title>
<path fill="none" stroke="midnightblue" d="M919.34,-739.2C922.55,-730.24 927.18,-715.88 929,-703 931.18,-687.62 930.72,-669.98 929.84,-656.96"/>
<polygon fill="midnightblue" stroke="midnightblue" points="933.32,-656.56 929.01,-646.89 926.34,-657.14 933.32,-656.56"/>
</g>
</g>
</svg>
