<?xml version="1.0" encoding="UTF-8" standalone="no"?>
<!DOCTYPE svg PUBLIC "-//W3C//DTD SVG 1.1//EN"
 "http://www.w3.org/Graphics/SVG/1.1/DTD/svg11.dtd">
<!-- Generated by graphviz version 2.43.0 (0)
 -->
<!-- Title: l4/cxx/string.h Pages: 1 -->
<svg width="105pt" height="229pt"
 viewBox="0.00 0.00 105.00 229.00" xmlns="http://www.w3.org/2000/svg" xmlns:xlink="http://www.w3.org/1999/xlink">
<g id="graph0" class="graph" transform="scale(1 1) rotate(0) translate(4 225)">
<title>l4/cxx/string.h</title>
<polygon fill="white" stroke="transparent" points="-4,4 -4,-225 101,-225 101,4 -4,4"/>
<!-- Node1 -->
<g id="node1" class="node">
<title>Node1</title>
<g id="a_node1"><a xlink:title="String.">
<polygon fill="#bfbfbf" stroke="black" points="5.5,-201.5 5.5,-220.5 91.5,-220.5 91.5,-201.5 5.5,-201.5"/>
<text text-anchor="middle" x="48.5" y="-208.5" font-family="Helvetica,sans-Serif" font-size="10.00">l4/cxx/string.h</text>
</a>
</g>
</g>
<!-- Node2 -->
<g id="node2" class="node">
<title>Node2</title>
<g id="a_node2"><a xlink:href="virtio_source.html" target="_top" xlink:title=" ">
<polygon fill="white" stroke="black" points="0,-134.5 0,-164.5 97,-164.5 97,-134.5 0,-134.5"/>
<text text-anchor="start" x="8" y="-152.5" font-family="Helvetica,sans-Serif" font-size="10.00">l4/l4virtio/server</text>
<text text-anchor="middle" x="48.5" y="-141.5" font-family="Helvetica,sans-Serif" font-size="10.00">/virtio</text>
</a>
</g>
</g>
<!-- Node1&#45;&gt;Node2 -->
<g id="edge1" class="edge">
<title>Node1&#45;&gt;Node2</title>
<path fill="none" stroke="midnightblue" d="M48.5,-191.23C48.5,-182.59 48.5,-172.5 48.5,-164.52"/>
<polygon fill="midnightblue" stroke="midnightblue" points="45,-191.48 48.5,-201.48 52,-191.48 45,-191.48"/>
</g>
<!-- Node3 -->
<g id="node3" class="node">
<title>Node3</title>
<g id="a_node3"><a xlink:href="server_2l4virtio_source.html" target="_top" xlink:title=" ">
<polygon fill="white" stroke="black" points="0,-67.5 0,-97.5 97,-97.5 97,-67.5 0,-67.5"/>
<text text-anchor="start" x="8" y="-85.5" font-family="Helvetica,sans-Serif" font-size="10.00">l4/l4virtio/server</text>
<text text-anchor="middle" x="48.5" y="-74.5" font-family="Helvetica,sans-Serif" font-size="10.00">/l4virtio</text>
</a>
</g>
</g>
<!-- Node2&#45;&gt;Node3 -->
<g id="edge2" class="edge">
<title>Node2&#45;&gt;Node3</title>
<path fill="none" stroke="midnightblue" d="M48.5,-124.11C48.5,-115.15 48.5,-105.32 48.5,-97.58"/>
<polygon fill="midnightblue" stroke="midnightblue" points="45,-124.4 48.5,-134.4 52,-124.4 45,-124.4"/>
</g>
<!-- Node4 -->
<g id="node4" class="node">
<title>Node4</title>
<g id="a_node4"><a xlink:href="server_2virtio-block_source.html" target="_top" xlink:title=" ">
<polygon fill="white" stroke="black" points="0,-0.5 0,-30.5 97,-30.5 97,-0.5 0,-0.5"/>
<text text-anchor="start" x="8" y="-18.5" font-family="Helvetica,sans-Serif" font-size="10.00">l4/l4virtio/server</text>
<text text-anchor="middle" x="48.5" y="-7.5" font-family="Helvetica,sans-Serif" font-size="10.00">/virtio&#45;block</text>
</a>
</g>
</g>
<!-- Node3&#45;&gt;Node4 -->
<g id="edge3" class="edge">
<title>Node3&#45;&gt;Node4</title>
<path fill="none" stroke="midnightblue" d="M48.5,-57.11C48.5,-48.15 48.5,-38.32 48.5,-30.58"/>
<polygon fill="midnightblue" stroke="midnightblue" points="45,-57.4 48.5,-67.4 52,-57.4 45,-57.4"/>
</g>
</g>
</svg>
