<?xml version="1.0" encoding="UTF-8" standalone="no"?>
<!DOCTYPE svg PUBLIC "-//W3C//DTD SVG 1.1//EN"
 "http://www.w3.org/Graphics/SVG/1.1/DTD/svg11.dtd">
<!-- Generated by graphviz version 2.43.0 (0)
 -->
<!-- Title: L4::Ipc::Call_t&lt; RIGHTS &gt; Pages: 1 -->
<svg width="149pt" height="160pt"
 viewBox="0.00 0.00 149.00 160.00" xmlns="http://www.w3.org/2000/svg" xmlns:xlink="http://www.w3.org/1999/xlink">
<g id="graph0" class="graph" transform="scale(1 1) rotate(0) translate(4 156)">
<title>L4::Ipc::Call_t&lt; RIGHTS &gt;</title>
<polygon fill="white" stroke="transparent" points="-4,4 -4,-156 145,-156 145,4 -4,4"/>
<!-- Node1 -->
<g id="node1" class="node">
<title>Node1</title>
<g id="a_node1"><a xlink:title="RPC attribute for an RPC call with required rights.">
<polygon fill="#bfbfbf" stroke="black" points="0,-0.5 0,-57.5 141,-57.5 141,-0.5 0,-0.5"/>
<text text-anchor="middle" x="70.5" y="-45.5" font-family="Helvetica,sans-Serif" font-size="10.00">L4::Ipc::Call_t&lt; RIGHTS &gt;</text>
<polyline fill="none" stroke="black" points="0,-38.5 141,-38.5 "/>
<text text-anchor="middle" x="70.5" y="-26.5" font-family="Helvetica,sans-Serif" font-size="10.00"> </text>
<polyline fill="none" stroke="black" points="0,-19.5 141,-19.5 "/>
<text text-anchor="middle" x="70.5" y="-7.5" font-family="Helvetica,sans-Serif" font-size="10.00"> </text>
</a>
</g>
</g>
<!-- Node2 -->
<g id="node2" class="node">
<title>Node2</title>
<g id="a_node2"><a xlink:href="structL4_1_1Ipc_1_1Call.html" target="_top" xlink:title="RPC attribute for a standard RPC call.">
<polygon fill="white" stroke="black" points="33.5,-94.5 33.5,-151.5 107.5,-151.5 107.5,-94.5 33.5,-94.5"/>
<text text-anchor="middle" x="70.5" y="-139.5" font-family="Helvetica,sans-Serif" font-size="10.00">L4::Ipc::Call</text>
<polyline fill="none" stroke="black" points="33.5,-132.5 107.5,-132.5 "/>
<text text-anchor="middle" x="70.5" y="-120.5" font-family="Helvetica,sans-Serif" font-size="10.00"> </text>
<polyline fill="none" stroke="black" points="33.5,-113.5 107.5,-113.5 "/>
<text text-anchor="start" x="41.5" y="-101.5" font-family="Helvetica,sans-Serif" font-size="10.00">+ timeout()</text>
</a>
</g>
</g>
<!-- Node2&#45;&gt;Node1 -->
<g id="edge1" class="edge">
<title>Node2&#45;&gt;Node1</title>
<path fill="none" stroke="midnightblue" d="M70.5,-84.21C70.5,-75.29 70.5,-65.95 70.5,-57.58"/>
<polygon fill="none" stroke="midnightblue" points="67,-84.4 70.5,-94.4 74,-84.4 67,-84.4"/>
</g>
</g>
</svg>
