<?xml version="1.0" encoding="UTF-8" standalone="no"?>
<!DOCTYPE svg PUBLIC "-//W3C//DTD SVG 1.1//EN"
 "http://www.w3.org/Graphics/SVG/1.1/DTD/svg11.dtd">
<!-- Generated by graphviz version 2.43.0 (0)
 -->
<!-- Title: L4::Types::False Pages: 1 -->
<svg width="145pt" height="361pt"
 viewBox="0.00 0.00 145.00 361.00" xmlns="http://www.w3.org/2000/svg" xmlns:xlink="http://www.w3.org/1999/xlink">
<g id="graph0" class="graph" transform="scale(1 1) rotate(0) translate(4 357)">
<title>L4::Types::False</title>
<polygon fill="white" stroke="transparent" points="-4,4 -4,-357 141,-357 141,4 -4,4"/>
<!-- Node1 -->
<g id="node1" class="node">
<title>Node1</title>
<g id="a_node1"><a xlink:title="False meta value.">
<polygon fill="#bfbfbf" stroke="black" points="22.5,-95.5 22.5,-152.5 114.5,-152.5 114.5,-95.5 22.5,-95.5"/>
<text text-anchor="middle" x="68.5" y="-140.5" font-family="Helvetica,sans-Serif" font-size="10.00">L4::Types::False</text>
<polyline fill="none" stroke="black" points="22.5,-133.5 114.5,-133.5 "/>
<text text-anchor="middle" x="68.5" y="-121.5" font-family="Helvetica,sans-Serif" font-size="10.00"> </text>
<polyline fill="none" stroke="black" points="22.5,-114.5 114.5,-114.5 "/>
<text text-anchor="middle" x="68.5" y="-102.5" font-family="Helvetica,sans-Serif" font-size="10.00"> </text>
</a>
</g>
</g>
<!-- Node4 -->
<g id="node4" class="node">
<title>Node4</title>
<g id="a_node4"><a xlink:href="structL4_1_1Types_1_1Same.html" target="_top" xlink:title="Compare two data types for equality.">
<polygon fill="white" stroke="black" points="0,-0.5 0,-57.5 137,-57.5 137,-0.5 0,-0.5"/>
<text text-anchor="middle" x="68.5" y="-45.5" font-family="Helvetica,sans-Serif" font-size="10.00">L4::Types::Same&lt; A, B &gt;</text>
<polyline fill="none" stroke="black" points="0,-38.5 137,-38.5 "/>
<text text-anchor="middle" x="68.5" y="-26.5" font-family="Helvetica,sans-Serif" font-size="10.00"> </text>
<polyline fill="none" stroke="black" points="0,-19.5 137,-19.5 "/>
<text text-anchor="middle" x="68.5" y="-7.5" font-family="Helvetica,sans-Serif" font-size="10.00"> </text>
</a>
</g>
</g>
<!-- Node1&#45;&gt;Node4 -->
<g id="edge3" class="edge">
<title>Node1&#45;&gt;Node4</title>
<path fill="none" stroke="midnightblue" d="M68.5,-85.24C68.5,-76.03 68.5,-66.35 68.5,-57.71"/>
<polygon fill="none" stroke="midnightblue" points="65,-85.35 68.5,-95.35 72,-85.35 65,-85.35"/>
</g>
<!-- Node2 -->
<g id="node2" class="node">
<title>Node2</title>
<g id="a_node2"><a xlink:href="structL4_1_1Types_1_1Bool.html" target="_top" xlink:title=" ">
<polygon fill="white" stroke="black" points="0.5,-190.5 0.5,-247.5 136.5,-247.5 136.5,-190.5 0.5,-190.5"/>
<text text-anchor="middle" x="68.5" y="-235.5" font-family="Helvetica,sans-Serif" font-size="10.00">L4::Types::Bool&lt; false &gt;</text>
<polyline fill="none" stroke="black" points="0.5,-228.5 136.5,-228.5 "/>
<text text-anchor="middle" x="68.5" y="-216.5" font-family="Helvetica,sans-Serif" font-size="10.00"> </text>
<polyline fill="none" stroke="black" points="0.5,-209.5 136.5,-209.5 "/>
<text text-anchor="middle" x="68.5" y="-197.5" font-family="Helvetica,sans-Serif" font-size="10.00"> </text>
</a>
</g>
</g>
<!-- Node2&#45;&gt;Node1 -->
<g id="edge1" class="edge">
<title>Node2&#45;&gt;Node1</title>
<path fill="none" stroke="midnightblue" d="M68.5,-180.24C68.5,-171.03 68.5,-161.35 68.5,-152.71"/>
<polygon fill="none" stroke="midnightblue" points="65,-180.35 68.5,-190.35 72,-180.35 65,-180.35"/>
</g>
<!-- Node3 -->
<g id="node3" class="node">
<title>Node3</title>
<g id="a_node3"><a xlink:href="structL4_1_1Types_1_1Bool.html" target="_top" xlink:title="Boolean meta type.">
<polygon fill="white" stroke="black" points="9,-295.5 9,-352.5 128,-352.5 128,-295.5 9,-295.5"/>
<text text-anchor="middle" x="68.5" y="-340.5" font-family="Helvetica,sans-Serif" font-size="10.00">L4::Types::Bool&lt; V &gt;</text>
<polyline fill="none" stroke="black" points="9,-333.5 128,-333.5 "/>
<text text-anchor="middle" x="68.5" y="-321.5" font-family="Helvetica,sans-Serif" font-size="10.00"> </text>
<polyline fill="none" stroke="black" points="9,-314.5 128,-314.5 "/>
<text text-anchor="middle" x="68.5" y="-302.5" font-family="Helvetica,sans-Serif" font-size="10.00"> </text>
</a>
</g>
</g>
<!-- Node3&#45;&gt;Node2 -->
<g id="edge2" class="edge">
<title>Node3&#45;&gt;Node2</title>
<path fill="none" stroke="orange" d="M68.5,-285.29C68.5,-272.84 68.5,-259.23 68.5,-247.68"/>
<polygon fill="orange" stroke="orange" points="65,-285.4 68.5,-295.4 72,-285.4 65,-285.4"/>
<text text-anchor="middle" x="93.5" y="-269" font-family="Helvetica,sans-Serif" font-size="10.00"> &lt; false &gt;</text>
</g>
</g>
</svg>
