<?xml version="1.0" encoding="UTF-8" standalone="no"?>
<!DOCTYPE svg PUBLIC "-//W3C//DTD SVG 1.1//EN"
 "http://www.w3.org/Graphics/SVG/1.1/DTD/svg11.dtd">
<!-- Generated by graphviz version 2.43.0 (0)
 -->
<!-- Title: L4::Ipc_svr::Direct_dispatch&lt; R &gt; Pages: 1 -->
<svg width="146pt" height="204pt"
 viewBox="0.00 0.00 146.00 204.00" xmlns="http://www.w3.org/2000/svg" xmlns:xlink="http://www.w3.org/1999/xlink">
<g id="graph0" class="graph" transform="scale(1 1) rotate(0) translate(4 200)">
<title>L4::Ipc_svr::Direct_dispatch&lt; R &gt;</title>
<polygon fill="white" stroke="transparent" points="-4,4 -4,-200 142,-200 142,4 -4,4"/>
<!-- Node1 -->
<g id="node1" class="node">
<title>Node1</title>
<g id="a_node1"><a xlink:title="Direct dispatch helper, for forwarding dispatch calls to a registry R.">
<polygon fill="#bfbfbf" stroke="black" points="13.5,-116.5 13.5,-195.5 124.5,-195.5 124.5,-116.5 13.5,-116.5"/>
<text text-anchor="start" x="21.5" y="-183.5" font-family="Helvetica,sans-Serif" font-size="10.00">L4::Ipc_svr::Direct</text>
<text text-anchor="middle" x="69" y="-172.5" font-family="Helvetica,sans-Serif" font-size="10.00">_dispatch&lt; R &gt;</text>
<polyline fill="none" stroke="black" points="13.5,-165.5 124.5,-165.5 "/>
<text text-anchor="start" x="21.5" y="-153.5" font-family="Helvetica,sans-Serif" font-size="10.00">+ r</text>
<polyline fill="none" stroke="black" points="13.5,-146.5 124.5,-146.5 "/>
<text text-anchor="start" x="21.5" y="-134.5" font-family="Helvetica,sans-Serif" font-size="10.00">+ Direct_dispatch()</text>
<text text-anchor="start" x="21.5" y="-123.5" font-family="Helvetica,sans-Serif" font-size="10.00">+ operator()()</text>
</a>
</g>
</g>
<!-- Node2 -->
<g id="node2" class="node">
<title>Node2</title>
<g id="a_node2"><a xlink:href="structL4_1_1Ipc__svr_1_1Exc__dispatch.html" target="_top" xlink:title="Dispatch helper wrapping try {} catch {} around the dispatch call.">
<polygon fill="white" stroke="black" points="0,-0.5 0,-79.5 138,-79.5 138,-0.5 0,-0.5"/>
<text text-anchor="start" x="8" y="-67.5" font-family="Helvetica,sans-Serif" font-size="10.00">L4::Ipc_svr::Exc_dispatch</text>
<text text-anchor="middle" x="69" y="-56.5" font-family="Helvetica,sans-Serif" font-size="10.00">&lt; R, Exc &gt;</text>
<polyline fill="none" stroke="black" points="0,-49.5 138,-49.5 "/>
<text text-anchor="middle" x="69" y="-37.5" font-family="Helvetica,sans-Serif" font-size="10.00"> </text>
<polyline fill="none" stroke="black" points="0,-30.5 138,-30.5 "/>
<text text-anchor="start" x="8" y="-18.5" font-family="Helvetica,sans-Serif" font-size="10.00">+ Exc_dispatch()</text>
<text text-anchor="start" x="8" y="-7.5" font-family="Helvetica,sans-Serif" font-size="10.00">+ operator()()</text>
</a>
</g>
</g>
<!-- Node1&#45;&gt;Node2 -->
<g id="edge1" class="edge">
<title>Node1&#45;&gt;Node2</title>
<path fill="none" stroke="#8b1a1a" d="M69,-106.15C69,-97.26 69,-88.1 69,-79.56"/>
<polygon fill="none" stroke="#8b1a1a" points="65.5,-106.4 69,-116.4 72.5,-106.4 65.5,-106.4"/>
</g>
</g>
</svg>
