<?xml version="1.0" encoding="UTF-8" standalone="no"?>
<!DOCTYPE svg PUBLIC "-//W3C//DTD SVG 1.1//EN"
 "http://www.w3.org/Graphics/SVG/1.1/DTD/svg11.dtd">
<!-- Generated by graphviz version 2.43.0 (0)
 -->
<!-- Title: l4re_video_pixel_info_t Pages: 1 -->
<svg width="174pt" height="215pt"
 viewBox="0.00 0.00 174.00 215.00" xmlns="http://www.w3.org/2000/svg" xmlns:xlink="http://www.w3.org/1999/xlink">
<g id="graph0" class="graph" transform="scale(1 1) rotate(0) translate(4 211)">
<title>l4re_video_pixel_info_t</title>
<polygon fill="white" stroke="transparent" points="-4,4 -4,-211 170,-211 170,4 -4,4"/>
<!-- Node1 -->
<g id="node1" class="node">
<title>Node1</title>
<g id="a_node1"><a xlink:title="Pixel_info structure.">
<polygon fill="#bfbfbf" stroke="black" points="18.5,-0.5 18.5,-57.5 147.5,-57.5 147.5,-0.5 18.5,-0.5"/>
<text text-anchor="middle" x="83" y="-45.5" font-family="Helvetica,sans-Serif" font-size="10.00">l4re_video_pixel_info_t</text>
<polyline fill="none" stroke="black" points="18.5,-38.5 147.5,-38.5 "/>
<text text-anchor="start" x="26.5" y="-26.5" font-family="Helvetica,sans-Serif" font-size="10.00">+ bytes_per_pixel</text>
<polyline fill="none" stroke="black" points="18.5,-19.5 147.5,-19.5 "/>
<text text-anchor="middle" x="83" y="-7.5" font-family="Helvetica,sans-Serif" font-size="10.00"> </text>
</a>
</g>
</g>
<!-- Node2 -->
<g id="node2" class="node">
<title>Node2</title>
<g id="a_node2"><a xlink:href="structl4re__video__color__component__t.html" target="_top" xlink:title="Color component structure.">
<polygon fill="white" stroke="black" points="0,-138.5 0,-206.5 166,-206.5 166,-138.5 0,-138.5"/>
<text text-anchor="middle" x="83" y="-194.5" font-family="Helvetica,sans-Serif" font-size="10.00">l4re_video_color_component_t</text>
<polyline fill="none" stroke="black" points="0,-187.5 166,-187.5 "/>
<text text-anchor="start" x="8" y="-175.5" font-family="Helvetica,sans-Serif" font-size="10.00">+ size</text>
<text text-anchor="start" x="8" y="-164.5" font-family="Helvetica,sans-Serif" font-size="10.00">+ shift</text>
<polyline fill="none" stroke="black" points="0,-157.5 166,-157.5 "/>
<text text-anchor="middle" x="83" y="-145.5" font-family="Helvetica,sans-Serif" font-size="10.00"> </text>
</a>
</g>
</g>
<!-- Node2&#45;&gt;Node1 -->
<g id="edge1" class="edge">
<title>Node2&#45;&gt;Node1</title>
<path fill="none" stroke="#404040" d="M83,-138.32C83,-117.84 83,-91.43 83,-69.82"/>
<polygon fill="none" stroke="#404040" points="83,-69.73 79,-63.73 83,-57.73 87,-63.73 83,-69.73"/>
<text text-anchor="middle" x="92" y="-112" font-family="Helvetica,sans-Serif" font-size="10.00"> +a</text>
<text text-anchor="middle" x="92" y="-101" font-family="Helvetica,sans-Serif" font-size="10.00">+b</text>
<text text-anchor="middle" x="92" y="-90" font-family="Helvetica,sans-Serif" font-size="10.00">+g</text>
<text text-anchor="middle" x="92" y="-79" font-family="Helvetica,sans-Serif" font-size="10.00">+r</text>
</g>
</g>
</svg>
