<?xml version="1.0" encoding="UTF-8" standalone="no"?>
<!DOCTYPE svg PUBLIC "-//W3C//DTD SVG 1.1//EN"
 "http://www.w3.org/Graphics/SVG/1.1/DTD/svg11.dtd">
<!-- Generated by graphviz version 2.43.0 (0)
 -->
<!-- Title: L4::Typeid::Rpcs_code&lt; OPCODE_TYPE &gt;::F&lt; RPCS &gt; Pages: 1 -->
<svg width="288pt" height="416pt"
 viewBox="0.00 0.00 288.00 416.00" xmlns="http://www.w3.org/2000/svg" xmlns:xlink="http://www.w3.org/1999/xlink">
<g id="graph0" class="graph" transform="scale(1 1) rotate(0) translate(4 412)">
<title>L4::Typeid::Rpcs_code&lt; OPCODE_TYPE &gt;::F&lt; RPCS &gt;</title>
<polygon fill="white" stroke="transparent" points="-4,4 -4,-412 284,-412 284,4 -4,4"/>
<!-- Node1 -->
<g id="node1" class="node">
<title>Node1</title>
<g id="a_node1"><a xlink:title=" ">
<polygon fill="#bfbfbf" stroke="black" points="0,-0.5 0,-68.5 170,-68.5 170,-0.5 0,-0.5"/>
<text text-anchor="start" x="8" y="-56.5" font-family="Helvetica,sans-Serif" font-size="10.00">L4::Typeid::Rpcs_code</text>
<text text-anchor="middle" x="85" y="-45.5" font-family="Helvetica,sans-Serif" font-size="10.00">&lt; OPCODE_TYPE &gt;::F&lt; RPCS &gt;</text>
<polyline fill="none" stroke="black" points="0,-38.5 170,-38.5 "/>
<text text-anchor="middle" x="85" y="-26.5" font-family="Helvetica,sans-Serif" font-size="10.00"> </text>
<polyline fill="none" stroke="black" points="0,-19.5 170,-19.5 "/>
<text text-anchor="middle" x="85" y="-7.5" font-family="Helvetica,sans-Serif" font-size="10.00"> </text>
</a>
</g>
</g>
<!-- Node2 -->
<g id="node2" class="node">
<title>Node2</title>
<g id="a_node2"><a xlink:href="structL4_1_1Typeid_1_1Detail_1_1__Rpcs.html" target="_top" xlink:title=" ">
<polygon fill="white" stroke="black" points="17,-106.5 17,-185.5 153,-185.5 153,-106.5 17,-106.5"/>
<text text-anchor="start" x="25" y="-173.5" font-family="Helvetica,sans-Serif" font-size="10.00">L4::Typeid::Detail</text>
<text text-anchor="start" x="25" y="-162.5" font-family="Helvetica,sans-Serif" font-size="10.00">::_Rpcs&lt; OPCODE_TYPE,</text>
<text text-anchor="middle" x="85" y="-151.5" font-family="Helvetica,sans-Serif" font-size="10.00"> 0, RPCS... &gt;</text>
<polyline fill="none" stroke="black" points="17,-144.5 153,-144.5 "/>
<text text-anchor="middle" x="85" y="-132.5" font-family="Helvetica,sans-Serif" font-size="10.00"> </text>
<polyline fill="none" stroke="black" points="17,-125.5 153,-125.5 "/>
<text text-anchor="middle" x="85" y="-113.5" font-family="Helvetica,sans-Serif" font-size="10.00"> </text>
</a>
</g>
</g>
<!-- Node2&#45;&gt;Node1 -->
<g id="edge1" class="edge">
<title>Node2&#45;&gt;Node1</title>
<path fill="none" stroke="midnightblue" d="M85,-96.38C85,-87.02 85,-77.41 85,-68.67"/>
<polygon fill="none" stroke="midnightblue" points="81.5,-96.39 85,-106.39 88.5,-96.39 81.5,-96.39"/>
</g>
<!-- Node3 -->
<g id="node3" class="node">
<title>Node3</title>
<g id="a_node3"><a xlink:href="structL4_1_1Typeid_1_1Detail_1_1Rpcs__end.html" target="_top" xlink:title="Internal end&#45;of&#45;list marker.">
<polygon fill="white" stroke="black" points="30.5,-339.5 30.5,-407.5 131.5,-407.5 131.5,-339.5 30.5,-339.5"/>
<text text-anchor="start" x="38.5" y="-395.5" font-family="Helvetica,sans-Serif" font-size="10.00">L4::Typeid::Detail</text>
<text text-anchor="middle" x="81" y="-384.5" font-family="Helvetica,sans-Serif" font-size="10.00">::Rpcs_end</text>
<polyline fill="none" stroke="black" points="30.5,-377.5 131.5,-377.5 "/>
<text text-anchor="middle" x="81" y="-365.5" font-family="Helvetica,sans-Serif" font-size="10.00"> </text>
<polyline fill="none" stroke="black" points="30.5,-358.5 131.5,-358.5 "/>
<text text-anchor="middle" x="81" y="-346.5" font-family="Helvetica,sans-Serif" font-size="10.00"> </text>
</a>
</g>
</g>
<!-- Node3&#45;&gt;Node2 -->
<g id="edge2" class="edge">
<title>Node3&#45;&gt;Node2</title>
<path fill="none" stroke="midnightblue" d="M81.77,-329.14C82.51,-287.63 83.61,-225.59 84.31,-185.71"/>
<polygon fill="none" stroke="midnightblue" points="78.27,-329.17 81.59,-339.23 85.27,-329.29 78.27,-329.17"/>
</g>
<!-- Node4 -->
<g id="node4" class="node">
<title>Node4</title>
<g id="a_node4"><a xlink:href="structL4_1_1Typeid_1_1Detail_1_1__Rpcs.html" target="_top" xlink:title="Empty list of RPCs.">
<polygon fill="white" stroke="black" points="97.5,-233.5 97.5,-301.5 238.5,-301.5 238.5,-233.5 97.5,-233.5"/>
<text text-anchor="start" x="105.5" y="-289.5" font-family="Helvetica,sans-Serif" font-size="10.00">L4::Typeid::Detail</text>
<text text-anchor="middle" x="168" y="-278.5" font-family="Helvetica,sans-Serif" font-size="10.00">::_Rpcs&lt; OPCODE, O, X &gt;</text>
<polyline fill="none" stroke="black" points="97.5,-271.5 238.5,-271.5 "/>
<text text-anchor="middle" x="168" y="-259.5" font-family="Helvetica,sans-Serif" font-size="10.00"> </text>
<polyline fill="none" stroke="black" points="97.5,-252.5 238.5,-252.5 "/>
<text text-anchor="middle" x="168" y="-240.5" font-family="Helvetica,sans-Serif" font-size="10.00"> </text>
</a>
</g>
</g>
<!-- Node3&#45;&gt;Node4 -->
<g id="edge4" class="edge">
<title>Node3&#45;&gt;Node4</title>
<path fill="none" stroke="midnightblue" d="M115.27,-331.53C123.54,-321.65 132.27,-311.21 140.2,-301.73"/>
<polygon fill="none" stroke="midnightblue" points="112.5,-329.39 108.77,-339.31 117.87,-333.88 112.5,-329.39"/>
</g>
<!-- Node4&#45;&gt;Node2 -->
<g id="edge3" class="edge">
<title>Node4&#45;&gt;Node2</title>
<path fill="none" stroke="orange" d="M138.93,-224.65C130.11,-211.95 120.47,-198.07 111.81,-185.6"/>
<polygon fill="orange" stroke="orange" points="136.3,-227 144.88,-233.21 142.05,-223 136.3,-227"/>
<text text-anchor="middle" x="205.5" y="-207" font-family="Helvetica,sans-Serif" font-size="10.00"> &lt; OPCODE_TYPE, 0, RPCS... &gt;</text>
</g>
</g>
</svg>
