<?xml version="1.0" encoding="UTF-8" standalone="no"?>
<!DOCTYPE svg PUBLIC "-//W3C//DTD SVG 1.1//EN"
 "http://www.w3.org/Graphics/SVG/1.1/DTD/svg11.dtd">
<!-- Generated by graphviz version 2.43.0 (0)
 -->
<!-- Title: L4::Ipc::Msg::Dir_in Pages: 1 -->
<svg width="402pt" height="171pt"
 viewBox="0.00 0.00 401.50 171.00" xmlns="http://www.w3.org/2000/svg" xmlns:xlink="http://www.w3.org/1999/xlink">
<g id="graph0" class="graph" transform="scale(1 1) rotate(0) translate(4 167)">
<title>L4::Ipc::Msg::Dir_in</title>
<polygon fill="white" stroke="transparent" points="-4,4 -4,-167 397.5,-167 397.5,4 -4,4"/>
<!-- Node1 -->
<g id="node1" class="node">
<title>Node1</title>
<g id="a_node1"><a xlink:title="Marker type for input values.">
<polygon fill="#bfbfbf" stroke="black" points="153,-105.5 153,-162.5 262,-162.5 262,-105.5 153,-105.5"/>
<text text-anchor="middle" x="207.5" y="-150.5" font-family="Helvetica,sans-Serif" font-size="10.00">L4::Ipc::Msg::Dir_in</text>
<polyline fill="none" stroke="black" points="153,-143.5 262,-143.5 "/>
<text text-anchor="middle" x="207.5" y="-131.5" font-family="Helvetica,sans-Serif" font-size="10.00"> </text>
<polyline fill="none" stroke="black" points="153,-124.5 262,-124.5 "/>
<text text-anchor="middle" x="207.5" y="-112.5" font-family="Helvetica,sans-Serif" font-size="10.00"> </text>
</a>
</g>
</g>
<!-- Node2 -->
<g id="node2" class="node">
<title>Node2</title>
<g id="a_node2"><a xlink:href="structL4_1_1Ipc_1_1Msg_1_1Do__in__data.html" target="_top" xlink:title="Marker for Input data.">
<polygon fill="white" stroke="black" points="0,-6 0,-63 135,-63 135,-6 0,-6"/>
<text text-anchor="middle" x="67.5" y="-51" font-family="Helvetica,sans-Serif" font-size="10.00">L4::Ipc::Msg::Do_in_data</text>
<polyline fill="none" stroke="black" points="0,-44 135,-44 "/>
<text text-anchor="middle" x="67.5" y="-32" font-family="Helvetica,sans-Serif" font-size="10.00"> </text>
<polyline fill="none" stroke="black" points="0,-25 135,-25 "/>
<text text-anchor="middle" x="67.5" y="-13" font-family="Helvetica,sans-Serif" font-size="10.00"> </text>
</a>
</g>
</g>
<!-- Node1&#45;&gt;Node2 -->
<g id="edge1" class="edge">
<title>Node1&#45;&gt;Node2</title>
<path fill="none" stroke="midnightblue" d="M159.11,-99.3C142.22,-87.54 123.46,-74.47 107.34,-63.25"/>
<polygon fill="none" stroke="midnightblue" points="157.55,-102.48 167.76,-105.32 161.55,-96.73 157.55,-102.48"/>
</g>
<!-- Node3 -->
<g id="node3" class="node">
<title>Node3</title>
<g id="a_node3"><a xlink:href="structL4_1_1Ipc_1_1Msg_1_1Do__in__items.html" target="_top" xlink:title="Marker for Input items.">
<polygon fill="white" stroke="black" points="153.5,-0.5 153.5,-68.5 261.5,-68.5 261.5,-0.5 153.5,-0.5"/>
<text text-anchor="start" x="161.5" y="-56.5" font-family="Helvetica,sans-Serif" font-size="10.00">L4::Ipc::Msg::Do_in</text>
<text text-anchor="middle" x="207.5" y="-45.5" font-family="Helvetica,sans-Serif" font-size="10.00">_items</text>
<polyline fill="none" stroke="black" points="153.5,-38.5 261.5,-38.5 "/>
<text text-anchor="middle" x="207.5" y="-26.5" font-family="Helvetica,sans-Serif" font-size="10.00"> </text>
<polyline fill="none" stroke="black" points="153.5,-19.5 261.5,-19.5 "/>
<text text-anchor="middle" x="207.5" y="-7.5" font-family="Helvetica,sans-Serif" font-size="10.00"> </text>
</a>
</g>
</g>
<!-- Node1&#45;&gt;Node3 -->
<g id="edge2" class="edge">
<title>Node1&#45;&gt;Node3</title>
<path fill="none" stroke="midnightblue" d="M207.5,-95.06C207.5,-86.39 207.5,-77.24 207.5,-68.79"/>
<polygon fill="none" stroke="midnightblue" points="204,-95.32 207.5,-105.32 211,-95.32 204,-95.32"/>
</g>
<!-- Node4 -->
<g id="node4" class="node">
<title>Node4</title>
<g id="a_node4"><a xlink:href="structL4_1_1Ipc_1_1Msg_1_1Do__rcv__buffers.html" target="_top" xlink:title="Marker for receive buffers.">
<polygon fill="white" stroke="black" points="279.5,-0.5 279.5,-68.5 393.5,-68.5 393.5,-0.5 279.5,-0.5"/>
<text text-anchor="start" x="287.5" y="-56.5" font-family="Helvetica,sans-Serif" font-size="10.00">L4::Ipc::Msg::Do_rcv</text>
<text text-anchor="middle" x="336.5" y="-45.5" font-family="Helvetica,sans-Serif" font-size="10.00">_buffers</text>
<polyline fill="none" stroke="black" points="279.5,-38.5 393.5,-38.5 "/>
<text text-anchor="middle" x="336.5" y="-26.5" font-family="Helvetica,sans-Serif" font-size="10.00"> </text>
<polyline fill="none" stroke="black" points="279.5,-19.5 393.5,-19.5 "/>
<text text-anchor="middle" x="336.5" y="-7.5" font-family="Helvetica,sans-Serif" font-size="10.00"> </text>
</a>
</g>
</g>
<!-- Node1&#45;&gt;Node4 -->
<g id="edge3" class="edge">
<title>Node1&#45;&gt;Node4</title>
<path fill="none" stroke="midnightblue" d="M252.45,-99.03C265.42,-89.23 279.55,-78.54 292.46,-68.79"/>
<polygon fill="none" stroke="midnightblue" points="249.99,-96.5 244.12,-105.32 254.21,-102.08 249.99,-96.5"/>
</g>
</g>
</svg>
