<?xml version="1.0" encoding="UTF-8" standalone="no"?>
<!DOCTYPE svg PUBLIC "-//W3C//DTD SVG 1.1//EN"
 "http://www.w3.org/Graphics/SVG/1.1/DTD/svg11.dtd">
<!-- Generated by graphviz version 2.43.0 (0)
 -->
<!-- Title: l4_vm_svm_vmcb_state_save_area Pages: 1 -->
<svg width="143pt" height="446pt"
 viewBox="0.00 0.00 143.00 446.00" xmlns="http://www.w3.org/2000/svg" xmlns:xlink="http://www.w3.org/1999/xlink">
<g id="graph0" class="graph" transform="scale(1 1) rotate(0) translate(4 442)">
<title>l4_vm_svm_vmcb_state_save_area</title>
<polygon fill="white" stroke="transparent" points="-4,4 -4,-442 139,-442 139,4 -4,4"/>
<!-- Node1 -->
<g id="node1" class="node">
<title>Node1</title>
<g id="a_node1"><a xlink:title="State save area structure for SVM VMs.">
<polygon fill="#bfbfbf" stroke="black" points="0,-0.5 0,-178.5 135,-178.5 135,-0.5 0,-0.5"/>
<text text-anchor="start" x="8" y="-166.5" font-family="Helvetica,sans-Serif" font-size="10.00">l4_vm_svm_vmcb_state</text>
<text text-anchor="middle" x="67.5" y="-155.5" font-family="Helvetica,sans-Serif" font-size="10.00">_save_area</text>
<polyline fill="none" stroke="black" points="0,-148.5 135,-148.5 "/>
<text text-anchor="start" x="8" y="-136.5" font-family="Helvetica,sans-Serif" font-size="10.00">+ _reserved0</text>
<text text-anchor="start" x="8" y="-125.5" font-family="Helvetica,sans-Serif" font-size="10.00">+ cpl</text>
<text text-anchor="start" x="8" y="-114.5" font-family="Helvetica,sans-Serif" font-size="10.00">+ _reserved1</text>
<text text-anchor="start" x="8" y="-103.5" font-family="Helvetica,sans-Serif" font-size="10.00">+ efer</text>
<text text-anchor="start" x="8" y="-92.5" font-family="Helvetica,sans-Serif" font-size="10.00">+ _reserved2</text>
<text text-anchor="start" x="8" y="-81.5" font-family="Helvetica,sans-Serif" font-size="10.00">+ cr4</text>
<text text-anchor="start" x="8" y="-70.5" font-family="Helvetica,sans-Serif" font-size="10.00">+ cr3</text>
<text text-anchor="start" x="8" y="-59.5" font-family="Helvetica,sans-Serif" font-size="10.00">+ cr0</text>
<text text-anchor="start" x="8" y="-48.5" font-family="Helvetica,sans-Serif" font-size="10.00">+ dr7</text>
<text text-anchor="start" x="8" y="-37.5" font-family="Helvetica,sans-Serif" font-size="10.00">+ dr6</text>
<text text-anchor="start" x="8" y="-26.5" font-family="Helvetica,sans-Serif" font-size="10.00">and 24 more...</text>
<polyline fill="none" stroke="black" points="0,-19.5 135,-19.5 "/>
<text text-anchor="middle" x="67.5" y="-7.5" font-family="Helvetica,sans-Serif" font-size="10.00"> </text>
</a>
</g>
</g>
<!-- Node2 -->
<g id="node2" class="node">
<title>Node2</title>
<g id="a_node2"><a xlink:href="structl4__vm__svm__vmcb__state__save__area__seg.html" target="_top" xlink:title="State save area segment selector struct.">
<polygon fill="white" stroke="black" points="0,-336.5 0,-437.5 135,-437.5 135,-336.5 0,-336.5"/>
<text text-anchor="start" x="8" y="-425.5" font-family="Helvetica,sans-Serif" font-size="10.00">l4_vm_svm_vmcb_state</text>
<text text-anchor="middle" x="67.5" y="-414.5" font-family="Helvetica,sans-Serif" font-size="10.00">_save_area_seg</text>
<polyline fill="none" stroke="black" points="0,-407.5 135,-407.5 "/>
<text text-anchor="start" x="8" y="-395.5" font-family="Helvetica,sans-Serif" font-size="10.00">+ selector</text>
<text text-anchor="start" x="8" y="-384.5" font-family="Helvetica,sans-Serif" font-size="10.00">+ attrib</text>
<text text-anchor="start" x="8" y="-373.5" font-family="Helvetica,sans-Serif" font-size="10.00">+ limit</text>
<text text-anchor="start" x="8" y="-362.5" font-family="Helvetica,sans-Serif" font-size="10.00">+ base</text>
<polyline fill="none" stroke="black" points="0,-355.5 135,-355.5 "/>
<text text-anchor="middle" x="67.5" y="-343.5" font-family="Helvetica,sans-Serif" font-size="10.00"> </text>
</a>
</g>
</g>
<!-- Node2&#45;&gt;Node1 -->
<g id="edge1" class="edge">
<title>Node2&#45;&gt;Node1</title>
<path fill="none" stroke="#404040" d="M67.5,-336.21C67.5,-296.55 67.5,-239.77 67.5,-190.78"/>
<polygon fill="none" stroke="#404040" points="67.5,-190.51 63.5,-184.51 67.5,-178.51 71.5,-184.51 67.5,-190.51"/>
<text text-anchor="middle" x="81.5" y="-310" font-family="Helvetica,sans-Serif" font-size="10.00"> +cs</text>
<text text-anchor="middle" x="81.5" y="-299" font-family="Helvetica,sans-Serif" font-size="10.00">+ds</text>
<text text-anchor="middle" x="81.5" y="-288" font-family="Helvetica,sans-Serif" font-size="10.00">+es</text>
<text text-anchor="middle" x="81.5" y="-277" font-family="Helvetica,sans-Serif" font-size="10.00">+fs</text>
<text text-anchor="middle" x="81.5" y="-266" font-family="Helvetica,sans-Serif" font-size="10.00">+gdtr</text>
<text text-anchor="middle" x="81.5" y="-255" font-family="Helvetica,sans-Serif" font-size="10.00">+gs</text>
<text text-anchor="middle" x="81.5" y="-244" font-family="Helvetica,sans-Serif" font-size="10.00">+idtr</text>
<text text-anchor="middle" x="81.5" y="-233" font-family="Helvetica,sans-Serif" font-size="10.00">+ldtr</text>
<text text-anchor="middle" x="81.5" y="-222" font-family="Helvetica,sans-Serif" font-size="10.00">+ss</text>
<text text-anchor="middle" x="81.5" y="-211" font-family="Helvetica,sans-Serif" font-size="10.00">+tr</text>
<text text-anchor="middle" x="81.5" y="-200" font-family="Helvetica,sans-Serif" font-size="10.00">...</text>
</g>
</g>
</svg>
