<?xml version="1.0" encoding="UTF-8" standalone="no"?>
<!DOCTYPE svg PUBLIC "-//W3C//DTD SVG 1.1//EN"
 "http://www.w3.org/Graphics/SVG/1.1/DTD/svg11.dtd">
<!-- Generated by graphviz version 2.43.0 (0)
 -->
<!-- Title: L4::Ipc::Msg::Do_out_data Pages: 1 -->
<svg width="264pt" height="160pt"
 viewBox="0.00 0.00 264.00 160.00" xmlns="http://www.w3.org/2000/svg" xmlns:xlink="http://www.w3.org/1999/xlink">
<g id="graph0" class="graph" transform="scale(1 1) rotate(0) translate(4 156)">
<title>L4::Ipc::Msg::Do_out_data</title>
<polygon fill="white" stroke="transparent" points="-4,4 -4,-156 260,-156 260,4 -4,4"/>
<!-- Node1 -->
<g id="node1" class="node">
<title>Node1</title>
<g id="a_node1"><a xlink:title="Marker for Output data.">
<polygon fill="#bfbfbf" stroke="black" points="55,-0.5 55,-57.5 197,-57.5 197,-0.5 55,-0.5"/>
<text text-anchor="middle" x="126" y="-45.5" font-family="Helvetica,sans-Serif" font-size="10.00">L4::Ipc::Msg::Do_out_data</text>
<polyline fill="none" stroke="black" points="55,-38.5 197,-38.5 "/>
<text text-anchor="middle" x="126" y="-26.5" font-family="Helvetica,sans-Serif" font-size="10.00"> </text>
<polyline fill="none" stroke="black" points="55,-19.5 197,-19.5 "/>
<text text-anchor="middle" x="126" y="-7.5" font-family="Helvetica,sans-Serif" font-size="10.00"> </text>
</a>
</g>
</g>
<!-- Node2 -->
<g id="node2" class="node">
<title>Node2</title>
<g id="a_node2"><a xlink:href="structL4_1_1Ipc_1_1Msg_1_1Dir__out.html" target="_top" xlink:title="Marker type for output values.">
<polygon fill="white" stroke="black" points="0,-94.5 0,-151.5 116,-151.5 116,-94.5 0,-94.5"/>
<text text-anchor="middle" x="58" y="-139.5" font-family="Helvetica,sans-Serif" font-size="10.00">L4::Ipc::Msg::Dir_out</text>
<polyline fill="none" stroke="black" points="0,-132.5 116,-132.5 "/>
<text text-anchor="middle" x="58" y="-120.5" font-family="Helvetica,sans-Serif" font-size="10.00"> </text>
<polyline fill="none" stroke="black" points="0,-113.5 116,-113.5 "/>
<text text-anchor="middle" x="58" y="-101.5" font-family="Helvetica,sans-Serif" font-size="10.00"> </text>
</a>
</g>
</g>
<!-- Node2&#45;&gt;Node1 -->
<g id="edge1" class="edge">
<title>Node2&#45;&gt;Node1</title>
<path fill="none" stroke="midnightblue" d="M84.43,-86.24C91.47,-76.72 98.96,-66.59 105.61,-57.58"/>
<polygon fill="none" stroke="midnightblue" points="81.53,-84.27 78.4,-94.4 87.16,-88.44 81.53,-84.27"/>
</g>
<!-- Node3 -->
<g id="node3" class="node">
<title>Node3</title>
<g id="a_node3"><a xlink:href="structL4_1_1Ipc_1_1Msg_1_1Cls__data.html" target="_top" xlink:title="Marker type for data values.">
<polygon fill="white" stroke="black" points="134,-94.5 134,-151.5 256,-151.5 256,-94.5 134,-94.5"/>
<text text-anchor="middle" x="195" y="-139.5" font-family="Helvetica,sans-Serif" font-size="10.00">L4::Ipc::Msg::Cls_data</text>
<polyline fill="none" stroke="black" points="134,-132.5 256,-132.5 "/>
<text text-anchor="middle" x="195" y="-120.5" font-family="Helvetica,sans-Serif" font-size="10.00"> </text>
<polyline fill="none" stroke="black" points="134,-113.5 256,-113.5 "/>
<text text-anchor="middle" x="195" y="-101.5" font-family="Helvetica,sans-Serif" font-size="10.00"> </text>
</a>
</g>
</g>
<!-- Node3&#45;&gt;Node1 -->
<g id="edge2" class="edge">
<title>Node3&#45;&gt;Node1</title>
<path fill="none" stroke="midnightblue" d="M168.18,-86.24C161.04,-76.72 153.44,-66.59 146.69,-57.58"/>
<polygon fill="none" stroke="midnightblue" points="165.5,-88.5 174.3,-94.4 171.1,-84.3 165.5,-88.5"/>
</g>
</g>
</svg>
