<?xml version="1.0" encoding="UTF-8" standalone="no"?>
<!DOCTYPE svg PUBLIC "-//W3C//DTD SVG 1.1//EN"
 "http://www.w3.org/Graphics/SVG/1.1/DTD/svg11.dtd">
<!-- Generated by graphviz version 2.43.0 (0)
 -->
<!-- Title: L4::Irq_mux Pages: 1 -->
<svg width="305pt" height="565pt"
 viewBox="0.00 0.00 304.50 565.00" xmlns="http://www.w3.org/2000/svg" xmlns:xlink="http://www.w3.org/1999/xlink">
<g id="graph0" class="graph" transform="scale(1 1) rotate(0) translate(4 561)">
<title>L4::Irq_mux</title>
<polygon fill="white" stroke="transparent" points="-4,4 -4,-561 300.5,-561 300.5,4 -4,4"/>
<!-- Node1 -->
<g id="node1" class="node">
<title>Node1</title>
<g id="a_node1"><a xlink:title="IRQ multiplexer for shared IRQs.">
<polygon fill="#bfbfbf" stroke="black" points="119.5,-0.5 119.5,-57.5 193.5,-57.5 193.5,-0.5 119.5,-0.5"/>
<text text-anchor="middle" x="156.5" y="-45.5" font-family="Helvetica,sans-Serif" font-size="10.00">L4::Irq_mux</text>
<polyline fill="none" stroke="black" points="119.5,-38.5 193.5,-38.5 "/>
<text text-anchor="middle" x="156.5" y="-26.5" font-family="Helvetica,sans-Serif" font-size="10.00"> </text>
<polyline fill="none" stroke="black" points="119.5,-19.5 193.5,-19.5 "/>
<text text-anchor="start" x="127.5" y="-7.5" font-family="Helvetica,sans-Serif" font-size="10.00">+ chain()</text>
</a>
</g>
</g>
<!-- Node2 -->
<g id="node2" class="node">
<title>Node2</title>
<g id="a_node2"><a xlink:href="classL4_1_1Kobject__t.html" target="_top" xlink:title=" ">
<polygon fill="white" stroke="black" points="89,-95.5 89,-185.5 224,-185.5 224,-95.5 89,-95.5"/>
<text text-anchor="start" x="97" y="-173.5" font-family="Helvetica,sans-Serif" font-size="10.00">L4::Kobject_t&lt; Irq</text>
<text text-anchor="start" x="97" y="-162.5" font-family="Helvetica,sans-Serif" font-size="10.00">_mux, Triggerable, L4</text>
<text text-anchor="middle" x="156.5" y="-151.5" font-family="Helvetica,sans-Serif" font-size="10.00">_PROTO_IRQ_MUX &gt;</text>
<polyline fill="none" stroke="black" points="89,-144.5 224,-144.5 "/>
<text text-anchor="middle" x="156.5" y="-132.5" font-family="Helvetica,sans-Serif" font-size="10.00"> </text>
<polyline fill="none" stroke="black" points="89,-125.5 224,-125.5 "/>
<text text-anchor="start" x="97" y="-113.5" font-family="Helvetica,sans-Serif" font-size="10.00"># c()</text>
<text text-anchor="start" x="97" y="-102.5" font-family="Helvetica,sans-Serif" font-size="10.00"># __check_protocols__()</text>
</a>
</g>
</g>
<!-- Node2&#45;&gt;Node1 -->
<g id="edge1" class="edge">
<title>Node2&#45;&gt;Node1</title>
<path fill="none" stroke="midnightblue" d="M156.5,-85.04C156.5,-75.56 156.5,-66.06 156.5,-57.69"/>
<polygon fill="none" stroke="midnightblue" points="153,-85.28 156.5,-95.28 160,-85.28 153,-85.28"/>
</g>
<!-- Node3 -->
<g id="node3" class="node">
<title>Node3</title>
<g id="a_node3"><a xlink:href="structL4_1_1Triggerable.html" target="_top" xlink:title="Interface that allows an object to be triggered by some source.">
<polygon fill="white" stroke="black" points="70.5,-223.5 70.5,-280.5 158.5,-280.5 158.5,-223.5 70.5,-223.5"/>
<text text-anchor="middle" x="114.5" y="-268.5" font-family="Helvetica,sans-Serif" font-size="10.00">L4::Triggerable</text>
<polyline fill="none" stroke="black" points="70.5,-261.5 158.5,-261.5 "/>
<text text-anchor="middle" x="114.5" y="-249.5" font-family="Helvetica,sans-Serif" font-size="10.00"> </text>
<polyline fill="none" stroke="black" points="70.5,-242.5 158.5,-242.5 "/>
<text text-anchor="start" x="78.5" y="-230.5" font-family="Helvetica,sans-Serif" font-size="10.00">+ trigger()</text>
</a>
</g>
</g>
<!-- Node3&#45;&gt;Node2 -->
<g id="edge2" class="edge">
<title>Node3&#45;&gt;Node2</title>
<path fill="none" stroke="midnightblue" d="M128.73,-213.89C132.2,-204.85 135.95,-195.08 139.53,-185.74"/>
<polygon fill="none" stroke="midnightblue" points="125.41,-212.78 125.1,-223.37 131.95,-215.29 125.41,-212.78"/>
</g>
<!-- Node4 -->
<g id="node4" class="node">
<title>Node4</title>
<g id="a_node4"><a xlink:href="classL4_1_1Kobject__t.html" target="_top" xlink:title=" ">
<polygon fill="white" stroke="black" points="0,-339.5 0,-418.5 147,-418.5 147,-339.5 0,-339.5"/>
<text text-anchor="start" x="8" y="-406.5" font-family="Helvetica,sans-Serif" font-size="10.00">L4::Kobject_t&lt; Triggerable,</text>
<text text-anchor="middle" x="73.5" y="-395.5" font-family="Helvetica,sans-Serif" font-size="10.00"> Irq_eoi, L4_PROTO_IRQ &gt;</text>
<polyline fill="none" stroke="black" points="0,-388.5 147,-388.5 "/>
<text text-anchor="middle" x="73.5" y="-376.5" font-family="Helvetica,sans-Serif" font-size="10.00"> </text>
<polyline fill="none" stroke="black" points="0,-369.5 147,-369.5 "/>
<text text-anchor="start" x="8" y="-357.5" font-family="Helvetica,sans-Serif" font-size="10.00"># c()</text>
<text text-anchor="start" x="8" y="-346.5" font-family="Helvetica,sans-Serif" font-size="10.00"># __check_protocols__()</text>
</a>
</g>
</g>
<!-- Node4&#45;&gt;Node3 -->
<g id="edge3" class="edge">
<title>Node4&#45;&gt;Node3</title>
<path fill="none" stroke="midnightblue" d="M89.27,-329.91C94.71,-313.33 100.62,-295.31 105.35,-280.88"/>
<polygon fill="none" stroke="midnightblue" points="85.93,-328.88 86.14,-339.48 92.58,-331.06 85.93,-328.88"/>
</g>
<!-- Node5 -->
<g id="node5" class="node">
<title>Node5</title>
<g id="a_node5"><a xlink:href="classL4_1_1Irq__eoi.html" target="_top" xlink:title="Interface for sending an acknowledge message to an object.">
<polygon fill="white" stroke="black" points="3.5,-488.5 3.5,-545.5 77.5,-545.5 77.5,-488.5 3.5,-488.5"/>
<text text-anchor="middle" x="40.5" y="-533.5" font-family="Helvetica,sans-Serif" font-size="10.00">L4::Irq_eoi</text>
<polyline fill="none" stroke="black" points="3.5,-526.5 77.5,-526.5 "/>
<text text-anchor="middle" x="40.5" y="-514.5" font-family="Helvetica,sans-Serif" font-size="10.00"> </text>
<polyline fill="none" stroke="black" points="3.5,-507.5 77.5,-507.5 "/>
<text text-anchor="start" x="11.5" y="-495.5" font-family="Helvetica,sans-Serif" font-size="10.00">+ unmask()</text>
</a>
</g>
</g>
<!-- Node5&#45;&gt;Node4 -->
<g id="edge4" class="edge">
<title>Node5&#45;&gt;Node4</title>
<path fill="none" stroke="midnightblue" d="M46.04,-478.24C48.27,-465.1 51.12,-450.32 54.5,-437 56.01,-431.03 57.84,-424.79 59.75,-418.72"/>
<polygon fill="none" stroke="midnightblue" points="42.54,-477.94 44.38,-488.37 49.45,-479.06 42.54,-477.94"/>
</g>
<!-- Node6 -->
<g id="node6" class="node">
<title>Node6</title>
<g id="a_node6"><a xlink:href="classL4_1_1Kobject__t.html" target="_top" xlink:title="Helper class to create an L4Re interface class that is derived from a single base class.">
<polygon fill="white" stroke="black" points="108.5,-477.5 108.5,-556.5 264.5,-556.5 264.5,-477.5 108.5,-477.5"/>
<text text-anchor="start" x="116.5" y="-544.5" font-family="Helvetica,sans-Serif" font-size="10.00">L4::Kobject_t&lt; Derived,</text>
<text text-anchor="middle" x="186.5" y="-533.5" font-family="Helvetica,sans-Serif" font-size="10.00"> Base, PROTO, S_DEMAND &gt;</text>
<polyline fill="none" stroke="black" points="108.5,-526.5 264.5,-526.5 "/>
<text text-anchor="middle" x="186.5" y="-514.5" font-family="Helvetica,sans-Serif" font-size="10.00"> </text>
<polyline fill="none" stroke="black" points="108.5,-507.5 264.5,-507.5 "/>
<text text-anchor="start" x="116.5" y="-495.5" font-family="Helvetica,sans-Serif" font-size="10.00"># c()</text>
<text text-anchor="start" x="116.5" y="-484.5" font-family="Helvetica,sans-Serif" font-size="10.00"># __check_protocols__()</text>
</a>
</g>
</g>
<!-- Node6&#45;&gt;Node2 -->
<g id="edge6" class="edge">
<title>Node6&#45;&gt;Node2</title>
<path fill="none" stroke="orange" d="M186.43,-467.2C186.26,-457.21 185.97,-446.76 185.5,-437 180.89,-341.66 177.89,-317.88 167.5,-223 166.18,-210.94 164.52,-197.9 162.9,-185.86"/>
<polygon fill="orange" stroke="orange" points="182.93,-467.46 186.56,-477.41 189.93,-467.36 182.93,-467.46"/>
<text text-anchor="start" x="178.5" y="-313" font-family="Helvetica,sans-Serif" font-size="10.00"> &lt; Irq_mux, Triggerable,</text>
<text text-anchor="middle" x="237.5" y="-302" font-family="Helvetica,sans-Serif" font-size="10.00"> L4_PROTO_IRQ_MUX &gt;</text>
</g>
<!-- Node6&#45;&gt;Node4 -->
<g id="edge5" class="edge">
<title>Node6&#45;&gt;Node4</title>
<path fill="none" stroke="orange" d="M99.76,-484.79C89.77,-477.78 80.89,-469.28 74.5,-459 67.18,-447.24 65.49,-432.46 66.11,-418.87"/>
<polygon fill="orange" stroke="orange" points="98.08,-487.87 108.38,-490.33 101.86,-481.98 98.08,-487.87"/>
<text text-anchor="start" x="74.5" y="-451" font-family="Helvetica,sans-Serif" font-size="10.00"> &lt; Triggerable, Irq</text>
<text text-anchor="middle" x="130" y="-440" font-family="Helvetica,sans-Serif" font-size="10.00">_eoi, L4_PROTO_IRQ &gt;</text>
</g>
</g>
</svg>
