<?xml version="1.0" encoding="UTF-8" standalone="no"?>
<!DOCTYPE svg PUBLIC "-//W3C//DTD SVG 1.1//EN"
 "http://www.w3.org/Graphics/SVG/1.1/DTD/svg11.dtd">
<!-- Generated by graphviz version 2.43.0 (0)
 -->
<!-- Title: L4Re::Util::Br_manager_timeout_hooks Pages: 1 -->
<svg width="458pt" height="796pt"
 viewBox="0.00 0.00 458.00 796.00" xmlns="http://www.w3.org/2000/svg" xmlns:xlink="http://www.w3.org/1999/xlink">
<g id="graph0" class="graph" transform="scale(1 1) rotate(0) translate(4 792)">
<title>L4Re::Util::Br_manager_timeout_hooks</title>
<polygon fill="white" stroke="transparent" points="-4,4 -4,-792 454,-792 454,4 -4,4"/>
<!-- Node1 -->
<g id="node1" class="node">
<title>Node1</title>
<g id="a_node1"><a xlink:title="Predefined server&#45;loop hooks for a server with using the Br_manager and a timeout queue.">
<polygon fill="#bfbfbf" stroke="black" points="99,-0.5 99,-68.5 228,-68.5 228,-0.5 99,-0.5"/>
<text text-anchor="start" x="107" y="-56.5" font-family="Helvetica,sans-Serif" font-size="10.00">L4Re::Util::Br_manager</text>
<text text-anchor="middle" x="163.5" y="-45.5" font-family="Helvetica,sans-Serif" font-size="10.00">_timeout_hooks</text>
<polyline fill="none" stroke="black" points="99,-38.5 228,-38.5 "/>
<text text-anchor="middle" x="163.5" y="-26.5" font-family="Helvetica,sans-Serif" font-size="10.00"> </text>
<polyline fill="none" stroke="black" points="99,-19.5 228,-19.5 "/>
<text text-anchor="start" x="107" y="-7.5" font-family="Helvetica,sans-Serif" font-size="10.00">+ now()</text>
</a>
</g>
</g>
<!-- Node2 -->
<g id="node2" class="node">
<title>Node2</title>
<g id="a_node2"><a xlink:href="classL4_1_1Ipc__svr_1_1Timeout__queue__hooks.html" target="_top" xlink:title=" ">
<polygon fill="white" stroke="black" points="0,-106.5 0,-229.5 171,-229.5 171,-106.5 0,-106.5"/>
<text text-anchor="start" x="8" y="-217.5" font-family="Helvetica,sans-Serif" font-size="10.00">L4::Ipc_svr::Timeout</text>
<text text-anchor="start" x="8" y="-206.5" font-family="Helvetica,sans-Serif" font-size="10.00">_queue_hooks&lt; Br_manager</text>
<text text-anchor="middle" x="85.5" y="-195.5" font-family="Helvetica,sans-Serif" font-size="10.00">_timeout_hooks, Br_manager &gt;</text>
<polyline fill="none" stroke="black" points="0,-188.5 171,-188.5 "/>
<text text-anchor="start" x="8" y="-176.5" font-family="Helvetica,sans-Serif" font-size="10.00">+ queue</text>
<polyline fill="none" stroke="black" points="0,-169.5 171,-169.5 "/>
<text text-anchor="start" x="8" y="-157.5" font-family="Helvetica,sans-Serif" font-size="10.00">+ timeout()</text>
<text text-anchor="start" x="8" y="-146.5" font-family="Helvetica,sans-Serif" font-size="10.00">+ setup_wait()</text>
<text text-anchor="start" x="8" y="-135.5" font-family="Helvetica,sans-Serif" font-size="10.00">+ before_reply()</text>
<text text-anchor="start" x="8" y="-124.5" font-family="Helvetica,sans-Serif" font-size="10.00">+ add_timeout()</text>
<text text-anchor="start" x="8" y="-113.5" font-family="Helvetica,sans-Serif" font-size="10.00">+ remove_timeout()</text>
</a>
</g>
</g>
<!-- Node2&#45;&gt;Node1 -->
<g id="edge1" class="edge">
<title>Node2&#45;&gt;Node1</title>
<path fill="none" stroke="midnightblue" d="M126.75,-97.46C132.68,-87.45 138.55,-77.56 143.79,-68.73"/>
<polygon fill="none" stroke="midnightblue" points="123.62,-95.87 121.53,-106.25 129.64,-99.44 123.62,-95.87"/>
</g>
<!-- Node3 -->
<g id="node3" class="node">
<title>Node3</title>
<g id="a_node3"><a xlink:href="classL4_1_1Ipc__svr_1_1Server__iface.html" target="_top" xlink:title="Interface for server&#45;loop related functions.">
<polygon fill="white" stroke="black" points="39,-631.5 39,-787.5 176,-787.5 176,-631.5 39,-631.5"/>
<text text-anchor="start" x="47" y="-775.5" font-family="Helvetica,sans-Serif" font-size="10.00">L4::Ipc_svr::Server</text>
<text text-anchor="middle" x="107.5" y="-764.5" font-family="Helvetica,sans-Serif" font-size="10.00">_iface</text>
<polyline fill="none" stroke="black" points="39,-757.5 176,-757.5 "/>
<text text-anchor="middle" x="107.5" y="-745.5" font-family="Helvetica,sans-Serif" font-size="10.00"> </text>
<polyline fill="none" stroke="black" points="39,-738.5 176,-738.5 "/>
<text text-anchor="start" x="47" y="-726.5" font-family="Helvetica,sans-Serif" font-size="10.00">+ Server_iface()</text>
<text text-anchor="start" x="47" y="-715.5" font-family="Helvetica,sans-Serif" font-size="10.00">+ ~Server_iface()</text>
<text text-anchor="start" x="47" y="-704.5" font-family="Helvetica,sans-Serif" font-size="10.00">+ alloc_buffer_demand()</text>
<text text-anchor="start" x="47" y="-693.5" font-family="Helvetica,sans-Serif" font-size="10.00">+ get_rcv_cap()</text>
<text text-anchor="start" x="47" y="-682.5" font-family="Helvetica,sans-Serif" font-size="10.00">+ realloc_rcv_cap()</text>
<text text-anchor="start" x="47" y="-671.5" font-family="Helvetica,sans-Serif" font-size="10.00">+ add_timeout()</text>
<text text-anchor="start" x="47" y="-660.5" font-family="Helvetica,sans-Serif" font-size="10.00">+ remove_timeout()</text>
<text text-anchor="start" x="47" y="-649.5" font-family="Helvetica,sans-Serif" font-size="10.00">+ rcv_cap()</text>
<text text-anchor="start" x="47" y="-638.5" font-family="Helvetica,sans-Serif" font-size="10.00">+ rcv_cap()</text>
</a>
</g>
</g>
<!-- Node3&#45;&gt;Node2 -->
<g id="edge2" class="edge">
<title>Node3&#45;&gt;Node2</title>
<path fill="none" stroke="midnightblue" d="M102.88,-621.23C102.75,-618.45 102.62,-615.71 102.5,-613 96.29,-476.02 90.51,-315.21 87.55,-229.7"/>
<polygon fill="none" stroke="midnightblue" points="99.39,-621.54 103.37,-631.36 106.38,-621.21 99.39,-621.54"/>
</g>
<!-- Node4 -->
<g id="node4" class="node">
<title>Node4</title>
<g id="a_node4"><a xlink:href="classL4_1_1Ipc__svr_1_1Timeout__queue__hooks.html" target="_top" xlink:title="Loop hooks mixin for integrating a timeout queue into the server loop.">
<polygon fill="white" stroke="black" points="116.5,-288.5 116.5,-411.5 252.5,-411.5 252.5,-288.5 116.5,-288.5"/>
<text text-anchor="start" x="124.5" y="-399.5" font-family="Helvetica,sans-Serif" font-size="10.00">L4::Ipc_svr::Timeout</text>
<text text-anchor="start" x="124.5" y="-388.5" font-family="Helvetica,sans-Serif" font-size="10.00">_queue_hooks&lt; HOOKS,</text>
<text text-anchor="middle" x="184.5" y="-377.5" font-family="Helvetica,sans-Serif" font-size="10.00"> BR_MAN &gt;</text>
<polyline fill="none" stroke="black" points="116.5,-370.5 252.5,-370.5 "/>
<text text-anchor="middle" x="184.5" y="-358.5" font-family="Helvetica,sans-Serif" font-size="10.00"> </text>
<polyline fill="none" stroke="black" points="116.5,-351.5 252.5,-351.5 "/>
<text text-anchor="start" x="124.5" y="-339.5" font-family="Helvetica,sans-Serif" font-size="10.00">+ timeout()</text>
<text text-anchor="start" x="124.5" y="-328.5" font-family="Helvetica,sans-Serif" font-size="10.00">+ setup_wait()</text>
<text text-anchor="start" x="124.5" y="-317.5" font-family="Helvetica,sans-Serif" font-size="10.00">+ before_reply()</text>
<text text-anchor="start" x="124.5" y="-306.5" font-family="Helvetica,sans-Serif" font-size="10.00">+ add_timeout()</text>
<text text-anchor="start" x="124.5" y="-295.5" font-family="Helvetica,sans-Serif" font-size="10.00">+ remove_timeout()</text>
</a>
</g>
</g>
<!-- Node3&#45;&gt;Node4 -->
<g id="edge4" class="edge">
<title>Node3&#45;&gt;Node4</title>
<path fill="none" stroke="midnightblue" d="M105.35,-621.24C106.31,-572.61 111.17,-511.45 126.5,-459 131.19,-442.96 138.45,-426.61 146.28,-411.64"/>
<polygon fill="none" stroke="midnightblue" points="101.84,-621.37 105.2,-631.42 108.84,-621.47 101.84,-621.37"/>
</g>
<!-- Node5 -->
<g id="node5" class="node">
<title>Node5</title>
<g id="a_node5"><a xlink:href="classL4_1_1Ipc__svr_1_1Br__manager__no__buffers.html" target="_top" xlink:title="Empty implementation of Server_iface.">
<polygon fill="white" stroke="black" points="136,-459.5 136,-593.5 273,-593.5 273,-459.5 136,-459.5"/>
<text text-anchor="start" x="144" y="-581.5" font-family="Helvetica,sans-Serif" font-size="10.00">L4::Ipc_svr::Br_manager</text>
<text text-anchor="middle" x="204.5" y="-570.5" font-family="Helvetica,sans-Serif" font-size="10.00">_no_buffers</text>
<polyline fill="none" stroke="black" points="136,-563.5 273,-563.5 "/>
<text text-anchor="middle" x="204.5" y="-551.5" font-family="Helvetica,sans-Serif" font-size="10.00"> </text>
<polyline fill="none" stroke="black" points="136,-544.5 273,-544.5 "/>
<text text-anchor="start" x="144" y="-532.5" font-family="Helvetica,sans-Serif" font-size="10.00">+ alloc_buffer_demand()</text>
<text text-anchor="start" x="144" y="-521.5" font-family="Helvetica,sans-Serif" font-size="10.00">+ get_rcv_cap()</text>
<text text-anchor="start" x="144" y="-510.5" font-family="Helvetica,sans-Serif" font-size="10.00">+ realloc_rcv_cap()</text>
<text text-anchor="start" x="144" y="-499.5" font-family="Helvetica,sans-Serif" font-size="10.00">+ add_timeout()</text>
<text text-anchor="start" x="144" y="-488.5" font-family="Helvetica,sans-Serif" font-size="10.00">+ remove_timeout()</text>
<text text-anchor="start" x="144" y="-477.5" font-family="Helvetica,sans-Serif" font-size="10.00"># first_free_br()</text>
<text text-anchor="start" x="144" y="-466.5" font-family="Helvetica,sans-Serif" font-size="10.00"># setup_wait()</text>
</a>
</g>
</g>
<!-- Node3&#45;&gt;Node5 -->
<g id="edge6" class="edge">
<title>Node3&#45;&gt;Node5</title>
<path fill="none" stroke="midnightblue" d="M153.55,-622.57C158.77,-612.83 164.02,-603.03 169.08,-593.6"/>
<polygon fill="none" stroke="midnightblue" points="150.42,-621.01 148.78,-631.48 156.59,-624.32 150.42,-621.01"/>
</g>
<!-- Node4&#45;&gt;Node2 -->
<g id="edge3" class="edge">
<title>Node4&#45;&gt;Node2</title>
<path fill="none" stroke="orange" d="M146.18,-279.33C137.18,-262.97 127.67,-245.67 118.9,-229.73"/>
<polygon fill="orange" stroke="orange" points="143.24,-281.24 151.12,-288.31 149.37,-277.86 143.24,-281.24"/>
<text text-anchor="start" x="141.5" y="-262" font-family="Helvetica,sans-Serif" font-size="10.00"> &lt; Br_manager_timeout</text>
<text text-anchor="middle" x="200.5" y="-251" font-family="Helvetica,sans-Serif" font-size="10.00">_hooks, Br_manager &gt;</text>
</g>
<!-- Node5&#45;&gt;Node4 -->
<g id="edge5" class="edge">
<title>Node5&#45;&gt;Node4</title>
<path fill="none" stroke="midnightblue" d="M195.74,-449.05C194.3,-436.5 192.83,-423.65 191.44,-411.56"/>
<polygon fill="none" stroke="midnightblue" points="192.27,-449.49 196.88,-459.03 199.22,-448.7 192.27,-449.49"/>
</g>
<!-- Node6 -->
<g id="node6" class="node">
<title>Node6</title>
<g id="a_node6"><a xlink:href="classL4_1_1Ipc__svr_1_1Timeout__queue.html" target="_top" xlink:title="Timeout queue to be used in l4re server loop.">
<polygon fill="white" stroke="black" points="291,-470.5 291,-582.5 450,-582.5 450,-470.5 291,-470.5"/>
<text text-anchor="start" x="299" y="-570.5" font-family="Helvetica,sans-Serif" font-size="10.00">L4::Ipc_svr::Timeout</text>
<text text-anchor="middle" x="370.5" y="-559.5" font-family="Helvetica,sans-Serif" font-size="10.00">_queue</text>
<polyline fill="none" stroke="black" points="291,-552.5 450,-552.5 "/>
<text text-anchor="middle" x="370.5" y="-540.5" font-family="Helvetica,sans-Serif" font-size="10.00"> </text>
<polyline fill="none" stroke="black" points="291,-533.5 450,-533.5 "/>
<text text-anchor="start" x="299" y="-521.5" font-family="Helvetica,sans-Serif" font-size="10.00">+ next_timeout()</text>
<text text-anchor="start" x="299" y="-510.5" font-family="Helvetica,sans-Serif" font-size="10.00">+ timeout_expired()</text>
<text text-anchor="start" x="299" y="-499.5" font-family="Helvetica,sans-Serif" font-size="10.00">+ handle_expired_timeouts()</text>
<text text-anchor="start" x="299" y="-488.5" font-family="Helvetica,sans-Serif" font-size="10.00">+ add()</text>
<text text-anchor="start" x="299" y="-477.5" font-family="Helvetica,sans-Serif" font-size="10.00">+ remove()</text>
</a>
</g>
</g>
<!-- Node6&#45;&gt;Node4 -->
<g id="edge7" class="edge">
<title>Node6&#45;&gt;Node4</title>
<path fill="none" stroke="#404040" d="M311.65,-470.29C294.7,-454.39 276,-436.84 258.27,-420.2"/>
<polygon fill="none" stroke="#404040" points="257.85,-419.81 250.74,-418.63 249.1,-411.6 256.21,-412.79 257.85,-419.81"/>
<text text-anchor="middle" x="298.5" y="-433" font-family="Helvetica,sans-Serif" font-size="10.00"> +queue</text>
</g>
<!-- Node7 -->
<g id="node7" class="node">
<title>Node7</title>
<g id="a_node7"><a xlink:href="structL4_1_1Ipc__svr_1_1Ignore__errors.html" target="_top" xlink:title="Mix in for LOOP_HOOKS to ignore IPC errors.">
<polygon fill="white" stroke="black" points="189,-134 189,-202 294,-202 294,-134 189,-134"/>
<text text-anchor="start" x="197" y="-190" font-family="Helvetica,sans-Serif" font-size="10.00">L4::Ipc_svr::Ignore</text>
<text text-anchor="middle" x="241.5" y="-179" font-family="Helvetica,sans-Serif" font-size="10.00">_errors</text>
<polyline fill="none" stroke="black" points="189,-172 294,-172 "/>
<text text-anchor="middle" x="241.5" y="-160" font-family="Helvetica,sans-Serif" font-size="10.00"> </text>
<polyline fill="none" stroke="black" points="189,-153 294,-153 "/>
<text text-anchor="start" x="197" y="-141" font-family="Helvetica,sans-Serif" font-size="10.00">+ error()</text>
</a>
</g>
</g>
<!-- Node7&#45;&gt;Node1 -->
<g id="edge8" class="edge">
<title>Node7&#45;&gt;Node1</title>
<path fill="none" stroke="midnightblue" d="M216.66,-125.12C205.84,-106.88 193.34,-85.8 183.18,-68.67"/>
<polygon fill="none" stroke="midnightblue" points="213.71,-127 221.82,-133.82 219.73,-123.43 213.71,-127"/>
</g>
</g>
</svg>
