<?xml version="1.0" encoding="UTF-8" standalone="no"?>
<!DOCTYPE svg PUBLIC "-//W3C//DTD SVG 1.1//EN"
 "http://www.w3.org/Graphics/SVG/1.1/DTD/svg11.dtd">
<!-- Generated by graphviz version 2.43.0 (0)
 -->
<!-- Title: L4::Types::True Pages: 1 -->
<svg width="139pt" height="266pt"
 viewBox="0.00 0.00 139.00 266.00" xmlns="http://www.w3.org/2000/svg" xmlns:xlink="http://www.w3.org/1999/xlink">
<g id="graph0" class="graph" transform="scale(1 1) rotate(0) translate(4 262)">
<title>L4::Types::True</title>
<polygon fill="white" stroke="transparent" points="-4,4 -4,-262 135,-262 135,4 -4,4"/>
<!-- Node1 -->
<g id="node1" class="node">
<title>Node1</title>
<g id="a_node1"><a xlink:title="True meta value.">
<polygon fill="#bfbfbf" stroke="black" points="21.5,-0.5 21.5,-57.5 109.5,-57.5 109.5,-0.5 21.5,-0.5"/>
<text text-anchor="middle" x="65.5" y="-45.5" font-family="Helvetica,sans-Serif" font-size="10.00">L4::Types::True</text>
<polyline fill="none" stroke="black" points="21.5,-38.5 109.5,-38.5 "/>
<text text-anchor="middle" x="65.5" y="-26.5" font-family="Helvetica,sans-Serif" font-size="10.00"> </text>
<polyline fill="none" stroke="black" points="21.5,-19.5 109.5,-19.5 "/>
<text text-anchor="middle" x="65.5" y="-7.5" font-family="Helvetica,sans-Serif" font-size="10.00"> </text>
</a>
</g>
</g>
<!-- Node2 -->
<g id="node2" class="node">
<title>Node2</title>
<g id="a_node2"><a xlink:href="structL4_1_1Types_1_1Bool.html" target="_top" xlink:title=" ">
<polygon fill="white" stroke="black" points="0,-95.5 0,-152.5 131,-152.5 131,-95.5 0,-95.5"/>
<text text-anchor="middle" x="65.5" y="-140.5" font-family="Helvetica,sans-Serif" font-size="10.00">L4::Types::Bool&lt; true &gt;</text>
<polyline fill="none" stroke="black" points="0,-133.5 131,-133.5 "/>
<text text-anchor="middle" x="65.5" y="-121.5" font-family="Helvetica,sans-Serif" font-size="10.00"> </text>
<polyline fill="none" stroke="black" points="0,-114.5 131,-114.5 "/>
<text text-anchor="middle" x="65.5" y="-102.5" font-family="Helvetica,sans-Serif" font-size="10.00"> </text>
</a>
</g>
</g>
<!-- Node2&#45;&gt;Node1 -->
<g id="edge1" class="edge">
<title>Node2&#45;&gt;Node1</title>
<path fill="none" stroke="midnightblue" d="M65.5,-85.24C65.5,-76.03 65.5,-66.35 65.5,-57.71"/>
<polygon fill="none" stroke="midnightblue" points="62,-85.35 65.5,-95.35 69,-85.35 62,-85.35"/>
</g>
<!-- Node3 -->
<g id="node3" class="node">
<title>Node3</title>
<g id="a_node3"><a xlink:href="structL4_1_1Types_1_1Bool.html" target="_top" xlink:title="Boolean meta type.">
<polygon fill="white" stroke="black" points="6,-200.5 6,-257.5 125,-257.5 125,-200.5 6,-200.5"/>
<text text-anchor="middle" x="65.5" y="-245.5" font-family="Helvetica,sans-Serif" font-size="10.00">L4::Types::Bool&lt; V &gt;</text>
<polyline fill="none" stroke="black" points="6,-238.5 125,-238.5 "/>
<text text-anchor="middle" x="65.5" y="-226.5" font-family="Helvetica,sans-Serif" font-size="10.00"> </text>
<polyline fill="none" stroke="black" points="6,-219.5 125,-219.5 "/>
<text text-anchor="middle" x="65.5" y="-207.5" font-family="Helvetica,sans-Serif" font-size="10.00"> </text>
</a>
</g>
</g>
<!-- Node3&#45;&gt;Node2 -->
<g id="edge2" class="edge">
<title>Node3&#45;&gt;Node2</title>
<path fill="none" stroke="orange" d="M65.5,-190.29C65.5,-177.84 65.5,-164.23 65.5,-152.68"/>
<polygon fill="orange" stroke="orange" points="62,-190.4 65.5,-200.4 69,-190.4 62,-190.4"/>
<text text-anchor="middle" x="88.5" y="-174" font-family="Helvetica,sans-Serif" font-size="10.00"> &lt; true &gt;</text>
</g>
</g>
</svg>
