<?xml version="1.0" encoding="UTF-8" standalone="no"?>
<!DOCTYPE svg PUBLIC "-//W3C//DTD SVG 1.1//EN"
 "http://www.w3.org/Graphics/SVG/1.1/DTD/svg11.dtd">
<!-- Generated by graphviz version 2.43.0 (0)
 -->
<!-- Title: L4::Triggerable Pages: 1 -->
<svg width="259pt" height="321pt"
 viewBox="0.00 0.00 259.00 321.00" xmlns="http://www.w3.org/2000/svg" xmlns:xlink="http://www.w3.org/1999/xlink">
<g id="graph0" class="graph" transform="scale(1 1) rotate(0) translate(4 317)">
<title>L4::Triggerable</title>
<polygon fill="white" stroke="transparent" points="-4,4 -4,-317 255,-317 255,4 -4,4"/>
<!-- Node1 -->
<g id="node1" class="node">
<title>Node1</title>
<g id="a_node1"><a xlink:title="Interface that allows an object to be triggered by some source.">
<polygon fill="#bfbfbf" stroke="black" points="59,-0.5 59,-57.5 147,-57.5 147,-0.5 59,-0.5"/>
<text text-anchor="middle" x="103" y="-45.5" font-family="Helvetica,sans-Serif" font-size="10.00">L4::Triggerable</text>
<polyline fill="none" stroke="black" points="59,-38.5 147,-38.5 "/>
<text text-anchor="middle" x="103" y="-26.5" font-family="Helvetica,sans-Serif" font-size="10.00"> </text>
<polyline fill="none" stroke="black" points="59,-19.5 147,-19.5 "/>
<text text-anchor="start" x="67" y="-7.5" font-family="Helvetica,sans-Serif" font-size="10.00">+ trigger()</text>
</a>
</g>
</g>
<!-- Node2 -->
<g id="node2" class="node">
<title>Node2</title>
<g id="a_node2"><a xlink:href="classL4_1_1Kobject__t.html" target="_top" xlink:title=" ">
<polygon fill="white" stroke="black" points="29.5,-95.5 29.5,-174.5 176.5,-174.5 176.5,-95.5 29.5,-95.5"/>
<text text-anchor="start" x="37.5" y="-162.5" font-family="Helvetica,sans-Serif" font-size="10.00">L4::Kobject_t&lt; Triggerable,</text>
<text text-anchor="middle" x="103" y="-151.5" font-family="Helvetica,sans-Serif" font-size="10.00"> Irq_eoi, L4_PROTO_IRQ &gt;</text>
<polyline fill="none" stroke="black" points="29.5,-144.5 176.5,-144.5 "/>
<text text-anchor="middle" x="103" y="-132.5" font-family="Helvetica,sans-Serif" font-size="10.00"> </text>
<polyline fill="none" stroke="black" points="29.5,-125.5 176.5,-125.5 "/>
<text text-anchor="start" x="37.5" y="-113.5" font-family="Helvetica,sans-Serif" font-size="10.00"># c()</text>
<text text-anchor="start" x="37.5" y="-102.5" font-family="Helvetica,sans-Serif" font-size="10.00"># __check_protocols__()</text>
</a>
</g>
</g>
<!-- Node2&#45;&gt;Node1 -->
<g id="edge1" class="edge">
<title>Node2&#45;&gt;Node1</title>
<path fill="none" stroke="midnightblue" d="M103,-85.16C103,-75.74 103,-66.17 103,-57.72"/>
<polygon fill="none" stroke="midnightblue" points="99.5,-85.27 103,-95.27 106.5,-85.27 99.5,-85.27"/>
</g>
<!-- Node3 -->
<g id="node3" class="node">
<title>Node3</title>
<g id="a_node3"><a xlink:href="classL4_1_1Irq__eoi.html" target="_top" xlink:title="Interface for sending an acknowledge message to an object.">
<polygon fill="white" stroke="black" points="0,-244.5 0,-301.5 74,-301.5 74,-244.5 0,-244.5"/>
<text text-anchor="middle" x="37" y="-289.5" font-family="Helvetica,sans-Serif" font-size="10.00">L4::Irq_eoi</text>
<polyline fill="none" stroke="black" points="0,-282.5 74,-282.5 "/>
<text text-anchor="middle" x="37" y="-270.5" font-family="Helvetica,sans-Serif" font-size="10.00"> </text>
<polyline fill="none" stroke="black" points="0,-263.5 74,-263.5 "/>
<text text-anchor="start" x="8" y="-251.5" font-family="Helvetica,sans-Serif" font-size="10.00">+ unmask()</text>
</a>
</g>
</g>
<!-- Node3&#45;&gt;Node2 -->
<g id="edge2" class="edge">
<title>Node3&#45;&gt;Node2</title>
<path fill="none" stroke="midnightblue" d="M54.79,-235.34C63.92,-216.53 75.03,-193.63 84.29,-174.56"/>
<polygon fill="none" stroke="midnightblue" points="51.57,-233.95 50.36,-244.48 57.87,-237.01 51.57,-233.95"/>
</g>
<!-- Node4 -->
<g id="node4" class="node">
<title>Node4</title>
<g id="a_node4"><a xlink:href="classL4_1_1Kobject__t.html" target="_top" xlink:title="Helper class to create an L4Re interface class that is derived from a single base class.">
<polygon fill="white" stroke="black" points="92,-233.5 92,-312.5 248,-312.5 248,-233.5 92,-233.5"/>
<text text-anchor="start" x="100" y="-300.5" font-family="Helvetica,sans-Serif" font-size="10.00">L4::Kobject_t&lt; Derived,</text>
<text text-anchor="middle" x="170" y="-289.5" font-family="Helvetica,sans-Serif" font-size="10.00"> Base, PROTO, S_DEMAND &gt;</text>
<polyline fill="none" stroke="black" points="92,-282.5 248,-282.5 "/>
<text text-anchor="middle" x="170" y="-270.5" font-family="Helvetica,sans-Serif" font-size="10.00"> </text>
<polyline fill="none" stroke="black" points="92,-263.5 248,-263.5 "/>
<text text-anchor="start" x="100" y="-251.5" font-family="Helvetica,sans-Serif" font-size="10.00"># c()</text>
<text text-anchor="start" x="100" y="-240.5" font-family="Helvetica,sans-Serif" font-size="10.00"># __check_protocols__()</text>
</a>
</g>
</g>
<!-- Node4&#45;&gt;Node2 -->
<g id="edge3" class="edge">
<title>Node4&#45;&gt;Node2</title>
<path fill="none" stroke="orange" d="M146.4,-224.09C138.43,-207.92 129.64,-190.08 122.07,-174.7"/>
<polygon fill="orange" stroke="orange" points="143.42,-225.97 150.98,-233.39 149.7,-222.87 143.42,-225.97"/>
<text text-anchor="start" x="140" y="-207" font-family="Helvetica,sans-Serif" font-size="10.00"> &lt; Triggerable, Irq</text>
<text text-anchor="middle" x="195.5" y="-196" font-family="Helvetica,sans-Serif" font-size="10.00">_eoi, L4_PROTO_IRQ &gt;</text>
</g>
</g>
</svg>
