<?xml version="1.0" encoding="UTF-8" standalone="no"?>
<!DOCTYPE svg PUBLIC "-//W3C//DTD SVG 1.1//EN"
 "http://www.w3.org/Graphics/SVG/1.1/DTD/svg11.dtd">
<!-- Generated by graphviz version 2.43.0 (0)
 -->
<!-- Title: l4_vcpu_state_t Pages: 1 -->
<svg width="229pt" height="617pt"
 viewBox="0.00 0.00 229.00 617.00" xmlns="http://www.w3.org/2000/svg" xmlns:xlink="http://www.w3.org/1999/xlink">
<g id="graph0" class="graph" transform="scale(1 1) rotate(0) translate(4 613)">
<title>l4_vcpu_state_t</title>
<polygon fill="white" stroke="transparent" points="-4,4 -4,-613 225,-613 225,4 -4,4"/>
<!-- Node1 -->
<g id="node1" class="node">
<title>Node1</title>
<g id="a_node1"><a xlink:title="State of a vCPU.">
<polygon fill="#bfbfbf" stroke="black" points="100,-0.5 100,-167.5 193,-167.5 193,-0.5 100,-0.5"/>
<text text-anchor="middle" x="146.5" y="-155.5" font-family="Helvetica,sans-Serif" font-size="10.00">l4_vcpu_state_t</text>
<polyline fill="none" stroke="black" points="100,-148.5 193,-148.5 "/>
<text text-anchor="start" x="108" y="-136.5" font-family="Helvetica,sans-Serif" font-size="10.00">+ version</text>
<text text-anchor="start" x="108" y="-125.5" font-family="Helvetica,sans-Serif" font-size="10.00">+ user_data</text>
<text text-anchor="start" x="108" y="-114.5" font-family="Helvetica,sans-Serif" font-size="10.00">+ state</text>
<text text-anchor="start" x="108" y="-103.5" font-family="Helvetica,sans-Serif" font-size="10.00">+ saved_state</text>
<text text-anchor="start" x="108" y="-92.5" font-family="Helvetica,sans-Serif" font-size="10.00">+ sticky_flags</text>
<text text-anchor="start" x="108" y="-81.5" font-family="Helvetica,sans-Serif" font-size="10.00">+ _reserved</text>
<text text-anchor="start" x="108" y="-70.5" font-family="Helvetica,sans-Serif" font-size="10.00">+ user_task</text>
<text text-anchor="start" x="108" y="-59.5" font-family="Helvetica,sans-Serif" font-size="10.00">+ entry_sp</text>
<text text-anchor="start" x="108" y="-48.5" font-family="Helvetica,sans-Serif" font-size="10.00">+ entry_ip</text>
<text text-anchor="start" x="108" y="-37.5" font-family="Helvetica,sans-Serif" font-size="10.00">+ reserved_sp</text>
<text text-anchor="start" x="108" y="-26.5" font-family="Helvetica,sans-Serif" font-size="10.00">+ arch_state</text>
<polyline fill="none" stroke="black" points="100,-19.5 193,-19.5 "/>
<text text-anchor="middle" x="146.5" y="-7.5" font-family="Helvetica,sans-Serif" font-size="10.00"> </text>
</a>
</g>
</g>
<!-- Node2 -->
<g id="node2" class="node">
<title>Node2</title>
<g id="a_node2"><a xlink:href="structl4__vcpu__ipc__regs__t.html" target="_top" xlink:title="vCPU message registers.">
<polygon fill="white" stroke="black" points="5,-248.5 5,-349.5 114,-349.5 114,-248.5 5,-248.5"/>
<text text-anchor="middle" x="59.5" y="-337.5" font-family="Helvetica,sans-Serif" font-size="10.00">l4_vcpu_ipc_regs_t</text>
<polyline fill="none" stroke="black" points="5,-330.5 114,-330.5 "/>
<text text-anchor="start" x="13" y="-318.5" font-family="Helvetica,sans-Serif" font-size="10.00">+ _d1</text>
<text text-anchor="start" x="13" y="-307.5" font-family="Helvetica,sans-Serif" font-size="10.00">+ label</text>
<text text-anchor="start" x="13" y="-296.5" font-family="Helvetica,sans-Serif" font-size="10.00">+ _d2</text>
<text text-anchor="start" x="13" y="-285.5" font-family="Helvetica,sans-Serif" font-size="10.00">+ _res</text>
<text text-anchor="start" x="13" y="-274.5" font-family="Helvetica,sans-Serif" font-size="10.00">+ _res2</text>
<polyline fill="none" stroke="black" points="5,-267.5 114,-267.5 "/>
<text text-anchor="middle" x="59.5" y="-255.5" font-family="Helvetica,sans-Serif" font-size="10.00"> </text>
</a>
</g>
</g>
<!-- Node2&#45;&gt;Node1 -->
<g id="edge1" class="edge">
<title>Node2&#45;&gt;Node1</title>
<path fill="none" stroke="#404040" d="M79.79,-248.33C88.24,-227.64 98.35,-202.89 108.1,-179"/>
<polygon fill="none" stroke="#404040" points="108.17,-178.84 106.74,-171.78 112.71,-167.73 114.14,-174.8 108.17,-178.84"/>
<text text-anchor="middle" x="111" y="-189" font-family="Helvetica,sans-Serif" font-size="10.00"> +i</text>
</g>
<!-- Node3 -->
<g id="node3" class="node">
<title>Node3</title>
<g id="a_node3"><a xlink:href="structl4__msgtag__t.html" target="_top" xlink:title="Message tag data structure.">
<polygon fill="white" stroke="black" points="0,-430.5 0,-608.5 119,-608.5 119,-430.5 0,-430.5"/>
<text text-anchor="middle" x="59.5" y="-596.5" font-family="Helvetica,sans-Serif" font-size="10.00">l4_msgtag_t</text>
<polyline fill="none" stroke="black" points="0,-589.5 119,-589.5 "/>
<text text-anchor="start" x="8" y="-577.5" font-family="Helvetica,sans-Serif" font-size="10.00">+ raw</text>
<polyline fill="none" stroke="black" points="0,-570.5 119,-570.5 "/>
<text text-anchor="start" x="8" y="-558.5" font-family="Helvetica,sans-Serif" font-size="10.00">+ label()</text>
<text text-anchor="start" x="8" y="-547.5" font-family="Helvetica,sans-Serif" font-size="10.00">+ label()</text>
<text text-anchor="start" x="8" y="-536.5" font-family="Helvetica,sans-Serif" font-size="10.00">+ words()</text>
<text text-anchor="start" x="8" y="-525.5" font-family="Helvetica,sans-Serif" font-size="10.00">+ items()</text>
<text text-anchor="start" x="8" y="-514.5" font-family="Helvetica,sans-Serif" font-size="10.00">+ flags()</text>
<text text-anchor="start" x="8" y="-503.5" font-family="Helvetica,sans-Serif" font-size="10.00">+ is_page_fault()</text>
<text text-anchor="start" x="8" y="-492.5" font-family="Helvetica,sans-Serif" font-size="10.00">+ is_preemption()</text>
<text text-anchor="start" x="8" y="-481.5" font-family="Helvetica,sans-Serif" font-size="10.00">+ is_sys_exception()</text>
<text text-anchor="start" x="8" y="-470.5" font-family="Helvetica,sans-Serif" font-size="10.00">+ is_exception()</text>
<text text-anchor="start" x="8" y="-459.5" font-family="Helvetica,sans-Serif" font-size="10.00">+ is_sigma0()</text>
<text text-anchor="start" x="8" y="-448.5" font-family="Helvetica,sans-Serif" font-size="10.00">+ is_io_page_fault()</text>
<text text-anchor="start" x="8" y="-437.5" font-family="Helvetica,sans-Serif" font-size="10.00">+ has_error()</text>
</a>
</g>
</g>
<!-- Node3&#45;&gt;Node2 -->
<g id="edge2" class="edge">
<title>Node3&#45;&gt;Node2</title>
<path fill="none" stroke="#404040" d="M59.5,-430.26C59.5,-407.29 59.5,-383.03 59.5,-361.76"/>
<polygon fill="none" stroke="#404040" points="59.5,-361.61 55.5,-355.61 59.5,-349.61 63.5,-355.61 59.5,-361.61"/>
<text text-anchor="middle" x="73.5" y="-404" font-family="Helvetica,sans-Serif" font-size="10.00"> +tag</text>
</g>
<!-- Node4 -->
<g id="node4" class="node">
<title>Node4</title>
<g id="a_node4"><a xlink:href="structl4__vcpu__regs__t.html" target="_top" xlink:title="vCPU registers.">
<polygon fill="white" stroke="black" points="132,-215.5 132,-382.5 221,-382.5 221,-215.5 132,-215.5"/>
<text text-anchor="middle" x="176.5" y="-370.5" font-family="Helvetica,sans-Serif" font-size="10.00">l4_vcpu_regs_t</text>
<polyline fill="none" stroke="black" points="132,-363.5 221,-363.5 "/>
<text text-anchor="start" x="140" y="-351.5" font-family="Helvetica,sans-Serif" font-size="10.00">+ pfa</text>
<text text-anchor="start" x="140" y="-340.5" font-family="Helvetica,sans-Serif" font-size="10.00">+ err</text>
<text text-anchor="start" x="140" y="-329.5" font-family="Helvetica,sans-Serif" font-size="10.00">+ r</text>
<text text-anchor="start" x="140" y="-318.5" font-family="Helvetica,sans-Serif" font-size="10.00">+ sp</text>
<text text-anchor="start" x="140" y="-307.5" font-family="Helvetica,sans-Serif" font-size="10.00">+ lr</text>
<text text-anchor="start" x="140" y="-296.5" font-family="Helvetica,sans-Serif" font-size="10.00">+ _dummy</text>
<text text-anchor="start" x="140" y="-285.5" font-family="Helvetica,sans-Serif" font-size="10.00">+ ip</text>
<text text-anchor="start" x="140" y="-274.5" font-family="Helvetica,sans-Serif" font-size="10.00">+ flags</text>
<text text-anchor="start" x="140" y="-263.5" font-family="Helvetica,sans-Serif" font-size="10.00">+ tpidruro</text>
<text text-anchor="start" x="140" y="-252.5" font-family="Helvetica,sans-Serif" font-size="10.00">+ r15</text>
<text text-anchor="start" x="140" y="-241.5" font-family="Helvetica,sans-Serif" font-size="10.00">and 28 more...</text>
<polyline fill="none" stroke="black" points="132,-234.5 221,-234.5 "/>
<text text-anchor="middle" x="176.5" y="-222.5" font-family="Helvetica,sans-Serif" font-size="10.00"> </text>
</a>
</g>
</g>
<!-- Node4&#45;&gt;Node1 -->
<g id="edge3" class="edge">
<title>Node4&#45;&gt;Node1</title>
<path fill="none" stroke="#404040" d="M164.86,-215.34C163.22,-203.71 161.53,-191.68 159.86,-179.85"/>
<polygon fill="none" stroke="#404040" points="159.81,-179.49 155.01,-174.11 158.14,-167.61 162.93,-172.99 159.81,-179.49"/>
<text text-anchor="middle" x="169.5" y="-189" font-family="Helvetica,sans-Serif" font-size="10.00"> +r</text>
</g>
</g>
</svg>
