<?xml version="1.0" encoding="UTF-8" standalone="no"?>
<!DOCTYPE svg PUBLIC "-//W3C//DTD SVG 1.1//EN"
 "http://www.w3.org/Graphics/SVG/1.1/DTD/svg11.dtd">
<!-- Generated by graphviz version 2.43.0 (0)
 -->
<!-- Title: L4::Type_info::Demand_union_t&lt; D1, D2 &gt; Pages: 1 -->
<svg width="289pt" height="559pt"
 viewBox="0.00 0.00 289.00 559.00" xmlns="http://www.w3.org/2000/svg" xmlns:xlink="http://www.w3.org/1999/xlink">
<g id="graph0" class="graph" transform="scale(1 1) rotate(0) translate(4 555)">
<title>L4::Type_info::Demand_union_t&lt; D1, D2 &gt;</title>
<polygon fill="white" stroke="transparent" points="-4,4 -4,-555 285,-555 285,4 -4,4"/>
<!-- Node1 -->
<g id="node1" class="node">
<title>Node1</title>
<g id="a_node1"><a xlink:title="Template type statically describing the combination of two Demand object.">
<polygon fill="#bfbfbf" stroke="black" points="21,-0.5 21,-68.5 149,-68.5 149,-0.5 21,-0.5"/>
<text text-anchor="start" x="29" y="-56.5" font-family="Helvetica,sans-Serif" font-size="10.00">L4::Type_info::Demand</text>
<text text-anchor="middle" x="85" y="-45.5" font-family="Helvetica,sans-Serif" font-size="10.00">_union_t&lt; D1, D2 &gt;</text>
<polyline fill="none" stroke="black" points="21,-38.5 149,-38.5 "/>
<text text-anchor="middle" x="85" y="-26.5" font-family="Helvetica,sans-Serif" font-size="10.00"> </text>
<polyline fill="none" stroke="black" points="21,-19.5 149,-19.5 "/>
<text text-anchor="middle" x="85" y="-7.5" font-family="Helvetica,sans-Serif" font-size="10.00"> </text>
</a>
</g>
</g>
<!-- Node2 -->
<g id="node2" class="node">
<title>Node2</title>
<g id="a_node2"><a xlink:href="structL4_1_1Type__info_1_1Demand__t.html" target="_top" xlink:title=" ">
<polygon fill="white" stroke="black" points="0,-106.5 0,-218.5 170,-218.5 170,-106.5 0,-106.5"/>
<text text-anchor="start" x="8" y="-206.5" font-family="Helvetica,sans-Serif" font-size="10.00">L4::Type_info::Demand</text>
<text text-anchor="start" x="8" y="-195.5" font-family="Helvetica,sans-Serif" font-size="10.00">_t&lt; __I::Max&lt; D1::Caps,</text>
<text text-anchor="start" x="8" y="-184.5" font-family="Helvetica,sans-Serif" font-size="10.00"> D2::Caps &gt;::Res, D1::Flags|</text>
<text text-anchor="start" x="8" y="-173.5" font-family="Helvetica,sans-Serif" font-size="10.00">D2::Flags, __I::Max&lt; D1::Mem,</text>
<text text-anchor="start" x="8" y="-162.5" font-family="Helvetica,sans-Serif" font-size="10.00"> D2::Mem &gt;::Res, __I::Max&lt; D1</text>
<text text-anchor="middle" x="85" y="-151.5" font-family="Helvetica,sans-Serif" font-size="10.00">::Ports, D2::Ports &gt;::Res &gt;</text>
<polyline fill="none" stroke="black" points="0,-144.5 170,-144.5 "/>
<text text-anchor="middle" x="85" y="-132.5" font-family="Helvetica,sans-Serif" font-size="10.00"> </text>
<polyline fill="none" stroke="black" points="0,-125.5 170,-125.5 "/>
<text text-anchor="start" x="8" y="-113.5" font-family="Helvetica,sans-Serif" font-size="10.00">+ Demand_t()</text>
</a>
</g>
</g>
<!-- Node2&#45;&gt;Node1 -->
<g id="edge1" class="edge">
<title>Node2&#45;&gt;Node1</title>
<path fill="none" stroke="midnightblue" d="M85,-95.96C85,-86.48 85,-77.08 85,-68.62"/>
<polygon fill="none" stroke="midnightblue" points="81.5,-96.23 85,-106.23 88.5,-96.23 81.5,-96.23"/>
</g>
<!-- Node3 -->
<g id="node3" class="node">
<title>Node3</title>
<g id="a_node3"><a xlink:href="classL4_1_1Type__info_1_1Demand.html" target="_top" xlink:title="Data type for expressing the needed receive buffers at the server&#45;side of an interface.">
<polygon fill="white" stroke="black" points="17,-438.5 17,-550.5 145,-550.5 145,-438.5 17,-438.5"/>
<text text-anchor="middle" x="81" y="-538.5" font-family="Helvetica,sans-Serif" font-size="10.00">L4::Type_info::Demand</text>
<polyline fill="none" stroke="black" points="17,-531.5 145,-531.5 "/>
<text text-anchor="start" x="25" y="-519.5" font-family="Helvetica,sans-Serif" font-size="10.00">+ caps</text>
<text text-anchor="start" x="25" y="-508.5" font-family="Helvetica,sans-Serif" font-size="10.00">+ flags</text>
<text text-anchor="start" x="25" y="-497.5" font-family="Helvetica,sans-Serif" font-size="10.00">+ mem</text>
<text text-anchor="start" x="25" y="-486.5" font-family="Helvetica,sans-Serif" font-size="10.00">+ ports</text>
<polyline fill="none" stroke="black" points="17,-479.5 145,-479.5 "/>
<text text-anchor="start" x="25" y="-467.5" font-family="Helvetica,sans-Serif" font-size="10.00">+ Demand()</text>
<text text-anchor="start" x="25" y="-456.5" font-family="Helvetica,sans-Serif" font-size="10.00">+ no_demand()</text>
<text text-anchor="start" x="25" y="-445.5" font-family="Helvetica,sans-Serif" font-size="10.00">+ operator|()</text>
</a>
</g>
</g>
<!-- Node3&#45;&gt;Node2 -->
<g id="edge2" class="edge">
<title>Node3&#45;&gt;Node2</title>
<path fill="none" stroke="midnightblue" d="M81.79,-427.94C82.54,-366.69 83.63,-276.27 84.33,-218.64"/>
<polygon fill="none" stroke="midnightblue" points="78.29,-428.22 81.67,-438.27 85.29,-428.31 78.29,-428.22"/>
</g>
<!-- Node4 -->
<g id="node4" class="node">
<title>Node4</title>
<g id="a_node4"><a xlink:href="structL4_1_1Type__info_1_1Demand__t.html" target="_top" xlink:title="Template type statically describing demand of receive buffers.">
<polygon fill="white" stroke="black" points="97,-321.5 97,-400.5 231,-400.5 231,-321.5 97,-321.5"/>
<text text-anchor="start" x="105" y="-388.5" font-family="Helvetica,sans-Serif" font-size="10.00">L4::Type_info::Demand</text>
<text text-anchor="start" x="105" y="-377.5" font-family="Helvetica,sans-Serif" font-size="10.00">_t&lt; CAPS, FLAGS, MEM,</text>
<text text-anchor="middle" x="164" y="-366.5" font-family="Helvetica,sans-Serif" font-size="10.00"> PORTS &gt;</text>
<polyline fill="none" stroke="black" points="97,-359.5 231,-359.5 "/>
<text text-anchor="middle" x="164" y="-347.5" font-family="Helvetica,sans-Serif" font-size="10.00"> </text>
<polyline fill="none" stroke="black" points="97,-340.5 231,-340.5 "/>
<text text-anchor="start" x="105" y="-328.5" font-family="Helvetica,sans-Serif" font-size="10.00">+ Demand_t()</text>
</a>
</g>
</g>
<!-- Node3&#45;&gt;Node4 -->
<g id="edge4" class="edge">
<title>Node3&#45;&gt;Node4</title>
<path fill="none" stroke="midnightblue" d="M121.19,-429.82C127.45,-419.91 133.74,-409.93 139.51,-400.8"/>
<polygon fill="none" stroke="midnightblue" points="118.1,-428.17 115.72,-438.49 124.02,-431.91 118.1,-428.17"/>
</g>
<!-- Node4&#45;&gt;Node2 -->
<g id="edge3" class="edge">
<title>Node4&#45;&gt;Node2</title>
<path fill="none" stroke="orange" d="M144.52,-311.55C133.2,-283.4 118.9,-247.83 107.16,-218.61"/>
<polygon fill="orange" stroke="orange" points="141.41,-313.21 148.39,-321.18 147.91,-310.59 141.41,-313.21"/>
<text text-anchor="start" x="140" y="-295" font-family="Helvetica,sans-Serif" font-size="10.00"> &lt; __I::Max&lt; D1::Caps,</text>
<text text-anchor="start" x="140" y="-284" font-family="Helvetica,sans-Serif" font-size="10.00"> D2::Caps &gt;::Res, D1</text>
<text text-anchor="start" x="140" y="-273" font-family="Helvetica,sans-Serif" font-size="10.00">::Flags|D2::Flags, __I</text>
<text text-anchor="start" x="140" y="-262" font-family="Helvetica,sans-Serif" font-size="10.00">::Max&lt; D1::Mem, D2::Mem</text>
<text text-anchor="start" x="140" y="-251" font-family="Helvetica,sans-Serif" font-size="10.00"> &gt;::Res, __I::Max&lt; D1::Ports,</text>
<text text-anchor="middle" x="210.5" y="-240" font-family="Helvetica,sans-Serif" font-size="10.00"> D2::Ports &gt;::Res &gt;</text>
</g>
</g>
</svg>
