<?xml version="1.0" encoding="UTF-8" standalone="no"?>
<!DOCTYPE svg PUBLIC "-//W3C//DTD SVG 1.1//EN"
 "http://www.w3.org/Graphics/SVG/1.1/DTD/svg11.dtd">
<!-- Generated by graphviz version 2.43.0 (0)
 -->
<!-- Title: l4_vhw_descriptor Pages: 1 -->
<svg width="113pt" height="270pt"
 viewBox="0.00 0.00 113.00 270.00" xmlns="http://www.w3.org/2000/svg" xmlns:xlink="http://www.w3.org/1999/xlink">
<g id="graph0" class="graph" transform="scale(1 1) rotate(0) translate(4 266)">
<title>l4_vhw_descriptor</title>
<polygon fill="white" stroke="transparent" points="-4,4 -4,-266 109,-266 109,4 -4,4"/>
<!-- Node1 -->
<g id="node1" class="node">
<title>Node1</title>
<g id="a_node1"><a xlink:title="Virtual hardware devices description.">
<polygon fill="#bfbfbf" stroke="black" points="0,-0.5 0,-101.5 105,-101.5 105,-0.5 0,-0.5"/>
<text text-anchor="middle" x="52.5" y="-89.5" font-family="Helvetica,sans-Serif" font-size="10.00">l4_vhw_descriptor</text>
<polyline fill="none" stroke="black" points="0,-82.5 105,-82.5 "/>
<text text-anchor="start" x="8" y="-70.5" font-family="Helvetica,sans-Serif" font-size="10.00">+ magic</text>
<text text-anchor="start" x="8" y="-59.5" font-family="Helvetica,sans-Serif" font-size="10.00">+ version</text>
<text text-anchor="start" x="8" y="-48.5" font-family="Helvetica,sans-Serif" font-size="10.00">+ count</text>
<text text-anchor="start" x="8" y="-37.5" font-family="Helvetica,sans-Serif" font-size="10.00">+ pad1</text>
<text text-anchor="start" x="8" y="-26.5" font-family="Helvetica,sans-Serif" font-size="10.00">+ pad2</text>
<polyline fill="none" stroke="black" points="0,-19.5 105,-19.5 "/>
<text text-anchor="middle" x="52.5" y="-7.5" font-family="Helvetica,sans-Serif" font-size="10.00"> </text>
</a>
</g>
</g>
<!-- Node2 -->
<g id="node2" class="node">
<title>Node2</title>
<g id="a_node2"><a xlink:href="structl4__vhw__entry.html" target="_top" xlink:title="Description of a device.">
<polygon fill="white" stroke="black" points="8,-149.5 8,-261.5 97,-261.5 97,-149.5 8,-149.5"/>
<text text-anchor="middle" x="52.5" y="-249.5" font-family="Helvetica,sans-Serif" font-size="10.00">l4_vhw_entry</text>
<polyline fill="none" stroke="black" points="8,-242.5 97,-242.5 "/>
<text text-anchor="start" x="16" y="-230.5" font-family="Helvetica,sans-Serif" font-size="10.00">+ type</text>
<text text-anchor="start" x="16" y="-219.5" font-family="Helvetica,sans-Serif" font-size="10.00">+ provider_pid</text>
<text text-anchor="start" x="16" y="-208.5" font-family="Helvetica,sans-Serif" font-size="10.00">+ mem_start</text>
<text text-anchor="start" x="16" y="-197.5" font-family="Helvetica,sans-Serif" font-size="10.00">+ mem_size</text>
<text text-anchor="start" x="16" y="-186.5" font-family="Helvetica,sans-Serif" font-size="10.00">+ irq_no</text>
<text text-anchor="start" x="16" y="-175.5" font-family="Helvetica,sans-Serif" font-size="10.00">+ fd</text>
<polyline fill="none" stroke="black" points="8,-168.5 97,-168.5 "/>
<text text-anchor="middle" x="52.5" y="-156.5" font-family="Helvetica,sans-Serif" font-size="10.00"> </text>
</a>
</g>
</g>
<!-- Node2&#45;&gt;Node1 -->
<g id="edge1" class="edge">
<title>Node2&#45;&gt;Node1</title>
<path fill="none" stroke="#404040" d="M52.5,-149.44C52.5,-137.86 52.5,-125.56 52.5,-113.74"/>
<polygon fill="none" stroke="#404040" points="52.5,-113.66 48.5,-107.66 52.5,-101.66 56.5,-107.66 52.5,-113.66"/>
<text text-anchor="middle" x="72.5" y="-123" font-family="Helvetica,sans-Serif" font-size="10.00"> +descs</text>
</g>
</g>
</svg>
