<?xml version="1.0" encoding="UTF-8" standalone="no"?>
<!DOCTYPE svg PUBLIC "-//W3C//DTD SVG 1.1//EN"
 "http://www.w3.org/Graphics/SVG/1.1/DTD/svg11.dtd">
<!-- Generated by graphviz version 2.43.0 (0)
 -->
<!-- Title: L4Re::Util::Counter&lt; COUNTER &gt; Pages: 1 -->
<svg width="156pt" height="303pt"
 viewBox="0.00 0.00 156.00 303.00" xmlns="http://www.w3.org/2000/svg" xmlns:xlink="http://www.w3.org/1999/xlink">
<g id="graph0" class="graph" transform="scale(1 1) rotate(0) translate(4 299)">
<title>L4Re::Util::Counter&lt; COUNTER &gt;</title>
<polygon fill="white" stroke="transparent" points="-4,4 -4,-299 152,-299 152,4 -4,4"/>
<!-- Node1 -->
<g id="node1" class="node">
<title>Node1</title>
<g id="a_node1"><a xlink:title="Counter for Counting_cap_alloc with variable data width.">
<polygon fill="#bfbfbf" stroke="black" points="0,-171.5 0,-294.5 108,-294.5 108,-171.5 0,-171.5"/>
<text text-anchor="start" x="8" y="-282.5" font-family="Helvetica,sans-Serif" font-size="10.00">L4Re::Util::Counter</text>
<text text-anchor="middle" x="54" y="-271.5" font-family="Helvetica,sans-Serif" font-size="10.00">&lt; COUNTER &gt;</text>
<polyline fill="none" stroke="black" points="0,-264.5 108,-264.5 "/>
<text text-anchor="start" x="8" y="-252.5" font-family="Helvetica,sans-Serif" font-size="10.00">+ _cnt</text>
<polyline fill="none" stroke="black" points="0,-245.5 108,-245.5 "/>
<text text-anchor="start" x="8" y="-233.5" font-family="Helvetica,sans-Serif" font-size="10.00">+ free()</text>
<text text-anchor="start" x="8" y="-222.5" font-family="Helvetica,sans-Serif" font-size="10.00">+ is_free()</text>
<text text-anchor="start" x="8" y="-211.5" font-family="Helvetica,sans-Serif" font-size="10.00">+ inc()</text>
<text text-anchor="start" x="8" y="-200.5" font-family="Helvetica,sans-Serif" font-size="10.00">+ dec()</text>
<text text-anchor="start" x="8" y="-189.5" font-family="Helvetica,sans-Serif" font-size="10.00">+ alloc()</text>
<text text-anchor="start" x="8" y="-178.5" font-family="Helvetica,sans-Serif" font-size="10.00">+ nil()</text>
</a>
</g>
</g>
<!-- Node2 -->
<g id="node2" class="node">
<title>Node2</title>
<g id="a_node2"><a xlink:href="structL4Re_1_1Util_1_1Counter.html" target="_top" xlink:title=" ">
<polygon fill="white" stroke="black" points="0,-0.5 0,-123.5 108,-123.5 108,-0.5 0,-0.5"/>
<text text-anchor="start" x="8" y="-111.5" font-family="Helvetica,sans-Serif" font-size="10.00">L4Re::Util::Counter</text>
<text text-anchor="middle" x="54" y="-100.5" font-family="Helvetica,sans-Serif" font-size="10.00">&lt; unsigned char &gt;</text>
<polyline fill="none" stroke="black" points="0,-93.5 108,-93.5 "/>
<text text-anchor="start" x="8" y="-81.5" font-family="Helvetica,sans-Serif" font-size="10.00">+ _cnt</text>
<polyline fill="none" stroke="black" points="0,-74.5 108,-74.5 "/>
<text text-anchor="start" x="8" y="-62.5" font-family="Helvetica,sans-Serif" font-size="10.00">+ free()</text>
<text text-anchor="start" x="8" y="-51.5" font-family="Helvetica,sans-Serif" font-size="10.00">+ is_free()</text>
<text text-anchor="start" x="8" y="-40.5" font-family="Helvetica,sans-Serif" font-size="10.00">+ inc()</text>
<text text-anchor="start" x="8" y="-29.5" font-family="Helvetica,sans-Serif" font-size="10.00">+ dec()</text>
<text text-anchor="start" x="8" y="-18.5" font-family="Helvetica,sans-Serif" font-size="10.00">+ alloc()</text>
<text text-anchor="start" x="8" y="-7.5" font-family="Helvetica,sans-Serif" font-size="10.00">+ nil()</text>
</a>
</g>
</g>
<!-- Node1&#45;&gt;Node2 -->
<g id="edge1" class="edge">
<title>Node1&#45;&gt;Node2</title>
<path fill="none" stroke="orange" d="M54,-161.13C54,-148.68 54,-135.82 54,-123.68"/>
<polygon fill="orange" stroke="orange" points="50.5,-161.46 54,-171.46 57.5,-161.46 50.5,-161.46"/>
<text text-anchor="middle" x="101" y="-145" font-family="Helvetica,sans-Serif" font-size="10.00"> &lt; unsigned char &gt;</text>
</g>
</g>
</svg>
