<?xml version="1.0" encoding="UTF-8" standalone="no"?>
<!DOCTYPE svg PUBLIC "-//W3C//DTD SVG 1.1//EN"
 "http://www.w3.org/Graphics/SVG/1.1/DTD/svg11.dtd">
<!-- Generated by graphviz version 2.43.0 (0)
 -->
<!-- Title: L4::Typeid::Detail::_Rpcs&lt; OPCODE, O, X &gt; Pages: 1 -->
<svg width="149pt" height="182pt"
 viewBox="0.00 0.00 149.00 182.00" xmlns="http://www.w3.org/2000/svg" xmlns:xlink="http://www.w3.org/1999/xlink">
<g id="graph0" class="graph" transform="scale(1 1) rotate(0) translate(4 178)">
<title>L4::Typeid::Detail::_Rpcs&lt; OPCODE, O, X &gt;</title>
<polygon fill="white" stroke="transparent" points="-4,4 -4,-178 145,-178 145,4 -4,4"/>
<!-- Node1 -->
<g id="node1" class="node">
<title>Node1</title>
<g id="a_node1"><a xlink:title="Empty list of RPCs.">
<polygon fill="#bfbfbf" stroke="black" points="0,-0.5 0,-68.5 141,-68.5 141,-0.5 0,-0.5"/>
<text text-anchor="start" x="8" y="-56.5" font-family="Helvetica,sans-Serif" font-size="10.00">L4::Typeid::Detail</text>
<text text-anchor="middle" x="70.5" y="-45.5" font-family="Helvetica,sans-Serif" font-size="10.00">::_Rpcs&lt; OPCODE, O, X &gt;</text>
<polyline fill="none" stroke="black" points="0,-38.5 141,-38.5 "/>
<text text-anchor="middle" x="70.5" y="-26.5" font-family="Helvetica,sans-Serif" font-size="10.00"> </text>
<polyline fill="none" stroke="black" points="0,-19.5 141,-19.5 "/>
<text text-anchor="middle" x="70.5" y="-7.5" font-family="Helvetica,sans-Serif" font-size="10.00"> </text>
</a>
</g>
</g>
<!-- Node2 -->
<g id="node2" class="node">
<title>Node2</title>
<g id="a_node2"><a xlink:href="structL4_1_1Typeid_1_1Detail_1_1Rpcs__end.html" target="_top" xlink:title="Internal end&#45;of&#45;list marker.">
<polygon fill="white" stroke="black" points="20,-105.5 20,-173.5 121,-173.5 121,-105.5 20,-105.5"/>
<text text-anchor="start" x="28" y="-161.5" font-family="Helvetica,sans-Serif" font-size="10.00">L4::Typeid::Detail</text>
<text text-anchor="middle" x="70.5" y="-150.5" font-family="Helvetica,sans-Serif" font-size="10.00">::Rpcs_end</text>
<polyline fill="none" stroke="black" points="20,-143.5 121,-143.5 "/>
<text text-anchor="middle" x="70.5" y="-131.5" font-family="Helvetica,sans-Serif" font-size="10.00"> </text>
<polyline fill="none" stroke="black" points="20,-124.5 121,-124.5 "/>
<text text-anchor="middle" x="70.5" y="-112.5" font-family="Helvetica,sans-Serif" font-size="10.00"> </text>
</a>
</g>
</g>
<!-- Node2&#45;&gt;Node1 -->
<g id="edge1" class="edge">
<title>Node2&#45;&gt;Node1</title>
<path fill="none" stroke="midnightblue" d="M70.5,-95.14C70.5,-86.26 70.5,-77.04 70.5,-68.59"/>
<polygon fill="none" stroke="midnightblue" points="67,-95.34 70.5,-105.34 74,-95.34 67,-95.34"/>
</g>
</g>
</svg>
