<?xml version="1.0" encoding="UTF-8" standalone="no"?>
<!DOCTYPE svg PUBLIC "-//W3C//DTD SVG 1.1//EN"
 "http://www.w3.org/Graphics/SVG/1.1/DTD/svg11.dtd">
<!-- Generated by graphviz version 2.43.0 (0)
 -->
<!-- Title: L4::Ipc::Array_ref&lt; ELEM_TYPE, LEN_TYPE &gt; Pages: 1 -->
<svg width="280pt" height="670pt"
 viewBox="0.00 0.00 280.00 670.00" xmlns="http://www.w3.org/2000/svg" xmlns:xlink="http://www.w3.org/1999/xlink">
<g id="graph0" class="graph" transform="scale(1 1) rotate(0) translate(4 666)">
<title>L4::Ipc::Array_ref&lt; ELEM_TYPE, LEN_TYPE &gt;</title>
<polygon fill="white" stroke="transparent" points="-4,4 -4,-666 276,-666 276,4 -4,4"/>
<!-- Node1 -->
<g id="node1" class="node">
<title>Node1</title>
<g id="a_node1"><a xlink:title="Array reference data type for arrays located in the message.">
<polygon fill="#bfbfbf" stroke="black" points="43.5,-560.5 43.5,-661.5 192.5,-661.5 192.5,-560.5 43.5,-560.5"/>
<text text-anchor="start" x="51.5" y="-649.5" font-family="Helvetica,sans-Serif" font-size="10.00">L4::Ipc::Array_ref</text>
<text text-anchor="middle" x="118" y="-638.5" font-family="Helvetica,sans-Serif" font-size="10.00">&lt; ELEM_TYPE, LEN_TYPE &gt;</text>
<polyline fill="none" stroke="black" points="43.5,-631.5 192.5,-631.5 "/>
<text text-anchor="start" x="51.5" y="-619.5" font-family="Helvetica,sans-Serif" font-size="10.00">+ length</text>
<text text-anchor="start" x="51.5" y="-608.5" font-family="Helvetica,sans-Serif" font-size="10.00">+ data</text>
<polyline fill="none" stroke="black" points="43.5,-601.5 192.5,-601.5 "/>
<text text-anchor="start" x="51.5" y="-589.5" font-family="Helvetica,sans-Serif" font-size="10.00">+ Array_ref()</text>
<text text-anchor="start" x="51.5" y="-578.5" font-family="Helvetica,sans-Serif" font-size="10.00">+ Array_ref()</text>
<text text-anchor="start" x="51.5" y="-567.5" font-family="Helvetica,sans-Serif" font-size="10.00">+ Array_ref()</text>
</a>
</g>
</g>
<!-- Node2 -->
<g id="node2" class="node">
<title>Node2</title>
<g id="a_node2"><a xlink:href="structL4_1_1Ipc_1_1Array__ref.html" target="_top" xlink:title=" ">
<polygon fill="white" stroke="black" points="0,-258.5 0,-370.5 128,-370.5 128,-258.5 0,-258.5"/>
<text text-anchor="start" x="8" y="-358.5" font-family="Helvetica,sans-Serif" font-size="10.00">L4::Ipc::Array_ref</text>
<text text-anchor="start" x="8" y="-347.5" font-family="Helvetica,sans-Serif" font-size="10.00">&lt; char const, unsigned</text>
<text text-anchor="middle" x="64" y="-336.5" font-family="Helvetica,sans-Serif" font-size="10.00"> long &gt;</text>
<polyline fill="none" stroke="black" points="0,-329.5 128,-329.5 "/>
<text text-anchor="start" x="8" y="-317.5" font-family="Helvetica,sans-Serif" font-size="10.00">+ length</text>
<text text-anchor="start" x="8" y="-306.5" font-family="Helvetica,sans-Serif" font-size="10.00">+ data</text>
<polyline fill="none" stroke="black" points="0,-299.5 128,-299.5 "/>
<text text-anchor="start" x="8" y="-287.5" font-family="Helvetica,sans-Serif" font-size="10.00">+ Array_ref()</text>
<text text-anchor="start" x="8" y="-276.5" font-family="Helvetica,sans-Serif" font-size="10.00">+ Array_ref()</text>
<text text-anchor="start" x="8" y="-265.5" font-family="Helvetica,sans-Serif" font-size="10.00">+ Array_ref()</text>
</a>
</g>
</g>
<!-- Node1&#45;&gt;Node2 -->
<g id="edge1" class="edge">
<title>Node1&#45;&gt;Node2</title>
<path fill="none" stroke="orange" d="M51.2,-552.03C49.23,-548.79 47.48,-545.44 46,-542 22.42,-487.3 32.92,-418.33 45.5,-370.95"/>
<polygon fill="orange" stroke="orange" points="48.34,-554.06 56.85,-560.37 54.14,-550.13 48.34,-554.06"/>
<text text-anchor="start" x="46" y="-534" font-family="Helvetica,sans-Serif" font-size="10.00"> &lt; char const, unsigned</text>
<text text-anchor="middle" x="103.5" y="-523" font-family="Helvetica,sans-Serif" font-size="10.00"> long &gt;</text>
</g>
<!-- Node4 -->
<g id="node4" class="node">
<title>Node4</title>
<g id="a_node4"><a xlink:href="structL4_1_1Ipc_1_1Array__ref.html" target="_top" xlink:title=" ">
<polygon fill="white" stroke="black" points="98,-389.5 98,-501.5 234,-501.5 234,-389.5 98,-389.5"/>
<text text-anchor="start" x="106" y="-489.5" font-family="Helvetica,sans-Serif" font-size="10.00">L4::Ipc::Array_ref</text>
<text text-anchor="start" x="106" y="-478.5" font-family="Helvetica,sans-Serif" font-size="10.00">&lt; ELEM_TYPE, Array_len</text>
<text text-anchor="middle" x="166" y="-467.5" font-family="Helvetica,sans-Serif" font-size="10.00">_default &gt;</text>
<polyline fill="none" stroke="black" points="98,-460.5 234,-460.5 "/>
<text text-anchor="start" x="106" y="-448.5" font-family="Helvetica,sans-Serif" font-size="10.00">+ length</text>
<text text-anchor="start" x="106" y="-437.5" font-family="Helvetica,sans-Serif" font-size="10.00">+ data</text>
<polyline fill="none" stroke="black" points="98,-430.5 234,-430.5 "/>
<text text-anchor="start" x="106" y="-418.5" font-family="Helvetica,sans-Serif" font-size="10.00">+ Array_ref()</text>
<text text-anchor="start" x="106" y="-407.5" font-family="Helvetica,sans-Serif" font-size="10.00">+ Array_ref()</text>
<text text-anchor="start" x="106" y="-396.5" font-family="Helvetica,sans-Serif" font-size="10.00">+ Array_ref()</text>
</a>
</g>
</g>
<!-- Node1&#45;&gt;Node4 -->
<g id="edge3" class="edge">
<title>Node1&#45;&gt;Node4</title>
<path fill="none" stroke="orange" d="M161.45,-551.37C162.8,-548.28 164,-545.15 165,-542 169.04,-529.28 170.64,-515.12 170.93,-501.67"/>
<polygon fill="orange" stroke="orange" points="158.23,-549.98 156.96,-560.5 164.51,-553.07 158.23,-549.98"/>
<text text-anchor="start" x="169" y="-534" font-family="Helvetica,sans-Serif" font-size="10.00"> &lt; ELEM_TYPE, Array</text>
<text text-anchor="middle" x="220.5" y="-523" font-family="Helvetica,sans-Serif" font-size="10.00">_len_default &gt;</text>
</g>
<!-- Node3 -->
<g id="node3" class="node">
<title>Node3</title>
<g id="a_node3"><a xlink:href="structL4_1_1Ipc_1_1Array.html" target="_top" xlink:title=" ">
<polygon fill="white" stroke="black" points="21.5,-0.5 21.5,-90.5 152.5,-90.5 152.5,-0.5 21.5,-0.5"/>
<text text-anchor="start" x="29.5" y="-78.5" font-family="Helvetica,sans-Serif" font-size="10.00">L4::Ipc::Array&lt; char</text>
<text text-anchor="middle" x="87" y="-67.5" font-family="Helvetica,sans-Serif" font-size="10.00"> const, unsigned long &gt;</text>
<polyline fill="none" stroke="black" points="21.5,-60.5 152.5,-60.5 "/>
<text text-anchor="middle" x="87" y="-48.5" font-family="Helvetica,sans-Serif" font-size="10.00"> </text>
<polyline fill="none" stroke="black" points="21.5,-41.5 152.5,-41.5 "/>
<text text-anchor="start" x="29.5" y="-29.5" font-family="Helvetica,sans-Serif" font-size="10.00">+ Array()</text>
<text text-anchor="start" x="29.5" y="-18.5" font-family="Helvetica,sans-Serif" font-size="10.00">+ Array()</text>
<text text-anchor="start" x="29.5" y="-7.5" font-family="Helvetica,sans-Serif" font-size="10.00">+ Array()</text>
</a>
</g>
</g>
<!-- Node2&#45;&gt;Node3 -->
<g id="edge2" class="edge">
<title>Node2&#45;&gt;Node3</title>
<path fill="none" stroke="midnightblue" d="M69.64,-248.01C73.85,-199.1 79.5,-133.58 83.19,-90.72"/>
<polygon fill="none" stroke="midnightblue" points="66.14,-247.91 68.77,-258.18 73.11,-248.51 66.14,-247.91"/>
</g>
<!-- Node5 -->
<g id="node5" class="node">
<title>Node5</title>
<g id="a_node5"><a xlink:href="structL4_1_1Ipc_1_1Array.html" target="_top" xlink:title="Array data type for dynamically sized arrays in RPCs.">
<polygon fill="white" stroke="black" points="103,-149.5 103,-239.5 221,-239.5 221,-149.5 103,-149.5"/>
<text text-anchor="start" x="111" y="-227.5" font-family="Helvetica,sans-Serif" font-size="10.00">L4::Ipc::Array&lt; ELEM</text>
<text text-anchor="middle" x="162" y="-216.5" font-family="Helvetica,sans-Serif" font-size="10.00">_TYPE, LEN_TYPE &gt;</text>
<polyline fill="none" stroke="black" points="103,-209.5 221,-209.5 "/>
<text text-anchor="middle" x="162" y="-197.5" font-family="Helvetica,sans-Serif" font-size="10.00"> </text>
<polyline fill="none" stroke="black" points="103,-190.5 221,-190.5 "/>
<text text-anchor="start" x="111" y="-178.5" font-family="Helvetica,sans-Serif" font-size="10.00">+ Array()</text>
<text text-anchor="start" x="111" y="-167.5" font-family="Helvetica,sans-Serif" font-size="10.00">+ Array()</text>
<text text-anchor="start" x="111" y="-156.5" font-family="Helvetica,sans-Serif" font-size="10.00">+ Array()</text>
</a>
</g>
</g>
<!-- Node4&#45;&gt;Node5 -->
<g id="edge4" class="edge">
<title>Node4&#45;&gt;Node5</title>
<path fill="none" stroke="midnightblue" d="M164.95,-379.22C164.25,-335.3 163.33,-278.56 162.71,-239.83"/>
<polygon fill="none" stroke="midnightblue" points="161.45,-379.3 165.11,-389.24 168.45,-379.18 161.45,-379.3"/>
</g>
<!-- Node5&#45;&gt;Node3 -->
<g id="edge5" class="edge">
<title>Node5&#45;&gt;Node3</title>
<path fill="none" stroke="orange" d="M134.95,-140.48C126.6,-124.11 117.49,-106.27 109.49,-90.57"/>
<polygon fill="orange" stroke="orange" points="131.84,-142.08 139.5,-149.4 138.07,-138.9 131.84,-142.08"/>
<text text-anchor="start" x="128" y="-123" font-family="Helvetica,sans-Serif" font-size="10.00"> &lt; char const, unsigned</text>
<text text-anchor="middle" x="185.5" y="-112" font-family="Helvetica,sans-Serif" font-size="10.00"> long &gt;</text>
</g>
</g>
</svg>
