<?xml version="1.0" encoding="UTF-8" standalone="no"?>
<!DOCTYPE svg PUBLIC "-//W3C//DTD SVG 1.1//EN"
 "http://www.w3.org/Graphics/SVG/1.1/DTD/svg11.dtd">
<!-- Generated by graphviz version 2.43.0 (0)
 -->
<!-- Title: L4::Triggerable::trigger Pages: 1 -->
<svg width="454pt" height="85pt"
 viewBox="0.00 0.00 454.00 85.00" xmlns="http://www.w3.org/2000/svg" xmlns:xlink="http://www.w3.org/1999/xlink">
<g id="graph0" class="graph" transform="scale(1 1) rotate(0) translate(4 81)">
<title>L4::Triggerable::trigger</title>
<polygon fill="white" stroke="transparent" points="-4,4 -4,-81 450,-81 450,4 -4,4"/>
<!-- Node1 -->
<g id="node1" class="node">
<title>Node1</title>
<g id="a_node1"><a xlink:title="Trigger.">
<polygon fill="#bfbfbf" stroke="black" points="0,-38.5 0,-57.5 126,-57.5 126,-38.5 0,-38.5"/>
<text text-anchor="middle" x="63" y="-45.5" font-family="Helvetica,sans-Serif" font-size="10.00">L4::Triggerable::trigger</text>
</a>
</g>
</g>
<!-- Node2 -->
<g id="node2" class="node">
<title>Node2</title>
<g id="a_node2"><a xlink:href="classL4_1_1Kobject.html#a4f2117ae76762f4084e6a1adb915863c" target="_top" xlink:title="Return capability selector.">
<polygon fill="white" stroke="black" points="162,-57.5 162,-76.5 255,-76.5 255,-57.5 162,-57.5"/>
<text text-anchor="middle" x="208.5" y="-64.5" font-family="Helvetica,sans-Serif" font-size="10.00">L4::Kobject::cap</text>
</a>
</g>
</g>
<!-- Node1&#45;&gt;Node2 -->
<g id="edge1" class="edge">
<title>Node1&#45;&gt;Node2</title>
<path fill="none" stroke="midnightblue" d="M126.11,-56.22C134.62,-57.35 143.31,-58.5 151.69,-59.61"/>
<polygon fill="midnightblue" stroke="midnightblue" points="151.37,-63.1 161.74,-60.94 152.29,-56.16 151.37,-63.1"/>
</g>
<!-- Node3 -->
<g id="node3" class="node">
<title>Node3</title>
<g id="a_node3"><a xlink:href="group__l4__irq__api.html#ga180cfaf342ce9ff484a6aa7c276e1597" target="_top" xlink:title="Trigger.">
<polygon fill="white" stroke="black" points="162.5,-19.5 162.5,-38.5 254.5,-38.5 254.5,-19.5 162.5,-19.5"/>
<text text-anchor="middle" x="208.5" y="-26.5" font-family="Helvetica,sans-Serif" font-size="10.00">l4_irq_trigger_u</text>
</a>
</g>
</g>
<!-- Node1&#45;&gt;Node3 -->
<g id="edge2" class="edge">
<title>Node1&#45;&gt;Node3</title>
<path fill="none" stroke="midnightblue" d="M126.11,-39.78C134.72,-38.64 143.53,-37.47 152.01,-36.35"/>
<polygon fill="midnightblue" stroke="midnightblue" points="152.72,-39.78 162.17,-35 151.8,-32.84 152.72,-39.78"/>
</g>
<!-- Node4 -->
<g id="node4" class="node">
<title>Node4</title>
<g id="a_node4"><a xlink:href="group__l4__ipc__api.html#ga7de45eb59ce852466362ea85da00299e" target="_top" xlink:title="Send a message to an object (do not wait for a reply).">
<polygon fill="white" stroke="black" points="291,-38.5 291,-57.5 365,-57.5 365,-38.5 291,-38.5"/>
<text text-anchor="middle" x="328" y="-45.5" font-family="Helvetica,sans-Serif" font-size="10.00">l4_ipc_send</text>
</a>
</g>
</g>
<!-- Node3&#45;&gt;Node4 -->
<g id="edge3" class="edge">
<title>Node3&#45;&gt;Node4</title>
<path fill="none" stroke="midnightblue" d="M254.59,-36.29C263.24,-37.69 272.31,-39.16 281,-40.56"/>
<polygon fill="midnightblue" stroke="midnightblue" points="280.53,-44.03 290.96,-42.17 281.64,-37.12 280.53,-44.03"/>
</g>
<!-- Node6 -->
<g id="node6" class="node">
<title>Node6</title>
<g id="a_node6"><a xlink:href="group__l4__msgtag__api.html#ga661d71acad9d096fa990f7c94943bc78" target="_top" xlink:title="Create a message tag from the specified values.">
<polygon fill="white" stroke="black" points="294,-0.5 294,-19.5 362,-19.5 362,-0.5 294,-0.5"/>
<text text-anchor="middle" x="328" y="-7.5" font-family="Helvetica,sans-Serif" font-size="10.00">l4_msgtag</text>
</a>
</g>
</g>
<!-- Node3&#45;&gt;Node6 -->
<g id="edge5" class="edge">
<title>Node3&#45;&gt;Node6</title>
<path fill="none" stroke="midnightblue" d="M254.59,-21.71C264.19,-20.16 274.31,-18.52 283.83,-16.98"/>
<polygon fill="midnightblue" stroke="midnightblue" points="284.58,-20.41 293.89,-15.35 283.46,-13.5 284.58,-20.41"/>
</g>
<!-- Node5 -->
<g id="node5" class="node">
<title>Node5</title>
<g id="a_node5"><a xlink:href="group__l4__ipc__api.html#ga0e7e5b18d784b1d3439ea6e5b4bea4e2" target="_top" xlink:title="Generic L4 object invocation.">
<polygon fill="white" stroke="black" points="401,-38.5 401,-57.5 446,-57.5 446,-38.5 401,-38.5"/>
<text text-anchor="middle" x="423.5" y="-45.5" font-family="Helvetica,sans-Serif" font-size="10.00">l4_ipc</text>
</a>
</g>
</g>
<!-- Node4&#45;&gt;Node5 -->
<g id="edge4" class="edge">
<title>Node4&#45;&gt;Node5</title>
<path fill="none" stroke="midnightblue" d="M365.15,-48C373.51,-48 382.35,-48 390.52,-48"/>
<polygon fill="midnightblue" stroke="midnightblue" points="390.77,-51.5 400.77,-48 390.77,-44.5 390.77,-51.5"/>
</g>
</g>
</svg>
