<?xml version="1.0" encoding="UTF-8" standalone="no"?>
<!DOCTYPE svg PUBLIC "-//W3C//DTD SVG 1.1//EN"
 "http://www.w3.org/Graphics/SVG/1.1/DTD/svg11.dtd">
<!-- Generated by graphviz version 2.43.0 (0)
 -->
<!-- Title: l4_thread_regs_t Pages: 1 -->
<svg width="106pt" height="309pt"
 viewBox="0.00 0.00 106.00 309.00" xmlns="http://www.w3.org/2000/svg" xmlns:xlink="http://www.w3.org/1999/xlink">
<g id="graph0" class="graph" transform="scale(1 1) rotate(0) translate(4 305)">
<title>l4_thread_regs_t</title>
<polygon fill="white" stroke="transparent" points="-4,4 -4,-305 102,-305 102,4 -4,4"/>
<!-- Node1 -->
<g id="node1" class="node">
<title>Node1</title>
<g id="a_node1"><a xlink:title="Encapsulation of the thread&#45;control&#45;register block of the UTCB.">
<polygon fill="#bfbfbf" stroke="black" points="0,-0.5 0,-68.5 98,-68.5 98,-0.5 0,-0.5"/>
<text text-anchor="middle" x="49" y="-56.5" font-family="Helvetica,sans-Serif" font-size="10.00">l4_thread_regs_t</text>
<polyline fill="none" stroke="black" points="0,-49.5 98,-49.5 "/>
<text text-anchor="start" x="8" y="-37.5" font-family="Helvetica,sans-Serif" font-size="10.00">+ error</text>
<text text-anchor="start" x="8" y="-26.5" font-family="Helvetica,sans-Serif" font-size="10.00">+ user</text>
<polyline fill="none" stroke="black" points="0,-19.5 98,-19.5 "/>
<text text-anchor="middle" x="49" y="-7.5" font-family="Helvetica,sans-Serif" font-size="10.00"> </text>
</a>
</g>
</g>
<!-- Node2 -->
<g id="node2" class="node">
<title>Node2</title>
<g id="a_node2"><a xlink:href="unionl4__timeout__t.html" target="_top" xlink:title="Timeout pair.">
<polygon fill="white" stroke="black" points="10,-116.5 10,-184.5 88,-184.5 88,-116.5 10,-116.5"/>
<text text-anchor="middle" x="49" y="-172.5" font-family="Helvetica,sans-Serif" font-size="10.00">l4_timeout_t</text>
<polyline fill="none" stroke="black" points="10,-165.5 88,-165.5 "/>
<text text-anchor="start" x="18" y="-153.5" font-family="Helvetica,sans-Serif" font-size="10.00">+ raw</text>
<text text-anchor="start" x="18" y="-142.5" font-family="Helvetica,sans-Serif" font-size="10.00">+ p</text>
<polyline fill="none" stroke="black" points="10,-135.5 88,-135.5 "/>
<text text-anchor="middle" x="49" y="-123.5" font-family="Helvetica,sans-Serif" font-size="10.00"> </text>
</a>
</g>
</g>
<!-- Node2&#45;&gt;Node1 -->
<g id="edge1" class="edge">
<title>Node2&#45;&gt;Node1</title>
<path fill="none" stroke="#404040" d="M49,-116.22C49,-105.1 49,-92.51 49,-80.64"/>
<polygon fill="none" stroke="#404040" points="49,-80.62 45,-74.62 49,-68.62 53,-74.62 49,-80.62"/>
<text text-anchor="middle" x="64.5" y="-90" font-family="Helvetica,sans-Serif" font-size="10.00"> +xfer</text>
</g>
<!-- Node3 -->
<g id="node3" class="node">
<title>Node3</title>
<g id="a_node3"><a xlink:href="structl4__timeout__s.html" target="_top" xlink:title="Basic timeout specification.">
<polygon fill="white" stroke="black" points="9,-243.5 9,-300.5 89,-300.5 89,-243.5 9,-243.5"/>
<text text-anchor="middle" x="49" y="-288.5" font-family="Helvetica,sans-Serif" font-size="10.00">l4_timeout_s</text>
<polyline fill="none" stroke="black" points="9,-281.5 89,-281.5 "/>
<text text-anchor="start" x="17" y="-269.5" font-family="Helvetica,sans-Serif" font-size="10.00">+ t</text>
<polyline fill="none" stroke="black" points="9,-262.5 89,-262.5 "/>
<text text-anchor="middle" x="49" y="-250.5" font-family="Helvetica,sans-Serif" font-size="10.00"> </text>
</a>
</g>
</g>
<!-- Node3&#45;&gt;Node2 -->
<g id="edge2" class="edge">
<title>Node3&#45;&gt;Node2</title>
<path fill="none" stroke="#404040" d="M49,-243.28C49,-229.47 49,-212.4 49,-196.75"/>
<polygon fill="none" stroke="#404040" points="49,-196.59 45,-190.59 49,-184.59 53,-190.59 49,-196.59"/>
<text text-anchor="middle" x="62.5" y="-217" font-family="Helvetica,sans-Serif" font-size="10.00"> +rcv</text>
<text text-anchor="middle" x="62.5" y="-206" font-family="Helvetica,sans-Serif" font-size="10.00">+snd</text>
</g>
</g>
</svg>
