<?xml version="1.0" encoding="UTF-8" standalone="no"?>
<!DOCTYPE svg PUBLIC "-//W3C//DTD SVG 1.1//EN"
 "http://www.w3.org/Graphics/SVG/1.1/DTD/svg11.dtd">
<!-- Generated by graphviz version 2.43.0 (0)
 -->
<!-- Title: L4::Kobject_typeid::proto_dispatch Pages: 1 -->
<svg width="408pt" height="39pt"
 viewBox="0.00 0.00 408.00 39.00" xmlns="http://www.w3.org/2000/svg" xmlns:xlink="http://www.w3.org/1999/xlink">
<g id="graph0" class="graph" transform="scale(1 1) rotate(0) translate(4 35)">
<title>L4::Kobject_typeid::proto_dispatch</title>
<polygon fill="white" stroke="transparent" points="-4,4 -4,-35 404,-35 404,4 -4,4"/>
<!-- Node1 -->
<g id="node1" class="node">
<title>Node1</title>
<g id="a_node1"><a xlink:title="Protocol based server&#45;side dispatch function.">
<polygon fill="#bfbfbf" stroke="black" points="294,-0.5 294,-30.5 400,-30.5 400,-0.5 294,-0.5"/>
<text text-anchor="start" x="302" y="-18.5" font-family="Helvetica,sans-Serif" font-size="10.00">L4::Kobject_typeid</text>
<text text-anchor="middle" x="347" y="-7.5" font-family="Helvetica,sans-Serif" font-size="10.00">::proto_dispatch</text>
</a>
</g>
</g>
<!-- Node2 -->
<g id="node2" class="node">
<title>Node2</title>
<g id="a_node2"><a xlink:href="structL4_1_1Server__object__t.html#a0272837ace7417acf9497fc9b1c40fc2" target="_top" xlink:title="Implementation of protocol&#45;based dispatch for this server object.">
<polygon fill="white" stroke="black" points="148,-0.5 148,-30.5 258,-30.5 258,-0.5 148,-0.5"/>
<text text-anchor="start" x="156" y="-18.5" font-family="Helvetica,sans-Serif" font-size="10.00">L4::Server_object_t</text>
<text text-anchor="middle" x="203" y="-7.5" font-family="Helvetica,sans-Serif" font-size="10.00">::proto_dispatch</text>
</a>
</g>
</g>
<!-- Node1&#45;&gt;Node2 -->
<g id="edge1" class="edge">
<title>Node1&#45;&gt;Node2</title>
<path fill="none" stroke="midnightblue" d="M283.76,-15.5C275.33,-15.5 266.73,-15.5 258.45,-15.5"/>
<polygon fill="midnightblue" stroke="midnightblue" points="283.93,-19 293.93,-15.5 283.93,-12 283.93,-19"/>
</g>
<!-- Node3 -->
<g id="node3" class="node">
<title>Node3</title>
<g id="a_node3"><a xlink:href="structL4_1_1Server__object__x.html#a8ef4af4e10f927a2957b4f61e6c2b3fd" target="_top" xlink:title="Implementation forwarding to p_dispatch().">
<polygon fill="white" stroke="black" points="0,-0.5 0,-30.5 112,-30.5 112,-0.5 0,-0.5"/>
<text text-anchor="start" x="8" y="-18.5" font-family="Helvetica,sans-Serif" font-size="10.00">L4::Server_object_x</text>
<text text-anchor="middle" x="56" y="-7.5" font-family="Helvetica,sans-Serif" font-size="10.00">::dispatch</text>
</a>
</g>
</g>
<!-- Node2&#45;&gt;Node3 -->
<g id="edge2" class="edge">
<title>Node2&#45;&gt;Node3</title>
<path fill="none" stroke="midnightblue" d="M137.43,-15.5C129.01,-15.5 120.44,-15.5 112.19,-15.5"/>
<polygon fill="midnightblue" stroke="midnightblue" points="137.59,-19 147.59,-15.5 137.59,-12 137.59,-19"/>
</g>
</g>
</svg>
