<?xml version="1.0" encoding="UTF-8" standalone="no"?>
<!DOCTYPE svg PUBLIC "-//W3C//DTD SVG 1.1//EN"
 "http://www.w3.org/Graphics/SVG/1.1/DTD/svg11.dtd">
<!-- Generated by graphviz version 2.43.0 (0)
 -->
<!-- Title: l4util_idt_header_t Pages: 1 -->
<svg width="115pt" height="215pt"
 viewBox="0.00 0.00 115.00 215.00" xmlns="http://www.w3.org/2000/svg" xmlns:xlink="http://www.w3.org/1999/xlink">
<g id="graph0" class="graph" transform="scale(1 1) rotate(0) translate(4 211)">
<title>l4util_idt_header_t</title>
<polygon fill="white" stroke="transparent" points="-4,4 -4,-211 111,-211 111,4 -4,4"/>
<!-- Node1 -->
<g id="node1" class="node">
<title>Node1</title>
<g id="a_node1"><a xlink:title="Header of an IDT table.">
<polygon fill="#bfbfbf" stroke="black" points="0,-0.5 0,-68.5 107,-68.5 107,-0.5 0,-0.5"/>
<text text-anchor="middle" x="53.5" y="-56.5" font-family="Helvetica,sans-Serif" font-size="10.00">l4util_idt_header_t</text>
<polyline fill="none" stroke="black" points="0,-49.5 107,-49.5 "/>
<text text-anchor="start" x="8" y="-37.5" font-family="Helvetica,sans-Serif" font-size="10.00">+ limit</text>
<text text-anchor="start" x="8" y="-26.5" font-family="Helvetica,sans-Serif" font-size="10.00">+ base</text>
<polyline fill="none" stroke="black" points="0,-19.5 107,-19.5 "/>
<text text-anchor="middle" x="53.5" y="-7.5" font-family="Helvetica,sans-Serif" font-size="10.00"> </text>
</a>
</g>
</g>
<!-- Node2 -->
<g id="node2" class="node">
<title>Node2</title>
<g id="a_node2"><a xlink:href="structl4util__idt__desc__t.html" target="_top" xlink:title="IDT entry.">
<polygon fill="white" stroke="black" points="5.5,-116.5 5.5,-206.5 101.5,-206.5 101.5,-116.5 5.5,-116.5"/>
<text text-anchor="middle" x="53.5" y="-194.5" font-family="Helvetica,sans-Serif" font-size="10.00">l4util_idt_desc_t</text>
<polyline fill="none" stroke="black" points="5.5,-187.5 101.5,-187.5 "/>
<text text-anchor="start" x="13.5" y="-175.5" font-family="Helvetica,sans-Serif" font-size="10.00">+ a</text>
<text text-anchor="start" x="13.5" y="-164.5" font-family="Helvetica,sans-Serif" font-size="10.00">+ b</text>
<text text-anchor="start" x="13.5" y="-153.5" font-family="Helvetica,sans-Serif" font-size="10.00">+ a</text>
<text text-anchor="start" x="13.5" y="-142.5" font-family="Helvetica,sans-Serif" font-size="10.00">+ b</text>
<polyline fill="none" stroke="black" points="5.5,-135.5 101.5,-135.5 "/>
<text text-anchor="middle" x="53.5" y="-123.5" font-family="Helvetica,sans-Serif" font-size="10.00"> </text>
</a>
</g>
</g>
<!-- Node2&#45;&gt;Node1 -->
<g id="edge1" class="edge">
<title>Node2&#45;&gt;Node1</title>
<path fill="none" stroke="#404040" d="M53.5,-116.43C53.5,-104.87 53.5,-92.38 53.5,-80.76"/>
<polygon fill="none" stroke="#404040" points="53.5,-80.57 49.5,-74.57 53.5,-68.57 57.5,-74.57 53.5,-80.57"/>
<text text-anchor="middle" x="70.5" y="-90" font-family="Helvetica,sans-Serif" font-size="10.00"> +desc</text>
</g>
</g>
</svg>
