<?xml version="1.0" encoding="UTF-8" standalone="no"?>
<!DOCTYPE svg PUBLIC "-//W3C//DTD SVG 1.1//EN"
 "http://www.w3.org/Graphics/SVG/1.1/DTD/svg11.dtd">
<!-- Generated by graphviz version 2.43.0 (0)
 -->
<!-- Title: L4virtio::Svr::Data_buffer::copy_to Pages: 1 -->
<svg width="210pt" height="66pt"
 viewBox="0.00 0.00 210.00 66.00" xmlns="http://www.w3.org/2000/svg" xmlns:xlink="http://www.w3.org/1999/xlink">
<g id="graph0" class="graph" transform="scale(1 1) rotate(0) translate(4 62)">
<title>L4virtio::Svr::Data_buffer::copy_to</title>
<polygon fill="white" stroke="transparent" points="-4,4 -4,-62 206,-62 206,4 -4,4"/>
<!-- Node1 -->
<g id="node1" class="node">
<title>Node1</title>
<g id="a_node1"><a xlink:title="Copy contents from this buffer to the destination buffer.">
<polygon fill="#bfbfbf" stroke="black" points="0,-14 0,-44 104,-44 104,-14 0,-14"/>
<text text-anchor="start" x="8" y="-32" font-family="Helvetica,sans-Serif" font-size="10.00">L4virtio::Svr::Data</text>
<text text-anchor="middle" x="52" y="-21" font-family="Helvetica,sans-Serif" font-size="10.00">_buffer::copy_to</text>
</a>
</g>
</g>
<!-- Node2 -->
<g id="node2" class="node">
<title>Node2</title>
<g id="a_node2"><a xlink:href="group__cxx__api.html#ga1d7a566ab5b06016155d693f91a7ee2d" target="_top" xlink:title="Get the maximum of a and b.">
<polygon fill="white" stroke="black" points="140,-38.5 140,-57.5 202,-57.5 202,-38.5 140,-38.5"/>
<text text-anchor="middle" x="171" y="-45.5" font-family="Helvetica,sans-Serif" font-size="10.00">cxx::max</text>
</a>
</g>
</g>
<!-- Node1&#45;&gt;Node2 -->
<g id="edge1" class="edge">
<title>Node1&#45;&gt;Node2</title>
<path fill="none" stroke="midnightblue" d="M104.32,-37.33C112.87,-38.72 121.62,-40.14 129.84,-41.48"/>
<polygon fill="midnightblue" stroke="midnightblue" points="129.47,-44.96 139.91,-43.11 130.6,-38.06 129.47,-44.96"/>
</g>
<!-- Node3 -->
<g id="node3" class="node">
<title>Node3</title>
<g id="a_node3"><a xlink:href="group__cxx__api.html#ga0bd9662898a7499fcd3feefe594a699b" target="_top" xlink:title="Get the minimum of a and b.">
<polygon fill="white" stroke="black" points="141.5,-0.5 141.5,-19.5 200.5,-19.5 200.5,-0.5 141.5,-0.5"/>
<text text-anchor="middle" x="171" y="-7.5" font-family="Helvetica,sans-Serif" font-size="10.00">cxx::min</text>
</a>
</g>
</g>
<!-- Node1&#45;&gt;Node3 -->
<g id="edge2" class="edge">
<title>Node1&#45;&gt;Node3</title>
<path fill="none" stroke="midnightblue" d="M104.32,-20.67C113.31,-19.21 122.53,-17.71 131.12,-16.31"/>
<polygon fill="midnightblue" stroke="midnightblue" points="131.9,-19.73 141.21,-14.67 130.78,-12.82 131.9,-19.73"/>
</g>
</g>
</svg>
