<?xml version="1.0" encoding="UTF-8" standalone="no"?>
<!DOCTYPE svg PUBLIC "-//W3C//DTD SVG 1.1//EN"
 "http://www.w3.org/Graphics/SVG/1.1/DTD/svg11.dtd">
<!-- Generated by graphviz version 2.43.0 (0)
 -->
<!-- Title: L4::Irq_handler_object Pages: 1 -->
<svg width="243pt" height="643pt"
 viewBox="0.00 0.00 243.00 643.00" xmlns="http://www.w3.org/2000/svg" xmlns:xlink="http://www.w3.org/1999/xlink">
<g id="graph0" class="graph" transform="scale(1 1) rotate(0) translate(4 639)">
<title>L4::Irq_handler_object</title>
<polygon fill="white" stroke="transparent" points="-4,4 -4,-639 239,-639 239,4 -4,4"/>
<!-- Node1 -->
<g id="node1" class="node">
<title>Node1</title>
<g id="a_node1"><a xlink:title="Server object base class for handling IRQ messages.">
<polygon fill="#bfbfbf" stroke="black" points="12.5,-0.5 12.5,-57.5 136.5,-57.5 136.5,-0.5 12.5,-0.5"/>
<text text-anchor="middle" x="74.5" y="-45.5" font-family="Helvetica,sans-Serif" font-size="10.00">L4::Irq_handler_object</text>
<polyline fill="none" stroke="black" points="12.5,-38.5 136.5,-38.5 "/>
<text text-anchor="middle" x="74.5" y="-26.5" font-family="Helvetica,sans-Serif" font-size="10.00"> </text>
<polyline fill="none" stroke="black" points="12.5,-19.5 136.5,-19.5 "/>
<text text-anchor="middle" x="74.5" y="-7.5" font-family="Helvetica,sans-Serif" font-size="10.00"> </text>
</a>
</g>
</g>
<!-- Node2 -->
<g id="node2" class="node">
<title>Node2</title>
<g id="a_node2"><a xlink:href="structL4_1_1Server__object__t.html" target="_top" xlink:title=" ">
<polygon fill="white" stroke="black" points="0,-95.5 0,-185.5 149,-185.5 149,-95.5 0,-95.5"/>
<text text-anchor="start" x="8" y="-173.5" font-family="Helvetica,sans-Serif" font-size="10.00">L4::Server_object_t</text>
<text text-anchor="middle" x="74.5" y="-162.5" font-family="Helvetica,sans-Serif" font-size="10.00">&lt; Kobject &gt;</text>
<polyline fill="none" stroke="black" points="0,-155.5 149,-155.5 "/>
<text text-anchor="middle" x="74.5" y="-143.5" font-family="Helvetica,sans-Serif" font-size="10.00"> </text>
<polyline fill="none" stroke="black" points="0,-136.5 149,-136.5 "/>
<text text-anchor="start" x="8" y="-124.5" font-family="Helvetica,sans-Serif" font-size="10.00">+ get_buffer_demand()</text>
<text text-anchor="start" x="8" y="-113.5" font-family="Helvetica,sans-Serif" font-size="10.00">+ dispatch_meta_request()</text>
<text text-anchor="start" x="8" y="-102.5" font-family="Helvetica,sans-Serif" font-size="10.00">+ proto_dispatch()</text>
</a>
</g>
</g>
<!-- Node2&#45;&gt;Node1 -->
<g id="edge1" class="edge">
<title>Node2&#45;&gt;Node1</title>
<path fill="none" stroke="midnightblue" d="M74.5,-85.04C74.5,-75.56 74.5,-66.06 74.5,-57.69"/>
<polygon fill="none" stroke="midnightblue" points="71,-85.28 74.5,-95.28 78,-85.28 71,-85.28"/>
</g>
<!-- Node3 -->
<g id="node3" class="node">
<title>Node3</title>
<g id="a_node3"><a xlink:href="classL4_1_1Server__object.html" target="_top" xlink:title="Abstract server object to be used with L4::Server and L4::Basic_registry.">
<polygon fill="white" stroke="black" points="20,-361.5 20,-440.5 121,-440.5 121,-361.5 20,-361.5"/>
<text text-anchor="middle" x="70.5" y="-428.5" font-family="Helvetica,sans-Serif" font-size="10.00">L4::Server_object</text>
<polyline fill="none" stroke="black" points="20,-421.5 121,-421.5 "/>
<text text-anchor="middle" x="70.5" y="-409.5" font-family="Helvetica,sans-Serif" font-size="10.00"> </text>
<polyline fill="none" stroke="black" points="20,-402.5 121,-402.5 "/>
<text text-anchor="start" x="28" y="-390.5" font-family="Helvetica,sans-Serif" font-size="10.00">+ dispatch()</text>
<text text-anchor="start" x="28" y="-379.5" font-family="Helvetica,sans-Serif" font-size="10.00">+ dispatch()</text>
<text text-anchor="start" x="28" y="-368.5" font-family="Helvetica,sans-Serif" font-size="10.00">+ obj_cap()</text>
</a>
</g>
</g>
<!-- Node3&#45;&gt;Node2 -->
<g id="edge2" class="edge">
<title>Node3&#45;&gt;Node2</title>
<path fill="none" stroke="midnightblue" d="M71.25,-351.22C71.99,-303.57 73.1,-231.68 73.82,-185.67"/>
<polygon fill="none" stroke="midnightblue" points="67.75,-351.25 71.1,-361.3 74.75,-351.36 67.75,-351.25"/>
</g>
<!-- Node5 -->
<g id="node5" class="node">
<title>Node5</title>
<g id="a_node5"><a xlink:href="structL4_1_1Server__object__t.html" target="_top" xlink:title="Base class (template) for server implementing server objects.">
<polygon fill="white" stroke="black" points="86,-233.5 86,-323.5 235,-323.5 235,-233.5 86,-233.5"/>
<text text-anchor="start" x="94" y="-311.5" font-family="Helvetica,sans-Serif" font-size="10.00">L4::Server_object_t</text>
<text text-anchor="middle" x="160.5" y="-300.5" font-family="Helvetica,sans-Serif" font-size="10.00">&lt; IFACE, BASE &gt;</text>
<polyline fill="none" stroke="black" points="86,-293.5 235,-293.5 "/>
<text text-anchor="middle" x="160.5" y="-281.5" font-family="Helvetica,sans-Serif" font-size="10.00"> </text>
<polyline fill="none" stroke="black" points="86,-274.5 235,-274.5 "/>
<text text-anchor="start" x="94" y="-262.5" font-family="Helvetica,sans-Serif" font-size="10.00">+ get_buffer_demand()</text>
<text text-anchor="start" x="94" y="-251.5" font-family="Helvetica,sans-Serif" font-size="10.00">+ dispatch_meta_request()</text>
<text text-anchor="start" x="94" y="-240.5" font-family="Helvetica,sans-Serif" font-size="10.00">+ proto_dispatch()</text>
</a>
</g>
</g>
<!-- Node3&#45;&gt;Node5 -->
<g id="edge5" class="edge">
<title>Node3&#45;&gt;Node5</title>
<path fill="none" stroke="midnightblue" d="M105.46,-353.19C112.72,-343.48 120.34,-333.28 127.52,-323.66"/>
<polygon fill="none" stroke="midnightblue" points="102.65,-351.1 99.47,-361.21 108.26,-355.29 102.65,-351.1"/>
</g>
<!-- Node4 -->
<g id="node4" class="node">
<title>Node4</title>
<g id="a_node4"><a xlink:href="structL4_1_1Epiface.html" target="_top" xlink:title="Base class for interface implementations.">
<polygon fill="white" stroke="black" points="5.5,-478.5 5.5,-634.5 135.5,-634.5 135.5,-478.5 5.5,-478.5"/>
<text text-anchor="middle" x="70.5" y="-622.5" font-family="Helvetica,sans-Serif" font-size="10.00">L4::Epiface</text>
<polyline fill="none" stroke="black" points="5.5,-615.5 135.5,-615.5 "/>
<text text-anchor="middle" x="70.5" y="-603.5" font-family="Helvetica,sans-Serif" font-size="10.00"> </text>
<polyline fill="none" stroke="black" points="5.5,-596.5 135.5,-596.5 "/>
<text text-anchor="start" x="13.5" y="-584.5" font-family="Helvetica,sans-Serif" font-size="10.00">+ Epiface()</text>
<text text-anchor="start" x="13.5" y="-573.5" font-family="Helvetica,sans-Serif" font-size="10.00">+ operator=()</text>
<text text-anchor="start" x="13.5" y="-562.5" font-family="Helvetica,sans-Serif" font-size="10.00">+ Epiface()</text>
<text text-anchor="start" x="13.5" y="-551.5" font-family="Helvetica,sans-Serif" font-size="10.00">+ dispatch()</text>
<text text-anchor="start" x="13.5" y="-540.5" font-family="Helvetica,sans-Serif" font-size="10.00">+ get_buffer_demand()</text>
<text text-anchor="start" x="13.5" y="-529.5" font-family="Helvetica,sans-Serif" font-size="10.00">+ ~Epiface()</text>
<text text-anchor="start" x="13.5" y="-518.5" font-family="Helvetica,sans-Serif" font-size="10.00">+ obj_cap()</text>
<text text-anchor="start" x="13.5" y="-507.5" font-family="Helvetica,sans-Serif" font-size="10.00">+ server_iface()</text>
<text text-anchor="start" x="13.5" y="-496.5" font-family="Helvetica,sans-Serif" font-size="10.00">+ set_server()</text>
<text text-anchor="start" x="13.5" y="-485.5" font-family="Helvetica,sans-Serif" font-size="10.00">+ set_obj_cap()</text>
</a>
</g>
</g>
<!-- Node4&#45;&gt;Node3 -->
<g id="edge3" class="edge">
<title>Node4&#45;&gt;Node3</title>
<path fill="none" stroke="midnightblue" d="M70.5,-468.28C70.5,-458.72 70.5,-449.38 70.5,-440.87"/>
<polygon fill="none" stroke="midnightblue" points="67,-468.3 70.5,-478.3 74,-468.3 67,-468.3"/>
</g>
<!-- Node5&#45;&gt;Node2 -->
<g id="edge4" class="edge">
<title>Node5&#45;&gt;Node2</title>
<path fill="none" stroke="orange" d="M127.06,-224.63C118.97,-211.82 110.4,-198.27 102.58,-185.9"/>
<polygon fill="orange" stroke="orange" points="124.28,-226.76 132.58,-233.34 130.19,-223.02 124.28,-226.76"/>
<text text-anchor="middle" x="150.5" y="-207" font-family="Helvetica,sans-Serif" font-size="10.00"> &lt; Kobject &gt;</text>
</g>
</g>
</svg>
