<?xml version="1.0" encoding="UTF-8" standalone="no"?>
<!DOCTYPE svg PUBLIC "-//W3C//DTD SVG 1.1//EN"
 "http://www.w3.org/Graphics/SVG/1.1/DTD/svg11.dtd">
<!-- Generated by graphviz version 2.43.0 (0)
 -->
<!-- Title: L4::Irqep_t&lt; Derived, BASE, bool &gt; Pages: 1 -->
<svg width="219pt" height="526pt"
 viewBox="0.00 0.00 219.00 526.00" xmlns="http://www.w3.org/2000/svg" xmlns:xlink="http://www.w3.org/1999/xlink">
<g id="graph0" class="graph" transform="scale(1 1) rotate(0) translate(4 522)">
<title>L4::Irqep_t&lt; Derived, BASE, bool &gt;</title>
<polygon fill="white" stroke="transparent" points="-4,4 -4,-522 215,-522 215,4 -4,4"/>
<!-- Node1 -->
<g id="node1" class="node">
<title>Node1</title>
<g id="a_node1"><a xlink:title="Epiface implementation for interrupt handlers.">
<polygon fill="#bfbfbf" stroke="black" points="9,-0.5 9,-79.5 129,-79.5 129,-0.5 9,-0.5"/>
<text text-anchor="start" x="17" y="-67.5" font-family="Helvetica,sans-Serif" font-size="10.00">L4::Irqep_t&lt; Derived,</text>
<text text-anchor="middle" x="69" y="-56.5" font-family="Helvetica,sans-Serif" font-size="10.00"> BASE, bool &gt;</text>
<polyline fill="none" stroke="black" points="9,-49.5 129,-49.5 "/>
<text text-anchor="middle" x="69" y="-37.5" font-family="Helvetica,sans-Serif" font-size="10.00"> </text>
<polyline fill="none" stroke="black" points="9,-30.5 129,-30.5 "/>
<text text-anchor="start" x="17" y="-18.5" font-family="Helvetica,sans-Serif" font-size="10.00">+ dispatch()</text>
<text text-anchor="start" x="17" y="-7.5" font-family="Helvetica,sans-Serif" font-size="10.00">+ obj_cap()</text>
</a>
</g>
</g>
<!-- Node2 -->
<g id="node2" class="node">
<title>Node2</title>
<g id="a_node2"><a xlink:href="structL4_1_1Epiface__t0.html" target="_top" xlink:title=" ">
<polygon fill="white" stroke="black" points="4,-117.5 4,-196.5 134,-196.5 134,-117.5 4,-117.5"/>
<text text-anchor="start" x="12" y="-184.5" font-family="Helvetica,sans-Serif" font-size="10.00">L4::Epiface_t0&lt; void,</text>
<text text-anchor="middle" x="69" y="-173.5" font-family="Helvetica,sans-Serif" font-size="10.00"> Epiface &gt;</text>
<polyline fill="none" stroke="black" points="4,-166.5 134,-166.5 "/>
<text text-anchor="middle" x="69" y="-154.5" font-family="Helvetica,sans-Serif" font-size="10.00"> </text>
<polyline fill="none" stroke="black" points="4,-147.5 134,-147.5 "/>
<text text-anchor="start" x="12" y="-135.5" font-family="Helvetica,sans-Serif" font-size="10.00">+ get_buffer_demand()</text>
<text text-anchor="start" x="12" y="-124.5" font-family="Helvetica,sans-Serif" font-size="10.00">+ obj_cap()</text>
</a>
</g>
</g>
<!-- Node2&#45;&gt;Node1 -->
<g id="edge1" class="edge">
<title>Node2&#45;&gt;Node1</title>
<path fill="none" stroke="midnightblue" d="M69,-107.2C69,-98.02 69,-88.53 69,-79.71"/>
<polygon fill="none" stroke="midnightblue" points="65.5,-107.39 69,-117.39 72.5,-107.39 65.5,-107.39"/>
</g>
<!-- Node3 -->
<g id="node3" class="node">
<title>Node3</title>
<g id="a_node3"><a xlink:href="structL4_1_1Epiface.html" target="_top" xlink:title="Base class for interface implementations.">
<polygon fill="white" stroke="black" points="0,-361.5 0,-517.5 130,-517.5 130,-361.5 0,-361.5"/>
<text text-anchor="middle" x="65" y="-505.5" font-family="Helvetica,sans-Serif" font-size="10.00">L4::Epiface</text>
<polyline fill="none" stroke="black" points="0,-498.5 130,-498.5 "/>
<text text-anchor="middle" x="65" y="-486.5" font-family="Helvetica,sans-Serif" font-size="10.00"> </text>
<polyline fill="none" stroke="black" points="0,-479.5 130,-479.5 "/>
<text text-anchor="start" x="8" y="-467.5" font-family="Helvetica,sans-Serif" font-size="10.00">+ Epiface()</text>
<text text-anchor="start" x="8" y="-456.5" font-family="Helvetica,sans-Serif" font-size="10.00">+ operator=()</text>
<text text-anchor="start" x="8" y="-445.5" font-family="Helvetica,sans-Serif" font-size="10.00">+ Epiface()</text>
<text text-anchor="start" x="8" y="-434.5" font-family="Helvetica,sans-Serif" font-size="10.00">+ dispatch()</text>
<text text-anchor="start" x="8" y="-423.5" font-family="Helvetica,sans-Serif" font-size="10.00">+ get_buffer_demand()</text>
<text text-anchor="start" x="8" y="-412.5" font-family="Helvetica,sans-Serif" font-size="10.00">+ ~Epiface()</text>
<text text-anchor="start" x="8" y="-401.5" font-family="Helvetica,sans-Serif" font-size="10.00">+ obj_cap()</text>
<text text-anchor="start" x="8" y="-390.5" font-family="Helvetica,sans-Serif" font-size="10.00">+ server_iface()</text>
<text text-anchor="start" x="8" y="-379.5" font-family="Helvetica,sans-Serif" font-size="10.00">+ set_server()</text>
<text text-anchor="start" x="8" y="-368.5" font-family="Helvetica,sans-Serif" font-size="10.00">+ set_obj_cap()</text>
</a>
</g>
</g>
<!-- Node3&#45;&gt;Node2 -->
<g id="edge2" class="edge">
<title>Node3&#45;&gt;Node2</title>
<path fill="none" stroke="midnightblue" d="M66.24,-351.27C66.98,-299.43 67.88,-236.25 68.45,-196.57"/>
<polygon fill="none" stroke="midnightblue" points="62.74,-351.43 66.1,-361.48 69.74,-351.53 62.74,-351.43"/>
</g>
<!-- Node4 -->
<g id="node4" class="node">
<title>Node4</title>
<g id="a_node4"><a xlink:href="structL4_1_1Epiface__t0.html" target="_top" xlink:title="Epiface mixin for generic Kobject&#45;based interfaces.">
<polygon fill="white" stroke="black" points="81,-244.5 81,-323.5 211,-323.5 211,-244.5 81,-244.5"/>
<text text-anchor="start" x="89" y="-311.5" font-family="Helvetica,sans-Serif" font-size="10.00">L4::Epiface_t0&lt; RPC</text>
<text text-anchor="middle" x="146" y="-300.5" font-family="Helvetica,sans-Serif" font-size="10.00">_IFACE, BASE &gt;</text>
<polyline fill="none" stroke="black" points="81,-293.5 211,-293.5 "/>
<text text-anchor="middle" x="146" y="-281.5" font-family="Helvetica,sans-Serif" font-size="10.00"> </text>
<polyline fill="none" stroke="black" points="81,-274.5 211,-274.5 "/>
<text text-anchor="start" x="89" y="-262.5" font-family="Helvetica,sans-Serif" font-size="10.00">+ get_buffer_demand()</text>
<text text-anchor="start" x="89" y="-251.5" font-family="Helvetica,sans-Serif" font-size="10.00">+ obj_cap()</text>
</a>
</g>
</g>
<!-- Node3&#45;&gt;Node4 -->
<g id="edge4" class="edge">
<title>Node3&#45;&gt;Node4</title>
<path fill="none" stroke="midnightblue" d="M110.55,-352.19C115.76,-342.31 120.86,-332.65 125.49,-323.87"/>
<polygon fill="none" stroke="midnightblue" points="107.31,-350.82 105.74,-361.3 113.5,-354.09 107.31,-350.82"/>
</g>
<!-- Node4&#45;&gt;Node2 -->
<g id="edge3" class="edge">
<title>Node4&#45;&gt;Node2</title>
<path fill="none" stroke="orange" d="M116.87,-235.72C108.92,-222.81 100.4,-208.98 92.79,-196.61"/>
<polygon fill="orange" stroke="orange" points="114.04,-237.8 122.27,-244.48 120,-234.13 114.04,-237.8"/>
<text text-anchor="middle" x="153.5" y="-218" font-family="Helvetica,sans-Serif" font-size="10.00"> &lt; void, Epiface &gt;</text>
</g>
</g>
</svg>
