<?xml version="1.0" encoding="UTF-8" standalone="no"?>
<!DOCTYPE svg PUBLIC "-//W3C//DTD SVG 1.1//EN"
 "http://www.w3.org/Graphics/SVG/1.1/DTD/svg11.dtd">
<!-- Generated by graphviz version 2.43.0 (0)
 -->
<!-- Title: L4::Epiface_t&lt; Derived, IFACE, BASE, bool &gt; Pages: 1 -->
<svg width="317pt" height="653pt"
 viewBox="0.00 0.00 316.50 653.00" xmlns="http://www.w3.org/2000/svg" xmlns:xlink="http://www.w3.org/1999/xlink">
<g id="graph0" class="graph" transform="scale(1 1) rotate(0) translate(4 649)">
<title>L4::Epiface_t&lt; Derived, IFACE, BASE, bool &gt;</title>
<polygon fill="white" stroke="transparent" points="-4,4 -4,-649 312.5,-649 312.5,4 -4,4"/>
<!-- Node1 -->
<g id="node1" class="node">
<title>Node1</title>
<g id="a_node1"><a xlink:title="Epiface implementation for Kobject&#45;based interface implementations.">
<polygon fill="#bfbfbf" stroke="black" points="84,-138.5 84,-206.5 215,-206.5 215,-138.5 84,-138.5"/>
<text text-anchor="start" x="92" y="-194.5" font-family="Helvetica,sans-Serif" font-size="10.00">L4::Epiface_t&lt; Derived,</text>
<text text-anchor="middle" x="149.5" y="-183.5" font-family="Helvetica,sans-Serif" font-size="10.00"> IFACE, BASE, bool &gt;</text>
<polyline fill="none" stroke="black" points="84,-176.5 215,-176.5 "/>
<text text-anchor="middle" x="149.5" y="-164.5" font-family="Helvetica,sans-Serif" font-size="10.00"> </text>
<polyline fill="none" stroke="black" points="84,-157.5 215,-157.5 "/>
<text text-anchor="start" x="92" y="-145.5" font-family="Helvetica,sans-Serif" font-size="10.00">+ dispatch()</text>
</a>
</g>
</g>
<!-- Node5 -->
<g id="node5" class="node">
<title>Node5</title>
<g id="a_node5"><a xlink:href="structL4_1_1Epiface__t.html" target="_top" xlink:title=" ">
<polygon fill="white" stroke="black" points="0,-0.5 0,-79.5 145,-79.5 145,-0.5 0,-0.5"/>
<text text-anchor="start" x="8" y="-67.5" font-family="Helvetica,sans-Serif" font-size="10.00">L4::Epiface_t&lt; Block</text>
<text text-anchor="start" x="8" y="-56.5" font-family="Helvetica,sans-Serif" font-size="10.00">_dev&lt; Ds_data &gt;, L4virtio</text>
<text text-anchor="middle" x="72.5" y="-45.5" font-family="Helvetica,sans-Serif" font-size="10.00">::Device &gt;</text>
<polyline fill="none" stroke="black" points="0,-38.5 145,-38.5 "/>
<text text-anchor="middle" x="72.5" y="-26.5" font-family="Helvetica,sans-Serif" font-size="10.00"> </text>
<polyline fill="none" stroke="black" points="0,-19.5 145,-19.5 "/>
<text text-anchor="start" x="8" y="-7.5" font-family="Helvetica,sans-Serif" font-size="10.00">+ dispatch()</text>
</a>
</g>
</g>
<!-- Node1&#45;&gt;Node5 -->
<g id="edge5" class="edge">
<title>Node1&#45;&gt;Node5</title>
<path fill="none" stroke="orange" d="M97.1,-130.72C94.29,-127.3 91.71,-123.72 89.5,-120 82.33,-107.94 78.16,-93.25 75.75,-79.82"/>
<polygon fill="orange" stroke="orange" points="94.75,-133.34 104.05,-138.41 99.95,-128.65 94.75,-133.34"/>
<text text-anchor="start" x="89.5" y="-112" font-family="Helvetica,sans-Serif" font-size="10.00"> &lt; Block_dev&lt; Ds_data</text>
<text text-anchor="middle" x="147.5" y="-101" font-family="Helvetica,sans-Serif" font-size="10.00"> &gt;, L4virtio::Device &gt;</text>
</g>
<!-- Node6 -->
<g id="node6" class="node">
<title>Node6</title>
<g id="a_node6"><a xlink:href="structL4_1_1Epiface__t.html" target="_top" xlink:title=" ">
<polygon fill="white" stroke="black" points="163,-6 163,-74 292,-74 292,-6 163,-6"/>
<text text-anchor="start" x="171" y="-62" font-family="Helvetica,sans-Serif" font-size="10.00">L4::Epiface_t&lt; Null</text>
<text text-anchor="middle" x="227.5" y="-51" font-family="Helvetica,sans-Serif" font-size="10.00">_handler, L4::Kobject &gt;</text>
<polyline fill="none" stroke="black" points="163,-44 292,-44 "/>
<text text-anchor="middle" x="227.5" y="-32" font-family="Helvetica,sans-Serif" font-size="10.00"> </text>
<polyline fill="none" stroke="black" points="163,-25 292,-25 "/>
<text text-anchor="start" x="171" y="-13" font-family="Helvetica,sans-Serif" font-size="10.00">+ dispatch()</text>
</a>
</g>
</g>
<!-- Node1&#45;&gt;Node6 -->
<g id="edge6" class="edge">
<title>Node1&#45;&gt;Node6</title>
<path fill="none" stroke="orange" d="M197.86,-130.69C200.66,-127.25 203.25,-123.68 205.5,-120 213.98,-106.16 219.27,-88.98 222.53,-74.18"/>
<polygon fill="orange" stroke="orange" points="195,-128.65 191,-138.46 200.24,-133.28 195,-128.65"/>
<text text-anchor="start" x="214.5" y="-112" font-family="Helvetica,sans-Serif" font-size="10.00"> &lt; Null_handler, L4</text>
<text text-anchor="middle" x="261.5" y="-101" font-family="Helvetica,sans-Serif" font-size="10.00">::Kobject &gt;</text>
</g>
<!-- Node2 -->
<g id="node2" class="node">
<title>Node2</title>
<g id="a_node2"><a xlink:href="structL4_1_1Epiface__t0.html" target="_top" xlink:title=" ">
<polygon fill="white" stroke="black" points="84.5,-244.5 84.5,-323.5 214.5,-323.5 214.5,-244.5 84.5,-244.5"/>
<text text-anchor="start" x="92.5" y="-311.5" font-family="Helvetica,sans-Serif" font-size="10.00">L4::Epiface_t0&lt; IFACE,</text>
<text text-anchor="middle" x="149.5" y="-300.5" font-family="Helvetica,sans-Serif" font-size="10.00"> L4::Epiface &gt;</text>
<polyline fill="none" stroke="black" points="84.5,-293.5 214.5,-293.5 "/>
<text text-anchor="middle" x="149.5" y="-281.5" font-family="Helvetica,sans-Serif" font-size="10.00"> </text>
<polyline fill="none" stroke="black" points="84.5,-274.5 214.5,-274.5 "/>
<text text-anchor="start" x="92.5" y="-262.5" font-family="Helvetica,sans-Serif" font-size="10.00">+ get_buffer_demand()</text>
<text text-anchor="start" x="92.5" y="-251.5" font-family="Helvetica,sans-Serif" font-size="10.00">+ obj_cap()</text>
</a>
</g>
</g>
<!-- Node2&#45;&gt;Node1 -->
<g id="edge1" class="edge">
<title>Node2&#45;&gt;Node1</title>
<path fill="none" stroke="midnightblue" d="M149.5,-234.38C149.5,-225.02 149.5,-215.41 149.5,-206.67"/>
<polygon fill="none" stroke="midnightblue" points="146,-234.39 149.5,-244.39 153,-234.39 146,-234.39"/>
</g>
<!-- Node3 -->
<g id="node3" class="node">
<title>Node3</title>
<g id="a_node3"><a xlink:href="structL4_1_1Epiface.html" target="_top" xlink:title="Base class for interface implementations.">
<polygon fill="white" stroke="black" points="80.5,-488.5 80.5,-644.5 210.5,-644.5 210.5,-488.5 80.5,-488.5"/>
<text text-anchor="middle" x="145.5" y="-632.5" font-family="Helvetica,sans-Serif" font-size="10.00">L4::Epiface</text>
<polyline fill="none" stroke="black" points="80.5,-625.5 210.5,-625.5 "/>
<text text-anchor="middle" x="145.5" y="-613.5" font-family="Helvetica,sans-Serif" font-size="10.00"> </text>
<polyline fill="none" stroke="black" points="80.5,-606.5 210.5,-606.5 "/>
<text text-anchor="start" x="88.5" y="-594.5" font-family="Helvetica,sans-Serif" font-size="10.00">+ Epiface()</text>
<text text-anchor="start" x="88.5" y="-583.5" font-family="Helvetica,sans-Serif" font-size="10.00">+ operator=()</text>
<text text-anchor="start" x="88.5" y="-572.5" font-family="Helvetica,sans-Serif" font-size="10.00">+ Epiface()</text>
<text text-anchor="start" x="88.5" y="-561.5" font-family="Helvetica,sans-Serif" font-size="10.00">+ dispatch()</text>
<text text-anchor="start" x="88.5" y="-550.5" font-family="Helvetica,sans-Serif" font-size="10.00">+ get_buffer_demand()</text>
<text text-anchor="start" x="88.5" y="-539.5" font-family="Helvetica,sans-Serif" font-size="10.00">+ ~Epiface()</text>
<text text-anchor="start" x="88.5" y="-528.5" font-family="Helvetica,sans-Serif" font-size="10.00">+ obj_cap()</text>
<text text-anchor="start" x="88.5" y="-517.5" font-family="Helvetica,sans-Serif" font-size="10.00">+ server_iface()</text>
<text text-anchor="start" x="88.5" y="-506.5" font-family="Helvetica,sans-Serif" font-size="10.00">+ set_server()</text>
<text text-anchor="start" x="88.5" y="-495.5" font-family="Helvetica,sans-Serif" font-size="10.00">+ set_obj_cap()</text>
</a>
</g>
</g>
<!-- Node3&#45;&gt;Node2 -->
<g id="edge2" class="edge">
<title>Node3&#45;&gt;Node2</title>
<path fill="none" stroke="midnightblue" d="M146.74,-478.27C147.48,-426.43 148.38,-363.25 148.95,-323.57"/>
<polygon fill="none" stroke="midnightblue" points="143.24,-478.43 146.6,-488.48 150.24,-478.53 143.24,-478.43"/>
</g>
<!-- Node4 -->
<g id="node4" class="node">
<title>Node4</title>
<g id="a_node4"><a xlink:href="structL4_1_1Epiface__t0.html" target="_top" xlink:title="Epiface mixin for generic Kobject&#45;based interfaces.">
<polygon fill="white" stroke="black" points="161.5,-371.5 161.5,-450.5 291.5,-450.5 291.5,-371.5 161.5,-371.5"/>
<text text-anchor="start" x="169.5" y="-438.5" font-family="Helvetica,sans-Serif" font-size="10.00">L4::Epiface_t0&lt; RPC</text>
<text text-anchor="middle" x="226.5" y="-427.5" font-family="Helvetica,sans-Serif" font-size="10.00">_IFACE, BASE &gt;</text>
<polyline fill="none" stroke="black" points="161.5,-420.5 291.5,-420.5 "/>
<text text-anchor="middle" x="226.5" y="-408.5" font-family="Helvetica,sans-Serif" font-size="10.00"> </text>
<polyline fill="none" stroke="black" points="161.5,-401.5 291.5,-401.5 "/>
<text text-anchor="start" x="169.5" y="-389.5" font-family="Helvetica,sans-Serif" font-size="10.00">+ get_buffer_demand()</text>
<text text-anchor="start" x="169.5" y="-378.5" font-family="Helvetica,sans-Serif" font-size="10.00">+ obj_cap()</text>
</a>
</g>
</g>
<!-- Node3&#45;&gt;Node4 -->
<g id="edge4" class="edge">
<title>Node3&#45;&gt;Node4</title>
<path fill="none" stroke="midnightblue" d="M191.05,-479.19C196.26,-469.31 201.36,-459.65 205.99,-450.87"/>
<polygon fill="none" stroke="midnightblue" points="187.81,-477.82 186.24,-488.3 194,-481.09 187.81,-477.82"/>
</g>
<!-- Node4&#45;&gt;Node2 -->
<g id="edge3" class="edge">
<title>Node4&#45;&gt;Node2</title>
<path fill="none" stroke="orange" d="M197.37,-362.72C189.42,-349.81 180.9,-335.98 173.29,-323.61"/>
<polygon fill="orange" stroke="orange" points="194.54,-364.8 202.77,-371.48 200.5,-361.13 194.54,-364.8"/>
<text text-anchor="middle" x="245.5" y="-345" font-family="Helvetica,sans-Serif" font-size="10.00"> &lt; IFACE, L4::Epiface &gt;</text>
</g>
</g>
</svg>
