<?xml version="1.0" encoding="UTF-8" standalone="no"?>
<!DOCTYPE svg PUBLIC "-//W3C//DTD SVG 1.1//EN"
 "http://www.w3.org/Graphics/SVG/1.1/DTD/svg11.dtd">
<!-- Generated by graphviz version 2.43.0 (0)
 -->
<!-- Title: L4Re::Util::Br_manager_hooks Pages: 1 -->
<svg width="542pt" height="507pt"
 viewBox="0.00 0.00 542.00 507.00" xmlns="http://www.w3.org/2000/svg" xmlns:xlink="http://www.w3.org/1999/xlink">
<g id="graph0" class="graph" transform="scale(1 1) rotate(0) translate(4 503)">
<title>L4Re::Util::Br_manager_hooks</title>
<polygon fill="white" stroke="transparent" points="-4,4 -4,-503 538,-503 538,4 -4,4"/>
<!-- Node1 -->
<g id="node1" class="node">
<title>Node1</title>
<g id="a_node1"><a xlink:title="Predefined server&#45;loop hooks for a server loop using the Br_manager.">
<polygon fill="#bfbfbf" stroke="black" points="182,-0.5 182,-68.5 311,-68.5 311,-0.5 182,-0.5"/>
<text text-anchor="start" x="190" y="-56.5" font-family="Helvetica,sans-Serif" font-size="10.00">L4Re::Util::Br_manager</text>
<text text-anchor="middle" x="246.5" y="-45.5" font-family="Helvetica,sans-Serif" font-size="10.00">_hooks</text>
<polyline fill="none" stroke="black" points="182,-38.5 311,-38.5 "/>
<text text-anchor="middle" x="246.5" y="-26.5" font-family="Helvetica,sans-Serif" font-size="10.00"> </text>
<polyline fill="none" stroke="black" points="182,-19.5 311,-19.5 "/>
<text text-anchor="middle" x="246.5" y="-7.5" font-family="Helvetica,sans-Serif" font-size="10.00"> </text>
</a>
</g>
</g>
<!-- Node2 -->
<g id="node2" class="node">
<title>Node2</title>
<g id="a_node2"><a xlink:href="structL4_1_1Ipc__svr_1_1Ignore__errors.html" target="_top" xlink:title="Mix in for LOOP_HOOKS to ignore IPC errors.">
<polygon fill="white" stroke="black" points="0,-171.5 0,-239.5 105,-239.5 105,-171.5 0,-171.5"/>
<text text-anchor="start" x="8" y="-227.5" font-family="Helvetica,sans-Serif" font-size="10.00">L4::Ipc_svr::Ignore</text>
<text text-anchor="middle" x="52.5" y="-216.5" font-family="Helvetica,sans-Serif" font-size="10.00">_errors</text>
<polyline fill="none" stroke="black" points="0,-209.5 105,-209.5 "/>
<text text-anchor="middle" x="52.5" y="-197.5" font-family="Helvetica,sans-Serif" font-size="10.00"> </text>
<polyline fill="none" stroke="black" points="0,-190.5 105,-190.5 "/>
<text text-anchor="start" x="8" y="-178.5" font-family="Helvetica,sans-Serif" font-size="10.00">+ error()</text>
</a>
</g>
</g>
<!-- Node2&#45;&gt;Node1 -->
<g id="edge1" class="edge">
<title>Node2&#45;&gt;Node1</title>
<path fill="none" stroke="midnightblue" d="M72.19,-162.47C82.73,-143.22 97.13,-121.15 114.5,-105 133.85,-87.01 158.73,-72.32 181.67,-61.16"/>
<polygon fill="none" stroke="midnightblue" points="69.06,-160.89 67.47,-171.37 75.25,-164.17 69.06,-160.89"/>
</g>
<!-- Node3 -->
<g id="node3" class="node">
<title>Node3</title>
<g id="a_node3"><a xlink:href="structL4_1_1Ipc__svr_1_1Default__timeout.html" target="_top" xlink:title="Mix in for LOOP_HOOKS to use a 0 send and a infinite receive timeout.">
<polygon fill="white" stroke="black" points="123.5,-171.5 123.5,-239.5 233.5,-239.5 233.5,-171.5 123.5,-171.5"/>
<text text-anchor="start" x="131.5" y="-227.5" font-family="Helvetica,sans-Serif" font-size="10.00">L4::Ipc_svr::Default</text>
<text text-anchor="middle" x="178.5" y="-216.5" font-family="Helvetica,sans-Serif" font-size="10.00">_timeout</text>
<polyline fill="none" stroke="black" points="123.5,-209.5 233.5,-209.5 "/>
<text text-anchor="middle" x="178.5" y="-197.5" font-family="Helvetica,sans-Serif" font-size="10.00"> </text>
<polyline fill="none" stroke="black" points="123.5,-190.5 233.5,-190.5 "/>
<text text-anchor="start" x="131.5" y="-178.5" font-family="Helvetica,sans-Serif" font-size="10.00">+ timeout()</text>
</a>
</g>
</g>
<!-- Node3&#45;&gt;Node1 -->
<g id="edge2" class="edge">
<title>Node3&#45;&gt;Node1</title>
<path fill="none" stroke="midnightblue" d="M195.74,-161.66C207.37,-132.74 222.5,-95.14 233.21,-68.53"/>
<polygon fill="none" stroke="midnightblue" points="192.42,-160.53 191.93,-171.11 198.91,-163.14 192.42,-160.53"/>
</g>
<!-- Node4 -->
<g id="node4" class="node">
<title>Node4</title>
<g id="a_node4"><a xlink:href="structL4_1_1Ipc__svr_1_1Compound__reply.html" target="_top" xlink:title="Mix in for LOOP_HOOKS to always use compound reply and wait.">
<polygon fill="white" stroke="black" points="252,-171.5 252,-239.5 379,-239.5 379,-171.5 252,-171.5"/>
<text text-anchor="start" x="260" y="-227.5" font-family="Helvetica,sans-Serif" font-size="10.00">L4::Ipc_svr::Compound</text>
<text text-anchor="middle" x="315.5" y="-216.5" font-family="Helvetica,sans-Serif" font-size="10.00">_reply</text>
<polyline fill="none" stroke="black" points="252,-209.5 379,-209.5 "/>
<text text-anchor="middle" x="315.5" y="-197.5" font-family="Helvetica,sans-Serif" font-size="10.00"> </text>
<polyline fill="none" stroke="black" points="252,-190.5 379,-190.5 "/>
<text text-anchor="start" x="260" y="-178.5" font-family="Helvetica,sans-Serif" font-size="10.00">+ before_reply()</text>
</a>
</g>
</g>
<!-- Node4&#45;&gt;Node1 -->
<g id="edge3" class="edge">
<title>Node4&#45;&gt;Node1</title>
<path fill="none" stroke="midnightblue" d="M298.01,-161.66C286.2,-132.74 270.85,-95.14 259.99,-68.53"/>
<polygon fill="none" stroke="midnightblue" points="294.85,-163.18 301.87,-171.11 301.33,-160.53 294.85,-163.18"/>
</g>
<!-- Node5 -->
<g id="node5" class="node">
<title>Node5</title>
<g id="a_node5"><a xlink:href="classL4Re_1_1Util_1_1Br__manager.html" target="_top" xlink:title="Buffer&#45;register (BR) manager for L4::Server.">
<polygon fill="white" stroke="black" points="397,-105.5 397,-305.5 534,-305.5 534,-105.5 397,-105.5"/>
<text text-anchor="middle" x="465.5" y="-293.5" font-family="Helvetica,sans-Serif" font-size="10.00">L4Re::Util::Br_manager</text>
<polyline fill="none" stroke="black" points="397,-286.5 534,-286.5 "/>
<text text-anchor="middle" x="465.5" y="-274.5" font-family="Helvetica,sans-Serif" font-size="10.00"> </text>
<polyline fill="none" stroke="black" points="397,-267.5 534,-267.5 "/>
<text text-anchor="start" x="405" y="-255.5" font-family="Helvetica,sans-Serif" font-size="10.00">+ Br_manager()</text>
<text text-anchor="start" x="405" y="-244.5" font-family="Helvetica,sans-Serif" font-size="10.00">+ Br_manager()</text>
<text text-anchor="start" x="405" y="-233.5" font-family="Helvetica,sans-Serif" font-size="10.00">+ operator=()</text>
<text text-anchor="start" x="405" y="-222.5" font-family="Helvetica,sans-Serif" font-size="10.00">+ Br_manager()</text>
<text text-anchor="start" x="405" y="-211.5" font-family="Helvetica,sans-Serif" font-size="10.00">+ operator=()</text>
<text text-anchor="start" x="405" y="-200.5" font-family="Helvetica,sans-Serif" font-size="10.00">+ ~Br_manager()</text>
<text text-anchor="start" x="405" y="-189.5" font-family="Helvetica,sans-Serif" font-size="10.00">+ alloc_buffer_demand()</text>
<text text-anchor="start" x="405" y="-178.5" font-family="Helvetica,sans-Serif" font-size="10.00">+ get_rcv_cap()</text>
<text text-anchor="start" x="405" y="-167.5" font-family="Helvetica,sans-Serif" font-size="10.00">+ realloc_rcv_cap()</text>
<text text-anchor="start" x="405" y="-156.5" font-family="Helvetica,sans-Serif" font-size="10.00">+ set_rcv_cap_flags()</text>
<text text-anchor="start" x="405" y="-145.5" font-family="Helvetica,sans-Serif" font-size="10.00">+ add_timeout()</text>
<text text-anchor="start" x="405" y="-134.5" font-family="Helvetica,sans-Serif" font-size="10.00">+ remove_timeout()</text>
<text text-anchor="start" x="405" y="-123.5" font-family="Helvetica,sans-Serif" font-size="10.00">+ setup_wait()</text>
<text text-anchor="start" x="405" y="-112.5" font-family="Helvetica,sans-Serif" font-size="10.00"># first_free_br()</text>
</a>
</g>
</g>
<!-- Node5&#45;&gt;Node1 -->
<g id="edge4" class="edge">
<title>Node5&#45;&gt;Node1</title>
<path fill="none" stroke="midnightblue" d="M388.75,-105.21C388.67,-105.14 388.58,-105.07 388.5,-105 365.63,-86.36 336.92,-71.12 311.32,-59.71"/>
<polygon fill="none" stroke="midnightblue" points="386.66,-108.03 396.51,-111.94 391.25,-102.74 386.66,-108.03"/>
</g>
<!-- Node6 -->
<g id="node6" class="node">
<title>Node6</title>
<g id="a_node6"><a xlink:href="classL4_1_1Ipc__svr_1_1Server__iface.html" target="_top" xlink:title="Interface for server&#45;loop related functions.">
<polygon fill="white" stroke="black" points="397,-342.5 397,-498.5 534,-498.5 534,-342.5 397,-342.5"/>
<text text-anchor="start" x="405" y="-486.5" font-family="Helvetica,sans-Serif" font-size="10.00">L4::Ipc_svr::Server</text>
<text text-anchor="middle" x="465.5" y="-475.5" font-family="Helvetica,sans-Serif" font-size="10.00">_iface</text>
<polyline fill="none" stroke="black" points="397,-468.5 534,-468.5 "/>
<text text-anchor="middle" x="465.5" y="-456.5" font-family="Helvetica,sans-Serif" font-size="10.00"> </text>
<polyline fill="none" stroke="black" points="397,-449.5 534,-449.5 "/>
<text text-anchor="start" x="405" y="-437.5" font-family="Helvetica,sans-Serif" font-size="10.00">+ Server_iface()</text>
<text text-anchor="start" x="405" y="-426.5" font-family="Helvetica,sans-Serif" font-size="10.00">+ ~Server_iface()</text>
<text text-anchor="start" x="405" y="-415.5" font-family="Helvetica,sans-Serif" font-size="10.00">+ alloc_buffer_demand()</text>
<text text-anchor="start" x="405" y="-404.5" font-family="Helvetica,sans-Serif" font-size="10.00">+ get_rcv_cap()</text>
<text text-anchor="start" x="405" y="-393.5" font-family="Helvetica,sans-Serif" font-size="10.00">+ realloc_rcv_cap()</text>
<text text-anchor="start" x="405" y="-382.5" font-family="Helvetica,sans-Serif" font-size="10.00">+ add_timeout()</text>
<text text-anchor="start" x="405" y="-371.5" font-family="Helvetica,sans-Serif" font-size="10.00">+ remove_timeout()</text>
<text text-anchor="start" x="405" y="-360.5" font-family="Helvetica,sans-Serif" font-size="10.00">+ rcv_cap()</text>
<text text-anchor="start" x="405" y="-349.5" font-family="Helvetica,sans-Serif" font-size="10.00">+ rcv_cap()</text>
</a>
</g>
</g>
<!-- Node6&#45;&gt;Node5 -->
<g id="edge5" class="edge">
<title>Node6&#45;&gt;Node5</title>
<path fill="none" stroke="midnightblue" d="M465.5,-332.14C465.5,-323.41 465.5,-314.5 465.5,-305.66"/>
<polygon fill="none" stroke="midnightblue" points="462,-332.3 465.5,-342.3 469,-332.3 462,-332.3"/>
</g>
</g>
</svg>
