<?xml version="1.0" encoding="UTF-8" standalone="no"?>
<!DOCTYPE svg PUBLIC "-//W3C//DTD SVG 1.1//EN"
 "http://www.w3.org/Graphics/SVG/1.1/DTD/svg11.dtd">
<!-- Generated by graphviz version 2.43.0 (0)
 -->
<!-- Title: l4_vcpu_ipc_regs_t Pages: 1 -->
<svg width="127pt" height="336pt"
 viewBox="0.00 0.00 127.00 336.00" xmlns="http://www.w3.org/2000/svg" xmlns:xlink="http://www.w3.org/1999/xlink">
<g id="graph0" class="graph" transform="scale(1 1) rotate(0) translate(4 332)">
<title>l4_vcpu_ipc_regs_t</title>
<polygon fill="white" stroke="transparent" points="-4,4 -4,-332 123,-332 123,4 -4,4"/>
<!-- Node1 -->
<g id="node1" class="node">
<title>Node1</title>
<g id="a_node1"><a xlink:title="vCPU message registers.">
<polygon fill="#bfbfbf" stroke="black" points="5,-0.5 5,-101.5 114,-101.5 114,-0.5 5,-0.5"/>
<text text-anchor="middle" x="59.5" y="-89.5" font-family="Helvetica,sans-Serif" font-size="10.00">l4_vcpu_ipc_regs_t</text>
<polyline fill="none" stroke="black" points="5,-82.5 114,-82.5 "/>
<text text-anchor="start" x="13" y="-70.5" font-family="Helvetica,sans-Serif" font-size="10.00">+ _d1</text>
<text text-anchor="start" x="13" y="-59.5" font-family="Helvetica,sans-Serif" font-size="10.00">+ label</text>
<text text-anchor="start" x="13" y="-48.5" font-family="Helvetica,sans-Serif" font-size="10.00">+ _d2</text>
<text text-anchor="start" x="13" y="-37.5" font-family="Helvetica,sans-Serif" font-size="10.00">+ _res</text>
<text text-anchor="start" x="13" y="-26.5" font-family="Helvetica,sans-Serif" font-size="10.00">+ _res2</text>
<polyline fill="none" stroke="black" points="5,-19.5 114,-19.5 "/>
<text text-anchor="middle" x="59.5" y="-7.5" font-family="Helvetica,sans-Serif" font-size="10.00"> </text>
</a>
</g>
</g>
<!-- Node2 -->
<g id="node2" class="node">
<title>Node2</title>
<g id="a_node2"><a xlink:href="structl4__msgtag__t.html" target="_top" xlink:title="Message tag data structure.">
<polygon fill="white" stroke="black" points="0,-149.5 0,-327.5 119,-327.5 119,-149.5 0,-149.5"/>
<text text-anchor="middle" x="59.5" y="-315.5" font-family="Helvetica,sans-Serif" font-size="10.00">l4_msgtag_t</text>
<polyline fill="none" stroke="black" points="0,-308.5 119,-308.5 "/>
<text text-anchor="start" x="8" y="-296.5" font-family="Helvetica,sans-Serif" font-size="10.00">+ raw</text>
<polyline fill="none" stroke="black" points="0,-289.5 119,-289.5 "/>
<text text-anchor="start" x="8" y="-277.5" font-family="Helvetica,sans-Serif" font-size="10.00">+ label()</text>
<text text-anchor="start" x="8" y="-266.5" font-family="Helvetica,sans-Serif" font-size="10.00">+ label()</text>
<text text-anchor="start" x="8" y="-255.5" font-family="Helvetica,sans-Serif" font-size="10.00">+ words()</text>
<text text-anchor="start" x="8" y="-244.5" font-family="Helvetica,sans-Serif" font-size="10.00">+ items()</text>
<text text-anchor="start" x="8" y="-233.5" font-family="Helvetica,sans-Serif" font-size="10.00">+ flags()</text>
<text text-anchor="start" x="8" y="-222.5" font-family="Helvetica,sans-Serif" font-size="10.00">+ is_page_fault()</text>
<text text-anchor="start" x="8" y="-211.5" font-family="Helvetica,sans-Serif" font-size="10.00">+ is_preemption()</text>
<text text-anchor="start" x="8" y="-200.5" font-family="Helvetica,sans-Serif" font-size="10.00">+ is_sys_exception()</text>
<text text-anchor="start" x="8" y="-189.5" font-family="Helvetica,sans-Serif" font-size="10.00">+ is_exception()</text>
<text text-anchor="start" x="8" y="-178.5" font-family="Helvetica,sans-Serif" font-size="10.00">+ is_sigma0()</text>
<text text-anchor="start" x="8" y="-167.5" font-family="Helvetica,sans-Serif" font-size="10.00">+ is_io_page_fault()</text>
<text text-anchor="start" x="8" y="-156.5" font-family="Helvetica,sans-Serif" font-size="10.00">+ has_error()</text>
</a>
</g>
</g>
<!-- Node2&#45;&gt;Node1 -->
<g id="edge1" class="edge">
<title>Node2&#45;&gt;Node1</title>
<path fill="none" stroke="#404040" d="M59.5,-149.37C59.5,-137.29 59.5,-125.1 59.5,-113.63"/>
<polygon fill="none" stroke="#404040" points="59.5,-113.5 55.5,-107.51 59.5,-101.5 63.5,-107.5 59.5,-113.5"/>
<text text-anchor="middle" x="73.5" y="-123" font-family="Helvetica,sans-Serif" font-size="10.00"> +tag</text>
</g>
</g>
</svg>
