<?xml version="1.0" encoding="UTF-8" standalone="no"?>
<!DOCTYPE svg PUBLIC "-//W3C//DTD SVG 1.1//EN"
 "http://www.w3.org/Graphics/SVG/1.1/DTD/svg11.dtd">
<!-- Generated by graphviz version 2.43.0 (0)
 -->
<!-- Title: L4::Types::Flags_ops_t&lt; DT &gt; Pages: 1 -->
<svg width="274pt" height="376pt"
 viewBox="0.00 0.00 273.50 376.00" xmlns="http://www.w3.org/2000/svg" xmlns:xlink="http://www.w3.org/1999/xlink">
<g id="graph0" class="graph" transform="scale(1 1) rotate(0) translate(4 372)">
<title>L4::Types::Flags_ops_t&lt; DT &gt;</title>
<polygon fill="white" stroke="transparent" points="-4,4 -4,-372 269.5,-372 269.5,4 -4,4"/>
<!-- Node1 -->
<g id="node1" class="node">
<title>Node1</title>
<g id="a_node1"><a xlink:title="Mixin class to define a set of friend bitwise operators on DT.">
<polygon fill="#bfbfbf" stroke="black" points="78.5,-266.5 78.5,-367.5 194.5,-367.5 194.5,-266.5 78.5,-266.5"/>
<text text-anchor="start" x="86.5" y="-355.5" font-family="Helvetica,sans-Serif" font-size="10.00">L4::Types::Flags_ops</text>
<text text-anchor="middle" x="136.5" y="-344.5" font-family="Helvetica,sans-Serif" font-size="10.00">_t&lt; DT &gt;</text>
<polyline fill="none" stroke="black" points="78.5,-337.5 194.5,-337.5 "/>
<text text-anchor="middle" x="136.5" y="-325.5" font-family="Helvetica,sans-Serif" font-size="10.00"> </text>
<polyline fill="none" stroke="black" points="78.5,-318.5 194.5,-318.5 "/>
<text text-anchor="start" x="86.5" y="-306.5" font-family="Helvetica,sans-Serif" font-size="10.00">+ operator|=()</text>
<text text-anchor="start" x="86.5" y="-295.5" font-family="Helvetica,sans-Serif" font-size="10.00">+ operator&amp;=()</text>
<text text-anchor="start" x="86.5" y="-284.5" font-family="Helvetica,sans-Serif" font-size="10.00">+ operator bool()</text>
<text text-anchor="start" x="86.5" y="-273.5" font-family="Helvetica,sans-Serif" font-size="10.00">+ operator~()</text>
</a>
</g>
</g>
<!-- Node2 -->
<g id="node2" class="node">
<title>Node2</title>
<g id="a_node2"><a xlink:href="structL4_1_1Types_1_1Flags__ops__t.html" target="_top" xlink:title=" ">
<polygon fill="white" stroke="black" points="0,-117.5 0,-218.5 131,-218.5 131,-117.5 0,-117.5"/>
<text text-anchor="start" x="8" y="-206.5" font-family="Helvetica,sans-Serif" font-size="10.00">L4::Types::Flags_ops</text>
<text text-anchor="middle" x="65.5" y="-195.5" font-family="Helvetica,sans-Serif" font-size="10.00">_t&lt; Flags_t&lt; DT, T &gt; &gt;</text>
<polyline fill="none" stroke="black" points="0,-188.5 131,-188.5 "/>
<text text-anchor="middle" x="65.5" y="-176.5" font-family="Helvetica,sans-Serif" font-size="10.00"> </text>
<polyline fill="none" stroke="black" points="0,-169.5 131,-169.5 "/>
<text text-anchor="start" x="8" y="-157.5" font-family="Helvetica,sans-Serif" font-size="10.00">+ operator|=()</text>
<text text-anchor="start" x="8" y="-146.5" font-family="Helvetica,sans-Serif" font-size="10.00">+ operator&amp;=()</text>
<text text-anchor="start" x="8" y="-135.5" font-family="Helvetica,sans-Serif" font-size="10.00">+ operator bool()</text>
<text text-anchor="start" x="8" y="-124.5" font-family="Helvetica,sans-Serif" font-size="10.00">+ operator~()</text>
</a>
</g>
</g>
<!-- Node1&#45;&gt;Node2 -->
<g id="edge1" class="edge">
<title>Node1&#45;&gt;Node2</title>
<path fill="none" stroke="orange" d="M81.72,-257.88C79.79,-254.64 78.04,-251.34 76.5,-248 72.34,-238.94 69.65,-228.73 67.93,-218.73"/>
<polygon fill="orange" stroke="orange" points="78.78,-259.8 87.16,-266.29 84.66,-255.99 78.78,-259.8"/>
<text text-anchor="middle" x="131" y="-240" font-family="Helvetica,sans-Serif" font-size="10.00"> &lt; Flags_t&lt; DT, T &gt; &gt;</text>
</g>
<!-- Node4 -->
<g id="node4" class="node">
<title>Node4</title>
<g id="a_node4"><a xlink:href="structL4_1_1Types_1_1Flags__ops__t.html" target="_top" xlink:title=" ">
<polygon fill="white" stroke="black" points="149.5,-117.5 149.5,-218.5 265.5,-218.5 265.5,-117.5 149.5,-117.5"/>
<text text-anchor="start" x="157.5" y="-206.5" font-family="Helvetica,sans-Serif" font-size="10.00">L4::Types::Flags_ops</text>
<text text-anchor="middle" x="207.5" y="-195.5" font-family="Helvetica,sans-Serif" font-size="10.00">_t&lt; Flags &gt;</text>
<polyline fill="none" stroke="black" points="149.5,-188.5 265.5,-188.5 "/>
<text text-anchor="middle" x="207.5" y="-176.5" font-family="Helvetica,sans-Serif" font-size="10.00"> </text>
<polyline fill="none" stroke="black" points="149.5,-169.5 265.5,-169.5 "/>
<text text-anchor="start" x="157.5" y="-157.5" font-family="Helvetica,sans-Serif" font-size="10.00">+ operator|=()</text>
<text text-anchor="start" x="157.5" y="-146.5" font-family="Helvetica,sans-Serif" font-size="10.00">+ operator&amp;=()</text>
<text text-anchor="start" x="157.5" y="-135.5" font-family="Helvetica,sans-Serif" font-size="10.00">+ operator bool()</text>
<text text-anchor="start" x="157.5" y="-124.5" font-family="Helvetica,sans-Serif" font-size="10.00">+ operator~()</text>
</a>
</g>
</g>
<!-- Node1&#45;&gt;Node4 -->
<g id="edge3" class="edge">
<title>Node1&#45;&gt;Node4</title>
<path fill="none" stroke="orange" d="M180.51,-257.53C182.3,-254.36 183.97,-251.18 185.5,-248 189.88,-238.89 193.52,-228.76 196.5,-218.87"/>
<polygon fill="orange" stroke="orange" points="177.36,-255.98 175.23,-266.36 183.36,-259.57 177.36,-255.98"/>
<text text-anchor="middle" x="215.5" y="-240" font-family="Helvetica,sans-Serif" font-size="10.00"> &lt; Flags &gt;</text>
</g>
<!-- Node3 -->
<g id="node3" class="node">
<title>Node3</title>
<g id="a_node3"><a xlink:href="structL4_1_1Types_1_1Flags__t.html" target="_top" xlink:title="Template type to define a flags type with bitwise operations.">
<polygon fill="white" stroke="black" points="14,-0.5 14,-79.5 117,-79.5 117,-0.5 14,-0.5"/>
<text text-anchor="start" x="22" y="-67.5" font-family="Helvetica,sans-Serif" font-size="10.00">L4::Types::Flags_t</text>
<text text-anchor="middle" x="65.5" y="-56.5" font-family="Helvetica,sans-Serif" font-size="10.00">&lt; DT, T &gt;</text>
<polyline fill="none" stroke="black" points="14,-49.5 117,-49.5 "/>
<text text-anchor="start" x="22" y="-37.5" font-family="Helvetica,sans-Serif" font-size="10.00">+ raw</text>
<polyline fill="none" stroke="black" points="14,-30.5 117,-30.5 "/>
<text text-anchor="start" x="22" y="-18.5" font-family="Helvetica,sans-Serif" font-size="10.00">+ Flags_t()</text>
<text text-anchor="start" x="22" y="-7.5" font-family="Helvetica,sans-Serif" font-size="10.00">+ Flags_t()</text>
</a>
</g>
</g>
<!-- Node2&#45;&gt;Node3 -->
<g id="edge2" class="edge">
<title>Node2&#45;&gt;Node3</title>
<path fill="none" stroke="midnightblue" d="M65.5,-107.11C65.5,-97.74 65.5,-88.28 65.5,-79.56"/>
<polygon fill="none" stroke="midnightblue" points="62,-107.2 65.5,-117.2 69,-107.2 62,-107.2"/>
</g>
</g>
</svg>
