<?xml version="1.0" encoding="UTF-8" standalone="no"?>
<!DOCTYPE svg PUBLIC "-//W3C//DTD SVG 1.1//EN"
 "http://www.w3.org/Graphics/SVG/1.1/DTD/svg11.dtd">
<!-- Generated by graphviz version 2.43.0 (0)
 -->
<!-- Title: L4::Typeid::Rpc_nocode&lt; OPERATION &gt; Pages: 1 -->
<svg width="257pt" height="405pt"
 viewBox="0.00 0.00 256.50 405.00" xmlns="http://www.w3.org/2000/svg" xmlns:xlink="http://www.w3.org/1999/xlink">
<g id="graph0" class="graph" transform="scale(1 1) rotate(0) translate(4 401)">
<title>L4::Typeid::Rpc_nocode&lt; OPERATION &gt;</title>
<polygon fill="white" stroke="transparent" points="-4,4 -4,-401 252.5,-401 252.5,4 -4,4"/>
<!-- Node1 -->
<g id="node1" class="node">
<title>Node1</title>
<g id="a_node1"><a xlink:title="List of RPCs of an interface using a single operation without an opcode.">
<polygon fill="#bfbfbf" stroke="black" points="19.5,-0.5 19.5,-68.5 149.5,-68.5 149.5,-0.5 19.5,-0.5"/>
<text text-anchor="start" x="27.5" y="-56.5" font-family="Helvetica,sans-Serif" font-size="10.00">L4::Typeid::Rpc_nocode</text>
<text text-anchor="middle" x="84.5" y="-45.5" font-family="Helvetica,sans-Serif" font-size="10.00">&lt; OPERATION &gt;</text>
<polyline fill="none" stroke="black" points="19.5,-38.5 149.5,-38.5 "/>
<text text-anchor="middle" x="84.5" y="-26.5" font-family="Helvetica,sans-Serif" font-size="10.00"> </text>
<polyline fill="none" stroke="black" points="19.5,-19.5 149.5,-19.5 "/>
<text text-anchor="middle" x="84.5" y="-7.5" font-family="Helvetica,sans-Serif" font-size="10.00"> </text>
</a>
</g>
</g>
<!-- Node2 -->
<g id="node2" class="node">
<title>Node2</title>
<g id="a_node2"><a xlink:href="structL4_1_1Typeid_1_1Detail_1_1__Rpcs.html" target="_top" xlink:title=" ">
<polygon fill="white" stroke="black" points="0,-106.5 0,-174.5 169,-174.5 169,-106.5 0,-106.5"/>
<text text-anchor="start" x="8" y="-162.5" font-family="Helvetica,sans-Serif" font-size="10.00">L4::Typeid::Detail</text>
<text text-anchor="middle" x="84.5" y="-151.5" font-family="Helvetica,sans-Serif" font-size="10.00">::_Rpcs&lt; void, 0, OPERATION &gt;</text>
<polyline fill="none" stroke="black" points="0,-144.5 169,-144.5 "/>
<text text-anchor="middle" x="84.5" y="-132.5" font-family="Helvetica,sans-Serif" font-size="10.00"> </text>
<polyline fill="none" stroke="black" points="0,-125.5 169,-125.5 "/>
<text text-anchor="middle" x="84.5" y="-113.5" font-family="Helvetica,sans-Serif" font-size="10.00"> </text>
</a>
</g>
</g>
<!-- Node2&#45;&gt;Node1 -->
<g id="edge1" class="edge">
<title>Node2&#45;&gt;Node1</title>
<path fill="none" stroke="midnightblue" d="M84.5,-96.17C84.5,-87 84.5,-77.46 84.5,-68.73"/>
<polygon fill="none" stroke="midnightblue" points="81,-96.31 84.5,-106.31 88,-96.31 81,-96.31"/>
</g>
<!-- Node3 -->
<g id="node3" class="node">
<title>Node3</title>
<g id="a_node3"><a xlink:href="structL4_1_1Typeid_1_1Detail_1_1Rpcs__end.html" target="_top" xlink:title="Internal end&#45;of&#45;list marker.">
<polygon fill="white" stroke="black" points="30,-328.5 30,-396.5 131,-396.5 131,-328.5 30,-328.5"/>
<text text-anchor="start" x="38" y="-384.5" font-family="Helvetica,sans-Serif" font-size="10.00">L4::Typeid::Detail</text>
<text text-anchor="middle" x="80.5" y="-373.5" font-family="Helvetica,sans-Serif" font-size="10.00">::Rpcs_end</text>
<polyline fill="none" stroke="black" points="30,-366.5 131,-366.5 "/>
<text text-anchor="middle" x="80.5" y="-354.5" font-family="Helvetica,sans-Serif" font-size="10.00"> </text>
<polyline fill="none" stroke="black" points="30,-347.5 131,-347.5 "/>
<text text-anchor="middle" x="80.5" y="-335.5" font-family="Helvetica,sans-Serif" font-size="10.00"> </text>
</a>
</g>
</g>
<!-- Node3&#45;&gt;Node2 -->
<g id="edge2" class="edge">
<title>Node3&#45;&gt;Node2</title>
<path fill="none" stroke="midnightblue" d="M81.29,-317.84C82.06,-275.64 83.21,-212.67 83.9,-174.51"/>
<polygon fill="none" stroke="midnightblue" points="77.79,-318.02 81.11,-328.09 84.79,-318.15 77.79,-318.02"/>
</g>
<!-- Node4 -->
<g id="node4" class="node">
<title>Node4</title>
<g id="a_node4"><a xlink:href="structL4_1_1Typeid_1_1Detail_1_1__Rpcs.html" target="_top" xlink:title="Empty list of RPCs.">
<polygon fill="white" stroke="black" points="97,-222.5 97,-290.5 238,-290.5 238,-222.5 97,-222.5"/>
<text text-anchor="start" x="105" y="-278.5" font-family="Helvetica,sans-Serif" font-size="10.00">L4::Typeid::Detail</text>
<text text-anchor="middle" x="167.5" y="-267.5" font-family="Helvetica,sans-Serif" font-size="10.00">::_Rpcs&lt; OPCODE, O, X &gt;</text>
<polyline fill="none" stroke="black" points="97,-260.5 238,-260.5 "/>
<text text-anchor="middle" x="167.5" y="-248.5" font-family="Helvetica,sans-Serif" font-size="10.00"> </text>
<polyline fill="none" stroke="black" points="97,-241.5 238,-241.5 "/>
<text text-anchor="middle" x="167.5" y="-229.5" font-family="Helvetica,sans-Serif" font-size="10.00"> </text>
</a>
</g>
</g>
<!-- Node3&#45;&gt;Node4 -->
<g id="edge4" class="edge">
<title>Node3&#45;&gt;Node4</title>
<path fill="none" stroke="midnightblue" d="M114.77,-320.53C123.04,-310.65 131.77,-300.21 139.7,-290.73"/>
<polygon fill="none" stroke="midnightblue" points="112,-318.39 108.27,-328.31 117.37,-322.88 112,-318.39"/>
</g>
<!-- Node4&#45;&gt;Node2 -->
<g id="edge3" class="edge">
<title>Node4&#45;&gt;Node2</title>
<path fill="none" stroke="orange" d="M137.22,-213.92C127.81,-200.98 117.55,-186.9 108.62,-174.62"/>
<polygon fill="orange" stroke="orange" points="134.55,-216.2 143.27,-222.22 140.21,-212.08 134.55,-216.2"/>
<text text-anchor="middle" x="188" y="-196" font-family="Helvetica,sans-Serif" font-size="10.00"> &lt; void, 0, OPERATION &gt;</text>
</g>
</g>
</svg>
