<?xml version="1.0" encoding="UTF-8" standalone="no"?>
<!DOCTYPE svg PUBLIC "-//W3C//DTD SVG 1.1//EN"
 "http://www.w3.org/Graphics/SVG/1.1/DTD/svg11.dtd">
<!-- Generated by graphviz version 2.43.0 (0)
 -->
<!-- Title: cxx::H_list_t&lt; T &gt; Pages: 1 -->
<svg width="260pt" height="1071pt"
 viewBox="0.00 0.00 259.50 1071.00" xmlns="http://www.w3.org/2000/svg" xmlns:xlink="http://www.w3.org/1999/xlink">
<g id="graph0" class="graph" transform="scale(1 1) rotate(0) translate(4 1067)">
<title>cxx::H_list_t&lt; T &gt;</title>
<polygon fill="white" stroke="transparent" points="-4,4 -4,-1067 255.5,-1067 255.5,4 -4,4"/>
<!-- Node1 -->
<g id="node1" class="node">
<title>Node1</title>
<g id="a_node1"><a xlink:title="Double&#45;linked list of typed H_list_item_t elements.">
<polygon fill="#bfbfbf" stroke="black" points="21,-0.5 21,-68.5 126,-68.5 126,-0.5 21,-0.5"/>
<text text-anchor="middle" x="73.5" y="-56.5" font-family="Helvetica,sans-Serif" font-size="10.00">cxx::H_list_t&lt; T &gt;</text>
<polyline fill="none" stroke="black" points="21,-49.5 126,-49.5 "/>
<text text-anchor="middle" x="73.5" y="-37.5" font-family="Helvetica,sans-Serif" font-size="10.00"> </text>
<polyline fill="none" stroke="black" points="21,-30.5 126,-30.5 "/>
<text text-anchor="start" x="29" y="-18.5" font-family="Helvetica,sans-Serif" font-size="10.00">+ H_list_t()</text>
<text text-anchor="start" x="29" y="-7.5" font-family="Helvetica,sans-Serif" font-size="10.00">+ H_list_t()</text>
</a>
</g>
</g>
<!-- Node2 -->
<g id="node2" class="node">
<title>Node2</title>
<g id="a_node2"><a xlink:href="classcxx_1_1H__list.html" target="_top" xlink:title=" ">
<polygon fill="white" stroke="black" points="0,-106.5 0,-317.5 147,-317.5 147,-106.5 0,-106.5"/>
<text text-anchor="start" x="8" y="-305.5" font-family="Helvetica,sans-Serif" font-size="10.00">cxx::H_list&lt; T, Bits</text>
<text text-anchor="start" x="8" y="-294.5" font-family="Helvetica,sans-Serif" font-size="10.00">::Basic_list_policy&lt;</text>
<text text-anchor="middle" x="73.5" y="-283.5" font-family="Helvetica,sans-Serif" font-size="10.00"> T, H_list_item_t&lt; T &gt; &gt; &gt;</text>
<polyline fill="none" stroke="black" points="0,-276.5 147,-276.5 "/>
<text text-anchor="middle" x="73.5" y="-264.5" font-family="Helvetica,sans-Serif" font-size="10.00"> </text>
<polyline fill="none" stroke="black" points="0,-257.5 147,-257.5 "/>
<text text-anchor="start" x="8" y="-245.5" font-family="Helvetica,sans-Serif" font-size="10.00">+ H_list()</text>
<text text-anchor="start" x="8" y="-234.5" font-family="Helvetica,sans-Serif" font-size="10.00">+ H_list()</text>
<text text-anchor="start" x="8" y="-223.5" font-family="Helvetica,sans-Serif" font-size="10.00">+ add()</text>
<text text-anchor="start" x="8" y="-212.5" font-family="Helvetica,sans-Serif" font-size="10.00">+ push_front()</text>
<text text-anchor="start" x="8" y="-201.5" font-family="Helvetica,sans-Serif" font-size="10.00">+ pop_front()</text>
<text text-anchor="start" x="8" y="-190.5" font-family="Helvetica,sans-Serif" font-size="10.00">+ insert()</text>
<text text-anchor="start" x="8" y="-179.5" font-family="Helvetica,sans-Serif" font-size="10.00">+ iter()</text>
<text text-anchor="start" x="8" y="-168.5" font-family="Helvetica,sans-Serif" font-size="10.00">+ in_list()</text>
<text text-anchor="start" x="8" y="-157.5" font-family="Helvetica,sans-Serif" font-size="10.00">+ insert_after()</text>
<text text-anchor="start" x="8" y="-146.5" font-family="Helvetica,sans-Serif" font-size="10.00">+ insert_before()</text>
<text text-anchor="start" x="8" y="-135.5" font-family="Helvetica,sans-Serif" font-size="10.00">+ replace()</text>
<text text-anchor="start" x="8" y="-124.5" font-family="Helvetica,sans-Serif" font-size="10.00">+ remove()</text>
<text text-anchor="start" x="8" y="-113.5" font-family="Helvetica,sans-Serif" font-size="10.00">+ erase()</text>
</a>
</g>
</g>
<!-- Node2&#45;&gt;Node1 -->
<g id="edge1" class="edge">
<title>Node2&#45;&gt;Node1</title>
<path fill="none" stroke="midnightblue" d="M73.5,-96.26C73.5,-86.3 73.5,-76.85 73.5,-68.51"/>
<polygon fill="none" stroke="midnightblue" points="70,-96.38 73.5,-106.38 77,-96.38 70,-96.38"/>
</g>
<!-- Node3 -->
<g id="node3" class="node">
<title>Node3</title>
<g id="a_node3"><a xlink:href="classcxx_1_1Bits_1_1Basic__list.html" target="_top" xlink:title="Internal: Common functions for all head&#45;based list implementations.">
<polygon fill="white" stroke="black" points="18,-873.5 18,-1062.5 129,-1062.5 129,-873.5 18,-873.5"/>
<text text-anchor="start" x="26" y="-1050.5" font-family="Helvetica,sans-Serif" font-size="10.00">cxx::Bits::Basic_list</text>
<text text-anchor="middle" x="73.5" y="-1039.5" font-family="Helvetica,sans-Serif" font-size="10.00">&lt; POLICY &gt;</text>
<polyline fill="none" stroke="black" points="18,-1032.5 129,-1032.5 "/>
<text text-anchor="start" x="26" y="-1020.5" font-family="Helvetica,sans-Serif" font-size="10.00"># _f</text>
<polyline fill="none" stroke="black" points="18,-1013.5 129,-1013.5 "/>
<text text-anchor="start" x="26" y="-1001.5" font-family="Helvetica,sans-Serif" font-size="10.00">+ Basic_list()</text>
<text text-anchor="start" x="26" y="-990.5" font-family="Helvetica,sans-Serif" font-size="10.00">+ Basic_list()</text>
<text text-anchor="start" x="26" y="-979.5" font-family="Helvetica,sans-Serif" font-size="10.00">+ empty()</text>
<text text-anchor="start" x="26" y="-968.5" font-family="Helvetica,sans-Serif" font-size="10.00">+ front()</text>
<text text-anchor="start" x="26" y="-957.5" font-family="Helvetica,sans-Serif" font-size="10.00">+ clear()</text>
<text text-anchor="start" x="26" y="-946.5" font-family="Helvetica,sans-Serif" font-size="10.00">+ begin()</text>
<text text-anchor="start" x="26" y="-935.5" font-family="Helvetica,sans-Serif" font-size="10.00">+ begin()</text>
<text text-anchor="start" x="26" y="-924.5" font-family="Helvetica,sans-Serif" font-size="10.00">+ end()</text>
<text text-anchor="start" x="26" y="-913.5" font-family="Helvetica,sans-Serif" font-size="10.00">+ end()</text>
<text text-anchor="start" x="26" y="-902.5" font-family="Helvetica,sans-Serif" font-size="10.00">+ iter()</text>
<text text-anchor="start" x="26" y="-891.5" font-family="Helvetica,sans-Serif" font-size="10.00"># __get_internal()</text>
<text text-anchor="start" x="26" y="-880.5" font-family="Helvetica,sans-Serif" font-size="10.00"># __iter()</text>
</a>
</g>
</g>
<!-- Node3&#45;&gt;Node2 -->
<g id="edge2" class="edge">
<title>Node3&#45;&gt;Node2</title>
<path fill="none" stroke="midnightblue" d="M73.5,-863.27C73.5,-719.67 73.5,-461.76 73.5,-317.67"/>
<polygon fill="none" stroke="midnightblue" points="70,-863.41 73.5,-873.41 77,-863.41 70,-863.41"/>
</g>
<!-- Node5 -->
<g id="node5" class="node">
<title>Node5</title>
<g id="a_node5"><a xlink:href="classcxx_1_1Bits_1_1Basic__list.html" target="_top" xlink:title=" ">
<polygon fill="white" stroke="black" points="86.5,-614.5 86.5,-814.5 220.5,-814.5 220.5,-614.5 86.5,-614.5"/>
<text text-anchor="start" x="94.5" y="-802.5" font-family="Helvetica,sans-Serif" font-size="10.00">cxx::Bits::Basic_list</text>
<text text-anchor="start" x="94.5" y="-791.5" font-family="Helvetica,sans-Serif" font-size="10.00">&lt; Bits::Basic_list_policy</text>
<text text-anchor="middle" x="153.5" y="-780.5" font-family="Helvetica,sans-Serif" font-size="10.00">&lt; T, H_list_item &gt; &gt;</text>
<polyline fill="none" stroke="black" points="86.5,-773.5 220.5,-773.5 "/>
<text text-anchor="start" x="94.5" y="-761.5" font-family="Helvetica,sans-Serif" font-size="10.00"># _f</text>
<polyline fill="none" stroke="black" points="86.5,-754.5 220.5,-754.5 "/>
<text text-anchor="start" x="94.5" y="-742.5" font-family="Helvetica,sans-Serif" font-size="10.00">+ Basic_list()</text>
<text text-anchor="start" x="94.5" y="-731.5" font-family="Helvetica,sans-Serif" font-size="10.00">+ Basic_list()</text>
<text text-anchor="start" x="94.5" y="-720.5" font-family="Helvetica,sans-Serif" font-size="10.00">+ empty()</text>
<text text-anchor="start" x="94.5" y="-709.5" font-family="Helvetica,sans-Serif" font-size="10.00">+ front()</text>
<text text-anchor="start" x="94.5" y="-698.5" font-family="Helvetica,sans-Serif" font-size="10.00">+ clear()</text>
<text text-anchor="start" x="94.5" y="-687.5" font-family="Helvetica,sans-Serif" font-size="10.00">+ begin()</text>
<text text-anchor="start" x="94.5" y="-676.5" font-family="Helvetica,sans-Serif" font-size="10.00">+ begin()</text>
<text text-anchor="start" x="94.5" y="-665.5" font-family="Helvetica,sans-Serif" font-size="10.00">+ end()</text>
<text text-anchor="start" x="94.5" y="-654.5" font-family="Helvetica,sans-Serif" font-size="10.00">+ end()</text>
<text text-anchor="start" x="94.5" y="-643.5" font-family="Helvetica,sans-Serif" font-size="10.00">+ iter()</text>
<text text-anchor="start" x="94.5" y="-632.5" font-family="Helvetica,sans-Serif" font-size="10.00"># __get_internal()</text>
<text text-anchor="start" x="94.5" y="-621.5" font-family="Helvetica,sans-Serif" font-size="10.00"># __iter()</text>
</a>
</g>
</g>
<!-- Node3&#45;&gt;Node5 -->
<g id="edge5" class="edge">
<title>Node3&#45;&gt;Node5</title>
<path fill="none" stroke="orange" d="M106.45,-863.4C111.58,-847.3 116.86,-830.7 121.94,-814.7"/>
<polygon fill="orange" stroke="orange" points="102.99,-862.76 103.29,-873.35 109.66,-864.88 102.99,-862.76"/>
<text text-anchor="start" x="115.5" y="-847" font-family="Helvetica,sans-Serif" font-size="10.00"> &lt; Bits::Basic_list</text>
<text text-anchor="middle" x="183.5" y="-836" font-family="Helvetica,sans-Serif" font-size="10.00">_policy&lt; T, H_list_item &gt; &gt;</text>
</g>
<!-- Node4 -->
<g id="node4" class="node">
<title>Node4</title>
<g id="a_node4"><a xlink:href="classcxx_1_1H__list.html" target="_top" xlink:title="General double&#45;linked list of unspecified cxx::H_list_item elements.">
<polygon fill="white" stroke="black" points="86,-387.5 86,-576.5 223,-576.5 223,-387.5 86,-387.5"/>
<text text-anchor="middle" x="154.5" y="-564.5" font-family="Helvetica,sans-Serif" font-size="10.00">cxx::H_list&lt; T, POLICY &gt;</text>
<polyline fill="none" stroke="black" points="86,-557.5 223,-557.5 "/>
<text text-anchor="middle" x="154.5" y="-545.5" font-family="Helvetica,sans-Serif" font-size="10.00"> </text>
<polyline fill="none" stroke="black" points="86,-538.5 223,-538.5 "/>
<text text-anchor="start" x="94" y="-526.5" font-family="Helvetica,sans-Serif" font-size="10.00">+ H_list()</text>
<text text-anchor="start" x="94" y="-515.5" font-family="Helvetica,sans-Serif" font-size="10.00">+ H_list()</text>
<text text-anchor="start" x="94" y="-504.5" font-family="Helvetica,sans-Serif" font-size="10.00">+ add()</text>
<text text-anchor="start" x="94" y="-493.5" font-family="Helvetica,sans-Serif" font-size="10.00">+ push_front()</text>
<text text-anchor="start" x="94" y="-482.5" font-family="Helvetica,sans-Serif" font-size="10.00">+ pop_front()</text>
<text text-anchor="start" x="94" y="-471.5" font-family="Helvetica,sans-Serif" font-size="10.00">+ insert()</text>
<text text-anchor="start" x="94" y="-460.5" font-family="Helvetica,sans-Serif" font-size="10.00">+ iter()</text>
<text text-anchor="start" x="94" y="-449.5" font-family="Helvetica,sans-Serif" font-size="10.00">+ in_list()</text>
<text text-anchor="start" x="94" y="-438.5" font-family="Helvetica,sans-Serif" font-size="10.00">+ insert_after()</text>
<text text-anchor="start" x="94" y="-427.5" font-family="Helvetica,sans-Serif" font-size="10.00">+ insert_before()</text>
<text text-anchor="start" x="94" y="-416.5" font-family="Helvetica,sans-Serif" font-size="10.00">+ replace()</text>
<text text-anchor="start" x="94" y="-405.5" font-family="Helvetica,sans-Serif" font-size="10.00">+ remove()</text>
<text text-anchor="start" x="94" y="-394.5" font-family="Helvetica,sans-Serif" font-size="10.00">+ erase()</text>
</a>
</g>
</g>
<!-- Node4&#45;&gt;Node2 -->
<g id="edge3" class="edge">
<title>Node4&#45;&gt;Node2</title>
<path fill="none" stroke="orange" d="M123.27,-377.69C117.33,-358.01 111.1,-337.39 105.13,-317.67"/>
<polygon fill="orange" stroke="orange" points="119.93,-378.71 126.17,-387.27 126.63,-376.68 119.93,-378.71"/>
<text text-anchor="start" x="118.5" y="-361" font-family="Helvetica,sans-Serif" font-size="10.00"> &lt; T, Bits::Basic_list</text>
<text text-anchor="start" x="118.5" y="-350" font-family="Helvetica,sans-Serif" font-size="10.00">_policy&lt; T, H_list_item</text>
<text text-anchor="middle" x="175.5" y="-339" font-family="Helvetica,sans-Serif" font-size="10.00">_t&lt; T &gt; &gt; &gt;</text>
</g>
<!-- Node5&#45;&gt;Node4 -->
<g id="edge4" class="edge">
<title>Node5&#45;&gt;Node4</title>
<path fill="none" stroke="midnightblue" d="M153.97,-604.35C154.01,-595.05 154.05,-585.7 154.09,-576.54"/>
<polygon fill="none" stroke="midnightblue" points="150.47,-604.39 153.93,-614.41 157.47,-604.42 150.47,-604.39"/>
</g>
</g>
</svg>
