<?xml version="1.0" encoding="UTF-8" standalone="no"?>
<!DOCTYPE svg PUBLIC "-//W3C//DTD SVG 1.1//EN"
 "http://www.w3.org/Graphics/SVG/1.1/DTD/svg11.dtd">
<!-- Generated by graphviz version 2.43.0 (0)
 -->
<!-- Title: L4::Typeid::Rpcs_sys&lt; ARG &gt; Pages: 1 -->
<svg width="255pt" height="416pt"
 viewBox="0.00 0.00 255.00 416.00" xmlns="http://www.w3.org/2000/svg" xmlns:xlink="http://www.w3.org/1999/xlink">
<g id="graph0" class="graph" transform="scale(1 1) rotate(0) translate(4 412)">
<title>L4::Typeid::Rpcs_sys&lt; ARG &gt;</title>
<polygon fill="white" stroke="transparent" points="-4,4 -4,-412 251,-412 251,4 -4,4"/>
<!-- Node1 -->
<g id="node1" class="node">
<title>Node1</title>
<g id="a_node1"><a xlink:title="List of RPCs typically used for kernel interfaces.">
<polygon fill="#bfbfbf" stroke="black" points="6,-0.5 6,-68.5 122,-68.5 122,-0.5 6,-0.5"/>
<text text-anchor="start" x="14" y="-56.5" font-family="Helvetica,sans-Serif" font-size="10.00">L4::Typeid::Rpcs_sys</text>
<text text-anchor="middle" x="64" y="-45.5" font-family="Helvetica,sans-Serif" font-size="10.00">&lt; ARG &gt;</text>
<polyline fill="none" stroke="black" points="6,-38.5 122,-38.5 "/>
<text text-anchor="middle" x="64" y="-26.5" font-family="Helvetica,sans-Serif" font-size="10.00"> </text>
<polyline fill="none" stroke="black" points="6,-19.5 122,-19.5 "/>
<text text-anchor="middle" x="64" y="-7.5" font-family="Helvetica,sans-Serif" font-size="10.00"> </text>
</a>
</g>
</g>
<!-- Node2 -->
<g id="node2" class="node">
<title>Node2</title>
<g id="a_node2"><a xlink:href="structL4_1_1Typeid_1_1Detail_1_1__Rpcs.html" target="_top" xlink:title=" ">
<polygon fill="white" stroke="black" points="0,-106.5 0,-185.5 128,-185.5 128,-106.5 0,-106.5"/>
<text text-anchor="start" x="8" y="-173.5" font-family="Helvetica,sans-Serif" font-size="10.00">L4::Typeid::Detail</text>
<text text-anchor="start" x="8" y="-162.5" font-family="Helvetica,sans-Serif" font-size="10.00">::_Rpcs&lt; l4_umword_t,</text>
<text text-anchor="middle" x="64" y="-151.5" font-family="Helvetica,sans-Serif" font-size="10.00"> 0, ARG... &gt;</text>
<polyline fill="none" stroke="black" points="0,-144.5 128,-144.5 "/>
<text text-anchor="middle" x="64" y="-132.5" font-family="Helvetica,sans-Serif" font-size="10.00"> </text>
<polyline fill="none" stroke="black" points="0,-125.5 128,-125.5 "/>
<text text-anchor="middle" x="64" y="-113.5" font-family="Helvetica,sans-Serif" font-size="10.00"> </text>
</a>
</g>
</g>
<!-- Node2&#45;&gt;Node1 -->
<g id="edge1" class="edge">
<title>Node2&#45;&gt;Node1</title>
<path fill="none" stroke="midnightblue" d="M64,-96.38C64,-87.02 64,-77.41 64,-68.67"/>
<polygon fill="none" stroke="midnightblue" points="60.5,-96.39 64,-106.39 67.5,-96.39 60.5,-96.39"/>
</g>
<!-- Node3 -->
<g id="node3" class="node">
<title>Node3</title>
<g id="a_node3"><a xlink:href="structL4_1_1Typeid_1_1Detail_1_1Rpcs__end.html" target="_top" xlink:title="Internal end&#45;of&#45;list marker.">
<polygon fill="white" stroke="black" points="9.5,-339.5 9.5,-407.5 110.5,-407.5 110.5,-339.5 9.5,-339.5"/>
<text text-anchor="start" x="17.5" y="-395.5" font-family="Helvetica,sans-Serif" font-size="10.00">L4::Typeid::Detail</text>
<text text-anchor="middle" x="60" y="-384.5" font-family="Helvetica,sans-Serif" font-size="10.00">::Rpcs_end</text>
<polyline fill="none" stroke="black" points="9.5,-377.5 110.5,-377.5 "/>
<text text-anchor="middle" x="60" y="-365.5" font-family="Helvetica,sans-Serif" font-size="10.00"> </text>
<polyline fill="none" stroke="black" points="9.5,-358.5 110.5,-358.5 "/>
<text text-anchor="middle" x="60" y="-346.5" font-family="Helvetica,sans-Serif" font-size="10.00"> </text>
</a>
</g>
</g>
<!-- Node3&#45;&gt;Node2 -->
<g id="edge2" class="edge">
<title>Node3&#45;&gt;Node2</title>
<path fill="none" stroke="midnightblue" d="M60.77,-329.14C61.51,-287.63 62.61,-225.59 63.31,-185.71"/>
<polygon fill="none" stroke="midnightblue" points="57.27,-329.17 60.59,-339.23 64.27,-329.29 57.27,-329.17"/>
</g>
<!-- Node4 -->
<g id="node4" class="node">
<title>Node4</title>
<g id="a_node4"><a xlink:href="structL4_1_1Typeid_1_1Detail_1_1__Rpcs.html" target="_top" xlink:title="Empty list of RPCs.">
<polygon fill="white" stroke="black" points="76.5,-233.5 76.5,-301.5 217.5,-301.5 217.5,-233.5 76.5,-233.5"/>
<text text-anchor="start" x="84.5" y="-289.5" font-family="Helvetica,sans-Serif" font-size="10.00">L4::Typeid::Detail</text>
<text text-anchor="middle" x="147" y="-278.5" font-family="Helvetica,sans-Serif" font-size="10.00">::_Rpcs&lt; OPCODE, O, X &gt;</text>
<polyline fill="none" stroke="black" points="76.5,-271.5 217.5,-271.5 "/>
<text text-anchor="middle" x="147" y="-259.5" font-family="Helvetica,sans-Serif" font-size="10.00"> </text>
<polyline fill="none" stroke="black" points="76.5,-252.5 217.5,-252.5 "/>
<text text-anchor="middle" x="147" y="-240.5" font-family="Helvetica,sans-Serif" font-size="10.00"> </text>
</a>
</g>
</g>
<!-- Node3&#45;&gt;Node4 -->
<g id="edge4" class="edge">
<title>Node3&#45;&gt;Node4</title>
<path fill="none" stroke="midnightblue" d="M94.27,-331.53C102.54,-321.65 111.27,-311.21 119.2,-301.73"/>
<polygon fill="none" stroke="midnightblue" points="91.5,-329.39 87.77,-339.31 96.87,-333.88 91.5,-329.39"/>
</g>
<!-- Node4&#45;&gt;Node2 -->
<g id="edge3" class="edge">
<title>Node4&#45;&gt;Node2</title>
<path fill="none" stroke="orange" d="M117.93,-224.65C109.11,-211.95 99.47,-198.07 90.81,-185.6"/>
<polygon fill="orange" stroke="orange" points="115.3,-227 123.88,-233.21 121.05,-223 115.3,-227"/>
<text text-anchor="middle" x="178.5" y="-207" font-family="Helvetica,sans-Serif" font-size="10.00"> &lt; l4_umword_t, 0, ARG... &gt;</text>
</g>
</g>
</svg>
