<?xml version="1.0" encoding="UTF-8" standalone="no"?>
<!DOCTYPE svg PUBLIC "-//W3C//DTD SVG 1.1//EN"
 "http://www.w3.org/Graphics/SVG/1.1/DTD/svg11.dtd">
<!-- Generated by graphviz version 2.43.0 (0)
 -->
<!-- Title: l4re_video_goos_info_t Pages: 1 -->
<svg width="174pt" height="364pt"
 viewBox="0.00 0.00 174.00 364.00" xmlns="http://www.w3.org/2000/svg" xmlns:xlink="http://www.w3.org/1999/xlink">
<g id="graph0" class="graph" transform="scale(1 1) rotate(0) translate(4 360)">
<title>l4re_video_goos_info_t</title>
<polygon fill="white" stroke="transparent" points="-4,4 -4,-360 170,-360 170,4 -4,4"/>
<!-- Node1 -->
<g id="node1" class="node">
<title>Node1</title>
<g id="a_node1"><a xlink:title="Goos information structure.">
<polygon fill="#bfbfbf" stroke="black" points="18.5,-0.5 18.5,-101.5 147.5,-101.5 147.5,-0.5 18.5,-0.5"/>
<text text-anchor="middle" x="83" y="-89.5" font-family="Helvetica,sans-Serif" font-size="10.00">l4re_video_goos_info_t</text>
<polyline fill="none" stroke="black" points="18.5,-82.5 147.5,-82.5 "/>
<text text-anchor="start" x="26.5" y="-70.5" font-family="Helvetica,sans-Serif" font-size="10.00">+ width</text>
<text text-anchor="start" x="26.5" y="-59.5" font-family="Helvetica,sans-Serif" font-size="10.00">+ height</text>
<text text-anchor="start" x="26.5" y="-48.5" font-family="Helvetica,sans-Serif" font-size="10.00">+ flags</text>
<text text-anchor="start" x="26.5" y="-37.5" font-family="Helvetica,sans-Serif" font-size="10.00">+ num_static_views</text>
<text text-anchor="start" x="26.5" y="-26.5" font-family="Helvetica,sans-Serif" font-size="10.00">+ num_static_buffers</text>
<polyline fill="none" stroke="black" points="18.5,-19.5 147.5,-19.5 "/>
<text text-anchor="middle" x="83" y="-7.5" font-family="Helvetica,sans-Serif" font-size="10.00"> </text>
</a>
</g>
</g>
<!-- Node2 -->
<g id="node2" class="node">
<title>Node2</title>
<g id="a_node2"><a xlink:href="structl4re__video__pixel__info__t.html" target="_top" xlink:title="Pixel_info structure.">
<polygon fill="white" stroke="black" points="18.5,-149.5 18.5,-206.5 147.5,-206.5 147.5,-149.5 18.5,-149.5"/>
<text text-anchor="middle" x="83" y="-194.5" font-family="Helvetica,sans-Serif" font-size="10.00">l4re_video_pixel_info_t</text>
<polyline fill="none" stroke="black" points="18.5,-187.5 147.5,-187.5 "/>
<text text-anchor="start" x="26.5" y="-175.5" font-family="Helvetica,sans-Serif" font-size="10.00">+ bytes_per_pixel</text>
<polyline fill="none" stroke="black" points="18.5,-168.5 147.5,-168.5 "/>
<text text-anchor="middle" x="83" y="-156.5" font-family="Helvetica,sans-Serif" font-size="10.00"> </text>
</a>
</g>
</g>
<!-- Node2&#45;&gt;Node1 -->
<g id="edge1" class="edge">
<title>Node2&#45;&gt;Node1</title>
<path fill="none" stroke="#404040" d="M83,-149.26C83,-138.79 83,-126.42 83,-114.07"/>
<polygon fill="none" stroke="#404040" points="83,-113.8 79,-107.8 83,-101.8 87,-107.8 83,-113.8"/>
<text text-anchor="middle" x="112.5" y="-123" font-family="Helvetica,sans-Serif" font-size="10.00"> +pixel_info</text>
</g>
<!-- Node3 -->
<g id="node3" class="node">
<title>Node3</title>
<g id="a_node3"><a xlink:href="structl4re__video__color__component__t.html" target="_top" xlink:title="Color component structure.">
<polygon fill="white" stroke="black" points="0,-287.5 0,-355.5 166,-355.5 166,-287.5 0,-287.5"/>
<text text-anchor="middle" x="83" y="-343.5" font-family="Helvetica,sans-Serif" font-size="10.00">l4re_video_color_component_t</text>
<polyline fill="none" stroke="black" points="0,-336.5 166,-336.5 "/>
<text text-anchor="start" x="8" y="-324.5" font-family="Helvetica,sans-Serif" font-size="10.00">+ size</text>
<text text-anchor="start" x="8" y="-313.5" font-family="Helvetica,sans-Serif" font-size="10.00">+ shift</text>
<polyline fill="none" stroke="black" points="0,-306.5 166,-306.5 "/>
<text text-anchor="middle" x="83" y="-294.5" font-family="Helvetica,sans-Serif" font-size="10.00"> </text>
</a>
</g>
</g>
<!-- Node3&#45;&gt;Node2 -->
<g id="edge2" class="edge">
<title>Node3&#45;&gt;Node2</title>
<path fill="none" stroke="#404040" d="M83,-287.32C83,-266.84 83,-240.43 83,-218.82"/>
<polygon fill="none" stroke="#404040" points="83,-218.73 79,-212.73 83,-206.73 87,-212.73 83,-218.73"/>
<text text-anchor="middle" x="92" y="-261" font-family="Helvetica,sans-Serif" font-size="10.00"> +a</text>
<text text-anchor="middle" x="92" y="-250" font-family="Helvetica,sans-Serif" font-size="10.00">+b</text>
<text text-anchor="middle" x="92" y="-239" font-family="Helvetica,sans-Serif" font-size="10.00">+g</text>
<text text-anchor="middle" x="92" y="-228" font-family="Helvetica,sans-Serif" font-size="10.00">+r</text>
</g>
</g>
</svg>
