<?xml version="1.0" encoding="UTF-8" standalone="no"?>
<!DOCTYPE svg PUBLIC "-//W3C//DTD SVG 1.1//EN"
 "http://www.w3.org/Graphics/SVG/1.1/DTD/svg11.dtd">
<!-- Generated by graphviz version 2.43.0 (0)
 -->
<!-- Title: L4::Epiface_t0&lt; RPC_IFACE, BASE &gt; Pages: 1 -->
<svg width="795pt" height="664pt"
 viewBox="0.00 0.00 794.50 664.00" xmlns="http://www.w3.org/2000/svg" xmlns:xlink="http://www.w3.org/1999/xlink">
<g id="graph0" class="graph" transform="scale(1 1) rotate(0) translate(4 660)">
<title>L4::Epiface_t0&lt; RPC_IFACE, BASE &gt;</title>
<polygon fill="white" stroke="transparent" points="-4,4 -4,-660 790.5,-660 790.5,4 -4,4"/>
<!-- Node1 -->
<g id="node1" class="node">
<title>Node1</title>
<g id="a_node1"><a xlink:title="Epiface mixin for generic Kobject&#45;based interfaces.">
<polygon fill="#bfbfbf" stroke="black" points="313.5,-382.5 313.5,-461.5 443.5,-461.5 443.5,-382.5 313.5,-382.5"/>
<text text-anchor="start" x="321.5" y="-449.5" font-family="Helvetica,sans-Serif" font-size="10.00">L4::Epiface_t0&lt; RPC</text>
<text text-anchor="middle" x="378.5" y="-438.5" font-family="Helvetica,sans-Serif" font-size="10.00">_IFACE, BASE &gt;</text>
<polyline fill="none" stroke="black" points="313.5,-431.5 443.5,-431.5 "/>
<text text-anchor="middle" x="378.5" y="-419.5" font-family="Helvetica,sans-Serif" font-size="10.00"> </text>
<polyline fill="none" stroke="black" points="313.5,-412.5 443.5,-412.5 "/>
<text text-anchor="start" x="321.5" y="-400.5" font-family="Helvetica,sans-Serif" font-size="10.00">+ get_buffer_demand()</text>
<text text-anchor="start" x="321.5" y="-389.5" font-family="Helvetica,sans-Serif" font-size="10.00">+ obj_cap()</text>
</a>
</g>
</g>
<!-- Node3 -->
<g id="node3" class="node">
<title>Node3</title>
<g id="a_node3"><a xlink:href="structL4_1_1Epiface__t.html" target="_top" xlink:title=" ">
<polygon fill="white" stroke="black" points="0,-0.5 0,-79.5 145,-79.5 145,-0.5 0,-0.5"/>
<text text-anchor="start" x="8" y="-67.5" font-family="Helvetica,sans-Serif" font-size="10.00">L4::Epiface_t&lt; Block</text>
<text text-anchor="start" x="8" y="-56.5" font-family="Helvetica,sans-Serif" font-size="10.00">_dev&lt; Ds_data &gt;, L4virtio</text>
<text text-anchor="middle" x="72.5" y="-45.5" font-family="Helvetica,sans-Serif" font-size="10.00">::Device &gt;</text>
<polyline fill="none" stroke="black" points="0,-38.5 145,-38.5 "/>
<text text-anchor="middle" x="72.5" y="-26.5" font-family="Helvetica,sans-Serif" font-size="10.00"> </text>
<polyline fill="none" stroke="black" points="0,-19.5 145,-19.5 "/>
<text text-anchor="start" x="8" y="-7.5" font-family="Helvetica,sans-Serif" font-size="10.00">+ dispatch()</text>
</a>
</g>
</g>
<!-- Node1&#45;&gt;Node3 -->
<g id="edge2" class="edge">
<title>Node1&#45;&gt;Node3</title>
<path fill="none" stroke="midnightblue" d="M303.02,-415.19C246.98,-406.68 173.31,-385.84 131.5,-335 70.49,-260.81 66.78,-140.85 69.46,-79.63"/>
<polygon fill="none" stroke="midnightblue" points="302.87,-418.71 313.26,-416.64 303.85,-411.78 302.87,-418.71"/>
</g>
<!-- Node4 -->
<g id="node4" class="node">
<title>Node4</title>
<g id="a_node4"><a xlink:href="structL4_1_1Epiface__t.html" target="_top" xlink:title=" ">
<polygon fill="white" stroke="black" points="171,-6 171,-74 300,-74 300,-6 171,-6"/>
<text text-anchor="start" x="179" y="-62" font-family="Helvetica,sans-Serif" font-size="10.00">L4::Epiface_t&lt; Null</text>
<text text-anchor="middle" x="235.5" y="-51" font-family="Helvetica,sans-Serif" font-size="10.00">_handler, L4::Kobject &gt;</text>
<polyline fill="none" stroke="black" points="171,-44 300,-44 "/>
<text text-anchor="middle" x="235.5" y="-32" font-family="Helvetica,sans-Serif" font-size="10.00"> </text>
<polyline fill="none" stroke="black" points="171,-25 300,-25 "/>
<text text-anchor="start" x="179" y="-13" font-family="Helvetica,sans-Serif" font-size="10.00">+ dispatch()</text>
</a>
</g>
</g>
<!-- Node1&#45;&gt;Node4 -->
<g id="edge3" class="edge">
<title>Node1&#45;&gt;Node4</title>
<path fill="none" stroke="midnightblue" d="M361.84,-372.84C358.03,-360.61 354.29,-347.41 351.5,-335 328.16,-231.24 374.42,-188.46 318.5,-98 312.89,-88.93 305.25,-80.95 296.85,-74.05"/>
<polygon fill="none" stroke="midnightblue" points="358.52,-373.95 364.89,-382.41 365.19,-371.82 358.52,-373.95"/>
</g>
<!-- Node5 -->
<g id="node5" class="node">
<title>Node5</title>
<g id="a_node5"><a xlink:href="structL4_1_1Epiface__t0.html" target="_top" xlink:title=" ">
<polygon fill="white" stroke="black" points="360.5,-255.5 360.5,-334.5 490.5,-334.5 490.5,-255.5 360.5,-255.5"/>
<text text-anchor="start" x="368.5" y="-322.5" font-family="Helvetica,sans-Serif" font-size="10.00">L4::Epiface_t0&lt; void,</text>
<text text-anchor="middle" x="425.5" y="-311.5" font-family="Helvetica,sans-Serif" font-size="10.00"> BASE &gt;</text>
<polyline fill="none" stroke="black" points="360.5,-304.5 490.5,-304.5 "/>
<text text-anchor="middle" x="425.5" y="-292.5" font-family="Helvetica,sans-Serif" font-size="10.00"> </text>
<polyline fill="none" stroke="black" points="360.5,-285.5 490.5,-285.5 "/>
<text text-anchor="start" x="368.5" y="-273.5" font-family="Helvetica,sans-Serif" font-size="10.00">+ get_buffer_demand()</text>
<text text-anchor="start" x="368.5" y="-262.5" font-family="Helvetica,sans-Serif" font-size="10.00">+ obj_cap()</text>
</a>
</g>
</g>
<!-- Node1&#45;&gt;Node5 -->
<g id="edge4" class="edge">
<title>Node1&#45;&gt;Node5</title>
<path fill="none" stroke="orange" d="M396.56,-372.97C401.33,-360.28 406.42,-346.74 410.98,-334.61"/>
<polygon fill="orange" stroke="orange" points="393.23,-371.88 392.99,-382.48 399.78,-374.35 393.23,-371.88"/>
<text text-anchor="middle" x="443" y="-356" font-family="Helvetica,sans-Serif" font-size="10.00"> &lt; void, BASE &gt;</text>
</g>
<!-- Node6 -->
<g id="node6" class="node">
<title>Node6</title>
<g id="a_node6"><a xlink:href="structL4_1_1Epiface__t0.html" target="_top" xlink:title=" ">
<polygon fill="white" stroke="black" points="508.5,-255.5 508.5,-334.5 638.5,-334.5 638.5,-255.5 508.5,-255.5"/>
<text text-anchor="start" x="516.5" y="-322.5" font-family="Helvetica,sans-Serif" font-size="10.00">L4::Epiface_t0&lt; void,</text>
<text text-anchor="middle" x="573.5" y="-311.5" font-family="Helvetica,sans-Serif" font-size="10.00"> Epiface &gt;</text>
<polyline fill="none" stroke="black" points="508.5,-304.5 638.5,-304.5 "/>
<text text-anchor="middle" x="573.5" y="-292.5" font-family="Helvetica,sans-Serif" font-size="10.00"> </text>
<polyline fill="none" stroke="black" points="508.5,-285.5 638.5,-285.5 "/>
<text text-anchor="start" x="516.5" y="-273.5" font-family="Helvetica,sans-Serif" font-size="10.00">+ get_buffer_demand()</text>
<text text-anchor="start" x="516.5" y="-262.5" font-family="Helvetica,sans-Serif" font-size="10.00">+ obj_cap()</text>
</a>
</g>
</g>
<!-- Node1&#45;&gt;Node6 -->
<g id="edge5" class="edge">
<title>Node1&#45;&gt;Node6</title>
<path fill="none" stroke="orange" d="M452.38,-384.26C464,-377.84 475.72,-370.98 486.5,-364 500.18,-355.14 514.37,-344.67 527.21,-334.64"/>
<polygon fill="orange" stroke="orange" points="450.65,-381.22 443.53,-389.08 453.99,-387.37 450.65,-381.22"/>
<text text-anchor="middle" x="546" y="-356" font-family="Helvetica,sans-Serif" font-size="10.00"> &lt; void, Epiface &gt;</text>
</g>
<!-- Node9 -->
<g id="node9" class="node">
<title>Node9</title>
<g id="a_node9"><a xlink:href="structL4_1_1Epiface__t0.html" target="_top" xlink:title=" ">
<polygon fill="white" stroke="black" points="656.5,-255.5 656.5,-334.5 786.5,-334.5 786.5,-255.5 656.5,-255.5"/>
<text text-anchor="start" x="664.5" y="-322.5" font-family="Helvetica,sans-Serif" font-size="10.00">L4::Epiface_t0&lt; IFACE,</text>
<text text-anchor="middle" x="721.5" y="-311.5" font-family="Helvetica,sans-Serif" font-size="10.00"> BASE &gt;</text>
<polyline fill="none" stroke="black" points="656.5,-304.5 786.5,-304.5 "/>
<text text-anchor="middle" x="721.5" y="-292.5" font-family="Helvetica,sans-Serif" font-size="10.00"> </text>
<polyline fill="none" stroke="black" points="656.5,-285.5 786.5,-285.5 "/>
<text text-anchor="start" x="664.5" y="-273.5" font-family="Helvetica,sans-Serif" font-size="10.00">+ get_buffer_demand()</text>
<text text-anchor="start" x="664.5" y="-262.5" font-family="Helvetica,sans-Serif" font-size="10.00">+ obj_cap()</text>
</a>
</g>
</g>
<!-- Node1&#45;&gt;Node9 -->
<g id="edge9" class="edge">
<title>Node1&#45;&gt;Node9</title>
<path fill="none" stroke="orange" d="M453.48,-405.76C495.68,-396.06 548.89,-381.94 594.5,-364 615.21,-355.85 636.88,-345.15 656.32,-334.66"/>
<polygon fill="orange" stroke="orange" points="452.53,-402.38 443.55,-408 454.08,-409.21 452.53,-402.38"/>
<text text-anchor="middle" x="663" y="-356" font-family="Helvetica,sans-Serif" font-size="10.00"> &lt; IFACE, BASE &gt;</text>
</g>
<!-- Node10 -->
<g id="node10" class="node">
<title>Node10</title>
<g id="a_node10"><a xlink:href="structL4_1_1Epiface__t0.html" target="_top" xlink:title=" ">
<polygon fill="white" stroke="black" points="140.5,-255.5 140.5,-334.5 270.5,-334.5 270.5,-255.5 140.5,-255.5"/>
<text text-anchor="start" x="148.5" y="-322.5" font-family="Helvetica,sans-Serif" font-size="10.00">L4::Epiface_t0&lt; IFACE,</text>
<text text-anchor="middle" x="205.5" y="-311.5" font-family="Helvetica,sans-Serif" font-size="10.00"> L4::Epiface &gt;</text>
<polyline fill="none" stroke="black" points="140.5,-304.5 270.5,-304.5 "/>
<text text-anchor="middle" x="205.5" y="-292.5" font-family="Helvetica,sans-Serif" font-size="10.00"> </text>
<polyline fill="none" stroke="black" points="140.5,-285.5 270.5,-285.5 "/>
<text text-anchor="start" x="148.5" y="-273.5" font-family="Helvetica,sans-Serif" font-size="10.00">+ get_buffer_demand()</text>
<text text-anchor="start" x="148.5" y="-262.5" font-family="Helvetica,sans-Serif" font-size="10.00">+ obj_cap()</text>
</a>
</g>
</g>
<!-- Node1&#45;&gt;Node10 -->
<g id="edge10" class="edge">
<title>Node1&#45;&gt;Node10</title>
<path fill="none" stroke="orange" d="M303.53,-415.64C268.14,-408.92 228.86,-394.49 206.5,-364 200.36,-355.62 198.32,-344.97 198.29,-334.59"/>
<polygon fill="orange" stroke="orange" points="302.94,-419.09 313.38,-417.34 304.12,-412.19 302.94,-419.09"/>
<text text-anchor="middle" x="262.5" y="-356" font-family="Helvetica,sans-Serif" font-size="10.00"> &lt; IFACE, L4::Epiface &gt;</text>
</g>
<!-- Node2 -->
<g id="node2" class="node">
<title>Node2</title>
<g id="a_node2"><a xlink:href="structL4_1_1Epiface.html" target="_top" xlink:title="Base class for interface implementations.">
<polygon fill="white" stroke="black" points="313.5,-499.5 313.5,-655.5 443.5,-655.5 443.5,-499.5 313.5,-499.5"/>
<text text-anchor="middle" x="378.5" y="-643.5" font-family="Helvetica,sans-Serif" font-size="10.00">L4::Epiface</text>
<polyline fill="none" stroke="black" points="313.5,-636.5 443.5,-636.5 "/>
<text text-anchor="middle" x="378.5" y="-624.5" font-family="Helvetica,sans-Serif" font-size="10.00"> </text>
<polyline fill="none" stroke="black" points="313.5,-617.5 443.5,-617.5 "/>
<text text-anchor="start" x="321.5" y="-605.5" font-family="Helvetica,sans-Serif" font-size="10.00">+ Epiface()</text>
<text text-anchor="start" x="321.5" y="-594.5" font-family="Helvetica,sans-Serif" font-size="10.00">+ operator=()</text>
<text text-anchor="start" x="321.5" y="-583.5" font-family="Helvetica,sans-Serif" font-size="10.00">+ Epiface()</text>
<text text-anchor="start" x="321.5" y="-572.5" font-family="Helvetica,sans-Serif" font-size="10.00">+ dispatch()</text>
<text text-anchor="start" x="321.5" y="-561.5" font-family="Helvetica,sans-Serif" font-size="10.00">+ get_buffer_demand()</text>
<text text-anchor="start" x="321.5" y="-550.5" font-family="Helvetica,sans-Serif" font-size="10.00">+ ~Epiface()</text>
<text text-anchor="start" x="321.5" y="-539.5" font-family="Helvetica,sans-Serif" font-size="10.00">+ obj_cap()</text>
<text text-anchor="start" x="321.5" y="-528.5" font-family="Helvetica,sans-Serif" font-size="10.00">+ server_iface()</text>
<text text-anchor="start" x="321.5" y="-517.5" font-family="Helvetica,sans-Serif" font-size="10.00">+ set_server()</text>
<text text-anchor="start" x="321.5" y="-506.5" font-family="Helvetica,sans-Serif" font-size="10.00">+ set_obj_cap()</text>
</a>
</g>
</g>
<!-- Node2&#45;&gt;Node1 -->
<g id="edge1" class="edge">
<title>Node2&#45;&gt;Node1</title>
<path fill="none" stroke="midnightblue" d="M378.5,-489.28C378.5,-479.72 378.5,-470.38 378.5,-461.87"/>
<polygon fill="none" stroke="midnightblue" points="375,-489.3 378.5,-499.3 382,-489.3 375,-489.3"/>
</g>
<!-- Node7 -->
<g id="node7" class="node">
<title>Node7</title>
<g id="a_node7"><a xlink:href="structL4_1_1Irqep__t.html" target="_top" xlink:title=" ">
<polygon fill="white" stroke="black" points="520.5,-6 520.5,-74 658.5,-74 658.5,-6 520.5,-6"/>
<text text-anchor="middle" x="589.5" y="-62" font-family="Helvetica,sans-Serif" font-size="10.00">L4::Irqep_t&lt; Irq_object &gt;</text>
<polyline fill="none" stroke="black" points="520.5,-55 658.5,-55 "/>
<text text-anchor="middle" x="589.5" y="-43" font-family="Helvetica,sans-Serif" font-size="10.00"> </text>
<polyline fill="none" stroke="black" points="520.5,-36 658.5,-36 "/>
<text text-anchor="start" x="528.5" y="-24" font-family="Helvetica,sans-Serif" font-size="10.00">+ dispatch()</text>
<text text-anchor="start" x="528.5" y="-13" font-family="Helvetica,sans-Serif" font-size="10.00">+ obj_cap()</text>
</a>
</g>
</g>
<!-- Node6&#45;&gt;Node7 -->
<g id="edge6" class="edge">
<title>Node6&#45;&gt;Node7</title>
<path fill="none" stroke="midnightblue" d="M566.88,-245.36C565.89,-236.28 565.02,-226.87 564.5,-218 562.41,-182.51 560.03,-173.27 564.5,-138 567.23,-116.43 573.26,-92.8 578.71,-74.26"/>
<polygon fill="none" stroke="midnightblue" points="563.41,-245.88 568.04,-255.42 570.37,-245.08 563.41,-245.88"/>
</g>
<!-- Node8 -->
<g id="node8" class="node">
<title>Node8</title>
<g id="a_node8"><a xlink:href="structL4_1_1Irqep__t.html" target="_top" xlink:title="Epiface implementation for interrupt handlers.">
<polygon fill="white" stroke="black" points="573.5,-138.5 573.5,-217.5 693.5,-217.5 693.5,-138.5 573.5,-138.5"/>
<text text-anchor="start" x="581.5" y="-205.5" font-family="Helvetica,sans-Serif" font-size="10.00">L4::Irqep_t&lt; Derived,</text>
<text text-anchor="middle" x="633.5" y="-194.5" font-family="Helvetica,sans-Serif" font-size="10.00"> BASE, bool &gt;</text>
<polyline fill="none" stroke="black" points="573.5,-187.5 693.5,-187.5 "/>
<text text-anchor="middle" x="633.5" y="-175.5" font-family="Helvetica,sans-Serif" font-size="10.00"> </text>
<polyline fill="none" stroke="black" points="573.5,-168.5 693.5,-168.5 "/>
<text text-anchor="start" x="581.5" y="-156.5" font-family="Helvetica,sans-Serif" font-size="10.00">+ dispatch()</text>
<text text-anchor="start" x="581.5" y="-145.5" font-family="Helvetica,sans-Serif" font-size="10.00">+ obj_cap()</text>
</a>
</g>
</g>
<!-- Node6&#45;&gt;Node8 -->
<g id="edge7" class="edge">
<title>Node6&#45;&gt;Node8</title>
<path fill="none" stroke="midnightblue" d="M598.34,-246.38C603.33,-236.83 608.5,-226.91 613.3,-217.71"/>
<polygon fill="none" stroke="midnightblue" points="595.17,-244.9 593.65,-255.39 601.37,-248.14 595.17,-244.9"/>
</g>
<!-- Node8&#45;&gt;Node7 -->
<g id="edge8" class="edge">
<title>Node8&#45;&gt;Node7</title>
<path fill="none" stroke="orange" d="M617.85,-128.61C612.01,-110.58 605.52,-90.53 600.23,-74.17"/>
<polygon fill="orange" stroke="orange" points="614.6,-129.95 621.01,-138.39 621.26,-127.8 614.6,-129.95"/>
<text text-anchor="middle" x="651.5" y="-106.5" font-family="Helvetica,sans-Serif" font-size="10.00"> &lt; Irq_object &gt;</text>
</g>
<!-- Node11 -->
<g id="node11" class="node">
<title>Node11</title>
<g id="a_node11"><a xlink:href="structL4_1_1Epiface__t.html" target="_top" xlink:title="Epiface implementation for Kobject&#45;based interface implementations.">
<polygon fill="white" stroke="black" points="140,-144 140,-212 271,-212 271,-144 140,-144"/>
<text text-anchor="start" x="148" y="-200" font-family="Helvetica,sans-Serif" font-size="10.00">L4::Epiface_t&lt; Derived,</text>
<text text-anchor="middle" x="205.5" y="-189" font-family="Helvetica,sans-Serif" font-size="10.00"> IFACE, BASE, bool &gt;</text>
<polyline fill="none" stroke="black" points="140,-182 271,-182 "/>
<text text-anchor="middle" x="205.5" y="-170" font-family="Helvetica,sans-Serif" font-size="10.00"> </text>
<polyline fill="none" stroke="black" points="140,-163 271,-163 "/>
<text text-anchor="start" x="148" y="-151" font-family="Helvetica,sans-Serif" font-size="10.00">+ dispatch()</text>
</a>
</g>
</g>
<!-- Node10&#45;&gt;Node11 -->
<g id="edge11" class="edge">
<title>Node10&#45;&gt;Node11</title>
<path fill="none" stroke="midnightblue" d="M205.5,-245.34C205.5,-234.21 205.5,-222.63 205.5,-212.32"/>
<polygon fill="none" stroke="midnightblue" points="202,-245.39 205.5,-255.39 209,-245.39 202,-245.39"/>
</g>
<!-- Node11&#45;&gt;Node3 -->
<g id="edge12" class="edge">
<title>Node11&#45;&gt;Node3</title>
<path fill="none" stroke="orange" d="M131.3,-146.52C119.5,-139.18 108.31,-130.39 99.5,-120 89.84,-108.61 83.59,-93.6 79.56,-79.72"/>
<polygon fill="orange" stroke="orange" points="129.57,-149.56 139.97,-151.6 133.11,-143.52 129.57,-149.56"/>
<text text-anchor="start" x="99.5" y="-112" font-family="Helvetica,sans-Serif" font-size="10.00"> &lt; Block_dev&lt; Ds_data</text>
<text text-anchor="middle" x="157.5" y="-101" font-family="Helvetica,sans-Serif" font-size="10.00"> &gt;, L4virtio::Device &gt;</text>
</g>
<!-- Node11&#45;&gt;Node4 -->
<g id="edge13" class="edge">
<title>Node11&#45;&gt;Node4</title>
<path fill="none" stroke="orange" d="M215.05,-133.72C219.28,-114.52 224.19,-92.28 228.13,-74.4"/>
<polygon fill="orange" stroke="orange" points="211.58,-133.21 212.84,-143.73 218.41,-134.72 211.58,-133.21"/>
<text text-anchor="start" x="222.5" y="-112" font-family="Helvetica,sans-Serif" font-size="10.00"> &lt; Null_handler, L4</text>
<text text-anchor="middle" x="269.5" y="-101" font-family="Helvetica,sans-Serif" font-size="10.00">::Kobject &gt;</text>
</g>
</g>
</svg>
