<?xml version="1.0" encoding="UTF-8" standalone="no"?>
<!DOCTYPE svg PUBLIC "-//W3C//DTD SVG 1.1//EN"
 "http://www.w3.org/Graphics/SVG/1.1/DTD/svg11.dtd">
<!-- Generated by graphviz version 2.43.0 (0)
 -->
<!-- Title: L4::Server_object_t&lt; IFACE, BASE &gt; Pages: 1 -->
<svg width="324pt" height="676pt"
 viewBox="0.00 0.00 324.00 676.00" xmlns="http://www.w3.org/2000/svg" xmlns:xlink="http://www.w3.org/1999/xlink">
<g id="graph0" class="graph" transform="scale(1 1) rotate(0) translate(4 672)">
<title>L4::Server_object_t&lt; IFACE, BASE &gt;</title>
<polygon fill="white" stroke="transparent" points="-4,4 -4,-672 320,-672 320,4 -4,4"/>
<!-- Node1 -->
<g id="node1" class="node">
<title>Node1</title>
<g id="a_node1"><a xlink:title="Base class (template) for server implementing server objects.">
<polygon fill="#bfbfbf" stroke="black" points="83,-266.5 83,-356.5 232,-356.5 232,-266.5 83,-266.5"/>
<text text-anchor="start" x="91" y="-344.5" font-family="Helvetica,sans-Serif" font-size="10.00">L4::Server_object_t</text>
<text text-anchor="middle" x="157.5" y="-333.5" font-family="Helvetica,sans-Serif" font-size="10.00">&lt; IFACE, BASE &gt;</text>
<polyline fill="none" stroke="black" points="83,-326.5 232,-326.5 "/>
<text text-anchor="middle" x="157.5" y="-314.5" font-family="Helvetica,sans-Serif" font-size="10.00"> </text>
<polyline fill="none" stroke="black" points="83,-307.5 232,-307.5 "/>
<text text-anchor="start" x="91" y="-295.5" font-family="Helvetica,sans-Serif" font-size="10.00">+ get_buffer_demand()</text>
<text text-anchor="start" x="91" y="-284.5" font-family="Helvetica,sans-Serif" font-size="10.00">+ dispatch_meta_request()</text>
<text text-anchor="start" x="91" y="-273.5" font-family="Helvetica,sans-Serif" font-size="10.00">+ proto_dispatch()</text>
</a>
</g>
</g>
<!-- Node4 -->
<g id="node4" class="node">
<title>Node4</title>
<g id="a_node4"><a xlink:href="structL4_1_1Server__object__t.html" target="_top" xlink:title=" ">
<polygon fill="white" stroke="black" points="0,-112 0,-202 149,-202 149,-112 0,-112"/>
<text text-anchor="start" x="8" y="-190" font-family="Helvetica,sans-Serif" font-size="10.00">L4::Server_object_t</text>
<text text-anchor="middle" x="74.5" y="-179" font-family="Helvetica,sans-Serif" font-size="10.00">&lt; Kobject &gt;</text>
<polyline fill="none" stroke="black" points="0,-172 149,-172 "/>
<text text-anchor="middle" x="74.5" y="-160" font-family="Helvetica,sans-Serif" font-size="10.00"> </text>
<polyline fill="none" stroke="black" points="0,-153 149,-153 "/>
<text text-anchor="start" x="8" y="-141" font-family="Helvetica,sans-Serif" font-size="10.00">+ get_buffer_demand()</text>
<text text-anchor="start" x="8" y="-130" font-family="Helvetica,sans-Serif" font-size="10.00">+ dispatch_meta_request()</text>
<text text-anchor="start" x="8" y="-119" font-family="Helvetica,sans-Serif" font-size="10.00">+ proto_dispatch()</text>
</a>
</g>
</g>
<!-- Node1&#45;&gt;Node4 -->
<g id="edge3" class="edge">
<title>Node1&#45;&gt;Node4</title>
<path fill="none" stroke="orange" d="M128.47,-257.16C118.66,-239.14 107.82,-219.23 98.45,-202.01"/>
<polygon fill="orange" stroke="orange" points="125.64,-259.28 133.49,-266.39 131.79,-255.93 125.64,-259.28"/>
<text text-anchor="middle" x="154.5" y="-234.5" font-family="Helvetica,sans-Serif" font-size="10.00"> &lt; Kobject &gt;</text>
</g>
<!-- Node6 -->
<g id="node6" class="node">
<title>Node6</title>
<g id="a_node6"><a xlink:href="structL4_1_1Server__object__t.html" target="_top" xlink:title=" ">
<polygon fill="white" stroke="black" points="167,-106.5 167,-207.5 316,-207.5 316,-106.5 167,-106.5"/>
<text text-anchor="start" x="175" y="-195.5" font-family="Helvetica,sans-Serif" font-size="10.00">L4::Server_object_t</text>
<text text-anchor="start" x="175" y="-184.5" font-family="Helvetica,sans-Serif" font-size="10.00">&lt; IFACE, L4::Server</text>
<text text-anchor="middle" x="241.5" y="-173.5" font-family="Helvetica,sans-Serif" font-size="10.00">_object &gt;</text>
<polyline fill="none" stroke="black" points="167,-166.5 316,-166.5 "/>
<text text-anchor="middle" x="241.5" y="-154.5" font-family="Helvetica,sans-Serif" font-size="10.00"> </text>
<polyline fill="none" stroke="black" points="167,-147.5 316,-147.5 "/>
<text text-anchor="start" x="175" y="-135.5" font-family="Helvetica,sans-Serif" font-size="10.00">+ get_buffer_demand()</text>
<text text-anchor="start" x="175" y="-124.5" font-family="Helvetica,sans-Serif" font-size="10.00">+ dispatch_meta_request()</text>
<text text-anchor="start" x="175" y="-113.5" font-family="Helvetica,sans-Serif" font-size="10.00">+ proto_dispatch()</text>
</a>
</g>
</g>
<!-- Node1&#45;&gt;Node6 -->
<g id="edge5" class="edge">
<title>Node1&#45;&gt;Node6</title>
<path fill="none" stroke="orange" d="M186.65,-257.57C195.58,-241.37 205.36,-223.61 214.16,-207.64"/>
<polygon fill="orange" stroke="orange" points="183.56,-255.94 181.8,-266.39 189.69,-259.32 183.56,-255.94"/>
<text text-anchor="start" x="201.5" y="-240" font-family="Helvetica,sans-Serif" font-size="10.00"> &lt; IFACE, L4::Server</text>
<text text-anchor="middle" x="250" y="-229" font-family="Helvetica,sans-Serif" font-size="10.00">_object &gt;</text>
</g>
<!-- Node2 -->
<g id="node2" class="node">
<title>Node2</title>
<g id="a_node2"><a xlink:href="classL4_1_1Server__object.html" target="_top" xlink:title="Abstract server object to be used with L4::Server and L4::Basic_registry.">
<polygon fill="white" stroke="black" points="107,-394.5 107,-473.5 208,-473.5 208,-394.5 107,-394.5"/>
<text text-anchor="middle" x="157.5" y="-461.5" font-family="Helvetica,sans-Serif" font-size="10.00">L4::Server_object</text>
<polyline fill="none" stroke="black" points="107,-454.5 208,-454.5 "/>
<text text-anchor="middle" x="157.5" y="-442.5" font-family="Helvetica,sans-Serif" font-size="10.00"> </text>
<polyline fill="none" stroke="black" points="107,-435.5 208,-435.5 "/>
<text text-anchor="start" x="115" y="-423.5" font-family="Helvetica,sans-Serif" font-size="10.00">+ dispatch()</text>
<text text-anchor="start" x="115" y="-412.5" font-family="Helvetica,sans-Serif" font-size="10.00">+ dispatch()</text>
<text text-anchor="start" x="115" y="-401.5" font-family="Helvetica,sans-Serif" font-size="10.00">+ obj_cap()</text>
</a>
</g>
</g>
<!-- Node2&#45;&gt;Node1 -->
<g id="edge1" class="edge">
<title>Node2&#45;&gt;Node1</title>
<path fill="none" stroke="midnightblue" d="M157.5,-384.14C157.5,-375.05 157.5,-365.6 157.5,-356.66"/>
<polygon fill="none" stroke="midnightblue" points="154,-384.21 157.5,-394.21 161,-384.21 154,-384.21"/>
</g>
<!-- Node3 -->
<g id="node3" class="node">
<title>Node3</title>
<g id="a_node3"><a xlink:href="structL4_1_1Epiface.html" target="_top" xlink:title="Base class for interface implementations.">
<polygon fill="white" stroke="black" points="92.5,-511.5 92.5,-667.5 222.5,-667.5 222.5,-511.5 92.5,-511.5"/>
<text text-anchor="middle" x="157.5" y="-655.5" font-family="Helvetica,sans-Serif" font-size="10.00">L4::Epiface</text>
<polyline fill="none" stroke="black" points="92.5,-648.5 222.5,-648.5 "/>
<text text-anchor="middle" x="157.5" y="-636.5" font-family="Helvetica,sans-Serif" font-size="10.00"> </text>
<polyline fill="none" stroke="black" points="92.5,-629.5 222.5,-629.5 "/>
<text text-anchor="start" x="100.5" y="-617.5" font-family="Helvetica,sans-Serif" font-size="10.00">+ Epiface()</text>
<text text-anchor="start" x="100.5" y="-606.5" font-family="Helvetica,sans-Serif" font-size="10.00">+ operator=()</text>
<text text-anchor="start" x="100.5" y="-595.5" font-family="Helvetica,sans-Serif" font-size="10.00">+ Epiface()</text>
<text text-anchor="start" x="100.5" y="-584.5" font-family="Helvetica,sans-Serif" font-size="10.00">+ dispatch()</text>
<text text-anchor="start" x="100.5" y="-573.5" font-family="Helvetica,sans-Serif" font-size="10.00">+ get_buffer_demand()</text>
<text text-anchor="start" x="100.5" y="-562.5" font-family="Helvetica,sans-Serif" font-size="10.00">+ ~Epiface()</text>
<text text-anchor="start" x="100.5" y="-551.5" font-family="Helvetica,sans-Serif" font-size="10.00">+ obj_cap()</text>
<text text-anchor="start" x="100.5" y="-540.5" font-family="Helvetica,sans-Serif" font-size="10.00">+ server_iface()</text>
<text text-anchor="start" x="100.5" y="-529.5" font-family="Helvetica,sans-Serif" font-size="10.00">+ set_server()</text>
<text text-anchor="start" x="100.5" y="-518.5" font-family="Helvetica,sans-Serif" font-size="10.00">+ set_obj_cap()</text>
</a>
</g>
</g>
<!-- Node3&#45;&gt;Node2 -->
<g id="edge2" class="edge">
<title>Node3&#45;&gt;Node2</title>
<path fill="none" stroke="midnightblue" d="M157.5,-501.28C157.5,-491.72 157.5,-482.38 157.5,-473.87"/>
<polygon fill="none" stroke="midnightblue" points="154,-501.3 157.5,-511.3 161,-501.3 154,-501.3"/>
</g>
<!-- Node5 -->
<g id="node5" class="node">
<title>Node5</title>
<g id="a_node5"><a xlink:href="structL4_1_1Irq__handler__object.html" target="_top" xlink:title="Server object base class for handling IRQ messages.">
<polygon fill="white" stroke="black" points="12.5,-6 12.5,-63 136.5,-63 136.5,-6 12.5,-6"/>
<text text-anchor="middle" x="74.5" y="-51" font-family="Helvetica,sans-Serif" font-size="10.00">L4::Irq_handler_object</text>
<polyline fill="none" stroke="black" points="12.5,-44 136.5,-44 "/>
<text text-anchor="middle" x="74.5" y="-32" font-family="Helvetica,sans-Serif" font-size="10.00"> </text>
<polyline fill="none" stroke="black" points="12.5,-25 136.5,-25 "/>
<text text-anchor="middle" x="74.5" y="-13" font-family="Helvetica,sans-Serif" font-size="10.00"> </text>
</a>
</g>
</g>
<!-- Node4&#45;&gt;Node5 -->
<g id="edge4" class="edge">
<title>Node4&#45;&gt;Node5</title>
<path fill="none" stroke="midnightblue" d="M74.5,-101.74C74.5,-88.42 74.5,-74.7 74.5,-63.22"/>
<polygon fill="none" stroke="midnightblue" points="71,-101.81 74.5,-111.81 78,-101.81 71,-101.81"/>
</g>
<!-- Node7 -->
<g id="node7" class="node">
<title>Node7</title>
<g id="a_node7"><a xlink:href="structL4_1_1Server__object__x.html" target="_top" xlink:title="Helper class to implement p_dispatch based server objects.">
<polygon fill="white" stroke="black" points="170.5,-0.5 170.5,-68.5 312.5,-68.5 312.5,-0.5 170.5,-0.5"/>
<text text-anchor="start" x="178.5" y="-56.5" font-family="Helvetica,sans-Serif" font-size="10.00">L4::Server_object_x</text>
<text text-anchor="middle" x="241.5" y="-45.5" font-family="Helvetica,sans-Serif" font-size="10.00">&lt; Derived, IFACE, BASE &gt;</text>
<polyline fill="none" stroke="black" points="170.5,-38.5 312.5,-38.5 "/>
<text text-anchor="middle" x="241.5" y="-26.5" font-family="Helvetica,sans-Serif" font-size="10.00"> </text>
<polyline fill="none" stroke="black" points="170.5,-19.5 312.5,-19.5 "/>
<text text-anchor="start" x="178.5" y="-7.5" font-family="Helvetica,sans-Serif" font-size="10.00">+ dispatch()</text>
</a>
</g>
</g>
<!-- Node6&#45;&gt;Node7 -->
<g id="edge6" class="edge">
<title>Node6&#45;&gt;Node7</title>
<path fill="none" stroke="midnightblue" d="M241.5,-96.07C241.5,-86.61 241.5,-77.14 241.5,-68.59"/>
<polygon fill="none" stroke="midnightblue" points="238,-96.29 241.5,-106.29 245,-96.29 238,-96.29"/>
</g>
</g>
</svg>
