<?xml version="1.0" encoding="UTF-8" standalone="no"?>
<!DOCTYPE svg PUBLIC "-//W3C//DTD SVG 1.1//EN"
 "http://www.w3.org/Graphics/SVG/1.1/DTD/svg11.dtd">
<!-- Generated by graphviz version 2.43.0 (0)
 -->
<!-- Title: L4::Typeid::Detail::_Rpcs&lt; OPCODE, O, X &gt; Pages: 1 -->
<svg width="677pt" height="416pt"
 viewBox="0.00 0.00 677.00 416.00" xmlns="http://www.w3.org/2000/svg" xmlns:xlink="http://www.w3.org/1999/xlink">
<g id="graph0" class="graph" transform="scale(1 1) rotate(0) translate(4 412)">
<title>L4::Typeid::Detail::_Rpcs&lt; OPCODE, O, X &gt;</title>
<polygon fill="white" stroke="transparent" points="-4,4 -4,-412 673,-412 673,4 -4,4"/>
<!-- Node1 -->
<g id="node1" class="node">
<title>Node1</title>
<g id="a_node1"><a xlink:title="Empty list of RPCs.">
<polygon fill="#bfbfbf" stroke="black" points="266.5,-233.5 266.5,-301.5 407.5,-301.5 407.5,-233.5 266.5,-233.5"/>
<text text-anchor="start" x="274.5" y="-289.5" font-family="Helvetica,sans-Serif" font-size="10.00">L4::Typeid::Detail</text>
<text text-anchor="middle" x="337" y="-278.5" font-family="Helvetica,sans-Serif" font-size="10.00">::_Rpcs&lt; OPCODE, O, X &gt;</text>
<polyline fill="none" stroke="black" points="266.5,-271.5 407.5,-271.5 "/>
<text text-anchor="middle" x="337" y="-259.5" font-family="Helvetica,sans-Serif" font-size="10.00"> </text>
<polyline fill="none" stroke="black" points="266.5,-252.5 407.5,-252.5 "/>
<text text-anchor="middle" x="337" y="-240.5" font-family="Helvetica,sans-Serif" font-size="10.00"> </text>
</a>
</g>
</g>
<!-- Node3 -->
<g id="node3" class="node">
<title>Node3</title>
<g id="a_node3"><a xlink:href="structL4_1_1Typeid_1_1Detail_1_1__Rpcs.html" target="_top" xlink:title=" ">
<polygon fill="white" stroke="black" points="17,-106.5 17,-185.5 153,-185.5 153,-106.5 17,-106.5"/>
<text text-anchor="start" x="25" y="-173.5" font-family="Helvetica,sans-Serif" font-size="10.00">L4::Typeid::Detail</text>
<text text-anchor="start" x="25" y="-162.5" font-family="Helvetica,sans-Serif" font-size="10.00">::_Rpcs&lt; OPCODE_TYPE,</text>
<text text-anchor="middle" x="85" y="-151.5" font-family="Helvetica,sans-Serif" font-size="10.00"> 0, RPCS... &gt;</text>
<polyline fill="none" stroke="black" points="17,-144.5 153,-144.5 "/>
<text text-anchor="middle" x="85" y="-132.5" font-family="Helvetica,sans-Serif" font-size="10.00"> </text>
<polyline fill="none" stroke="black" points="17,-125.5 153,-125.5 "/>
<text text-anchor="middle" x="85" y="-113.5" font-family="Helvetica,sans-Serif" font-size="10.00"> </text>
</a>
</g>
</g>
<!-- Node1&#45;&gt;Node3 -->
<g id="edge2" class="edge">
<title>Node1&#45;&gt;Node3</title>
<path fill="none" stroke="orange" d="M256.43,-258.66C195.92,-251.08 119.88,-237.4 98,-215 90.36,-207.18 86.5,-196.32 84.71,-185.58"/>
<polygon fill="orange" stroke="orange" points="256.03,-262.14 266.38,-259.87 256.87,-255.19 256.03,-262.14"/>
<text text-anchor="middle" x="172.5" y="-207" font-family="Helvetica,sans-Serif" font-size="10.00"> &lt; OPCODE_TYPE, 0, RPCS... &gt;</text>
</g>
<!-- Node5 -->
<g id="node5" class="node">
<title>Node5</title>
<g id="a_node5"><a xlink:href="structL4_1_1Typeid_1_1Detail_1_1__Rpcs.html" target="_top" xlink:title=" ">
<polygon fill="white" stroke="black" points="193,-106.5 193,-185.5 321,-185.5 321,-106.5 193,-106.5"/>
<text text-anchor="start" x="201" y="-173.5" font-family="Helvetica,sans-Serif" font-size="10.00">L4::Typeid::Detail</text>
<text text-anchor="start" x="201" y="-162.5" font-family="Helvetica,sans-Serif" font-size="10.00">::_Rpcs&lt; l4_umword_t,</text>
<text text-anchor="middle" x="257" y="-151.5" font-family="Helvetica,sans-Serif" font-size="10.00"> 0, ARG... &gt;</text>
<polyline fill="none" stroke="black" points="193,-144.5 321,-144.5 "/>
<text text-anchor="middle" x="257" y="-132.5" font-family="Helvetica,sans-Serif" font-size="10.00"> </text>
<polyline fill="none" stroke="black" points="193,-125.5 321,-125.5 "/>
<text text-anchor="middle" x="257" y="-113.5" font-family="Helvetica,sans-Serif" font-size="10.00"> </text>
</a>
</g>
</g>
<!-- Node1&#45;&gt;Node5 -->
<g id="edge4" class="edge">
<title>Node1&#45;&gt;Node5</title>
<path fill="none" stroke="orange" d="M261.98,-226.27C258.94,-222.78 256.24,-219.03 254,-215 249.12,-206.22 247.81,-195.78 248.24,-185.74"/>
<polygon fill="orange" stroke="orange" points="259.6,-228.84 269.11,-233.5 264.58,-223.92 259.6,-228.84"/>
<text text-anchor="middle" x="322.5" y="-207" font-family="Helvetica,sans-Serif" font-size="10.00"> &lt; l4_umword_t, 0, ARG... &gt;</text>
</g>
<!-- Node7 -->
<g id="node7" class="node">
<title>Node7</title>
<g id="a_node7"><a xlink:href="structL4_1_1Typeid_1_1Detail_1_1__Rpcs.html" target="_top" xlink:title=" ">
<polygon fill="white" stroke="black" points="355.5,-106.5 355.5,-185.5 474.5,-185.5 474.5,-106.5 355.5,-106.5"/>
<text text-anchor="start" x="363.5" y="-173.5" font-family="Helvetica,sans-Serif" font-size="10.00">L4::Typeid::Detail</text>
<text text-anchor="start" x="363.5" y="-162.5" font-family="Helvetica,sans-Serif" font-size="10.00">::_Rpcs&lt; L4::Opcode,</text>
<text text-anchor="middle" x="415" y="-151.5" font-family="Helvetica,sans-Serif" font-size="10.00"> 0, RPCS... &gt;</text>
<polyline fill="none" stroke="black" points="355.5,-144.5 474.5,-144.5 "/>
<text text-anchor="middle" x="415" y="-132.5" font-family="Helvetica,sans-Serif" font-size="10.00"> </text>
<polyline fill="none" stroke="black" points="355.5,-125.5 474.5,-125.5 "/>
<text text-anchor="middle" x="415" y="-113.5" font-family="Helvetica,sans-Serif" font-size="10.00"> </text>
</a>
</g>
</g>
<!-- Node1&#45;&gt;Node7 -->
<g id="edge6" class="edge">
<title>Node1&#45;&gt;Node7</title>
<path fill="none" stroke="orange" d="M386.95,-225.87C389.9,-222.38 392.62,-218.75 395,-215 400.6,-206.17 404.69,-195.7 407.65,-185.67"/>
<polygon fill="orange" stroke="orange" points="384.35,-223.53 380.2,-233.27 389.53,-228.24 384.35,-223.53"/>
<text text-anchor="middle" x="467.5" y="-207" font-family="Helvetica,sans-Serif" font-size="10.00"> &lt; L4::Opcode, 0, RPCS... &gt;</text>
</g>
<!-- Node9 -->
<g id="node9" class="node">
<title>Node9</title>
<g id="a_node9"><a xlink:href="structL4_1_1Typeid_1_1Detail_1_1__Rpcs.html" target="_top" xlink:title=" ">
<polygon fill="white" stroke="black" points="492.5,-112 492.5,-180 661.5,-180 661.5,-112 492.5,-112"/>
<text text-anchor="start" x="500.5" y="-168" font-family="Helvetica,sans-Serif" font-size="10.00">L4::Typeid::Detail</text>
<text text-anchor="middle" x="577" y="-157" font-family="Helvetica,sans-Serif" font-size="10.00">::_Rpcs&lt; void, 0, OPERATION &gt;</text>
<polyline fill="none" stroke="black" points="492.5,-150 661.5,-150 "/>
<text text-anchor="middle" x="577" y="-138" font-family="Helvetica,sans-Serif" font-size="10.00"> </text>
<polyline fill="none" stroke="black" points="492.5,-131 661.5,-131 "/>
<text text-anchor="middle" x="577" y="-119" font-family="Helvetica,sans-Serif" font-size="10.00"> </text>
</a>
</g>
</g>
<!-- Node1&#45;&gt;Node9 -->
<g id="edge8" class="edge">
<title>Node1&#45;&gt;Node9</title>
<path fill="none" stroke="orange" d="M417.48,-260.55C457.05,-254.19 503.51,-241.24 538,-215 549.59,-206.18 558.3,-192.86 564.52,-180.33"/>
<polygon fill="orange" stroke="orange" points="416.96,-257.09 407.58,-262.03 417.99,-264.01 416.96,-257.09"/>
<text text-anchor="middle" x="608.5" y="-207" font-family="Helvetica,sans-Serif" font-size="10.00"> &lt; void, 0, OPERATION &gt;</text>
</g>
<!-- Node2 -->
<g id="node2" class="node">
<title>Node2</title>
<g id="a_node2"><a xlink:href="structL4_1_1Typeid_1_1Detail_1_1Rpcs__end.html" target="_top" xlink:title="Internal end&#45;of&#45;list marker.">
<polygon fill="white" stroke="black" points="286.5,-339.5 286.5,-407.5 387.5,-407.5 387.5,-339.5 286.5,-339.5"/>
<text text-anchor="start" x="294.5" y="-395.5" font-family="Helvetica,sans-Serif" font-size="10.00">L4::Typeid::Detail</text>
<text text-anchor="middle" x="337" y="-384.5" font-family="Helvetica,sans-Serif" font-size="10.00">::Rpcs_end</text>
<polyline fill="none" stroke="black" points="286.5,-377.5 387.5,-377.5 "/>
<text text-anchor="middle" x="337" y="-365.5" font-family="Helvetica,sans-Serif" font-size="10.00"> </text>
<polyline fill="none" stroke="black" points="286.5,-358.5 387.5,-358.5 "/>
<text text-anchor="middle" x="337" y="-346.5" font-family="Helvetica,sans-Serif" font-size="10.00"> </text>
</a>
</g>
</g>
<!-- Node2&#45;&gt;Node1 -->
<g id="edge1" class="edge">
<title>Node2&#45;&gt;Node1</title>
<path fill="none" stroke="midnightblue" d="M337,-329.17C337,-320 337,-310.46 337,-301.73"/>
<polygon fill="none" stroke="midnightblue" points="333.5,-329.31 337,-339.31 340.5,-329.31 333.5,-329.31"/>
</g>
<!-- Node4 -->
<g id="node4" class="node">
<title>Node4</title>
<g id="a_node4"><a xlink:href="structL4_1_1Typeid_1_1Rpcs__code_1_1F.html" target="_top" xlink:title=" ">
<polygon fill="white" stroke="black" points="0,-0.5 0,-68.5 170,-68.5 170,-0.5 0,-0.5"/>
<text text-anchor="start" x="8" y="-56.5" font-family="Helvetica,sans-Serif" font-size="10.00">L4::Typeid::Rpcs_code</text>
<text text-anchor="middle" x="85" y="-45.5" font-family="Helvetica,sans-Serif" font-size="10.00">&lt; OPCODE_TYPE &gt;::F&lt; RPCS &gt;</text>
<polyline fill="none" stroke="black" points="0,-38.5 170,-38.5 "/>
<text text-anchor="middle" x="85" y="-26.5" font-family="Helvetica,sans-Serif" font-size="10.00"> </text>
<polyline fill="none" stroke="black" points="0,-19.5 170,-19.5 "/>
<text text-anchor="middle" x="85" y="-7.5" font-family="Helvetica,sans-Serif" font-size="10.00"> </text>
</a>
</g>
</g>
<!-- Node3&#45;&gt;Node4 -->
<g id="edge3" class="edge">
<title>Node3&#45;&gt;Node4</title>
<path fill="none" stroke="midnightblue" d="M85,-96.38C85,-87.02 85,-77.41 85,-68.67"/>
<polygon fill="none" stroke="midnightblue" points="81.5,-96.39 85,-106.39 88.5,-96.39 81.5,-96.39"/>
</g>
<!-- Node6 -->
<g id="node6" class="node">
<title>Node6</title>
<g id="a_node6"><a xlink:href="structL4_1_1Typeid_1_1Rpcs__sys.html" target="_top" xlink:title="List of RPCs typically used for kernel interfaces.">
<polygon fill="white" stroke="black" points="199,-0.5 199,-68.5 315,-68.5 315,-0.5 199,-0.5"/>
<text text-anchor="start" x="207" y="-56.5" font-family="Helvetica,sans-Serif" font-size="10.00">L4::Typeid::Rpcs_sys</text>
<text text-anchor="middle" x="257" y="-45.5" font-family="Helvetica,sans-Serif" font-size="10.00">&lt; ARG &gt;</text>
<polyline fill="none" stroke="black" points="199,-38.5 315,-38.5 "/>
<text text-anchor="middle" x="257" y="-26.5" font-family="Helvetica,sans-Serif" font-size="10.00"> </text>
<polyline fill="none" stroke="black" points="199,-19.5 315,-19.5 "/>
<text text-anchor="middle" x="257" y="-7.5" font-family="Helvetica,sans-Serif" font-size="10.00"> </text>
</a>
</g>
</g>
<!-- Node5&#45;&gt;Node6 -->
<g id="edge5" class="edge">
<title>Node5&#45;&gt;Node6</title>
<path fill="none" stroke="midnightblue" d="M257,-96.38C257,-87.02 257,-77.41 257,-68.67"/>
<polygon fill="none" stroke="midnightblue" points="253.5,-96.39 257,-106.39 260.5,-96.39 253.5,-96.39"/>
</g>
<!-- Node8 -->
<g id="node8" class="node">
<title>Node8</title>
<g id="a_node8"><a xlink:href="structL4_1_1Typeid_1_1Rpcs.html" target="_top" xlink:title="Standard list of RPCs of an interface.">
<polygon fill="white" stroke="black" points="343.5,-6 343.5,-63 486.5,-63 486.5,-6 343.5,-6"/>
<text text-anchor="middle" x="415" y="-51" font-family="Helvetica,sans-Serif" font-size="10.00">L4::Typeid::Rpcs&lt; RPCS &gt;</text>
<polyline fill="none" stroke="black" points="343.5,-44 486.5,-44 "/>
<text text-anchor="middle" x="415" y="-32" font-family="Helvetica,sans-Serif" font-size="10.00"> </text>
<polyline fill="none" stroke="black" points="343.5,-25 486.5,-25 "/>
<text text-anchor="middle" x="415" y="-13" font-family="Helvetica,sans-Serif" font-size="10.00"> </text>
</a>
</g>
</g>
<!-- Node7&#45;&gt;Node8 -->
<g id="edge7" class="edge">
<title>Node7&#45;&gt;Node8</title>
<path fill="none" stroke="midnightblue" d="M415,-96.14C415,-84.81 415,-73.14 415,-63.1"/>
<polygon fill="none" stroke="midnightblue" points="411.5,-96.39 415,-106.39 418.5,-96.39 411.5,-96.39"/>
</g>
<!-- Node10 -->
<g id="node10" class="node">
<title>Node10</title>
<g id="a_node10"><a xlink:href="structL4_1_1Typeid_1_1Rpc__nocode.html" target="_top" xlink:title="List of RPCs of an interface using a single operation without an opcode.">
<polygon fill="white" stroke="black" points="512,-0.5 512,-68.5 642,-68.5 642,-0.5 512,-0.5"/>
<text text-anchor="start" x="520" y="-56.5" font-family="Helvetica,sans-Serif" font-size="10.00">L4::Typeid::Rpc_nocode</text>
<text text-anchor="middle" x="577" y="-45.5" font-family="Helvetica,sans-Serif" font-size="10.00">&lt; OPERATION &gt;</text>
<polyline fill="none" stroke="black" points="512,-38.5 642,-38.5 "/>
<text text-anchor="middle" x="577" y="-26.5" font-family="Helvetica,sans-Serif" font-size="10.00"> </text>
<polyline fill="none" stroke="black" points="512,-19.5 642,-19.5 "/>
<text text-anchor="middle" x="577" y="-7.5" font-family="Helvetica,sans-Serif" font-size="10.00"> </text>
</a>
</g>
</g>
<!-- Node9&#45;&gt;Node10 -->
<g id="edge9" class="edge">
<title>Node9&#45;&gt;Node10</title>
<path fill="none" stroke="midnightblue" d="M577,-101.56C577,-90.56 577,-78.93 577,-68.54"/>
<polygon fill="none" stroke="midnightblue" points="573.5,-101.85 577,-111.85 580.5,-101.85 573.5,-101.85"/>
</g>
</g>
</svg>
