<?xml version="1.0" encoding="UTF-8" standalone="no"?>
<!DOCTYPE svg PUBLIC "-//W3C//DTD SVG 1.1//EN"
 "http://www.w3.org/Graphics/SVG/1.1/DTD/svg11.dtd">
<!-- Generated by graphviz version 2.43.0 (0)
 -->
<!-- Title: L4::Triggerable Pages: 1 -->
<svg width="483pt" height="610pt"
 viewBox="0.00 0.00 483.00 610.00" xmlns="http://www.w3.org/2000/svg" xmlns:xlink="http://www.w3.org/1999/xlink">
<g id="graph0" class="graph" transform="scale(1 1) rotate(0) translate(4 606)">
<title>L4::Triggerable</title>
<polygon fill="white" stroke="transparent" points="-4,4 -4,-606 479,-606 479,4 -4,4"/>
<!-- Node1 -->
<g id="node1" class="node">
<title>Node1</title>
<g id="a_node1"><a xlink:title="Interface that allows an object to be triggered by some source.">
<polygon fill="#bfbfbf" stroke="black" points="196.5,-289.5 196.5,-346.5 284.5,-346.5 284.5,-289.5 196.5,-289.5"/>
<text text-anchor="middle" x="240.5" y="-334.5" font-family="Helvetica,sans-Serif" font-size="10.00">L4::Triggerable</text>
<polyline fill="none" stroke="black" points="196.5,-327.5 284.5,-327.5 "/>
<text text-anchor="middle" x="240.5" y="-315.5" font-family="Helvetica,sans-Serif" font-size="10.00"> </text>
<polyline fill="none" stroke="black" points="196.5,-308.5 284.5,-308.5 "/>
<text text-anchor="start" x="204.5" y="-296.5" font-family="Helvetica,sans-Serif" font-size="10.00">+ trigger()</text>
</a>
</g>
</g>
<!-- Node5 -->
<g id="node5" class="node">
<title>Node5</title>
<g id="a_node5"><a xlink:href="classL4_1_1Kobject__2t.html" target="_top" xlink:title=" ">
<polygon fill="white" stroke="black" points="0,-128.5 0,-251.5 155,-251.5 155,-128.5 0,-128.5"/>
<text text-anchor="start" x="8" y="-239.5" font-family="Helvetica,sans-Serif" font-size="10.00">L4::Kobject_2t&lt; Irq,</text>
<text text-anchor="start" x="8" y="-228.5" font-family="Helvetica,sans-Serif" font-size="10.00"> Triggerable, Rcv_endpoint,</text>
<text text-anchor="middle" x="77.5" y="-217.5" font-family="Helvetica,sans-Serif" font-size="10.00"> L4_PROTO_IRQ_SENDER &gt;</text>
<polyline fill="none" stroke="black" points="0,-210.5 155,-210.5 "/>
<text text-anchor="middle" x="77.5" y="-198.5" font-family="Helvetica,sans-Serif" font-size="10.00"> </text>
<polyline fill="none" stroke="black" points="0,-191.5 155,-191.5 "/>
<text text-anchor="start" x="8" y="-179.5" font-family="Helvetica,sans-Serif" font-size="10.00">+ operator Kobject const &amp;()</text>
<text text-anchor="start" x="8" y="-168.5" font-family="Helvetica,sans-Serif" font-size="10.00">+ dec_refcnt()</text>
<text text-anchor="start" x="8" y="-157.5" font-family="Helvetica,sans-Serif" font-size="10.00"># cap()</text>
<text text-anchor="start" x="8" y="-146.5" font-family="Helvetica,sans-Serif" font-size="10.00"># c()</text>
<text text-anchor="start" x="8" y="-135.5" font-family="Helvetica,sans-Serif" font-size="10.00"># __check_protocols__()</text>
</a>
</g>
</g>
<!-- Node1&#45;&gt;Node5 -->
<g id="edge4" class="edge">
<title>Node1&#45;&gt;Node5</title>
<path fill="none" stroke="midnightblue" d="M196.59,-283.05C183.82,-273.19 169.48,-262.1 155.29,-251.13"/>
<polygon fill="none" stroke="midnightblue" points="194.68,-286 204.73,-289.35 198.96,-280.46 194.68,-286"/>
</g>
<!-- Node7 -->
<g id="node7" class="node">
<title>Node7</title>
<g id="a_node7"><a xlink:href="classL4_1_1Kobject__t.html" target="_top" xlink:title=" ">
<polygon fill="white" stroke="black" points="173,-145 173,-235 308,-235 308,-145 173,-145"/>
<text text-anchor="start" x="181" y="-223" font-family="Helvetica,sans-Serif" font-size="10.00">L4::Kobject_t&lt; Irq</text>
<text text-anchor="start" x="181" y="-212" font-family="Helvetica,sans-Serif" font-size="10.00">_mux, Triggerable, L4</text>
<text text-anchor="middle" x="240.5" y="-201" font-family="Helvetica,sans-Serif" font-size="10.00">_PROTO_IRQ_MUX &gt;</text>
<polyline fill="none" stroke="black" points="173,-194 308,-194 "/>
<text text-anchor="middle" x="240.5" y="-182" font-family="Helvetica,sans-Serif" font-size="10.00"> </text>
<polyline fill="none" stroke="black" points="173,-175 308,-175 "/>
<text text-anchor="start" x="181" y="-163" font-family="Helvetica,sans-Serif" font-size="10.00"># c()</text>
<text text-anchor="start" x="181" y="-152" font-family="Helvetica,sans-Serif" font-size="10.00"># __check_protocols__()</text>
</a>
</g>
</g>
<!-- Node1&#45;&gt;Node7 -->
<g id="edge6" class="edge">
<title>Node1&#45;&gt;Node7</title>
<path fill="none" stroke="midnightblue" d="M240.5,-279.24C240.5,-265.45 240.5,-249.73 240.5,-235.42"/>
<polygon fill="none" stroke="midnightblue" points="237,-279.35 240.5,-289.35 244,-279.35 237,-279.35"/>
</g>
<!-- Node9 -->
<g id="node9" class="node">
<title>Node9</title>
<g id="a_node9"><a xlink:href="classL4_1_1Kobject__t.html" target="_top" xlink:title=" ">
<polygon fill="white" stroke="black" points="326,-145 326,-235 475,-235 475,-145 326,-145"/>
<text text-anchor="start" x="334" y="-223" font-family="Helvetica,sans-Serif" font-size="10.00">L4::Kobject_t&lt; Semaphore,</text>
<text text-anchor="start" x="334" y="-212" font-family="Helvetica,sans-Serif" font-size="10.00"> Triggerable, L4_PROTO</text>
<text text-anchor="middle" x="400.5" y="-201" font-family="Helvetica,sans-Serif" font-size="10.00">_SEMAPHORE &gt;</text>
<polyline fill="none" stroke="black" points="326,-194 475,-194 "/>
<text text-anchor="middle" x="400.5" y="-182" font-family="Helvetica,sans-Serif" font-size="10.00"> </text>
<polyline fill="none" stroke="black" points="326,-175 475,-175 "/>
<text text-anchor="start" x="334" y="-163" font-family="Helvetica,sans-Serif" font-size="10.00"># c()</text>
<text text-anchor="start" x="334" y="-152" font-family="Helvetica,sans-Serif" font-size="10.00"># __check_protocols__()</text>
</a>
</g>
</g>
<!-- Node1&#45;&gt;Node9 -->
<g id="edge8" class="edge">
<title>Node1&#45;&gt;Node9</title>
<path fill="none" stroke="midnightblue" d="M283.67,-283.01C302.35,-268.29 324.47,-250.87 344.41,-235.17"/>
<polygon fill="none" stroke="midnightblue" points="281.3,-280.41 275.61,-289.35 285.63,-285.91 281.3,-280.41"/>
</g>
<!-- Node2 -->
<g id="node2" class="node">
<title>Node2</title>
<g id="a_node2"><a xlink:href="classL4_1_1Kobject__t.html" target="_top" xlink:title=" ">
<polygon fill="white" stroke="black" points="167,-384.5 167,-463.5 314,-463.5 314,-384.5 167,-384.5"/>
<text text-anchor="start" x="175" y="-451.5" font-family="Helvetica,sans-Serif" font-size="10.00">L4::Kobject_t&lt; Triggerable,</text>
<text text-anchor="middle" x="240.5" y="-440.5" font-family="Helvetica,sans-Serif" font-size="10.00"> Irq_eoi, L4_PROTO_IRQ &gt;</text>
<polyline fill="none" stroke="black" points="167,-433.5 314,-433.5 "/>
<text text-anchor="middle" x="240.5" y="-421.5" font-family="Helvetica,sans-Serif" font-size="10.00"> </text>
<polyline fill="none" stroke="black" points="167,-414.5 314,-414.5 "/>
<text text-anchor="start" x="175" y="-402.5" font-family="Helvetica,sans-Serif" font-size="10.00"># c()</text>
<text text-anchor="start" x="175" y="-391.5" font-family="Helvetica,sans-Serif" font-size="10.00"># __check_protocols__()</text>
</a>
</g>
</g>
<!-- Node2&#45;&gt;Node1 -->
<g id="edge1" class="edge">
<title>Node2&#45;&gt;Node1</title>
<path fill="none" stroke="midnightblue" d="M240.5,-374.16C240.5,-364.74 240.5,-355.17 240.5,-346.72"/>
<polygon fill="none" stroke="midnightblue" points="237,-374.27 240.5,-384.27 244,-374.27 237,-374.27"/>
</g>
<!-- Node3 -->
<g id="node3" class="node">
<title>Node3</title>
<g id="a_node3"><a xlink:href="classL4_1_1Irq__eoi.html" target="_top" xlink:title="Interface for sending an acknowledge message to an object.">
<polygon fill="white" stroke="black" points="137.5,-533.5 137.5,-590.5 211.5,-590.5 211.5,-533.5 137.5,-533.5"/>
<text text-anchor="middle" x="174.5" y="-578.5" font-family="Helvetica,sans-Serif" font-size="10.00">L4::Irq_eoi</text>
<polyline fill="none" stroke="black" points="137.5,-571.5 211.5,-571.5 "/>
<text text-anchor="middle" x="174.5" y="-559.5" font-family="Helvetica,sans-Serif" font-size="10.00"> </text>
<polyline fill="none" stroke="black" points="137.5,-552.5 211.5,-552.5 "/>
<text text-anchor="start" x="145.5" y="-540.5" font-family="Helvetica,sans-Serif" font-size="10.00">+ unmask()</text>
</a>
</g>
</g>
<!-- Node3&#45;&gt;Node2 -->
<g id="edge2" class="edge">
<title>Node3&#45;&gt;Node2</title>
<path fill="none" stroke="midnightblue" d="M192.29,-524.34C201.42,-505.53 212.53,-482.63 221.79,-463.56"/>
<polygon fill="none" stroke="midnightblue" points="189.07,-522.95 187.86,-533.48 195.37,-526.01 189.07,-522.95"/>
</g>
<!-- Node4 -->
<g id="node4" class="node">
<title>Node4</title>
<g id="a_node4"><a xlink:href="classL4_1_1Kobject__t.html" target="_top" xlink:title="Helper class to create an L4Re interface class that is derived from a single base class.">
<polygon fill="white" stroke="black" points="229.5,-522.5 229.5,-601.5 385.5,-601.5 385.5,-522.5 229.5,-522.5"/>
<text text-anchor="start" x="237.5" y="-589.5" font-family="Helvetica,sans-Serif" font-size="10.00">L4::Kobject_t&lt; Derived,</text>
<text text-anchor="middle" x="307.5" y="-578.5" font-family="Helvetica,sans-Serif" font-size="10.00"> Base, PROTO, S_DEMAND &gt;</text>
<polyline fill="none" stroke="black" points="229.5,-571.5 385.5,-571.5 "/>
<text text-anchor="middle" x="307.5" y="-559.5" font-family="Helvetica,sans-Serif" font-size="10.00"> </text>
<polyline fill="none" stroke="black" points="229.5,-552.5 385.5,-552.5 "/>
<text text-anchor="start" x="237.5" y="-540.5" font-family="Helvetica,sans-Serif" font-size="10.00"># c()</text>
<text text-anchor="start" x="237.5" y="-529.5" font-family="Helvetica,sans-Serif" font-size="10.00"># __check_protocols__()</text>
</a>
</g>
</g>
<!-- Node4&#45;&gt;Node2 -->
<g id="edge3" class="edge">
<title>Node4&#45;&gt;Node2</title>
<path fill="none" stroke="orange" d="M283.9,-513.09C275.93,-496.92 267.14,-479.08 259.57,-463.7"/>
<polygon fill="orange" stroke="orange" points="280.92,-514.97 288.48,-522.39 287.2,-511.87 280.92,-514.97"/>
<text text-anchor="start" x="277.5" y="-496" font-family="Helvetica,sans-Serif" font-size="10.00"> &lt; Triggerable, Irq</text>
<text text-anchor="middle" x="333" y="-485" font-family="Helvetica,sans-Serif" font-size="10.00">_eoi, L4_PROTO_IRQ &gt;</text>
</g>
<!-- Node6 -->
<g id="node6" class="node">
<title>Node6</title>
<g id="a_node6"><a xlink:href="classL4_1_1Irq.html" target="_top" xlink:title="C++ Irq interface.">
<polygon fill="white" stroke="black" points="40.5,-0.5 40.5,-90.5 114.5,-90.5 114.5,-0.5 40.5,-0.5"/>
<text text-anchor="middle" x="77.5" y="-78.5" font-family="Helvetica,sans-Serif" font-size="10.00">L4::Irq</text>
<polyline fill="none" stroke="black" points="40.5,-71.5 114.5,-71.5 "/>
<text text-anchor="middle" x="77.5" y="-59.5" font-family="Helvetica,sans-Serif" font-size="10.00"> </text>
<polyline fill="none" stroke="black" points="40.5,-52.5 114.5,-52.5 "/>
<text text-anchor="start" x="48.5" y="-40.5" font-family="Helvetica,sans-Serif" font-size="10.00">+ detach()</text>
<text text-anchor="start" x="48.5" y="-29.5" font-family="Helvetica,sans-Serif" font-size="10.00">+ receive()</text>
<text text-anchor="start" x="48.5" y="-18.5" font-family="Helvetica,sans-Serif" font-size="10.00">+ wait()</text>
<text text-anchor="start" x="48.5" y="-7.5" font-family="Helvetica,sans-Serif" font-size="10.00">+ unmask()</text>
</a>
</g>
</g>
<!-- Node5&#45;&gt;Node6 -->
<g id="edge5" class="edge">
<title>Node5&#45;&gt;Node6</title>
<path fill="none" stroke="midnightblue" d="M77.5,-118.08C77.5,-108.77 77.5,-99.46 77.5,-90.77"/>
<polygon fill="none" stroke="midnightblue" points="74,-118.15 77.5,-128.15 81,-118.15 74,-118.15"/>
</g>
<!-- Node8 -->
<g id="node8" class="node">
<title>Node8</title>
<g id="a_node8"><a xlink:href="structL4_1_1Irq__mux.html" target="_top" xlink:title="IRQ multiplexer for shared IRQs.">
<polygon fill="white" stroke="black" points="203.5,-17 203.5,-74 277.5,-74 277.5,-17 203.5,-17"/>
<text text-anchor="middle" x="240.5" y="-62" font-family="Helvetica,sans-Serif" font-size="10.00">L4::Irq_mux</text>
<polyline fill="none" stroke="black" points="203.5,-55 277.5,-55 "/>
<text text-anchor="middle" x="240.5" y="-43" font-family="Helvetica,sans-Serif" font-size="10.00"> </text>
<polyline fill="none" stroke="black" points="203.5,-36 277.5,-36 "/>
<text text-anchor="start" x="211.5" y="-24" font-family="Helvetica,sans-Serif" font-size="10.00">+ chain()</text>
</a>
</g>
</g>
<!-- Node7&#45;&gt;Node8 -->
<g id="edge7" class="edge">
<title>Node7&#45;&gt;Node8</title>
<path fill="none" stroke="midnightblue" d="M240.5,-134.46C240.5,-113.87 240.5,-91.31 240.5,-74.19"/>
<polygon fill="none" stroke="midnightblue" points="237,-134.69 240.5,-144.69 244,-134.69 237,-134.69"/>
</g>
<!-- Node10 -->
<g id="node10" class="node">
<title>Node10</title>
<g id="a_node10"><a xlink:href="structL4_1_1Semaphore.html" target="_top" xlink:title="Kernel&#45;provided semaphore object.">
<polygon fill="white" stroke="black" points="356,-11.5 356,-79.5 445,-79.5 445,-11.5 356,-11.5"/>
<text text-anchor="middle" x="400.5" y="-67.5" font-family="Helvetica,sans-Serif" font-size="10.00">L4::Semaphore</text>
<polyline fill="none" stroke="black" points="356,-60.5 445,-60.5 "/>
<text text-anchor="middle" x="400.5" y="-48.5" font-family="Helvetica,sans-Serif" font-size="10.00"> </text>
<polyline fill="none" stroke="black" points="356,-41.5 445,-41.5 "/>
<text text-anchor="start" x="364" y="-29.5" font-family="Helvetica,sans-Serif" font-size="10.00">+ up()</text>
<text text-anchor="start" x="364" y="-18.5" font-family="Helvetica,sans-Serif" font-size="10.00">+ down()</text>
</a>
</g>
</g>
<!-- Node9&#45;&gt;Node10 -->
<g id="edge9" class="edge">
<title>Node9&#45;&gt;Node10</title>
<path fill="none" stroke="midnightblue" d="M400.5,-134.66C400.5,-116.23 400.5,-96.21 400.5,-79.91"/>
<polygon fill="none" stroke="midnightblue" points="397,-134.69 400.5,-144.69 404,-134.69 397,-134.69"/>
</g>
</g>
</svg>
