<?xml version="1.0" encoding="UTF-8" standalone="no"?>
<!DOCTYPE svg PUBLIC "-//W3C//DTD SVG 1.1//EN"
 "http://www.w3.org/Graphics/SVG/1.1/DTD/svg11.dtd">
<!-- Generated by graphviz version 2.43.0 (0)
 -->
<!-- Title: L4::Epiface_t&lt; Derived, IFACE, BASE, bool &gt; Pages: 1 -->
<svg width="229pt" height="515pt"
 viewBox="0.00 0.00 229.00 515.00" xmlns="http://www.w3.org/2000/svg" xmlns:xlink="http://www.w3.org/1999/xlink">
<g id="graph0" class="graph" transform="scale(1 1) rotate(0) translate(4 511)">
<title>L4::Epiface_t&lt; Derived, IFACE, BASE, bool &gt;</title>
<polygon fill="white" stroke="transparent" points="-4,4 -4,-511 225,-511 225,4 -4,4"/>
<!-- Node1 -->
<g id="node1" class="node">
<title>Node1</title>
<g id="a_node1"><a xlink:title="Epiface implementation for Kobject&#45;based interface implementations.">
<polygon fill="#bfbfbf" stroke="black" points="3.5,-0.5 3.5,-68.5 134.5,-68.5 134.5,-0.5 3.5,-0.5"/>
<text text-anchor="start" x="11.5" y="-56.5" font-family="Helvetica,sans-Serif" font-size="10.00">L4::Epiface_t&lt; Derived,</text>
<text text-anchor="middle" x="69" y="-45.5" font-family="Helvetica,sans-Serif" font-size="10.00"> IFACE, BASE, bool &gt;</text>
<polyline fill="none" stroke="black" points="3.5,-38.5 134.5,-38.5 "/>
<text text-anchor="middle" x="69" y="-26.5" font-family="Helvetica,sans-Serif" font-size="10.00"> </text>
<polyline fill="none" stroke="black" points="3.5,-19.5 134.5,-19.5 "/>
<text text-anchor="start" x="11.5" y="-7.5" font-family="Helvetica,sans-Serif" font-size="10.00">+ dispatch()</text>
</a>
</g>
</g>
<!-- Node2 -->
<g id="node2" class="node">
<title>Node2</title>
<g id="a_node2"><a xlink:href="structL4_1_1Epiface__t0.html" target="_top" xlink:title=" ">
<polygon fill="white" stroke="black" points="4,-106.5 4,-185.5 134,-185.5 134,-106.5 4,-106.5"/>
<text text-anchor="start" x="12" y="-173.5" font-family="Helvetica,sans-Serif" font-size="10.00">L4::Epiface_t0&lt; IFACE,</text>
<text text-anchor="middle" x="69" y="-162.5" font-family="Helvetica,sans-Serif" font-size="10.00"> L4::Epiface &gt;</text>
<polyline fill="none" stroke="black" points="4,-155.5 134,-155.5 "/>
<text text-anchor="middle" x="69" y="-143.5" font-family="Helvetica,sans-Serif" font-size="10.00"> </text>
<polyline fill="none" stroke="black" points="4,-136.5 134,-136.5 "/>
<text text-anchor="start" x="12" y="-124.5" font-family="Helvetica,sans-Serif" font-size="10.00">+ get_buffer_demand()</text>
<text text-anchor="start" x="12" y="-113.5" font-family="Helvetica,sans-Serif" font-size="10.00">+ obj_cap()</text>
</a>
</g>
</g>
<!-- Node2&#45;&gt;Node1 -->
<g id="edge1" class="edge">
<title>Node2&#45;&gt;Node1</title>
<path fill="none" stroke="midnightblue" d="M69,-96.38C69,-87.02 69,-77.41 69,-68.67"/>
<polygon fill="none" stroke="midnightblue" points="65.5,-96.39 69,-106.39 72.5,-96.39 65.5,-96.39"/>
</g>
<!-- Node3 -->
<g id="node3" class="node">
<title>Node3</title>
<g id="a_node3"><a xlink:href="structL4_1_1Epiface.html" target="_top" xlink:title="Base class for interface implementations.">
<polygon fill="white" stroke="black" points="0,-350.5 0,-506.5 130,-506.5 130,-350.5 0,-350.5"/>
<text text-anchor="middle" x="65" y="-494.5" font-family="Helvetica,sans-Serif" font-size="10.00">L4::Epiface</text>
<polyline fill="none" stroke="black" points="0,-487.5 130,-487.5 "/>
<text text-anchor="middle" x="65" y="-475.5" font-family="Helvetica,sans-Serif" font-size="10.00"> </text>
<polyline fill="none" stroke="black" points="0,-468.5 130,-468.5 "/>
<text text-anchor="start" x="8" y="-456.5" font-family="Helvetica,sans-Serif" font-size="10.00">+ Epiface()</text>
<text text-anchor="start" x="8" y="-445.5" font-family="Helvetica,sans-Serif" font-size="10.00">+ operator=()</text>
<text text-anchor="start" x="8" y="-434.5" font-family="Helvetica,sans-Serif" font-size="10.00">+ Epiface()</text>
<text text-anchor="start" x="8" y="-423.5" font-family="Helvetica,sans-Serif" font-size="10.00">+ dispatch()</text>
<text text-anchor="start" x="8" y="-412.5" font-family="Helvetica,sans-Serif" font-size="10.00">+ get_buffer_demand()</text>
<text text-anchor="start" x="8" y="-401.5" font-family="Helvetica,sans-Serif" font-size="10.00">+ ~Epiface()</text>
<text text-anchor="start" x="8" y="-390.5" font-family="Helvetica,sans-Serif" font-size="10.00">+ obj_cap()</text>
<text text-anchor="start" x="8" y="-379.5" font-family="Helvetica,sans-Serif" font-size="10.00">+ server_iface()</text>
<text text-anchor="start" x="8" y="-368.5" font-family="Helvetica,sans-Serif" font-size="10.00">+ set_server()</text>
<text text-anchor="start" x="8" y="-357.5" font-family="Helvetica,sans-Serif" font-size="10.00">+ set_obj_cap()</text>
</a>
</g>
</g>
<!-- Node3&#45;&gt;Node2 -->
<g id="edge2" class="edge">
<title>Node3&#45;&gt;Node2</title>
<path fill="none" stroke="midnightblue" d="M66.24,-340.27C66.98,-288.43 67.88,-225.25 68.45,-185.57"/>
<polygon fill="none" stroke="midnightblue" points="62.74,-340.43 66.1,-350.48 69.74,-340.53 62.74,-340.43"/>
</g>
<!-- Node4 -->
<g id="node4" class="node">
<title>Node4</title>
<g id="a_node4"><a xlink:href="structL4_1_1Epiface__t0.html" target="_top" xlink:title="Epiface mixin for generic Kobject&#45;based interfaces.">
<polygon fill="white" stroke="black" points="81,-233.5 81,-312.5 211,-312.5 211,-233.5 81,-233.5"/>
<text text-anchor="start" x="89" y="-300.5" font-family="Helvetica,sans-Serif" font-size="10.00">L4::Epiface_t0&lt; RPC</text>
<text text-anchor="middle" x="146" y="-289.5" font-family="Helvetica,sans-Serif" font-size="10.00">_IFACE, BASE &gt;</text>
<polyline fill="none" stroke="black" points="81,-282.5 211,-282.5 "/>
<text text-anchor="middle" x="146" y="-270.5" font-family="Helvetica,sans-Serif" font-size="10.00"> </text>
<polyline fill="none" stroke="black" points="81,-263.5 211,-263.5 "/>
<text text-anchor="start" x="89" y="-251.5" font-family="Helvetica,sans-Serif" font-size="10.00">+ get_buffer_demand()</text>
<text text-anchor="start" x="89" y="-240.5" font-family="Helvetica,sans-Serif" font-size="10.00">+ obj_cap()</text>
</a>
</g>
</g>
<!-- Node3&#45;&gt;Node4 -->
<g id="edge4" class="edge">
<title>Node3&#45;&gt;Node4</title>
<path fill="none" stroke="midnightblue" d="M110.55,-341.19C115.76,-331.31 120.86,-321.65 125.49,-312.87"/>
<polygon fill="none" stroke="midnightblue" points="107.31,-339.82 105.74,-350.3 113.5,-343.09 107.31,-339.82"/>
</g>
<!-- Node4&#45;&gt;Node2 -->
<g id="edge3" class="edge">
<title>Node4&#45;&gt;Node2</title>
<path fill="none" stroke="orange" d="M116.87,-224.72C108.92,-211.81 100.4,-197.98 92.79,-185.61"/>
<polygon fill="orange" stroke="orange" points="114.04,-226.8 122.27,-233.48 120,-223.13 114.04,-226.8"/>
<text text-anchor="middle" x="165" y="-207" font-family="Helvetica,sans-Serif" font-size="10.00"> &lt; IFACE, L4::Epiface &gt;</text>
</g>
</g>
</svg>
