<?xml version="1.0" encoding="UTF-8" standalone="no"?>
<!DOCTYPE svg PUBLIC "-//W3C//DTD SVG 1.1//EN"
 "http://www.w3.org/Graphics/SVG/1.1/DTD/svg11.dtd">
<!-- Generated by graphviz version 2.43.0 (0)
 -->
<!-- Title: L4::Semaphore Pages: 1 -->
<svg width="320pt" height="576pt"
 viewBox="0.00 0.00 319.50 576.00" xmlns="http://www.w3.org/2000/svg" xmlns:xlink="http://www.w3.org/1999/xlink">
<g id="graph0" class="graph" transform="scale(1 1) rotate(0) translate(4 572)">
<title>L4::Semaphore</title>
<polygon fill="white" stroke="transparent" points="-4,4 -4,-572 315.5,-572 315.5,4 -4,4"/>
<!-- Node1 -->
<g id="node1" class="node">
<title>Node1</title>
<g id="a_node1"><a xlink:title="Kernel&#45;provided semaphore object.">
<polygon fill="#bfbfbf" stroke="black" points="112,-0.5 112,-68.5 201,-68.5 201,-0.5 112,-0.5"/>
<text text-anchor="middle" x="156.5" y="-56.5" font-family="Helvetica,sans-Serif" font-size="10.00">L4::Semaphore</text>
<polyline fill="none" stroke="black" points="112,-49.5 201,-49.5 "/>
<text text-anchor="middle" x="156.5" y="-37.5" font-family="Helvetica,sans-Serif" font-size="10.00"> </text>
<polyline fill="none" stroke="black" points="112,-30.5 201,-30.5 "/>
<text text-anchor="start" x="120" y="-18.5" font-family="Helvetica,sans-Serif" font-size="10.00">+ up()</text>
<text text-anchor="start" x="120" y="-7.5" font-family="Helvetica,sans-Serif" font-size="10.00">+ down()</text>
</a>
</g>
</g>
<!-- Node2 -->
<g id="node2" class="node">
<title>Node2</title>
<g id="a_node2"><a xlink:href="classL4_1_1Kobject__t.html" target="_top" xlink:title=" ">
<polygon fill="white" stroke="black" points="82,-106.5 82,-196.5 231,-196.5 231,-106.5 82,-106.5"/>
<text text-anchor="start" x="90" y="-184.5" font-family="Helvetica,sans-Serif" font-size="10.00">L4::Kobject_t&lt; Semaphore,</text>
<text text-anchor="start" x="90" y="-173.5" font-family="Helvetica,sans-Serif" font-size="10.00"> Triggerable, L4_PROTO</text>
<text text-anchor="middle" x="156.5" y="-162.5" font-family="Helvetica,sans-Serif" font-size="10.00">_SEMAPHORE &gt;</text>
<polyline fill="none" stroke="black" points="82,-155.5 231,-155.5 "/>
<text text-anchor="middle" x="156.5" y="-143.5" font-family="Helvetica,sans-Serif" font-size="10.00"> </text>
<polyline fill="none" stroke="black" points="82,-136.5 231,-136.5 "/>
<text text-anchor="start" x="90" y="-124.5" font-family="Helvetica,sans-Serif" font-size="10.00"># c()</text>
<text text-anchor="start" x="90" y="-113.5" font-family="Helvetica,sans-Serif" font-size="10.00"># __check_protocols__()</text>
</a>
</g>
</g>
<!-- Node2&#45;&gt;Node1 -->
<g id="edge1" class="edge">
<title>Node2&#45;&gt;Node1</title>
<path fill="none" stroke="midnightblue" d="M156.5,-96.23C156.5,-86.8 156.5,-77.26 156.5,-68.62"/>
<polygon fill="none" stroke="midnightblue" points="153,-96.37 156.5,-106.37 160,-96.37 153,-96.37"/>
</g>
<!-- Node3 -->
<g id="node3" class="node">
<title>Node3</title>
<g id="a_node3"><a xlink:href="structL4_1_1Triggerable.html" target="_top" xlink:title="Interface that allows an object to be triggered by some source.">
<polygon fill="white" stroke="black" points="70.5,-234.5 70.5,-291.5 158.5,-291.5 158.5,-234.5 70.5,-234.5"/>
<text text-anchor="middle" x="114.5" y="-279.5" font-family="Helvetica,sans-Serif" font-size="10.00">L4::Triggerable</text>
<polyline fill="none" stroke="black" points="70.5,-272.5 158.5,-272.5 "/>
<text text-anchor="middle" x="114.5" y="-260.5" font-family="Helvetica,sans-Serif" font-size="10.00"> </text>
<polyline fill="none" stroke="black" points="70.5,-253.5 158.5,-253.5 "/>
<text text-anchor="start" x="78.5" y="-241.5" font-family="Helvetica,sans-Serif" font-size="10.00">+ trigger()</text>
</a>
</g>
</g>
<!-- Node3&#45;&gt;Node2 -->
<g id="edge2" class="edge">
<title>Node3&#45;&gt;Node2</title>
<path fill="none" stroke="midnightblue" d="M128.73,-224.89C132.2,-215.85 135.95,-206.08 139.53,-196.74"/>
<polygon fill="none" stroke="midnightblue" points="125.41,-223.78 125.1,-234.37 131.95,-226.29 125.41,-223.78"/>
</g>
<!-- Node4 -->
<g id="node4" class="node">
<title>Node4</title>
<g id="a_node4"><a xlink:href="classL4_1_1Kobject__t.html" target="_top" xlink:title=" ">
<polygon fill="white" stroke="black" points="0,-350.5 0,-429.5 147,-429.5 147,-350.5 0,-350.5"/>
<text text-anchor="start" x="8" y="-417.5" font-family="Helvetica,sans-Serif" font-size="10.00">L4::Kobject_t&lt; Triggerable,</text>
<text text-anchor="middle" x="73.5" y="-406.5" font-family="Helvetica,sans-Serif" font-size="10.00"> Irq_eoi, L4_PROTO_IRQ &gt;</text>
<polyline fill="none" stroke="black" points="0,-399.5 147,-399.5 "/>
<text text-anchor="middle" x="73.5" y="-387.5" font-family="Helvetica,sans-Serif" font-size="10.00"> </text>
<polyline fill="none" stroke="black" points="0,-380.5 147,-380.5 "/>
<text text-anchor="start" x="8" y="-368.5" font-family="Helvetica,sans-Serif" font-size="10.00"># c()</text>
<text text-anchor="start" x="8" y="-357.5" font-family="Helvetica,sans-Serif" font-size="10.00"># __check_protocols__()</text>
</a>
</g>
</g>
<!-- Node4&#45;&gt;Node3 -->
<g id="edge3" class="edge">
<title>Node4&#45;&gt;Node3</title>
<path fill="none" stroke="midnightblue" d="M89.27,-340.91C94.71,-324.33 100.62,-306.31 105.35,-291.88"/>
<polygon fill="none" stroke="midnightblue" points="85.93,-339.88 86.14,-350.48 92.58,-342.06 85.93,-339.88"/>
</g>
<!-- Node5 -->
<g id="node5" class="node">
<title>Node5</title>
<g id="a_node5"><a xlink:href="classL4_1_1Irq__eoi.html" target="_top" xlink:title="Interface for sending an acknowledge message to an object.">
<polygon fill="white" stroke="black" points="3.5,-499.5 3.5,-556.5 77.5,-556.5 77.5,-499.5 3.5,-499.5"/>
<text text-anchor="middle" x="40.5" y="-544.5" font-family="Helvetica,sans-Serif" font-size="10.00">L4::Irq_eoi</text>
<polyline fill="none" stroke="black" points="3.5,-537.5 77.5,-537.5 "/>
<text text-anchor="middle" x="40.5" y="-525.5" font-family="Helvetica,sans-Serif" font-size="10.00"> </text>
<polyline fill="none" stroke="black" points="3.5,-518.5 77.5,-518.5 "/>
<text text-anchor="start" x="11.5" y="-506.5" font-family="Helvetica,sans-Serif" font-size="10.00">+ unmask()</text>
</a>
</g>
</g>
<!-- Node5&#45;&gt;Node4 -->
<g id="edge4" class="edge">
<title>Node5&#45;&gt;Node4</title>
<path fill="none" stroke="midnightblue" d="M46.04,-489.24C48.27,-476.1 51.12,-461.32 54.5,-448 56.01,-442.03 57.84,-435.79 59.75,-429.72"/>
<polygon fill="none" stroke="midnightblue" points="42.54,-488.94 44.38,-499.37 49.45,-490.06 42.54,-488.94"/>
</g>
<!-- Node6 -->
<g id="node6" class="node">
<title>Node6</title>
<g id="a_node6"><a xlink:href="classL4_1_1Kobject__t.html" target="_top" xlink:title="Helper class to create an L4Re interface class that is derived from a single base class.">
<polygon fill="white" stroke="black" points="108.5,-488.5 108.5,-567.5 264.5,-567.5 264.5,-488.5 108.5,-488.5"/>
<text text-anchor="start" x="116.5" y="-555.5" font-family="Helvetica,sans-Serif" font-size="10.00">L4::Kobject_t&lt; Derived,</text>
<text text-anchor="middle" x="186.5" y="-544.5" font-family="Helvetica,sans-Serif" font-size="10.00"> Base, PROTO, S_DEMAND &gt;</text>
<polyline fill="none" stroke="black" points="108.5,-537.5 264.5,-537.5 "/>
<text text-anchor="middle" x="186.5" y="-525.5" font-family="Helvetica,sans-Serif" font-size="10.00"> </text>
<polyline fill="none" stroke="black" points="108.5,-518.5 264.5,-518.5 "/>
<text text-anchor="start" x="116.5" y="-506.5" font-family="Helvetica,sans-Serif" font-size="10.00"># c()</text>
<text text-anchor="start" x="116.5" y="-495.5" font-family="Helvetica,sans-Serif" font-size="10.00"># __check_protocols__()</text>
</a>
</g>
</g>
<!-- Node6&#45;&gt;Node2 -->
<g id="edge6" class="edge">
<title>Node6&#45;&gt;Node2</title>
<path fill="none" stroke="orange" d="M186.43,-478.2C186.26,-468.21 185.97,-457.76 185.5,-448 180.89,-352.66 177.89,-328.88 167.5,-234 166.18,-221.94 164.52,-208.9 162.9,-196.86"/>
<polygon fill="orange" stroke="orange" points="182.93,-478.46 186.56,-488.41 189.93,-478.36 182.93,-478.46"/>
<text text-anchor="start" x="178.5" y="-324" font-family="Helvetica,sans-Serif" font-size="10.00"> &lt; Semaphore, Triggerable,</text>
<text text-anchor="middle" x="245" y="-313" font-family="Helvetica,sans-Serif" font-size="10.00"> L4_PROTO_SEMAPHORE &gt;</text>
</g>
<!-- Node6&#45;&gt;Node4 -->
<g id="edge5" class="edge">
<title>Node6&#45;&gt;Node4</title>
<path fill="none" stroke="orange" d="M99.76,-495.79C89.77,-488.78 80.89,-480.28 74.5,-470 67.18,-458.24 65.49,-443.46 66.11,-429.87"/>
<polygon fill="orange" stroke="orange" points="98.08,-498.87 108.38,-501.33 101.86,-492.98 98.08,-498.87"/>
<text text-anchor="start" x="74.5" y="-462" font-family="Helvetica,sans-Serif" font-size="10.00"> &lt; Triggerable, Irq</text>
<text text-anchor="middle" x="130" y="-451" font-family="Helvetica,sans-Serif" font-size="10.00">_eoi, L4_PROTO_IRQ &gt;</text>
</g>
</g>
</svg>
