<?xml version="1.0" encoding="UTF-8" standalone="no"?>
<!DOCTYPE svg PUBLIC "-//W3C//DTD SVG 1.1//EN"
 "http://www.w3.org/Graphics/SVG/1.1/DTD/svg11.dtd">
<!-- Generated by graphviz version 2.43.0 (0)
 -->
<!-- Title: L4::Ipc::Call Pages: 1 -->
<svg width="266pt" height="171pt"
 viewBox="0.00 0.00 266.00 171.00" xmlns="http://www.w3.org/2000/svg" xmlns:xlink="http://www.w3.org/1999/xlink">
<g id="graph0" class="graph" transform="scale(1 1) rotate(0) translate(4 167)">
<title>L4::Ipc::Call</title>
<polygon fill="white" stroke="transparent" points="-4,4 -4,-167 262,-167 262,4 -4,4"/>
<!-- Node1 -->
<g id="node1" class="node">
<title>Node1</title>
<g id="a_node1"><a xlink:title="RPC attribute for a standard RPC call.">
<polygon fill="#bfbfbf" stroke="black" points="102.5,-105.5 102.5,-162.5 176.5,-162.5 176.5,-105.5 102.5,-105.5"/>
<text text-anchor="middle" x="139.5" y="-150.5" font-family="Helvetica,sans-Serif" font-size="10.00">L4::Ipc::Call</text>
<polyline fill="none" stroke="black" points="102.5,-143.5 176.5,-143.5 "/>
<text text-anchor="middle" x="139.5" y="-131.5" font-family="Helvetica,sans-Serif" font-size="10.00"> </text>
<polyline fill="none" stroke="black" points="102.5,-124.5 176.5,-124.5 "/>
<text text-anchor="start" x="110.5" y="-112.5" font-family="Helvetica,sans-Serif" font-size="10.00">+ timeout()</text>
</a>
</g>
</g>
<!-- Node2 -->
<g id="node2" class="node">
<title>Node2</title>
<g id="a_node2"><a xlink:href="structL4_1_1Ipc_1_1Call__t.html" target="_top" xlink:title="RPC attribute for an RPC call with required rights.">
<polygon fill="white" stroke="black" points="0,-6 0,-63 141,-63 141,-6 0,-6"/>
<text text-anchor="middle" x="70.5" y="-51" font-family="Helvetica,sans-Serif" font-size="10.00">L4::Ipc::Call_t&lt; RIGHTS &gt;</text>
<polyline fill="none" stroke="black" points="0,-44 141,-44 "/>
<text text-anchor="middle" x="70.5" y="-32" font-family="Helvetica,sans-Serif" font-size="10.00"> </text>
<polyline fill="none" stroke="black" points="0,-25 141,-25 "/>
<text text-anchor="middle" x="70.5" y="-13" font-family="Helvetica,sans-Serif" font-size="10.00"> </text>
</a>
</g>
</g>
<!-- Node1&#45;&gt;Node2 -->
<g id="edge1" class="edge">
<title>Node1&#45;&gt;Node2</title>
<path fill="none" stroke="midnightblue" d="M114.04,-97.02C106.14,-85.87 97.57,-73.75 90.14,-63.25"/>
<polygon fill="none" stroke="midnightblue" points="111.28,-99.18 119.91,-105.32 116.99,-95.14 111.28,-99.18"/>
</g>
<!-- Node3 -->
<g id="node3" class="node">
<title>Node3</title>
<g id="a_node3"><a xlink:href="structL4_1_1Ipc_1_1Call__zero__send__timeout.html" target="_top" xlink:title="RPC attribute for an RPC call, with zero send timeout.">
<polygon fill="white" stroke="black" points="159,-0.5 159,-68.5 258,-68.5 258,-0.5 159,-0.5"/>
<text text-anchor="start" x="167" y="-56.5" font-family="Helvetica,sans-Serif" font-size="10.00">L4::Ipc::Call_zero</text>
<text text-anchor="middle" x="208.5" y="-45.5" font-family="Helvetica,sans-Serif" font-size="10.00">_send_timeout</text>
<polyline fill="none" stroke="black" points="159,-38.5 258,-38.5 "/>
<text text-anchor="middle" x="208.5" y="-26.5" font-family="Helvetica,sans-Serif" font-size="10.00"> </text>
<polyline fill="none" stroke="black" points="159,-19.5 258,-19.5 "/>
<text text-anchor="start" x="167" y="-7.5" font-family="Helvetica,sans-Serif" font-size="10.00">+ timeout()</text>
</a>
</g>
</g>
<!-- Node1&#45;&gt;Node3 -->
<g id="edge2" class="edge">
<title>Node1&#45;&gt;Node3</title>
<path fill="none" stroke="midnightblue" d="M164.94,-97.05C171.48,-87.81 178.5,-77.89 184.94,-68.79"/>
<polygon fill="none" stroke="midnightblue" points="162.01,-95.14 159.09,-105.32 167.72,-99.18 162.01,-95.14"/>
</g>
</g>
</svg>
