<?xml version="1.0" encoding="UTF-8" standalone="no"?>
<!DOCTYPE svg PUBLIC "-//W3C//DTD SVG 1.1//EN"
 "http://www.w3.org/Graphics/SVG/1.1/DTD/svg11.dtd">
<!-- Generated by graphviz version 2.43.0 (0)
 -->
<!-- Title: cxx::H_list_t&lt; T &gt; Pages: 1 -->
<svg width="260pt" height="1198pt"
 viewBox="0.00 0.00 259.50 1198.00" xmlns="http://www.w3.org/2000/svg" xmlns:xlink="http://www.w3.org/1999/xlink">
<g id="graph0" class="graph" transform="scale(1 1) rotate(0) translate(4 1194)">
<title>cxx::H_list_t&lt; T &gt;</title>
<polygon fill="white" stroke="transparent" points="-4,4 -4,-1194 255.5,-1194 255.5,4 -4,4"/>
<!-- Node1 -->
<g id="node1" class="node">
<title>Node1</title>
<g id="a_node1"><a xlink:title="Double&#45;linked list of typed H_list_item_t elements.">
<polygon fill="#bfbfbf" stroke="black" points="21,-127.5 21,-195.5 126,-195.5 126,-127.5 21,-127.5"/>
<text text-anchor="middle" x="73.5" y="-183.5" font-family="Helvetica,sans-Serif" font-size="10.00">cxx::H_list_t&lt; T &gt;</text>
<polyline fill="none" stroke="black" points="21,-176.5 126,-176.5 "/>
<text text-anchor="middle" x="73.5" y="-164.5" font-family="Helvetica,sans-Serif" font-size="10.00"> </text>
<polyline fill="none" stroke="black" points="21,-157.5 126,-157.5 "/>
<text text-anchor="start" x="29" y="-145.5" font-family="Helvetica,sans-Serif" font-size="10.00">+ H_list_t()</text>
<text text-anchor="start" x="29" y="-134.5" font-family="Helvetica,sans-Serif" font-size="10.00">+ H_list_t()</text>
</a>
</g>
</g>
<!-- Node6 -->
<g id="node6" class="node">
<title>Node6</title>
<g id="a_node6"><a xlink:href="structcxx_1_1H__list__t.html" target="_top" xlink:title=" ">
<polygon fill="white" stroke="black" points="16,-0.5 16,-79.5 131,-79.5 131,-0.5 16,-0.5"/>
<text text-anchor="start" x="24" y="-67.5" font-family="Helvetica,sans-Serif" font-size="10.00">cxx::H_list_t&lt; Weak</text>
<text text-anchor="middle" x="73.5" y="-56.5" font-family="Helvetica,sans-Serif" font-size="10.00">_ref_base &gt;</text>
<polyline fill="none" stroke="black" points="16,-49.5 131,-49.5 "/>
<text text-anchor="middle" x="73.5" y="-37.5" font-family="Helvetica,sans-Serif" font-size="10.00"> </text>
<polyline fill="none" stroke="black" points="16,-30.5 131,-30.5 "/>
<text text-anchor="start" x="24" y="-18.5" font-family="Helvetica,sans-Serif" font-size="10.00">+ H_list_t()</text>
<text text-anchor="start" x="24" y="-7.5" font-family="Helvetica,sans-Serif" font-size="10.00">+ H_list_t()</text>
</a>
</g>
</g>
<!-- Node1&#45;&gt;Node6 -->
<g id="edge6" class="edge">
<title>Node1&#45;&gt;Node6</title>
<path fill="none" stroke="orange" d="M73.5,-117.18C73.5,-104.89 73.5,-91.59 73.5,-79.6"/>
<polygon fill="orange" stroke="orange" points="70,-117.21 73.5,-127.21 77,-117.21 70,-117.21"/>
<text text-anchor="middle" x="123.5" y="-101" font-family="Helvetica,sans-Serif" font-size="10.00"> &lt; Weak_ref_base &gt;</text>
</g>
<!-- Node2 -->
<g id="node2" class="node">
<title>Node2</title>
<g id="a_node2"><a xlink:href="classcxx_1_1H__list.html" target="_top" xlink:title=" ">
<polygon fill="white" stroke="black" points="0,-233.5 0,-444.5 147,-444.5 147,-233.5 0,-233.5"/>
<text text-anchor="start" x="8" y="-432.5" font-family="Helvetica,sans-Serif" font-size="10.00">cxx::H_list&lt; T, Bits</text>
<text text-anchor="start" x="8" y="-421.5" font-family="Helvetica,sans-Serif" font-size="10.00">::Basic_list_policy&lt;</text>
<text text-anchor="middle" x="73.5" y="-410.5" font-family="Helvetica,sans-Serif" font-size="10.00"> T, H_list_item_t&lt; T &gt; &gt; &gt;</text>
<polyline fill="none" stroke="black" points="0,-403.5 147,-403.5 "/>
<text text-anchor="middle" x="73.5" y="-391.5" font-family="Helvetica,sans-Serif" font-size="10.00"> </text>
<polyline fill="none" stroke="black" points="0,-384.5 147,-384.5 "/>
<text text-anchor="start" x="8" y="-372.5" font-family="Helvetica,sans-Serif" font-size="10.00">+ H_list()</text>
<text text-anchor="start" x="8" y="-361.5" font-family="Helvetica,sans-Serif" font-size="10.00">+ H_list()</text>
<text text-anchor="start" x="8" y="-350.5" font-family="Helvetica,sans-Serif" font-size="10.00">+ add()</text>
<text text-anchor="start" x="8" y="-339.5" font-family="Helvetica,sans-Serif" font-size="10.00">+ push_front()</text>
<text text-anchor="start" x="8" y="-328.5" font-family="Helvetica,sans-Serif" font-size="10.00">+ pop_front()</text>
<text text-anchor="start" x="8" y="-317.5" font-family="Helvetica,sans-Serif" font-size="10.00">+ insert()</text>
<text text-anchor="start" x="8" y="-306.5" font-family="Helvetica,sans-Serif" font-size="10.00">+ iter()</text>
<text text-anchor="start" x="8" y="-295.5" font-family="Helvetica,sans-Serif" font-size="10.00">+ in_list()</text>
<text text-anchor="start" x="8" y="-284.5" font-family="Helvetica,sans-Serif" font-size="10.00">+ insert_after()</text>
<text text-anchor="start" x="8" y="-273.5" font-family="Helvetica,sans-Serif" font-size="10.00">+ insert_before()</text>
<text text-anchor="start" x="8" y="-262.5" font-family="Helvetica,sans-Serif" font-size="10.00">+ replace()</text>
<text text-anchor="start" x="8" y="-251.5" font-family="Helvetica,sans-Serif" font-size="10.00">+ remove()</text>
<text text-anchor="start" x="8" y="-240.5" font-family="Helvetica,sans-Serif" font-size="10.00">+ erase()</text>
</a>
</g>
</g>
<!-- Node2&#45;&gt;Node1 -->
<g id="edge1" class="edge">
<title>Node2&#45;&gt;Node1</title>
<path fill="none" stroke="midnightblue" d="M73.5,-223.26C73.5,-213.3 73.5,-203.85 73.5,-195.51"/>
<polygon fill="none" stroke="midnightblue" points="70,-223.38 73.5,-233.38 77,-223.38 70,-223.38"/>
</g>
<!-- Node3 -->
<g id="node3" class="node">
<title>Node3</title>
<g id="a_node3"><a xlink:href="classcxx_1_1Bits_1_1Basic__list.html" target="_top" xlink:title="Internal: Common functions for all head&#45;based list implementations.">
<polygon fill="white" stroke="black" points="18,-1000.5 18,-1189.5 129,-1189.5 129,-1000.5 18,-1000.5"/>
<text text-anchor="start" x="26" y="-1177.5" font-family="Helvetica,sans-Serif" font-size="10.00">cxx::Bits::Basic_list</text>
<text text-anchor="middle" x="73.5" y="-1166.5" font-family="Helvetica,sans-Serif" font-size="10.00">&lt; POLICY &gt;</text>
<polyline fill="none" stroke="black" points="18,-1159.5 129,-1159.5 "/>
<text text-anchor="start" x="26" y="-1147.5" font-family="Helvetica,sans-Serif" font-size="10.00"># _f</text>
<polyline fill="none" stroke="black" points="18,-1140.5 129,-1140.5 "/>
<text text-anchor="start" x="26" y="-1128.5" font-family="Helvetica,sans-Serif" font-size="10.00">+ Basic_list()</text>
<text text-anchor="start" x="26" y="-1117.5" font-family="Helvetica,sans-Serif" font-size="10.00">+ Basic_list()</text>
<text text-anchor="start" x="26" y="-1106.5" font-family="Helvetica,sans-Serif" font-size="10.00">+ empty()</text>
<text text-anchor="start" x="26" y="-1095.5" font-family="Helvetica,sans-Serif" font-size="10.00">+ front()</text>
<text text-anchor="start" x="26" y="-1084.5" font-family="Helvetica,sans-Serif" font-size="10.00">+ clear()</text>
<text text-anchor="start" x="26" y="-1073.5" font-family="Helvetica,sans-Serif" font-size="10.00">+ begin()</text>
<text text-anchor="start" x="26" y="-1062.5" font-family="Helvetica,sans-Serif" font-size="10.00">+ begin()</text>
<text text-anchor="start" x="26" y="-1051.5" font-family="Helvetica,sans-Serif" font-size="10.00">+ end()</text>
<text text-anchor="start" x="26" y="-1040.5" font-family="Helvetica,sans-Serif" font-size="10.00">+ end()</text>
<text text-anchor="start" x="26" y="-1029.5" font-family="Helvetica,sans-Serif" font-size="10.00">+ iter()</text>
<text text-anchor="start" x="26" y="-1018.5" font-family="Helvetica,sans-Serif" font-size="10.00"># __get_internal()</text>
<text text-anchor="start" x="26" y="-1007.5" font-family="Helvetica,sans-Serif" font-size="10.00"># __iter()</text>
</a>
</g>
</g>
<!-- Node3&#45;&gt;Node2 -->
<g id="edge2" class="edge">
<title>Node3&#45;&gt;Node2</title>
<path fill="none" stroke="midnightblue" d="M73.5,-990.27C73.5,-846.67 73.5,-588.76 73.5,-444.67"/>
<polygon fill="none" stroke="midnightblue" points="70,-990.41 73.5,-1000.41 77,-990.41 70,-990.41"/>
</g>
<!-- Node5 -->
<g id="node5" class="node">
<title>Node5</title>
<g id="a_node5"><a xlink:href="classcxx_1_1Bits_1_1Basic__list.html" target="_top" xlink:title=" ">
<polygon fill="white" stroke="black" points="86.5,-741.5 86.5,-941.5 220.5,-941.5 220.5,-741.5 86.5,-741.5"/>
<text text-anchor="start" x="94.5" y="-929.5" font-family="Helvetica,sans-Serif" font-size="10.00">cxx::Bits::Basic_list</text>
<text text-anchor="start" x="94.5" y="-918.5" font-family="Helvetica,sans-Serif" font-size="10.00">&lt; Bits::Basic_list_policy</text>
<text text-anchor="middle" x="153.5" y="-907.5" font-family="Helvetica,sans-Serif" font-size="10.00">&lt; T, H_list_item &gt; &gt;</text>
<polyline fill="none" stroke="black" points="86.5,-900.5 220.5,-900.5 "/>
<text text-anchor="start" x="94.5" y="-888.5" font-family="Helvetica,sans-Serif" font-size="10.00"># _f</text>
<polyline fill="none" stroke="black" points="86.5,-881.5 220.5,-881.5 "/>
<text text-anchor="start" x="94.5" y="-869.5" font-family="Helvetica,sans-Serif" font-size="10.00">+ Basic_list()</text>
<text text-anchor="start" x="94.5" y="-858.5" font-family="Helvetica,sans-Serif" font-size="10.00">+ Basic_list()</text>
<text text-anchor="start" x="94.5" y="-847.5" font-family="Helvetica,sans-Serif" font-size="10.00">+ empty()</text>
<text text-anchor="start" x="94.5" y="-836.5" font-family="Helvetica,sans-Serif" font-size="10.00">+ front()</text>
<text text-anchor="start" x="94.5" y="-825.5" font-family="Helvetica,sans-Serif" font-size="10.00">+ clear()</text>
<text text-anchor="start" x="94.5" y="-814.5" font-family="Helvetica,sans-Serif" font-size="10.00">+ begin()</text>
<text text-anchor="start" x="94.5" y="-803.5" font-family="Helvetica,sans-Serif" font-size="10.00">+ begin()</text>
<text text-anchor="start" x="94.5" y="-792.5" font-family="Helvetica,sans-Serif" font-size="10.00">+ end()</text>
<text text-anchor="start" x="94.5" y="-781.5" font-family="Helvetica,sans-Serif" font-size="10.00">+ end()</text>
<text text-anchor="start" x="94.5" y="-770.5" font-family="Helvetica,sans-Serif" font-size="10.00">+ iter()</text>
<text text-anchor="start" x="94.5" y="-759.5" font-family="Helvetica,sans-Serif" font-size="10.00"># __get_internal()</text>
<text text-anchor="start" x="94.5" y="-748.5" font-family="Helvetica,sans-Serif" font-size="10.00"># __iter()</text>
</a>
</g>
</g>
<!-- Node3&#45;&gt;Node5 -->
<g id="edge5" class="edge">
<title>Node3&#45;&gt;Node5</title>
<path fill="none" stroke="orange" d="M106.45,-990.4C111.58,-974.3 116.86,-957.7 121.94,-941.7"/>
<polygon fill="orange" stroke="orange" points="102.99,-989.76 103.29,-1000.35 109.66,-991.88 102.99,-989.76"/>
<text text-anchor="start" x="115.5" y="-974" font-family="Helvetica,sans-Serif" font-size="10.00"> &lt; Bits::Basic_list</text>
<text text-anchor="middle" x="183.5" y="-963" font-family="Helvetica,sans-Serif" font-size="10.00">_policy&lt; T, H_list_item &gt; &gt;</text>
</g>
<!-- Node4 -->
<g id="node4" class="node">
<title>Node4</title>
<g id="a_node4"><a xlink:href="classcxx_1_1H__list.html" target="_top" xlink:title="General double&#45;linked list of unspecified cxx::H_list_item elements.">
<polygon fill="white" stroke="black" points="86,-514.5 86,-703.5 223,-703.5 223,-514.5 86,-514.5"/>
<text text-anchor="middle" x="154.5" y="-691.5" font-family="Helvetica,sans-Serif" font-size="10.00">cxx::H_list&lt; T, POLICY &gt;</text>
<polyline fill="none" stroke="black" points="86,-684.5 223,-684.5 "/>
<text text-anchor="middle" x="154.5" y="-672.5" font-family="Helvetica,sans-Serif" font-size="10.00"> </text>
<polyline fill="none" stroke="black" points="86,-665.5 223,-665.5 "/>
<text text-anchor="start" x="94" y="-653.5" font-family="Helvetica,sans-Serif" font-size="10.00">+ H_list()</text>
<text text-anchor="start" x="94" y="-642.5" font-family="Helvetica,sans-Serif" font-size="10.00">+ H_list()</text>
<text text-anchor="start" x="94" y="-631.5" font-family="Helvetica,sans-Serif" font-size="10.00">+ add()</text>
<text text-anchor="start" x="94" y="-620.5" font-family="Helvetica,sans-Serif" font-size="10.00">+ push_front()</text>
<text text-anchor="start" x="94" y="-609.5" font-family="Helvetica,sans-Serif" font-size="10.00">+ pop_front()</text>
<text text-anchor="start" x="94" y="-598.5" font-family="Helvetica,sans-Serif" font-size="10.00">+ insert()</text>
<text text-anchor="start" x="94" y="-587.5" font-family="Helvetica,sans-Serif" font-size="10.00">+ iter()</text>
<text text-anchor="start" x="94" y="-576.5" font-family="Helvetica,sans-Serif" font-size="10.00">+ in_list()</text>
<text text-anchor="start" x="94" y="-565.5" font-family="Helvetica,sans-Serif" font-size="10.00">+ insert_after()</text>
<text text-anchor="start" x="94" y="-554.5" font-family="Helvetica,sans-Serif" font-size="10.00">+ insert_before()</text>
<text text-anchor="start" x="94" y="-543.5" font-family="Helvetica,sans-Serif" font-size="10.00">+ replace()</text>
<text text-anchor="start" x="94" y="-532.5" font-family="Helvetica,sans-Serif" font-size="10.00">+ remove()</text>
<text text-anchor="start" x="94" y="-521.5" font-family="Helvetica,sans-Serif" font-size="10.00">+ erase()</text>
</a>
</g>
</g>
<!-- Node4&#45;&gt;Node2 -->
<g id="edge3" class="edge">
<title>Node4&#45;&gt;Node2</title>
<path fill="none" stroke="orange" d="M123.27,-504.69C117.33,-485.01 111.1,-464.39 105.13,-444.67"/>
<polygon fill="orange" stroke="orange" points="119.93,-505.71 126.17,-514.27 126.63,-503.68 119.93,-505.71"/>
<text text-anchor="start" x="118.5" y="-488" font-family="Helvetica,sans-Serif" font-size="10.00"> &lt; T, Bits::Basic_list</text>
<text text-anchor="start" x="118.5" y="-477" font-family="Helvetica,sans-Serif" font-size="10.00">_policy&lt; T, H_list_item</text>
<text text-anchor="middle" x="175.5" y="-466" font-family="Helvetica,sans-Serif" font-size="10.00">_t&lt; T &gt; &gt; &gt;</text>
</g>
<!-- Node5&#45;&gt;Node4 -->
<g id="edge4" class="edge">
<title>Node5&#45;&gt;Node4</title>
<path fill="none" stroke="midnightblue" d="M153.97,-731.35C154.01,-722.05 154.05,-712.7 154.09,-703.54"/>
<polygon fill="none" stroke="midnightblue" points="150.47,-731.39 153.93,-741.41 157.47,-731.42 150.47,-731.39"/>
</g>
</g>
</svg>
