<?xml version="1.0" encoding="UTF-8" standalone="no"?>
<!DOCTYPE svg PUBLIC "-//W3C//DTD SVG 1.1//EN"
 "http://www.w3.org/Graphics/SVG/1.1/DTD/svg11.dtd">
<!-- Generated by graphviz version 2.43.0 (0)
 -->
<!-- Title: L4::Ipc_svr::Compound_reply Pages: 1 -->
<svg width="282pt" height="643pt"
 viewBox="0.00 0.00 282.00 643.00" xmlns="http://www.w3.org/2000/svg" xmlns:xlink="http://www.w3.org/1999/xlink">
<g id="graph0" class="graph" transform="scale(1 1) rotate(0) translate(4 639)">
<title>L4::Ipc_svr::Compound_reply</title>
<polygon fill="white" stroke="transparent" points="-4,4 -4,-639 278,-639 278,4 -4,4"/>
<!-- Node1 -->
<g id="node1" class="node">
<title>Node1</title>
<g id="a_node1"><a xlink:title="Mix in for LOOP_HOOKS to always use compound reply and wait.">
<polygon fill="#bfbfbf" stroke="black" points="77,-566.5 77,-634.5 204,-634.5 204,-566.5 77,-566.5"/>
<text text-anchor="start" x="85" y="-622.5" font-family="Helvetica,sans-Serif" font-size="10.00">L4::Ipc_svr::Compound</text>
<text text-anchor="middle" x="140.5" y="-611.5" font-family="Helvetica,sans-Serif" font-size="10.00">_reply</text>
<polyline fill="none" stroke="black" points="77,-604.5 204,-604.5 "/>
<text text-anchor="middle" x="140.5" y="-592.5" font-family="Helvetica,sans-Serif" font-size="10.00"> </text>
<polyline fill="none" stroke="black" points="77,-585.5 204,-585.5 "/>
<text text-anchor="start" x="85" y="-573.5" font-family="Helvetica,sans-Serif" font-size="10.00">+ before_reply()</text>
</a>
</g>
</g>
<!-- Node2 -->
<g id="node2" class="node">
<title>Node2</title>
<g id="a_node2"><a xlink:href="structL4_1_1Ipc__svr_1_1Default__loop__hooks.html" target="_top" xlink:title="Default LOOP_HOOKS.">
<polygon fill="white" stroke="black" points="16.5,-460.5 16.5,-528.5 126.5,-528.5 126.5,-460.5 16.5,-460.5"/>
<text text-anchor="start" x="24.5" y="-516.5" font-family="Helvetica,sans-Serif" font-size="10.00">L4::Ipc_svr::Default</text>
<text text-anchor="middle" x="71.5" y="-505.5" font-family="Helvetica,sans-Serif" font-size="10.00">_loop_hooks</text>
<polyline fill="none" stroke="black" points="16.5,-498.5 126.5,-498.5 "/>
<text text-anchor="middle" x="71.5" y="-486.5" font-family="Helvetica,sans-Serif" font-size="10.00"> </text>
<polyline fill="none" stroke="black" points="16.5,-479.5 126.5,-479.5 "/>
<text text-anchor="middle" x="71.5" y="-467.5" font-family="Helvetica,sans-Serif" font-size="10.00"> </text>
</a>
</g>
</g>
<!-- Node1&#45;&gt;Node2 -->
<g id="edge1" class="edge">
<title>Node1&#45;&gt;Node2</title>
<path fill="none" stroke="midnightblue" d="M112.93,-557.94C106.49,-548.24 99.71,-538.02 93.55,-528.73"/>
<polygon fill="none" stroke="midnightblue" points="110.03,-559.91 118.48,-566.31 115.87,-556.04 110.03,-559.91"/>
</g>
<!-- Node6 -->
<g id="node6" class="node">
<title>Node6</title>
<g id="a_node6"><a xlink:href="structL4Re_1_1Util_1_1Br__manager__hooks.html" target="_top" xlink:title="Predefined server&#45;loop hooks for a server loop using the Br_manager.">
<polygon fill="white" stroke="black" points="145,-460.5 145,-528.5 274,-528.5 274,-460.5 145,-460.5"/>
<text text-anchor="start" x="153" y="-516.5" font-family="Helvetica,sans-Serif" font-size="10.00">L4Re::Util::Br_manager</text>
<text text-anchor="middle" x="209.5" y="-505.5" font-family="Helvetica,sans-Serif" font-size="10.00">_hooks</text>
<polyline fill="none" stroke="black" points="145,-498.5 274,-498.5 "/>
<text text-anchor="middle" x="209.5" y="-486.5" font-family="Helvetica,sans-Serif" font-size="10.00"> </text>
<polyline fill="none" stroke="black" points="145,-479.5 274,-479.5 "/>
<text text-anchor="middle" x="209.5" y="-467.5" font-family="Helvetica,sans-Serif" font-size="10.00"> </text>
</a>
</g>
</g>
<!-- Node1&#45;&gt;Node6 -->
<g id="edge6" class="edge">
<title>Node1&#45;&gt;Node6</title>
<path fill="none" stroke="midnightblue" d="M168.07,-557.94C174.51,-548.24 181.29,-538.02 187.45,-528.73"/>
<polygon fill="none" stroke="midnightblue" points="165.13,-556.04 162.52,-566.31 170.97,-559.91 165.13,-556.04"/>
</g>
<!-- Node3 -->
<g id="node3" class="node">
<title>Node3</title>
<g id="a_node3"><a xlink:href="classL4_1_1Server.html" target="_top" xlink:title=" ">
<polygon fill="white" stroke="black" points="0,-150.5 0,-262.5 151,-262.5 151,-150.5 0,-150.5"/>
<text text-anchor="start" x="8" y="-250.5" font-family="Helvetica,sans-Serif" font-size="10.00">L4::Server&lt; L4::Ipc</text>
<text text-anchor="middle" x="75.5" y="-239.5" font-family="Helvetica,sans-Serif" font-size="10.00">_svr::Default_loop_hooks &gt;</text>
<polyline fill="none" stroke="black" points="0,-232.5 151,-232.5 "/>
<text text-anchor="start" x="8" y="-220.5" font-family="Helvetica,sans-Serif" font-size="10.00">+ _utcb</text>
<polyline fill="none" stroke="black" points="0,-213.5 151,-213.5 "/>
<text text-anchor="start" x="8" y="-201.5" font-family="Helvetica,sans-Serif" font-size="10.00">+ Server()</text>
<text text-anchor="start" x="8" y="-190.5" font-family="Helvetica,sans-Serif" font-size="10.00">+ internal_loop()</text>
<text text-anchor="start" x="8" y="-179.5" font-family="Helvetica,sans-Serif" font-size="10.00">+ loop_noexc()</text>
<text text-anchor="start" x="8" y="-168.5" font-family="Helvetica,sans-Serif" font-size="10.00">+ loop()</text>
<text text-anchor="start" x="8" y="-157.5" font-family="Helvetica,sans-Serif" font-size="10.00"># reply_n_wait()</text>
</a>
</g>
</g>
<!-- Node2&#45;&gt;Node3 -->
<g id="edge2" class="edge">
<title>Node2&#45;&gt;Node3</title>
<path fill="none" stroke="midnightblue" d="M72.11,-450.22C72.81,-400.04 73.97,-317.24 74.73,-262.53"/>
<polygon fill="none" stroke="midnightblue" points="68.6,-450.36 71.96,-460.41 75.6,-450.46 68.6,-450.36"/>
</g>
<!-- Node5 -->
<g id="node5" class="node">
<title>Node5</title>
<g id="a_node5"><a xlink:href="classL4_1_1Server.html" target="_top" xlink:title="Basic server loop for handling client requests.">
<polygon fill="white" stroke="black" points="88,-321.5 88,-422.5 243,-422.5 243,-321.5 88,-321.5"/>
<text text-anchor="middle" x="165.5" y="-410.5" font-family="Helvetica,sans-Serif" font-size="10.00">L4::Server&lt; LOOP_HOOKS &gt;</text>
<polyline fill="none" stroke="black" points="88,-403.5 243,-403.5 "/>
<text text-anchor="start" x="96" y="-391.5" font-family="Helvetica,sans-Serif" font-size="10.00">+ _utcb</text>
<polyline fill="none" stroke="black" points="88,-384.5 243,-384.5 "/>
<text text-anchor="start" x="96" y="-372.5" font-family="Helvetica,sans-Serif" font-size="10.00">+ Server()</text>
<text text-anchor="start" x="96" y="-361.5" font-family="Helvetica,sans-Serif" font-size="10.00">+ internal_loop()</text>
<text text-anchor="start" x="96" y="-350.5" font-family="Helvetica,sans-Serif" font-size="10.00">+ loop_noexc()</text>
<text text-anchor="start" x="96" y="-339.5" font-family="Helvetica,sans-Serif" font-size="10.00">+ loop()</text>
<text text-anchor="start" x="96" y="-328.5" font-family="Helvetica,sans-Serif" font-size="10.00"># reply_n_wait()</text>
</a>
</g>
</g>
<!-- Node2&#45;&gt;Node5 -->
<g id="edge4" class="edge">
<title>Node2&#45;&gt;Node5</title>
<path fill="none" stroke="midnightblue" d="M103.75,-452.16C111.11,-442.72 119.01,-432.6 126.62,-422.84"/>
<polygon fill="none" stroke="midnightblue" points="100.83,-450.22 97.43,-460.25 106.35,-454.52 100.83,-450.22"/>
</g>
<!-- Node4 -->
<g id="node4" class="node">
<title>Node4</title>
<g id="a_node4"><a xlink:href="classL4Re_1_1Util_1_1Registry__server.html" target="_top" xlink:title="A server loop object which has a Object_registry included.">
<polygon fill="white" stroke="black" points="4.5,-0.5 4.5,-112.5 146.5,-112.5 146.5,-0.5 4.5,-0.5"/>
<text text-anchor="start" x="12.5" y="-100.5" font-family="Helvetica,sans-Serif" font-size="10.00">L4Re::Util::Registry</text>
<text text-anchor="middle" x="75.5" y="-89.5" font-family="Helvetica,sans-Serif" font-size="10.00">_server&lt; LOOP_HOOKS &gt;</text>
<polyline fill="none" stroke="black" points="4.5,-82.5 146.5,-82.5 "/>
<text text-anchor="middle" x="75.5" y="-70.5" font-family="Helvetica,sans-Serif" font-size="10.00"> </text>
<polyline fill="none" stroke="black" points="4.5,-63.5 146.5,-63.5 "/>
<text text-anchor="start" x="12.5" y="-51.5" font-family="Helvetica,sans-Serif" font-size="10.00">+ Registry_server()</text>
<text text-anchor="start" x="12.5" y="-40.5" font-family="Helvetica,sans-Serif" font-size="10.00">+ Registry_server()</text>
<text text-anchor="start" x="12.5" y="-29.5" font-family="Helvetica,sans-Serif" font-size="10.00">+ registry()</text>
<text text-anchor="start" x="12.5" y="-18.5" font-family="Helvetica,sans-Serif" font-size="10.00">+ registry()</text>
<text text-anchor="start" x="12.5" y="-7.5" font-family="Helvetica,sans-Serif" font-size="10.00">+ loop()</text>
</a>
</g>
</g>
<!-- Node3&#45;&gt;Node4 -->
<g id="edge3" class="edge">
<title>Node3&#45;&gt;Node4</title>
<path fill="none" stroke="midnightblue" d="M75.5,-140.14C75.5,-130.97 75.5,-121.61 75.5,-112.66"/>
<polygon fill="none" stroke="midnightblue" points="72,-140.39 75.5,-150.39 79,-140.39 72,-140.39"/>
</g>
<!-- Node5&#45;&gt;Node3 -->
<g id="edge5" class="edge">
<title>Node5&#45;&gt;Node3</title>
<path fill="none" stroke="orange" d="M133.14,-312.21C124.23,-296.02 114.6,-278.52 105.8,-262.55"/>
<polygon fill="orange" stroke="orange" points="130.12,-313.98 138.01,-321.06 136.25,-310.61 130.12,-313.98"/>
<text text-anchor="start" x="126.5" y="-295" font-family="Helvetica,sans-Serif" font-size="10.00"> &lt; L4::Ipc_svr::Default</text>
<text text-anchor="middle" x="181" y="-284" font-family="Helvetica,sans-Serif" font-size="10.00">_loop_hooks &gt;</text>
</g>
</g>
</svg>
