<?xml version="1.0" encoding="UTF-8" standalone="no"?>
<!DOCTYPE svg PUBLIC "-//W3C//DTD SVG 1.1//EN"
 "http://www.w3.org/Graphics/SVG/1.1/DTD/svg11.dtd">
<!-- Generated by graphviz version 2.43.0 (0)
 -->
<!-- Title: L4::Ipc::Msg::Dir_out Pages: 1 -->
<svg width="284pt" height="171pt"
 viewBox="0.00 0.00 283.50 171.00" xmlns="http://www.w3.org/2000/svg" xmlns:xlink="http://www.w3.org/1999/xlink">
<g id="graph0" class="graph" transform="scale(1 1) rotate(0) translate(4 167)">
<title>L4::Ipc::Msg::Dir_out</title>
<polygon fill="white" stroke="transparent" points="-4,4 -4,-167 279.5,-167 279.5,4 -4,4"/>
<!-- Node1 -->
<g id="node1" class="node">
<title>Node1</title>
<g id="a_node1"><a xlink:title="Marker type for output values.">
<polygon fill="#bfbfbf" stroke="black" points="86,-105.5 86,-162.5 202,-162.5 202,-105.5 86,-105.5"/>
<text text-anchor="middle" x="144" y="-150.5" font-family="Helvetica,sans-Serif" font-size="10.00">L4::Ipc::Msg::Dir_out</text>
<polyline fill="none" stroke="black" points="86,-143.5 202,-143.5 "/>
<text text-anchor="middle" x="144" y="-131.5" font-family="Helvetica,sans-Serif" font-size="10.00"> </text>
<polyline fill="none" stroke="black" points="86,-124.5 202,-124.5 "/>
<text text-anchor="middle" x="144" y="-112.5" font-family="Helvetica,sans-Serif" font-size="10.00"> </text>
</a>
</g>
</g>
<!-- Node2 -->
<g id="node2" class="node">
<title>Node2</title>
<g id="a_node2"><a xlink:href="structL4_1_1Ipc_1_1Msg_1_1Do__out__data.html" target="_top" xlink:title="Marker for Output data.">
<polygon fill="white" stroke="black" points="0,-6 0,-63 142,-63 142,-6 0,-6"/>
<text text-anchor="middle" x="71" y="-51" font-family="Helvetica,sans-Serif" font-size="10.00">L4::Ipc::Msg::Do_out_data</text>
<polyline fill="none" stroke="black" points="0,-44 142,-44 "/>
<text text-anchor="middle" x="71" y="-32" font-family="Helvetica,sans-Serif" font-size="10.00"> </text>
<polyline fill="none" stroke="black" points="0,-25 142,-25 "/>
<text text-anchor="middle" x="71" y="-13" font-family="Helvetica,sans-Serif" font-size="10.00"> </text>
</a>
</g>
</g>
<!-- Node1&#45;&gt;Node2 -->
<g id="edge1" class="edge">
<title>Node1&#45;&gt;Node2</title>
<path fill="none" stroke="midnightblue" d="M117.06,-97.02C108.71,-85.87 99.64,-73.75 91.78,-63.25"/>
<polygon fill="none" stroke="midnightblue" points="114.48,-99.41 123.28,-105.32 120.08,-95.22 114.48,-99.41"/>
</g>
<!-- Node3 -->
<g id="node3" class="node">
<title>Node3</title>
<g id="a_node3"><a xlink:href="structL4_1_1Ipc_1_1Msg_1_1Do__out__items.html" target="_top" xlink:title="Marker for Output items.">
<polygon fill="white" stroke="black" points="160.5,-0.5 160.5,-68.5 275.5,-68.5 275.5,-0.5 160.5,-0.5"/>
<text text-anchor="start" x="168.5" y="-56.5" font-family="Helvetica,sans-Serif" font-size="10.00">L4::Ipc::Msg::Do_out</text>
<text text-anchor="middle" x="218" y="-45.5" font-family="Helvetica,sans-Serif" font-size="10.00">_items</text>
<polyline fill="none" stroke="black" points="160.5,-38.5 275.5,-38.5 "/>
<text text-anchor="middle" x="218" y="-26.5" font-family="Helvetica,sans-Serif" font-size="10.00"> </text>
<polyline fill="none" stroke="black" points="160.5,-19.5 275.5,-19.5 "/>
<text text-anchor="middle" x="218" y="-7.5" font-family="Helvetica,sans-Serif" font-size="10.00"> </text>
</a>
</g>
</g>
<!-- Node1&#45;&gt;Node3 -->
<g id="edge2" class="edge">
<title>Node1&#45;&gt;Node3</title>
<path fill="none" stroke="midnightblue" d="M171.07,-97.34C178.15,-88.01 185.75,-77.99 192.74,-68.79"/>
<polygon fill="none" stroke="midnightblue" points="168.27,-95.24 165.01,-105.32 173.84,-99.47 168.27,-95.24"/>
</g>
</g>
</svg>
