<?xml version="1.0" encoding="UTF-8" standalone="no"?>
<!DOCTYPE svg PUBLIC "-//W3C//DTD SVG 1.1//EN"
 "http://www.w3.org/Graphics/SVG/1.1/DTD/svg11.dtd">
<!-- Generated by graphviz version 2.43.0 (0)
 -->
<!-- Title: l4re_env_t Pages: 1 -->
<svg width="234pt" height="303pt"
 viewBox="0.00 0.00 234.00 303.00" xmlns="http://www.w3.org/2000/svg" xmlns:xlink="http://www.w3.org/1999/xlink">
<g id="graph0" class="graph" transform="scale(1 1) rotate(0) translate(4 299)">
<title>l4re_env_t</title>
<polygon fill="white" stroke="transparent" points="-4,4 -4,-299 230,-299 230,4 -4,4"/>
<!-- Node1 -->
<g id="node1" class="node">
<title>Node1</title>
<g id="a_node1"><a xlink:title="Initial environment data structure.">
<polygon fill="#bfbfbf" stroke="black" points="82,-0.5 82,-145.5 180,-145.5 180,-0.5 82,-0.5"/>
<text text-anchor="middle" x="131" y="-133.5" font-family="Helvetica,sans-Serif" font-size="10.00">l4re_env_t</text>
<polyline fill="none" stroke="black" points="82,-126.5 180,-126.5 "/>
<text text-anchor="start" x="90" y="-114.5" font-family="Helvetica,sans-Serif" font-size="10.00">+ parent</text>
<text text-anchor="start" x="90" y="-103.5" font-family="Helvetica,sans-Serif" font-size="10.00">+ rm</text>
<text text-anchor="start" x="90" y="-92.5" font-family="Helvetica,sans-Serif" font-size="10.00">+ mem_alloc</text>
<text text-anchor="start" x="90" y="-81.5" font-family="Helvetica,sans-Serif" font-size="10.00">+ log</text>
<text text-anchor="start" x="90" y="-70.5" font-family="Helvetica,sans-Serif" font-size="10.00">+ main_thread</text>
<text text-anchor="start" x="90" y="-59.5" font-family="Helvetica,sans-Serif" font-size="10.00">+ factory</text>
<text text-anchor="start" x="90" y="-48.5" font-family="Helvetica,sans-Serif" font-size="10.00">+ scheduler</text>
<text text-anchor="start" x="90" y="-37.5" font-family="Helvetica,sans-Serif" font-size="10.00">+ first_free_cap</text>
<text text-anchor="start" x="90" y="-26.5" font-family="Helvetica,sans-Serif" font-size="10.00">+ first_free_utcb</text>
<polyline fill="none" stroke="black" points="82,-19.5 180,-19.5 "/>
<text text-anchor="middle" x="131" y="-7.5" font-family="Helvetica,sans-Serif" font-size="10.00"> </text>
</a>
</g>
</g>
<!-- Node2 -->
<g id="node2" class="node">
<title>Node2</title>
<g id="a_node2"><a xlink:href="structl4re__env__cap__entry__t.html" target="_top" xlink:title="Entry in the L4Re environment array for the named inital objects.">
<polygon fill="white" stroke="black" points="0,-193.5 0,-294.5 140,-294.5 140,-193.5 0,-193.5"/>
<text text-anchor="middle" x="70" y="-282.5" font-family="Helvetica,sans-Serif" font-size="10.00">l4re_env_cap_entry_t</text>
<polyline fill="none" stroke="black" points="0,-275.5 140,-275.5 "/>
<text text-anchor="start" x="8" y="-263.5" font-family="Helvetica,sans-Serif" font-size="10.00">+ cap</text>
<text text-anchor="start" x="8" y="-252.5" font-family="Helvetica,sans-Serif" font-size="10.00">+ flags</text>
<text text-anchor="start" x="8" y="-241.5" font-family="Helvetica,sans-Serif" font-size="10.00">+ name</text>
<polyline fill="none" stroke="black" points="0,-234.5 140,-234.5 "/>
<text text-anchor="start" x="8" y="-222.5" font-family="Helvetica,sans-Serif" font-size="10.00">+ l4re_env_cap_entry_t()</text>
<text text-anchor="start" x="8" y="-211.5" font-family="Helvetica,sans-Serif" font-size="10.00">+ l4re_env_cap_entry_t()</text>
<text text-anchor="start" x="8" y="-200.5" font-family="Helvetica,sans-Serif" font-size="10.00">+ is_valid_name()</text>
</a>
</g>
</g>
<!-- Node2&#45;&gt;Node1 -->
<g id="edge1" class="edge">
<title>Node2&#45;&gt;Node1</title>
<path fill="none" stroke="#404040" d="M87.97,-193.21C92.09,-181.8 96.57,-169.38 101.04,-156.99"/>
<polygon fill="none" stroke="#404040" points="101.06,-156.95 99.33,-149.95 105.13,-145.66 106.86,-152.67 101.06,-156.95"/>
<text text-anchor="middle" x="114" y="-167" font-family="Helvetica,sans-Serif" font-size="10.00"> +caps</text>
</g>
<!-- Node3 -->
<g id="node3" class="node">
<title>Node3</title>
<g id="a_node3"><a xlink:href="unionl4__fpage__t.html" target="_top" xlink:title="L4 flexpage type.">
<polygon fill="white" stroke="black" points="158,-210 158,-278 226,-278 226,-210 158,-210"/>
<text text-anchor="middle" x="192" y="-266" font-family="Helvetica,sans-Serif" font-size="10.00">l4_fpage_t</text>
<polyline fill="none" stroke="black" points="158,-259 226,-259 "/>
<text text-anchor="start" x="166" y="-247" font-family="Helvetica,sans-Serif" font-size="10.00">+ fpage</text>
<text text-anchor="start" x="166" y="-236" font-family="Helvetica,sans-Serif" font-size="10.00">+ raw</text>
<polyline fill="none" stroke="black" points="158,-229 226,-229 "/>
<text text-anchor="middle" x="192" y="-217" font-family="Helvetica,sans-Serif" font-size="10.00"> </text>
</a>
</g>
</g>
<!-- Node3&#45;&gt;Node1 -->
<g id="edge2" class="edge">
<title>Node3&#45;&gt;Node1</title>
<path fill="none" stroke="#404040" d="M179.95,-209.61C174.49,-194.48 167.76,-175.84 161.06,-157.27"/>
<polygon fill="none" stroke="#404040" points="160.98,-157.05 155.18,-152.76 156.9,-145.76 162.7,-150.04 160.98,-157.05"/>
<text text-anchor="middle" x="196" y="-167" font-family="Helvetica,sans-Serif" font-size="10.00"> +utcb_area</text>
</g>
</g>
</svg>
