<?xml version="1.0" encoding="UTF-8" standalone="no"?>
<!DOCTYPE svg PUBLIC "-//W3C//DTD SVG 1.1//EN"
 "http://www.w3.org/Graphics/SVG/1.1/DTD/svg11.dtd">
<!-- Generated by graphviz version 2.43.0 (0)
 -->
<!-- Title: L4Re::Mmio_space Pages: 1 -->
<svg width="309pt" height="343pt"
 viewBox="0.00 0.00 309.00 343.00" xmlns="http://www.w3.org/2000/svg" xmlns:xlink="http://www.w3.org/1999/xlink">
<g id="graph0" class="graph" transform="scale(1 1) rotate(0) translate(4 339)">
<title>L4Re::Mmio_space</title>
<polygon fill="white" stroke="transparent" points="-4,4 -4,-339 305,-339 305,4 -4,4"/>
<!-- Node1 -->
<g id="node1" class="node">
<title>Node1</title>
<g id="a_node1"><a xlink:title="Interface for memory&#45;like address space accessible via IPC.">
<polygon fill="#bfbfbf" stroke="black" points="58,-0.5 58,-68.5 166,-68.5 166,-0.5 58,-0.5"/>
<text text-anchor="middle" x="112" y="-56.5" font-family="Helvetica,sans-Serif" font-size="10.00">L4Re::Mmio_space</text>
<polyline fill="none" stroke="black" points="58,-49.5 166,-49.5 "/>
<text text-anchor="middle" x="112" y="-37.5" font-family="Helvetica,sans-Serif" font-size="10.00"> </text>
<polyline fill="none" stroke="black" points="58,-30.5 166,-30.5 "/>
<text text-anchor="start" x="66" y="-18.5" font-family="Helvetica,sans-Serif" font-size="10.00">+ mmio_read()</text>
<text text-anchor="start" x="66" y="-7.5" font-family="Helvetica,sans-Serif" font-size="10.00">+ mmio_write()</text>
</a>
</g>
</g>
<!-- Node2 -->
<g id="node2" class="node">
<title>Node2</title>
<g id="a_node2"><a xlink:href="classL4_1_1Kobject__t.html" target="_top" xlink:title=" ">
<polygon fill="white" stroke="black" points="30,-106.5 30,-196.5 194,-196.5 194,-106.5 30,-106.5"/>
<text text-anchor="start" x="38" y="-184.5" font-family="Helvetica,sans-Serif" font-size="10.00">L4::Kobject_t&lt; Mmio</text>
<text text-anchor="start" x="38" y="-173.5" font-family="Helvetica,sans-Serif" font-size="10.00">_space, L4::Kobject,</text>
<text text-anchor="middle" x="112" y="-162.5" font-family="Helvetica,sans-Serif" font-size="10.00"> L4RE_PROTO_MMIO_SPACE &gt;</text>
<polyline fill="none" stroke="black" points="30,-155.5 194,-155.5 "/>
<text text-anchor="middle" x="112" y="-143.5" font-family="Helvetica,sans-Serif" font-size="10.00"> </text>
<polyline fill="none" stroke="black" points="30,-136.5 194,-136.5 "/>
<text text-anchor="start" x="38" y="-124.5" font-family="Helvetica,sans-Serif" font-size="10.00"># c()</text>
<text text-anchor="start" x="38" y="-113.5" font-family="Helvetica,sans-Serif" font-size="10.00"># __check_protocols__()</text>
</a>
</g>
</g>
<!-- Node2&#45;&gt;Node1 -->
<g id="edge1" class="edge">
<title>Node2&#45;&gt;Node1</title>
<path fill="none" stroke="midnightblue" d="M112,-96.23C112,-86.8 112,-77.26 112,-68.62"/>
<polygon fill="none" stroke="midnightblue" points="108.5,-96.37 112,-106.37 115.5,-96.37 108.5,-96.37"/>
</g>
<!-- Node3 -->
<g id="node3" class="node">
<title>Node3</title>
<g id="a_node3"><a xlink:href="classL4_1_1Kobject.html" target="_top" xlink:title="Base class for all kinds of kernel objects and remote objects, referenced by capabilities.">
<polygon fill="white" stroke="black" points="0,-261 0,-329 86,-329 86,-261 0,-261"/>
<text text-anchor="middle" x="43" y="-317" font-family="Helvetica,sans-Serif" font-size="10.00">L4::Kobject</text>
<polyline fill="none" stroke="black" points="0,-310 86,-310 "/>
<text text-anchor="middle" x="43" y="-298" font-family="Helvetica,sans-Serif" font-size="10.00"> </text>
<polyline fill="none" stroke="black" points="0,-291 86,-291 "/>
<text text-anchor="start" x="8" y="-279" font-family="Helvetica,sans-Serif" font-size="10.00">+ dec_refcnt()</text>
<text text-anchor="start" x="8" y="-268" font-family="Helvetica,sans-Serif" font-size="10.00"># cap()</text>
</a>
</g>
</g>
<!-- Node3&#45;&gt;Node2 -->
<g id="edge2" class="edge">
<title>Node3&#45;&gt;Node2</title>
<path fill="none" stroke="midnightblue" d="M63.71,-251.52C72.15,-234.21 81.91,-214.2 90.44,-196.72"/>
<polygon fill="none" stroke="midnightblue" points="60.41,-250.3 59.18,-260.82 66.71,-253.37 60.41,-250.3"/>
</g>
<!-- Node4 -->
<g id="node4" class="node">
<title>Node4</title>
<g id="a_node4"><a xlink:href="classL4_1_1Kobject__t.html" target="_top" xlink:title="Helper class to create an L4Re interface class that is derived from a single base class.">
<polygon fill="white" stroke="black" points="104,-255.5 104,-334.5 260,-334.5 260,-255.5 104,-255.5"/>
<text text-anchor="start" x="112" y="-322.5" font-family="Helvetica,sans-Serif" font-size="10.00">L4::Kobject_t&lt; Derived,</text>
<text text-anchor="middle" x="182" y="-311.5" font-family="Helvetica,sans-Serif" font-size="10.00"> Base, PROTO, S_DEMAND &gt;</text>
<polyline fill="none" stroke="black" points="104,-304.5 260,-304.5 "/>
<text text-anchor="middle" x="182" y="-292.5" font-family="Helvetica,sans-Serif" font-size="10.00"> </text>
<polyline fill="none" stroke="black" points="104,-285.5 260,-285.5 "/>
<text text-anchor="start" x="112" y="-273.5" font-family="Helvetica,sans-Serif" font-size="10.00"># c()</text>
<text text-anchor="start" x="112" y="-262.5" font-family="Helvetica,sans-Serif" font-size="10.00"># __check_protocols__()</text>
</a>
</g>
</g>
<!-- Node4&#45;&gt;Node2 -->
<g id="edge3" class="edge">
<title>Node4&#45;&gt;Node2</title>
<path fill="none" stroke="orange" d="M158.32,-246.13C150.39,-230.11 141.6,-212.34 133.82,-196.62"/>
<polygon fill="orange" stroke="orange" points="155.3,-247.92 162.87,-255.33 161.58,-244.82 155.3,-247.92"/>
<text text-anchor="start" x="153" y="-229" font-family="Helvetica,sans-Serif" font-size="10.00"> &lt; Mmio_space, L4::Kobject,</text>
<text text-anchor="middle" x="227" y="-218" font-family="Helvetica,sans-Serif" font-size="10.00"> L4RE_PROTO_MMIO_SPACE &gt;</text>
</g>
</g>
</svg>
