<?xml version="1.0" encoding="UTF-8" standalone="no"?>
<!DOCTYPE svg PUBLIC "-//W3C//DTD SVG 1.1//EN"
 "http://www.w3.org/Graphics/SVG/1.1/DTD/svg11.dtd">
<!-- Generated by graphviz version 2.43.0 (0)
 -->
<!-- Title: L4::Ipc::Msg::Do_in_data Pages: 1 -->
<svg width="258pt" height="160pt"
 viewBox="0.00 0.00 257.50 160.00" xmlns="http://www.w3.org/2000/svg" xmlns:xlink="http://www.w3.org/1999/xlink">
<g id="graph0" class="graph" transform="scale(1 1) rotate(0) translate(4 156)">
<title>L4::Ipc::Msg::Do_in_data</title>
<polygon fill="white" stroke="transparent" points="-4,4 -4,-156 253.5,-156 253.5,4 -4,4"/>
<!-- Node1 -->
<g id="node1" class="node">
<title>Node1</title>
<g id="a_node1"><a xlink:title="Marker for Input data.">
<polygon fill="#bfbfbf" stroke="black" points="54,-0.5 54,-57.5 189,-57.5 189,-0.5 54,-0.5"/>
<text text-anchor="middle" x="121.5" y="-45.5" font-family="Helvetica,sans-Serif" font-size="10.00">L4::Ipc::Msg::Do_in_data</text>
<polyline fill="none" stroke="black" points="54,-38.5 189,-38.5 "/>
<text text-anchor="middle" x="121.5" y="-26.5" font-family="Helvetica,sans-Serif" font-size="10.00"> </text>
<polyline fill="none" stroke="black" points="54,-19.5 189,-19.5 "/>
<text text-anchor="middle" x="121.5" y="-7.5" font-family="Helvetica,sans-Serif" font-size="10.00"> </text>
</a>
</g>
</g>
<!-- Node2 -->
<g id="node2" class="node">
<title>Node2</title>
<g id="a_node2"><a xlink:href="structL4_1_1Ipc_1_1Msg_1_1Dir__in.html" target="_top" xlink:title="Marker type for input values.">
<polygon fill="white" stroke="black" points="0,-94.5 0,-151.5 109,-151.5 109,-94.5 0,-94.5"/>
<text text-anchor="middle" x="54.5" y="-139.5" font-family="Helvetica,sans-Serif" font-size="10.00">L4::Ipc::Msg::Dir_in</text>
<polyline fill="none" stroke="black" points="0,-132.5 109,-132.5 "/>
<text text-anchor="middle" x="54.5" y="-120.5" font-family="Helvetica,sans-Serif" font-size="10.00"> </text>
<polyline fill="none" stroke="black" points="0,-113.5 109,-113.5 "/>
<text text-anchor="middle" x="54.5" y="-101.5" font-family="Helvetica,sans-Serif" font-size="10.00"> </text>
</a>
</g>
</g>
<!-- Node2&#45;&gt;Node1 -->
<g id="edge1" class="edge">
<title>Node2&#45;&gt;Node1</title>
<path fill="none" stroke="midnightblue" d="M80.55,-86.24C87.48,-76.72 94.85,-66.59 101.41,-57.58"/>
<polygon fill="none" stroke="midnightblue" points="77.66,-84.25 74.6,-94.4 83.32,-88.37 77.66,-84.25"/>
</g>
<!-- Node3 -->
<g id="node3" class="node">
<title>Node3</title>
<g id="a_node3"><a xlink:href="structL4_1_1Ipc_1_1Msg_1_1Cls__data.html" target="_top" xlink:title="Marker type for data values.">
<polygon fill="white" stroke="black" points="127.5,-94.5 127.5,-151.5 249.5,-151.5 249.5,-94.5 127.5,-94.5"/>
<text text-anchor="middle" x="188.5" y="-139.5" font-family="Helvetica,sans-Serif" font-size="10.00">L4::Ipc::Msg::Cls_data</text>
<polyline fill="none" stroke="black" points="127.5,-132.5 249.5,-132.5 "/>
<text text-anchor="middle" x="188.5" y="-120.5" font-family="Helvetica,sans-Serif" font-size="10.00"> </text>
<polyline fill="none" stroke="black" points="127.5,-113.5 249.5,-113.5 "/>
<text text-anchor="middle" x="188.5" y="-101.5" font-family="Helvetica,sans-Serif" font-size="10.00"> </text>
</a>
</g>
</g>
<!-- Node3&#45;&gt;Node1 -->
<g id="edge2" class="edge">
<title>Node3&#45;&gt;Node1</title>
<path fill="none" stroke="midnightblue" d="M162.45,-86.24C155.52,-76.72 148.15,-66.59 141.59,-57.58"/>
<polygon fill="none" stroke="midnightblue" points="159.68,-88.37 168.4,-94.4 165.34,-84.25 159.68,-88.37"/>
</g>
</g>
</svg>
