<?xml version="1.0" encoding="UTF-8" standalone="no"?>
<!DOCTYPE svg PUBLIC "-//W3C//DTD SVG 1.1//EN"
 "http://www.w3.org/Graphics/SVG/1.1/DTD/svg11.dtd">
<!-- Generated by graphviz version 2.43.0 (0)
 -->
<!-- Title: L4::Ipc::Call_zero_send_timeout Pages: 1 -->
<svg width="107pt" height="171pt"
 viewBox="0.00 0.00 107.00 171.00" xmlns="http://www.w3.org/2000/svg" xmlns:xlink="http://www.w3.org/1999/xlink">
<g id="graph0" class="graph" transform="scale(1 1) rotate(0) translate(4 167)">
<title>L4::Ipc::Call_zero_send_timeout</title>
<polygon fill="white" stroke="transparent" points="-4,4 -4,-167 103,-167 103,4 -4,4"/>
<!-- Node1 -->
<g id="node1" class="node">
<title>Node1</title>
<g id="a_node1"><a xlink:title="RPC attribute for an RPC call, with zero send timeout.">
<polygon fill="#bfbfbf" stroke="black" points="0,-0.5 0,-68.5 99,-68.5 99,-0.5 0,-0.5"/>
<text text-anchor="start" x="8" y="-56.5" font-family="Helvetica,sans-Serif" font-size="10.00">L4::Ipc::Call_zero</text>
<text text-anchor="middle" x="49.5" y="-45.5" font-family="Helvetica,sans-Serif" font-size="10.00">_send_timeout</text>
<polyline fill="none" stroke="black" points="0,-38.5 99,-38.5 "/>
<text text-anchor="middle" x="49.5" y="-26.5" font-family="Helvetica,sans-Serif" font-size="10.00"> </text>
<polyline fill="none" stroke="black" points="0,-19.5 99,-19.5 "/>
<text text-anchor="start" x="8" y="-7.5" font-family="Helvetica,sans-Serif" font-size="10.00">+ timeout()</text>
</a>
</g>
</g>
<!-- Node2 -->
<g id="node2" class="node">
<title>Node2</title>
<g id="a_node2"><a xlink:href="structL4_1_1Ipc_1_1Call.html" target="_top" xlink:title="RPC attribute for a standard RPC call.">
<polygon fill="white" stroke="black" points="12.5,-105.5 12.5,-162.5 86.5,-162.5 86.5,-105.5 12.5,-105.5"/>
<text text-anchor="middle" x="49.5" y="-150.5" font-family="Helvetica,sans-Serif" font-size="10.00">L4::Ipc::Call</text>
<polyline fill="none" stroke="black" points="12.5,-143.5 86.5,-143.5 "/>
<text text-anchor="middle" x="49.5" y="-131.5" font-family="Helvetica,sans-Serif" font-size="10.00"> </text>
<polyline fill="none" stroke="black" points="12.5,-124.5 86.5,-124.5 "/>
<text text-anchor="start" x="20.5" y="-112.5" font-family="Helvetica,sans-Serif" font-size="10.00">+ timeout()</text>
</a>
</g>
</g>
<!-- Node2&#45;&gt;Node1 -->
<g id="edge1" class="edge">
<title>Node2&#45;&gt;Node1</title>
<path fill="none" stroke="midnightblue" d="M49.5,-95.06C49.5,-86.39 49.5,-77.24 49.5,-68.79"/>
<polygon fill="none" stroke="midnightblue" points="46,-95.32 49.5,-105.32 53,-95.32 46,-95.32"/>
</g>
</g>
</svg>
