<?xml version="1.0" encoding="UTF-8" standalone="no"?>
<!DOCTYPE svg PUBLIC "-//W3C//DTD SVG 1.1//EN"
 "http://www.w3.org/Graphics/SVG/1.1/DTD/svg11.dtd">
<!-- Generated by graphviz version 2.43.0 (0)
 -->
<!-- Title: L4::Ipc::Msg::Do_rcv_buffers Pages: 1 -->
<svg width="264pt" height="171pt"
 viewBox="0.00 0.00 264.00 171.00" xmlns="http://www.w3.org/2000/svg" xmlns:xlink="http://www.w3.org/1999/xlink">
<g id="graph0" class="graph" transform="scale(1 1) rotate(0) translate(4 167)">
<title>L4::Ipc::Msg::Do_rcv_buffers</title>
<polygon fill="white" stroke="transparent" points="-4,4 -4,-167 260,-167 260,4 -4,4"/>
<!-- Node1 -->
<g id="node1" class="node">
<title>Node1</title>
<g id="a_node1"><a xlink:title="Marker for receive buffers.">
<polygon fill="#bfbfbf" stroke="black" points="65.5,-0.5 65.5,-68.5 179.5,-68.5 179.5,-0.5 65.5,-0.5"/>
<text text-anchor="start" x="73.5" y="-56.5" font-family="Helvetica,sans-Serif" font-size="10.00">L4::Ipc::Msg::Do_rcv</text>
<text text-anchor="middle" x="122.5" y="-45.5" font-family="Helvetica,sans-Serif" font-size="10.00">_buffers</text>
<polyline fill="none" stroke="black" points="65.5,-38.5 179.5,-38.5 "/>
<text text-anchor="middle" x="122.5" y="-26.5" font-family="Helvetica,sans-Serif" font-size="10.00"> </text>
<polyline fill="none" stroke="black" points="65.5,-19.5 179.5,-19.5 "/>
<text text-anchor="middle" x="122.5" y="-7.5" font-family="Helvetica,sans-Serif" font-size="10.00"> </text>
</a>
</g>
</g>
<!-- Node2 -->
<g id="node2" class="node">
<title>Node2</title>
<g id="a_node2"><a xlink:href="structL4_1_1Ipc_1_1Msg_1_1Dir__in.html" target="_top" xlink:title="Marker type for input values.">
<polygon fill="white" stroke="black" points="0,-105.5 0,-162.5 109,-162.5 109,-105.5 0,-105.5"/>
<text text-anchor="middle" x="54.5" y="-150.5" font-family="Helvetica,sans-Serif" font-size="10.00">L4::Ipc::Msg::Dir_in</text>
<polyline fill="none" stroke="black" points="0,-143.5 109,-143.5 "/>
<text text-anchor="middle" x="54.5" y="-131.5" font-family="Helvetica,sans-Serif" font-size="10.00"> </text>
<polyline fill="none" stroke="black" points="0,-124.5 109,-124.5 "/>
<text text-anchor="middle" x="54.5" y="-112.5" font-family="Helvetica,sans-Serif" font-size="10.00"> </text>
</a>
</g>
</g>
<!-- Node2&#45;&gt;Node1 -->
<g id="edge1" class="edge">
<title>Node2&#45;&gt;Node1</title>
<path fill="none" stroke="midnightblue" d="M79.57,-97.05C86.02,-87.81 92.93,-77.89 99.29,-68.79"/>
<polygon fill="none" stroke="midnightblue" points="76.65,-95.12 73.8,-105.32 82.4,-99.12 76.65,-95.12"/>
</g>
<!-- Node3 -->
<g id="node3" class="node">
<title>Node3</title>
<g id="a_node3"><a xlink:href="structL4_1_1Ipc_1_1Msg_1_1Cls__buffer.html" target="_top" xlink:title="Marker type for receive buffer values.">
<polygon fill="white" stroke="black" points="127,-105.5 127,-162.5 256,-162.5 256,-105.5 127,-105.5"/>
<text text-anchor="middle" x="191.5" y="-150.5" font-family="Helvetica,sans-Serif" font-size="10.00">L4::Ipc::Msg::Cls_buffer</text>
<polyline fill="none" stroke="black" points="127,-143.5 256,-143.5 "/>
<text text-anchor="middle" x="191.5" y="-131.5" font-family="Helvetica,sans-Serif" font-size="10.00"> </text>
<polyline fill="none" stroke="black" points="127,-124.5 256,-124.5 "/>
<text text-anchor="middle" x="191.5" y="-112.5" font-family="Helvetica,sans-Serif" font-size="10.00"> </text>
</a>
</g>
</g>
<!-- Node3&#45;&gt;Node1 -->
<g id="edge2" class="edge">
<title>Node3&#45;&gt;Node1</title>
<path fill="none" stroke="midnightblue" d="M166.06,-97.05C159.52,-87.81 152.5,-77.89 146.06,-68.79"/>
<polygon fill="none" stroke="midnightblue" points="163.28,-99.18 171.91,-105.32 168.99,-95.14 163.28,-99.18"/>
</g>
</g>
</svg>
