<?xml version="1.0" encoding="UTF-8" standalone="no"?>
<!DOCTYPE svg PUBLIC "-//W3C//DTD SVG 1.1//EN"
 "http://www.w3.org/Graphics/SVG/1.1/DTD/svg11.dtd">
<!-- Generated by graphviz version 2.43.0 (0)
 -->
<!-- Title: L4::Irq_mux::chain Pages: 1 -->
<svg width="263pt" height="104pt"
 viewBox="0.00 0.00 263.00 104.00" xmlns="http://www.w3.org/2000/svg" xmlns:xlink="http://www.w3.org/1999/xlink">
<g id="graph0" class="graph" transform="scale(1 1) rotate(0) translate(4 100)">
<title>L4::Irq_mux::chain</title>
<polygon fill="white" stroke="transparent" points="-4,4 -4,-100 259,-100 259,4 -4,4"/>
<!-- Node1 -->
<g id="node1" class="node">
<title>Node1</title>
<g id="a_node1"><a xlink:title="Attach an IRQ to this multiplexer.">
<polygon fill="#bfbfbf" stroke="black" points="0,-38.5 0,-57.5 106,-57.5 106,-38.5 0,-38.5"/>
<text text-anchor="middle" x="53" y="-45.5" font-family="Helvetica,sans-Serif" font-size="10.00">L4::Irq_mux::chain</text>
</a>
</g>
</g>
<!-- Node2 -->
<g id="node2" class="node">
<title>Node2</title>
<g id="a_node2"><a xlink:href="classL4_1_1Cap__base.html#a90ff089ca2442b128c2b2b0e1c22c6d7" target="_top" xlink:title="Return capability selector.">
<polygon fill="white" stroke="black" points="146.5,-76.5 146.5,-95.5 250.5,-95.5 250.5,-76.5 146.5,-76.5"/>
<text text-anchor="middle" x="198.5" y="-83.5" font-family="Helvetica,sans-Serif" font-size="10.00">L4::Cap_base::cap</text>
</a>
</g>
</g>
<!-- Node1&#45;&gt;Node2 -->
<g id="edge1" class="edge">
<title>Node1&#45;&gt;Node2</title>
<path fill="none" stroke="midnightblue" d="M90.21,-57.59C108.82,-62.52 131.7,-68.57 151.54,-73.83"/>
<polygon fill="midnightblue" stroke="midnightblue" points="150.74,-77.24 161.3,-76.41 152.53,-70.47 150.74,-77.24"/>
</g>
<!-- Node3 -->
<g id="node3" class="node">
<title>Node3</title>
<g id="a_node3"><a xlink:href="classL4_1_1Kobject.html#a4f2117ae76762f4084e6a1adb915863c" target="_top" xlink:title="Return capability selector.">
<polygon fill="white" stroke="black" points="152,-38.5 152,-57.5 245,-57.5 245,-38.5 152,-38.5"/>
<text text-anchor="middle" x="198.5" y="-45.5" font-family="Helvetica,sans-Serif" font-size="10.00">L4::Kobject::cap</text>
</a>
</g>
</g>
<!-- Node1&#45;&gt;Node3 -->
<g id="edge2" class="edge">
<title>Node1&#45;&gt;Node3</title>
<path fill="none" stroke="midnightblue" d="M106.21,-48C117.74,-48 130,-48 141.66,-48"/>
<polygon fill="midnightblue" stroke="midnightblue" points="141.73,-51.5 151.73,-48 141.73,-44.5 141.73,-51.5"/>
</g>
<!-- Node4 -->
<g id="node4" class="node">
<title>Node4</title>
<g id="a_node4"><a xlink:href="group__l4__irq__api.html#ga0bfe3132479962ae237087568fc2c94f" target="_top" xlink:title="Attach an IRQ to this multiplexer.">
<polygon fill="white" stroke="black" points="142,-0.5 142,-19.5 255,-19.5 255,-0.5 142,-0.5"/>
<text text-anchor="middle" x="198.5" y="-7.5" font-family="Helvetica,sans-Serif" font-size="10.00">l4_irq_mux_chain_u</text>
</a>
</g>
</g>
<!-- Node1&#45;&gt;Node4 -->
<g id="edge3" class="edge">
<title>Node1&#45;&gt;Node4</title>
<path fill="none" stroke="midnightblue" d="M90.21,-38.41C108.82,-33.48 131.7,-27.43 151.54,-22.17"/>
<polygon fill="midnightblue" stroke="midnightblue" points="152.53,-25.53 161.3,-19.59 150.74,-18.76 152.53,-25.53"/>
</g>
</g>
</svg>
