<?xml version="1.0" encoding="UTF-8" standalone="no"?>
<!DOCTYPE svg PUBLIC "-//W3C//DTD SVG 1.1//EN"
 "http://www.w3.org/Graphics/SVG/1.1/DTD/svg11.dtd">
<!-- Generated by graphviz version 2.43.0 (0)
 -->
<!-- Title: L4::Epiface Pages: 1 -->
<svg width="1128pt" height="718pt"
 viewBox="0.00 0.00 1128.00 718.00" xmlns="http://www.w3.org/2000/svg" xmlns:xlink="http://www.w3.org/1999/xlink">
<g id="graph0" class="graph" transform="scale(1 1) rotate(0) translate(4 714)">
<title>L4::Epiface</title>
<polygon fill="white" stroke="transparent" points="-4,4 -4,-714 1124,-714 1124,4 -4,4"/>
<!-- Node1 -->
<g id="node1" class="node">
<title>Node1</title>
<g id="a_node1"><a xlink:title="Base class for interface implementations.">
<polygon fill="#bfbfbf" stroke="black" points="119,-553.5 119,-709.5 249,-709.5 249,-553.5 119,-553.5"/>
<text text-anchor="middle" x="184" y="-697.5" font-family="Helvetica,sans-Serif" font-size="10.00">L4::Epiface</text>
<polyline fill="none" stroke="black" points="119,-690.5 249,-690.5 "/>
<text text-anchor="middle" x="184" y="-678.5" font-family="Helvetica,sans-Serif" font-size="10.00"> </text>
<polyline fill="none" stroke="black" points="119,-671.5 249,-671.5 "/>
<text text-anchor="start" x="127" y="-659.5" font-family="Helvetica,sans-Serif" font-size="10.00">+ Epiface()</text>
<text text-anchor="start" x="127" y="-648.5" font-family="Helvetica,sans-Serif" font-size="10.00">+ operator=()</text>
<text text-anchor="start" x="127" y="-637.5" font-family="Helvetica,sans-Serif" font-size="10.00">+ Epiface()</text>
<text text-anchor="start" x="127" y="-626.5" font-family="Helvetica,sans-Serif" font-size="10.00">+ dispatch()</text>
<text text-anchor="start" x="127" y="-615.5" font-family="Helvetica,sans-Serif" font-size="10.00">+ get_buffer_demand()</text>
<text text-anchor="start" x="127" y="-604.5" font-family="Helvetica,sans-Serif" font-size="10.00">+ ~Epiface()</text>
<text text-anchor="start" x="127" y="-593.5" font-family="Helvetica,sans-Serif" font-size="10.00">+ obj_cap()</text>
<text text-anchor="start" x="127" y="-582.5" font-family="Helvetica,sans-Serif" font-size="10.00">+ server_iface()</text>
<text text-anchor="start" x="127" y="-571.5" font-family="Helvetica,sans-Serif" font-size="10.00">+ set_server()</text>
<text text-anchor="start" x="127" y="-560.5" font-family="Helvetica,sans-Serif" font-size="10.00">+ set_obj_cap()</text>
</a>
</g>
</g>
<!-- Node2 -->
<g id="node2" class="node">
<title>Node2</title>
<g id="a_node2"><a xlink:href="structL4_1_1Epiface__t0.html" target="_top" xlink:title=" ">
<polygon fill="white" stroke="black" points="77,-304 77,-383 207,-383 207,-304 77,-304"/>
<text text-anchor="start" x="85" y="-371" font-family="Helvetica,sans-Serif" font-size="10.00">L4::Epiface_t0&lt; void,</text>
<text text-anchor="middle" x="142" y="-360" font-family="Helvetica,sans-Serif" font-size="10.00"> Epiface &gt;</text>
<polyline fill="none" stroke="black" points="77,-353 207,-353 "/>
<text text-anchor="middle" x="142" y="-341" font-family="Helvetica,sans-Serif" font-size="10.00"> </text>
<polyline fill="none" stroke="black" points="77,-334 207,-334 "/>
<text text-anchor="start" x="85" y="-322" font-family="Helvetica,sans-Serif" font-size="10.00">+ get_buffer_demand()</text>
<text text-anchor="start" x="85" y="-311" font-family="Helvetica,sans-Serif" font-size="10.00">+ obj_cap()</text>
</a>
</g>
</g>
<!-- Node1&#45;&gt;Node2 -->
<g id="edge1" class="edge">
<title>Node1&#45;&gt;Node2</title>
<path fill="none" stroke="midnightblue" d="M159.62,-543.54C159.04,-540.67 158.5,-537.82 158,-535 148.79,-482.87 144.85,-421.75 143.18,-383.08"/>
<polygon fill="none" stroke="midnightblue" points="156.21,-544.32 161.72,-553.37 163.05,-542.86 156.21,-544.32"/>
</g>
<!-- Node5 -->
<g id="node5" class="node">
<title>Node5</title>
<g id="a_node5"><a xlink:href="structL4_1_1Epiface__t0.html" target="_top" xlink:title=" ">
<polygon fill="white" stroke="black" points="233,-304 233,-383 363,-383 363,-304 233,-304"/>
<text text-anchor="start" x="241" y="-371" font-family="Helvetica,sans-Serif" font-size="10.00">L4::Epiface_t0&lt; IFACE,</text>
<text text-anchor="middle" x="298" y="-360" font-family="Helvetica,sans-Serif" font-size="10.00"> L4::Epiface &gt;</text>
<polyline fill="none" stroke="black" points="233,-353 363,-353 "/>
<text text-anchor="middle" x="298" y="-341" font-family="Helvetica,sans-Serif" font-size="10.00"> </text>
<polyline fill="none" stroke="black" points="233,-334 363,-334 "/>
<text text-anchor="start" x="241" y="-322" font-family="Helvetica,sans-Serif" font-size="10.00">+ get_buffer_demand()</text>
<text text-anchor="start" x="241" y="-311" font-family="Helvetica,sans-Serif" font-size="10.00">+ obj_cap()</text>
</a>
</g>
</g>
<!-- Node1&#45;&gt;Node5 -->
<g id="edge5" class="edge">
<title>Node1&#45;&gt;Node5</title>
<path fill="none" stroke="midnightblue" d="M173.1,-543.42C171.78,-499.66 176.89,-447.48 201,-407 205.46,-399.51 218.09,-389.9 232.82,-380.46"/>
<polygon fill="none" stroke="midnightblue" points="169.6,-543.63 173.52,-553.48 176.6,-543.34 169.6,-543.63"/>
</g>
<!-- Node9 -->
<g id="node9" class="node">
<title>Node9</title>
<g id="a_node9"><a xlink:href="structL4_1_1Epiface__t0.html" target="_top" xlink:title="Epiface mixin for generic Kobject&#45;based interfaces.">
<polygon fill="white" stroke="black" points="379,-436.5 379,-515.5 509,-515.5 509,-436.5 379,-436.5"/>
<text text-anchor="start" x="387" y="-503.5" font-family="Helvetica,sans-Serif" font-size="10.00">L4::Epiface_t0&lt; RPC</text>
<text text-anchor="middle" x="444" y="-492.5" font-family="Helvetica,sans-Serif" font-size="10.00">_IFACE, BASE &gt;</text>
<polyline fill="none" stroke="black" points="379,-485.5 509,-485.5 "/>
<text text-anchor="middle" x="444" y="-473.5" font-family="Helvetica,sans-Serif" font-size="10.00"> </text>
<polyline fill="none" stroke="black" points="379,-466.5 509,-466.5 "/>
<text text-anchor="start" x="387" y="-454.5" font-family="Helvetica,sans-Serif" font-size="10.00">+ get_buffer_demand()</text>
<text text-anchor="start" x="387" y="-443.5" font-family="Helvetica,sans-Serif" font-size="10.00">+ obj_cap()</text>
</a>
</g>
</g>
<!-- Node1&#45;&gt;Node9 -->
<g id="edge9" class="edge">
<title>Node1&#45;&gt;Node9</title>
<path fill="none" stroke="midnightblue" d="M258.25,-586.66C296.24,-564.23 342.07,-537.18 378.7,-515.55"/>
<polygon fill="none" stroke="midnightblue" points="256.11,-583.87 249.27,-591.96 259.66,-589.89 256.11,-583.87"/>
</g>
<!-- Node12 -->
<g id="node12" class="node">
<title>Node12</title>
<g id="a_node12"><a xlink:href="classL4_1_1Server__object.html" target="_top" xlink:title="Abstract server object to be used with L4::Server and L4::Basic_registry.">
<polygon fill="white" stroke="black" points="871.5,-436.5 871.5,-515.5 972.5,-515.5 972.5,-436.5 871.5,-436.5"/>
<text text-anchor="middle" x="922" y="-503.5" font-family="Helvetica,sans-Serif" font-size="10.00">L4::Server_object</text>
<polyline fill="none" stroke="black" points="871.5,-496.5 972.5,-496.5 "/>
<text text-anchor="middle" x="922" y="-484.5" font-family="Helvetica,sans-Serif" font-size="10.00"> </text>
<polyline fill="none" stroke="black" points="871.5,-477.5 972.5,-477.5 "/>
<text text-anchor="start" x="879.5" y="-465.5" font-family="Helvetica,sans-Serif" font-size="10.00">+ dispatch()</text>
<text text-anchor="start" x="879.5" y="-454.5" font-family="Helvetica,sans-Serif" font-size="10.00">+ dispatch()</text>
<text text-anchor="start" x="879.5" y="-443.5" font-family="Helvetica,sans-Serif" font-size="10.00">+ obj_cap()</text>
</a>
</g>
</g>
<!-- Node1&#45;&gt;Node12 -->
<g id="edge16" class="edge">
<title>Node1&#45;&gt;Node12</title>
<path fill="none" stroke="midnightblue" d="M259.24,-614.85C409.58,-583.58 743.62,-514.1 871.16,-487.57"/>
<polygon fill="none" stroke="midnightblue" points="258.25,-611.48 249.17,-616.95 259.67,-618.34 258.25,-611.48"/>
</g>
<!-- Node3 -->
<g id="node3" class="node">
<title>Node3</title>
<g id="a_node3"><a xlink:href="structL4_1_1Irqep__t.html" target="_top" xlink:title=" ">
<polygon fill="white" stroke="black" points="36,-6 36,-74 174,-74 174,-6 36,-6"/>
<text text-anchor="middle" x="105" y="-62" font-family="Helvetica,sans-Serif" font-size="10.00">L4::Irqep_t&lt; Irq_object &gt;</text>
<polyline fill="none" stroke="black" points="36,-55 174,-55 "/>
<text text-anchor="middle" x="105" y="-43" font-family="Helvetica,sans-Serif" font-size="10.00"> </text>
<polyline fill="none" stroke="black" points="36,-36 174,-36 "/>
<text text-anchor="start" x="44" y="-24" font-family="Helvetica,sans-Serif" font-size="10.00">+ dispatch()</text>
<text text-anchor="start" x="44" y="-13" font-family="Helvetica,sans-Serif" font-size="10.00">+ obj_cap()</text>
</a>
</g>
</g>
<!-- Node2&#45;&gt;Node3 -->
<g id="edge2" class="edge">
<title>Node2&#45;&gt;Node3</title>
<path fill="none" stroke="midnightblue" d="M147.02,-293.41C150.65,-243.37 152.3,-163.96 135,-98 132.87,-89.89 129.42,-81.64 125.59,-74.02"/>
<polygon fill="none" stroke="midnightblue" points="143.51,-293.38 146.22,-303.62 150.49,-293.93 143.51,-293.38"/>
</g>
<!-- Node4 -->
<g id="node4" class="node">
<title>Node4</title>
<g id="a_node4"><a xlink:href="structL4_1_1Irqep__t.html" target="_top" xlink:title="Epiface implementation for interrupt handlers.">
<polygon fill="white" stroke="black" points="0,-149.5 0,-228.5 120,-228.5 120,-149.5 0,-149.5"/>
<text text-anchor="start" x="8" y="-216.5" font-family="Helvetica,sans-Serif" font-size="10.00">L4::Irqep_t&lt; Derived,</text>
<text text-anchor="middle" x="60" y="-205.5" font-family="Helvetica,sans-Serif" font-size="10.00"> BASE, bool &gt;</text>
<polyline fill="none" stroke="black" points="0,-198.5 120,-198.5 "/>
<text text-anchor="middle" x="60" y="-186.5" font-family="Helvetica,sans-Serif" font-size="10.00"> </text>
<polyline fill="none" stroke="black" points="0,-179.5 120,-179.5 "/>
<text text-anchor="start" x="8" y="-167.5" font-family="Helvetica,sans-Serif" font-size="10.00">+ dispatch()</text>
<text text-anchor="start" x="8" y="-156.5" font-family="Helvetica,sans-Serif" font-size="10.00">+ obj_cap()</text>
</a>
</g>
</g>
<!-- Node2&#45;&gt;Node4 -->
<g id="edge3" class="edge">
<title>Node2&#45;&gt;Node4</title>
<path fill="none" stroke="midnightblue" d="M116.31,-294.73C104.85,-273.42 91.53,-248.64 80.72,-228.54"/>
<polygon fill="none" stroke="midnightblue" points="113.28,-296.47 121.1,-303.62 119.44,-293.16 113.28,-296.47"/>
</g>
<!-- Node4&#45;&gt;Node3 -->
<g id="edge4" class="edge">
<title>Node4&#45;&gt;Node3</title>
<path fill="none" stroke="orange" d="M54.9,-139.22C54.97,-125.57 56.51,-110.94 61,-98 63.91,-89.62 68.59,-81.5 73.84,-74.14"/>
<polygon fill="orange" stroke="orange" points="51.4,-139.49 55.1,-149.41 58.4,-139.35 51.4,-139.49"/>
<text text-anchor="middle" x="98" y="-106.5" font-family="Helvetica,sans-Serif" font-size="10.00"> &lt; Irq_object &gt;</text>
</g>
<!-- Node6 -->
<g id="node6" class="node">
<title>Node6</title>
<g id="a_node6"><a xlink:href="structL4_1_1Epiface__t.html" target="_top" xlink:title="Epiface implementation for Kobject&#45;based interface implementations.">
<polygon fill="white" stroke="black" points="232.5,-155 232.5,-223 363.5,-223 363.5,-155 232.5,-155"/>
<text text-anchor="start" x="240.5" y="-211" font-family="Helvetica,sans-Serif" font-size="10.00">L4::Epiface_t&lt; Derived,</text>
<text text-anchor="middle" x="298" y="-200" font-family="Helvetica,sans-Serif" font-size="10.00"> IFACE, BASE, bool &gt;</text>
<polyline fill="none" stroke="black" points="232.5,-193 363.5,-193 "/>
<text text-anchor="middle" x="298" y="-181" font-family="Helvetica,sans-Serif" font-size="10.00"> </text>
<polyline fill="none" stroke="black" points="232.5,-174 363.5,-174 "/>
<text text-anchor="start" x="240.5" y="-162" font-family="Helvetica,sans-Serif" font-size="10.00">+ dispatch()</text>
</a>
</g>
</g>
<!-- Node5&#45;&gt;Node6 -->
<g id="edge6" class="edge">
<title>Node5&#45;&gt;Node6</title>
<path fill="none" stroke="midnightblue" d="M298,-293.37C298,-270.4 298,-243.65 298,-223.12"/>
<polygon fill="none" stroke="midnightblue" points="294.5,-293.62 298,-303.62 301.5,-293.62 294.5,-293.62"/>
</g>
<!-- Node7 -->
<g id="node7" class="node">
<title>Node7</title>
<g id="a_node7"><a xlink:href="structL4_1_1Epiface__t.html" target="_top" xlink:title=" ">
<polygon fill="white" stroke="black" points="374.5,-0.5 374.5,-79.5 519.5,-79.5 519.5,-0.5 374.5,-0.5"/>
<text text-anchor="start" x="382.5" y="-67.5" font-family="Helvetica,sans-Serif" font-size="10.00">L4::Epiface_t&lt; Block</text>
<text text-anchor="start" x="382.5" y="-56.5" font-family="Helvetica,sans-Serif" font-size="10.00">_dev&lt; Ds_data &gt;, L4virtio</text>
<text text-anchor="middle" x="447" y="-45.5" font-family="Helvetica,sans-Serif" font-size="10.00">::Device &gt;</text>
<polyline fill="none" stroke="black" points="374.5,-38.5 519.5,-38.5 "/>
<text text-anchor="middle" x="447" y="-26.5" font-family="Helvetica,sans-Serif" font-size="10.00"> </text>
<polyline fill="none" stroke="black" points="374.5,-19.5 519.5,-19.5 "/>
<text text-anchor="start" x="382.5" y="-7.5" font-family="Helvetica,sans-Serif" font-size="10.00">+ dispatch()</text>
</a>
</g>
</g>
<!-- Node6&#45;&gt;Node7 -->
<g id="edge7" class="edge">
<title>Node6&#45;&gt;Node7</title>
<path fill="none" stroke="orange" d="M314.05,-145.39C321.65,-129.19 331.96,-111.42 345,-98 353.55,-89.2 363.76,-81.38 374.36,-74.56"/>
<polygon fill="orange" stroke="orange" points="310.77,-144.14 309.89,-154.7 317.16,-147 310.77,-144.14"/>
<text text-anchor="start" x="345" y="-112" font-family="Helvetica,sans-Serif" font-size="10.00"> &lt; Block_dev&lt; Ds_data</text>
<text text-anchor="middle" x="403" y="-101" font-family="Helvetica,sans-Serif" font-size="10.00"> &gt;, L4virtio::Device &gt;</text>
</g>
<!-- Node8 -->
<g id="node8" class="node">
<title>Node8</title>
<g id="a_node8"><a xlink:href="structL4_1_1Epiface__t.html" target="_top" xlink:title=" ">
<polygon fill="white" stroke="black" points="221.5,-6 221.5,-74 350.5,-74 350.5,-6 221.5,-6"/>
<text text-anchor="start" x="229.5" y="-62" font-family="Helvetica,sans-Serif" font-size="10.00">L4::Epiface_t&lt; Null</text>
<text text-anchor="middle" x="286" y="-51" font-family="Helvetica,sans-Serif" font-size="10.00">_handler, L4::Kobject &gt;</text>
<polyline fill="none" stroke="black" points="221.5,-44 350.5,-44 "/>
<text text-anchor="middle" x="286" y="-32" font-family="Helvetica,sans-Serif" font-size="10.00"> </text>
<polyline fill="none" stroke="black" points="221.5,-25 350.5,-25 "/>
<text text-anchor="start" x="229.5" y="-13" font-family="Helvetica,sans-Serif" font-size="10.00">+ dispatch()</text>
</a>
</g>
</g>
<!-- Node6&#45;&gt;Node8 -->
<g id="edge8" class="edge">
<title>Node6&#45;&gt;Node8</title>
<path fill="none" stroke="orange" d="M223.71,-155.41C210.19,-146 197.89,-134.3 190,-120 177.74,-97.8 196.96,-79.33 221.34,-65.85"/>
<polygon fill="orange" stroke="orange" points="221.96,-158.45 232.25,-160.98 225.79,-152.59 221.96,-158.45"/>
<text text-anchor="start" x="190" y="-112" font-family="Helvetica,sans-Serif" font-size="10.00"> &lt; Null_handler, L4</text>
<text text-anchor="middle" x="237" y="-101" font-family="Helvetica,sans-Serif" font-size="10.00">::Kobject &gt;</text>
</g>
<!-- Node9&#45;&gt;Node2 -->
<g id="edge13" class="edge">
<title>Node9&#45;&gt;Node2</title>
<path fill="none" stroke="orange" d="M368.59,-465.79C323.11,-457.89 265.23,-443.56 219,-418 202.83,-409.06 187.54,-395.89 174.91,-383.15"/>
<polygon fill="orange" stroke="orange" points="368.24,-469.28 378.68,-467.47 369.39,-462.38 368.24,-469.28"/>
<text text-anchor="middle" x="263.5" y="-410" font-family="Helvetica,sans-Serif" font-size="10.00"> &lt; void, Epiface &gt;</text>
</g>
<!-- Node9&#45;&gt;Node5 -->
<g id="edge15" class="edge">
<title>Node9&#45;&gt;Node5</title>
<path fill="none" stroke="orange" d="M369.63,-454.13C350.54,-445.63 331.58,-433.94 318,-418 309.68,-408.24 304.79,-395.32 301.93,-383.04"/>
<polygon fill="orange" stroke="orange" points="368.41,-457.41 378.99,-458.04 371.11,-450.95 368.41,-457.41"/>
<text text-anchor="middle" x="374" y="-410" font-family="Helvetica,sans-Serif" font-size="10.00"> &lt; IFACE, L4::Epiface &gt;</text>
</g>
<!-- Node9&#45;&gt;Node7 -->
<g id="edge10" class="edge">
<title>Node9&#45;&gt;Node7</title>
<path fill="none" stroke="midnightblue" d="M456.79,-426.24C457.26,-423.47 457.67,-420.7 458,-418 458.59,-413.15 458.06,-411.89 458,-407 456.44,-269.64 457.37,-235.22 451,-98 450.72,-92.05 450.36,-85.76 449.96,-79.62"/>
<polygon fill="none" stroke="midnightblue" points="453.31,-425.81 454.83,-436.29 460.18,-427.14 453.31,-425.81"/>
</g>
<!-- Node9&#45;&gt;Node8 -->
<g id="edge11" class="edge">
<title>Node9&#45;&gt;Node8</title>
<path fill="none" stroke="midnightblue" d="M444.34,-426.2C444.57,-330.06 442.73,-123.27 423,-98 406.39,-76.72 390.07,-90.01 365,-80 360.31,-78.13 355.52,-76.09 350.73,-73.96"/>
<polygon fill="none" stroke="midnightblue" points="440.84,-426.24 444.31,-436.25 447.84,-426.26 440.84,-426.24"/>
</g>
<!-- Node10 -->
<g id="node10" class="node">
<title>Node10</title>
<g id="a_node10"><a xlink:href="structL4_1_1Epiface__t0.html" target="_top" xlink:title=" ">
<polygon fill="white" stroke="black" points="503,-304 503,-383 633,-383 633,-304 503,-304"/>
<text text-anchor="start" x="511" y="-371" font-family="Helvetica,sans-Serif" font-size="10.00">L4::Epiface_t0&lt; void,</text>
<text text-anchor="middle" x="568" y="-360" font-family="Helvetica,sans-Serif" font-size="10.00"> BASE &gt;</text>
<polyline fill="none" stroke="black" points="503,-353 633,-353 "/>
<text text-anchor="middle" x="568" y="-341" font-family="Helvetica,sans-Serif" font-size="10.00"> </text>
<polyline fill="none" stroke="black" points="503,-334 633,-334 "/>
<text text-anchor="start" x="511" y="-322" font-family="Helvetica,sans-Serif" font-size="10.00">+ get_buffer_demand()</text>
<text text-anchor="start" x="511" y="-311" font-family="Helvetica,sans-Serif" font-size="10.00">+ obj_cap()</text>
</a>
</g>
</g>
<!-- Node9&#45;&gt;Node10 -->
<g id="edge12" class="edge">
<title>Node9&#45;&gt;Node10</title>
<path fill="none" stroke="orange" d="M488.08,-428.61C502.15,-413.8 517.56,-397.59 531.06,-383.38"/>
<polygon fill="orange" stroke="orange" points="485.22,-426.54 480.87,-436.2 490.29,-431.36 485.22,-426.54"/>
<text text-anchor="middle" x="545.5" y="-410" font-family="Helvetica,sans-Serif" font-size="10.00"> &lt; void, BASE &gt;</text>
</g>
<!-- Node11 -->
<g id="node11" class="node">
<title>Node11</title>
<g id="a_node11"><a xlink:href="structL4_1_1Epiface__t0.html" target="_top" xlink:title=" ">
<polygon fill="white" stroke="black" points="651,-304 651,-383 781,-383 781,-304 651,-304"/>
<text text-anchor="start" x="659" y="-371" font-family="Helvetica,sans-Serif" font-size="10.00">L4::Epiface_t0&lt; IFACE,</text>
<text text-anchor="middle" x="716" y="-360" font-family="Helvetica,sans-Serif" font-size="10.00"> BASE &gt;</text>
<polyline fill="none" stroke="black" points="651,-353 781,-353 "/>
<text text-anchor="middle" x="716" y="-341" font-family="Helvetica,sans-Serif" font-size="10.00"> </text>
<polyline fill="none" stroke="black" points="651,-334 781,-334 "/>
<text text-anchor="start" x="659" y="-322" font-family="Helvetica,sans-Serif" font-size="10.00">+ get_buffer_demand()</text>
<text text-anchor="start" x="659" y="-311" font-family="Helvetica,sans-Serif" font-size="10.00">+ obj_cap()</text>
</a>
</g>
</g>
<!-- Node9&#45;&gt;Node11 -->
<g id="edge14" class="edge">
<title>Node9&#45;&gt;Node11</title>
<path fill="none" stroke="orange" d="M518.95,-447.61C541.7,-438.75 566.6,-428.48 589,-418 613.32,-406.62 618.71,-402.37 642,-389 645.38,-387.06 648.84,-385.05 652.32,-383.02"/>
<polygon fill="orange" stroke="orange" points="517.41,-444.46 509.34,-451.32 519.93,-450.99 517.41,-444.46"/>
<text text-anchor="middle" x="653.5" y="-410" font-family="Helvetica,sans-Serif" font-size="10.00"> &lt; IFACE, BASE &gt;</text>
</g>
<!-- Node13 -->
<g id="node13" class="node">
<title>Node13</title>
<g id="a_node13"><a xlink:href="structL4_1_1Server__object__t.html" target="_top" xlink:title=" ">
<polygon fill="white" stroke="black" points="737.5,-144 737.5,-234 886.5,-234 886.5,-144 737.5,-144"/>
<text text-anchor="start" x="745.5" y="-222" font-family="Helvetica,sans-Serif" font-size="10.00">L4::Server_object_t</text>
<text text-anchor="middle" x="812" y="-211" font-family="Helvetica,sans-Serif" font-size="10.00">&lt; Kobject &gt;</text>
<polyline fill="none" stroke="black" points="737.5,-204 886.5,-204 "/>
<text text-anchor="middle" x="812" y="-192" font-family="Helvetica,sans-Serif" font-size="10.00"> </text>
<polyline fill="none" stroke="black" points="737.5,-185 886.5,-185 "/>
<text text-anchor="start" x="745.5" y="-173" font-family="Helvetica,sans-Serif" font-size="10.00">+ get_buffer_demand()</text>
<text text-anchor="start" x="745.5" y="-162" font-family="Helvetica,sans-Serif" font-size="10.00">+ dispatch_meta_request()</text>
<text text-anchor="start" x="745.5" y="-151" font-family="Helvetica,sans-Serif" font-size="10.00">+ proto_dispatch()</text>
</a>
</g>
</g>
<!-- Node12&#45;&gt;Node13 -->
<g id="edge17" class="edge">
<title>Node12&#45;&gt;Node13</title>
<path fill="none" stroke="midnightblue" d="M867.59,-429.14C856.48,-417.18 846.04,-403.54 839,-389 815.13,-339.74 810.38,-276.05 810.28,-234.16"/>
<polygon fill="none" stroke="midnightblue" points="865.1,-431.6 874.57,-436.36 870.14,-426.74 865.1,-431.6"/>
</g>
<!-- Node15 -->
<g id="node15" class="node">
<title>Node15</title>
<g id="a_node15"><a xlink:href="structL4_1_1Server__object__t.html" target="_top" xlink:title=" ">
<polygon fill="white" stroke="black" points="904.5,-138.5 904.5,-239.5 1053.5,-239.5 1053.5,-138.5 904.5,-138.5"/>
<text text-anchor="start" x="912.5" y="-227.5" font-family="Helvetica,sans-Serif" font-size="10.00">L4::Server_object_t</text>
<text text-anchor="start" x="912.5" y="-216.5" font-family="Helvetica,sans-Serif" font-size="10.00">&lt; IFACE, L4::Server</text>
<text text-anchor="middle" x="979" y="-205.5" font-family="Helvetica,sans-Serif" font-size="10.00">_object &gt;</text>
<polyline fill="none" stroke="black" points="904.5,-198.5 1053.5,-198.5 "/>
<text text-anchor="middle" x="979" y="-186.5" font-family="Helvetica,sans-Serif" font-size="10.00"> </text>
<polyline fill="none" stroke="black" points="904.5,-179.5 1053.5,-179.5 "/>
<text text-anchor="start" x="912.5" y="-167.5" font-family="Helvetica,sans-Serif" font-size="10.00">+ get_buffer_demand()</text>
<text text-anchor="start" x="912.5" y="-156.5" font-family="Helvetica,sans-Serif" font-size="10.00">+ dispatch_meta_request()</text>
<text text-anchor="start" x="912.5" y="-145.5" font-family="Helvetica,sans-Serif" font-size="10.00">+ proto_dispatch()</text>
</a>
</g>
</g>
<!-- Node12&#45;&gt;Node15 -->
<g id="edge19" class="edge">
<title>Node12&#45;&gt;Node15</title>
<path fill="none" stroke="midnightblue" d="M975.29,-429.13C986.56,-417.1 997.35,-403.42 1005,-389 1032.71,-336.78 1046.16,-314.26 1028,-258 1025.99,-251.77 1023.17,-245.63 1019.89,-239.74"/>
<polygon fill="none" stroke="midnightblue" points="972.68,-426.79 968.23,-436.4 977.71,-431.66 972.68,-426.79"/>
</g>
<!-- Node16 -->
<g id="node16" class="node">
<title>Node16</title>
<g id="a_node16"><a xlink:href="structL4_1_1Server__object__x.html" target="_top" xlink:title="Helper class to implement p_dispatch based server objects.">
<polygon fill="white" stroke="black" points="978,-6 978,-74 1120,-74 1120,-6 978,-6"/>
<text text-anchor="start" x="986" y="-62" font-family="Helvetica,sans-Serif" font-size="10.00">L4::Server_object_x</text>
<text text-anchor="middle" x="1049" y="-51" font-family="Helvetica,sans-Serif" font-size="10.00">&lt; Derived, IFACE, BASE &gt;</text>
<polyline fill="none" stroke="black" points="978,-44 1120,-44 "/>
<text text-anchor="middle" x="1049" y="-32" font-family="Helvetica,sans-Serif" font-size="10.00"> </text>
<polyline fill="none" stroke="black" points="978,-25 1120,-25 "/>
<text text-anchor="start" x="986" y="-13" font-family="Helvetica,sans-Serif" font-size="10.00">+ dispatch()</text>
</a>
</g>
</g>
<!-- Node12&#45;&gt;Node16 -->
<g id="edge24" class="edge">
<title>Node12&#45;&gt;Node16</title>
<path fill="none" stroke="midnightblue" d="M981.28,-443.2C1001.41,-429.31 1021.87,-411.09 1034,-389 1090.47,-286.17 1069.97,-139.34 1056.72,-74.25"/>
<polygon fill="none" stroke="midnightblue" points="979.1,-440.45 972.7,-448.89 982.97,-446.28 979.1,-440.45"/>
</g>
<!-- Node17 -->
<g id="node17" class="node">
<title>Node17</title>
<g id="a_node17"><a xlink:href="structL4_1_1Server__object__t.html" target="_top" xlink:title="Base class (template) for server implementing server objects.">
<polygon fill="white" stroke="black" points="847.5,-298.5 847.5,-388.5 996.5,-388.5 996.5,-298.5 847.5,-298.5"/>
<text text-anchor="start" x="855.5" y="-376.5" font-family="Helvetica,sans-Serif" font-size="10.00">L4::Server_object_t</text>
<text text-anchor="middle" x="922" y="-365.5" font-family="Helvetica,sans-Serif" font-size="10.00">&lt; IFACE, BASE &gt;</text>
<polyline fill="none" stroke="black" points="847.5,-358.5 996.5,-358.5 "/>
<text text-anchor="middle" x="922" y="-346.5" font-family="Helvetica,sans-Serif" font-size="10.00"> </text>
<polyline fill="none" stroke="black" points="847.5,-339.5 996.5,-339.5 "/>
<text text-anchor="start" x="855.5" y="-327.5" font-family="Helvetica,sans-Serif" font-size="10.00">+ get_buffer_demand()</text>
<text text-anchor="start" x="855.5" y="-316.5" font-family="Helvetica,sans-Serif" font-size="10.00">+ dispatch_meta_request()</text>
<text text-anchor="start" x="855.5" y="-305.5" font-family="Helvetica,sans-Serif" font-size="10.00">+ proto_dispatch()</text>
</a>
</g>
</g>
<!-- Node12&#45;&gt;Node17 -->
<g id="edge21" class="edge">
<title>Node12&#45;&gt;Node17</title>
<path fill="none" stroke="midnightblue" d="M922,-426.16C922,-413.93 922,-400.88 922,-388.88"/>
<polygon fill="none" stroke="midnightblue" points="918.5,-426.2 922,-436.2 925.5,-426.2 918.5,-426.2"/>
</g>
<!-- Node14 -->
<g id="node14" class="node">
<title>Node14</title>
<g id="a_node14"><a xlink:href="structL4_1_1Irq__handler__object.html" target="_top" xlink:title="Server object base class for handling IRQ messages.">
<polygon fill="white" stroke="black" points="750,-11.5 750,-68.5 874,-68.5 874,-11.5 750,-11.5"/>
<text text-anchor="middle" x="812" y="-56.5" font-family="Helvetica,sans-Serif" font-size="10.00">L4::Irq_handler_object</text>
<polyline fill="none" stroke="black" points="750,-49.5 874,-49.5 "/>
<text text-anchor="middle" x="812" y="-37.5" font-family="Helvetica,sans-Serif" font-size="10.00"> </text>
<polyline fill="none" stroke="black" points="750,-30.5 874,-30.5 "/>
<text text-anchor="middle" x="812" y="-18.5" font-family="Helvetica,sans-Serif" font-size="10.00"> </text>
</a>
</g>
</g>
<!-- Node13&#45;&gt;Node14 -->
<g id="edge18" class="edge">
<title>Node13&#45;&gt;Node14</title>
<path fill="none" stroke="midnightblue" d="M812,-133.65C812,-111.63 812,-87.13 812,-68.87"/>
<polygon fill="none" stroke="midnightblue" points="808.5,-133.9 812,-143.9 815.5,-133.9 808.5,-133.9"/>
</g>
<!-- Node15&#45;&gt;Node16 -->
<g id="edge20" class="edge">
<title>Node15&#45;&gt;Node16</title>
<path fill="none" stroke="midnightblue" d="M1007.02,-129.16C1015.95,-110.4 1025.51,-90.32 1033.25,-74.07"/>
<polygon fill="none" stroke="midnightblue" points="1003.84,-127.7 1002.7,-138.23 1010.16,-130.71 1003.84,-127.7"/>
</g>
<!-- Node17&#45;&gt;Node13 -->
<g id="edge22" class="edge">
<title>Node17&#45;&gt;Node13</title>
<path fill="none" stroke="orange" d="M868.39,-290.6C865.44,-287.1 862.62,-283.56 860,-280 849.59,-265.89 840.05,-249.24 832.27,-234.11"/>
<polygon fill="orange" stroke="orange" points="865.77,-292.93 874.99,-298.17 871.05,-288.33 865.77,-292.93"/>
<text text-anchor="middle" x="891" y="-266.5" font-family="Helvetica,sans-Serif" font-size="10.00"> &lt; Kobject &gt;</text>
</g>
<!-- Node17&#45;&gt;Node15 -->
<g id="edge23" class="edge">
<title>Node17&#45;&gt;Node15</title>
<path fill="none" stroke="orange" d="M923.69,-288.02C925.15,-277.83 927.45,-267.42 931,-258 933.34,-251.78 936.4,-245.6 939.82,-239.65"/>
<polygon fill="orange" stroke="orange" points="920.2,-287.75 922.5,-298.1 927.15,-288.58 920.2,-287.75"/>
<text text-anchor="start" x="931" y="-272" font-family="Helvetica,sans-Serif" font-size="10.00"> &lt; IFACE, L4::Server</text>
<text text-anchor="middle" x="979.5" y="-261" font-family="Helvetica,sans-Serif" font-size="10.00">_object &gt;</text>
</g>
</g>
</svg>
