<?xml version="1.0" encoding="UTF-8" standalone="no"?>
<!DOCTYPE svg PUBLIC "-//W3C//DTD SVG 1.1//EN"
 "http://www.w3.org/Graphics/SVG/1.1/DTD/svg11.dtd">
<!-- Generated by graphviz version 2.43.0 (0)
 -->
<!-- Title: L4::Type_info::Demand_t&lt; CAPS, FLAGS, MEM, PORTS &gt; Pages: 1 -->
<svg width="292pt" height="719pt"
 viewBox="0.00 0.00 292.00 719.00" xmlns="http://www.w3.org/2000/svg" xmlns:xlink="http://www.w3.org/1999/xlink">
<g id="graph0" class="graph" transform="scale(1 1) rotate(0) translate(4 715)">
<title>L4::Type_info::Demand_t&lt; CAPS, FLAGS, MEM, PORTS &gt;</title>
<polygon fill="white" stroke="transparent" points="-4,4 -4,-715 288,-715 288,4 -4,4"/>
<!-- Node1 -->
<g id="node1" class="node">
<title>Node1</title>
<g id="a_node1"><a xlink:title="Template type statically describing demand of receive buffers.">
<polygon fill="#bfbfbf" stroke="black" points="18,-481.5 18,-560.5 152,-560.5 152,-481.5 18,-481.5"/>
<text text-anchor="start" x="26" y="-548.5" font-family="Helvetica,sans-Serif" font-size="10.00">L4::Type_info::Demand</text>
<text text-anchor="start" x="26" y="-537.5" font-family="Helvetica,sans-Serif" font-size="10.00">_t&lt; CAPS, FLAGS, MEM,</text>
<text text-anchor="middle" x="85" y="-526.5" font-family="Helvetica,sans-Serif" font-size="10.00"> PORTS &gt;</text>
<polyline fill="none" stroke="black" points="18,-519.5 152,-519.5 "/>
<text text-anchor="middle" x="85" y="-507.5" font-family="Helvetica,sans-Serif" font-size="10.00"> </text>
<polyline fill="none" stroke="black" points="18,-500.5 152,-500.5 "/>
<text text-anchor="start" x="26" y="-488.5" font-family="Helvetica,sans-Serif" font-size="10.00">+ Demand_t()</text>
</a>
</g>
</g>
<!-- Node3 -->
<g id="node3" class="node">
<title>Node3</title>
<g id="a_node3"><a xlink:href="structL4_1_1Type__info_1_1Demand__t.html" target="_top" xlink:title=" ">
<polygon fill="white" stroke="black" points="0,-266.5 0,-378.5 170,-378.5 170,-266.5 0,-266.5"/>
<text text-anchor="start" x="8" y="-366.5" font-family="Helvetica,sans-Serif" font-size="10.00">L4::Type_info::Demand</text>
<text text-anchor="start" x="8" y="-355.5" font-family="Helvetica,sans-Serif" font-size="10.00">_t&lt; __I::Max&lt; D1::Caps,</text>
<text text-anchor="start" x="8" y="-344.5" font-family="Helvetica,sans-Serif" font-size="10.00"> D2::Caps &gt;::Res, D1::Flags|</text>
<text text-anchor="start" x="8" y="-333.5" font-family="Helvetica,sans-Serif" font-size="10.00">D2::Flags, __I::Max&lt; D1::Mem,</text>
<text text-anchor="start" x="8" y="-322.5" font-family="Helvetica,sans-Serif" font-size="10.00"> D2::Mem &gt;::Res, __I::Max&lt; D1</text>
<text text-anchor="middle" x="85" y="-311.5" font-family="Helvetica,sans-Serif" font-size="10.00">::Ports, D2::Ports &gt;::Res &gt;</text>
<polyline fill="none" stroke="black" points="0,-304.5 170,-304.5 "/>
<text text-anchor="middle" x="85" y="-292.5" font-family="Helvetica,sans-Serif" font-size="10.00"> </text>
<polyline fill="none" stroke="black" points="0,-285.5 170,-285.5 "/>
<text text-anchor="start" x="8" y="-273.5" font-family="Helvetica,sans-Serif" font-size="10.00">+ Demand_t()</text>
</a>
</g>
</g>
<!-- Node1&#45;&gt;Node3 -->
<g id="edge2" class="edge">
<title>Node1&#45;&gt;Node3</title>
<path fill="none" stroke="orange" d="M85,-470.81C85,-442.78 85,-407.57 85,-378.61"/>
<polygon fill="orange" stroke="orange" points="81.5,-471.18 85,-481.18 88.5,-471.18 81.5,-471.18"/>
<text text-anchor="start" x="85" y="-455" font-family="Helvetica,sans-Serif" font-size="10.00"> &lt; __I::Max&lt; D1::Caps,</text>
<text text-anchor="start" x="85" y="-444" font-family="Helvetica,sans-Serif" font-size="10.00"> D2::Caps &gt;::Res, D1</text>
<text text-anchor="start" x="85" y="-433" font-family="Helvetica,sans-Serif" font-size="10.00">::Flags|D2::Flags, __I</text>
<text text-anchor="start" x="85" y="-422" font-family="Helvetica,sans-Serif" font-size="10.00">::Max&lt; D1::Mem, D2::Mem</text>
<text text-anchor="start" x="85" y="-411" font-family="Helvetica,sans-Serif" font-size="10.00"> &gt;::Res, __I::Max&lt; D1::Ports,</text>
<text text-anchor="middle" x="155.5" y="-400" font-family="Helvetica,sans-Serif" font-size="10.00"> D2::Ports &gt;::Res &gt;</text>
</g>
<!-- Node2 -->
<g id="node2" class="node">
<title>Node2</title>
<g id="a_node2"><a xlink:href="classL4_1_1Type__info_1_1Demand.html" target="_top" xlink:title="Data type for expressing the needed receive buffers at the server&#45;side of an interface.">
<polygon fill="white" stroke="black" points="21,-598.5 21,-710.5 149,-710.5 149,-598.5 21,-598.5"/>
<text text-anchor="middle" x="85" y="-698.5" font-family="Helvetica,sans-Serif" font-size="10.00">L4::Type_info::Demand</text>
<polyline fill="none" stroke="black" points="21,-691.5 149,-691.5 "/>
<text text-anchor="start" x="29" y="-679.5" font-family="Helvetica,sans-Serif" font-size="10.00">+ caps</text>
<text text-anchor="start" x="29" y="-668.5" font-family="Helvetica,sans-Serif" font-size="10.00">+ flags</text>
<text text-anchor="start" x="29" y="-657.5" font-family="Helvetica,sans-Serif" font-size="10.00">+ mem</text>
<text text-anchor="start" x="29" y="-646.5" font-family="Helvetica,sans-Serif" font-size="10.00">+ ports</text>
<polyline fill="none" stroke="black" points="21,-639.5 149,-639.5 "/>
<text text-anchor="start" x="29" y="-627.5" font-family="Helvetica,sans-Serif" font-size="10.00">+ Demand()</text>
<text text-anchor="start" x="29" y="-616.5" font-family="Helvetica,sans-Serif" font-size="10.00">+ no_demand()</text>
<text text-anchor="start" x="29" y="-605.5" font-family="Helvetica,sans-Serif" font-size="10.00">+ operator|()</text>
</a>
</g>
</g>
<!-- Node2&#45;&gt;Node1 -->
<g id="edge1" class="edge">
<title>Node2&#45;&gt;Node1</title>
<path fill="none" stroke="midnightblue" d="M85,-588.32C85,-578.9 85,-569.47 85,-560.8"/>
<polygon fill="none" stroke="midnightblue" points="81.5,-588.49 85,-598.49 88.5,-588.49 81.5,-588.49"/>
</g>
<!-- Node4 -->
<g id="node4" class="node">
<title>Node4</title>
<g id="a_node4"><a xlink:href="structL4_1_1Type__info_1_1Demand__union__t.html" target="_top" xlink:title=" ">
<polygon fill="white" stroke="black" points="18.5,-0.5 18.5,-90.5 159.5,-90.5 159.5,-0.5 18.5,-0.5"/>
<text text-anchor="start" x="26.5" y="-78.5" font-family="Helvetica,sans-Serif" font-size="10.00">L4::Type_info::Demand</text>
<text text-anchor="start" x="26.5" y="-67.5" font-family="Helvetica,sans-Serif" font-size="10.00">_union_t&lt; Kobject_typeid</text>
<text text-anchor="start" x="26.5" y="-56.5" font-family="Helvetica,sans-Serif" font-size="10.00">&lt; T1 &gt;::Demand, Kobject</text>
<text text-anchor="middle" x="89" y="-45.5" font-family="Helvetica,sans-Serif" font-size="10.00">_demand&lt; T2... &gt; &gt;</text>
<polyline fill="none" stroke="black" points="18.5,-38.5 159.5,-38.5 "/>
<text text-anchor="middle" x="89" y="-26.5" font-family="Helvetica,sans-Serif" font-size="10.00"> </text>
<polyline fill="none" stroke="black" points="18.5,-19.5 159.5,-19.5 "/>
<text text-anchor="middle" x="89" y="-7.5" font-family="Helvetica,sans-Serif" font-size="10.00"> </text>
</a>
</g>
</g>
<!-- Node3&#45;&gt;Node4 -->
<g id="edge3" class="edge">
<title>Node3&#45;&gt;Node4</title>
<path fill="none" stroke="midnightblue" d="M85.95,-255.91C86.7,-204.9 87.71,-135.51 88.35,-90.85"/>
<polygon fill="none" stroke="midnightblue" points="82.45,-256.13 85.8,-266.18 89.45,-256.23 82.45,-256.13"/>
</g>
<!-- Node5 -->
<g id="node5" class="node">
<title>Node5</title>
<g id="a_node5"><a xlink:href="structL4_1_1Type__info_1_1Demand__union__t.html" target="_top" xlink:title="Template type statically describing the combination of two Demand object.">
<polygon fill="white" stroke="black" points="101,-160.5 101,-228.5 229,-228.5 229,-160.5 101,-160.5"/>
<text text-anchor="start" x="109" y="-216.5" font-family="Helvetica,sans-Serif" font-size="10.00">L4::Type_info::Demand</text>
<text text-anchor="middle" x="165" y="-205.5" font-family="Helvetica,sans-Serif" font-size="10.00">_union_t&lt; D1, D2 &gt;</text>
<polyline fill="none" stroke="black" points="101,-198.5 229,-198.5 "/>
<text text-anchor="middle" x="165" y="-186.5" font-family="Helvetica,sans-Serif" font-size="10.00"> </text>
<polyline fill="none" stroke="black" points="101,-179.5 229,-179.5 "/>
<text text-anchor="middle" x="165" y="-167.5" font-family="Helvetica,sans-Serif" font-size="10.00"> </text>
</a>
</g>
</g>
<!-- Node3&#45;&gt;Node5 -->
<g id="edge4" class="edge">
<title>Node3&#45;&gt;Node5</title>
<path fill="none" stroke="midnightblue" d="M125.46,-257.78C131.86,-247.69 138.25,-237.62 143.97,-228.62"/>
<polygon fill="none" stroke="midnightblue" points="122.49,-255.92 120.09,-266.23 128.4,-259.67 122.49,-255.92"/>
</g>
<!-- Node5&#45;&gt;Node4 -->
<g id="edge5" class="edge">
<title>Node5&#45;&gt;Node4</title>
<path fill="none" stroke="orange" d="M143.09,-151.13C133.28,-132.15 121.71,-109.78 111.8,-90.6"/>
<polygon fill="orange" stroke="orange" points="140.05,-152.87 147.75,-160.14 146.27,-149.65 140.05,-152.87"/>
<text text-anchor="start" x="138" y="-134" font-family="Helvetica,sans-Serif" font-size="10.00"> &lt; Kobject_typeid&lt; T1</text>
<text text-anchor="start" x="138" y="-123" font-family="Helvetica,sans-Serif" font-size="10.00"> &gt;::Demand, Kobject_demand</text>
<text text-anchor="middle" x="211" y="-112" font-family="Helvetica,sans-Serif" font-size="10.00">&lt; T2... &gt; &gt;</text>
</g>
</g>
</svg>
