<?xml version="1.0" encoding="UTF-8" standalone="no"?>
<!DOCTYPE svg PUBLIC "-//W3C//DTD SVG 1.1//EN"
 "http://www.w3.org/Graphics/SVG/1.1/DTD/svg11.dtd">
<!-- Generated by graphviz version 2.43.0 (0)
 -->
<!-- Title: l4/sys/assert.h Pages: 1 -->
<svg width="578pt" height="420pt"
 viewBox="0.00 0.00 578.42 420.00" xmlns="http://www.w3.org/2000/svg" xmlns:xlink="http://www.w3.org/1999/xlink">
<g id="graph0" class="graph" transform="scale(1 1) rotate(0) translate(4 416)">
<title>l4/sys/assert.h</title>
<polygon fill="white" stroke="transparent" points="-4,4 -4,-416 574.42,-416 574.42,4 -4,4"/>
<!-- Node1 -->
<g id="node1" class="node">
<title>Node1</title>
<g id="a_node1"><a xlink:title="Low&#45;level assert implementation.">
<polygon fill="#bfbfbf" stroke="black" points="458.92,-392.5 458.92,-411.5 545.92,-411.5 545.92,-392.5 458.92,-392.5"/>
<text text-anchor="middle" x="502.42" y="-399.5" font-family="Helvetica,sans-Serif" font-size="10.00">l4/sys/assert.h</text>
</a>
</g>
</g>
<!-- Node2 -->
<g id="node2" class="node">
<title>Node2</title>
<g id="a_node2"><a xlink:href="compiler_8h.html" target="_top" xlink:title="L4 compiler related defines.">
<polygon fill="white" stroke="black" points="391.92,-56.5 391.92,-75.5 490.92,-75.5 490.92,-56.5 391.92,-56.5"/>
<text text-anchor="middle" x="441.42" y="-63.5" font-family="Helvetica,sans-Serif" font-size="10.00">l4/sys/compiler.h</text>
</a>
</g>
</g>
<!-- Node1&#45;&gt;Node2 -->
<g id="edge1" class="edge">
<title>Node1&#45;&gt;Node2</title>
<path fill="none" stroke="midnightblue" d="M515.09,-392.46C526.21,-384.32 542.03,-371.11 551.42,-356 567.31,-330.44 570.42,-321.1 570.42,-291 570.42,-291 570.42,-291 570.42,-177 570.42,-127.35 514.4,-95.37 476.2,-79.33"/>
<polygon fill="midnightblue" stroke="midnightblue" points="477.49,-76.08 466.91,-75.59 474.88,-82.57 477.49,-76.08"/>
</g>
<!-- Node4 -->
<g id="node4" class="node">
<title>Node4</title>
<g id="a_node4"><a xlink:href="l4_2sys_2thread_8h.html" target="_top" xlink:title="Common thread related definitions.">
<polygon fill="white" stroke="black" points="354.92,-336.5 354.92,-355.5 443.92,-355.5 443.92,-336.5 354.92,-336.5"/>
<text text-anchor="middle" x="399.42" y="-343.5" font-family="Helvetica,sans-Serif" font-size="10.00">l4/sys/thread.h</text>
</a>
</g>
</g>
<!-- Node1&#45;&gt;Node4 -->
<g id="edge3" class="edge">
<title>Node1&#45;&gt;Node4</title>
<path fill="none" stroke="midnightblue" d="M485.88,-392.32C469.43,-383.7 443.99,-370.36 424.96,-360.39"/>
<polygon fill="midnightblue" stroke="midnightblue" points="426.41,-357.2 415.93,-355.65 423.16,-363.4 426.41,-357.2"/>
</g>
<!-- Node13 -->
<g id="node13" class="node">
<title>Node13</title>
<g id="a_node13"><a xlink:href="vcon_8h.html" target="_top" xlink:title="Virtual console interface.">
<polygon fill="white" stroke="black" points="462.42,-336.5 462.42,-355.5 542.42,-355.5 542.42,-336.5 462.42,-336.5"/>
<text text-anchor="middle" x="502.42" y="-343.5" font-family="Helvetica,sans-Serif" font-size="10.00">l4/sys/vcon.h</text>
</a>
</g>
</g>
<!-- Node1&#45;&gt;Node13 -->
<g id="edge23" class="edge">
<title>Node1&#45;&gt;Node13</title>
<path fill="none" stroke="midnightblue" d="M502.42,-392.08C502.42,-385.01 502.42,-374.86 502.42,-365.99"/>
<polygon fill="midnightblue" stroke="midnightblue" points="505.93,-365.75 502.42,-355.75 498.93,-365.75 505.93,-365.75"/>
</g>
<!-- Node3 -->
<g id="node3" class="node">
<title>Node3</title>
<g id="a_node3"><a xlink:title=" ">
<polygon fill="white" stroke="#bfbfbf" points="395.42,-0.5 395.42,-19.5 487.42,-19.5 487.42,-0.5 395.42,-0.5"/>
<text text-anchor="middle" x="441.42" y="-7.5" font-family="Helvetica,sans-Serif" font-size="10.00">l4/sys/linkage.h</text>
</a>
</g>
</g>
<!-- Node2&#45;&gt;Node3 -->
<g id="edge2" class="edge">
<title>Node2&#45;&gt;Node3</title>
<path fill="none" stroke="midnightblue" d="M441.42,-56.08C441.42,-49.01 441.42,-38.86 441.42,-29.99"/>
<polygon fill="midnightblue" stroke="midnightblue" points="444.93,-29.75 441.42,-19.75 437.93,-29.75 444.93,-29.75"/>
</g>
<!-- Node5 -->
<g id="node5" class="node">
<title>Node5</title>
<g id="a_node5"><a xlink:href="l4_2sys_2types_8h.html" target="_top" xlink:title="Common L4 ABI Data Types.">
<polygon fill="white" stroke="black" points="294.42,-168.5 294.42,-187.5 378.42,-187.5 378.42,-168.5 294.42,-168.5"/>
<text text-anchor="middle" x="336.42" y="-175.5" font-family="Helvetica,sans-Serif" font-size="10.00">l4/sys/types.h</text>
</a>
</g>
</g>
<!-- Node4&#45;&gt;Node5 -->
<g id="edge4" class="edge">
<title>Node4&#45;&gt;Node5</title>
<path fill="none" stroke="midnightblue" d="M394.84,-336.29C385.91,-319.06 365.95,-279.22 353.42,-244 347.99,-228.7 343.43,-210.82 340.41,-197.69"/>
<polygon fill="midnightblue" stroke="midnightblue" points="343.75,-196.56 338.17,-187.55 336.92,-198.07 343.75,-196.56"/>
</g>
<!-- Node10 -->
<g id="node10" class="node">
<title>Node10</title>
<g id="a_node10"><a xlink:href="l4_2sys_2utcb_8h.html" target="_top" xlink:title="UTCB definitions.">
<polygon fill="white" stroke="black" points="362.42,-224.5 362.42,-243.5 440.42,-243.5 440.42,-224.5 362.42,-224.5"/>
<text text-anchor="middle" x="401.42" y="-231.5" font-family="Helvetica,sans-Serif" font-size="10.00">l4/sys/utcb.h</text>
</a>
</g>
</g>
<!-- Node4&#45;&gt;Node10 -->
<g id="edge14" class="edge">
<title>Node4&#45;&gt;Node10</title>
<path fill="none" stroke="midnightblue" d="M399.58,-336.37C399.9,-318.62 400.65,-277.67 401.09,-253.6"/>
<polygon fill="midnightblue" stroke="midnightblue" points="404.59,-253.65 401.27,-243.59 397.59,-253.53 404.59,-253.65"/>
</g>
<!-- Node11 -->
<g id="node11" class="node">
<title>Node11</title>
<g id="a_node11"><a xlink:href="l4_2sys_2ipc_8h.html" target="_top" xlink:title="Common IPC interface.">
<polygon fill="white" stroke="black" points="432.92,-280.5 432.92,-299.5 503.92,-299.5 503.92,-280.5 432.92,-280.5"/>
<text text-anchor="middle" x="468.42" y="-287.5" font-family="Helvetica,sans-Serif" font-size="10.00">l4/sys/ipc.h</text>
</a>
</g>
</g>
<!-- Node4&#45;&gt;Node11 -->
<g id="edge18" class="edge">
<title>Node4&#45;&gt;Node11</title>
<path fill="none" stroke="midnightblue" d="M410.51,-336.32C420.91,-328.18 436.69,-315.84 449.15,-306.09"/>
<polygon fill="midnightblue" stroke="midnightblue" points="451.42,-308.75 457.14,-299.83 447.11,-303.24 451.42,-308.75"/>
</g>
<!-- Node5&#45;&gt;Node2 -->
<g id="edge6" class="edge">
<title>Node5&#45;&gt;Node2</title>
<path fill="none" stroke="midnightblue" d="M353.39,-168.44C367.96,-160.48 388.84,-147.52 403.42,-132 416.41,-118.18 426.87,-99.16 433.51,-85.26"/>
<polygon fill="midnightblue" stroke="midnightblue" points="436.86,-86.36 437.82,-75.81 430.49,-83.46 436.86,-86.36"/>
</g>
<!-- Node6 -->
<g id="node6" class="node">
<title>Node6</title>
<g id="a_node6"><a xlink:href="l4_2sys_2l4int_8h.html" target="_top" xlink:title="Fixed sized integer types, generic version.">
<polygon fill="white" stroke="black" points="68.92,-56.5 68.92,-75.5 147.92,-75.5 147.92,-56.5 68.92,-56.5"/>
<text text-anchor="middle" x="108.42" y="-63.5" font-family="Helvetica,sans-Serif" font-size="10.00">l4/sys/l4int.h</text>
</a>
</g>
</g>
<!-- Node5&#45;&gt;Node6 -->
<g id="edge5" class="edge">
<title>Node5&#45;&gt;Node6</title>
<path fill="none" stroke="midnightblue" d="M294.22,-172.53C258.34,-167.22 206.58,-155.85 167.42,-132 147.38,-119.79 130.09,-98.74 119.51,-83.91"/>
<polygon fill="midnightblue" stroke="midnightblue" points="122.36,-81.88 113.82,-75.61 116.59,-85.84 122.36,-81.88"/>
</g>
<!-- Node7 -->
<g id="node7" class="node">
<title>Node7</title>
<g id="a_node7"><a xlink:href="l4_2sys_2consts_8h.html" target="_top" xlink:title="Common constants.">
<polygon fill="white" stroke="black" points="176.92,-112.5 176.92,-131.5 265.92,-131.5 265.92,-112.5 176.92,-112.5"/>
<text text-anchor="middle" x="221.42" y="-119.5" font-family="Helvetica,sans-Serif" font-size="10.00">l4/sys/consts.h</text>
</a>
</g>
</g>
<!-- Node5&#45;&gt;Node7 -->
<g id="edge7" class="edge">
<title>Node5&#45;&gt;Node7</title>
<path fill="none" stroke="midnightblue" d="M318.2,-168.44C299.53,-159.68 270.27,-145.94 248.81,-135.86"/>
<polygon fill="midnightblue" stroke="midnightblue" points="250.1,-132.6 239.56,-131.52 247.13,-138.93 250.1,-132.6"/>
</g>
<!-- Node8 -->
<g id="node8" class="node">
<title>Node8</title>
<g id="a_node8"><a xlink:href="____l4__fpage_8h_source.html" target="_top" xlink:title=" ">
<polygon fill="white" stroke="black" points="284.42,-112.5 284.42,-131.5 394.42,-131.5 394.42,-112.5 284.42,-112.5"/>
<text text-anchor="middle" x="339.42" y="-119.5" font-family="Helvetica,sans-Serif" font-size="10.00">l4/sys/__l4_fpage.h</text>
</a>
</g>
</g>
<!-- Node5&#45;&gt;Node8 -->
<g id="edge10" class="edge">
<title>Node5&#45;&gt;Node8</title>
<path fill="none" stroke="midnightblue" d="M336.92,-168.08C337.31,-161.01 337.88,-150.86 338.37,-141.99"/>
<polygon fill="midnightblue" stroke="midnightblue" points="341.88,-141.93 338.94,-131.75 334.89,-141.54 341.88,-141.93"/>
</g>
<!-- Node9 -->
<g id="node9" class="node">
<title>Node9</title>
<g id="a_node9"><a xlink:href="____timeout_8h_source.html" target="_top" xlink:title=" ">
<polygon fill="white" stroke="black" points="14.42,-112.5 14.42,-131.5 120.42,-131.5 120.42,-112.5 14.42,-112.5"/>
<text text-anchor="middle" x="67.42" y="-119.5" font-family="Helvetica,sans-Serif" font-size="10.00">l4/sys/__timeout.h</text>
</a>
</g>
</g>
<!-- Node5&#45;&gt;Node9 -->
<g id="edge12" class="edge">
<title>Node5&#45;&gt;Node9</title>
<path fill="none" stroke="midnightblue" d="M294.39,-168.56C247.29,-159.11 170.87,-143.77 119.89,-133.53"/>
<polygon fill="midnightblue" stroke="midnightblue" points="120.54,-130.09 110.05,-131.56 119.16,-136.96 120.54,-130.09"/>
</g>
<!-- Node7&#45;&gt;Node2 -->
<g id="edge8" class="edge">
<title>Node7&#45;&gt;Node2</title>
<path fill="none" stroke="midnightblue" d="M256.28,-112.44C294.34,-103.1 355.38,-88.12 396.88,-77.93"/>
<polygon fill="midnightblue" stroke="midnightblue" points="397.85,-81.3 406.73,-75.52 396.18,-74.5 397.85,-81.3"/>
</g>
<!-- Node7&#45;&gt;Node6 -->
<g id="edge9" class="edge">
<title>Node7&#45;&gt;Node6</title>
<path fill="none" stroke="midnightblue" d="M203.52,-112.44C185.17,-103.68 156.42,-89.94 135.33,-79.86"/>
<polygon fill="midnightblue" stroke="midnightblue" points="136.78,-76.67 126.25,-75.52 133.76,-82.99 136.78,-76.67"/>
</g>
<!-- Node8&#45;&gt;Node2 -->
<g id="edge11" class="edge">
<title>Node8&#45;&gt;Node2</title>
<path fill="none" stroke="midnightblue" d="M355.81,-112.32C372.1,-103.7 397.29,-90.36 416.14,-80.39"/>
<polygon fill="midnightblue" stroke="midnightblue" points="417.88,-83.43 425.08,-75.65 414.6,-77.24 417.88,-83.43"/>
</g>
<!-- Node9&#45;&gt;Node6 -->
<g id="edge13" class="edge">
<title>Node9&#45;&gt;Node6</title>
<path fill="none" stroke="midnightblue" d="M74.2,-112.08C79.99,-104.46 88.48,-93.26 95.56,-83.94"/>
<polygon fill="midnightblue" stroke="midnightblue" points="98.52,-85.83 101.78,-75.75 92.95,-81.6 98.52,-85.83"/>
</g>
<!-- Node10&#45;&gt;Node2 -->
<g id="edge16" class="edge">
<title>Node10&#45;&gt;Node2</title>
<path fill="none" stroke="midnightblue" d="M403.58,-224.08C409.87,-197.95 428.36,-121.21 436.95,-85.58"/>
<polygon fill="midnightblue" stroke="midnightblue" points="440.42,-86.11 439.36,-75.57 433.62,-84.47 440.42,-86.11"/>
</g>
<!-- Node10&#45;&gt;Node5 -->
<g id="edge15" class="edge">
<title>Node10&#45;&gt;Node5</title>
<path fill="none" stroke="midnightblue" d="M390.98,-224.32C381.28,-216.26 366.61,-204.08 354.93,-194.37"/>
<polygon fill="midnightblue" stroke="midnightblue" points="356.99,-191.53 347.06,-187.83 352.51,-196.92 356.99,-191.53"/>
</g>
<!-- Node10&#45;&gt;Node6 -->
<g id="edge17" class="edge">
<title>Node10&#45;&gt;Node6</title>
<path fill="none" stroke="midnightblue" d="M362.21,-229.01C271.08,-218.83 49.45,-188.66 5.42,-132 -14.02,-106.97 24.62,-88.97 60,-78.34"/>
<polygon fill="midnightblue" stroke="midnightblue" points="61.18,-81.64 69.84,-75.54 59.26,-74.91 61.18,-81.64"/>
</g>
<!-- Node11&#45;&gt;Node5 -->
<g id="edge19" class="edge">
<title>Node11&#45;&gt;Node5</title>
<path fill="none" stroke="midnightblue" d="M468.22,-280.26C467.43,-266.58 463.98,-240 449.42,-224 433.47,-206.46 409.77,-195.65 388.18,-189.04"/>
<polygon fill="midnightblue" stroke="midnightblue" points="389.03,-185.64 378.45,-186.29 387.12,-192.37 389.03,-185.64"/>
</g>
<!-- Node11&#45;&gt;Node10 -->
<g id="edge20" class="edge">
<title>Node11&#45;&gt;Node10</title>
<path fill="none" stroke="midnightblue" d="M457.66,-280.32C447.66,-272.26 432.54,-260.08 420.49,-250.37"/>
<polygon fill="midnightblue" stroke="midnightblue" points="422.37,-247.38 412.39,-243.83 417.98,-252.83 422.37,-247.38"/>
</g>
<!-- Node12 -->
<g id="node12" class="node">
<title>Node12</title>
<g id="a_node12"><a xlink:href="err_8h.html" target="_top" xlink:title="Error codes.">
<polygon fill="white" stroke="black" points="472.42,-168.5 472.42,-187.5 542.42,-187.5 542.42,-168.5 472.42,-168.5"/>
<text text-anchor="middle" x="507.42" y="-175.5" font-family="Helvetica,sans-Serif" font-size="10.00">l4/sys/err.h</text>
</a>
</g>
</g>
<!-- Node11&#45;&gt;Node12 -->
<g id="edge21" class="edge">
<title>Node11&#45;&gt;Node12</title>
<path fill="none" stroke="midnightblue" d="M471.49,-280.37C477.81,-262.54 492.43,-221.3 500.95,-197.27"/>
<polygon fill="midnightblue" stroke="midnightblue" points="504.34,-198.19 504.38,-187.59 497.74,-195.85 504.34,-198.19"/>
</g>
<!-- Node12&#45;&gt;Node2 -->
<g id="edge22" class="edge">
<title>Node12&#45;&gt;Node2</title>
<path fill="none" stroke="midnightblue" d="M503.58,-168.35C497.82,-155.66 486.36,-131.41 474.42,-112 468.46,-102.3 461.02,-92.03 454.72,-83.75"/>
<polygon fill="midnightblue" stroke="midnightblue" points="457.34,-81.42 448.44,-75.67 451.81,-85.71 457.34,-81.42"/>
</g>
<!-- Node13&#45;&gt;Node11 -->
<g id="edge24" class="edge">
<title>Node13&#45;&gt;Node11</title>
<path fill="none" stroke="midnightblue" d="M496.81,-336.08C492.06,-328.53 485.11,-317.49 479.27,-308.23"/>
<polygon fill="midnightblue" stroke="midnightblue" points="482.22,-306.35 473.93,-299.75 476.3,-310.08 482.22,-306.35"/>
</g>
</g>
</svg>
