<?xml version="1.0" encoding="UTF-8" standalone="no"?>
<!DOCTYPE svg PUBLIC "-//W3C//DTD SVG 1.1//EN"
 "http://www.w3.org/Graphics/SVG/1.1/DTD/svg11.dtd">
<!-- Generated by graphviz version 2.43.0 (0)
 -->
<!-- Title: arm/l4f/l4/sys/syscall_defs.h Pages: 1 -->
<svg width="384pt" height="95pt"
 viewBox="0.00 0.00 384.00 95.00" xmlns="http://www.w3.org/2000/svg" xmlns:xlink="http://www.w3.org/1999/xlink">
<g id="graph0" class="graph" transform="scale(1 1) rotate(0) translate(4 91)">
<title>arm/l4f/l4/sys/syscall_defs.h</title>
<polygon fill="white" stroke="transparent" points="-4,4 -4,-91 380,-91 380,4 -4,4"/>
<!-- Node1 -->
<g id="node1" class="node">
<title>Node1</title>
<g id="a_node1"><a xlink:title="Syscall entry definitions.">
<polygon fill="#bfbfbf" stroke="black" points="122,-56.5 122,-86.5 242,-86.5 242,-56.5 122,-56.5"/>
<text text-anchor="start" x="130" y="-74.5" font-family="Helvetica,sans-Serif" font-size="10.00">arm/l4f/l4/sys/syscall</text>
<text text-anchor="middle" x="182" y="-63.5" font-family="Helvetica,sans-Serif" font-size="10.00">_defs.h</text>
</a>
</g>
</g>
<!-- Node2 -->
<g id="node2" class="node">
<title>Node2</title>
<g id="a_node2"><a xlink:href="arm_2l4f_2l4_2sys_2ipc_8h.html" target="_top" xlink:title="L4 IPC System Calls, ARM.">
<polygon fill="white" stroke="black" points="0,-0.5 0,-19.5 110,-19.5 110,-0.5 0,-0.5"/>
<text text-anchor="middle" x="55" y="-7.5" font-family="Helvetica,sans-Serif" font-size="10.00">arm/l4f/l4/sys/ipc.h</text>
</a>
</g>
</g>
<!-- Node1&#45;&gt;Node2 -->
<g id="edge1" class="edge">
<title>Node1&#45;&gt;Node2</title>
<path fill="none" stroke="midnightblue" d="M142.69,-52.08C119.62,-41.28 91.55,-28.12 73.48,-19.66"/>
<polygon fill="midnightblue" stroke="midnightblue" points="141.36,-55.33 151.9,-56.4 144.33,-48.99 141.36,-55.33"/>
</g>
<!-- Node3 -->
<g id="node3" class="node">
<title>Node3</title>
<g id="a_node3"><a xlink:href="arm_2l4_2sys_2cache_8h.html" target="_top" xlink:title="Cache functions.">
<polygon fill="white" stroke="black" points="128,-0.5 128,-19.5 236,-19.5 236,-0.5 128,-0.5"/>
<text text-anchor="middle" x="182" y="-7.5" font-family="Helvetica,sans-Serif" font-size="10.00">arm/l4/sys/cache.h</text>
</a>
</g>
</g>
<!-- Node1&#45;&gt;Node3 -->
<g id="edge2" class="edge">
<title>Node1&#45;&gt;Node3</title>
<path fill="none" stroke="midnightblue" d="M182,-46.29C182,-36.86 182,-26.65 182,-19.66"/>
<polygon fill="midnightblue" stroke="midnightblue" points="178.5,-46.4 182,-56.4 185.5,-46.4 178.5,-46.4"/>
</g>
<!-- Node4 -->
<g id="node4" class="node">
<title>Node4</title>
<g id="a_node4"><a xlink:href="mem__op_8h.html" target="_top" xlink:title="Memory access functions (ARM specific)">
<polygon fill="white" stroke="black" points="254,-0.5 254,-19.5 376,-19.5 376,-0.5 254,-0.5"/>
<text text-anchor="middle" x="315" y="-7.5" font-family="Helvetica,sans-Serif" font-size="10.00">arm/l4/sys/mem_op.h</text>
</a>
</g>
</g>
<!-- Node1&#45;&gt;Node4 -->
<g id="edge3" class="edge">
<title>Node1&#45;&gt;Node4</title>
<path fill="none" stroke="midnightblue" d="M222.84,-52.23C247.06,-41.39 276.64,-28.16 295.65,-19.66"/>
<polygon fill="midnightblue" stroke="midnightblue" points="221.22,-49.12 213.52,-56.4 224.08,-55.51 221.22,-49.12"/>
</g>
</g>
</svg>
