<?xml version="1.0" encoding="UTF-8" standalone="no"?>
<!DOCTYPE svg PUBLIC "-//W3C//DTD SVG 1.1//EN"
 "http://www.w3.org/Graphics/SVG/1.1/DTD/svg11.dtd">
<!-- Generated by graphviz version 2.43.0 (0)
 -->
<!-- Title: l4/sys/task Pages: 1 -->
<svg width="1521pt" height="430pt"
 viewBox="0.00 0.00 1521.00 430.00" xmlns="http://www.w3.org/2000/svg" xmlns:xlink="http://www.w3.org/1999/xlink">
<g id="graph0" class="graph" transform="scale(1 1) rotate(0) translate(4 426)">
<title>l4/sys/task</title>
<polygon fill="white" stroke="transparent" points="-4,4 -4,-426 1517,-426 1517,4 -4,4"/>
<!-- Node1 -->
<g id="node1" class="node">
<title>Node1</title>
<g id="a_node1"><a xlink:title="Common task related definitions.">
<polygon fill="#bfbfbf" stroke="black" points="783,-402.5 783,-421.5 852,-421.5 852,-402.5 783,-402.5"/>
<text text-anchor="middle" x="817.5" y="-409.5" font-family="Helvetica,sans-Serif" font-size="10.00">l4/sys/task</text>
</a>
</g>
</g>
<!-- Node2 -->
<g id="node2" class="node">
<title>Node2</title>
<g id="a_node2"><a xlink:href="____vm-arm_8h.html" target="_top" xlink:title="Virtualization interface.">
<polygon fill="white" stroke="black" points="280,-341 280,-360 387,-360 387,-341 280,-341"/>
<text text-anchor="middle" x="333.5" y="-348" font-family="Helvetica,sans-Serif" font-size="10.00">l4/sys/__vm&#45;arm.h</text>
</a>
</g>
</g>
<!-- Node1&#45;&gt;Node2 -->
<g id="edge1" class="edge">
<title>Node1&#45;&gt;Node2</title>
<path fill="none" stroke="midnightblue" d="M772.64,-405.62C703.02,-397.26 564.77,-380.59 447.5,-366 427.8,-363.55 406.19,-360.81 387.14,-358.38"/>
<polygon fill="midnightblue" stroke="midnightblue" points="772.46,-409.13 782.8,-406.84 773.29,-402.18 772.46,-409.13"/>
</g>
<!-- Node4 -->
<g id="node4" class="node">
<title>Node4</title>
<g id="a_node4"><a xlink:href="l4_2sys_2vm.html" target="_top" xlink:title="Virtualization interface.">
<polygon fill="white" stroke="black" points="456.5,-341 456.5,-360 520.5,-360 520.5,-341 456.5,-341"/>
<text text-anchor="middle" x="488.5" y="-348" font-family="Helvetica,sans-Serif" font-size="10.00">l4/sys/vm</text>
</a>
</g>
</g>
<!-- Node1&#45;&gt;Node4 -->
<g id="edge3" class="edge">
<title>Node1&#45;&gt;Node4</title>
<path fill="none" stroke="midnightblue" d="M772.54,-406.44C715.62,-400.11 614.82,-386.99 530.5,-366 524.06,-364.4 517.21,-362.24 510.95,-360.07"/>
<polygon fill="midnightblue" stroke="midnightblue" points="772.33,-409.94 782.65,-407.55 773.09,-402.98 772.33,-409.94"/>
</g>
<!-- Node5 -->
<g id="node5" class="node">
<title>Node5</title>
<g id="a_node5"><a xlink:href="cap__alloc.html" target="_top" xlink:title="Abstract capability&#45;allocator interface.">
<polygon fill="white" stroke="black" points="539,-341 539,-360 626,-360 626,-341 539,-341"/>
<text text-anchor="middle" x="582.5" y="-348" font-family="Helvetica,sans-Serif" font-size="10.00">l4/re/cap_alloc</text>
</a>
</g>
</g>
<!-- Node1&#45;&gt;Node5 -->
<g id="edge4" class="edge">
<title>Node1&#45;&gt;Node5</title>
<path fill="none" stroke="midnightblue" d="M772.94,-400.31C736.05,-391.38 682.29,-378.18 635.5,-366 628.3,-364.13 620.57,-362.05 613.29,-360.06"/>
<polygon fill="midnightblue" stroke="midnightblue" points="772.34,-403.76 782.88,-402.71 773.99,-396.96 772.34,-403.76"/>
</g>
<!-- Node21 -->
<g id="node21" class="node">
<title>Node21</title>
<g id="a_node21"><a xlink:href="rm__impl_8h.html" target="_top" xlink:title="Region map client stub implementation.">
<polygon fill="white" stroke="black" points="644.5,-341 644.5,-360 760.5,-360 760.5,-341 644.5,-341"/>
<text text-anchor="middle" x="702.5" y="-348" font-family="Helvetica,sans-Serif" font-size="10.00">l4/re/impl/rm_impl.h</text>
</a>
</g>
</g>
<!-- Node1&#45;&gt;Node21 -->
<g id="edge27" class="edge">
<title>Node1&#45;&gt;Node21</title>
<path fill="none" stroke="midnightblue" d="M792.12,-397.87C769.83,-386.33 738.06,-369.9 718.95,-360.01"/>
<polygon fill="midnightblue" stroke="midnightblue" points="790.53,-400.99 801.02,-402.48 793.75,-394.77 790.53,-400.99"/>
</g>
<!-- Node22 -->
<g id="node22" class="node">
<title>Node22</title>
<g id="a_node22"><a xlink:href="cap.html" target="_top" xlink:title="Capability utility functions.">
<polygon fill="white" stroke="black" points="779,-341 779,-360 856,-360 856,-341 779,-341"/>
<text text-anchor="middle" x="817.5" y="-348" font-family="Helvetica,sans-Serif" font-size="10.00">l4/re/util/cap</text>
</a>
</g>
</g>
<!-- Node1&#45;&gt;Node22 -->
<g id="edge28" class="edge">
<title>Node1&#45;&gt;Node22</title>
<path fill="none" stroke="midnightblue" d="M817.5,-392.32C817.5,-381.5 817.5,-368.4 817.5,-360.01"/>
<polygon fill="midnightblue" stroke="midnightblue" points="814,-392.48 817.5,-402.48 821,-392.48 814,-392.48"/>
</g>
<!-- Node23 -->
<g id="node23" class="node">
<title>Node23</title>
<g id="a_node23"><a xlink:href="util_2cap__alloc.html" target="_top" xlink:title="Capability allocator.">
<polygon fill="white" stroke="black" points="969.5,-207 969.5,-226 1075.5,-226 1075.5,-207 969.5,-207"/>
<text text-anchor="middle" x="1022.5" y="-214" font-family="Helvetica,sans-Serif" font-size="10.00">l4/re/util/cap_alloc</text>
</a>
</g>
</g>
<!-- Node1&#45;&gt;Node23 -->
<g id="edge29" class="edge">
<title>Node1&#45;&gt;Node23</title>
<path fill="none" stroke="midnightblue" d="M862.33,-407.53C916.81,-402.3 1004,-390.3 1024.5,-366 1059.41,-324.61 1035.7,-251.2 1026.05,-226.15"/>
<polygon fill="midnightblue" stroke="midnightblue" points="861.87,-404.06 852.23,-408.46 862.51,-411.03 861.87,-404.06"/>
</g>
<!-- Node27 -->
<g id="node27" class="node">
<title>Node27</title>
<g id="a_node27"><a xlink:href="icu__svr_source.html" target="_top" xlink:title=" ">
<polygon fill="white" stroke="black" points="837,-140 837,-159 932,-159 932,-140 837,-140"/>
<text text-anchor="middle" x="884.5" y="-147" font-family="Helvetica,sans-Serif" font-size="10.00">l4/re/util/icu_svr</text>
</a>
</g>
</g>
<!-- Node1&#45;&gt;Node27 -->
<g id="edge50" class="edge">
<title>Node1&#45;&gt;Node27</title>
<path fill="none" stroke="midnightblue" d="M839.28,-396.35C849.02,-388.55 859.63,-378.08 865.5,-366 900.99,-293.05 890.12,-189.79 885.85,-159.3"/>
<polygon fill="midnightblue" stroke="midnightblue" points="836.98,-393.69 831.07,-402.48 841.17,-399.3 836.98,-393.69"/>
</g>
<!-- Node29 -->
<g id="node29" class="node">
<title>Node29</title>
<g id="a_node29"><a xlink:href="object__registry_source.html" target="_top" xlink:title=" ">
<polygon fill="white" stroke="black" points="1380,-73 1380,-92 1513,-92 1513,-73 1380,-73"/>
<text text-anchor="middle" x="1446.5" y="-80" font-family="Helvetica,sans-Serif" font-size="10.00">l4/re/util/object_registry</text>
</a>
</g>
</g>
<!-- Node1&#45;&gt;Node29 -->
<g id="edge51" class="edge">
<title>Node1&#45;&gt;Node29</title>
<path fill="none" stroke="midnightblue" d="M862.38,-407.21C1011.42,-394.04 1480.5,-347.58 1480.5,-284.5 1480.5,-284.5 1480.5,-284.5 1480.5,-215.5 1480.5,-167.7 1459.33,-113.15 1450.4,-92.26"/>
<polygon fill="midnightblue" stroke="midnightblue" points="861.87,-403.74 852.21,-408.1 862.48,-410.72 861.87,-403.74"/>
</g>
<!-- Node33 -->
<g id="node33" class="node">
<title>Node33</title>
<g id="a_node33"><a xlink:href="counting__cap__alloc.html" target="_top" xlink:title="Reference&#45;counting capability allocator.">
<polygon fill="white" stroke="black" points="913.5,-335.5 913.5,-365.5 1015.5,-365.5 1015.5,-335.5 913.5,-335.5"/>
<text text-anchor="start" x="921.5" y="-353.5" font-family="Helvetica,sans-Serif" font-size="10.00">l4/re/util/counting</text>
<text text-anchor="middle" x="964.5" y="-342.5" font-family="Helvetica,sans-Serif" font-size="10.00">_cap_alloc</text>
</a>
</g>
</g>
<!-- Node1&#45;&gt;Node33 -->
<g id="edge47" class="edge">
<title>Node1&#45;&gt;Node33</title>
<path fill="none" stroke="midnightblue" d="M847.84,-398.72C871.7,-389.06 904.95,-375.6 929.86,-365.52"/>
<polygon fill="midnightblue" stroke="midnightblue" points="846.52,-395.48 838.56,-402.48 849.14,-401.97 846.52,-395.48"/>
</g>
<!-- Node3 -->
<g id="node3" class="node">
<title>Node3</title>
<g id="a_node3"><a xlink:href="arm_2l4_2sys_2vm_source.html" target="_top" xlink:title=" ">
<polygon fill="white" stroke="black" points="236.5,-274 236.5,-293 322.5,-293 322.5,-274 236.5,-274"/>
<text text-anchor="middle" x="279.5" y="-281" font-family="Helvetica,sans-Serif" font-size="10.00">arm/l4/sys/vm</text>
</a>
</g>
</g>
<!-- Node2&#45;&gt;Node3 -->
<g id="edge2" class="edge">
<title>Node2&#45;&gt;Node3</title>
<path fill="none" stroke="midnightblue" d="M319.6,-332.77C309.07,-320.1 295.04,-303.2 286.67,-293.13"/>
<polygon fill="midnightblue" stroke="midnightblue" points="317.13,-335.28 326.22,-340.73 322.52,-330.81 317.13,-335.28"/>
</g>
<!-- Node6 -->
<g id="node6" class="node">
<title>Node6</title>
<g id="a_node6"><a xlink:href="vfs_8h_source.html" target="_top" xlink:title=" ">
<polygon fill="white" stroke="black" points="341,-274 341,-293 436,-293 436,-274 341,-274"/>
<text text-anchor="middle" x="388.5" y="-281" font-family="Helvetica,sans-Serif" font-size="10.00">l4/l4re_vfs/vfs.h</text>
</a>
</g>
</g>
<!-- Node5&#45;&gt;Node6 -->
<g id="edge5" class="edge">
<title>Node5&#45;&gt;Node6</title>
<path fill="none" stroke="midnightblue" d="M546.99,-337.6C508.52,-324.71 448.11,-304.47 414.06,-293.06"/>
<polygon fill="midnightblue" stroke="midnightblue" points="546.14,-341.01 556.74,-340.87 548.37,-334.37 546.14,-341.01"/>
</g>
<!-- Node17 -->
<g id="node17" class="node">
<title>Node17</title>
<g id="a_node17"><a xlink:href="shared__cap.html" target="_top" xlink:title="Shared_cap / Shared_del_cap.">
<polygon fill="white" stroke="black" points="456,-274 456,-293 553,-293 553,-274 456,-274"/>
<text text-anchor="middle" x="504.5" y="-281" font-family="Helvetica,sans-Serif" font-size="10.00">l4/re/shared_cap</text>
</a>
</g>
</g>
<!-- Node5&#45;&gt;Node17 -->
<g id="edge19" class="edge">
<title>Node5&#45;&gt;Node17</title>
<path fill="none" stroke="midnightblue" d="M564.16,-334.21C548.79,-321.41 527.41,-303.59 514.85,-293.13"/>
<polygon fill="midnightblue" stroke="midnightblue" points="562.06,-337.02 571.98,-340.73 566.54,-331.64 562.06,-337.02"/>
</g>
<!-- Node18 -->
<g id="node18" class="node">
<title>Node18</title>
<g id="a_node18"><a xlink:href="unique__cap.html" target="_top" xlink:title="Unique_cap / Unique_del_cap.">
<polygon fill="white" stroke="black" points="534,-207 534,-226 631,-226 631,-207 534,-207"/>
<text text-anchor="middle" x="582.5" y="-214" font-family="Helvetica,sans-Serif" font-size="10.00">l4/re/unique_cap</text>
</a>
</g>
</g>
<!-- Node5&#45;&gt;Node18 -->
<g id="edge21" class="edge">
<title>Node5&#45;&gt;Node18</title>
<path fill="none" stroke="midnightblue" d="M582.5,-330.78C582.5,-301.75 582.5,-247.04 582.5,-226.02"/>
<polygon fill="midnightblue" stroke="midnightblue" points="579,-330.84 582.5,-340.84 586,-330.84 579,-330.84"/>
</g>
<!-- Node19 -->
<g id="node19" class="node">
<title>Node19</title>
<g id="a_node19"><a xlink:href="env__ns_source.html" target="_top" xlink:title=" ">
<polygon fill="white" stroke="black" points="685,-140 685,-159 780,-159 780,-140 685,-140"/>
<text text-anchor="middle" x="732.5" y="-147" font-family="Helvetica,sans-Serif" font-size="10.00">l4/re/util/env_ns</text>
</a>
</g>
</g>
<!-- Node5&#45;&gt;Node19 -->
<g id="edge24" class="edge">
<title>Node5&#45;&gt;Node19</title>
<path fill="none" stroke="midnightblue" d="M595.02,-332.89C625.51,-292.43 702.85,-189.84 725.91,-159.24"/>
<polygon fill="midnightblue" stroke="midnightblue" points="592.17,-330.86 588.95,-340.95 597.76,-335.07 592.17,-330.86"/>
</g>
<!-- Node20 -->
<g id="node20" class="node">
<title>Node20</title>
<g id="a_node20"><a xlink:href="util_2event.html" target="_top" xlink:title=" ">
<polygon fill="white" stroke="black" points="936.5,-73 936.5,-92 1024.5,-92 1024.5,-73 936.5,-73"/>
<text text-anchor="middle" x="980.5" y="-80" font-family="Helvetica,sans-Serif" font-size="10.00">l4/re/util/event</text>
</a>
</g>
</g>
<!-- Node5&#45;&gt;Node20 -->
<g id="edge26" class="edge">
<title>Node5&#45;&gt;Node20</title>
<path fill="none" stroke="midnightblue" d="M601.79,-334.51C614.38,-324.61 631.1,-311.25 645.5,-299 666.36,-281.26 804.84,-147.78 828.5,-134 849.35,-121.86 911.75,-102.98 949.81,-92.07"/>
<polygon fill="midnightblue" stroke="midnightblue" points="599.53,-331.83 593.81,-340.75 603.84,-337.35 599.53,-331.83"/>
</g>
<!-- Node7 -->
<g id="node7" class="node">
<title>Node7</title>
<g id="a_node7"><a xlink:href="backend_source.html" target="_top" xlink:title=" ">
<polygon fill="white" stroke="black" points="331,-207 331,-226 442,-226 442,-207 331,-207"/>
<text text-anchor="middle" x="386.5" y="-214" font-family="Helvetica,sans-Serif" font-size="10.00">l4/l4re_vfs/backend</text>
</a>
</g>
</g>
<!-- Node6&#45;&gt;Node7 -->
<g id="edge6" class="edge">
<title>Node6&#45;&gt;Node7</title>
<path fill="none" stroke="midnightblue" d="M387.92,-263.54C387.54,-251.17 387.06,-235.62 386.77,-226.13"/>
<polygon fill="midnightblue" stroke="midnightblue" points="384.42,-263.85 388.23,-273.73 391.42,-263.63 384.42,-263.85"/>
</g>
<!-- Node15 -->
<g id="node15" class="node">
<title>Node15</title>
<g id="a_node15"><a xlink:href="fd__store_8h_source.html" target="_top" xlink:title=" ">
<polygon fill="white" stroke="black" points="81,-201.5 81,-231.5 186,-231.5 186,-201.5 81,-201.5"/>
<text text-anchor="start" x="89" y="-219.5" font-family="Helvetica,sans-Serif" font-size="10.00">l4/l4re_vfs/impl/fd</text>
<text text-anchor="middle" x="133.5" y="-208.5" font-family="Helvetica,sans-Serif" font-size="10.00">_store.h</text>
</a>
</g>
</g>
<!-- Node6&#45;&gt;Node15 -->
<g id="edge16" class="edge">
<title>Node6&#45;&gt;Node15</title>
<path fill="none" stroke="midnightblue" d="M345.1,-271.44C301.18,-260.24 233.24,-242.92 186.25,-230.95"/>
<polygon fill="midnightblue" stroke="midnightblue" points="344.35,-274.86 354.9,-273.94 346.08,-268.07 344.35,-274.86"/>
</g>
<!-- Node8 -->
<g id="node8" class="node">
<title>Node8</title>
<g id="a_node8"><a xlink:href="ns__fs_8h_source.html" target="_top" xlink:title=" ">
<polygon fill="white" stroke="black" points="498.5,-140 498.5,-159 628.5,-159 628.5,-140 498.5,-140"/>
<text text-anchor="middle" x="563.5" y="-147" font-family="Helvetica,sans-Serif" font-size="10.00">l4/l4re_vfs/impl/ns_fs.h</text>
</a>
</g>
</g>
<!-- Node7&#45;&gt;Node8 -->
<g id="edge7" class="edge">
<title>Node7&#45;&gt;Node8</title>
<path fill="none" stroke="midnightblue" d="M419.8,-203.27C454.93,-190.37 509.38,-170.38 540.18,-159.06"/>
<polygon fill="midnightblue" stroke="midnightblue" points="418.18,-200.14 410,-206.87 420.6,-206.71 418.18,-200.14"/>
</g>
<!-- Node10 -->
<g id="node10" class="node">
<title>Node10</title>
<g id="a_node10"><a xlink:href="vfs__impl_8h_source.html" target="_top" xlink:title=" ">
<polygon fill="white" stroke="black" points="415.5,-67.5 415.5,-97.5 525.5,-97.5 525.5,-67.5 415.5,-67.5"/>
<text text-anchor="start" x="423.5" y="-85.5" font-family="Helvetica,sans-Serif" font-size="10.00">l4/l4re_vfs/impl/vfs</text>
<text text-anchor="middle" x="470.5" y="-74.5" font-family="Helvetica,sans-Serif" font-size="10.00">_impl.h</text>
</a>
</g>
</g>
<!-- Node7&#45;&gt;Node10 -->
<g id="edge15" class="edge">
<title>Node7&#45;&gt;Node10</title>
<path fill="none" stroke="midnightblue" d="M397.45,-198.3C414.19,-171.98 445.86,-122.23 461.41,-97.78"/>
<polygon fill="midnightblue" stroke="midnightblue" points="394.43,-196.52 392.01,-206.84 400.33,-200.28 394.43,-196.52"/>
</g>
<!-- Node11 -->
<g id="node11" class="node">
<title>Node11</title>
<g id="a_node11"><a xlink:href="ro__file_8h_source.html" target="_top" xlink:title=" ">
<polygon fill="white" stroke="black" points="162,-134.5 162,-164.5 267,-164.5 267,-134.5 162,-134.5"/>
<text text-anchor="start" x="170" y="-152.5" font-family="Helvetica,sans-Serif" font-size="10.00">l4/l4re_vfs/impl/ro</text>
<text text-anchor="middle" x="214.5" y="-141.5" font-family="Helvetica,sans-Serif" font-size="10.00">_file.h</text>
</a>
</g>
</g>
<!-- Node7&#45;&gt;Node11 -->
<g id="edge10" class="edge">
<title>Node7&#45;&gt;Node11</title>
<path fill="none" stroke="midnightblue" d="M353.96,-203.2C324.81,-192.19 282.09,-176.04 251.62,-164.53"/>
<polygon fill="midnightblue" stroke="midnightblue" points="353.07,-206.61 363.66,-206.87 355.54,-200.06 353.07,-206.61"/>
</g>
<!-- Node13 -->
<g id="node13" class="node">
<title>Node13</title>
<g id="a_node13"><a xlink:href="vcon__stream_8h_source.html" target="_top" xlink:title=" ">
<polygon fill="white" stroke="black" points="285,-134.5 285,-164.5 404,-164.5 404,-134.5 285,-134.5"/>
<text text-anchor="start" x="293" y="-152.5" font-family="Helvetica,sans-Serif" font-size="10.00">l4/l4re_vfs/impl/vcon</text>
<text text-anchor="middle" x="344.5" y="-141.5" font-family="Helvetica,sans-Serif" font-size="10.00">_stream.h</text>
</a>
</g>
</g>
<!-- Node7&#45;&gt;Node13 -->
<g id="edge12" class="edge">
<title>Node7&#45;&gt;Node13</title>
<path fill="none" stroke="midnightblue" d="M375.21,-198.03C368.44,-187.56 359.94,-174.4 353.6,-164.59"/>
<polygon fill="midnightblue" stroke="midnightblue" points="372.47,-200.23 380.84,-206.73 378.35,-196.44 372.47,-200.23"/>
</g>
<!-- Node9 -->
<g id="node9" class="node">
<title>Node9</title>
<g id="a_node9"><a xlink:href="ns__fs__impl_8h_source.html" target="_top" xlink:title=" ">
<polygon fill="white" stroke="black" points="603,-67.5 603,-97.5 710,-97.5 710,-67.5 603,-67.5"/>
<text text-anchor="start" x="611" y="-85.5" font-family="Helvetica,sans-Serif" font-size="10.00">l4/l4re_vfs/impl/ns</text>
<text text-anchor="middle" x="656.5" y="-74.5" font-family="Helvetica,sans-Serif" font-size="10.00">_fs_impl.h</text>
</a>
</g>
</g>
<!-- Node8&#45;&gt;Node9 -->
<g id="edge8" class="edge">
<title>Node8&#45;&gt;Node9</title>
<path fill="none" stroke="midnightblue" d="M584.46,-133.85C599.98,-123 621.01,-108.3 636.34,-97.59"/>
<polygon fill="midnightblue" stroke="midnightblue" points="582.23,-131.14 576.04,-139.73 586.24,-136.87 582.23,-131.14"/>
</g>
<!-- Node8&#45;&gt;Node10 -->
<g id="edge9" class="edge">
<title>Node8&#45;&gt;Node10</title>
<path fill="none" stroke="midnightblue" d="M542.54,-133.85C527.02,-123 505.99,-108.3 490.66,-97.59"/>
<polygon fill="midnightblue" stroke="midnightblue" points="540.76,-136.87 550.96,-139.73 544.77,-131.14 540.76,-136.87"/>
</g>
<!-- Node12 -->
<g id="node12" class="node">
<title>Node12</title>
<g id="a_node12"><a xlink:href="ro__file__impl_8h_source.html" target="_top" xlink:title=" ">
<polygon fill="white" stroke="black" points="155,-67.5 155,-97.5 260,-97.5 260,-67.5 155,-67.5"/>
<text text-anchor="start" x="163" y="-85.5" font-family="Helvetica,sans-Serif" font-size="10.00">l4/l4re_vfs/impl/ro</text>
<text text-anchor="middle" x="207.5" y="-74.5" font-family="Helvetica,sans-Serif" font-size="10.00">_file_impl.h</text>
</a>
</g>
</g>
<!-- Node11&#45;&gt;Node12 -->
<g id="edge11" class="edge">
<title>Node11&#45;&gt;Node12</title>
<path fill="none" stroke="midnightblue" d="M211.9,-124.4C210.93,-115.37 209.86,-105.41 209.02,-97.58"/>
<polygon fill="midnightblue" stroke="midnightblue" points="208.43,-124.83 212.98,-134.4 215.39,-124.08 208.43,-124.83"/>
</g>
<!-- Node13&#45;&gt;Node10 -->
<g id="edge14" class="edge">
<title>Node13&#45;&gt;Node10</title>
<path fill="none" stroke="midnightblue" d="M380.92,-129.71C400.79,-119.46 424.98,-106.98 443.21,-97.58"/>
<polygon fill="midnightblue" stroke="midnightblue" points="379.12,-126.7 371.84,-134.4 382.33,-132.92 379.12,-126.7"/>
</g>
<!-- Node14 -->
<g id="node14" class="node">
<title>Node14</title>
<g id="a_node14"><a xlink:href="vcon__stream__impl_8h_source.html" target="_top" xlink:title=" ">
<polygon fill="white" stroke="black" points="278,-67.5 278,-97.5 397,-97.5 397,-67.5 278,-67.5"/>
<text text-anchor="start" x="286" y="-85.5" font-family="Helvetica,sans-Serif" font-size="10.00">l4/l4re_vfs/impl/vcon</text>
<text text-anchor="middle" x="337.5" y="-74.5" font-family="Helvetica,sans-Serif" font-size="10.00">_stream_impl.h</text>
</a>
</g>
</g>
<!-- Node13&#45;&gt;Node14 -->
<g id="edge13" class="edge">
<title>Node13&#45;&gt;Node14</title>
<path fill="none" stroke="midnightblue" d="M341.9,-124.4C340.93,-115.37 339.86,-105.41 339.02,-97.58"/>
<polygon fill="midnightblue" stroke="midnightblue" points="338.43,-124.83 342.98,-134.4 345.39,-124.08 338.43,-124.83"/>
</g>
<!-- Node15&#45;&gt;Node10 -->
<g id="edge18" class="edge">
<title>Node15&#45;&gt;Node10</title>
<path fill="none" stroke="midnightblue" d="M132.34,-191.33C132.86,-172.92 136.83,-148.36 152.5,-134 194.38,-95.64 349.63,-108.19 405.5,-98 408.68,-97.42 411.95,-96.79 415.24,-96.14"/>
<polygon fill="midnightblue" stroke="midnightblue" points="128.84,-191.35 132.37,-201.34 135.84,-191.33 128.84,-191.35"/>
</g>
<!-- Node16 -->
<g id="node16" class="node">
<title>Node16</title>
<g id="a_node16"><a xlink:href="fd__store__impl_8h_source.html" target="_top" xlink:title=" ">
<polygon fill="white" stroke="black" points="0,-134.5 0,-164.5 105,-164.5 105,-134.5 0,-134.5"/>
<text text-anchor="start" x="8" y="-152.5" font-family="Helvetica,sans-Serif" font-size="10.00">l4/l4re_vfs/impl/fd</text>
<text text-anchor="middle" x="52.5" y="-141.5" font-family="Helvetica,sans-Serif" font-size="10.00">_store_impl.h</text>
</a>
</g>
</g>
<!-- Node15&#45;&gt;Node16 -->
<g id="edge17" class="edge">
<title>Node15&#45;&gt;Node16</title>
<path fill="none" stroke="midnightblue" d="M107.81,-194.88C95.5,-185.01 81.07,-173.43 70.04,-164.58"/>
<polygon fill="midnightblue" stroke="midnightblue" points="105.93,-197.87 115.92,-201.4 110.32,-192.41 105.93,-197.87"/>
</g>
<!-- Node17&#45;&gt;Node10 -->
<g id="edge20" class="edge">
<title>Node17&#45;&gt;Node10</title>
<path fill="none" stroke="midnightblue" d="M501.31,-263.86C494.55,-224.28 478.9,-132.64 472.9,-97.53"/>
<polygon fill="midnightblue" stroke="midnightblue" points="497.9,-264.68 503.04,-273.95 504.8,-263.5 497.9,-264.68"/>
</g>
<!-- Node18&#45;&gt;Node8 -->
<g id="edge22" class="edge">
<title>Node18&#45;&gt;Node8</title>
<path fill="none" stroke="midnightblue" d="M577.07,-196.91C573.44,-184.49 568.82,-168.72 566.02,-159.13"/>
<polygon fill="midnightblue" stroke="midnightblue" points="573.77,-198.12 579.94,-206.73 580.49,-196.15 573.77,-198.12"/>
</g>
<!-- Node18&#45;&gt;Node9 -->
<g id="edge23" class="edge">
<title>Node18&#45;&gt;Node9</title>
<path fill="none" stroke="midnightblue" d="M604.3,-200.55C615.83,-191.54 629.27,-179.09 637.5,-165 649.95,-143.67 654.25,-114.73 655.72,-97.69"/>
<polygon fill="midnightblue" stroke="midnightblue" points="601.91,-197.97 595.97,-206.74 606.08,-203.58 601.91,-197.97"/>
</g>
<!-- Node19&#45;&gt;Node9 -->
<g id="edge25" class="edge">
<title>Node19&#45;&gt;Node9</title>
<path fill="none" stroke="midnightblue" d="M714.29,-132.93C701.72,-122.18 685.15,-108 672.97,-97.59"/>
<polygon fill="midnightblue" stroke="midnightblue" points="712.38,-135.89 722.25,-139.73 716.93,-130.57 712.38,-135.89"/>
</g>
<!-- Node23&#45;&gt;Node19 -->
<g id="edge33" class="edge">
<title>Node23&#45;&gt;Node19</title>
<path fill="none" stroke="midnightblue" d="M974.42,-204.72C917.32,-191.92 823.22,-170.83 770.8,-159.08"/>
<polygon fill="midnightblue" stroke="midnightblue" points="973.77,-208.16 984.29,-206.94 975.3,-201.33 973.77,-208.16"/>
</g>
<!-- Node23&#45;&gt;Node20 -->
<g id="edge34" class="edge">
<title>Node23&#45;&gt;Node20</title>
<path fill="none" stroke="midnightblue" d="M1006.31,-199.28C998.19,-190.05 989.13,-177.8 984.5,-165 975.44,-139.96 977.53,-107.74 979.28,-92.39"/>
<polygon fill="midnightblue" stroke="midnightblue" points="1003.96,-201.9 1013.34,-206.83 1009.09,-197.13 1003.96,-201.9"/>
</g>
<!-- Node24 -->
<g id="node24" class="node">
<title>Node24</title>
<g id="a_node24"><a xlink:href="server_2l4virtio_source.html" target="_top" xlink:title=" ">
<polygon fill="white" stroke="black" points="1176,-67.5 1176,-97.5 1273,-97.5 1273,-67.5 1176,-67.5"/>
<text text-anchor="start" x="1184" y="-85.5" font-family="Helvetica,sans-Serif" font-size="10.00">l4/l4virtio/server</text>
<text text-anchor="middle" x="1224.5" y="-74.5" font-family="Helvetica,sans-Serif" font-size="10.00">/l4virtio</text>
</a>
</g>
</g>
<!-- Node23&#45;&gt;Node24 -->
<g id="edge30" class="edge">
<title>Node23&#45;&gt;Node24</title>
<path fill="none" stroke="midnightblue" d="M1015.31,-197.15C1009.55,-179.13 1004.53,-151.81 1018.5,-134 1037.7,-109.52 1121.33,-95.35 1175.95,-88.55"/>
<polygon fill="midnightblue" stroke="midnightblue" points="1012.08,-198.53 1018.73,-206.78 1018.68,-196.18 1012.08,-198.53"/>
</g>
<!-- Node26 -->
<g id="node26" class="node">
<title>Node26</title>
<g id="a_node26"><a xlink:href="br__manager_source.html" target="_top" xlink:title=" ">
<polygon fill="white" stroke="black" points="1027,-140 1027,-159 1146,-159 1146,-140 1027,-140"/>
<text text-anchor="middle" x="1086.5" y="-147" font-family="Helvetica,sans-Serif" font-size="10.00">l4/re/util/br_manager</text>
</a>
</g>
</g>
<!-- Node23&#45;&gt;Node26 -->
<g id="edge32" class="edge">
<title>Node23&#45;&gt;Node26</title>
<path fill="none" stroke="midnightblue" d="M1038.26,-199.5C1050.81,-186.75 1067.9,-169.39 1078.01,-159.13"/>
<polygon fill="midnightblue" stroke="midnightblue" points="1035.65,-197.15 1031.13,-206.73 1040.64,-202.06 1035.65,-197.15"/>
</g>
<!-- Node23&#45;&gt;Node27 -->
<g id="edge35" class="edge">
<title>Node23&#45;&gt;Node27</title>
<path fill="none" stroke="midnightblue" d="M994.78,-202.44C967.45,-189.57 926.45,-170.26 902.9,-159.17"/>
<polygon fill="midnightblue" stroke="midnightblue" points="993.64,-205.77 1004.17,-206.87 996.62,-199.44 993.64,-205.77"/>
</g>
<!-- Node23&#45;&gt;Node29 -->
<g id="edge37" class="edge">
<title>Node23&#45;&gt;Node29</title>
<path fill="none" stroke="midnightblue" d="M1085.86,-215.78C1185.91,-214.89 1374.18,-207.43 1423.5,-165 1445.12,-146.4 1447.18,-109.19 1446.91,-92.25"/>
<polygon fill="midnightblue" stroke="midnightblue" points="1085.56,-212.28 1075.58,-215.85 1085.61,-219.28 1085.56,-212.28"/>
</g>
<!-- Node31 -->
<g id="node31" class="node">
<title>Node31</title>
<g id="a_node31"><a xlink:href="util_2shared__cap.html" target="_top" xlink:title="Shared_cap / Shared_del_cap.">
<polygon fill="white" stroke="black" points="1164.5,-140 1164.5,-159 1280.5,-159 1280.5,-140 1164.5,-140"/>
<text text-anchor="middle" x="1222.5" y="-147" font-family="Helvetica,sans-Serif" font-size="10.00">l4/re/util/shared_cap</text>
</a>
</g>
</g>
<!-- Node23&#45;&gt;Node31 -->
<g id="edge39" class="edge">
<title>Node23&#45;&gt;Node31</title>
<path fill="none" stroke="midnightblue" d="M1058.61,-203.77C1098.23,-190.89 1160.9,-170.52 1196.15,-159.06"/>
<polygon fill="midnightblue" stroke="midnightblue" points="1057.49,-200.45 1049.06,-206.87 1059.65,-207.11 1057.49,-200.45"/>
</g>
<!-- Node32 -->
<g id="node32" class="node">
<title>Node32</title>
<g id="a_node32"><a xlink:href="util_2unique__cap.html" target="_top" xlink:title="Unique_cap / Unique_del_cap.">
<polygon fill="white" stroke="black" points="1298.5,-140 1298.5,-159 1414.5,-159 1414.5,-140 1298.5,-140"/>
<text text-anchor="middle" x="1356.5" y="-147" font-family="Helvetica,sans-Serif" font-size="10.00">l4/re/util/unique_cap</text>
</a>
</g>
</g>
<!-- Node23&#45;&gt;Node32 -->
<g id="edge41" class="edge">
<title>Node23&#45;&gt;Node32</title>
<path fill="none" stroke="midnightblue" d="M1079.93,-205.09C1134.06,-195.17 1217.4,-179.62 1289.5,-165 1298.71,-163.13 1308.62,-161.04 1317.92,-159.03"/>
<polygon fill="midnightblue" stroke="midnightblue" points="1079.05,-201.69 1069.84,-206.93 1080.31,-208.58 1079.05,-201.69"/>
</g>
<!-- Node25 -->
<g id="node25" class="node">
<title>Node25</title>
<g id="a_node25"><a xlink:href="server_2virtio-block_source.html" target="_top" xlink:title=" ">
<polygon fill="white" stroke="black" points="1222,-0.5 1222,-30.5 1319,-30.5 1319,-0.5 1222,-0.5"/>
<text text-anchor="start" x="1230" y="-18.5" font-family="Helvetica,sans-Serif" font-size="10.00">l4/l4virtio/server</text>
<text text-anchor="middle" x="1270.5" y="-7.5" font-family="Helvetica,sans-Serif" font-size="10.00">/virtio&#45;block</text>
</a>
</g>
</g>
<!-- Node24&#45;&gt;Node25 -->
<g id="edge31" class="edge">
<title>Node24&#45;&gt;Node25</title>
<path fill="none" stroke="midnightblue" d="M1240.31,-59.16C1247.02,-49.68 1254.63,-38.92 1260.54,-30.58"/>
<polygon fill="midnightblue" stroke="midnightblue" points="1237.4,-57.21 1234.48,-67.4 1243.12,-61.26 1237.4,-57.21"/>
</g>
<!-- Node28 -->
<g id="node28" class="node">
<title>Node28</title>
<g id="a_node28"><a xlink:href="event__svr_source.html" target="_top" xlink:title=" ">
<polygon fill="white" stroke="black" points="810.5,-73 810.5,-92 918.5,-92 918.5,-73 810.5,-73"/>
<text text-anchor="middle" x="864.5" y="-80" font-family="Helvetica,sans-Serif" font-size="10.00">l4/re/util/event_svr</text>
</a>
</g>
</g>
<!-- Node27&#45;&gt;Node28 -->
<g id="edge36" class="edge">
<title>Node27&#45;&gt;Node28</title>
<path fill="none" stroke="midnightblue" d="M878.78,-129.91C874.96,-117.49 870.11,-101.72 867.15,-92.13"/>
<polygon fill="midnightblue" stroke="midnightblue" points="875.52,-131.21 881.8,-139.73 882.21,-129.15 875.52,-131.21"/>
</g>
<!-- Node30 -->
<g id="node30" class="node">
<title>Node30</title>
<g id="a_node30"><a xlink:href="client_2virtio-block_source.html" target="_top" xlink:title=" ">
<polygon fill="white" stroke="black" points="1343,-0.5 1343,-30.5 1436,-30.5 1436,-0.5 1343,-0.5"/>
<text text-anchor="start" x="1351" y="-18.5" font-family="Helvetica,sans-Serif" font-size="10.00">l4/l4virtio/client</text>
<text text-anchor="middle" x="1389.5" y="-7.5" font-family="Helvetica,sans-Serif" font-size="10.00">/virtio&#45;block</text>
</a>
</g>
</g>
<!-- Node29&#45;&gt;Node30 -->
<g id="edge38" class="edge">
<title>Node29&#45;&gt;Node30</title>
<path fill="none" stroke="midnightblue" d="M1432.02,-64.99C1422.7,-54.36 1410.72,-40.7 1401.85,-30.59"/>
<polygon fill="midnightblue" stroke="midnightblue" points="1429.59,-67.52 1438.81,-72.73 1434.85,-62.91 1429.59,-67.52"/>
</g>
<!-- Node31&#45;&gt;Node24 -->
<g id="edge40" class="edge">
<title>Node31&#45;&gt;Node24</title>
<path fill="none" stroke="midnightblue" d="M1223.09,-129.41C1223.4,-119.22 1223.78,-106.9 1224.07,-97.59"/>
<polygon fill="midnightblue" stroke="midnightblue" points="1219.58,-129.63 1222.77,-139.73 1226.58,-129.85 1219.58,-129.63"/>
</g>
<!-- Node32&#45;&gt;Node20 -->
<g id="edge45" class="edge">
<title>Node32&#45;&gt;Node20</title>
<path fill="none" stroke="midnightblue" d="M1308.67,-137.84C1302.24,-136.49 1295.72,-135.18 1289.5,-134 1195.51,-116.16 1084.7,-98.98 1024.63,-89.99"/>
<polygon fill="midnightblue" stroke="midnightblue" points="1308.15,-141.3 1318.66,-139.96 1309.6,-134.46 1308.15,-141.3"/>
</g>
<!-- Node32&#45;&gt;Node24 -->
<g id="edge43" class="edge">
<title>Node32&#45;&gt;Node24</title>
<path fill="none" stroke="midnightblue" d="M1329.78,-135.34C1307.56,-124.4 1276,-108.86 1253.24,-97.65"/>
<polygon fill="midnightblue" stroke="midnightblue" points="1328.45,-138.59 1338.97,-139.87 1331.55,-132.31 1328.45,-138.59"/>
</g>
<!-- Node32&#45;&gt;Node25 -->
<g id="edge44" class="edge">
<title>Node32&#45;&gt;Node25</title>
<path fill="none" stroke="midnightblue" d="M1345.29,-131.3C1328.15,-104.98 1295.73,-55.23 1279.81,-30.78"/>
<polygon fill="midnightblue" stroke="midnightblue" points="1342.47,-133.37 1350.86,-139.84 1348.33,-129.55 1342.47,-133.37"/>
</g>
<!-- Node32&#45;&gt;Node29 -->
<g id="edge46" class="edge">
<title>Node32&#45;&gt;Node29</title>
<path fill="none" stroke="midnightblue" d="M1377.18,-133.57C1394.94,-120.74 1419.94,-102.69 1434.55,-92.13"/>
<polygon fill="midnightblue" stroke="midnightblue" points="1374.7,-131.04 1368.64,-139.73 1378.79,-136.72 1374.7,-131.04"/>
</g>
<!-- Node32&#45;&gt;Node30 -->
<g id="edge42" class="edge">
<title>Node32&#45;&gt;Node30</title>
<path fill="none" stroke="midnightblue" d="M1359.07,-129.78C1361.56,-113.14 1365.8,-88.22 1371.5,-67 1374.83,-54.59 1379.8,-40.89 1383.67,-30.89"/>
<polygon fill="midnightblue" stroke="midnightblue" points="1355.59,-129.44 1357.63,-139.83 1362.51,-130.43 1355.59,-129.44"/>
</g>
<!-- Node34 -->
<g id="node34" class="node">
<title>Node34</title>
<g id="a_node34"><a xlink:href="cap__alloc__impl_8h.html" target="_top" xlink:title="Capability allocator implementation.">
<polygon fill="white" stroke="black" points="912.5,-268.5 912.5,-298.5 1018.5,-298.5 1018.5,-268.5 912.5,-268.5"/>
<text text-anchor="start" x="920.5" y="-286.5" font-family="Helvetica,sans-Serif" font-size="10.00">l4/re/util/cap_alloc</text>
<text text-anchor="middle" x="965.5" y="-275.5" font-family="Helvetica,sans-Serif" font-size="10.00">_impl.h</text>
</a>
</g>
</g>
<!-- Node33&#45;&gt;Node34 -->
<g id="edge48" class="edge">
<title>Node33&#45;&gt;Node34</title>
<path fill="none" stroke="midnightblue" d="M964.88,-325.11C965.01,-316.15 965.16,-306.32 965.28,-298.58"/>
<polygon fill="midnightblue" stroke="midnightblue" points="961.37,-325.34 964.72,-335.4 968.37,-325.45 961.37,-325.34"/>
</g>
<!-- Node34&#45;&gt;Node23 -->
<g id="edge49" class="edge">
<title>Node34&#45;&gt;Node23</title>
<path fill="none" stroke="midnightblue" d="M984.65,-260.66C995,-248.86 1007.18,-234.97 1014.88,-226.19"/>
<polygon fill="midnightblue" stroke="midnightblue" points="981.83,-258.57 977.87,-268.4 987.09,-263.18 981.83,-258.57"/>
</g>
</g>
</svg>
