<?xml version="1.0" encoding="UTF-8" standalone="no"?>
<!DOCTYPE svg PUBLIC "-//W3C//DTD SVG 1.1//EN"
 "http://www.w3.org/Graphics/SVG/1.1/DTD/svg11.dtd">
<!-- Generated by graphviz version 2.43.0 (0)
 -->
<!-- Title: l4/sys/typeinfo_svr Pages: 1 -->
<svg width="721pt" height="767pt"
 viewBox="0.00 0.00 721.00 767.00" xmlns="http://www.w3.org/2000/svg" xmlns:xlink="http://www.w3.org/1999/xlink">
<g id="graph0" class="graph" transform="scale(1 1) rotate(0) translate(4 763)">
<title>l4/sys/typeinfo_svr</title>
<polygon fill="white" stroke="transparent" points="-4,4 -4,-763 717,-763 717,4 -4,4"/>
<!-- Node1 -->
<g id="node1" class="node">
<title>Node1</title>
<g id="a_node1"><a xlink:title="Type information server template.">
<polygon fill="#bfbfbf" stroke="black" points="185.5,-739.5 185.5,-758.5 294.5,-758.5 294.5,-739.5 185.5,-739.5"/>
<text text-anchor="middle" x="240" y="-746.5" font-family="Helvetica,sans-Serif" font-size="10.00">l4/sys/typeinfo_svr</text>
</a>
</g>
</g>
<!-- Node2 -->
<g id="node2" class="node">
<title>Node2</title>
<g id="a_node2"><a xlink:href="sys_2meta.html" target="_top" xlink:title="Meta interface for getting dynamic type information about objects behind capabilities.">
<polygon fill="white" stroke="black" points="381,-627.5 381,-646.5 455,-646.5 455,-627.5 381,-627.5"/>
<text text-anchor="middle" x="418" y="-634.5" font-family="Helvetica,sans-Serif" font-size="10.00">l4/sys/meta</text>
</a>
</g>
</g>
<!-- Node1&#45;&gt;Node2 -->
<g id="edge1" class="edge">
<title>Node1&#45;&gt;Node2</title>
<path fill="none" stroke="midnightblue" d="M253.97,-739.37C284.64,-720.41 358.13,-675 395.44,-651.94"/>
<polygon fill="midnightblue" stroke="midnightblue" points="397.43,-654.83 404.1,-646.59 393.75,-648.87 397.43,-654.83"/>
</g>
<!-- Node25 -->
<g id="node25" class="node">
<title>Node25</title>
<g id="a_node25"><a xlink:href="ipc__epiface_source.html" target="_top" xlink:title=" ">
<polygon fill="white" stroke="black" points="133,-683.5 133,-702.5 257,-702.5 257,-683.5 133,-683.5"/>
<text text-anchor="middle" x="195" y="-690.5" font-family="Helvetica,sans-Serif" font-size="10.00">l4/sys/cxx/ipc_epiface</text>
</a>
</g>
</g>
<!-- Node1&#45;&gt;Node25 -->
<g id="edge55" class="edge">
<title>Node1&#45;&gt;Node25</title>
<path fill="none" stroke="midnightblue" d="M232.57,-739.08C226.15,-731.38 216.69,-720.03 208.88,-710.65"/>
<polygon fill="midnightblue" stroke="midnightblue" points="211.38,-708.19 202.29,-702.75 206.01,-712.67 211.38,-708.19"/>
</g>
<!-- Node3 -->
<g id="node3" class="node">
<title>Node3</title>
<g id="a_node3"><a xlink:href="kobject_source.html" target="_top" xlink:title=" ">
<polygon fill="white" stroke="black" points="598,-515.5 598,-534.5 650,-534.5 650,-515.5 598,-515.5"/>
<text text-anchor="middle" x="624" y="-522.5" font-family="Helvetica,sans-Serif" font-size="10.00">kobject</text>
</a>
</g>
</g>
<!-- Node2&#45;&gt;Node3 -->
<g id="edge2" class="edge">
<title>Node2&#45;&gt;Node3</title>
<path fill="none" stroke="midnightblue" d="M435.5,-627.4C453.52,-618.49 482.37,-604.06 507,-591 539.48,-573.78 576.5,-553.02 600.04,-539.67"/>
<polygon fill="midnightblue" stroke="midnightblue" points="601.99,-542.59 608.96,-534.6 598.53,-536.5 601.99,-542.59"/>
</g>
<!-- Node21 -->
<g id="node21" class="node">
<title>Node21</title>
<g id="a_node21"><a xlink:href="ipc__iface.html" target="_top" xlink:title="Interface Definition Language.">
<polygon fill="white" stroke="black" points="323,-515.5 323,-534.5 403,-534.5 403,-515.5 323,-515.5"/>
<text text-anchor="middle" x="363" y="-522.5" font-family="Helvetica,sans-Serif" font-size="10.00">cxx/ipc_iface</text>
</a>
</g>
</g>
<!-- Node2&#45;&gt;Node21 -->
<g id="edge41" class="edge">
<title>Node2&#45;&gt;Node21</title>
<path fill="none" stroke="midnightblue" d="M413.68,-627.37C404.69,-609.38 383.78,-567.55 371.81,-543.63"/>
<polygon fill="midnightblue" stroke="midnightblue" points="374.9,-541.97 367.3,-534.59 368.64,-545.1 374.9,-541.97"/>
</g>
<!-- Node23 -->
<g id="node23" class="node">
<title>Node23</title>
<g id="a_node23"><a xlink:href="ipc__string_source.html" target="_top" xlink:title=" ">
<polygon fill="white" stroke="black" points="414,-571.5 414,-590.5 498,-590.5 498,-571.5 414,-571.5"/>
<text text-anchor="middle" x="456" y="-578.5" font-family="Helvetica,sans-Serif" font-size="10.00">cxx/ipc_string</text>
</a>
</g>
</g>
<!-- Node2&#45;&gt;Node23 -->
<g id="edge48" class="edge">
<title>Node2&#45;&gt;Node23</title>
<path fill="none" stroke="midnightblue" d="M424.27,-627.08C429.64,-619.46 437.52,-608.26 444.08,-598.94"/>
<polygon fill="midnightblue" stroke="midnightblue" points="446.95,-600.94 449.84,-590.75 441.22,-596.91 446.95,-600.94"/>
</g>
<!-- Node4 -->
<g id="node4" class="node">
<title>Node4</title>
<g id="a_node4"><a xlink:href="kernel__object_8h.html" target="_top" xlink:title="Kernel object system calls.">
<polygon fill="white" stroke="black" points="591.5,-403.5 591.5,-422.5 682.5,-422.5 682.5,-403.5 591.5,-403.5"/>
<text text-anchor="middle" x="637" y="-410.5" font-family="Helvetica,sans-Serif" font-size="10.00">kernel_object.h</text>
</a>
</g>
</g>
<!-- Node3&#45;&gt;Node4 -->
<g id="edge3" class="edge">
<title>Node3&#45;&gt;Node4</title>
<path fill="none" stroke="midnightblue" d="M625.02,-515.37C627.12,-497.62 631.96,-456.67 634.8,-432.6"/>
<polygon fill="midnightblue" stroke="midnightblue" points="638.29,-432.93 635.98,-422.59 631.34,-432.11 638.29,-432.93"/>
</g>
<!-- Node5 -->
<g id="node5" class="node">
<title>Node5</title>
<g id="a_node5"><a xlink:href="l4_2sys_2types_8h.html" target="_top" xlink:title="Common L4 ABI Data Types.">
<polygon fill="white" stroke="black" points="236,-168.5 236,-187.5 320,-187.5 320,-168.5 236,-168.5"/>
<text text-anchor="middle" x="278" y="-175.5" font-family="Helvetica,sans-Serif" font-size="10.00">l4/sys/types.h</text>
</a>
</g>
</g>
<!-- Node3&#45;&gt;Node5 -->
<g id="edge27" class="edge">
<title>Node3&#45;&gt;Node5</title>
<path fill="none" stroke="midnightblue" d="M634.68,-515.44C657.07,-496.36 705.72,-448.46 691,-403 670.21,-338.81 648.37,-329.02 602,-280 574.86,-251.31 568.93,-240.4 533,-224 467.25,-193.99 383.5,-183.92 330.3,-180.59"/>
<polygon fill="midnightblue" stroke="midnightblue" points="330.27,-177.08 320.08,-180.01 329.87,-184.07 330.27,-177.08"/>
</g>
<!-- Node16 -->
<g id="node16" class="node">
<title>Node16</title>
<g id="a_node16"><a xlink:href="____typeinfo_8h.html" target="_top" xlink:title="Type information handling.">
<polygon fill="white" stroke="black" points="135.5,-459.5 135.5,-478.5 212.5,-478.5 212.5,-459.5 135.5,-459.5"/>
<text text-anchor="middle" x="174" y="-466.5" font-family="Helvetica,sans-Serif" font-size="10.00">__typeinfo.h</text>
</a>
</g>
</g>
<!-- Node3&#45;&gt;Node16 -->
<g id="edge28" class="edge">
<title>Node3&#45;&gt;Node16</title>
<path fill="none" stroke="midnightblue" d="M597.86,-520.86C524.82,-512.1 317.7,-487.24 222.7,-475.84"/>
<polygon fill="midnightblue" stroke="midnightblue" points="222.85,-472.34 212.51,-474.62 222.02,-479.29 222.85,-472.34"/>
</g>
<!-- Node4&#45;&gt;Node5 -->
<g id="edge4" class="edge">
<title>Node4&#45;&gt;Node5</title>
<path fill="none" stroke="midnightblue" d="M636.41,-403.44C635.07,-388.73 630.84,-358.11 618,-336 581.85,-273.75 564.81,-257.33 501,-224 447.14,-195.87 377.46,-185.29 330.44,-181.34"/>
<polygon fill="midnightblue" stroke="midnightblue" points="330.42,-177.83 320.18,-180.55 329.88,-184.81 330.42,-177.83"/>
</g>
<!-- Node7 -->
<g id="node7" class="node">
<title>Node7</title>
<g id="a_node7"><a xlink:href="compiler_8h.html" target="_top" xlink:title="L4 compiler related defines.">
<polygon fill="white" stroke="black" points="436.5,-56.5 436.5,-75.5 535.5,-75.5 535.5,-56.5 436.5,-56.5"/>
<text text-anchor="middle" x="486" y="-63.5" font-family="Helvetica,sans-Serif" font-size="10.00">l4/sys/compiler.h</text>
</a>
</g>
</g>
<!-- Node4&#45;&gt;Node7 -->
<g id="edge15" class="edge">
<title>Node4&#45;&gt;Node7</title>
<path fill="none" stroke="midnightblue" d="M643.74,-403.36C662.34,-378.64 713,-304.89 713,-235 713,-235 713,-235 713,-177 713,-102.54 612.87,-78.47 545.62,-70.69"/>
<polygon fill="midnightblue" stroke="midnightblue" points="545.85,-67.2 535.54,-69.62 545.11,-74.16 545.85,-67.2"/>
</g>
<!-- Node12 -->
<g id="node12" class="node">
<title>Node12</title>
<g id="a_node12"><a xlink:href="l4_2sys_2utcb_8h.html" target="_top" xlink:title="UTCB definitions.">
<polygon fill="white" stroke="black" points="233,-224.5 233,-243.5 311,-243.5 311,-224.5 233,-224.5"/>
<text text-anchor="middle" x="272" y="-231.5" font-family="Helvetica,sans-Serif" font-size="10.00">l4/sys/utcb.h</text>
</a>
</g>
</g>
<!-- Node4&#45;&gt;Node12 -->
<g id="edge16" class="edge">
<title>Node4&#45;&gt;Node12</title>
<path fill="none" stroke="midnightblue" d="M591.47,-404.41C540.26,-395.44 460.62,-380.08 433,-367 371.16,-337.71 312.74,-279.55 286.49,-251.24"/>
<polygon fill="midnightblue" stroke="midnightblue" points="289.02,-248.82 279.69,-243.79 283.85,-253.53 289.02,-248.82"/>
</g>
<!-- Node13 -->
<g id="node13" class="node">
<title>Node13</title>
<g id="a_node13"><a xlink:href="____kernel__object__impl_8h.html" target="_top" xlink:title="Low&#45;level kernel debugger functions.">
<polygon fill="white" stroke="black" points="485,-336.5 485,-366.5 609,-366.5 609,-336.5 485,-336.5"/>
<text text-anchor="start" x="493" y="-354.5" font-family="Helvetica,sans-Serif" font-size="10.00">l4/sys/__kernel_object</text>
<text text-anchor="middle" x="547" y="-343.5" font-family="Helvetica,sans-Serif" font-size="10.00">_impl.h</text>
</a>
</g>
</g>
<!-- Node4&#45;&gt;Node13 -->
<g id="edge20" class="edge">
<title>Node4&#45;&gt;Node13</title>
<path fill="none" stroke="midnightblue" d="M624.11,-403.48C611.8,-395.34 592.82,-382.79 576.77,-372.18"/>
<polygon fill="midnightblue" stroke="midnightblue" points="578.48,-369.12 568.21,-366.52 574.62,-374.96 578.48,-369.12"/>
</g>
<!-- Node14 -->
<g id="node14" class="node">
<title>Node14</title>
<g id="a_node14"><a xlink:href="l4_2sys_2ipc_8h.html" target="_top" xlink:title="Common IPC interface.">
<polygon fill="white" stroke="black" points="357.5,-280.5 357.5,-299.5 428.5,-299.5 428.5,-280.5 357.5,-280.5"/>
<text text-anchor="middle" x="393" y="-287.5" font-family="Helvetica,sans-Serif" font-size="10.00">l4/sys/ipc.h</text>
</a>
</g>
</g>
<!-- Node4&#45;&gt;Node14 -->
<g id="edge26" class="edge">
<title>Node4&#45;&gt;Node14</title>
<path fill="none" stroke="midnightblue" d="M591.44,-405.15C557.95,-398.75 512.16,-387.08 476,-367 447.96,-351.43 421.76,-324.58 406.56,-307.32"/>
<polygon fill="midnightblue" stroke="midnightblue" points="409.2,-305.01 400.03,-299.71 403.88,-309.57 409.2,-305.01"/>
</g>
<!-- Node6 -->
<g id="node6" class="node">
<title>Node6</title>
<g id="a_node6"><a xlink:href="l4_2sys_2l4int_8h.html" target="_top" xlink:title="Fixed sized integer types, generic version.">
<polygon fill="white" stroke="black" points="136.5,-56.5 136.5,-75.5 215.5,-75.5 215.5,-56.5 136.5,-56.5"/>
<text text-anchor="middle" x="176" y="-63.5" font-family="Helvetica,sans-Serif" font-size="10.00">l4/sys/l4int.h</text>
</a>
</g>
</g>
<!-- Node5&#45;&gt;Node6 -->
<g id="edge5" class="edge">
<title>Node5&#45;&gt;Node6</title>
<path fill="none" stroke="midnightblue" d="M269.69,-168.44C260.98,-159.43 246.93,-144.81 235,-132 219.83,-115.72 202.77,-96.86 190.91,-83.67"/>
<polygon fill="midnightblue" stroke="midnightblue" points="193.23,-81 183.94,-75.9 188.02,-85.68 193.23,-81"/>
</g>
<!-- Node5&#45;&gt;Node7 -->
<g id="edge6" class="edge">
<title>Node5&#45;&gt;Node7</title>
<path fill="none" stroke="midnightblue" d="M290.3,-168.33C309.25,-155.2 346.94,-129.9 381,-112 404.64,-99.57 432.47,-87.77 453.53,-79.37"/>
<polygon fill="midnightblue" stroke="midnightblue" points="454.97,-82.57 462.99,-75.65 452.4,-76.05 454.97,-82.57"/>
</g>
<!-- Node9 -->
<g id="node9" class="node">
<title>Node9</title>
<g id="a_node9"><a xlink:href="l4_2sys_2consts_8h.html" target="_top" xlink:title="Common constants.">
<polygon fill="white" stroke="black" points="244.5,-112.5 244.5,-131.5 333.5,-131.5 333.5,-112.5 244.5,-112.5"/>
<text text-anchor="middle" x="289" y="-119.5" font-family="Helvetica,sans-Serif" font-size="10.00">l4/sys/consts.h</text>
</a>
</g>
</g>
<!-- Node5&#45;&gt;Node9 -->
<g id="edge8" class="edge">
<title>Node5&#45;&gt;Node9</title>
<path fill="none" stroke="midnightblue" d="M279.82,-168.08C281.27,-160.93 283.37,-150.64 285.19,-141.69"/>
<polygon fill="midnightblue" stroke="midnightblue" points="288.65,-142.25 287.22,-131.75 281.79,-140.85 288.65,-142.25"/>
</g>
<!-- Node10 -->
<g id="node10" class="node">
<title>Node10</title>
<g id="a_node10"><a xlink:href="____l4__fpage_8h_source.html" target="_top" xlink:title=" ">
<polygon fill="white" stroke="black" points="390,-112.5 390,-131.5 500,-131.5 500,-112.5 390,-112.5"/>
<text text-anchor="middle" x="445" y="-119.5" font-family="Helvetica,sans-Serif" font-size="10.00">l4/sys/__l4_fpage.h</text>
</a>
</g>
</g>
<!-- Node5&#45;&gt;Node10 -->
<g id="edge11" class="edge">
<title>Node5&#45;&gt;Node10</title>
<path fill="none" stroke="midnightblue" d="M304.46,-168.44C332.68,-159.32 377.54,-144.81 408.97,-134.65"/>
<polygon fill="midnightblue" stroke="midnightblue" points="410.22,-137.92 418.66,-131.52 408.07,-131.26 410.22,-137.92"/>
</g>
<!-- Node11 -->
<g id="node11" class="node">
<title>Node11</title>
<g id="a_node11"><a xlink:href="____timeout_8h_source.html" target="_top" xlink:title=" ">
<polygon fill="white" stroke="black" points="82,-112.5 82,-131.5 188,-131.5 188,-112.5 82,-112.5"/>
<text text-anchor="middle" x="135" y="-119.5" font-family="Helvetica,sans-Serif" font-size="10.00">l4/sys/__timeout.h</text>
</a>
</g>
</g>
<!-- Node5&#45;&gt;Node11 -->
<g id="edge13" class="edge">
<title>Node5&#45;&gt;Node11</title>
<path fill="none" stroke="midnightblue" d="M255.34,-168.44C231.6,-159.48 194.09,-145.31 167.26,-135.18"/>
<polygon fill="midnightblue" stroke="midnightblue" points="168.14,-131.77 157.55,-131.52 165.67,-138.32 168.14,-131.77"/>
</g>
<!-- Node8 -->
<g id="node8" class="node">
<title>Node8</title>
<g id="a_node8"><a xlink:title=" ">
<polygon fill="white" stroke="#bfbfbf" points="440,-0.5 440,-19.5 532,-19.5 532,-0.5 440,-0.5"/>
<text text-anchor="middle" x="486" y="-7.5" font-family="Helvetica,sans-Serif" font-size="10.00">l4/sys/linkage.h</text>
</a>
</g>
</g>
<!-- Node7&#45;&gt;Node8 -->
<g id="edge7" class="edge">
<title>Node7&#45;&gt;Node8</title>
<path fill="none" stroke="midnightblue" d="M486,-56.08C486,-49.01 486,-38.86 486,-29.99"/>
<polygon fill="midnightblue" stroke="midnightblue" points="489.5,-29.75 486,-19.75 482.5,-29.75 489.5,-29.75"/>
</g>
<!-- Node9&#45;&gt;Node6 -->
<g id="edge10" class="edge">
<title>Node9&#45;&gt;Node6</title>
<path fill="none" stroke="midnightblue" d="M271.09,-112.44C252.75,-103.68 223.99,-89.94 202.91,-79.86"/>
<polygon fill="midnightblue" stroke="midnightblue" points="204.35,-76.67 193.82,-75.52 201.33,-82.99 204.35,-76.67"/>
</g>
<!-- Node9&#45;&gt;Node7 -->
<g id="edge9" class="edge">
<title>Node9&#45;&gt;Node7</title>
<path fill="none" stroke="midnightblue" d="M320.22,-112.44C353.93,-103.2 407.8,-88.44 444.93,-78.26"/>
<polygon fill="midnightblue" stroke="midnightblue" points="446.21,-81.54 454.93,-75.52 444.36,-74.78 446.21,-81.54"/>
</g>
<!-- Node10&#45;&gt;Node7 -->
<g id="edge12" class="edge">
<title>Node10&#45;&gt;Node7</title>
<path fill="none" stroke="midnightblue" d="M451.77,-112.08C457.56,-104.46 466.06,-93.26 473.14,-83.94"/>
<polygon fill="midnightblue" stroke="midnightblue" points="476.1,-85.83 479.36,-75.75 470.52,-81.6 476.1,-85.83"/>
</g>
<!-- Node11&#45;&gt;Node6 -->
<g id="edge14" class="edge">
<title>Node11&#45;&gt;Node6</title>
<path fill="none" stroke="midnightblue" d="M141.77,-112.08C147.56,-104.46 156.06,-93.26 163.14,-83.94"/>
<polygon fill="midnightblue" stroke="midnightblue" points="166.1,-85.83 169.36,-75.75 160.52,-81.6 166.1,-85.83"/>
</g>
<!-- Node12&#45;&gt;Node5 -->
<g id="edge17" class="edge">
<title>Node12&#45;&gt;Node5</title>
<path fill="none" stroke="midnightblue" d="M272.99,-224.08C273.79,-216.93 274.93,-206.64 275.92,-197.69"/>
<polygon fill="midnightblue" stroke="midnightblue" points="279.4,-198.08 277.03,-187.75 272.44,-197.3 279.4,-198.08"/>
</g>
<!-- Node12&#45;&gt;Node6 -->
<g id="edge19" class="edge">
<title>Node12&#45;&gt;Node6</title>
<path fill="none" stroke="midnightblue" d="M232.63,-225.76C185.26,-214.71 107.76,-188.63 73,-132 56.84,-105.68 92.66,-88.23 126.4,-78.1"/>
<polygon fill="midnightblue" stroke="midnightblue" points="127.61,-81.4 136.28,-75.31 125.71,-74.66 127.61,-81.4"/>
</g>
<!-- Node12&#45;&gt;Node7 -->
<g id="edge18" class="edge">
<title>Node12&#45;&gt;Node7</title>
<path fill="none" stroke="midnightblue" d="M311.45,-229.21C366.58,-221.56 464.86,-198.79 509,-132 518.85,-117.09 509.39,-97.46 499.79,-83.69"/>
<polygon fill="midnightblue" stroke="midnightblue" points="502.49,-81.46 493.67,-75.6 496.91,-85.68 502.49,-81.46"/>
</g>
<!-- Node13&#45;&gt;Node14 -->
<g id="edge21" class="edge">
<title>Node13&#45;&gt;Node14</title>
<path fill="none" stroke="midnightblue" d="M510.5,-336.4C484.43,-326.33 449.71,-312.91 424.78,-303.28"/>
<polygon fill="midnightblue" stroke="midnightblue" points="426,-300 415.41,-299.66 423.47,-306.53 426,-300"/>
</g>
<!-- Node14&#45;&gt;Node5 -->
<g id="edge22" class="edge">
<title>Node14&#45;&gt;Node5</title>
<path fill="none" stroke="midnightblue" d="M383.98,-280.37C364.66,-261.89 319.08,-218.29 294.46,-194.74"/>
<polygon fill="midnightblue" stroke="midnightblue" points="296.63,-191.97 286.98,-187.59 291.79,-197.03 296.63,-191.97"/>
</g>
<!-- Node14&#45;&gt;Node12 -->
<g id="edge23" class="edge">
<title>Node14&#45;&gt;Node12</title>
<path fill="none" stroke="midnightblue" d="M373.83,-280.44C354.09,-271.64 323.11,-257.81 300.51,-247.72"/>
<polygon fill="midnightblue" stroke="midnightblue" points="301.64,-244.4 291.08,-243.52 298.79,-250.79 301.64,-244.4"/>
</g>
<!-- Node15 -->
<g id="node15" class="node">
<title>Node15</title>
<g id="a_node15"><a xlink:href="err_8h.html" target="_top" xlink:title="Error codes.">
<polygon fill="white" stroke="black" points="422,-224.5 422,-243.5 492,-243.5 492,-224.5 422,-224.5"/>
<text text-anchor="middle" x="457" y="-231.5" font-family="Helvetica,sans-Serif" font-size="10.00">l4/sys/err.h</text>
</a>
</g>
</g>
<!-- Node14&#45;&gt;Node15 -->
<g id="edge24" class="edge">
<title>Node14&#45;&gt;Node15</title>
<path fill="none" stroke="midnightblue" d="M403.28,-280.32C412.84,-272.26 427.28,-260.08 438.78,-250.37"/>
<polygon fill="midnightblue" stroke="midnightblue" points="441.14,-252.96 446.53,-243.83 436.63,-247.61 441.14,-252.96"/>
</g>
<!-- Node15&#45;&gt;Node7 -->
<g id="edge25" class="edge">
<title>Node15&#45;&gt;Node7</title>
<path fill="none" stroke="midnightblue" d="M490.8,-224.39C509.39,-217.74 530.89,-206.45 542,-188 559.42,-159.06 556.6,-142.46 542,-112 535.75,-98.95 523.66,-88.49 512.32,-80.95"/>
<polygon fill="midnightblue" stroke="midnightblue" points="513.85,-77.79 503.5,-75.54 510.19,-83.75 513.85,-77.79"/>
</g>
<!-- Node17 -->
<g id="node17" class="node">
<title>Node17</title>
<g id="a_node17"><a xlink:href="types.html" target="_top" xlink:title=" ">
<polygon fill="white" stroke="black" points="289,-342 289,-361 353,-361 353,-342 289,-342"/>
<text text-anchor="middle" x="321" y="-349" font-family="Helvetica,sans-Serif" font-size="10.00">cxx/types</text>
</a>
</g>
</g>
<!-- Node16&#45;&gt;Node17 -->
<g id="edge29" class="edge">
<title>Node16&#45;&gt;Node17</title>
<path fill="none" stroke="midnightblue" d="M181.59,-459.39C193.35,-446.33 217.01,-421.12 240,-403 257.73,-389.02 279.54,-375.62 296.05,-366.13"/>
<polygon fill="midnightblue" stroke="midnightblue" points="298.11,-368.99 305.1,-361.03 294.67,-362.9 298.11,-368.99"/>
</g>
<!-- Node18 -->
<g id="node18" class="node">
<title>Node18</title>
<g id="a_node18"><a xlink:href="ipc__basics_source.html" target="_top" xlink:title=" ">
<polygon fill="white" stroke="black" points="249.5,-403.5 249.5,-422.5 336.5,-422.5 336.5,-403.5 249.5,-403.5"/>
<text text-anchor="middle" x="293" y="-410.5" font-family="Helvetica,sans-Serif" font-size="10.00">cxx/ipc_basics</text>
</a>
</g>
</g>
<!-- Node16&#45;&gt;Node18 -->
<g id="edge30" class="edge">
<title>Node16&#45;&gt;Node18</title>
<path fill="none" stroke="midnightblue" d="M192.86,-459.44C212.27,-450.64 242.73,-436.81 264.96,-426.72"/>
<polygon fill="midnightblue" stroke="midnightblue" points="266.57,-429.84 274.23,-422.52 263.68,-423.46 266.57,-429.84"/>
</g>
<!-- Node19 -->
<g id="node19" class="node">
<title>Node19</title>
<g id="a_node19"><a xlink:href="capability_8h_source.html" target="_top" xlink:title=" ">
<polygon fill="white" stroke="black" points="100,-403.5 100,-422.5 192,-422.5 192,-403.5 100,-403.5"/>
<text text-anchor="middle" x="146" y="-410.5" font-family="Helvetica,sans-Serif" font-size="10.00">cxx/capability.h</text>
</a>
</g>
</g>
<!-- Node16&#45;&gt;Node19 -->
<g id="edge34" class="edge">
<title>Node16&#45;&gt;Node19</title>
<path fill="none" stroke="midnightblue" d="M169.38,-459.08C165.54,-451.69 159.98,-440.95 155.24,-431.81"/>
<polygon fill="midnightblue" stroke="midnightblue" points="158.25,-430.02 150.54,-422.75 152.03,-433.24 158.25,-430.02"/>
</g>
<!-- Node18&#45;&gt;Node12 -->
<g id="edge32" class="edge">
<title>Node18&#45;&gt;Node12</title>
<path fill="none" stroke="midnightblue" d="M289.82,-403.17C286.74,-394.19 282.21,-379.82 280,-367 273.13,-327.17 271.92,-279.7 271.84,-253.93"/>
<polygon fill="midnightblue" stroke="midnightblue" points="275.34,-253.73 271.87,-243.73 268.34,-253.72 275.34,-253.73"/>
</g>
<!-- Node18&#45;&gt;Node15 -->
<g id="edge33" class="edge">
<title>Node18&#45;&gt;Node15</title>
<path fill="none" stroke="midnightblue" d="M310.79,-403.36C341.6,-387.42 404.69,-350.39 437,-300 446.06,-285.87 451.23,-267.38 454.03,-253.74"/>
<polygon fill="midnightblue" stroke="midnightblue" points="457.52,-254.08 455.86,-243.62 450.63,-252.84 457.52,-254.08"/>
</g>
<!-- Node18&#45;&gt;Node17 -->
<g id="edge31" class="edge">
<title>Node18&#45;&gt;Node17</title>
<path fill="none" stroke="midnightblue" d="M297.01,-403.48C301.09,-394.82 307.52,-381.15 312.7,-370.15"/>
<polygon fill="midnightblue" stroke="midnightblue" points="315.9,-371.55 317,-361.01 309.57,-368.57 315.9,-371.55"/>
</g>
<!-- Node19&#45;&gt;Node5 -->
<g id="edge36" class="edge">
<title>Node19&#45;&gt;Node5</title>
<path fill="none" stroke="midnightblue" d="M143.76,-403.36C140.45,-389.05 135.3,-359.65 142,-336 157.94,-279.75 170.48,-266.15 211,-224 222.99,-211.53 239.01,-200.61 252.37,-192.66"/>
<polygon fill="midnightblue" stroke="midnightblue" points="254.19,-195.66 261.12,-187.64 250.7,-189.58 254.19,-195.66"/>
</g>
<!-- Node19&#45;&gt;Node9 -->
<g id="edge35" class="edge">
<title>Node19&#45;&gt;Node9</title>
<path fill="none" stroke="midnightblue" d="M143.27,-403.49C140.55,-394.52 136.56,-379.94 135,-367 130.3,-327.97 134.35,-315.62 151,-280 176.47,-225.5 185.14,-211.2 227,-168 238.54,-156.09 253.56,-145.1 265.92,-136.96"/>
<polygon fill="midnightblue" stroke="midnightblue" points="267.82,-139.9 274.36,-131.57 264.05,-134 267.82,-139.9"/>
</g>
<!-- Node20 -->
<g id="node20" class="node">
<title>Node20</title>
<g id="a_node20"><a xlink:href="l4_2sys_2task_8h.html" target="_top" xlink:title="Common task related definitions.">
<polygon fill="white" stroke="black" points="151,-342 151,-361 229,-361 229,-342 151,-342"/>
<text text-anchor="middle" x="190" y="-349" font-family="Helvetica,sans-Serif" font-size="10.00">l4/sys/task.h</text>
</a>
</g>
</g>
<!-- Node19&#45;&gt;Node20 -->
<g id="edge37" class="edge">
<title>Node19&#45;&gt;Node20</title>
<path fill="none" stroke="midnightblue" d="M152.3,-403.48C158.9,-394.55 169.44,-380.31 177.69,-369.14"/>
<polygon fill="midnightblue" stroke="midnightblue" points="180.58,-371.13 183.71,-361.01 174.95,-366.97 180.58,-371.13"/>
</g>
<!-- Node20&#45;&gt;Node5 -->
<g id="edge38" class="edge">
<title>Node20&#45;&gt;Node5</title>
<path fill="none" stroke="midnightblue" d="M190.54,-341.8C192.25,-320.2 198.99,-263.07 224,-224 231.89,-211.67 244.24,-201.02 255.14,-193.18"/>
<polygon fill="midnightblue" stroke="midnightblue" points="257.16,-196.03 263.46,-187.51 253.22,-190.25 257.16,-196.03"/>
</g>
<!-- Node20&#45;&gt;Node12 -->
<g id="edge39" class="edge">
<title>Node20&#45;&gt;Node12</title>
<path fill="none" stroke="midnightblue" d="M196.16,-341.82C209.7,-322.76 242.22,-276.95 259.96,-251.96"/>
<polygon fill="midnightblue" stroke="midnightblue" points="262.83,-253.96 265.77,-243.78 257.12,-249.91 262.83,-253.96"/>
</g>
<!-- Node20&#45;&gt;Node14 -->
<g id="edge40" class="edge">
<title>Node20&#45;&gt;Node14</title>
<path fill="none" stroke="midnightblue" d="M219.08,-341.98C254.58,-331.57 314.75,-313.94 354.17,-302.38"/>
<polygon fill="midnightblue" stroke="midnightblue" points="355.36,-305.68 363.97,-299.51 353.39,-298.96 355.36,-305.68"/>
</g>
<!-- Node21&#45;&gt;Node16 -->
<g id="edge47" class="edge">
<title>Node21&#45;&gt;Node16</title>
<path fill="none" stroke="midnightblue" d="M333.05,-515.44C300.84,-506.24 249.47,-491.56 213.86,-481.39"/>
<polygon fill="midnightblue" stroke="midnightblue" points="214.38,-477.9 203.81,-478.52 212.46,-484.63 214.38,-477.9"/>
</g>
<!-- Node21&#45;&gt;Node18 -->
<g id="edge42" class="edge">
<title>Node21&#45;&gt;Node18</title>
<path fill="none" stroke="midnightblue" d="M341.9,-515.39C326.91,-508.07 307.77,-496.02 298,-479 289.99,-465.04 289.34,-446.54 290.34,-432.84"/>
<polygon fill="midnightblue" stroke="midnightblue" points="293.84,-433 291.44,-422.68 286.88,-432.24 293.84,-433"/>
</g>
<!-- Node22 -->
<g id="node22" class="node">
<title>Node22</title>
<g id="a_node22"><a xlink:href="ipc__types.html" target="_top" xlink:title=" ">
<polygon fill="white" stroke="black" points="307.5,-459.5 307.5,-478.5 422.5,-478.5 422.5,-459.5 307.5,-459.5"/>
<text text-anchor="middle" x="365" y="-466.5" font-family="Helvetica,sans-Serif" font-size="10.00">l4/sys/cxx/ipc_types</text>
</a>
</g>
</g>
<!-- Node21&#45;&gt;Node22 -->
<g id="edge43" class="edge">
<title>Node21&#45;&gt;Node22</title>
<path fill="none" stroke="midnightblue" d="M363.33,-515.08C363.59,-508.01 363.97,-497.86 364.3,-488.99"/>
<polygon fill="midnightblue" stroke="midnightblue" points="367.8,-488.87 364.68,-478.75 360.81,-488.61 367.8,-488.87"/>
</g>
<!-- Node22&#45;&gt;Node17 -->
<g id="edge45" class="edge">
<title>Node22&#45;&gt;Node17</title>
<path fill="none" stroke="midnightblue" d="M362.8,-459.45C359.46,-446.89 352.71,-422.81 345,-403 340.71,-391.97 335.06,-380 330.32,-370.47"/>
<polygon fill="midnightblue" stroke="midnightblue" points="333.3,-368.6 325.65,-361.27 327.06,-371.77 333.3,-368.6"/>
</g>
<!-- Node22&#45;&gt;Node18 -->
<g id="edge46" class="edge">
<title>Node22&#45;&gt;Node18</title>
<path fill="none" stroke="midnightblue" d="M353.43,-459.32C342.58,-451.18 326.12,-438.84 313.12,-429.09"/>
<polygon fill="midnightblue" stroke="midnightblue" points="314.88,-426.03 304.78,-422.83 310.68,-431.63 314.88,-426.03"/>
</g>
<!-- Node22&#45;&gt;Node19 -->
<g id="edge44" class="edge">
<title>Node22&#45;&gt;Node19</title>
<path fill="none" stroke="midnightblue" d="M330.3,-459.44C292.42,-450.1 231.65,-435.12 190.34,-424.93"/>
<polygon fill="midnightblue" stroke="midnightblue" points="191.09,-421.51 180.54,-422.52 189.41,-428.31 191.09,-421.51"/>
</g>
<!-- Node23&#45;&gt;Node17 -->
<g id="edge49" class="edge">
<title>Node23&#45;&gt;Node17</title>
<path fill="none" stroke="midnightblue" d="M472.63,-571.46C485.49,-563.84 502.34,-551.36 510,-535 525.47,-501.96 499.81,-488.96 479,-459 460.3,-432.08 457.17,-422.74 431,-403 408.64,-386.13 379.75,-373.14 357.19,-364.56"/>
<polygon fill="midnightblue" stroke="midnightblue" points="358.22,-361.21 347.63,-361.04 355.8,-367.78 358.22,-361.21"/>
</g>
<!-- Node23&#45;&gt;Node18 -->
<g id="edge50" class="edge">
<title>Node23&#45;&gt;Node18</title>
<path fill="none" stroke="midnightblue" d="M466.71,-571.3C475.94,-563.07 488.59,-549.79 494,-535 507.26,-498.76 483.82,-480.84 452,-459 420.84,-437.61 379.64,-426.32 346.99,-420.4"/>
<polygon fill="midnightblue" stroke="midnightblue" points="347.16,-416.87 336.71,-418.66 345.99,-423.78 347.16,-416.87"/>
</g>
<!-- Node24 -->
<g id="node24" class="node">
<title>Node24</title>
<g id="a_node24"><a xlink:href="ipc__array_source.html" target="_top" xlink:title=" ">
<polygon fill="white" stroke="black" points="423,-515.5 423,-534.5 485,-534.5 485,-515.5 423,-515.5"/>
<text text-anchor="middle" x="454" y="-522.5" font-family="Helvetica,sans-Serif" font-size="10.00">ipc_array</text>
</a>
</g>
</g>
<!-- Node23&#45;&gt;Node24 -->
<g id="edge51" class="edge">
<title>Node23&#45;&gt;Node24</title>
<path fill="none" stroke="midnightblue" d="M455.67,-571.08C455.41,-564.01 455.03,-553.86 454.7,-544.99"/>
<polygon fill="midnightblue" stroke="midnightblue" points="458.19,-544.61 454.32,-534.75 451.2,-544.87 458.19,-544.61"/>
</g>
<!-- Node24&#45;&gt;Node17 -->
<g id="edge52" class="edge">
<title>Node24&#45;&gt;Node17</title>
<path fill="none" stroke="midnightblue" d="M455.88,-515.46C458.28,-502.5 461.11,-477.42 452,-459 430.09,-414.72 380.24,-382.58 348.74,-365.79"/>
<polygon fill="midnightblue" stroke="midnightblue" points="350.1,-362.55 339.6,-361.07 346.89,-368.77 350.1,-362.55"/>
</g>
<!-- Node24&#45;&gt;Node18 -->
<g id="edge53" class="edge">
<title>Node24&#45;&gt;Node18</title>
<path fill="none" stroke="midnightblue" d="M453.31,-515.12C451.75,-501.23 446.77,-474.38 431,-459 408.51,-437.06 375.19,-425.82 346.92,-420.06"/>
<polygon fill="midnightblue" stroke="midnightblue" points="347.24,-416.55 336.77,-418.17 345.96,-423.44 347.24,-416.55"/>
</g>
<!-- Node24&#45;&gt;Node22 -->
<g id="edge54" class="edge">
<title>Node24&#45;&gt;Node22</title>
<path fill="none" stroke="midnightblue" d="M439.7,-515.32C425.82,-506.9 404.51,-493.97 388.2,-484.07"/>
<polygon fill="midnightblue" stroke="midnightblue" points="389.63,-480.85 379.26,-478.65 386,-486.83 389.63,-480.85"/>
</g>
<!-- Node25&#45;&gt;Node2 -->
<g id="edge66" class="edge">
<title>Node25&#45;&gt;Node2</title>
<path fill="none" stroke="midnightblue" d="M230.34,-683.44C268.91,-674.1 330.78,-659.12 372.85,-648.93"/>
<polygon fill="midnightblue" stroke="midnightblue" points="373.93,-652.27 382.83,-646.52 372.29,-645.47 373.93,-652.27"/>
</g>
<!-- Node25&#45;&gt;Node5 -->
<g id="edge63" class="edge">
<title>Node25&#45;&gt;Node5</title>
<path fill="none" stroke="midnightblue" d="M133.57,-683.49C76.41,-671.7 0,-644.29 0,-582 0,-582 0,-582 0,-412 0,-288.15 164.07,-217.08 240.13,-190.79"/>
<polygon fill="midnightblue" stroke="midnightblue" points="241.46,-194.03 249.81,-187.52 239.22,-187.4 241.46,-194.03"/>
</g>
<!-- Node25&#45;&gt;Node12 -->
<g id="edge64" class="edge">
<title>Node25&#45;&gt;Node12</title>
<path fill="none" stroke="midnightblue" d="M187.18,-683.06C157.26,-647.7 53.51,-514.16 91,-403 116.66,-326.93 201.63,-272.25 245.41,-248.38"/>
<polygon fill="midnightblue" stroke="midnightblue" points="247.16,-251.41 254.34,-243.62 243.87,-245.23 247.16,-251.41"/>
</g>
<!-- Node25&#45;&gt;Node16 -->
<g id="edge65" class="edge">
<title>Node25&#45;&gt;Node16</title>
<path fill="none" stroke="midnightblue" d="M191.35,-683.29C184.36,-666.05 169.28,-626.19 164,-591 158.6,-554.99 165.04,-512.49 169.8,-488.65"/>
<polygon fill="midnightblue" stroke="midnightblue" points="173.29,-489.06 171.94,-478.55 166.44,-487.61 173.29,-489.06"/>
</g>
<!-- Node25&#45;&gt;Node19 -->
<g id="edge56" class="edge">
<title>Node25&#45;&gt;Node19</title>
<path fill="none" stroke="midnightblue" d="M188.81,-683.44C182.73,-674.68 173.58,-660.47 168,-647 138.55,-575.89 135.4,-555.39 126,-479 124.91,-470.18 124.15,-467.7 126,-459 128,-449.59 132.1,-439.76 136.07,-431.7"/>
<polygon fill="midnightblue" stroke="midnightblue" points="139.31,-433.07 140.87,-422.59 133.11,-429.81 139.31,-433.07"/>
</g>
<!-- Node25&#45;&gt;Node23 -->
<g id="edge62" class="edge">
<title>Node25&#45;&gt;Node23</title>
<path fill="none" stroke="midnightblue" d="M226.25,-683.47C254.59,-675.35 297.27,-662.14 333,-647 337.98,-644.89 396.23,-613.9 430.75,-595.48"/>
<polygon fill="midnightblue" stroke="midnightblue" points="432.62,-598.45 439.8,-590.66 429.33,-592.28 432.62,-598.45"/>
</g>
<!-- Node26 -->
<g id="node26" class="node">
<title>Node26</title>
<g id="a_node26"><a xlink:href="sys_2cxx_2ipc__server_source.html" target="_top" xlink:title=" ">
<polygon fill="white" stroke="black" points="173.5,-571.5 173.5,-590.5 240.5,-590.5 240.5,-571.5 173.5,-571.5"/>
<text text-anchor="middle" x="207" y="-578.5" font-family="Helvetica,sans-Serif" font-size="10.00">ipc_server</text>
</a>
</g>
</g>
<!-- Node25&#45;&gt;Node26 -->
<g id="edge57" class="edge">
<title>Node25&#45;&gt;Node26</title>
<path fill="none" stroke="midnightblue" d="M195.94,-683.37C197.88,-665.62 202.35,-624.67 204.97,-600.6"/>
<polygon fill="midnightblue" stroke="midnightblue" points="208.46,-600.91 206.06,-590.59 201.5,-600.15 208.46,-600.91"/>
</g>
<!-- Node28 -->
<g id="node28" class="node">
<title>Node28</title>
<g id="a_node28"><a xlink:href="type__traits_source.html" target="_top" xlink:title=" ">
<polygon fill="white" stroke="black" points="223.5,-627.5 223.5,-646.5 324.5,-646.5 324.5,-627.5 223.5,-627.5"/>
<text text-anchor="middle" x="274" y="-634.5" font-family="Helvetica,sans-Serif" font-size="10.00">l4/cxx/type_traits</text>
</a>
</g>
</g>
<!-- Node25&#45;&gt;Node28 -->
<g id="edge67" class="edge">
<title>Node25&#45;&gt;Node28</title>
<path fill="none" stroke="midnightblue" d="M207.69,-683.32C219.9,-674.98 238.58,-662.21 253,-652.35"/>
<polygon fill="midnightblue" stroke="midnightblue" points="255.06,-655.19 261.34,-646.65 251.11,-649.41 255.06,-655.19"/>
</g>
<!-- Node26&#45;&gt;Node16 -->
<g id="edge60" class="edge">
<title>Node26&#45;&gt;Node16</title>
<path fill="none" stroke="midnightblue" d="M204.41,-571.37C199.06,-553.54 186.69,-512.3 179.48,-488.27"/>
<polygon fill="midnightblue" stroke="midnightblue" points="182.8,-487.16 176.58,-478.59 176.1,-489.18 182.8,-487.16"/>
</g>
<!-- Node26&#45;&gt;Node18 -->
<g id="edge58" class="edge">
<title>Node26&#45;&gt;Node18</title>
<path fill="none" stroke="midnightblue" d="M229.38,-571.37C245.07,-564.11 265.11,-552.14 276,-535 278.71,-530.74 286.8,-465.79 290.77,-432.85"/>
<polygon fill="midnightblue" stroke="midnightblue" points="294.27,-433.04 291.98,-422.69 287.32,-432.21 294.27,-433.04"/>
</g>
<!-- Node26&#45;&gt;Node21 -->
<g id="edge59" class="edge">
<title>Node26&#45;&gt;Node21</title>
<path fill="none" stroke="midnightblue" d="M231.72,-571.44C257.85,-562.4 299.26,-548.06 328.58,-537.92"/>
<polygon fill="midnightblue" stroke="midnightblue" points="330.09,-541.1 338.4,-534.52 327.8,-534.48 330.09,-541.1"/>
</g>
<!-- Node27 -->
<g id="node27" class="node">
<title>Node27</title>
<g id="a_node27"><a xlink:title=" ">
<polygon fill="white" stroke="#bfbfbf" points="211,-515.5 211,-534.5 267,-534.5 267,-515.5 211,-515.5"/>
<text text-anchor="middle" x="239" y="-522.5" font-family="Helvetica,sans-Serif" font-size="10.00">stddef.h</text>
</a>
</g>
</g>
<!-- Node26&#45;&gt;Node27 -->
<g id="edge61" class="edge">
<title>Node26&#45;&gt;Node27</title>
<path fill="none" stroke="midnightblue" d="M212.28,-571.08C216.71,-563.61 223.16,-552.72 228.62,-543.52"/>
<polygon fill="midnightblue" stroke="midnightblue" points="231.73,-545.14 233.81,-534.75 225.71,-541.57 231.73,-545.14"/>
</g>
<!-- Node29 -->
<g id="node29" class="node">
<title>Node29</title>
<g id="a_node29"><a xlink:href="type__traits_8h_source.html" target="_top" xlink:title=" ">
<polygon fill="white" stroke="black" points="258.5,-571.5 258.5,-590.5 357.5,-590.5 357.5,-571.5 258.5,-571.5"/>
<text text-anchor="middle" x="308" y="-578.5" font-family="Helvetica,sans-Serif" font-size="10.00">bits/type_traits.h</text>
</a>
</g>
</g>
<!-- Node28&#45;&gt;Node29 -->
<g id="edge68" class="edge">
<title>Node28&#45;&gt;Node29</title>
<path fill="none" stroke="midnightblue" d="M279.61,-627.08C284.37,-619.53 291.32,-608.49 297.15,-599.23"/>
<polygon fill="midnightblue" stroke="midnightblue" points="300.12,-601.08 302.49,-590.75 294.2,-597.35 300.12,-601.08"/>
</g>
</g>
</svg>
