<?xml version="1.0" encoding="UTF-8" standalone="no"?>
<!DOCTYPE svg PUBLIC "-//W3C//DTD SVG 1.1//EN"
 "http://www.w3.org/Graphics/SVG/1.1/DTD/svg11.dtd">
<!-- Generated by graphviz version 2.43.0 (0)
 -->
<!-- Title: l4_timeout_t Pages: 1 -->
<svg width="88pt" height="193pt"
 viewBox="0.00 0.00 88.00 193.00" xmlns="http://www.w3.org/2000/svg" xmlns:xlink="http://www.w3.org/1999/xlink">
<g id="graph0" class="graph" transform="scale(1 1) rotate(0) translate(4 189)">
<title>l4_timeout_t</title>
<polygon fill="white" stroke="transparent" points="-4,4 -4,-189 84,-189 84,4 -4,4"/>
<!-- Node1 -->
<g id="node1" class="node">
<title>Node1</title>
<g id="a_node1"><a xlink:title="Timeout pair.">
<polygon fill="#bfbfbf" stroke="black" points="1,-0.5 1,-68.5 79,-68.5 79,-0.5 1,-0.5"/>
<text text-anchor="middle" x="40" y="-56.5" font-family="Helvetica,sans-Serif" font-size="10.00">l4_timeout_t</text>
<polyline fill="none" stroke="black" points="1,-49.5 79,-49.5 "/>
<text text-anchor="start" x="9" y="-37.5" font-family="Helvetica,sans-Serif" font-size="10.00">+ raw</text>
<text text-anchor="start" x="9" y="-26.5" font-family="Helvetica,sans-Serif" font-size="10.00">+ p</text>
<polyline fill="none" stroke="black" points="1,-19.5 79,-19.5 "/>
<text text-anchor="middle" x="40" y="-7.5" font-family="Helvetica,sans-Serif" font-size="10.00"> </text>
</a>
</g>
</g>
<!-- Node2 -->
<g id="node2" class="node">
<title>Node2</title>
<g id="a_node2"><a xlink:href="structl4__timeout__s.html" target="_top" xlink:title="Basic timeout specification.">
<polygon fill="white" stroke="black" points="0,-127.5 0,-184.5 80,-184.5 80,-127.5 0,-127.5"/>
<text text-anchor="middle" x="40" y="-172.5" font-family="Helvetica,sans-Serif" font-size="10.00">l4_timeout_s</text>
<polyline fill="none" stroke="black" points="0,-165.5 80,-165.5 "/>
<text text-anchor="start" x="8" y="-153.5" font-family="Helvetica,sans-Serif" font-size="10.00">+ t</text>
<polyline fill="none" stroke="black" points="0,-146.5 80,-146.5 "/>
<text text-anchor="middle" x="40" y="-134.5" font-family="Helvetica,sans-Serif" font-size="10.00"> </text>
</a>
</g>
</g>
<!-- Node2&#45;&gt;Node1 -->
<g id="edge1" class="edge">
<title>Node2&#45;&gt;Node1</title>
<path fill="none" stroke="#404040" d="M40,-127.28C40,-113.47 40,-96.4 40,-80.75"/>
<polygon fill="none" stroke="#404040" points="40,-80.59 36,-74.59 40,-68.59 44,-74.59 40,-80.59"/>
<text text-anchor="middle" x="53.5" y="-101" font-family="Helvetica,sans-Serif" font-size="10.00"> +rcv</text>
<text text-anchor="middle" x="53.5" y="-90" font-family="Helvetica,sans-Serif" font-size="10.00">+snd</text>
</g>
</g>
</svg>
