<?xml version="1.0" encoding="UTF-8" standalone="no"?>
<!DOCTYPE svg PUBLIC "-//W3C//DTD SVG 1.1//EN"
 "http://www.w3.org/Graphics/SVG/1.1/DTD/svg11.dtd">
<!-- Generated by graphviz version 2.43.0 (0)
 -->
<!-- Title: l4/re/unique_cap Pages: 1 -->
<svg width="1323pt" height="879pt"
 viewBox="0.00 0.00 1322.50 879.00" xmlns="http://www.w3.org/2000/svg" xmlns:xlink="http://www.w3.org/1999/xlink">
<g id="graph0" class="graph" transform="scale(1 1) rotate(0) translate(4 875)">
<title>l4/re/unique_cap</title>
<polygon fill="white" stroke="transparent" points="-4,4 -4,-875 1318.5,-875 1318.5,4 -4,4"/>
<!-- Node1 -->
<g id="node1" class="node">
<title>Node1</title>
<g id="a_node1"><a xlink:title="Unique_cap / Unique_del_cap.">
<polygon fill="#bfbfbf" stroke="black" points="818.5,-851.5 818.5,-870.5 915.5,-870.5 915.5,-851.5 818.5,-851.5"/>
<text text-anchor="middle" x="867" y="-858.5" font-family="Helvetica,sans-Serif" font-size="10.00">l4/re/unique_cap</text>
</a>
</g>
</g>
<!-- Node2 -->
<g id="node2" class="node">
<title>Node2</title>
<g id="a_node2"><a xlink:href="cap__alloc.html" target="_top" xlink:title="Abstract capability&#45;allocator interface.">
<polygon fill="white" stroke="black" points="896.5,-795.5 896.5,-814.5 983.5,-814.5 983.5,-795.5 896.5,-795.5"/>
<text text-anchor="middle" x="940" y="-802.5" font-family="Helvetica,sans-Serif" font-size="10.00">l4/re/cap_alloc</text>
</a>
</g>
</g>
<!-- Node1&#45;&gt;Node2 -->
<g id="edge1" class="edge">
<title>Node1&#45;&gt;Node2</title>
<path fill="none" stroke="midnightblue" d="M878.73,-851.32C889.84,-843.11 906.74,-830.6 919.98,-820.81"/>
<polygon fill="midnightblue" stroke="midnightblue" points="922.1,-823.59 928.06,-814.83 917.94,-817.97 922.1,-823.59"/>
</g>
<!-- Node37 -->
<g id="node37" class="node">
<title>Node37</title>
<g id="a_node37"><a xlink:href="smart__capability__1x.html" target="_top" xlink:title=" ">
<polygon fill="white" stroke="black" points="711.5,-795.5 711.5,-814.5 878.5,-814.5 878.5,-795.5 711.5,-795.5"/>
<text text-anchor="middle" x="795" y="-802.5" font-family="Helvetica,sans-Serif" font-size="10.00">l4/sys/cxx/smart_capability_1x</text>
</a>
</g>
</g>
<!-- Node1&#45;&gt;Node37 -->
<g id="edge82" class="edge">
<title>Node1&#45;&gt;Node37</title>
<path fill="none" stroke="midnightblue" d="M855.43,-851.32C844.58,-843.18 828.12,-830.84 815.12,-821.09"/>
<polygon fill="midnightblue" stroke="midnightblue" points="816.88,-818.03 806.78,-814.83 812.68,-823.63 816.88,-818.03"/>
</g>
<!-- Node3 -->
<g id="node3" class="node">
<title>Node3</title>
<g id="a_node3"><a xlink:href="task.html" target="_top" xlink:title="Common task related definitions.">
<polygon fill="white" stroke="black" points="971.5,-739.5 971.5,-758.5 1040.5,-758.5 1040.5,-739.5 971.5,-739.5"/>
<text text-anchor="middle" x="1006" y="-746.5" font-family="Helvetica,sans-Serif" font-size="10.00">l4/sys/task</text>
</a>
</g>
</g>
<!-- Node2&#45;&gt;Node3 -->
<g id="edge2" class="edge">
<title>Node2&#45;&gt;Node3</title>
<path fill="none" stroke="midnightblue" d="M950.6,-795.32C960.46,-787.26 975.35,-775.08 987.22,-765.37"/>
<polygon fill="midnightblue" stroke="midnightblue" points="989.68,-767.88 995.2,-758.83 985.25,-762.46 989.68,-767.88"/>
</g>
<!-- Node28 -->
<g id="node28" class="node">
<title>Node28</title>
<g id="a_node28"><a xlink:href="smart__capability.html" target="_top" xlink:title="L4::Capability class.">
<polygon fill="white" stroke="black" points="823,-739.5 823,-758.5 953,-758.5 953,-739.5 823,-739.5"/>
<text text-anchor="middle" x="888" y="-746.5" font-family="Helvetica,sans-Serif" font-size="10.00">l4/sys/smart_capability</text>
</a>
</g>
</g>
<!-- Node2&#45;&gt;Node28 -->
<g id="edge63" class="edge">
<title>Node2&#45;&gt;Node28</title>
<path fill="none" stroke="midnightblue" d="M931.41,-795.08C923.84,-787.22 912.62,-775.57 903.49,-766.08"/>
<polygon fill="midnightblue" stroke="midnightblue" points="905.88,-763.53 896.43,-758.75 900.84,-768.38 905.88,-763.53"/>
</g>
<!-- Node29 -->
<g id="node29" class="node">
<title>Node29</title>
<g id="a_node29"><a xlink:href="re_2consts.html" target="_top" xlink:title="Constants.">
<polygon fill="white" stroke="black" points="546.5,-739.5 546.5,-758.5 619.5,-758.5 619.5,-739.5 546.5,-739.5"/>
<text text-anchor="middle" x="583" y="-746.5" font-family="Helvetica,sans-Serif" font-size="10.00">l4/re/consts</text>
</a>
</g>
</g>
<!-- Node2&#45;&gt;Node29 -->
<g id="edge65" class="edge">
<title>Node2&#45;&gt;Node29</title>
<path fill="none" stroke="midnightblue" d="M896.34,-796.51C893.18,-795.99 890.04,-795.48 887,-795 796.04,-780.55 689.51,-765.12 629.78,-756.61"/>
<polygon fill="midnightblue" stroke="midnightblue" points="629.93,-753.1 619.54,-755.15 628.95,-760.03 629.93,-753.1"/>
</g>
<!-- Node35 -->
<g id="node35" class="node">
<title>Node35</title>
<g id="a_node35"><a xlink:href="type__traits_source.html" target="_top" xlink:title=" ">
<polygon fill="white" stroke="black" points="1113.5,-739.5 1113.5,-758.5 1214.5,-758.5 1214.5,-739.5 1113.5,-739.5"/>
<text text-anchor="middle" x="1164" y="-746.5" font-family="Helvetica,sans-Serif" font-size="10.00">l4/cxx/type_traits</text>
</a>
</g>
</g>
<!-- Node2&#45;&gt;Node35 -->
<g id="edge80" class="edge">
<title>Node2&#45;&gt;Node35</title>
<path fill="none" stroke="midnightblue" d="M975.49,-795.44C1014.32,-786.08 1076.66,-771.06 1118.92,-760.87"/>
<polygon fill="midnightblue" stroke="midnightblue" points="1119.77,-764.26 1128.67,-758.52 1118.13,-757.46 1119.77,-764.26"/>
</g>
<!-- Node4 -->
<g id="node4" class="node">
<title>Node4</title>
<g id="a_node4"><a xlink:href="l4_2sys_2task_8h.html" target="_top" xlink:title="Common task related definitions.">
<polygon fill="white" stroke="black" points="1115,-342 1115,-361 1193,-361 1193,-342 1115,-342"/>
<text text-anchor="middle" x="1154" y="-349" font-family="Helvetica,sans-Serif" font-size="10.00">l4/sys/task.h</text>
</a>
</g>
</g>
<!-- Node3&#45;&gt;Node4 -->
<g id="edge3" class="edge">
<title>Node3&#45;&gt;Node4</title>
<path fill="none" stroke="midnightblue" d="M1040.9,-742.85C1093.5,-732.88 1187,-705.66 1187,-638 1187,-638 1187,-638 1187,-468 1187,-432.35 1172.29,-392.82 1162.51,-370.48"/>
<polygon fill="midnightblue" stroke="midnightblue" points="1165.64,-368.9 1158.31,-361.24 1159.26,-371.79 1165.64,-368.9"/>
</g>
<!-- Node15 -->
<g id="node15" class="node">
<title>Node15</title>
<g id="a_node15"><a xlink:href="capability.html" target="_top" xlink:title="L4::Cap related definitions.">
<polygon fill="white" stroke="black" points="794,-683.5 794,-702.5 890,-702.5 890,-683.5 794,-683.5"/>
<text text-anchor="middle" x="842" y="-690.5" font-family="Helvetica,sans-Serif" font-size="10.00">l4/sys/capability</text>
</a>
</g>
</g>
<!-- Node3&#45;&gt;Node15 -->
<g id="edge24" class="edge">
<title>Node3&#45;&gt;Node15</title>
<path fill="none" stroke="midnightblue" d="M980.01,-739.44C952.3,-730.32 908.25,-715.81 877.38,-705.65"/>
<polygon fill="midnightblue" stroke="midnightblue" points="878.46,-702.32 867.86,-702.52 876.27,-708.97 878.46,-702.32"/>
</g>
<!-- Node5 -->
<g id="node5" class="node">
<title>Node5</title>
<g id="a_node5"><a xlink:href="l4_2sys_2types_8h.html" target="_top" xlink:title="Common L4 ABI Data Types.">
<polygon fill="white" stroke="black" points="688,-168.5 688,-187.5 772,-187.5 772,-168.5 688,-168.5"/>
<text text-anchor="middle" x="730" y="-175.5" font-family="Helvetica,sans-Serif" font-size="10.00">l4/sys/types.h</text>
</a>
</g>
</g>
<!-- Node4&#45;&gt;Node5 -->
<g id="edge4" class="edge">
<title>Node4&#45;&gt;Node5</title>
<path fill="none" stroke="midnightblue" d="M1147.44,-341.93C1129.01,-318.55 1074.05,-253.44 1012,-224 937.63,-188.72 841.11,-180.27 782.45,-178.69"/>
<polygon fill="midnightblue" stroke="midnightblue" points="782.38,-175.19 772.31,-178.48 782.23,-182.19 782.38,-175.19"/>
</g>
<!-- Node12 -->
<g id="node12" class="node">
<title>Node12</title>
<g id="a_node12"><a xlink:href="l4_2sys_2utcb_8h.html" target="_top" xlink:title="UTCB definitions.">
<polygon fill="white" stroke="black" points="925,-224.5 925,-243.5 1003,-243.5 1003,-224.5 925,-224.5"/>
<text text-anchor="middle" x="964" y="-231.5" font-family="Helvetica,sans-Serif" font-size="10.00">l4/sys/utcb.h</text>
</a>
</g>
</g>
<!-- Node4&#45;&gt;Node12 -->
<g id="edge15" class="edge">
<title>Node4&#45;&gt;Node12</title>
<path fill="none" stroke="midnightblue" d="M1139.72,-341.82C1107.04,-321.95 1026.59,-273.05 986.9,-248.92"/>
<polygon fill="midnightblue" stroke="midnightblue" points="988.55,-245.83 978.19,-243.62 984.91,-251.81 988.55,-245.83"/>
</g>
<!-- Node13 -->
<g id="node13" class="node">
<title>Node13</title>
<g id="a_node13"><a xlink:href="l4_2sys_2ipc_8h.html" target="_top" xlink:title="Common IPC interface.">
<polygon fill="white" stroke="black" points="834.5,-280.5 834.5,-299.5 905.5,-299.5 905.5,-280.5 834.5,-280.5"/>
<text text-anchor="middle" x="870" y="-287.5" font-family="Helvetica,sans-Serif" font-size="10.00">l4/sys/ipc.h</text>
</a>
</g>
</g>
<!-- Node4&#45;&gt;Node13 -->
<g id="edge19" class="edge">
<title>Node4&#45;&gt;Node13</title>
<path fill="none" stroke="midnightblue" d="M1127.48,-341.95C1120.53,-339.85 1113.02,-337.72 1106,-336 1040.53,-319.92 963.65,-306.2 915.87,-298.28"/>
<polygon fill="midnightblue" stroke="midnightblue" points="916.27,-294.8 905.84,-296.63 915.14,-301.71 916.27,-294.8"/>
</g>
<!-- Node6 -->
<g id="node6" class="node">
<title>Node6</title>
<g id="a_node6"><a xlink:href="l4_2sys_2l4int_8h.html" target="_top" xlink:title="Fixed sized integer types, generic version.">
<polygon fill="white" stroke="black" points="755.5,-56.5 755.5,-75.5 834.5,-75.5 834.5,-56.5 755.5,-56.5"/>
<text text-anchor="middle" x="795" y="-63.5" font-family="Helvetica,sans-Serif" font-size="10.00">l4/sys/l4int.h</text>
</a>
</g>
</g>
<!-- Node5&#45;&gt;Node6 -->
<g id="edge5" class="edge">
<title>Node5&#45;&gt;Node6</title>
<path fill="none" stroke="midnightblue" d="M772.03,-174.27C801.11,-169.93 837.9,-159.03 857,-132 870.92,-112.3 845.38,-92.67 822.99,-80.23"/>
<polygon fill="midnightblue" stroke="midnightblue" points="824.5,-77.07 814.02,-75.51 821.24,-83.26 824.5,-77.07"/>
</g>
<!-- Node7 -->
<g id="node7" class="node">
<title>Node7</title>
<g id="a_node7"><a xlink:href="compiler_8h.html" target="_top" xlink:title="L4 compiler related defines.">
<polygon fill="white" stroke="black" points="539.5,-56.5 539.5,-75.5 638.5,-75.5 638.5,-56.5 539.5,-56.5"/>
<text text-anchor="middle" x="589" y="-63.5" font-family="Helvetica,sans-Serif" font-size="10.00">l4/sys/compiler.h</text>
</a>
</g>
</g>
<!-- Node5&#45;&gt;Node7 -->
<g id="edge6" class="edge">
<title>Node5&#45;&gt;Node7</title>
<path fill="none" stroke="midnightblue" d="M727.39,-168.24C722.88,-154.52 712.43,-127.89 695,-112 677.99,-96.49 654.83,-85.83 634.5,-78.79"/>
<polygon fill="midnightblue" stroke="midnightblue" points="635.38,-75.4 624.79,-75.62 633.21,-82.05 635.38,-75.4"/>
</g>
<!-- Node9 -->
<g id="node9" class="node">
<title>Node9</title>
<g id="a_node9"><a xlink:href="l4_2sys_2consts_8h.html" target="_top" xlink:title="Common constants.">
<polygon fill="white" stroke="black" points="430.5,-112.5 430.5,-131.5 519.5,-131.5 519.5,-112.5 430.5,-112.5"/>
<text text-anchor="middle" x="475" y="-119.5" font-family="Helvetica,sans-Serif" font-size="10.00">l4/sys/consts.h</text>
</a>
</g>
</g>
<!-- Node5&#45;&gt;Node9 -->
<g id="edge8" class="edge">
<title>Node5&#45;&gt;Node9</title>
<path fill="none" stroke="midnightblue" d="M689.59,-168.44C645.02,-159 573.23,-143.8 525.11,-133.61"/>
<polygon fill="midnightblue" stroke="midnightblue" points="525.72,-130.16 515.22,-131.52 524.27,-137.01 525.72,-130.16"/>
</g>
<!-- Node10 -->
<g id="node10" class="node">
<title>Node10</title>
<g id="a_node10"><a xlink:href="____l4__fpage_8h_source.html" target="_top" xlink:title=" ">
<polygon fill="white" stroke="black" points="576,-112.5 576,-131.5 686,-131.5 686,-112.5 576,-112.5"/>
<text text-anchor="middle" x="631" y="-119.5" font-family="Helvetica,sans-Serif" font-size="10.00">l4/sys/__l4_fpage.h</text>
</a>
</g>
</g>
<!-- Node5&#45;&gt;Node10 -->
<g id="edge11" class="edge">
<title>Node5&#45;&gt;Node10</title>
<path fill="none" stroke="midnightblue" d="M714.09,-168.32C698.36,-159.74 674.06,-146.49 655.79,-136.52"/>
<polygon fill="midnightblue" stroke="midnightblue" points="657.32,-133.37 646.87,-131.65 653.97,-139.52 657.32,-133.37"/>
</g>
<!-- Node11 -->
<g id="node11" class="node">
<title>Node11</title>
<g id="a_node11"><a xlink:href="____timeout_8h_source.html" target="_top" xlink:title=" ">
<polygon fill="white" stroke="black" points="742,-112.5 742,-131.5 848,-131.5 848,-112.5 742,-112.5"/>
<text text-anchor="middle" x="795" y="-119.5" font-family="Helvetica,sans-Serif" font-size="10.00">l4/sys/__timeout.h</text>
</a>
</g>
</g>
<!-- Node5&#45;&gt;Node11 -->
<g id="edge13" class="edge">
<title>Node5&#45;&gt;Node11</title>
<path fill="none" stroke="midnightblue" d="M740.44,-168.32C750.15,-160.26 764.82,-148.08 776.5,-138.37"/>
<polygon fill="midnightblue" stroke="midnightblue" points="778.91,-140.92 784.37,-131.83 774.44,-135.53 778.91,-140.92"/>
</g>
<!-- Node8 -->
<g id="node8" class="node">
<title>Node8</title>
<g id="a_node8"><a xlink:title=" ">
<polygon fill="white" stroke="#bfbfbf" points="543,-0.5 543,-19.5 635,-19.5 635,-0.5 543,-0.5"/>
<text text-anchor="middle" x="589" y="-7.5" font-family="Helvetica,sans-Serif" font-size="10.00">l4/sys/linkage.h</text>
</a>
</g>
</g>
<!-- Node7&#45;&gt;Node8 -->
<g id="edge7" class="edge">
<title>Node7&#45;&gt;Node8</title>
<path fill="none" stroke="midnightblue" d="M589,-56.08C589,-49.01 589,-38.86 589,-29.99"/>
<polygon fill="midnightblue" stroke="midnightblue" points="592.5,-29.75 589,-19.75 585.5,-29.75 592.5,-29.75"/>
</g>
<!-- Node9&#45;&gt;Node6 -->
<g id="edge10" class="edge">
<title>Node9&#45;&gt;Node6</title>
<path fill="none" stroke="midnightblue" d="M519.83,-113.43C579.14,-103.43 683.36,-85.84 745.11,-75.42"/>
<polygon fill="midnightblue" stroke="midnightblue" points="745.73,-78.86 755.01,-73.75 744.57,-71.96 745.73,-78.86"/>
</g>
<!-- Node9&#45;&gt;Node7 -->
<g id="edge9" class="edge">
<title>Node9&#45;&gt;Node7</title>
<path fill="none" stroke="midnightblue" d="M493.06,-112.44C511.57,-103.68 540.58,-89.94 561.86,-79.86"/>
<polygon fill="midnightblue" stroke="midnightblue" points="563.48,-82.96 571.02,-75.52 560.49,-76.63 563.48,-82.96"/>
</g>
<!-- Node10&#45;&gt;Node7 -->
<g id="edge12" class="edge">
<title>Node10&#45;&gt;Node7</title>
<path fill="none" stroke="midnightblue" d="M624.06,-112.08C618.07,-104.38 609.25,-93.03 601.95,-83.65"/>
<polygon fill="midnightblue" stroke="midnightblue" points="604.71,-81.5 595.81,-75.75 599.18,-85.79 604.71,-81.5"/>
</g>
<!-- Node11&#45;&gt;Node6 -->
<g id="edge14" class="edge">
<title>Node11&#45;&gt;Node6</title>
<path fill="none" stroke="midnightblue" d="M795,-112.08C795,-105.01 795,-94.86 795,-85.99"/>
<polygon fill="midnightblue" stroke="midnightblue" points="798.5,-85.75 795,-75.75 791.5,-85.75 798.5,-85.75"/>
</g>
<!-- Node12&#45;&gt;Node5 -->
<g id="edge16" class="edge">
<title>Node12&#45;&gt;Node5</title>
<path fill="none" stroke="midnightblue" d="M926.92,-224.44C886.27,-215.06 820.97,-199.99 776.82,-189.8"/>
<polygon fill="midnightblue" stroke="midnightblue" points="777.44,-186.35 766.9,-187.52 775.86,-193.18 777.44,-186.35"/>
</g>
<!-- Node12&#45;&gt;Node6 -->
<g id="edge18" class="edge">
<title>Node12&#45;&gt;Node6</title>
<path fill="none" stroke="midnightblue" d="M960.04,-224.14C954.04,-211.18 941.89,-186.61 928,-168 907.14,-140.04 900.58,-133.36 873,-112 857.13,-99.71 837.57,-88.44 822,-80.24"/>
<polygon fill="midnightblue" stroke="midnightblue" points="823.39,-77.02 812.9,-75.56 820.19,-83.25 823.39,-77.02"/>
</g>
<!-- Node12&#45;&gt;Node7 -->
<g id="edge17" class="edge">
<title>Node12&#45;&gt;Node7</title>
<path fill="none" stroke="midnightblue" d="M956.58,-224.23C949.12,-215.29 937.41,-200.95 928,-188 904.23,-155.29 912,-133.88 878,-112 841.04,-88.22 721.92,-76.02 648.65,-70.62"/>
<polygon fill="midnightblue" stroke="midnightblue" points="648.86,-67.13 638.63,-69.9 648.36,-74.11 648.86,-67.13"/>
</g>
<!-- Node13&#45;&gt;Node5 -->
<g id="edge20" class="edge">
<title>Node13&#45;&gt;Node5</title>
<path fill="none" stroke="midnightblue" d="M859.01,-280.37C835.19,-261.65 778.56,-217.15 748.88,-193.83"/>
<polygon fill="midnightblue" stroke="midnightblue" points="750.96,-191.02 740.93,-187.59 746.64,-196.52 750.96,-191.02"/>
</g>
<!-- Node13&#45;&gt;Node12 -->
<g id="edge21" class="edge">
<title>Node13&#45;&gt;Node12</title>
<path fill="none" stroke="midnightblue" d="M885.1,-280.32C899.9,-271.82 922.69,-258.73 939.98,-248.8"/>
<polygon fill="midnightblue" stroke="midnightblue" points="942.01,-251.67 948.93,-243.65 938.52,-245.6 942.01,-251.67"/>
</g>
<!-- Node14 -->
<g id="node14" class="node">
<title>Node14</title>
<g id="a_node14"><a xlink:href="err_8h.html" target="_top" xlink:title="Error codes.">
<polygon fill="white" stroke="black" points="837,-224.5 837,-243.5 907,-243.5 907,-224.5 837,-224.5"/>
<text text-anchor="middle" x="872" y="-231.5" font-family="Helvetica,sans-Serif" font-size="10.00">l4/sys/err.h</text>
</a>
</g>
</g>
<!-- Node13&#45;&gt;Node14 -->
<g id="edge22" class="edge">
<title>Node13&#45;&gt;Node14</title>
<path fill="none" stroke="midnightblue" d="M870.33,-280.08C870.59,-273.01 870.97,-262.86 871.3,-253.99"/>
<polygon fill="midnightblue" stroke="midnightblue" points="874.8,-253.87 871.68,-243.75 867.81,-253.61 874.8,-253.87"/>
</g>
<!-- Node14&#45;&gt;Node7 -->
<g id="edge23" class="edge">
<title>Node14&#45;&gt;Node7</title>
<path fill="none" stroke="midnightblue" d="M874.03,-224.24C878.58,-202.08 887.02,-143.34 857,-112 829.08,-82.86 718.78,-72.57 648.68,-68.95"/>
<polygon fill="midnightblue" stroke="midnightblue" points="648.8,-65.45 638.65,-68.46 648.46,-72.44 648.8,-65.45"/>
</g>
<!-- Node15&#45;&gt;Node4 -->
<g id="edge46" class="edge">
<title>Node15&#45;&gt;Node4</title>
<path fill="none" stroke="midnightblue" d="M890.31,-684.95C976.76,-670.96 1149,-636.28 1149,-582 1149,-582 1149,-582 1149,-468 1149,-433.83 1151.21,-394.03 1152.69,-371.2"/>
<polygon fill="midnightblue" stroke="midnightblue" points="1156.19,-371.4 1153.37,-361.19 1149.2,-370.93 1156.19,-371.4"/>
</g>
<!-- Node15&#45;&gt;Node5 -->
<g id="edge26" class="edge">
<title>Node15&#45;&gt;Node5</title>
<path fill="none" stroke="midnightblue" d="M890.12,-688.34C992.99,-679.19 1225,-650.92 1225,-582 1225,-582 1225,-582 1225,-289 1225,-199.09 909.88,-182.63 782.49,-179.65"/>
<polygon fill="midnightblue" stroke="midnightblue" points="782.28,-176.14 772.2,-179.42 782.13,-183.14 782.28,-176.14"/>
</g>
<!-- Node15&#45;&gt;Node9 -->
<g id="edge25" class="edge">
<title>Node15&#45;&gt;Node9</title>
<path fill="none" stroke="midnightblue" d="M793.94,-685.72C704.39,-672.68 521,-639 521,-582 521,-582 521,-582 521,-350.5 521,-271.28 493.87,-179.57 481.28,-141.27"/>
<polygon fill="midnightblue" stroke="midnightblue" points="484.52,-139.92 478.02,-131.55 477.88,-142.15 484.52,-139.92"/>
</g>
<!-- Node16 -->
<g id="node16" class="node">
<title>Node16</title>
<g id="a_node16"><a xlink:href="kobject_source.html" target="_top" xlink:title=" ">
<polygon fill="white" stroke="black" points="700.5,-515.5 700.5,-534.5 783.5,-534.5 783.5,-515.5 700.5,-515.5"/>
<text text-anchor="middle" x="742" y="-522.5" font-family="Helvetica,sans-Serif" font-size="10.00">l4/sys/kobject</text>
</a>
</g>
</g>
<!-- Node15&#45;&gt;Node16 -->
<g id="edge27" class="edge">
<title>Node15&#45;&gt;Node16</title>
<path fill="none" stroke="midnightblue" d="M830.98,-683.31C820.86,-674.89 805.96,-661.3 796,-647 772.88,-613.78 756.03,-569.06 747.75,-544.35"/>
<polygon fill="midnightblue" stroke="midnightblue" points="751.07,-543.22 744.65,-534.79 744.41,-545.38 751.07,-543.22"/>
</g>
<!-- Node23 -->
<g id="node23" class="node">
<title>Node23</title>
<g id="a_node23"><a xlink:href="sys_2meta.html" target="_top" xlink:title="Meta interface for getting dynamic type information about objects behind capabilities.">
<polygon fill="white" stroke="black" points="805,-627.5 805,-646.5 879,-646.5 879,-627.5 805,-627.5"/>
<text text-anchor="middle" x="842" y="-634.5" font-family="Helvetica,sans-Serif" font-size="10.00">l4/sys/meta</text>
</a>
</g>
</g>
<!-- Node15&#45;&gt;Node23 -->
<g id="edge47" class="edge">
<title>Node15&#45;&gt;Node23</title>
<path fill="none" stroke="midnightblue" d="M842,-683.08C842,-676.01 842,-665.86 842,-656.99"/>
<polygon fill="midnightblue" stroke="midnightblue" points="845.5,-656.75 842,-646.75 838.5,-656.75 845.5,-656.75"/>
</g>
<!-- Node16&#45;&gt;Node5 -->
<g id="edge35" class="edge">
<title>Node16&#45;&gt;Node5</title>
<path fill="none" stroke="midnightblue" d="M723.88,-515.31C695.88,-500.73 643.14,-468.43 622,-423 582.4,-337.91 673.11,-234.69 712.69,-195.32"/>
<polygon fill="midnightblue" stroke="midnightblue" points="715.57,-197.4 720.29,-187.92 710.68,-192.39 715.57,-197.4"/>
</g>
<!-- Node17 -->
<g id="node17" class="node">
<title>Node17</title>
<g id="a_node17"><a xlink:href="kernel__object_8h.html" target="_top" xlink:title="Kernel object system calls.">
<polygon fill="white" stroke="black" points="631.5,-403.5 631.5,-422.5 722.5,-422.5 722.5,-403.5 631.5,-403.5"/>
<text text-anchor="middle" x="677" y="-410.5" font-family="Helvetica,sans-Serif" font-size="10.00">kernel_object.h</text>
</a>
</g>
</g>
<!-- Node16&#45;&gt;Node17 -->
<g id="edge28" class="edge">
<title>Node16&#45;&gt;Node17</title>
<path fill="none" stroke="midnightblue" d="M735.22,-515.3C728.45,-506.42 717.94,-492.12 710,-479 700.7,-463.62 691.56,-445.3 685.27,-432.03"/>
<polygon fill="midnightblue" stroke="midnightblue" points="688.28,-430.21 680.88,-422.63 681.94,-433.17 688.28,-430.21"/>
</g>
<!-- Node19 -->
<g id="node19" class="node">
<title>Node19</title>
<g id="a_node19"><a xlink:href="____typeinfo_8h.html" target="_top" xlink:title="Type information handling.">
<polygon fill="white" stroke="black" points="719.5,-459.5 719.5,-478.5 796.5,-478.5 796.5,-459.5 719.5,-459.5"/>
<text text-anchor="middle" x="758" y="-466.5" font-family="Helvetica,sans-Serif" font-size="10.00">__typeinfo.h</text>
</a>
</g>
</g>
<!-- Node16&#45;&gt;Node19 -->
<g id="edge36" class="edge">
<title>Node16&#45;&gt;Node19</title>
<path fill="none" stroke="midnightblue" d="M744.64,-515.08C746.79,-507.85 749.88,-497.41 752.55,-488.4"/>
<polygon fill="midnightblue" stroke="midnightblue" points="755.92,-489.33 755.41,-478.75 749.21,-487.34 755.92,-489.33"/>
</g>
<!-- Node17&#45;&gt;Node5 -->
<g id="edge29" class="edge">
<title>Node17&#45;&gt;Node5</title>
<path fill="none" stroke="midnightblue" d="M676.6,-403.49C676.09,-389.35 675.75,-360.19 680,-336 689.08,-284.29 710.85,-226.02 722.44,-197.18"/>
<polygon fill="midnightblue" stroke="midnightblue" points="725.79,-198.22 726.33,-187.64 719.31,-195.58 725.79,-198.22"/>
</g>
<!-- Node17&#45;&gt;Node7 -->
<g id="edge30" class="edge">
<title>Node17&#45;&gt;Node7</title>
<path fill="none" stroke="midnightblue" d="M672.1,-403.19C653.65,-369.4 588.28,-244.38 567,-132 565.35,-123.27 565,-120.66 567,-112 569.23,-102.36 573.82,-92.41 578.24,-84.31"/>
<polygon fill="midnightblue" stroke="midnightblue" points="581.35,-85.92 583.36,-75.52 575.3,-82.4 581.35,-85.92"/>
</g>
<!-- Node17&#45;&gt;Node12 -->
<g id="edge31" class="edge">
<title>Node17&#45;&gt;Node12</title>
<path fill="none" stroke="midnightblue" d="M677.21,-403.37C678.04,-388.01 681.85,-355.67 699,-336 728.86,-301.76 853.36,-264.41 920.55,-246.22"/>
<polygon fill="midnightblue" stroke="midnightblue" points="921.67,-249.54 930.42,-243.57 919.86,-242.78 921.67,-249.54"/>
</g>
<!-- Node17&#45;&gt;Node13 -->
<g id="edge34" class="edge">
<title>Node17&#45;&gt;Node13</title>
<path fill="none" stroke="midnightblue" d="M680.74,-403.32C687.95,-387.58 705.29,-354.26 730,-336 757.73,-315.51 795.18,-304.11 824.36,-297.92"/>
<polygon fill="midnightblue" stroke="midnightblue" points="825.19,-301.32 834.31,-295.94 823.82,-294.46 825.19,-301.32"/>
</g>
<!-- Node18 -->
<g id="node18" class="node">
<title>Node18</title>
<g id="a_node18"><a xlink:href="____kernel__object__impl_8h.html" target="_top" xlink:title="Low&#45;level kernel debugger functions.">
<polygon fill="white" stroke="black" points="739,-336.5 739,-366.5 863,-366.5 863,-336.5 739,-336.5"/>
<text text-anchor="start" x="747" y="-354.5" font-family="Helvetica,sans-Serif" font-size="10.00">l4/sys/__kernel_object</text>
<text text-anchor="middle" x="801" y="-343.5" font-family="Helvetica,sans-Serif" font-size="10.00">_impl.h</text>
</a>
</g>
</g>
<!-- Node17&#45;&gt;Node18 -->
<g id="edge32" class="edge">
<title>Node17&#45;&gt;Node18</title>
<path fill="none" stroke="midnightblue" d="M694.77,-403.48C712.42,-395 740.07,-381.74 762.73,-370.86"/>
<polygon fill="midnightblue" stroke="midnightblue" points="764.27,-374 771.78,-366.52 761.25,-367.69 764.27,-374"/>
</g>
<!-- Node18&#45;&gt;Node13 -->
<g id="edge33" class="edge">
<title>Node18&#45;&gt;Node13</title>
<path fill="none" stroke="midnightblue" d="M817.35,-336.4C827.9,-327.31 841.6,-315.49 852.38,-306.19"/>
<polygon fill="midnightblue" stroke="midnightblue" points="854.67,-308.84 859.96,-299.66 850.1,-303.54 854.67,-308.84"/>
</g>
<!-- Node20 -->
<g id="node20" class="node">
<title>Node20</title>
<g id="a_node20"><a xlink:href="types.html" target="_top" xlink:title=" ">
<polygon fill="white" stroke="black" points="1033,-342 1033,-361 1097,-361 1097,-342 1033,-342"/>
<text text-anchor="middle" x="1065" y="-349" font-family="Helvetica,sans-Serif" font-size="10.00">cxx/types</text>
</a>
</g>
</g>
<!-- Node19&#45;&gt;Node20 -->
<g id="edge37" class="edge">
<title>Node19&#45;&gt;Node20</title>
<path fill="none" stroke="midnightblue" d="M781.89,-459.43C805.18,-450.88 841.44,-437.02 872,-423 889.35,-415.04 892.42,-410.43 910,-403 947.64,-387.1 992.12,-373.07 1023.76,-363.86"/>
<polygon fill="midnightblue" stroke="midnightblue" points="1024.91,-367.17 1033.55,-361.04 1022.98,-360.44 1024.91,-367.17"/>
</g>
<!-- Node21 -->
<g id="node21" class="node">
<title>Node21</title>
<g id="a_node21"><a xlink:href="ipc__basics_source.html" target="_top" xlink:title=" ">
<polygon fill="white" stroke="black" points="919.5,-403.5 919.5,-422.5 1006.5,-422.5 1006.5,-403.5 919.5,-403.5"/>
<text text-anchor="middle" x="963" y="-410.5" font-family="Helvetica,sans-Serif" font-size="10.00">cxx/ipc_basics</text>
</a>
</g>
</g>
<!-- Node19&#45;&gt;Node21 -->
<g id="edge38" class="edge">
<title>Node19&#45;&gt;Node21</title>
<path fill="none" stroke="midnightblue" d="M790.48,-459.44C825.72,-450.16 882.1,-435.31 920.76,-425.13"/>
<polygon fill="midnightblue" stroke="midnightblue" points="921.89,-428.45 930.67,-422.52 920.11,-421.68 921.89,-428.45"/>
</g>
<!-- Node22 -->
<g id="node22" class="node">
<title>Node22</title>
<g id="a_node22"><a xlink:href="capability_8h_source.html" target="_top" xlink:title=" ">
<polygon fill="white" stroke="black" points="771,-403.5 771,-422.5 863,-422.5 863,-403.5 771,-403.5"/>
<text text-anchor="middle" x="817" y="-410.5" font-family="Helvetica,sans-Serif" font-size="10.00">cxx/capability.h</text>
</a>
</g>
</g>
<!-- Node19&#45;&gt;Node22 -->
<g id="edge42" class="edge">
<title>Node19&#45;&gt;Node22</title>
<path fill="none" stroke="midnightblue" d="M767.48,-459.32C776.2,-451.34 789.34,-439.31 799.9,-429.65"/>
<polygon fill="midnightblue" stroke="midnightblue" points="802.33,-432.17 807.35,-422.83 797.61,-427 802.33,-432.17"/>
</g>
<!-- Node21&#45;&gt;Node12 -->
<g id="edge40" class="edge">
<title>Node21&#45;&gt;Node12</title>
<path fill="none" stroke="midnightblue" d="M967.62,-403.34C972.06,-394.49 978.45,-380.22 981,-367 988.31,-329.03 987.95,-318.04 981,-280 979.31,-270.76 975.83,-260.95 972.45,-252.85"/>
<polygon fill="midnightblue" stroke="midnightblue" points="975.63,-251.4 968.37,-243.69 969.24,-254.25 975.63,-251.4"/>
</g>
<!-- Node21&#45;&gt;Node14 -->
<g id="edge41" class="edge">
<title>Node21&#45;&gt;Node14</title>
<path fill="none" stroke="midnightblue" d="M961.38,-403.37C958.55,-389.07 952.12,-359.68 943,-336 932.93,-309.84 930.16,-302.9 914,-280 906.62,-269.54 896.96,-259.03 888.76,-250.79"/>
<polygon fill="midnightblue" stroke="midnightblue" points="891.07,-248.15 881.47,-243.67 886.18,-253.16 891.07,-248.15"/>
</g>
<!-- Node21&#45;&gt;Node20 -->
<g id="edge39" class="edge">
<title>Node21&#45;&gt;Node20</title>
<path fill="none" stroke="midnightblue" d="M977.61,-403.48C994.35,-393.71 1022,-377.58 1041.72,-366.08"/>
<polygon fill="midnightblue" stroke="midnightblue" points="1043.54,-369.07 1050.41,-361.01 1040.01,-363.02 1043.54,-369.07"/>
</g>
<!-- Node22&#45;&gt;Node4 -->
<g id="edge45" class="edge">
<title>Node22&#45;&gt;Node4</title>
<path fill="none" stroke="midnightblue" d="M863.17,-406.82C920.54,-399.92 1021.21,-386.31 1106,-367 1109.95,-366.1 1114.04,-365.05 1118.1,-363.93"/>
<polygon fill="midnightblue" stroke="midnightblue" points="1119.38,-367.21 1128.02,-361.07 1117.44,-360.48 1119.38,-367.21"/>
</g>
<!-- Node22&#45;&gt;Node5 -->
<g id="edge44" class="edge">
<title>Node22&#45;&gt;Node5</title>
<path fill="none" stroke="midnightblue" d="M852.85,-403.4C871.88,-396.81 893.63,-385.59 905,-367 912.19,-355.25 912.48,-347.57 905,-336 883.83,-303.26 855.71,-324.03 825,-300 786.95,-270.23 755.24,-222.11 739.91,-196.45"/>
<polygon fill="midnightblue" stroke="midnightblue" points="742.92,-194.66 734.86,-187.79 736.88,-198.19 742.92,-194.66"/>
</g>
<!-- Node22&#45;&gt;Node9 -->
<g id="edge43" class="edge">
<title>Node22&#45;&gt;Node9</title>
<path fill="none" stroke="midnightblue" d="M834.2,-403.39C847.25,-395.79 864.23,-383.39 872,-367 877.9,-354.55 879.21,-347.74 872,-336 853.48,-305.85 832.33,-316.44 801,-300 687.49,-240.43 553.41,-166.49 499.37,-136.54"/>
<polygon fill="midnightblue" stroke="midnightblue" points="500.97,-133.42 490.52,-131.63 497.57,-139.54 500.97,-133.42"/>
</g>
<!-- Node23&#45;&gt;Node16 -->
<g id="edge48" class="edge">
<title>Node23&#45;&gt;Node16</title>
<path fill="none" stroke="midnightblue" d="M834.15,-627.37C817.43,-608.97 778.06,-565.67 756.59,-542.05"/>
<polygon fill="midnightblue" stroke="midnightblue" points="759.13,-539.64 749.81,-534.59 753.95,-544.35 759.13,-539.64"/>
</g>
<!-- Node24 -->
<g id="node24" class="node">
<title>Node24</title>
<g id="a_node24"><a xlink:href="ipc__iface.html" target="_top" xlink:title="Interface Definition Language.">
<polygon fill="white" stroke="black" points="802,-515.5 802,-534.5 882,-534.5 882,-515.5 802,-515.5"/>
<text text-anchor="middle" x="842" y="-522.5" font-family="Helvetica,sans-Serif" font-size="10.00">cxx/ipc_iface</text>
</a>
</g>
</g>
<!-- Node23&#45;&gt;Node24 -->
<g id="edge49" class="edge">
<title>Node23&#45;&gt;Node24</title>
<path fill="none" stroke="midnightblue" d="M842,-627.37C842,-609.62 842,-568.67 842,-544.6"/>
<polygon fill="midnightblue" stroke="midnightblue" points="845.5,-544.59 842,-534.59 838.5,-544.59 845.5,-544.59"/>
</g>
<!-- Node26 -->
<g id="node26" class="node">
<title>Node26</title>
<g id="a_node26"><a xlink:href="ipc__string_source.html" target="_top" xlink:title=" ">
<polygon fill="white" stroke="black" points="963,-571.5 963,-590.5 1047,-590.5 1047,-571.5 963,-571.5"/>
<text text-anchor="middle" x="1005" y="-578.5" font-family="Helvetica,sans-Serif" font-size="10.00">cxx/ipc_string</text>
</a>
</g>
</g>
<!-- Node23&#45;&gt;Node26 -->
<g id="edge56" class="edge">
<title>Node23&#45;&gt;Node26</title>
<path fill="none" stroke="midnightblue" d="M867.83,-627.44C895.25,-618.36 938.78,-603.94 969.43,-593.78"/>
<polygon fill="midnightblue" stroke="midnightblue" points="970.9,-596.98 979.29,-590.52 968.7,-590.34 970.9,-596.98"/>
</g>
<!-- Node24&#45;&gt;Node19 -->
<g id="edge55" class="edge">
<title>Node24&#45;&gt;Node19</title>
<path fill="none" stroke="midnightblue" d="M828.5,-515.32C815.4,-506.9 795.29,-493.97 779.89,-484.07"/>
<polygon fill="midnightblue" stroke="midnightblue" points="781.77,-481.12 771.46,-478.65 777.98,-487.01 781.77,-481.12"/>
</g>
<!-- Node24&#45;&gt;Node21 -->
<g id="edge50" class="edge">
<title>Node24&#45;&gt;Node21</title>
<path fill="none" stroke="midnightblue" d="M839.52,-515.48C836.18,-502.09 831.93,-475.91 844,-459 853.08,-446.28 888.48,-433.87 918.33,-425.32"/>
<polygon fill="midnightblue" stroke="midnightblue" points="919.5,-428.63 928.19,-422.57 917.62,-421.88 919.5,-428.63"/>
</g>
<!-- Node25 -->
<g id="node25" class="node">
<title>Node25</title>
<g id="a_node25"><a xlink:href="ipc__types.html" target="_top" xlink:title=" ">
<polygon fill="white" stroke="black" points="853.5,-459.5 853.5,-478.5 968.5,-478.5 968.5,-459.5 853.5,-459.5"/>
<text text-anchor="middle" x="911" y="-466.5" font-family="Helvetica,sans-Serif" font-size="10.00">l4/sys/cxx/ipc_types</text>
</a>
</g>
</g>
<!-- Node24&#45;&gt;Node25 -->
<g id="edge51" class="edge">
<title>Node24&#45;&gt;Node25</title>
<path fill="none" stroke="midnightblue" d="M853.09,-515.32C863.49,-507.18 879.26,-494.84 891.72,-485.09"/>
<polygon fill="midnightblue" stroke="midnightblue" points="893.99,-487.75 899.71,-478.83 889.68,-482.24 893.99,-487.75"/>
</g>
<!-- Node25&#45;&gt;Node20 -->
<g id="edge53" class="edge">
<title>Node25&#45;&gt;Node20</title>
<path fill="none" stroke="midnightblue" d="M942.88,-459.46C965.1,-452.36 994.48,-440.55 1016,-423 1033.81,-408.47 1047.95,-385.86 1056.37,-370.18"/>
<polygon fill="midnightblue" stroke="midnightblue" points="1059.61,-371.53 1061.06,-361.03 1053.38,-368.33 1059.61,-371.53"/>
</g>
<!-- Node25&#45;&gt;Node21 -->
<g id="edge54" class="edge">
<title>Node25&#45;&gt;Node21</title>
<path fill="none" stroke="midnightblue" d="M919.59,-459.08C927.16,-451.22 938.38,-439.57 947.51,-430.08"/>
<polygon fill="midnightblue" stroke="midnightblue" points="950.16,-432.38 954.57,-422.75 945.12,-427.53 950.16,-432.38"/>
</g>
<!-- Node25&#45;&gt;Node22 -->
<g id="edge52" class="edge">
<title>Node25&#45;&gt;Node22</title>
<path fill="none" stroke="midnightblue" d="M895.9,-459.32C881.1,-450.82 858.31,-437.73 841.02,-427.8"/>
<polygon fill="midnightblue" stroke="midnightblue" points="842.48,-424.6 832.07,-422.65 838.99,-430.67 842.48,-424.6"/>
</g>
<!-- Node26&#45;&gt;Node20 -->
<g id="edge57" class="edge">
<title>Node26&#45;&gt;Node20</title>
<path fill="none" stroke="midnightblue" d="M1010.74,-571.39C1016.38,-562.59 1024.86,-548.34 1030,-535 1051.99,-477.91 1060.61,-405.25 1063.6,-371.42"/>
<polygon fill="midnightblue" stroke="midnightblue" points="1067.11,-371.42 1064.43,-361.16 1060.13,-370.85 1067.11,-371.42"/>
</g>
<!-- Node26&#45;&gt;Node21 -->
<g id="edge58" class="edge">
<title>Node26&#45;&gt;Node21</title>
<path fill="none" stroke="midnightblue" d="M1008.58,-571.13C1013.18,-558.59 1020.1,-534.96 1016,-515 1009.4,-482.83 989.1,-449.95 975.63,-430.78"/>
<polygon fill="midnightblue" stroke="midnightblue" points="978.36,-428.58 969.65,-422.54 972.69,-432.69 978.36,-428.58"/>
</g>
<!-- Node27 -->
<g id="node27" class="node">
<title>Node27</title>
<g id="a_node27"><a xlink:href="ipc__array_source.html" target="_top" xlink:title=" ">
<polygon fill="white" stroke="black" points="945,-515.5 945,-534.5 1007,-534.5 1007,-515.5 945,-515.5"/>
<text text-anchor="middle" x="976" y="-522.5" font-family="Helvetica,sans-Serif" font-size="10.00">ipc_array</text>
</a>
</g>
</g>
<!-- Node26&#45;&gt;Node27 -->
<g id="edge59" class="edge">
<title>Node26&#45;&gt;Node27</title>
<path fill="none" stroke="midnightblue" d="M1000.21,-571.08C996.24,-563.69 990.47,-552.95 985.57,-543.81"/>
<polygon fill="midnightblue" stroke="midnightblue" points="988.51,-541.91 980.7,-534.75 982.35,-545.22 988.51,-541.91"/>
</g>
<!-- Node27&#45;&gt;Node20 -->
<g id="edge60" class="edge">
<title>Node27&#45;&gt;Node20</title>
<path fill="none" stroke="midnightblue" d="M982.04,-515.4C993.84,-498.34 1020.35,-458.8 1038,-423 1046.41,-405.95 1053.95,-385.59 1058.92,-371.15"/>
<polygon fill="midnightblue" stroke="midnightblue" points="1062.32,-372 1062.18,-361.4 1055.69,-369.77 1062.32,-372"/>
</g>
<!-- Node27&#45;&gt;Node21 -->
<g id="edge61" class="edge">
<title>Node27&#45;&gt;Node21</title>
<path fill="none" stroke="midnightblue" d="M977.06,-515.11C978.36,-502.53 980.02,-478.86 977,-459 975.63,-450 972.81,-440.33 970.05,-432.26"/>
<polygon fill="midnightblue" stroke="midnightblue" points="973.31,-430.98 966.6,-422.78 966.73,-433.37 973.31,-430.98"/>
</g>
<!-- Node27&#45;&gt;Node25 -->
<g id="edge62" class="edge">
<title>Node27&#45;&gt;Node25</title>
<path fill="none" stroke="midnightblue" d="M965.56,-515.32C955.85,-507.26 941.18,-495.08 929.5,-485.37"/>
<polygon fill="midnightblue" stroke="midnightblue" points="931.56,-482.53 921.63,-478.83 927.09,-487.92 931.56,-482.53"/>
</g>
<!-- Node28&#45;&gt;Node15 -->
<g id="edge64" class="edge">
<title>Node28&#45;&gt;Node15</title>
<path fill="none" stroke="midnightblue" d="M880.4,-739.08C873.77,-731.3 863.98,-719.8 855.94,-710.37"/>
<polygon fill="midnightblue" stroke="midnightblue" points="858.6,-708.09 849.45,-702.75 853.27,-712.63 858.6,-708.09"/>
</g>
<!-- Node29&#45;&gt;Node9 -->
<g id="edge67" class="edge">
<title>Node29&#45;&gt;Node9</title>
<path fill="none" stroke="midnightblue" d="M546.39,-748.42C424.2,-748.86 38,-742.01 38,-638 38,-638 38,-638 38,-233 38,-155.06 302.69,-131.81 420.07,-125.33"/>
<polygon fill="midnightblue" stroke="midnightblue" points="420.49,-128.81 430.29,-124.79 420.12,-121.82 420.49,-128.81"/>
</g>
<!-- Node29&#45;&gt;Node15 -->
<g id="edge66" class="edge">
<title>Node29&#45;&gt;Node15</title>
<path fill="none" stroke="midnightblue" d="M619.56,-740.38C664.3,-731.05 740.34,-715.2 790.86,-704.66"/>
<polygon fill="midnightblue" stroke="midnightblue" points="791.85,-708.03 800.93,-702.56 790.42,-701.18 791.85,-708.03"/>
</g>
<!-- Node30 -->
<g id="node30" class="node">
<title>Node30</title>
<g id="a_node30"><a xlink:href="env_8h.html" target="_top" xlink:title="Environment interface.">
<polygon fill="white" stroke="black" points="351,-342 351,-361 419,-361 419,-342 351,-342"/>
<text text-anchor="middle" x="385" y="-349" font-family="Helvetica,sans-Serif" font-size="10.00">l4/re/env.h</text>
</a>
</g>
</g>
<!-- Node29&#45;&gt;Node30 -->
<g id="edge68" class="edge">
<title>Node29&#45;&gt;Node30</title>
<path fill="none" stroke="midnightblue" d="M549.56,-739.41C505.63,-725.88 434,-695.07 434,-638 434,-638 434,-638 434,-468 434,-430.62 411.98,-391.46 397.46,-369.69"/>
<polygon fill="midnightblue" stroke="midnightblue" points="400.18,-367.47 391.61,-361.24 394.43,-371.45 400.18,-367.47"/>
</g>
<!-- Node30&#45;&gt;Node5 -->
<g id="edge70" class="edge">
<title>Node30&#45;&gt;Node5</title>
<path fill="none" stroke="midnightblue" d="M399.64,-341.98C436.31,-320.8 535.27,-264.55 621,-224 646.36,-212.01 675.8,-199.96 697.68,-191.35"/>
<polygon fill="midnightblue" stroke="midnightblue" points="699.12,-194.55 707.16,-187.65 696.58,-188.03 699.12,-194.55"/>
</g>
<!-- Node30&#45;&gt;Node7 -->
<g id="edge77" class="edge">
<title>Node30&#45;&gt;Node7</title>
<path fill="none" stroke="midnightblue" d="M350.83,-347.62C256.61,-338.76 0,-307.92 0,-235 0,-235 0,-235 0,-177 0,-123.6 378.89,-85.1 528.89,-71.95"/>
<polygon fill="midnightblue" stroke="midnightblue" points="529.63,-75.4 539.29,-71.04 529.02,-68.42 529.63,-75.4"/>
</g>
<!-- Node30&#45;&gt;Node9 -->
<g id="edge69" class="edge">
<title>Node30&#45;&gt;Node9</title>
<path fill="none" stroke="midnightblue" d="M388.42,-341.86C401.64,-308.43 449.63,-187.13 467.88,-140.99"/>
<polygon fill="midnightblue" stroke="midnightblue" points="471.15,-142.24 471.58,-131.65 464.65,-139.66 471.15,-142.24"/>
</g>
<!-- Node31 -->
<g id="node31" class="node">
<title>Node31</title>
<g id="a_node31"><a xlink:href="sys_2kip_8h.html" target="_top" xlink:title="Kernel Info Page access functions.">
<polygon fill="white" stroke="black" points="289,-280.5 289,-299.5 361,-299.5 361,-280.5 289,-280.5"/>
<text text-anchor="middle" x="325" y="-287.5" font-family="Helvetica,sans-Serif" font-size="10.00">l4/sys/kip.h</text>
</a>
</g>
</g>
<!-- Node30&#45;&gt;Node31 -->
<g id="edge71" class="edge">
<title>Node30&#45;&gt;Node31</title>
<path fill="none" stroke="midnightblue" d="M376.4,-341.98C367.14,-332.78 352.18,-317.96 340.79,-306.66"/>
<polygon fill="midnightblue" stroke="midnightblue" points="343.15,-304.07 333.58,-299.51 338.22,-309.04 343.15,-304.07"/>
</g>
<!-- Node34 -->
<g id="node34" class="node">
<title>Node34</title>
<g id="a_node34"><a xlink:href="l4_2re_2consts_8h.html" target="_top" xlink:title="Constants.">
<polygon fill="white" stroke="black" points="335,-168.5 335,-187.5 417,-187.5 417,-168.5 335,-168.5"/>
<text text-anchor="middle" x="376" y="-175.5" font-family="Helvetica,sans-Serif" font-size="10.00">l4/re/consts.h</text>
</a>
</g>
</g>
<!-- Node30&#45;&gt;Node34 -->
<g id="edge78" class="edge">
<title>Node30&#45;&gt;Node34</title>
<path fill="none" stroke="midnightblue" d="M350.74,-346.55C268.05,-335.69 68.98,-300.96 133,-224 156.88,-195.29 260.62,-184.82 324.59,-181.06"/>
<polygon fill="midnightblue" stroke="midnightblue" points="325.09,-184.53 334.88,-180.49 324.7,-177.54 325.09,-184.53"/>
</g>
<!-- Node31&#45;&gt;Node6 -->
<g id="edge73" class="edge">
<title>Node31&#45;&gt;Node6</title>
<path fill="none" stroke="midnightblue" d="M344.54,-280.32C367.36,-268.88 400.38,-247.43 387,-224 371.39,-196.66 341.61,-215.34 326,-188 321.59,-180.28 321.59,-175.72 326,-168 350.31,-125.44 374.57,-127.71 421,-112 479.86,-92.09 657.41,-76.94 745.01,-70.46"/>
<polygon fill="midnightblue" stroke="midnightblue" points="745.52,-73.93 755.24,-69.71 745.01,-66.95 745.52,-73.93"/>
</g>
<!-- Node31&#45;&gt;Node7 -->
<g id="edge72" class="edge">
<title>Node31&#45;&gt;Node7</title>
<path fill="none" stroke="midnightblue" d="M288.92,-285.8C238.8,-280.52 152.09,-268.08 133,-244 127.48,-237.03 128.9,-231.88 133,-224 173.09,-147.01 212.42,-144.26 293,-112 370.66,-80.91 467.66,-71.12 528.99,-68.15"/>
<polygon fill="midnightblue" stroke="midnightblue" points="529.43,-71.63 539.27,-67.69 529.13,-64.64 529.43,-71.63"/>
</g>
<!-- Node32 -->
<g id="node32" class="node">
<title>Node32</title>
<g id="a_node32"><a xlink:title=" ">
<polygon fill="white" stroke="#bfbfbf" points="271.5,-224.5 271.5,-243.5 378.5,-243.5 378.5,-224.5 271.5,-224.5"/>
<text text-anchor="middle" x="325" y="-231.5" font-family="Helvetica,sans-Serif" font-size="10.00">l4/sys/__kip&#45;arch.h</text>
</a>
</g>
</g>
<!-- Node31&#45;&gt;Node32 -->
<g id="edge74" class="edge">
<title>Node31&#45;&gt;Node32</title>
<path fill="none" stroke="midnightblue" d="M325,-280.08C325,-273.01 325,-262.86 325,-253.99"/>
<polygon fill="midnightblue" stroke="midnightblue" points="328.5,-253.75 325,-243.75 321.5,-253.75 328.5,-253.75"/>
</g>
<!-- Node33 -->
<g id="node33" class="node">
<title>Node33</title>
<g id="a_node33"><a xlink:href="____kip-64bit_8h_source.html" target="_top" xlink:title=" ">
<polygon fill="white" stroke="black" points="142.5,-224.5 142.5,-243.5 253.5,-243.5 253.5,-224.5 142.5,-224.5"/>
<text text-anchor="middle" x="198" y="-231.5" font-family="Helvetica,sans-Serif" font-size="10.00">l4/sys/__kip&#45;64bit.h</text>
</a>
</g>
</g>
<!-- Node31&#45;&gt;Node33 -->
<g id="edge75" class="edge">
<title>Node31&#45;&gt;Node33</title>
<path fill="none" stroke="midnightblue" d="M304.88,-280.44C283.98,-271.56 251.07,-257.56 227.28,-247.45"/>
<polygon fill="midnightblue" stroke="midnightblue" points="228.6,-244.21 218.03,-243.52 225.86,-250.65 228.6,-244.21"/>
</g>
<!-- Node33&#45;&gt;Node5 -->
<g id="edge76" class="edge">
<title>Node33&#45;&gt;Node5</title>
<path fill="none" stroke="midnightblue" d="M253.83,-225C256.59,-224.65 259.33,-224.32 262,-224 412.72,-206.16 591.39,-190.5 677.9,-183.26"/>
<polygon fill="midnightblue" stroke="midnightblue" points="678.31,-186.74 687.98,-182.42 677.73,-179.76 678.31,-186.74"/>
</g>
<!-- Node34&#45;&gt;Node9 -->
<g id="edge79" class="edge">
<title>Node34&#45;&gt;Node9</title>
<path fill="none" stroke="midnightblue" d="M391.91,-168.32C407.64,-159.74 431.94,-146.49 450.21,-136.52"/>
<polygon fill="midnightblue" stroke="midnightblue" points="452.03,-139.52 459.13,-131.65 448.68,-133.37 452.03,-139.52"/>
</g>
<!-- Node36 -->
<g id="node36" class="node">
<title>Node36</title>
<g id="a_node36"><a xlink:href="type__traits_8h_source.html" target="_top" xlink:title=" ">
<polygon fill="white" stroke="black" points="1215.5,-683.5 1215.5,-702.5 1314.5,-702.5 1314.5,-683.5 1215.5,-683.5"/>
<text text-anchor="middle" x="1265" y="-690.5" font-family="Helvetica,sans-Serif" font-size="10.00">bits/type_traits.h</text>
</a>
</g>
</g>
<!-- Node35&#45;&gt;Node36 -->
<g id="edge81" class="edge">
<title>Node35&#45;&gt;Node36</title>
<path fill="none" stroke="midnightblue" d="M1180.23,-739.32C1196.35,-730.7 1221.3,-717.36 1239.96,-707.39"/>
<polygon fill="midnightblue" stroke="midnightblue" points="1241.64,-710.46 1248.81,-702.65 1238.34,-704.28 1241.64,-710.46"/>
</g>
<!-- Node37&#45;&gt;Node15 -->
<g id="edge83" class="edge">
<title>Node37&#45;&gt;Node15</title>
<path fill="none" stroke="midnightblue" d="M796.75,-795.32C799.48,-782.61 805.36,-758.32 814,-739 818.37,-729.24 824.54,-719.06 829.98,-710.86"/>
<polygon fill="midnightblue" stroke="midnightblue" points="832.9,-712.79 835.68,-702.57 827.13,-708.83 832.9,-712.79"/>
</g>
</g>
</svg>
