<?xml version="1.0" encoding="UTF-8" standalone="no"?>
<!DOCTYPE svg PUBLIC "-//W3C//DTD SVG 1.1//EN"
 "http://www.w3.org/Graphics/SVG/1.1/DTD/svg11.dtd">
<!-- Generated by graphviz version 2.43.0 (0)
 -->
<!-- Title: l4/re/util/unique_cap Pages: 1 -->
<svg width="439pt" height="162pt"
 viewBox="0.00 0.00 439.00 162.00" xmlns="http://www.w3.org/2000/svg" xmlns:xlink="http://www.w3.org/1999/xlink">
<g id="graph0" class="graph" transform="scale(1 1) rotate(0) translate(4 158)">
<title>l4/re/util/unique_cap</title>
<polygon fill="white" stroke="transparent" points="-4,4 -4,-158 435,-158 435,4 -4,4"/>
<!-- Node1 -->
<g id="node1" class="node">
<title>Node1</title>
<g id="a_node1"><a xlink:title="Unique_cap / Unique_del_cap.">
<polygon fill="#bfbfbf" stroke="black" points="105.5,-134.5 105.5,-153.5 221.5,-153.5 221.5,-134.5 105.5,-134.5"/>
<text text-anchor="middle" x="163.5" y="-141.5" font-family="Helvetica,sans-Serif" font-size="10.00">l4/re/util/unique_cap</text>
</a>
</g>
</g>
<!-- Node2 -->
<g id="node2" class="node">
<title>Node2</title>
<g id="a_node2"><a xlink:href="client_2virtio-block_source.html" target="_top" xlink:title=" ">
<polygon fill="white" stroke="black" points="155,-0.5 155,-30.5 248,-30.5 248,-0.5 155,-0.5"/>
<text text-anchor="start" x="163" y="-18.5" font-family="Helvetica,sans-Serif" font-size="10.00">l4/l4virtio/client</text>
<text text-anchor="middle" x="201.5" y="-7.5" font-family="Helvetica,sans-Serif" font-size="10.00">/virtio&#45;block</text>
</a>
</g>
</g>
<!-- Node1&#45;&gt;Node2 -->
<g id="edge1" class="edge">
<title>Node1&#45;&gt;Node2</title>
<path fill="none" stroke="midnightblue" d="M167.47,-124.62C170.97,-109.12 176.44,-86.43 182.5,-67 186.35,-54.66 191.57,-40.95 195.56,-30.93"/>
<polygon fill="midnightblue" stroke="midnightblue" points="164.03,-123.96 165.29,-134.48 170.87,-125.47 164.03,-123.96"/>
</g>
<!-- Node3 -->
<g id="node3" class="node">
<title>Node3</title>
<g id="a_node3"><a xlink:href="server_2l4virtio_source.html" target="_top" xlink:title=" ">
<polygon fill="white" stroke="black" points="0,-67.5 0,-97.5 97,-97.5 97,-67.5 0,-67.5"/>
<text text-anchor="start" x="8" y="-85.5" font-family="Helvetica,sans-Serif" font-size="10.00">l4/l4virtio/server</text>
<text text-anchor="middle" x="48.5" y="-74.5" font-family="Helvetica,sans-Serif" font-size="10.00">/l4virtio</text>
</a>
</g>
</g>
<!-- Node1&#45;&gt;Node3 -->
<g id="edge2" class="edge">
<title>Node1&#45;&gt;Node3</title>
<path fill="none" stroke="midnightblue" d="M138,-129.81C119.49,-120.23 94.48,-107.29 75.6,-97.52"/>
<polygon fill="midnightblue" stroke="midnightblue" points="136.53,-132.99 147.02,-134.48 139.75,-126.77 136.53,-132.99"/>
</g>
<!-- Node4 -->
<g id="node4" class="node">
<title>Node4</title>
<g id="a_node4"><a xlink:href="server_2virtio-block_source.html" target="_top" xlink:title=" ">
<polygon fill="white" stroke="black" points="39,-0.5 39,-30.5 136,-30.5 136,-0.5 39,-0.5"/>
<text text-anchor="start" x="47" y="-18.5" font-family="Helvetica,sans-Serif" font-size="10.00">l4/l4virtio/server</text>
<text text-anchor="middle" x="87.5" y="-7.5" font-family="Helvetica,sans-Serif" font-size="10.00">/virtio&#45;block</text>
</a>
</g>
</g>
<!-- Node1&#45;&gt;Node4 -->
<g id="edge4" class="edge">
<title>Node1&#45;&gt;Node4</title>
<path fill="none" stroke="midnightblue" d="M152.97,-125.47C137.82,-100.25 110.16,-54.22 96.14,-30.89"/>
<polygon fill="midnightblue" stroke="midnightblue" points="150.13,-127.54 158.28,-134.31 156.13,-123.93 150.13,-127.54"/>
</g>
<!-- Node5 -->
<g id="node5" class="node">
<title>Node5</title>
<g id="a_node5"><a xlink:href="util_2event.html" target="_top" xlink:title=" ">
<polygon fill="white" stroke="black" points="191.5,-73 191.5,-92 279.5,-92 279.5,-73 191.5,-73"/>
<text text-anchor="middle" x="235.5" y="-80" font-family="Helvetica,sans-Serif" font-size="10.00">l4/re/util/event</text>
</a>
</g>
</g>
<!-- Node1&#45;&gt;Node5 -->
<g id="edge5" class="edge">
<title>Node1&#45;&gt;Node5</title>
<path fill="none" stroke="midnightblue" d="M181.68,-127.97C195.46,-116.59 213.88,-101.37 225.2,-92.01"/>
<polygon fill="midnightblue" stroke="midnightblue" points="179.29,-125.41 173.82,-134.48 183.75,-130.8 179.29,-125.41"/>
</g>
<!-- Node6 -->
<g id="node6" class="node">
<title>Node6</title>
<g id="a_node6"><a xlink:href="object__registry_source.html" target="_top" xlink:title=" ">
<polygon fill="white" stroke="black" points="298,-73 298,-92 431,-92 431,-73 298,-73"/>
<text text-anchor="middle" x="364.5" y="-80" font-family="Helvetica,sans-Serif" font-size="10.00">l4/re/util/object_registry</text>
</a>
</g>
</g>
<!-- Node1&#45;&gt;Node6 -->
<g id="edge6" class="edge">
<title>Node1&#45;&gt;Node6</title>
<path fill="none" stroke="midnightblue" d="M202.25,-131.53C241.32,-119.96 300.7,-102.38 335.76,-92.01"/>
<polygon fill="midnightblue" stroke="midnightblue" points="200.89,-128.28 192.3,-134.48 202.88,-134.99 200.89,-128.28"/>
</g>
<!-- Node3&#45;&gt;Node4 -->
<g id="edge3" class="edge">
<title>Node3&#45;&gt;Node4</title>
<path fill="none" stroke="midnightblue" d="M62.25,-58.58C67.86,-49.24 74.15,-38.75 79.05,-30.58"/>
<polygon fill="midnightblue" stroke="midnightblue" points="59.11,-57.02 56.96,-67.4 65.11,-60.62 59.11,-57.02"/>
</g>
<!-- Node6&#45;&gt;Node2 -->
<g id="edge7" class="edge">
<title>Node6&#45;&gt;Node2</title>
<path fill="none" stroke="midnightblue" d="M333.3,-69.06C305.69,-58.05 265.43,-41.99 236.68,-30.53"/>
<polygon fill="midnightblue" stroke="midnightblue" points="332.27,-72.42 342.85,-72.87 334.86,-65.91 332.27,-72.42"/>
</g>
</g>
</svg>
