<?xml version="1.0" encoding="UTF-8" standalone="no"?>
<!DOCTYPE svg PUBLIC "-//W3C//DTD SVG 1.1//EN"
 "http://www.w3.org/Graphics/SVG/1.1/DTD/svg11.dtd">
<!-- Generated by graphviz version 2.43.0 (0)
 -->
<!-- Title: l4/vbus/vbus_types.h Pages: 1 -->
<svg width="741pt" height="218pt"
 viewBox="0.00 0.00 741.00 218.00" xmlns="http://www.w3.org/2000/svg" xmlns:xlink="http://www.w3.org/1999/xlink">
<g id="graph0" class="graph" transform="scale(1 1) rotate(0) translate(4 214)">
<title>l4/vbus/vbus_types.h</title>
<polygon fill="white" stroke="transparent" points="-4,4 -4,-214 737,-214 737,4 -4,4"/>
<!-- Node1 -->
<g id="node1" class="node">
<title>Node1</title>
<g id="a_node1"><a xlink:title="This header file contains descriptions of vbus related data types and constants.">
<polygon fill="#bfbfbf" stroke="black" points="244,-190.5 244,-209.5 363,-209.5 363,-190.5 244,-190.5"/>
<text text-anchor="middle" x="303.5" y="-197.5" font-family="Helvetica,sans-Serif" font-size="10.00">l4/vbus/vbus_types.h</text>
</a>
</g>
</g>
<!-- Node2 -->
<g id="node2" class="node">
<title>Node2</title>
<g id="a_node2"><a xlink:href="vbus_8h.html" target="_top" xlink:title="Description of the vbus C API.">
<polygon fill="white" stroke="black" points="224,-129 224,-148 311,-148 311,-129 224,-129"/>
<text text-anchor="middle" x="267.5" y="-136" font-family="Helvetica,sans-Serif" font-size="10.00">l4/vbus/vbus.h</text>
</a>
</g>
</g>
<!-- Node1&#45;&gt;Node2 -->
<g id="edge1" class="edge">
<title>Node1&#45;&gt;Node2</title>
<path fill="none" stroke="midnightblue" d="M293.02,-181.67C286.32,-170.61 277.94,-156.75 272.65,-148.01"/>
<polygon fill="midnightblue" stroke="midnightblue" points="290.17,-183.73 298.34,-190.48 296.16,-180.11 290.17,-183.73"/>
</g>
<!-- Node4 -->
<g id="node4" class="node">
<title>Node4</title>
<g id="a_node4"><a xlink:href="vbus__generic_source.html" target="_top" xlink:title=" ">
<polygon fill="white" stroke="black" points="0,-0.5 0,-19.5 119,-19.5 119,-0.5 0,-0.5"/>
<text text-anchor="middle" x="59.5" y="-7.5" font-family="Helvetica,sans-Serif" font-size="10.00">l4/vbus/vbus_generic</text>
</a>
</g>
</g>
<!-- Node1&#45;&gt;Node4 -->
<g id="edge6" class="edge">
<title>Node1&#45;&gt;Node4</title>
<path fill="none" stroke="midnightblue" d="M233.85,-192.09C176.93,-185.19 102.14,-172.87 78.5,-154 42.9,-125.59 43.05,-101.22 48.5,-56 50.06,-43.06 54.05,-28.48 56.77,-19.51"/>
<polygon fill="midnightblue" stroke="midnightblue" points="233.56,-195.58 243.9,-193.27 234.38,-188.63 233.56,-195.58"/>
</g>
<!-- Node7 -->
<g id="node7" class="node">
<title>Node7</title>
<g id="a_node7"><a xlink:href="vbus__gpio_8h_source.html" target="_top" xlink:title=" ">
<polygon fill="white" stroke="black" points="58,-62 58,-81 171,-81 171,-62 58,-62"/>
<text text-anchor="middle" x="114.5" y="-69" font-family="Helvetica,sans-Serif" font-size="10.00">l4/vbus/vbus_gpio.h</text>
</a>
</g>
</g>
<!-- Node1&#45;&gt;Node7 -->
<g id="edge7" class="edge">
<title>Node1&#45;&gt;Node7</title>
<path fill="none" stroke="midnightblue" d="M233.67,-193.76C178.06,-187.97 106.64,-176.33 88.5,-154 70.52,-131.87 94.14,-97.09 107.07,-81.08"/>
<polygon fill="midnightblue" stroke="midnightblue" points="233.56,-197.27 243.85,-194.78 234.25,-190.3 233.56,-197.27"/>
</g>
<!-- Node8 -->
<g id="node8" class="node">
<title>Node8</title>
<g id="a_node8"><a xlink:href="vbus__i2c_8h_source.html" target="_top" xlink:title=" ">
<polygon fill="white" stroke="black" points="368,-129 368,-148 475,-148 475,-129 368,-129"/>
<text text-anchor="middle" x="421.5" y="-136" font-family="Helvetica,sans-Serif" font-size="10.00">l4/vbus/vbus_i2c.h</text>
</a>
</g>
</g>
<!-- Node1&#45;&gt;Node8 -->
<g id="edge9" class="edge">
<title>Node1&#45;&gt;Node8</title>
<path fill="none" stroke="midnightblue" d="M329.55,-185.87C352.42,-174.33 385.01,-157.9 404.62,-148.01"/>
<polygon fill="midnightblue" stroke="midnightblue" points="327.76,-182.85 320.41,-190.48 330.91,-189.1 327.76,-182.85"/>
</g>
<!-- Node9 -->
<g id="node9" class="node">
<title>Node9</title>
<g id="a_node9"><a xlink:href="vbus__mcspi_8h_source.html" target="_top" xlink:title=" ">
<polygon fill="white" stroke="black" points="493.5,-129 493.5,-148 615.5,-148 615.5,-129 493.5,-129"/>
<text text-anchor="middle" x="554.5" y="-136" font-family="Helvetica,sans-Serif" font-size="10.00">l4/vbus/vbus_mcspi.h</text>
</a>
</g>
</g>
<!-- Node1&#45;&gt;Node9 -->
<g id="edge10" class="edge">
<title>Node1&#45;&gt;Node9</title>
<path fill="none" stroke="midnightblue" d="M349.42,-188.11C398.14,-176.57 474.09,-158.56 518.6,-148.01"/>
<polygon fill="midnightblue" stroke="midnightblue" points="348.39,-184.76 339.46,-190.48 350,-191.57 348.39,-184.76"/>
</g>
<!-- Node10 -->
<g id="node10" class="node">
<title>Node10</title>
<g id="a_node10"><a xlink:href="vbus__pci_8h_source.html" target="_top" xlink:title=" ">
<polygon fill="white" stroke="black" points="286,-62 286,-81 393,-81 393,-62 286,-62"/>
<text text-anchor="middle" x="339.5" y="-69" font-family="Helvetica,sans-Serif" font-size="10.00">l4/vbus/vbus_pci.h</text>
</a>
</g>
</g>
<!-- Node1&#45;&gt;Node10 -->
<g id="edge11" class="edge">
<title>Node1&#45;&gt;Node10</title>
<path fill="none" stroke="midnightblue" d="M310.41,-180.89C313.4,-172.73 316.82,-162.95 319.5,-154 327.36,-127.76 334.46,-96.11 337.68,-81.14"/>
<polygon fill="midnightblue" stroke="midnightblue" points="307.06,-179.87 306.83,-190.46 313.61,-182.32 307.06,-179.87"/>
</g>
<!-- Node11 -->
<g id="node11" class="node">
<title>Node11</title>
<g id="a_node11"><a xlink:href="vbus__pm_8h_source.html" target="_top" xlink:title=" ">
<polygon fill="white" stroke="black" points="97.5,-129 97.5,-148 205.5,-148 205.5,-129 97.5,-129"/>
<text text-anchor="middle" x="151.5" y="-136" font-family="Helvetica,sans-Serif" font-size="10.00">l4/vbus/vbus_pm.h</text>
</a>
</g>
</g>
<!-- Node1&#45;&gt;Node11 -->
<g id="edge13" class="edge">
<title>Node1&#45;&gt;Node11</title>
<path fill="none" stroke="midnightblue" d="M272.29,-186.78C242.75,-175.22 199.18,-158.16 173.24,-148.01"/>
<polygon fill="midnightblue" stroke="midnightblue" points="271.13,-190.09 281.72,-190.48 273.69,-183.57 271.13,-190.09"/>
</g>
<!-- Node12 -->
<g id="node12" class="node">
<title>Node12</title>
<g id="a_node12"><a xlink:href="contrib_2libio-io_2l4_2io_2types_8h_source.html" target="_top" xlink:title=" ">
<polygon fill="white" stroke="black" points="634,-123.5 634,-153.5 733,-153.5 733,-123.5 634,-123.5"/>
<text text-anchor="start" x="642" y="-141.5" font-family="Helvetica,sans-Serif" font-size="10.00">contrib/libio&#45;io/l4</text>
<text text-anchor="middle" x="683.5" y="-130.5" font-family="Helvetica,sans-Serif" font-size="10.00">/io/types.h</text>
</a>
</g>
</g>
<!-- Node1&#45;&gt;Node12 -->
<g id="edge15" class="edge">
<title>Node1&#45;&gt;Node12</title>
<path fill="none" stroke="midnightblue" d="M373.42,-191.28C438.68,-183.58 538.61,-170.53 624.5,-154 627.5,-153.42 630.58,-152.79 633.69,-152.12"/>
<polygon fill="midnightblue" stroke="midnightblue" points="372.78,-187.83 363.26,-192.47 373.6,-194.78 372.78,-187.83"/>
</g>
<!-- Node3 -->
<g id="node3" class="node">
<title>Node3</title>
<g id="a_node3"><a xlink:href="vbus_source.html" target="_top" xlink:title=" ">
<polygon fill="white" stroke="black" points="189.5,-62 189.5,-81 267.5,-81 267.5,-62 189.5,-62"/>
<text text-anchor="middle" x="228.5" y="-69" font-family="Helvetica,sans-Serif" font-size="10.00">l4/vbus/vbus</text>
</a>
</g>
</g>
<!-- Node2&#45;&gt;Node3 -->
<g id="edge2" class="edge">
<title>Node2&#45;&gt;Node3</title>
<path fill="none" stroke="midnightblue" d="M257.02,-120.03C249.47,-107.45 239.6,-91.01 233.68,-81.13"/>
<polygon fill="midnightblue" stroke="midnightblue" points="254.09,-121.96 262.24,-128.73 260.1,-118.36 254.09,-121.96"/>
</g>
<!-- Node3&#45;&gt;Node4 -->
<g id="edge3" class="edge">
<title>Node3&#45;&gt;Node4</title>
<path fill="none" stroke="midnightblue" d="M194.65,-58.58C161.8,-47.02 112.76,-29.75 83.67,-19.51"/>
<polygon fill="midnightblue" stroke="midnightblue" points="193.69,-61.96 204.29,-61.98 196.02,-55.35 193.69,-61.96"/>
</g>
<!-- Node5 -->
<g id="node5" class="node">
<title>Node5</title>
<g id="a_node5"><a xlink:href="vbus__gpio_source.html" target="_top" xlink:title=" ">
<polygon fill="white" stroke="black" points="152.5,-0.5 152.5,-19.5 256.5,-19.5 256.5,-0.5 152.5,-0.5"/>
<text text-anchor="middle" x="204.5" y="-7.5" font-family="Helvetica,sans-Serif" font-size="10.00">l4/vbus/vbus_gpio</text>
</a>
</g>
</g>
<!-- Node3&#45;&gt;Node5 -->
<g id="edge4" class="edge">
<title>Node3&#45;&gt;Node5</title>
<path fill="none" stroke="midnightblue" d="M221.24,-52.5C216.82,-41.55 211.39,-28.07 207.93,-19.51"/>
<polygon fill="midnightblue" stroke="midnightblue" points="218.07,-54.01 225.06,-61.98 224.57,-51.39 218.07,-54.01"/>
</g>
<!-- Node6 -->
<g id="node6" class="node">
<title>Node6</title>
<g id="a_node6"><a xlink:href="vbus__pci_source.html" target="_top" xlink:title=" ">
<polygon fill="white" stroke="black" points="282.5,-0.5 282.5,-19.5 380.5,-19.5 380.5,-0.5 282.5,-0.5"/>
<text text-anchor="middle" x="331.5" y="-7.5" font-family="Helvetica,sans-Serif" font-size="10.00">l4/vbus/vbus_pci</text>
</a>
</g>
</g>
<!-- Node3&#45;&gt;Node6 -->
<g id="edge5" class="edge">
<title>Node3&#45;&gt;Node6</title>
<path fill="none" stroke="midnightblue" d="M252.04,-56.9C271.96,-45.4 299.88,-29.27 316.77,-19.51"/>
<polygon fill="midnightblue" stroke="midnightblue" points="250.17,-53.94 243.26,-61.98 253.67,-60 250.17,-53.94"/>
</g>
<!-- Node7&#45;&gt;Node5 -->
<g id="edge8" class="edge">
<title>Node7&#45;&gt;Node5</title>
<path fill="none" stroke="midnightblue" d="M135.78,-56.43C153.13,-44.96 177.07,-29.13 191.63,-19.51"/>
<polygon fill="midnightblue" stroke="midnightblue" points="133.81,-53.54 127.39,-61.98 137.67,-59.38 133.81,-53.54"/>
</g>
<!-- Node10&#45;&gt;Node6 -->
<g id="edge12" class="edge">
<title>Node10&#45;&gt;Node6</title>
<path fill="none" stroke="midnightblue" d="M336.99,-51.82C335.53,-41 333.77,-27.9 332.64,-19.51"/>
<polygon fill="midnightblue" stroke="midnightblue" points="333.55,-52.53 338.35,-61.98 340.49,-51.6 333.55,-52.53"/>
</g>
<!-- Node11&#45;&gt;Node3 -->
<g id="edge14" class="edge">
<title>Node11&#45;&gt;Node3</title>
<path fill="none" stroke="midnightblue" d="M169.61,-122.21C184.78,-109.41 205.89,-91.59 218.28,-81.13"/>
<polygon fill="midnightblue" stroke="midnightblue" points="167.27,-119.61 161.88,-128.73 171.78,-124.96 167.27,-119.61"/>
</g>
<!-- Node13 -->
<g id="node13" class="node">
<title>Node13</title>
<g id="a_node13"><a xlink:href="io_8h.html" target="_top" xlink:title=" ">
<polygon fill="white" stroke="black" points="634,-56.5 634,-86.5 733,-86.5 733,-56.5 634,-56.5"/>
<text text-anchor="start" x="642" y="-74.5" font-family="Helvetica,sans-Serif" font-size="10.00">contrib/libio&#45;io/l4</text>
<text text-anchor="middle" x="683.5" y="-63.5" font-family="Helvetica,sans-Serif" font-size="10.00">/io/io.h</text>
</a>
</g>
</g>
<!-- Node12&#45;&gt;Node13 -->
<g id="edge16" class="edge">
<title>Node12&#45;&gt;Node13</title>
<path fill="none" stroke="midnightblue" d="M683.5,-113.11C683.5,-104.15 683.5,-94.32 683.5,-86.58"/>
<polygon fill="midnightblue" stroke="midnightblue" points="680,-113.4 683.5,-123.4 687,-113.4 680,-113.4"/>
</g>
</g>
</svg>
