<?xml version="1.0" encoding="UTF-8" standalone="no"?>
<!DOCTYPE svg PUBLIC "-//W3C//DTD SVG 1.1//EN"
 "http://www.w3.org/Graphics/SVG/1.1/DTD/svg11.dtd">
<!-- Generated by graphviz version 2.43.0 (0)
 -->
<!-- Title: l4/sys/vcon.h Pages: 1 -->
<svg width="1472pt" height="475pt"
 viewBox="0.00 0.00 1471.50 475.00" xmlns="http://www.w3.org/2000/svg" xmlns:xlink="http://www.w3.org/1999/xlink">
<g id="graph0" class="graph" transform="scale(1 1) rotate(0) translate(4 471)">
<title>l4/sys/vcon.h</title>
<polygon fill="white" stroke="transparent" points="-4,4 -4,-471 1467.5,-471 1467.5,4 -4,4"/>
<!-- Node1 -->
<g id="node1" class="node">
<title>Node1</title>
<g id="a_node1"><a xlink:title="Virtual console interface.">
<polygon fill="#bfbfbf" stroke="black" points="523.5,-447.5 523.5,-466.5 603.5,-466.5 603.5,-447.5 523.5,-447.5"/>
<text text-anchor="middle" x="563.5" y="-454.5" font-family="Helvetica,sans-Serif" font-size="10.00">l4/sys/vcon.h</text>
</a>
</g>
</g>
<!-- Node2 -->
<g id="node2" class="node">
<title>Node2</title>
<g id="a_node2"><a xlink:href="sys_2assert_8h.html" target="_top" xlink:title="Low&#45;level assert implementation.">
<polygon fill="white" stroke="black" points="432,-391.5 432,-410.5 519,-410.5 519,-391.5 432,-391.5"/>
<text text-anchor="middle" x="475.5" y="-398.5" font-family="Helvetica,sans-Serif" font-size="10.00">l4/sys/assert.h</text>
</a>
</g>
</g>
<!-- Node1&#45;&gt;Node2 -->
<g id="edge1" class="edge">
<title>Node1&#45;&gt;Node2</title>
<path fill="none" stroke="midnightblue" d="M540.52,-441.9C524.39,-432 503.32,-419.07 489.6,-410.65"/>
<polygon fill="midnightblue" stroke="midnightblue" points="539.01,-445.08 549.36,-447.32 542.67,-439.11 539.01,-445.08"/>
</g>
<!-- Node19 -->
<g id="node19" class="node">
<title>Node19</title>
<g id="a_node19"><a xlink:href="vcon.html" target="_top" xlink:title="Virtual console interface.">
<polygon fill="white" stroke="black" points="695,-263 695,-282 766,-282 766,-263 695,-263"/>
<text text-anchor="middle" x="730.5" y="-270" font-family="Helvetica,sans-Serif" font-size="10.00">l4/sys/vcon</text>
</a>
</g>
</g>
<!-- Node1&#45;&gt;Node19 -->
<g id="edge25" class="edge">
<title>Node1&#45;&gt;Node19</title>
<path fill="none" stroke="midnightblue" d="M578.46,-439.66C612.8,-402.13 696.36,-310.81 722.53,-282.21"/>
<polygon fill="midnightblue" stroke="midnightblue" points="575.72,-437.46 571.55,-447.2 580.89,-442.18 575.72,-437.46"/>
</g>
<!-- Node3 -->
<g id="node3" class="node">
<title>Node3</title>
<g id="a_node3"><a xlink:href="namespace__impl_8h.html" target="_top" xlink:title="Namespace client stub implementation.">
<polygon fill="white" stroke="black" points="479.5,-324.5 479.5,-354.5 601.5,-354.5 601.5,-324.5 479.5,-324.5"/>
<text text-anchor="start" x="487.5" y="-342.5" font-family="Helvetica,sans-Serif" font-size="10.00">l4/re/impl/namespace</text>
<text text-anchor="middle" x="540.5" y="-331.5" font-family="Helvetica,sans-Serif" font-size="10.00">_impl.h</text>
</a>
</g>
</g>
<!-- Node2&#45;&gt;Node3 -->
<g id="edge2" class="edge">
<title>Node2&#45;&gt;Node3</title>
<path fill="none" stroke="midnightblue" d="M492.27,-384.65C502.43,-375.35 515.3,-363.57 525.18,-354.52"/>
<polygon fill="midnightblue" stroke="midnightblue" points="489.83,-382.14 484.81,-391.48 494.55,-387.3 489.83,-382.14"/>
</g>
<!-- Node4 -->
<g id="node4" class="node">
<title>Node4</title>
<g id="a_node4"><a xlink:href="br__manager_source.html" target="_top" xlink:title=" ">
<polygon fill="white" stroke="black" points="0,-140 0,-159 119,-159 119,-140 0,-140"/>
<text text-anchor="middle" x="59.5" y="-147" font-family="Helvetica,sans-Serif" font-size="10.00">l4/re/util/br_manager</text>
</a>
</g>
</g>
<!-- Node2&#45;&gt;Node4 -->
<g id="edge3" class="edge">
<title>Node2&#45;&gt;Node4</title>
<path fill="none" stroke="midnightblue" d="M435.19,-388.51C410.11,-380.63 377.6,-369.08 350.5,-355 232.14,-293.52 106.34,-190.2 69.92,-159.41"/>
<polygon fill="midnightblue" stroke="midnightblue" points="434.16,-391.85 444.75,-391.45 436.22,-385.16 434.16,-391.85"/>
</g>
<!-- Node5 -->
<g id="node5" class="node">
<title>Node5</title>
<g id="a_node5"><a xlink:href="counting__cap__alloc.html" target="_top" xlink:title="Reference&#45;counting capability allocator.">
<polygon fill="white" stroke="black" points="359.5,-324.5 359.5,-354.5 461.5,-354.5 461.5,-324.5 359.5,-324.5"/>
<text text-anchor="start" x="367.5" y="-342.5" font-family="Helvetica,sans-Serif" font-size="10.00">l4/re/util/counting</text>
<text text-anchor="middle" x="410.5" y="-331.5" font-family="Helvetica,sans-Serif" font-size="10.00">_cap_alloc</text>
</a>
</g>
</g>
<!-- Node2&#45;&gt;Node5 -->
<g id="edge4" class="edge">
<title>Node2&#45;&gt;Node5</title>
<path fill="none" stroke="midnightblue" d="M458.73,-384.65C448.57,-375.35 435.7,-363.57 425.82,-354.52"/>
<polygon fill="midnightblue" stroke="midnightblue" points="456.45,-387.3 466.19,-391.48 461.17,-382.14 456.45,-387.3"/>
</g>
<!-- Node6 -->
<g id="node6" class="node">
<title>Node6</title>
<g id="a_node6"><a xlink:href="cap__alloc__impl_8h.html" target="_top" xlink:title="Capability allocator implementation.">
<polygon fill="white" stroke="black" points="357.5,-257.5 357.5,-287.5 463.5,-287.5 463.5,-257.5 357.5,-257.5"/>
<text text-anchor="start" x="365.5" y="-275.5" font-family="Helvetica,sans-Serif" font-size="10.00">l4/re/util/cap_alloc</text>
<text text-anchor="middle" x="410.5" y="-264.5" font-family="Helvetica,sans-Serif" font-size="10.00">_impl.h</text>
</a>
</g>
</g>
<!-- Node5&#45;&gt;Node6 -->
<g id="edge5" class="edge">
<title>Node5&#45;&gt;Node6</title>
<path fill="none" stroke="midnightblue" d="M410.5,-314.11C410.5,-305.15 410.5,-295.32 410.5,-287.58"/>
<polygon fill="midnightblue" stroke="midnightblue" points="407,-314.4 410.5,-324.4 414,-314.4 407,-314.4"/>
</g>
<!-- Node7 -->
<g id="node7" class="node">
<title>Node7</title>
<g id="a_node7"><a xlink:href="util_2cap__alloc.html" target="_top" xlink:title="Capability allocator.">
<polygon fill="white" stroke="black" points="357.5,-201.5 357.5,-220.5 463.5,-220.5 463.5,-201.5 357.5,-201.5"/>
<text text-anchor="middle" x="410.5" y="-208.5" font-family="Helvetica,sans-Serif" font-size="10.00">l4/re/util/cap_alloc</text>
</a>
</g>
</g>
<!-- Node6&#45;&gt;Node7 -->
<g id="edge6" class="edge">
<title>Node6&#45;&gt;Node7</title>
<path fill="none" stroke="midnightblue" d="M410.5,-247.29C410.5,-237.86 410.5,-227.65 410.5,-220.66"/>
<polygon fill="midnightblue" stroke="midnightblue" points="407,-247.4 410.5,-257.4 414,-247.4 407,-247.4"/>
</g>
<!-- Node7&#45;&gt;Node4 -->
<g id="edge9" class="edge">
<title>Node7&#45;&gt;Node4</title>
<path fill="none" stroke="midnightblue" d="M347.37,-200.83C290.12,-192.3 203.47,-178.85 128.5,-165 118.75,-163.2 108.26,-161.09 98.48,-159.04"/>
<polygon fill="midnightblue" stroke="midnightblue" points="346.95,-204.3 357.35,-202.31 347.98,-197.38 346.95,-204.3"/>
</g>
<!-- Node8 -->
<g id="node8" class="node">
<title>Node8</title>
<g id="a_node8"><a xlink:href="server_2l4virtio_source.html" target="_top" xlink:title=" ">
<polygon fill="white" stroke="black" points="139,-67.5 139,-97.5 236,-97.5 236,-67.5 139,-67.5"/>
<text text-anchor="start" x="147" y="-85.5" font-family="Helvetica,sans-Serif" font-size="10.00">l4/l4virtio/server</text>
<text text-anchor="middle" x="187.5" y="-74.5" font-family="Helvetica,sans-Serif" font-size="10.00">/l4virtio</text>
</a>
</g>
</g>
<!-- Node7&#45;&gt;Node8 -->
<g id="edge7" class="edge">
<title>Node7&#45;&gt;Node8</title>
<path fill="none" stroke="midnightblue" d="M373.59,-198C351.6,-190.11 323.57,-178.71 300.5,-165 281.76,-153.86 280,-146.99 262.5,-134 245.1,-121.09 224.67,-107.42 209.53,-97.57"/>
<polygon fill="midnightblue" stroke="midnightblue" points="372.63,-201.38 383.22,-201.38 374.94,-194.77 372.63,-201.38"/>
</g>
<!-- Node10 -->
<g id="node10" class="node">
<title>Node10</title>
<g id="a_node10"><a xlink:href="env__ns_source.html" target="_top" xlink:title=" ">
<polygon fill="white" stroke="black" points="627,-73 627,-92 722,-92 722,-73 627,-73"/>
<text text-anchor="middle" x="674.5" y="-80" font-family="Helvetica,sans-Serif" font-size="10.00">l4/re/util/env_ns</text>
</a>
</g>
</g>
<!-- Node7&#45;&gt;Node10 -->
<g id="edge10" class="edge">
<title>Node7&#45;&gt;Node10</title>
<path fill="none" stroke="midnightblue" d="M437.97,-196.84C492.11,-170.89 611.3,-113.78 656.58,-92.09"/>
<polygon fill="midnightblue" stroke="midnightblue" points="436.15,-193.83 428.65,-201.31 439.18,-200.14 436.15,-193.83"/>
</g>
<!-- Node12 -->
<g id="node12" class="node">
<title>Node12</title>
<g id="a_node12"><a xlink:href="util_2event.html" target="_top" xlink:title=" ">
<polygon fill="white" stroke="black" points="330.5,-73 330.5,-92 418.5,-92 418.5,-73 330.5,-73"/>
<text text-anchor="middle" x="374.5" y="-80" font-family="Helvetica,sans-Serif" font-size="10.00">l4/re/util/event</text>
</a>
</g>
</g>
<!-- Node7&#45;&gt;Node12 -->
<g id="edge12" class="edge">
<title>Node7&#45;&gt;Node12</title>
<path fill="none" stroke="midnightblue" d="M423.17,-192.63C432.98,-176.91 443.49,-153.32 434.5,-134 425.65,-114.99 405.74,-100.58 391.27,-92.11"/>
<polygon fill="midnightblue" stroke="midnightblue" points="420.02,-191.04 417.34,-201.29 425.83,-194.95 420.02,-191.04"/>
</g>
<!-- Node13 -->
<g id="node13" class="node">
<title>Node13</title>
<g id="a_node13"><a xlink:href="icu__svr_source.html" target="_top" xlink:title=" ">
<polygon fill="white" stroke="black" points="1103,-73 1103,-92 1198,-92 1198,-73 1103,-73"/>
<text text-anchor="middle" x="1150.5" y="-80" font-family="Helvetica,sans-Serif" font-size="10.00">l4/re/util/icu_svr</text>
</a>
</g>
</g>
<!-- Node7&#45;&gt;Node13 -->
<g id="edge13" class="edge">
<title>Node7&#45;&gt;Node13</title>
<path fill="none" stroke="midnightblue" d="M473.6,-205.57C554.07,-199.33 697.35,-186.3 818.5,-165 942.82,-143.15 972.06,-128.71 1094.5,-98 1102.1,-96.09 1110.26,-94 1117.95,-92.02"/>
<polygon fill="midnightblue" stroke="midnightblue" points="473.33,-202.08 463.62,-206.33 473.86,-209.06 473.33,-202.08"/>
</g>
<!-- Node15 -->
<g id="node15" class="node">
<title>Node15</title>
<g id="a_node15"><a xlink:href="object__registry_source.html" target="_top" xlink:title=" ">
<polygon fill="white" stroke="black" points="437,-73 437,-92 570,-92 570,-73 437,-73"/>
<text text-anchor="middle" x="503.5" y="-80" font-family="Helvetica,sans-Serif" font-size="10.00">l4/re/util/object_registry</text>
</a>
</g>
</g>
<!-- Node7&#45;&gt;Node15 -->
<g id="edge15" class="edge">
<title>Node7&#45;&gt;Node15</title>
<path fill="none" stroke="midnightblue" d="M425.47,-193.76C432.96,-185.38 442,-174.88 449.5,-165 468.8,-139.59 488.88,-107.55 498.18,-92.32"/>
<polygon fill="midnightblue" stroke="midnightblue" points="422.74,-191.56 418.62,-201.32 427.93,-196.26 422.74,-191.56"/>
</g>
<!-- Node17 -->
<g id="node17" class="node">
<title>Node17</title>
<g id="a_node17"><a xlink:href="util_2shared__cap.html" target="_top" xlink:title="Shared_cap / Shared_del_cap.">
<polygon fill="white" stroke="black" points="137.5,-140 137.5,-159 253.5,-159 253.5,-140 137.5,-140"/>
<text text-anchor="middle" x="195.5" y="-147" font-family="Helvetica,sans-Serif" font-size="10.00">l4/re/util/shared_cap</text>
</a>
</g>
</g>
<!-- Node7&#45;&gt;Node17 -->
<g id="edge17" class="edge">
<title>Node7&#45;&gt;Node17</title>
<path fill="none" stroke="midnightblue" d="M369.85,-198.75C328.08,-187.19 263.98,-169.45 226.25,-159.01"/>
<polygon fill="midnightblue" stroke="midnightblue" points="369.12,-202.18 379.7,-201.48 370.99,-195.43 369.12,-202.18"/>
</g>
<!-- Node18 -->
<g id="node18" class="node">
<title>Node18</title>
<g id="a_node18"><a xlink:href="util_2unique__cap.html" target="_top" xlink:title="Unique_cap / Unique_del_cap.">
<polygon fill="white" stroke="black" points="309.5,-140 309.5,-159 425.5,-159 425.5,-140 309.5,-140"/>
<text text-anchor="middle" x="367.5" y="-147" font-family="Helvetica,sans-Serif" font-size="10.00">l4/re/util/unique_cap</text>
</a>
</g>
</g>
<!-- Node7&#45;&gt;Node18 -->
<g id="edge19" class="edge">
<title>Node7&#45;&gt;Node18</title>
<path fill="none" stroke="midnightblue" d="M398.46,-193.34C390.39,-182.17 380.09,-167.93 373.65,-159.01"/>
<polygon fill="midnightblue" stroke="midnightblue" points="395.64,-195.42 404.34,-201.48 401.32,-191.32 395.64,-195.42"/>
</g>
<!-- Node9 -->
<g id="node9" class="node">
<title>Node9</title>
<g id="a_node9"><a xlink:href="server_2virtio-block_source.html" target="_top" xlink:title=" ">
<polygon fill="white" stroke="black" points="178,-0.5 178,-30.5 275,-30.5 275,-0.5 178,-0.5"/>
<text text-anchor="start" x="186" y="-18.5" font-family="Helvetica,sans-Serif" font-size="10.00">l4/l4virtio/server</text>
<text text-anchor="middle" x="226.5" y="-7.5" font-family="Helvetica,sans-Serif" font-size="10.00">/virtio&#45;block</text>
</a>
</g>
</g>
<!-- Node8&#45;&gt;Node9 -->
<g id="edge8" class="edge">
<title>Node8&#45;&gt;Node9</title>
<path fill="none" stroke="midnightblue" d="M201.25,-58.58C206.86,-49.24 213.15,-38.75 218.05,-30.58"/>
<polygon fill="midnightblue" stroke="midnightblue" points="198.11,-57.02 195.96,-67.4 204.11,-60.62 198.11,-57.02"/>
</g>
<!-- Node11 -->
<g id="node11" class="node">
<title>Node11</title>
<g id="a_node11"><a xlink:href="ns__fs__impl_8h_source.html" target="_top" xlink:title=" ">
<polygon fill="white" stroke="black" points="621,-0.5 621,-30.5 728,-30.5 728,-0.5 621,-0.5"/>
<text text-anchor="start" x="629" y="-18.5" font-family="Helvetica,sans-Serif" font-size="10.00">l4/l4re_vfs/impl/ns</text>
<text text-anchor="middle" x="674.5" y="-7.5" font-family="Helvetica,sans-Serif" font-size="10.00">_fs_impl.h</text>
</a>
</g>
</g>
<!-- Node10&#45;&gt;Node11 -->
<g id="edge11" class="edge">
<title>Node10&#45;&gt;Node11</title>
<path fill="none" stroke="midnightblue" d="M674.5,-62.41C674.5,-52.22 674.5,-39.9 674.5,-30.59"/>
<polygon fill="midnightblue" stroke="midnightblue" points="671,-62.73 674.5,-72.73 678,-62.73 671,-62.73"/>
</g>
<!-- Node14 -->
<g id="node14" class="node">
<title>Node14</title>
<g id="a_node14"><a xlink:href="event__svr_source.html" target="_top" xlink:title=" ">
<polygon fill="white" stroke="black" points="1096.5,-6 1096.5,-25 1204.5,-25 1204.5,-6 1096.5,-6"/>
<text text-anchor="middle" x="1150.5" y="-13" font-family="Helvetica,sans-Serif" font-size="10.00">l4/re/util/event_svr</text>
</a>
</g>
</g>
<!-- Node13&#45;&gt;Node14 -->
<g id="edge14" class="edge">
<title>Node13&#45;&gt;Node14</title>
<path fill="none" stroke="midnightblue" d="M1150.5,-62.54C1150.5,-50.17 1150.5,-34.62 1150.5,-25.13"/>
<polygon fill="midnightblue" stroke="midnightblue" points="1147,-62.73 1150.5,-72.73 1154,-62.73 1147,-62.73"/>
</g>
<!-- Node16 -->
<g id="node16" class="node">
<title>Node16</title>
<g id="a_node16"><a xlink:href="client_2virtio-block_source.html" target="_top" xlink:title=" ">
<polygon fill="white" stroke="black" points="457,-0.5 457,-30.5 550,-30.5 550,-0.5 457,-0.5"/>
<text text-anchor="start" x="465" y="-18.5" font-family="Helvetica,sans-Serif" font-size="10.00">l4/l4virtio/client</text>
<text text-anchor="middle" x="503.5" y="-7.5" font-family="Helvetica,sans-Serif" font-size="10.00">/virtio&#45;block</text>
</a>
</g>
</g>
<!-- Node15&#45;&gt;Node16 -->
<g id="edge16" class="edge">
<title>Node15&#45;&gt;Node16</title>
<path fill="none" stroke="midnightblue" d="M503.5,-62.41C503.5,-52.22 503.5,-39.9 503.5,-30.59"/>
<polygon fill="midnightblue" stroke="midnightblue" points="500,-62.73 503.5,-72.73 507,-62.73 500,-62.73"/>
</g>
<!-- Node17&#45;&gt;Node8 -->
<g id="edge18" class="edge">
<title>Node17&#45;&gt;Node8</title>
<path fill="none" stroke="midnightblue" d="M193.19,-129.74C191.93,-119.49 190.39,-107 189.23,-97.59"/>
<polygon fill="midnightblue" stroke="midnightblue" points="189.73,-130.24 194.42,-139.73 196.67,-129.38 189.73,-130.24"/>
</g>
<!-- Node18&#45;&gt;Node8 -->
<g id="edge21" class="edge">
<title>Node18&#45;&gt;Node8</title>
<path fill="none" stroke="midnightblue" d="M333.84,-136.35C303.33,-125.33 258.37,-109.09 226.35,-97.53"/>
<polygon fill="midnightblue" stroke="midnightblue" points="333,-139.76 343.6,-139.87 335.38,-133.18 333,-139.76"/>
</g>
<!-- Node18&#45;&gt;Node9 -->
<g id="edge22" class="edge">
<title>Node18&#45;&gt;Node9</title>
<path fill="none" stroke="midnightblue" d="M350.56,-133.07C339.65,-123.1 325.19,-109.84 312.5,-98 287.38,-74.57 258.44,-47.02 241.35,-30.71"/>
<polygon fill="midnightblue" stroke="midnightblue" points="348.37,-135.81 358.12,-139.97 353.09,-130.64 348.37,-135.81"/>
</g>
<!-- Node18&#45;&gt;Node12 -->
<g id="edge23" class="edge">
<title>Node18&#45;&gt;Node12</title>
<path fill="none" stroke="midnightblue" d="M369.54,-129.54C370.87,-117.17 372.55,-101.62 373.57,-92.13"/>
<polygon fill="midnightblue" stroke="midnightblue" points="366.03,-129.42 368.44,-139.73 372.99,-130.17 366.03,-129.42"/>
</g>
<!-- Node18&#45;&gt;Node15 -->
<g id="edge24" class="edge">
<title>Node18&#45;&gt;Node15</title>
<path fill="none" stroke="midnightblue" d="M394.82,-135.44C421.76,-122.57 462.16,-103.26 485.37,-92.17"/>
<polygon fill="midnightblue" stroke="midnightblue" points="393.07,-132.4 385.56,-139.87 396.09,-138.71 393.07,-132.4"/>
</g>
<!-- Node18&#45;&gt;Node16 -->
<g id="edge20" class="edge">
<title>Node18&#45;&gt;Node16</title>
<path fill="none" stroke="midnightblue" d="M348.47,-133.4C329.44,-116.45 305.15,-88.5 321.5,-67 337.82,-45.53 408.32,-30.8 456.62,-23.01"/>
<polygon fill="midnightblue" stroke="midnightblue" points="346.29,-136.14 356.18,-139.94 350.82,-130.8 346.29,-136.14"/>
</g>
<!-- Node20 -->
<g id="node20" class="node">
<title>Node20</title>
<g id="a_node20"><a xlink:href="vcon__stream_8h_source.html" target="_top" xlink:title=" ">
<polygon fill="white" stroke="black" points="1216,-134.5 1216,-164.5 1335,-164.5 1335,-134.5 1216,-134.5"/>
<text text-anchor="start" x="1224" y="-152.5" font-family="Helvetica,sans-Serif" font-size="10.00">l4/l4re_vfs/impl/vcon</text>
<text text-anchor="middle" x="1275.5" y="-141.5" font-family="Helvetica,sans-Serif" font-size="10.00">_stream.h</text>
</a>
</g>
</g>
<!-- Node19&#45;&gt;Node20 -->
<g id="edge26" class="edge">
<title>Node19&#45;&gt;Node20</title>
<path fill="none" stroke="midnightblue" d="M776.18,-261.36C874.44,-239.54 1105.84,-188.17 1215.65,-163.79"/>
<polygon fill="midnightblue" stroke="midnightblue" points="775.26,-257.98 766.26,-263.56 776.78,-264.81 775.26,-257.98"/>
</g>
<!-- Node23 -->
<g id="node23" class="node">
<title>Node23</title>
<g id="a_node23"><a xlink:href="log.html" target="_top" xlink:title="Log interface.">
<polygon fill="white" stroke="black" points="751.5,-201.5 751.5,-220.5 807.5,-220.5 807.5,-201.5 751.5,-201.5"/>
<text text-anchor="middle" x="779.5" y="-208.5" font-family="Helvetica,sans-Serif" font-size="10.00">l4/re/log</text>
</a>
</g>
</g>
<!-- Node19&#45;&gt;Node23 -->
<g id="edge29" class="edge">
<title>Node19&#45;&gt;Node23</title>
<path fill="none" stroke="midnightblue" d="M743.95,-255.17C753.19,-243.95 765.07,-229.52 772.49,-220.51"/>
<polygon fill="midnightblue" stroke="midnightblue" points="741.18,-253.03 737.52,-262.98 746.58,-257.48 741.18,-253.03"/>
</g>
<!-- Node28 -->
<g id="node28" class="node">
<title>Node28</title>
<g id="a_node28"><a xlink:href="vcon__svr_source.html" target="_top" xlink:title=" ">
<polygon fill="white" stroke="black" points="629.5,-201.5 629.5,-220.5 733.5,-220.5 733.5,-201.5 629.5,-201.5"/>
<text text-anchor="middle" x="681.5" y="-208.5" font-family="Helvetica,sans-Serif" font-size="10.00">l4/re/util/vcon_svr</text>
</a>
</g>
</g>
<!-- Node19&#45;&gt;Node28 -->
<g id="edge42" class="edge">
<title>Node19&#45;&gt;Node28</title>
<path fill="none" stroke="midnightblue" d="M717.05,-255.17C707.81,-243.95 695.93,-229.52 688.51,-220.51"/>
<polygon fill="midnightblue" stroke="midnightblue" points="714.42,-257.48 723.48,-262.98 719.82,-253.03 714.42,-257.48"/>
</g>
<!-- Node21 -->
<g id="node21" class="node">
<title>Node21</title>
<g id="a_node21"><a xlink:href="vcon__stream__impl_8h_source.html" target="_top" xlink:title=" ">
<polygon fill="white" stroke="black" points="1216,-67.5 1216,-97.5 1335,-97.5 1335,-67.5 1216,-67.5"/>
<text text-anchor="start" x="1224" y="-85.5" font-family="Helvetica,sans-Serif" font-size="10.00">l4/l4re_vfs/impl/vcon</text>
<text text-anchor="middle" x="1275.5" y="-74.5" font-family="Helvetica,sans-Serif" font-size="10.00">_stream_impl.h</text>
</a>
</g>
</g>
<!-- Node20&#45;&gt;Node21 -->
<g id="edge27" class="edge">
<title>Node20&#45;&gt;Node21</title>
<path fill="none" stroke="midnightblue" d="M1275.5,-124.11C1275.5,-115.15 1275.5,-105.32 1275.5,-97.58"/>
<polygon fill="midnightblue" stroke="midnightblue" points="1272,-124.4 1275.5,-134.4 1279,-124.4 1272,-124.4"/>
</g>
<!-- Node22 -->
<g id="node22" class="node">
<title>Node22</title>
<g id="a_node22"><a xlink:href="vfs__impl_8h_source.html" target="_top" xlink:title=" ">
<polygon fill="white" stroke="black" points="1353.5,-67.5 1353.5,-97.5 1463.5,-97.5 1463.5,-67.5 1353.5,-67.5"/>
<text text-anchor="start" x="1361.5" y="-85.5" font-family="Helvetica,sans-Serif" font-size="10.00">l4/l4re_vfs/impl/vfs</text>
<text text-anchor="middle" x="1408.5" y="-74.5" font-family="Helvetica,sans-Serif" font-size="10.00">_impl.h</text>
</a>
</g>
</g>
<!-- Node20&#45;&gt;Node22 -->
<g id="edge28" class="edge">
<title>Node20&#45;&gt;Node22</title>
<path fill="none" stroke="midnightblue" d="M1313.37,-129.99C1334.45,-119.69 1360.28,-107.07 1379.7,-97.58"/>
<polygon fill="midnightblue" stroke="midnightblue" points="1311.81,-126.86 1304.36,-134.4 1314.88,-133.15 1311.81,-126.86"/>
</g>
<!-- Node24 -->
<g id="node24" class="node">
<title>Node24</title>
<g id="a_node24"><a xlink:href="env.html" target="_top" xlink:title="Environment interface.">
<polygon fill="white" stroke="black" points="750,-140 750,-159 809,-159 809,-140 750,-140"/>
<text text-anchor="middle" x="779.5" y="-147" font-family="Helvetica,sans-Serif" font-size="10.00">l4/re/env</text>
</a>
</g>
</g>
<!-- Node23&#45;&gt;Node24 -->
<g id="edge30" class="edge">
<title>Node23&#45;&gt;Node24</title>
<path fill="none" stroke="midnightblue" d="M779.5,-191.32C779.5,-180.5 779.5,-167.4 779.5,-159.01"/>
<polygon fill="midnightblue" stroke="midnightblue" points="776,-191.48 779.5,-201.48 783,-191.48 776,-191.48"/>
</g>
<!-- Node24&#45;&gt;Node8 -->
<g id="edge33" class="edge">
<title>Node24&#45;&gt;Node8</title>
<path fill="none" stroke="midnightblue" d="M739.56,-144.11C634.5,-132.58 350.65,-101.41 236.26,-88.85"/>
<polygon fill="midnightblue" stroke="midnightblue" points="739.41,-147.62 749.74,-145.23 740.18,-140.66 739.41,-147.62"/>
</g>
<!-- Node24&#45;&gt;Node10 -->
<g id="edge37" class="edge">
<title>Node24&#45;&gt;Node10</title>
<path fill="none" stroke="midnightblue" d="M756.79,-134.44C736,-121.57 705.88,-102.93 688.44,-92.13"/>
<polygon fill="midnightblue" stroke="midnightblue" points="754.99,-137.45 765.34,-139.73 758.68,-131.49 754.99,-137.45"/>
</g>
<!-- Node24&#45;&gt;Node12 -->
<g id="edge38" class="edge">
<title>Node24&#45;&gt;Node12</title>
<path fill="none" stroke="midnightblue" d="M739.43,-144.31C673.96,-137.12 540.18,-120.94 428.5,-98 420.42,-96.34 411.75,-94.18 403.78,-92.04"/>
<polygon fill="midnightblue" stroke="midnightblue" points="739.39,-147.83 749.71,-145.43 740.15,-140.87 739.39,-147.83"/>
</g>
<!-- Node24&#45;&gt;Node13 -->
<g id="edge39" class="edge">
<title>Node24&#45;&gt;Node13</title>
<path fill="none" stroke="midnightblue" d="M819.38,-143.34C879.38,-135.29 996.31,-118.54 1094.5,-98 1102.76,-96.27 1111.63,-94.12 1119.81,-92"/>
<polygon fill="midnightblue" stroke="midnightblue" points="818.65,-139.9 809.2,-144.69 819.58,-146.84 818.65,-139.9"/>
</g>
<!-- Node24&#45;&gt;Node15 -->
<g id="edge41" class="edge">
<title>Node24&#45;&gt;Node15</title>
<path fill="none" stroke="midnightblue" d="M740.16,-139.23C686.64,-126.63 591.65,-104.26 539.78,-92.04"/>
<polygon fill="midnightblue" stroke="midnightblue" points="739.43,-142.66 749.96,-141.54 741.03,-135.84 739.43,-142.66"/>
</g>
<!-- Node24&#45;&gt;Node16 -->
<g id="edge32" class="edge">
<title>Node24&#45;&gt;Node16</title>
<path fill="none" stroke="midnightblue" d="M739.81,-140.36C706.2,-132.47 657.43,-118.65 618.5,-98 598.94,-87.62 597.4,-80.03 579.5,-67 561.82,-54.14 541.12,-40.47 525.79,-30.6"/>
<polygon fill="midnightblue" stroke="midnightblue" points="739.2,-143.81 749.72,-142.61 740.75,-136.98 739.2,-143.81"/>
</g>
<!-- Node24&#45;&gt;Node21 -->
<g id="edge35" class="edge">
<title>Node24&#45;&gt;Node21</title>
<path fill="none" stroke="midnightblue" d="M819.27,-145.05C895.09,-138.19 1065.43,-121.48 1207.5,-98 1210.24,-97.55 1213.04,-97.06 1215.86,-96.55"/>
<polygon fill="midnightblue" stroke="midnightblue" points="818.86,-141.57 809.21,-145.95 819.48,-148.54 818.86,-141.57"/>
</g>
<!-- Node24&#45;&gt;Node22 -->
<g id="edge36" class="edge">
<title>Node24&#45;&gt;Node22</title>
<path fill="none" stroke="midnightblue" d="M819.12,-146.78C911.6,-142.38 1148.72,-128.79 1344.5,-98 1347.43,-97.54 1350.42,-97.02 1353.43,-96.47"/>
<polygon fill="midnightblue" stroke="midnightblue" points="818.91,-143.29 809.08,-147.25 819.23,-150.28 818.91,-143.29"/>
</g>
<!-- Node25 -->
<g id="node25" class="node">
<title>Node25</title>
<g id="a_node25"><a xlink:href="vcpu_source.html" target="_top" xlink:title=" ">
<polygon fill="white" stroke="black" points="740.5,-73 740.5,-92 818.5,-92 818.5,-73 740.5,-73"/>
<text text-anchor="middle" x="779.5" y="-80" font-family="Helvetica,sans-Serif" font-size="10.00">l4/vcpu/vcpu</text>
</a>
</g>
</g>
<!-- Node24&#45;&gt;Node25 -->
<g id="edge31" class="edge">
<title>Node24&#45;&gt;Node25</title>
<path fill="none" stroke="midnightblue" d="M779.5,-129.54C779.5,-117.17 779.5,-101.62 779.5,-92.13"/>
<polygon fill="midnightblue" stroke="midnightblue" points="776,-129.73 779.5,-139.73 783,-129.73 776,-129.73"/>
</g>
<!-- Node26 -->
<g id="node26" class="node">
<title>Node26</title>
<g id="a_node26"><a xlink:href="ro__file__impl_8h_source.html" target="_top" xlink:title=" ">
<polygon fill="white" stroke="black" points="837,-67.5 837,-97.5 942,-97.5 942,-67.5 837,-67.5"/>
<text text-anchor="start" x="845" y="-85.5" font-family="Helvetica,sans-Serif" font-size="10.00">l4/l4re_vfs/impl/ro</text>
<text text-anchor="middle" x="889.5" y="-74.5" font-family="Helvetica,sans-Serif" font-size="10.00">_file_impl.h</text>
</a>
</g>
</g>
<!-- Node24&#45;&gt;Node26 -->
<g id="edge34" class="edge">
<title>Node24&#45;&gt;Node26</title>
<path fill="none" stroke="midnightblue" d="M803.02,-134.6C821.49,-123.69 847.1,-108.55 865.66,-97.59"/>
<polygon fill="midnightblue" stroke="midnightblue" points="801.16,-131.63 794.34,-139.73 804.72,-137.66 801.16,-131.63"/>
</g>
<!-- Node27 -->
<g id="node27" class="node">
<title>Node27</title>
<g id="a_node27"><a xlink:href="kumem__alloc.html" target="_top" xlink:title="Kumem allocator helper.">
<polygon fill="white" stroke="black" points="960,-73 960,-92 1085,-92 1085,-73 960,-73"/>
<text text-anchor="middle" x="1022.5" y="-80" font-family="Helvetica,sans-Serif" font-size="10.00">l4/re/util/kumem_alloc</text>
</a>
</g>
</g>
<!-- Node24&#45;&gt;Node27 -->
<g id="edge40" class="edge">
<title>Node24&#45;&gt;Node27</title>
<path fill="none" stroke="midnightblue" d="M818.99,-137.94C866.8,-125.15 946.38,-103.86 990.53,-92.05"/>
<polygon fill="midnightblue" stroke="midnightblue" points="818.05,-134.56 809.3,-140.53 819.86,-141.33 818.05,-134.56"/>
</g>
</g>
</svg>
