<?xml version="1.0" encoding="UTF-8" standalone="no"?>
<!DOCTYPE svg PUBLIC "-//W3C//DTD SVG 1.1//EN"
 "http://www.w3.org/Graphics/SVG/1.1/DTD/svg11.dtd">
<!-- Generated by graphviz version 2.43.0 (0)
 -->
<!-- Title: l4/sys/vcon Pages: 1 -->
<svg width="1262pt" height="285pt"
 viewBox="0.00 0.00 1261.50 285.00" xmlns="http://www.w3.org/2000/svg" xmlns:xlink="http://www.w3.org/1999/xlink">
<g id="graph0" class="graph" transform="scale(1 1) rotate(0) translate(4 281)">
<title>l4/sys/vcon</title>
<polygon fill="white" stroke="transparent" points="-4,4 -4,-281 1257.5,-281 1257.5,4 -4,4"/>
<!-- Node1 -->
<g id="node1" class="node">
<title>Node1</title>
<g id="a_node1"><a xlink:title="Virtual console interface.">
<polygon fill="#bfbfbf" stroke="black" points="436.5,-257.5 436.5,-276.5 507.5,-276.5 507.5,-257.5 436.5,-257.5"/>
<text text-anchor="middle" x="472" y="-264.5" font-family="Helvetica,sans-Serif" font-size="10.00">l4/sys/vcon</text>
</a>
</g>
</g>
<!-- Node2 -->
<g id="node2" class="node">
<title>Node2</title>
<g id="a_node2"><a xlink:href="vcon__stream_8h_source.html" target="_top" xlink:title=" ">
<polygon fill="white" stroke="black" points="128.5,-134.5 128.5,-164.5 247.5,-164.5 247.5,-134.5 128.5,-134.5"/>
<text text-anchor="start" x="136.5" y="-152.5" font-family="Helvetica,sans-Serif" font-size="10.00">l4/l4re_vfs/impl/vcon</text>
<text text-anchor="middle" x="188" y="-141.5" font-family="Helvetica,sans-Serif" font-size="10.00">_stream.h</text>
</a>
</g>
</g>
<!-- Node1&#45;&gt;Node2 -->
<g id="edge1" class="edge">
<title>Node1&#45;&gt;Node2</title>
<path fill="none" stroke="midnightblue" d="M441.38,-253.55C388.05,-231.86 278.49,-187.3 222.54,-164.55"/>
<polygon fill="midnightblue" stroke="midnightblue" points="440.07,-256.79 450.65,-257.32 442.71,-250.31 440.07,-256.79"/>
</g>
<!-- Node5 -->
<g id="node5" class="node">
<title>Node5</title>
<g id="a_node5"><a xlink:href="log.html" target="_top" xlink:title="Log interface.">
<polygon fill="white" stroke="black" points="444,-201.5 444,-220.5 500,-220.5 500,-201.5 444,-201.5"/>
<text text-anchor="middle" x="472" y="-208.5" font-family="Helvetica,sans-Serif" font-size="10.00">l4/re/log</text>
</a>
</g>
</g>
<!-- Node1&#45;&gt;Node5 -->
<g id="edge4" class="edge">
<title>Node1&#45;&gt;Node5</title>
<path fill="none" stroke="midnightblue" d="M472,-246.8C472,-237.91 472,-227.78 472,-220.75"/>
<polygon fill="midnightblue" stroke="midnightblue" points="468.5,-247.08 472,-257.08 475.5,-247.08 468.5,-247.08"/>
</g>
<!-- Node19 -->
<g id="node19" class="node">
<title>Node19</title>
<g id="a_node19"><a xlink:href="vcon__svr_source.html" target="_top" xlink:title=" ">
<polygon fill="white" stroke="black" points="518,-201.5 518,-220.5 622,-220.5 622,-201.5 518,-201.5"/>
<text text-anchor="middle" x="570" y="-208.5" font-family="Helvetica,sans-Serif" font-size="10.00">l4/re/util/vcon_svr</text>
</a>
</g>
</g>
<!-- Node1&#45;&gt;Node19 -->
<g id="edge21" class="edge">
<title>Node1&#45;&gt;Node19</title>
<path fill="none" stroke="midnightblue" d="M496.59,-252.45C514.68,-242.48 538.73,-229.23 554.29,-220.65"/>
<polygon fill="midnightblue" stroke="midnightblue" points="494.81,-249.43 487.75,-257.32 498.19,-255.56 494.81,-249.43"/>
</g>
<!-- Node3 -->
<g id="node3" class="node">
<title>Node3</title>
<g id="a_node3"><a xlink:href="vcon__stream__impl_8h_source.html" target="_top" xlink:title=" ">
<polygon fill="white" stroke="black" points="128.5,-67.5 128.5,-97.5 247.5,-97.5 247.5,-67.5 128.5,-67.5"/>
<text text-anchor="start" x="136.5" y="-85.5" font-family="Helvetica,sans-Serif" font-size="10.00">l4/l4re_vfs/impl/vcon</text>
<text text-anchor="middle" x="188" y="-74.5" font-family="Helvetica,sans-Serif" font-size="10.00">_stream_impl.h</text>
</a>
</g>
</g>
<!-- Node2&#45;&gt;Node3 -->
<g id="edge2" class="edge">
<title>Node2&#45;&gt;Node3</title>
<path fill="none" stroke="midnightblue" d="M188,-124.11C188,-115.15 188,-105.32 188,-97.58"/>
<polygon fill="midnightblue" stroke="midnightblue" points="184.5,-124.4 188,-134.4 191.5,-124.4 184.5,-124.4"/>
</g>
<!-- Node4 -->
<g id="node4" class="node">
<title>Node4</title>
<g id="a_node4"><a xlink:href="vfs__impl_8h_source.html" target="_top" xlink:title=" ">
<polygon fill="white" stroke="black" points="0,-67.5 0,-97.5 110,-97.5 110,-67.5 0,-67.5"/>
<text text-anchor="start" x="8" y="-85.5" font-family="Helvetica,sans-Serif" font-size="10.00">l4/l4re_vfs/impl/vfs</text>
<text text-anchor="middle" x="55" y="-74.5" font-family="Helvetica,sans-Serif" font-size="10.00">_impl.h</text>
</a>
</g>
</g>
<!-- Node2&#45;&gt;Node4 -->
<g id="edge3" class="edge">
<title>Node2&#45;&gt;Node4</title>
<path fill="none" stroke="midnightblue" d="M150.13,-129.99C129.05,-119.69 103.22,-107.07 83.8,-97.58"/>
<polygon fill="midnightblue" stroke="midnightblue" points="148.62,-133.15 159.14,-134.4 151.69,-126.86 148.62,-133.15"/>
</g>
<!-- Node6 -->
<g id="node6" class="node">
<title>Node6</title>
<g id="a_node6"><a xlink:href="env.html" target="_top" xlink:title="Environment interface.">
<polygon fill="white" stroke="black" points="578.5,-140 578.5,-159 637.5,-159 637.5,-140 578.5,-140"/>
<text text-anchor="middle" x="608" y="-147" font-family="Helvetica,sans-Serif" font-size="10.00">l4/re/env</text>
</a>
</g>
</g>
<!-- Node5&#45;&gt;Node6 -->
<g id="edge5" class="edge">
<title>Node5&#45;&gt;Node6</title>
<path fill="none" stroke="midnightblue" d="M500.97,-197.33C527.37,-185.78 565.64,-169.03 588.55,-159.01"/>
<polygon fill="midnightblue" stroke="midnightblue" points="499.24,-194.26 491.49,-201.48 502.05,-200.67 499.24,-194.26"/>
</g>
<!-- Node6&#45;&gt;Node3 -->
<g id="edge11" class="edge">
<title>Node6&#45;&gt;Node3</title>
<path fill="none" stroke="midnightblue" d="M568.06,-143.6C502.79,-135.41 369.27,-117.85 257,-98 253.99,-97.47 250.9,-96.9 247.79,-96.31"/>
<polygon fill="midnightblue" stroke="midnightblue" points="567.96,-147.12 578.31,-144.88 568.82,-140.17 567.96,-147.12"/>
</g>
<!-- Node6&#45;&gt;Node4 -->
<g id="edge12" class="edge">
<title>Node6&#45;&gt;Node4</title>
<path fill="none" stroke="midnightblue" d="M568.27,-146.02C484.71,-140.44 284.77,-125.24 119,-98 116.08,-97.52 113.09,-96.99 110.08,-96.42"/>
<polygon fill="midnightblue" stroke="midnightblue" points="568.14,-149.52 578.35,-146.68 568.6,-142.53 568.14,-149.52"/>
</g>
<!-- Node7 -->
<g id="node7" class="node">
<title>Node7</title>
<g id="a_node7"><a xlink:href="vcpu_source.html" target="_top" xlink:title=" ">
<polygon fill="white" stroke="black" points="629,-73 629,-92 707,-92 707,-73 629,-73"/>
<text text-anchor="middle" x="668" y="-80" font-family="Helvetica,sans-Serif" font-size="10.00">l4/vcpu/vcpu</text>
</a>
</g>
</g>
<!-- Node6&#45;&gt;Node7 -->
<g id="edge6" class="edge">
<title>Node6&#45;&gt;Node7</title>
<path fill="none" stroke="midnightblue" d="M623.11,-132.13C634.84,-119.42 650.65,-102.3 660.04,-92.13"/>
<polygon fill="midnightblue" stroke="midnightblue" points="620.3,-130.01 616.09,-139.73 625.45,-134.76 620.3,-130.01"/>
</g>
<!-- Node8 -->
<g id="node8" class="node">
<title>Node8</title>
<g id="a_node8"><a xlink:href="client_2virtio-block_source.html" target="_top" xlink:title=" ">
<polygon fill="white" stroke="black" points="735.5,-0.5 735.5,-30.5 828.5,-30.5 828.5,-0.5 735.5,-0.5"/>
<text text-anchor="start" x="743.5" y="-18.5" font-family="Helvetica,sans-Serif" font-size="10.00">l4/l4virtio/client</text>
<text text-anchor="middle" x="782" y="-7.5" font-family="Helvetica,sans-Serif" font-size="10.00">/virtio&#45;block</text>
</a>
</g>
</g>
<!-- Node6&#45;&gt;Node8 -->
<g id="edge7" class="edge">
<title>Node6&#45;&gt;Node8</title>
<path fill="none" stroke="midnightblue" d="M644.12,-136.36C666.26,-127.81 694.41,-114.88 716,-98 740.81,-78.59 762.23,-48.2 773.51,-30.53"/>
<polygon fill="midnightblue" stroke="midnightblue" points="642.87,-133.09 634.72,-139.87 645.31,-139.65 642.87,-133.09"/>
</g>
<!-- Node9 -->
<g id="node9" class="node">
<title>Node9</title>
<g id="a_node9"><a xlink:href="server_2l4virtio_source.html" target="_top" xlink:title=" ">
<polygon fill="white" stroke="black" points="914.5,-67.5 914.5,-97.5 1011.5,-97.5 1011.5,-67.5 914.5,-67.5"/>
<text text-anchor="start" x="922.5" y="-85.5" font-family="Helvetica,sans-Serif" font-size="10.00">l4/l4virtio/server</text>
<text text-anchor="middle" x="963" y="-74.5" font-family="Helvetica,sans-Serif" font-size="10.00">/l4virtio</text>
</a>
</g>
</g>
<!-- Node6&#45;&gt;Node9 -->
<g id="edge8" class="edge">
<title>Node6&#45;&gt;Node9</title>
<path fill="none" stroke="midnightblue" d="M647.85,-142.8C705.19,-134.36 814.17,-117.43 906,-98 908.7,-97.43 911.46,-96.82 914.24,-96.18"/>
<polygon fill="midnightblue" stroke="midnightblue" points="647.15,-139.37 637.76,-144.28 648.16,-146.29 647.15,-139.37"/>
</g>
<!-- Node11 -->
<g id="node11" class="node">
<title>Node11</title>
<g id="a_node11"><a xlink:href="ro__file__impl_8h_source.html" target="_top" xlink:title=" ">
<polygon fill="white" stroke="black" points="1029.5,-67.5 1029.5,-97.5 1134.5,-97.5 1134.5,-67.5 1029.5,-67.5"/>
<text text-anchor="start" x="1037.5" y="-85.5" font-family="Helvetica,sans-Serif" font-size="10.00">l4/l4re_vfs/impl/ro</text>
<text text-anchor="middle" x="1082" y="-74.5" font-family="Helvetica,sans-Serif" font-size="10.00">_file_impl.h</text>
</a>
</g>
</g>
<!-- Node6&#45;&gt;Node11 -->
<g id="edge10" class="edge">
<title>Node6&#45;&gt;Node11</title>
<path fill="none" stroke="midnightblue" d="M647.97,-145.11C721.97,-138.5 885.13,-122.38 1021,-98 1023.68,-97.52 1026.42,-96.99 1029.17,-96.44"/>
<polygon fill="midnightblue" stroke="midnightblue" points="647.37,-141.65 637.72,-146.01 647.99,-148.62 647.37,-141.65"/>
</g>
<!-- Node12 -->
<g id="node12" class="node">
<title>Node12</title>
<g id="a_node12"><a xlink:href="env__ns_source.html" target="_top" xlink:title=" ">
<polygon fill="white" stroke="black" points="1152.5,-73 1152.5,-92 1247.5,-92 1247.5,-73 1152.5,-73"/>
<text text-anchor="middle" x="1200" y="-80" font-family="Helvetica,sans-Serif" font-size="10.00">l4/re/util/env_ns</text>
</a>
</g>
</g>
<!-- Node6&#45;&gt;Node12 -->
<g id="edge13" class="edge">
<title>Node6&#45;&gt;Node12</title>
<path fill="none" stroke="midnightblue" d="M647.78,-146.92C737.11,-142.91 960.21,-130.24 1144,-98 1152.7,-96.47 1162.04,-94.28 1170.55,-92.06"/>
<polygon fill="midnightblue" stroke="midnightblue" points="647.4,-143.44 637.56,-147.37 647.71,-150.43 647.4,-143.44"/>
</g>
<!-- Node14 -->
<g id="node14" class="node">
<title>Node14</title>
<g id="a_node14"><a xlink:href="util_2event.html" target="_top" xlink:title=" ">
<polygon fill="white" stroke="black" points="266,-73 266,-92 354,-92 354,-73 266,-73"/>
<text text-anchor="middle" x="310" y="-80" font-family="Helvetica,sans-Serif" font-size="10.00">l4/re/util/event</text>
</a>
</g>
</g>
<!-- Node6&#45;&gt;Node14 -->
<g id="edge15" class="edge">
<title>Node6&#45;&gt;Node14</title>
<path fill="none" stroke="midnightblue" d="M568.36,-141.14C519.77,-131.92 435,-115.25 363,-98 355.49,-96.2 347.42,-94.09 339.91,-92.04"/>
<polygon fill="midnightblue" stroke="midnightblue" points="567.97,-144.62 578.45,-143.04 569.27,-137.75 567.97,-144.62"/>
</g>
<!-- Node15 -->
<g id="node15" class="node">
<title>Node15</title>
<g id="a_node15"><a xlink:href="icu__svr_source.html" target="_top" xlink:title=" ">
<polygon fill="white" stroke="black" points="372.5,-73 372.5,-92 467.5,-92 467.5,-73 372.5,-73"/>
<text text-anchor="middle" x="420" y="-80" font-family="Helvetica,sans-Serif" font-size="10.00">l4/re/util/icu_svr</text>
</a>
</g>
</g>
<!-- Node6&#45;&gt;Node15 -->
<g id="edge16" class="edge">
<title>Node6&#45;&gt;Node15</title>
<path fill="none" stroke="midnightblue" d="M573.11,-136.44C535.81,-123.54 477.63,-103.42 444.77,-92.06"/>
<polygon fill="midnightblue" stroke="midnightblue" points="572.44,-139.91 583.04,-139.87 574.73,-133.29 572.44,-139.91"/>
</g>
<!-- Node17 -->
<g id="node17" class="node">
<title>Node17</title>
<g id="a_node17"><a xlink:href="kumem__alloc.html" target="_top" xlink:title="Kumem allocator helper.">
<polygon fill="white" stroke="black" points="485.5,-73 485.5,-92 610.5,-92 610.5,-73 485.5,-73"/>
<text text-anchor="middle" x="548" y="-80" font-family="Helvetica,sans-Serif" font-size="10.00">l4/re/util/kumem_alloc</text>
</a>
</g>
</g>
<!-- Node6&#45;&gt;Node17 -->
<g id="edge18" class="edge">
<title>Node6&#45;&gt;Node17</title>
<path fill="none" stroke="midnightblue" d="M592.89,-132.13C581.16,-119.42 565.35,-102.3 555.96,-92.13"/>
<polygon fill="midnightblue" stroke="midnightblue" points="590.55,-134.76 599.91,-139.73 595.7,-130.01 590.55,-134.76"/>
</g>
<!-- Node18 -->
<g id="node18" class="node">
<title>Node18</title>
<g id="a_node18"><a xlink:href="object__registry_source.html" target="_top" xlink:title=" ">
<polygon fill="white" stroke="black" points="763.5,-73 763.5,-92 896.5,-92 896.5,-73 763.5,-73"/>
<text text-anchor="middle" x="830" y="-80" font-family="Helvetica,sans-Serif" font-size="10.00">l4/re/util/object_registry</text>
</a>
</g>
</g>
<!-- Node6&#45;&gt;Node18 -->
<g id="edge19" class="edge">
<title>Node6&#45;&gt;Node18</title>
<path fill="none" stroke="midnightblue" d="M647.24,-137.01C691.18,-124.15 761.37,-103.59 800.75,-92.06"/>
<polygon fill="midnightblue" stroke="midnightblue" points="646.09,-133.7 637.48,-139.87 648.06,-140.42 646.09,-133.7"/>
</g>
<!-- Node10 -->
<g id="node10" class="node">
<title>Node10</title>
<g id="a_node10"><a xlink:href="server_2virtio-block_source.html" target="_top" xlink:title=" ">
<polygon fill="white" stroke="black" points="914.5,-0.5 914.5,-30.5 1011.5,-30.5 1011.5,-0.5 914.5,-0.5"/>
<text text-anchor="start" x="922.5" y="-18.5" font-family="Helvetica,sans-Serif" font-size="10.00">l4/l4virtio/server</text>
<text text-anchor="middle" x="963" y="-7.5" font-family="Helvetica,sans-Serif" font-size="10.00">/virtio&#45;block</text>
</a>
</g>
</g>
<!-- Node9&#45;&gt;Node10 -->
<g id="edge9" class="edge">
<title>Node9&#45;&gt;Node10</title>
<path fill="none" stroke="midnightblue" d="M963,-57.11C963,-48.15 963,-38.32 963,-30.58"/>
<polygon fill="midnightblue" stroke="midnightblue" points="959.5,-57.4 963,-67.4 966.5,-57.4 959.5,-57.4"/>
</g>
<!-- Node13 -->
<g id="node13" class="node">
<title>Node13</title>
<g id="a_node13"><a xlink:href="ns__fs__impl_8h_source.html" target="_top" xlink:title=" ">
<polygon fill="white" stroke="black" points="1146.5,-0.5 1146.5,-30.5 1253.5,-30.5 1253.5,-0.5 1146.5,-0.5"/>
<text text-anchor="start" x="1154.5" y="-18.5" font-family="Helvetica,sans-Serif" font-size="10.00">l4/l4re_vfs/impl/ns</text>
<text text-anchor="middle" x="1200" y="-7.5" font-family="Helvetica,sans-Serif" font-size="10.00">_fs_impl.h</text>
</a>
</g>
</g>
<!-- Node12&#45;&gt;Node13 -->
<g id="edge14" class="edge">
<title>Node12&#45;&gt;Node13</title>
<path fill="none" stroke="midnightblue" d="M1200,-62.41C1200,-52.22 1200,-39.9 1200,-30.59"/>
<polygon fill="midnightblue" stroke="midnightblue" points="1196.5,-62.73 1200,-72.73 1203.5,-62.73 1196.5,-62.73"/>
</g>
<!-- Node16 -->
<g id="node16" class="node">
<title>Node16</title>
<g id="a_node16"><a xlink:href="event__svr_source.html" target="_top" xlink:title=" ">
<polygon fill="white" stroke="black" points="366,-6 366,-25 474,-25 474,-6 366,-6"/>
<text text-anchor="middle" x="420" y="-13" font-family="Helvetica,sans-Serif" font-size="10.00">l4/re/util/event_svr</text>
</a>
</g>
</g>
<!-- Node15&#45;&gt;Node16 -->
<g id="edge17" class="edge">
<title>Node15&#45;&gt;Node16</title>
<path fill="none" stroke="midnightblue" d="M420,-62.54C420,-50.17 420,-34.62 420,-25.13"/>
<polygon fill="midnightblue" stroke="midnightblue" points="416.5,-62.73 420,-72.73 423.5,-62.73 416.5,-62.73"/>
</g>
<!-- Node18&#45;&gt;Node8 -->
<g id="edge20" class="edge">
<title>Node18&#45;&gt;Node8</title>
<path fill="none" stroke="midnightblue" d="M817.57,-64.67C809.76,-54.09 799.8,-40.6 792.4,-30.59"/>
<polygon fill="midnightblue" stroke="midnightblue" points="814.77,-66.77 823.53,-72.73 820.4,-62.61 814.77,-66.77"/>
</g>
</g>
</svg>
