<?xml version="1.0" encoding="UTF-8" standalone="no"?>
<!DOCTYPE svg PUBLIC "-//W3C//DTD SVG 1.1//EN"
 "http://www.w3.org/Graphics/SVG/1.1/DTD/svg11.dtd">
<!-- Generated by graphviz version 2.43.0 (0)
 -->
<!-- Title: l4/sys/vcon Pages: 1 -->
<svg width="1033pt" height="935pt"
 viewBox="0.00 0.00 1033.00 935.00" xmlns="http://www.w3.org/2000/svg" xmlns:xlink="http://www.w3.org/1999/xlink">
<g id="graph0" class="graph" transform="scale(1 1) rotate(0) translate(4 931)">
<title>l4/sys/vcon</title>
<polygon fill="white" stroke="transparent" points="-4,4 -4,-931 1029,-931 1029,4 -4,4"/>
<!-- Node1 -->
<g id="node1" class="node">
<title>Node1</title>
<g id="a_node1"><a xlink:title="Virtual console interface.">
<polygon fill="#bfbfbf" stroke="black" points="524.5,-907.5 524.5,-926.5 595.5,-926.5 595.5,-907.5 524.5,-907.5"/>
<text text-anchor="middle" x="560" y="-914.5" font-family="Helvetica,sans-Serif" font-size="10.00">l4/sys/vcon</text>
</a>
</g>
</g>
<!-- Node2 -->
<g id="node2" class="node">
<title>Node2</title>
<g id="a_node2"><a xlink:href="icu.html" target="_top" xlink:title="Interrupt controller.">
<polygon fill="white" stroke="black" points="529,-851.5 529,-870.5 591,-870.5 591,-851.5 529,-851.5"/>
<text text-anchor="middle" x="560" y="-858.5" font-family="Helvetica,sans-Serif" font-size="10.00">l4/sys/icu</text>
</a>
</g>
</g>
<!-- Node1&#45;&gt;Node2 -->
<g id="edge1" class="edge">
<title>Node1&#45;&gt;Node2</title>
<path fill="none" stroke="midnightblue" d="M560,-907.08C560,-900.01 560,-889.86 560,-880.99"/>
<polygon fill="midnightblue" stroke="midnightblue" points="563.5,-880.75 560,-870.75 556.5,-880.75 563.5,-880.75"/>
</g>
<!-- Node19 -->
<g id="node19" class="node">
<title>Node19</title>
<g id="a_node19"><a xlink:href="capability.html" target="_top" xlink:title="L4::Cap related definitions.">
<polygon fill="white" stroke="black" points="354,-683.5 354,-702.5 450,-702.5 450,-683.5 354,-683.5"/>
<text text-anchor="middle" x="402" y="-690.5" font-family="Helvetica,sans-Serif" font-size="10.00">l4/sys/capability</text>
</a>
</g>
</g>
<!-- Node1&#45;&gt;Node19 -->
<g id="edge81" class="edge">
<title>Node1&#45;&gt;Node19</title>
<path fill="none" stroke="midnightblue" d="M538.48,-907.48C494.11,-888.56 393.31,-838.38 354,-759 344.67,-740.16 362.72,-721.1 379.28,-708.54"/>
<polygon fill="midnightblue" stroke="midnightblue" points="381.53,-711.23 387.66,-702.59 377.48,-705.53 381.53,-711.23"/>
</g>
<!-- Node32 -->
<g id="node32" class="node">
<title>Node32</title>
<g id="a_node32"><a xlink:href="vcon_8h.html" target="_top" xlink:title="Virtual console interface.">
<polygon fill="white" stroke="black" points="806,-795.5 806,-814.5 886,-814.5 886,-795.5 806,-795.5"/>
<text text-anchor="middle" x="846" y="-802.5" font-family="Helvetica,sans-Serif" font-size="10.00">l4/sys/vcon.h</text>
</a>
</g>
</g>
<!-- Node1&#45;&gt;Node32 -->
<g id="edge79" class="edge">
<title>Node1&#45;&gt;Node32</title>
<path fill="none" stroke="midnightblue" d="M582.44,-907.37C632.98,-887.93 755.85,-840.67 814.21,-818.23"/>
<polygon fill="midnightblue" stroke="midnightblue" points="815.59,-821.45 823.66,-814.59 813.07,-814.91 815.59,-821.45"/>
</g>
<!-- Node3 -->
<g id="node3" class="node">
<title>Node3</title>
<g id="a_node3"><a xlink:href="irq.html" target="_top" xlink:title="C++ Irq interface.">
<polygon fill="white" stroke="black" points="529.5,-795.5 529.5,-814.5 590.5,-814.5 590.5,-795.5 529.5,-795.5"/>
<text text-anchor="middle" x="560" y="-802.5" font-family="Helvetica,sans-Serif" font-size="10.00">l4/sys/irq</text>
</a>
</g>
</g>
<!-- Node2&#45;&gt;Node3 -->
<g id="edge2" class="edge">
<title>Node2&#45;&gt;Node3</title>
<path fill="none" stroke="midnightblue" d="M560,-851.08C560,-844.01 560,-833.86 560,-824.99"/>
<polygon fill="midnightblue" stroke="midnightblue" points="563.5,-824.75 560,-814.75 556.5,-824.75 563.5,-824.75"/>
</g>
<!-- Node4 -->
<g id="node4" class="node">
<title>Node4</title>
<g id="a_node4"><a xlink:href="icu_8h.html" target="_top" xlink:title="Interrupt controller.">
<polygon fill="white" stroke="black" points="771.5,-459.5 771.5,-478.5 842.5,-478.5 842.5,-459.5 771.5,-459.5"/>
<text text-anchor="middle" x="807" y="-466.5" font-family="Helvetica,sans-Serif" font-size="10.00">l4/sys/icu.h</text>
</a>
</g>
</g>
<!-- Node3&#45;&gt;Node4 -->
<g id="edge3" class="edge">
<title>Node3&#45;&gt;Node4</title>
<path fill="none" stroke="midnightblue" d="M590.68,-801.3C647.19,-794.45 762,-771.07 762,-694 762,-694 762,-694 762,-580 762,-544.93 781.84,-507.94 795.17,-487.04"/>
<polygon fill="midnightblue" stroke="midnightblue" points="798.13,-488.9 800.74,-478.63 792.3,-485.03 798.13,-488.9"/>
</g>
<!-- Node17 -->
<g id="node17" class="node">
<title>Node17</title>
<g id="a_node17"><a xlink:href="l4_2sys_2irq_8h.html" target="_top" xlink:title="C Irq interface.">
<polygon fill="white" stroke="black" points="645,-459.5 645,-478.5 715,-478.5 715,-459.5 645,-459.5"/>
<text text-anchor="middle" x="680" y="-466.5" font-family="Helvetica,sans-Serif" font-size="10.00">l4/sys/irq.h</text>
</a>
</g>
</g>
<!-- Node3&#45;&gt;Node17 -->
<g id="edge29" class="edge">
<title>Node3&#45;&gt;Node17</title>
<path fill="none" stroke="midnightblue" d="M578.64,-795.44C609.29,-779.93 667,-744.09 667,-694 667,-694 667,-694 667,-580 667,-547.58 672.64,-510.15 676.49,-488.37"/>
<polygon fill="midnightblue" stroke="midnightblue" points="679.93,-488.99 678.3,-478.52 673.05,-487.72 679.93,-488.99"/>
</g>
<!-- Node3&#45;&gt;Node19 -->
<g id="edge36" class="edge">
<title>Node3&#45;&gt;Node19</title>
<path fill="none" stroke="midnightblue" d="M550.99,-795.38C537.07,-782.31 509.2,-757.09 483,-739 465.62,-727.01 444.78,-715.48 428.58,-707.1"/>
<polygon fill="midnightblue" stroke="midnightblue" points="430.14,-703.97 419.65,-702.55 426.97,-710.21 430.14,-703.97"/>
</g>
<!-- Node27 -->
<g id="node27" class="node">
<title>Node27</title>
<g id="a_node27"><a xlink:href="ipc__iface.html" target="_top" xlink:title="Interface Definition Language.">
<polygon fill="white" stroke="black" points="293,-571.5 293,-590.5 373,-590.5 373,-571.5 293,-571.5"/>
<text text-anchor="middle" x="333" y="-578.5" font-family="Helvetica,sans-Serif" font-size="10.00">cxx/ipc_iface</text>
</a>
</g>
</g>
<!-- Node3&#45;&gt;Node27 -->
<g id="edge77" class="edge">
<title>Node3&#45;&gt;Node27</title>
<path fill="none" stroke="midnightblue" d="M554.93,-795.18C538.57,-767.34 484.45,-680.01 420,-627 403.49,-613.42 382.21,-602.32 364.83,-594.55"/>
<polygon fill="midnightblue" stroke="midnightblue" points="366.2,-591.33 355.64,-590.58 363.43,-597.75 366.2,-591.33"/>
</g>
<!-- Node28 -->
<g id="node28" class="node">
<title>Node28</title>
<g id="a_node28"><a xlink:href="ipc__types.html" target="_top" xlink:title=" ">
<polygon fill="white" stroke="black" points="389.5,-459.5 389.5,-478.5 504.5,-478.5 504.5,-459.5 389.5,-459.5"/>
<text text-anchor="middle" x="447" y="-466.5" font-family="Helvetica,sans-Serif" font-size="10.00">l4/sys/cxx/ipc_types</text>
</a>
</g>
</g>
<!-- Node3&#45;&gt;Node28 -->
<g id="edge78" class="edge">
<title>Node3&#45;&gt;Node28</title>
<path fill="none" stroke="midnightblue" d="M562.56,-795.25C567.75,-776.74 579,-732.18 579,-694 579,-694 579,-694 579,-580 579,-549.9 580.25,-537.26 560,-515 545.22,-498.76 523.81,-488.28 503.58,-481.58"/>
<polygon fill="midnightblue" stroke="midnightblue" points="504.37,-478.16 493.79,-478.58 502.32,-484.85 504.37,-478.16"/>
</g>
<!-- Node31 -->
<g id="node31" class="node">
<title>Node31</title>
<g id="a_node31"><a xlink:href="rcv__endpoint.html" target="_top" xlink:title="The C++ Receive endpoint interface.">
<polygon fill="white" stroke="black" points="363.5,-739.5 363.5,-758.5 474.5,-758.5 474.5,-739.5 363.5,-739.5"/>
<text text-anchor="middle" x="419" y="-746.5" font-family="Helvetica,sans-Serif" font-size="10.00">l4/sys/rcv_endpoint</text>
</a>
</g>
</g>
<!-- Node3&#45;&gt;Node31 -->
<g id="edge72" class="edge">
<title>Node3&#45;&gt;Node31</title>
<path fill="none" stroke="midnightblue" d="M537.66,-795.44C514.25,-786.48 477.26,-772.31 450.81,-762.18"/>
<polygon fill="midnightblue" stroke="midnightblue" points="451.83,-758.82 441.24,-758.52 449.32,-765.36 451.83,-758.82"/>
</g>
<!-- Node5 -->
<g id="node5" class="node">
<title>Node5</title>
<g id="a_node5"><a xlink:href="kernel__object_8h.html" target="_top" xlink:title="Kernel object system calls.">
<polygon fill="white" stroke="black" points="734,-403.5 734,-422.5 856,-422.5 856,-403.5 734,-403.5"/>
<text text-anchor="middle" x="795" y="-410.5" font-family="Helvetica,sans-Serif" font-size="10.00">l4/sys/kernel_object.h</text>
</a>
</g>
</g>
<!-- Node4&#45;&gt;Node5 -->
<g id="edge4" class="edge">
<title>Node4&#45;&gt;Node5</title>
<path fill="none" stroke="midnightblue" d="M805.02,-459.08C803.43,-451.93 801.14,-441.64 799.15,-432.69"/>
<polygon fill="midnightblue" stroke="midnightblue" points="802.53,-431.75 796.94,-422.75 795.7,-433.27 802.53,-431.75"/>
</g>
<!-- Node15 -->
<g id="node15" class="node">
<title>Node15</title>
<g id="a_node15"><a xlink:href="l4_2sys_2ipc_8h.html" target="_top" xlink:title="Common IPC interface.">
<polygon fill="white" stroke="black" points="688.5,-280.5 688.5,-299.5 759.5,-299.5 759.5,-280.5 688.5,-280.5"/>
<text text-anchor="middle" x="724" y="-287.5" font-family="Helvetica,sans-Serif" font-size="10.00">l4/sys/ipc.h</text>
</a>
</g>
</g>
<!-- Node4&#45;&gt;Node15 -->
<g id="edge28" class="edge">
<title>Node4&#45;&gt;Node15</title>
<path fill="none" stroke="midnightblue" d="M824.71,-459.41C838.23,-451.84 856.02,-439.44 865,-423 883.57,-389.01 893,-367.16 870,-336 847.16,-305.06 803.35,-294.73 769.66,-291.59"/>
<polygon fill="midnightblue" stroke="midnightblue" points="769.8,-288.09 759.56,-290.83 769.27,-295.07 769.8,-288.09"/>
</g>
<!-- Node6 -->
<g id="node6" class="node">
<title>Node6</title>
<g id="a_node6"><a xlink:href="l4_2sys_2types_8h.html" target="_top" xlink:title="Common L4 ABI Data Types.">
<polygon fill="white" stroke="black" points="353,-168.5 353,-187.5 437,-187.5 437,-168.5 353,-168.5"/>
<text text-anchor="middle" x="395" y="-175.5" font-family="Helvetica,sans-Serif" font-size="10.00">l4/sys/types.h</text>
</a>
</g>
</g>
<!-- Node5&#45;&gt;Node6 -->
<g id="edge5" class="edge">
<title>Node5&#45;&gt;Node6</title>
<path fill="none" stroke="midnightblue" d="M822.28,-403.45C839.29,-396.55 859.83,-384.97 870,-367 876.79,-355.01 876.01,-348.4 870,-336 834.93,-263.67 802,-255.38 728,-224 678.59,-203.05 528.2,-188.97 447.49,-182.71"/>
<polygon fill="midnightblue" stroke="midnightblue" points="447.3,-179.18 437.06,-181.91 446.77,-186.16 447.3,-179.18"/>
</g>
<!-- Node8 -->
<g id="node8" class="node">
<title>Node8</title>
<g id="a_node8"><a xlink:href="compiler_8h.html" target="_top" xlink:title="L4 compiler related defines.">
<polygon fill="white" stroke="black" points="500.5,-56.5 500.5,-75.5 599.5,-75.5 599.5,-56.5 500.5,-56.5"/>
<text text-anchor="middle" x="550" y="-63.5" font-family="Helvetica,sans-Serif" font-size="10.00">l4/sys/compiler.h</text>
</a>
</g>
</g>
<!-- Node5&#45;&gt;Node8 -->
<g id="edge16" class="edge">
<title>Node5&#45;&gt;Node8</title>
<path fill="none" stroke="midnightblue" d="M842.95,-403.47C899.82,-390.28 987,-358.97 987,-291 987,-291 987,-291 987,-177 987,-100.13 729.47,-76.45 609.81,-69.61"/>
<polygon fill="midnightblue" stroke="midnightblue" points="609.88,-66.1 599.7,-69.05 609.5,-73.09 609.88,-66.1"/>
</g>
<!-- Node13 -->
<g id="node13" class="node">
<title>Node13</title>
<g id="a_node13"><a xlink:href="l4_2sys_2utcb_8h.html" target="_top" xlink:title="UTCB definitions.">
<polygon fill="white" stroke="black" points="534,-224.5 534,-243.5 612,-243.5 612,-224.5 534,-224.5"/>
<text text-anchor="middle" x="573" y="-231.5" font-family="Helvetica,sans-Serif" font-size="10.00">l4/sys/utcb.h</text>
</a>
</g>
</g>
<!-- Node5&#45;&gt;Node13 -->
<g id="edge17" class="edge">
<title>Node5&#45;&gt;Node13</title>
<path fill="none" stroke="midnightblue" d="M776.04,-403.49C758.65,-395.28 732.56,-381.93 712,-367 661.95,-330.65 611.3,-277.49 587.31,-251.1"/>
<polygon fill="midnightblue" stroke="midnightblue" points="589.78,-248.62 580.49,-243.53 584.58,-253.3 589.78,-248.62"/>
</g>
<!-- Node14 -->
<g id="node14" class="node">
<title>Node14</title>
<g id="a_node14"><a xlink:href="____kernel__object__impl_8h.html" target="_top" xlink:title="Low&#45;level kernel debugger functions.">
<polygon fill="white" stroke="black" points="721,-336.5 721,-366.5 845,-366.5 845,-336.5 721,-336.5"/>
<text text-anchor="start" x="729" y="-354.5" font-family="Helvetica,sans-Serif" font-size="10.00">l4/sys/__kernel_object</text>
<text text-anchor="middle" x="783" y="-343.5" font-family="Helvetica,sans-Serif" font-size="10.00">_impl.h</text>
</a>
</g>
</g>
<!-- Node5&#45;&gt;Node14 -->
<g id="edge21" class="edge">
<title>Node5&#45;&gt;Node14</title>
<path fill="none" stroke="midnightblue" d="M793.28,-403.48C791.85,-396.4 789.75,-385.97 787.82,-376.39"/>
<polygon fill="midnightblue" stroke="midnightblue" points="791.24,-375.63 785.83,-366.52 784.37,-377.02 791.24,-375.63"/>
</g>
<!-- Node5&#45;&gt;Node15 -->
<g id="edge27" class="edge">
<title>Node5&#45;&gt;Node15</title>
<path fill="none" stroke="midnightblue" d="M813.98,-403.4C827.89,-395.95 845.71,-383.74 854,-367 860.11,-354.65 861.99,-347.22 854,-336 834.98,-309.29 798.96,-298.28 769.65,-293.82"/>
<polygon fill="midnightblue" stroke="midnightblue" points="769.98,-290.34 759.61,-292.5 769.07,-297.28 769.98,-290.34"/>
</g>
<!-- Node7 -->
<g id="node7" class="node">
<title>Node7</title>
<g id="a_node7"><a xlink:href="l4_2sys_2l4int_8h.html" target="_top" xlink:title="Fixed sized integer types, generic version.">
<polygon fill="white" stroke="black" points="246.5,-56.5 246.5,-75.5 325.5,-75.5 325.5,-56.5 246.5,-56.5"/>
<text text-anchor="middle" x="286" y="-63.5" font-family="Helvetica,sans-Serif" font-size="10.00">l4/sys/l4int.h</text>
</a>
</g>
</g>
<!-- Node6&#45;&gt;Node7 -->
<g id="edge6" class="edge">
<title>Node6&#45;&gt;Node7</title>
<path fill="none" stroke="midnightblue" d="M352.95,-174.84C322.78,-170.82 284.05,-160.09 264,-132 253.67,-117.52 262.87,-97.82 272.33,-83.92"/>
<polygon fill="midnightblue" stroke="midnightblue" points="275.26,-85.85 278.39,-75.73 269.63,-81.69 275.26,-85.85"/>
</g>
<!-- Node6&#45;&gt;Node8 -->
<g id="edge7" class="edge">
<title>Node6&#45;&gt;Node8</title>
<path fill="none" stroke="midnightblue" d="M396.93,-168.14C400.4,-154.28 408.96,-127.46 426,-112 444.1,-95.58 468.65,-85.03 491.14,-78.31"/>
<polygon fill="midnightblue" stroke="midnightblue" points="492.26,-81.63 500.96,-75.57 490.38,-74.88 492.26,-81.63"/>
</g>
<!-- Node10 -->
<g id="node10" class="node">
<title>Node10</title>
<g id="a_node10"><a xlink:href="l4_2sys_2consts_8h.html" target="_top" xlink:title="Common constants.">
<polygon fill="white" stroke="black" points="127.5,-112.5 127.5,-131.5 216.5,-131.5 216.5,-112.5 127.5,-112.5"/>
<text text-anchor="middle" x="172" y="-119.5" font-family="Helvetica,sans-Serif" font-size="10.00">l4/sys/consts.h</text>
</a>
</g>
</g>
<!-- Node6&#45;&gt;Node10 -->
<g id="edge9" class="edge">
<title>Node6&#45;&gt;Node10</title>
<path fill="none" stroke="midnightblue" d="M359.66,-168.44C321.09,-159.1 259.22,-144.12 217.15,-133.93"/>
<polygon fill="midnightblue" stroke="midnightblue" points="217.71,-130.47 207.17,-131.52 216.07,-137.27 217.71,-130.47"/>
</g>
<!-- Node11 -->
<g id="node11" class="node">
<title>Node11</title>
<g id="a_node11"><a xlink:href="____l4__fpage_8h_source.html" target="_top" xlink:title=" ">
<polygon fill="white" stroke="black" points="435,-112.5 435,-131.5 545,-131.5 545,-112.5 435,-112.5"/>
<text text-anchor="middle" x="490" y="-119.5" font-family="Helvetica,sans-Serif" font-size="10.00">l4/sys/__l4_fpage.h</text>
</a>
</g>
</g>
<!-- Node6&#45;&gt;Node11 -->
<g id="edge12" class="edge">
<title>Node6&#45;&gt;Node11</title>
<path fill="none" stroke="midnightblue" d="M410.26,-168.32C425.22,-159.82 448.25,-146.73 465.73,-136.8"/>
<polygon fill="midnightblue" stroke="midnightblue" points="467.81,-139.64 474.77,-131.65 464.35,-133.55 467.81,-139.64"/>
</g>
<!-- Node12 -->
<g id="node12" class="node">
<title>Node12</title>
<g id="a_node12"><a xlink:href="____timeout_8h_source.html" target="_top" xlink:title=" ">
<polygon fill="white" stroke="black" points="273,-112.5 273,-131.5 379,-131.5 379,-112.5 273,-112.5"/>
<text text-anchor="middle" x="326" y="-119.5" font-family="Helvetica,sans-Serif" font-size="10.00">l4/sys/__timeout.h</text>
</a>
</g>
</g>
<!-- Node6&#45;&gt;Node12 -->
<g id="edge14" class="edge">
<title>Node6&#45;&gt;Node12</title>
<path fill="none" stroke="midnightblue" d="M383.91,-168.32C373.51,-160.18 357.74,-147.84 345.28,-138.09"/>
<polygon fill="midnightblue" stroke="midnightblue" points="347.32,-135.24 337.29,-131.83 343.01,-140.75 347.32,-135.24"/>
</g>
<!-- Node9 -->
<g id="node9" class="node">
<title>Node9</title>
<g id="a_node9"><a xlink:title=" ">
<polygon fill="white" stroke="#bfbfbf" points="504,-0.5 504,-19.5 596,-19.5 596,-0.5 504,-0.5"/>
<text text-anchor="middle" x="550" y="-7.5" font-family="Helvetica,sans-Serif" font-size="10.00">l4/sys/linkage.h</text>
</a>
</g>
</g>
<!-- Node8&#45;&gt;Node9 -->
<g id="edge8" class="edge">
<title>Node8&#45;&gt;Node9</title>
<path fill="none" stroke="midnightblue" d="M550,-56.08C550,-49.01 550,-38.86 550,-29.99"/>
<polygon fill="midnightblue" stroke="midnightblue" points="553.5,-29.75 550,-19.75 546.5,-29.75 553.5,-29.75"/>
</g>
<!-- Node10&#45;&gt;Node7 -->
<g id="edge11" class="edge">
<title>Node10&#45;&gt;Node7</title>
<path fill="none" stroke="midnightblue" d="M190.06,-112.44C208.57,-103.68 237.58,-89.94 258.86,-79.86"/>
<polygon fill="midnightblue" stroke="midnightblue" points="260.48,-82.96 268.02,-75.52 257.49,-76.63 260.48,-82.96"/>
</g>
<!-- Node10&#45;&gt;Node8 -->
<g id="edge10" class="edge">
<title>Node10&#45;&gt;Node8</title>
<path fill="none" stroke="midnightblue" d="M216.85,-114.59C284.83,-104.88 414.09,-86.42 490.07,-75.56"/>
<polygon fill="midnightblue" stroke="midnightblue" points="491.02,-78.96 500.43,-74.08 490.03,-72.03 491.02,-78.96"/>
</g>
<!-- Node11&#45;&gt;Node8 -->
<g id="edge13" class="edge">
<title>Node11&#45;&gt;Node8</title>
<path fill="none" stroke="midnightblue" d="M499.64,-112.32C508.51,-104.34 521.87,-92.31 532.61,-82.65"/>
<polygon fill="midnightblue" stroke="midnightblue" points="535.09,-85.13 540.18,-75.83 530.41,-79.92 535.09,-85.13"/>
</g>
<!-- Node12&#45;&gt;Node7 -->
<g id="edge15" class="edge">
<title>Node12&#45;&gt;Node7</title>
<path fill="none" stroke="midnightblue" d="M319.39,-112.08C313.74,-104.46 305.46,-93.26 298.55,-83.94"/>
<polygon fill="midnightblue" stroke="midnightblue" points="301.25,-81.7 292.48,-75.75 295.62,-85.87 301.25,-81.7"/>
</g>
<!-- Node13&#45;&gt;Node6 -->
<g id="edge18" class="edge">
<title>Node13&#45;&gt;Node6</title>
<path fill="none" stroke="midnightblue" d="M544.8,-224.44C514.59,-215.28 466.49,-200.69 432.97,-190.52"/>
<polygon fill="midnightblue" stroke="midnightblue" points="433.66,-187.07 423.07,-187.52 431.63,-193.77 433.66,-187.07"/>
</g>
<!-- Node13&#45;&gt;Node7 -->
<g id="edge20" class="edge">
<title>Node13&#45;&gt;Node7</title>
<path fill="none" stroke="midnightblue" d="M574.69,-224.2C578.4,-201.94 584.66,-142.99 554,-112 524.25,-81.93 404.71,-71.91 335.75,-68.6"/>
<polygon fill="midnightblue" stroke="midnightblue" points="335.69,-65.1 325.55,-68.14 335.38,-72.09 335.69,-65.1"/>
</g>
<!-- Node13&#45;&gt;Node8 -->
<g id="edge19" class="edge">
<title>Node13&#45;&gt;Node8</title>
<path fill="none" stroke="midnightblue" d="M576.53,-224.49C584.36,-204.3 601.41,-152.21 587,-112 583.06,-101 575.14,-90.77 567.64,-82.85"/>
<polygon fill="midnightblue" stroke="midnightblue" points="570.02,-80.28 560.44,-75.76 565.11,-85.27 570.02,-80.28"/>
</g>
<!-- Node14&#45;&gt;Node15 -->
<g id="edge22" class="edge">
<title>Node14&#45;&gt;Node15</title>
<path fill="none" stroke="midnightblue" d="M769.02,-336.4C760.27,-327.58 748.97,-316.18 739.88,-307.02"/>
<polygon fill="midnightblue" stroke="midnightblue" points="742.11,-304.29 732.59,-299.66 737.14,-309.22 742.11,-304.29"/>
</g>
<!-- Node15&#45;&gt;Node6 -->
<g id="edge23" class="edge">
<title>Node15&#45;&gt;Node6</title>
<path fill="none" stroke="midnightblue" d="M724.81,-280.35C725.59,-266.28 724.86,-238.58 709,-224 671.79,-189.81 526.58,-181.51 447.32,-179.56"/>
<polygon fill="midnightblue" stroke="midnightblue" points="447.14,-176.05 437.06,-179.33 446.98,-183.05 447.14,-176.05"/>
</g>
<!-- Node15&#45;&gt;Node13 -->
<g id="edge24" class="edge">
<title>Node15&#45;&gt;Node13</title>
<path fill="none" stroke="midnightblue" d="M700.07,-280.44C674.78,-271.4 634.7,-257.06 606.32,-246.92"/>
<polygon fill="midnightblue" stroke="midnightblue" points="607.41,-243.59 596.81,-243.52 605.05,-250.18 607.41,-243.59"/>
</g>
<!-- Node16 -->
<g id="node16" class="node">
<title>Node16</title>
<g id="a_node16"><a xlink:href="err_8h.html" target="_top" xlink:title="Error codes.">
<polygon fill="white" stroke="black" points="630,-224.5 630,-243.5 700,-243.5 700,-224.5 630,-224.5"/>
<text text-anchor="middle" x="665" y="-231.5" font-family="Helvetica,sans-Serif" font-size="10.00">l4/sys/err.h</text>
</a>
</g>
</g>
<!-- Node15&#45;&gt;Node16 -->
<g id="edge25" class="edge">
<title>Node15&#45;&gt;Node16</title>
<path fill="none" stroke="midnightblue" d="M714.52,-280.32C705.8,-272.34 692.66,-260.31 682.1,-250.65"/>
<polygon fill="midnightblue" stroke="midnightblue" points="684.39,-248 674.65,-243.83 679.67,-253.17 684.39,-248"/>
</g>
<!-- Node16&#45;&gt;Node8 -->
<g id="edge26" class="edge">
<title>Node16&#45;&gt;Node8</title>
<path fill="none" stroke="midnightblue" d="M661.96,-224.42C654.31,-203.63 632.76,-149.55 603,-112 593.98,-100.62 581.73,-90 571.28,-81.93"/>
<polygon fill="midnightblue" stroke="midnightblue" points="573.15,-78.96 563.04,-75.8 568.97,-84.58 573.15,-78.96"/>
</g>
<!-- Node17&#45;&gt;Node5 -->
<g id="edge30" class="edge">
<title>Node17&#45;&gt;Node5</title>
<path fill="none" stroke="midnightblue" d="M698.22,-459.44C716.9,-450.68 746.16,-436.94 767.62,-426.86"/>
<polygon fill="midnightblue" stroke="midnightblue" points="769.3,-429.93 776.86,-422.52 766.32,-423.6 769.3,-429.93"/>
</g>
<!-- Node17&#45;&gt;Node15 -->
<g id="edge31" class="edge">
<title>Node17&#45;&gt;Node15</title>
<path fill="none" stroke="midnightblue" d="M682.03,-459.33C686.99,-438.21 700.19,-382.39 712,-336 714.22,-327.27 716.78,-317.62 718.96,-309.5"/>
<polygon fill="midnightblue" stroke="midnightblue" points="722.41,-310.18 721.64,-299.61 715.65,-308.35 722.41,-310.18"/>
</g>
<!-- Node18 -->
<g id="node18" class="node">
<title>Node18</title>
<g id="a_node18"><a xlink:href="rcv__endpoint_8h.html" target="_top" xlink:title="Receive endpoint C interface.">
<polygon fill="white" stroke="black" points="507,-342 507,-361 627,-361 627,-342 507,-342"/>
<text text-anchor="middle" x="567" y="-349" font-family="Helvetica,sans-Serif" font-size="10.00">l4/sys/rcv_endpoint.h</text>
</a>
</g>
</g>
<!-- Node17&#45;&gt;Node18 -->
<g id="edge32" class="edge">
<title>Node17&#45;&gt;Node18</title>
<path fill="none" stroke="midnightblue" d="M674.59,-459.46C666.16,-446.48 648.99,-421.39 631,-403 617.97,-389.68 601.42,-376.71 588.42,-367.25"/>
<polygon fill="midnightblue" stroke="midnightblue" points="590.24,-364.25 580.06,-361.3 586.18,-369.95 590.24,-364.25"/>
</g>
<!-- Node18&#45;&gt;Node6 -->
<g id="edge34" class="edge">
<title>Node18&#45;&gt;Node6</title>
<path fill="none" stroke="midnightblue" d="M558.23,-341.76C530.74,-314.35 445.94,-229.79 410.65,-194.61"/>
<polygon fill="midnightblue" stroke="midnightblue" points="413.1,-192.1 403.54,-187.52 408.15,-197.06 413.1,-192.1"/>
</g>
<!-- Node18&#45;&gt;Node13 -->
<g id="edge33" class="edge">
<title>Node18&#45;&gt;Node13</title>
<path fill="none" stroke="midnightblue" d="M567.45,-341.82C568.42,-323.26 570.7,-279.34 572.01,-253.97"/>
<polygon fill="midnightblue" stroke="midnightblue" points="575.52,-253.95 572.54,-243.78 568.53,-253.59 575.52,-253.95"/>
</g>
<!-- Node18&#45;&gt;Node15 -->
<g id="edge35" class="edge">
<title>Node18&#45;&gt;Node15</title>
<path fill="none" stroke="midnightblue" d="M589.49,-341.98C616.31,-331.81 661.32,-314.76 691.81,-303.2"/>
<polygon fill="midnightblue" stroke="midnightblue" points="693.44,-306.33 701.55,-299.51 690.96,-299.78 693.44,-306.33"/>
</g>
<!-- Node19&#45;&gt;Node6 -->
<g id="edge38" class="edge">
<title>Node19&#45;&gt;Node6</title>
<path fill="none" stroke="midnightblue" d="M353.9,-685.96C263.22,-673.24 76,-639.94 76,-582 76,-582 76,-582 76,-468 76,-407.74 70.47,-383.93 107,-336 169.42,-254.1 287.35,-209.57 351.23,-190.48"/>
<polygon fill="midnightblue" stroke="midnightblue" points="352.38,-193.79 361,-187.63 350.42,-187.07 352.38,-193.79"/>
</g>
<!-- Node19&#45;&gt;Node10 -->
<g id="edge37" class="edge">
<title>Node19&#45;&gt;Node10</title>
<path fill="none" stroke="midnightblue" d="M353.77,-691.65C295.9,-689.61 197.04,-680.87 120,-647 77.43,-628.28 38,-628.51 38,-582 38,-582 38,-582 38,-524 38,-445.93 0,-430.57 0,-352.5 0,-352.5 0,-352.5 0,-233 0,-176.34 67.06,-147.55 117.43,-133.92"/>
<polygon fill="midnightblue" stroke="midnightblue" points="118.45,-137.27 127.26,-131.39 116.7,-130.49 118.45,-137.27"/>
</g>
<!-- Node20 -->
<g id="node20" class="node">
<title>Node20</title>
<g id="a_node20"><a xlink:href="kobject_source.html" target="_top" xlink:title=" ">
<polygon fill="white" stroke="black" points="467.5,-515.5 467.5,-534.5 550.5,-534.5 550.5,-515.5 467.5,-515.5"/>
<text text-anchor="middle" x="509" y="-522.5" font-family="Helvetica,sans-Serif" font-size="10.00">l4/sys/kobject</text>
</a>
</g>
</g>
<!-- Node19&#45;&gt;Node20 -->
<g id="edge39" class="edge">
<title>Node19&#45;&gt;Node20</title>
<path fill="none" stroke="midnightblue" d="M414.66,-683.2C425.88,-674.9 442.13,-661.58 453,-647 477.47,-614.18 494.85,-568.97 503.26,-544.14"/>
<polygon fill="midnightblue" stroke="midnightblue" points="506.61,-545.16 506.4,-534.57 499.96,-542.98 506.61,-545.16"/>
</g>
<!-- Node25 -->
<g id="node25" class="node">
<title>Node25</title>
<g id="a_node25"><a xlink:href="l4_2sys_2task_8h.html" target="_top" xlink:title="Common task related definitions.">
<polygon fill="white" stroke="black" points="373,-342 373,-361 451,-361 451,-342 373,-342"/>
<text text-anchor="middle" x="412" y="-349" font-family="Helvetica,sans-Serif" font-size="10.00">l4/sys/task.h</text>
</a>
</g>
</g>
<!-- Node19&#45;&gt;Node25 -->
<g id="edge55" class="edge">
<title>Node19&#45;&gt;Node25</title>
<path fill="none" stroke="midnightblue" d="M405.69,-683.46C409.51,-674.48 415.53,-659.88 420,-647 440.05,-589.2 422.5,-564.09 459,-515 476.43,-491.55 500.11,-504.7 514,-479 538.68,-433.36 475.25,-388.01 437.58,-366.08"/>
<polygon fill="midnightblue" stroke="midnightblue" points="439.05,-362.9 428.62,-361.03 435.61,-368.99 439.05,-362.9"/>
</g>
<!-- Node26 -->
<g id="node26" class="node">
<title>Node26</title>
<g id="a_node26"><a xlink:href="sys_2meta.html" target="_top" xlink:title="Meta interface for getting dynamic type information about objects behind capabilities.">
<polygon fill="white" stroke="black" points="337,-627.5 337,-646.5 411,-646.5 411,-627.5 337,-627.5"/>
<text text-anchor="middle" x="374" y="-634.5" font-family="Helvetica,sans-Serif" font-size="10.00">l4/sys/meta</text>
</a>
</g>
</g>
<!-- Node19&#45;&gt;Node26 -->
<g id="edge56" class="edge">
<title>Node19&#45;&gt;Node26</title>
<path fill="none" stroke="midnightblue" d="M397.38,-683.08C393.54,-675.69 387.98,-664.95 383.24,-655.81"/>
<polygon fill="midnightblue" stroke="midnightblue" points="386.25,-654.02 378.54,-646.75 380.03,-657.24 386.25,-654.02"/>
</g>
<!-- Node20&#45;&gt;Node5 -->
<g id="edge40" class="edge">
<title>Node20&#45;&gt;Node5</title>
<path fill="none" stroke="midnightblue" d="M550.78,-521.8C595.76,-517.98 668.35,-507.54 724,-479 747.12,-467.14 768.35,-445.71 781.45,-430.71"/>
<polygon fill="midnightblue" stroke="midnightblue" points="784.4,-432.64 788.18,-422.74 779.06,-428.12 784.4,-432.64"/>
</g>
<!-- Node20&#45;&gt;Node6 -->
<g id="edge41" class="edge">
<title>Node20&#45;&gt;Node6</title>
<path fill="none" stroke="midnightblue" d="M514.38,-515.44C519.56,-506.68 527.01,-492.47 530,-479 531.93,-470.32 531.45,-467.77 530,-459 520.71,-402.72 434.72,-248.49 405.03,-196.43"/>
<polygon fill="midnightblue" stroke="midnightblue" points="408.03,-194.63 400.02,-187.69 401.96,-198.11 408.03,-194.63"/>
</g>
<!-- Node21 -->
<g id="node21" class="node">
<title>Node21</title>
<g id="a_node21"><a xlink:href="____typeinfo_8h.html" target="_top" xlink:title="Type information handling.">
<polygon fill="white" stroke="black" points="294.5,-459.5 294.5,-478.5 371.5,-478.5 371.5,-459.5 294.5,-459.5"/>
<text text-anchor="middle" x="333" y="-466.5" font-family="Helvetica,sans-Serif" font-size="10.00">__typeinfo.h</text>
</a>
</g>
</g>
<!-- Node20&#45;&gt;Node21 -->
<g id="edge42" class="edge">
<title>Node20&#45;&gt;Node21</title>
<path fill="none" stroke="midnightblue" d="M481.11,-515.44C451.25,-506.28 403.69,-491.69 370.54,-481.52"/>
<polygon fill="midnightblue" stroke="midnightblue" points="371.34,-478.1 360.76,-478.52 369.29,-484.8 371.34,-478.1"/>
</g>
<!-- Node22 -->
<g id="node22" class="node">
<title>Node22</title>
<g id="a_node22"><a xlink:href="types.html" target="_top" xlink:title=" ">
<polygon fill="white" stroke="black" points="116,-342 116,-361 180,-361 180,-342 116,-342"/>
<text text-anchor="middle" x="148" y="-349" font-family="Helvetica,sans-Serif" font-size="10.00">cxx/types</text>
</a>
</g>
</g>
<!-- Node21&#45;&gt;Node22 -->
<g id="edge43" class="edge">
<title>Node21&#45;&gt;Node22</title>
<path fill="none" stroke="midnightblue" d="M327.93,-459.19C319.59,-445.41 301.71,-418.7 280,-403 264.41,-391.73 218.41,-375.32 185.09,-364.3"/>
<polygon fill="midnightblue" stroke="midnightblue" points="185.8,-360.85 175.21,-361.06 183.62,-367.5 185.8,-360.85"/>
</g>
<!-- Node23 -->
<g id="node23" class="node">
<title>Node23</title>
<g id="a_node23"><a xlink:href="ipc__basics_source.html" target="_top" xlink:title=" ">
<polygon fill="white" stroke="black" points="184.5,-403.5 184.5,-422.5 271.5,-422.5 271.5,-403.5 184.5,-403.5"/>
<text text-anchor="middle" x="228" y="-410.5" font-family="Helvetica,sans-Serif" font-size="10.00">cxx/ipc_basics</text>
</a>
</g>
</g>
<!-- Node21&#45;&gt;Node23 -->
<g id="edge44" class="edge">
<title>Node21&#45;&gt;Node23</title>
<path fill="none" stroke="midnightblue" d="M316.13,-459.32C299.29,-450.66 273.19,-437.24 253.76,-427.25"/>
<polygon fill="midnightblue" stroke="midnightblue" points="255.32,-424.12 244.83,-422.65 252.12,-430.34 255.32,-424.12"/>
</g>
<!-- Node24 -->
<g id="node24" class="node">
<title>Node24</title>
<g id="a_node24"><a xlink:href="capability_8h_source.html" target="_top" xlink:title=" ">
<polygon fill="white" stroke="black" points="366,-403.5 366,-422.5 458,-422.5 458,-403.5 366,-403.5"/>
<text text-anchor="middle" x="412" y="-410.5" font-family="Helvetica,sans-Serif" font-size="10.00">cxx/capability.h</text>
</a>
</g>
</g>
<!-- Node21&#45;&gt;Node24 -->
<g id="edge48" class="edge">
<title>Node21&#45;&gt;Node24</title>
<path fill="none" stroke="midnightblue" d="M345.69,-459.32C357.9,-450.98 376.58,-438.21 391,-428.35"/>
<polygon fill="midnightblue" stroke="midnightblue" points="393.06,-431.19 399.34,-422.65 389.11,-425.41 393.06,-431.19"/>
</g>
<!-- Node23&#45;&gt;Node13 -->
<g id="edge46" class="edge">
<title>Node23&#45;&gt;Node13</title>
<path fill="none" stroke="midnightblue" d="M233.17,-403.44C242.96,-387.88 265.72,-354.85 293,-336 365.34,-286.01 465.21,-257.85 524.06,-244.59"/>
<polygon fill="midnightblue" stroke="midnightblue" points="524.84,-248 533.85,-242.44 523.33,-241.17 524.84,-248"/>
</g>
<!-- Node23&#45;&gt;Node16 -->
<g id="edge47" class="edge">
<title>Node23&#45;&gt;Node16</title>
<path fill="none" stroke="midnightblue" d="M241.46,-403.36C265.4,-388.25 317.25,-356.69 364,-336 453.82,-296.25 564.43,-262.9 623.38,-246.3"/>
<polygon fill="midnightblue" stroke="midnightblue" points="624.38,-249.66 633.07,-243.59 622.5,-242.91 624.38,-249.66"/>
</g>
<!-- Node23&#45;&gt;Node22 -->
<g id="edge45" class="edge">
<title>Node23&#45;&gt;Node22</title>
<path fill="none" stroke="midnightblue" d="M216.54,-403.48C203.83,-394.02 183.09,-378.6 167.75,-367.19"/>
<polygon fill="midnightblue" stroke="midnightblue" points="169.55,-364.17 159.44,-361.01 165.38,-369.79 169.55,-364.17"/>
</g>
<!-- Node24&#45;&gt;Node6 -->
<g id="edge50" class="edge">
<title>Node24&#45;&gt;Node6</title>
<path fill="none" stroke="midnightblue" d="M397.63,-403.33C386.12,-395.47 370.81,-382.72 364,-367 338.62,-308.41 369.14,-231.29 385.69,-196.89"/>
<polygon fill="midnightblue" stroke="midnightblue" points="388.96,-198.17 390.3,-187.66 382.7,-195.04 388.96,-198.17"/>
</g>
<!-- Node24&#45;&gt;Node10 -->
<g id="edge49" class="edge">
<title>Node24&#45;&gt;Node10</title>
<path fill="none" stroke="midnightblue" d="M398.24,-403.37C385.46,-394.98 366.31,-381.42 352,-367 276.83,-291.23 207.83,-182.43 182.37,-140.45"/>
<polygon fill="midnightblue" stroke="midnightblue" points="185.26,-138.46 177.11,-131.69 179.26,-142.06 185.26,-138.46"/>
</g>
<!-- Node24&#45;&gt;Node25 -->
<g id="edge51" class="edge">
<title>Node24&#45;&gt;Node25</title>
<path fill="none" stroke="midnightblue" d="M412,-403.48C412,-395.08 412,-381.98 412,-371.16"/>
<polygon fill="midnightblue" stroke="midnightblue" points="415.5,-371.01 412,-361.01 408.5,-371.01 415.5,-371.01"/>
</g>
<!-- Node25&#45;&gt;Node6 -->
<g id="edge52" class="edge">
<title>Node25&#45;&gt;Node6</title>
<path fill="none" stroke="midnightblue" d="M411.13,-341.76C408.5,-315.15 400.52,-234.71 396.87,-197.84"/>
<polygon fill="midnightblue" stroke="midnightblue" points="400.31,-197.13 395.84,-187.52 393.35,-197.82 400.31,-197.13"/>
</g>
<!-- Node25&#45;&gt;Node13 -->
<g id="edge53" class="edge">
<title>Node25&#45;&gt;Node13</title>
<path fill="none" stroke="midnightblue" d="M424.1,-341.82C451.49,-322.17 518.48,-274.11 552.49,-249.72"/>
<polygon fill="midnightblue" stroke="midnightblue" points="554.67,-252.46 560.76,-243.78 550.59,-246.77 554.67,-252.46"/>
</g>
<!-- Node25&#45;&gt;Node15 -->
<g id="edge54" class="edge">
<title>Node25&#45;&gt;Node15</title>
<path fill="none" stroke="midnightblue" d="M451.2,-343.02C508.91,-332.02 616.51,-311.5 677.92,-299.79"/>
<polygon fill="midnightblue" stroke="midnightblue" points="678.93,-303.16 688.1,-297.85 677.62,-296.28 678.93,-303.16"/>
</g>
<!-- Node26&#45;&gt;Node20 -->
<g id="edge57" class="edge">
<title>Node26&#45;&gt;Node20</title>
<path fill="none" stroke="midnightblue" d="M384.59,-627.37C407.46,-608.73 461.71,-564.53 490.43,-541.13"/>
<polygon fill="midnightblue" stroke="midnightblue" points="492.91,-543.62 498.46,-534.59 488.49,-538.19 492.91,-543.62"/>
</g>
<!-- Node26&#45;&gt;Node27 -->
<g id="edge58" class="edge">
<title>Node26&#45;&gt;Node27</title>
<path fill="none" stroke="midnightblue" d="M367.23,-627.08C361.44,-619.46 352.94,-608.26 345.86,-598.94"/>
<polygon fill="midnightblue" stroke="midnightblue" points="348.48,-596.6 339.64,-590.75 342.9,-600.83 348.48,-596.6"/>
</g>
<!-- Node29 -->
<g id="node29" class="node">
<title>Node29</title>
<g id="a_node29"><a xlink:href="ipc__string_source.html" target="_top" xlink:title=" ">
<polygon fill="white" stroke="black" points="160,-571.5 160,-590.5 244,-590.5 244,-571.5 160,-571.5"/>
<text text-anchor="middle" x="202" y="-578.5" font-family="Helvetica,sans-Serif" font-size="10.00">cxx/ipc_string</text>
</a>
</g>
</g>
<!-- Node26&#45;&gt;Node29 -->
<g id="edge65" class="edge">
<title>Node26&#45;&gt;Node29</title>
<path fill="none" stroke="midnightblue" d="M346.75,-627.44C317.56,-618.28 271.08,-603.69 238.69,-593.52"/>
<polygon fill="midnightblue" stroke="midnightblue" points="239.72,-590.17 229.13,-590.52 237.62,-596.85 239.72,-590.17"/>
</g>
<!-- Node27&#45;&gt;Node21 -->
<g id="edge64" class="edge">
<title>Node27&#45;&gt;Node21</title>
<path fill="none" stroke="midnightblue" d="M333,-571.37C333,-553.62 333,-512.67 333,-488.6"/>
<polygon fill="midnightblue" stroke="midnightblue" points="336.5,-488.59 333,-478.59 329.5,-488.59 336.5,-488.59"/>
</g>
<!-- Node27&#45;&gt;Node23 -->
<g id="edge59" class="edge">
<title>Node27&#45;&gt;Node23</title>
<path fill="none" stroke="midnightblue" d="M327.35,-571.08C310.61,-544.61 261.02,-466.21 238.89,-431.21"/>
<polygon fill="midnightblue" stroke="midnightblue" points="241.72,-429.15 233.42,-422.57 235.81,-432.89 241.72,-429.15"/>
</g>
<!-- Node27&#45;&gt;Node28 -->
<g id="edge60" class="edge">
<title>Node27&#45;&gt;Node28</title>
<path fill="none" stroke="midnightblue" d="M341.95,-571.37C361.09,-552.89 406.28,-509.29 430.68,-485.74"/>
<polygon fill="midnightblue" stroke="midnightblue" points="433.33,-488.05 438.1,-478.59 428.47,-483.02 433.33,-488.05"/>
</g>
<!-- Node28&#45;&gt;Node22 -->
<g id="edge62" class="edge">
<title>Node28&#45;&gt;Node22</title>
<path fill="none" stroke="midnightblue" d="M429.8,-459.32C403.37,-446.18 351,-420.86 305,-403 293.63,-398.59 227.88,-377.69 185.15,-364.2"/>
<polygon fill="midnightblue" stroke="midnightblue" points="185.95,-360.78 175.36,-361.11 183.84,-367.45 185.95,-360.78"/>
</g>
<!-- Node28&#45;&gt;Node23 -->
<g id="edge63" class="edge">
<title>Node28&#45;&gt;Node23</title>
<path fill="none" stroke="midnightblue" d="M412.3,-459.44C374.42,-450.1 313.65,-435.12 272.34,-424.93"/>
<polygon fill="midnightblue" stroke="midnightblue" points="273.09,-421.51 262.54,-422.52 271.41,-428.31 273.09,-421.51"/>
</g>
<!-- Node28&#45;&gt;Node24 -->
<g id="edge61" class="edge">
<title>Node28&#45;&gt;Node24</title>
<path fill="none" stroke="midnightblue" d="M441.22,-459.08C436.33,-451.53 429.17,-440.49 423.17,-431.23"/>
<polygon fill="midnightblue" stroke="midnightblue" points="426.05,-429.24 417.67,-422.75 420.17,-433.05 426.05,-429.24"/>
</g>
<!-- Node29&#45;&gt;Node22 -->
<g id="edge66" class="edge">
<title>Node29&#45;&gt;Node22</title>
<path fill="none" stroke="midnightblue" d="M178.21,-571.5C162.28,-564.41 142.54,-552.61 133,-535 103.9,-481.27 126.95,-405.35 140.25,-370.85"/>
<polygon fill="midnightblue" stroke="midnightblue" points="143.65,-371.76 144.14,-361.18 137.16,-369.14 143.65,-371.76"/>
</g>
<!-- Node29&#45;&gt;Node23 -->
<g id="edge67" class="edge">
<title>Node29&#45;&gt;Node23</title>
<path fill="none" stroke="midnightblue" d="M204.41,-571.44C206.87,-562.43 210.65,-547.81 213,-535 219.6,-499.04 224.12,-456.52 226.37,-432.66"/>
<polygon fill="midnightblue" stroke="midnightblue" points="229.87,-432.84 227.28,-422.56 222.89,-432.2 229.87,-432.84"/>
</g>
<!-- Node30 -->
<g id="node30" class="node">
<title>Node30</title>
<g id="a_node30"><a xlink:href="ipc__array_source.html" target="_top" xlink:title=" ">
<polygon fill="white" stroke="black" points="142,-515.5 142,-534.5 204,-534.5 204,-515.5 142,-515.5"/>
<text text-anchor="middle" x="173" y="-522.5" font-family="Helvetica,sans-Serif" font-size="10.00">ipc_array</text>
</a>
</g>
</g>
<!-- Node29&#45;&gt;Node30 -->
<g id="edge68" class="edge">
<title>Node29&#45;&gt;Node30</title>
<path fill="none" stroke="midnightblue" d="M197.21,-571.08C193.24,-563.69 187.47,-552.95 182.57,-543.81"/>
<polygon fill="midnightblue" stroke="midnightblue" points="185.51,-541.91 177.7,-534.75 179.35,-545.22 185.51,-541.91"/>
</g>
<!-- Node30&#45;&gt;Node22 -->
<g id="edge69" class="edge">
<title>Node30&#45;&gt;Node22</title>
<path fill="none" stroke="midnightblue" d="M171.73,-515.26C167.85,-488.65 156.12,-408.21 150.75,-371.34"/>
<polygon fill="midnightblue" stroke="midnightblue" points="154.15,-370.41 149.24,-361.02 147.22,-371.42 154.15,-370.41"/>
</g>
<!-- Node30&#45;&gt;Node23 -->
<g id="edge70" class="edge">
<title>Node30&#45;&gt;Node23</title>
<path fill="none" stroke="midnightblue" d="M177.32,-515.37C186.31,-497.38 207.22,-455.55 219.19,-431.63"/>
<polygon fill="midnightblue" stroke="midnightblue" points="222.36,-433.1 223.7,-422.59 216.1,-429.97 222.36,-433.1"/>
</g>
<!-- Node30&#45;&gt;Node28 -->
<g id="edge71" class="edge">
<title>Node30&#45;&gt;Node28</title>
<path fill="none" stroke="midnightblue" d="M204.16,-517.86C250.25,-508.78 337.18,-491.64 393.56,-480.53"/>
<polygon fill="midnightblue" stroke="midnightblue" points="394.58,-483.9 403.72,-478.53 393.23,-477.03 394.58,-483.9"/>
</g>
<!-- Node31&#45;&gt;Node6 -->
<g id="edge74" class="edge">
<title>Node31&#45;&gt;Node6</title>
<path fill="none" stroke="midnightblue" d="M363.36,-745.03C249.38,-737.41 0,-712.27 0,-638 0,-638 0,-638 0,-524 0,-358.92 68.98,-292.9 219,-224 258.52,-205.85 306.53,-194.2 342.41,-187.31"/>
<polygon fill="midnightblue" stroke="midnightblue" points="343.47,-190.67 352.67,-185.4 342.2,-183.79 343.47,-190.67"/>
</g>
<!-- Node31&#45;&gt;Node18 -->
<g id="edge73" class="edge">
<title>Node31&#45;&gt;Node18</title>
<path fill="none" stroke="midnightblue" d="M474.68,-741.07C533.24,-730.31 617,-703.47 617,-638 617,-638 617,-638 617,-468 617,-430.5 594.53,-391.38 579.72,-369.66"/>
<polygon fill="midnightblue" stroke="midnightblue" points="582.38,-367.36 573.74,-361.22 576.67,-371.4 582.38,-367.36"/>
</g>
<!-- Node31&#45;&gt;Node19 -->
<g id="edge75" class="edge">
<title>Node31&#45;&gt;Node19</title>
<path fill="none" stroke="midnightblue" d="M416.19,-739.08C413.92,-731.85 410.63,-721.41 407.79,-712.4"/>
<polygon fill="midnightblue" stroke="midnightblue" points="411.1,-711.24 404.75,-702.75 404.42,-713.34 411.1,-711.24"/>
</g>
<!-- Node31&#45;&gt;Node27 -->
<g id="edge76" class="edge">
<title>Node31&#45;&gt;Node27</title>
<path fill="none" stroke="midnightblue" d="M396.18,-739.37C379.72,-732.04 358.18,-719.99 345,-703 322.01,-673.36 325.16,-626.56 329.23,-600.71"/>
<polygon fill="midnightblue" stroke="midnightblue" points="332.7,-601.2 331.02,-590.74 325.81,-599.96 332.7,-601.2"/>
</g>
<!-- Node32&#45;&gt;Node15 -->
<g id="edge80" class="edge">
<title>Node32&#45;&gt;Node15</title>
<path fill="none" stroke="midnightblue" d="M886.17,-797.58C938.95,-786.59 1025,-758.74 1025,-694 1025,-694 1025,-694 1025,-412 1025,-357.61 853.66,-316.41 769.52,-299.46"/>
<polygon fill="midnightblue" stroke="midnightblue" points="770.2,-296.03 759.71,-297.52 768.84,-302.9 770.2,-296.03"/>
</g>
</g>
</svg>
