<?xml version="1.0" encoding="UTF-8" standalone="no"?>
<!DOCTYPE svg PUBLIC "-//W3C//DTD SVG 1.1//EN"
 "http://www.w3.org/Graphics/SVG/1.1/DTD/svg11.dtd">
<!-- Generated by graphviz version 2.43.0 (0)
 -->
<!-- Title: l4/sys/vhw.h Pages: 1 -->
<svg width="467pt" height="364pt"
 viewBox="0.00 0.00 467.00 364.00" xmlns="http://www.w3.org/2000/svg" xmlns:xlink="http://www.w3.org/1999/xlink">
<g id="graph0" class="graph" transform="scale(1 1) rotate(0) translate(4 360)">
<title>l4/sys/vhw.h</title>
<polygon fill="white" stroke="transparent" points="-4,4 -4,-360 463,-360 463,4 -4,4"/>
<!-- Node1 -->
<g id="node1" class="node">
<title>Node1</title>
<g id="a_node1"><a xlink:title="Descriptors for virtual hardware (under UX).">
<polygon fill="#bfbfbf" stroke="black" points="382,-336.5 382,-355.5 459,-355.5 459,-336.5 382,-336.5"/>
<text text-anchor="middle" x="420.5" y="-343.5" font-family="Helvetica,sans-Serif" font-size="10.00">l4/sys/vhw.h</text>
</a>
</g>
</g>
<!-- Node2 -->
<g id="node2" class="node">
<title>Node2</title>
<g id="a_node2"><a xlink:href="l4_2sys_2types_8h.html" target="_top" xlink:title="Common L4 ABI Data Types.">
<polygon fill="white" stroke="black" points="239.5,-168.5 239.5,-187.5 323.5,-187.5 323.5,-168.5 239.5,-168.5"/>
<text text-anchor="middle" x="281.5" y="-175.5" font-family="Helvetica,sans-Serif" font-size="10.00">l4/sys/types.h</text>
</a>
</g>
</g>
<!-- Node1&#45;&gt;Node2 -->
<g id="edge1" class="edge">
<title>Node1&#45;&gt;Node2</title>
<path fill="none" stroke="midnightblue" d="M420.4,-336.19C419.7,-314.44 414.98,-257.48 385.5,-224 371.43,-208.02 350.67,-197.51 331.39,-190.7"/>
<polygon fill="midnightblue" stroke="midnightblue" points="332.38,-187.34 321.79,-187.56 330.2,-193.99 332.38,-187.34"/>
</g>
<!-- Node9 -->
<g id="node9" class="node">
<title>Node9</title>
<g id="a_node9"><a xlink:href="sys_2kip_8h.html" target="_top" xlink:title="Kernel Info Page access functions.">
<polygon fill="white" stroke="black" points="284.5,-280.5 284.5,-299.5 356.5,-299.5 356.5,-280.5 284.5,-280.5"/>
<text text-anchor="middle" x="320.5" y="-287.5" font-family="Helvetica,sans-Serif" font-size="10.00">l4/sys/kip.h</text>
</a>
</g>
</g>
<!-- Node1&#45;&gt;Node9 -->
<g id="edge12" class="edge">
<title>Node1&#45;&gt;Node9</title>
<path fill="none" stroke="midnightblue" d="M404.43,-336.32C388.54,-327.74 363.99,-314.49 345.54,-304.52"/>
<polygon fill="midnightblue" stroke="midnightblue" points="346.99,-301.33 336.53,-299.65 343.66,-307.49 346.99,-301.33"/>
</g>
<!-- Node3 -->
<g id="node3" class="node">
<title>Node3</title>
<g id="a_node3"><a xlink:href="l4_2sys_2l4int_8h.html" target="_top" xlink:title="Fixed sized integer types, generic version.">
<polygon fill="white" stroke="black" points="282,-56.5 282,-75.5 361,-75.5 361,-56.5 282,-56.5"/>
<text text-anchor="middle" x="321.5" y="-63.5" font-family="Helvetica,sans-Serif" font-size="10.00">l4/sys/l4int.h</text>
</a>
</g>
</g>
<!-- Node2&#45;&gt;Node3 -->
<g id="edge2" class="edge">
<title>Node2&#45;&gt;Node3</title>
<path fill="none" stroke="midnightblue" d="M283.56,-168.45C286.67,-155.89 293.03,-131.8 300.5,-112 303.92,-102.92 308.39,-93.14 312.33,-85.01"/>
<polygon fill="midnightblue" stroke="midnightblue" points="315.59,-86.31 316.91,-75.79 309.32,-83.19 315.59,-86.31"/>
</g>
<!-- Node4 -->
<g id="node4" class="node">
<title>Node4</title>
<g id="a_node4"><a xlink:href="compiler_8h.html" target="_top" xlink:title="L4 compiler related defines.">
<polygon fill="white" stroke="black" points="0,-56.5 0,-75.5 99,-75.5 99,-56.5 0,-56.5"/>
<text text-anchor="middle" x="49.5" y="-63.5" font-family="Helvetica,sans-Serif" font-size="10.00">l4/sys/compiler.h</text>
</a>
</g>
</g>
<!-- Node2&#45;&gt;Node4 -->
<g id="edge3" class="edge">
<title>Node2&#45;&gt;Node4</title>
<path fill="none" stroke="midnightblue" d="M239.44,-175.88C174.17,-173.15 53.19,-163.81 26.5,-132 14.78,-118.03 25.16,-97.66 35.48,-83.46"/>
<polygon fill="midnightblue" stroke="midnightblue" points="38.29,-85.56 41.71,-75.53 32.78,-81.24 38.29,-85.56"/>
</g>
<!-- Node6 -->
<g id="node6" class="node">
<title>Node6</title>
<g id="a_node6"><a xlink:href="l4_2sys_2consts_8h.html" target="_top" xlink:title="Common constants.">
<polygon fill="white" stroke="black" points="164,-112.5 164,-131.5 253,-131.5 253,-112.5 164,-112.5"/>
<text text-anchor="middle" x="208.5" y="-119.5" font-family="Helvetica,sans-Serif" font-size="10.00">l4/sys/consts.h</text>
</a>
</g>
</g>
<!-- Node2&#45;&gt;Node6 -->
<g id="edge5" class="edge">
<title>Node2&#45;&gt;Node6</title>
<path fill="none" stroke="midnightblue" d="M269.77,-168.32C258.66,-160.11 241.76,-147.6 228.52,-137.81"/>
<polygon fill="midnightblue" stroke="midnightblue" points="230.56,-134.97 220.44,-131.83 226.4,-140.59 230.56,-134.97"/>
</g>
<!-- Node7 -->
<g id="node7" class="node">
<title>Node7</title>
<g id="a_node7"><a xlink:href="____l4__fpage_8h_source.html" target="_top" xlink:title=" ">
<polygon fill="white" stroke="black" points="35.5,-112.5 35.5,-131.5 145.5,-131.5 145.5,-112.5 35.5,-112.5"/>
<text text-anchor="middle" x="90.5" y="-119.5" font-family="Helvetica,sans-Serif" font-size="10.00">l4/sys/__l4_fpage.h</text>
</a>
</g>
</g>
<!-- Node2&#45;&gt;Node7 -->
<g id="edge8" class="edge">
<title>Node2&#45;&gt;Node7</title>
<path fill="none" stroke="midnightblue" d="M251.24,-168.44C218.54,-159.2 166.32,-144.44 130.32,-134.26"/>
<polygon fill="midnightblue" stroke="midnightblue" points="131.2,-130.87 120.62,-131.52 129.29,-137.61 131.2,-130.87"/>
</g>
<!-- Node8 -->
<g id="node8" class="node">
<title>Node8</title>
<g id="a_node8"><a xlink:href="____timeout_8h_source.html" target="_top" xlink:title=" ">
<polygon fill="white" stroke="black" points="309.5,-112.5 309.5,-131.5 415.5,-131.5 415.5,-112.5 309.5,-112.5"/>
<text text-anchor="middle" x="362.5" y="-119.5" font-family="Helvetica,sans-Serif" font-size="10.00">l4/sys/__timeout.h</text>
</a>
</g>
</g>
<!-- Node2&#45;&gt;Node8 -->
<g id="edge10" class="edge">
<title>Node2&#45;&gt;Node8</title>
<path fill="none" stroke="midnightblue" d="M294.51,-168.32C307.03,-159.98 326.18,-147.21 340.97,-137.35"/>
<polygon fill="midnightblue" stroke="midnightblue" points="343.14,-140.11 349.52,-131.65 339.26,-134.29 343.14,-140.11"/>
</g>
<!-- Node5 -->
<g id="node5" class="node">
<title>Node5</title>
<g id="a_node5"><a xlink:title=" ">
<polygon fill="white" stroke="#bfbfbf" points="3.5,-0.5 3.5,-19.5 95.5,-19.5 95.5,-0.5 3.5,-0.5"/>
<text text-anchor="middle" x="49.5" y="-7.5" font-family="Helvetica,sans-Serif" font-size="10.00">l4/sys/linkage.h</text>
</a>
</g>
</g>
<!-- Node4&#45;&gt;Node5 -->
<g id="edge4" class="edge">
<title>Node4&#45;&gt;Node5</title>
<path fill="none" stroke="midnightblue" d="M49.5,-56.08C49.5,-49.01 49.5,-38.86 49.5,-29.99"/>
<polygon fill="midnightblue" stroke="midnightblue" points="53,-29.75 49.5,-19.75 46,-29.75 53,-29.75"/>
</g>
<!-- Node6&#45;&gt;Node3 -->
<g id="edge7" class="edge">
<title>Node6&#45;&gt;Node3</title>
<path fill="none" stroke="midnightblue" d="M226.41,-112.44C244.75,-103.68 273.51,-89.94 294.59,-79.86"/>
<polygon fill="midnightblue" stroke="midnightblue" points="296.17,-82.99 303.68,-75.52 293.15,-76.67 296.17,-82.99"/>
</g>
<!-- Node6&#45;&gt;Node4 -->
<g id="edge6" class="edge">
<title>Node6&#45;&gt;Node4</title>
<path fill="none" stroke="midnightblue" d="M183.31,-112.44C156.56,-103.36 114.1,-88.94 84.19,-78.78"/>
<polygon fill="midnightblue" stroke="midnightblue" points="85.17,-75.42 74.58,-75.52 82.92,-82.05 85.17,-75.42"/>
</g>
<!-- Node7&#45;&gt;Node4 -->
<g id="edge9" class="edge">
<title>Node7&#45;&gt;Node4</title>
<path fill="none" stroke="midnightblue" d="M83.73,-112.08C77.94,-104.46 69.44,-93.26 62.36,-83.94"/>
<polygon fill="midnightblue" stroke="midnightblue" points="64.98,-81.6 56.14,-75.75 59.4,-85.83 64.98,-81.6"/>
</g>
<!-- Node8&#45;&gt;Node3 -->
<g id="edge11" class="edge">
<title>Node8&#45;&gt;Node3</title>
<path fill="none" stroke="midnightblue" d="M355.73,-112.08C349.94,-104.46 341.44,-93.26 334.36,-83.94"/>
<polygon fill="midnightblue" stroke="midnightblue" points="336.98,-81.6 328.14,-75.75 331.4,-85.83 336.98,-81.6"/>
</g>
<!-- Node9&#45;&gt;Node3 -->
<g id="edge14" class="edge">
<title>Node9&#45;&gt;Node3</title>
<path fill="none" stroke="midnightblue" d="M338.88,-280.36C353.4,-272.68 373.2,-260.17 385.5,-244 422.53,-195.31 458,-163.19 424.5,-112 412.47,-93.62 391.1,-82.7 370.94,-76.24"/>
<polygon fill="midnightblue" stroke="midnightblue" points="371.76,-72.83 361.18,-73.41 369.81,-79.55 371.76,-72.83"/>
</g>
<!-- Node9&#45;&gt;Node4 -->
<g id="edge13" class="edge">
<title>Node9&#45;&gt;Node4</title>
<path fill="none" stroke="midnightblue" d="M284.44,-286.31C244.59,-282.06 179.55,-271.23 130.5,-244 68.68,-209.68 44.71,-197.27 17.5,-132 10.43,-115.05 21.84,-96.29 32.94,-83.3"/>
<polygon fill="midnightblue" stroke="midnightblue" points="35.78,-85.39 40,-75.67 30.64,-80.63 35.78,-85.39"/>
</g>
<!-- Node10 -->
<g id="node10" class="node">
<title>Node10</title>
<g id="a_node10"><a xlink:title=" ">
<polygon fill="white" stroke="#bfbfbf" points="140,-224.5 140,-243.5 247,-243.5 247,-224.5 140,-224.5"/>
<text text-anchor="middle" x="193.5" y="-231.5" font-family="Helvetica,sans-Serif" font-size="10.00">l4/sys/__kip&#45;arch.h</text>
</a>
</g>
</g>
<!-- Node9&#45;&gt;Node10 -->
<g id="edge15" class="edge">
<title>Node9&#45;&gt;Node10</title>
<path fill="none" stroke="midnightblue" d="M300.38,-280.44C279.48,-271.56 246.57,-257.56 222.78,-247.45"/>
<polygon fill="midnightblue" stroke="midnightblue" points="224.1,-244.21 213.53,-243.52 221.36,-250.65 224.1,-244.21"/>
</g>
<!-- Node11 -->
<g id="node11" class="node">
<title>Node11</title>
<g id="a_node11"><a xlink:href="____kip-64bit_8h_source.html" target="_top" xlink:title=" ">
<polygon fill="white" stroke="black" points="265,-224.5 265,-243.5 376,-243.5 376,-224.5 265,-224.5"/>
<text text-anchor="middle" x="320.5" y="-231.5" font-family="Helvetica,sans-Serif" font-size="10.00">l4/sys/__kip&#45;64bit.h</text>
</a>
</g>
</g>
<!-- Node9&#45;&gt;Node11 -->
<g id="edge16" class="edge">
<title>Node9&#45;&gt;Node11</title>
<path fill="none" stroke="midnightblue" d="M320.5,-280.08C320.5,-273.01 320.5,-262.86 320.5,-253.99"/>
<polygon fill="midnightblue" stroke="midnightblue" points="324,-253.75 320.5,-243.75 317,-253.75 324,-253.75"/>
</g>
<!-- Node11&#45;&gt;Node2 -->
<g id="edge17" class="edge">
<title>Node11&#45;&gt;Node2</title>
<path fill="none" stroke="midnightblue" d="M314.06,-224.08C308.55,-216.46 300.47,-205.26 293.74,-195.94"/>
<polygon fill="midnightblue" stroke="midnightblue" points="296.51,-193.81 287.82,-187.75 290.84,-197.91 296.51,-193.81"/>
</g>
</g>
</svg>
