<?xml version="1.0" encoding="UTF-8" standalone="no"?>
<!DOCTYPE svg PUBLIC "-//W3C//DTD SVG 1.1//EN"
 "http://www.w3.org/Graphics/SVG/1.1/DTD/svg11.dtd">
<!-- Generated by graphviz version 2.43.0 (0)
 -->
<!-- Title: l4/re/c/video/view.h Pages: 1 -->
<svg width="479pt" height="308pt"
 viewBox="0.00 0.00 478.64 308.00" xmlns="http://www.w3.org/2000/svg" xmlns:xlink="http://www.w3.org/1999/xlink">
<g id="graph0" class="graph" transform="scale(1 1) rotate(0) translate(4 304)">
<title>l4/re/c/video/view.h</title>
<polygon fill="white" stroke="transparent" points="-4,4 -4,-304 474.64,-304 474.64,4 -4,4"/>
<!-- Node1 -->
<g id="node1" class="node">
<title>Node1</title>
<g id="a_node1"><a xlink:title=" ">
<polygon fill="#bfbfbf" stroke="black" points="228.14,-280.5 228.14,-299.5 339.14,-299.5 339.14,-280.5 228.14,-280.5"/>
<text text-anchor="middle" x="283.64" y="-287.5" font-family="Helvetica,sans-Serif" font-size="10.00">l4/re/c/video/view.h</text>
</a>
</g>
</g>
<!-- Node2 -->
<g id="node2" class="node">
<title>Node2</title>
<g id="a_node2"><a xlink:href="l4_2sys_2types_8h.html" target="_top" xlink:title="Common L4 ABI Data Types.">
<polygon fill="white" stroke="black" points="158.64,-168.5 158.64,-187.5 242.64,-187.5 242.64,-168.5 158.64,-168.5"/>
<text text-anchor="middle" x="200.64" y="-175.5" font-family="Helvetica,sans-Serif" font-size="10.00">l4/sys/types.h</text>
</a>
</g>
</g>
<!-- Node1&#45;&gt;Node2 -->
<g id="edge1" class="edge">
<title>Node1&#45;&gt;Node2</title>
<path fill="none" stroke="midnightblue" d="M265.32,-280.46C250.9,-272.83 231.34,-260.35 219.64,-244 209.91,-230.41 205.12,-211.86 202.79,-198.06"/>
<polygon fill="midnightblue" stroke="midnightblue" points="206.21,-197.21 201.36,-187.79 199.28,-198.18 206.21,-197.21"/>
</g>
<!-- Node9 -->
<g id="node9" class="node">
<title>Node9</title>
<g id="a_node9"><a xlink:href="dataspace_8h.html" target="_top" xlink:title="Data space C interface.">
<polygon fill="white" stroke="black" points="229.14,-224.5 229.14,-243.5 338.14,-243.5 338.14,-224.5 229.14,-224.5"/>
<text text-anchor="middle" x="283.64" y="-231.5" font-family="Helvetica,sans-Serif" font-size="10.00">l4/re/c/dataspace.h</text>
</a>
</g>
</g>
<!-- Node1&#45;&gt;Node9 -->
<g id="edge12" class="edge">
<title>Node1&#45;&gt;Node9</title>
<path fill="none" stroke="midnightblue" d="M283.64,-280.08C283.64,-273.01 283.64,-262.86 283.64,-253.99"/>
<polygon fill="midnightblue" stroke="midnightblue" points="287.14,-253.75 283.64,-243.75 280.14,-253.75 287.14,-253.75"/>
</g>
<!-- Node10 -->
<g id="node10" class="node">
<title>Node10</title>
<g id="a_node10"><a xlink:href="colors_8h.html" target="_top" xlink:title=" ">
<polygon fill="white" stroke="black" points="352.64,-168.5 352.64,-187.5 470.64,-187.5 470.64,-168.5 352.64,-168.5"/>
<text text-anchor="middle" x="411.64" y="-175.5" font-family="Helvetica,sans-Serif" font-size="10.00">l4/re/c/video/colors.h</text>
</a>
</g>
</g>
<!-- Node1&#45;&gt;Node10 -->
<g id="edge14" class="edge">
<title>Node1&#45;&gt;Node10</title>
<path fill="none" stroke="midnightblue" d="M297.39,-280.36C310.72,-271.76 331.26,-257.87 347.64,-244 365.65,-228.74 384.38,-209.21 396.89,-195.56"/>
<polygon fill="midnightblue" stroke="midnightblue" points="399.7,-197.68 403.81,-187.91 394.51,-192.98 399.7,-197.68"/>
</g>
<!-- Node3 -->
<g id="node3" class="node">
<title>Node3</title>
<g id="a_node3"><a xlink:href="l4_2sys_2l4int_8h.html" target="_top" xlink:title="Fixed sized integer types, generic version.">
<polygon fill="white" stroke="black" points="27.14,-56.5 27.14,-75.5 106.14,-75.5 106.14,-56.5 27.14,-56.5"/>
<text text-anchor="middle" x="66.64" y="-63.5" font-family="Helvetica,sans-Serif" font-size="10.00">l4/sys/l4int.h</text>
</a>
</g>
</g>
<!-- Node2&#45;&gt;Node3 -->
<g id="edge2" class="edge">
<title>Node2&#45;&gt;Node3</title>
<path fill="none" stroke="midnightblue" d="M158.57,-173.37C106.83,-167.94 23.51,-155.69 4.64,-132 -10.48,-113.02 15.67,-93.11 38.52,-80.4"/>
<polygon fill="midnightblue" stroke="midnightblue" points="40.44,-83.34 47.65,-75.58 37.18,-77.15 40.44,-83.34"/>
</g>
<!-- Node4 -->
<g id="node4" class="node">
<title>Node4</title>
<g id="a_node4"><a xlink:href="compiler_8h.html" target="_top" xlink:title="L4 compiler related defines.">
<polygon fill="white" stroke="black" points="247.14,-56.5 247.14,-75.5 346.14,-75.5 346.14,-56.5 247.14,-56.5"/>
<text text-anchor="middle" x="296.64" y="-63.5" font-family="Helvetica,sans-Serif" font-size="10.00">l4/sys/compiler.h</text>
</a>
</g>
</g>
<!-- Node2&#45;&gt;Node4 -->
<g id="edge3" class="edge">
<title>Node2&#45;&gt;Node4</title>
<path fill="none" stroke="midnightblue" d="M208.17,-168.37C224.15,-150.05 261.68,-107.05 282.36,-83.36"/>
<polygon fill="midnightblue" stroke="midnightblue" points="285.2,-85.43 289.14,-75.59 279.93,-80.82 285.2,-85.43"/>
</g>
<!-- Node6 -->
<g id="node6" class="node">
<title>Node6</title>
<g id="a_node6"><a xlink:href="l4_2sys_2consts_8h.html" target="_top" xlink:title="Common constants.">
<polygon fill="white" stroke="black" points="138.14,-112.5 138.14,-131.5 227.14,-131.5 227.14,-112.5 138.14,-112.5"/>
<text text-anchor="middle" x="182.64" y="-119.5" font-family="Helvetica,sans-Serif" font-size="10.00">l4/sys/consts.h</text>
</a>
</g>
</g>
<!-- Node2&#45;&gt;Node6 -->
<g id="edge5" class="edge">
<title>Node2&#45;&gt;Node6</title>
<path fill="none" stroke="midnightblue" d="M197.66,-168.08C195.25,-160.85 191.77,-150.41 188.77,-141.4"/>
<polygon fill="midnightblue" stroke="midnightblue" points="192.04,-140.13 185.55,-131.75 185.4,-142.34 192.04,-140.13"/>
</g>
<!-- Node7 -->
<g id="node7" class="node">
<title>Node7</title>
<g id="a_node7"><a xlink:href="____l4__fpage_8h_source.html" target="_top" xlink:title=" ">
<polygon fill="white" stroke="black" points="283.64,-112.5 283.64,-131.5 393.64,-131.5 393.64,-112.5 283.64,-112.5"/>
<text text-anchor="middle" x="338.64" y="-119.5" font-family="Helvetica,sans-Serif" font-size="10.00">l4/sys/__l4_fpage.h</text>
</a>
</g>
</g>
<!-- Node2&#45;&gt;Node7 -->
<g id="edge8" class="edge">
<title>Node2&#45;&gt;Node7</title>
<path fill="none" stroke="midnightblue" d="M222.5,-168.44C245.42,-159.48 281.61,-145.31 307.5,-135.18"/>
<polygon fill="midnightblue" stroke="midnightblue" points="308.84,-138.42 316.87,-131.52 306.28,-131.9 308.84,-138.42"/>
</g>
<!-- Node8 -->
<g id="node8" class="node">
<title>Node8</title>
<g id="a_node8"><a xlink:href="____timeout_8h_source.html" target="_top" xlink:title=" ">
<polygon fill="white" stroke="black" points="13.64,-112.5 13.64,-131.5 119.64,-131.5 119.64,-112.5 13.64,-112.5"/>
<text text-anchor="middle" x="66.64" y="-119.5" font-family="Helvetica,sans-Serif" font-size="10.00">l4/sys/__timeout.h</text>
</a>
</g>
</g>
<!-- Node2&#45;&gt;Node8 -->
<g id="edge10" class="edge">
<title>Node2&#45;&gt;Node8</title>
<path fill="none" stroke="midnightblue" d="M179.4,-168.44C157.25,-159.52 122.32,-145.44 97.2,-135.32"/>
<polygon fill="midnightblue" stroke="midnightblue" points="98.35,-132.01 87.77,-131.52 95.74,-138.5 98.35,-132.01"/>
</g>
<!-- Node5 -->
<g id="node5" class="node">
<title>Node5</title>
<g id="a_node5"><a xlink:title=" ">
<polygon fill="white" stroke="#bfbfbf" points="250.64,-0.5 250.64,-19.5 342.64,-19.5 342.64,-0.5 250.64,-0.5"/>
<text text-anchor="middle" x="296.64" y="-7.5" font-family="Helvetica,sans-Serif" font-size="10.00">l4/sys/linkage.h</text>
</a>
</g>
</g>
<!-- Node4&#45;&gt;Node5 -->
<g id="edge4" class="edge">
<title>Node4&#45;&gt;Node5</title>
<path fill="none" stroke="midnightblue" d="M296.64,-56.08C296.64,-49.01 296.64,-38.86 296.64,-29.99"/>
<polygon fill="midnightblue" stroke="midnightblue" points="300.14,-29.75 296.64,-19.75 293.14,-29.75 300.14,-29.75"/>
</g>
<!-- Node6&#45;&gt;Node3 -->
<g id="edge7" class="edge">
<title>Node6&#45;&gt;Node3</title>
<path fill="none" stroke="midnightblue" d="M164.26,-112.44C145.42,-103.68 115.91,-89.94 94.26,-79.86"/>
<polygon fill="midnightblue" stroke="midnightblue" points="95.47,-76.56 84.93,-75.52 92.52,-82.91 95.47,-76.56"/>
</g>
<!-- Node6&#45;&gt;Node4 -->
<g id="edge6" class="edge">
<title>Node6&#45;&gt;Node4</title>
<path fill="none" stroke="midnightblue" d="M200.7,-112.44C219.21,-103.68 248.22,-89.94 269.49,-79.86"/>
<polygon fill="midnightblue" stroke="midnightblue" points="271.12,-82.96 278.66,-75.52 268.12,-76.63 271.12,-82.96"/>
</g>
<!-- Node7&#45;&gt;Node4 -->
<g id="edge9" class="edge">
<title>Node7&#45;&gt;Node4</title>
<path fill="none" stroke="midnightblue" d="M331.7,-112.08C325.71,-104.38 316.88,-93.03 309.59,-83.65"/>
<polygon fill="midnightblue" stroke="midnightblue" points="312.35,-81.5 303.44,-75.75 306.82,-85.79 312.35,-81.5"/>
</g>
<!-- Node8&#45;&gt;Node3 -->
<g id="edge11" class="edge">
<title>Node8&#45;&gt;Node3</title>
<path fill="none" stroke="midnightblue" d="M66.64,-112.08C66.64,-105.01 66.64,-94.86 66.64,-85.99"/>
<polygon fill="midnightblue" stroke="midnightblue" points="70.14,-85.75 66.64,-75.75 63.14,-85.75 70.14,-85.75"/>
</g>
<!-- Node9&#45;&gt;Node2 -->
<g id="edge13" class="edge">
<title>Node9&#45;&gt;Node2</title>
<path fill="none" stroke="midnightblue" d="M270.3,-224.32C257.47,-215.98 237.85,-203.21 222.7,-193.35"/>
<polygon fill="midnightblue" stroke="midnightblue" points="224.23,-190.17 213.94,-187.65 220.41,-196.04 224.23,-190.17"/>
</g>
<!-- Node10&#45;&gt;Node4 -->
<g id="edge15" class="edge">
<title>Node10&#45;&gt;Node4</title>
<path fill="none" stroke="midnightblue" d="M412.93,-168.42C414.45,-154.94 415.38,-128.64 402.64,-112 390.27,-95.85 370.98,-85.42 352.24,-78.73"/>
<polygon fill="midnightblue" stroke="midnightblue" points="353.11,-75.33 342.52,-75.56 350.94,-81.99 353.11,-75.33"/>
</g>
</g>
</svg>
