<?xml version="1.0" encoding="UTF-8" standalone="no"?>
<!DOCTYPE svg PUBLIC "-//W3C//DTD SVG 1.1//EN"
 "http://www.w3.org/Graphics/SVG/1.1/DTD/svg11.dtd">
<!-- Generated by graphviz version 2.43.0 (0)
 -->
<!-- Title: x86/l4/util/port_io.h Pages: 1 -->
<svg width="288pt" height="140pt"
 viewBox="0.00 0.00 288.00 140.00" xmlns="http://www.w3.org/2000/svg" xmlns:xlink="http://www.w3.org/1999/xlink">
<g id="graph0" class="graph" transform="scale(1 1) rotate(0) translate(4 136)">
<title>x86/l4/util/port_io.h</title>
<polygon fill="white" stroke="transparent" points="-4,4 -4,-136 284,-136 284,4 -4,4"/>
<!-- Node1 -->
<g id="node1" class="node">
<title>Node1</title>
<g id="a_node1"><a xlink:title="x86 port I/O">
<polygon fill="#bfbfbf" stroke="black" points="80,-112.5 80,-131.5 191,-131.5 191,-112.5 80,-112.5"/>
<text text-anchor="middle" x="135.5" y="-119.5" font-family="Helvetica,sans-Serif" font-size="10.00">x86/l4/util/port_io.h</text>
</a>
</g>
</g>
<!-- Node2 -->
<g id="node2" class="node">
<title>Node2</title>
<g id="a_node2"><a xlink:href="amd64_2l4_2util_2port__io_8h.html" target="_top" xlink:title="Port I/O functions.">
<polygon fill="white" stroke="black" points="0,-56.5 0,-75.5 127,-75.5 127,-56.5 0,-56.5"/>
<text text-anchor="middle" x="63.5" y="-63.5" font-family="Helvetica,sans-Serif" font-size="10.00">amd64/l4/util/port_io.h</text>
</a>
</g>
</g>
<!-- Node1&#45;&gt;Node2 -->
<g id="edge1" class="edge">
<title>Node1&#45;&gt;Node2</title>
<path fill="none" stroke="midnightblue" d="M115.63,-106.1C102.68,-96.38 86.2,-84.03 75.28,-75.83"/>
<polygon fill="midnightblue" stroke="midnightblue" points="113.83,-109.12 123.93,-112.32 118.03,-103.52 113.83,-109.12"/>
</g>
<!-- Node3 -->
<g id="node3" class="node">
<title>Node3</title>
<g id="a_node3"><a xlink:href="x86_2l4f_2l4_2util_2port__io_8h.html" target="_top" xlink:title="port I/O functions">
<polygon fill="white" stroke="black" points="145,-56.5 145,-75.5 272,-75.5 272,-56.5 145,-56.5"/>
<text text-anchor="middle" x="208.5" y="-63.5" font-family="Helvetica,sans-Serif" font-size="10.00">x86/l4f/l4/util/port_io.h</text>
</a>
</g>
</g>
<!-- Node1&#45;&gt;Node3 -->
<g id="edge2" class="edge">
<title>Node1&#45;&gt;Node3</title>
<path fill="none" stroke="midnightblue" d="M155.64,-106.1C168.78,-96.38 185.48,-84.03 196.56,-75.83"/>
<polygon fill="midnightblue" stroke="midnightblue" points="153.19,-103.56 147.23,-112.32 157.35,-109.19 153.19,-103.56"/>
</g>
<!-- Node4 -->
<g id="node4" class="node">
<title>Node4</title>
<g id="a_node4"><a xlink:href="amd64_2l4f_2l4_2util_2port__io_8h.html" target="_top" xlink:title="Port I/O functions.">
<polygon fill="white" stroke="black" points="137,-0.5 137,-19.5 280,-19.5 280,-0.5 137,-0.5"/>
<text text-anchor="middle" x="208.5" y="-7.5" font-family="Helvetica,sans-Serif" font-size="10.00">amd64/l4f/l4/util/port_io.h</text>
</a>
</g>
</g>
<!-- Node3&#45;&gt;Node4 -->
<g id="edge3" class="edge">
<title>Node3&#45;&gt;Node4</title>
<path fill="none" stroke="midnightblue" d="M208.5,-45.8C208.5,-36.91 208.5,-26.78 208.5,-19.75"/>
<polygon fill="midnightblue" stroke="midnightblue" points="205,-46.08 208.5,-56.08 212,-46.08 205,-46.08"/>
</g>
</g>
</svg>
