<?xml version="1.0" encoding="UTF-8" standalone="no"?>
<!DOCTYPE svg PUBLIC "-//W3C//DTD SVG 1.1//EN"
 "http://www.w3.org/Graphics/SVG/1.1/DTD/svg11.dtd">
<!-- Generated by graphviz version 2.43.0 (0)
 -->
<!-- Title: x86/l4/util/perform.h Pages: 1 -->
<svg width="418pt" height="252pt"
 viewBox="0.00 0.00 417.91 252.00" xmlns="http://www.w3.org/2000/svg" xmlns:xlink="http://www.w3.org/1999/xlink">
<g id="graph0" class="graph" transform="scale(1 1) rotate(0) translate(4 248)">
<title>x86/l4/util/perform.h</title>
<polygon fill="white" stroke="transparent" points="-4,4 -4,-248 413.91,-248 413.91,4 -4,4"/>
<!-- Node1 -->
<g id="node1" class="node">
<title>Node1</title>
<g id="a_node1"><a xlink:title="Perfomance Monitoring using P5/P6 Measurement Counters.">
<polygon fill="#bfbfbf" stroke="black" points="244.73,-224.5 244.73,-243.5 360.73,-243.5 360.73,-224.5 244.73,-224.5"/>
<text text-anchor="middle" x="302.73" y="-231.5" font-family="Helvetica,sans-Serif" font-size="10.00">x86/l4/util/perform.h</text>
</a>
</g>
</g>
<!-- Node2 -->
<g id="node2" class="node">
<title>Node2</title>
<g id="a_node2"><a xlink:href="l4_2sys_2types_8h.html" target="_top" xlink:title="Common L4 ABI Data Types.">
<polygon fill="white" stroke="black" points="177.73,-168.5 177.73,-187.5 261.73,-187.5 261.73,-168.5 177.73,-168.5"/>
<text text-anchor="middle" x="219.73" y="-175.5" font-family="Helvetica,sans-Serif" font-size="10.00">l4/sys/types.h</text>
</a>
</g>
</g>
<!-- Node1&#45;&gt;Node2 -->
<g id="edge1" class="edge">
<title>Node1&#45;&gt;Node2</title>
<path fill="none" stroke="midnightblue" d="M289.39,-224.32C276.56,-215.98 256.94,-203.21 241.79,-193.35"/>
<polygon fill="midnightblue" stroke="midnightblue" points="243.32,-190.17 233.03,-187.65 239.5,-196.04 243.32,-190.17"/>
</g>
<!-- Node4 -->
<g id="node4" class="node">
<title>Node4</title>
<g id="a_node4"><a xlink:href="compiler_8h.html" target="_top" xlink:title="L4 compiler related defines.">
<polygon fill="white" stroke="black" points="247.23,-56.5 247.23,-75.5 346.23,-75.5 346.23,-56.5 247.23,-56.5"/>
<text text-anchor="middle" x="296.73" y="-63.5" font-family="Helvetica,sans-Serif" font-size="10.00">l4/sys/compiler.h</text>
</a>
</g>
</g>
<!-- Node1&#45;&gt;Node4 -->
<g id="edge12" class="edge">
<title>Node1&#45;&gt;Node4</title>
<path fill="none" stroke="midnightblue" d="M319.84,-224.4C355.63,-205.25 432.66,-157.22 402.73,-112 392.07,-95.89 374.36,-85.53 356.43,-78.88"/>
<polygon fill="midnightblue" stroke="midnightblue" points="357.09,-75.41 346.5,-75.55 354.87,-82.05 357.09,-75.41"/>
</g>
<!-- Node3 -->
<g id="node3" class="node">
<title>Node3</title>
<g id="a_node3"><a xlink:href="l4_2sys_2l4int_8h.html" target="_top" xlink:title="Fixed sized integer types, generic version.">
<polygon fill="white" stroke="black" points="27.23,-56.5 27.23,-75.5 106.23,-75.5 106.23,-56.5 27.23,-56.5"/>
<text text-anchor="middle" x="66.73" y="-63.5" font-family="Helvetica,sans-Serif" font-size="10.00">l4/sys/l4int.h</text>
</a>
</g>
</g>
<!-- Node2&#45;&gt;Node3 -->
<g id="edge2" class="edge">
<title>Node2&#45;&gt;Node3</title>
<path fill="none" stroke="midnightblue" d="M177.5,-174.31C121.17,-169.74 26.07,-158.27 4.73,-132 -10.64,-113.09 15.85,-93.04 38.83,-80.3"/>
<polygon fill="midnightblue" stroke="midnightblue" points="40.47,-83.39 47.68,-75.63 37.21,-77.2 40.47,-83.39"/>
</g>
<!-- Node2&#45;&gt;Node4 -->
<g id="edge3" class="edge">
<title>Node2&#45;&gt;Node4</title>
<path fill="none" stroke="midnightblue" d="M225.77,-168.37C238.47,-150.22 268.16,-107.8 284.83,-83.99"/>
<polygon fill="midnightblue" stroke="midnightblue" points="287.84,-85.79 290.71,-75.59 282.11,-81.78 287.84,-85.79"/>
</g>
<!-- Node6 -->
<g id="node6" class="node">
<title>Node6</title>
<g id="a_node6"><a xlink:href="l4_2sys_2consts_8h.html" target="_top" xlink:title="Common constants.">
<polygon fill="white" stroke="black" points="138.23,-112.5 138.23,-131.5 227.23,-131.5 227.23,-112.5 138.23,-112.5"/>
<text text-anchor="middle" x="182.73" y="-119.5" font-family="Helvetica,sans-Serif" font-size="10.00">l4/sys/consts.h</text>
</a>
</g>
</g>
<!-- Node2&#45;&gt;Node6 -->
<g id="edge5" class="edge">
<title>Node2&#45;&gt;Node6</title>
<path fill="none" stroke="midnightblue" d="M213.62,-168.08C208.44,-160.53 200.88,-149.49 194.53,-140.23"/>
<polygon fill="midnightblue" stroke="midnightblue" points="197.26,-138.02 188.72,-131.75 191.49,-141.98 197.26,-138.02"/>
</g>
<!-- Node7 -->
<g id="node7" class="node">
<title>Node7</title>
<g id="a_node7"><a xlink:href="____l4__fpage_8h_source.html" target="_top" xlink:title=" ">
<polygon fill="white" stroke="black" points="283.73,-112.5 283.73,-131.5 393.73,-131.5 393.73,-112.5 283.73,-112.5"/>
<text text-anchor="middle" x="338.73" y="-119.5" font-family="Helvetica,sans-Serif" font-size="10.00">l4/sys/__l4_fpage.h</text>
</a>
</g>
</g>
<!-- Node2&#45;&gt;Node7 -->
<g id="edge8" class="edge">
<title>Node2&#45;&gt;Node7</title>
<path fill="none" stroke="midnightblue" d="M238.58,-168.44C257.99,-159.64 288.46,-145.81 310.69,-135.72"/>
<polygon fill="midnightblue" stroke="midnightblue" points="312.3,-138.84 319.96,-131.52 309.41,-132.46 312.3,-138.84"/>
</g>
<!-- Node8 -->
<g id="node8" class="node">
<title>Node8</title>
<g id="a_node8"><a xlink:href="____timeout_8h_source.html" target="_top" xlink:title=" ">
<polygon fill="white" stroke="black" points="13.73,-112.5 13.73,-131.5 119.73,-131.5 119.73,-112.5 13.73,-112.5"/>
<text text-anchor="middle" x="66.73" y="-119.5" font-family="Helvetica,sans-Serif" font-size="10.00">l4/sys/__timeout.h</text>
</a>
</g>
</g>
<!-- Node2&#45;&gt;Node8 -->
<g id="edge10" class="edge">
<title>Node2&#45;&gt;Node8</title>
<path fill="none" stroke="midnightblue" d="M195.48,-168.44C169.85,-159.4 129.24,-145.06 100.49,-134.92"/>
<polygon fill="midnightblue" stroke="midnightblue" points="101.45,-131.54 90.86,-131.52 99.12,-138.15 101.45,-131.54"/>
</g>
<!-- Node5 -->
<g id="node5" class="node">
<title>Node5</title>
<g id="a_node5"><a xlink:title=" ">
<polygon fill="white" stroke="#bfbfbf" points="250.73,-0.5 250.73,-19.5 342.73,-19.5 342.73,-0.5 250.73,-0.5"/>
<text text-anchor="middle" x="296.73" y="-7.5" font-family="Helvetica,sans-Serif" font-size="10.00">l4/sys/linkage.h</text>
</a>
</g>
</g>
<!-- Node4&#45;&gt;Node5 -->
<g id="edge4" class="edge">
<title>Node4&#45;&gt;Node5</title>
<path fill="none" stroke="midnightblue" d="M296.73,-56.08C296.73,-49.01 296.73,-38.86 296.73,-29.99"/>
<polygon fill="midnightblue" stroke="midnightblue" points="300.23,-29.75 296.73,-19.75 293.23,-29.75 300.23,-29.75"/>
</g>
<!-- Node6&#45;&gt;Node3 -->
<g id="edge7" class="edge">
<title>Node6&#45;&gt;Node3</title>
<path fill="none" stroke="midnightblue" d="M164.35,-112.44C145.51,-103.68 115.99,-89.94 94.35,-79.86"/>
<polygon fill="midnightblue" stroke="midnightblue" points="95.56,-76.56 85.02,-75.52 92.61,-82.91 95.56,-76.56"/>
</g>
<!-- Node6&#45;&gt;Node4 -->
<g id="edge6" class="edge">
<title>Node6&#45;&gt;Node4</title>
<path fill="none" stroke="midnightblue" d="M200.79,-112.44C219.3,-103.68 248.31,-89.94 269.58,-79.86"/>
<polygon fill="midnightblue" stroke="midnightblue" points="271.21,-82.96 278.75,-75.52 268.21,-76.63 271.21,-82.96"/>
</g>
<!-- Node7&#45;&gt;Node4 -->
<g id="edge9" class="edge">
<title>Node7&#45;&gt;Node4</title>
<path fill="none" stroke="midnightblue" d="M331.79,-112.08C325.8,-104.38 316.97,-93.03 309.68,-83.65"/>
<polygon fill="midnightblue" stroke="midnightblue" points="312.43,-81.5 303.53,-75.75 306.91,-85.79 312.43,-81.5"/>
</g>
<!-- Node8&#45;&gt;Node3 -->
<g id="edge11" class="edge">
<title>Node8&#45;&gt;Node3</title>
<path fill="none" stroke="midnightblue" d="M66.73,-112.08C66.73,-105.01 66.73,-94.86 66.73,-85.99"/>
<polygon fill="midnightblue" stroke="midnightblue" points="70.23,-85.75 66.73,-75.75 63.23,-85.75 70.23,-85.75"/>
</g>
</g>
</svg>
