<?xml version="1.0" encoding="UTF-8" standalone="no"?>
<!DOCTYPE svg PUBLIC "-//W3C//DTD SVG 1.1//EN"
 "http://www.w3.org/Graphics/SVG/1.1/DTD/svg11.dtd">
<!-- Generated by graphviz version 2.43.0 (0)
 -->
<!-- Title: l4util_cpu_capabilities Pages: 1 -->
<svg width="425pt" height="78pt"
 viewBox="0.00 0.00 425.00 77.50" xmlns="http://www.w3.org/2000/svg" xmlns:xlink="http://www.w3.org/1999/xlink">
<g id="graph0" class="graph" transform="scale(1 1) rotate(0) translate(4 73.5)">
<title>l4util_cpu_capabilities</title>
<polygon fill="white" stroke="transparent" points="-4,4 -4,-73.5 421,-73.5 421,4 -4,4"/>
<!-- Node1 -->
<g id="node1" class="node">
<title>Node1</title>
<g id="a_node1"><a xlink:title="Returns the CPU capabilities if the &quot;cpuid&quot; instruction is available.">
<polygon fill="#bfbfbf" stroke="black" points="0,-22.5 0,-41.5 125,-41.5 125,-22.5 0,-22.5"/>
<text text-anchor="middle" x="62.5" y="-29.5" font-family="Helvetica,sans-Serif" font-size="10.00">l4util_cpu_capabilities</text>
</a>
</g>
</g>
<!-- Node2 -->
<g id="node2" class="node">
<title>Node2</title>
<g id="a_node2"><a xlink:href="amd64_2l4_2util_2cpu_8h.html#a7b371adca6d25b6c78978446e7c5d9d7" target="_top" xlink:title="Returns the CPU capabilities.">
<polygon fill="white" stroke="black" points="161,-39 161,-69 286,-69 286,-39 161,-39"/>
<text text-anchor="start" x="169" y="-57" font-family="Helvetica,sans-Serif" font-size="10.00">l4util_cpu_capabilities</text>
<text text-anchor="middle" x="223.5" y="-46" font-family="Helvetica,sans-Serif" font-size="10.00">_nocheck</text>
</a>
</g>
</g>
<!-- Node1&#45;&gt;Node2 -->
<g id="edge1" class="edge">
<title>Node1&#45;&gt;Node2</title>
<path fill="none" stroke="midnightblue" d="M125.43,-40.57C133.67,-41.71 142.18,-42.89 150.58,-44.05"/>
<polygon fill="midnightblue" stroke="midnightblue" points="150.35,-47.55 160.74,-45.45 151.31,-40.62 150.35,-47.55"/>
</g>
<!-- Node4 -->
<g id="node4" class="node">
<title>Node4</title>
<g id="a_node4"><a xlink:href="amd64_2l4_2util_2cpu_8h.html#ae95607a69173331386af6f334be961ce" target="_top" xlink:title="Check whether the CPU supports the &quot;cpuid&quot; instruction.">
<polygon fill="white" stroke="black" points="164.5,-0.5 164.5,-19.5 282.5,-19.5 282.5,-0.5 164.5,-0.5"/>
<text text-anchor="middle" x="223.5" y="-7.5" font-family="Helvetica,sans-Serif" font-size="10.00">l4util_cpu_has_cpuid</text>
</a>
</g>
</g>
<!-- Node1&#45;&gt;Node4 -->
<g id="edge3" class="edge">
<title>Node1&#45;&gt;Node4</title>
<path fill="none" stroke="midnightblue" d="M125.43,-23.43C134.94,-22.11 144.81,-20.75 154.45,-19.42"/>
<polygon fill="midnightblue" stroke="midnightblue" points="154.96,-22.88 164.38,-18.04 154,-15.95 154.96,-22.88"/>
</g>
<!-- Node3 -->
<g id="node3" class="node">
<title>Node3</title>
<g id="a_node3"><a xlink:href="amd64_2l4_2util_2cpu_8h.html#a210ddb09b799c674102ae776eaa9e003" target="_top" xlink:title="Generic CPUID access function.">
<polygon fill="white" stroke="black" points="322,-44.5 322,-63.5 417,-63.5 417,-44.5 322,-44.5"/>
<text text-anchor="middle" x="369.5" y="-51.5" font-family="Helvetica,sans-Serif" font-size="10.00">l4util_cpu_cpuid</text>
</a>
</g>
</g>
<!-- Node2&#45;&gt;Node3 -->
<g id="edge2" class="edge">
<title>Node2&#45;&gt;Node3</title>
<path fill="none" stroke="midnightblue" d="M286.4,-54C294.86,-54 303.5,-54 311.86,-54"/>
<polygon fill="midnightblue" stroke="midnightblue" points="311.87,-57.5 321.87,-54 311.87,-50.5 311.87,-57.5"/>
</g>
</g>
</svg>
